<svg xmlns="http://www.w3.org/2000/svg" viewBox="-0.21300019323825836 0.3558969497680664 855.4210205078125 326.8244934082031"><g fill="none"><path fill="#7F5AC2" d="M597.165 7.074c37.281-14.19 70.146-5.042 99.856 19.36 21.564 17.715 36.732 40.797 51.446 64.033 16.214 25.62 31.647 51.754 47.69 77.494 10.049 16.111 21.676 30.67 40.84 36.87 5.95 1.92 12.098 2.246 18.211 3v4.64c-1.106-.918-2.315-.858-3.627-.506-28.62 7.46-52.449-2.624-74.296-20.219-21.847-17.594-37.813-40.539-53.76-63.304-22.01-31.364-42.718-63.724-69.1-91.744-7.332-7.803-14.011-16.609-24.798-20.27-5.041-5.762-11.866-7.237-19.026-8.051-4.484-.549-9.192 1.475-13.436-1.303zM196.678 5.805c40.805-13.496 74.596-.506 104.357 27.652 10.29 9.723 18.907 20.86 27.078 32.368 6.765 11.54 15.93 21.53 21.856 33.61 1.003 2.059 2.898 1.664 4.613 1.801-1.347 3.087.36 5.47 1.826 7.889 10.658 17.594 21.213 35.257 32.025 52.757 8.943 14.474 18.323 28.595 33.311 37.856 4.158 2.572 8.086 4.201 12.861 2.255 1.964 3.584 5.145 4.33 8.995 4.518 4.707.24 9.663-1.629 14.147 1.252-17.62 9.072-35.797 8.471-53.795 1.964-27.206-9.844-45.443-30.868-63.132-52.38-4.39-5.334-8.574-10.83-12.861-16.249-5.642-12.09-15.031-21.693-22.054-32.874-.471-.754-2.34-.634-3.566-.926.42-6.662-4.725-10.675-7.914-15.348a511.653 511.653 0 00-50.049-62.378c-5.23-5.564-10.692-11.052-18.4-13.29-6.636-5.702-14.79-6.97-23.056-7.957-2.272-.274-5.36 1.27-6.242-2.52z"></path><path fill="#CB67CC" d="M196.678 5.805c.857 3.79 3.97 2.246 6.242 2.52 8.265.986 16.42 2.255 23.056 7.957-26.074 20.416-44.389 47.528-63.767 73.74-19.72 26.648-36.012 55.792-58.682 80.211-19.644 21.162-40.582 40.866-71.364 44.252a55.141 55.141 0 01-32.376-6.002c6.662 3.945 11.875-1.86 17.534-2.966 18.272-3.567 30.927-15.828 40.54-30.928 15.999-25.157 31.338-50.742 46.9-76.182 13.033-21.299 26.77-42.134 43.884-60.38 13.444-14.336 28.638-26.546 48.033-32.222zm261.044 201.958c-4.485-2.88-9.432-1.012-14.148-1.252-3.884-.188-7.03-.934-8.994-4.518 10.049-7.529 19.18-15.846 26.374-26.358 12.716-18.597 23.897-38.12 35.395-57.447 2.94-4.956 7.597-9.15 8.034-15.434 9.389-6.62 12.518-17.775 19.018-26.486 2.469-3.318 6.002-6.62 5.453-11.55 7.34-3.592 10.092-11.3 15.073-16.985 13.145-15.005 27.344-28.621 45.384-37.65 2.495-1.243 4.845-3 7.837-2.992 4.287 2.77 8.952.754 13.419 1.269 7.16.814 13.984 2.29 19.026 8.051-28.492 23.056-49.165 52.783-70.189 82.21-1.81 2.53-3.644 5.05-2.692 8.463-6.86.926-9.115 7.21-11.721 11.824-4.442 7.862-13.385 13.41-12.973 23.87-4.656-.282-5.642 3.833-7.717 6.56-14.834 19.78-30.859 38.43-52.003 51.892-4.51 2.863-8.909 6.156-14.576 6.533z"></path><path fill="#7F5AC2" d="M528.888 64.727c.532 4.93-2.984 8.231-5.453 11.55-6.5 8.711-9.629 19.866-19.018 26.486-5.727-7.863-11.37-15.786-17.2-23.571-15.777-21.153-31.382-42.503-52.157-59.24-2.324-1.869-4.442-4.51-8.077-3.37-5.145-6.31-12.356-7.476-19.798-8.222-2.572-.258-6.002 1.183-6.714-3.087 34.632-11.207 65.07-2.427 92.662 19.566 14.14 11.267 25.569 25.012 35.755 39.888z"></path><path fill="#CB67CC" d="M302.33 107.298c1.226.292 3.095.172 3.567.926 7.022 11.147 16.411 20.784 22.053 32.874-16.034 23.15-33.603 44.775-57.79 60.14-19.164 12.184-39.51 16.891-61.787 10.838a75.574 75.574 0 01-7.991-2.83c-.858-.343-1.544-1.097-3.49-2.572 8.309.626 15.108.643 21.899-.857 19.352-4.287 31.828-17.38 41.894-33.037 12.372-19.232 23.87-39.03 35.892-58.494 1.569-2.512 2.52-5.727 5.753-6.988z"></path><path fill="#7F5AC2" d="M532.035 142.753c-.412-10.46 8.574-16.008 12.973-23.87 2.572-4.614 4.844-10.899 11.72-11.825 13.994 22.688 27.507 45.701 42.195 67.951 7.794 11.816 16.883 23.022 31.133 28.295 7.271 2.693 14.8 3.55 22.439 4.425-.154 4.493-3.601 4.476-6.508 5.144-24.214 5.24-45.358-2.306-64.496-16.402-19.892-14.68-35.754-33.243-49.456-53.718z"></path><path fill="#CB67CC" d="M400.471 5.273c.738 4.287 4.167 2.83 6.714 3.087 7.442.746 14.679 1.912 19.798 8.222-19.438 16.051-34.786 35.84-50.468 55.313-7.666 9.518-13.23 20.578-21.933 29.341-1.715-.137-3.61.258-4.613-1.8-5.925-12.081-15.091-22.07-21.856-33.611 12.304-16.858 25.363-33.02 42.262-45.633 9.124-6.808 18.872-12.347 30.096-14.919z"></path><path fill="#7F5AC2" d="M454.215 282.882c5.856-6.002 12.192-10.983 21.092-11.36 13.23-.566 21.805 5.924 26.83 18.314 4.38-15.69 13.624-21.436 27.257-17.509 3.018.858 5.925 1.664 4.656 6.251-1.39 4.999-4.287 1.964-6.637 1.715-2.349-.249-4.381-1.423-6.799-.909-3.181.677-6.07 1.783-6.937 5.265-.866 3.48 1.166 6.002 4.039 7.545 3.155 1.715 6.593 2.89 9.783 4.553 6.86 3.575 10.29 9.097 9.097 17.037-1.054 6.86-6.43 11.704-14.516 12.861a33.44 33.44 0 01-15.28-1.054c-2.777-.926-5.435-1.715-4.08-5.822 1.311-3.987 3.49-3.43 6.524-2.29a25.534 25.534 0 008.232 1.715c3.987.069 7.88-.857 8.908-5.65.978-4.536-1.354-7.305-5.281-9.123-6.517-3.01-13.385-5.539-18.006-12.458.231 13.144-1.132 25.722-14.336 32.076-12.862 6.182-24.506 3.258-35.378-8.935 2.16 11.19-4.347 11.267-10.495 11.722-11.558.857-21.821-1.561-27.36-12.948-5.385-11.035-4.51-22.138 2.718-32.042 7.228-9.903 17.808-11.198 29.152-9.68 6.088.857 8.069 3.644 5.316 9.329-1.715-.249-3.524-.429-5.264-.763-10.452-1.998-17.089.325-21.436 7.554-4.965 8.24-4.484 17.671 1.235 24.316 5.487 6.38 13.59 7.666 23.262 4.347 2.94-1.011 3.72-1.989 2.572-4.775-4.133-9.93-2.04-19.653 1.132-29.282zm37.88 16.189a20.758 20.758 0 00-2.297-11.233c-5.145-10.589-18.752-11.532-24.985-1.56-5.008 8.008-5.282 16.642-.73 24.994 2.727 5.007 7.015 8.051 13.162 7.871 6.148-.18 9.87-4.021 12.562-8.883a18.958 18.958 0 002.289-11.19zm152.091-20.621c2.461-1.853 4.742-3.945 7.366-5.428 2.623-1.483 7.614-2.984 8.394-.523 2.77 8.78 6.585 2.572 9.826 1.252 8.189-3.284 16.291-3.644 23.545 1.663 7.254 5.308 8.96 13.41 8.935 22.002 0 3.661-2.161 4.081-5.068 4.064-8.763-.051-17.534.291-26.28-.06-6.38-.266-6.096 2.83-4.424 7.108 3.052 7.777 11.446 11.24 22.044 10.16 3.224-.334 8.806-5.556 9.99 1.612 1.062 6.483-5.651 5.522-9.304 6.002-9.586 1.312-19.275 1.252-26.717-6.447-9.02-9.338-7.949-20.51-5.308-31.905.472-2.007 3.293-4.433.454-6.054-2.263-1.286-4.895.103-7.056 1.87-4.373 3.575-5.874 8.325-5.925 13.718-.069 7.717-.154 15.434 0 23.15.094 3.894-.96 5.608-5.162 5.608-4.201 0-5.144-1.792-5.067-5.624.163-11.335-.146-22.67 0-34.006.06-4.733-1.818-6.242-6.44-6.156-4.62.086-5.478 2.52-5.435 6.405.111 10.563.094 21.127 0 31.725 0 3.43 1.114 7.262-4.93 7.314-5.737.05-5.334-3.242-5.308-6.989.043-10.563 0-21.127 0-31.724 0-3.43.566-6.963-4.725-6.757-1.894.069-2.418-1.603-2.443-3.292-.026-1.69-.369-4.288 1.92-4.425 5.728-.463 5.102-4.681 5.66-8.403 1.714-11.515 9.011-17.834 19.78-17.56 3.996.103 6.654 1.715 6.774 5.66.146 4.784-3.507 2.966-6.13 3.009-6.774.111-11.73 6.542-10.564 13.273.437 2.572 1.843 3.533 4.167 3.584 2.83.069 5.668.043 8.497.051 6.902-.008 6.902-.017 8.934 6.122zm34.4 15.545c2.83 0 5.668-.206 8.472.042 5.539.498 6.07-2.074 4.424-6.465-1.775-4.724-4.87-7.785-9.972-8.445-5.264-.686-9.689.977-12.775 5.359-1.715 2.47-4.099 5.427-2.65 8.325 1.235 2.487 4.673.858 7.117 1.106a45.1 45.1 0 005.384.078zm-294.938 25.611c-18.794 13.427-33.5 8.351-39.724-13.59-.995-3.499-2.521-4.579-5.788-4.545-8.497.086-16.985.146-25.474 0-4.124-.085-4.69 1.672-3.841 5.24 1.715 7.245 6.86 10.623 13.53 12.003 4.073.858 8.18.206 12.227-.771 2.752-.66 6.096-2.847 7.03 2.426.858 4.999-3.026 4.502-5.735 5.29a32.445 32.445 0 01-16.069.858c-17.311-3.927-21.633-9.235-21.238-29.59.283-14.748 9.972-24.865 23.665-25.423 8.308-.334 15.434 2.298 19.258 10.178 2.572 5.256 3.944 4.287 6.962.18 7.888-10.65 17.457-13.119 29.847-7.58 4.502 2.015 4.759.335 4.733-3.172 0-6.174.086-12.356-.077-18.52-.103-3.773 1.535-4.802 5.145-4.76 3.61.044 4.998 1.167 5.007 4.888.06 22.902.283 45.795.471 68.697 0 2.504-.222 4.287-3.566 4.682-5.085.608-5.977-2.564-6.363-6.491zm-.308-21.822a22.567 22.567 0 00-1.03-8.274c-1.765-5.462-5.495-8.574-10.983-9.517-5.23-.918-9.62.909-12.998 4.939-5.54 6.61-6.002 20.578-1.038 27.677a13.865 13.865 0 0021.436 1.767c4.441-4.425 4.647-10.032 4.613-16.592zm-62.267-3.755c2.804 0 5.65-.283 8.42.06 6.268.754 6.07-2.52 4.605-6.86-1.552-4.57-4.965-7.133-9.432-8.025a12.004 12.004 0 00-12.313 4.476c-2.1 2.572-4.724 5.642-3.49 8.814 1.175 3.035 5.017 1.003 7.64 1.44 1.52.147 3.047.178 4.57.095zm459.847 25.105c-.351 3.482.378 7.529-5.196 7.649-6.336.137-12.672.368-15.982-6.5-1.715-3.507-2.058-7.39-2.015-11.318.086-7.717-.309-15.476.12-23.15.326-5.745-3.112-5.634-6.86-5.273-4.75.445-1.954 3.575-1.671 5.616 1.646 11.798.446 23.656.857 35.48.146 4.064-2.135 4.502-5.402 4.502-3.66 0-5.007-1.535-4.981-5.145.077-9.783.248-19.584-.18-29.358-.283-6.268-3.55-10.864-10.384-11.327-6.834-.463-11.292 3.027-13.221 9.432a27.986 27.986 0 00-.858 7.63c-.103 7.718-.214 15.435 0 23.151.137 4.228-1.715 5.188-5.522 5.145-3.807-.043-4.793-1.603-4.758-5.102.12-14.43 0-28.852 0-43.283 0-2.006-.48-4.535 2.572-4.638 2.092-.069 5.05-1.27 5.933 1.886 1.046 3.713 2.761 2.778 4.99 1.286 9.26-6.225 18.212-6.293 26.76 1.432.79.585 1.635 1.094 2.522 1.518-.223-6.86 10.212-4.287 9.946-11.147-.129-3.224.737-5.144 4.193-6.233 4.15-1.32 6.645-1.235 5.942 3.952-.798 5.89 1.714 7.94 7.416 7.254 2.778-.334 5.857-.497 5.925 3.902.069 4.398-3.095 4.21-5.83 3.832-6.465-.857-7.992 2.255-7.537 7.983.377 4.604.086 9.26.086 13.899 0 14.044 0 14.044 13.135 16.917v.008zM295.608 306.11c0 4.887-.257 9.792.077 14.654.291 4.158-1.492 5.316-5.299 5.41-4.15.094-4.459-2.238-4.416-5.42.103-7.716.06-15.433 0-23.15.061-2.3-.129-4.6-.566-6.859-1.363-6.002-4.287-10.864-11.24-10.47-6.954.395-10.598 5.394-11.027 11.799-.609 9.217-.292 18.512-.232 27.763 0 3.61.163 6.474-5.033 6.405-5.05-.068-5.196-2.795-5.144-6.473.068-8.737.214-17.492-.112-26.229-.325-8.737-4.398-13.547-10.692-13.341-6.293.205-11.412 5.916-11.66 13.924-.275 8.48-.138 16.977-.112 25.466 0 3.498.257 6.516-4.965 6.593-4.921.078-5.333-2.246-5.307-6.122.086-14.147-.095-28.295-.06-42.442 0-1.81-1.218-4.63 1.86-5.016 2.513-.317 6.054-1.715 6.954 2.47.858 3.91 2.572 1.886 4.287.934 12.201-6.817 16.248-6.56 25.835 2.4 1.86 1.715 2.486 1.664 4.047 0a25.543 25.543 0 015.376-4.347c11.79-7.168 25.431-.102 27.146 14.362.686 5.83.111 11.807.111 17.723l.172-.034zm-215.575-.6v14.662c0 1.938.96 4.613-1.826 5.144-2.298.446-5.676 1.647-6.8-1.5-1.2-3.353-1.654-2.024-3.866-.857-3.516 1.912-7.297 3.66-11.593 3.85-9.174.394-15.185-3.216-17.354-10.821-2.17-7.606 1.097-15.563 8.351-19.721 5.016-2.873 10.59-3.85 16.248-4.519 2.144-.257 5.025.72 5.694-2.504.574-2.752-.858-5.024-2.804-6.859-5.145-4.742-11.095-2.907-16.831-1.715-2.495.523-5.145 3.679-6.697-1.054-1.492-4.45 1.784-5.3 4.767-6.243 17.312-5.461 33.86-.677 32.583 22.782-.163 3.079 0 6.182 0 9.27l.128.085zm-10.237-.858c.154-2.769.428-5.856-4.896-5.684-9.38.3-16.617 4.844-16.609 11.412 0 6.002 3.43 8.857 9.27 8.806 7.287-.026 12.217-5.693 12.235-14.5v-.034zm520.681-2.52c.309 6.147.678 12.304.858 18.46.068 1.886 1.046 4.562-1.792 5.145-2.127.445-5.376 1.449-6.457-.746-2.35-4.76-4.381-1.972-7.065-.66-6.8 3.31-13.813 4.15-20.527-.224-5.942-3.867-7.022-9.731-6.088-16.29 1.02-7.057 6.14-10.538 11.927-12.94 3.739-1.543 8.009-1.714 11.936-2.914 2.503-.738 7.04 1.569 6.919-3.67-.103-4.347-2.804-7.194-6.91-8.206a21.942 21.942 0 00-13.634 1.02c-2.684 1.072-4.913 1.715-6.088-1.886-1.174-3.601 1.424-4.287 3.85-5.367 19.112-8.163 33.208.857 33.303 21.307v6.936l-.232.035zm-13.924-3.061c-10.341-.146-17.312 4.63-17.149 11.738.129 5.607 3.43 8.265 8.823 8.428 7.4.223 12.861-5.676 13.041-13.976.095-3.507.223-7.03-4.715-6.19z"></path><path fill="#7F5AC2" d="M781.015 319.22c1.946-3.112-.858-5.264-1.715-7.717-7.605-20.92 5.736-41.654 25.826-39.939 12.252 1.046 22.293 15.271 19.189 26.915-.858 3.224-3.01 2.967-5.299 2.975-8.48 0-16.969.292-25.431-.06-6.345-.274-6.86 2.307-4.905 7.374 3.224 8.437 13.136 12.767 22.353 9.749 2.847-.926 6.234-1.87 8.617.677.695.738 0 3.713-1.037 4.88-1.038 1.165-3.113 1.714-4.827 1.971-10.632 1.5-21.102 2.024-29.582-6.482-.857-.857-1.989-1.715-3.275-.446l.086.103zm20.012-25.174c1.275.138 2.562.12 3.833-.051 3.19-.806 8.394 2.255 9.286-2.195.891-4.45-1.955-8.918-6.56-11.216-5.719-2.846-11.069-2.057-15.433 2.573-2.444 2.572-5.428 6.002-4.099 9.371 1.226 3.147 5.488 1.14 8.386 1.527 1.528.094 3.06.091 4.587-.009zm-627.688 12.116c0 4.878.06 9.757 0 14.636 0 1.852 1.2 4.467-1.904 4.999-2.186.377-5.693 1.286-6.37-.9-2.05-6.646-4.665-1.716-6.783-.61-7.074 3.825-16.728 3.482-21.736-1.037-5.007-4.519-6.362-12.441-3.352-19.215 1.895-4.227 5.307-6.79 9.363-8.711 4.287-2.024 8.9-2.273 13.402-3.267 2.332-.515 6.465 1.32 6.567-3.224a8.643 8.643 0 00-5.479-8.523c-5.093-2.246-10.057-1.072-14.996.592-2.358.789-4.802 2.572-6.002-1.578-1.02-3.635 1.303-4.339 3.858-5.273 17.149-6.328 34.512-1.912 33.157 22.096-.188 3.327 0 6.68 0 10.015h.275zm-10.29-.54c0-6.406-.222-6.629-5.47-6.543-9.389.163-16.48 5.239-16.017 12.004.369 5.3 3.541 8.36 9.158 8.214 7.356-.223 12.338-5.753 12.304-13.633l.025-.043zm-59.822-18.942c0-11.069.094-22.147-.052-33.225-.043-3.78.952-5.624 5.196-5.59 3.996 0 4.656 1.946 4.648 5.273-.086 22.402-.086 44.81 0 67.223 0 3.935-1.304 5.401-5.385 5.427-4.673 0-4.579-2.35-4.502-5.882.223-11.07.078-22.147.078-33.225h.017zm84.225-7.133c4.579-3.43 7.082-7.125 11.498-7.623 2.572-.3 6.002-1.98 6.336 2.813.258 3.37.918 6.319-4.407 6.92-7.674.857-11.6 6.001-11.935 14.507-.326 8.231-.172 16.48-.112 24.72 0 3.12 0 5.564-4.433 5.067-3.592-.403-5.547-1.046-5.461-5.359.257-13.873.394-27.746-.858-41.602-.206-2.264-1.886-5.865 3.035-6.38 4.536-.48 6.757 1.115 6.337 6.937zM86.704 324.459c-.797-25.148-.857-50.288 0-75.454l8.806.412.103 74.51-8.909.532zm32.891-24.694c0-7.434.154-14.868-.06-22.293-.12-4.407 2.23-4.887 5.796-4.939 3.747-.06 4.87 1.45 4.836 5.008-.12 14.576-.223 29.212.052 43.823.094 5.427-3.182 4.673-6.525 4.733-3.344.06-4.708-.703-4.288-4.819.686-7.108.189-14.336.189-21.513zm289.716-25.595c.12 15.435.266 30.868.343 46.302 0 2.22.438 4.887-3.01 5.196-2.109-1.62-4.595-1.715-7.107-1.715l.154-49.73 9.62-.052zm166.299-8.042c-11.413.986-12.76-10.092-20.082-14.67 9.844-3.001 11.464-4.528 20.081 14.67zm-237.722-15.065c-4.219 4.802-8.189 9.338-12.185 13.856a5.067 5.067 0 01-6.353 1.003c-2.881-1.714.291-3.498 1.08-4.956 6.645-12.26 6.697-12.226 17.458-9.903zm66.193.797c4.013.224 6.37 2.35 6.448 6.183.077 3.498-2.032 5.796-5.6 6.002-3.755.197-6.661-1.458-6.747-5.54-.077-3.763 2.092-6.104 5.899-6.644zm-273.262 7.246c-.172 2.572-1.99 4.57-5.676 4.664-3.996.103-6.303-1.715-6.165-5.882.12-3.524 2.109-5.95 5.607-6.002 3.739-.017 6.182 2.101 6.234 7.22z"></path><path fill="#CB67CC" d="M409.311 274.17l-9.62.052c3.198-2.435 6.396-3.575 9.62-.051zm-9.774 49.783c2.512 0 4.998.103 7.108 1.715-2.718.857-5.47 1.86-7.108-1.715zm-312.833.506l8.934-.506c-2.829 2.958-5.847 2.332-8.934.506zm8.832-75.016l-8.806-.369c3.027-1.715 6.002-2.52 8.806.369z"></path><path fill="#FDFDFD" d="M454.215 282.882c-3.173 9.63-5.265 19.318-1.166 29.213 1.157 2.787.377 3.764-2.573 4.776-9.671 3.318-17.774 2.032-23.262-4.347-5.719-6.645-6.199-16.077-1.234-24.317 4.355-7.228 10.992-9.552 21.435-7.554 1.715.334 3.507.514 5.265.763l1.535 1.466z"></path></g></svg>