<svg xmlns="http://www.w3.org/2000/svg" viewBox="199 39 201 172"><path d="M215.825 211H199v-36h16.396c7.231 0 11.67 3.651 11.67 9.347v.073c0 4.09-2.148 6.353-4.654 7.74 4.081 1.607 6.587 4.016 6.587 8.836v.073c.072 6.645-5.226 9.931-13.174 9.931zm3.509-25.412c0-2.336-1.79-3.724-5.084-3.724h-7.66v7.594h7.16c3.436 0 5.584-1.168 5.584-3.797v-.073zm2.004 14.459c0-2.41-1.79-3.944-5.727-3.944h-8.95v7.96h9.236c3.437 0 5.513-1.241 5.513-3.943v-.073h-.072zM259.106 211l-7.482-11.538h-6V211H238v-36h15.882c8.189 0 13.13 4.454 13.13 11.903v.073c0 5.841-3.036 9.493-7.483 11.172L268 211h-8.894zm.141-23.732c0-3.36-2.259-5.112-6-5.112h-7.623v10.37h7.764c3.741 0 5.86-2.045 5.86-5.112v-.146zM303.774 210l-3.276-8.04h-15.142L282.08 210H274l15.36-36h7.28L312 210h-8.226zm-10.92-26.584l-4.804 11.59h9.536l-4.732-11.59zm62.444-8.978H363v35.978h-7.702v-35.978zM331.768 211c-5.3 0-10.599-1.897-14.768-5.765l4.522-5.62c3.11 2.7 6.43 4.38 10.387 4.38 3.11 0 5.017-1.315 5.017-3.358v-.073c0-1.97-1.201-3.065-6.995-4.598-6.996-1.824-11.518-3.867-11.518-11.02v-.072c0-6.568 5.088-10.874 12.224-10.874 5.088 0 9.398 1.679 12.931 4.598l-3.957 5.984c-3.109-2.19-6.147-3.576-9.044-3.576-2.968 0-4.452 1.387-4.452 3.138v.073c0 2.335 1.484 3.138 7.49 4.744 7.066 1.897 11.023 4.524 11.023 10.8v.073c-.07 7.152-5.37 11.166-12.86 11.166zM400 202.785h-16.867V174H375v36h25zM301.088 142H283v15h19.044c6.838-.069 10.956-2.408 10.956-7.362v-.207c-.074-4.61-3.75-7.431-11.912-7.431M214 157h32l-15.964-39zm95-36.967v-.2c0-4.355-3.756-6.833-10.533-6.833H283v14h14.436c7.145 0 11.564-2.077 11.564-6.967M232 72c0-1.267-.974-2-3.13-2H224v4h5.009c1.878-.067 2.991-.667 2.991-2m-2-6c0-1.31-.848-2-2.424-2H224v4h3.394c1.576 0 2.606-.62 2.606-2m30.466-1L258 71h5z"></path><path d="M199 39v117.927h.367l24.813-57.942h15.416l24.813 57.942h3.524V98.912h33.255c14.683 0 23.639 7.225 23.639 18.463v.219c0 8.027-4.331 12.697-9.397 15.543 8.296 3.138 13.434 8.173 13.434 17.733v.22c0 2.115-.293 4.086-.88 5.91h14.388c-4.551-6.13-7.194-13.792-7.194-22.184v-.22c0-20.286 15.343-36.851 37.366-36.851 12.333 0 20.188 3.721 26.502 9.413l-10.131 11.53c-4.992-4.086-10.13-6.494-16.518-6.494-12.112 0-20.775 9.997-20.775 22.184v.219c0 12.187 8.516 22.403 20.775 22.403 8.222 0 13.214-3.284 18.867-8.32l8.296 8.32h.44V39H199zm161.578 29.993c0-5.692 4.478-10.363 10.718-10.363s10.645 4.598 10.645 10.29v.073c0 5.692-4.552 10.362-10.718 10.362-6.167 0-10.645-4.597-10.645-10.362zm-35.017 0c0-5.692 4.331-10.363 10.498-10.363 3.817 0 6.093 1.24 7.928 3.065l-2.79 3.211c-1.541-1.387-3.156-2.262-5.138-2.262-3.377 0-5.8 2.773-5.8 6.203v.073c0 3.43 2.35 6.275 5.8 6.275 2.276 0 3.67-.948 5.285-2.335l2.79 2.846c-2.055 2.19-4.331 3.576-8.222 3.576-5.946.073-10.351-4.451-10.351-10.29zm-36.192-9.998h4.111l9.397 12.333V58.995h4.405V78.99h-3.744L293.7 66.293V78.99h-4.332V58.995zm-29.805-.146h4.111l8.59 20.141h-4.625l-1.836-4.451h-8.515l-1.836 4.451h-4.478l8.59-20.14zm-40.45.146h9.324c4.11 0 6.607 2.043 6.607 5.181v.073c0 2.262-1.175 3.503-2.643 4.306 2.35.875 3.744 2.189 3.744 4.889v.073c0 3.649-3.01 5.473-7.561 5.473h-9.544V58.995h.074z"></path><path d="M370.533 76C373.8 76 376 73.349 376 70.07V70c0-3.28-2.267-6-5.533-6C367.2 64 365 66.651 365 69.93V70c0 3.28 2.333 6 5.533 6"></path></svg>