<svg xmlns="http://www.w3.org/2000/svg" viewBox="114 78 371 94"><path fill="#283488" d="M354.959 136.597c0 23.399-15.3 35.2-28.183 35.403-8.454 0-15.097-3.866-18.117-7.935v6.918h-18.72V78h19.123v31.333c3.02-4.069 9.461-8.342 17.916-8.138 12.883 0 27.98 11.8 27.98 35.402zm37.04-35.402c-17.313 0-32.41 12.615-32.41 35.402 0 20.754 14.695 35.403 34.02 35.403 9.058 0 17.714-2.645 23.15-7.325l1.811-16.277c-6.643 4.476-14.695 6.715-22.948 6.715-9.059 0-15.5-4.477-16.91-11.19h42.073c.2-1.832.2-3.663.2-5.494.202-24.62-13.688-37.234-28.987-37.234zm-83.541 35.402c0 10.987 5.838 17.702 13.487 17.702 8.254 0 13.487-6.715 13.487-17.702 0-10.783-5.233-17.7-13.487-17.7-7.65 0-13.487 7.12-13.487 17.7zm-49.923-35.402c9.864 0 21.942 5.29 21.942 26.247v29.909c0 6.917 2.013 10.376 6.643 13.428h-19.93c-4.026-3.459-5.838-8.138-5.838-15.056V129.68c0-7.325-3.22-10.987-8.454-10.987-5.838 0-9.462 5.086-9.462 13.225v23.805c0 9.36 1.61 11.8 5.435 15.056h-19.928c-3.221-3.459-4.63-8.138-4.63-15.056V129.68c0-7.325-3.221-10.987-8.455-10.987-5.838 0-9.461 5.086-9.461 13.225v38.861h-19.124v-68.363h18.117v6.714c2.617-3.459 7.247-7.935 16.708-7.935 7.851 0 13.89 4.07 17.111 9.97 3.22-4.477 8.857-9.97 19.325-9.97zm-116.554 70.602c8.455 0 14.896-3.866 17.916-7.936v6.918h18.922v-68.363h-18.922v6.917c-3.02-4.069-9.461-8.138-17.916-8.138-12.883 0-27.981 11.8-27.981 35.402 0 23.399 15.299 35.2 27.981 35.2zm18.52-35.2c0 10.987-5.838 17.702-13.487 17.702-8.254 0-13.488-6.715-13.488-17.702 0-10.783 5.234-17.7 13.488-17.7 7.649 0 13.487 7.12 13.487 17.7zm291.284 12.412l12.883-46.593H485l-22.546 68.16h-21.338l-22.747-68.16h20.533l12.883 46.593zm-61.196-31.537c6.845 0 11.072 5.493 11.474 12.411h-23.552c1.007-7.731 5.838-12.411 12.078-12.411z"></path></svg>