<svg xmlns="http://www.w3.org/2000/svg" viewBox="0.08749999850988388 0.15394064784049988 720.35302734375 471.5625"><g fill="none"><path fill="#FE8A00" d="M204.3,226.9 C206.2,223.8 208.8,221.3 211.2,218.7 C225.7,203 241.8,189.3 259,176.7 C285.6,157.1 314,140.5 343.3,125.2 C369.5,111.6 396.3,99.2 423.5,87.7 C449.3,76.8 475.5,66.7 501.9,57.2 C519.4,50.9 537,44.9 554.7,39.2 C571.2,33.9 587.7,28.8 604.3,24 C626.8,17.4 649.4,11.3 672.2,6 C682.9,3.5 693.7,0.9 704.8,0.3 C708.5,0.1 712.3,-0.1 716,1.2 C720.3,2.8 721.5,5.6 719.5,9.9 C717.2,14.9 713.5,18.8 709.7,22.6 C698.5,33.8 685.8,43.3 673,52.4 C654.3,65.7 634.9,78.1 615.2,90 C592.8,103.5 570,116.3 546.9,128.5 C529.8,137.5 512.5,146.1 494.9,154 C474.8,163 454.6,171.6 433.1,177 C422.1,179.8 411,180 399.7,179.3 C385.7,178.4 371.8,176.1 357.9,174.6 C356.6,174.5 355.3,174.4 354.1,175.1 C353.4,174.9 352.8,174.7 352.1,174.6 C340.3,173.5 328.4,173 316.5,173.7 C299.2,174.8 282.5,178.7 266.5,185.7 C250.5,192.7 235.9,201.9 222.4,212.8 C221.8,213.3 221.2,213.8 220.5,214.1 C218.9,214.5 217.6,215.4 216.6,216.7 C216.3,217.1 215.9,217.5 215.5,217.8 C214,218.5 212.8,219.6 212,221 C211.1,221.9 210.3,222.8 209.2,223.6 C208.1,224.3 207.1,225.1 206.1,226 C205.8,226.7 205.3,227.4 204.3,226.9 Z"></path><path fill="#727272" d="M62.4 354.8C79.5 357 91.4 366.2 93.3 385.7 94.2 398 93.1 410.6 93.5 420.7L93.5 456.3 93.5 456.3C93.5 461.7 92.5 463.1 87.6 465.1 80.1 468.2 72.1 469.3 64.2 470.6 56.9 471.8 49.5 471.4 42.2 471.5 34.2 471.6 26.5 469.8 19.1 466.9 6.7 461.9.1 451.8.1 438.4.1 433.9-.1 429.4 1.1 424.9 4.2 412.8 11.9 405.1 23.3 400.7 29.3 398.4 35.5 397.2 42 397.1 51.2 396.9 60.4 396.9 69.6 397 71.4 397 72.1 396.5 72.1 394.7 72.1 391.6 72 388.5 71.3 385.6 69.5 378.4 63.9 374 55.7 373.1 43.3 371.7 31.2 373.9 19.3 376.7 18.5 376.9 17.7 377.1 16.8 377.2 15.2 377.4 14 376.9 13.6 375.3 12.5 371.5 11.4 367.8 10.6 364 10.1 361.7 11.8 360.6 13.8 359.9 20.2 357.5 26.8 356.2 33.5 355.4 43.1 354.3 52.7 353.6 62.4 354.8zM69.8 415.2C60.1 415.4 50.3 414.7 40.6 415.7 29.2 416.9 20.4 423.2 21.2 436.8 21.5 443.3 23.9 448.4 30.3 450.9 32.8 451.9 35.3 452.6 38 453 44.9 454 51.7 453.8 58.6 452.9 62.5 452.4 66.4 451.8 70.2 450.5 71.4 450.2 71.7 449.6 71.7 448.4L71.7 448.4 71.7 433C71.7 427.9 71.6 422.7 71.8 417.5 71.8 416 71.6 415.2 69.8 415.2zM189.8 359C202.3 364.9 208.5 375.5 210.9 388.7 211.8 393.5 211.9 398.3 211.8 403.1 211.6 412.6 206 418.6 196.4 419.1 186.9 419.7 177.3 419.2 169.3 419.4L138.2 419.4 138.2 419.4C135.5 419.4 135.4 419.6 135.6 422.3 135.8 427.2 136.8 431.9 138.8 436.3 143 445.4 150.4 450.3 160 452.2 170.7 454.2 180.9 452 190.7 447.9 191.2 447.7 191.7 447.4 192.2 447.2 195.8 445.6 196.9 446.1 198.8 449.6 200.2 452.3 201.6 454.9 202.8 457.6 204.2 460.6 203.6 462.2 200.8 463.9 194.5 467.6 187.7 469.2 180.6 470.6 173.3 472 165.9 471.8 158.6 471.5 139 470.6 122.6 457.8 117.3 439 112.5 421.6 112.1 404.1 118.3 386.9 124.5 370 136 358.5 154 355 166.2 352.6 178.3 353.6 189.8 359zM180.8 375.8C175.2 372.2 169 371.9 162.7 372 157.2 372.1 152.4 374 148.2 377.5 141.4 383.1 137.7 390.5 136.7 399.2 136.413043 402.26087 136.400567 402.393951 139.200518 402.399737L163.8 402.4C172 402.4 180.3 402.3 188.7 402.5 190.9 402.5 191.9 402.1 191.7 399.6 191.5 397.1 191.1 394.6 190.7 392.1 189.6 385.4 186.8 379.6 180.8 375.8z"></path><path fill="#FE7606" d="M204.3,226.9 C206.1,226 207.2,224.1 209.1,223.3 C209.9,224.9 208.1,225.5 207.8,226.9 C209.5,226.4 211.3,226.4 212.9,225.9 C214.1,225.5 215.3,225.4 216.5,225.6 C217.2,225.7 217.9,225.8 218.5,225.6 C223,224 227.7,222.9 232.3,222.1 C238.7,221 244.9,218.9 251.4,218.3 C254.6,218 257.8,217.4 260.9,216.5 C264,215.7 267.2,215.1 270.4,214.9 C272.7,214.8 274.8,214.2 276.8,213.4 C281.4,211.5 286.3,211.2 291.1,210.3 C297.1,209.2 302.9,207.8 308.9,206.9 C313,206.3 316.9,204.9 320.9,204 C324.2,203.2 327.4,203 330.7,203.1 C327.3,207.5 323.4,211.3 319.5,215.3 C306.3,228.9 292.3,241.7 276.4,252.1 C260.8,262.4 244.4,271.1 226.3,276.4 C218.8,278.6 211.1,280.1 203.2,279.6 C199.9,279.4 196.8,278.7 193.9,277.4 C187.5,274.5 184.3,267.7 185.6,260.3 C187.1,252 191,244.7 195.6,237.8 C198.4,233.9 201,230.1 204.3,226.9 Z"></path><path fill="#727272" d="M408,471.7 C395.7,471.3 383.6,469.8 372,465.2 C370.5,464.6 369.1,463.9 367.6,463.1 C364.8,461.6 364.2,460.2 365.5,457.3 C366.8,454.2 368.2,451.1 369.6,448.1 C371,445.2 372.3,444.6 375.3,445.8 C380.4,447.8 385.6,449.8 391,451.1 C399.5,453.1 408,454.3 416.8,452.8 C419.5,452.4 422,451.4 424.2,449.8 C431.9,444.5 432.1,433.7 424.5,428.3 C418.6,424.1 411.7,421.7 405,419.1 C396.7,415.9 388.3,413 381,407.7 C372.7,401.7 369.6,393.5 370,383.3 C370.6,369.1 381,358.5 394.6,355.5 C401.9,353.9 409.2,353.6 416.6,354.2 C425.2,354.8 433.6,356.4 441.7,359.5 C445.4,360.9 446.2,362.6 444.8,366.3 C443.8,369 442.7,371.7 441.6,374.4 C440.2,377.8 439.3,378.2 435.8,377 C429.4,374.7 422.9,372.9 416.2,372.3 C411.2,371.9 406.1,371.5 401.1,372.9 C396,374.3 392.2,377.3 391.2,382.7 C390.3,387.9 392.7,391.8 396.9,394.6 C402.1,398.2 408,400.2 413.7,402.5 C419.3,404.7 424.9,406.7 430.3,409.4 C436.4,412.4 441.8,416.3 446,421.9 C453.7,432.2 453.1,454.6 436.7,464.6 C431.8,467.6 426.5,469.1 421.1,470.5 C416.7,471.7 412.4,471.5 408,471.7 Z"></path><path fill="#EC510D" d="M330.8,203.1 C329.7,203.8 328.8,204.2 327.3,203.7 C326.1,203.2 324.4,203.2 323.2,204.3 C322.2,205.2 320.9,204.9 319.7,205.2 C315.1,206.3 310.5,207.6 305.9,208.4 C300.1,209.4 294.4,210.6 288.6,211.6 C283.9,212.4 278.9,212.6 274.7,215.2 C273.1,216.2 271.1,215.8 269.3,215.9 C265.2,216.1 261.4,217.4 257.4,218.1 C252.7,219 247.9,219 243.3,220.7 C238.8,222.4 233.7,221.7 229.3,223.6 C225.8,225.2 221.8,224.3 218.6,226.6 C218.4,226.8 218,226.7 217.7,226.7 C214.2,225.9 211,226.9 207.8,228.2 C207.3,228.4 206.8,228.3 206.6,227.9 C206.3,227.3 206.6,226.6 207,226.2 C207.8,225.4 208.7,224.7 209,223.5 C209.9,222.7 210.8,221.9 211.7,221.2 C213,220.2 213.9,218.8 215.4,218 C215.7,217.7 216,217.4 216.3,217.1 C217.5,216.1 218.6,215.1 220,214.4 C225.8,209.6 231.7,205.1 237.9,201 C243.9,197.1 250.1,193.6 256.4,190.3 C262.9,186.8 269.7,184.1 276.6,181.6 C285.1,178.5 294,176.7 303,175.2 C315.6,173.1 328.3,173.5 341,173.6 C344.8,173.6 348.6,174.6 352.4,174.4 C353.3,174.4 353.9,174.7 354.1,175.6 C346.8,184.8 339.3,194.3 330.8,203.1 Z"></path><path fill="#727272" d="M232 417.6C232 403 232 388.4 232 373.9 232 370.8 232.2 367.8 232.9 364.8 234 360 237.3 357.4 241.8 356.1 245.7 355 249.8 354.7 253.8 354.4 266.4 353.3 278.8 354.2 290.7 358.8 296 360.8 300.7 363.8 305.1 367.3 308.3 369.9 308.4 371.1 306 374.4 303.8 377.3 301.5 380.2 299.3 383.2 296.9 386.3 295.8 386.5 292.8 383.9 287.6 379.3 281.6 376.1 274.9 374.5 268.4 372.9 261.9 372.8 255.3 374 254.1 374.2 253.5 374.8 253.5 375.9 253.5 376.7 253.4 377.6 253.4 378.4 253.4 406.6 253.4 434.7 253.4 462.9 253.4 468.9 253.1 469.2 247 469.2 243.2 469.2 239.5 469.3 235.7 469.1 232.5 468.9 232 468.4 232 465.1 232 454.1 232 443 232 432 232 427.1 232 422.3 232 417.6zM345 412.7C345 430 345 447.2 345 464.5 345 468.3 344.5 468.9 340.9 469 336.2 469.1 331.5 469.2 326.9 468.9 324.6 468.8 323.8 467.6 323.8 465.5 323.8 464.6 323.8 463.7 323.8 462.7 323.8 429.2 323.8 395.8 323.8 362.3 323.8 361.6 323.8 360.9 323.8 360.2 323.9 357 324.6 356.2 327.7 356.2 332.2 356.1 336.6 356.1 341.1 356.2 344.4 356.3 345.1 357 345.1 360.4 345 377.9 345 395.3 345 412.7zM320.6 326.8C320.6 318.8 326.6 312.9 334.7 313 342.8 313 348.8 319.1 348.7 327.2 348.7 335 342.4 341.2 334.5 341.1 325.5 341 319.9 333.7 320.6 326.8z"></path><path fill="#FE7606" d="M215.5 217.8C214.5 219.1 213.6 220.5 211.8 221 212.6 219.4 213.6 218.1 215.5 217.8zM220.1 214.1C219.2 215.4 217.9 216.3 216.4 216.8 217.2 215.3 218.3 214.2 220.1 214.1z"></path></g></svg>