<svg xmlns="http://www.w3.org/2000/svg" viewBox="0.7036290168762207 0.8800210952758789 999.1913452148438 548.78564453125"><g fill="none"><path fill="#CA3733" d="M226.105 33.849c-25.859 0-51.718.304-76.937 7.018-11.556 3.081-22.28 7.879-30.293 17.325-9.654 11.325-9.283 18.5 2.414 27.745 9.29 7.345 19.873 12.788 30.121 18.655a156.74 156.74 0 0144.187 37.808c28.592 35.164 13.204 71.122-11.31 91.5-28.45 23.646-61.587 32.565-97.211 36.166-26.594 2.681-52.728.179-78.594-5.644-2.822-.63-8.042-.089-7.768-4.158.208-3.127 5.028-2.228 7.88-2.548 25.413-2.792 51.078-2.302 76.432-6.126 22.628-3.409 44.996-7.427 65.76-17.682 6.461-3.194 12.247-7.278 17.905-11.652 20.564-15.908 21.537-33.42 9.239-56.07-10.568-19.397-26.839-33.218-45.657-44.172-11.4-6.631-22.955-12.966-33.382-21.142-16.115-12.625-19.234-29.364-8.065-46.378 12.246-18.64 31.555-26.735 51.643-33.196 20.63-6.61 42.182-7.018 63.57-8.377 18.944-1.203 37.874-.609 56.819-.089a32.557 32.557 0 0115.655 4.456c5.287 3.06 5.376 6.943.066 9.914a50.113 50.113 0 01-24.417 6.61c-9.35.081-18.685.037-28.057.037zm773.79 485.38c-3.357 2.97-7.709 3.23-12.008 3.616a6609.557 6609.557 0 01-245.984 17.393c-65.916 3.416-131.87 5.607-197.853 7.3-101.741 2.614-203.483 2.391-305.224 1.582-57.74-.46-115.473-1.916-173.205-3.223-12.915-.29-25.71-2.496-38.246-5.8a45.902 45.902 0 01-6.884-2.659c-1.203-.535-2.703-1.092-2.436-2.852.267-1.76 1.738-2.139 3.06-2.228 3.824-.326 7.679-.66 11.518-.609 75.615 1.122 151.23 2.54 226.853 3.41 101.741 1.165 203.52 1.395 305.276 0a7670.852 7670.852 0 00225.108-6.499 5781.634 5781.634 0 00179.48-10.857c9.306-.698 18.67-.528 28.013-.743 1.143-.074 2.057.468 2.532 2.169zM653.797 11.146c-.357 2.161-.32 4.456-1.159 6.446-2.027 4.709.416 7.063 3.988 9.313 8.6 5.414 17.289 10.731 25.628 16.531 19.554 13.613 23.193 33.24 9.722 52.846-11.72 17.08-28.547 27.708-46.787 36.634a348.757 348.757 0 01-74.263 26.735c-11.318 2.637-17.08 9.038-21.596 19.643a1369.684 1369.684 0 01-52.467 110.059c-2.577 4.834-6.09 7.641-11.712 7.47-9.966-.289-12.981-4.589-8.57-13.448 14.563-29.245 29.453-58.327 44.143-87.52 4.07-8.088 7.716-16.405 11.845-24.463 2.45-4.782.98-6.483-3.98-6.602a681.035 681.035 0 01-20.587-.831c-2.369-.134-5.503.066-5.674-3.313-.14-2.718 2.585-3.178 4.634-3.906 8.17-2.881 16.725-3.342 25.154-4.144 8.911-.846 14.243-4.173 18.974-12.587 13.991-24.857 31.465-47.663 44.113-73.38 4.24-8.63 8.837-17.081 13.115-25.688 1.069-2.154 2.762-4.798 1.329-6.996-1.649-2.54-4.575-.787-6.862-.408a147.324 147.324 0 00-54.369 20.586c-4.084 2.562-9.758 6.92-12.877 2.346-3.119-4.574 4.159-6.735 7.293-9.023 21.67-15.84 45.538-26.735 72.6-28.755 8.414-.623 14.028-3.639 17.474-11.072 2.77-5.941 7.687-7.315 13.687-6.543 6 .772 7.478 4.73 7.204 10.07zm25.034 65.568c-.17-14.482-13.16-30.746-25.829-34.444-11.266-3.282-22.502 1.352-30.537 14.028-17.17 27.107-33.864 54.51-50.633 81.869-.988 1.611-3.713 3.512-1.53 5.688 1.782 1.76 4.188.067 6.216-.467 19.702-5.147 38.431-12.96 57.294-20.497 15.596-6.231 27.582-16.613 37.763-29.453 4.345-5.466 7.211-11.667 7.256-16.724zm123.278 318.442c-10.798.141-13.65-3.587-9.788-13.137 32.81-81.014 63.116-162.987 98.161-243.095 14.2-32.468 30.671-63.866 47.53-95.057 8.978-16.598 24.729-18.291 37.42-4.404 2.837 3.097 1.055 5.48-.475 8.102-24.87 42.412-49.444 85.01-74.702 127.199-21.58 36.04-37.525 74.568-51.798 113.861-10.494 28.903-21.277 57.71-27.092 88.114-2.621 13.627-8.458 18.298-19.256 18.417zm6.631-181.998a104012.647 104012.647 0 00-41.669 35.9c-9.974 8.606-19.85 17.34-29.891 25.865a39.189 39.189 0 01-8.236 5.4c-8.57 4.165-16.71-.342-18.068-9.922-1.203-8.51 1.656-16.271 4.76-23.958 12.452-30.8 24.893-61.602 37.325-92.406.936-2.31 1.767-4.582 3.617-6.372 3.913-3.78 8.05-5.443 13.367-2.592 5.317 2.852 5.444 7.427 4.188 12.076-1.359 5.012-3.55 9.802-5.458 14.66a198997.09 198997.09 0 01-27.195 68.99c-.743 1.968-2.117 3.906-1.166 6.818 3.438-.104 5.592-2.63 7.983-4.545 30.5-24.455 58.505-51.54 84.66-80.532 3.714-4.077 7.145-8.421 13.591-8.028 7.226.438 9.023 3.075 5.392 9.387-15.655 27.233-28.05 55.973-39.3 85.21-4.53 11.771-7.962 23.958-11.95 35.936a46.883 46.883 0 01-7.085 13.888c-2.77 3.609-6.282 5.562-10.738 3.334-4.805-2.406-3.179-6.453-1.827-10.048 8.8-23.385 17.712-46.741 26.564-70.112.95-2.518 1.745-5.087 2.622-7.634l-1.486-1.315zm-140.054 9.513c-10.931 8.117-18.833 19.309-31.428 25.198-10.07 4.708-20.051 8.971-31.562 7.426-10.538-1.403-15.714-6.869-15.855-17.51-.216-16.257 6.683-29.922 16.984-41.79 14.214-16.337 31.391-29.044 50.655-38.876 11.823-6.038 24.56-7.798 37.63-6.736 11.577.95 16.776 8.17 14.622 19.791-1.968 10.59-5.198 20.987-10.182 30.382-12.624 23.838-18.707 49.712-25.524 75.422-1.485 5.6-1.604 13.62-9.914 12.625-8.17-.995-8.77-8.437-9.038-15.358-.438-11.37 4.456-21.395 7.634-31.844 1.931-6.26 3.98-12.491 5.978-18.73zm-42.33.528c3.453-.097 6.394-1.604 9.395-3.008 17.08-8.006 29.92-21.173 42.114-35.067 2.882-3.283 6.684-6.684 3.15-11.46-3.32-4.522-7.85-3.11-11.942-1.106-13.598 6.684-26.735 14.11-38.12 24.277a33.33 33.33 0 00-10.65 18.195c-1.054 4.745.298 8.228 6.023 8.169h.03zm-331.639-3.327c-5.199 4.953-10.003 9.736-15.009 14.303-11.043 10.07-23.92 16.635-38.788 18.395-17.957 2.124-26.438-6.884-23.838-24.864a61.876 61.876 0 0116.731-34.31c14.266-14.89 29.832-28.279 48.48-37.874a68.694 68.694 0 0143.073-6.906c9.26 1.485 13.523 8.25 11.429 18.432a146.255 146.255 0 01-13.687 38.75c-10.13 19.176-14.853 40.066-20.281 60.763-1.107 4.256-2.191 8.518-3.52 12.707-1.107 3.505-2.8 6.862-7.13 6.907-4.894.051-7.426-3.313-8.689-7.48a34.547 34.547 0 01.26-20.303c3.09-10.248 6.402-20.437 9.602-30.656.795-2.495 1.998-4.938 1.367-7.864zm-47.633-5.778c.134 6.565 4.3 8.503 11.437 5.362 18.789-8.28 33.626-21.537 46.407-37.333 2.562-3.163 6.335-6.305 3.238-10.76-3.446-4.961-8.303-3.26-12.625-1.21-13.456 6.378-26.193 13.99-37.377 23.86-6.104 5.377-10.062 12.268-11.08 20.081z"></path><path fill="#0F0F0F" d="M527.823 417.361c7.575-7.21 16.011-11.481 26.69-9.996 6.313.876 11.883 3.03 15.655 8.08 2.845 3.78 4.263 4.278 7.79.401 7.984-8.77 18.507-10.397 29.58-7.701 9.87 2.376 16.197 11.763 16.568 24.915.475 16.762.178 33.545.46 50.314.075 4.389-1.537 5.748-5.77 5.666-19.07-.364-15.023 2.228-15.358-14.934-.237-12.098.075-24.203-.178-36.3-.148-6.959-1.663-13.368-10.397-14.288-6.95-.743-12.342 3.32-14.748 11.577-3.461 11.882-1.426 24.062-1.946 36.107-.067 1.649.185 3.327-.045 4.946-.586 4.166 2.302 10.338-1.893 12.075-4.709 1.946-10.813.973-16.25.55-4.076-.32-2.777-4.136-2.8-6.624-.11-14.021 0-28.05-.118-42.07-.052-4.627-.037-9.484-3.446-13.257-5.792-6.409-17.08-3.55-20.898 5.31-2.77 6.468-2.896 13.368-2.881 20.274 0 9.9-.282 19.814.104 29.706.223 5.48-1.641 7.166-7.048 7.01-17.08-.483-13.924 1.805-14.11-13.798-.178-18.7-.245-37.407.141-56.099.067-3.535-3.386-9.335 3.996-10.456 10.961-1.664 14.288-.104 16.902 8.592z"></path><path fill="#CA3733" d="M438.96 177.556c-1.397 34.236-13.873 63.124-36.88 87.312-9.484 9.981-24.73 10.902-37.875 3.082-17.593-10.442-22.457-27.166-21.172-45.917 2.228-32.476 20.296-55.639 46.556-72.712 12.276-7.99 25.294-4.352 37.6 1.99 11.34 5.852 11.28 16.48 11.77 26.245zm-77.235 46.786c-.349 4.835.861 9.38 2.146 13.858 1.842 6.364 4.902 11.689 12.365 12.766 7.664 1.099 13.977-1.693 17.6-8.11 10.338-18.283 18.745-37.443 20.527-58.668 1.084-12.862-6.825-18.403-18.224-12.194-20.549 11.147-33.255 28.131-34.414 52.319v.03zm537.61 13.026c.698-31.116 15.825-53.35 38.416-71.568 15.73-12.691 29.052-13.687 46.133-3.587 5.837 3.446 9.409 7.999 10.189 14.95 3.609 32.067-6.818 60.027-24.752 85.848-.632.906-1.33 1.753-1.998 2.63-9.075 11.882-19.309 21.773-36.048 17.08-17.556-4.96-27.915-16.769-30.96-34.793-.639-3.81-.728-7.678-.98-10.56zm18.922-3.713a42.546 42.546 0 002.228 15.499c1.908 5.867 4.5 11.325 11.682 12.35 7.53 1.07 14.177-1.344 17.719-7.753 10.516-18.99 19.657-38.617 20.89-60.844.58-10.568-7.426-16.338-16.694-11.348-20.697 11.132-34.206 27.7-35.825 52.11v-.014z"></path><path fill="#0F0F0F" d="M693.996 407.083c25.323.602 41.706 17.98 41.112 43.6-.564 24.619-18.202 40.934-43.467 40.221-25.1-.742-40.637-17.548-40.028-43.384.58-24.5 17.898-41.024 42.383-40.437zm-20.601 41.016c.133 5.792.742 11.459 3.334 16.798 3.127 6.365 8.347 9.209 15.157 9.513 6.996.32 13.472-1.344 16.91-7.916 5.637-10.753 6.587-22.064 1.01-33.181-3.364-6.684-9.298-9.862-16.828-9.81-7.53.052-13.018 3.616-16.531 10.27a28.361 28.361 0 00-3.052 14.326zm-424.551 31.926c-8.169 6.446-15.803 10.88-25.331 10.961-14.11.126-24.878-7.968-26.735-21.715-2.532-18.566-.624-37.34-1.129-56.01-.082-3.104 1.485-4.136 4.456-4.552 14.95-2.101 16.553-.817 16.62 13.799.052 12.097-.133 24.202.423 36.27.468 10.248 4.234 14.793 11.407 15.595 8.043.921 14.073-3.267 17.244-12.201 3.981-11.2 2.147-22.866 2.548-34.347.096-2.748 0-5.503 0-8.25 0-10.873 0-10.331 11.265-11.007 8.11-.482 10.093 2.228 9.892 10.093-.55 21.157-.364 42.33-.066 63.495.074 5.451-1.597 7.471-6.989 6.884-5.896-.616-14.035 3.223-13.605-9.015zm196.301 11.221c-5.428-.795-10.842-1.73-16.293-2.324-4.953-.535-6.134-2.897-5.674-7.761.936-10.018.624-10.048 10.523-7.3 5.637 1.567 11.326 2.406 17.081.616 3.899-1.218 6.951-3.394 7.114-8.005.149-4.137-2.101-6.773-5.666-8.244-5.072-2.086-10.196-4.106-15.41-5.814-8.08-2.644-13.13-7.798-14.273-16.338-1.255-9.41 1.032-17.727 9.276-23.126 13.085-8.555 27.477-7.063 41.416-3.216 6.239 1.723 1.939 8.17 1.872 12.306-.074 4.455-3.877 2.725-6.327 2.146-5.674-1.352-11.385-2.273-17.148-1.203-3.713.676-6.64 2.562-7.218 6.825-.55 4.121 2.05 6.134 5.198 7.485 4.79 2.065 9.699 3.87 14.615 5.615 9.454 3.371 15.254 9.72 15.87 19.94.639 10.604-3.78 18.64-13.263 23.667-6.81 3.58-14.11 4.597-21.693 4.731zm-314.335-43.66c0-3.564-.312-7.166.066-10.694.914-8.443.112-14.451-11.14-12.959-6.564.87-3.712-5.265-4.054-8.458-.342-3.038-1.047-7.486 4.344-6.617 9.603 1.552 12.076-2.896 10.88-11.481-.854-6.164 4.523-5.837 8.17-7.04 12.914-4.24 13.44-4.182 12.765 9.104-.401 7.954 2.466 9.9 9.795 9.44 8.296-.528 11.14 4.084 8.741 12.297-1.158 3.996-4.173 2.845-6.683 2.97-11.66.483-11.682.431-11.638 12.15 0 9.06-.2 18.135.312 27.166.498 8.822 4.018 11.548 12.863 10.709 3.082-.29 6.795-1.56 6.075 3.386-.61 4.189 4.33 10.687-3.61 12.298-19.501 3.966-36.203-1.292-36.827-25.77-.141-5.487 0-10.975 0-16.47l-.06-.03zm190.39-25.338c6.03-8.31 11.34-14.504 20.578-15.232 5.117-.4 8.028.891 7.315 6.684a29.371 29.371 0 000 5.77c.408 5.555.133 9.135-7.687 8.028-9.23-1.3-14.778 4.047-16.946 14.288-2.719 12.774-2.095 25.807-1.352 38.655.527 9.179-4.203 8.688-10.434 8.71-6.424 0-11.31.617-10.947-8.91.795-20.876.35-41.804.186-62.71-.037-5.472-.111-9.869 7.59-8.91 5.688.742 13.033-1.701 11.14 8.577-.171.987.237 2.05.556 5.05z"></path><path fill="#CA3733" d="M761.152 447.438c-.089-15.484 9.654-25.992 24.292-26.275 14.853-.282 25.25 9.967 25.383 25.116.156 15.596-13.278 31.124-26.898 31.005-13.3-.104-22.665-12.402-22.777-29.846z"></path><path fill="#0F0F0F" d="M394.512 448.567c0 11.533-.156 23.021.067 34.584.082 4.218-1.314 5.689-5.584 5.941-15.596.98-15.596 1.13-15.596-14.8 0-19.212.223-38.432-.096-57.644-.104-5.941 1.21-8.236 7.679-8.057 13.53.37 13.538 0 13.53 13.612v26.364z"></path><path fill="#CA3733" d="M308.396 121.004c-7.477.117-14.945-.56-22.279-2.02-3.639-.653-5.592-2.361-4.916-6.037.676-3.676 1.396-9.32 6.104-8.17 18.12 4.338 35.974-1.031 53.923-.311 3.127.119 7.642-1.1 8.645 2.733 1.136 4.374-3.513 5.458-6.588 7.018-11.874 5.993-24.767 6.379-34.889 6.787z"></path><path fill="#0F0F0F" d="M384.494 374.66c8.355-2.184 10.798 1.358 10.197 9.654-.743 10.152-.238 9.46-12.024 10.397-9.788.742-8.911-4.53-9.543-11.244-.861-9.669 4.122-10.219 11.37-8.808z"></path></g></svg>