<svg xmlns="http://www.w3.org/2000/svg" fill-rule="evenodd" clip-rule="evenodd" image-rendering="optimizeQuality" shape-rendering="geometricPrecision" text-rendering="geometricPrecision" viewBox="1.322845458984375 -1 6837.67724609375 3460"><path fill="#ffcc29" d="M1985 1434l718-718 718 718-718 718-718-718z"></path><path fill="#f58634" d="M2703 2152l-718-718 718-718z"></path><path fill="#91d8f7" d="M3420-1l718 718-718 718-718-718L3420-1z"></path><path fill="#0098da" d="M2702 717L3420-1l718 718H2702z"></path><path fill="#ed3237" d="M2703 2152l-718-718-718 718h1436z"></path><path fill="#caebfb" d="M4856 1435l-718-718-718 718 718 718 718-718z"></path><path fill="#d2e28b" d="M4138 2153l718-718-718-718z"></path><path fill="#73bf4f" d="M4138 2153l718-718 718 718H4138z"></path><path fill="#96989a" d="M1561 2817v194h258c25 0 47-9 63-24 15-14 25-34 25-56v-34c0-21-9-41-25-56s-38-24-63-24h-258zm5278 419v-9c-2-83-48-139-112-179-54-34-121-54-176-67-43-10-91-24-125-44-23-14-39-31-39-54 0-21 10-40 33-54 31-18 65-33 138-33 28 0 72 7 100 15 23 7 40 12 58 25 30 22 66 19 88-11s18-72-12-94c-32-23-58-37-96-48-41-12-85-15-125-15-98 0-168 16-219 46-69 41-99 102-99 170 0 81 44 134 105 170 49 29 109 46 162 59 44 11 97 26 136 51 28 18 49 41 49 71 0 22-10 43-32 60-30 22-79 37-155 35-27 0-58-8-88-21-29-12-56-28-73-46-26-26-68-27-95-1-26 26-27 68-1 95 30 31 72 57 117 76 44 18 93 25 138 26h15c101 0 173-20 222-57 59-44 84-104 86-164zm-5349-556h329c61 0 118 24 159 63 42 39 67 94 67 154v34c0 60-26 114-67 154-41 39-97 63-159 63h-258v235c0 36-30 66-68 66h-3c-37 0-68-30-68-66v-635c0-36 30-66 68-66zm-1106 1l3 1c11 5 17 11 21 18 3 4 5 8 7 12l294 650c14 31-1 69-33 83l-3 1c-32 14-71 1-84-31l-60-143H250l53-122h175l-120-288-231 553c-13 32-52 46-84 31l-3-1c-32-14-48-52-33-83l294-650c2-4 4-8 7-12 4-7 10-13 21-18l3-1c9-4 18-6 26-6 9 0 18 2 27 6zm1998 0l3 1c11 5 17 11 21 18 3 4 5 8 7 12l294 650c14 31-1 69-33 83l-3 1c-32 14-71 1-84-31l-60-143h-279l53-122h175l-120-288-231 553c-13 32-52 46-84 31l-3-1c-32-14-48-52-33-83l294-650c2-4 4-8 7-12 4-7 10-13 21-18l3-1c9-4 18-6 26-6 9 0 18 2 27 6zm556 133v202h258c25 0 47-9 63-24 15-14 25-33 25-54v-46c0-21-9-40-25-54-16-15-38-24-63-24h-258zm673-32s-1 1 0 0zm95 95zm433-114c-1-1-1-1 0 0zm-91 92c-1-1 0 0 0 0zm94-89c26 26 30 66 3 92-26 26-69 26-95-1l-2-2c1 1 6 6 0 0-50-50-96-52-160-53-65 0-130 24-179 73l-2 2c1-1 7-7 0 0-25 25-43 51-54 79-11 29-17 62-17 103 0 42 5 77 15 107 10 29 27 55 51 80 8 8 16 15 25 22 54 42 119 58 182 53s122-31 164-72l3-3v-91h-92c-37 0-67-30-67-67s30-67 67-67h159c37 0 67 30 67 67v183c0 15-5 29-14 42-9 11-19 22-29 33-64 62-153 102-247 110s-193-16-276-81c-13-10-25-21-38-34-39-40-65-81-82-129-16-46-23-96-23-153s8-107 27-153c18-46 46-87 84-125 5-5 1-1 0 0l3-3c76-75 175-112 274-111s175 19 251 94c4 4 1 1 0 0l3 3zm1076 676h3c37 0 68-30 68-66v-560h209c35 0 63-31 63-69v-3c0-38-29-69-63-69h-533c-35 0-63 31-63 69v3c0 38 29 69 63 69h186v560c0 36 30 66 68 66zm-562-760l3 1c11 5 17 11 21 18 3 4 5 8 7 12l294 650c14 31-1 69-33 83l-3 1c-32 14-71 1-84-31l-60-143h-279l53-122h175l-120-288-231 553c-13 32-52 46-84 31l-3-1c-32-14-48-52-33-83l294-650c2-4 4-8 7-12 4-7 10-13 21-18l3-1c9-4 18-6 26-6 9 0 18 2 27 6zm1200 0l3 1c11 5 17 11 21 18 3 4 5 8 7 12l294 650c14 31-1 69-33 83l-3 1c-32 14-71 1-84-31l-60-143h-279l53-122h175l-120-288-231 553c-13 32-52 46-84 31l-3-1c-32-14-48-52-33-83l294-650c2-4 4-8 7-12 4-7 10-13 21-18l3-1c9-4 18-6 26-6 9 0 18 2 27 6zm-2547 427l128 242c16 31 5 69-26 86l-3 2c-31 16-69 5-86-26l-146-275h-237v246c0 36-30 66-68 66h-3c-37 0-68-30-68-66v-635c0-36 30-66 68-66h329c61 0 118 23 159 61 42 38 67 91 67 150v46c0 58-26 99-67 137-14 13-30 24-47 33zM873 2676h3c37 0 68 30 68 66v568h334c35 0 63 29 63 64v3c0 35-29 64-63 64H872c-15 0-29-5-39-14-17-12-27-31-27-53v-634c0-36 30-66 68-66z"></path></svg>