<svg xmlns="http://www.w3.org/2000/svg" viewBox="0.43700000643730164 0.33881187438964844 964.3265380859375 430.811767578125"><g fill="none"><path fill="#0C6C3E" d="M576.89 228.34c10.255 15.746 16.946 34.859 38.12 41.302-16.092.068-34.134 13.617-46.544-8.857-2.37-4.295-8.374-5.168-13.37-6.524-3.65-.99-9.469-2.865-9.964-5.248-5.211-25.141-25.791-19.85-41.722-20.066-17.46-.242-34.172-6.493-48.816-5.05-10.3 33.812-43.87 49.186-54.98 80.845 27.666-1.399 59.226-7.495 81.576 20.183-10.41 4.172-13.27 4.704-25.34-6.189-11.184-10.113-22.281-11.76-35.446-6.425-16.662 6.809-33.187.793-49.886.093-27.147-1.145-54.12-1.046-79.107-13.907-1.955-1.003-4.84-.774-6.245-2.173-12.713-12.632-12.638-12.682-29.95-5.254-3.095 1.33-6.072 3.001-9.234 4.146-4.333 1.548-8.61 7.768-13.134 2.848-5.57-6.066 3.887-9.105 4.951-15.214l-18.091-2.055c23.204-24.138 51.545-38.881 74.773-60.185-11.283 18.4-22.814 36.276-41.53 48.605 6.127 6.245 12.898 5.218 19.366 5.168 7.347-.056 14.508 0 21.589 2.928 26.292 10.812 44.074 5.855 63.404-15.752a290.021 290.021 0 0130.433-29.35c11.314-9.427 20.876-19.014 18.723-35.218-.96-7.124 3.651-8.665 9.147-9.117 7.28-.619 14.57-1.188 21.861-1.33a8.492 8.492 0 007.725-5.107c1.417-2.983-1.944-4.852-4.03-6.604-7.272-6.096-10.522-13.146-13.251-22.987-5.428-19.596-16.253-37.7-26.1-59.146-3.714 17.244-3.467 18.822 5.694 48.073 1.677 5.373 3.676 10.72 4.573 16.241.86 5.273 8.047 12.763-1.708 15.474-7.278 2.03-7.737-6.722-9.847-11.358-2.525-5.57-3.485-11.81-5.57-17.603-5.466-15.232-19.188-20.845-32.736-11.76-25.222 16.947-48.358 37.372-70.008 57.983-27.301 25.995-62.06 42.65-85.902 72.415-3.943 4.952-13.19-.835-16.31-9.123-.618-1.597-3.094-2.538-4.814-3.64-20.481-13.133-44.025-12.626-61.894 4.519-11.228 10.77-27.233 13.69-36.975 25.878-.62.767-2.191 1.547-2.99 1.293-24.04-7.73-31.033 14.657-43.127 25.94C28.11 318.315 13.05 315.734.437 322.549c38.554-29.09 70.596-66.994 118.155-82.542 5.676-1.857 10.472-6.381 15.678-9.668 6.808-2.884 13.876-3.713 21.254-3.602 14.953.21 28.174 6.809 42.057 10.9 7.761 2.296 14.854 4.01 21.662-2.953 20.692-21.23 47.46-35.403 67.347-57.604 2.333-1.523 5.366-2.544 6.901-4.648 24.139-33.12 60.148-52.276 90.916-77.584 10.206-8.393 17.949-10.268 28.508.94 13.035 13.797 28.155 25.848 48.766 27.742 3.144.284 6.604 2.475 9.395.42 14.638-10.856 32.804-14.662 46.68-28.402 27.995-27.68 50.636-60.508 83.018-84.064 22.722-16.532 30.49-14.347 51.855 4.394 31.43 27.561 56.038 61.658 88.644 87.926 11.345 9.142 26.478 7.873 37.501 18.098 22.728 21.075 45.678 42.329 70.844 60.278 39.612 28.255 71.45 64.852 108.35 95.935 3.467 2.915 8.666 5.85 6.116 10.683-3.312 6.257-8.473 1.424-12.998.16-12.162-3.385-21.378-9.376-28.669-20.696-11.884-18.463-26.46-35.088-42.453-50.37-5.502-5.254-11.005-9.556-18.834-9.964-1.702-.62-3.454-2.922-5.187-.75-1.9 2.378.941 3.139 2.154 4.39 16.024 22.28 25.024 47.602 32.185 73.74 1.652 6.021.656 10.967-6.808 9.327-19.77-4.333-37-6.76-49.732-30.118-17.33-31.85-41.685-61.43-74.563-81.043a47.893 47.893 0 01-5.435-3.714c-27.784-22.282-50.393-20.332-74.538 6.56-8.133 9.062-21.452 6.388-26.534-5.322-10.88-25.104-10.936-25.259-35.898-16.173-13.153 4.778-17.875-7.953-24.813-13.338-4.834-3.75 5.162-9.13 9.414-12.793 17.571-15.109 40.924-18.098 61.04-28.026-.508-1.35-.824-3.051-1.19-3.057-22.318-.508-31.85-11.457-33.787-34.11-1.2-14-10.008-27.301-15.133-41.017-3.85-10.311-9.284-12.273-17.2-3.961-10.13 10.62-20.24 21.258-30.328 31.912-2.692 2.841-6.74 6.245-3.553 10.12 10.59 12.849.941 15.968-8.368 21.39-6.573 3.832-11.27 10.906-16.711 16.65-6.19 6.548-13.703 8.82-22.616 9.692-5.973.588-17.274-7.31-17.225 8.764 0 3.714-10.77-3.045-16.63 6.406 15.089 7.13 24.441 24.95 45.386 24.541 11.333-.216 20.425 4.877 29.604 10.813 24.386 15.758 48.766 31.61 73.857 46.197 27.363 15.9 39.03 13.933 61.09-7.507 1.968-1.907 3.131-5.088 6.455-2.785 14.49 10.039 31.974 12.855 47.819 19.645 15.746 6.752 32.735 10.596 54.02 17.225-17.949 4.89-30.878 6.845-43.944.618-15.034-7.148-31.002-4.48-46.699-4.778-4.48-.08-8.881 1.319-6.926 6.505 4.952 13.097-4.24 10.714-10.986 10.473-26.075-.941-50.913-7.428-75.033-17.126-11.457-4.611-23.136-8.665-34.71-12.998l-3.256-2.073c-2.315-2.167-5.7-3.188-7.16-.52-1.078 1.956 2.537 2.593 4.585 3.008l3.114 3.645zm252.86-43.109c2.6 16.965 9.197 23.192 24.38 18.172-5.385-9.135-12.967-13.765-24.38-18.172z"></path><path fill="#FCDD18" d="M286.59 177.08c-19.886 22.201-46.655 36.375-67.365 57.604-6.808 6.963-13.901 5.249-21.663 2.953-13.883-4.104-27.103-10.69-42.057-10.9-7.377-.105-14.458.718-21.254 3.602-13.103-45.881 5.57-86.446 46.606-102.6 32.89-12.949 82.826-4.71 105.733 49.341z"></path><path fill="#49494A" d="M761.642 349.15c-4.332 20.778-8.393 39.971-12.341 59.19-.848 4.128-3.962 9.178 2.036 11.71 4.809 2.036 8.46-1.721 12.094-4.302 5.347-3.8 6.282-10.522 10.058-15.288 3.348-4.22 7.185-8.881 13.777-3.039 5.948 5.267 2.81 7.39-1.473 11.376-8.517 7.917-2.253 12.076 5.317 13.326 9.568 1.572 18.432-1.857 22.801-10.825 4.463-9.185-4.332-12.583-9.804-16.953-2.185-1.745-4.877-2.834-7.167-4.462-9.327-6.648-19.026-13.555-16.29-26.998 2.438-12.008 13.028-15.276 23.061-16.538 13.48-1.709 27.413-2.068 36.257 11.722 2.563 3.999 3.479 8.412 1.758 12.88-.996 2.594-3.874 2.439-5.737 1.344-3.968-2.34-11.376-1.158-10.894-8.319.458-6.746-.569-11.413-8.399-11.14-6.808.222-12.05 3.8-14.235 10.075-2.333 6.71 3.045 10.3 7.681 13.512 5.57 3.843 11.716 6.845 17.04 10.949 14.297 11.023 13.715 26.8-1.994 35.675-15.993 9.037-33.33 12.156-49.41.73-6.108-4.332-8.85-2.803-13.987.403-11.024 6.87-22.622 11.896-32.08-2.767-3.992-6.189-6.499-.619-9.067 1.3-10.832 8.046-22.554 12.02-34.227 3.293-10.832-8.096-10.454-20.153-7.929-32.408 6.623-32.098 21.1-44.31 53.414-44.42 9.5-.056 18.99-.025 29.74-.025zm-61.504 51.088c-.055 7.798-.903 15.93 6.543 18.747 7.445 2.816 12.224-4.122 16.643-9 9.86-10.862 7.83-25.376 11.14-38.299 1.331-5.168 1.567-10.089-4.14-13.183-6.381-3.466-11.054.142-14.985 4.14-10.429 10.627-13.523 24.362-15.2 37.595z"></path><path fill="#474748" d="M541.69 319.856c-13.808 6.289-22.22 15.022-20.554 25.828 2.723 17.615-9.154 16.786-19.967 20.883-1.399-21.823 6.746-37.52 23.885-48.209 18.605-11.598 38.646-16.333 59.418-6.412 15.838 7.545 18.568 23.204 6.808 38.238-4.543 5.806-8.226 8.343.761 14.168 10.615 6.882 14.168 18.605 11.556 31.373-2.804 13.74-10.448 23.52-24.139 27.927-17.076 5.515-34.697 3.187-52.12 3.503-9.755.173-5.008-6.468-4.228-10.46 5.193-26.546 10.714-53.03 16.018-79.552.984-4.877 1.48-9.853 2.563-17.287zm39.767 66.604c-.476-9.977-6.102-17.72-17.485-19.893-14.402-2.742-10.243 10.132-12.378 16.662-2.76 8.418-3.157 17.578-5.15 26.293-1.318 5.768 1.083 6.808 6.016 6.665 13.71-.408 28.589-14.767 28.991-29.727h.006zm-23.847-30.167c19.979-6.808 27.945-20.97 20.765-33.02-2.154-3.615-5.187-6.338-9.185-6.629-6.45-.464-4.184 5.348-4.951 8.529-2.346 9.65-4.184 19.422-6.635 31.12h.006zm-428.31-7.836c-9.284-4.14-22.48-3.02-18.903-19.614 1.053-4.865-2.017-9.042-7.266-9.674-8.448-1.027-15.473 2.024-20.425 9.173-3.961 5.725-4.116 11.487.198 17.182 5.255 6.932 12.955 10.75 19.843 15.59 22.734 15.988 27.537 35.175 13.078 52.387-15.74 18.76-51.724 23.068-67.526 8.084-9.055-8.579-10.521-24.956-2.413-35.663 3.602-4.748 7.377-13.116 15.473-4.253 4.952 5.379 11.624 9.848.05 15.616a9.983 9.983 0 00-4.884 13.097c2.185 5.304 7.019 6.944 12.41 7.111 11.76.366 21.353-4.041 26.478-14.687 5.484-11.4-2.835-17.844-10.825-23.52-9.662-6.882-19.658-13.288-26.039-23.742-10.33-16.915-5.57-34.01 12.428-42.174 15.727-7.13 31.857-7.885 46.928 1.696 11.964 7.57 14.805 19.106 11.395 33.391zm45.163 57.97c-.705-18.977 2.978-36.555 16.935-50.536 6.963-6.963 15.677-10.306 25.55-10.522 5.669 5.323.971 7.613-3.034 9.829-9.71 5.366-13.245 14.693-16.445 24.46-3.843 11.76 2.63 9.364 9.253 7.08 4.506 3.856 2.817 6.735-1.677 8.616-4.493 1.882-12.601.279-8.529 9.73 3.206 7.427 8.498 12.614 16.78 11.642 11.666-1.362 19.731-7.65 21.935-20.01 2.37-13.314 4.772-26.615 7.501-39.878.947-4.587.57-11.853 7.755-10.64 5.255.885 13.982-6.424 15.876 5.713 1.077 6.895 4.952 1.566 6.728.167 10.75-8.343 21.576-8.312 33.546-.761-5.193 7.124-9.674 11.76-20.344 10.738-15.362-1.479-22.703 10.392-26.614 23.477-2.742 9.129-3.844 18.747-5.8 28.124-2.946 14.1-11.976 18.6-24.175 10.596-3.287-2.154-4.55-3.094-7.873-1.54-17.95 8.559-33.658 5-47.231-9.198l-.137-7.087z"></path><path fill="#49494A" d="M456.476 349.15c-4.166 20.258-8.047 38.913-11.791 57.605-.91 4.55-5.18 10.268 1.59 13.227 5.336 2.333 9.594-1.993 13.215-5.44 3.472-3.306 6.375-7.211 12.007-13.717-2.308 17.034-12.088 22.722-22.566 27.444-9.117 4.11-17.95 3.844-23.52-5.768-4.19-7.211-6.901-2.074-10.144.34-10.194 7.594-21.23 11.55-32.76 3.893-11.531-7.656-11.698-19.453-9.371-31.733 6.381-33.651 21-45.801 55.518-45.85 8.9-.013 17.832 0 27.822 0zm-61.473 51.242c0 7.78-.842 15.92 6.678 18.643 7.52 2.723 12.212-4.259 16.606-9.16 9.767-10.894 7.805-25.414 11.092-38.319 1.33-5.224 1.43-10.113-4.296-13.121-6.387-3.361-11.048.29-14.96 4.301-10.367 10.652-13.461 24.411-15.12 37.656z"></path><path fill="#474748" d="M881.939 411.032c11.468-24.238 11.877-51.137 18.444-76.55 1.238-4.908 1.727-10.052 3.317-14.855 2.885-8.665 10.386-4.537 15.864-4.673 7.637-.198 5.13 5.948 4.332 9.817a5458.568 5458.568 0 01-15.987 77.713c-2.6 12.119-2.278 20.425 14.855 11.08-10.8 16.958-18.055 17.119-39.742 2.852-.36-1.776-.724-3.583-1.083-5.384zm-581.281 14.415c4.426-23.105 8.783-46.278 13.363-69.408.935-4.722 1.151-11.258 8.467-10.033 5.076.842 12.8-4.84 14.892 5.008 1.782 8.392 5.15 1.955 7.538.618 14.8-8.046 17.207-8.108 33.182.694-5.738 4.462-8.554 11.518-17.95 9.958-17.051-2.822-24.225 9.123-29.04 22.208-2.878 7.805-4.104 16.47-4.63 24.838-1.126 17.67-9.94 21.885-25.822 16.117zm386.192-73.722c-6.598 6.87-10.974 11.407-20.883 10.386-15.325-1.578-22.715 10.336-26.614 23.408-2.872 9.674-5.44 19.806-5.769 29.777-.433 12.998-8.244 12.237-17.058 12.02-5.49-.136-8.095-1.034-6.666-7.706 4.6-21.464 8.375-43.109 12.812-64.617 1.715-8.312 20.017-14.142 21.768-7.662 3.138 11.58 6.041 6.226 11.234 2.779 10.045-6.654 20.165-5.614 31.176 1.615z"></path><path fill="#49494A" d="M174.463 406.427l.13 7.087c-3.713 5.199-8.8 8.584-14.613 10.998-17.949 7.427-31.064-1.956-28.384-21.322 2.234-16.142 6.895-31.937 9.284-48.067 1.857-12.428 10.633-9.773 17.807-9.13 11.939 1.078 4.332 9.322 3.64 13.927-1.963 13.357-5.516 26.484-7.527 39.835-.823 5.465-6.097 12.997 1.56 16.593 6.74 3.157 10.744-4.146 15.343-7.996.873-.712 1.844-1.288 2.76-1.925zm707.476 4.605c.359 1.8.724 3.608 1.083 5.41-8.851 9.122-19.497 14.897-31.374 7.959-10.98-6.406-9.229-17.881-6.808-28.75 2.834-12.583 6.189-25.178 7.427-37.953 1.275-13.716 10.225-13.19 19.007-11.63 10.665 1.9 3.603 9.668 2.885 14.44-2.092 13.858-5.342 27.536-7.849 41.339-.866 4.778-4.09 10.912.799 14.192 5.713 3.844 10.113-2.42 14.83-5.007z"></path><path fill="#0C6C3E" d="M311.186 255.536c13.908-24.212 33.825-43.152 56.064-65.403-1.554 13.524 7.217 22.901-3.813 33.392-8.257 7.86-12.824 19.54-19.422 29.257-1.052 1.554-5.62 9.216-5.57-.99 0-6.146-3.925-4.246-6.617-2.977-6.028 2.853-11.76 6.276-17.646 9.463l-2.996-2.742zm-189.753 43.14c15.85-16.26 35.935-13.616 55.952-11.277-17.708 8.046-38.374 2.792-55.952 11.277z"></path><path fill="#474748" d="M156.26 339.08c-7.581-1.17-12.434-5.267-11.864-13.208.55-7.749 5.57-12.026 13.375-11.574 7.099.415 11.246 5.032 11.14 12.02-.068 7.81-5.044 11.79-12.65 12.762zm712.08 0c-7.625-1.083-12.514-5.15-12.032-13.078.47-7.755 5.484-12.088 13.264-11.716 7.087.346 11.283 4.896 11.283 11.902.013 7.842-4.976 11.815-12.514 12.892zm-661.66 47.343c11.332-7.836 16.389-18.098 11.759-31.74-1.38-4.084-.421-6.306 3.658-7.321 14.347 14.508 11.914 34.877-5.31 43.752-5.163 2.699-10.646 5.305-10.108-4.691z"></path><path fill="#0C6C3E" d="M314.182 258.266c-1.355 3.02-3.515 3.33-6.19 1.857l3.213-4.593 2.977 2.736z"></path><path fill="#F5F5F5" d="M829.75 185.231c11.413 4.389 18.995 9.018 24.38 18.172-15.183 5.039-21.78-1.188-24.38-18.172z"></path><path fill="#FCFCFC" d="M573.727 224.658c-2.049-.415-5.663-1.053-4.586-3.008 1.46-2.668 4.846-1.647 7.154.52l-2.568 2.488zm284.364-13.122c-1.238-1.238-4.054-2.011-2.154-4.388 1.733-2.173 3.485.142 5.187.749l-3.033 3.64zM576.89 228.34l-3.163-3.682 2.568-2.476 3.262 2.073c-.891 1.35-1.776 2.717-2.667 4.085z"></path></g></svg>