<svg xmlns="http://www.w3.org/2000/svg" viewBox="154.0001983642578 78.99956512451172 290.99981689453125 93.00045013427734"><g fill="none"><path fill="#CC6415" d="M445 81.663c-.09 2.748-.181 5.497-.181 8.245 0 2.663-.453 3.092-3.169 3.092H247.901c-1.177-.086-1.901-.687-1.901-1.804V81.061c0-1.202.724-1.803 1.992-1.89H440.11c.543 0 1.086-.085 1.72-.171H445v2.663z"></path><path fill="#41589E" d="M188.09 79.007c2.521 0 5.132.09 7.652 0 1.53-.089 2.34.624 2.79 1.959 1.62 4.896 3.331 9.702 5.041 14.51 2.52 7.388 5.041 14.776 7.652 22.253 3.6 10.415 7.111 20.919 10.622 31.423.45 1.424-.09 2.492-1.62 2.581-4.862.089-9.812 0-14.673 0-1.08 0-1.53-.89-1.89-1.78-1.35-2.938-2.611-5.964-4.321-8.546-2.7-4.095-6.481-6.854-11.792-6.765-4.231.089-7.382 2.136-10.082 5.163-2.52 2.848-4.14 6.231-5.401 9.792-.63 1.958-1.17 2.403-3.24 2.403-4.141 0-8.282-.089-12.423-.178-2.25 0-2.79-.89-2.16-2.938 3.24-9.524 6.57-19.049 9.812-28.573 1.89-5.43 3.69-10.95 5.58-16.38 2.61-7.566 5.221-15.132 7.742-22.787.45-1.424 1.44-2.048 2.97-2.048 2.43-.089 5.041-.089 7.742-.089zm1.17 47.624c1.171 0 2.251 0 3.421-.09 2.61 0 3.421-1.068 2.701-3.56-1.71-5.608-3.51-11.216-5.22-16.824-.361-1.157-.901-2.047-2.341-2.047-1.35 0-1.89.89-2.25 1.958-1.801 5.786-3.511 11.483-5.312 17.18-.54 1.87.27 3.027 2.25 3.205 2.251.267 4.502.178 6.752.178zM300 136.113v-32.69c0-2.575.442-3.02 3.005-3.02h11.58c.971 0 1.413.267 1.413 1.333.089 1.954 1.68 2.665 3.359 1.776 1.945-1.066 3.8-2.487 5.834-3.197 9.988-3.465 19.003-.09 23.246 10.215 2.121 5.152 2.563 10.482 2.563 15.99 0 5.596-1.06 10.925-3.89 15.81-4.153 7.196-10.075 11.549-18.649 11.371-3.094-.089-6.01-.8-8.927-1.954-2.387-.977-3.624-.089-3.624 2.487v15.101c0 2.043-.53 2.665-2.563 2.665h-10.872c-1.856 0-2.475-.622-2.475-2.487v-33.4zm15.91-8.705c-.089 3.82-.089 7.728-.089 11.547 0 1.6.708 2.665 2.299 2.754 2.12.178 4.33.444 6.54.267 3.713-.356 6.718-2.132 8.132-5.597 2.74-6.75 2.74-13.59.177-20.43-.796-1.955-2.298-3.287-4.331-4.087-3.89-1.42-7.513-.444-11.137 1.244-1.15.533-1.68 1.421-1.68 2.754.177 3.908.089 7.728.089 11.548zm71.675 21.178c-.816.549-1.27.915-1.632 1.28-4.353 3.934-9.432 5.947-15.236 6.13-8.343.183-15.508-5.855-16.505-14.18-.635-5.398 0-10.613 4.08-14.638 2.45-2.47 5.442-3.934 8.707-4.94 5.441-1.647 10.973-2.196 16.596-2.562.544 0 1.088-.091 1.542-.183 2.358-.366 3.174-1.83 2.176-4.116-.725-1.647-1.904-2.745-3.537-3.385-4.534-1.739-9.25-1.922-13.875-.915-3.265.732-6.348 1.92-9.522 3.019-1.36.457-1.905.274-1.905-1.19v-9.24c0-1.372.544-2.195 1.905-2.47 3.99-.64 7.89-1.555 11.97-1.92 6.349-.55 12.788-.367 18.955 1.371 6.983 2.013 11.608 6.313 12.424 14.09.181 1.463.272 2.835.272 4.299v32.203c0 2.653-.544 3.202-3.174 3.202h-10.157c-2.358 0-2.812-.55-2.812-2.928a84.368 84.368 0 01-.272-2.927zm.182-12.991v-4.026c-.091-1.555-.907-2.47-2.268-2.378-3.536.183-6.983.457-10.338 1.738-4.353 1.738-5.17 5.123-4.444 9.057.363 1.83 1.451 3.11 3.265 3.842 4.081 1.464 7.89.824 11.517-1.372 1.724-1.006 2.63-2.47 2.268-4.574-.091-.732 0-1.555 0-2.287zM296 125.75v23.85c0 2.267-.546 2.901-2.821 2.901h-11.557c-1.274 0-2.093-.09-2.002-1.723.09-1.632-1.274-2.539-2.821-1.904-.91.363-1.73.907-2.548 1.542-4.732 3.446-10.01 4.17-15.652 3.173-6.461-1.178-11.194-6.438-12.104-13.51-.364-2.721-.455-5.532-.455-8.252-.09-9.884 0-19.768 0-29.652 0-2.811.273-3.083 3.094-3.083h10.739c1.91 0 2.457.544 2.457 2.448v22.398c0 3.264.182 6.438.455 9.702.637 5.804 3.913 7.254 9.19 6.71 2.003-.18 3.823-1.27 5.734-1.995 1.547-.544 1.91-1.722 1.91-3.264-.09-10.972 0-21.853 0-32.826 0-2.81.365-3.173 3.186-3.264h10.556c2.093 0 2.548.544 2.639 2.63v24.12zm-72-10.25V81.41c0-1.785.582-2.41 2.247-2.41h10.483c1.581 0 2.163.625 2.247 2.231.083 1.428-.084 2.767-.084 4.194 0 7.05.084 14.1.084 21.15 0 6.515-.084 13.12-.084 19.634v22.846c0 2.41-.499 2.945-2.662 2.945h-9.652c-1.997 0-2.496-.535-2.496-2.677C224 138.078 224 126.744 224 115.5zm185.092 10.147v-23.834c0-2.248.458-2.608 2.748-2.608h11.084c1.923 0 2.381.54 2.565 2.428.091.72.091 1.44.458 1.979.732 1.08 1.832 1.17 3.114.45 2.107-1.26 4.122-2.519 6.32-3.688 2.474-1.349 5.13-1.439 7.879-1.349 1.19 0 1.74.72 1.74 1.799v12.412c0 1.259-.916.989-1.649.899l-6.32-.54c-3.573-.18-6.87 1.08-10.168 2.159-1.191.36-1.466 1.439-1.466 2.518v30.85c0 2.338-.458 2.878-2.84 2.878-3.755 0-7.603 0-11.359-.09-1.557 0-2.198-.63-2.198-1.979 0-8.094 0-16.189.092-24.284-.092 0-.092 0 0 0z"></path></g></svg>