<svg xmlns="http://www.w3.org/2000/svg" viewBox="95.49700164794922 72.14299774169922 409.00396728515625 106.70499420166016"><g fill="none" fill-rule="evenodd"><g fill="#E5007E"><path fill-rule="nonzero" d="M217.071 152.727h18.606v-30.344c0-2.688 0-6.72 5.347-6.72 5.132 0 5.132 4.81 5.132 7.427v29.566h18.606v-30.344c0-2.688 0-6.72 5.347-6.72 5.133 0 5.133 4.81 5.133 7.428v29.565h18.606v-40.529c0-7.993-5.418-15.844-17.18-15.844-3.921 0-9.91 1.486-14.615 6.366-5.417-6.366-10.336-6.366-13.045-6.366-7.343 0-11.976 5.093-13.046 6.366h-.213v-5.093h-18.606v55.242h-.072zm135.874 0h18.605v-28.434c0-6.295 1.783-11.53 12.19-11.53V97.627c-6.487 0-9.623 1.273-11.976 5.517h-.214v-5.517h-18.605v55.1zm36.213 0h18.606v-55.1h-18.606z"></path><path d="M488.248 137.802c-1.64.99-3.494 2.052-6.274 2.052-3.35 0-5.845-1.91-5.845-5.376 0-6.224 4.847-7.78 12.047-7.144v10.468h.072zm-23.953-23.765c4.349-1.627 8.198-2.759 13.26-3.466 5.203-.778 9.908 1.485 9.908 7.002-1.71-.849-5.916-1.697-9.267-1.697-12.404 0-19.818 9.265-19.818 18.744 0 12.448 8.697 19.38 17.893 19.38 7.485 0 11.335-4.173 11.977-5.305h.213v4.032h16.04v-37.77c0-14.713-7.984-18.957-22.67-18.957-4.99 0-10.336.495-17.679 2.9l.143 15.137z"></path><path fill-rule="nonzero" d="M413.752 150.393c5.133 2.192 9.624 3.536 15.898 3.536 14.043 0 25.378-4.314 25.378-17.046 0-18.744-27.874-17.683-22.456-25.746 1.283-1.98 5.846-1.627 8.127-.85 2.851.92 6.558 2.123 9.624 3.75V98.97c-2.78-1.132-7.414-2.759-12.475-2.759-12.19 0-24.167 4.88-24.167 16.764 0 18.744 22.883 17.965 22.883 24.26 0 3.325-2.994 3.396-7.057 3.396-5.418 0-10.907-3.89-15.826-6.295v16.056h.071z"></path><path d="M328.137 137.802c-1.64.99-3.493 2.052-6.274 2.052-3.35 0-5.845-1.91-5.845-5.376 0-6.224 4.847-7.78 12.047-7.144v10.468h.072zm-23.953-23.765c4.349-1.627 8.198-2.759 13.26-3.466 5.204-.778 9.908 1.485 9.908 7.002-1.71-.849-5.916-1.697-9.267-1.697-12.404 0-19.818 9.265-19.818 18.744 0 12.448 8.697 19.38 17.893 19.38 7.486 0 11.335-4.173 11.977-5.305h.213v4.032h16.04v-37.77c0-14.713-7.984-18.957-22.67-18.957-4.99 0-10.336.495-17.678 2.9l.142 15.137z"></path></g><g fill-rule="nonzero"><path fill="#E5007E" d="M95.497 72.143h107.076v106.705H95.497z"></path><path fill="#FFF" d="M115.747 75.852c.782 1.355-3.623 1.64-1.42 5.991.568 1.141 2.912 1.57 4.902 1.498 4.334-.214 13.287-6.134 16.626-7.133 4.121-1.212 9.308-.856 11.227 2.14.426.785.923 1.926.497 2.497-.995 1.355-3.482-.143-5.613-.714-6.324-1.64-11.51 1.64-13.571 2.996-2.7 1.712-6.11 3.638-9.521 3.495-3.34-.071-7.177-1.783-7.106-6.277 0-1.498.64-2.995 1.777-4.137.568-.642 1.847-.998 2.202-.356zm49.666 4.351c1.421 3.923.569 8.987-.142 11.769.213.927.568 2.995 1.208 5.278.142.57.497 1.141.71 1.783.214 1.427-1.136 1.64-2.131 2.14-1.066.57-.853 1.355-1.137 2.639 0 0-1.492.357-1.776.642-.284.285 1.35.642 1.208 1.141-.214.642-3.34 2.64-3.127 4.922.285 2.282-.994 2.282-2.06 2.068-1.066-.143-3.766-1.57-5.542-1.355-4.69.428 1.634 15.478 1.42 15.55-1.35.285-12.22-16.834-4.689-18.974 1.563-.428 2.984-.071 4.619.713 1.634.785 4.192.785 4.476-.927.213-1.284-.355-1.783 1.421-2.71l-1.137-1.855c.071 0 2.06-.927 2.06-.927.072-1.07-.212-2.425 0-2.782.498-.784 2.274-.142 2.559-1.212.142-.642-.214-.785-.498-1.712-.497-1.712-.781-2.64-1.137-4.208 0 0 2.7-7.632.071-11.77-.71-1.14 0-2.282.356-2.924.64-1.141 2.913 1.427 3.268 2.71zm-19.539 10.699c-.071.856-2.7 1.997-4.69 2.425-1.208.5-2.202.927-3.126 1.712-4.334 3.78-.497 5.278-5.826 10.556-1.066 1.07-4.76 2.996-6.68 1.855-3.552-2.14-8.455-2.283-10.941-.072-3.34 2.996-2.7 7.062-3.553 6.99-1.35-.142-.924-4.422.284-6.633 1.421-2.568 3.766-4.565 7.176-5.278 4.76-.57 4.69 1.212 7.958 1.212 9.166 0 3.269-11.84 14.992-14.48 3.127-.712 4.477.785 4.406 1.713zm-19.114-.642c1.28 0 1.564.998 1.564 1.997 0 2.211-3.34 3.638-6.04 3.709-4.12.071-5.47-1.855-8.952-1.213-4.832.928-5.045 4.28-6.75 4.066-1.066-.143-.214-2.282.497-3.495.924-1.64 4.76-3.566 6.963-3.424 2.132.143 3.34.785 5.613.714 4.76-.072 4.974-2.354 7.106-2.354zm67.856 24.465c-1.208 4.066-7.46 5.706-10.303 6.063-1.918.214-3.766 3.21-4.405 2.282-.853-1.284 2.274-3.78 4.405-4.707 2.771-1.142 4.903-.214 9.663-4.28.213-.071.782.214.64.642zm-55.563 6.135c1.35 1.283.142 2.995-1.492 2.567-2.772-.713-4.05-.5-7.319-.143-9.308.927-14.85 9.7-24.087 14.55-5.684 2.997-6.75 1.927-6.679.857.071-.856 1.635-.428 6.324-3.424 2.487-1.57 4.192-2.639 6.11-4.422 5.33-4.993 13.43-11.341 18.119-11.27 1.208 0 7.105-.642 9.024 1.284zm14.352 14.621c-.213.713-1.279.5-1.776.5-2.203.07-3.197-2.283-5.471-4.138-.995-.784-1.705-.998-2.487-1.925-.568-.714-.142-1.142.71-1.07.924.142 3.198 1.284 4.974 2.567 1.777 1.356 4.406 3.068 4.05 4.066zm24.655 15.692c.569 6.348-7.602 10.77-7.815 14.194-.569 8.203-1.208 10.414-2.345 11.199-.64.427-2.132.285-1.918-1.142.64-5.135.426-7.204 1.918-12.125 1.492-4.85 6.892-5.85 6.608-10.057-.355-5.421-4.476-10.343-4.974-14.052-.355-2.996-.852-6.49.995-9.7.213-.428 1.279-.214 1.137.713-.924 3.994-.071 6.633.568 8.773 1.35 5.136 5.4 7.917 5.827 12.197zm-50.234-9.629c0 .999-4.76 1.284-8.455 4.494-4.192 3.566-8.313 6.49-12.15 6.633-1.35 0-2.842-.428-2.842-1.07-.071-2.14 4.05-.143 8.171-3.281 3.979-3.067 7.532-6.063 11.582-6.776 2.202-.57 3.694-.5 3.694 0zm16.2 17.974c3.766.428 6.04-.713 11.013-3.994.356-.214 1.28-.428 1.28.856-.072 2.282-4.477 5.706-8.598 6.348-4.334.713-7.887-1.355-10.516-3.852-1.918-1.854-3.837-5.634-2.842-6.276.498-.286.853.142 1.35.998 1.28 2.354 4.334 5.492 8.313 5.92zm-10.16 19.33c1.066-5.064.71-10.485-2.487-15.835-3.055-4.993-7.176-12.054-7.46-12.482-1.066-1.854-1.28-.071-1.066.927.852 4.708 7.176 13.481 7.531 19.758.142 3.21-.426 5.35-1.066 7.632h4.548zm62.881-81.598c-.355 1.498-5.044 3.21-8.384 5.563-5.897 4.137-10.516 9.7-14.85 10.913-4.902 1.427-6.537 2.853-9.876 5.85-1.776 1.568-1.776 4.35-4.121 4.564 0 0-2.7 0-1.99-2.425 1.706-5.706 7.248-8.131 13.216-10.842 1.208-.57 2.771.072 7.958-4.137 5.684-4.565 12.292-8.416 15.845-9.985 1.066-.357 2.416-.357 2.202.499z"></path></g></g></svg>