<?xml version="1.0" encoding="utf-8"?>
<!-- Generator: Adobe Illustrator 19.0.0, SVG Export Plug-In . SVG Version: 6.00 Build 0)  -->
<svg version="1.1" id="layer" xmlns="http://www.w3.org/2000/svg" xmlns:xlink="http://www.w3.org/1999/xlink" x="0px" y="0px"
	 viewBox="-153 -46 652 652" style="enable-background:new -153 -46 652 652;" xml:space="preserve">
<style type="text/css">
	.st0{fill:#938F87;}
	.st1{fill:#258D7B;}
	.st2{fill:#F79835;}
	.st3{fill:#EF4B4F;}
	.st4{fill:#384963;}
	.st5{fill:#948F87;}
</style>
<path class="st0" d="M1.2,447.1c-7.1,0-7.1,0-7.1,0c-2.2,0-2.2,0-2.2,0c0-9.8,0-9.8,0-9.8c2.2,0,2.2,0,2.2,0c7.1,0,7.1,0,7.1,0
	c0-4.9,0-4.9,0-4.9c0-6.7-3.1-8.9-9.3-8.9c0-12,0-12,0-12c15.5,0,24,7.1,24,20.9c0,39.5,0,39.5,0,39.5c0,1.3-1.3,2.2-2.2,2.2
	c-9.3,0-9.3,0-9.3,0c-1.3,0-2.2-0.9-2.2-2.2c0-1.8,0-1.8,0-1.8c-3.6,1.8-6.7,3.6-10.2,4.4c0-11.1,0-11.1,0-11.1
	c3.6-0.4,6.7-1.8,9.3-3.1 M-8.1,447.1c-7.5,0.4-9.8,3.6-9.8,9.3c0,0.4,0,0.4,0,0.4c0,5.3,2.7,6.7,8,6.7c1.8,0,1.8,0,1.8,0
	c0,11.1,0,11.1,0,11.1c-1.8,0-3.6,0.4-5.3,0.4c-8.9,0-18.6-3.6-18.6-18.2c0-0.4,0-0.4,0-0.4c0-12,6.7-18.2,24-19.1V447.1z
	 M-8.1,411.6c0,12,0,12,0,12c-7.1,0-14.2,0.4-17.8,1.3c-0.9,0-0.9,0-0.9,0c-1.3,0-1.8-0.9-1.8-2.2c0-6.7,0-6.7,0-6.7
	c0-1.3,0.4-2.2,1.8-2.7C-22.3,412.9-15.7,411.6-8.1,411.6z M106.4,474.2c0.9,0,2.2-0.9,2.2-2.2c0,0,0,0,0-37.3
	c0-12.9-3.6-23.1-18.2-23.1c-7.5,0-12.4,1.8-18.2,4.9c-2.2-3.1-6.7-4.9-12.9-4.9s-10.7,2.2-15.5,5.3c0,0,0,0,0-2.2
	c0-1.3-0.9-2.2-2.2-2.2c0,0,0,0-9.3,0c-1.3,0-2.2,0.9-2.2,2.2c0,0,0,0,0,57.3c0,1.3,0.9,2.2,2.2,2.2c0,0,0,0,10.2,0
	c0.9,0,1.8-0.9,1.8-2.2c0,0,0,0,0-44c4.4-2.7,8-4,10.2-4c6.2,0,7.5,2.2,7.5,10.7c0,0,0,0,0,37.3c0,1.3,0.9,2.2,2.2,2.2
	c0,0,0,0,9.8,0c1.8,0,2.2-0.9,2.2-2.2c0,0,0,0,0-37.3c0-2.7,0-5.3,0-8c4-1.8,8-2.7,10.2-2.7c5.8,0,7.5,2.2,7.5,10.7c0,0,0,0,0,37.3
	c0,1.3,1.3,2.2,2.2,2.2C96.2,474.2,96.2,474.2,106.4,474.2 M159.2,439.1c0-8.9-2.2-15.5-11.1-15.5c0-12,0-12,0-12
	c17.3,0.4,25.3,10.7,25.3,27.5c0,8.4,0,8.4,0,8.4c0,16.9-8,27.1-25.3,27.5c0-12,0-12,0-12c8.9,0,11.1-6.7,11.1-15.5 M148.1,423.6
	c-0.4,0-0.4,0-0.4,0c-2.7,0-7.5,0-10.2,0.4c0,38.2,0,38.2,0,38.2c1.8,0.9,6.2,1.3,10.2,1.3c0.4,0,0.4,0,0.4-0.4c0,12,0,12,0,12
	c-0.4,0-0.4,0-0.4,0c-7.1,0-15.5-0.9-22.2-3.1c-2.2-0.4-2.7-1.3-2.7-2.7c0-76.4,0-76.4,0-76.4c0-0.9,0.9-1.8,2.2-1.8
	c9.8,0,9.8,0,9.8,0c1.3,0,2.7,0.9,2.7,1.8c0,20,0,20,0,20c3.6-0.9,7.5-1.3,10.2-1.3c0.4,0,0.4,0,0.4,0V423.6z M198.3,474.2
	c-10.2,0-10.2,0-10.2,0c-1.3,0-2.2-0.9-2.2-2.2c0-57.3,0-57.3,0-57.3c0-1.3,0.9-2.2,2.2-2.2c10.2,0,10.2,0,10.2,0
	c1.3,0,2.2,0.9,2.2,2.2c0,57.3,0,57.3,0,57.3C200.5,473.3,199.6,474.2,198.3,474.2 M198.3,404.5c-10.2,0-10.2,0-10.2,0
	c-1.3,0-2.2-1.3-2.2-2.2c0-9.8,0-9.8,0-9.8c0-1.3,0.9-2.2,2.2-2.2c10.2,0,10.2,0,10.2,0c1.3,0,2.7,0.9,2.7,2.2c0,9.8,0,9.8,0,9.8
	C201,403.2,199.6,404.5,198.3,404.5z M251.6,439.1c0-8.9-2.2-15.5-11.1-15.5c0-12,0-12,0-12c17.3,0.4,25.3,10.7,25.3,27.5
	c0,8.4,0,8.4,0,8.4c0,16.9-8,27.1-25.3,27.5c0-12,0-12,0-12c8.9,0,11.1-6.7,11.1-15.5 M240.5,423.6c-0.4,0-0.4,0-0.4,0
	c-4,0-8.4,0-10.7,0.4c0,38.2,0,38.2,0,38.2c3.1,0.9,8,1.3,10.7,1.3c0,0,0.4,0,0.4-0.4c0,12,0,12,0,12c-0.4,0-0.4,0-0.4,0
	c-2.7,0-6.7-0.4-10.7-0.9c0,19.5,0,19.5,0,19.5c0,0.9-0.9,2.2-2.2,2.2c-10.2,0-10.2,0-10.2,0c-0.9,0-1.8-1.3-1.8-2.2
	c0-76.4,0-76.4,0-76.4c0-1.3,0.4-2.2,2.7-2.7c7.1-1.8,15.1-3.1,22.2-3.1c0.4,0,0.4,0,0.4,0V423.6z M309.3,447.1c-6.7,0-6.7,0-6.7,0
	c-2.7,0-2.7,0-2.7,0c0-9.8,0-9.8,0-9.8c2.7,0,2.7,0,2.7,0c6.7,0,6.7,0,6.7,0c0-4.9,0-4.9,0-4.9c0-6.7-3.1-8.9-9.3-8.9
	c0-12,0-12,0-12c15.5,0,24,7.1,24,20.9c0,39.5,0,39.5,0,39.5c0,1.3-0.9,2.2-2.2,2.2c-9.3,0-9.3,0-9.3,0c-1.3,0-2.2-0.9-2.2-2.2
	c0-1.8,0-1.8,0-1.8c-3.6,1.8-6.7,3.6-10.2,4.4c0-11.1,0-11.1,0-11.1c3.6-0.4,6.7-1.8,9.3-3.1 M300,447.1c-8,0.4-9.8,3.6-9.8,9.3
	c0,0.4,0,0.4,0,0.4c0,5.3,2.7,6.7,8,6.7c1.8,0,1.8,0,1.8,0c0,11.1,0,11.1,0,11.1c-1.8,0-3.6,0.4-5.3,0.4c-8.9,0-18.6-3.6-18.6-18.2
	c0-0.4,0-0.4,0-0.4c0-12,6.7-18.2,24-19.1V447.1z M300,411.6c0,12,0,12,0,12c-7.1,0-14.2,0.4-18.2,1.3c-0.4,0-0.4,0-0.4,0
	c-0.9,0-2.2-0.9-2.2-2.2c0-6.7,0-6.7,0-6.7c0-1.3,0.9-2.2,2.2-2.7C285.8,412.9,292,411.6,300,411.6z M367.4,424
	c1.3,0,2.7-0.9,2.7-2.2c0,0,0,0,0-8c0-0.9-1.3-2.2-2.7-2.2c-4.4,0-10.2,1.3-15.5,5.8c0,0,0,0,0-2.7c0-1.3-0.9-1.8-2.2-1.8
	c0,0,0,0-9.3,0c-1.3,0-2.2,0.4-2.2,1.8c0,0,0,0,0,57.3c0,1.3,0.9,2.2,2.2,2.2c0,0,0,0,10.2,0c0.9,0,1.8-0.9,1.8-2.2c0,0,0,0,0-44
	C357.2,425.4,361.7,424,367.4,424"/>
<path class="st1" d="M25.6,224.3c-5.3,0.9-7.5-2.2-4.9-6.7c22.6-43.1,22.6-43.1,22.6-43.1c2.2-4.9,6.2-4.9,8.9,0
	c22.6,43.1,22.6,43.1,22.6,43.1c2.7,4.4,0,7.5-4.9,6.7c0,0-7.5-1.3-16.4-2.2c0,50.6,0,50.6,0,50.6c4.9-0.9,9.8-3.6,13.8-7.1
	c51.5-51.5,51.5-51.5,51.5-51.5c10.2-10.2,10.2-26.6,0-36.8c-51.5-51.5-51.5-51.5-51.5-51.5c-10.2-10.7-27.1-10.7-36.8,0
	c-51.9,51.5-51.9,51.5-51.9,51.5c-9.8,10.2-9.8,26.6,0,36.8c51.9,51.5,51.9,51.5,51.9,51.5c3.1,3.1,7.1,5.3,11.5,6.7
	c0-50.2,0-50.2,0-50.2C33.2,222.9,25.6,224.3,25.6,224.3"/>
<path class="st2" d="M304.8,176.8c-51.5-51.5-51.5-51.5-51.5-51.5c-3.6-3.6-7.1-5.8-11.5-6.7c0,50.2,0,50.2,0,50.2
	c8.9-0.9,16-2.2,16-2.2c5.3-0.9,7.5,2.2,4.9,6.7C240,216.3,240,216.3,240,216.3c-2.2,4.4-6.2,4.4-8.4,0
	c-23.1-43.1-23.1-43.1-23.1-43.1c-2.2-4.4-0.4-7.5,5.3-6.7c0,0,7.1,1.3,16,2.2c0-50.6,0-50.6,0-50.6c-4.9,0.9-9.8,3.1-13.8,7.1
	C165,176.8,165,176.8,165,176.8c-10.2,10.2-10.2,26.6,0,36.8c51.1,51.5,51.1,51.5,51.1,51.5c10.2,9.8,27.1,9.8,37.3,0
	c51.5-51.5,51.5-51.5,51.5-51.5C315.1,203.4,315.1,187,304.8,176.8"/>
<path class="st3" d="M113.1,79.1c-1.3-5.3,1.8-7.1,6.7-4.9c43.1,22.6,43.1,22.6,43.1,22.6c4.4,2.2,4.4,6.7,0,8.9
	c-43.1,22.6-43.1,22.6-43.1,22.6c-4.9,2.7-8,0.4-6.7-4.9c0,0,1.3-7.5,2.2-16c-51.1,0-51.1,0-51.1,0c1.3,4.9,3.6,9.3,7.5,13.3
	c51.5,51.5,51.5,51.5,51.5,51.5c10.2,9.8,26.6,9.8,36.8,0c51.5-51.5,51.5-51.5,51.5-51.5c9.8-10.2,9.8-26.6,0-36.8
	c-51.5-51.5-51.5-51.5-51.5-51.5c-10.2-10.2-26.6-10.2-36.8,0C71.8,84,71.8,84,71.8,84c-3.6,3.1-5.8,7.1-7.1,11.5
	c50.6,0,50.6,0,50.6,0C114.4,86.6,113.1,79.1,113.1,79.1"/>
<path class="st4" d="M160.6,357.9c51.5-51.5,51.5-51.5,51.5-51.5c3.1-3.1,5.3-7.1,6.7-11.1c-50.2,0-50.2,0-50.2,0
	c0.4,8.4,1.8,16,1.8,16c1.3,5.3-1.8,7.5-6.2,4.9c-43.1-22.6-43.1-22.6-43.1-22.6c-4.9-2.2-4.9-6.2,0-8.9
	c43.1-22.6,43.1-22.6,43.1-22.6c4.4-2.2,7.5,0,6.2,5.3c0,0-1.3,7.1-1.8,16c50.2,0,50.2,0,50.2,0c-0.4-5.3-3.1-9.8-6.7-13.8
	c-51.5-51.1-51.5-51.1-51.5-51.1c-10.2-10.2-26.6-10.2-37.3,0c-51.1,51.1-51.1,51.1-51.1,51.1c-10.7,10.2-10.7,26.6,0,36.8
	c51.1,51.5,51.1,51.5,51.1,51.5C133.9,368.1,150.4,368.1,160.6,357.9"/>
<path class="st5" d="M272,523.5c0-14.2,0-14.2,0-14.2c0-0.4-0.4-0.9-0.9-0.9c-2.7,0-2.7,0-2.7,0c-0.4,0-0.4,0.4-0.4,0.9
	c0,12,0,12,0,12c-0.9,0-2.7,0-5.3,0c-4,0-7.1-2.7-7.1-9.3c0-5.8,0-5.8,0-5.8c0-7.5,3.6-9.8,7.5-9.8c3.6,0,5.3,0.4,8,0.4
	c0.4,0,0.4,0,0.4-0.4c0-2.2,0-2.2,0-2.2c0-0.4,0-0.4-0.4-0.4c-1.8-0.4-4-0.4-8-0.4c-5.8,0-11.5,2.7-11.5,12.9c0,5.8,0,5.8,0,5.8
	c0,9.3,5.8,12.9,11.1,12.9c4,0,6.2,0,8.4-0.4C271.6,524.4,272,523.9,272,523.5 M297.3,523.9c0,0,0,0,0-0.4c-8-12.4-8-12.4-8-12.4
	c4-0.9,6.7-4,6.7-8.9c0-7.1-4.9-8.9-11.5-8.9c-2.2,0-5.8,0-7.5,0c-0.4,0-0.9,0.4-0.9,0.9c0,29.7,0,29.7,0,29.7
	c0,0.4,0.4,0.9,0.9,0.9c2.2,0,2.2,0,2.2,0c0.4,0,0.9-0.4,0.9-0.9c0-12.4,0-12.4,0-12.4c2.2,0,3.1,0,4.4,0c0.4,0,0.4,0,0.4,0
	c0.4,0,0.4,0,0.4,0c7.5,12.4,7.5,12.4,7.5,12.4c0.4,0.9,0.4,0.9,1.3,0.9c2.7,0,2.7,0,2.7,0C297.3,524.8,297.3,524.4,297.3,523.9z
	 M292.4,502.2c0,4.9-3.1,6.2-8,6.2c-0.9,0-2.7-0.4-4.4-0.4c0-11.1,0-11.1,0-11.1c0.9-0.4,3.1-0.4,4.4-0.4
	C289.8,496.4,292.4,497.7,292.4,502.2z M320.8,511.9c0-5.8,0-5.8,0-5.8c0-9.3-4.4-12.9-11.1-12.9c-6.7,0-11.5,3.6-11.5,12.9
	c0,5.8,0,5.8,0,5.8c0,8.9,4.9,12.9,11.5,12.9C316.4,524.8,320.8,520.8,320.8,511.9z M317.3,511.9c0,6.7-2.7,9.3-7.5,9.3
	c-4.4,0-7.5-2.7-7.5-9.3c0-5.8,0-5.8,0-5.8c0-6.7,3.1-9.8,7.5-9.8c4.9,0,7.5,3.1,7.5,9.8V511.9z M346.1,513.3c0-19.1,0-19.1,0-19.1
	c0-0.4-0.4-0.9-0.9-0.9c-2.2,0-2.2,0-2.2,0c-0.4,0-0.9,0.4-0.9,0.9c0,19.1,0,19.1,0,19.1c0,5.3-1.8,8.4-6.7,8.4
	c-5.3,0-7.1-3.1-7.1-8.4c0-19.1,0-19.1,0-19.1c0-0.4-0.4-0.9-0.9-0.9c-2.2,0-2.2,0-2.2,0c-0.4,0-0.9,0.4-0.9,0.9
	c0,19.1,0,19.1,0,19.1c0,8,4,11.5,11.1,11.5C342.1,524.8,346.1,521.3,346.1,513.3z M370.1,502.6c0-0.4,0-0.4,0-0.4
	c0-6.7-5.3-8.9-12-8.9c-2.7,0-5.3,0-7.1,0c-0.4,0-0.9,0.4-0.9,1.3c0,29.3,0,29.3,0,29.3c0,0.4,0.4,0.9,0.9,0.9c2.2,0,2.2,0,2.2,0
	c0.4,0,0.9-0.4,0.9-0.9c0-12,0-12,0-12c0.9,0,2.7,0,4,0C364.8,511.9,370.1,509.7,370.1,502.6z M366.1,502.6c0,4.4-2.2,6.2-8,6.2
	c-0.9,0-3.1,0-4,0c0-12.4,0-12.4,0-12.4c0.9,0,2.7,0,4,0c5.3,0,8,1.3,8,5.8V502.6z"/>
</svg>
