<svg xmlns="http://www.w3.org/2000/svg" viewBox="-0.0006919216830283403 0 275.1806945800781 97.79000091552734"><path fill="#06805c" d="M224.43 0l.03 47.26-14.02-16.13z"></path><path fill="#6ec389" d="M224.43 0l24.51 54.54-15.57 2.97-8.91-10.25z"></path><path fill="#1380b0" d="M248.94 54.54l3.04 6.81 23.2-11.82z"></path><path fill="#006a63" d="M248.94 54.54l3.04 6.81-10.58 5.4-8.03-9.24z"></path><path fill="#6ec389" d="M241.4 66.75l10.58-5.4 16.39 36.44z"></path><path fill="#1380b0" d="M233.37 57.51l8.03 9.24-35.74 18.21 12.21-24.49z"></path><path fill="#005178" d="M180.48 97.79l14.84-33.02 22.55-4.3-12.21 24.49z"></path><path fill="#05a0ab" d="M210.44 31.13l14.01 16.13-6.58 13.21-22.55 4.3z"></path><path fill="#005178" d="M86.92 35.53a12.31 12.31 0 00-10.56 5.89c-.15.21-.36.29-.51 0-.43-5.39-5.81-6-10.41-5.17v7c2.37.22 2.07 2.8 2.08 6.4l.15 40.8 9.62-.07-.07-18.19c0-.21.06-.35.29-.28a28.55 28.55 0 006.25.87c12.06 0 19.82-7 19.82-18S98 35.53 86.92 35.53M38.07 65c-2.15-.24-2.07-1.82-2.07-4.4l-.07-21.77a41.15 41.15 0 00-15.23-3.3C8.55 35.38.22 41.78 0 53.92-.07 64 5.17 72.59 16.31 72.66a12.24 12.24 0 0010.84-5.89c.15-.28.51-.21.51.08.64 5.6 6 5.81 10.41 5.1zM25.86 54.13c0 5.46-2.44 9.41-7.4 9.41-5.31.07-8.12-4-8-9.7.14-6.82 3.8-10 9.48-10a16.41 16.41 0 015.89 1zm32.68 10.49c-2.15-.22-2-1.8-2-4.38V17.71H45.83V61c0 8.55 4.45 12.5 12.71 10.92zm84.12 5.17a21 21 0 01-6 2.23c-6.11 1.26-13 1.08-17.81-1-6.17-2.67-9.91-8.26-9.91-16.88-.07-12.21 8.69-18.6 18.1-18.82 8.12-.18 16.95 3 16.66 12.29-.22 7.32-6.82 10.7-13.36 11.06a22.63 22.63 0 01-11.06-2c-.21-.15-.43.07-.43.28.5 5.75 5.39 7.83 11.71 7.62a32.7 32.7 0 0011.71-2.73zm-14.44-18.17c2.95-.13 5.46-1.3 5.46-3.95 0-3.31-3.66-4.38-6.47-4.31-3.66.09-6.75 1.94-7.9 6.39 1.51 1 5.61 2 8.91 1.87m33.69-9.34c-.07.07-.22.07-.22-.14l-.64-5.89H151a101.86 101.86 0 011.15 15.94l.07 20h10.06V56.5c0-9.33 4.31-11.84 12.38-11.1l3.77-8.4a19.26 19.26 0 00-5.89-.79c-5.46 0-8.84 2-10.63 6M77.72 54.2c0-5.46 2.44-9.41 7.4-9.41 5.32 0 8.12 4 8 9.7C93.08 61.32 89.36 65 83.68 65a16.44 16.44 0 01-5.89-1z"></path></svg>