<svg xmlns="http://www.w3.org/2000/svg" viewBox="0.4949374198913574 0.5126876831054688 706.714599609375 563.08984375"><g fill="none"><path fill="#C13C37" d="M562.967 143.173c-.316 64.257-49.342 125.189-109.714 135.866-5.516.977-13.852 5.586-16.547-1.742-3.262-8.872 6.43-10.377 12.252-13.182 13.45-6.47 27.114-12.505 40.532-19.037 7.974-3.877 17.09-8.407 11.662-19.439-5.43-11.03-13.836-4.499-20.833-1.245-29.895 13.9-60.01 27.39-89.33 42.423-14.025 7.187-24.962 4.862-38.302-1.93-71.412-36.348-83.144-124.023-63.051-174.239C331.665-14.4 467.215-27.953 528.95 51.7c22.07 28.477 34.141 57.591 34.016 91.473zM356.973 214.64c1.23-.568 2.86-1.45 4.586-2.088 45.402-16.752 87.88-40.067 132.297-59.057 6.02-2.577 11.251-9.022 7.43-16.972-4.57-9.495-11.63-6.406-18.966-3.097-22.646 10.243-44.637 24.15-68.441 28.957-24.923 5.035-39.681 25.734-62.768 31.99-4.728 1.277-5.854 7.817-4.255 13.08 1.34 4.54 4.405 7.392 10.078 7.187h.04zm1.419-50.949c18.178-3.498 35.04-9.904 51.839-18.398 26.246-13.285 54.147-23.276 81.292-34.788 7.391-3.152 13.6-7.99 10.37-16.988-3.499-9.724-10.787-7.746-18.407-4.476-43.739 18.777-87.58 37.31-131.366 55.944-5.886 2.514-8.865 8.92-7.966 13.466 1.237 6.485 8.43 5.658 14.198 5.24h.04zm144.194 22.543c-2.364-10.771-7.998-13.174-18.69-8.084-42.013 19.998-84.113 39.823-126.584 58.852-9.171 4.113-10.503 9.888-8.068 17.382 3.057 9.455 10.353 6.98 16.822 3.94a47709.981 47709.981 0 00126.324-59.42c5.303-2.474 9.755-5.539 10.188-12.67h.008zm-37.561-103.22a637.905 637.905 0 00-1.435-4.303H359.487c-7.407 0-14.333 1.702-14.42 10.732-.086 9.03 5.697 13.395 14.475 13.332 18.005-.197 36.45 1.615 53.904-1.686 17.697-3.294 34.417-11.804 51.57-18.052l.009-.024z"></path><path fill="#2B2A2A" d="M275.366 436.486c0 12.867-.386 24.576.134 36.246.37 8.155-1.04 12.607-10.827 12.701-10.77.142-10.101-6.004-10.093-13.253.047-36.12-.276-72.247-.126-108.374.055-12.97.551-25.916-2.136-39.555 8.857.961 17.611-4.893 24.427 4.728 3.278 4.633 7.091-.536 9.282-2.128 23.638-17.492 59.53 1.82 66.187 25.214 5.09 17.942 6.304 35.608.749 53.32-8.447 26.79-31.006 39.792-60.002 35.206-5.453-.827-10.74-2.458-17.595-4.105zm.134-55.77h-.134v16.814c0 23.244 11.63 31.455 34.307 24.426 15.87-4.9 22.7-16.712 24.032-32.1 1.529-17.674 2.002-35.876-15.522-46.757-10.362-6.43-22.15-7.037-34-1.576-11.622 5.334-8.337 15.294-8.667 24.23-.221 4.995-.056 9.982-.056 14.962h.04zM64.448 274.46c11.859 15.618 14.9 30.407 20.148 44.126a6655.912 6655.912 0 0139.61 106.514c1.49 4.16 8.337 11.48.079 13.734-6.374 1.734-19.289 5.744-20.534-5.169-3.624-31.699-25.45-27.263-47.174-28.366-17.808-.922-26.53 4.893-29.257 21.96-1.686 10.55-8.478 13.734-18.91 12.544-6.351-.717-9.716-1.78-6.926-8.722 20.533-51.107 41.083-102.197 62.964-156.62zm.788 45.37c-8.131 23.26-14.616 41.226-20.738 59.317-1.167 3.443-5.2 9.456 2.159 10.023 11.63.961 23.417.504 35.11 0 5.39-.22 4.602-3.987 3.278-7.99-6.138-18.556-12.024-37.223-19.777-61.35h-.032zm369.674 63.328c-9.314 0-18.69.646-27.95-.118-13.394-1.111-14.348 5.563-11.354 15.853 6.257 21.456 28.863 30.73 53.344 21.117 6.493-2.553 11.875-7.312 16.35 2.537 4.838 10.63-4.129 11.457-9.707 13.829-26.097 11.078-57.52 4.491-71.498-14.538-17.619-23.985-16.736-61.168 1.883-82.947 7.88-9.25 16.854-14.238 29.87-11.662 12.143 2.364 23.97-5.555 37.263-.244 15.554 6.217 31.407 34.67 25.514 50.358-2.01 5.318-5.603 5.83-10.157 5.807-11.189-.055-22.37-.024-33.559.008zm-8.842-15.152v.094c6.21 0 12.458.418 18.612-.134 4.452-.41 10.85 2.79 12.78-3.94 1.434-4.964-1.576-9.683-4.467-13.765-11.032-15.428-34.993-16.689-49.216-2.624-4.908 4.862-10.566 10.685-7.674 17.571 2.427 5.784 9.88 2.16 15.073 2.656 4.917.504 9.96.142 14.892.142zm207.152 55.439c6.146-2.056 11.819-3.656 13.127 6.217 1.442 10.803-5.516 10.244-12.607 11.032-33.882 3.632-47.277-8.227-47.655-42.55-.142-13.064.551-26.175-.34-39.184-.535-7.785 5.895-19.257-10.195-21.133-4.625-.543-4.09-10.574.37-12.229 13.151-4.9 9.889-15.207 9.826-24.426 0-7.155.85-11.599 9.928-11.607 9.077-.007 12.938 3.034 11.457 11.82-2.805 16.744 3.522 23.859 20.746 21.085 6.233-1 11.118 1.576 11.134 9.022 0 8.668-6.445 8.352-11.82 7.328-18.839-3.577-21.51 6.461-20.352 21.85 1.017 13.616 0 27.38.528 41.044.693 16.137 9.29 23.701 25.853 21.731z"></path><path fill="#C13C37" d="M349.748 541.874c10.243-22.354 13.734-41.352 18.91-59.805 1.718-6.091 2.53-12.19 11.489-11.441 8.667.725 7.312 7.509 7.99 12.386 3.152 22.772 5.878 45.614 8.58 68.441.481 4.027 2.364 9.621-4.278 10.133-5.918.457-6.304-4.727-6.84-9.132-2.363-18.91-4.727-37.821-11.598-57.804-5.57 18.044-11.189 36.08-16.697 54.148-1.37 4.5.197 11.622-6.13 12.087-7.69.56-7.162-7.17-8.47-12.268-3.412-13.238-6.461-26.57-9.873-39.807-.851-3.318-.607-8.313-5.595-8.258-5.35.063-4.27 5.153-4.727 8.462-2.104 14.767-4.011 29.564-5.902 44.362-.591 4.594-1.481 9.337-7.486 8.076-5.13-1.071-3.53-5.862-3.096-9.258 3.065-24.048 6.39-48.065 9.455-72.105.686-5.35 1.576-9.566 8.573-9.566 6.572 0 8.352 3.94 9.668 9.125 4.87 19.1 9.834 38.176 16.027 62.224z"></path><path fill="#2B2A2A" d="M141.517 346.243c0-19.841.221-39.69-.11-59.522-.142-8.013 1.064-12.37 10.96-12.434 10.41-.063 10.504 5.185 10.464 12.733-.189 35.954-.04 71.916-.118 107.878 0 11.473-.213 22.85 13.781 27.113 7.675 2.364 5.76 8.936 5.311 14.026-.701 8.053-7.265 4.909-11.583 4.491-17.177-1.686-27.397-12.166-28.232-31.069-.922-21.03-.213-42.139-.213-63.216h-.26zm350.653 50.594c0-20.266-.434-40.548.299-60.79.189-5.343.102-13.569 9.274-13.514 5.61 0 12.505-2.56 13.253 7.92.591 8.194 5.153 1.575 6.808.07 8.29-7.556 17.815-11.386 28.95-10.078 4.293.504 12.22-1.875 11.275 5.437-.702 5.46-1.19 13.718-11.355 14.128-28.303 1.142-35.835 9.526-36 38.396-.095 16.776-.466 33.575.133 50.327.355 9.762-4.326 11.433-12.489 10.984-7.65-.426-10.763-2.238-9.321-11.26 1.639-10.299.378-21.062.378-31.62h-1.206zm-263.151-15.074c0 15.475-.268 30.959.102 46.434.174 7.422-1.41 11.449-10.07 11.559-9.156.126-11.622-3.593-11.488-12.166.386-24.757.071-49.522.102-74.287 0-6.832 1.3-13.987-9.55-13.6-7.706.275-5.933-6.154-6.303-10.835-.473-6.58 4.129-6.098 8.573-6.618 27.263-3.223 28.563-2.191 28.61 24.221.037 11.767.045 23.53.024 35.292z"></path><path fill="#C13C37" d="M492.366 517.51c-1.103 29.304-20.06 46.403-50.854 45.859-16.94-.3-33.716-24.978-32.715-48.128 1.197-27.76 18.973-46.67 43.384-46.158 24.655.513 41.225 20.487 40.185 48.428zm-11.819-1.087c.323-21.164-12.78-38.38-29.406-38.61-16.957-.283-30.005 15.705-30.612 37.539-.606 21.834 12.442 40.106 28.91 40.295 16.468.19 30.793-17.87 31.132-39.224h-.024z"></path><path fill="#2B2A2A" d="M693.852 381.976c0 15.562-.236 31.132.118 46.686.181 7.737-2.167 11.118-10.535 11.244-8.549.134-10.393-3.522-10.597-11.102-.662-25.435 1.654-50.878-1.222-76.368-.638-5.713 0-10.401-4.633-14.498-3.94-3.42-7.761-9.7-4.334-12.907 6.745-6.304 16.327-1.78 24.679-2.364 6.043-.402 6.571 4.097 6.548 8.857-.11 16.846-.032 33.653-.024 50.452z"></path><path fill="#C13C37" d="M573.312 561.998c-5.902-.788-5.319-4.413-4.018-8.242 8.58-25.214 17.224-50.428 25.757-75.643 1.576-4.586 4.169-7.241 9.306-7.47 6.351-.275 8.423 3.64 10.125 8.747 7.218 21.763 14.885 43.337 21.78 65.226 1.685 5.334 8.666 13.34 1.764 16.405-9.164 4.082-10.306-6.493-11.677-12.52-2.86-12.608-9.968-15.886-22.543-16.17-13.396-.299-19.116 5.264-22.063 16.91-1.269 5.145-1.592 11.394-8.431 12.757zm31.628-36.718c4.184-1.41 13.253 1.229 10.669-7.446-2.584-8.676-1.347-24.143-11.898-23.789-9.455.316-9.408 15.657-11.22 24.632-1.765 8.707 7.265 5.247 12.45 6.603zm64.848 38.31c-1.197-.197-5.783-.166-9.59-1.86-2.741-1.213-8.667-1.497-6.83-6.768 1.489-4.287 5.893-4.255 9.203-1.9 6.855 4.886 14.577 4.31 21.211 1.679 6.099-2.419 11.402-7.682 11.748-15.436.347-7.753-3.798-12.954-10.188-16.42-6.516-3.539-13.789-5.887-19.848-10.04-12.528-8.588-14.553-22.85-5.65-33.802 7.517-9.258 31.66-13.734 39.571-7.17 1.26 1.04 2.521 3.151 2.364 4.593-.268 2.57-2.128 4.31-5.17 3.853-4.278-.638-8.58-1.875-12.843-1.757-7.722.205-15.191 2.073-17.271 10.969-2.05 8.754 2.986 14.01 10.337 17.555 2.798 1.347 5.61 2.655 8.47 3.869 14.31 6.043 24.955 14.75 21.118 32.306-2.955 13.568-15.286 20.683-36.632 20.329zm-164.082-46.166c0-11.772-.086-23.536.048-35.308.047-4.578-2.01-11.197 5.862-10.905 7.62.283 5.468 7.044 5.515 11.472.205 17.335.914 34.757-.362 52.005-1.103 14.75 3.83 19.888 18.572 18.635 6.303-.536 19.084-4.271 18.824 3.561-.378 11.22-12.915 4.602-19.699 4.807-28.586.882-28.602.386-28.673-27.578v-16.72l-.087.03z"></path><path fill="#2B2A2A" d="M232.068 289.889c-.425 7.84-4.05 13.576-11.819 14.001-7.493.418-12.907-3.75-13.285-11.976-.354-7.817 3.089-12.907 11.496-13.395 8.148-.505 12.355 3.797 13.608 11.37zm451.604-11.583c8.084.173 12.97 4.318 13.395 12.363.37 7.24-4.01 12.008-10.968 12.725-7.785.788-13.766-3.238-14.428-11.26-.654-7.753 3.72-12.86 12-13.828z"></path></g></svg>