<svg xmlns="http://www.w3.org/2000/svg" viewBox="-0.0005660057067871094 0.00001239776611328125 329.49835205078125 163.90794372558594"><path d="M6.9 1.6C-.2 4.6 0 2.7 0 60.9c0 50.1.1 52.2 2.1 57.6 1.1 3 3.5 7.6 5.3 10.2 3.6 5.2 13.3 12.5 19.3 14.4 2.5.8 13.2 1.4 30.5 1.6 22.9.4 27 .2 29.7-1.1 8.8-4.6 8.4-17.5-.6-21.2-2.4-1-8.9-1.4-25.3-1.4-16.3 0-22.9-.4-25.3-1.4-4.3-1.7-9.3-7.6-10.6-12.3-.7-2.4-1.1-21.3-1.1-51.4 0-47.3 0-47.6-2.2-50.4-2.1-2.7-7.4-5.6-10-5.4-.7 0-2.9.7-4.9 1.5zm124.5.3c-7.7 3.5-7.5 1.8-7.2 72.8.3 61.3.3 62.2 2.4 65 2.5 3.4 9 5.9 12.7 4.9 1.5-.3 4.2-1.9 6-3.5l3.2-2.9.3-64.4c.2-63.1.2-64.4-1.8-67.6-1.9-3.1-7.1-6.2-10.2-6.2-.7 0-3.2.9-5.4 1.9zm116.1-.5c-25.4 5-45.5 22.9-54.1 48.1C189.5 61 188.8 79 192 91c6.7 26 26 45.7 50.8 52.1 13.4 3.4 21.5 2.1 24.7-4.1 3-5.9 1-13.5-4.4-16-1.4-.7-5-1.5-7.9-1.7-10.3-.8-18.9-5.2-26.9-13.5-9-9.6-13.3-20.8-13.3-34.7 0-17.4 6.6-31.4 19.1-40.6 12.5-9.2 29.6-11.1 43.1-4.8 30.9 14.5 37.2 57.2 12 82-6.9 6.9-8.9 11.4-7.1 16.2 1.6 4 27.6 35.6 30.4 36.9 5.6 2.5 13 .6 15.2-4 3.5-7 2.5-9.6-8.5-23.4-4.5-5.6-8.2-10.9-8.2-11.8 0-.9 1.8-3.9 4-6.7 4.9-6.3 10.3-17.2 12.6-25.9 2.4-9 2.4-28.3.1-36.5-7.5-25.7-25-44-48.9-51.4-8.9-2.7-22.4-3.4-31.3-1.7z"></path></svg>