<svg xmlns="http://www.w3.org/2000/svg" viewBox="0.4159049987792969 -0.03945159912109375 635.5280151367188 428.50732421875"><g fill="#EFC544"><path d="M606.4 322.817c-11.252 16.974-23.384 33.26-38.361 47.292-28.476 26.673-61.59 44.706-99.676 53.063-47.09 10.33-92.696 5.548-136.816-14.346-28.144-12.666-51.358-31.854-72.349-54.05a225.338 225.338 0 01-37.988-63.392c-2.215-5.585-2.555-7.428 4.85-8.253 13.683-1.511 22.712 2.045 26.09 16.166.51 2.142 2.28 3.968 3.46 5.94a3.071 3.071 0 001.616 2.902l.04.09a5.545 5.545 0 002.781 4.808l.048.09c.97 4.283 4.244 7.169 6.515 10.668l9.029 11.041c1.236 1.617 2.376 3.363 3.734 4.899 57.017 64.918 150.83 82.84 227.762 43.509 27.579-14.064 50.832-33.26 68.162-59.206 11.105-15.018 18.824-31.523 25.056-49.24 12.124-34.133 14.274-68.703 5.383-103.394-19.018-74.28-66.068-123.124-140.348-141.108-73.455-17.782-136.678 4.365-187.608 60.386-13.457 14.84-23.536 31.991-31.24 50.452-1.519 3.621-3.168 5.375-7.274 5.076a99.417 99.417 0 00-14.718-.056c-5.165.372-6.466-1.1-4.421-6.038 4.93-11.946 10.062-23.78 16.755-34.86 82.145-136.049 273.05-140.64 361.176-11.559 40.81 59.764 47.841 124.821 24.991 193.355-3.338 10.006-9.117 18.88-12.277 28.911-1.148-.153-1.463.607-1.617 1.512a474.21 474.21 0 00-2.756 5.342z"></path><path d="M354.85 271.25c-2.895-11.688-.914-23.505-.81-35.257 0-5.658.81-11.316-.21-17.402-3.669 9.538-7.492 19.019-10.935 28.645-1.69 4.728-3.363 8.333-9.619 7.234-6.03-1.059-13.247 2.506-15.971-7.274s-7.21-19.051-11.68-28.42c.922 14.68 1.172 29.252 1.374 43.841.097 6.467-1.107 8.956-8.349 8.778-20.296-.509-20.312-.137-20.296-20.101 0-28.427.178-56.854-.048-85.273-.049-5.415 1.495-7.371 6.951-6.935a122.8 122.8 0 0016.27 0c5.004-.259 6.79 2.166 8.536 6.636 6.005 15.438 12.706 30.601 19.786 47.389 5.214-11.655 9.805-21.88 14.355-32.113 2.797-6.28 5.73-12.512 8.26-18.889 1.464-3.702 4.543-2.643 7.138-3.233a79.057 79.057 0 0020.118-.073c2.877.849 2.166 3.355 2.497 5.383-.153 2.821-.444 5.658-.46 8.463-.178 32.794-.332 65.591-.461 98.39-.501.098-1.003.219-1.496.365h-20.23l-4.72-.154zm-178.92-32.703l-.242-21.823a16394.6 16394.6 0 001.22-30.803l1.52-4.72a20.255 20.255 0 004.631-7.687c17.055-19.528 50.921-19.876 68.946-7.946 8.438 5.594 14.63 13.086 15.68 22.834 1.932 17.952 2.28 36.178-.065 54.09-1.818 13.966-12.188 21.83-24.74 26.503-19.94 7.46-52.425 5.035-64.662-20.296-.938-1.924-.978-3.79-1.714-5.585l-.574-4.567zm64.201-22.72c0-6.2-.13-12.4 0-18.59.162-6.022-2.813-9.7-8.083-11.858a25.056 25.056 0 00-19.624-.073c-4.85 2.013-8.14 5.392-8.123 11.114.048 12.399.097 24.806.056 37.18 0 5.077 2.724 8.245 6.992 10.193a26.075 26.075 0 0018.13 1.342c7.193-1.932 11.08-6.014 10.668-13.822-.242-5.116-.016-10.29-.016-15.486zM.455 268.477c14.306-33.446 24.563-68.355 36.825-102.545 1.915-5.35 4.356-6.975 9.885-6.91 18.258.218 18.323-.041 24.482 16.973 11.154 30.771 22.187 61.59 33.422 92.329.744 2.045.493 2.708-1.382 3.144-4.812-.6-14.517-.88-29.114-.84-1.616-4.446-4.316-8.819-4.664-13.361-.493-6.523-3.184-8.544-9.238-7.865a73.406 73.406 0 01-9.239.057c-14.928-.162-14.928-.17-17.838 15.026-.093.688-.538 3.016-1.334 6.983l-4.502-.04h-3.136c-7.224-.801-25.153-.574-24.167-2.95zm53.394-75.662l-1.463-.113-6.96 27.481c-.694 2.765 1.197 2.95 3.088 2.999 2.838.065 5.658-.057 8.512.089 3.346.17 3.855-1.358 3.128-4.252-2.183-8.729-4.22-17.474-6.305-26.204zm120.611-7.032l-11.842.275c-5.852-.218-11.776-1.778-17.483.922-.121 1.155-.25 2.303-.38 3.45l-.048 1.577c0 22.222.021 44.444.064 66.666a20.4 20.4 0 000 9.295c-.299 1.471-.67 2.894-2.327 3.46l-4.696-.065c-.768-.057-1.544-.097-2.312-.186-6.32-.695-14.735 2.958-18.42-1.616-3.088-3.807-1.084-11.834-1.108-18-.056-18.858-.388-37.73.202-56.58.243-7.557-1.907-10.394-9.368-9.198-2.53.404-5.156.186-7.735.259h-4.655c-5.974.614-9.158-1.326-8.083-8.083.46-3.007-.057-6.167-.13-9.254.151-3.11.308-6.224.47-9.344l88.384-.558c-.137 16.837-.315 25.83-.534 26.98zm247.152 85.434c-8.519-.986-14.185-6.425-19.398-12.487-1.1-1.277-3.347-2.821-1.892-4.47 2.078-2.36 3.702.242 4.971 1.617 8.083 8.688 18.324 12.204 29.785 12.803 14.395.735 27.65-6.467 32.145-17.12 4.672-11.138 1.285-21.637-9.077-28.095-8.083-5.036-17.386-6.28-26.358-8.592-10.297-2.66-20.311-5.658-27.44-14.549-10.047-12.552-2.142-30.245 6.183-35.944 16.375-11.202 42.838-8.495 56.716 5.117 1.778 1.745 3.451 3.136 2.199 5.714-.461.946-.873 2.005-2.837 1.512-2.425-.599-4.228.04-5.068-3.686-.93-4.155-4.55-7.04-9.029-8.6-11.17-3.904-22.292-4.147-33.308.137-9.271 3.605-14.371 10.508-15.002 20.611-.598 9.538 4.526 15.495 12.221 19.835 8.47 4.769 18.033 6.119 27.28 8.414 6.554 1.617 12.932 3.823 18.444 7.711 16.602 11.64 15.187 35.685-2.683 45.417-5.505 2.99-10.726 7.105-17.661 6.07l-9.303.234-8.48-1.35-2.408-.299zm164.782 1.569a12.302 12.302 0 01-6.126-8.891c-1.876-10.015-6.798-18.89-9.66-28.484-1.13-3.79-3.345-4.567-6.853-4.534-13.426.137-26.86.226-40.285 0-4.17-.073-5.884 1.705-7.185 5.318-3.799 10.58-7.84 21.072-11.922 31.523-.744 1.9-1.05 5.464-4.203 4.041-2.797-1.277-.113-3.63.493-5.278a22240.081 22240.081 0 0137.431-100.864c.994-2.651.768-6.53 5.238-6.588 4.712-.056 4.938 3.888 6.045 6.855a37257.48 37257.48 0 0136.672 98.665c.889 2.417 2.101 4.834.355 8.237zm-42.717-110.418l-22.324 59.925c-1.261 3.37-.073 4.72 3.475 4.704 12.617-.065 25.25-.08 37.868 0 3.726 0 4.405-1.26 3.152-4.623-7.193-19.189-14.25-38.482-22.17-60.006zm-22.753-6.014c3.428 3.233.978 5.504.162 7.582a21874.832 21874.832 0 01-41.48 104.978c-.671 1.673-.582 5.512-3.775 4.041-2.7-1.22-.808-3.338.154-5.658 9.076-21.912 17.685-44.026 26.535-66.043 5.99-14.84 12.157-29.656 18.404-44.9zM373.504 271.38h1.616-1.616zm4.696.04h1.617c-.574.654-1.1.662-1.617 0zm43.412-.203l2.385.267-2.385-.267z"></path><path d="M144.699 192.007l.048-1.576c.16.363.286.738.38 1.123.04.13-.25.3-.428.453zm464.424 125.468c.186-.905.501-1.665 1.616-1.512l-1.616 1.512z"></path></g></svg>