<svg xmlns="http://www.w3.org/2000/svg" viewBox="0.9370002150535583 0.8930000066757202 1296.725830078125 351.974609375"><g fill="none"><path fill="#000" d="M397.862907 197.806701C401.562907 219.706701 401.062907 241.406701 393.462907 262.606701 384.462907 287.606701 364.562907 302.306701 337.962907 303.706701 325.462907 304.406701 313.162907 303.306701 301.362907 298.606701 292.562907 295.106701 284.962907 289.906701 278.662907 282.506701 277.262907 284.406701 277.862907 286.206701 277.862907 287.806701 277.762907 307.506701 277.662907 327.106701 277.962907 346.806701 278.062907 351.306701 276.562907 352.206701 272.562907 351.906701 267.862907 351.606701 263.162907 351.506701 258.562907 351.906701 253.962907 352.306701 252.562907 351.006701 252.662907 346.206701 252.862907 294.106701 252.762907 242.106701 252.762907 190.006701 252.762907 176.906701 252.862907 163.906701 252.662907 150.806701 252.662907 147.706701 253.462907 146.506701 256.762907 146.706701 262.362907 146.906701 268.062907 147.006701 273.662907 146.706701 277.062907 146.506701 277.862907 148.006701 277.662907 150.906701 277.462907 154.406701 277.662907 157.706701 277.662907 162.206701 291.862907 146.006701 309.262907 140.106701 328.862907 139.706701 366.162907 139.006701 391.562907 160.206701 397.862907 197.806701zM330.362907 162.006701C326.462907 161.806701 322.562907 162.206701 318.762907 162.706701 298.462907 165.406701 283.262907 178.806701 279.162907 197.806701 277.903648 203.732627 277.906391 209.713422 277.951811 215.667799L277.965498 217.453238C277.975939 218.940308 277.981426 220.425219 277.962907 221.906701 277.962907 226.606701 277.862907 231.306701 277.962907 235.906701 278.362907 248.806701 282.462907 260.206701 292.462907 269.006701 305.562907 280.506701 321.162907 283.006701 337.762907 280.906701 354.162907 278.806701 364.862907 269.406701 369.862907 253.906701 375.762907 235.306701 375.762907 216.106701 371.762907 197.106701 366.962907 174.106701 353.662907 163.206701 330.362907 162.006701zM710.362907 144.706701C729.862907 151.006701 740.462907 167.106701 740.562907 189.006701 740.762907 223.706701 740.562907 258.306701 740.662907 293.006701 740.662907 296.506701 739.562907 297.406701 736.262907 297.306701 730.662907 297.106701 724.962907 297.206701 719.362907 297.306701 717.262907 297.306701 716.462907 296.706701 716.562907 294.606701 716.562907 290.406701 716.462907 286.306701 716.462907 280.906701 693.862907 302.806701 667.962907 307.506701 639.662907 301.706701 618.762907 297.406701 606.662907 283.106701 604.662907 262.106701 602.662907 240.706701 611.962907 224.706701 631.462907 215.906701 638.962907 212.506701 646.962907 210.406701 655.062907 209.106701 667.234907 207.134701 679.453147 206.179981 691.686184 205.267802L696.00429 204.946035C700.322907 204.622861 704.642907 204.290701 708.962907 203.906701 715.462907 203.306701 715.562907 203.406701 715.462907 197.106701 715.462907 193.406701 715.362907 189.706701 714.962907 186.006701 713.562907 174.206701 707.462907 167.306701 695.862907 164.606701 684.162907 161.906701 672.462907 162.106701 660.862907 164.806701 646.462907 168.206701 639.262907 176.306701 637.662907 190.806701 637.262907 194.106701 636.262907 194.706701 633.362907 194.606701 627.762907 194.406701 622.062907 194.406701 616.462907 194.606701 613.662907 194.706701 612.962907 193.706701 613.062907 191.006701 613.162907 171.206701 624.262907 153.706701 643.062907 146.406701 665.162907 137.806701 687.962907 137.406701 710.362907 144.706701zM715.962907 228.606701C716.362907 224.906701 714.762907 224.406701 711.562907 224.806701 701.562907 225.906701 691.562907 226.606701 681.662907 227.606701L681.662907 227.606701 679.802995 227.784238 679.802995 227.784238 677.943607 227.959001 677.943607 227.959001 676.08527 228.134213C665.558657 229.134451 655.107907 230.311701 645.162907 234.306701 633.862907 238.906701 628.662907 247.406701 629.562907 259.406701 630.462907 271.406701 636.662907 278.906701 648.862907 281.506701 665.362907 284.906701 680.962907 281.906701 695.262907 273.006701 708.962907 264.406701 717.262907 252.706701 715.862907 236.606701 715.862907 233.406701 715.662907 230.906701 715.962907 228.606701zM102.862907 143.906701C123.062907 149.806701 135.062907 164.806701 135.362907 185.806701 135.962907 221.906701 135.562907 258.006701 135.762907 294.106701 135.762907 296.706701 134.962907 297.406701 132.462907 297.306701 126.662907 297.106701 120.862907 297.106701 115.062907 297.306701 112.262907 297.406701 111.362907 296.306701 111.462907 293.606701 111.562907 289.806701 111.462907 285.906701 111.462907 282.206701 110.062907 281.706701 109.662907 282.506701 109.162907 283.006701 86.2629072 304.206701 59.3629072 308.006701 30.3629072 300.306701 14.5629072 296.206701 4.76290722 285.106701.862907224 269.006701-.337092776 261.306701-.237092776 253.506701.862907224 245.806701 6.76290722 222.606701 24.8629072 214.506701 45.6629072 210.106701 64.4629072 206.106701 83.7629072 205.906701 102.862907 204.106701 110.374018 203.432627 110.652208 203.500391 110.662511 196.452004L110.662907 191.706701 110.662907 191.706701C110.662907 174.606701 102.862907 165.806701 85.8629072 163.706701 75.0629072 162.306701 64.2629072 162.506701 53.7629072 165.606701 40.7629072 169.406701 34.1629072 177.506701 33.0629072 191.006701 32.8629072 193.906701 32.1629072 194.806701 29.1629072 194.706701 23.1629072 194.406701 17.2629072 194.506701 11.2629072 194.706701 8.66290722 194.806701 8.16290722 194.006701 8.26290722 191.406701 9.16290722 168.306701 20.8629072 151.906701 42.8629072 144.806701 62.6629072 138.406701 82.8629072 138.106701 102.862907 143.906701zM111.362907 229.806701C112.062907 225.406701 110.562907 224.206701 106.162907 224.806701 96.5629072 226.006701 86.8629072 226.506701 77.2629072 227.506701 76.332138 227.599008 75.4001853 227.688358 74.4674589 227.776705L72.6010957 227.952646 72.6010957 227.952646 70.7333973 228.129395C60.7700736 229.080402 50.7808559 230.214393 41.2629072 233.906701 29.0629072 238.706701 23.7629072 247.206701 24.8629072 260.306701 25.8629072 271.906701 32.9629072 279.606701 45.5629072 281.806701 61.3629072 284.606701 76.3629072 281.806701 90.0629072 273.306701 103.962907 264.706701 112.662907 252.906701 111.362907 236.306701 111.362907 233.606701 111.062907 231.606701 111.362907 229.806701zM1247.76291 141.506701C1273.26291 146.406701 1287.36291 162.706701 1292.76291 187.406701 1293.26291 189.740034 1293.63945 192.135096 1293.99542 194.540446L1294.41929 197.428511C1294.56167 198.390651 1294.70735 199.351145 1294.86291 200.306701 1295.66291 201.006701 1295.96291 201.906701 1296.06291 202.806701 1296.96291 212.106701 1296.96291 221.306701 1295.96291 230.606701 1295.96291 231.506701 1295.46291 232.406701 1294.56291 233.006701 1258.06291 233.006701 1221.66291 233.106701 1185.16291 232.906701 1180.56291 232.906701 1179.66291 234.106701 1180.16291 238.506701 1182.76291 264.006701 1195.66291 277.606701 1221.06291 280.806701 1242.26291 283.406701 1262.86291 280.106701 1282.86291 273.206701 1287.86291 271.406701 1287.96291 271.506701 1287.96291 277.006701 1287.96291 280.506701 1287.56291 284.206701 1288.06291 287.606701 1288.96291 293.306701 1286.36291 295.306701 1281.26291 296.806701 1256.56291 304.006701 1231.66291 306.706701 1206.26291 301.106701 1181.86291 295.706701 1165.86291 281.206701 1159.16291 257.006701 1152.76291 233.506701 1152.66291 209.806701 1159.46291 186.406701 1167.36291 159.006701 1187.96291 142.806701 1216.46291 140.306701 1226.96291 139.406701 1237.36291 139.506701 1247.76291 141.506701zM1251.16291 166.106701C1234.56291 159.406701 1217.46291 159.506701 1201.46291 167.706701 1186.36291 175.406701 1182.16291 190.006701 1180.36291 205.606701 1180.36291 206.006701 1180.36291 206.506701 1180.26291 207.006701 1179.36291 210.306701 1180.76291 211.006701 1183.96291 211.006701 1197.96291 210.806701 1212.06291 210.906701 1226.06291 210.906701 1228.68791 210.906701 1231.31291 210.912951 1233.93791 210.922326L1249.68791 210.991076 1249.68791 210.991076 1257.56291 211.006701C1262.06291 210.906701 1268.46291 213.206701 1270.86291 210.006701 1272.60204 207.711049 1272.01829 204.10878 1271.26623 200.512824L1271.12377 199.838977 1271.12377 199.838977 1270.98052 199.1672C1270.74287 198.050368 1270.51508 196.950179 1270.36291 195.906701 1268.36291 183.106701 1264.06291 171.306701 1251.16291 166.106701zM463.062907 161.806701C467.762907 157.106701 471.562907 153.206701 476.262907 150.506701 497.462907 137.906701 519.962907 136.306701 542.762907 144.506701 560.262907 150.806701 566.862907 165.806701 569.162907 183.006701 569.762907 187.606701 569.962907 192.306701 569.962907 197.006701 570.062907 228.806701 569.962907 260.506701 570.062907 292.306701 570.062907 296.206701 569.162907 297.706701 565.062907 297.406701 559.962907 297.006701 554.762907 297.106701 549.562907 297.406701 545.962907 297.606701 544.962907 296.606701 544.962907 292.906701 545.162907 269.706701 545.162907 246.506701 544.962907 223.306701 544.862907 211.206701 545.762907 199.106701 544.262907 187.106701 542.362907 171.606701 534.362907 163.906701 518.662907 162.706701 501.862907 161.506701 486.462907 164.806701 474.362907 177.406701 466.162907 185.806701 462.962907 196.306701 462.862907 207.906701 462.762907 235.906701 462.762907 264.006701 462.962907 292.006701 462.962907 296.706701 461.562907 297.706701 457.262907 297.406701 452.462907 297.106701 447.562907 297.106701 442.762907 297.406701 438.862907 297.706701 437.562907 296.606701 437.662907 292.406701 437.862907 260.306701 437.762907 228.306701 437.762907 196.206701 437.762907 162.406701 437.862907 128.506701 437.662907 94.7067008 437.662907 90.9067008 438.562907 89.7067008 442.462907 89.9067008 447.762907 90.2067008 453.162907 90.2067008 458.462907 89.9067008 462.062907 89.7067008 463.062907 90.7067008 463.062907 94.4067008 462.862907 115.206701 462.962907 136.006701 462.962907 156.806701 463.062907 158.006701 463.062907 159.306701 463.062907 161.806701zM916.362907 147.006701C912.562907 156.906701 908.962907 166.406701 905.262907 175.806701 889.962907 215.106701 874.562907 254.306701 859.262907 293.606701 858.162907 296.506701 856.662907 297.506701 853.662907 297.406701 847.062907 297.206701 840.462907 297.106701 833.862907 297.406701 830.562907 297.506701 829.062907 296.406701 827.962907 293.306701 811.962907 251.706701 795.762907 210.206701 779.662907 168.606701 777.362907 162.606701 775.062907 156.606701 772.562907 150.706701 771.162907 147.506701 772.162907 146.806701 775.262907 146.906701 781.362907 147.106701 787.562907 147.106701 793.662907 146.906701 796.862907 146.806701 798.062907 148.006701 799.162907 150.906701 813.162907 188.306701 827.362907 225.606701 841.462907 262.906701 842.062907 264.506701 842.662907 266.106701 843.762907 268.906701 848.262907 257.206701 852.262907 246.706701 856.262907 236.106701 867.062907 207.806701 877.862907 179.606701 888.462907 151.306701 889.662907 148.106701 891.162907 146.806701 894.662907 147.006701 901.662907 147.206701 908.662907 147.006701 916.362907 147.006701zM1021.66291 193.006701C1021.66291 160.306701 1021.76291 127.606701 1021.56291 94.9067008 1021.56291 90.4067008 1022.86291 89.5067008 1026.86291 89.8067008 1031.36291 90.2067008 1035.86291 89.8067008 1040.36291 89.9067008 1047.66291 90.0067008 1046.66291 88.9067008 1046.66291 96.4067008 1046.66291 158.606701 1046.66291 220.806701 1046.66291 283.006701 1046.66291 286.406701 1046.46291 289.806701 1046.66291 293.106701 1046.86291 296.106701 1046.06291 297.406701 1042.66291 297.306701 1036.86291 297.006701 1031.06291 297.006701 1025.26291 297.306701 1022.26291 297.406701 1021.46291 296.506701 1021.56291 293.506701 1021.66291 276.606701 1021.66291 259.706701 1021.66291 242.806701 1021.66291 226.206701 1021.66291 209.606701 1021.66291 193.006701zM1116.66291 193.606701C1116.66291 226.506701 1116.56291 259.306701 1116.76291 292.206701 1116.76291 296.606701 1115.46291 297.706701 1111.36291 297.406701 1105.86291 297.006701 1100.36291 297.206701 1094.96291 297.406701 1092.46291 297.506701 1091.26291 296.706701 1091.56291 294.106701 1091.66291 293.306701 1091.56291 292.506701 1091.56291 291.706701 1091.56291 226.306701 1091.56291 160.906701 1091.46291 95.5067008 1091.46291 91.3067008 1092.26291 89.5067008 1096.86291 89.9067008 1101.66291 90.3067008 1106.56291 90.3067008 1111.36291 89.9067008 1115.46291 89.6067008 1116.76291 90.7067008 1116.76291 95.1067008 1116.56291 127.906701 1116.66291 160.706701 1116.66291 193.606701zM205.762907 193.506701C205.762907 226.506701 205.662907 259.506701 205.862907 292.606701 205.862907 296.406701 204.862907 297.606701 201.062907 297.406701 195.962907 297.106701 190.762907 297.006701 185.562907 297.406701 181.362907 297.706701 180.662907 296.106701 180.662907 292.206701 180.762907 242.406701 180.762907 192.606701 180.762907 142.906701 180.762907 126.606701 180.862907 110.406701 180.662907 94.1067008 180.662907 90.6067008 181.662907 89.7067008 184.962907 89.9067008 190.462907 90.2067008 195.962907 90.3067008 201.362907 89.9067008 205.162907 89.6067008 205.762907 91.0067008 205.762907 94.5067008 205.762907 127.406701 205.762907 160.506701 205.762907 193.506701zM951.662907 222.106701C951.662907 198.606701 951.762907 175.006701 951.562907 151.506701 951.562907 147.906701 952.362907 146.706701 956.062907 146.906701 961.162907 147.206701 966.462907 147.306701 971.562907 146.906701 975.862907 146.506701 976.462907 148.306701 976.462907 152.106701 976.262907 178.206701 976.362907 204.306701 976.362907 230.506701 976.362907 251.306701 976.262907 272.106701 976.462907 292.906701 976.462907 296.406701 975.762907 297.706701 971.962907 297.506701 966.662907 297.106701 961.262907 297.106701 955.962907 297.506701 952.062907 297.806701 951.562907 296.306701 951.562907 292.806701 951.662907 269.206701 951.662907 245.606701 951.662907 222.106701zM951.362907 61.8067008C951.362907 42.6067008 951.462907 23.4067008 951.262907 4.30670076 951.262907.906700763 952.062907-.0932992367 955.562907.00670076328 962.662907.306700763 969.762907.106700763 976.862907.206700763 976.862907 19.6067008 976.862907 39.1067008 976.962907 58.5067008 976.962907 61.2067008 976.362907 62.2067008 973.562907 62.1067008 966.162907 61.8067008 958.762907 61.9067008 951.362907 61.8067008zM437.962907.206700763C445.162907.206700763 452.462907.206700763 459.662907.106700763 462.062907.106700763 463.062907.506700763 463.062907 3.20670076 462.862907 22.8067008 462.862907 42.4067008 462.762907 62.0067008 455.862907 62.0067008 448.862907 61.9067008 441.962907 62.1067008 438.962907 62.2067008 437.762907 61.7067008 437.862907 58.2067008 438.062907 38.8067008 437.962907 19.5067008 437.962907.206700763zM181.162907 62.0067008C181.062907 44.3067008 180.962907 26.6067008 180.862907 8.90670076 180.862907.106700763 180.862907.106700763 189.462907.106700763 193.962907.106700763 198.462907.106700763 202.962907.106700763 204.462907.106700763 205.762907.00670076328 205.762907 2.20670076 205.462907 22.1067008 206.262907 42.1067008 205.362907 62.0067008 197.262907 62.0067008 189.162907 62.0067008 181.162907 62.0067008z" transform="translate(.937 .893)"></path><path fill="#010101" d="M976.962907,106.906701 C976.962907,111.306701 976.862907,115.606701 976.962907,120.006701 C977.062907,122.506701 976.362907,123.406701 973.762907,123.406701 C967.262907,123.306701 960.862907,123.306701 954.362907,123.406701 C952.062907,123.406701 951.262907,122.606701 951.262907,120.306701 C951.362907,111.106701 951.362907,101.906701 951.262907,92.7067008 C951.262907,90.7067008 951.862907,89.8067008 954.062907,89.9067008 C960.662907,90.0067008 967.262907,90.0067008 973.862907,89.9067008 C976.162907,89.9067008 976.962907,90.6067008 976.862907,92.9067008 C976.862907,97.6067008 976.962907,102.306701 976.962907,106.906701 Z" transform="translate(.937 .893)"></path></g></svg>