<svg xmlns="http://www.w3.org/2000/svg" viewBox="135 80 329.9530029296875 90.99700927734375"><g fill="none" fill-rule="evenodd"><path fill="#5359A3" d="M432.224 92.114h5.13v-3.909h-5.13z"></path><path fill="#912582" d="M413.302 147.236h15.771v-16.418h-15.77z"></path><path fill="#6281C0" d="M423.554 157.4h10.25v-6.255h-10.25z"></path><path fill="#E63F16" d="M417.64 166h12.222v-12.118h-12.223z"></path><path fill="#D1191C" d="M433.016 147.627h10.646v-4.69h-10.646z"></path><path fill="#F4A000" d="M429.073 137.073h11.04v-2.737h-11.04z"></path><path fill="#7298CF" d="M443.662 144.887h7.495v-1.95h-7.495z"></path><path fill="#3169B0" d="M429.073 134.727h10.256v-13.29h-10.256z"></path><path fill="#81CCE2" d="M408.965 130.818h20.108v-19.545h-20.108z"></path><path fill="#9AC21C" d="M397.137 122.218h13.401v-10.945h-13.401z"></path><path fill="#5359A3" d="M414.485 111.664h22.872V92.9h-22.872z"></path><path fill="#219BD6" d="M439.325 133.945h16.555v-20.327h-16.555z"></path><path fill="#F4A000" d="M436.959 142.545h14.198v-17.59h-14.198z"></path><path fill="#D1191C" d="M429.073 147.24h10.646v-10.167h-10.646z"></path><path fill="#0696A6" d="M422.765 151.145h13.8v-7.427h-13.8z"></path><path fill="#B4C7E6" d="M451.157 140.982h2.756v-8.987h-2.756z"></path><path fill="#3FB7B0" d="M456.279 117.527h7.487v-4.69h-7.487z"></path><path fill="#B1194F" d="M455.49 120.655h5.52v-3.128h-5.52z"></path><path fill="#80C397" d="M429.073 121.436h10.256v-17.981h-10.256z"></path><path fill="#EBDF00" d="M439.325 113.618h13.8v-17.59h-13.8z"></path><path fill="#32B9D2" d="M437.353 109.318h10.252V92.9h-10.252z"></path><path fill="#77AEDD" d="M451.157 113.614h13.796v-4.69h-13.796z"></path><path fill="#E04490" d="M453.519 108.927h6.702V98.373h-6.702z"></path><path fill="#623A8D" d="M457.856 105.8h6.308v-4.3h-6.308z"></path><path fill="#FDD900" d="M456.279 110.1h8.674v-4.304h-8.674z"></path><path fill="#5359A3" d="M432.228 92.118h5.13v-4.3h-5.13zm-17.743 6.646h9.463V88.209h-9.463z"></path><path fill="#1DB5E7" d="M385.308 111.664h29.173V88.209h-29.173z"></path><path fill="#34A636" d="M400.291 93.29h10.247V80h-10.247z"></path><path fill="#EAB900" d="M379.394 116.745h18.926v-7.427h-18.926z"></path><path fill="#C3D000" d="M423.948 92.9h7.491V81.169h-7.491z"></path><path fill="#9AC21C" d="M433.805 128.082h3.154v-3.127h-3.154z"></path><path fill="#3169B0" d="M327.83 111.948h-18.458v30.517c0 10.305-6.284 12.679-10.211 12.679-5.891 0-9.033-2.77-9.033-10.301v-33.292H271.67v34.877c0 15.06 4.713 24.569 21.207 24.569 6.677 0 13.746-3.563 17.28-9.508h.393v7.926h18.065v-57.467h-.785z"></path><path fill="#011E41" d="M174.273 112.342l9.033 27.743h-17.673l8.64-27.743zM135 169.414h20.815l5.105-14.268h27.099l4.712 14.268h21.208l-29.062-78.87h-20.815L135 169.414zm80.117 0h54.196v-14.268h-30.24l28.276-28.536v-14.268h-49.876v14.268h25.92l-28.276 28.536v14.268zm117.032 0h18.459v-78.87h-18.459v78.87z"></path></g></svg>