<svg xmlns="http://www.w3.org/2000/svg" xmlns:xlink="http://www.w3.org/1999/xlink" viewBox="110 32.62300109863281 377.6619873046875 169.3769989013672"><defs><path id="fna84cf6ec2dma" d="M.275.625H29.11v37.899H.275z"></path><path id="fna84cf6ec2dmc" d="M.296.812h26.369v26.676H.295z"></path></defs><g fill="none" fill-rule="evenodd"><path fill="#004384" d="M219.629 121.009c3.632-4.753 5.814-10.665 5.814-17.093 0-15.568-12.664-28.235-28.228-28.235h-51.597v95.391h56.138c15.567 0 28.229-12.665 28.229-28.232 0-8.789-4.038-16.649-10.356-21.831zM169.037 93.23h23.546c5.895 0 10.69 4.792 10.69 10.686 0 5.897-4.795 10.689-10.69 10.689h-23.546V93.23zm25.66 60.298h-25.66v-21.38h25.66c5.892 0 10.682 4.798 10.682 10.692 0 5.893-4.79 10.688-10.683 10.688z"></path><g transform="translate(277.076 32)"><mask id="fna84cf6ec2dmb" fill="#fff"><use xlink:href="#fna84cf6ec2dma"></use></mask><path fill="#004384" d="M29.11 26.664c0 3.465-1.32 6.308-3.974 8.53-2.654 2.216-6.058 3.33-10.206 3.33-3.897 0-7.192-1.03-9.876-3.09C2.379 33.387.786 30.588.275 27.042h10.512c.793 2.048 2.198 3.087 4.254 3.087 1.26 0 2.293-.333 3.116-1 .804-.67 1.212-1.546 1.212-2.627 0-1.048-.396-1.886-1.188-2.52-.796-.633-1.897-.948-3.308-.948H11.31v-7.359h3.296c1.335 0 2.4-.297 3.193-.895.793-.594 1.19-1.38 1.19-2.353 0-1.084-.367-1.952-1.109-2.6-.738-.652-1.74-.976-3.007-.976-1.261 0-2.297.432-3.11 1.303-.483.52-.838 1.213-1.09 2.047H.644c.577-3.639 2.138-6.482 4.68-8.52C7.867 1.64 11.034.623 14.822.623c4.004 0 7.3 1.08 9.875 3.249 2.579 2.164 3.873 4.924 3.873 8.28 0 3.069-1.261 5.417-3.783 7.038 2.885 1.627 4.323 4.113 4.323 7.473" mask="url(#fna84cf6ec2dmb)"></path></g><path fill="#004384" d="M110 47v155h36v-11.7h-24.332V58.655H146V47zm119 0v11.658h24.329v131.645H229V202h36V47zm122.473 110.81c1.663.18 2.998.827 4.013 1.94 1.008 1.113 1.514 2.535 1.514 4.271 0 2.066-.703 3.745-2.11 5.04-1.406 1.298-3.313 1.939-5.725 1.939H337v-26h11.438c2.412 0 4.285.608 5.644 1.824 1.362 1.216 2.038 2.835 2.038 4.852 0 1.606-.452 2.965-1.347 4.075-.897 1.113-1.993 1.77-3.3 1.978v.082zm-12.519-.74h9.909c1.613 0 2.915-.487 3.917-1.473 1-.987 1.494-2.266 1.494-3.84 0-1.527-.53-2.752-1.595-3.668-1.06-.92-2.526-1.38-4.394-1.38h-9.33v10.36zm10.062 12.227c1.813 0 3.274-.5 4.375-1.497 1.104-.996 1.649-2.293 1.649-3.9 0-1.6-.557-2.867-1.664-3.805-1.113-.926-2.586-1.392-4.396-1.392h-10.026v10.594h10.062zM382.941 171l-3.133-7.1H365.23l-3.169 7.1H360l11.64-26h1.72L385 171h-2.059zm-10.417-23.516l-6.496 14.632h12.985l-6.49-14.632zM408 171h-18v-26h2.02v24.218H408zm19.097-2.078c1.809-1.184 3.096-2.788 3.87-4.822l1.887.465c-.873 2.443-2.388 4.375-4.548 5.805-2.151 1.424-4.663 2.14-7.54 2.14-3.72 0-6.86-1.296-9.43-3.88-2.566-2.58-3.85-5.735-3.85-9.464 0-3.72 1.284-6.877 3.85-9.46 2.57-2.582 5.71-3.87 9.43-3.87 2.877 0 5.389.705 7.54 2.118 2.16 1.415 3.675 3.316 4.548 5.702l-1.848.58c-.74-2.028-2.028-3.639-3.846-4.816-1.828-1.184-3.955-1.773-6.394-1.773-3.184 0-5.872 1.112-8.062 3.332-2.197 2.223-3.295 4.954-3.295 8.187 0 3.242 1.098 5.976 3.295 8.196 2.19 2.22 4.878 3.335 8.062 3.335 2.41 0 4.521-.592 6.33-1.775m30.889 3.155l-3.159-7.051H440.13l-3.201 7.051h-2.08l11.741-25.823h1.731l11.74 25.823h-2.076zm-10.507-23.35l-6.547 14.526h13.094l-6.547-14.526zm-3.477-7.962c-.3.345-.453.814-.453 1.403h-1.42c0-1.103.285-1.944.846-2.524.568-.577 1.273-.865 2.119-.865.768 0 1.611.342 2.52 1.018.912.685 1.65 1.028 2.211 1.028.486 0 .865-.186 1.138-.544.27-.36.402-.847.402-1.463h1.464c0 1.13-.28 1.983-.828 2.563-.55.577-1.245.868-2.095.868-.77 0-1.61-.337-2.523-1.004-.912-.67-1.638-1.003-2.175-1.003-.513 0-.915.174-1.206.523z"></path><g transform="translate(460.996 145.02)"><mask id="fna84cf6ec2dmd" fill="#fff"><use xlink:href="#fna84cf6ec2dmc"></use></mask><path fill="#004384" d="M22.856 4.684c2.544 2.584 3.81 5.742 3.81 9.461 0 3.756-1.266 6.914-3.81 9.485-2.538 2.57-5.662 3.858-9.358 3.858-3.715 0-6.847-1.289-9.389-3.858C1.568 21.06.296 17.9.296 14.145c0-3.72 1.278-6.877 3.84-9.46C6.681 2.102 9.807.811 13.498.811c3.696 0 6.82 1.291 9.358 3.872m-1.368 17.679c2.172-2.218 3.255-4.952 3.255-8.218 0-3.232-1.083-5.967-3.255-8.187-2.167-2.22-4.828-3.332-7.99-3.332-3.18 0-5.851 1.112-8.023 3.332-2.173 2.22-3.253 4.955-3.253 8.187 0 3.266 1.08 6 3.253 8.218 2.172 2.205 4.842 3.31 8.023 3.31 3.162 0 5.823-1.105 7.99-3.31" mask="url(#fna84cf6ec2dmd)"></path></g><path fill="#004384" d="M352.178 124.126c1.485.178 2.727.814 3.714 1.908.987 1.094 1.485 2.497 1.485 4.221 0 2.107-.702 3.801-2.1 5.087-1.401 1.283-3.366 1.926-5.908 1.926h-12.358v-25.824h11.857c2.382 0 4.26.62 5.623 1.854 1.36 1.229 2.037 2.875 2.037 4.93 0 1.569-.426 2.885-1.287 3.954-.861 1.064-1.881 1.674-3.063 1.827v.117zm-12.125-1.117h8.78c1.43 0 2.591-.424 3.48-1.271.89-.85 1.329-1.968 1.329-3.356 0-1.307-.456-2.356-1.368-3.14-.91-.784-2.137-1.175-3.67-1.175h-8.551v8.942zm9.05 11.642c1.586 0 2.856-.427 3.786-1.277.936-.844 1.407-1.974 1.407-3.386 0-1.364-.48-2.458-1.443-3.275-.963-.826-2.203-1.24-3.718-1.24h-9.082v9.178h9.05zm34.002-19.812c2.577 2.592 3.876 5.768 3.876 9.52 0 3.75-1.3 6.923-3.876 9.519-2.575 2.596-5.728 3.894-9.446 3.894-3.747 0-6.913-1.298-9.493-3.894-2.577-2.596-3.87-5.769-3.87-9.518 0-3.753 1.293-6.929 3.87-9.521 2.58-2.596 5.746-3.894 9.493-3.894 3.718 0 6.871 1.298 9.446 3.894m-2.176 17.017c1.98-2.016 2.97-4.519 2.97-7.496 0-2.96-.99-5.456-2.97-7.496-1.971-2.046-4.395-3.068-7.27-3.068-2.901 0-5.337 1.022-7.315 3.068-1.977 2.04-2.964 4.536-2.964 7.496 0 2.977.987 5.48 2.964 7.496 1.978 2.016 4.414 3.022 7.315 3.022 2.875 0 5.299-1.006 7.27-3.022M410 137h-18v-26h3.07v23.208H410zm17.333-24.062c1.726 1.295 2.808 3.027 3.242 5.198l-3.033.699c-.284-1.579-1.023-2.83-2.226-3.762-1.202-.931-2.689-1.397-4.45-1.397-1.739 0-3.147.436-4.221 1.3-1.074.865-1.613 1.996-1.613 3.396 0 1.11.326 1.972.978 2.576.656.611 1.619 1.044 2.9 1.304l5.605 1.279c4.322.931 6.485 3.184 6.485 6.75 0 2.352-.873 4.226-2.611 5.62-1.741 1.4-4.057 2.099-6.946 2.099-2.791 0-5.148-.695-7.08-2.074-1.933-1.385-3.049-3.281-3.363-5.685l3.186-.66c.284 1.815 1.1 3.212 2.459 4.21 1.358.995 3.042 1.494 5.064 1.494 1.944 0 3.473-.445 4.589-1.34 1.11-.892 1.669-2.065 1.669-3.508 0-1.191-.33-2.086-.981-2.676-.652-.595-1.717-1.061-3.204-1.403l-5.794-1.276c-4.122-.934-6.18-3.142-6.18-6.634 0-2.223.84-4.019 2.512-5.392 1.679-1.37 3.883-2.056 6.623-2.056 2.53 0 4.664.647 6.39 1.938M456.715 137l-2.897-6.595h-13.636L437.276 137H434l11.59-26h2.816L460 137h-3.285zm-9.7-22.198l-5.643 12.845h11.25l-5.607-12.845z"></path><path fill="#00BCED" d="M353.21 89.371c1.364.153 2.531.768 3.502 1.845.968 1.077 1.456 2.478 1.456 4.194 0 2.157-.714 3.876-2.139 5.157-1.43 1.284-3.496 1.93-6.192 1.93h-12.815V76.704h12.537c2.383 0 4.286.636 5.701 1.905 1.412 1.272 2.117 2.961 2.117 5.064 0 1.515-.423 2.77-1.274 3.771-.849 1.002-1.814 1.59-2.893 1.77v.156zm-11.982-1.503h7.862c1.25 0 2.27-.366 3.045-1.098.77-.729 1.155-1.686 1.155-2.868 0-1.077-.386-1.956-1.155-2.634-.775-.68-1.78-1.02-3.008-1.02h-7.899v7.62zm8.177 11.085c1.385 0 2.47-.36 3.26-1.077.784-.717 1.18-1.67 1.18-2.847 0-1.158-.399-2.085-1.201-2.793-.8-.705-1.839-1.056-3.128-1.056h-8.288v7.773h8.177zm31.319 3.543l-9.39-10.275h-3.815v10.275h-4.206V76.708h12.38c2.696 0 4.878.714 6.544 2.136 1.667 1.422 2.504 3.303 2.504 5.637 0 2.208-.76 4.011-2.27 5.41-1.505 1.397-3.515 2.162-6.027 2.288l9.507 10.317h-5.227zm-5.03-14.01c1.442 0 2.607-.366 3.501-1.098.892-.732 1.336-1.7 1.336-2.907 0-1.203-.444-2.178-1.336-2.922-.894-.747-2.059-1.119-3.502-1.119h-8.174v8.046h8.174zM408.463 103l-2.587-6.058h-12.752L390.54 103H386l11.547-26h3.912L413 103h-4.537zm-8.96-20.919l-4.738 11.062h9.476l-4.738-11.062zm31.622-4.109c1.827 1.315 2.97 3.094 3.446 5.341l-4.21.848c-.239-1.367-.907-2.47-2.007-3.309-1.101-.835-2.438-1.257-4.01-1.257-1.549 0-2.79.368-3.74 1.104-.942.735-1.414 1.682-1.414 2.843 0 .905.27 1.614.806 2.126.534.52 1.386.89 2.536 1.125l5.708 1.2c4.507.98 6.76 3.34 6.76 7.082 0 2.421-.926 4.348-2.774 5.78-1.85 1.43-4.29 2.145-7.33 2.145-2.913 0-5.378-.673-7.401-2.03-2.017-1.354-3.182-3.242-3.495-5.666l4.485-.926c.313 1.622 1.07 2.856 2.278 3.691 1.208.839 2.713 1.258 4.525 1.258 1.729 0 3.09-.365 4.068-1.1.987-.734 1.478-1.71 1.478-2.923 0-.98-.282-1.728-.85-2.244-.564-.516-1.514-.917-2.844-1.2l-5.746-1.158c-4.433-1.007-6.646-3.354-6.646-7.042 0-2.298.883-4.147 2.652-5.555C419.169 76.7 421.514 76 424.423 76c2.646 0 4.88.654 6.702 1.972M440 103h4V77h-4zm30 0h-19V77h4.302v22.234H470z"></path></g></svg>