<svg xmlns="http://www.w3.org/2000/svg" viewBox="0.5467004776000977 -0.0234375 1051.541259765625 239.41763305664062"><g fill="none"><path fill="#000" d="M.643 115.03C-2.193 56.77 58.07-1.108 120.667-.008c67.062 1.18 119.559 53.319 119.192 120.733-.36 65.797-54.518 119.383-119.986 118.662C52.373 238.65.326 184.361.643 115.03zm54.788 73.398c14.447 0 26.381.619 38.18-.402 3.284-.284 8.769-5.378 8.814-8.327.567-39.706.636-79.411-.204-119.116-.068-3.07-7.992-8.616-12.076-8.446-11.532.476-22.973 3.312-34.419 5.371-.26.046-.284 1.855-.284 2.836-.04 42.065-.011 84.147-.011 128.084zm57.29-.232c16.313 0 31.134.953 45.78-.261 15.712-1.3 25.666-12.297 26.897-26.83 1.537-18.054-5.468-33.182-19.943-35.1-17.21-2.268-34.952-.532-52.752-.532l.017 62.723zm-.5-73.79c16.642 0 31.413.465 46.15-.125 16.449-.663 26.693-12.195 27.135-29.195.51-19.597-8.605-31.73-26.189-33.074a226.82 226.82 0 00-37.141.09c-3.562.313-9.314 5.764-9.507 9.122-.964 16.767-.43 33.619-.43 53.182h-.018zm690.954-54.714c1.803-.845 2.223-1.191 2.666-1.225 27.38-2.269 27.374-2.235 37.958 22.41 5.406 12.587 10.85 25.163 17.374 40.273 7.374-17.198 14.589-31.373 19.495-46.307 4.402-13.415 11.645-19.462 25.724-16.955 3.806.675 7.77.454 12.825.704v84.09H902.41V79.721l-3.403-1.067c-7.579 17.232-14.998 34.527-22.803 51.651-2.881 6.32-3.823 13.92-14.498 13.914-10.306 0-11.968-6.642-14.94-13.34-7.613-17.125-15.315-34.21-25.316-51.085v63.07h-18.275V59.692zm-488.076-1.73c18.843 0 36.302-1.134 53.477.482 8.333.783 19.422 4.566 23.489 10.777 5.95 9.076 4.538 21.095-6.54 29.41 12.864 8.169 14.43 19.774 9.716 32.588-4.503 12.246-15.78 12.297-26.171 12.524-17.72.385-35.457.108-53.971.108V57.962zm20.369 48.4v23.064c11.1 0 21.095 1.106 30.63-.51 4.157-.704 10.141-6.915 10.21-10.778.068-3.862-5.673-10.607-9.643-11.259-9.944-1.61-20.375-.516-31.197-.516zm-.607-12.92c11.202 0 21.112 1.01 30.63-.522 3.539-.567 8.32-7.011 8.445-10.902.097-3.12-5.672-8.696-9.404-9.217-9.518-1.328-19.342-.443-29.654-.443l-.017 21.084zm227.069 49.422V59h16.115c.567.771 1.543 1.492 1.645 2.314 1.248 10.114.329 28.044 3.885 28.98 13.296 3.477 28.05 1.39 43.812 1.39V58.591h18.662v83.988h-18.236v-35.553c-14.107 0-26.864-.568-39.484.453-2.836.233-6.971 5.905-7.46 9.496-1.134 8.168-.357 16.596-.357 25.87l-18.582.018zm-36.381-.114c-11.209 1.611-20.528 3.852-24.34-9.285-.731-2.541-5.853-5.134-9.115-5.36a233.31 233.31 0 00-29.74 0c-2.88.17-7.526 2.41-8.1 4.571-3.402 12.763-12.336 12.02-24.787 10.13 5.298-13.84 10.278-26.891 15.315-39.931a4342.221 4342.221 0 0110.777-27.715c6.807-17.448 12.78-20.783 31.01-16.977 2.428.51 5.633 2.428 6.495 4.51 10.959 26.398 21.554 52.944 32.485 80.057zm-31.322-28.36l-16.898-43.864c-6.426 17.017-11.344 29.944-16.596 43.863h33.494zm196.888-55.832h67.998c2.78 9.319 1.322 14.294-9.643 13.84-12.354-.505-24.742-.114-38.36-.114v21.464c12.07 0 24.333-.408 36.534.272 3.335.187 6.483 3.659 9.722 5.627-3.375 2.416-6.614 6.654-10.148 6.914-11.77.88-23.641.335-36.41.335v22.292h48.345c.972 1.656 1.938 3.312 2.898 4.969-3.471 3.222-6.806 9.075-10.431 9.234-19.768.913-39.598.437-60.522.437l.017-85.27zm360.973 83.908c-10.947 1.634-19.41 4.413-23.75-7.94-1.134-3.171-7.254-5.917-11.378-6.405a121.708 121.708 0 00-25.264-.056c-3.812.346-9.745 2.456-10.658 5.15-4.198 12.32-12.7 11.872-24.867 9.166 10.641-27.062 19.796-54.243 32.712-79.507 2.268-4.458 27.612-4.668 29.818-.397 13.03 25.253 22.377 52.411 33.387 79.99zm-47.913-71.776c-6.325 16.524-11.345 29.66-16.642 43.478h33.38c-5.4-14.027-10.312-26.807-16.738-43.478z"></path><path fill="#F5CA47" d="M55.431 188.428v-128.1c0-.988 0-2.797.284-2.837 11.446-2.059 22.887-4.895 34.419-5.371 4.084-.17 12.008 5.377 12.076 8.446.84 39.705.777 79.41.204 119.116-.045 2.95-5.53 8.043-8.815 8.327-11.787 1.038-23.72.42-38.168.42zm57.306-.232v-62.723c17.783 0 35.525-1.742 52.752.533 14.475 1.917 21.48 17.045 19.943 35.1-1.23 14.532-11.185 25.524-26.897 26.829-14.646 1.214-29.484.26-45.798.26zm-.499-73.79c0-19.563-.533-36.415.448-53.182.193-3.358 5.945-8.81 9.507-9.121a226.82 226.82 0 0137.141-.091c17.584 1.344 26.7 13.477 26.189 33.074-.442 17.017-10.71 28.532-27.136 29.195-14.736.59-29.507.125-46.149.125z"></path><path fill="#FFF" d="M335.468 106.363c10.822 0 21.253-1.095 31.236.539 3.971.652 9.734 7.408 9.643 11.26-.09 3.85-6.08 10.05-10.21 10.776-9.54 1.617-19.535.51-30.63.51l-.04-23.085zm-.608-12.921V72.358c10.313 0 20.137-.885 29.655.443 3.72.521 9.5 6.097 9.404 9.217-.124 3.891-4.906 10.335-8.445 10.902-9.501 1.531-19.41.522-30.613.522zm159.367 20.975H460.76c5.264-13.92 10.17-26.869 16.597-43.863l16.869 43.863zm509.948-43.727c6.415 16.671 11.344 29.45 16.738 43.478h-33.38c5.292-13.818 10.317-26.954 16.642-43.478z"></path></g></svg>