<svg xmlns="http://www.w3.org/2000/svg" xmlns:xlink="http://www.w3.org/1999/xlink" viewBox="0.579998254776001 -14.090002059936523 1371.329833984375 195.989990234375"><defs><path id="fn6c79cece4dma" d="M0 0h275v168H0z"></path><path id="fn6c79cece4dmc" d="M0 0h276v168H0z"></path></defs><g fill="none" fill-rule="evenodd"><path fill="#0062AE" fill-rule="nonzero" d="M775.87 121.55c0 8.05-1.3 15-3.9 20.8-2.6 5.8-6.15 10.63-10.7 14.5-4.5 3.85-9.97 6.7-16.35 8.56-6.34 1.9-13.3 2.8-20.85 2.8h-43.52V.3h46c6.54 0 12.6.92 18.13 2.76 5.54 1.85 10.3 4.56 14.32 8.18 4.02 3.6 7.2 8.05 9.58 13.3 2.32 5.3 3.5 11.3 3.5 17.98 0 9.55-2.5 17.68-7.55 24.38-5.04 6.7-11.85 11.3-20.4 13.82 9.72 1.85 17.48 6.44 23.17 13.74 5.7 7.3 8.57 16.34 8.57 27.1v-.01zm-23.62-.98c0-9.4-2.4-16.8-7.26-22.16-4.9-5.3-12-8-21.4-8h-20v59.2h19.5c9.5 0 16.7-2.3 21.7-7 4.9-4.7 7.4-12 7.4-21.9l.06-.14zm-3.5-76.1c0-8.52-2.38-14.96-7.14-19.32-4.7-4.34-11.3-6.5-19.7-6.5h-18.3v53.9h18.3c8.7 0 15.4-2.53 20-7.63s6.9-11.92 6.9-20.45h-.06zm115.78 123.7l-.94-17.63c-4.4 6.73-9.1 11.83-14.3 15.33-5.1 3.48-11.7 5.22-19.7 5.22-5.2 0-10-1-14.3-2.8-4.4-1.9-8.1-4.4-11.2-7.6-3.1-3.2-5.5-7.1-7.3-11.5-1.8-4.5-2.7-9.2-2.7-14.3 0-8.4 1.9-15.4 5.6-21 3.8-5.6 8.6-10 14.4-13.3 5.8-3.3 12.3-5.6 19.4-7 7.1-1.3 14.1-2 20.9-2h8.3v-7.5c0-8.3-1.8-14.9-5.4-20.1-3.6-5.1-10.1-7.7-19.5-7.7-5.4 0-11 1.2-16.8 3.5-5.9 2.3-11.2 5.3-15.9 8.8L804 49.4c5.9-2.84 11.67-5.2 17.37-7.05 5.7-1.84 12.34-2.8 19.9-2.8 15.43 0 26.44 3.85 33.1 11.5 6.6 7.63 9.93 18 9.93 31.12v58.47c0 5.2.2 10 .4 14.34.27 4.4.5 8.7.8 13.1h-21l.03.09zm-1.46-62.08h-4.02c-5 0-10.04.3-15.07.8-4.98.6-9.6 1.9-13.78 3.9-4.2 2-7.58 4.8-10.17 8.4-2.6 3.6-3.9 8.5-3.9 14.5 0 6.1 1.86 11 5.54 14.7 3.68 3.7 8.62 5.5 14.8 5.5 4.68 0 8.7-1 12.04-3 3.4-2 6.2-4.7 8.3-8 2.2-3.3 3.8-7 4.8-11.1 1-4.2 1.5-8.3 1.5-12.5V106l-.04.09zm119.53 62.1l-.3-18.2c-2.87 5.8-7.07 10.8-12.6 14.9-5.55 4-12.2 6.1-19.92 6.1-6.37 0-11.8-1.2-16.25-3.6-4.43-2.4-8-5.5-10.7-9.5-2.68-4-4.6-8.6-5.78-13.8-1.18-5.3-1.78-10.7-1.78-16.4V42.2h21.57v85.05c0 3.34.33 6.6 1.02 9.7.66 3.1 1.76 5.85 3.3 8.2 1.47 2.34 3.5 4.24 6.04 5.67 2.5 1.42 5.63 2.14 9.34 2.14 4.04 0 7.6-.97 10.6-2.9 3.02-1.93 5.5-4.4 7.46-7.44 1.94-3.03 3.37-6.38 4.3-10.1.92-3.7 1.4-7.22 1.4-10.6v-79.7h21.55v91.17c0 5.9.1 11.6.32 17.3.2 5.7.4 11.5.55 17.4H982.6v.1zm173.3 0V83.1c0-3.03-.22-6.1-.62-9.2-.42-3.12-1.26-5.9-2.54-8.33-1.27-2.45-3.06-4.4-5.42-5.93-2.36-1.52-5.5-2.3-9.38-2.3-3.53 0-6.64 1.03-9.33 3.04-2.7 2.05-5 4.55-6.9 7.6-1.9 3-3.4 6.33-4.3 9.94-.9 3.62-1.4 7.03-1.4 10.23v80h-21.2v-85c0-3.04-.2-6.1-.6-9.2-.4-3.13-1.2-5.9-2.5-8.34-1.3-2.4-3.1-4.4-5.4-5.9-2.3-1.5-5.4-2.3-9.3-2.3-3.5 0-6.6 1.1-9.3 3.1-2.7 2.1-5 4.6-6.8 7.6-1.8 3-3.2 6.4-4.1 10-.9 3.6-1.3 7.1-1.3 10.3v80h-21.6V77c0-5.7-.1-11.5-.4-17.36l-.6-17.4h20.2l.8 18.4c2.9-6.03 6.9-11.06 12.1-15.04 5.2-3.98 11.3-5.97 18.4-5.97 7.5 0 13.7 1.8 18.6 5.42 4.87 3.6 8.5 8.78 11 15.5 3.9-6.38 8.3-11.47 13.4-15.25 5-3.78 11-5.67 17.9-5.67 5.9 0 10.9 1 15.1 3.02 4.2 2.03 7.6 4.84 10.2 8.44 2.6 3.6 4.5 7.9 5.7 12.9 1.2 5 1.8 10.7 1.8 16.9v87.2h-22l-.21.1zm68.28-57.5c0 5.2.5 10.4 1.5 15.5s2.76 9.8 5.28 13.9c2.5 4.1 5.8 7.5 9.93 10.1 4.1 2.6 9.3 3.9 15.7 3.9 5 0 10.1-.9 15.4-2.7 5.3-1.8 10-4.1 14.2-6.9l1.5 19.4c-4.9 2.3-10.3 4.1-16.2 5.3-6 1.2-11.6 1.7-17 1.7-9.9 0-18.2-1.8-24.8-5.5-6.6-3.6-12-8.5-16.2-14.5-4.2-6.1-7.2-13.1-9-21.1-1.8-8-2.6-16.4-2.6-25.4 0-7.8.8-15.5 2.6-23.2 1.7-7.8 4.5-14.8 8.2-21 3.7-6.3 8.5-11.3 14.3-15.2 5.8-3.9 13-5.8 21.4-5.8 8.5 0 15.6 1.9 21.2 5.8s10.1 8.9 13.3 15c3.2 6.2 5.6 13 6.9 20.4 1.3 7.5 2 14.7 2 21.8v8.1H1224l.18.4zm46.64-14.6c0-3.9-.3-8.2-.9-12.8-.57-4.7-1.7-9-3.36-13.1-1.68-4.1-3.98-7.5-6.9-10.3-2.93-2.8-6.66-4.2-11.17-4.2-4.6 0-8.4 1.3-11.4 4-3.1 2.7-5.7 6-7.6 10-2 3.9-3.3 8.3-4.2 13-.9 4.7-1.3 9.1-1.3 13.1h46.6l.23.3zm99.3-34.8c-1.02-.2-2.03-.4-3.02-.5-1.02-.2-2.1-.3-3.28-.3-4.7 0-8.72 1.1-12.08 3.5-3.38 2.3-6.1 5.3-8.18 8.9-2.1 3.6-3.62 7.6-4.55 11.9-.9 4.4-1.3 8.5-1.3 12.6V168h-21.6V77c0-5.88-.1-11.67-.3-17.38-.2-5.7-.4-11.5-.5-17.38h19.9l.5 19.8c2.9-6.35 6.9-11.7 12.1-15.98 5.3-4.3 11.5-6.44 18.7-6.44.9 0 1.7.1 2.7.3l2.7.6-1.5 20.84-.29-.07z"></path><g transform="translate(300)"><mask id="fn6c79cece4dmb" fill="#fff"><use xlink:href="#fn6c79cece4dma"></use></mask><path fill="#0062AE" fill-rule="nonzero" d="M10.6 175.52c2.23 3.13 5.88 5.17 10 5.17 4.87 0 9.07-2.8 11.08-6.9 1.94 3.5 5.72 6 10.07 6 5.23 0 9.67-3.6 11.02-8.4 1.32 4.3 5.34 7.4 10.1 7.4 5.83 0 10.56-4.7 10.56-10.6 0-5.9-4.73-10.6-10.57-10.6-4.74 0-8.76 3.1-10.1 7.4-.94-3.4-3.4-6.2-6.6-7.5 3.2-1.4 5.66-4.1 6.6-7.5 1.33 4.3 5.36 7.4 10.1 7.4 5.84 0 10.57-4.8 10.57-10.6s-4.73-10.4-10.57-10.4c-4.74 0-8.76 3.1-10.1 7.5-.94-3.4-3.42-6.2-6.62-7.5 3.2-1.3 5.68-4 6.63-7.4 1.32 4.4 5.35 7.5 10.1 7.5 5.83 0 10.56-4.7 10.56-10.5 0-5.9-4.73-10.6-10.57-10.6-4.74 0-8.76 3.1-10.1 7.5-.94-3.4-3.4-6.2-6.6-7.5 3.2-1.4 5.66-4.1 6.6-7.5 1.33 4.3 5.36 7.5 10.1 7.5 5.84 0 10.57-4.7 10.57-10.6 0-5.9-4.73-10.29-10.57-10.29-4.74 0-8.76 3.14-10.1 7.45-.94-3.4-3.4-6.14-6.6-7.47 3.2-1.34 5.66-4.1 6.6-7.47 1.34 4.4 5.36 7.5 10.1 7.5 5.84 0 10.57-4.7 10.57-10.5S68.7 73.5 62.86 73.5c-4.74 0-8.76 3.13-10.1 7.44-.94-3.4-3.4-6.14-6.6-7.5 3.2-1.34 5.66-4.1 6.6-7.5 1.34 4.3 5.36 7.47 10.1 7.47 5.84 0 10.57-4.7 10.57-10.5S68.7 52.4 62.86 52.4c-4.74 0-8.76 3.14-10.1 7.47-.94-3.4-3.4-6.1-6.6-7.46 3.2-1.3 5.66-4 6.6-7.4 1.34 4.3 5.36 7.4 10.1 7.4 5.84 0 10.6-4.7 10.6-10.5s-4.76-10.6-10.6-10.6c-4.74 0-8.76 3.2-10.1 7.5-.94-3.4-3.4-6.1-6.6-7.4 3.2-1.3 5.66-4.1 6.6-7.4 1.34 4.4 5.36 7.5 10.1 7.5 5.86 0 10.6-4.7 10.6-10.5s-4.74-10.5-10.6-10.5c-4.74 0-8.77 3.2-10.1 7.5-.94-3.4-3.4-6.1-6.6-7.5 3.2-1.3 5.66-4.1 6.6-7.4 1.34 4.3 5.36 7.4 10.1 7.4 5.86 0 10.6-4.7 10.6-10.5 0-5.9-4.74-10.6-10.6-10.6-4.74 0-8.76 3.1-10.1 7.46-1.34-4.84-5.76-8.4-11-8.4-4.35 0-8.14 2.44-10.08 6-2-4.06-6.2-6.9-11.05-6.9-4.14 0-7.8 2.07-10.03 5.2C8.25-11 4.15-13.4-.5-13.4c-7.28 0-13.2 5.9-13.2 13.2 0 4.3 2.07 8.1 5.28 10.5-3.2 2.4-5.3 6.2-5.3 10.5s2.1 8.16 5.3 10.57c-3.2 2.4-5.3 6.3-5.3 10.6s2.1 8.17 5.3 10.58c-3.2 2.4-5.3 6.3-5.3 10.6s2.1 8.16 5.3 10.56c-3.2 2.4-5.3 6.2-5.3 10.6 0 4.4 2.1 8.15 5.3 10.56-3.22 2.4-5.3 6.2-5.3 10.5s2.08 8.18 5.3 10.6c-3.22 2.4-5.3 6.2-5.3 10.54 0 4.3 2.08 8.14 5.3 10.55-3.22 2.4-5.3 6.2-5.3 10.5s2.08 8.17 5.3 10.58c-3.22 2.4-5.3 6.24-5.3 10.56 0 7.3 5.92 13.2 13.22 13.2 4.66 0 8.75-2.4 11.1-6.1v-.28zm0-14.3c.98-1.4 2.23-2.55 3.67-3.42a12.55 12.55 0 01-3.67-3.4c-.85 1.3-1.93 2.46-3.18 3.4 1.25.94 2.33 2.1 3.18 3.4v.02zm26.74-3.43c-2.42-1.1-4.42-2.9-5.66-5.2-1.05 2.1-2.7 3.9-4.7 5.1 2 1.2 3.65 3 4.7 5.1 1.24-2.3 3.24-4.1 5.66-5.1v.1zM10.6 140a12.07 12.07 0 013.68-3.4c-1.45-.9-2.7-2.05-3.68-3.42-.85 1.33-1.92 2.48-3.17 3.4 1.24.96 2.32 2.1 3.17 3.43V140zm26.75-3.4a11.595 11.595 0 01-5.67-5.12c-1.05 2.13-2.7 3.9-4.7 5.1 2 1.23 3.65 3 4.7 5.13 1.24-2.3 3.25-4.1 5.67-5.1v-.01zM10.6 118.9c.98-1.4 2.23-2.55 3.68-3.4-1.45-.9-2.7-2.06-3.68-3.43-.85 1.32-1.93 2.47-3.18 3.4 1.25.95 2.33 2.1 3.18 3.42v.01zm26.74-3.43c-2.42-1-4.42-2.83-5.66-5.1-1.05 2.1-2.7 3.9-4.7 5.1 2 1.22 3.65 3 4.7 5.12 1.24-2.3 3.24-4.1 5.66-5.2v.08zM10.6 97.82c.98-1.36 2.23-2.53 3.68-3.4-1.45-.87-2.7-2.04-3.68-3.4a13.5 13.5 0 01-3.17 3.4c1.24.94 2.32 2.1 3.17 3.4zm26.74-3.4c-2.42-1-4.42-2.83-5.66-5.12-1.05 2.15-2.7 3.9-4.7 5.14 2 1.2 3.65 3 4.7 5.1 1.24-2.28 3.24-4.1 5.66-5.1v-.02zM10.6 76.7c.98-1.37 2.23-2.54 3.68-3.4-1.45-.9-2.7-2.05-3.68-3.42-.85 1.32-1.93 2.48-3.18 3.4 1.25.95 2.33 2.1 3.18 3.42zm26.74-3.4a11.546 11.546 0 01-5.66-5.13c-1.05 2.13-2.7 3.9-4.7 5.12 2 1.2 3.65 2.9 4.7 5.1 1.24-2.3 3.24-4.1 5.66-5.1v.01zM10.6 55.56c.98-1.37 2.23-2.53 3.67-3.4-1.44-.87-2.7-2.03-3.67-3.4-.85 1.3-1.92 2.46-3.17 3.4 1.25.94 2.32 2.1 3.17 3.4zm26.74-3.4c-2.42-1-4.42-2.82-5.66-5.1-1.05 2.1-2.7 3.9-4.7 5.1 2 1.22 3.65 3 4.7 5.1 1.24-2.28 3.24-4.1 5.66-5.1zM10.6 34.46c.97-1.38 2.23-2.55 3.68-3.4-1.45-.9-2.7-2.06-3.68-3.43-.85 1.32-1.93 2.47-3.18 3.4 1.25.95 2.32 2.1 3.17 3.42l.01.01zm26.74-3.4a11.612 11.612 0 01-5.66-5.14c-1.05 2.13-2.7 3.9-4.7 5.12 2 1.2 3.65 3 4.7 5.12 1.24-2.3 3.24-4.1 5.66-5.12v.02zM10.6 13.3a12.15 12.15 0 013.7-3.4c-1.46-.88-2.72-2.04-3.7-3.42A13.28 13.28 0 017.42 9.9c1.25.94 2.33 2.1 3.18 3.4zm26.73-3.4c-2.42-1.02-4.4-2.84-5.65-5.13-1.05 2.12-2.7 3.9-4.7 5.1 2 1.23 3.65 3 4.7 5.13 1.24-2.28 3.23-4.1 5.65-5.12v.02zM84-10.35c5.34 0 9.68 4.35 9.68 9.7 0 5.34-4.34 9.66-9.7 9.66-5.33 0-9.66-4.3-9.66-9.6s4.33-9.7 9.67-9.7l.01-.06zm21.13.9c4.84 0 8.8 3.94 8.8 8.8 0 4.86-3.96 8.8-8.8 8.8-4.87 0-8.8-3.94-8.8-8.8 0-4.86 3.93-8.8 8.8-8.8zm21.13.87c4.36 0 7.9 3.54 7.9 7.92 0 4.36-3.54 7.92-7.9 7.92-4.4 0-7.95-3.56-7.95-7.92 0-4.38 3.6-7.92 8-7.92h-.05zm21.1.88c3.9 0 7.04 3.17 7.04 7.05 0 3.9-3.14 7.04-7.03 7.04-3.9 0-7.03-3.2-7.03-7.1 0-3.9 3.14-7.1 7.03-7.1l-.01.11zm21.13.9c3.4 0 6.1 2.75 6.1 6.14 0 3.4-2.8 6.17-6.2 6.17-3.4 0-6.2-2.7-6.2-6.1 0-3.3 2.7-6.1 6.1-6.1l.2-.11zm21.1.87c2.9 0 5.2 2.36 5.2 5.27 0 2.93-2.4 5.3-5.3 5.3s-5.3-2.37-5.3-5.3c0-2.9 2.3-5.27 5.2-5.27h.2zm21.1.88c2.4 0 4.4 1.96 4.4 4.4 0 2.43-2 4.4-4.4 4.4-2.5 0-4.4-1.97-4.4-4.4 0-2.44 1.9-4.4 4.4-4.4zm21.1.9c1.9 0 3.5 1.55 3.5 3.5 0 1.94-1.6 3.52-3.6 3.52s-3.6-1.57-3.6-3.52 1.6-3.5 3.5-3.5h.2zm21.2.85c1.4 0 2.6 1.2 2.6 2.65C255.6.82 254.4 2 253 2a2.64 2.64 0 01-2.64-2.65c0-1.46 1.18-2.65 2.64-2.65h-.01zm21.1.9c1 0 1.8.78 1.8 1.75 0 .98-.8 1.77-1.8 1.77s-1.8-.8-1.8-1.77.8-1.76 1.7-1.76l.1.01zM84 10.8c5.34 0 9.68 4.32 9.68 9.67s-4.34 9.7-9.7 9.7c-5.33 0-9.68-4.35-9.68-9.7s4.35-9.67 9.7-9.67zm21.13.86c4.84 0 8.8 3.96 8.8 8.8 0 4.87-3.96 8.82-8.8 8.82-4.87 0-8.8-3.95-8.8-8.8 0-4.86 3.93-8.82 8.8-8.82zm21.13.9c4.36 0 7.9 3.55 7.9 7.9 0 4.4-3.54 7.93-7.9 7.93-4.4 0-7.95-3.6-7.95-8s3.6-7.9 8-7.9l-.05.07zm21.1.87c3.9 0 7.04 3.17 7.04 7.04 0 3.9-3.14 7.05-7.03 7.05-3.9 0-7.03-3.15-7.03-7.05 0-3.87 3.12-7.04 7.03-7.04h-.01zm21.13.9c3.4 0 6.1 2.74 6.1 6.14 0 3.42-2.8 6.17-6.2 6.17-3.4 0-6.2-2.75-6.2-6.17 0-3.4 2.7-6.15 6.1-6.15l.2.01zm21.1.87c2.9 0 5.2 2.36 5.2 5.27 0 2.93-2.4 5.3-5.3 5.3s-5.3-2.37-5.3-5.3c0-2.9 2.3-5.27 5.2-5.27h.2zm21.1.87c2.4 0 4.4 1.98 4.4 4.4 0 2.45-2 4.42-4.4 4.42-2.5 0-4.4-2-4.4-4.5 0-2.4 1.9-4.4 4.4-4.4v.08zm21.1.88c1.9 0 3.5 1.6 3.5 3.53 0 1.95-1.6 3.52-3.6 3.52s-3.6-1.57-3.6-3.52 1.5-3.53 3.5-3.53h.2zm21.1.9c1.4 0 2.6 1.17 2.6 2.62 0 1.46-1.2 2.64-2.7 2.64-1.5 0-2.7-1.1-2.7-2.6 0-1.4 1.2-2.6 2.6-2.6l.2-.06zm21.1.86c1 0 1.8.8 1.8 1.8s-.8 1.8-1.8 1.8-1.8-.8-1.8-1.7c0-.9.8-1.7 1.7-1.7l.1-.2zM84 32c5.34 0 9.67 4.34 9.67 9.7 0 5.33-4.33 9.66-9.68 9.66s-9.7-4.33-9.7-9.67c0-5.4 4.3-9.7 9.7-9.7L84 32zm21.13.87c4.84 0 8.8 3.96 8.8 8.83 0 4.85-3.96 8.8-8.8 8.8-4.87 0-8.8-3.95-8.8-8.8 0-4.88 3.93-8.82 8.8-8.82v-.01zm21.13.88c4.36 0 7.9 3.57 7.9 7.95 0 4.37-3.54 7.9-7.9 7.9-4.4 0-7.95-3.53-7.95-7.9 0-4.37 3.6-7.93 8-7.93l-.05-.02zm21.1.9c3.9 0 7.04 3.15 7.04 7.05s-3.14 7.05-7.03 7.05c-3.9 0-7.05-3.17-7.05-7.05 0-3.9 3.14-7.03 7.05-7.03l-.01-.02zm21.13.9c3.4 0 6.1 2.74 6.1 6.15 0 3.4-2.8 6.17-6.2 6.17-3.4 0-6.2-2.8-6.2-6.16 0-3.4 2.7-6.1 6.1-6.1l.2-.06zm21.1.86c2.9 0 5.2 2.4 5.2 5.3s-2.4 5.3-5.3 5.3-5.3-2.4-5.3-5.3 2.3-5.3 5.2-5.3h.2zm21.1.9c2.4 0 4.4 2 4.4 4.4 0 2.4-2 4.4-4.4 4.4-2.5 0-4.4-2-4.4-4.4 0-2.4 1.9-4.4 4.4-4.4zm21.1.9c1.9 0 3.5 1.6 3.5 3.6s-1.6 3.5-3.6 3.5-3.6-1.5-3.6-3.5c0-1.9 1.5-3.5 3.5-3.5l.2-.1zm21.2.8c1.4 0 2.6 1.2 2.6 2.7 0 1.5-1.2 2.7-2.7 2.7-1.5 0-2.7-1.2-2.7-2.6 0-1.5 1.2-2.6 2.6-2.6l.2-.2zm21.1.9c1 0 1.8.8 1.8 1.8s-.8 1.8-1.8 1.8-1.8-.8-1.8-1.7c0-1 .8-1.8 1.7-1.8l.1-.1zM84 53.1c5.34 0 9.67 4.3 9.67 9.7 0 5.3-4.33 9.63-9.68 9.63s-9.7-4.3-9.7-9.6 4.3-9.7 9.7-9.7l.01-.03zm21.13.9c4.84 0 8.8 3.9 8.8 8.8 0 4.8-3.96 8.8-8.8 8.8-4.87 0-8.8-4-8.8-8.8 0-4.9 3.93-8.8 8.8-8.8zm21.1.84c4.4 0 7.94 3.55 7.94 7.9 0 4.4-3.55 7.94-7.93 7.94-4.37 0-7.93-3.53-7.93-7.92 0-4.37 3.6-7.9 8-7.9l-.08-.02zm21.14.88c3.9 0 7.03 3.1 7.03 7s-3.14 7-7.03 7c-3.9 0-7.05-3.2-7.05-7.1 0-3.9 3.14-7.04 7.05-7.04v.14zm21.12.8c3.4 0 6.1 2.7 6.1 6.1 0 3.4-2.8 6.16-6.2 6.16-3.4 0-6.2-2.77-6.2-6.18 0-3.4 2.7-6.18 6.1-6.18l.2.1zm21.1.9c2.9 0 5.2 2.3 5.2 5.2 0 2.9-2.4 5.3-5.3 5.3s-5.3-2.4-5.3-5.3 2.3-5.28 5.2-5.28l.2.08zm21.1.8c2.4 0 4.4 2 4.4 4.4 0 2.43-2 4.4-4.4 4.4-2.5 0-4.4-1.97-4.4-4.4 0-2.4 1.9-4.4 4.4-4.4zm21.1.9c1.9 0 3.5 1.55 3.5 3.5s-1.6 3.52-3.6 3.52-3.6-1.57-3.6-3.5 1.5-3.5 3.5-3.5l.2-.02zm21.1.86c1.4 0 2.6 1.17 2.6 2.63s-1.2 2.7-2.7 2.7c-1.5 0-2.7-1.2-2.7-2.6 0-1.4 1.2-2.6 2.6-2.6l.2-.13zm21.1.87c1 0 1.8.8 1.8 1.77s-.8 1.8-1.8 1.8-1.8-.8-1.8-1.78.8-1.78 1.7-1.78l.1-.01zM84 74.18c5.34 0 9.67 4.34 9.67 9.68 0 5.35-4.33 9.7-9.68 9.7s-9.7-4.35-9.7-9.7c0-5.34 4.3-9.68 9.7-9.68H84zm21.13.87c4.84 0 8.8 3.95 8.8 8.8 0 4.87-3.96 8.83-8.8 8.83-4.87 0-8.8-3.96-8.8-8.82s3.93-8.8 8.8-8.8v-.01zm21.1.9c4.4 0 7.94 3.53 7.94 7.9 0 4.38-3.55 7.94-7.93 7.94-4.37 0-7.93-3.6-7.93-8s3.6-7.9 8-7.9l-.08.06zm21.14.88c3.9 0 7.03 3.14 7.03 7.03 0 3.9-3.14 7.05-7.03 7.05-3.9 0-7.05-3.1-7.05-7s3.14-7 7.05-7v-.08zm21.12.87c3.4 0 6.1 2.7 6.1 6.1 0 3.4-2.8 6.2-6.2 6.2-3.4 0-6.2-2.8-6.2-6.2 0-3.4 2.8-6.2 6.1-6.2l.2.1zm21.1.8c2.9 0 5.2 2.32 5.2 5.23 0 2.9-2.4 5.3-5.3 5.3s-5.3-2.38-5.3-5.3c0-2.9 2.3-5.26 5.2-5.26l.2.03zm21.1.9c2.4 0 4.4 2 4.4 4.4 0 2.4-2 4.4-4.4 4.4-2.5 0-4.4-2-4.4-4.4 0-2.4 1.9-4.4 4.4-4.4zm21.1.9c1.9 0 3.5 1.6 3.5 3.5s-1.6 3.5-3.5 3.5-3.6-1.6-3.6-3.54c0-1.93 1.5-3.5 3.5-3.5l.1.04zm21.1.9c1.4 0 2.6 1.2 2.6 2.6 0 1.5-1.2 2.6-2.7 2.6-1.5 0-2.7-1.15-2.7-2.62 0-1.45 1.2-2.63 2.6-2.63l.2.05zm21.1.9c1 0 1.8.8 1.8 1.7 0 1-.8 1.8-1.8 1.8s-1.8-.8-1.8-1.78.8-1.76 1.7-1.76l.1.04zM84 95.3c5.34 0 9.67 4.34 9.67 9.7 0 5.33-4.33 9.67-9.68 9.67s-9.7-4.34-9.7-9.7c0-5.33 4.3-9.67 9.7-9.67H84zm21.13.87c4.84 0 8.8 3.95 8.8 8.8 0 4.87-3.96 8.82-8.8 8.82-4.87 0-8.8-4-8.8-8.9s3.93-8.8 8.8-8.8v.08zm21.1.9c4.4 0 7.94 3.53 7.94 7.9 0 4.4-3.55 7.93-7.93 7.93-4.37 0-7.93-3.54-7.93-7.92s3.6-7.9 8-7.9l-.08-.01zm21.14.86c3.9 0 7.03 3.16 7.03 7.05 0 3.9-3.14 7.03-7.03 7.03-3.9 0-7.05-3.1-7.05-7s3.14-7 7.05-7v-.08zm21.12.9c3.4 0 6.1 2.75 6.1 6.15 0 3.4-2.8 6.17-6.2 6.17-3.4 0-6.2-2.76-6.2-6.17 0-3.4 2.7-6.16 6.1-6.16l.2.01zm21.1.88c2.9 0 5.2 2.4 5.2 5.3s-2.4 5.3-5.3 5.3-5.3-2.3-5.3-5.3c0-2.9 2.3-5.2 5.2-5.2l.2-.1zm21.1.9c2.4 0 4.4 2 4.4 4.4 0 2.5-2 4.4-4.4 4.4-2.5 0-4.4-1.9-4.4-4.4 0-2.4 1.9-4.4 4.4-4.4zm21.1.9c1.9 0 3.5 1.6 3.5 3.5 0 2-1.6 3.6-3.5 3.6s-3.6-1.6-3.6-3.5 1.5-3.5 3.5-3.5l.1-.1zm21.1.9c1.4 0 2.6 1.2 2.6 2.7 0 1.5-1.2 2.7-2.7 2.7-1.5 0-2.7-1.1-2.7-2.6s1.2-2.7 2.6-2.7l.2-.1zm21.1.9c1 0 1.8.8 1.8 1.8s-.8 1.8-1.8 1.8-1.8-.8-1.8-1.7c0-1 .8-1.8 1.7-1.8l.1-.1zM84 116.4c5.34 0 9.67 4.34 9.67 9.7 0 5.34-4.33 9.66-9.68 9.66s-9.7-4.33-9.7-9.68 4.3-9.7 9.7-9.7l.01.02zm21.13.88c4.84 0 8.8 3.94 8.8 8.82 0 4.86-3.96 8.8-8.8 8.8-4.87 0-8.8-3.94-8.8-8.8 0-4.88 3.93-8.8 8.8-8.8v-.02zm21.1.9c4.4 0 7.94 3.53 7.94 7.92 0 4.37-3.55 7.9-7.93 7.9-4.37 0-7.93-3.53-7.93-7.9 0-4.4 3.6-7.93 8-7.93l-.08.01zm21.14.86c3.9 0 7.03 3.14 7.03 7.05 0 3.9-3.14 7.1-7.03 7.1-3.9 0-7.05-3.2-7.05-7.1 0-3.9 3.14-7.1 7.05-7.1v.05zm21.12.88c3.4 0 6.1 2.75 6.1 6.17 0 3.4-2.8 6.2-6.2 6.2-3.4 0-6.2-2.8-6.2-6.2 0-3.4 2.7-6.2 6.1-6.2l.2.03zm21.1.9c2.9 0 5.2 2.34 5.2 5.27 0 2.9-2.4 5.3-5.3 5.3s-5.3-2.4-5.3-5.3 2.4-5.2 5.3-5.2l.1-.07zm21.1.86c2.4 0 4.4 1.97 4.4 4.4 0 2.44-2 4.4-4.4 4.4-2.5 0-4.4-1.96-4.4-4.4 0-2.43 1.9-4.4 4.4-4.4zm21.1.9c1.9 0 3.5 1.56 3.5 3.52 0 1.93-1.6 3.5-3.5 3.5s-3.6-1.57-3.6-3.5c0-1.96 1.5-3.53 3.5-3.53l.1.01zm21.1.88c1.4 0 2.6 1.17 2.6 2.64 0 1.45-1.2 2.63-2.7 2.63-1.5 0-2.7-1.18-2.7-2.63 0-1.47 1.2-2.64 2.6-2.64h.2zm21.1.86c1 0 1.8.8 1.8 1.78 0 .95-.8 1.75-1.8 1.75s-1.8-.8-1.8-1.75c0-.97.8-1.78 1.7-1.78h.1zM84 137.54c5.34 0 9.67 4.35 9.67 9.7 0 5.34-4.33 9.67-9.68 9.67-5.4 0-9.7-4.3-9.7-9.6s4.3-9.7 9.7-9.7l.01-.07zm21.13.88c4.84 0 8.8 3.95 8.8 8.8 0 4.87-3.96 8.82-8.8 8.82-4.87 0-8.8-3.95-8.8-8.8 0-4.87 3.93-8.82 8.8-8.82zm21.1.9c4.4 0 7.94 3.54 7.94 7.9 0 4.4-3.55 7.94-7.93 7.94-4.37 0-7.93-3.55-7.93-7.93 0-4.37 3.6-7.9 8-7.9l-.08-.01zm21.14.88c3.9 0 7.03 3.14 7.03 7.03 0 3.9-3.14 7.05-7.03 7.05-3.9 0-7.05-3.16-7.05-7.05 0-3.9 3.14-7.03 7.05-7.03zm21.12.87c3.4 0 6.1 2.77 6.1 6.16 0 3.4-2.8 6.16-6.2 6.16-3.4 0-6.2-2.8-6.2-6.2 0-3.4 2.7-6.2 6.1-6.2l.2.08zm21.1.9c2.9 0 5.2 2.35 5.2 5.26 0 2.93-2.4 5.3-5.3 5.3s-5.3-2.37-5.3-5.3c0-2.9 2.4-5.27 5.3-5.27l.1.01zm21.1.86c2.4 0 4.4 1.97 4.4 4.4 0 2.44-2 4.4-4.4 4.4-2.5 0-4.4-1.96-4.4-4.4 0-2.43 1.9-4.4 4.4-4.4zm21.1.87c1.9 0 3.5 1.6 3.5 3.53 0 1.95-1.6 3.5-3.5 3.5s-3.6-1.55-3.6-3.5c0-1.94 1.5-3.53 3.5-3.53h.1zm21.1.9c1.4 0 2.6 1.17 2.6 2.63s-1.2 2.65-2.7 2.65c-1.5 0-2.7-1.2-2.7-2.65 0-1.46 1.2-2.64 2.6-2.64l.2.01zm21.1.88c1 0 1.8.77 1.8 1.75 0 .97-.8 1.76-1.8 1.76s-1.8-.8-1.8-1.8.8-1.8 1.7-1.8l.1.09zm-190.1 13.2c5.3 0 9.7 4.33 9.7 9.68s-4.4 9.68-9.7 9.68c-5.3 0-9.7-4.33-9.7-9.68s4.3-9.7 9.6-9.7l.1.02zm21.1.87c4.8 0 8.8 3.95 8.8 8.8 0 4.87-4 8.82-8.8 8.82-4.9 0-8.8-3.95-8.8-8.8 0-4.87 3.9-8.82 8.8-8.82zm21.1.88c4.4 0 7.9 3.55 7.9 7.93 0 4.37-3.6 7.93-8 7.93s-7.9-3.6-7.9-8 3.5-8 7.9-8l.1.14zm21.1.9c3.9 0 7 3.14 7 7.03 0 3.9-3.2 7.03-7.1 7.03-3.9 0-7.1-3.2-7.1-7.1 0-3.9 3.1-7.1 7.1-7.1l.1.14zm21.1.86c3.4 0 6.1 2.7 6.1 6.1 0 3.4-2.8 6.1-6.2 6.1-3.4 0-6.2-2.8-6.2-6.2 0-3.4 2.7-6.2 6.1-6.2l.2.2zm21.1.9c2.9 0 5.3 2.3 5.3 5.2 0 2.9-2.4 5.3-5.3 5.3s-5.3-2.4-5.3-5.3 2.4-5.3 5.3-5.3v.1zm21.1.8c2.4 0 4.4 1.9 4.4 4.4 0 2.4-2 4.4-4.4 4.4-2.5 0-4.4-2-4.4-4.4 0-2.5 1.9-4.4 4.4-4.4zm21.1.9c1.9 0 3.5 1.5 3.5 3.5s-1.6 3.5-3.5 3.5c-2 0-3.6-1.6-3.6-3.5s1.5-3.5 3.5-3.5h.1zm21.1.9c1.4 0 2.6 1.1 2.6 2.6 0 1.4-1.2 2.6-2.7 2.6-1.5 0-2.6-1.2-2.6-2.7 0-1.5 1.2-2.7 2.6-2.7l.1.2zm21.1.8c1 0 1.8.7 1.8 1.7s-.8 1.7-1.8 1.7-1.8-.8-1.8-1.8.8-1.8 1.7-1.8l.1.2z" mask="url(#fn6c79cece4dmb)"></path></g><mask id="fn6c79cece4dmd" fill="#fff"><use xlink:href="#fn6c79cece4dmc"></use></mask><path fill="#0062AE" fill-rule="nonzero" d="M265.88 175.53c-2.23 3.12-5.9 5.16-10.02 5.16-4.86 0-9.05-2.9-11.06-6.9-1.94 3.5-5.72 6-10.07 6-5.24 0-9.66-3.6-11.02-8.4-1.3 4.3-5.3 7.4-10.1 7.4-5.8 0-10.5-4.7-10.5-10.6 0-5.9 4.8-10.6 10.6-10.6 4.8 0 8.8 3.1 10.1 7.4 1-3.4 3.5-6.2 6.7-7.5-3.2-1.4-5.6-4.1-6.6-7.5-1.3 4.3-5.3 7.4-10.1 7.4-5.8 0-10.5-4.8-10.5-10.6s4.8-10.6 10.6-10.6c4.8 0 8.8 3.1 10.1 7.5 1-3.4 3.5-6.2 6.7-7.5-3.2-1.3-5.7-4.1-6.6-7.5-1.3 4.3-5.3 7.4-10.1 7.4-5.8 0-10.5-4.7-10.5-10.5 0-5.9 4.8-10.6 10.6-10.6 4.8 0 8.8 3.1 10.1 7.4 1-3.4 3.4-6.2 6.6-7.5-3.2-1.4-5.6-4.1-6.6-7.5-1.3 4.3-5.3 7.5-10.1 7.5-5.8 0-10.6-4.8-10.6-10.6S208.1 94 214 94c4.8 0 8.8 3.18 10.1 7.5 1-3.4 3.47-6.1 6.6-7.45-3.2-1.35-5.7-4.1-6.6-7.48-1.3 4.32-5.4 7.45-10.1 7.45-5.9 0-10.6-4.7-10.6-10.57 0-5.8 4.7-10.5 10.6-10.5 4.8 0 8.8 3.1 10.1 7.4 1-3.4 3.46-6.2 6.66-7.5-3.2-1.4-5.67-4.1-6.6-7.5-1.34 4.3-5.37 7.4-10.1 7.4-5.85 0-10.6-4.7-10.6-10.57 0-5.83 4.7-10.56 10.56-10.56 4.8 0 8.8 3.12 10.1 7.44 1-3.4 3.4-6.14 6.6-7.5-3.2-1.3-5.6-4.1-6.6-7.45-1.3 4.4-5.3 7.5-10.1 7.5-5.8 0-10.5-4.7-10.5-10.5s4.74-10.5 10.57-10.5c4.8 0 8.8 3.2 10.1 7.5 1-3.4 3.4-6.1 6.6-7.5-3.2-1.3-5.7-4.1-6.6-7.5-1.4 4.3-5.4 7.5-10.1 7.5-5.9 0-10.6-4.7-10.6-10.6 0-5.9 4.51-10.51 10.31-10.51 4.77 0 8.8 3.18 10.1 7.5.97-3.4 3.43-6.12 6.6-7.5-3.17-1.3-5.63-4.06-6.6-7.44-1.3 4.33-5.33 7.47-10.1 7.47-5.8 0-10.5-4.7-10.5-10.53 0-5.84 4.7-10.57 10.52-10.57 4.75 0 8.8 3.15 10.1 7.47 1.35-4.8 5.8-8.32 11.02-8.32 4.35 0 8.13 2.45 10.07 6 2-4.06 6.2-6.87 11.1-6.87 4.1 0 7.8 2.1 10 5.2 2.4-3.6 6.5-6 11.1-6 7.3 0 13.2 5.9 13.2 13.2 0 4.4-2.1 8.2-5.3 10.6 3.2 2.4 5.3 6.2 5.3 10.6 0 4.3-2.1 8.2-5.3 10.6 3.2 2.4 5.3 6.3 5.3 10.6 0 4.4-2.1 8.2-5.3 10.6 3.2 2.4 5.3 6.2 5.3 10.6 0 4.4-2.1 8.2-5.3 10.6 3.2 2.4 5.3 6.3 5.3 10.6s-2.2 8.2-5.4 10.6c3.2 2.4 5.3 6.3 5.3 10.6s-2 8.2-5.2 10.6c3.2 2.4 5.3 6.28 5.3 10.6 0 4.35-2 8.2-5.2 10.6 3.2 2.4 5.3 6.24 5.3 10.55 0 4.35-2.1 8.2-5.3 10.6 3.2 2.4 5.3 6.24 5.3 10.56 0 7.3-5.9 13.2-13.2 13.2-4.6 0-8.7-2.4-11.1-6.07l-.33-.22zm0-14.33c-.97-1.37-2.22-2.53-3.67-3.4 1.5-.87 2.7-2.03 3.7-3.4.9 1.3 1.9 2.46 3.2 3.4-1.2.93-2.3 2.1-3.1 3.4h-.13zm-26.74-3.4c2.42-1.02 4.42-2.84 5.66-5.13 1.05 2.13 2.7 3.9 4.7 5.13-2 1.2-3.65 3-4.7 5.12-1.24-2.3-3.24-4.12-5.66-5.13v.01zm26.75-17.73c-1-1.37-2.3-2.53-3.7-3.4 1.4-.87 2.7-2.03 3.6-3.4.8 1.3 1.9 2.47 3.1 3.4-1.3.94-2.3 2.1-3.2 3.4h.2zm-26.8-3.4c2.4-1 4.4-2.83 5.7-5.12 1 2.12 2.7 3.9 4.7 5.12-2 1.2-3.7 3-4.7 5.12-1.3-2.3-3.3-4.2-5.7-5.2v.08zm26.7-17.72c-1-1.37-2.3-2.53-3.7-3.4 1.4-.87 2.7-2.03 3.7-3.4.8 1.3 1.9 2.46 3.1 3.4-1.3.93-2.4 2.1-3.2 3.4h.1zm-26.8-3.4c2.4-1.02 4.4-2.84 5.6-5.13 1 2.13 2.7 3.9 4.7 5.13-2 1.2-3.7 3-4.7 5.12-1.3-2.3-3.3-4.1-5.7-5.13l.1.01zm26.8-17.75c-1-1.37-2.3-2.53-3.7-3.4 1.4-.87 2.7-2.03 3.7-3.4.8 1.3 1.9 2.47 3.1 3.4-1.3.94-2.3 2.1-3.2 3.4h.1zM239 94.4c2.42-1 4.42-2.83 5.66-5.13 1.04 2.12 2.7 3.9 4.7 5.12-2 1.2-3.66 3-4.7 5.1-1.25-2.3-3.25-4.1-5.68-5.1l.02.01zm26.76-17.7c-1-1.38-2.26-2.54-3.7-3.4 1.44-.88 2.7-2.04 3.67-3.4.85 1.3 1.93 2.46 3.2 3.4-1.26.93-2.3 2.08-3.18 3.4h.01zM239 73.3c2.4-1.03 4.4-2.85 5.66-5.13 1.03 2.12 2.7 3.9 4.7 5.12-2 1.2-3.67 3-4.7 5.1-1.26-2.3-3.26-4.1-5.68-5.1l.02.01zm26.75-17.73c-1-1.37-2.27-2.53-3.7-3.4 1.43-.87 2.7-2.03 3.65-3.4.84 1.32 1.9 2.47 3.16 3.4-1.26.94-2.3 2.1-3.17 3.4h.06zm-26.8-3.4c2.43-1 4.43-2.83 5.67-5.12 1.05 2.13 2.7 3.9 4.7 5.12-2 1.22-3.65 3-4.7 5.12-1.24-2.3-3.24-4.2-5.67-5.2v.08zm26.76-17.73c-1-1.37-2.2-2.53-3.7-3.4 1.5-.87 2.7-2.03 3.7-3.4.9 1.3 1.9 2.46 3.2 3.4-1.2.94-2.3 2.1-3.1 3.4h-.1zm-26.7-3.4c2.5-1 4.5-2.83 5.7-5.12 1.1 2.12 2.7 3.9 4.7 5.12-2 1.22-3.6 3-4.7 5.12-1.2-2.3-3.2-4.1-5.7-5.12zm26.8-17.72c-1-1.38-2.2-2.54-3.7-3.4 1.5-.88 2.7-2.04 3.7-3.4.9 1.3 2 2.46 3.2 3.4-1.2.93-2.3 2.1-3.1 3.4h-.1zm-26.7-3.4c2.5-1.02 4.4-2.84 5.7-5.13 1.1 2.1 2.7 3.9 4.8 5.1-2 1.2-3.7 3-4.7 5.1-1.2-2.3-3.2-4.1-5.6-5.2l-.2.13zm-46.7-20.26c-5.3 0-9.6 4.35-9.6 9.7 0 5.34 4.4 9.66 9.7 9.66 5.3 0 9.7-4.32 9.7-9.67 0-5.34-4.3-9.7-9.7-9.7l-.1.01zm-21.1.9c-4.8 0-8.8 3.94-8.8 8.8 0 4.86 4 8.8 8.8 8.8 4.9 0 8.8-3.94 8.8-8.8 0-4.86-3.9-8.8-8.8-8.8zm-21.1.87c-4.4 0-7.9 3.54-7.9 7.92 0 4.36 3.6 7.92 8 7.92s7.9-3.56 7.9-7.92c0-4.38-3.5-7.92-7.9-7.92h-.1zM129-7.7c-3.87 0-7.02 3.2-7.02 7.1 0 3.9 3.15 7.04 7.04 7.04 3.9 0 7.04-3.14 7.04-7.04s-3.14-7.05-7.03-7.05L129-7.7zm-21.1.9c-3.4 0-6.16 2.8-6.16 6.2 0 3.4 2.76 6.16 6.16 6.16 3.38 0 6.14-2.75 6.14-6.16 0-3.4-2.73-6.14-6.12-6.14l-.02-.06zm-21.13.9c-2.92 0-5.28 2.38-5.28 5.3s2.3 5.3 5.2 5.3c2.9 0 5.3-2.38 5.3-5.3 0-2.9-2.4-5.28-5.3-5.28l.08-.02zM65.7-5a4.4 4.4 0 00-4.4 4.4c0 2.43 1.98 4.4 4.4 4.4 2.45 0 4.4-1.97 4.4-4.4 0-2.44-1.95-4.4-4.4-4.4zm-21.12.9c-1.93 0-3.52 1.55-3.52 3.5 0 1.94 1.6 3.52 3.52 3.52 1.95 0 3.54-1.6 3.54-3.53 0-2-1.6-3.5-3.53-3.5l-.01.01zm-21.1.85a2.65 2.65 0 00-2.65 2.66C20.85.8 22.03 2 23.5 2c1.44 0 2.63-1.2 2.63-2.66 0-1.46-1.2-2.65-2.65-2.65v.06zm-21.14.9C1.4-2.4.6-1.62.6-.65c0 .98.8 1.77 1.76 1.77.97 0 1.76-.8 1.76-1.76S3.32-2.4 2.36-2.4l-.02.05zm190.12 13.2c-5.35 0-9.68 4.33-9.68 9.68s4.33 9.7 9.68 9.7 9.7-4.34 9.7-9.7c0-5.36-4.35-9.66-9.7-9.66v-.02zm-21.12.87c-4.86 0-8.8 3.95-8.8 8.8a8.8 8.8 0 008.8 8.8c4.87 0 8.8-3.95 8.8-8.8 0-4.86-3.93-8.82-8.8-8.82v.02zm-21.13.9c-4.3 0-7.9 3.54-7.9 7.9 0 4.4 3.6 7.92 8 7.92s8-3.53 8-7.93c0-4.3-3.5-7.9-7.9-7.9l-.2.01zm-21.1.86c-3.9 0-7 3.17-7 7.04 0 3.9 3.2 7.05 7.1 7.05 3.9 0 7.1-3.15 7.1-7.05 0-3.87-3.1-7.04-7-7.04h-.2zm-21.1.9c-3.4 0-6.1 2.74-6.1 6.14 0 3.42 2.8 6.17 6.2 6.17 3.4 0 6.2-2.8 6.2-6.2 0-3.4-2.7-6.2-6.1-6.2l-.2.09zm-21.1.87c-2.9 0-5.3 2.37-5.3 5.28 0 2.95 2.4 5.3 5.3 5.3s5.3-2.35 5.3-5.3c0-2.9-2.3-5.25-5.2-5.25l-.1-.03zm-21.1.88c-2.4 0-4.4 2-4.4 4.4 0 2.47 2 4.44 4.4 4.44 2.5 0 4.4-1.98 4.4-4.43 0-2.4-1.9-4.4-4.4-4.4v-.01zM44.6 17c-1.95 0-3.54 1.6-3.54 3.52 0 1.94 1.6 3.5 3.52 3.5 1.95 0 3.53-1.56 3.53-3.5s-1.5-3.54-3.5-3.54l-.01.02zm-21.1.9c-1.5 0-2.67 1.16-2.67 2.6 0 1.47 1.17 2.65 2.64 2.65 1.45 0 2.64-1.17 2.64-2.63s-1.2-2.64-2.6-2.64l-.01.02zm-21.16.85c-.97 0-1.76.8-1.76 1.77s.8 1.76 1.75 1.76c.98 0 1.76-.8 1.76-1.77s-.8-1.7-1.8-1.7l.05-.06zm190.12 13.23c-5.35 0-9.67 4.34-9.67 9.7 0 5.33 4.3 9.66 9.6 9.66s9.7-4.33 9.7-9.67c0-5.35-4.4-9.7-9.7-9.7l.07.01zm-21.12.87c-4.86 0-8.8 3.95-8.8 8.82 0 4.85 3.94 8.8 8.8 8.8 4.87 0 8.8-3.95 8.8-8.8 0-4.88-3.93-8.82-8.8-8.82zm-21.13.87c-4.3 0-7.9 3.55-7.9 7.93 0 4.37 3.6 7.9 7.9 7.9 4.3 0 8-3.53 8-7.9 0-4.37-3.5-7.93-7.9-7.93h-.1zm-21.1.9c-3.9 0-7 3.13-7 7.03 0 3.9 3.2 7.05 7.1 7.05 3.9 0 7.1-3.16 7.1-7.04 0-3.9-3.1-7.03-7-7.03l-.2-.01zm-21.1.87c-3.4 0-6.1 2.7-6.1 6.1 0 3.4 2.8 6.1 6.2 6.1 3.4 0 6.2-2.8 6.2-6.2 0-3.4-2.7-6.2-6.1-6.2l-.2.2zm-21.1.8c-2.9 0-5.3 2.3-5.3 5.3 0 2.9 2.4 5.2 5.3 5.2s5.3-2.4 5.3-5.3-2.3-5.3-5.2-5.3l-.1.1zm-21.1.9c-2.4 0-4.4 1.9-4.4 4.4 0 2.4 2 4.4 4.4 4.4 2.5 0 4.4-2 4.4-4.4 0-2.5-1.9-4.4-4.4-4.4zm-21.1.8c-1.9 0-3.5 1.5-3.5 3.5s1.6 3.5 3.6 3.5 3.5-1.6 3.5-3.5c0-2-1.6-3.6-3.5-3.6l-.1.1zm-21.1.9c-1.5 0-2.6 1.1-2.6 2.6 0 1.4 1.2 2.6 2.7 2.6 1.5 0 2.7-1.2 2.7-2.7 0-1.5-1.2-2.7-2.6-2.7l-.2.2zm-21.1.8c-.9 0-1.7.8-1.7 1.8s.8 1.7 1.8 1.7 1.8-.8 1.8-1.8-.8-1.8-1.8-1.8l-.1.1zM192.6 53c-5.4 0-9.7 4.36-9.7 9.7 0 5.34 4.34 9.68 9.7 9.68 5.36 0 9.7-4.33 9.7-9.67s-4.36-9.6-9.7-9.6V53zm-21.1.9c-4.9 0-8.8 3.94-8.8 8.8 0 4.85 3.9 8.8 8.8 8.8 4.8 0 8.8-3.95 8.8-8.8 0-4.86-4-8.8-8.8-8.8zm-21.2.9c-4.4 0-8 3.54-8 7.9 0 4.4 3.55 7.93 7.9 7.93 4.35 0 7.94-3.54 7.94-7.93 0-4.35-3.55-7.9-7.92-7.9h.08zm-21.2.87c-3.84 0-7 3.14-7 7.04s3.16 7.1 7.05 7.1c3.9 0 7.05-3.1 7.05-7s-3.16-7-7.06-7l-.04-.14zm-21.1.87c-3.4 0-6.13 2.75-6.13 6.14 0 3.4 2.74 6.16 6.14 6.16 3.4 0 6.2-2.77 6.2-6.18 0-3.4-2.8-6.17-6.2-6.17l-.01.05zm-21.1.9c-2.9 0-5.26 2.33-5.26 5.24 0 2.9 2.34 5.3 5.26 5.3s5.3-2.4 5.3-5.3-2.36-5.28-5.3-5.28v.04zm-21.1.84c-2.44 0-4.4 2-4.4 4.4 0 2.43 1.96 4.4 4.4 4.4a4.4 4.4 0 004.4-4.4c0-2.4-1.97-4.4-4.4-4.4zm-21.14.9c-1.9 0-3.5 1.55-3.5 3.5s1.6 3.52 3.5 3.52c2 0 3.56-1.58 3.56-3.53 0-1.95-1.6-3.5-3.55-3.5l-.01.01zm-21.1.86c-1.44 0-2.63 1.17-2.63 2.63s1.2 2.64 2.67 2.64c1.44 0 2.63-1.2 2.63-2.6 0-1.4-1.2-2.6-2.68-2.6l.01-.07zM2.4 61c-.97 0-1.76.8-1.76 1.76s.8 1.77 1.77 1.77 1.8-.8 1.8-1.77S3.4 61 2.4 61zm190.1 13.2c-5.36 0-9.68 4.34-9.68 9.68 0 5.35 4.33 9.7 9.68 9.7s9.7-4.35 9.7-9.7c0-5.34-4.35-9.68-9.7-9.68zm-21.13.87c-4.86 0-8.8 3.95-8.8 8.8 0 4.87 3.94 8.83 8.8 8.83 4.87 0 8.8-3.96 8.8-8.82s-3.93-8.8-8.8-8.8v-.01zm-21.13.9c-4.37 0-7.94 3.53-7.94 7.9 0 4.38 3.56 7.94 7.93 7.94 4.37 0 7.92-3.5 7.92-7.9s-3.55-7.9-7.92-7.9l.01-.04zm-21.12.88c-3.88 0-7.03 3.14-7.03 7.03 0 3.9 3.1 7.05 7 7.05s7-3.15 7-7.05-3.2-7.03-7.1-7.03h.13zm-21.1.87c-3.4 0-6.17 2.74-6.17 6.14 0 3.4 2.76 6.17 6.16 6.17 3.4 0 6.2-2.76 6.2-6.16 0-3.4-2.8-6.17-6.2-6.17l.01.02zm-21.14.87c-2.92 0-5.28 2.3-5.28 5.2 0 2.9 2.36 5.3 5.28 5.3 2.92 0 5.27-2.4 5.27-5.3s-2.34-5.3-5.27-5.3v.1zm-21.12.8c-2.44 0-4.4 1.9-4.4 4.4 0 2.4 1.96 4.4 4.4 4.4 2.43 0 4.4-2 4.4-4.4 0-2.4-1.97-4.4-4.4-4.4zm-21.13.8c-1.93 0-3.5 1.6-3.5 3.5s1.57 3.5 3.5 3.5c1.96 0 3.54-1.6 3.54-3.6s-1.58-3.5-3.53-3.5l-.01.1zm-21.1.9c-1.46 0-2.65 1.2-2.65 2.6 0 1.4 1.2 2.6 2.64 2.6 1.45 0 2.64-1.2 2.64-2.7 0-1.5-1.2-2.59-2.66-2.59l.03.09zM2.4 82c-1 0-1.8.8-1.8 1.75 0 .97.8 1.77 1.7 1.77.9 0 1.7-.8 1.7-1.76s-.8-1.74-1.77-1.74L2.4 82zm190.1 13.2c-5.4 0-9.7 4.34-9.7 9.7 0 5.33 4.3 9.67 9.7 9.67 5.4 0 9.7-4.35 9.7-9.7 0-5.34-4.4-9.68-9.7-9.68v.01zm-21.1.87c-4.9 0-8.8 3.94-8.8 8.8 0 4.86 3.9 8.8 8.8 8.8 4.8 0 8.8-3.96 8.8-8.8 0-4.84-4-8.8-8.8-8.8zm-21.2.9c-4.4 0-8 3.52-8 7.9 0 4.4 3.54 7.92 7.9 7.92s7.93-3.6 7.93-8-3.56-7.9-7.93-7.9l.1.08zm-21.1.85c-3.9 0-7.1 3.16-7.1 7.05 0 3.9 3.13 7.05 7.02 7.05 3.9 0 7.06-3.1 7.06-7s-3.1-7.05-7-7.05l.02-.05zm-21.1.9c-3.4 0-6.2 2.75-6.2 6.15 0 3.4 2.7 6.2 6.1 6.2 3.4 0 6.14-2.78 6.14-6.2 0-3.4-2.76-6.15-6.15-6.15h.11zm-21.2.9c-2.9 0-5.3 2.4-5.3 5.3s2.4 5.3 5.3 5.3 5.23-2.4 5.23-5.3-2.34-5.3-5.27-5.3h.04zm-21.16.9c-2.44 0-4.4 1.96-4.4 4.4 0 2.43 1.96 4.4 4.4 4.4a4.4 4.4 0 004.4-4.4c0-2.44-1.97-4.4-4.4-4.4zm-21.13.9c-1.9 0-3.5 1.56-3.5 3.5 0 1.95 1.6 3.53 3.5 3.53 2 0 3.6-1.6 3.6-3.54s-1.6-3.5-3.5-3.5l-.1.01zm-21.1.85c-1.4 0-2.6 1.2-2.6 2.68 0 1.45 1.2 2.62 2.7 2.62 1.5 0 2.7-1.18 2.7-2.64 0-1.5-1.2-2.67-2.6-2.67l-.2.01zm-21.1.9c-.9 0-1.7.8-1.7 1.77s.8 1.78 1.8 1.78 1.8-.8 1.8-1.8-.7-1.76-1.7-1.76l-.2.01zm190.2 13.2c-5.3 0-9.6 4.36-9.6 9.7 0 5.34 4.4 9.68 9.7 9.68 5.3 0 9.7-4.33 9.7-9.68s-4.3-9.7-9.7-9.7h-.1zm-21.1.9c-4.8 0-8.8 3.95-8.8 8.83 0 4.87 4 8.8 8.8 8.8 4.9 0 8.8-3.93 8.8-8.8 0-4.87-3.9-8.8-8.8-8.8v-.03zm-21.1.9c-4.4 0-7.9 3.54-7.9 7.93 0 4.38 3.6 7.9 8 7.9s7.9-3.52 7.9-7.9c0-4.4-3.5-7.92-7.9-7.92l-.1-.01zm-21.1.87c-3.9 0-7 3.17-7 7.1 0 3.9 3.2 7.02 7 7.02 3.9 0 7.1-3.17 7.1-7.06 0-3.9-3.1-7-7-7l-.1-.06zm-21.1.9c-3.4 0-6.2 2.76-6.2 6.2 0 3.4 2.8 6.14 6.2 6.14 3.4 0 6.1-2.73 6.1-6.13s-2.8-6.18-6.2-6.18l.1-.03zm-21.1.9c-2.9 0-5.3 2.35-5.3 5.3 0 2.9 2.4 5.3 5.3 5.3s5.3-2.4 5.3-5.3-2.3-5.3-5.3-5.3zm-21.1.87c-2.4 0-4.4 2-4.4 4.4 0 2.5 2 4.4 4.4 4.4 2.5 0 4.4-1.9 4.4-4.4 0-2.4-1.9-4.4-4.4-4.4zm-21.1.9c-1.9 0-3.5 1.6-3.5 3.6 0 1.9 1.6 3.5 3.5 3.5 2 0 3.5-1.6 3.5-3.5 0-2-1.5-3.5-3.5-3.5v-.1zm-21.1.9c-1.5 0-2.7 1.2-2.7 2.7 0 1.5 1.2 2.6 2.7 2.6 1.5 0 2.7-1.1 2.7-2.6s-1.2-2.6-2.6-2.6l-.1-.1zm-21.1.9c-.9 0-1.7.8-1.7 1.8s.8 1.8 1.8 1.8 1.8-.8 1.8-1.7c0-1-.8-1.8-1.7-1.8l-.2-.1zm190.2 13.2c-5.3 0-9.7 4.4-9.7 9.7 0 5.3 4.3 9.7 9.7 9.7 5.4 0 9.7-4.3 9.7-9.6s-4.3-9.7-9.7-9.7v-.1zm-21.1.9c-4.9 0-8.8 4-8.8 8.8 0 4.9 3.9 8.8 8.8 8.8s8.8-3.9 8.8-8.8-3.9-8.8-8.8-8.8zm-21.1.9c-4.3 0-7.9 3.5-7.9 7.9s3.6 7.9 7.9 7.9c4.4 0 7.9-3.5 7.9-7.9s-3.5-7.9-7.9-7.9zm-21.1.9c-3.9 0-7 3.2-7 7.1 0 3.9 3.1 7.1 7 7.1s7.1-3.1 7.1-7-3.12-7-7.02-7l-.08-.2zm-21.1.9c-3.4 0-6.2 2.8-6.2 6.2 0 3.4 2.8 6.2 6.2 6.2 3.4 0 6.1-2.8 6.1-6.2 0-3.4-2.7-6.1-6.1-6.1v-.1zm-21.1.9c-2.9 0-5.3 2.4-5.3 5.3s2.4 5.3 5.3 5.3 5.3-2.3 5.3-5.3c0-2.9-2.34-5.2-5.3-5.2v-.1zM66 143c-2.4 0-4.4 2-4.4 4.4 0 2.47 2 4.4 4.4 4.4 2.46 0 4.4-1.93 4.4-4.4A4.4 4.4 0 0066 143zm-21.1.9c-1.94 0-3.5 1.6-3.5 3.55 0 1.95 1.56 3.5 3.5 3.5 1.95 0 3.53-1.55 3.53-3.5 0-1.94-1.6-3.53-3.57-3.53l.04-.02zm-21.1.9c-1.47 0-2.66 1.2-2.66 2.65s1.2 2.65 2.6 2.65c1.47 0 2.66-1.2 2.66-2.68 0-1.5-1.2-2.66-2.6-2.66v.04zm-21.15.9c-.93 0-1.72.8-1.72 1.77s.8 1.78 1.76 1.78 1.7-.8 1.7-1.73c0-.93-.8-1.7-1.8-1.7l.06-.12zm190.17 13.2c-5.3 0-9.7 4.35-9.7 9.7s4.4 9.68 9.7 9.68c5.4 0 9.7-4.3 9.7-9.7 0-5.4-4.32-9.7-9.7-9.7v.02zm-21.1.9c-4.9 0-8.8 3.94-8.8 8.8 0 4.86 3.9 8.8 8.8 8.8 4.87 0 8.8-3.95 8.8-8.8 0-4.87-3.93-8.8-8.8-8.8zm-21.13.87c-4.4 0-7.9 3.55-7.9 7.93 0 4.3 3.5 7.9 7.9 7.9s7.9-3.58 7.9-7.9-3.6-7.9-8-7.9l.1-.03zm-21.1.9c-3.9 0-7 3.14-7 7.03 0 3.9 3.1 7 7 7s7-3.16 7-7c0-3.9-3.1-7-7-7v-.03zm-21.1.86c-3.4 0-6.2 2.8-6.2 6.2 0 3.4 2.8 6.2 6.2 6.2 3.4 0 6.1-2.8 6.1-6.2 0-3.4-2.8-6.15-6.2-6.15l.1-.05zm-21.2.9c-2.9 0-5.3 2.4-5.3 5.3s2.4 5.3 5.3 5.3 5.3-2.36 5.3-5.3c0-2.9-2.4-5.24-5.3-5.24v-.06zm-21.1.9c-2.5 0-4.4 2-4.4 4.4 0 2.45 1.9 4.4 4.4 4.4 2.4 0 4.4-1.95 4.4-4.4 0-2.4-2-4.4-4.4-4.4zm-21.2.9c-1.9 0-3.5 1.56-3.5 3.5s1.6 3.5 3.5 3.5 3.5-1.54 3.5-3.5-1.6-3.5-3.6-3.5h.1zm-21.1.9c-1.5 0-2.7 1.2-2.7 2.6 0 1.4 1.2 2.66 2.6 2.66 1.4 0 2.6-1.2 2.6-2.6 0-1.5-1.2-2.7-2.7-2.7l.2.04zm-21.2.9c-1 0-1.8.8-1.8 1.7 0 .9.8 1.8 1.8 1.8s1.74-.8 1.74-1.75-.8-1.75-1.75-1.75h.01z" mask="url(#fn6c79cece4dmd)"></path></g></svg>