<!DOCTYPE svg PUBLIC "-//W3C//DTD SVG 20010904//EN" "http://www.w3.org/TR/2001/REC-SVG-20010904/DTD/svg10.dtd">
<svg version="1.0" xmlns="http://www.w3.org/2000/svg" width="260px" height="69px" viewBox="0 0 2600 690" preserveAspectRatio="xMidYMid meet">
<g id="layer101" fill="#df0021" stroke="none">
 <path d="M62 676 c-54 -29 -79 -120 -53 -189 28 -74 137 -147 219 -147 35 0 49 6 74 30 25 26 29 36 24 62 -12 60 -85 113 -171 125 -53 7 -61 15 -37 35 27 24 60 28 115 13 29 -7 53 -12 55 -10 9 9 -32 67 -58 80 -35 18 -136 19 -168 1z m101 -192 c50 -17 77 -48 59 -66 -16 -16 -56 -1 -91 34 -50 51 -43 58 32 32z"/>
 <path d="M325 680 c-4 -6 23 -44 58 -84 l66 -72 -60 -78 c-33 -42 -57 -81 -54 -87 4 -5 30 -9 60 -9 52 0 55 1 86 45 18 25 35 45 38 45 4 0 40 -34 81 -76 95 -96 144 -132 250 -183 47 -23 110 -55 140 -70 201 -104 437 -135 705 -92 333 55 619 55 830 1 38 -10 72 -16 74 -14 10 9 -37 47 -93 74 -145 71 -379 101 -641 81 -89 -6 -218 -21 -286 -31 -180 -29 -310 -35 -425 -20 -216 27 -280 67 -506 313 l-80 87 57 76 c32 43 54 82 51 90 -7 18 -86 19 -108 2 -8 -7 -28 -30 -43 -51 l-28 -38 -51 50 c-40 40 -59 51 -83 51 -18 0 -35 -5 -38 -10z"/>
 <path d="M720 652 c-36 -36 -40 -44 -40 -91 0 -62 25 -116 74 -159 44 -38 91 -52 179 -52 66 0 68 1 62 23 -10 33 -34 47 -83 47 -47 0 -74 11 -109 43 -18 16 -23 31 -23 67 0 74 43 100 126 75 27 -8 50 -15 52 -15 12 0 -4 36 -27 62 -26 30 -35 33 -100 36 l-71 4 -40 -40z"/>
 <path d="M1024 671 c-20 -12 -38 -36 -49 -64 -16 -42 -16 -49 -1 -99 26 -91 128 -167 224 -168 35 0 49 6 73 29 35 35 36 57 6 102 -28 42 -88 76 -147 85 -57 8 -64 12 -48 31 24 29 58 34 116 18 30 -9 56 -14 59 -12 12 12 -32 70 -62 83 -50 20 -133 18 -171 -5z m133 -198 c55 -26 53 -73 -3 -59 -27 7 -84 60 -84 78 0 12 41 3 87 -19z"/>
 <path d="M1342 680 c-12 -5 -25 -17 -29 -26 -5 -14 30 -384 43 -442 6 -29 46 -30 75 -1 16 16 19 28 14 62 -5 42 -45 401 -45 412 0 8 -32 5 -58 -5z"/>
 <path d="M1472 673 c-11 -10 -23 -31 -26 -47 -6 -24 -4 -28 10 -22 66 25 134 26 174 1 19 -12 -10 -34 -66 -51 -84 -24 -113 -77 -79 -143 21 -42 79 -61 184 -61 l88 0 -5 25 c-6 35 -16 39 -102 45 -96 6 -99 24 -10 56 36 13 73 33 83 46 37 45 1 124 -70 154 -48 21 -156 18 -181 -3z"/>
 <path d="M1803 680 c-32 -13 -35 -35 -18 -176 8 -71 15 -135 15 -141 0 -19 65 -16 81 3 10 12 10 40 0 148 -17 188 -18 190 -78 166z"/>
 <path d="M1968 673 c-25 -16 -58 -76 -58 -106 0 -36 25 -93 56 -127 22 -24 32 -44 28 -54 -13 -35 126 -62 179 -35 41 21 77 62 83 96 14 76 -51 189 -130 227 -44 21 -123 20 -158 -1z m143 -63 c41 -22 64 -114 39 -160 -5 -10 -23 -23 -39 -28 -26 -9 -33 -7 -57 16 -84 85 -39 223 57 172z"/>
 <path d="M2312 680 c-33 -14 -36 -31 -23 -143 22 -194 21 -187 48 -187 33 0 63 17 63 37 0 15 2 15 18 1 24 -21 78 -48 97 -48 11 0 15 10 15 38 0 46 -24 72 -64 72 -42 0 -73 38 -80 101 -20 155 -17 151 -74 129z"/>
 <path d="M1816 288 c-21 -29 -20 -40 5 -72 22 -28 66 -35 87 -14 19 19 14 63 -11 86 -30 28 -62 28 -81 0z"/>
 </g>
<g id="layer102" fill="#009d65" stroke="none">
 <path d="M1815 159 c-55 -5 -163 -19 -240 -31 -179 -29 -403 -30 -515 -4 -41 10 -86 20 -100 23 l-25 5 25 -21 c34 -28 154 -78 248 -103 119 -31 323 -36 482 -9 207 34 353 44 530 38 150 -5 301 -27 364 -53 35 -14 12 20 -37 53 -55 37 -148 69 -255 89 -101 18 -351 25 -477 13z"/>
 </g>

</svg>