<svg xmlns="http://www.w3.org/2000/svg" viewBox="0.7159895896911621 0.531829833984375 853.4999389648438 711.668212890625"><g fill="#CC092F"><path d="M245.83 591.598c-12.463-.244-23.338 1.222-34.09 3.788-2.078 7.087-1.834 17.595 0 24.927 13.196-3.055 20.65-3.3 28.958-3.3 16.252 0 24.194 6.599 24.194 20.04v1.222c-4.888-.489-10.63-.978-14.785-.978-27.004 0-50.098 9.653-50.098 35.558 0 29.203 20.895 39.1 51.076 39.1 14.296 0 29.692-2.565 43.988-6.842v-65.86c0-31.404-16.984-46.922-49.243-47.655zm19.062 94.575c-1.833.49-9.653 1.222-13.44 1.222-14.542 0-22.362-4.276-22.362-14.54s7.82-14.297 22.361-14.297c4.888 0 10.386.49 13.441.734v26.881zm-77.346-93.109c-15.03 0-23.583 5.865-31.77 16.252-.733-5.377-1.833-9.653-3.544-15.03-3.054-.977-8.43-1.222-12.952-1.222-4.276 0-9.897.49-12.707 1.222v115.226c3.787.977 10.141 1.222 15.762 1.222 5.376 0 12.463-.49 15.763-1.222v-56.208c0-22.36 11.73-34.335 27.492-34.335 2.81 0 7.576 0 10.387.488 1.833-7.33 2.077-18.084.488-25.415-1.832-.367-6.353-.978-8.92-.978zm-131.722-.977c-9.164 0-18.084 2.077-23.582 4.887v-56.452c-8.92 3.3-18.329 7.82-26.15 14.297-4.032 3.299-5.376 6.598-5.376 11.486v139.297c8.432 3.543 25.416 6.598 41.667 6.598 41.178 0 64.883-25.171 64.883-61.584 0-36.168-16.862-58.53-51.442-58.53zm-11.608 94.33c-3.299 0-8.431 0-11.974-1.221V621.9c4.276-2.321 10.386-3.543 18.328-3.543 15.763 0 24.194 10.875 24.194 31.525-.122 21.505-10.02 36.535-30.548 36.535zm342.622-120.235v27.738c-5.62-1.467-11.486-1.833-16.496-1.833-34.824 0-58.529 23.338-58.529 60.728 0 38.124 23.094 59.263 59.263 59.263 16.495 0 32.747-2.322 47.287-7.087V540.522c-8.92 3.3-18.328 7.82-26.149 14.297-4.032 3.177-5.376 6.476-5.376 11.363zm0 118.403c-5.376 1.466-9.164 1.833-13.44 1.833-20.895 0-28.96-13.686-28.96-33.603 0-22.116 8.187-35.557 28.715-35.557 6.11 0 9.897.733 13.685 1.833v65.494zm225.564-43.378l-12.708-5.376c-7.332-3.055-11.73-5.62-11.73-10.386 0-7.332 6.598-8.92 15.273-8.92 8.676 0 17.596.977 29.693 4.888 1.466-8.432 1.466-16.252 0-23.583-7.576-4.033-21.873-6.11-34.336-6.11-24.438 0-43.011 13.197-43.011 32.992 0 17.84 7.576 26.637 28.96 35.313l9.897 4.032c9.408 3.788 12.219 6.11 12.219 12.219 0 9.164-9.165 10.63-16.74 10.63-12.708 0-22.361-2.565-34.58-6.842-2.078 7.331-2.078 16.984 0 24.682 10.386 5.621 24.682 7.332 39.712 7.332 24.193 0 43.5-12.708 43.5-35.558 0-18.817-8.065-27.737-26.15-35.313zm98.118 44.966c-15.762 0-26.148-12.463-26.148-34.335 0-20.895 8.43-34.336 26.393-34.336 7.576 0 12.952 1.222 20.04 4.033 2.076-7.087 5.864-15.274 11.24-22.117-9.897-5.132-19.55-7.82-35.312-7.82-34.825 0-54.864 24.683-54.864 60.24 0 36.901 20.65 60.24 56.208 60.24 12.952 0 24.926-2.322 34.58-7.576-4.277-5.62-9.165-13.197-11.975-22.116-8.92 3.543-12.83 3.787-20.162 3.787zm88.222-94.575c-35.313 0-55.108 24.194-55.108 60.484 0 36.902 20.895 59.996 55.108 59.996 35.557 0 55.474-23.583 55.474-59.996 0-36.657-19.917-60.484-55.474-60.484zm0 95.064c-17.595 0-22.85-14.296-22.85-34.58 0-19.795 5.377-35.068 22.85-35.068 18.084 0 23.094 14.785 23.094 35.068 0 21.384-5.743 34.58-23.094 34.58zm-307.676-95.064c-34.09 0-54.863 22.85-54.863 60.973s22.116 59.507 59.995 59.507c12.953 0 27.005-2.322 35.802-6.598 1.833-7.332 1.833-16.985 0-24.439-11.73 3.3-21.627 5.377-32.502 5.377-17.596 0-29.693-6.598-32.259-25.171h71.726c.978-2.81 1.222-12.22 1.222-16.007 0-34.336-19.306-53.642-49.12-53.642zm-23.827 46.555c2.322-13.93 10.63-22.361 23.339-22.361 14.296 0 19.795 9.653 20.283 22.36H467.24zm-53.152-537.149c-28.715 0-59.996 2.688-90.91 7.942 31.28-40.2 81.012-66.227 136.364-66.227 40.934 0 81.746 15.396 109.239 38.368 5.01 4.154 8.797 4.52 12.585.733 3.788-3.788 3.422-7.576-.733-12.464C544.708 27.567 491.922-.537 429.727.563c-81.379 1.466-150.539 53.03-176.932 124.39-24.071 7.576-46.188 16.496-65.738 27.493-5.377 3.055-7.21 6.72-5.377 11.241 1.955 4.155 5.743 5.621 11.12 4.155 16.862-4.888 33.969-9.042 51.93-12.83-1.954 9.408-3.054 19.184-3.054 29.325-1.589 65.739 33.602 128.178 87.855 162.392 5.376 3.42 9.897 3.42 12.952-.734 3.055-4.154 2.688-7.942-1.955-11.974-34.336-30.792-53.52-76.736-53.52-122.19 0-22.973 4.644-45.089 13.32-65.006 17.961-1.466 37.39-2.688 58.895-2.688 139.053 0 256.356 45.821 256.356 106.061 0 30.425-38.613 60.85-84.434 81.257-11.12 4.887-12.22 8.309-10.753 13.196 1.589 4.521 6.476 5.988 12.22 4.155 80.278-26.271 141.007-69.527 141.007-121.824.244-71.115-114.37-125.978-259.532-125.978z"></path><path d="M480.436 462.443v-152.25c0-5.865-5.62-7.942-10.264-5.254l-38.734 22.239v142.596h41.544c4.155 0 7.454-3.299 7.454-7.331zm-96.042-102.64V465.13c0 2.688 2.077 4.765 4.766 4.765h29.325V334.632l-29.325 16.862c-2.933 1.71-4.766 4.399-4.766 8.309z"></path></g></svg>