<svg xmlns="http://www.w3.org/2000/svg" viewBox="0.5852012634277344 0 1598.864501953125 537.8731079101562"><g fill="#112350"><path d="M1281 21v21h58V0h-58zm98 100v121h54V0h-54zm-803 5.6v115.5l57.3-.4c61.9-.5 65.7-.8 80.5-6.2 15.1-5.5 28.2-15.2 35.6-26.4 17.8-26.7 14-64.6-8.1-81.2-6-4.6-15.4-9.3-21.3-10.9-2.5-.6-5.1-1.3-5.9-1.6-.9-.3.7-1.8 4.5-4 16-9.6 24.8-23.9 26.1-42.5 1.8-26.5-10.1-44.2-35.7-53.1-12.2-4.2-21.5-4.8-78.7-4.8H576v115.6zm95.1-71.9C681 57.9 686 65.5 686 77.1c0 11.3-4 17.8-13.2 22-4.9 2.2-6.6 2.4-22.3 2.4h-17l-.3-23c-.1-12.6 0-23.5.2-24.2.9-2.1 30.9-1.8 37.7.4zm-4.6 87.2c11.2.6 15 1.2 19 3 9.7 4.3 14.5 11.3 15.3 22.2.9 13.4-4.4 23-15.7 28.2-6.3 2.9-7.4 3.1-27.7 4-11.6.6-21.9.7-22.8.4-1.4-.6-1.6-3.6-1.6-29 0-15.6.3-28.7.7-29 .8-.9 14.9-.8 32.8.2zM216.6 24.6C184.5 29 156.4 38 130.2 52.2c-23.3 12.7-39 24.4-57.8 43.2-30.5 30.5-52.3 68.2-63.8 110.7C.5 236-1.7 275 3.1 306.1c1.8 11.7 7.8 35.4 12.1 47.4 12.3 34.7 38 73.3 64.8 97.4 71.1 63.8 167.4 82 255.5 48.4 48.3-18.5 91.6-54.2 119.6-98.8 50.9-81 50.1-185.9-2-265.5-36.1-55.1-93-94.1-156.5-107-24.9-5.1-57.6-6.5-80-3.4zM252.7 95c1.5.6 13.7 12 27 25.2 21.9 21.9 24.2 23.9 24.8 21.7.3-1.3 1.2-7.1 2-12.8 1.5-11.2 3.1-14.4 6.3-12.5 2.1 1.4 2.6 3.3 5.3 21.4 1.2 8 2.3 14.7 2.5 14.9.1.2 5.4-3.4 11.6-8.1 18-13.3 17.5-13 19.8-11.8 1.1.6 2 1.7 2 2.4 0 1.2-11.9 18.3-19.2 27.6l-1.9 2.5 2.4.6c1.3.4 9.1 1.6 17.3 2.9 8.2 1.2 15.5 2.7 16.2 3.2 1.5 1.3 1.6 4.4.1 5.4-.9.5-23.7 4.4-26.4 4.4-.5 0 8.1 9.1 19.2 20.2 13 13 20.8 21.6 21.8 24 1.3 3.3 1.5 14.7 1.5 90.6v86.8l-2.2 4.4c-1.7 3.3-3.5 5.1-6.8 6.7l-4.4 2.3h-125c-122.6 0-125 0-129-2-2.3-1.1-5.2-3.6-6.6-5.7l-2.5-3.7-.3-86.8c-.2-61 .1-88.2.9-91.1.9-3.7 8.5-11.6 64.2-67.4 34.7-34.8 64.5-63.9 66.2-64.8 3.5-1.7 9.2-1.9 13.2-.5z"></path><path d="M304.1 211.6c0 1.1.3 1.4.6.6.3-.7.2-1.6-.1-1.9-.3-.4-.6.2-.5 1.3zM979.5 63.1c-6 .4-14.1 1.2-18 1.8-12.3 2-27.9 5.3-29.7 6.2-1.6.9-1.8 3-1.8 21.4V113h2.9c1.6 0 4.9-.9 7.4-2 6.7-3 23-7.8 30.1-9 13.4-2.2 33-.6 42 3.4 8.2 3.6 13.3 11.5 12.4 19.1l-.3 3-9 .7c-21.5 1.7-39.8 4.2-50 6.8-26.2 6.6-41.5 18.7-47.1 37.2-2.8 9.4-2.6 31 .5 39.3 6.9 18.9 23.5 32.2 43.5 34.5 20.7 2.5 39.4-3.3 56.1-17.3l6-5 .3 9.2.3 9.1h53.9v-62.4c0-68.5-.2-71.5-5.9-84-4.2-9.4-13.1-18.1-23.4-23-16.3-7.7-42.8-11.3-70.2-9.5zm45.5 115.2v18.4l-4 3.2c-2.2 1.8-6.6 4.4-9.8 5.9-4.9 2.2-7.1 2.6-15.7 2.7-8.7 0-10.6-.3-14.9-2.5-6.6-3.3-8.6-6.3-9.3-13.7-1.8-20.2 6.2-26.7 37.7-30.7 5.8-.8 11.7-1.4 13.3-1.5l2.7-.1v18.3zm140.5-113.4c-11.7 2.5-17.3 4.4-27 9.4-21 10.9-32.6 32-29.6 53.9 3.8 27.6 19.8 40.2 61.6 48.8 21.7 4.4 28.7 7.5 30.4 13.6 2.8 10-3.8 16.1-20.2 18.5-18.6 2.8-45.3-4.9-63-17.9-3.6-2.7-6.6-4.2-8-4-2.2.3-2.2.5-2.5 22.4-.2 16.9.1 22.4 1 23.2 2.6 2.1 14.4 6.2 26 9.2 22.8 5.7 52.8 6.1 71.8.9 10.2-2.8 24.3-9.8 31.4-15.6 15.1-12.2 22.2-32.3 18.2-51.3-2.3-10.7-5.7-16.9-13.1-23.8-10.2-9.6-19.4-13.3-48.9-19.7-17.3-3.7-25.3-6.8-28-10.7-1.9-2.7-2.1-10.6-.3-12.8 2.5-3.2 7.7-6 13.8-7.6 7.6-2 22.9-1.5 32.4 1.1 7 1.8 20 7.8 27.9 12.9 10 6.4 9.7 7.1 9.4-18.5l-.3-22.2-8.5-3.2c-14.6-5.7-27.1-7.8-47.5-8.1-14.6-.3-19.7 0-27 1.5zM791 154.7V242h54V125l2.8-1.1c7-2.7 20.4-6.1 26.5-6.8 6.7-.7 22.3 0 30 1.5l3.7.7-.2-25.9-.3-25.9-11 .1c-9.6.1-11.9.5-18.5 3.1-8.6 3.4-15.4 7.6-25.5 15.7l-7 5.6-.3-12-.3-11.9-26.9-.3-27-.3v87.2zm492 0V242h54V67.5h-54zM1048 413v121h29v-73.6l5.9-5.1 5.9-5.2 14.3 18.6c7.9 10.3 20.2 26.1 27.2 35.2 7 9.1 15.1 19.6 17.9 23.3l5.1 6.8h18.9c14.9 0 18.8-.3 18.2-1.2-.5-.7-12.3-15.7-26.3-33.2-14.1-17.6-31.8-39.7-39.5-49.3l-13.8-17.4 6.3-6.7c3.5-3.7 19.4-20 35.3-36.2l29-29.5-17.9-.3-17.9-.2-4.6 5c-2.5 2.7-17.8 19.1-34 36.4l-29.5 31.5-.3-70.4-.2-70.5h-29v121zM575.5 303.2c-.3.7-.4 52.8-.3 115.8l.3 114.5H618c36.8-.1 43.7-.3 51.5-1.9 12.6-2.5 19.8-5.1 29-10.4 17.2-10.1 28.9-26 32-43.7 5.9-33-6.9-58.8-34.5-69.8-3.5-1.4-6.6-2.9-6.7-3.4-.1-.4 2.5-2.4 5.9-4.3 12-6.9 22.3-21.2 24.7-34.4 2.2-12.1.6-26.8-4-35.7-3-6-12.3-14.8-19.6-18.7-14.1-7.4-30.1-9.1-87.1-9.2-25.7 0-33.4.3-33.7 1.2zm90.5 27.1c11.1 2.9 16.8 6.8 20.8 14.1 2.7 4.9 2.4 26.4-.5 32.7-4.1 8.9-13.8 15.7-25.8 18-3.5.7-16 1.2-30 1.2l-24 .1-.3-34.3-.2-34.3 27.2.5c19.3.4 28.9.9 32.8 2zm2.2 93.1c14.6 3.2 25.8 11.4 29.4 21.7 1.5 4.2 1.9 8.2 1.9 18.4 0 12-.2 13.4-2.7 18.8-3.3 7-10.9 14.6-18.2 18.2-10.7 5.2-14.1 5.7-44.3 6.2l-28.3.5V422h27.8c20 0 29.6.4 34.4 1.4zm257.6-66.9c-15 2.9-26.1 8.2-36 17.3-10.2 9.5-16.6 19.7-21.2 33.7-5.3 16-7.1 40.3-4.5 59.1 3.9 28 17.8 51.3 37.3 62.3 11 6.2 19.6 8.3 35.6 8.8 12.4.4 15.8.2 23.4-1.6 22.4-5.4 40.3-21 49.2-43.1 9.5-23.4 10.6-58.2 2.8-84-8.1-26.6-26.2-44.6-51.3-51.1-10.2-2.7-25.5-3.3-35.3-1.4zm24.3 24.9c15.9 3.4 26.6 12.9 32.1 28.5 4.2 12.2 5.1 19 5.1 37.6 0 16.1-.3 19-2.6 27.6-1.4 5.3-3.6 11.8-5 14.6-4.1 7.9-11.9 15.8-19.5 19.5-6.5 3.2-7 3.3-19.7 3.3-12.5 0-13.2-.1-19.7-3.2-11.7-5.5-19.5-15.7-24.4-31.8-2.7-8.6-2.8-9.9-2.8-30.5 0-19.2.2-22.4 2.2-29.5 5.7-20.5 16.6-32.3 33.4-35.9 8.3-1.8 12.9-1.9 20.9-.2zm307.2-24.9c-29.2 5.3-49.5 23.1-60.1 53-5.5 15.5-7.1 45.8-3.3 64 7 34.1 29 55.9 62.2 61.9 24.9 4.4 44.9 2.1 71.4-8.2l10-3.9.3-14.9c.1-8.1 0-15.4-.3-16.2-.4-1-1.7-.5-5.5 2.2-7 5-19.1 10.9-29 14.1-10.3 3.3-29 4.5-39.2 2.6-24.8-4.8-40.2-24-42.5-52.9l-.6-8.2H1341v-12.3c0-28-4.8-45.2-17-60.6-13.3-16.8-40.8-25.3-66.7-20.6zM1280 380c20.1 3.8 30 16.5 32.5 41.7l.6 6.3H1221v-2.3c0-1.2.7-5 1.5-8.5 6.3-26.8 30.3-42.4 57.5-37.2zm246.5-23.4c-18.9 3-35.3 12.6-43.6 25.5-10 15.7-9.7 39.5.7 54.6 7.7 11.2 19.8 17.3 45.6 22.8 34.8 7.5 41.6 12.6 40.6 30.6-.5 9.1-2.9 13.1-10.2 17.4-11.1 6.5-32.9 7.2-49.3 1.7-11.3-3.8-21-8.7-28.2-14.1-3-2.3-6-4.1-6.6-4.1-1.4 0-2.1 29.7-.8 31.6 2.1 2.9 22.5 10.5 35.6 13.1 11.6 2.4 33.7 2.3 44.2-.1 20.3-4.6 36.3-17.8 42.7-35.2 3-8.3 3-26.3 0-34.6-4.3-11.8-11.9-19.4-25-24.8-3.7-1.6-15.8-4.9-26.9-7.4-28.9-6.4-36.3-10.4-39.2-21.1-3.3-12.3 1-22 12.2-27.4 18.7-8.9 45.8-4.6 68.8 11 3.2 2.1 6 3.5 6.3 3.2.3-.4.6-7.3.6-15.3 0-10.6-.3-15-1.2-15.7-2.9-2.2-15-6.6-24.3-8.9-7.6-1.9-13.4-2.6-24.5-2.9-8-.2-15.8-.1-17.5.1zM762 447v87h29V410.1l5.6-4.6c7.2-5.8 12.2-8.7 20.9-12.2 6.5-2.5 8.1-2.7 21.8-2.7l14.7-.1v-29.4l-5.5-.6c-6.7-.9-17.1.6-24.6 3.4-6.4 2.4-21.2 11.9-28.1 18.1l-4.8 4.2V360h-29v87zm609 0v87h29V410.2l4.4-3.9c5.9-5.1 14.2-10 22.4-13.1 6-2.3 8.2-2.6 20.9-2.6 10.3-.1 14.4-.4 14.7-1.3.3-.7.4-7.2.3-14.5l-.2-13.2-3-.8c-7.4-2.2-22.6.7-34.1 6.5-5.3 2.7-20 13.2-22.3 16-.7.9-1.7 1.7-2.2 1.7-.5 0-.9-5.6-.9-12.5V360h-29v87z"></path></g></svg>