<svg xmlns="http://www.w3.org/2000/svg" viewBox="25 48 551 155"><g fill="none" fill-rule="evenodd"><path fill="#FFF101" d="M25 203h551V48H25z"></path><g fill="#005795"><path d="M50.008 122.45l7.351-4.88 7.348 4.88-14.699 9.76v-9.76zm70.543-50.747l-7.348 4.878-7.348-4.878 14.696-9.759v9.759zm0 37.084L85.28 132.21l-35.273-23.423 41.885-27.813 7.348 4.878-33.801 22.447 20.574 13.664 9.553-6.344-7.348-4.878 17.636-11.713 14.696 9.759zm-70.543-23.42l35.273-23.423 35.27 23.423-41.885 27.813-7.348-4.881 33.801-22.447L84.545 72.19l-9.553 6.344 7.348 4.878-17.633 11.713-14.699-9.76z"></path><path fill-rule="nonzero" d="M153.022 116.48c4.55 0 15.901-.416 15.901-10.942 0-5.629-1.987-9.588-9.623-10.473v-.105c5.858-.887 8.787-4.324 8.787-9.116 0-8.806-6.8-10.683-14.96-10.683h-19.09v41.318h18.985zm-8.264-24.383V81.52h6.642c3.608 0 6.172 2.24 6.172 5.262 0 4.011-3.243 5.263-5.595 5.263h-3.766l-3.453.052zm3.453 6.303h2.824c5.441 0 7.113 2.242 7.113 5.888 0 5.784-5.126 5.836-7.375 5.836h-6.014V98.452l3.452-.052zm64.017 18.133v-24.75h.104l11.35 24.75h11.401V82.665h-7.32v23.448h-.158l-11.037-23.448h-11.662v33.868h7.322zm40.953.938c8.315 0 12.918-2.97 12.918-12.191h-8.84c-.157 2.76.053 7.033-4.078 7.033-5.02 0-5.7-3.803-5.7-12.66 0-8.86.68-12.663 5.7-12.663 2.614 0 3.662 1.72 3.662 6.304h8.787c.365-7.399-3.348-11.462-12.447-11.462-14.802 0-14.802 8.702-14.802 17.82-.001 9.065-.001 17.819 14.8 17.819zm-75.943-.938l2.406-7.504h12.03l2.3 7.504h9.26l-11.402-33.868h-11.613l-11.663 33.868h8.682zm12.553-12.712h-8.42l4.026-14.642h.158l4.236 14.642zm93.358 8.49c-5.074 0-5.7-3.803-5.7-12.66 0-8.86.626-12.662 5.7-12.662 5.02 0 5.701 3.802 5.701 12.662 0 8.857-.68 12.66-5.7 12.66zm0 5.16c14.802 0 14.802-8.752 14.802-17.819 0-9.118 0-17.82-14.802-17.82-14.801 0-14.801 8.702-14.801 17.82 0 9.065 0 17.819 14.801 17.819zm231.176-.938V82.665h-8.787v33.868h8.787zm27.091 0v-5.16h-12.185V82.665h-8.788v33.868h20.973zm-141.684-.054c4.55 0 15.9-.415 15.9-10.889 0-5.679-1.987-9.639-9.625-10.525v-.105c5.859-.887 8.736-4.324 8.736-9.116 0-8.806-6.747-10.683-14.907-10.683h-19.09v41.318h18.986zm-8.267-24.33v-10.58h6.645c3.607 0 6.17 2.243 6.17 5.264 0 4.012-3.243 5.264-5.596 5.264h-3.765l-3.454.052zm3.454 6.303h2.824c5.44 0 7.111 2.24 7.111 5.888 0 5.784-5.124 5.888-7.374 5.888h-6.016V98.556l3.455-.104zm-77.042-10.629h4.551c6.172 0 6.172 5.47 6.172 11.724 0 8.546-1.046 11.776-6.433 11.776h-4.29v-23.5zm-8.89 28.656h14.488c15.115 0 14.123-11.93 14.123-17.14 0-10.577-2.145-16.78-13.81-16.78h-14.8v33.92zm46.444-4.115c-5.074 0-5.753-3.802-5.753-12.608 0-8.806.68-12.61 5.753-12.61 5.02 0 5.7 3.802 5.7 12.61 0 8.806-.68 12.608-5.7 12.608zm0 5.107c14.802 0 14.802-8.752 14.802-17.713 0-9.118 0-17.769-14.802-17.769-14.801 0-14.801 8.65-14.801 17.769 0 8.959 0 17.713 14.801 17.713zm110.461-13.34h-8.42l4.026-14.588h.106l4.288 14.588zm23.643 12.402c6.38 0 12.812-.782 12.812-9.534 0-10.629-16.789-9.118-16.789-15.528 0-2.344 1.569-3.594 4.29-3.594h11.403v-5.21h-12.397c-10.198 0-12.708 4.063-12.708 9.378 0 10.056 16.84 9.43 16.84 15.527 0 2.292-1.41 3.802-4.234 3.802H477.61l-9.675-28.707h-11.611l-10.304 29.908-6.33-12.348c4.92-.782 6.905-3.596 6.905-8.7.052-5.734-3.818-8.86-9.833-8.86h-17.627v33.867h8.84V87.88h5.23c2.772 0 4.602 1.824 4.602 5.158 0 2.813-1.674 5.105-4.342 5h-3.609l9.468 18.497h14.017l2.406-7.503h11.978l2.353 7.503h19.457v-.001z"></path></g><path fill="#005A9F" fill-rule="nonzero" d="M135.22 179.998l4.693-.545c.276 1.634.828 2.723 1.656 3.268.829.545 1.933 1.09 3.589 1.09s2.76-.273 3.589-1.09c.828-.817 1.104-1.362 1.104-2.179 0-.544-.276-1.089-.552-1.361-.276-.273-.828-.817-1.657-1.09-.552-.272-1.932-.544-3.864-1.089-2.485-.545-4.417-1.362-5.521-2.179-1.38-1.361-2.208-2.723-2.208-4.63 0-1.089.276-2.178 1.104-3.267.828-1.09 1.656-1.907 3.036-2.451 1.38-.545 2.76-.817 4.693-.817 3.036 0 5.245.544 6.625 1.906 1.38 1.362 2.208 2.996 2.484 5.174l-4.692.273c-.276-1.09-.552-2.18-1.38-2.724-.829-.544-1.657-.817-3.037-.817s-2.484.273-3.313.817c-.552.273-.828.817-.828 1.362 0 .545.276 1.09.828 1.362.553.544 2.209 1.089 4.417 1.634 2.208.544 4.14 1.089 5.245 1.634a5.38 5.38 0 012.484 2.45c.552 1.09.829 2.18.829 3.813 0 1.362-.277 2.724-1.105 3.813-.828 1.09-1.932 1.906-3.312 2.723s-3.037.817-5.245.817c-3.037 0-5.245-.817-6.901-2.178-1.656-1.362-2.485-2.996-2.76-5.72zm33.126 2.178l4.416.817c-.552 1.634-1.38 2.996-2.76 3.813-1.38.817-2.76 1.362-4.693 1.362-3.036 0-5.245-1.09-6.625-2.996-1.104-1.634-1.656-3.54-1.656-5.719 0-2.723.828-4.902 2.208-6.536 1.38-1.634 3.313-2.451 5.521-2.451 2.485 0 4.693.817 6.073 2.451 1.38 1.634 2.209 4.085 2.209 7.625H161.72c0 1.362.276 2.451 1.104 2.996.828.545 1.656 1.09 2.484 1.09.828 0 1.38-.273 1.933-.545.552-.273.828-1.09 1.104-1.907zm.276-4.63c0-1.361-.276-2.178-1.104-2.995-.829-.817-1.38-1.09-2.485-1.09-1.104 0-1.932.273-2.484 1.09-.552.817-.828 1.634-.828 2.996h6.9zm7.729 11.166l5.245.545c0 .545.276 1.09.552 1.362.552.272 1.104.544 1.932.544 1.104 0 2.209-.272 2.76-.544.277-.273.829-.545.829-1.09.276-.272.276-1.089.276-2.178V184.9c-1.38 1.906-3.037 2.723-5.245 2.723s-4.14-1.09-5.52-2.996c-1.105-1.634-1.657-3.54-1.657-5.719 0-2.723.828-4.902 2.208-6.536 1.38-1.634 3.037-2.178 5.245-2.178s3.865.817 5.245 2.723v-2.451h4.417v15.25c0 1.907-.276 3.541-.552 4.358-.276.817-.829 1.634-1.38 2.451-.553.817-1.38 1.09-2.485 1.362-1.104.272-2.208.544-3.865.544-3.036 0-4.968-.544-6.073-1.361a4.744 4.744 0 01-1.932-3.813v-.545zm4.14-9.804c0 1.907.277 2.996 1.105 4.085.828 1.09 1.656 1.362 2.484 1.362 1.104 0 1.933-.545 2.76-1.362.829-.817 1.105-2.178 1.105-3.812s-.276-2.996-1.104-3.813c-.828-.817-1.657-1.362-2.76-1.362-1.105 0-1.933.545-2.761 1.362-.828.817-.828 1.634-.828 3.54zm27.881 8.715v-2.451a6.488 6.488 0 01-2.484 2.179c-1.104.544-2.209.817-3.313.817s-2.208-.273-3.036-.817c-.828-.545-1.656-1.09-1.933-2.179-.276-1.09-.552-2.179-.552-3.813v-10.62h4.417v7.897c0 2.451 0 3.813.276 4.357.276.545.552 1.09.828 1.362.276.272 1.104.545 1.657.545.828 0 1.38-.273 2.208-.545.828-.272 1.104-.817 1.38-1.634.276-.817.276-2.179.276-4.63v-7.08h4.417v16.884h-4.14v-.272zm13.25 0h-4.416v-16.885h4.14v2.451c.828-1.09 1.38-1.906 1.933-2.178.552-.273 1.104-.545 1.932-.545 1.104 0 1.932.272 3.036.817l-1.38 3.813c-.828-.545-1.38-.817-2.208-.817-.552 0-1.104.272-1.656.544-.552.273-.829 1.09-1.105 1.907s-.276 2.723-.276 5.719v5.174zm8.558-19.336v-4.085h4.416v4.085h-4.416zm0 19.336v-16.885h4.416v16.885h-4.416zm25.12 0h-4.14v-2.451c-.829 1.09-1.657 1.634-2.485 2.179-.828.544-1.933.817-2.76.817-1.933 0-3.59-.817-4.97-2.451-1.38-1.634-2.208-3.813-2.208-6.536 0-2.996.552-5.175 1.932-6.536 1.38-1.362 3.037-2.18 5.245-2.18 1.933 0 3.589.818 4.97 2.452v-8.442h4.416v23.148zm-12.146-8.987c0 1.906.276 2.996.828 3.813.828 1.089 1.656 1.634 3.036 1.634 1.105 0 1.933-.545 2.76-1.362.83-.817.83-1.906.83-3.54 0-1.907-.277-3.268-1.105-4.085-.828-.817-1.656-1.362-2.76-1.362-1.105 0-1.933.545-2.761 1.362-.828.817-.828 1.906-.828 3.54zm19.876-2.723l-4.142-.817c.552-1.634 1.38-2.724 2.485-3.54 1.104-.818 2.76-1.09 4.969-1.09 1.932 0 3.588.272 4.416.817.828.545 1.657 1.09 2.209 1.906.552.817.552 2.179.552 4.085v5.175c0 1.361 0 2.723.276 3.268.276.544.552 1.361.828 2.178h-4.417c0-.272-.276-.817-.552-1.361 0-.273 0-.545-.276-.545-.828.817-1.656 1.362-2.484 1.634-.828.272-1.933.545-2.76.545a6.84 6.84 0 01-4.141-1.362c-1.105-.817-1.657-2.179-1.657-3.54 0-1.09.276-1.907.828-2.451.553-.545 1.105-1.362 1.933-1.634.828-.273 1.932-.817 3.588-1.09 2.209-.272 3.589-.817 4.417-1.089v-.545c0-.817-.276-1.361-.552-1.906-.276-.545-1.38-.545-2.484-.545-.829 0-1.38.273-1.933.545-.552.272-.828.545-1.104 1.362zm6.072 3.54c-.552.272-1.38.545-2.76.817-1.38.272-1.933.272-2.485.545-.552.544-.828.817-.828 1.634 0 .544.276 1.089.828 1.634.552.544 1.104.817 1.933.817.828 0 1.656-.273 2.208-.817.552-.273.828-.817 1.104-1.362 0-.272.276-1.09.276-2.179v-1.089h-.276zm24.844 8.17h-4.14v-2.451c-.829 1.09-1.657 1.634-2.485 2.179-.828.544-1.932.817-2.76.817-1.933 0-3.589-.817-4.97-2.451-1.38-1.634-2.208-3.813-2.208-6.536 0-2.996.552-5.175 1.933-6.536 1.38-1.362 3.036-2.18 5.245-2.18 1.932 0 3.588.818 4.968 2.452v-8.442h4.417v23.148zm-12.146-8.987c0 1.906.276 2.996.828 3.813.828 1.089 1.657 1.634 3.037 1.634 1.104 0 1.932-.545 2.76-1.362.828-.817.828-1.906.828-3.54 0-1.907-.276-3.268-1.104-4.085-.828-.817-1.656-1.362-2.76-1.362-1.104 0-1.933.545-2.76 1.362-.829.817-.829 1.906-.829 3.54zm26.5 3.54l4.417.817c-.552 1.634-1.38 2.996-2.76 3.813-1.38.817-2.76 1.362-4.693 1.362-3.037 0-5.245-1.09-6.625-2.996-1.104-1.634-1.656-3.54-1.656-5.719 0-2.723.828-4.902 2.208-6.536 1.38-1.634 3.312-2.451 5.52-2.451 2.485 0 4.694.817 6.074 2.451 1.38 1.634 2.208 4.085 2.208 7.625h-11.318c0 1.362.276 2.451 1.105 2.996.828.545 1.656 1.09 2.484 1.09.828 0 1.38-.273 1.932-.545.552-.273.828-1.09 1.104-1.907zm.276-4.63c0-1.361-.276-2.178-1.104-2.995-.828-.817-1.38-1.09-2.484-1.09s-1.932.273-2.485 1.09c-.552.817-.828 1.634-.828 2.996h6.901zM26 144.08h549.659v8.812H26z"></path></g></svg>