<svg xmlns="http://www.w3.org/2000/svg" viewBox="0 0.27654409408569336 1390.000244140625 374.5384216308594"><g fill="none"><path fill="#CB3C2E" d="M168.5.6c-15.6 1.7-35.7 6.8-51 13.1C46.1 42.8 0 110.9 0 187.5c0 50.6 19.3 96.7 55.6 132.9 26.8 26.8 59 43.7 98.2 51.7 14.4 2.9 43.1 3.6 58.7 1.5 64.1-8.9 117.7-47.8 145.4-105.6 12.8-26.8 18.1-50.2 18.1-80.4 0-31-6.1-56.9-19.8-84.2-26.8-53.2-76-89.7-136.4-101C211.7.8 177.4-.3 168.5.6zm59.8 70.9c8.6 2.2 14.9 5.8 22.1 12.6 11.5 10.7 16.1 21.6 16.002 37.4-.102 11.2-2.102 18.3-7.502 26.6-4.2 6.5-13.7 15.1-20.1 18.3-11.6 5.6-11.8 5.6-81 5.6H94V70h64.3c53.8 0 65.2.2 70 1.5zM255 189.4c16.9 5.6 30.1 16.6 36.9 30.9 4.6 9.7 6.1 16.1 6.1 26.4 0 27.2-20 51.6-46.8 57.2-3.6.7-29.5 1.1-81.2 1.1H94V186.9l77.8.3c72 .3 78.1.5 83.2 2.2z"></path><path fill="#000" d="M431 120.7c0 1.6-1.6 31-3.5 65.3s-3.5 64.4-3.5 66.8v4.5l29.3-.6c16.2-.3 31.4-1.1 34.2-1.7 9.2-2.2 18.9-7.5 24.3-13.5 18.1-19.8 14.9-48.4-6.5-57.2-2.4-1-4.3-2-4.3-2.3.1-.3 2.1-1.7 4.5-3.2 8.4-5.1 13.3-16.8 12.2-28.8-1.2-13.8-12-24.8-29.2-29.7-3.5-1-12.9-1.6-31.2-2l-26.3-.6v3zm46.5 23.4c2.1.6 5.4 2.6 7.2 4.4 2.8 2.8 3.3 4 3.3 8.3 0 10.1-7.6 16-22 16.9l-8.1.6.6-10.4c.3-5.7.8-12.8 1.1-15.7l.5-5.2h6.7c3.7 0 8.5.5 10.7 1.1zm3.7 54.4c10.9 3.8 14.9 15.3 8.8 25.3-3.4 5.5-9.4 7.6-23.4 8l-11.8.4.6-12.3c.4-6.8.9-15.1 1.2-18.3l.6-5.9 9.7.6c5.3.3 11.7 1.3 14.3 2.2zm70.8-12.1c-18.9 37.6-34.6 68.9-34.8 69.5-.3.8 4.5 1.1 15.6 1.1h16.1l7-14.5 7-14.5h59.6l5.4 14.5 5.3 14.5h16.4c9 0 16.4-.4 16.4-.9 0-.7-40-105.1-50.4-131.6l-2.4-6-13.3-.2-13.4-.3-34.5 68.4zm53.4-6.2c4.2 11.4 7.6 21 7.6 21.3 0 .3-8.5.5-18.9.5h-18.9l10.6-22c5.9-12 11-21.6 11.3-21.2.4.4 4.1 10 8.3 21.4zm75.6-60.6c0 1-1.6 30-3.5 64.4-1.9 34.4-3.5 64.9-3.5 67.7v5.3h15c11.2 0 15.2-.3 15.5-1.3.2-.6 1.1-14.9 2-31.7.9-16.7 1.7-30.6 1.9-30.7.2-.2 8.3 13.5 18.1 30.3 9.9 16.8 18.4 31.2 19 32 .8 1.2 4.3 1.4 19.2 1.2l18.2-.3-18-26.3c-9.9-14.4-17.8-26.6-17.5-27.1.3-.4 2.3-1.1 4.4-1.4 5.6-.9 15.4-6.2 21.1-11.3 3.4-3.1 6.3-7 8.8-12.2 3.7-7.4 3.8-7.9 3.8-18.6 0-9.9-.3-11.7-2.7-16.8-5-10.8-16.8-19.2-31.3-22.3-5-1.1-16-1.7-38.7-2.2-30.8-.6-31.8-.5-31.8 1.3zm57.1 22.8c12.1 2.8 16.9 8 16.9 18.3 0 10.7-4.8 17.1-15.9 21.4-4.9 1.8-18.7 3.9-26.5 3.9h-3.9l.7-15.3c.3-8.3.9-18.5 1.3-22.5l.6-7.2h10.6c5.8 0 13.1.6 16.2 1.4zm70.5-18.2c-.3 3.5-1.9 31.7-3.6 62.8-1.6 31.1-3.2 59.5-3.5 63.2l-.6 6.8h29.8c44.1 0 58-1.8 71.3-9.2 18.2-10.1 29.9-25.1 35.2-44.7 2.7-10 2.9-28.7.4-38.1-3-11.3-7.3-18.8-15.6-27-16.9-17-29.7-20-85.2-20h-27.6l-.6 6.2zm64.9 18.9c13.3 2.4 25.5 10.9 30.2 20.9 3.3 7.1 4.6 15.5 3.9 24.7-1.1 14.3-5.8 25.6-13.5 32.6-9.3 8.4-17.9 10.7-41.8 11.4l-18.3.5v-2.8c.1-2.2 4.8-86.9 5-88.2.1-.7 29.6 0 34.5.9zm89.1-22.9c-.3 1.3-1.9 28.8-3.6 61.3-1.7 32.4-3.3 62.7-3.7 67.2l-.6 8.3h86l.7-7.7c.3-4.2.6-9.8.6-12.5V232h-55.1l.6-8.8c.3-4.8.8-12.4 1.1-17l.6-8.2h54.5l.7-3.8c.3-2 .6-7.4.6-12V174h-55l.5-5.8c.3-3.1.7-10.1 1.1-15.5l.6-9.7h54.6l.5-3.3c.4-1.7.7-7.3.9-12.2l.2-9-42.7-.3-42.7-.2-.4 2.2zm112 4c-.4 3.5-2 31.7-3.6 62.8-1.6 31.1-3.2 59.5-3.5 63.2l-.6 6.8h80.8l.7-6.1c.3-3.4.6-9.1.6-12.5V232h-49.8l.5-7.8c1.7-26 5.9-104.8 5.6-105.5-.3-.4-7.1-.7-15.3-.7h-14.8l-.6 6.2zm99-4c-.3 1.3-1.9 28.8-3.6 61.3-1.7 32.4-3.3 62.7-3.7 67.2l-.6 8.3h106.9l7-14.5 6.9-14.4 30 .2 29.9.2 5.5 14.2 5.4 14.3h16.3c9 0 16.4-.3 16.4-.8 0-.4-11.9-31.5-26.4-69.2l-26.5-68.5-13.3-.3-13.3-.3-28.7 56.8-28.7 56.8-27.6.3-27.6.2.6-8.2c.9-12.8 5.5-97.8 5.5-102.1V118h-15c-14.7 0-15 0-15.4 2.2zm155.4 59.3c4 11 7.5 20.6 7.7 21.2.4 1-3.7 1.3-18.5 1.3h-19.1l10.7-22c5.8-12.1 10.9-21.7 11.2-21.3.4.5 4 9.8 8 20.8z"></path></g></svg>