<svg xmlns="http://www.w3.org/2000/svg" viewBox="71 72.04000091552734 1275.3231201171875 422.8500061035156"><path fill="#0168ab" fill-rule="evenodd" d="M289.031 244.44L71.001 371.572l73.736 123.318 197.054-67.38c30.713-10.502 70.457-53.646 55.212-111.98-13.314-50.946-62.055-72.917-107.972-71.09z"></path><path fill="#6babdb" fill-rule="evenodd" d="M289.031 244.44L71.001 371.572V72.04h148.1c49.904 0 91.064 24.842 103.737 67.713 13.556 45.855-11.684 91.788-33.807 104.688z"></path><path fill="#003e76" fill-rule="evenodd" d="M471.13 383.9c14.11.807 32.83.59 46.855.047 49.515-1.914 56.852-42.66 42.145-62.008-4.31-5.67-7.5-6.157-13.245-10.868l5.868-5.229c13.772-13.324 14.426-40.176-3.43-53.23-17.085-12.49-53.196-11-77.747-10.083zm239.839-.026l25.718.148.297-88.824c4.25 3.578 12.762 16.4 16.801 22.029l49.45 67.59 18.204.013.21-142.223-25.325-.17c-2.272 7.887.527 68.55-.872 85.263-4.812-4.897-11.265-14.674-15.534-20.63l-47.482-64.556-20.956-.045zm-140.36-.04l27.091.128a925.413 925.413 0 006.998-21.058c1.492-4.67 4.694-18.69 8.265-20.865l43.996.145 13.796 41.857 28.315-.005c-.695-6.159-31.865-91.992-36.637-105.505-3.898-11.035-9.665-24.981-12.375-35.772l-31.19-.167zm585.177-3.556c16.875 4.389 68.23 16.117 85.475 12.442l.053-23.897c-15.608-3.32-34.698-1.427-58.834-9.26l-.282-35.147 42.248-.475.107-23.547-42.25-.413-.094-32.69 54.694-.425.241-24.247-81.314-.089zm-306.04 3.763l81.01-.005.34-24.211-54.361-.193-.187-34.93c6.225-2.005 33.205-.332 42.24-.84l.132-23.643-42.147-.188-.183-33.139 54.267-.009.231-24.246-81.326-.121zm406.238-15.74l.024 24.722c22.647 1.741 53.043-3.565 69.06-13.575 16.394-10.246 29.923-32.804 14.443-56.056-11.646-17.493-34.248-20.06-50.55-32.5-9.385-7.16-9.972-20.466 2.417-25.357 13.92-5.495 23.113 3.409 31.425 7.332 3.916-4.931 13.878-12.802 16.19-18.314-9.05-6.11-13.796-11.412-29.114-13.775-12.852-1.983-26.53.692-35.946 6.28-19.23 11.415-26.647 39.406-8.6 59.502 5.41 6.023 16.6 12.004 26.547 16.505 9.19 4.158 23.084 9.184 25.01 19.176 4.85 25.153-41.26 23.998-60.906 26.06zm-293.093-16.393c-4.05 2.255-15.675 14.056-17.101 18.43 8.277 6.275 14.068 10.976 27.849 14.253 49.498 11.772 73.886-30.304 59.061-58.29-10.366-19.57-37.336-24.907-50.95-35.116-9.033-6.775-10.787-20.37 1.741-25.582 12.35-5.138 24.675 2.09 34.172 5.145l.194-25.866c-59.673-20.088-90.087 32.912-56.947 64.17 11.943 11.267 41.574 18.833 47.718 30.293 9.677 18.045-20.386 33.566-45.737 12.563zm75.967-85.174l35.09.177.093 117.83 26.494.147.362-117.89 34.975-.125.226-24.214-97.246-.128zm-541.313 93.764c44.739 9.003 53.843-27.772 28.925-35.844-6.094-1.974-22.908-3.206-28.9-1.166zm.005-58.798c17.042.064 37.717.516 38.51-17.699.868-19.965-21.898-18.42-38.419-18.358zm121.3 17.503l30.487.122c-1-6.25-8.131-26.48-10.826-34.866-1.362-4.238-2.338-9.241-4.906-11.905z"></path><path fill="none" d="M144.737 494.89V244.44H289.03"></path><path fill="#27aa38" fill-rule="evenodd" d="M144.737 494.89V328.577L71 371.572z"></path><path fill="#003e77" fill-rule="evenodd" d="M144.737 328.577L289.03 244.44H144.737z"></path></svg>