<svg xmlns="http://www.w3.org/2000/svg" viewBox="0.2959713041782379 0.5900000333786011 175.72720336914062 133.4980010986328"><path fill="#006737" fill-rule="evenodd" d="M52.262.59h71.794v71.795H52.262V57.037c9.1 1.643 18.367 3.99 30.965 2.135 25.941-3.82 30.995-23.58 30.995-23.58-22.506 19.128-40.251 11.65-61.96 7.205v-4.58c14.866-2.871 24.47 4.779 42.205 2.167 21.053-3.1 25.155-19.137 25.155-19.137-19.393 16.483-34.43 8.622-53.587 5.212-5.991-1.066-10.46-.037-13.773 1.881V.59zm16.736 25.142s2.496-12.5 15.785-10.135c13.289 2.366 23.72 7.818 37.173-3.616 0 0-2.846 11.125-17.45 13.276-14.604 2.15-21.258-5.731-35.508.475zM.763 133.331c.972.141 1.975.226 3.488.335 1.629.117 3.552.176 5.76.186 2.62 0 4.926-.147 6.909-.422 1.982-.275 3.69-.687 5.122-1.217 1.423-.539 2.621-1.187 3.573-1.953a11.594 11.594 0 002.168-2.276 10.334 10.334 0 001.433-2.826c.344-1.031.52-2.16.52-3.376-.01-1.698-.363-3.2-1.04-4.505a9.516 9.516 0 00-2.787-3.297c-1.187-.883-2.542-1.521-4.063-1.914v-.117c1.492-.58 2.718-1.306 3.68-2.169.972-.874 1.688-1.835 2.159-2.905a8.355 8.355 0 00.697-3.347c-.01-1.216-.206-2.325-.609-3.326a8.168 8.168 0 00-1.648-2.63 9.207 9.207 0 00-2.454-1.875 14.228 14.228 0 00-3.14-1.344c-1.128-.324-2.394-.56-3.798-.697-1.413-.137-3.022-.196-4.838-.196a88.41 88.41 0 00-8.557.422 38.95 38.95 0 00-2.604.331.526.526 0 00-.438.524v38.101c0 .215.182.452.467.493zm8.424-33.1c.343-.059.814-.118 1.423-.167a38.41 38.41 0 012.404-.068c2.041 0 3.611.392 4.701 1.167 1.099.776 1.648 1.924 1.658 3.425 0 .992-.275 1.845-.814 2.572-.55.735-1.355 1.295-2.434 1.707-1.07.402-2.404.599-3.994.608H9.187v-9.244zm0 15.663h3.061c1.129 0 2.179.098 3.151.304.971.216 1.825.539 2.561.981a4.914 4.914 0 011.727 1.717c.412.707.618 1.551.628 2.532-.01 1.041-.216 1.934-.628 2.67a4.964 4.964 0 01-1.678 1.786c-.706.451-1.521.785-2.434 1.001a12.75 12.75 0 01-2.914.314c-.756 0-1.423 0-1.983-.01a15.445 15.445 0 01-1.491-.108v-11.187zm48.729.53c.01-1.718-.196-3.327-.618-4.829a10.503 10.503 0 00-2.08-3.974c-.972-1.148-2.257-2.041-3.886-2.689-1.62-.648-3.622-.982-6.016-.991-1.747.009-3.347.147-4.789.422-1.433.274-2.689.608-3.769 1.001-.888.323-1.651.633-2.257.96a.539.539 0 00-.256.615l1.341 4.695c.096.334.473.49.761.334a13.7 13.7 0 011.677-.756 17.926 17.926 0 012.748-.785 15.035 15.035 0 012.954-.304c1.099.01 1.992.128 2.679.363.697.236 1.227.55 1.6.923.373.382.628.785.765 1.226.138.432.206.854.196 1.257v.353c-2.551 0-4.867.226-6.938.667-2.07.452-3.847 1.129-5.328 2.032-1.482.912-2.63 2.051-3.425 3.434-.795 1.384-1.198 3.013-1.207 4.878 0 1.158.216 2.267.638 3.317a8.531 8.531 0 001.825 2.816c.805.834 1.776 1.482 2.924 1.963 1.148.481 2.454.726 3.916.736 1.717 0 3.287-.304 4.7-.903a9.27 9.27 0 003.543-2.63h.177v2.353c0 .246.197.532.531.532h8.065a16.07 16.07 0 01-.274-1.904 50.096 50.096 0 01-.157-2.394 75.79 75.79 0 01-.04-2.65v-10.068zm-8.655 6.535c0 .265-.01.53-.039.785a5.65 5.65 0 01-.138.746 4.656 4.656 0 01-.981 1.668 5.175 5.175 0 01-1.629 1.178 4.869 4.869 0 01-2.041.451c-.678 0-1.276-.127-1.806-.372a2.882 2.882 0 01-1.256-1.139c-.304-.5-.461-1.138-.471-1.904.019-1.128.392-2.031 1.119-2.698.735-.658 1.727-1.139 2.983-1.423 1.256-.285 2.669-.422 4.259-.412v3.12zm13.944 10.482h7.867a.541.541 0 00.542-.531l-.002-16.074c0-.422.02-.825.059-1.207.039-.393.118-.736.235-1.031a5.75 5.75 0 01.933-1.599 4.725 4.725 0 011.511-1.257c.608-.323 1.325-.49 2.149-.5 1.08.01 1.953.275 2.62.795.668.52 1.148 1.246 1.463 2.178.304.933.46 2.017.451 3.264v15.433c0 .302.247.528.529.528h7.88a.534.534 0 00.541-.529v-16.487c-.01-2.12-.265-3.955-.785-5.516-.511-1.56-1.227-2.855-2.159-3.876a8.711 8.711 0 00-3.268-2.287c-1.246-.5-2.611-.745-4.092-.745-1.207.009-2.297.166-3.258.461a9.994 9.994 0 00-2.552 1.158c-.736.471-1.364.971-1.874 1.511a8.994 8.994 0 00-1.207 1.521h-.177l.001-3.456c0-.422-.357-.548-.537-.548h-7.648l.166 2.541c.1 1.518.069 2.562.069 4.357v21.358c0 .334.261.538.543.538zm57.098-11.997a20.771 20.771 0 00.215-3.077c0-1.433-.147-2.846-.441-4.23a15.574 15.574 0 00-1.394-3.906 11.815 11.815 0 00-2.463-3.229c-1.011-.932-2.218-1.658-3.631-2.188-1.413-.54-3.052-.805-4.907-.814-2.002.009-3.788.314-5.358.893-1.57.588-2.934 1.393-4.082 2.414a13.936 13.936 0 00-2.866 3.493 16.5 16.5 0 00-1.688 4.161 18.262 18.262 0 00-.549 4.407c.01 3.012.618 5.623 1.815 7.801 1.197 2.189 2.934 3.877 5.221 5.064 2.286 1.178 5.064 1.776 8.332 1.796 1.952 0 3.805-.159 5.564-.452a22.114 22.114 0 004.435-1.202c.276-.108.392-.405.34-.599-.321-1.679-.652-3.356-.978-5.034-.082-.421-.455-.479-.684-.417a22.257 22.257 0 01-3.162.746c-1.295.207-2.699.304-4.22.304a13.02 13.02 0 01-3.003-.333c-.942-.226-1.796-.56-2.542-1.011a5.56 5.56 0 01-1.796-1.708c-.461-.687-.716-1.501-.785-2.424h18.103a.533.533 0 00.524-.455zm-18.686-5.668a8.13 8.13 0 01.432-1.904 7.073 7.073 0 011.011-1.894 5.17 5.17 0 011.668-1.452c.678-.373 1.482-.57 2.424-.579 1.021.009 1.865.215 2.532.598.658.393 1.178.893 1.551 1.502.363.598.628 1.236.775 1.894.147.667.216 1.275.206 1.835h-10.599zm22.357 16.436c1.037.516 2.263.945 3.694 1.287 1.6.383 3.347.579 5.251.589 2.747-.02 5.044-.422 6.889-1.227 1.835-.795 3.218-1.894 4.141-3.297.932-1.404 1.393-3.013 1.393-4.838-.009-1.394-.284-2.64-.824-3.749-.54-1.099-1.374-2.081-2.512-2.934-1.139-.844-2.62-1.58-4.436-2.208-1.168-.403-2.09-.776-2.777-1.109-.677-.334-1.168-.677-1.452-1.021a1.794 1.794 0 01-.422-1.227c.009-.716.304-1.275.893-1.678.588-.402 1.423-.608 2.522-.618.814.01 1.619.098 2.404.265.785.177 1.511.393 2.179.638.397.152.753.301 1.069.448a.53.53 0 00.753-.365l1.317-5.317c.04-.164-.079-.268-.151-.302-.869-.418-1.942-.779-3.234-1.088-1.393-.334-2.934-.501-4.632-.52-1.786.009-3.395.245-4.838.716-1.433.471-2.669 1.138-3.69 1.992-1.03.854-1.815 1.855-2.355 3.003-.549 1.148-.824 2.404-.834 3.769-.03 1.148.235 2.247.775 3.316.55 1.07 1.433 2.052 2.65 2.964 1.217.913 2.826 1.698 4.818 2.375 1.09.363 1.943.707 2.552 1.03.608.314 1.03.658 1.276 1.021.245.373.363.805.353 1.305.01.746-.285 1.315-.893 1.727-.609.413-1.59.619-2.934.628a14.187 14.187 0 01-2.807-.323 20.753 20.753 0 01-2.768-.805c-.591-.215-1.121-.417-1.559-.67-.243-.14-.651-.011-.745.338l-1.321 5.284a.536.536 0 00.255.601zm51.833-10.768a20.771 20.771 0 00.216-3.077c0-1.433-.147-2.846-.442-4.23a15.533 15.533 0 00-1.393-3.906 11.815 11.815 0 00-2.463-3.229c-1.011-.932-2.218-1.658-3.631-2.188-1.413-.54-3.052-.805-4.907-.814-2.002.009-3.788.314-5.358.893-1.57.588-2.934 1.393-4.083 2.414a13.931 13.931 0 00-2.865 3.493 16.463 16.463 0 00-1.688 4.161 18.263 18.263 0 00-.55 4.407c.01 3.012.619 5.623 1.816 7.801 1.197 2.189 2.934 3.877 5.221 5.064 2.286 1.178 5.064 1.776 8.331 1.796 1.953 0 3.806-.159 5.565-.452a22.114 22.114 0 004.435-1.202c.275-.108.392-.405.34-.599-.321-1.679-.652-3.356-.978-5.034-.082-.421-.455-.479-.684-.417a22.257 22.257 0 01-3.162.746c-1.295.207-2.699.304-4.22.304a13.02 13.02 0 01-3.003-.333c-.942-.226-1.796-.56-2.542-1.011a5.56 5.56 0 01-1.796-1.708c-.461-.687-.716-1.501-.785-2.424h18.103a.532.532 0 00.523-.455zm-18.685-5.668a8.13 8.13 0 01.432-1.904 7.073 7.073 0 011.011-1.894 5.17 5.17 0 011.668-1.452c.677-.373 1.482-.57 2.424-.579 1.021.009 1.865.215 2.532.598.657.393 1.178.893 1.551 1.502.363.598.628 1.236.775 1.894.147.667.216 1.275.206 1.835h-10.599z"></path></svg>