<svg xmlns="http://www.w3.org/2000/svg" viewBox="0.7279999852180481 0.34780168533325195 381.646728515625 137.1486053466797"><defs><linearGradient id="fnba7243da0dma" x1="-252.479" x2="-251.449" y1="404.012" y2="404.012" fill="#000" stroke="none" stroke-width="1" gradientTransform="matrix(379.78711 0 0 -136.56364 95877.636 55400.768)" gradientUnits="userSpaceOnUse"><stop offset="0" stop-color="#FF8700"></stop><stop offset="1" stop-color="#FF500F"></stop></linearGradient></defs><path fill="#9c9b9b" d="M124.506 22.506c-3.439 0-6.495-2.674-6.495-6.112v-.382c0-3.439 2.674-6.495 6.495-6.495 3.82 0 6.494 3.056 6.494 6.495 0 3.82-2.674 6.494-6.494 6.494zm0-14.517c-4.967 0-8.405 3.82-8.405 8.023 0 4.202 3.438 8.022 8.405 8.022 4.966 0 8.404-3.82 8.404-8.022 0-4.203-3.438-8.023-8.404-8.023zm-22.922 12.225l1.146 1.146c-1.528 1.528-3.438 2.674-6.495 2.674-4.584 0-8.404-3.438-8.404-8.022 0-4.585 3.438-8.023 8.404-8.023 3.057 0 4.585 1.146 6.495 2.292l-1.146 1.146c-1.528-.764-3.056-1.528-5.349-1.528-3.82 0-6.494 2.674-6.494 6.495 0 3.82 2.674 6.494 6.494 6.494 2.293-.382 3.82-1.146 5.349-2.674zM71.02 8.37h1.91v15.663h-1.528L60.707 11.427v12.607h-1.91V8.371h1.91L71.02 20.978zm-38.967 9.933l3.82-8.023 3.821 8.023h-7.64zM35.11 8.37l-7.64 15.663h1.91l1.91-4.202h8.786l1.91 4.202h1.91L36.256 8.37H35.11zM7.987 22.506H2.638v-5.73h5.349c2.674 0 4.202 1.146 4.202 2.674 0 1.91-1.528 3.056-4.202 3.056zM2.638 9.9h4.967c2.292 0 3.82 1.146 3.82 2.674 0 1.91-1.528 2.674-3.82 2.674H2.638zm7.64 6.113c1.529-.765 2.675-1.529 2.675-3.82 0-2.293-2.292-3.821-5.348-3.821H.728v15.663h7.259c3.438 0 6.112-1.528 6.112-4.202 0-2.292-1.528-3.438-3.82-3.82z"></path><path fill="url(#fnba7243da0dma)" d="M176.633 159.348v39.133h31.913v23.935h-31.913v36.472c0 7.979 3.799 11.398 11.397 12.158 8.739 1.14 15.577-2.66 20.516-4.939l.76-.38 9.878 21.276-.38.38c-12.917 6.458-20.896 8.358-30.774 8.358-23.935 0-36.852-13.297-36.852-37.233v-85.862zm144.37 41.792h-.38v91.562h25.456v-71.426c3.04-.38 6.079-.76 12.157-.76 6.08 0 9.878.76 14.058 1.9h.38l7.598-23.556h-.76c-7.598-1.9-13.677-2.659-23.555-2.659-9.498 0-24.315 1.14-34.953 4.939zm-101.819 45.59c0-31.533 14.437-50.529 43.692-50.529 28.874 0 44.45 15.957 44.45 47.49l-42.93 20.896-11.019-20.896 27.355-14.057c.38-6.078-7.599-9.878-17.477-9.498-11.397.76-17.856 6.079-17.856 25.455 0 18.996 9.118 25.455 22.795 25.455 12.158 0 23.936-1.9 30.014-3.8h.38l7.599 22.796h-.38c-10.258 3.42-23.935 4.94-37.613 4.94-32.293 0-49.01-16.338-49.01-48.251zM50.118 201.14h-.38v91.562h25.455v-71.426c4.56-.76 7.978-.76 14.817-.76 12.538 0 18.616 5.319 18.616 15.957v56.609h25.455v-55.09c0-26.214-15.956-41.791-42.171-41.791-15.197 0-32.294 1.9-41.792 4.939zM.728 292.702h25.455V198.48H.728z" transform="translate(-.004 -159.883) scale(1.00554)"></path></svg>