<svg xmlns="http://www.w3.org/2000/svg" viewBox="0.1507585048675537 0.33220958709716797 326.728759765625 655.3042602539062"><g fill="#4486F3"><path d="M12.77 366.75c0-7.35-.09-14.7 0-22.05 1.56-111.26.24-222.52.7-333.77C13.52-1.33 12.01.44 24.17.4c30.5-.08 60.993-.08 91.48 0 80.73.3 149.22 60.67 159.82 140.91 5.65 42.73-4.23 81.74-29.18 116.8-46 64.7-92.39 129.18-138.37 193.92-16.08 22.66-18.18 47.24-5.69 72 12.41 24.59 33.69 37.31 60.94 37.45 26.88.14 48.19-12 60.92-36.12 13.12-24.81 11.38-49.55-4.52-72.79-10.87-15.88-22.25-31.42-33.65-46.92-2.76-3.75-3.48-6.47-.23-10.4a193.37 193.37 0 0012.62-17.58c2.7-4.12 4.36-3.34 6.85.19 14.17 20.1 29.09 39.7 42.64 60.21 41.59 63-.33 148.68-75.32 154.63-59.09 4.69-108.39-39.47-109.67-99-.35-16.4 3.22-32.08 12.59-46.44 35.8-54.88 74.69-107.62 111.67-161.68 13.28-19.42 26-39.19 39.24-58.67 23.48-34.65 24.24-71.91 10.54-109.6-19.52-53.7-68.56-86-126.06-85.45-18.19.19-36.38 0-54.57.06-13.6.07-11.69-1.64-11.7 12.09-.047 90.973-.003 181.913.13 272.82a23.13 23.13 0 01-4.74 14.76c-8.7 11.7-17 23.69-25.49 35.56l-1.65-.4z"></path><path d="M76.77 279.56c-2.32-2.65-1.48-4.88-1.48-6.87-.06-67.14 0-134.28-.18-201.42 0-6.4 1.24-9.06 8.25-8.62 16.51 1.05 33.15-1.39 49.6 1.85 71.71 14.1 105.17 96.74 62.91 156.52-45.667 64.62-91.667 129-138 193.14-58.46 80.87-12.64 193.86 86 208.29 54.45 8 99.73-11.75 129.79-58.42 30.06-46.67 29.47-95.71-.08-142.91-15-24-32.46-46.44-49.12-69.36-3.06-4.21-3.35-6.93.07-11a172.73 172.73 0 0012.12-16.93c2.3-3.5 3.66-4.62 6.65-.37 19.08 27.11 39.33 53.44 57.45 81.16 63.94 97.81 4.27 231.15-111 249-91.91 14.27-177.09-48.73-188.3-140.45-5.14-42.34 4.98-81.63 30.2-116.74A45059.407 45059.407 0 00169.72 203.3c29.14-41 7.21-96.79-42-107.64-19.26-4.25-20.7-3.11-20.7 16.33 0 39.32-.08 78.64.09 118a20.93 20.93 0 01-4.27 13.3c-8.75 11.86-17.26 23.97-26.07 36.27z"></path></g></svg>