<svg xmlns="http://www.w3.org/2000/svg" viewBox="69.50001525878906 67.5 360.99993896484375 365"><path fill="#faaf18" d="M341.2 118.9c.8-2.1-.9-4.1-.9-4.1s-13.6-23.1-61.5-28.2c-25.7-2.7-60.7 2.5-85.2 15.7-44.4 23.9-51.1 63.3-51.1 63.3-.2 1-.7 3.9.3 5.2 1 1.3 2.5 1.3 4.3.6 15.7-5.3 62.4-20.8 91.9-28.6 42-11.1 76.4-17.9 98.5-21.7 1.7-.2 3.2-.7 3.7-2.2"></path><path fill="#185494" d="M389.1 304.7c-25.1 56.4-73.3 95.6-136.4 96.5-46 .7-86.5-15.1-115.8-42.6l-17.7 7.6v-27.4c-19.3-26-30.5-59-30.5-96.4C88.7 146.5 162.1 71 264.5 71c16.7 0 31.8 2.6 43.2 5.2-17.5-5.6-35-8.7-54.4-8.7-109.9 0-183.8 89.1-183.8 181 0 100.1 78.6 184 181.7 184 98.5 0 151.6-69.4 168.6-111.2l-30.7-16.6"></path><path fill="#ed1d21" d="M363.7 284.9c14.5-1.6 24.4-7.4 29.9-12.8 5-4.9 6.2-11.7 6.2-16.7.2-7.4 0-30.7 0-30.7l-38.2 8.3v8.9c.1 5.9 2.9 9.1 9.1 8 1.9-.3 4.9-1.3 4.9-1.3l.1 7.3c0-.2.6 4.1-9.1 6-12.6 2-18.3-5.8-18.5-19.5.2-14.7 8.6-23.2 18.6-25.5 11.3-2.6 17.8.1 21.5.7 12.7 1.9 16.3-17.1 4.7-21.5-8.5-3.4-19.6-4.1-30.1-1.9-14.1 2.8-41.7 14.6-41.8 52.8.1 30.3 22.5 40.2 42.7 37.9"></path><path fill="#ee1c23" d="M239.4 317.5s11.7-4 12.7-4.4c9.4-3.3 12.9-8.9 12.8-18.6-.1-10.5-.1-31.1-.1-31.1l27.3 31.4c4.4 4.6 10 5 15.1 3.5 5.3-1.5 9.6-6.3 9.8-13.1v-78.1s-7.1 1.5-12.9 3.2c-6.7 1.9-11.9 6.2-11.9 17.5v27s-15.4-19.3-25.4-29.3c-5.4-5.4-14.3-2.2-14.3-2.2l-13.1 4v90.2"></path><path fill="#ed1c23" d="M231.1 229.4s-8.2 2.4-14.9 4.8c-8.7 3.1-13.7 8.2-13.7 21.3v74.9s7.6-2.6 14.7-5.3c10.1-3.8 13.9-9 13.9-19.6v-76.1"></path><path fill="#ee1d23" d="M190.3 247.2c-7.5-3.4-14 .4-16.8 4.6l-23.2 39.4v-31.8L123 270.8l-.1 89.9 19.2-8.1s3.8-1.1 6.1-4.7c2.1-3.3 2-8.8 2-8.8v-28.5l21.5 22.8c4.7 4.9 13.4 7.4 21.1 1.2 6.9-5.6 5.9-15.1 2-19.4l-19.6-19.7s17.2-27.2 20.1-31.7c3.7-6 1.9-13.5-5-16.6"></path><path fill="#faaf18" d="M179.6 352.8c-1 2.3 1.3 4.7 1.3 4.7 9.9 12.5 54.1 28.3 102 16.7 73.2-17.7 88.7-69.5 90.4-76.8.4-1.5.6-3.9-.7-5.3-1.2-1.2-2.8-1.2-5.1-.7-50.8 12-135.5 37.8-184.2 58.7-2.1.9-3 1.2-3.7 2.7"></path><path fill="#ee1c23" d="M136.2 235c-.1-5-3.9-7.7-10.6-4.3v15.9s2.2-1 3.7-1.7c3.9-1.7 7-5 6.9-9.9m-10.7-14.4c1.2-.5 2.1-.9 3.1-1.3 3.6-1.8 6.2-5 6.2-9.2 0-4.8-3.9-6-9.2-3.3l-.1 13.8zm28.2 12.2c.2 12.6-8.8 19.3-20.6 24.1l-24.2 10.3-.1-65.5s15.2-6.2 20.2-8c14.1-5.1 22.4 1.1 22.4 10.5 0 6.3-2.7 11.6-8.5 16.3 5.7 1 10.7 5.7 10.8 12.3z"></path><path fill="#ed1d1f" d="M199.5 177.5c0-5.5-3.8-7-8.4-5.7-3.7 1.1-8 2.7-8 2.7v40.7c0 4.1-.7 9.1-5.7 10.4-3.8 1-5.6-1.6-5.6-5.6l-.1-33.3c0-5.5-3.9-7.2-8.4-5.7-5.1 1.7-8.2 3-8.2 3s.1 28.8 0 40.3c-.1 13.5 9.2 20.3 23.4 16.1 12.5-3.7 20.9-10.7 21-28.7v-34.2"></path><path fill="#ee1c23" d="M333.8 194.3c3.6-.8 5.9-3.3 5.9-7.7v-7l-19.6 4.3v-11.5s9.6-2 12.3-2.6c3.4-.7 5.1-2.6 5.1-6.4v-6.7l-17.4 3.7v-9.1s9-1.9 13.9-2.9c3.8-.8 5-3.4 5-7v-6.9c-8.7 1.5-25.1 4.8-35.4 7.2l-.1 59.7c.1-.1 19.6-4.7 30.3-7.1"></path><path fill="#ee1d23" d="M220.6 191.9s9.7-5 9.6-12.9c-.1-6.8-6.3-5.3-9.6-4.1v17m0 9.2v16c0 4.3-3 7.4-6.7 8.9 0 .1 0-.1 0 0-3.1 1.1-9.8 3.4-9.8 3.4V168s13.7-4.8 21.8-6.6c12.5-2.9 21.4 2.8 21.3 12.9-.1 9.6-5.5 15.5-10.3 19.5l10.6 10.2c3.3 3.2 3.5 8.9-.2 12.3-2.2 2-8 4.2-12.5-.5l-14.2-14.7zm138.7-42.2s9.6-3.6 9.5-11.3c-.1-6.5-6.5-5.3-9.5-4.6v15.9m-16 33.6v-58.9s17.2-3 21.6-3.6c12.3-1.6 20.6 5.3 20.4 15-.1 8.6-5.4 13.7-10 16.8 0 0 8.4 9.5 10.6 12 3 3.4 2.9 9.1-1.6 12-4.4 2.8-8.7 1.3-11.3-1.5L359.3 168v14.4c0 4.3-2.6 7.5-7.1 8.4l-8.9 1.7z"></path><path fill="#ee1d23" d="M299.7 167.8l-24.4 5.5v6.8c0 3.2 2.2 5.2 5.4 4.5 2-.4 3.6-.8 3.6-.8v6.8c0 2.7-4 4.4-8.2 4.3-5.9-.2-9.1-4.7-9.2-13.4.2-11.4 5.5-18.1 12.8-19.9 3.6-.9 7-.5 9.5-.1 6.3 1 9.9-2 10-7.2.1-5.6-4.8-9-15.4-8.6-23 .8-34.7 17.3-34.7 37 0 20.2 13.2 29.1 29.3 26.2 9.1-1.8 13.6-4.8 16.7-7.5 3.1-2.7 4.4-6.9 4.4-10.4l.2-23.2"></path><path fill="#fff" d="M203.5 101.8c-26.9 11.9-45.1 40.2-46.1 52.1-.4 4.8 5.9 5.4 6.5.4 5.7-21.8 23.1-42.4 39.6-52.5m89.2 20.3c14.5-3.6 22.5-4.1 22.6-10.6.3-10.9-30.7-23.4-59.1-21.2 28.9 1.9 46.2 13.1 46.3 20.8.2 5-4.1 9.3-9.8 11m9 240c21.8-8.6 42.7-24.9 54.3-49.4 3.3-7.1-6.3-10.7-9-2.4-6.8 17.4-20.7 37.9-45.3 51.8"></path><path fill="#ee1d23" d="M411.4 288.5h3c1.6 0 3.7.3 3.7 2.2 0 2.2-1.5 2.5-3.5 2.5h-3.2v-4.7m-3.5 15h3.5v-7.6h2.2l4.3 7.6h3.7l-4.8-7.8c2.6-.2 4.7-1.5 4.7-4.8 0-3.9-2.5-5.3-7-5.3h-6.7l.1 17.9zm-10-8.9c0 9.7 7.7 15.9 16.3 15.9 8.6 0 16.3-6.2 16.3-15.9 0-9.6-7.7-15.8-16.3-15.8-8.6 0-16.3 6.2-16.3 15.8zm4.3 0c0-7.2 5.3-12.4 12-12.4 6.6 0 12 5.2 12 12.4 0 7.3-5.4 12.5-12 12.5-6.7.1-12-5.2-12-12.5z"></path></svg>