<svg xmlns="http://www.w3.org/2000/svg" viewBox="17.49388313293457 179.5648193359375 464.9622497558594 140.77325439453125"><path fill="#1e0293" d="M194.5 241.3c4.7.3 8.3 2.5 9.9 7.1 2 5.9 1.4 11.6-2.7 16.6-2.5 3.1-5.9 4.8-9.4 6.3-.1.9.7 1 1.1 1.2 9.7 6 13.3 14.6 11 26.6-2 10.4-9.8 18.4-20 20.2-8.7 1.6-17.6.9-26.4.8-4 0-6-2.9-5.5-7.1 1.5-12.9 3.1-25.8 4.8-38.7.4-3.1.3-4.4-3.5-4.6-23.1-1.3-46.2-1-69.2 1.7-15.8 1.9-31 5.9-44.9 14.1-1.4.8-2.8 1.8-4 2.9-8.9 7.5-10.5 16.7-4.9 27 .7 1.2 2.2 2.2 1.7 4.4-6.5-5.5-11.9-11.5-14.2-19.6-2.6-9 1.2-18.2 9.8-24.2 8.4-5.8 18.1-8 27.9-9.9 5.9-1.1 11.8-2 17.8-2.4 2.8-.2 3.7-1.3 3.9-3.8 1.8-15.6 3.7-31.2 5.6-46.7 1.2-9.9 2.5-19.7 3.6-29.6.2-2.1.9-2.7 3-2.7 6.9 0 10.4 2.4 12.6 9.4 4.4 13.7 8.6 27.4 12.9 41.1l1.2 3.6c1.4-.1 1.5-1.3 2-2.1 8.9-15.4 17.9-30.9 26.8-46.4 2.5-4.4 5.9-6.7 11.1-6.5 2.6.1 2.9 1 2.6 3.2-3 24.8-5.9 49.6-8.9 74.4 0 .3-.1.5-.1.8-.7 5.5 1.8 7.6 7.3 6.2 1.7-.4 1.3-1.8 1.4-2.7.7-5.6 1.3-11.1 1.9-16.7.1-1.3 0-2.6.7-3.7 11-.7 22-.8 33.1-.2z"></path><path fill="#1e0393" d="M239.9 241.3c6.1.9 10.1 4.3 11 9.5 1.2 6.4-1.7 13.5-7.3 16.4-2.4 1.2-2.7 2.1-1.4 4.4 3.4 6 6.5 12.1 9.7 18.2.1.2.3.3.8.7 3.8-7.6 7.6-15 11.4-22.5 3.7-7.4 7.4-14.8 11.2-22.2.7-1.5 1.5-3 2.8-4 3.8-3 8.4-1.6 9.7 3 4.2 15.3 8.3 30.7 12.6 46 .7 2.3.3 2.7-2 2.8-9.2.1-9.2.2-11.3-8.8-1.6-7.2-1.6-7.2-8.8-7.1-4.1.1-8.9-1.5-11.9.7-2.8 2.1-4.1 6.6-5.4 10.3-1.5 4.2-4.2 4.7-8.2 5.2-8 .9-12.9-1.7-15.2-9.5-.9-3-2.8-5.7-4.2-8.5-2.2-4.4-4.2-5.3-9-4.5-1.8.3-1.5 1.5-1.6 2.5-.7 5.7-1.5 11.4-2.1 17.1-.2 2.2-1 2.7-3 2.8-8 .1-8 .2-7.1-7.8 1.6-13.9 3.2-27.8 4.9-41.8.1-.9.4-1.7.6-2.6 7.7-.9 15.8-.7 23.8-.3z"></path><path fill="#1e0293" d="M246.7 233.4c-3.7 0-6.8-.1-9.8 0-1.9.1-2.4-1.1-3-2.3-2.9-5.7-6.1-11.2-8.6-17-1.9-4.3-5.2-2.8-8.1-2.8-3 0-1.9 2.8-2.1 4.4-.7 4.9-1.3 9.9-1.7 14.8-.2 2.2-1.1 2.9-3.4 3-8.1 0-8 .2-6.9-8.1 1.8-13.8 3.4-27.5 4.9-41.3.3-2.8.9-4.1 4-3.9 6.5.4 13-.4 19.5.5 7.1 1 11.2 4.4 12.3 10.1 1.2 6.1-1.9 13.4-7.6 16.2-2.7 1.4-2.3 2.4-1.1 4.5 3.9 7 7.6 14.1 11.6 21.9z"></path><path fill="#1e0393" d="M347.5 196c-1.3 10.4-2.5 19.8-3.7 29.1-.2 1.5-.7 3.1-.5 4.5.3 3.9-2 3.8-4.8 3.8-2.2 0-2.5-.8-2.3-2.8 1.9-15.3 3.7-30.6 5.5-46 .6-4.8 4.3-6.2 8.3-3 1.2.9 2 2.3 2.9 3.5 7.2 10.2 14.4 20.4 22.2 31.5.8-6.5 1.5-12.1 2.2-17.6.7-5.4 1.4-10.9 2-16.3.5-4.5 3.8-2.2 5.9-2.4 2.9-.3 1.5 2.1 1.4 3.2-1.8 15.7-3.6 31.4-5.5 47.1-.1 1.1 0 2.7-1.6 2.6-2.4-.2-5.1 1.2-7-1.6-3.6-5.4-7.5-10.6-11.2-16-4.3-6.2-8.7-12.4-13.8-19.6z"></path><path fill="#1e0392" d="M180.1 233.5c-4.8 0-9.7-.1-14.5 0-2.2.1-2.9-.6-2.6-2.8 2-15.9 3.9-31.9 5.8-47.8.2-2.1 1-2.7 3.1-2.7 9.4.1 18.9 0 28.3.1 1.4 0 3.5-.5 2.8 2.1-.4 1.8 1 4.7-2.8 4.6-6.1-.1-12.3.1-18.4-.1-2.2 0-3.2.5-3.4 2.9-.2 3.4-.6 6.9-1.1 10.3-.3 1.8.3 2.2 1.9 2.2 4-.1 7.9 0 11.9 0 1.9 0 3.6.4 4.6 2.2.6 1.1 1.3 2.4.8 3.6-.6 1.3-2 .7-3.1.7-4.8.1-9.7.1-14.5 0-1.5 0-2.7.1-2.8 2.1-.3 4.2-.9 8.4-1.5 12.5-.3 2.2.3 2.9 2.6 2.8 6-.2 12-.1 18 0 1.1 0 3.5-1 2.8 1.4-.6 2 1.6 5.7-2.9 5.8-5.1 0-10.1 0-15 .1 0-.1 0-.1 0 0zm103.9-.3c7.2-14.4 14.3-28.3 21.3-42.3 1.1-2.2 2.1-4.4 3.2-6.5 1.9-3.5 5.4-5 9.3-4.4 1.7.2 1.7 1.4 1.9 2.4 4.4 16 8.8 32.1 13.3 48.1.7 2.5.1 2.9-2.4 2.9-8.9 0-8.9.1-10.9-8.4-1.8-7.5-1.8-7.5-9.7-7.5-3.8 0-8.4-1.1-11.2.6-2.8 1.7-3.7 6.4-5.4 9.8-2.5 5.7-2.5 5.7-9.4 5.3z"></path><path fill="#1f0393" d="M316.7 294.3c-3.5.1-7.4-.8-11.2-1.5-2.1-.4-2.7-1.3-2.3-3.4 1.4-6.8 1.5-6.9 7.5-4 3.7 1.8 7.5 2.5 11.5 1.9 3.5-.5 6.2-2.2 7.1-6 .8-3.9-1.5-5.9-4.6-7.4-3.9-1.9-7.9-3.6-11.6-5.8-9.8-6-9.7-18.4.1-24.3 7.8-4.7 16.3-4.4 24.8-2.4 1.5.4 2.2 1.1 1.6 2.8l-.6 1.8c-1.5 4.5-1.5 4.5-5.5 2.5-3.3-1.6-6.8-2.2-10.4-1.7-3.3.4-5.8 2-6.7 5.4-.9 3.4.9 5.6 3.8 7.1 4.1 2.1 8.2 4.1 12.2 6.4 8.6 5 10 14 3.4 21.6-4.2 4.6-10.7 7.1-19.1 7z"></path><path fill="#1e0393" d="M284.7 225.2c-1.3 6-4.5 8.7-10.5 8.2-3.9-.3-7.9.1-11.8-.8-12.3-2.7-18.9-13.5-16.4-26.9 3.4-18.4 19.3-28.9 38.8-25.5.9.2 1.8.3 2.6.5 6.1 1.1 5.9 1 3.6 6.5-1 2.4-2 2.3-4 1.4-3.8-1.6-7.7-2.5-11.9-2.6-7.6-.1-12.9 3.3-15.9 10.3-2.4 5.6-3.3 11.5-2.2 17.6 1.5 8.5 6.8 13 15.4 12.5 4.1-.1 8.1-.7 12.3-1.2z"></path><path fill="#1e0392" d="M410.4 180.2c5.4 0 10.7-.1 16.1 0 1 0 3.2-.8 2.6 1.3-.6 1.9 1.3 5.4-2.7 5.7-2.8.2-5.7.4-8.4 0-3.8-.6-4.1 1.7-4.4 4.3-1.5 12.8-3.1 25.5-4.5 38.3-.3 3-1.4 3.7-4.2 3.6-6.8-.2-6.8 0-6-6.9 1.4-11.8 2.8-23.5 4.4-35.3.4-3 0-4.6-3.5-4.1-1.7.2-3.6-.2-5.3.1-3.9.6-4.8-.9-4.1-4.5.4-2.2 1.3-2.6 3.2-2.6 5.6.2 11.2.1 16.8.1z"></path><path fill="#1f0492" d="M382.2 293.9c-4.6 0-9.2-.1-13.8 0-2.1.1-2.6-.7-2.4-2.7 2-15.9 4-31.9 5.8-47.8.3-2.4 1.1-2.9 3.3-2.9 7.8 0 7.7-.1 6.7 7.6-1.5 11.6-2.8 23.3-4.4 34.9-.4 2.9.3 4 3.5 3.8 4.8-.3 9.7-.1 14.5 0 1.4 0 3.8-1 3.3 2-.4 2.2.7 5.4-3.6 5.1-4.2-.2-8.6 0-12.9 0z"></path><path fill="#1f0393" d="M465.6 233.3c-4.5 0-8.9-.1-13.4 0-2.1 0-3-.4-2.7-2.7 2-15.9 4-31.8 5.8-47.8.2-2.1.9-2.7 3-2.7 8.1-.1 8-.2 6.9 8-1.5 11.6-2.8 23.3-4.3 34.9-.4 2.8.5 3.5 3.2 3.4 5.2-.2 10.4 0 15.7-.1 1.4 0 3.2-.1 2.5 2.1-.5 1.8 1 4.8-2.6 4.9-4.7 0-9.4-.1-14.1 0 0-.1 0 0 0 0zm-32.9.2c-6 0-6.1 0-5.5-5.3 1.8-15.2 3.6-30.3 5.4-45.5.2-1.9.8-2.5 2.8-2.6 8.1-.3 8.2-.3 7.3 7.7-1.5 13.8-3.3 27.5-4.7 41.3-.5 4.2-2.3 5.2-5.3 4.4z"></path><path fill="#1e0293" d="M349.4 293.5c-1 0-1.6-.1-2.1 0-3 .5-3.9-.5-3.5-3.7 1.9-15.1 3.8-30.3 5.4-45.5.4-3.2 1.5-4.1 4.7-4 6.5.3 6.6.1 5.9 6.5-1.7 14.8-3.6 29.6-5.3 44.4-.5 4.6-4 .9-5.1 2.3z"></path><path fill="#1f0691" d="M108 276.3c12.4-.3 16.7 5.4 13.2 16.8-2.3 7.6-6.8 10.9-15 11-8 .2-8 .2-7-7.8.7-5.2 1.3-10.4 1.8-15.6.3-3.1 1.3-4.9 4.8-4.4.8.2 1.8 0 2.2 0z"></path><path fill="#200595" d="M148.5 287.7c-.1 8.8-4.6 15-12.2 16.7-6.4 1.4-11.5-2-12.5-8.4-1.1-7.1.8-13.2 6.7-17.5 4-2.9 8.4-3.6 12.9-1.2 4.2 2.2 5.1 6.2 5.1 10.4z"></path><path fill="#1a1665" d="M194.5 241.3h-33.1c.2-.8.9-.8 1.5-.8 9.6 0 19.1.1 28.7.2.9 0 1.9.4 2.9.6z"></path><path fill="#1b1c62" d="M239.9 241.3c-8 0-16.1.1-24.1.1 0-.1.1-.3.1-.3 8-.8 16-1.2 24 .2z"></path><path fill="#fdfdfd" d="M143.2 206.1c-1.4 12-2.9 24-4.3 36-.7 5.8-1.5 11.6-2 17.5-.2 2.5-1 3.5-3.7 3.3-15.3-1-30.6-1-45.9-.2-1.1.1-3 1-2.6-1.7 2.4-18.8 4.6-37.7 6.9-56.5 0-.2.2-.5.5-1.2 3.2 10.2 6.4 20 9.5 29.8 1.7 5.3 3.4 10.7 5 16 .5 1.8 1.5 2.1 3.2 2.4 5.2.8 8.1-1.2 10.6-6 7-13.4 14.7-26.4 22.1-39.6.2 0 .4.1.7.2z"></path><path fill="#fefefe" d="M172.4 314.7c-6.8.1-6.9.1-6.3-5.7 1.2-11.7 2.6-23.3 3.7-35 .2-1.9.7-2.4 2.5-2.1 4.8.9 9.4 2.1 13.6 4.9 7.2 4.8 9.8 12.5 7.5 21.9-2.5 10-7.5 14.7-16.7 15.6-1.9.2-3.7.3-4.3.4z"></path><path fill="#fcfdfb" d="M180 246.1h2.3c5.8.1 9.1 2.5 9.7 7.1.8 6.1-2.1 11-7.5 12.5-.9.2-1.7.4-2.6.5-9.5 1.6-10.8.3-9.6-8.8.2-1.8.5-3.5.7-5.3.7-5.9.7-5.9 7-6z"></path><path fill="#fbfcfa" d="M228.2 264.9c-4 .8-4.6-1.2-4-4.5.6-3.2 1.2-6.5 1.3-9.8.1-2.9 1.4-3.4 3.8-3.1.6.1 1.3 0 1.9 0 5.4.1 8.1 2 8.5 6.1.5 5.4-2.2 9.6-7 10.7-1.4.4-3 .4-4.5.6z"></path><path fill="#f9fafa" d="M269.1 271.3c3.3-6.7 6.3-12.9 9.8-20 1.6 6.6 2.9 12.2 4.3 17.8.3 1.2.5 2.3-1.4 2.2-4.1-.1-8.1 0-12.7 0z"></path><path fill="#fbfcf9" d="M220.8 204.5c-3.3.8-4.5-.4-3.6-4.3.8-3.4 1-7.1 1.3-10.6.2-1.8 1-2.5 2.7-2.3.9.1 1.8 0 2.7 0 6.2.1 8.7 2.2 8.8 7.1.1 5.5-3.4 9.6-8.8 10.1-.8.1-1.7 0-3.1 0z"></path><path fill="#f7f8f9" d="M311.6 191.1c1.6 6.8 3 12.4 4.4 18 .3 1.4 0 2.2-1.6 2.1-3.4-.1-6.9 0-10.3 0-1.7 0-2-.6-1.3-2.1 2.8-5.6 5.6-11.3 8.8-18z"></path><path fill="#fbfcfb" d="M117.1 287.6c0 2.8-.5 5.6-1.6 8.2-1.7 3.9-7.1 6.1-10.9 4.8-1.3-.4-1-1.2-.9-2.1.7-5.5 1.4-11.1 2-16.6.2-1.8 1-2.2 2.7-2.3 6.4-.2 8.8 1.9 8.7 8z"></path><path fill="#fbfcfa" d="M128.5 291c.2-2.6.9-5.8 3-8.5 1.7-2.2 3.8-3.3 6.6-2.8 2.9.5 4.2 2.6 4.9 5.2.9 3.2.5 6.3-.4 9.4-1.5 4.8-5.1 7.6-8.7 6.9-3.4-.7-5.5-4.4-5.4-10.2z"></path></svg>