<svg xmlns="http://www.w3.org/2000/svg" viewBox="27.747833251953125 643.9030151367188 1951.775146484375 714.8579711914062"><g fill="#A80A35"><path d="M165.772 733.125v139.384c161.605-7.071 212.703 73.016 212.703 73.016-16.572-198.681-212.703-212.4-212.703-212.4zm212.704 212.4s51.098-80.087 212.703-73.016V733.125s-196.13 13.719-212.703 212.4z"></path><path d="M378.628 945.371s80.086 51.098 73.015 212.703h139.384s-13.72-196.13-212.399-212.703zm-350.37 413.39h144.585c-29.291-351.919 205.48-413.388 205.48-413.388C-.731 961.391 28.258 1358.761 28.258 1358.761z"></path></g><path fill="#F68C1F" d="M580.268 643.903H176.683c-55.133 0-99.828 44.695-99.828 99.828v290.336c15.172-19.142 32.255-37.454 51.512-54.505V748.977c0-29.582 23.982-53.562 53.564-53.562h393.093c29.582 0 53.563 23.98 53.563 53.562v393.094c0 29.579-23.982 53.564-53.563 53.564h-351.68v51.509h356.925c55.133 0 99.828-44.695 99.828-99.828V743.731c0-55.133-44.696-99.828-99.829-99.828z"></path><path fill="#A80A35" d="M901.159 900.756c12.3-10.725 20.714-26.001 20.714-45.503 0-29.902-21.038-48.102-44.015-53.952v-.975c23.625-8.774 36.249-26.976 36.249-47.127 0-18.852-9.062-33.153-22.655-41.277-14.563-10.075-33.012-13.976-62.14-13.976-22.655 0-45.634 2.276-58.256 4.875v215.16c10.357 1.3 26.863 2.926 48.872 2.926 40.129 0 65.697-6.825 81.231-20.151zm-90.621-171.609c4.208-.975 11.003-1.625 22.655-1.625 25.244 0 40.78 9.426 40.78 30.227 0 18.525-15.211 31.527-43.045 31.527h-20.39v-60.129zm0 89.056h19.743c27.509 0 49.842 10.4 49.842 36.077 0 26.976-22.979 36.402-48.548 36.402-9.062 0-15.859 0-21.036-.975v-71.504zm223.308 82.879h.971l2.911 17.552h35.925c-1.941-9.75-2.588-23.727-2.588-38.027v-56.878c0-34.777-14.565-66.953-65.053-66.953-24.923 0-45.312 6.825-56.963 13.976l7.768 26.001c10.681-6.825 26.862-11.7 42.396-11.7 27.834 0 32.042 17.226 32.042 27.626v2.599c-58.258-.325-93.535 20.151-93.535 59.804 0 24.052 17.8 47.127 49.518 47.127 20.717-.001 37.224-8.777 46.608-21.127zm-56.638-30.227c0-24.052 26.862-29.902 55.02-29.577v21.776c0 2.926 0 5.85-.97 8.774-3.884 11.376-15.211 21.776-31.395 21.776-12.622.002-22.655-7.148-22.655-22.749zm200.659-81.579c21.684 0 30.098 17.225 30.098 39.978v89.378h39.809v-93.93c0-50.053-28.481-67.928-55.993-67.928-26.215 0-43.369 14.951-50.488 27.301h-.971l-1.941-23.725h-34.631c.648 13.651 1.295 28.927 1.295 47.127v111.155h39.808v-93.28c0-4.55.648-9.426 1.943-12.675 4.208-12.026 15.213-23.401 31.071-23.401zm175.411 132.607c19.744 0 36.249-4.226 44.664-8.126l-5.502-29.577c-7.768 3.251-17.8 6.175-31.395 6.175-27.185 0-48.223-18.527-48.223-51.028-.324-28.927 17.8-51.353 48.223-51.353 14.241 0 23.627 2.926 30.099 6.175l7.12-30.227c-9.063-3.901-23.95-7.15-38.514-7.15-55.344 0-87.708 36.727-87.708 84.179.001 49.079 32.042 80.932 81.236 80.932zm212.961-83.855c0-48.102-31.395-81.254-78.323-81.254-47.577 0-81.559 31.851-81.559 83.854 0 51.028 34.63 81.579 78.969 81.579 40.134.001 80.913-26.002 80.913-84.179zm-118.779 1.626c0-26.327 11.327-53.954 39.484-53.954 27.187 0 38.191 28.602 38.191 53.303 0 32.177-15.859 54.277-38.514 54.277-23.95.001-39.161-23.076-39.161-53.626zm259.879 82.554c22.656 0 41.75-11.05 51.137-28.602h.646l1.943 25.027h35.277c-.648-10.725-1.294-28.276-1.294-44.528V687.87h-39.809v89.379h-.648c-7.12-11.702-22.655-20.476-44.34-20.476-37.866 0-70.878 31.527-70.555 84.504.001 48.753 29.777 80.931 67.643 80.931zm12.623-134.557c18.124 0 30.747 12.675 34.306 27.951.648 3.251.971 7.476.971 10.726v23.727c0 4.226-.324 8.124-1.295 11.7-3.883 17.226-18.124 28.276-34.306 28.276-25.244 0-39.485-21.126-39.485-50.378-.001-29.251 14.241-52.002 39.809-52.002zm178.648 134.557c40.133 0 80.913-26.002 80.913-84.179 0-48.102-31.395-81.254-78.323-81.254-47.577 0-81.559 31.851-81.559 83.854 0 51.027 34.63 81.579 78.969 81.579zm1.618-136.508c27.187 0 38.191 28.602 38.191 53.303 0 32.177-15.859 54.277-38.514 54.277-23.95 0-39.161-23.077-39.161-53.627 0-26.327 11.327-53.953 39.484-53.953zm-995.509 246.724c0 33.153.971 62.729 3.884 91.656h-.648c-10.033-24.703-22.655-52.004-35.601-75.08l-45.31-80.28h-57.61v219.061h45.312v-65.978c0-35.753-.648-66.628-2.266-95.879h1.295c10.357 25.676 24.92 53.952 37.867 77.353l46.606 84.504h51.785v-219.06h-45.312v63.703h-.002zm148.875-7.474c-51.137 0-84.796 32.825-84.796 84.504 0 51.352 35.601 81.904 81.883 81.904 42.398 0 83.502-26.651 83.502-84.829-.001-48.104-32.366-81.579-80.589-81.579zm-1.617 130.981c-21.038 0-32.366-20.475-32.366-47.776 0-23.4 9.063-47.779 32.366-47.779 22.331 0 31.395 24.053 31.395 47.453-.002 28.926-11.978 48.102-31.395 48.102zm144.343-97.831h-1.294l-1.941-29.25h-42.074c.971 13.652 1.294 28.925 1.294 52.328v106.604h49.194v-80.603c0-3.901.324-7.802.971-11.05 3.236-15.276 15.535-25.026 33.66-25.026 5.502 0 9.386.648 13.27 1.298v-46.476c-3.56-.65-5.825-.975-10.357-.975-15.536 0-34.633 9.75-42.723 33.15zm217.486-101.079h-49.194v85.806h-.648c-7.12-10.728-22.008-17.877-41.75-17.877-37.866 0-71.202 31.202-70.878 84.829 0 49.401 30.098 81.579 67.643 81.579 20.39 0 39.808-9.1 49.518-26.651h.97l1.943 23.075h43.693c-.648-10.725-1.295-29.577-1.295-47.451v-183.31h-.002zm-49.194 159.908c0 3.901-.324 7.802-.971 11.375-2.911 13.976-14.563 23.728-28.803 23.728-20.39 0-33.66-16.901-33.66-43.878 0-25.026 11.327-45.178 33.984-45.178 15.211 0 25.892 11.05 28.803 24.05.648 2.926.648 6.502.648 9.102l-.001 20.801zm147.256-91.654c-55.02 0-79.942 44.528-79.942 84.829 0 49.726 30.747 80.929 84.472 80.929 21.361 0 41.103-3.251 57.286-10.075l-6.473-33.478c-13.27 4.551-26.863 6.827-43.693 6.827-22.98 0-43.37-9.752-44.664-30.227h101.948c.648-3.576 1.619-11.05 1.619-19.502.003-39.326-19.416-79.303-70.553-79.303zm-33.335 65.002c1.294-13 9.709-32.177 30.422-32.177 22.655 0 27.833 20.152 27.833 32.177h-58.255zm188.684.326c-19.419-6.824-25.568-10.725-25.568-18.527 0-7.799 6.798-12.676 18.773-12.676 13.27 0 27.185 5.201 34.307 9.102l8.414-34.128c-9.709-4.874-25.892-9.425-44.339-9.425-39.161 0-64.407 22.425-64.407 52.327-.324 18.852 12.3 36.726 45.312 47.779 18.124 6.174 22.979 10.075 22.979 18.524 0 8.127-6.149 13.001-21.038 13.001-14.563 0-33.336-6.174-42.398-11.7l-8.738 35.103c11.974 6.499 30.422 11.375 51.136 11.375 45.312 0 68.291-21.778 68.291-51.677-.325-23.077-12.624-38.679-42.724-49.078zm115.538-104.656l-48.223 13.326v29.577h-21.038v36.402h21.038v65.002c0 22.428 4.53 37.704 13.593 47.128 8.091 8.124 21.36 13.651 37.219 13.651 13.593 0 25.568-1.951 31.718-4.226l-.324-37.376c-4.53.975-7.768 1.3-14.563 1.3-14.565 0-19.42-8.777-19.42-27.951v-57.528h35.277v-36.402h-35.277v-42.903zm120.72 39.328c-55.02 0-79.942 44.528-79.942 84.829 0 49.726 30.747 80.929 84.472 80.929 21.361 0 41.103-3.251 57.286-10.075l-6.473-33.478c-13.27 4.551-26.863 6.827-43.693 6.827-22.98 0-43.37-9.752-44.664-30.227h101.948c.648-3.576 1.619-11.05 1.619-19.502.001-39.326-19.418-79.303-70.553-79.303zm-33.336 65.002c1.294-13 9.709-32.177 30.422-32.177 22.655 0 27.833 20.152 27.833 32.177h-58.255z"></path></svg>