<svg xmlns="http://www.w3.org/2000/svg" viewBox="0 0 64.33000183105469 37.130001068115234"><g fill-rule="evenodd"><path fill="#e42313" d="M32 0C22 0 13.18 2.21 7.22 6.21 2.78 9.19 0 13.91 0 18.5a13 13 0 002 6.84 18.24 18.24 0 005.84 5.79c5.9 3.79 14.74 6 24.26 6 11 0 20.2-2.4 25.93-6.79 4.06-3.11 6.29-7.28 6.3-11.74a14 14 0 00-4.82-10.4C53.73 3.06 43.46 0 32 0z"></path><g fill="#fff"><path d="M8.68 9.74a41.22 41.22 0 017.47-2.91 2.8 2.8 0 013.13 1.07c.73 1.28.58 2.6-1.85 4.16 1.35-.23 2.38-.28 3.19.32a3.24 3.24 0 01-1 5.57 49.45 49.45 0 00-7.08 3 .74.74 0 01-1-.23c-.48-.8.2-1.22.86-1.49.06 0 .08-.08.05-.16l-3.2-7.67c0-.07-.08-.09-.19 0-.73.33-1.1.23-1.29-.15-.34-.72 0-1.05.9-1.48zm5.45 2.43l-1-2.42c1-.53 2-.65 2.38.23.56 1.2-.06 1.86-1.35 2.19zm2.15 5.09L15 14.19c.88-.49 1.59-.57 2-.16a3.19 3.19 0 01.78 1.54c.15.89-.33 1.27-1.48 1.68zM26.76 4.34c3-.09 5.56 2.55 5.66 5.89a6.4 6.4 0 01-1.89 4.89 5.22 5.22 0 01-3.41 1.33c-3 .09-5.56-2.55-5.66-5.89a6.54 6.54 0 011.8-4.81 5.13 5.13 0 013.5-1.41zm-.23 1.8c.67-.07 1.27 1 1.59 4.23a13.29 13.29 0 010 3.47c-.13.67-.4.93-.68 1-.67.07-1.4-1.18-1.67-4.21-.34-3.83.17-4.38.8-4.44z"></path><path d="M33.18 4.32a51.06 51.06 0 015.16.34c.12 0 .12 0 .16.13l1 3.4c.06.12.13.12.21 0l1.7-3c.06-.1.06-.1.2-.07A48.7 48.7 0 0147 6.47a.74.74 0 01.49 1.1c-.21.43-.68.48-1.26.3-.12 0-.19 0-.22.1-.47 2-.93 4.67-1.54 8.33 0 .09 0 .08.05.1.9.25 1.17.57.95 1.12a.88.88 0 01-1 .45 46.77 46.77 0 00-5.2-1.32.61.61 0 01-.52-.79c.09-.46.19-.77 1.47-.52.12 0 .1 0 .12-.08l1.05-6.16c0-.2 0-.22-.15 0-1.09 1.7-2.32 3.77-3.58 5.91-.07.11-.14.08-.2-.1l-1.77-6.34c-.07-.22-.15-.24-.2 0-.24 2-.41 4-.51 6 0 .08 0 .08.06.09.87.07 1.16.21 1.13.85a.64.64 0 01-.7.67c-1-.08-2-.12-3-.13a.74.74 0 01-.72-.79c0-.6.33-.73 1.28-.75.13 0 .1 0 .12-.1.26-2.75.54-5.54.79-8.3 0-.12 0-.12-.08-.13-.79-.12-1.26-.4-1.26-.85s.24-.75.64-.78zM20.54 19.45c3.11 1.15 6.52 1.17 8.56 2.14a2.74 2.74 0 011.59 2.79c-.14 1.72-1.68 2.35-3.48 2.37 1.76.79 2.79 1.68 2.75 3a2.76 2.76 0 01-2.56 2.94c-2.04.31-6.4-.69-10.22-1.8a.81.81 0 01-.38-1.12c.2-.47.84-.52 1.59-.19.1 0 .1.08.13 0 .77-2.72 1.37-5.5 2.05-8.28 0-.13 0-.11-.08-.13-.69-.13-1.07-.43-1.08-1a.8.8 0 011.14-.69zm3.35 5.49l.66-2.67c1.37.22 2 .66 1.73 1.8s-1.08 1.29-2.38.87zm-1.28 5.39l.77-3.22c2 .26 2.44 1 2.1 2.21s-1.39 1.47-2.88 1z"></path><path d="M32 21.29c3.26.1 4.95-.43 7-.3a2.67 2.67 0 012.53 2.73c.15 1.64-.74 2.49-2.54 3 1.24.06 2.39.31 2.84 1.86.23.73.23 2 .52 2.06s.9-.17 1.14.57a.75.75 0 01-.45.94c-1.3.25-2.6.44-3.9.59-.44 0-.68-.37-.79-.78-.34-1.1-.19-2.65-.69-3.61a1.46 1.46 0 00-1.71-.54l.05 3.55c0 .13 0 .12.14.11 1 0 1.32.21 1.3.71s-.11.66-.44.76c-1.8.15-3.59.21-5.39.21-.69 0-1-.3-1-.79s.34-.81 1-.79c.15 0 .15 0 .15-.14L31.7 23c0-.08 0-.09-.12-.08-.79.06-1-.31-1-.88s.51-.83 1.36-.76zm3.9 4.38l-.11-2.6c1.19-.22 2 0 2 1.09s-.5 1.6-1.91 1.51z"></path><path d="M41.48 20.38a38.58 38.58 0 004.35-1.24.72.72 0 01.88.41c.31.5 0 .85-.51 1.16-.12.07-.09 0-.05.17L48.49 29c0 .13 0 .13.18.08.55-.21 1-.21 1.25.26a.82.82 0 01-.51 1.16c-1.51.51-3 .92-4.53 1.3-.62.17-1 0-1.13-.44-.2-.62.12-.94.65-1.13.16-.06.14 0 .1-.18l-2.28-8.1c0-.09 0-.06-.11 0-.52.14-.84.12-1.09-.4a.74.74 0 01.46-1.09zm10.07 7.44l-3.64-7.69c0-.11 0-.11-.14-.06-.47.2-.77 0-.93-.46a.77.77 0 01.48-1c1.34-.51 2.73-1.14 4.19-1.83.34-.13.64 0 .89.4s0 .86-.67 1.27c-.08 0-.08 0 0 .16 1.04 2.39 2.36 4.78 3.27 7.16.06.12.11.09.22 0 .46-.36.68-1.15.56-2.55-.31-1.63-.19-2.45.27-2.81s.73-.21.9.08l1.24 3.25c.19.5.18.75 0 1a13.1 13.1 0 01-6.5 4.84.8.8 0 01-1.13-.47c-.18-.5.13-.9.92-1.2.1 0 .1 0 .06-.12z"></path></g><path fill="#fff" d="M63.74 18.58a13.28 13.28 0 00-4.89-10.15C53.22 3.5 43.16.55 31.92.55c-9.7 0-18.29 2.14-24.18 6C3.16 9.6.54 13.94.56 18.49c0 4.87 2.73 9.2 7.65 12.21 6.06 3.71 14.83 5.85 24.07 5.86 10.6 0 19.54-2.32 25.18-6.58 4.13-3.11 6.36-7.16 6.28-11.4zM56.49 28.7c-5.37 4-14 6.27-24.21 6.26-9 0-17.42-2.06-23.23-5.62-4.42-2.71-6.86-6.56-6.88-10.84 0-4 2.34-7.85 6.45-10.56 5.63-3.72 13.9-5.76 23.3-5.76 10.86 0 20.53 2.8 25.87 7.48a11.76 11.76 0 014.34 9c.07 3.66-1.93 7.24-5.64 10.04z"></path></g></svg>