<svg xmlns="http://www.w3.org/2000/svg" viewBox="0.0001239776611328125 0.00024884939193725586 1822.9998779296875 611.1162719726562"><g fill="none"><path fill="#3D8AC9" d="M519.167 96.847c-2.277 0-4.555-2.28-6.833-2.28-61.495-13.675-150.322 4.559-234.593 79.773l22.776 29.63c70.606-68.377 161.71-111.682 223.205-104.844 2.278 0 4.556-2.28-2.277-2.28M478.17 60.38c4.555 2.28 4.555 0-2.277-4.559-2.278 0-4.556-2.279-6.833-2.279-87.848-41.743-190.91-35.727-273.313 15.955l22.776 29.63C293.684 46.704 400.732 30.75 478.17 62.659m-268.757 79.773l22.776 29.63C325.57 78.613 444.006 58.1 512.334 85.451c2.278 0 4.556-2.28-4.555-4.56-2.277-2.278-6.833-2.278-9.11-4.558-100.937-38.048-214.827-12.023-289.256 66.098m179.93 271.229l-22.775-29.63c-70.606 68.377-161.71 111.682-223.206 104.844-2.277 0-2.277 2.28 4.555 2.28 2.278 0 4.556 0 6.833 2.279 61.496 13.675 150.322-4.559 234.594-79.773m-200.43 113.96c-4.555-2.28-4.555 0 2.278 4.559 2.278 0 4.555 2.279 6.833 2.279 87.848 41.743 190.91 35.727 273.312-15.955l-22.776-29.63c-75.16 52.423-182.208 68.377-259.647 36.468m266.48-82.052l-22.776-29.63c-93.382 93.448-211.817 116.24-280.145 86.61-2.278 0-4.556 2.28 4.555 4.559 2.277 2.28 6.833 2.28 9.11 4.558 100.937 38.05 214.827 12.024 289.256-66.097"></path><path fill="#194274" d="M583.393 420.261a287.213 287.213 0 01-129.885 129.974c-142.252 71.192-315.257 14.163-387.377-127.693-66.496-144.231-4.48-315.144 139-383.081a284.679 284.679 0 01120.77-29.643 300.588 300.588 0 0150.132 4.56c4.557 0 4.557-2.28 0-4.56A316.543 316.543 0 00325.902.697C197.833-7.947 78.036 64.483 26.11 181.95c-51.925 117.468-24.892 254.891 67.651 343.9 92.543 89.01 230.835 110.6 346.075 54.029 67.891-33.093 121.371-89.853 150.394-159.618a109.509 109.509 0 009.114-31.923c0-11.401-9.114 18.242-15.95 31.923zm1194.033-29.643H1823l-2.279-2.28a68.448 68.448 0 01-6.836-36.484v-182.42l-41.016 6.841 4.557 2.28c9.115 6.841 9.115 18.243 9.115 31.924v141.375a68.448 68.448 0 01-6.836 36.484l-2.279 2.28zm-56.967-52.445c0 18.242-9.115 36.484-29.623 36.484-15.95 0-25.065-9.121-25.065-22.803 0-18.242 13.672-25.083 38.737-36.484l15.951-6.84v29.643zm29.623 2.28v-79.809c0-20.522-15.95-29.643-47.852-29.643-31.902 0-63.804 11.401-63.804 34.204a13.686 13.686 0 004.773 10.58 13.666 13.666 0 0011.178 3.101c11.394 0 15.95-6.84 18.23-15.961 2.3-11.706 13.228-19.66 25.065-18.242 18.23 0 25.066 9.12 25.066 27.363 0 20.522-4.558 20.522-20.508 29.643l-4.558 2.28c-2.279 2.28-6.836 2.28-11.393 4.56-25.066 11.402-54.69 22.803-54.69 50.166a41.06 41.06 0 0013.578 30.762 40.998 40.998 0 0031.997 10.282c18.138 1.022 35.149-8.834 43.295-25.082a29.657 29.657 0 012.279 6.84c0 4.56 2.278 6.841 2.278 13.682v2.28l36.46-2.28-2.28-2.28a79.855 79.855 0 01-9.114-47.886v-4.56zm-139 20.522V231.001l-41.016 6.841 4.557 2.28c6.836 4.56 6.836 11.401 6.836 22.803v59.286c0 27.363-2.279 54.726-31.902 54.726-25.065 0-29.623-20.522-29.623-43.325v-91.21c0-2.28 0-9.12-6.836-9.12a159.405 159.405 0 00-18.23 2.28c-4.557 0-6.835 2.28-11.393 2.28h-4.557l4.557 2.28c6.836 4.56 6.836 11.401 6.836 22.803v86.649a43.343 43.343 0 0011.696 34.513 43.28 43.28 0 0033.878 13.372 61.504 61.504 0 0043.295-18.242s2.279 0 2.279-2.28a13.69 13.69 0 010 2.28V392.9l38.738-2.28-2.279-2.28c-6.836-6.842-6.836-18.243-6.836-31.924v4.56zm-164.066 13.682c-11.393 0-13.672-6.841-13.672-18.242V251.523h4.558c13.672 0 27.344-2.28 27.344-11.4 0-4.561-4.557-4.561-4.557-4.561h-27.345v-50.166l-29.623 6.841v168.738c0 25.083 11.394 36.484 34.18 36.484 13.673 0 38.738-11.401 38.738-15.962l2.279-20.522-4.557 4.56a68.329 68.329 0 01-27.345 9.122zm-102.54 0c-41.017 0-50.132-34.204-50.132-61.567 0-34.204 13.672-66.127 47.853-66.127 14.787-2 28.985 6.524 34.18 20.522h4.557v-29.643c0-4.56-27.344-6.84-34.18-6.84a84.282 84.282 0 00-62.79 25.456 84.402 84.402 0 00-23.8 63.473 73 73 0 0018.781 56.078 72.898 72.898 0 0054.137 23.731c25.066 0 52.41-11.402 52.41-31.924v-11.401l-2.279 4.56a52.39 52.39 0 01-36.459 13.682h-2.279zm-132.165-36.484c0 18.242-9.114 36.484-29.622 36.484-15.951 0-25.066-9.121-25.066-22.803 0-18.242 13.672-25.083 38.738-36.484l15.95-6.84v29.643zm29.623 2.28v-79.809c0-20.522-15.95-29.643-47.852-29.643-31.902 0-63.803 11.401-63.803 34.204a13.685 13.685 0 004.773 10.58 13.666 13.666 0 0011.178 3.101c11.393 0 15.95-6.84 18.229-15.961 2.3-11.706 13.228-19.66 25.066-18.242 18.23 0 25.065 9.12 25.065 27.363 0 20.522-4.557 20.522-20.508 29.643l-4.557 2.28c-2.28 2.28-6.836 2.28-11.394 4.56-25.065 11.402-54.69 22.803-54.69 50.166a41.06 41.06 0 0013.579 30.762 40.998 40.998 0 0031.996 10.282c18.138 1.022 35.15-8.834 43.295-25.082a36.523 36.523 0 012.28 6.84c0 4.56 2.278 6.841 2.278 13.682v2.28l36.459-2.28-2.279-2.28a79.855 79.855 0 01-9.115-47.886v-4.56zm-186.852-168.738c-13.672 0-34.18 0-47.852 2.28-13.673 0-27.345 2.28-41.017 2.28h-4.557l2.278 2.28a82.139 82.139 0 016.837 43.325v129.974a79.857 79.857 0 01-6.837 41.045l-2.278 2.28h56.967l-2.279-2.28a84.417 84.417 0 01-9.114-43.325V187.677h29.622a41 41 0 0133.848 11.734 41.061 41.061 0 0111.726 33.87c0 47.886-36.459 52.446-61.524 54.726h-4.558l4.558 2.28s2.278 0 2.278 2.28a63.767 63.767 0 0031.902 6.842 66.059 66.059 0 0049.926-20.096 66.153 66.153 0 0018.435-50.592c0-38.764-25.066-59.286-68.361-59.286v2.28zM877.344 285.727a88.984 88.984 0 016.836 43.325v15.961a130.06 130.06 0 01-2.278 34.204 136.631 136.631 0 01-22.787 2.28c-59.246 0-91.148-36.484-91.148-102.61 0-45.605 27.345-93.49 77.476-93.49a91.112 91.112 0 0166.082 25.082l2.278 2.28v-43.324h-2.278c-4.558 0-11.394 0-15.951-2.28-11.394 0-22.787-2.28-34.18-2.28-82.033 0-132.164 45.604-132.164 123.132 0 72.968 41.016 111.732 116.213 111.732 23.63.353 47.25-1.172 70.639-4.56h2.279v-2.28a216.768 216.768 0 01-2.279-29.644v-36.484a88.984 88.984 0 016.836-43.324l2.279-2.28h-52.41l4.557 4.56zm-191.41 59.286V189.957h43.296c25.065 0 38.737-6.84 43.295-18.242v-2.28H578.836l11.394 29.643 2.278-2.28a36.44 36.44 0 0125.066-6.841h34.18v155.056a82.139 82.139 0 01-6.836 43.325l-2.279 2.28h54.689l-2.279-2.28a82.139 82.139 0 01-6.836-43.325h-2.279zm-223.311-68.407h4.557c47.853 0 82.033 2.28 82.033 50.165 0 31.924-20.508 47.886-59.246 47.886-20.508 0-27.344-6.841-27.344-45.605v-52.446zm0-91.21c6.836 0 20.508-2.28 25.066-2.28 29.623 0 52.41 4.56 52.41 34.204 0 41.044-41.017 43.324-70.64 43.324h-6.836v-75.248zM453.508 392.9h45.574c61.525 0 93.426-25.083 93.426-70.688 0-36.484-27.344-50.165-56.967-57.006 22.787-9.121 45.574-25.083 45.574-54.726 0-27.363-20.508-43.325-54.689-43.325-15.95 0-41.016 0-56.967 2.28-15.95 2.28-31.902 2.28-47.852 2.28h-4.558l2.279 2.281a84.42 84.42 0 016.836 43.325v86.65a214.478 214.478 0 01-11.393 84.368l-2.28 2.28h38.739l2.278 2.28z"></path></g></svg>