<svg xmlns="http://www.w3.org/2000/svg" viewBox="467.4322204589844 28.444562911987305 123.39962768554688 94.29879760742188"><defs><clipPath id="fn6209834a1dma" clipPathUnits="userSpaceOnUse"><path d="M0 113.39h793.7V0H0z"></path></clipPath></defs><g clip-path="url(#fn6209834a1dma)" transform="matrix(1.33333 0 0 -1.33333 0 151.187)"><path fill="#0e66b0" fill-rule="evenodd" d="M417.587 48.769c.499-.418.144-.062.598-.61l9.45-16.337c3.79-6.52 5.18-12.384 15.49-9.911l-.104 35.78-6.422-.122-.002-27.196-2.798 4.422c-2.691 4.548-9.986 18.37-12.401 20.95-2.666 2.848-9.664 3.007-10.3 1.058-.728-2.237.195 1.323-.17-.601-.037-.193-.052-1.041-.051-1.274.024-7.69-.292-29.241.103-33.342l6.603.143zM383.14 33.352c.124.727 5.647 15.535 6.946 16.189 1.752-.741 2.008-4.531 3.494-6.91l5.497 2.052c.446.214.39.199.636.394-.683 2.287-1.918 4.717-2.837 7.098-1.05 2.719-1.692 4.673-4.17 5.68-6.517 2.653-8.27-4.258-10.1-8.487-.898-2.072-11.045-25.87-11.485-27.764l7.246.025c.859 2.619 1.209 3.456 2.84 5.013 3.898 3.716 9.606 7.76 15.328 8.735.414-1.581 4.912-12.81 5.62-13.762l7.186-.022c-.44 2.774-5.184 11.805-5.981 15.199l5.28.662.029 6.88c-5.091-.036-10.885-1.808-14.862-3.615-7.284-3.31-8.486-6.013-10.667-7.367m-25.697 3.402c6.867.22 10.329-.67 15.467 3.261 3.449 2.637 6.076 7.16 4.842 13.693-2.586 13.695-24.724 10.295-27.177 8.837l.07-40.938 6.813-.017zm.039 20.926c2.653.833 7.314.594 9.857-.424 7.583-3.033 5.059-17.898-9.876-14.63zm2.453 23.286c.267.295.215.232.549.54 6.55 6.04-.68 12.779-9.727 9.84l-.182-21.36c4.26-.58 9.06-1.061 11.722 1.809 1.23 1.329 1.744 3.48 1.202 5.674-.487 1.974-1.777 3.019-3.564 3.497m-6.616 8.052c2.852.384 6.512.54 6.47-3.216-.04-3.65-3.292-3.484-6.448-3.451zm.014-16.676l-.085 7.308c3.245-.105 7.362.218 7.338-3.698-.022-3.603-3.914-3.758-7.253-3.61m54.136 3.931c1.228-10.101 16.253-8.642 14.638 2.998-1.417 10.21-16.075 8.819-14.638-2.998m3.089 0c-1.287 8.3 7.288 9.885 8.43 3.086 1.433-8.532-7.396-9.756-8.43-3.086m-34.43-5.929c.095.04.415.203.484.237.06.03.197.027.24.142.045.12.165.097.243.15-.041 2.903.372 11.184-.79 13.075-1.657 2.692-6.68 2.645-9.883.9l.926-2.164c1.619.471 2.77 1.09 4.723.833 1.577-.208 2.939-1.596 1.65-3.098-1.031-1.203-6.194-1.063-7.974-3.182-2.666-3.176-.701-9.609 9.389-7.183.329.08.765.198.992.29m-1.866 7.53l-.028-5.32c-2.203-.567-6.733-1.186-6.4 2.024.235 2.271 4.185 2.902 6.428 3.295m5.719-7.998h2.731l.031 12.927c8.765 3.058 7.07-3.568 6.953-12.881l2.824-.042c-.351 9.072 3.201 20.6-12.637 14.623zM405.46 82.88l.87 2.245c-6.265 2.352-12.311-.072-12.282-7.265.034-8.25 8.35-9.676 12.319-7.29l-.6 2.17c-2.34-.49-3.947-1.39-6.28.099-2.988 1.906-3.314 7.84-.016 10.042 1.998 1.333 3.836.454 5.99 0"></path></g></svg>