<svg xmlns="http://www.w3.org/2000/svg" viewBox="93.36048889160156 96.81000518798828 313.2532958984375 306.6400146484375"><path fill="#2a166f" d="M98.1 289c.6-.2 1.2-.2 1.8 0 1.1.8 2.3.5 3.5.5H404c1.6 0 2.4.6 2.2 2.2V401c0 1.1-.6 1.6-1.6 1.7-.8.1-1.6.1-2.4.1H96c-1.6 0-2.3-.7-2.2-2.3V293.4c0-3.4 0-3.4 3.5-3.9.2-.2.5-.3.8-.5z"></path><path fill="#251f48" d="M94.1 400.3c-.2 1.3.4 1.9 1.8 1.8 1.8-.1 3.6 0 5.3 0h301.3c3.2 0 3.2 0 3.2-3.2V293c0-3 0-3-3-3H103c-1.1 0-2.4.5-3.2-.9.9 0 1.8-.1 2.7-.1h301.3c.8 0 1.6-.2 2.4.2.3.7.2 1.5.2 2.2V401c0 .7.2 1.5-.2 2.2-.8.3-1.6.2-2.4.2H96.2c-.8 0-1.6.2-2.4-.2l-.1-.1c-.4-.8-.2-1.7-.2-2.5.2-.4.4-.5.6-.3z"></path><path fill="#271e44" d="M94.1 400.3h-.3c-.6-.6-.3-1.4-.3-2.1V291.3c0-.7-.2-1.5.2-2.2 1.5-.6 3-.3 4.5-.2-.1.9-.8 1-1.5.9-2.4-.4-2.6.8-2.6 2.8.1 16.8 0 33.5 0 50.3v57.4z"></path><path fill="#2a166f" d="M93.7 289.1v108c0 1 .1 2.1.1 3.1 0 .9-.1 1.7-.1 2.6-.5-.6-.3-1.3-.3-1.9V291c0-.6-.2-1.3.3-1.9zM406.2 403V289.1c.7.6.3 1.4.3 2.1V401c0 .6.4 1.4-.3 2z"></path><path fill="#fdfdfd" d="M138.1 340.3c7.6 2 13.5 5.3 15.8 13.1 4.6-7.8 12.1-8.8 19.8-9.2h.2c1.5-.5 3.8 1.2 4.5-.9 1.2-3.3-.6-7.7-3.2-8.9-2.4-1.1-4.9-1-7.4-.7-3.3.4-6.5 1.4-9.5 3-1.4.8-1.9.5-1.7-1.1v-.9c-.1-6-.1-6 5.8-7.4 6.1-1.4 12.3-2 18.4-.1 6.3 1.9 9.1 5.7 9.1 12.2.1 7.3-.3 14.5.2 21.8.1 2.2 1.2 3.3 3.3 3.3 1.2 0 1.5.4 1.6 1.5.5 5.3.1 5.9-5.3 6.3-4.3.3-8.4-.1-10.5-4.8-.6-1.4-1.3-.3-1.8.2-4.1 3.6-8.8 5.4-14.3 4.5-5.3-.9-8.6-4-10.1-9-.2.1-.4.1-.4.2-3.4 6.2-9 8-15.5 8-7.4.1-14.8 0-22.3.1-1.3 0-1.6-.5-1.6-1.7v-56.5c0-1.2.3-1.6 1.6-1.6 7.6.1 15.1 0 22.7.2 5.3.2 9.9 2 12.6 7 3.5 6.6 1 14.4-5.7 18.4-1.9 1-3.8 1.8-6.3 3z"></path><path fill="#fdfdfc" d="M283.8 360.3c-3.5 11.7-18.5 16.6-28.5 7.4-.6.6-.3 1.4-.3 2.1v15.8c0 1.3-.4 1.8-1.8 1.8-1.8-.1-3.7.1-5.5.1-.7.4-1.5.6-2.3.6-2.4 0-3-.6-3-3v-55.4c0-.8-.2-1.7.5-2.3 3.7-.4 7.4-.1 11.1-.2 1.1 0 1.1.7 1.1 1.5v5.3c1 0 1-.7 1.3-1.1 6.1-9.2 20.1-9.1 26 .3 3.3 5.3 4.4 11.2 3.5 17.4.1 3.3-.7 6.6-2.1 9.7z"></path><path fill="#fdfdfd" d="M209.1 334.2c2.4-2.3 4.3-4.6 7.1-6.1 4.8-2.5 9.6-3 14.5-.5 4.3 2.2 6.1 6 6.2 10.6.2 10.5 0 20.9.1 31.4 0 1.5-.6 1.9-2 1.8-2.7-.1-5.5-.1-8.2 0-1.5.1-1.9-.4-1.9-1.9.1-8.5 0-16.9 0-25.4 0-1.5-.1-3-.3-4.4-.3-2.7-2.7-4.4-5.4-4.1-5.4.6-10.1 6-10.1 11.4 0 7.4-.1 14.8 0 22.3 0 1.8-.6 2.3-2.3 2.2-2.5-.1-5-.1-7.6 0-1.7.1-2.3-.4-2.3-2.2.1-10.2 0-20.5 0-30.7v-9.8c0-1.1.3-1.6 1.5-1.6 3 .1 6.1.1 9.1 0 1.2 0 1.5.4 1.5 1.6 0 1.7.1 3.5.1 5.4z"></path><path fill="#fdfdfb" d="M283.8 360.3c-.3-1.4.7-2.5.9-3.8.3-2 .8-4 1.2-6v3.8c.9-1.4 1.5-2.4 2.3-3.3 3.6-4.5 8.7-5.8 14.2-6.4 2.4-.2 4.7-.2 7.1-.3.8 0 1.5-.1 1.5-1.1-.1-1.5 0-3.1-.2-4.6-.5-3.2-2.8-4.8-6.7-4.9-4.6-.2-9 1-13 3-1.6.8-2.1.6-2-1.2.1-.7 0-1.3 0-2 0-4.1 0-4.1 3.7-5.6.5-1.1 1.7-.9 2.5-1.1 7.4-1.8 14.6-2.2 21.6 1.4 1.3.6 2.4 1.4 3 2.8.6.8 1.1 1.6 1.7 2.4 1.4 1.6 1.6 3.6 1.6 5.6v19.8c0 1.2.1 2.4.5 3.5.3 1 1 1.7 1.9 2 2.5 1 2.7 1.1 2.5 3.7 0 .3-.1.6-.2.8.2 2.1-.8 3-2.8 3.3-2.6.4-5.1.6-7.7 0-2.3-.5-4.2-1.6-5.1-3.9-.7-1.7-1.3-1.4-2.4-.3-4.7 4.5-12.3 5.9-17.5 3.3-4.6-2.3-6.9-6.1-7.1-11.2 0-.5.2-1-.2-1.4-1 .2-.7 1.2-1.3 1.7zm74.6-23.1v-7.1c0-.8.4-1.2 1.1-1.4 7.2-2.4 14.5-3.6 22.1-1.9 7.1 1.6 10.3 5.7 10.4 12.9v19.8c0 3.7.4 4.2 4 5 .1 0 .4 0 .4.1.9 1.7.5 3.6.7 5.3.1.8-.1 1.4-1.1 1.6-3.3.8-6.6 1.2-9.9.3-2-.6-3.7-1.6-4.5-3.6-.7-1.5-1.2-1.6-2.5-.4-4.4 4-9.6 5.5-15.4 4.1-4.8-1.2-7.9-4.5-8.9-9.3-1.2-5.4.5-10.1 4.8-13.7 3.2-2.7 7.2-3.7 11.3-4.2 2.7-.3 5.3-.4 8-.4.8 0 1.5 0 1.5-1.1-.1-1.6.1-3.1-.2-4.7-.5-3.1-3-4.8-6.9-5-4.7-.1-9.1 1-13.2 3.2-.3.2-.7.3-1 .5h-.7z"></path><path fill="#fdfdfd" d="M341.6 327.3v6.6c1-.4 1.4-1.3 1.9-1.9 3.3-3.9 7.3-6.1 12.5-6 1.3 0 1.9.4 1.9 1.8-.1 2.4 0 4.9.1 7.3 0 1.3-.1 1.9-1.8 1.5-5.9-1.4-10.6.6-14 5.6-.6.9-.6 1.8-.6 2.7v22.9c0 4.1.4 3.4-3.4 3.5-2.3 0-4.6-.1-6.9 0-1.4.1-2-.3-2-1.9.1-13.6.1-27.1 0-40.7 0-1.4.4-1.8 1.8-1.8 3.6.3 7 .3 10.5.4z"></path><path fill="#fbf9f7" d="M368.1 319.7l8.4-11.2c.4-.5.8-.8 1.5-.8h9.3c.3 1-.5 1.3-.9 1.8-2.9 3.1-5.8 6.1-8.7 9.2-.8.8-1.6 1.2-2.7 1.1-2.1-.2-4.3-.1-6.9-.1z"></path><path fill="#271b62" d="M327.8 368.7c-.1-.5-.3-1-.3-1.5 0-1.6.2-3.1-2.3-2.7-1.2.2-2.2-.9-2.4-2.2-.1-.9-.2-1.8-.2-2.6-.1-7.1-.1-14.2-.2-21.3 0-1.7-.6-3.3-.9-5v-1.8c1.5 2.1 2.3 4 2.3 6.1 0 6.7.1 13.5-.1 20.2-.1 2.2 1.3 3.7 2 5.5.3.7 1 .4 1.6.4.8 0 .9-.6.9-1.3v-5.3c0-9 0-18.1.1-27.1 0-1-1.2-2.3 0-3.1 1.3-.8 2.8-1.7 4.5-1.4 2.1.2 4.2-.4 6.3.8.7.4 1.7.2 2.6-.2.7-.3 1.3 0 1.6.8.2.5.1 1.1-.4 1.4-1.1.6-.7-.9-1.3-1-2.4-.9-4.8-.3-7.2-.4-1.7-.1-3.8-.7-4.9.3-1.1 1-.3 3.2-.3 4.8v37.1c0 .8.3 1.6-.4 2.5-1-.9 0-2.3-1-3z"></path><path fill="#271e55" d="M242.8 327.3V384c0 3.2 0 3.2 3.1 3.3.6 0 1.2.1 1.8.1-.9 1.6-2.3 1.6-3.7 1.1-1.4-.5-2.2-1.3-2.2-3.2.1-18.7.1-37.4.1-56.2.1-.5-.8-1.9.9-1.8z"></path><path fill="#271b62" d="M319.8 330.8c-5.5-4.7-12.1-5.3-18.9-4.6-2.8.3-5.5 1-8.2 1.5-.5-.1-1.1-.2-1.1-.8 0-.6.6-.5 1-.5 4.4-.6 8.6-1.9 13.1-2 1.7 0 3 0 4.6.7 1.7.7 3.6 1 5.5 1.3 2.2.3 4.4 2.6 4 4.4zm3.6-4.5c1.3 1.4 1.3 1.4 1.6 3-1.1-.6-1.5-1.5-1.6-3z"></path><path fill="#28176f" d="M125.2 353.6v-7.3c0-1.1.2-1.7 1.4-1.7 4.6 0 8.8 1.1 12 4.7 2.3 2.6 2.8 5.5 1.7 8.7-1.1 3-3.6 4.2-6.6 4.5-2.3.2-4.6.2-6.9.4-1.3.1-1.7-.4-1.7-1.7.2-2.6.1-5.1.1-7.6z"></path><path fill="#2a176c" d="M125.2 328.3c0-2.2.1-4.3 0-6.5 0-1.3.3-1.9 1.7-1.8 2.3.2 4.6-.1 6.9.5 3.6.9 5.6 3.7 5.1 7.4-.6 4.5-3.6 7.5-8 8.3-5.6 1-5.6 1-5.6-4.5-.1-1.2-.1-2.3-.1-3.4z"></path><path fill="#29186e" d="M178.5 356.2c-.4 1.3.8 3-.7 4.3-2.3 2-4.9 3.7-8.1 3.6-2.3-.1-4.1-1.4-5-3.5-.9-2-.6-4 .8-5.8 2-2.6 4.9-3.2 7.8-3.5 5.2-.5 5.2-.4 5.2 4.9z"></path><path fill="#2a166f" d="M255 350.8V345c0-5.2 6.3-10.3 11.4-9.3 2.3.5 3.9 1.8 4.8 3.9 3.1 7.2 2.8 14.4-1.1 21.3-2.3 3.9-7.3 4.7-11.5 2-2.4-1.5-4.3-3.3-3.7-6.6.3-1.8.1-3.7.1-5.5z"></path><path fill="#2a176c" d="M310.9 356.1c-.4 1.3.7 3.1-.6 4.4-2 2-4.5 3.4-7.4 3.6-2.4.2-4.9-1.4-5.8-3.7-.9-2.4-.2-5 1.9-6.7 3.3-2.6 7.1-2.5 11-2.4.9 0 .9.6.9 1.2v3.6z"></path><path fill="#29176e" d="M380.4 356.1c-.3 1.2.8 3.1-.5 4.4-2.2 2.1-4.7 3.6-7.8 3.7-2.5.1-4.8-1.7-5.6-4.1-.7-2.6.4-5.3 2.8-6.9 3.2-2 6.7-1.9 10.3-1.9.9 0 .8.6.8 1.2v3.6z"></path><path fill="#9e1426" d="M328 97c1.3-.3 1.9.2 1.8 1.5v153.6c0 4.1 0 4.1-4 4.1-50.6 0-101.2 0-151.8.1-2.8 0-3.7-.7-3.7-3.6.1-50.2.1-100.4.1-150.6 0-.8.1-1.6 0-2.4-.3-2.5.8-3.3 3.1-2.7.9.4 2 .7.7 1.8-1.6 1.2-2.2 2.8-2.1 4.7v145.6c0 4.5.5 5.1 5 5.1h146.2c1.5 0 3 .1 4.3-.9 1.1-.8.9-1.9.9-3V100.7c0-.4 0-.8-.1-1.2-.1-.3-.3-.7-.4-1-.4-.5-.4-1 0-1.5z"></path><path fill="#cd0a1f" d="M174.5 98.1c-.4-.4-.8-.7-1.2-1.1 1.3 0 2.6-.1 3.9-.1h147.7c1 0 2 .1 3 .1v1.1c-.5.6-1.2.8-1.9.8-5.8-.3-11.4 1.5-17.2 1.4-8.9-.2-17.8-.7-26.6.4-.5.1-1 .1-1.5-.2-3.5-2-7-1.4-10.7-.6-3.2.7-6.6.6-9.8-.3-1.8-.5-3.5-.7-5.3-.5-25.4 2.4-50.8.6-76.2 1.1-1 0-2 0-3-.3-.9-.2-1.8-.6-1.2-1.8z"></path><path fill="#e20018" d="M174.5 98.1c.2 1.5 1.3 1.3 2.3 1.3h63.5c5.6 0 11.1-.8 16.7-1.1 3.5-.2 6.9 1.4 10.5 1.2 2.9-.2 5.4-2 8.4-1.3.7.1 1.7-.2 2 .1 2.5 2.7 5.5 1.1 8.3 1.1 9 0 18 .3 27-.1 4.9-.2 9.7-1.5 14.7-1.1.9 1 .6 2.3.6 3.5v148.9c0 1.2.2 2.4-.6 3.5-.5 2-2.1 1.1-3.2 1.1-14.2.1-28.4 0-42.5 0H177.4c-6.4 0-6.4 0-6.4-6.5 0-48.6 0-97.3-.1-145.9 0-2.8.7-4.5 3.6-4.7z"></path><path fill="#cd0a1f" d="M328 253.9V98.1c2 .4 1.2 2.1 1.2 3.2.1 19 0 37.9 0 56.9v92.5c-.1 1.1.7 2.7-1.2 3.2z"></path><path fill="#fdfdfd" d="M299.2 115c8.1 8.4 10.6 18.7 9.4 30-.9 8.7-4.2 16.6-11 22.5-1.6 1.4-2.6 1.6-3.9-.5-4.2-6.4-10.6-10.1-17.4-13.2-4.2-1.9-4.3-1.9-3.2-6.3 3.1-12.9-2.9-26.3-14.8-32.6-.2-.1-.6-.1-.9-.1-4.3-1.8-8.4-4.1-13-5.3-.8-.2-1.6-.6-1.5-1.6.1-.9.9-1.2 1.7-1.5 1-.3 2-.3 3-.3 8.7 0 17.4-.3 26 .1 8 .3 15.9 1.4 22.8 6 1.1.9 2.1 1.7 2.8 2.8z"></path><path fill="#fcfcfc" d="M246.5 244.3c3.4-2 6.9-3.9 10.2-5.9 14.3-8.7 26.9-19.2 35.7-33.7 3.8-6.3 6.2-13.1 6.7-20.5 0-.7-.3-1.6.5-1.9.9-.4 1.4.5 1.9 1 4 4.3 6.8 9.3 7.8 15.2 2.3 13.5-.1 25.8-10.1 35.9-4.5 4.6-10.3 7.1-16.5 8.6-11.2 2.6-22.6 1.9-33.9 2.4-.7-.1-1.6-.1-2.3-1.1z"></path><path fill="#ef9da5" d="M260.7 171.1c1.9-3.2 2.9-3.6 6-2.1 4.2 2 8.1 4.3 10.7 8.3 4.8 7.4 2.6 14.3-1.4 21.1-5 8.4-12.3 14.5-20.2 20-12.7 8.9-26.8 14.8-41.5 19.4-6.3 1.9-12.7 3.2-19.3 4.1-1.9.3-2.5-.5-2.5-2.3 0-7.9.1-15.8 0-23.6 0-2.1 1-3.1 2.8-3.7 11.1-3.7 21.6-8.6 31.9-14.2 1.7-1 3.2-2.4 5.2-2.9.3-.2.6-.1.9 0 0 1.9-1.6 2.4-2.8 3.1-10 5.7-20.2 10.8-31.1 14.6-4.9 1.7-4.9 1.8-4.9 7.1v17.4c0 2.2.8 2.7 3 2.4 16.3-2.9 31.9-8.2 46.4-16.2 10.4-5.7 20.2-12.2 27.5-21.8 3.7-4.9 7.2-10.1 6.7-16.8-.4-5.7-7.3-13.4-12.9-14.3-1.5-.2-2.4.8-3.7 1-.3-.2-.6-.3-.8-.6z"></path><path fill="#f2a9af" d="M251.3 134c3.2 2.5 4.9 10 3.1 13.4-.8 1.4-2 1.1-3.1 1-5.9-.4-11.7-.6-17.6-.3-12.8.7-25.3 3.2-37.6 6.6-2.7.7-3.4 0-3.4-2.6.1-7.8.1-15.6 0-23.4 0-2.4.9-3.3 3.2-3.8 13.2-2.5 26.5-3.8 39.7-.4 5.2 1.3 10.4 3 14.3 7 .5.8 1.6 1.3 1.4 2.5-1.3.8-2.1-.2-2.9-.9-6.2-5.4-13.6-7.1-21.5-7.9-9.5-1-18.9-.3-28.3 1.3-3.6.6-4 1-4 4.6v17.7c0 3.3.8 3.9 4 3.1 4.7-1.2 9.5-2.3 14.3-3.4 10.7-2.4 21.6-2.5 32.5-2.3h1.8c5.7 0 6.9-1.9 5-7.6-.4-1.3-2-2.7-.9-4.6z"></path><path fill="#cd0a1f" d="M299.2 115c-.2 0-.4 0-.6-.1-7.3-6.1-16.2-7.5-25.2-7.7-8.9-.2-17.7 0-26.6 0-1.2 0-2.4 0-3.8.9 5.2 2 10.4 3.1 14.5 6.8-3.4.9-5.8-1.9-8.8-2.7-2.7-.7-6.1-.5-8.2-3.3-.3-.4-1.1-.4-1-1.2.1-.5.4-1 .9-1 2.3-.1 4.2-1.5 6.6-1.5 7.4.2 14.8.2 22.1 0 8.6-.2 16.8 1.1 24.8 4.5 2.7 1.3 5.2 1.9 5.3 5.3z"></path><path fill="#f1abb4" d="M203.3 172.5c8-3.1 16.5-4.7 24.9-5.9 3.7-.5 7.5-.8 11.3-1.1.6-.1 1.5-.3 1.9.5.4.7 0 1.3-.6 1.8-5.5 4.2-10.5 9.2-17 12-.3.2-.5.2-.8 0-.1-1.5 1.1-2 2.1-2.6 4.2-2.7 8.2-5.6 12.4-9.1-3.3-.5-6.1.3-8.9.6-6.9.9-13.8 1.7-20.4 4.2-1.4.6-3 1.1-4.7.5-.3-.3-.3-.6-.2-.9z"></path><path fill="#eea2a8" d="M203.3 172.5v.6c-1.4 2-3.8 2.5-5.9 3.3-2.1.8-3 2-3 4.2.1 2.6 0 5.2 0 7.8 0 2.1 1 2.7 2.9 2 7.6-2.9 15.1-6.1 22.3-10.1 1-.6 1.9-1.6 3.3-.8.3.1.6.1.9.2-4.8 3.6-10.3 5.9-15.7 8.4-4 1.8-8.2 3.1-12.2 4.8-2.3.9-3.4.5-3.3-2.2.1-4 .1-8 0-12 0-1.3.1-2.4 1.5-3 3-1.2 5.9-2.8 9.2-3.2z"></path><path fill="#e89299" d="M233.3 195.2c-.3 0-.6-.1-.9-.1 3.5-3.3 7.9-5.4 11.6-8.4 6-4.8 11.3-10.3 16.7-15.6.1.1.2.2.4.3.1 2.4-1.8 3.7-3.1 5.1-4.3 4.6-9 8.6-14 12.4-2.6 2-5.1 4-8 5.7-.8.4-1.5 1.4-2.7.6z"></path><path fill="#fdfdfd" d="M233.3 195.2c10.5-6.5 20.2-13.9 27.8-23.8 2.4-3.1 5-1.8 7.6-.2 7.5 4.6 11.1 8.9 10.1 17.6-.6 5.1-3.5 9.3-6.5 13.2-6.4 8.3-14.7 14.4-23.7 19.7-7.5 4.5-15.3 8-23.3 11.2-9.3 3.7-19 5.8-28.7 7.8-2.1.4-2.8-.3-2.8-2.5.1-7.2.1-14.4 0-21.6 0-1.9.7-2.8 2.5-3.5 12-4.1 23.3-9.5 34.3-15.7.9-.6 1.8-1.4 2.7-2.2zm18-61.2c1.2 3.5 3 6.9 2.4 10.9-.3 1.8-.7 2.4-2.5 2.4-4.7-.1-9.4-.1-14.1-.1-12.8-.1-25.3 2.2-37.6 5.6l-.9.3c-4.3 1-4.9.5-4.9-3.8 0-6.5.1-13 0-19.5 0-2.3.5-3.4 2.9-3.8 9.7-1.6 19.5-2.6 29.4-1.7 7.2.7 14.1 2.2 20.3 6 1.8 1.2 2.9 3.2 5 3.7z"></path><path fill="#fbfdfc" d="M222.9 179.5c-2.7 1.3-5.5 2.5-8.2 4.1-5.5 3.3-11.7 5.1-17.6 7.7-2.6 1.1-3.4.4-3.5-2.3 0-3.1.1-6.2 0-9.2-.1-2.1.5-3.2 2.8-3.8 2.4-.6 4.6-1.9 6.8-2.8 4.8-.5 9-2.9 13.8-3.5 6-.8 12-1.7 18-2.5 1.2-.2 2.5 0 4.5 0-5.3 5.1-11.1 8.5-16.6 12.3z"></path></svg>