<svg xmlns="http://www.w3.org/2000/svg" xmlns:xlink="http://www.w3.org/1999/xlink" viewBox="38.9999885559082 61.000938415527344 520 142.99905395507812"><defs><path id="fn5a9ccfd7bdma" d="M.676.338H9V2H.676z"></path></defs><g fill="none" fill-rule="evenodd"><path fill="#040405" d="M559 144.725c-6.462-1.391-12.648-1.163-18.366 2.64-1.893 1.259-2.827 2.574-2.772 4.995.191 8.614.027 17.235.123 25.852.023 2.049-.499 2.862-2.757 2.783-5.915-.207-5.158.615-5.163-4.949-.012-12.2.03-24.4-.064-36.6-.018-2.287.196-3.81 3.124-3.37 2.204.33 5.514-1.157 4.868 3.247-.12.809-.017 1.65-.017 3.026 6.301-4.545 12.558-7.938 20.303-5.344.958 1.148-.175 2.673.721 3.832v3.888z"></path><g transform="translate(440 202)"><mask id="fn5a9ccfd7bdmb" fill="#fff"><use xlink:href="#fn5a9ccfd7bdma"></use></mask><path fill="#9CA59C" d="M8.947.628L9 2H.692L.676.697C3.428.174 6.187.287 8.947.627" mask="url(#fn5a9ccfd7bdmb)"></path></g><path fill="#97968F" d="M559 141c-1.8-1.111-.528-2.645-.971-3.943.324-.018.647-.038.971-.057v4z"></path><path fill="#030304" d="M415.82 181.966c-4.131.25-8.235-.91-12.35-2.215-2.51-.797-3.593-2.017-3.459-4.857.25-5.297.066-5.317 4.713-2.835 5.598 2.99 11.436 4.26 17.675 2.482 2.71-.772 4.5-2.351 4.569-5.479.068-3.2-1.77-4.759-4.495-5.46-3.941-1.011-7.972-1.684-11.883-2.793-9.695-2.748-13.355-11.887-7.87-19.463 2.123-2.93 5.202-4.457 8.575-5.395 6.924-1.925 13.607-.707 20.185 1.69 1.244.454 1.912 1.224 1.808 2.663-.101 1.398-.079 2.813-.008 4.215.12 2.348-.784 2.228-2.422 1.231-4.9-2.984-10.161-4.514-15.95-3.705-1.403.196-2.728.606-3.935 1.333-3.651 2.197-3.6 7.075.107 9.186 2.568 1.462 5.49 1.76 8.297 2.415 1.873.438 3.793.694 5.643 1.208 6.526 1.814 9.707 5.403 9.967 11.1.263 5.755-3.347 10.95-9.151 13.122-3.152 1.18-6.418 1.7-10.016 1.557"></path><path fill="#040405" d="M243.362 142.092c4.546-3.557 9.337-6.336 15.286-5.92 1.432.1 3.6-.356 4.006 1.196.55 2.103.352 4.49.046 6.695-.166 1.194-1.417.352-2.174.22-5.41-.95-10.416-.063-15.04 3.038-1.833 1.23-2.778 2.516-2.726 4.95.185 8.592-.077 17.192.108 25.785.095 4.408-2.985 2.452-4.885 2.82-2.106.409-2.981-.367-2.961-2.745.11-13.011.117-26.025-.021-39.036-.027-2.552.84-3.3 3.146-2.94.315.05.655.068.963.004 3.219-.67 4.222.803 3.747 3.807-.093.593-.337 1.268.505 2.126"></path><path fill="#030303" d="M85.042 118.34c.235-2.107.349-4.215.04-6.325-.426-.842-.934-1.675-.296-2.634.177-9.97 1.688-19.973-.786-29.874.41-1.558 1.816-1.462 2.899-1.439 7.953.171 15.912.087 23.865.166 4.773.048 9.581-.27 14.375-.23 1.683.164 3.28.71 4.898 1.157.679.225 1.381.418 1.776 1.095 8.62 3.77 10.846 10.782 10.03 19.336-.824 1.196.42 2.89-.979 3.947-.824 2.126-1.762 4.19-3.315 5.917-1.591 2.71-3.76 3.3-6.78 2.28-2.541-.858-5.422.38-8.002-.846a2.103 2.103 0 01-.5-.875c-.281-1.573.374-3.017.629-4.518.34-.992.39-2.015.333-3.051-.068-2.376.023-4.747-.455-7.109-1.085-5.355-3.776-8.148-9.137-9.302a17.044 17.044 0 00-1.943-.307c-7.486-.725-8.29-.01-8.285 7.413.004 6.702-.027 13.404-.02 20.108.021 1.331-.016 2.658-.29 3.967-.74 2.764-.24 5.586-.385 8.377-.077 1.495.17 3.048-.836 4.36-2.88 2.052-6.089.102-9.102.696-.696.138-1.34-.78-1.705.931-.423 1.98-3.009.867-4.565 1.42-.957-.238-1.363-.98-1.694-1.794-.48-3.02-.483-6.06-.36-9.104.04-1.278-.03-2.574.59-3.762"></path><path fill="#0B0706" d="M123.124 111.233c3.546.27 7.144-.565 10.646.927 1.804.769 2.177-2.092 3.85-2.16-.689 1.303-1.389 2.162 1.01 2.817 4.473 1.222 9.255 2.152 12.334 6.273 3.068 3.977 2.048 8.287.938 12.567-.206.795-.52 1.616-.936 2.362-.99 2.171-2.594 3.82-4.438 5.268-1.3.218-2.15-1.459-3.558-.84 1.17.28 2.995-.119 2.218 2.155l.017-.02c-1.093.319-1.65 1.625-3.113 1.39-3.67-.592-3.868-1.216-1.442-5.498-2.355-.298-3.896-1.7-4.995-3.71a3.372 3.372 0 01-.158-.906c1.572-3.156.793-6.074-.907-8.894-.482-1.937-2.527-2.213-3.659-3.457-.552-.512-1.065-1.135-1.823-1.288-1.73-.35-3.113-.711-2.583-3.138.583-2.676-1.85-2.449-3.384-3.01-.187-.276-.184-.555-.017-.838"></path><path fill="#2A2014" d="M134.909 148.038l-1.818.716c-3.024 1.938-6.398 2.643-9.86 3.091-.963.124-1.896.32-2.81-.104-1.756-.815-1.89-2.175-.371-3.467 1.33-1.132 3.033-1.566 4.481-2.572-.945.393-1.882 1.413-2.65-.178.455-2.572 2.68-2.886 4.453-3.779.82-.027 1.657.037 2.33-.628 1.984-1.96 3.232-1.199 4.093 1.175.302.831.843 1.484 1.792 1.577 1.04.348 1.947.193 2.9-.447.936-.628 1.96-.701 2.551.633l-1.965 1.928c-.778 1.12-1.935 1.615-3.126 2.055"></path><path fill="#1B100B" d="M139.61 143.112c-2.03-1.429-3.535 1.807-5.537.621-1.023-1.938-2.377-3.7-3.073-5.812.147-.23.338-.417.566-.565.85-.139 1.62-.839 2.537-.4.13.083.21.136.216.145-.128-.043-.208-.151-.328-.238-.55-.432-.863-.974-.927-1.657.025-1.043.52-1.878 1.164-2.648.304-.312.657-.527 1.103-.558 1.59 1.246 2.67 3.38 5.49 2.903l-2.363 4.248c1.827.487 3.617 1.615 5.542.304-1.345 1.362-2.307 3.185-4.39 3.657"></path><path fill="#FAF0EA" d="M68.157 126.184c5.105-2.924 10.675-4.837 16.146-6.965.841-.415 1.484-.27 1.631.7.18 1.18.058 2.356-1.24 2.909-1.658.705-3.309 1.417-4.891 2.261a5.06 5.06 0 01-.872.356c-1.78.186-3.17 1.547-4.998 1.59-1.426-.646-1.11 1.333-2.11 1.334-.586.393-1.19.735-1.949.602a1.524 1.524 0 01-.678-.448c-.336-.781-1.642-1.163-1.04-2.339"></path><path fill="#332618" d="M123.205 145.145c1.013 1.54 2.181-.738 3.392.213-1.78 1.864-4.419 2.49-6.337 4.096.502 1.355 1.776 1.974 2.924 1.507 3.366-1.368 7.402-.009 10.488-2.395.273-.212.877-.046 1.328-.055l-5.063 3.067.014.01-2.743.724c-1.533 1.036-3.494-.76-4.965.68a1.409 1.409 0 01-.286.737 2.034 2.034 0 01-.837.253c-3.234.226-3.339-1.666-2.977-3.88.005-.683-.063-1.364-.138-2.048a2.04 2.04 0 01.232-.84c1.472-1.081 2.688-2.71 4.968-2.069"></path><path fill="#FCECEF" d="M88.158 164.076c-1.398.492-2.809.911-4.337.68-5.536.485-11.086.074-16.624.21-1.428-.063-1.269-.932-1.066-1.825.12-.297.302-.565.533-.8.748-.523 1.518-.218 2.286-.049.686.197 1.33.498 2 .74.882.34 1.8.399 2.74.288.528-.073 1.056-.158 1.592-.149.964.196 1.773-.211 2.591-.586.904-.162 1.837.05 2.737-.192 1.202.02 2.43.31 3.57-.313.273-.074.551-.096.834-.068 1.165.868 3.25-.883 3.986 1.214-.053.48-.54.585-.842.85"></path><path fill="#E3C16B" d="M110 158.832c-1.685 1.23-3.594 1.722-5.519 2.168-1.078-.433-2.165-.1-3.25-.047-.584.01-1.089-.222-1.531-.646-.591-.64-1.34-1.116-1.695-2.016-.068-.92.53-1.412.993-1.993a2.984 2.984 0 011.079-.762c.826-.266 1.646-.578 2.525-.531.29.069.543.219.762.443.667 1.893 1.937 2.413 3.642 2.243 1.088-.108 2.455-.766 2.994 1.14"></path><path fill="#D8AC4F" d="M51.295 138.191c1.539-1.954 3.251-3.709 5.2-5.191 1.488.145 2.094 1.237 2.442 2.61a2.71 2.71 0 01-.082 1.463c-.21.443-.522.788-.906 1.06-1.74.707-2.815 2.723-4.852 2.867-.602-.058-1.124-.33-1.611-.696a1.706 1.706 0 01-.486-.762c-.008-.476.164-.908.295-1.35"></path><path fill="#21100A" d="M151.314 133c.648-1.876.275-3.94 1.048-5.825.308-.752.42-1.854-.365-2.533-1.13-.978-1.666-1.687.412-1.823.135-.009.26-.173.39-.264-.198-.177-.503-.315-.578-.538-.34-.992-.613-2.009-.91-3.017 2.93 1.701 3.267 6.641 1.964 10.368-.454 1.296-.933 2.645-1.961 3.632"></path><path fill="#DBB14F" d="M45.085 152.09c-.27-1.783.133-3.45.8-5.07.628-.117.873.293 1.032.821.033.602-.195 1.202-.016 1.807 1.327-2.647 4.001-2.339 5.962.683.188.875.329 1.74-.613 2.278-.864.412-1.856.398-2.698.893-1.999 1.306-3.18-.235-4.467-1.412"></path><path fill="#E2D0AE" d="M46.817 156.971l-.485-.727c-.489-.547-.313-1.183-.244-1.803 1.17-.999 1.991-.068 2.878.51.46.347.922.694 1.373 1.051.499.475 1.075.784 1.787.794.28-.006.555.004.832.009.875.04 1.728-.19 2.602-.189.32.063.588.213.814.446.553.862 1.006 1.73.15 2.669-1.814.705-3.57-.201-5.36-.184-.81-.101-1.451-.67-2.254-.798-.962-.283-1.355-1.232-2.093-1.778"></path><path fill="#FBEBE3" d="M67 162.726l-.626 1.822c-1.282.67-2.59.494-3.903.122l-.026-.003c-.983-.86-2.29.02-3.313-.628-1.14.087-2.259.095-3.132-.837.015-1.641 1.63-1.305 2.413-1.995.758.632 1.46-.592 2.218-.077 1.392 2.258 3.447.827 5.225.948a1.76 1.76 0 011.144.648"></path><path fill="#DCC36A" d="M48.968 156.812c-.912-.514-1.475-1.694-2.665-1.678-.525-.37-.902-.903-1.299-1.416L45 152.29c1.502-.89 2.257 2.696 3.93.788.941-.013 1.899.04 2.668-.73.769-.478.068-.973.013-1.461 1.212-1.647 1.824-.744 2.322.652.082 2.398.58 5.222-3.165 3.78-.182-.07-.387-.354-.544.04.205.063.355.237.328.51-.114 1.124-.697 1.35-1.584.944"></path><path fill="#C1A151" d="M109.035 157.976c-1.684-1.104-3.532.15-5.388-.29-1.785-.424-1.868-1.016-1.415-2.163.535-.831 1.54-1.09 2.478-1.434.56-.127 1.113-.137 1.642.095.731.504 0 .966-.05 1.447 1.134 1.352 3.135.38 4.463 1.178.165.114.243.245.234.392-.008.153-.033.229-.076.229-.565.34-1.136.661-1.888.546"></path><path fill="#644D27" d="M120.243 153.343l.653-.001c.723-.434 1.429-.501 2.104.07-2.004 1.057-4.201 1.687-6.504 2.087-.99.398-2.054.476-3.129.501a2.314 2.314 0 01-.971-.344c-.455-.509-.503-1.057-.22-1.634 1.473-1.2 3.378-.977 5.051-.742 1.052.147 2.022-.068 3.016.063"></path><path fill="#F7DAAF" d="M49.799 159.06c2.092-.266 4.06.43 6.098.58 1.09-.098 1.083.553 1.103 1.187-.2.673-.778.974-1.505 1.128-.994.198-1.991-.337-2.988.007-1.662.19-2.31-1.17-3.507-1.692.634-.224 1.22-.472.799-1.21"></path><path fill="#E1CAA9" d="M59.716 131.679l.695-.366c1.24-.253 2.496-.676 3.638.293.358.39.624.83.81 1.32.162.53.183 1.063.071 1.604-.466 1.323-1.331 2.22-2.8 2.47a3.563 3.563 0 01-2.583-1.08c-.33-.483-.428-1.035-.499-1.595-.172-.976.134-1.838.668-2.646"></path><path fill="#F8DFD1" d="M62 164.13l3.83-.13 17.17.175c-7.002 1.044-14.002 1.17-21-.044"></path><path fill="#BBA154" d="M47.19 144.274l.526-.916c.367-.287.774-.334 1.188-.358.689.151 1.342.417 1.877 1.046.233.483.272 1.001.155 1.546-.299.796-.747 1.46-1.112 2.203-2.512 1.871-2.813 1.709-2.824-1.522.182-.645-.021-1.357.19-1.999"></path><path fill="#F7E1D9" d="M79 125.641c1.273-1.537 3.113-1.953 4.837-2.671 1.905-.794 2.672-1.964.228-3.223A501.91 501.91 0 0085.74 119a7.684 7.684 0 01-.158 4.486c-1.887 1.693-3.822 3.235-6.582 2.155"></path><path fill="#1B100B" d="M145.397 140c-.289-1.183-.811-2.117-2.347-1.08-.45.305-.594 1.114-1.324.479-.405-.353-.695-.948-.725-1.449-.04-.655.752-.939 1.325-.948 1.794-.029 3.475.324 4.674 1.639L145.397 140z"></path><path fill="#F9E6E1" d="M63.006 129.028c.776-.546 1.458-1.338 2.647-.8 1.415-.524 2.5-.12 3.347.948l-.018-.005c.107 1.577-1.29 1.566-2.427 1.829a3.081 3.081 0 01-.958-.191c-.505-1-2.727-.032-2.591-1.781"></path><path fill="#F1D4AC" d="M62.278 131.866c-.58-1.003-1.657.155-2.278-.67.793-.974 1.707-1.75 2.822-2.196.515.733 1.858 1.149.754 2.506-.377.37-.77.681-1.298.36"></path><path fill="#D6C68B" d="M58.937 132l.063 2.204c-.487.461.035 1.352-.491 1.796A2331.87 2331.87 0 0057 133.713c.53-.774 1.132-1.421 1.937-1.713"></path><path fill="#4F2635" d="M120.74 152.865c.074-.273-1.75-.616.07-.821 1.794-.202 3.44.36 5.19.392-.395.46-1.144.39-1.809.444-1.154.285-2.3-.028-3.452-.015"></path><path fill="#FBF0A9" d="M101.104 160.41c1.055-.419 2.114-.871 2.896.599l-3.275.89c-.362.172-.707.176-.724-.401-.026-.878.817-.6 1.103-1.089"></path><path fill="#FBE3D7" d="M89 164l.711-.629c1.57-1.679 3.727-1.385 5.83-1.29.384.059.74.179 1.074.352.13.122.257.246.385.37A31.388 31.388 0 0189 164"></path><path fill="#FCE4C0" d="M98.81 161.434l-2.49.566-.114-.056c-.478-.776-.053-1.277.55-1.726.688-.3 1.363-.312 2.015.098.291.363.305.736.04 1.118"></path><path fill="#F8E4B2" d="M55.66 162.1c.549-.02 1.056-.127 1.35-.673.911-.475 1.802-.89 1.99.71-.591 1.083-2.202.654-2.71 1.863l-1.28-.432c-.072-.62.233-1.069.65-1.468"></path><path fill="#FBF5C2" d="M68.895 128L66 127.245c.009-.824.816-.994 1.523-1.245.074.842 1.931.865 1.372 2"></path><path fill="#FAE0BD" d="M63.677 131.699c.954-1.082-.814-1.48-.668-2.357.081-.216.243-.33.486-.342.432.576.906.685 1.673.44 1.303-.414.706.476.627.975.03 1.508-.666 1.95-2.118 1.284"></path><path fill="#D6AC4C" d="M49.301 143L48 142.924l.447-.615c1.246-.582 1.534-2.447 3.324-2.3l.006.007c.734 2.194-.41 2.944-2.476 2.984"></path><path fill="#C0A052" d="M51 140.516c-1.194.518-1.635 2.24-3 2.484.582-1.722 1.734-2.888 2.943-4l.057 1.516"></path><path fill="#D6A249" d="M46.475 144l.525.955c-.883.423-.253 1.916-1.554 2.045l-.446-.496c.33-.924.736-1.805 1.475-2.504"></path><path fill="#F5C3A9" d="M46 157l2.095.917c.502.277 1.325.458.65 1.083-1.307-.403-2.245-1.053-2.745-2"></path><path fill="#FCE1A8" d="M99.318 161.975l-.038-.908c-.333-.28-.346-.597-.159-.94.237-.177.47-.165.7.01l1.17.456c.134.413-1.39.408-.383 1.04-.344.335-.787.416-1.29.342"></path><path fill="#B89D58" d="M112.155 157a11.999 11.999 0 00-.013-.32c-.196-.193-.184-.383.007-.573.398-.154.826-.094 1.245-.101.543.038 1.132-.118 1.606.222a5.194 5.194 0 01-2.845.771"></path><path fill="#FCEAD7" d="M54 162.013c.01.399-.121.74-.487.987L52 162.463c.521-.68 1.308-.392 2-.45"></path><path fill="#F2E7B7" d="M48.553 160.491L48 159l1.794.64c.415.865.21 1.333-.68 1.36l-.56-.509"></path><path fill="#5A391D" d="M121 153.382c1.006-.807 2-.103 3 .02l-1.083.598-1.916-.073-.001-.545"></path><path fill="#E9C092" d="M45 153c.58.093.974.404.99 1.16L46 156a4.863 4.863 0 01-1-3"></path><path fill="#93703F" d="M114.813 157l-1.63-.093c-.168-.203-.22-.394-.157-.574.062-.175.122-.262.183-.262L116 156c-.279.77-.702 1.002-1.187 1"></path><path fill="#E40D35" d="M56 129.555c-.171.13-.388.35-.639.444-.067.025-.238-.337-.361-.521.19-.143.368-.312.57-.424.268-.148.407.003.43.501"></path><path fill="#F8DFD1" d="M59 164.15c1.03.048 2.162-.731 3 .85-1.033-.014-2.076.04-3-.85"></path><path fill="#030304" d="M213.48 173.533c-4.573 1.547-9.343 1.255-14.07 1.257-7.219.004-7.219.002-7.219-7.213v-3.573c0-.216-.012-.433.002-.65.214-3.303-1.419-7.67.66-9.634 2.065-1.95 6.36-.509 9.675-.557 2.902-.042 5.82-.007 8.709.242 5.191.447 8.526 3.502 9.095 8.07.753 6.05-1.59 10.277-6.853 12.058m-20.977-43.659c5.266-.64 10.536-.05 15.805-.067 3.225-.051 5.71 1.154 6.731 4.398 1.135 3.607-.148 7.763-2.826 9.671-1.622 1.157-3.459 1.838-5.428 1.89-4.203.113-8.41.057-12.613.152-1.333.03-2.045-.332-1.984-1.79.199-4.75-.38-9.515.315-14.254m24.016 17.849c.626-.519.933-.791 1.258-1.04 5.621-4.292 7.371-9.315 5.43-15.596-1.535-4.964-6.385-8.09-12.864-8.632-7.856-.655-15.718-.3-23.577-.452-1.74-.034-2.775.153-2.765 2.388.081 18.422.062 36.844.033 55.265-.002 1.545.257 2.385 2.094 2.342 8.719-.2 17.457.273 26.154-.614 8.916-.91 15.5-7.33 16.557-15.947 1.045-8.525-2.951-14.416-12.32-17.714"></path><path fill="#030304" d="M214 173l-14 .984c4.704-.002 9.45.226 14-.984"></path><path fill="#FCF3F8" d="M208 129.654c-5.33.742-10.667.06-16 .061 1.922-1.186 4.093-.546 6.116-.517 3.292.046 6.648-.623 9.884.456"></path><path fill="#030304" d="M472.412 163.06c-1.729 10.824-12.323 15.634-22.237 10.183-.94-.516-1.178-1.116-1.179-2.045 0-7.366.012-14.734-.054-22.1-.012-1.294.618-2.036 1.592-2.598 1.412-.815 2.827-1.651 4.321-2.294 9.68-4.162 16.8.049 17.672 10.433.099 1.18.013 2.375.013 3.563l.25.004c-.12 1.619-.122 3.256-.378 4.854m7.642-13.034c-3.03-13.467-13.98-18.684-26.322-12.346-1.506.772-2.934 1.692-4.791 2.771.992-4.268-1.401-4.407-4.181-4.102-.322.036-.66.025-.98-.028-2.148-.353-2.791.516-2.78 2.663.106 21.108.114 42.216.148 63.324 2.622.872 5.237.995 7.842-.067v-22.9c1.1.498 1.672.79 2.268 1.024 12.406 4.902 24.096-.156 28.174-12.401 1.95-5.854 1.99-11.853.622-17.938m-139.978 7.88h.026c0 2.705-.293 5.449.07 8.103.498 3.63-1.086 5.609-4.194 7.014-1.987.898-3.927 1.791-6.115 2.109-6.707.973-11.051-1.666-12.717-8.155-1.167-4.549-1.24-9.235-.167-13.827 1.748-7.483 6.747-10.976 14.586-10.342 1.402.113 2.792.435 4.176.713 3.08.616 5.064 1.831 4.429 5.639-.474 2.842-.094 5.825-.094 8.746m7.891-36.572c.005-1.68-.409-2.442-2.186-2.26-.969.1-1.966.06-2.937-.036-2.034-.204-2.895.382-2.785 2.672.208 4.324-.1 8.671.085 12.996.116 2.721-.062 3.631-3.212 2.364-11.787-4.744-23.528.815-27.393 12.852-2.14 6.67-1.984 13.498.071 20.14 3.761 12.16 15.654 16.468 26.608 9.82 1.18-.718 2.325-1.492 4.176-2.683-1.716 5.423 1.705 4.34 4.354 4.559 2.361.195 3.264-.429 3.252-2.948-.093-19.158-.08-38.318-.033-57.476m166.17 49.792c-3.733 3.029-8.017 4.664-12.833 4.478-4.589-.178-7.497-2.295-8.02-5.672-.756-4.883 1.26-8.234 6.054-9.803 4.538-1.485 9.296-1.524 13.982-2.015 1.385-.144 1.945.434 1.862 1.878-.09 1.535-.02 3.079-.02 4.876-.524 1.896 1.151 4.493-1.025 6.258m8.812-6.708h.012c0-4.739.1-9.48-.02-14.216-.217-8.43-4.43-13.232-12.504-14.62-5.599-.964-11.138-.685-16.664.504-6.019 1.295-4.602.604-4.874 5.949-.149 2.926.64 3.308 3.242 2.378 5.423-1.94 11.01-2.99 16.788-1.722 2.948.646 5.136 2.133 5.95 5.308.59 2.292.495 3.846-2.517 3.692-2.022-.103-4.078.212-6.101.472-5.106.658-10.268 1.063-14.83 3.956-5.256 3.332-7.444 8.95-5.992 15.745 1.234 5.775 5.947 10.276 11.53 10.946 5.765.691 11.096-.478 15.907-3.929.6-.43 2.146-1.893 2.074-.395-.227 4.713 2.864 3.21 5.14 3.473 2.268.262 2.975-.707 2.905-3.003-.148-4.842-.046-9.691-.046-14.538m-234.347 9.935c-2.86 1.13-5.851 1.408-8.892 1.01-3.124-.408-5.547-1.776-6.357-5.143-.9-3.742.287-6.822 3.374-8.822 3.306-2.144 7.112-2.328 10.839-2.807.425-.055.86-.027 1.29-.053 6.338-.384 6.338-.384 6.337 6.026-.002 6.528-.566 7.41-6.59 9.79m14.32 3.914c.034-9.36.032-18.719.013-28.078-.017-7.991-4.106-13.036-11.816-14.499-5.688-1.079-11.355-.835-17.034.319-6.303 1.28-4.75.795-5.048 6.1-.178 3.157.924 3.03 3.312 2.206 5.457-1.884 11.055-2.897 16.849-1.607 3.023.673 5.104 2.42 5.852 5.454.46 1.867.48 3.321-2.461 3.518-6.739.452-13.62.546-19.914 3.659-5.991 2.963-8.579 8.592-7.396 16.014.958 6.018 6.044 10.813 12.154 11.495 6.426.716 12.123-1.108 17.4-5.482.2.637.343.852.319 1.046-.618 4.986 3.06 3.12 5.327 3.474 3.21.502 2.436-1.916 2.443-3.62m81.802-24.273c-3.344-.191-6.707-.047-10.062-.047v-.016c-3.571 0-7.144-.045-10.715.021-1.52.028-1.772-.543-1.543-1.98.915-5.74 6.26-10.15 12.603-10.262 7.08-.126 10.621 2.71 11.976 9.352.432 2.116.187 3.073-2.26 2.932m-13.86-18.44c-10.922 2.003-17.407 11.933-16.828 24.44.583 12.611 6.296 20.205 17.197 22.377 6.052 1.206 12.066.649 17.95-1.417 5.15-1.808 5.181-1.715 4.915-7.4-.015-.328-.079-.66-.051-.984.165-1.942-.483-2.118-2.007-1.111-3.784 2.5-7.985 3.905-12.448 4.479-9.12 1.17-16.352-4.448-17.397-13.259-.263-2.22.429-2.62 2.393-2.568 4.559.122 9.122.039 13.683.037 4.777-.002 9.555.006 14.333-.01 1.068-.003 2.203.159 2.311-1.531 1.016-15.854-7.1-26.163-24.05-23.054"></path><path fill="#231411" d="M86 134.79l.016-2.79 1.275 1.387c1.267-.922 2.711-.016 4.045-.46.881-.293 1.812-.09 2.023 1.04.261 1.394-1.25.794-1.73 1.515 2.041-.514 2.707-4.002 5.452-2.746.987.51 2.108.798 2.73 1.904.086.327.058.649-.076.957-.4.42-.93.497-1.446.607.879.006 1.785.122 2.451-.713.28-.387.59-.733 1.027-.921a.976.976 0 01.806.402c.496.944.485 1.953.34 2.978a3.162 3.162 0 01-.358.906c-1.703 1.123-3.761.276-5.514 1.144-.922.015-1.643-.635-2.494-.857-2.253.005-4.554-1.345-6.745.506-.533.45-1.165-.207-1.438-.912-.235-1.304.333-2.692-.364-3.946"></path><path fill="#0D0A09" d="M97.211 133.732c-1.437-.727-2.762.39-3.332 1.231-1.053 1.554-2.159.872-3.33.972.37-1.295 1.89-.083 2.252-1.8-1.872-.818-3.882-.214-5.801-.406.775-2.543 3.37.65 4.275-1.883l-1.924-.91.058-.936 12.533.672c.969.397 1.263 1.146.921 2.224-1.753 1.386-3.75.7-5.652.836"></path><path fill="#372517" d="M122.894 110.887l.768-.887.146.93-.015.71c2.555.884 2.834 1.745 1.135 3.592-.625.679-1.401 1.162-2.212 1.581-.458.196-.928.253-1.41.097-.703-.654-.614-1.764-1.332-2.41-2.36-2.963.09-2.731 1.866-2.947.392-.152.849-.199 1.054-.666"></path><path fill="#51151C" d="M101.558 132.734l-.558-1.922c1.13-2.623.335-5.439.59-8.148.145-1.554-.4-3.187.387-4.664.131.118.262.235.394.351.292.497.408 1.064.477 1.65-.07 5.851.584 11.726-.383 17.552-.195.388-.477.523-.847.406l-.076-3.288c-.404-.65-.442-1.296.016-1.937"></path><path fill="#AB8E48" d="M102.274 113.084l2.718-.084a6.99 6.99 0 01.992 2.114c.055.508-.025.976-.312 1.382-.483.411-1.027.485-1.602.379-.616-.648-1.211-.565-1.788.08L102 117l.274-3.916"></path><path fill="#241B1B" d="M129.461 118.997l-.295-.052c-.938-1.343-2.5-1.19-3.818-1.62-.407-.126-.8-.292-1.191-.455-.764-.393-1.607-.487-2.435-.641a1.801 1.801 0 01-.722-.459c.362-.881 1.204-1.212 1.89-1.744 1.594-1.238 1.13-2.242-.466-3.026h5.37c-1.156 1.332-2.901 2.022-.522 3.745.81.587-1.238.095-.866 1.41 1.382.51 3.565.267 4.594 2.21-.394.506-.93.66-1.539.632"></path><path fill="#98804C" d="M130 119.53l1.666-.53c1.38 1.057 3.699 1.287 4.334 3-2-.822-4-1.647-6-2.47"></path><path fill="#24170F" d="M127 141.422c1.552-1.698 3.213-3.264 5.209-4.422-.023.53-.095 1.524-.06 1.528 3.628.405 1.94 3.647 2.851 5.472-2.592-.2-1.897-3.253-3.34-4.116-1.71-1.022-2.296 3.35-4.66 1.538"></path><path fill="#24170F" d="M132 137.526l1.5-2.526.5 2.055c-.634.425-1.18 1.593-2 .471m2-.526c1.11.153 1.965.113 2 1.978-1.11.194-1.493-.942-2-1.978"></path><path fill="#E1CE99" d="M73 128.23c-1.718 1.185-3.93 1.736-5.887 2.615-.303.202-.612.206-.925.015-.286-.385-.26-.742.177-1.058 1.015-.143 2.038-.273 2.63-1.032l2.026-.531c.657-.276 1.316-.355 1.979-.01"></path><path fill="#F1DECA" d="M78 125.02c-1.252 1.22-3.253 1.534-5.191 1.923-.803.177-.92-.076-.729-.52 2.048-.327 3.594-1.6 5.92-1.402"></path><path fill="#F7F4BF" d="M72.505 126.04l.495.527c-.182.14-.364.282-.546.424L71 127c.535-.269.642-1.203 1.505-.96"></path><path fill="#4E381D" d="M120 153.4c-2.468 1.15-5.137.236-7.688.537a.834.834 0 01-.312-.592c.176-.85 1.281-1.056 1.681-1.753a3.16 3.16 0 01.813-.722 9.13 9.13 0 011.402-.654c.506-.16 1.012-.361 1.544-.062.256.272.787.727.728.79-2.154 2.322.956 1.793 1.832 2.456"></path><path fill="#4A1B1B" d="M113 148.536l.126-.856c.11-.201.272-.252.494-.125l3.309-.555.071.556c-.117.511-.6.716-1.062.94-.85.348-1.691.762-2.664.296l-.274-.256"></path><path fill="#56443E" d="M117.278 149.733l1.254-.733c.639.456.613.909-.01 1.355l-1.251.645c-.386-.424-.338-.848.007-1.267"></path><path fill="#F7E1B2" d="M100 158.692c-.21 0-.42.004-.628.013-.608 1.011-2.166.164-2.679 1.363L95.958 162l-.807-.05c-3.27-.986-6.576-1.263-9.938-.531-.21-.012-.418-.03-.627-.05-.616-.576-.678-1.284-.497-2.05.493-1.203 1.528-1.363 2.64-1.374 2.288.237 4.229-1.025 6.354-1.497 1.105-.356 2.215-.633 3.38-.294.676.189 1.15.649 1.572 1.176l1.965 1.362"></path><path fill="#FCF6D4" d="M86 162.048c3.472-1.768 6.765-1.07 10 .397-2.001.028-3.998.066-5.919.555-.328-.44-.706-.988-1.488-.557-1.146.63-1.84.127-2.593-.395"></path><path fill="#FDECC7" d="M83.967 160.44l.033 1.563c-.876 1.983-2.453.374-3.691.5-.348-.248-.365-.557-.233-.892.811-.343 1.124-1.123 1.895-1.508.742-.192 1.42-.135 1.996.337"></path><path fill="#FDE8CB" d="M79.878 161.386l-.003 1.312c-.692.645-1.406.056-2.11.057a1.739 1.739 0 01-.564-.68c-.21-.64-.399-1.28.22-1.767.82-.43 1.621-.441 2.394.165.224.283.244.588.063.913"></path><path fill="#E9E5C5" d="M68.642 163l-1.517-.567c-.312-.734.018-1.227.371-1.715.53-.491 1.099-.82 1.772-.689.565.257.75.822.73 1.553-.097 1.052-.772 1.16-1.356 1.418"></path><path fill="#FEF1AE" d="M74.877 163.518l-1.03.482c-.437-.246-.853-.506-.847-1.082.043-.252.16-.464.348-.64a2.142 2.142 0 011.125-.278c.412.023.79.138 1.123.383.29.306.542.698.318 1.063-.231.378-.664.394-1.037.072"></path><path fill="#F0E2B6" d="M68 161.062l-.496 1.326a12.54 12.54 0 01-.018.612l-1.033-.06c-.443-.59-.562-1.26-.352-2.013.68-.924 1.348-1.569 1.899.135"></path><path fill="#FDF2B1" d="M76 163.458c.83.033.768-.453.478-1.072.471-.566.961-.444 1.46-.055.02.202.04.405.062.606-.538.819-1.078 1.633-2 .521"></path><path fill="#FEF8D7" d="M73.357 162.193l.643.763c-1.017-.06-2.149.302-3-.374a63.8 63.8 0 00.168-.243c.678-.41 1.411-.435 2.19-.146"></path><path fill="#F9E8BC" d="M69 162.362l1.082-1.136c.174-.237.38-.294.626-.14.155.222.255.472.292.752-.025.424-.11.822-.393 1.135V163L69 162.362"></path><path fill="#F4EBD1" d="M98.906 155.909l-.671.621c-.769.542-1.655.526-2.567.39-.883-.122-1.798.082-2.668-.182.229-2.154 2.517-.853 3.618-1.545.676-.246 1.353-.266 2.031-.007.356.171.44.413.257.723"></path><path fill="#F4E38F" d="M105 154.636L102.818 156l-.555-.073a1.372 1.372 0 01-.262-.873c.074-.329.233-.567.464-.728.37-.141.735-.299 1.125-.325.53-.009 1.05.016 1.41.635"></path><path fill="#F4E9C6" d="M100.975 154.114l.025.507c-.629.248-1.254.508-1.992.307a23.123 23.123 0 00-.008-.322c.33-1.002 1.27-.449 1.975-.492"></path><path fill="#E6D282" d="M96.314 156.075L99 156l-1.337 1c-.604.008-1.146-.07-1.448-.483-.211-.122-.267-.229-.167-.319.09-.082.179-.123.266-.123"></path><path fill="#C1A856" d="M59 137.744l-3.593 3.985c.392 1.092-.253 1.674-1.035 2.19a2.15 2.15 0 01-1.024.036c-1.711-1.024-1.543-2.472-.866-4.033 2.372 0 3.19-3.15 5.682-2.909.443.048.713.303.836.731"></path><path fill="#B89543" d="M52.433 140.566c.553.897-.219 2.061.567 2.912a1.389 1.389 0 01-.716.476c-.614.136-1.145-.034-1.603-.463-.617-.021-1.281.098-1.681-.578 1.281-.551 2.195-1.4 2.29-2.913.467.01.895.101 1.143.566"></path><path fill="#D3B672" d="M58.703 138l-.703-.595.604-.606c.653-.443.321-1.247.677-1.799l1.719.64-2.297 2.36"></path><path fill="#DCC563" d="M59.745 135.165c.427.84.404 1.529-.745 1.835l.02-1.203c.06-.65-.12-1.376.67-1.797l.055 1.165"></path><path fill="#C7AD53" d="M53.21 144.01c.212.003.422 0 .633-.01l.695.022c.342.364.487.807.459 1.316a6.766 6.766 0 01-.293.89c-.994 1.61-.464 3.198.073 4.788-.002.335-.113.62-.318.87-.467.198-.884.161-1.215-.288-.446-1.053-1.143-1.14-2.004-.597-.137-2.773-2.2-1.635-3.438-1.764-1.74-.18-.489.812-.316 1.387.043.142-.164.53-.25.527-.282-.005-.663-.046-.82-.242-.627-.786-.348-1.766-.387-2.677.904-.743.582-2.449 1.942-2.835l-.3 2.259c.864.043 1.68-.06 2.27-.85.532-.728 1.629-.671 1.987-1.64.3-.548.86-.763 1.282-1.156"></path><path fill="#CBAF52" d="M50 152.017c-.506.82-1.054 1.463-2 .502.522-.748 1.304-.452 2-.502"></path><path fill="#EAD7B2" d="M58.714 161.32c-.458-.83-1.28-.658-2.024-.695-.017-.545-.13-1.043-.682-1.329l-.684-2.65c-.392-.407-.404-.859-.164-1.34 1.959-1.09 2.894 1.065 4.432 1.313 1.17.579 2.505.848 3.586 1.538 1.014.648 2.438 1.316 1.534 2.993-1.286 1.159-2.635.886-4.002.172-.665-.674-1.334 1.821-1.996-.003"></path><path fill="#DFCFA3" d="M55.705 155.945l.006 1.361c-.222.004-.444.007-.666.008-.941.048-1.962-.235-2.693.685l-.687.001c-.495-.71-1.486-.667-1.984-1.372l-1.364-.583c2.087-.627.812-1.314-.317-2.155 2.997.89 4.958.502 5.071-2.89.407.04.813.083 1.219.125.257.113.46.292.622.524.254.499.48 1.007.495 1.584-.003.717.37 1.32.583 1.973a.77.77 0 01-.285.74"></path><path fill="#DECD8A" d="M52 156.995c.355-1.354 1.12-1.134 2-.472-.527.693-1.31.406-2 .472"></path><path fill="#DCCC8B" d="M49 156.003c.984-.015 1.952-.014 2 .997-.96-.011-2 .067-2-.997"></path><path fill="#F4F0D3" d="M60 162.063c1.536-.077 3.127.138 4.51-.75.455-.418.919-.407 1.39-.03l.1 2.125c-2.233.482-4.61 1.54-6-1.345"></path><path fill="#806445" d="M113 156.177a13.79 13.79 0 01-.03.49l-1.27.152c-2.137.384-4.118.24-5.7-1.263l1.172-1.089c.153-.568.632-.881 1.175-1.147.7-.298 1.413-.478 2.166-.128 1.163.717.84 2.136 1.83 2.937l.657.048"></path><path fill="#B58E41" d="M106.579 155c2.083.683 4.093 1.624 6.421 1.456-.004.182-.006.363-.007.544-2.114-.032-4.254.164-6.265-.68-.931-.391-.956-.803-.15-1.32"></path><path fill="#CB7" d="M108.936 154.226l-1.456.756-1.966.018-2.514-.077c.003-1.86 1.834-.512 2.414-1.36l1.404-.172c.29-.203.608-.333.959-.391.694.12 1.45.184 1.159 1.226"></path><path fill="#644F21" d="M112.994 156c-1.908-.309-1.475-1.996-1.994-3.122.158-.65.585-.935 1.273-.869.6.314.322 1.031.718 1.44.004.21.007.42.009.631l-.006 1.92"></path><path fill="#DBC79E" d="M66.15 132l.85.056c-1.127.855-2.441 1.51-3.96 1.944l-.04-.953c.819-.717 1.923-.98 3.15-1.047"></path><path fill="#F0EED1" d="M65.873 130.952L62.676 132l-.676-.555 1.305-.506c.999.045 1.638-.31 2.033-.939.221.01.442.022.662.033l-.127.919"></path><path fill="#C5A54D" d="M51 145.172c-.36.753-1.138.853-2 .824.008-.535.355-.799 1.013-.815.326-.232.655-.248.987-.009"></path><path fill="#B89034" d="M52.32 144.989l-1.27.011a250.42 250.42 0 00-.05-.996l2-.004c-.226.33-.452.66-.68.989"></path><path fill="#F1D58B" d="M96.799 161c-.15-.276-1.61-.416-.167-.842.73-.214 1.575-.115 2.368-.158l-.007.962L96.8 161"></path><path fill="#A41A17" d="M95.676 143.59L86 146l.014-1.842c.42-.937 1.315-1.2 2.258-1.394 1.017-.263 2.041-.497 3.11-.45 1.123.2 2.219.12 3.281-.307.471-.037.89.063 1.219.402.194.435.165.834-.206 1.181"></path><path fill="#9F7659" d="M58.373 154.387c3.314 1.988 6.617 4.022 10.464 3.878.245.375.213.713-.092 1.017-.578.46-1.231.575-1.9.623-2.275.5-4.11-1.106-6.117-1.89-1.232-1.304-3.674-.884-3.728-3.868.5-.272.952-.152 1.373.24"></path><path fill="#5D1810" d="M86 142.135l.026-1.776a1.04 1.04 0 01.58-.355c.235-.014.467.008.697.055.724.139 1.45.28 1.692 1.206.073 1.087-.692 1.351-1.408 1.663-.732.207-1.274-.028-1.587-.793"></path><path fill="#512619" d="M53.664 151.66a4.176 4.176 0 01-.183-.6l.08-.739c-.628-1.55-.851-3.103-.02-4.661.007-.213.036-.423.088-.629.552-.109.846.05.608.76-.27 2.046.067 3.99.763 5.873-.446.467-.892.43-1.336-.004"></path><path fill="#5F4A30" d="M55 152l1.486.003L59 154.849l-1.576.006a.855.855 0 01-.853.057c-.54-.363-.922-.832-.934-1.548L55 152"></path><path fill="#411B10" d="M86.577 140.986c-.171.008-.342.012-.513.014L86 134c1.024 1.233.374 2.805.568 4.207.512.924.633 1.85.01 2.779"></path><path fill="#6F301B" d="M55.787 145l-.733-.594-.054-1.063c.88-.213 1.353-.665 1.439-1.343 1.383 1.19-.165 2.032-.652 3"></path><path fill="#881917" d="M86.015 144.356a.975.975 0 00-.015-.662l.233-.694 2.02.681c.707-.273.829.063.704.655l-2.719.664-.223-.644"></path><path fill="#806249" d="M112.426 116.978l-2.987.022-.432-.006c-.714-.072-1.476-.045-1.904-.699L107 115.16c.307-.57 1.95-.247 1.298-1.456a.473.473 0 01.238-.429c.814-.387 1.578-.408 2.256.224.3.964.872 1.648 2.184 1.562.478.03.94.108 1.383.262.289.129.5.322.638.575.023.284-.1.51-.368.676-.737.12-1.54-.027-2.203.405"></path><path fill="#6F4E26" d="M112.643 112l1.357.115c-.144 1.619-1.669 1.953-2.591 2.852-.742.154-1.17-.24-1.465-.862-.453-.778-1.226-.674-1.944-.721 1.389-1.009 3.11-.875 4.643-1.384"></path><path fill="#7E7030" d="M107.702 113.418c.765 1.494-.066 1.618-1.093 1.576-.672-.488-.522-1.286-.609-1.994l1.702.418"></path><path fill="#A61A19" d="M98.073 145.21l.452-1.457-1.168.092c-.688-.834-.259-1.54.26-2.24.812-1.528 2.98-.376 3.81-1.866.068-.76.176-1.496.78-2.047.032-.192.063-.385.092-.578.198-.035.396-.074.592-.114.14 2.736.32 5.477-.7 8.118a2.464 2.464 0 01-1.453.841c-.991.104-1.942.062-2.665-.75"></path><path fill="#2E1D15" d="M87.011 138.981l-.011-2.08c2.868-1.494 5.96-.728 8.997-.516.073 1.263-1.347 1.253-2.35 1.6-1.99.32-4.017.522-5.96 1.015a10.75 10.75 0 01-.676-.019"></path><path fill="#5D1E14" d="M102 137.229l-.015 2.194c-1.947.094-3.883.255-5.796.577a3.64 3.64 0 01-1.485-.337c-1.902-1.832.537-1.508 1.58-1.88 1.75-1.126 3.745-.77 5.716-.554"></path><path fill="#502322" d="M96 138.287c-.105.867-1.816.374-1.053 1.974-.822.98-1.704.907-2.62.237-.455-.73-.424-1.454.024-2.17.818-.142 1.55-.496 2.092-1.328L96 138.287"></path><path fill="#22100C" d="M103 132.143l-.021 1.646-.704-.002c-.755.085-1.509.433-2.264.002L97 132.696c1.888-.823 3.928-.783 6-.553"></path><path fill="#22100C" d="M101 135.039c-.44.791-1.147.829-1.755.656-.784-.223-2.244 1.172-2.245-.635 0-1.474 1.518-.386 2.307-.715.847-.807 1.266-.04 1.693.694"></path><path fill="#271B1C" d="M101.993 135l-1.991-.723-.002-.72c.666-.198 1.332-1.146 2-.002l-.007 1.445"></path><path fill="#503419" d="M115.819 111.753c1.66-.903 3.419-.804 5.181-.658-.068.09-.126.243-.206.26-1.294.286-2.57.57-1.73 2.667-.568 1.165-1.283 2.17-2.34 2.804-1.188.183-2.381.42-3.464-.449l.035-.239c-.955-2.816.546-3.781 2.524-4.385"></path><path fill="#B98D54" d="M113.089 115.712l3.737-.137c.859-.685 1.714-.851 2.563.02l1.158.11.006-.028c.435.327.542.772.366 1.315l-.998.008c-2.245-.987-4.686.349-6.921-.751.033-.178.062-.358.089-.537"></path><path fill="#342E1B" d="M120.708 116l-2.708-.019c.1-1.241.754-1.922 2.021-1.981 1.074.378 1.202 1.08.687 2"></path><path fill="#CBA35D" d="M109 117.054l-5.95.946-.05-.993c.59-.182.565-1.837 1.802-.472 1.218.568 2.646-.076 3.875.42.113.022.221.055.323.1"></path><path fill="#C1A872" d="M107 116.85c-1.01-.12-2.097.753-3-.714l1.569-.136c.497.184 1.127-.31 1.431.85"></path><path fill="#DCA661" d="M113.06 116c2.287.687 4.722-.777 6.94.936l-9 .064c.485-1.146 1.298-.966 2.06-1"></path><path fill="#BB8B44" d="M124.64 118.125c1.338.12 2.76.039 3.36 1.875l-3.969-1.242c-.083-.568-.036-.975.61-.633"></path><path fill="#746344" d="M114.984 151.101c-.223.167-.448.332-.671.498-.76.675-1.61.33-2.446.162-.435-.128-.75-.357-.867-.755l2.016-1.006.134.063c.393.629 2.028-.351 1.834 1.038"></path><path fill="#71271B" d="M112.04 151l.96.735c-.128.102-.255.203-.382.307-1.62.566-3.369.627-5.054.94l-.283.018-.281-.034c.889-2.129 3.15-1.702 5.04-1.966"></path><path fill="#904931" d="M98 156l.685-1.616c.885-.084 1.77-.17 2.655-.253.242-.206.463-.169.66.112a2.119 2.119 0 00-.066.54c-.793.152-1.632.11-2.264.956L98 156"></path><path fill="#AA9555" d="M125 116.602l-.579.398-2.421-.402c.593-.855 1.489-.611 2.383-.374l.617.378"></path><path fill="#6A4821" d="M101.739 154l-.739-.072c1.182-.71 2.487-1.078 4-.87l-2.07.91-1.191.032"></path><path fill="#372517" d="M124 115.52c-.894.118-1.929-.346-2.653.47l-.008.01c-.112-.306-.225-.613-.339-.918 1.023.03 2.139-.395 3 .439"></path><path fill="#CD1726" d="M113.88 149.416c-.28.132-.574.22-.88.261.1-.739.359-.943.88-.26"></path><path fill="#574A22" d="M111.255 152.214c.905-.5 1.818.04 2.727-.018.217 1.327-1.554 1.03-2.013 1.804-.563-.27-.676-.733-.714-1.227-.227-.123-.302-.247-.227-.37.074-.125.15-.186.225-.186l.002-.003z"></path><path fill="#624E31" d="M114.777 151L113 149.694c1.048.022 2.057-.157 3-.694l-.007 1.33-1.216.67"></path><path fill="#FEF7EA" d="M85.92 157.204a.426.426 0 01.454-.083 1.56 1.56 0 01.87-.099c.58.267.945.611.653 1.194-.913.12-1.952-.173-2.683.545l-2.608.088c-.313.425-.649.805-1.359.472l-3.27.022a1.155 1.155 0 01-.772.251c-1.097-.129-2.2-.236-3.312-.161-.257.036-.517.067-.773.109-.61.087-1.07.67-1.8.375l-.315-.019-.316.012c-.034-.45-.128-.876-.689-1.11.272-1.54 1.794-.941 2.847-1.074 2.706-.341 5.424.518 8.135-.015 1.568-.665 3.365.135 4.939-.507"></path><path fill="#EEE8DB" d="M87.74 158.936L87 158.1c.944-.868 2.47.032 3.488-.612l2.77-.488c.375.252 1.015.41.616.934-2.127.065-3.875 1.366-6.133 1.002"></path><path fill="#F6F2E0" d="M92.599 157l-.599-.86 1.198-.14 2.802.12c0 .148-.031.292-.095.432-1.153-.03-2.273.055-3.306.448"></path><path fill="#FCF0BE" d="M80 160.671l1.57-.671c.143.564.588 1.336.372 1.65-.58.834-1.263-.066-1.914-.192l-.028-.787"></path><path fill="#FAF0D9" d="M75.91 161l.557.02.533.934-1.683.046-1.124-.03c-.144-.11-.208-.23-.19-.36.019-.136.047-.204.087-.204.514-.425 1.181-.373 1.82-.406"></path><path fill="#F7F1E7" d="M80 158.294c-2.39.99-4.899.222-7.336.48-1.188.124-2.511-.448-3.522.628l-1.895.597c-.646-.799-1.302-.76-1.969-.025L64.08 160c-1.083-1.993-3.372-2.107-5.079-3.129-.01-1.12.64-.942 1.343-.654 2.058.64 4.068 1.472 6.282 1.467 3.621.482 7.284-.214 10.9.374l1.798.036c.334-.286.56-.219.677.2"></path><path fill="#FAE8E7" d="M75 161.141l-.021.646-1.267.043c-.286.19-.594.216-.923.104-.723-.526-1.068-1.133-.519-1.934l.76.004c.328.838 1.998-.196 1.97 1.137"></path><path fill="#FBE3D3" d="M72.464 162.217l.536.041c-.016.126-.038.25-.066.373L71 163l.018-.77c.478-.313.96-.296 1.446-.013"></path><path fill="#F4E8C7" d="M73 161.978l-1.968.022a25.052 25.052 0 01-.032-.626c.436-.458.872-.917 1.309-1.374l.691 1.978"></path><path fill="#5B3D25" d="M52.982 145l.018 4c-.94-1.328-1.668-2.657-.018-4"></path><path fill="#F1ECD8" d="M62 156.35c-.6.072-1.211.127-1.55.637-1.95.2-2.54-1.92-4.45-1.79l.008-.623c.146-.264.38-.45.713-.546a2.9 2.9 0 01.677-.015L62 156.349"></path><path fill="#F9EBDE" d="M57 154.417l-.683.583c-.83-.509-2.158-.894-.584-2L57 154.417z"></path><path fill="#BBA15B" d="M110.992 152.035c.01.206.01.412 0 .618l-1.08.785-1.719.562c-.239-.594-.72-.65-1.193-.722 1.248-.77 2.52-1.44 3.992-1.243"></path><path fill="#CF1517" d="M158.005 175.002l-.001-.002-.004.002v.002l.005-.002"></path><path fill="#CF1517" d="M157.918 175.704l.024-.01c.002-.019.001-.034.002-.053.014.015.03.025.045.038-.016.005-.028.011-.043.015.028.03.051.061.079.091a.56.56 0 01-.107-.08m-6.87-42.416c-1.108 2.094-2.79 3.701-4.463 5.316-.409.413-.827.817-1.242 1.224a9.8 9.8 0 00-.618.622c-1.236 1.246-2.386 2.592-3.975 3.43-.898.53-1.79 1.065-2.18 2.122a2.706 2.706 0 01-.14.408c-.783.32-1.477.778-2.12 1.317a14.12 14.12 0 01-.677.058c-.739.092-1.417.37-2.078.698-1.527.955-3.194 1.697-4.457 3.048-.077.193.024.364.038.543a2.113 2.113 0 00-.41-.318c-.828-.26-1.555.057-2.263.455-.607.362-1.271.59-1.927.84a24.64 24.64 0 00-1.573.71c-1.987.908-4.018 1.708-6.07 2.459-.54.218-1.071.458-1.6.701-1.07.464-2.187.79-3.294 1.145a64.13 64.13 0 01-2.13.685c-1.9.613-3.776 1.304-5.694 1.863-1.154.47-2.4.524-3.593.812-.6.174-1.206.328-1.813.465-1.096.261-2.17.6-3.256.896-2.34.332-4.641.956-7.021 1.006-1.573.37-3.18.55-4.76.87-6.697.65-13.409.258-20.122.232a9.32 9.32 0 00-1.02-.242c-1.09-.188-2.204-.205-3.264-.55-.99-.255-2.003-.403-2.971-.735a16.06 16.06 0 01-1.59-.567c-.643-.282-1.283-.57-1.937-.828-1.06-.403-1.996-1.022-2.92-1.663-.338-.247-.675-.494-1.03-.718-.956-.546-1.73-1.274-2.253-2.253a80.157 80.157 0 00-.654-1.027c-.523-.966-.846-1.992-.916-3.093-.018-.417-.018-.836-.032-1.255-.044-1.285.122-2.54.565-3.754.353-1.193.843-2.322 1.543-3.355.245-.333.517-.645.781-.963.283-.314.553-.64.79-.993.84-1.363 2.081-2.38 3.101-3.588 1.595-1.693 3.379-3.19 5.014-4.846.85-.725 1.797-1.307 2.752-1.88.24-.14.477-.283.701-.448 1.006-.718 2.006-1.446 3.077-2.068.24-.134.48-.268.71-.42.724-.417 1.447-.835 2.14-1.301.725-.49 1.527-.836 2.314-1.205 5.04-3.073 10.773-4.587 16.048-7.126.739-.453 1.627-.719 2.016-1.61.546-2.011.672-4.01-.172-5.984a1.6 1.6 0 00-.556-.5c.127-.76-.06-1.484-.358-2.196.18-.162.39-.29.648-.36.935-1.468.732-3.167.714-4.746-.09-7.984 1.141-16.031-1.024-23.935-.254-.65-.615-1.309-.133-1.884.605-.15 1.293.019 1.915.02 12.987.019 25.974.07 38.961.112 1.338.335 2.675.672 4.013 1.008l1.657.404.395-.001c-.612 1.458 1.101 1.808 1.908 2.298 4.368 2.65 6.305 6.655 6.784 11.531.19 1.934.014 3.884.06 5.828.03.754.154 1.331.347 1.779l-.381 1.554c-.07.02-.14.03-.21.053-1.728 1.81-2.469 4.253-3.965 6.209-1.046 1.901-.416 2.89 1.567 3.68 4.188 1.666 8.95 2.261 12.05 6.096 1.568.974 2.273 2.455 2.608 4.214.686 3.606-.584 6.707-2.355 9.701m6.162-19.901l.079.07c-.077.019-.153.036-.229.06a.716.716 0 01.15-.13m-10.991-10.912c-.004-.039.011-.031.02 0h-.02m4.135-36.251c2.26.096 4.521.024 6.785-.02-2.499.144-5.022.184-7.516.052l.731-.032m9.5 112.374c.035-38.01-.009-76.019.095-114.028.008-2.99-.932-3.577-3.714-3.57-38.002.085-76.003.052-114.004.062-1.077.001-2.154.152-3.231.233v120.282c7.42.381 14.843.231 22.266.053 2.362.582 4.722.112 7.084-.007 5.232.574 10.463.1 15.695.012 2.63.458 5.259.513 7.889-.003 2.397.01 4.796.51 7.19-.03 3.895.262 7.789.607 11.686.027 9.718.068 19.437.214 29.155.177 6.422-.024 12.854.426 19.269-.241 1.217-.77.62-1.985.62-2.967"></path><path fill="#CF1517" d="M104.676 113.794c.723.077 1.434.322 2.173.14.271-.098.526-.227.761-.4 1.15-.834 2.642-.805 3.797-1.62.075-.072.133-.155.192-.237.32.389.754.574 1.236.67.88.12 1.755.097 2.625-.096 1.489-1.011 3.252-.88 4.89-1.27.037-.056.073-.114.109-.172.103-.035.205-.067.307-.11.463-.292.638-.763.752-1.274.105-1.45 1.11-2.704.854-4.231.654-.847.478-1.832.437-2.795.378-2.611.147-5.182-.28-7.778-.72-4.391-2.727-7.737-6.812-9.434-3.727-1.547-7.6-1.32-11.492-.783-1.693.234-2.245 1.064-2.224 2.81.101 8.595.098 17.192.133 25.788.717.706 1.657.658 2.542.792m-3.688 31.6a3.194 3.194 0 00-.005-.081c.034.019.068.035.102.052-.032.01-.065.018-.097.029m34.732-20.435c-.367-1.182-1.782-1.829-1.713-3.254-1.256-1.665-3.298-2.16-4.911-3.293a9.019 9.019 0 00-.844-.388c-1.455-.563-2.985-.846-4.493-1.21-.962-.081-1.878-.393-2.819-.569a8.3 8.3 0 00-1 0 9.816 9.816 0 01-1.027-.047c-2.678-.368-5.374-.094-8.06-.182-1.076.021-2.15.024-3.207.274-1.796 1.064-4.307-.147-5.811 1.84l-.242 18.817c-1.25 2.238-.667 4.784-1.191 7.146.006.208.042.41.091.608l-.794.09-2.167-.046c.984-1.494.587-2.227-1.298-2.138a11.63 11.63 0 00-1.86.33c-2.954.787-6.153.813-8.794 2.563-.032-.455-.076-.909-.195-1.355a2.33 2.33 0 00-.43-.77.97.97 0 00-.14-.047c.023-.03.044-.055.066-.098.046-.094.023-.186-.06-.276a1.33 1.33 0 00.363-.31c.156-.271.275-.562.344-.866.14-.67.152-1.357.16-2.043-.002-1.985.036-3.972-.033-5.956-.215-.893-.45-1.778-.815-2.624-.173-2.888-.345-5.776-.516-8.666-2.325.345-4.197 2.11-6.628 2.132a.758.758 0 01-.51.112c-1.588.623-2.975 1.67-4.608 2.197-.372.213-.753.41-1.096.67-1.823 1.141-3.721 2.15-5.61 3.172-1.278.957-2.78 1.645-3.644 3.09-.408.92-1.308 1.292-2.048 1.843-1.314.372-1.95 1.592-2.937 2.37-1.228 1.2-2.73 2.18-3.19 3.993.02 1.362-.567 2.578-.91 3.85-.386 1.841.054 3.563.783 5.238.798 1.332 1.92 2.356 3.127 3.298 3.417 2.332 7.162 3.586 11.323 3.486h.017c.852.707 1.933.585 2.963.64 1.778.092 3.578-.185 5.335.296a5.34 5.34 0 002.137.03c.893-.292 1.892-.35 2.57-1.096h.03c.037-.012.075-.019.113-.03a.866.866 0 00.132.168c.728.516 1.546.47 2.373.38.32-.021.636-.066.95-.14 1.2-.38 2.457-.31 3.68-.486.982.095 1.84-.327 2.724-.645.476-.113.887-.317 1.093-.801 1.164-.972 2.796-.006 3.965-.96.132-.23.371-.398.555-.598.145-.013.29-.028.435-.032.944-.055 1.892-.06 2.808-.343 1.269-.55 2.563-1.01 3.95-1.147.454-.041.905-.09 1.321-.3 1.27-1.063 2.817-1.443 4.37-1.812.807-.316 1.55-.724 2.12-1.406.224-.321.375-.666.418-1.065.202-.88.687-.008 1-.178 1.102-.158 2.29-.111 3.011-1.222l4.565-2.522 4.598-3.016c2.519-.39 3.419-2.722 5.027-4.203l-.025-.015c1.471-.16 1.6-1.44 2.04-2.46l1.31-2.537.69-.642-.166-.627c1.23-1.909 1.942-3.931 1.235-6.212"></path><path fill="#981A15" d="M98 142.413l-.51 1.576-1.481.011-.009-1.04c.214-.756.722-1 1.4-.955.238.068.44.201.6.408"></path><path fill="#6D170F" d="M97.871 142.264l-1.97.639-1.309-.032c-.81.476-1.86.067-2.667.554-1.137-.038-2.25.027-3.252.575l-.673-.56c.396-.599 1.42-.825 1.325-1.717.936-.868 2.1-.787 3.287-.606l3.284-.007 1.36.05c.357.302 1.025.471.615 1.104"></path><path fill="#981A15" d="M91 142.741c.584-.584 1.202-1.005 2-.546-.418 1.391-1.293.56-2 .546"></path><path fill="#F3E7CC" d="M80.793 160l-.793-.23c.807-.952 2.068-.242 2.99-.77l3.01.15c-1.554 1.328-3.504.381-5.207.85"></path><path fill="#DED2BA" d="M90 157.09c-.906 1.138-2.171.513-3.228.91-.257-.089-.513-.178-.772-.266 1.28-.674 2.615-.87 4-.644"></path><path fill="#EDDCCE" d="M78 159.706c-3.674.105-7.365.829-11-.48.68-.074 1.359-.15 2.04-.226 2.957.817 6.015-.337 8.96.706"></path><path fill="#462615" d="M92.989 140.476c-1.036.837-2.48.374-3.731.524L87 140.482c1.502-1.395 3.954-1.072 6-1.482l-.011 1.476"></path><path fill="#5A4C1C" d="M117 112c-2.163.462-2.237 1.851-2.907 2.975l-1.56.025c-.574-.273-1.38-.379-1.533-.959.449-1.037 1.77-1.47 2.999-1.967L117 112"></path><path fill="#675824" d="M111.613 114.637c.462.406.924.813 1.387 1.217-.988-.511-3.905 1.516-2.722-1.854l1.335.637"></path><path fill="#7B1718" d="M97.71 141.937l-.71-1.37c1.993-.478 3.986-.953 6-.082-.864 2.192-3.438-.164-4.495 1.515l-.795-.063"></path><path fill="#FCE2C1" d="M74.488 160.988c-.417-.43-1.403-.002-1.488-.932 1.007.114 2.117-.415 3 .459-.365.574-.951.485-1.512.473"></path></g></svg>