<svg xmlns="http://www.w3.org/2000/svg" xmlns:xlink="http://www.w3.org/1999/xlink" viewBox="72 79 455 92"><defs><path id="fn422e05934dma" d="M0 92h455V0H0z"></path></defs><g fill="none" fill-rule="evenodd" transform="translate(72 79)"><path fill="#008251" d="M24.724 41h7.454C33.658 41 35 42.09 35 43.886 35 46.309 33.314 48 30.977 48H23l1.724-7zm37.39 0h7.293C72.862 41 73 43.459 73 44.159 73 45.787 71.625 49 67.428 49H60s2.074-7.804 2.114-8M21.137 54h6.691c3.277 0 3.461.96 3.912 1.788.449.818.243 2.547-.067 3.142-.39.75-1.053 3.07-5.242 3.07H19l2.137-8"></path><path fill="#008251" d="M91 33v59H0V33h17.51l-9.7 34.345h19.858c8.604 0 10.103-2.058 11.849-3.555 2.333-2.003 3.582-6.766 2.534-10.08-.74-2.342-2.908-3.763-3.142-3.83 2.688-1.278 4.253-4.077 4.446-4.488.996-2.123 1.77-5.968-.71-9.062-2.063-2.57-6.066-3.278-8.974-3.33H54.93l-9.735 34.415h9.856l3.597-13.05h5.629c4.09 0 3.718 2.61 3.82 3.73l.322 9.595 9.151-.003s-.415-10.77-.448-11.56c-.124-2.762-1.915-4.01-3.441-4.01 2.932-.813 5.476-3.533 6.493-5.28 1.174-2.013 2.056-5.217.897-8.397-1.686-4.617-6.026-5.385-9.06-5.44H91z"></path><mask id="fn422e05934dmb" fill="#fff"><use xlink:href="#fn422e05934dma"></use></mask><path fill="#FABA00" d="M0 22h91V0H0z" mask="url(#fn422e05934dmb)"></path><path fill="#008251" d="M139.945 26.134c-.485 1.683-1.73 2.355-3.25 2.423h-3.25l1.314-4.643h2.006c1.52 0 3.734.265 3.18 2.22zM147 23.439c-.279-2.759-2.63-4.439-7.47-4.439h-10.375L123 40h7.055l1.936-6.53h4.704c5.531-.335 8.784-3.162 9.96-7.336.206-.608.275-1.144.345-1.684v-1.01zM148 40h18.193l1.468-4.846h-11.053l.977-3.299h9.025l1.4-4.914h-9.024l.91-3.027h10.633L172 19h-17.773zm48-21h-19.374L175 24.518h6.234L176.83 40h6.91l4.47-15.482h6.231zm13.931 7.134c-.342 1.279-1.43 1.818-3.195 1.954h-3.401l1.224-4.174h3.264c1.563 0 2.581.672 2.108 2.22M209.047 19h-10.061L193 40h6.935l2.111-7.272h2.105c1.293 0 2.109.135 2.585.471.679.54.542 1.48.065 3.163 0 .136-.065.272-.065.404-.476 1.616-.682 2.827-.613 3.234h7.069l.137-.607c-.816 0-.477-.944.339-3.703 1.227-4.239 0-4.71-1.971-5.583 2.65-.675 4.282-2.694 5.032-5.117.137-.54.205-1.008.271-1.48v-1.079c-.271-2.287-2.585-3.431-7.953-3.431m27.325 8.9c-.84 2.742-2.24 4.882-4.34 5.685-.558.2-1.118.266-1.747.266-3.43 0-3.291-3.341-2.519-5.95.628-2.206 2.029-4.68 4.266-5.483a4.38 4.38 0 011.683-.334c3.147-.067 3.497 2.943 2.657 5.816M235.253 17c-1.121 0-2.17.135-3.22.337-5.389 1.136-9.796 5.014-11.405 10.499a13.33 13.33 0 00-.628 3.072v1.54c.35 4.212 3.567 6.552 8.744 6.552 1.121 0 2.17-.132 3.288-.401 5.18-1.07 9.728-4.815 11.478-10.699.279-1.004.49-2.006.49-2.94v-.937c-.211-3.945-2.801-7.023-8.747-7.023m26.497 8.595c-.346 1.212-1.597 1.816-2.989 1.816h-2.986l1.04-3.5h2.503c1.532 0 2.92 0 2.433 1.684m-1.458 7.606c-.418 1.48-1.739 1.884-3.34 1.884-.067.068-.207.068-.277.068h-3.127l1.111-3.903h2.293c2.225 0 3.897.132 3.34 1.951M261.54 19h-10.355L245 40h11.953c4.935-.268 8.552-2.02 9.803-6.327.694-2.29 0-4.242-2.225-4.779 1.668-.875 3.546-2.423 4.24-4.578 1.182-4.175-2.365-5.316-7.23-5.316m24.456 7.134c-.408 1.279-1.495 1.818-3.264 1.954h-3.329l1.155-4.174h3.264c1.629 0 2.584.672 2.174 2.22m6.66-1.144c.138-.54.275-1.076.343-1.48V22.5c-.271-2.355-2.516-3.499-7.953-3.499h-9.996L269 40h6.938l2.105-7.272h2.108c1.293 0 2.109.135 2.582.471.682.54.61 1.48.137 3.163-.069.136-.137.272-.137.404-.473 1.616-.61 2.827-.61 3.234h7.069l.205-.607c-.881 0-.476-.944.271-3.703 1.227-4.239 0-4.71-1.971-5.583 2.653-.675 4.282-2.694 4.96-5.117m12.355 7.873h-2.144l2.144-3.835 2.077-3.702.067 7.537h-2.144zm.47-13.863l-.47.74L292 40h6.709l1.61-2.762h6.837V40H314l-1.545-21h-6.973zm27.431-2c-5.2 0-9.666 2.206-10.93 6.69-2.268 7.955 10.332 5.75 9.462 8.96-.33.937-1.597 1.54-3.264 1.54-.669 0-1.401-.205-1.798-.538-.535-.334-.733-.935-.669-1.673h-6.53c-.935 3.746 1.734 7.021 7.199 7.021 5.733 0 10.462-2.405 11.796-7.223 2.132-7.621-10.331-5.615-9.464-8.758.199-.802.998-1.204 2.464-1.204.668 0 1.267.132 1.67.402.464.202.665.67.598 1.406h6.464c.534-3.68-1.267-6.623-6.998-6.623M122.698 65.144h4.571c1.055 0 2.002-.176 2.84-.521a8.458 8.458 0 002.218-1.316 9.185 9.185 0 001.665-1.809 14.36 14.36 0 001.178-1.972c.31-.645.551-1.252.715-1.82.167-.567.273-1.022.317-1.362.24-1.75.023-3.106-.648-4.06-.674-.953-1.74-1.428-3.206-1.428h-4.572l-5.078 14.288zM125.115 48h7.678c2.697 0 4.645.697 5.844 2.088 1.199 1.39 1.606 3.484 1.225 6.285-.08.6-.24 1.27-.478 2.004a16.372 16.372 0 01-.92 2.243 15.84 15.84 0 01-1.322 2.183 9.761 9.761 0 01-1.714 1.834 23.93 23.93 0 01-2.022 1.5c-.642.42-1.345.772-2.107 1.051-.76.28-1.615.487-2.559.616-.946.13-2.074.196-3.381.196H118l7.115-20zm24.135 0H153l-7.25 20H142zm9.399 13.556c-.29 1.63-.038 2.776.753 3.444.788.668 1.944 1 3.462 1 .484 0 1.015-.06 1.582-.178a5.471 5.471 0 001.579-.574 4.35 4.35 0 001.255-1.028c.359-.424.575-.947.657-1.576.076-.586-.003-1.076-.234-1.47a2.97 2.97 0 00-.98-.985 6.812 6.812 0 00-1.507-.674 50.235 50.235 0 00-1.798-.544 27.054 27.054 0 01-1.602-.49 6.417 6.417 0 01-1.749-.907 4.44 4.44 0 01-1.328-1.576c-.335-.647-.44-1.47-.312-2.47a7.15 7.15 0 01.864-2.618 6.947 6.947 0 011.786-2.072c.736-.58 1.606-1.03 2.613-1.354 1.004-.324 2.119-.484 3.345-.484 1.088 0 2.095.118 3.018.348.925.236 1.702.62 2.335 1.152.633.526 1.089 1.218 1.366 2.07.28.854.321 1.897.123 3.133h-3.503c.149-1.312-.088-2.258-.715-2.839-.625-.577-1.65-.865-3.068-.865-.254 0-.607.028-1.062.088a4.738 4.738 0 00-1.396.411 4.116 4.116 0 00-1.29.926c-.382.402-.619.955-.709 1.66-.067.514-.003.937.187 1.266.192.336.47.62.84.853a5.39 5.39 0 001.311.59c.502.157 1.04.302 1.605.441.715.197 1.434.411 2.149.647a6.54 6.54 0 011.917.983c.558.423.984.98 1.276 1.666.292.686.365 1.578.222 2.676a7.405 7.405 0 01-.78 2.44c-.414.807-1.012 1.53-1.786 2.177-.773.647-1.734 1.173-2.887 1.575-1.153.402-2.516.602-4.092.602-1.226 0-2.315-.145-3.272-.426-.957-.282-1.74-.726-2.356-1.322-.612-.598-1.039-1.37-1.278-2.313-.24-.94-.251-2.065-.044-3.383h3.503zM180.099 48H198l-1.13 3.023h-6.91L183.728 68h-3.806l6.232-16.977H179zm25.449 9.105h5.343c1.577 0 2.821-.314 3.732-.94.914-.627 1.448-1.525 1.609-2.706.073-.538.032-.982-.126-1.33a1.755 1.755 0 00-.724-.798 3.335 3.335 0 00-1.147-.377 9.67 9.67 0 00-1.387-.098h-5.11l-2.19 6.249zM205.03 48h9.023c.446 0 1.033.037 1.763.112.73.075 1.428.28 2.094.616.663.337 1.206.847 1.632 1.527.423.68.552 1.632.388 2.841-.213 1.59-.803 2.828-1.757 3.712-.958.887-2.193 1.46-3.709 1.725l-.008.054c.832.32 1.357.79 1.576 1.414.216.628.269 1.362.155 2.2a13.115 13.115 0 01-.455 2.073 11.41 11.41 0 00-.43 2.073 5.27 5.27 0 00-.04.841c.011.28.078.547.198.812h-3.825a3.033 3.033 0 01-.088-.757 6.46 6.46 0 01.062-.783c.102-.75.26-1.48.473-2.2.216-.72.37-1.443.47-2.174.079-.576.026-1.022-.155-1.34a1.537 1.537 0 00-.797-.687 4.008 4.008 0 00-1.22-.254c-.465-.026-.94-.043-1.426-.043h-4.35L201.708 68H198l7.031-20zm24.22 0H233l-7.25 20H222zm11.654 8.373h5.58c.912 0 1.667-.112 2.252-.334.587-.222 1.056-.5 1.399-.826.343-.328.59-.674.74-1.037.15-.365.245-.676.28-.938a3.32 3.32 0 00.006-.717 1.511 1.511 0 00-.307-.78c-.185-.251-.483-.464-.895-.634-.418-.167-1-.25-1.757-.25h-5.311l-1.987 5.516zm-3.154 8.77h5.34c.32 0 .77-.01 1.35-.031a7.15 7.15 0 001.798-.29 4.774 4.774 0 001.725-.914c.525-.426.886-1.053 1.08-1.874.054-.245.09-.544.107-.898.021-.355-.071-.7-.274-1.037-.203-.337-.549-.622-1.044-.852-.496-.233-1.22-.352-2.175-.352h-5.64l-2.267 6.249zM240.185 48h9.186c1.414 0 2.51.179 3.282.53.779.354 1.349.777 1.71 1.261.358.49.56 1.002.606 1.54.044.545.041.99-.01 1.348a5.46 5.46 0 01-.516 1.693 5.68 5.68 0 01-1.02 1.445 5.58 5.58 0 01-1.447 1.063 5.752 5.752 0 01-1.76.561l-.01.055c2.041.634 2.913 2.036 2.611 4.201-.071.521-.268 1.143-.584 1.863-.32.72-.818 1.408-1.495 2.073-.68.662-1.573 1.224-2.683 1.682-1.106.455-2.476.685-4.105.685H233l7.185-20zm22.908 0h3.774l-4.493 12.554a11.798 11.798 0 00-.468 1.666c-.115.688-.088 1.27.078 1.739.17.467.444.847.828 1.134.383.286.848.493 1.395.62.547.124 1.15.183 1.815.183.725 0 1.407-.074 2.041-.23a5.051 5.051 0 001.773-.818c.546-.39 1.057-.93 1.534-1.607.474-.682.906-1.547 1.29-2.601L277.224 48H281l-4.596 12.87a24.25 24.25 0 01-1.154 2.702 9.428 9.428 0 01-1.978 2.64c-.845.806-1.917 1.474-3.216 1.997-1.301.528-2.926.791-4.88.791-1.066 0-2.065-.13-2.995-.387-.93-.26-1.725-.65-2.377-1.166a4.713 4.713 0 01-1.47-1.967c-.324-.795-.411-1.728-.266-2.803.066-.475.166-.942.296-1.388.132-.455.277-.91.444-1.367L263.093 48zm25.157 0H292l-7.25 20H281zm9.448 17.144h4.572c1.055 0 2.001-.176 2.84-.521a8.489 8.489 0 002.215-1.316 9.2 9.2 0 001.667-1.809 14.66 14.66 0 001.178-1.972c.311-.645.548-1.252.713-1.82.167-.567.275-1.022.319-1.362.237-1.75.023-3.106-.648-4.06-.674-.953-1.74-1.428-3.206-1.428h-4.574l-5.076 14.288zM300.113 48h7.678c2.696 0 4.645.697 5.843 2.088 1.2 1.39 1.61 3.484 1.228 6.285-.082.6-.24 1.27-.477 2.004a16.372 16.372 0 01-.92 2.243c-.379.755-.815 1.48-1.325 2.183a9.574 9.574 0 01-1.715 1.834 23.45 23.45 0 01-2.019 1.5 10.39 10.39 0 01-2.107 1.051c-.759.28-1.615.487-2.558.616-.947.13-2.075.196-3.382.196H293l7.113-20zm22.657 11.705c-.252 1.96.046 3.502.895 4.617.851 1.12 2.194 1.679 4.029 1.679 1.208 0 2.3-.285 3.282-.853a9.11 9.11 0 002.57-2.235 11.82 11.82 0 001.778-3.12c.454-1.158.752-2.322.907-3.501.252-1.957-.02-3.499-.822-4.614-.801-1.12-2.121-1.679-3.953-1.679-1.249 0-2.373.285-3.373.853a8.942 8.942 0 00-2.598 2.235 12.28 12.28 0 00-1.794 3.12 14.38 14.38 0 00-.922 3.498m-3.672.118c.284-2.195.858-4.1 1.72-5.72.861-1.621 1.89-2.952 3.093-4 1.197-1.047 2.496-1.83 3.898-2.338 1.404-.514 2.788-.765 4.155-.765 1.36 0 2.58.224 3.654.674 1.074.45 1.952 1.083 2.64 1.9.68.812 1.17 1.777 1.468 2.893.295 1.122.351 2.355.175 3.707-.283 2.216-.845 4.13-1.673 5.736-.834 1.611-1.835 2.939-3.005 3.988s-2.446 1.826-3.842 2.337c-1.39.508-2.791.765-4.193.765-1.503 0-2.797-.236-3.888-.705-1.091-.471-1.975-1.118-2.648-1.944-.673-.82-1.141-1.793-1.407-2.908-.267-1.12-.313-2.323-.147-3.62m32.451-2.718h5.343c1.577 0 2.824-.314 3.735-.94.91-.627 1.445-1.525 1.606-2.706.076-.538.032-.982-.126-1.33a1.74 1.74 0 00-.724-.798 3.298 3.298 0 00-1.144-.377 9.743 9.743 0 00-1.39-.098h-5.11l-2.19 6.249zm-.52-9.105h9.023c.446 0 1.04.037 1.77.112.73.075 1.424.28 2.09.616.666.337 1.209.847 1.632 1.527.423.68.552 1.632.388 2.841-.213 1.59-.803 2.828-1.757 3.712-.958.887-2.193 1.46-3.709 1.725l-.006.054c.83.32 1.358.79 1.574 1.414.22.628.272 1.362.158 2.2a13.46 13.46 0 01-.458 2.073c-.21.691-.354 1.382-.427 2.073-.038.28-.055.562-.044.841.012.28.08.547.202.812h-3.825a2.91 2.91 0 01-.09-.757c.005-.24.023-.504.064-.783.099-.75.257-1.48.47-2.2.216-.72.373-1.443.47-2.174.082-.576.026-1.022-.152-1.34a1.551 1.551 0 00-.8-.687 4.008 4.008 0 00-1.22-.254 25.459 25.459 0 00-1.426-.043h-4.347L347.71 68H344l7.028-20zm30.978 3.527h-.062l-6.184 8.517h6.375l-.13-8.517zm-.78-3.527h3.859L386 68h-3.71l-.132-5.295h-8.307L369.918 68H366l15.225-20zm26.423 13.556c-.29 1.63-.038 2.776.753 3.444.788.668 1.944 1 3.462 1 .484 0 1.013-.06 1.582-.178a5.471 5.471 0 001.579-.574 4.35 4.35 0 001.255-1.028c.356-.424.575-.947.657-1.576.076-.586-.003-1.076-.234-1.47a2.98 2.98 0 00-.983-.985 6.786 6.786 0 00-1.504-.674 51.93 51.93 0 00-1.795-.544 24.95 24.95 0 01-1.602-.49 6.392 6.392 0 01-1.752-.907 4.478 4.478 0 01-1.33-1.576c-.336-.647-.438-1.47-.307-2.47a7.04 7.04 0 01.861-2.618 6.905 6.905 0 011.786-2.072c.736-.58 1.606-1.03 2.613-1.354 1.004-.324 2.119-.484 3.345-.484 1.088 0 2.095.118 3.018.348.922.236 1.702.62 2.332 1.152.633.526 1.089 1.218 1.369 2.07.28.854.321 1.897.123 3.133h-3.503c.146-1.312-.09-2.258-.718-2.839-.622-.577-1.65-.865-3.068-.865-.254 0-.604.028-1.062.088-.456.058-.92.194-1.393.411a4.116 4.116 0 00-1.29.926c-.38.402-.616.955-.709 1.66-.064.514-.006.937.187 1.266.19.336.47.62.84.853.365.236.803.433 1.308.59.505.157 1.045.302 1.608.441.713.197 1.43.411 2.149.647.718.233 1.36.566 1.917.983.558.423.981.98 1.273 1.666.292.686.368 1.578.225 2.676a7.405 7.405 0 01-.78 2.44c-.417.807-1.01 1.53-1.789 2.177-.77.647-1.734 1.173-2.887 1.575-1.15.402-2.513.602-4.089.602-1.226 0-2.318-.145-3.272-.426-.957-.282-1.74-.726-2.356-1.322-.612-.598-1.039-1.37-1.278-2.313-.24-.94-.251-2.065-.044-3.383h3.503zM425.782 66H431l-1.786 4H424zm25.224-14.473h-.062l-6.184 8.517h6.375l-.13-8.517zM450.222 48h3.863L455 68h-3.713l-.132-5.295h-8.304L438.918 68H435l15.222-20z" mask="url(#fn422e05934dmb)"></path></g></svg>