<svg xmlns="http://www.w3.org/2000/svg" viewBox="225.32000732421875 70.62799835205078 391.25 454.02001953125"><path fill="#002246" fill-rule="evenodd" d="M225.32 524.648h391.25V70.628H225.32z"></path><path fill="#d69b00" fill-rule="evenodd" d="M444.433 201.472h-47.345l.451-.835 23.074-42.661.495-.916.5.913 23.321 42.661.458.838z"></path><path fill="#fff" fill-rule="evenodd" d="M537.307 374.286L421.11 158.244 304.998 374.286l116.113-228.658zm-139.435.539h-47.296l.426-.794 23.157-43.158.473-.882.475.882 23.239 43.158.427.794zm-45.496-1.079h44.594l-22.336-41.482zm91.974 1.079h-47.295l.426-.794 23.156-43.158.474-.882.474.882 23.239 43.158.428.794zm-45.495-1.079h44.593l-22.336-41.482zm91.974 1.079h-47.296l.426-.794 23.156-43.158.473-.882.475.882 23.24 43.158.428.794zm-45.496-1.079h44.594l-22.337-41.482zm-24.222-42.162h-47.295l.426-.795 23.156-43.158.473-.881.475.881 23.24 43.159.427.794zm-45.495-1.08h44.594l-22.337-41.481zm91.973 1.08h-47.295l.426-.795 23.156-43.158.473-.881.475.881 23.24 43.159.427.794zm-45.495-1.08h44.594l-22.337-41.481zm22.256-42.162h-47.295l.426-.794 23.156-43.159.474-.881.474.881 23.239 43.16.428.793zm-45.495-1.078h44.593l-22.336-41.483zm69.481-42.166H420.28l.444-.798 23.987-43.076.939.523-23.542 42.277h46.228zm-94.285-1.076h46.31l-23.54-42.275.94-.523 23.986 43.076.446.8h-48.142zm-23.322 43.327h46.23l-23.46-42.36.94-.523 23.902 43.159.443.798h-48.055zm140.847 1.076h-48.057l.445-.8 23.986-43.16.94.523-23.542 42.359h46.228zm-164.086 42.08h46.227l-23.54-42.275.94-.523 23.986 43.076.446.8H327.49zm187.325 1.077h-48.057l.445-.799 23.986-43.076.94.523-23.542 42.277h46.228zm-209.581 42.164h45.246l-22.982-41.495zm46.16 1.079h-47.96l.426-.794 23.156-43.158.466-.87.478.863 23.903 43.158.444.8zm186.577 0h-47.974l.445-.8 23.986-43.159.479-.861.465.87 23.073 43.158.424.792zm-46.145-1.079h45.248l-22.185-41.496z"></path><path fill="none" stroke="#fff" stroke-width="1.079" d="M241.007 449.648h359.876"></path><path fill="#d69b00" fill-rule="evenodd" d="M444.406 418.61l5.73-11.458 5.729 11.459zm26.171-19.923c.582-1.328.914-1.826 1.411-1.826.416 0 .747.415 1.245 1.66 1.245 2.822 9.462 23.82 12.781 31.705 1.992 4.648 3.487 5.312 4.566 5.644.747.082 1.577.166 2.157.166.416 0 .665.082.665.415 0 .415-.498.498-2.407.498-1.826 0-5.561 0-9.711-.083-.913-.083-1.577-.083-1.577-.415 0-.333.249-.415.747-.499.332-.082.747-.497.498-1.161l-4.15-10.956c-.083-.249-.249-.332-.498-.332h-5.726v-2.573h4.73c.25 0 .332-.166.25-.332l-4.65-12.698c-.082-.25-.082-.498-.248-.498h-.082zm-5.81 24.816c-.248 0-.331.083-.415.415l-2.821 7.387c-.498 1.245-.747 2.49-.747 3.154 0 .912.415 1.577 2.075 1.577h.746c.581 0 .747.083.747.415 0 .415-.331.498-.83.498-1.66 0-3.9-.166-5.477-.166-.58 0-3.403.166-6.142.166-.664 0-.913-.083-.913-.498 0-.333.166-.415.581-.415.498 0 1.162-.084 1.577-.084 2.407-.332 3.403-2.074 4.399-4.647l12.947-32.37c0-.082.083-.165.083-.248v8.715c-.083.083-.166.331-.249.498l-4.73 12.698c-.083.166 0 .332.249.332h4.73v2.573zm42.578-1.493c0 6.639 0 10.125 1.079 11.12.913.748 2.24 1.08 6.225 1.08 2.739 0 4.73 0 6.059-1.411.58-.664 1.245-2.158 1.327-3.071.084-.498.166-.83.582-.83.332 0 .415.249.415.913 0 .58-.415 4.399-.747 5.893-.332 1.162-.582 1.41-3.32 1.41-7.387 0-10.79-.331-15.023-.331-1.162 0-4.399.166-6.474.166-.664 0-.996-.166-.996-.498 0-.249.167-.415.83-.415.747 0 1.329-.084 1.827-.166 1.078-.25 1.328-1.411 1.494-2.905.248-2.158.248-6.225.248-10.956v-9.047c0-7.884 0-9.295-.082-10.955-.083-1.743-.498-2.573-2.242-2.988-.414-.083-.996-.083-1.66-.083-.58 0-.912-.166-.912-.498 0-.332.414-.498 1.161-.498 2.407 0 5.644.166 7.055.166 1.245 0 4.98-.166 7.055-.166.664 0 1.08.166 1.08.498 0 .332-.333.498-.997.498-.498 0-1.328 0-1.992.083-1.411.332-1.826 1.162-1.91 2.988-.082 1.66-.082 3.071-.082 10.955zm31.29 0c0 4.979 0 8.797.25 10.955.165 1.494.414 2.655 1.991 2.905.747.082 1.826.166 2.573.166.664 0 .913.166.913.415 0 .332-.415.498-1.162.498-3.237 0-6.474-.166-7.885-.166-1.328 0-4.565.166-6.557.166-.664 0-1.08-.083-1.08-.498 0-.249.25-.415.832-.415.746 0 1.327-.084 1.825-.166 1.08-.25 1.328-1.411 1.494-2.905.25-2.158.25-5.976.25-10.956v-9.047c0-7.884 0-9.295-.083-10.955-.083-1.743-.5-2.573-2.241-2.988-.416-.083-1.245-.083-1.992-.083-.499 0-.914-.166-.914-.415 0-.415.415-.58 1.245-.58 2.656 0 5.893.165 7.387.165h13.612c.996-.083 1.66-.083 2.158-.249.332-.083.58-.332.83-.332.165 0 .331.249.331.498 0 .332-.248.996-.414 2.324 0 .498-.167 3.568-.25 4.15-.083.415-.165.747-.497.747-.416 0-.499-.25-.499-.83 0-.415 0-1.245-.332-1.992-.33-.665-1.493-1.494-3.402-1.494l-7.968-.166c-.332 0-.415.166-.415.747v12.865c0 .331 0 .497.332.497l6.557-.083c.913 0 1.66 0 2.323-.083.997 0 1.744-.249 2.242-.912.249-.332.331-.498.663-.498.25 0 .333.166.333.498 0 .249-.25 1.576-.415 3.153-.083 1.08-.25 3.403-.25 3.735 0 .498 0 .996-.498.996-.248 0-.414-.332-.414-.664 0-.415-.083-.996-.25-1.66-.331-.663-1.078-1.66-2.655-1.826-1.328-.166-6.806-.166-7.636-.166-.25 0-.332.084-.332.498zm31.871-23.323c.581-1.328.83-1.826 1.328-1.826.498 0 .83.415 1.328 1.66 1.245 2.822 9.461 23.82 12.781 31.705 1.992 4.648 3.486 5.312 4.565 5.644.748.082 1.494.166 2.158.166.415 0 .664.082.664.415 0 .415-.498.498-2.407.498-1.826 0-5.56 0-9.71-.083-.913-.083-1.577-.083-1.577-.415 0-.333.249-.415.747-.499.332-.082.746-.497.498-1.161l-4.15-10.956c-.083-.249-.25-.332-.498-.332h-5.727v-2.573h4.73c.25 0 .332-.166.25-.332l-4.648-12.698c-.083-.25-.083-.498-.249-.498h-.083zm-5.81 24.816c-.25 0-.332.083-.498.415l-2.739 7.387c-.498 1.245-.746 2.49-.746 3.154 0 .912.414 1.577 1.991 1.577h.83c.582 0 .747.083.747.415 0 .415-.332.498-.913.498-1.577 0-3.817-.166-5.395-.166-.58 0-3.402.166-6.141.166-.665 0-.997-.083-.997-.498 0-.333.25-.415.665-.415.498 0 1.162-.084 1.577-.084 2.406-.332 3.403-2.074 4.398-4.647l12.948-32.37c0-.082.083-.165.083-.248v8.715c-.083.083-.166.331-.249.498l-4.731 12.698c-.082.166 0 .332.166.332h4.814v2.573zm-304.516-25.48c8.216.415 9.71 5.063 9.71 7.718 0 4.233-2.407 6.723-5.229 8.964 4.233 1.494 9.38 5.146 9.38 11.205 0 5.478-4.317 11.205-13.779 11.205h-.082v-2.324h1.245c2.323 0 6.307-1.246 6.307-6.557 0-3.237-1.079-7.553-5.063-10.292-.664-.497-1.494-.83-2.49-1.078v-2.408c.914-.166 1.66-.414 2.241-.913 1.328-1.079 2.075-2.905 2.075-5.477 0-2.822-1.328-6.391-4.315-7.553zm-10.458 14.94c0-7.885 0-9.296-.166-10.956-.083-1.743-.498-2.573-2.159-2.988-.414-.083-1.327-.083-2.074-.083-.498 0-.83-.166-.83-.498 0-.332.332-.498 1.162-.498 2.739 0 5.976.166 6.972.166 2.572 0 4.564-.166 6.307-.166.415 0 .83.083 1.246.083v2.49c-.665-.25-1.329-.415-2.158-.415-.665 0-1.163 0-1.66.083-.332.083-.498.332-.498.913v12.699c0 .414.166.497.415.58.414.083 1.244.166 2.406.166.582 0 1.08 0 1.495-.083v2.408a10.335 10.335 0 00-1.743-.167c-.914-.083-1.495-.083-2.241-.083-.166 0-.332.166-.332.415v12.2c0 3.404.166 4.316 1.825 4.98.914.333 1.744.499 2.49.582v2.324c-1.328 0-5.892-.332-7.386-.332-1.162 0-4.399.166-6.474.166-.664 0-1.079-.166-1.079-.498 0-.249.25-.415.83-.415.83 0 1.411-.084 1.91-.166.995-.25 1.244-1.411 1.493-2.905.249-2.158.249-6.225.249-10.956zm41.332-14.276c.582-1.328.913-1.826 1.411-1.826s.747.415 1.245 1.66c1.245 2.822 9.545 23.82 12.865 31.705 1.909 4.648 3.403 5.312 4.482 5.644.83.082 1.577.166 2.158.166.414 0 .664.082.664.415 0 .415-.416.498-2.324.498-1.826 0-5.644 0-9.794-.083-.913-.083-1.494-.083-1.494-.415 0-.333.166-.415.664-.499.415-.082.747-.497.498-1.161l-4.15-10.956c-.083-.249-.249-.332-.498-.332h-5.727v-2.573h4.731c.25 0 .332-.166.25-.332L291.47 407.9c-.084-.25-.167-.498-.333-.498h-.083zm-5.726 24.816c-.332 0-.415.083-.498.415l-2.822 7.387c-.498 1.245-.747 2.49-.747 3.154 0 .912.497 1.577 2.075 1.577h.746c.665 0 .83.083.83.415 0 .415-.331.498-.912.498-1.66 0-3.901-.166-5.478-.166-.582 0-3.403.166-6.059.166-.664 0-.996-.083-.996-.498 0-.333.166-.415.581-.415.498 0 1.245-.084 1.66-.084 2.324-.332 3.32-2.074 4.399-4.647l12.947-32.37v-.248 8.715c-.083.083-.166.331-.166.498l-4.813 12.698c0 .166 0 .332.248.332h4.731v2.573zm38.427 6.474c.083 3.984.83 5.312 1.826 5.727.913.248 1.826.332 2.656.332.581 0 .913.082.913.415 0 .415-.498.498-1.162.498-3.403 0-5.478-.166-6.473-.166-.416 0-2.823.166-5.561.166-.665 0-1.08 0-1.08-.498 0-.333.25-.415.83-.415.664 0 1.577-.084 2.324-.249 1.329-.416 1.495-1.91 1.577-6.391l.415-30.543c0-.996.166-1.743.747-1.743.498 0 .997.664 1.91 1.577.58.664 8.382 9.046 15.935 16.6 3.486 3.485 10.457 10.872 11.37 11.702h.25l-.498-23.156c-.084-3.154-.499-4.067-1.743-4.648-.83-.25-2.075-.25-2.74-.25-.664 0-.83-.165-.83-.497 0-.415.582-.498 1.329-.498 2.655 0 5.145.166 6.224.166.581 0 2.573-.166 5.063-.166.664 0 1.162.083 1.162.498 0 .332-.249.498-.913.498-.498 0-.913 0-1.494.083-1.494.415-1.909 1.494-1.909 4.399l-.58 32.534c0 1.163-.25 1.661-.665 1.661-.581 0-1.245-.581-1.743-1.162-3.32-3.071-9.876-9.877-15.271-15.189-5.644-5.56-11.37-12.034-12.284-12.947h-.165zm41.831 2.075c-5.063-4.399-6.39-10.209-6.39-15.188 0-3.487 1.078-9.629 6.058-14.11 3.735-3.403 8.631-5.478 16.267-5.478 3.237 0 5.146.166 7.47.498 1.992.25 3.652.747 5.23.83.497.083.746.332.746.664 0 .415-.166.996-.25 2.822-.082 1.743-.082 4.564-.166 5.56-.082.83-.165 1.246-.663 1.246-.332 0-.498-.416-.498-1.163 0-1.576-.664-3.402-1.992-4.73-1.66-1.826-5.727-3.237-10.458-3.237-4.481 0-7.47 1.162-9.71 3.237-3.736 3.403-4.731 8.3-4.731 13.362 0 12.284 9.296 18.343 16.267 18.343 4.565 0 7.304-.498 9.38-2.905.912-.996 1.576-2.49 1.742-3.403.166-.83.332-.996.747-.996.332 0 .415.332.415.747 0 .581-.581 5.146-1.162 6.889-.249.83-.415 1.078-1.328 1.493-2.074.83-5.976 1.163-9.295 1.163-7.056 0-12.948-1.578-17.679-5.644zm52.786-34.776h.332c12.865 0 20.833 7.47 20.833 19.255 0 11.786-8.134 21.082-21.165 21.165v-2.656c.664 0 1.328.083 1.992.083 3.569 0 11.951-1.743 11.951-16.682 0-10.956-6.059-18.011-13.943-18.675zm-20.999 20.169c0-8.715 5.81-20.086 21-20.169v2.49h-1.163c-5.975 0-12.698 3.237-12.698 16.101 0 10.043 5.145 18.094 13.86 19.173v2.656h-.166c-14.857 0-20.833-11.122-20.833-20.251z"></path></svg>