<svg xmlns="http://www.w3.org/2000/svg" xmlns:xlink="http://www.w3.org/1999/xlink" viewBox="0 0 579.2000122070312 203.60000610351562"><defs><path id="fnf374f8af9dma" d="M427.4 0c-3.7 0-5.4 4.5-2.7 7l76.9 71 4.1-3.8c28.6-26.4 9.9-74.2-29-74.2h-49.3z"></path></defs><clipPath id="fnf374f8af9dmc"><use overflow="visible" xlink:href="#fnf374f8af9dma"></use></clipPath><linearGradient id="fnf374f8af9dmb" x1="-105.82" x2="-104.82" y1="437.956" y2="437.956" gradientTransform="matrix(96.1443 0 0 -96.1443 10597.338 42145.926)" gradientUnits="userSpaceOnUse"><stop offset="0" stop-color="#f37021"></stop><stop offset=".064" stop-color="#f4791e"></stop><stop offset=".333" stop-color="#f99d13"></stop><stop offset=".587" stop-color="#fcb60b"></stop><stop offset=".817" stop-color="#fec607"></stop><stop offset="1" stop-color="#ffcb05"></stop></linearGradient><path fill="url(#fnf374f8af9dmb)" d="M422 0h112.3v78H422z" clip-path="url(#fnf374f8af9dmc)"></path><defs><path id="fnf374f8af9dmd" d="M468.5 108.5l-43.8 40.4c-2.7 2.5-.9 7 2.7 7h50.2c38.6 0 57.1-47.4 28.7-73.6l-4.8-4.4-29.4-27.1c13.4 17.2 14 41.4-3.6 57.7"></path></defs><clipPath id="fnf374f8af9dmf"><use overflow="visible" xlink:href="#fnf374f8af9dmd"></use></clipPath><linearGradient id="fnf374f8af9dme" x1="-105.816" x2="-104.816" y1="437.886" y2="437.886" gradientTransform="scale(-110.7721 110.7721) rotate(61.066 315.541 305.122)" gradientUnits="userSpaceOnUse"><stop offset="0" stop-color="#0066b3"></stop><stop offset=".11" stop-color="#0077c0"></stop><stop offset=".337" stop-color="#0094d6"></stop><stop offset=".563" stop-color="#00a8e5"></stop><stop offset=".785" stop-color="#00b5ef"></stop><stop offset="1" stop-color="#00b9f2"></stop></linearGradient><path fill="url(#fnf374f8af9dme)" d="M579.2 75.4l-70.9 128.2-130.8-72.3L448.4 3.1z" clip-path="url(#fnf374f8af9dmf)"></path><g fill="#395f6f"><path d="M32.5 116.9H2.1c-1.4 0-2.1-.7-2.1-2.1V40.7c0-1.4.7-2.1 2.1-2.1h28.7c6.9 0 12.3 1.6 16.4 4.6 4.6 3.4 7.1 8.8 7.1 15 0 4.8-1.7 8.8-4.6 11.7-1.1 1.1-2.4 2-3.8 2.8 3.2.9 6.1 2.5 8.2 4.6 4.1 3.8 6.2 9 6.2 15.1 0 7.7-2.8 14.1-8.1 18.5-4.9 4-11.6 6-19.7 6M13.8 50.6v18.6h15.9c3.2 0 5.8-.6 7.8-2.2 2.2-1.6 3.3-4.1 3.3-7.1 0-3.2-1.1-5.6-3.3-7.2-2-1.4-4.5-2.1-8-2.1H13.8zm0 29.9v24.4H32c4.4 0 7.8-.9 10.3-3 2.8-2.1 4.3-5.4 4.3-9.5 0-4-1.4-7.1-4-9.1-2.4-2-5.7-2.8-9.9-2.8H13.8zM79 116.9h-9.3c-1.4 0-2.1-.7-2.1-2.1V79.2c0-5.3 1.6-9.2 4.5-12 2.8-2.5 7-3.9 12.3-3.9h12.2c1.4 0 2.1.7 2.1 2.1v8c0 1.4-.7 2.1-2.1 2.1h-9.4c-4.2 0-6.2 2-6.2 6.1v33.2c0 1.4-.7 2.1-2 2.1m66.2-7.8c-4.6 5.8-11.3 9.4-19.1 9.4-7.4 0-13.9-3-18.7-8.7-4.5-5.2-6.8-12-6.8-19.7 0-7.5 2.4-14.4 6.8-19.6 4.8-5.6 11.3-8.6 18.7-8.6 7.8 0 14.5 3.4 19.1 9.2l.7-5.7c.3-1.4.9-2 2.2-2h7c1.4 0 2.1.7 2.1 2.1v49.4c0 1.4-.7 2.1-2.1 2.1h-7c-1.3 0-2.1-.6-2.2-2l-.7-5.9zm-27-7.5c2.8 3 6.7 4.8 11.1 4.8 4.4 0 8.2-1.8 11.1-4.8 2.6-3 4.2-7 4.2-11.5 0-4.4-1.6-8.4-4.2-11.3-2.9-3-6.7-4.8-11.1-4.8-4.4 0-8.2 1.7-11.1 4.7-2.6 3-4.2 7-4.2 11.4 0 4.5 1.6 8.4 4.2 11.5m46.2 13.2v-8c0-1.4.7-2.1 2.1-2.1h22.2c1.6 0 2.8-.4 3.7-1.3.5-.5.9-1.5.9-2.4 0-.9-.3-1.8-1-2.5-.4-.4-1-.8-1.8-1.1L175 90.7c-2.9-1.3-5.2-2.7-6.9-4.4-2.5-2.5-3.7-5.5-3.7-9.2 0-3.8 1.3-6.9 3.7-9.3 2.8-2.8 7.3-4.5 13.1-4.5h19.2c1.4 0 2.1.7 2.1 2.1v8c0 1.4-.7 2.1-2.1 2.1h-18.3c-1.3 0-2.2.4-2.7.9-.4.4-.6.9-.6 1.7 0 .5.2 1.1.6 1.6.4.4 1.1.8 2.1 1.3l13.8 6c2.9 1.3 5.1 2.7 6.8 4.4 2.6 2.6 3.9 5.8 3.9 9.8 0 4.4-1.7 8-4.3 10.9-3 3-7.7 4.9-13.2 4.9h-22c-1.4-.1-2.1-.8-2.1-2.2m60.1 2.1h-9.3c-1.4 0-2.1-.7-2.1-2.1V40.7c0-1.4.7-2.1 2.1-2.1h9.3c1.4 0 2.1.7 2.1 2.1v42.8h1.1l17.1-18.6c.9-1.1 1.6-1.6 3.1-1.6h11.8c.8 0 1.4 1.1.8 1.9l-21.6 23 22.9 26.9c.5.7.2 1.8-.9 1.8h-11.3c-2 0-3.1-.5-4.3-1.9L228 94.3h-1.5v20.5c.1 1.4-.6 2.1-2 2.1"></path><path d="M289.4 118.5c-7.9 0-15-2.9-20.3-8.2-5.2-5.3-7.9-12.5-7.9-20.5 0-7.5 2.8-14.5 8.1-19.7 5.2-5.3 12.3-8.1 19.8-8.1 7.9 0 14.9 2.9 19.9 8.4 4.8 5.3 7.5 12.4 7.5 20.3v.9c0 1.1-.8 2-1.8 2h-41.4c.5 3.4 1.9 6.3 4 8.7 2.8 3 6.9 4.7 11.9 4.7 5.6 0 10.9-2.5 13.5-6.9.5-.9 1.3-1.5 2.4-1.5h8.3c1.4 0 2.2 1 1.8 2.6-2 5.3-5.3 9.8-10.1 12.8-4.4 2.9-10 4.5-15.7 4.5m-15-35.3h29.1c-1.7-6.3-6.7-9.8-14.2-9.8-4.8 0-8.8 1.6-11.7 4.6-1.4 1.5-2.5 3.2-3.2 5.2m60.9 33.7H326c-1.4 0-2.1-.7-2.1-2.1V65.4c0-1.4.7-2.1 2.1-2.1h5.6c1.6 0 2.4.7 2.7 2.3l1 5.4c3.7-5.6 9.5-8.5 17.7-8.5h2.5c5.7 0 10.4 2 13.7 5.7.8.9 1.6 2.1 2.3 3.3 3.5-6.1 9.6-9.1 18-9.1h2.5c5.7 0 10.4 2 13.7 5.7 3 3.4 4.6 8.4 4.6 14.2v32.3c0 1.4-.7 2.1-2.1 2.1h-9.4c-1.4 0-2.1-.7-2.1-2.1V85.3c0-6.7-3.3-10.4-9.2-10.4h-3c-6.6 0-10.7 4.3-10.7 11.7v28.3c0 1.4-.7 2.1-2.1 2.1h-9.4c-1.4 0-2.1-.7-2.1-2.1V85.3c0-6.7-3.3-10.4-9.2-10.4h-3c-6.6 0-10.7 4.3-10.7 11.7v28.3c0 1.3-.7 2-2 2"></path></g></svg>