<svg xmlns="http://www.w3.org/2000/svg" viewBox="56.00025939941406 101.99967956542969 488.9998779296875 44"><path fill="#30569C" d="M544.991 131.025c-.04.153-.107.305-.111.458-.062 1.918-.739 3.63-1.838 5.19-1.223 1.744-2.865 3.047-4.698 4.128-2.225 1.312-4.628 2.214-7.11 2.925-2.465.71-4.975 1.199-7.515 1.538-1.509.205-3.03.332-4.548.471-3.742.34-7.492.27-11.243.231a121.916 121.916 0 01-5.201-.17c-1.878-.1-3.756-.257-5.629-.4a76.252 76.252 0 01-6.518-.816 58.993 58.993 0 01-6.02-1.325l-1.522-.414c.045-.161.071-.283.116-.405 1.339-3.753 2.678-7.506 4.022-11.258.156-.436.16-.427.645-.31 2.283.567 4.552 1.181 6.852 1.674 1.847.397 3.724.675 5.602.941 1.54.218 3.088.37 4.636.493 1.42.113 2.839.174 4.263.205 2.029.043 4.062.065 6.09.048a82.078 82.078 0 004.268-.153c1.05-.06 2.1-.144 3.119-.423.285-.078.57-.178.818-.327.183-.104.352-.279.45-.462.213-.387.076-.802-.33-.998a2.767 2.767 0 00-.885-.266c-1.25-.135-2.505-.252-3.76-.353-1.223-.095-2.451-.157-3.68-.235-1.063-.065-2.13-.13-3.194-.205a219.887 219.887 0 01-5.975-.514c-1.34-.144-2.683-.27-4.014-.466a109.14 109.14 0 01-5.032-.855c-2.447-.48-4.84-1.137-7.11-2.175-1.46-.667-2.816-1.495-3.964-2.615-1.571-1.53-2.479-3.386-2.79-5.518a20.03 20.03 0 01-.183-2.297c-.044-1.83.517-3.487 1.567-4.99.97-1.386 2.224-2.485 3.635-3.422 2.015-1.338 4.222-2.292 6.518-3.055 2.656-.885 5.384-1.495 8.151-1.935a81.52 81.52 0 016.087-.706c3.493-.284 6.99-.292 10.487-.223 1.602.03 3.2.088 4.801.17 1.508.079 3.017.188 4.52.319 1.536.13 3.07.27 4.597.466 3.306.427 6.59.976 9.748 2.079.085.03.17.061.254.087.16.052.205.157.16.305-.044.153-.098.305-.147.458-1.205 3.705-2.407 7.41-3.612 11.114-.04.122-.09.244-.152.414-.209-.06-.405-.109-.592-.174-1.93-.663-3.888-1.234-5.89-1.656-1.967-.419-3.947-.78-5.95-1.016-1.499-.179-2.998-.362-4.502-.488a61.524 61.524 0 00-3.907-.205 223.237 223.237 0 00-7.248-.052c-1.73.022-3.461.144-5.192.24-.383.021-.76.108-1.14.191a1.6 1.6 0 00-.493.196c-.436.258-.458.75 0 .968.432.205.917.357 1.388.418a98.18 98.18 0 004.236.454c1.49.13 2.986.222 4.476.322 1.064.074 2.131.127 3.195.21 1.223.091 2.451.2 3.675.313.943.087 1.886.175 2.83.284 1.263.143 2.531.279 3.79.462 1.95.283 3.885.623 5.794 1.111 1.868.48 3.693 1.072 5.392 1.992 1.34.723 2.528 1.626 3.457 2.824 1.05 1.351 1.62 2.89 1.856 4.56.058.413.058.836.098 1.255.018.196.075.392.111.588-.009.257-.009.519-.009.78zm-431.589-10.641c.183.057.3.101.418.128 1.956.36 3.516 1.405 4.832 2.855 1.29 1.423 2.078 3.1 2.288 5.02.087.826.07 1.67.013 2.5a15.053 15.053 0 01-.71 3.693c-.972 2.952-2.807 5.223-5.386 6.901-1.987 1.291-4.174 2.1-6.466 2.635-1.512.356-3.041.615-4.596.712-1.23.075-2.462.163-3.695.163-14.435.013-28.875.008-43.31.008h-.348c-.41-.008-.431-.026-.44-.46-.004-.102 0-.207 0-.308v-41.465c0-.887-.013-.76.75-.76h43.047c2.723 0 5.42.246 8.056.962 2.052.558 3.983 1.375 5.669 2.702 1.987 1.555 3.259 3.562 3.66 6.079.327 2.038.183 4.028-.837 5.881-.51.923-1.163 1.713-2.07 2.267-.195.118-.413.206-.622.312-.061.039-.127.087-.253.175zm-26.73 8.205v-.009h-9.8c-.666 0-.666 0-.666.69v2.636c0 .724 0 .724.719.729 3.524 0 7.054.008 10.578 0 3.12-.01 6.24-.027 9.36-.053.77-.004 1.533-.11 2.265-.373.937-.339 1.307-1.08 1.111-2.188a1.132 1.132 0 00-.636-.843c-.283-.14-.584-.29-.893-.33-.832-.114-1.669-.237-2.505-.241-3.177-.035-6.357-.018-9.534-.018zm-10.405-14.258c-.027.207-.057.365-.057.519-.009.439-.004.878-.004 1.317 0 .738 0 .743.749.743h17.071c.118 0 .23.004.349-.005.448-.035.897-.048 1.32-.237.605-.272.876-.874.662-1.484-.161-.453-.536-.65-.959-.738a5.245 5.245 0 00-1.08-.11c-5.852-.005-11.699-.005-17.55-.005h-.501zm195.728 30.638h-20.343c-.013-.207-.035-.387-.035-.571v-17.084c0-.167-.013-.334-.022-.597-.228.136-.377.21-.513.307-3.27 2.24-6.538 4.484-9.807 6.724l-6.512 4.466a1.822 1.822 0 01-2.076 0c-5.265-3.676-10.53-7.347-15.796-11.019-.14-.096-.29-.189-.474-.303-.044.132-.092.22-.1.308-.014.158-.01.32-.01.483v16.644c0 .202-.022.4-.03.589-.373.097-19.742.114-20.198.03-.009-.013-.018-.021-.026-.034-.01-.014-.022-.022-.022-.036-.013-.07-.031-.145-.031-.215V102.33c0-.057.009-.114.022-.17.004-.027.026-.054.057-.11.092-.01.202-.036.312-.036 3.73 0 7.459 0 11.189-.004.232 0 .421.07.61.197 8.376 5.6 16.753 11.2 25.134 16.794.026.018.052.031.07.049.294.29.557.22.882 0 6.152-4.058 12.312-8.107 18.469-12.157 2.356-1.55 4.717-3.1 7.073-4.655.228-.15.448-.237.728-.237 3.656.009 7.31.004 10.97.004.132 0 .26.014.413.018.026.11.057.206.066.303.008.114.004.233.004.351v41.63c-.004.206-.004.408-.004.663zm-95.82-15.251c.313.413.697.742 1.041 1.11.34.36.693.712 1.038 1.068l1.072 1.093c.345.356.689.712 1.038 1.067.357.365.71.734 1.068 1.098.344.356.693.712 1.037 1.067l1.072 1.094c.358.364.715.729 1.068 1.098.345.355.694.711 1.038 1.067.357.364.71.733 1.068 1.098.344.355.693.711 1.037 1.062l1.073 1.094c.344.356.689.711 1.037 1.067l1.138 1.173c-.257.008-.423.017-.584.017h-21.273c-1.73 0-3.457-.009-5.187.009-.327.004-.528-.106-.732-.36-3.252-4.11-6.517-8.208-9.76-12.323-.301-.382-.61-.53-1.095-.522-1.861.026-3.718.013-5.58.013h-.57c-.018.233-.044.43-.044.628-.004 3.983 0 7.962 0 11.945v.57c-.183.018-.336.04-.488.04-.916.004-1.831 0-2.747 0h-16.843c-.122-.39-.131-42.509-.013-42.983h23.16c7.136 0 14.267-.027 21.403.017 3.16.022 6.238.593 9.137 1.933 2.332 1.076 4.311 2.59 5.723 4.786 1.038 1.612 1.635 3.386 1.836 5.292.24 2.283.091 4.528-.65 6.714-1.063 3.132-3.086 5.459-5.915 7.101-1.29.751-2.672 1.283-4.107 1.67a7.02 7.02 0 00-.335.096c-.035.009-.07.04-.161.1zm-29.943-14.663c-.027.114-.053.171-.053.228-.004 1.054-.004 2.108-.008 3.162 0 .215.082.33.305.33.087 0 .174.004.261.004 6.304 0 12.611 0 18.915-.005.257 0 .523-.03.775-.088.82-.188 1.347-.869 1.413-1.787.048-.69-.401-1.383-1.138-1.651a3.413 3.413 0 00-1.146-.206c-6.278-.014-12.55-.01-18.828-.01-.156 0-.313.014-.496.023zM359 144.991h-.555c-8.257 0-16.513-.004-24.773.009-.421 0-.64-.14-.833-.49-.964-1.743-1.963-3.466-2.921-5.214-.188-.345-.408-.454-.807-.454-7.84.013-15.679.013-23.518 0-.44 0-.659.144-.86.51-.959 1.745-1.958 3.471-2.925 5.21-.17.307-.354.434-.726.434-8.198-.01-16.396-.01-24.594-.01H276c.108-.178.17-.296.25-.406 2.487-3.492 4.978-6.984 7.464-10.476 6.209-8.72 12.422-17.44 18.631-26.16 1.313-1.84 2.63-3.68 3.929-5.529.206-.297.434-.415.806-.415 6.93.009 13.856.009 20.786 0 .394 0 .618.135.838.441 4.789 6.74 9.586 13.471 14.384 20.207 5.179 7.273 10.362 14.541 15.54 21.814.108.145.206.289.372.53zm-41.675-27.448c-.398.476-5.263 9.095-5.33 9.432.34.096 10.28.105 10.697.013-.054-.35-5.04-9.144-5.367-9.445zm64.147 13.613c.173.03.301.061.43.07.159.009.322.004.486.004h35.886c.828 0 .722-.017.722.707.004 4.16 0 8.314 0 12.473v.496c-.385.105-57.412.127-57.912.04l-.03-.031c-.01-.013-.023-.022-.023-.035-.013-.145-.031-.29-.031-.435 0-14.08.004-28.164.009-42.244 0-.04.026-.08.04-.119.323-.087 19.777-.118 20.366-.026.017.083.048.18.053.277.009.145.004.294.004.439v28.384zm61.027.001c.172.03.3.061.43.07.163.01.323.005.487.005h36.49c.115.395.124 13.276.03 13.69-.323.087-57.342.11-57.847.026l-.036-.031a.096.096 0 01-.022-.035c-.009-.044-.027-.084-.027-.128 0-14.124-.004-28.253-.004-42.377 0-.075.009-.145.018-.22.004-.026.026-.053.04-.075.314-.087 19.793-.118 20.392-.026.018.083.049.18.053.277.009.145.004.294.004.439v27.713c-.008.206-.008.426-.008.672z"></path></svg>