<svg xmlns="http://www.w3.org/2000/svg" xmlns:xlink="http://www.w3.org/1999/xlink" viewBox="73 63.65999984741211 451.4119873046875 121.33999633789062"><defs><path id="fn3fe8c1855dma" d="M0 .66h121.34V122H0z"></path><path id="fn3fe8c1855dmc" d="M.642.66h325.77V122H.642z"></path></defs><g fill="none" fill-rule="evenodd"><path fill="#B3B8BC" d="M110.088 120c3.649 0 6.393-.396 8.231-1.189 1.838-.79 3.244-2.003 4.219-3.638.975-1.633 1.462-3.416 1.462-5.352 0-2.991-1.212-5.541-3.637-7.655-2.425-2.11-5.963-3.166-10.614-3.166-2.5 0-4.75.277-6.749.83v19.64c.924.178 1.981.31 3.17.398 1.185.089 2.493.132 3.918.132m8.202 3.561c-2.371-1.04-5.305-1.561-8.8-1.561a83.92 83.92 0 00-3.887.076c-1.076.05-1.945.137-2.603.26v20.663c2.834.667 5.634 1.001 8.396 1.001 4.423 0 7.797-1.007 10.12-3.028 2.322-2.017 3.484-4.515 3.484-7.489 0-1.957-.526-3.839-1.577-5.648-1.05-1.808-2.764-3.232-5.133-4.274M164 109.774c0-3.19-1.007-5.783-3.024-7.781-2.015-1.996-4.685-2.993-8.006-2.993-1.471 0-3.46.238-5.97.716v21.245c.48 0 .9.008 1.253.02.355.013.647.019.875.019 4.92 0 8.628-1.054 11.126-3.164 2.497-2.112 3.746-4.798 3.746-8.062"></path><g transform="translate(73 63)"><mask id="fn3fe8c1855dmb" fill="#fff"><use xlink:href="#fn3fe8c1855dma"></use></mask><path fill="#B3B8BC" d="M109.524 82.997H96.196L79.295 59.654a79.16 79.16 0 01-3.056.073 32.957 32.957 0 01-2.171-.073V74.16c0 3.142.342 5.095 1.03 5.854.932 1.082 2.33 1.62 4.197 1.62h1.953v1.363H59.853v-1.363h1.878c2.112 0 3.62-.686 4.53-2.06.515-.761.772-2.566.772-5.414V41.905c0-3.142-.344-5.093-1.03-5.854-.957-1.078-2.38-1.62-4.272-1.62h-1.878v-1.363h18.19c5.301 0 9.21.389 11.728 1.161 2.516.773 4.651 2.197 6.406 4.272 1.754 2.074 2.633 4.546 2.633 7.419 0 3.07-1 5.73-3 7.99-2.001 2.257-5.101 3.852-9.298 4.785l10.31 14.325c2.357 3.289 4.38 5.472 6.076 6.554 1.693 1.078 3.903 1.766 6.626 2.06v1.363zm-57.867-1.565c-2.74 1.044-6.917 1.565-12.539 1.565H15.552v-1.363h1.88c2.085 0 3.582-.663 4.491-1.987.563-.86.846-2.689.846-5.487V41.905c0-3.092-.356-5.043-1.067-5.854-.957-1.078-2.381-1.62-4.27-1.62h-1.88v-1.363h21.579c4.024 0 7.251.296 9.682.884 3.683.883 6.493 2.449 8.432 4.696 1.939 2.246 2.91 4.83 2.91 7.75 0 2.505-.762 4.744-2.284 6.72-1.522 1.975-3.767 3.441-6.738 4.398 3.461.738 6.052 1.917 7.77 3.537 2.38 2.258 3.571 5.02 3.571 8.285 0 2.48-.786 4.853-2.356 7.124-1.572 2.27-3.727 3.929-6.461 4.97zM0 122h121.34V.66H0V122z" mask="url(#fn3fe8c1855dmb)"></path></g><path fill="#245070" d="M331.943 117c-1.188 0-2.364.292-3.526.878-.891.437-2.363 1.753-4.417 3.945v12.504c0 2.705.112 4.485.333 5.336.347 1.414 1.194 2.658 2.544 3.729 1.348 1.074 3.05 1.608 5.103 1.608 2.474 0 4.479-.95 6.013-2.85 2.003-2.487 3.007-5.982 3.007-10.49 0-5.12-1.14-9.054-3.415-11.81-1.583-1.9-3.464-2.85-5.642-2.85m139.452-1.82c-1.244-.785-2.546-1.18-3.906-1.18-2.087 0-3.957.793-5.603 2.38-1.649 1.584-2.61 3.792-2.886 6.62h16c-.126-2.164-.392-3.689-.794-4.572-.628-1.379-1.566-2.46-2.81-3.248M292.387 114c-1.311 0-2.628.39-3.953 1.17-1.323.78-2.392 2.147-3.21 4.103-.815 1.955-1.224 4.466-1.224 7.535 0 4.951.984 9.22 2.95 12.809 1.966 3.589 4.558 5.383 7.775 5.383 2.4 0 4.38-.99 5.937-2.97 1.56-1.98 2.338-5.382 2.338-10.21 0-6.039-1.298-10.79-3.895-14.255-1.757-2.377-3.996-3.565-6.718-3.565"></path><g transform="translate(198 63)"><mask id="fn3fe8c1855dmd" fill="#fff"><use xlink:href="#fn3fe8c1855dmc"></use></mask><path fill="#245070" d="M309.659 81.212c-2.329 1.878-4.935 2.817-7.818 2.817-2.07 0-4.436-.37-7.096-1.105-.815-.246-1.48-.369-1.997-.369-.568 0-1.011.32-1.332.957h-1.219V71.474h1.22c.688 3.436 2.008 6.025 3.955 7.768 1.946 1.743 4.127 2.614 6.542 2.614 1.702 0 3.087-.498 4.16-1.49 1.071-.995 1.607-2.193 1.607-3.592 0-1.693-.598-3.117-1.792-4.27-1.196-1.155-3.581-2.616-7.154-4.384-3.574-1.764-5.914-3.361-7.023-4.785-1.108-1.398-1.664-3.166-1.664-5.303 0-2.773.956-5.093 2.866-6.959 1.91-1.864 4.38-2.798 7.41-2.798 1.332 0 2.945.284 4.843.847 1.256.37 2.094.554 2.514.554.394 0 .703-.087.925-.26.221-.17.48-.551.775-1.141h1.22v11.489h-1.22c-.936-3.61-2.138-6.062-3.604-7.365-1.466-1.301-3.332-1.95-5.601-1.95-1.725 0-3.116.453-4.175 1.362-1.06.91-1.59 1.914-1.59 3.017 0 1.376.393 2.556 1.183 3.537.764 1.007 2.317 2.073 4.657 3.201l5.397 2.616c5.003 2.43 7.505 5.633 7.505 9.611 0 3.068-1.165 5.54-3.494 7.419zm-45.189-7.457c2.462 2.848 5.358 4.272 8.686 4.272 2.217 0 4.145-.609 5.785-1.822 1.638-1.216 3.014-3.296 4.121-6.244l1.146.738c-.517 3.363-2.02 6.425-4.509 9.189-2.489 2.76-5.607 4.141-9.352 4.141-4.065 0-7.548-1.578-10.444-4.731-2.896-3.156-4.343-7.396-4.343-12.723 0-5.768 1.486-10.267 4.455-13.496 2.97-3.224 6.697-4.839 11.181-4.839 3.795 0 6.913 1.246 9.354 3.736 2.439 2.491 3.658 5.824 3.658 9.996H260.81c-.025 5.008 1.194 8.937 3.66 11.783zm-13.567 9.242h-16.449v-1.326c1.65 0 2.76-.16 3.327-.478.567-.32 1.017-.846 1.348-1.584.334-.736.5-2.147.5-4.234V62.377c0-3.657-.112-6.027-.332-7.105-.173-.786-.444-1.332-.814-1.64-.37-.307-.876-.46-1.515-.46-.69 0-1.53.186-2.514.553l-.519-1.326 10.205-4.124h1.625v27.1c0 2.112.154 3.517.463 4.217.306.7.764 1.22 1.368 1.564.604.344 1.705.515 3.307.515v1.326zm-22.733-1.27c-1.576 1.215-3.204 1.824-4.88 1.824-1.134 0-2.241-.313-3.325-.94a5.682 5.682 0 01-2.403-2.689c-.517-1.164-.777-2.963-.777-5.394v-22.68h-5.36v-1.215c1.356-.54 2.742-1.455 4.16-2.745 1.416-1.287 2.68-2.817 3.79-4.583.564-.932 1.354-2.639 2.365-5.118h1.144V49.27h7.91v2.578h-7.91v21.87c0 2.186.314 3.658.943 4.419.63.76 1.436 1.141 2.422 1.141.812 0 1.601-.251 2.365-.753.764-.503 1.355-1.247 1.775-2.23h1.441c-.864 2.407-2.081 4.217-3.66 5.432zm-17.964-26.933c-.641.663-1.405.993-2.293.993-.862 0-1.83-.422-2.901-1.272-1.071-.846-1.868-1.268-2.385-1.268-.444 0-.924.246-1.441.736-1.11 1.005-2.256 2.663-3.437 4.97v16.165c0 1.866.234 3.276.7 4.233.32.664.888 1.215 1.702 1.66.813.44 1.984.66 3.51.66v1.326h-17.336v-1.326c1.725 0 3.006-.269 3.846-.81.615-.393 1.047-1.018 1.292-1.877.124-.417.185-1.608.185-3.572V62.34c0-3.926-.08-6.265-.24-7.015-.16-.747-.456-1.295-.886-1.637-.432-.344-.969-.517-1.61-.517-.763 0-1.624.186-2.587.553l-.368-1.326 10.24-4.124h1.552v7.587c2.833-5.058 5.74-7.587 8.723-7.587 1.355 0 2.476.411 3.363 1.234.888.824 1.331 1.773 1.331 2.854 0 .957-.32 1.766-.96 2.43zm-46.613 18.961c2.464 2.848 5.36 4.272 8.686 4.272 2.219 0 4.146-.609 5.784-1.822 1.64-1.216 3.014-3.296 4.124-6.244l1.144.738c-.517 3.363-2.02 6.425-4.51 9.189-2.488 2.76-5.606 4.141-9.351 4.141-4.065 0-7.546-1.578-10.442-4.731-2.896-3.156-4.343-7.396-4.343-12.723 0-5.768 1.484-10.267 4.453-13.496 2.97-3.224 6.697-4.839 11.183-4.839 3.795 0 6.91 1.246 9.352 3.736 2.44 2.491 3.658 5.824 3.658 9.996h-23.398c-.025 5.008 1.196 8.937 3.66 11.783zm-19.333 5.596c-2.759 3.118-6.236 4.678-10.422 4.678-1.826 0-3.402-.26-4.733-.774-.986-.37-2.096-1.105-3.327-2.21v10.274c0 2.306.141 3.775.425 4.4.283.626.775 1.123 1.48 1.49.7.37 1.977.552 3.826.552v1.363h-17.745V97.76h.924c1.356.025 2.514-.232 3.477-.772.467-.271.83-.706 1.088-1.307.26-.602.39-2.13.39-4.584V59.212c0-2.185-.1-3.573-.297-4.16-.197-.59-.512-1.03-.942-1.327-.432-.294-1.017-.442-1.756-.442-.592 0-1.342.173-2.255.515l-.444-1.178 10.425-4.197h1.404v7.88c1.75-2.97 3.506-5.051 5.268-6.24 1.761-1.192 3.615-1.788 5.564-1.788 3.4 0 6.234 1.326 8.501 3.978 2.784 3.238 4.177 7.46 4.177 12.665 0 5.818-1.676 10.63-5.028 14.433zm-35.042-4.674c-1.455 3.09-3.457 5.424-6.006 6.994-2.553 1.572-5.393 2.358-8.522 2.358-5.102 0-9.155-2.025-12.161-6.075-2.54-3.413-3.807-7.243-3.807-11.489 0-3.092.77-6.167 2.31-9.225 1.54-3.055 3.567-5.312 6.08-6.774 2.513-1.46 5.176-2.191 7.985-2.191 5.126 0 9.24 1.94 12.346 5.82 2.638 3.313 3.955 7.118 3.955 11.413 0 3.018-.727 6.075-2.18 9.17zM75.691 54.794c-.64.663-1.405.993-2.292.993-.863 0-1.83-.422-2.902-1.272-1.071-.846-1.866-1.268-2.383-1.268-.444 0-.924.246-1.441.736-1.112 1.005-2.256 2.663-3.438 4.97v16.165c0 1.866.233 3.276.702 4.233.32.664.887 1.215 1.7 1.66.812.44 1.983.66 3.511.66v1.326H51.81v-1.326c1.725 0 3.007-.269 3.846-.81.615-.393 1.047-1.018 1.293-1.877.123-.417.187-1.608.187-3.572V62.34c0-3.926-.081-6.265-.242-7.015-.16-.747-.457-1.295-.887-1.637-.43-.344-.967-.517-1.607-.517-.764 0-1.627.186-2.59.553l-.368-1.326 10.24-4.124h1.553v7.587c2.832-5.058 5.74-7.587 8.722-7.587 1.355 0 2.476.411 3.363 1.234.888.824 1.332 1.773 1.332 2.854 0 .957-.32 1.766-.961 2.43zm-31.438 2.025c-2.7 2.553-6.512 3.829-11.441 3.829-1.208 0-2.514-.087-3.92-.258a52.227 52.227 0 01-4.508-.772V74.16c0 3.143.345 5.093 1.036 5.855.936 1.08 2.352 1.62 4.25 1.62h1.922v1.362H10.116v-1.362H12c2.118 0 3.635-.688 4.548-2.063.492-.759.739-2.565.739-5.412V41.906c0-3.143-.334-5.095-.998-5.854-.963-1.08-2.392-1.62-4.29-1.62h-1.884v-1.363h18.372c4.484 0 8.02.46 10.61 1.382 2.585.918 4.767 2.471 6.54 4.656 1.775 2.186 2.663 4.774 2.663 7.77 0 4.075-1.35 7.388-4.048 9.942zm195.764-25.094c.727-.724 1.62-1.085 2.68-1.085 1.036 0 1.916.36 2.643 1.085.728.725 1.09 1.601 1.09 2.632a3.637 3.637 0 01-1.09 2.652 3.577 3.577 0 01-2.643 1.105c-1.034 0-1.922-.37-2.66-1.105-.74-.736-1.11-1.62-1.11-2.652 0-1.03.363-1.907 1.09-2.632zM.642 122h325.77V.66H.642V122z" mask="url(#fn3fe8c1855dmd)"></path></g><path fill="#245070" d="M233.06 100.37c-1.575-.913-3.365-1.37-5.37-1.37-1.217 0-2.78.23-4.69.695v20.574c1.265.244 2.388.426 3.365.548.98.122 1.814.183 2.506.183 2.481 0 4.624-.98 6.425-2.938 1.803-1.956 2.704-4.492 2.704-7.606 0-2.14-.43-4.128-1.29-5.966-.859-1.836-2.075-3.209-3.65-4.12m137.335 14.81c-1.244-.785-2.546-1.18-3.906-1.18-2.087 0-3.957.793-5.603 2.38-1.649 1.584-2.61 3.792-2.886 6.62h16c-.126-2.164-.392-3.689-.794-4.572-.628-1.379-1.566-2.46-2.81-3.248"></path></g></svg>