<svg xmlns="http://www.w3.org/2000/svg" viewBox="1.700000286102295 1.5 154.30001831054688 80.5"><path fill="#367CAE" d="M133.6 53.4c2.3 0 4.4-.9 5.9-2.4s2.5-3.6 2.5-5.9V23.9c0-2.2-.9-4.3-2.5-5.9-1.5-1.5-3.6-2.4-5.9-2.4h-21.1c-2.2 0-4.3.9-5.9 2.4-1.5 1.5-2.5 3.6-2.5 5.9h-14c0-6.2 2.5-11.8 6.5-15.8s9.6-6.5 15.8-6.5h21.1c6.2 0 11.8 2.5 15.8 6.5s6.6 9.6 6.6 15.8v21.3c0 6.2-2.5 11.8-6.6 15.8-4.1 4.1-9.6 6.6-15.8 6.6V53.4z"/><path fill="#e67700" d="M156 81c-10.1-.3-15-5.1-19.9-9.7-2.9-2.7-5.7-5.4-10.2-5.4-3.9 0-7.1-3.2-7.1-7.1 0-3.9 3.2-7.1 7.1-7.1 10.2 0 15.1 4.7 20 9.4 2.8 2.6 5.6 5.3 10.1 5.7V81z"/><path fill="#367CAE" d="M52.9 1.5h29c6.2 0 11.8 2.5 15.8 6.6 4 4 6.6 9.6 6.6 15.8s-2.5 11.8-6.6 15.8c-1.4 1.4-3 2.7-4.8 3.7 2 1.5 3.9 3.1 5.7 4.8 6 5.4 11.4 11.3 16.8 18.7h-18c-2.7-3-5.3-5.7-8.2-8.3C84 53.9 78 49.7 70.7 45.3c-2.1-1.2-3.4-3.5-3.4-6.1.1-3.9 3.3-7 7.1-6.9h7.4c2.3 0 4.4-.9 5.9-2.4s2.4-3.6 2.4-5.9c0-2.3-.9-4.4-2.4-5.9s-3.6-2.4-5.9-2.4h-29V1.5z"/><path fill="#4498D5" d="M46.4 15.6H25.6c-2.7 0-4.8 2.2-4.8 4.8 0 1.3.5 2.5 1.4 3.4.8.8 2 1.4 3.3 1.4h21v-9.6zm7 51.3H22.5c-5.7 0-10.9-2.3-14.7-6.1-3.8-3.8-6.1-9-6.1-14.7 0-5.7 2.3-10.9 6.1-14.7.5-.5.9-.9 1.5-1.3-1.7-2.8-2.6-6.1-2.6-9.6-.1-10.5 8.4-19 18.9-19h35v14.1h-.1v51.3h-7.1zM25.3 39.4h-2.8c-1.9 0-3.5.8-4.7 2-1.2 1.2-2 2.9-2 4.7 0 1.9.8 3.5 2 4.7 1.2 1.2 2.9 2 4.7 2h23.9V39.4H25.3z"/><path fill="#e67700" d="M9.1 75.8c1.1 0 2 .5 2 1.9V80c0 1.4-.9 1.9-2 1.9H7.6c-.3 0-.5-.2-.5-.3v-5.5c0-.2.2-.3.5-.3h1.5zm-.9.9V81h.9c.6 0 .9-.3.9-1v-2.3c0-.7-.3-1-.9-1h-.9zm7.2-.6c0-.2.3-.3.5-.3.3 0 .5.1.5.3v5.5c0 .2-.3.3-.5.3-.3 0-.5-.1-.5-.3v-5.5zm7.4.6c-.6 0-.9.3-.9 1V80c0 .7.3 1 .9 1 .5 0 .9-.3.9-1v-.5H23c-.2 0-.3-.2-.3-.4s.1-.4.3-.4h1.4c.2 0 .3.2.3.4v1c0 1.4-.9 1.9-2 1.9s-2-.5-2-1.9v-2.4c0-1.4.9-1.9 1.9-1.9 1.2 0 2 .6 2 1.6 0 .4-.2.5-.5.5s-.5-.1-.5-.3c0-.4-.1-.9-.8-.9zm6.2-.6c0-.2.3-.3.5-.3.3 0 .5.1.5.3v5.5c0 .2-.3.3-.5.3-.3 0-.5-.1-.5-.3v-5.5zm9-.3c.2 0 .3.3.3.5 0 .3-.1.5-.3.5h-1.2v4.8c0 .2-.3.3-.5.3-.3 0-.5-.1-.5-.3v-4.8h-1.2c-.2 0-.3-.2-.3-.5 0-.2.1-.5.3-.5H38zm3.4 5.7c0-.1 0-.1 0 0l1.6-5.4c.1-.3.4-.4.7-.4.3 0 .6.1.7.4l1.6 5.3v.1c0 .3-.4.5-.7.5-.2 0-.3-.1-.4-.2l-.3-1.1h-1.9l-.3 1.1c0 .2-.2.2-.4.2-.2-.1-.6-.3-.6-.5zm3-1.8l-.7-2.6-.7 2.6h1.4zm6.1 2.2c-.2 0-.5-.1-.5-.3v-5.5c0-.2.3-.3.5-.3.3 0 .5.1.5.3V81h2.1c.2 0 .3.2.3.5 0 .2-.1.5-.3.5h-2.6zm14.6-1.6c0-1.3-2.7-.9-2.7-2.9 0-1.3 1.1-1.7 2-1.7.5 0 1.6.1 1.6.7 0 .2-.1.6-.4.6-.3 0-.5-.3-1.2-.3-.6 0-1 .2-1 .6 0 1 2.7.7 2.7 2.9 0 1.2-.8 1.8-2 1.8-1.1 0-1.9-.6-1.9-1 0-.2.2-.6.5-.6s.6.6 1.4.6c.5 0 1-.2 1-.7zm5.1-.3v-2.4c0-1.4.9-1.9 2-1.9s2 .5 2 1.9V80c0 1.4-.9 1.9-2 1.9-1.1.1-2-.5-2-1.9zm2.9-2.3c0-.7-.3-1-.9-1-.6 0-.9.3-.9 1V80c0 .7.3 1 .9 1 .5 0 .9-.3.9-1v-2.3zm5.9 4.2c-.2 0-.5-.1-.5-.3v-5.5c0-.2.3-.3.5-.3.3 0 .5.1.5.3V81h2.1c.2 0 .3.2.3.5 0 .2-.1.5-.3.5H79zm9.7-5.8c0-.2.3-.3.5-.3.3 0 .5.1.5.3V80c0 1.4-.9 1.9-2 1.9s-2-.5-2-1.9v-3.9c0-.2.3-.3.5-.3.3 0 .5.1.5.3V80c0 .7.3 1 .9 1s.9-.3.9-1v-3.9zm9-.3c.2 0 .3.3.3.5 0 .3-.1.5-.3.5h-1.2v4.8c0 .2-.3.3-.5.3-.3 0-.5-.1-.5-.3v-4.8h-1.2c-.2 0-.3-.2-.3-.5 0-.2.1-.5.3-.5h3.4zm4.3.3c0-.2.3-.3.5-.3.3 0 .5.1.5.3v5.5c0 .2-.3.3-.5.3-.3 0-.5-.1-.5-.3v-5.5zm5.4 3.9v-2.4c0-1.4.9-1.9 2-1.9s2 .5 2 1.9V80c0 1.4-.9 1.9-2 1.9-1.1.1-2-.5-2-1.9zm2.9-2.3c0-.7-.3-1-.9-1-.6 0-.9.3-.9 1V80c0 .7.3 1 .9 1 .5 0 .9-.3.9-1v-2.3zm8.3 3.9l-1.8-3.4v3.4c0 .2-.3.3-.5.3-.3 0-.5-.1-.5-.3v-5.5c0-.2.3-.3.5-.3.4 0 .6.1.8.6l1.6 3.1v-3.4c0-.2.3-.3.5-.3.3 0 .5.1.5.3v5.5c0 .2-.3.3-.5.3-.3 0-.5-.1-.6-.3zm8.1-1.3c0-1.3-2.7-.9-2.7-2.9 0-1.3 1.1-1.7 2-1.7.5 0 1.6.1 1.6.7 0 .2-.1.6-.4.6-.3 0-.5-.3-1.2-.3-.6 0-1 .2-1 .6 0 1 2.7.7 2.7 2.9 0 1.2-.8 1.8-2 1.8-1.1 0-1.9-.6-1.9-1 0-.2.2-.6.5-.6s.6.6 1.4.6c.6 0 1-.2 1-.7z"/></svg>
