<svg xmlns="http://www.w3.org/2000/svg" viewBox="0.14399999380111694 0.2529999911785126 214.14198303222656 36.03748321533203"><path fill="#26b9f1" fill-rule="evenodd" d="M27.61 10.608L21.793.402H9.66l6.813 10.82 11.136-.614"></path><path fill="#186bbe" fill-rule="evenodd" d="M16.486 11.243l-5.715 8.538 5.297-.032 2.623-3.957 6.045.003 2.959-5.038-.084-.146-.002-.003-11.136.615.01.017.003.003"></path><path fill="#26b9f1" fill-rule="evenodd" d="M36.443 26.144l.012-.02-.005-.009-4.973-8.727-12.091-.046 4.824 8.48.172.302-.013.02h12.074m-18.216.376v-.001l.007-.013-2.745-5.282-5.373-.084-3.146-4.356-6.102-.074 5.498 9.694.002.004 11.86.111"></path><path fill="#186bbe" fill-rule="evenodd" d="M.144 36.1h12.038l2.925-4.498 3.35 4.499h12.008l5.978-9.957H24.37l-5.276 8.314-3.057-4.275 2.191-3.664-11.859-.111.052.091-6.276 9.602"></path><path fill="#186bbe" d="M207.728 34.908h6.558V.253h-6.558zm-26.545-22.442h7.304v11.37c0 1.768.297 3.09.894 3.96.594.87 1.495 1.309 2.714 1.309 1.377 0 2.422-.593 3.129-1.776.713-1.184 1.065-2.923 1.065-5.203v-9.66h7.326v22.543h-6.654v-4.217c-.838 1.498-1.917 2.645-3.233 3.428-1.323.782-2.817 1.176-4.493 1.176-2.623 0-4.626-.848-5.996-2.536-1.371-1.694-2.056-4.158-2.056-7.394v-13m-33.564 22.442h8.13V12.064h-8.13zm-2.935-22.194l-.43 6.463c-.33-.129-.7-.22-1.1-.284a9.392 9.392 0 00-1.42-.092c-1.938 0-4.42.574-5.403 1.721-.983 1.148-1.475 2.836-1.475 5.068v9.318h-7.112V13.046H135v4.174c.823-1.615 1.83-2.813 3.013-3.592 1.191-.772 2.598-1.162 4.22-1.162.415 0 1.184.077 2.291.226l.16.022m-20.811 9.317v12.952h-6.934V23.66c0-1.792-.286-3.132-.854-4.005-.568-.874-1.427-1.311-2.591-1.311-1.21 0-2.183.548-2.915 1.65-.727 1.096-1.092 2.571-1.092 4.422v10.567h-6.993v-22.43h6.353v4.102c.8-1.533 1.837-2.703 3.1-3.502 1.263-.807 2.691-1.207 4.278-1.207 2.491 0 4.39.857 5.691 2.57 1.304 1.715 1.957 4.22 1.957 7.515m-25.446 1.893v10.981h-6.764l-.17-2.641c-.922 1.302-2.036 2.264-3.342 2.875-1.306.61-2.877.912-4.722.912-2.308 0-4.146-.656-5.517-1.965-1.365-1.3-2.05-3.05-2.05-5.228 0-2.515.995-4.375 2.98-5.589 1.991-1.213 5.053-1.823 9.19-1.823h3.048v-.302c0-1.235-.473-2.184-1.424-2.846-.952-.662-2.338-.992-4.153-.992-.893 0-1.91.153-3.047.47-1.143.316-2.367.78-3.674 1.383l-.132-5.126a19.172 19.172 0 014.116-1.183c1.476-.259 3.106-.39 4.876-.39 3.718 0 6.448.926 8.18 2.771 1.735 1.847 2.605 4.744 2.605 8.693zm-8.273 1.298c-2.596 0-4.471.28-5.618.832-1.148.553-1.717 1.443-1.717 2.67 0 .882.31 1.598.921 2.143.612.551 1.424.824 2.438.824 1.606 0 2.92-.527 3.943-1.59 1.02-1.064 1.533-2.447 1.533-4.154v-.725h-1.5M47.93 3.152h13.104c5.467 0 11.163 1.15 11.163 7.694 0 3.28-2.72 6.655-5.609 7.44 4.372.777 6.944 3.701 6.944 8.16 0 7.32-7.19 8.615-13.15 8.615H47.93zm6.74 4.689v7.87h3.396c2.356 0 4.13-.34 5.297-1.008 1.169-.67 1.753-1.687 1.753-3.068 0-1.236-.554-2.184-1.652-2.829-1.097-.643-2.73-.965-4.865-.965zm0 13.532v7.941h4.393c2.286 0 4.018-.342 5.196-1.032 1.18-.69 1.773-1.697 1.773-3.012 0-1.299-.543-2.273-1.621-2.922-1.088-.65-2.7-.975-4.845-.975H54.67"></path><path fill="#186bbe" fill-rule="evenodd" d="M151.684 1.463c2.41 0 4.364 1.82 4.364 4.066 0 2.246-1.955 4.066-4.364 4.066-2.408 0-4.363-1.82-4.363-4.066 0-2.245 1.955-4.066 4.363-4.066m6.563 31.344l3.892-3.79c1.397 2.408 9.154 3.6 9.116.205-.047-4.043-12.816-1.085-11.724-9.952.637-5.178 6.428-6.804 9.368-6.804 2.98 0 5.625.856 7.785 2.724-1.128 1.331-2.255 2.485-3.381 3.816-.56-.99-7.322-3.03-8.02.156-.676 3.084 5.032 2.37 8.248 3.63 2.661 1.043 4.236 2.76 3.906 6.285-.424 4.546-4.046 7.255-9.972 7.213-1.902-.014-6.148-.546-9.218-3.483"></path></svg>