<svg xmlns="http://www.w3.org/2000/svg" viewBox="0.9346750378608704 0.9020490646362305 1554.6680908203125 453.05609130859375"><path fill="#05A951" d="M1.25 169.55c0-51.53.4-103.07-.31-154.6C.77 3.07 4.65.5 15.52.95c19.19.79 38.44.48 57.66.09 7.55-.16 9.86 2.52 9.77 10-.34 29.44.12 58.9-.3 88.34-.12 8.67 1.11 11.8 11.32 10.89 27.67-2.48 55.58-3.7 82.72 4.6 43.92 13.44 71.64 42.88 83.13 87 11.77 45.27 11.27 90.64-3.4 135.25-20.15 61.31-73.38 87.89-133.76 85.51-32-1.25-62.52-7.39-87.91-28.85-21.89-18.51-33-42.56-33.33-70.85-.62-51.12-.17-102.25-.17-153.38zm81.57 86.55v66.2c0 11.41 4.66 20.06 15.72 23.72 11.66 3.85 23.77 6.09 36.16 4.93 20.4-1.93 36.3-11.15 42.61-31.38 10.16-32.59 10.84-66.07 3.72-99.23-5-23.13-18.19-40.42-43.68-43.61a167.54 167.54 0 00-45.16.9c-7.63 1.13-9.78 4.64-9.58 12.27.56 22.06.2 44.13.21 66.2zm1070.27 43.75c-27 0-54 .46-81-.23-10.84-.27-11.33 4.59-9.3 12.64 6.09 24.2 27.5 39.84 59.62 42.53 33.14 2.78 65-4 96.32-14.16 14.38-4.66 14.35-4.77 14.36 10.74 0 14.32-.19 28.64.09 42.95.11 5.65-1.63 9.63-7 11.46-56.59 19.16-113.82 26.51-171.56 6-35.6-12.63-58-39-68.58-74.8-14.9-50.5-13.86-101.07 5.2-150.3 16.81-43.4 49.65-67.53 95.67-74.14 32.77-4.7 64.65-1.85 93.9 14.08 39.85 21.7 58.1 58.45 65.15 101.4 3.37 20.55 3.48 41.44 1.3 62.33-.79 7.57-3.65 9.64-10.69 9.57-27.84-.22-55.66-.07-83.48-.07zm-38.86-59.65c15.09 0 30.19-.42 45.25.17 7.86.3 9.64-2.5 9.31-9.88-1.4-31.59-22.05-50.34-55.28-50.66-35.88-.35-48.62 28-51.73 52.4-.89 7 2.39 8.19 8.41 8.07 14.67-.31 29.36-.1 44.04-.1zM564.26 111.63c40.81-.68 77.74 8.91 106.72 39.94 17 18.18 26.57 40 31.64 64 9.42 44.52 8.45 88.58-8.58 131.24-15.32 38.39-43.87 62.2-84.06 71.8-33.26 8-66.73 8.06-99.41-1.87-49.15-14.92-75.66-50.81-85.95-99.45-8.16-38.6-7.16-77.4 4.12-115.32 16.43-55.26 63.95-90 122-90.32 4.51-.04 9.01-.02 13.52-.02zm62 153.31c1-10.33-1.33-23.68-3.39-37-4.33-27.92-18.15-43-45.81-46.47-36.9-4.63-61.09 4.7-69.57 37.68-9 35-9 70.39 2.71 105 4.56 13.43 14.42 23.07 28.19 27a94.29 94.29 0 0042.41 2.16c21-3.62 33.42-15.72 39.25-35.5 4.79-16.18 6.29-32.81 6.24-52.87h-.03zm112.6 55.03c26.2 19.34 52.63 29.25 81.81 31.57 11.02.93 22.117.11 32.88-2.43 7.89-1.88 14.84-4.53 16-14.31 1.16-10.18-2.41-17.64-11.49-22.24-11.72-5.93-24.29-9.58-36.81-13.33-13.29-4-26.47-8.16-39.09-14.05-34.63-16.18-52.93-42.59-51.24-81.44 1.67-38.29 19.66-66.63 54.88-81.62 47-20 93.34-14.63 138.35 7.88 4.91 2.45 7.27 5.68 7.16 11.47-.32 16.77-.17 33.55-.09 50.32 0 5.8-.85 8.62-7.7 5.18-24.41-12.26-50.6-15.32-77.54-13.84-6.11.34-12.13.8-18 3-7.16 2.65-14.7 5.34-15 14.06-.33 9 6.64 14 14.14 16.6 19.26 6.75 39 12.25 58.15 19.19 24.09 8.73 45.52 22.1 56.28 46.32 24.28 54.63 10.41 116.59-61.18 135.9-46.06 12.42-90.75 5.89-133.1-16.1-3.9-2-8.37-3.53-8.34-9.37-.01-23.21-.07-46.41-.07-72.76zm662.87.98c9.33-28.08 18.33-55 27.25-82 12-36.42 24.22-72.8 35.89-109.34 2.85-8.93 6.63-13.19 17.07-12.7 21.64 1 43.37.63 65 .16 8.79-.19 10.42 1.38 7 10.19-29 75-57.48 150.21-86.16 225.34-7.14 18.68-15 37.12-21.38 56-2.67 7.88-6.7 9.87-14.27 9.73-20.45-.38-40.94-.7-61.36.13-9.44.38-13.69-3-16.87-11.47-23.46-62.29-47.29-124.44-71-186.62-11.79-30.9-23.34-61.9-35.61-92.62-3.45-8.62-1.55-10.81 7.21-10.68 21.68.33 43.38.57 65.05-.11 9.07-.28 12.76 3 15.51 11.39 20 61.36 40.62 122.55 61 183.8.93 2.72 1.4 5.59 5.67 8.8zM385.84 239.43c0 30.26-.36 60.53.21 90.79.18 9.29-3 13.76-11.58 17.07-21.333 8.2-42.41 17.04-63.23 26.52-9.22 4.21-10.21 1.06-10.19-7.12.18-62.167.157-124.33-.07-186.49 0-7.85 2.72-11.6 9.84-14.44 22-8.77 43.86-17.87 65.45-27.58 8.59-3.86 9.68-.72 9.64 6.78-.17 31.47-.07 63-.07 94.47zM301.15 89.1c0-13.47.25-26.95-.1-40.42-.18-6.75 1.94-9.45 9.06-9.34 22.45.35 44.92.3 67.37 0 6.44-.08 8.59 2.26 8.47 8.59-.3 15.92-.23 31.85 0 47.77.08 5.29-2 8.26-6.77 10.24-23.35 9.66-46.72 19.25-69.85 29.41-7.35 3.23-8.38.66-8.27-5.85.24-13.44.08-26.92.09-40.4zm84.68 324.95c0 11-.11 22.09.05 33.13.07 5.68-.75 8.51-7.59 5.65-23.37-9.76-46.95-19-70.43-28.49-3.94-1.59-7.08-3.58-6.87-8.83.2-5 2.82-7.37 6.87-9.05 23.38-9.71 46.87-19.14 70.06-29.28 8-3.51 8.1.28 8 6.2-.16 10.22 0 20.45 0 30.67h-.09z"></path></svg>