<svg xmlns="http://www.w3.org/2000/svg" viewBox="0.132971853017807 0.9000000357627869 1313.745361328125 388.1000061035156"><g fill="none"><path fill="#4EABE9" d="M49.5 2.2C48.3 6 44.1 36.5 44.7 37c.5.4 4.4 1.5 8.8 2.4 27.2 6.1 60 17.9 86.5 31 37.1 18.4 65 38 98.3 68.9 7 6.5 11.1 9.6 11.9 9.1.7-.4 19.3-12.5 41.3-26.9 22-14.4 41-26.7 42.2-27.3 2.8-1.6 8.6-1.5 10.1 0 1.9 1.9 1.4 7.3-1 10.4-1.3 1.6-17.5 18.6-36 37.7l-33.6 34.9 6.3 8.4c36.2 47.3 61.2 103.2 73 162.7 2.1 10.9 5.5 34.4 5.5 38.4 0 1 4.3 1.3 19.3 1.3h19.3l10.8-69.3c6-38 13.5-85.9 16.7-106.2 3.2-20.4 9.2-58.8 13.3-85.5C450 47.1 452 34.2 454.5 18.3 455.9 10 457 2.6 457 2.1 457 .4 50.1.6 49.5 2.2z"></path><path fill="#1B3879" d="M520.5 3.2c-.3 1.3-12 75.1-26 164.1-27.2 172.7-27.4 174.1-24 187.2 3.4 12.7 11.7 23.5 22 28.5 10.8 5.2 11.6 5.3 65.5 5.8 56.4.4 68.6-.2 86.9-4.8 35.7-9.1 66.2-35.2 79.7-68.4 10.6-26.1 13.2-58.9 6.3-81.4-2.6-8.2-7.9-19.1-12.5-25.3-5-6.8-15.3-16.1-22.8-20.6l-6.5-3.9 3.7-2c17.3-9.2 36.8-30.4 45.8-49.9 10.6-22.9 13-52.2 6.3-74.2-7.4-24.2-25.3-43.1-48.1-50.9-16.3-5.5-19-5.7-100.5-6.1L521.1.9l-.6 2.3zM663 61.4c11.6 3.8 16.5 13.1 16.4 30.6-.2 26.3-13.2 48.4-34.5 58.8-14.6 7.2-16.5 7.5-52.2 8l-31.9.4.6-2.9c.3-1.5 3.7-22.8 7.6-47.3 3.9-24.5 7.3-45.8 7.6-47.3l.6-2.9 40.2.4c34.8.4 40.8.7 45.6 2.2zm-42.3 159.7c19.2 2.1 31.6 7.9 38.5 18 4.9 7 6.8 14.9 6.8 27.4 0 12.4-2 21.8-6.3 31-4.7 9.8-10.4 16.5-18.7 22-15 10-24.8 11.5-73.5 11.5H534l.5-2.3c.7-3.1 16.5-106.1 16.5-107.5 0-1.6 56-1.7 69.7-.1zM805.6 2.2c-.3.7-11.1 69.7-24.1 153.3-13 83.6-25.2 161.6-27.1 173.3-4.3 27-4.4 35-.6 42.3 3.4 6.6 9.1 11 17.4 13.8 7 2.3 20.6 4.1 31.4 4.1h7.2l1-5.8c.5-3.1 6.1-38.7 12.3-79l11.4-73.2H852l17.5.1L908 310l38.5 79h36.7c21.5 0 36.8-.4 36.8-.9s-18.7-38-41.5-83.3l-41.4-82.4 7.2-1.8c17.6-4.5 35.9-15 50.5-29 18.3-17.6 30.5-38.7 37-64.3 2.5-10 2.7-12.2 2.6-30.8 0-18.3-.3-20.8-2.6-29.6-8.2-30.4-28.2-50.2-60.3-59.8-17.7-5.3-19.1-5.4-94.8-5.8-58-.4-70.8-.2-71.1.9zM942 61.4c12.6 3.1 20 7.9 24.1 15.8 2.5 5 4.1 16.7 3.3 25.3-3.1 35-21.4 58.1-53.4 67.6-6.9 2.1-10 2.3-39.7 2.7-21.9.2-32.3 0-32.3-.7 0-1.3 16.9-107.9 17.6-110.9l.5-2.4 36.2.4c30.5.4 37.4.7 43.7 2.2zm143.6-57.7c-.3 1.6-11.9 74.3-25.8 161.8-23.9 151.1-25.2 159.7-25.2 172.5 0 11.4.4 14.5 2.3 19.9 5.4 15.6 14.9 24.3 31.4 28.9 5.5 1.5 12.3 1.7 63.2 1.7 51.5 0 58-.2 67-1.9 52.2-9.8 87.8-44 98.7-94.9 3.1-14.9 3.2-40.6.1-52.9-5.4-21.1-17.6-38.5-35.1-49.6-3.5-2.2-6.4-4.3-6.5-4.5-.1-.3 3.3-2.8 7.6-5.6 15.7-10.3 30.7-27.1 39.1-43.8 14.1-28.1 15.3-63.3 3.1-88.8-10-20.9-28.9-36.1-51.5-41.4-14.3-3.4-31.6-4.1-101.1-4.1h-66.7l-.6 2.7zM1219.1 60c13.8 1.6 18.5 4.5 23.1 14.5 2 4.4 2.3 6.5 2.2 17-.1 20.6-5.5 34.5-18.4 47.6-8.1 8.2-15.7 12.8-28.5 17-6.6 2.1-8.9 2.3-39.1 2.7l-32.1.4.8-5.4c2.6-15.7 14.9-93.5 14.9-94.1 0-1.1 67.4-.8 77.1.3zM1196 222.4c14.4 3.3 24.5 9.5 29.6 18.2 4 6.8 5.4 13.8 5.5 25.9 0 26.6-11 46.7-31.1 56.8-12.9 6.4-16.7 6.9-61.1 7.4l-39.5.5 8.3-54.4c4.6-29.8 8.6-54.9 8.9-55.7.7-2.1 69.1-1 79.4 1.3zM36.5 83.2c-.3 1.3-8.4 52.7-18.1 114.3C2.7 297.2.7 311.2.3 325c-.4 12.1-.1 17 1.1 22.4 5.7 24.3 24.5 37.4 58.1 40.6 5.7.5 63 1 132.4 1h122.4l-.7-6.2c-5-47-22.9-99.2-48.2-140.6-6.7-11-21.1-31.9-22.5-32.8-.5-.3-26.4 14.7-57.5 33.2-56.7 33.6-58.8 34.7-60.1 30.7-.2-.6 19.2-23.1 43.2-50l43.6-48.8-7.8-7.3c-41.9-39.3-96.4-69.1-151.8-83.1-14.4-3.7-15.3-3.7-16-.9z"></path></g></svg>