<svg xmlns="http://www.w3.org/2000/svg" xmlns:xlink="http://www.w3.org/1999/xlink" viewBox="190.00100708007812 16.773000717163086 218.22799682617188 218.22801208496094"><defs><path id="fn10122b5f8dma" d="M0 .773h218.228V219H0z"></path></defs><g fill="none" fill-rule="evenodd"><g transform="translate(190 16)"><mask id="fn10122b5f8dmb" fill="#fff"><use xlink:href="#fn10122b5f8dma"></use></mask><path fill="#60BDAE" d="M218.229 109.885c0 60.262-48.851 109.116-109.116 109.116C48.852 219 .001 170.147.001 109.885 0 49.624 48.85.773 109.113.773c60.265 0 109.116 48.85 109.116 109.112" mask="url(#fn10122b5f8dmb)"></path></g><path fill="#353433" d="M345.694 96.87c-1.85 6.278-3.533 11.926-5.173 17.588-2.53 8.716-5.008 17.444-7.548 26.161-.958 3.297-3.783 2.143-5.997 2.29-1.978.126-3.715.084-4.374-2.557-2.808-11.2-5.82-22.35-8.75-33.519-2.53-9.643-4.985-19.305-7.626-28.92-.605-2.205-.028-2.706 2.118-2.802 7.721-.332 7.807-.414 9.728 7.368 3.04 12.298 5.954 24.627 8.881 36.954.19.794.208 1.68 1.188 1.742.924.06.853-.909 1.026-1.486 1.896-6.338 3.794-12.673 5.61-19.033 2.189-7.65 4.369-15.3 6.395-22.991.568-2.16 1.921-2.723 3.751-2.475 2.09.284 4.83-1.323 5.84 2.306 3.923 14.035 8.021 28.022 12.043 42.03.213.729.008 1.86 1 1.911 1.339.068.983-1.255 1.174-2.033 3.41-13.826 6.832-27.648 10.149-41.497.488-2.038 1.52-2.706 3.535-2.79 8.464-.344 8.233-.45 6.05 7.503-4.026 14.703-7.77 29.478-11.623 44.226-1.165 4.448-2.308 8.9-3.45 13.35-.472 1.842-1.424 3.087-3.57 2.72-2.427-.416-5.693 1.442-6.84-2.502-1.913-6.563-3.894-13.106-5.81-19.67-2.103-7.21-4.146-14.434-6.26-21.642-.174-.586-.694-1.073-1.467-2.233m-133.617 12.016c-.003-9.905.128-19.81-.074-29.71-.07-3.337 1.09-4.218 4.288-4.134 7.593.2 15.218-.307 22.783.172 9.183.586 16.998 3.788 19.509 14.786 1.51 6.624-.769 11.98-5.738 16.222-1.745 1.49-2.21 2.103-.096 3.554 7.593 5.227 8.396 12.83 6.157 20.71-2.023 7.132-7.621 10.88-14.99 11.838-9.825 1.281-19.7.301-29.546.56-2.424.062-2.285-1.681-2.288-3.275-.008-10.243-.005-20.483-.005-30.723"></path><path fill="#FEFEFE" d="M285.329 141.96c-5.107 0-10.214-.059-15.32.023-2.804.04-3.974-1.157-4.007-4.037-.037-3.26.55-5.963 2.797-8.623 7.575-8.96 14.87-18.16 22.198-27.333 3.417-4.279 6.47-8.735 4.037-14.723-1.867-4.586-5.16-6.663-10.228-6.348-4.748.295-7.407 2.488-8.785 7.238-.892 3.077-3.868 4.296-7.872 3.125-2.906-.85-1.88-3.1-1.583-5.014 1.628-10.478 14.261-15.788 22.936-13.888 12.978 2.841 16.901 12.111 15.076 23.91-.678 4.374-3.824 7.556-6.438 10.875-5.88 7.466-11.906 14.808-17.854 22.214-.681.848-1.829 1.698-1.32 2.897.522 1.225 1.917.918 2.99.926 6.215.034 12.433.11 18.648 0 3.115-.056 4.36 1.18 4.368 4.38.009 3.19-1.178 4.49-4.323 4.415-5.104-.124-10.214-.034-15.32-.037"></path><path fill="#353433" d="M289.881 172.807c-.842-.146-1.275-.283-1.71-.286-1.416-.002-2.035-.675-1.97-2.152.06-1.351.842-1.945 1.964-1.86 2.239.174 5.38-1.399 6.465 1.257 1.139 2.79-.515 5.709-2.728 7.71-4.376 3.955-10.388 3.16-13.868-1.664-3.499-4.84-2.354-11.868 2.437-14.97 3.926-2.542 7.559-2.47 10.948.318 1.031.848 2.41 1.893 1.405 3.428-1.06 1.613-2.485 1.08-3.734-.058-2.307-2.103-4.614-1.622-6.637.329-1.897 1.829-2.923 4.036-1.69 6.824 1.2 2.72 3.015 4.164 6.057 3.876 1.614-.151 2.374-1.037 3.061-2.752m27.111-11.795c.08 1.292-.65 1.931-1.804 2.02-2.123.16-2.498 1.487-2.466 3.304.054 3.312 0 6.624-.009 9.933-.003 1.479-.162 2.748-2.14 2.73-2.085-.02-1.949-1.475-1.96-2.85-.023-3.198-.077-6.395.005-9.59.046-1.948-.295-3.372-2.602-3.53-1.268-.086-2.102-.759-2.009-2.22.097-1.568 1.195-1.782 2.387-1.794 2.826-.026 5.652-.014 8.479.003 1.29.009 2.221.456 2.12 1.994m22.044 7.916c0-2.507.016-5.015-.005-7.523-.013-1.456.369-2.436 1.925-2.404 1.516.031 1.954.966 1.951 2.433-.01 3.419.081 6.838-.002 10.257-.055 2.138.57 3.23 2.676 2.98 1.394-.169 2.431.17 2.418 2.144-.01 1.972-1.084 2.178-2.46 2.175-7.96-.017-6.333.657-6.516-6.646-.029-1.137-.003-2.278-.003-3.416h.016zm-41.03.189c0-2.628-.02-5.256.007-7.884.013-1.28.503-2.236 2.244-2.233 1.71.006 2.742.607 2.742 2.213-.007 5.256-.013 10.512-.013 15.771.003 1.478-.964 1.967-2.493 2.013-1.621.052-2.454-.578-2.46-1.995-.014-2.628-.004-5.257-.004-7.885h-.023zm-25.024-.128c0 2.623-.01 5.247.003 7.87.01 1.346-.528 2.138-2.328 2.141-1.882.003-2.671-.663-2.655-2.256a963.83 963.83 0 00-.003-15.398c-.01-1.55.712-2.316 2.597-2.345 2.105-.037 2.406 1.068 2.403 2.46-.01 2.508-.003 5.02-.003 7.528h-.014z"></path><path fill="#60BDAE" d="M224.012 122.514c0-2.706.028-5.413-.011-8.12-.026-1.712.73-2.436 2.442-2.388 5.584.163 11.19-.395 16.754.657 4.385.831 7.717 4.816 7.801 9.637.09 4.937-2.967 8.98-7.35 9.953-5.785 1.283-11.63.485-17.446.657-1.542.048-2.227-.722-2.201-2.275.042-2.707.01-5.414.01-8.12m.001-29.838c0-2.4-.014-4.802.003-7.202.008-1.175.03-2.44 1.668-2.357 5.845.299 11.756-.949 17.533 1.027 4.265 1.456 7.31 5.146 6.708 9.335-.668 4.648-2.208 8.008-7.334 8.945-5.495 1.004-11.115.399-16.683.347-1.409-.014-1.929-.82-1.906-2.207.042-2.63.01-5.259.01-7.888"></path><path fill="#353433" d="M255.838 175.097c-1.055.05-1.711-.262-1.711-1.452.003-3.14.003-6.282-.008-9.422-.003-1.508.847-1.877 2.156-1.804 2.751.158 5.433 3.123 5.5 6.148.072 3.216-2.826 6.378-5.937 6.53m4.127-15.514c-2.334-.94-4.797-.427-7.203-.562-1.937-.107-2.842.689-2.756 2.746.096 2.352.022 4.712.022 7.064h-.011v3.368c0 7.073.26 7.304 7.26 6.457 4.431-.537 8.005-4.2 8.647-8.862.565-4.086-2.073-8.643-5.96-10.21m66.764 11.757c-1.033-.017-2.35.06-2.034-1.515.237-1.182.609-2.43 2.13-3.263.557 1.108 1.256 2.107 1.566 3.211.33 1.185-.614 1.587-1.662 1.567m8.676 4.755c-2.066-5.06-4.184-10.104-6.291-15.153-.46-1.101-1.042-1.997-2.52-1.94-1.392.051-2.016.762-2.496 1.958-2.033 5.037-4.184 10.03-6.21 15.07-.336.844-1.895 2.06.141 2.722 1.37.443 3.006.414 3.468-1.313.743-2.794 2.736-3.04 5.141-2.737 2.397-.342 4.32.017 5.048 2.809.462 1.755 2.186 1.67 3.494 1.193 1.478-.537.58-1.738.225-2.609"></path></g></svg>