<?xml version="1.0" standalone="no"?>
<!DOCTYPE svg PUBLIC "-//W3C//DTD SVG 20010904//EN"
 "http://www.w3.org/TR/2001/REC-SVG-20010904/DTD/svg10.dtd">
<svg version="1.0" xmlns="http://www.w3.org/2000/svg"
 width="987.000000pt" height="294.000000pt" viewBox="0 0 987.000000 294.000000"
 preserveAspectRatio="xMidYMid meet">

<g transform="translate(0.000000,294.000000) scale(0.100000,-0.100000)"
fill="#000000" stroke="none">
<path d="M7729 2380 c-41 -12 -77 -39 -98 -74 -13 -21 -65 -260 -165 -766 -81
-404 -149 -743 -152 -752 -5 -15 1 -18 42 -18 68 0 129 32 158 83 13 23 30 78
39 122 107 534 277 1396 277 1404 0 12 -62 13 -101 1z"/>
<path d="M8210 2374 c-47 -20 -87 -60 -99 -98 -9 -29 -301 -1484 -301 -1501 0
-4 27 -5 59 -3 66 5 120 37 146 87 19 37 23 56 175 826 71 363 132 670 135
683 5 20 2 22 -37 22 -24 -1 -59 -8 -78 -16z"/>
<path d="M5105 2330 c-144 -23 -263 -80 -347 -167 -45 -47 -108 -138 -108
-156 0 -5 29 18 65 52 79 74 193 131 320 162 78 18 110 20 240 16 125 -4 169
-9 265 -35 63 -17 116 -30 117 -29 0 1 4 23 8 49 l7 46 -54 15 c-152 44 -391
66 -513 47z"/>
<path d="M720 2264 c-6 -14 -10 -30 -10 -36 0 -14 -278 -1416 -286 -1440 -5
-17 13 -18 275 -18 315 0 379 8 496 64 159 76 245 223 233 397 -10 130 -91
238 -224 301 l-65 31 57 23 c177 72 301 226 312 387 6 100 -9 148 -66 206 -86
89 -186 110 -510 111 l-202 0 -10 -26z m509 -154 c86 -48 105 -145 52 -255
-76 -155 -213 -235 -403 -235 -80 0 -89 2 -84 18 2 9 26 127 52 261 l47 243
146 -4 c133 -3 150 -6 190 -28z m-289 -635 c218 -46 318 -177 266 -349 -26
-87 -85 -143 -191 -181 -36 -13 -92 -19 -202 -22 -145 -5 -153 -4 -153 13 0
11 23 139 52 287 l52 267 52 0 c29 0 85 -7 124 -15z"/>
<path d="M4342 2276 c-50 -18 -98 -70 -111 -121 -17 -68 -20 -66 86 -63 l97 3
18 80 c25 114 25 115 -19 114 -21 0 -53 -6 -71 -13z"/>
<path d="M5035 2150 c-231 -59 -390 -208 -389 -365 0 -117 58 -190 279 -353
66 -48 133 -104 149 -123 60 -71 71 -136 34 -209 -19 -37 -34 -51 -83 -75 -54
-27 -69 -30 -155 -29 -100 1 -206 20 -320 59 -76 26 -74 27 -85 -47 l-7 -44
74 -18 c286 -69 542 -54 746 45 93 45 184 127 223 199 34 64 34 186 0 249 -35
67 -104 134 -246 242 -164 124 -178 136 -209 183 -68 102 2 205 153 223 65 7
190 -12 314 -48 55 -17 103 -26 108 -22 4 4 9 26 11 48 l3 40 -110 29 c-151
39 -369 46 -490 16z"/>
<path d="M3095 2096 c-40 -17 -82 -68 -95 -114 -14 -51 -178 -895 -186 -959
-10 -83 11 -149 65 -203 51 -51 104 -71 192 -74 l53 -1 12 65 c7 36 13 68 13
73 1 4 -8 7 -19 7 -63 0 -120 55 -120 116 0 23 123 661 136 707 5 14 18 17 88
17 l83 0 15 75 15 75 -83 0 c-46 0 -84 4 -84 8 0 4 9 48 20 98 28 127 29 124
-27 124 -27 -1 -62 -7 -78 -14z"/>
<path d="M3695 2096 c-17 -7 -44 -29 -61 -48 -28 -32 -34 -56 -124 -508 -121
-612 -122 -645 -20 -732 44 -38 86 -54 172 -64 54 -6 57 -6 62 17 14 58 26
114 26 120 0 4 -18 9 -39 13 -22 3 -52 16 -66 29 -46 39 -44 78 30 442 36 182
68 338 71 347 4 14 20 18 87 20 l82 3 16 70 16 70 -84 3 c-45 1 -83 6 -83 11
0 4 9 50 20 102 11 52 20 100 20 107 0 16 -86 15 -125 -2z"/>
<path d="M6025 2096 c-40 -17 -82 -68 -95 -114 -18 -66 -179 -895 -186 -958
-17 -158 72 -260 243 -280 70 -7 60 -17 83 86 13 60 13 60 -10 60 -40 0 -89
28 -106 61 -12 24 -15 46 -10 85 5 43 113 597 131 672 5 21 11 22 89 22 l83 0
15 75 15 75 -83 0 c-46 0 -84 4 -84 8 0 5 9 51 20 102 11 51 20 100 20 107 0
17 -84 17 -125 -1z"/>
<path d="M2285 1903 c-273 -40 -519 -284 -634 -629 -73 -218 -58 -390 40 -478
71 -65 167 -67 284 -8 126 63 302 242 387 393 19 33 38 51 38 34 0 -7 -90
-407 -96 -427 -5 -16 4 -18 94 -18 95 0 100 1 105 23 3 12 51 254 107 537 56
283 103 523 106 533 5 15 -4 17 -93 17 -54 0 -112 4 -130 9 -40 11 -168 20
-208 14z m155 -161 c47 -23 62 -55 56 -119 -6 -74 -57 -165 -182 -323 -127
-161 -273 -308 -337 -339 -61 -30 -113 -26 -140 11 -38 52 -20 226 39 377 78
195 227 360 364 402 49 15 163 10 200 -9z"/>
<path d="M6844 1901 c-161 -26 -317 -126 -412 -264 -47 -67 -96 -171 -128
-267 -25 -77 -28 -99 -28 -235 -1 -144 0 -152 27 -206 52 -106 147 -168 282
-183 120 -14 355 38 497 110 40 20 48 29 54 61 3 21 12 63 19 94 l12 56 -111
-57 c-175 -89 -341 -123 -438 -91 -75 25 -138 125 -138 219 l0 40 79 11 c232
34 450 141 539 265 90 125 106 276 39 370 -43 60 -175 95 -293 77z m61 -155
c42 -18 75 -69 75 -115 0 -116 -138 -228 -344 -281 -91 -23 -136 -26 -136 -7
1 62 84 228 153 303 91 100 173 132 252 100z"/>
<path d="M8965 1904 c-63 -10 -143 -37 -210 -72 -82 -43 -219 -173 -285 -271
-149 -223 -220 -519 -161 -673 26 -67 82 -122 141 -138 56 -15 135 2 225 48
93 48 258 213 335 334 53 83 71 103 69 76 0 -7 -22 -107 -48 -223 l-48 -210
95 -3 c52 -1 97 -1 99 2 5 5 20 76 133 651 44 226 83 420 85 433 5 22 4 22
-92 22 -54 0 -113 4 -132 10 -41 12 -165 20 -206 14z m149 -158 c92 -38 89
-143 -9 -296 -113 -177 -359 -446 -446 -488 -60 -29 -103 -28 -134 3 -23 22
-25 32 -25 107 1 275 197 598 408 674 49 17 164 18 206 0z"/>
<path d="M4265 1873 c-33 -8 -85 -53 -102 -87 -8 -18 -59 -253 -112 -522 l-97
-489 49 -3 c65 -4 125 30 155 90 15 28 54 206 117 524 52 265 95 485 95 488 0
7 -75 6 -105 -1z"/>
<path d="M5504 1074 c-44 -67 -213 -167 -345 -204 -167 -46 -412 -46 -607 0
-46 11 -89 20 -96 20 -8 0 -17 -21 -23 -50 -12 -57 -19 -52 97 -69 323 -48
567 -28 750 62 84 42 178 130 219 207 33 61 35 81 5 34z"/>
</g>
</svg>
