<svg xmlns="http://www.w3.org/2000/svg" viewBox="0.06531906127929688 0.20760250091552734 1088.7742919921875 114.64195251464844"><g fill="none"><path fill="#040404" d="M307.37 67c4.87-19.06 9.92-38.08 14.49-57.22 1.27-5.32 3.19-7.64 9.11-7.34 10.75.55 21.55.34 32.32.06 4.25-.1 5.46 1.31 5.44 5.46-.12 33.2-.103 66.407.05 99.62 0 4.38-1.61 5.18-5.57 5.37-22.24 1.07-22.23 1.17-22.23-20.78V32.05c-4 6.9-4.57 13.29-6.17 19.24-5 18.51-9.8 37.07-14.15 55.73-1.12 4.8-3.13 5.86-7.64 5.94-19.28.32-19.23.44-24-18.53-4.77-18.97-9.7-38-14.79-58-3.08 2.35-2.23 4.73-2.23 6.69 0 21-.13 41.94.14 62.91.07 5.13-1 6.93-6.67 7-21.26.09-21.26.34-21.26-21.13 0-27.38.15-54.76-.09-82.14-.05-5.56 1.21-7.62 7.19-7.31 10.46.55 21 .5 31.45 0 5.23-.24 6.9 1.72 8.06 6.47 4.73 19.36 9.89 38.62 14.9 57.92l1.65.16zM469.8 54.42c12.92 4.38 21.29 11 22.2 24.31.82 12.09-3.37 21.58-13.42 28.36-6.28 4.22-13.7 5.15-20.83 5.34-20.94.56-41.9.26-62.85.55-4.08.06-4.73-1.51-4.72-5.09.107-33.46.107-66.923 0-100.39 0-3.69.9-5 4.84-5 20.37.25 40.76-.39 61.1.43 21 .85 31.72 12 30.64 29.89-.58 10.52-6.78 16.88-16.96 21.6zm-32.54 12.5v.21c-2.33 0-4.68.18-7-.05-4.25-.42-6.6.59-6.06 5.6.44 4 .07 8.15.1 12.23 0 2.35-.11 4.93 3.41 4.73 7.52-.44 15.14 1.14 22.56-1.27 5.44-1.76 8.2-5.5 7.87-11.09-.32-5.31-3.72-8.57-8.71-9.54-3.96-.81-8.1-.62-12.17-.86v.04zM435.9 46.3c3.25-.25 6.83-.06 10.15-.89 6.53-1.64 8.55-6.39 7.39-12.71-.8-4.37-4.15-6.63-7.94-7-6.8-.7-13.73-1.89-20.51.37a.9.9 0 00-.45.72c.06 6.06-1 12.46.69 18 .95 3.1 6.84.63 10.67 1.47v.04zm104.72-6.32c0 10.2-.19 20.39 0 30.58.27 11.75 7.16 18.71 18.22 18.91 11.64.21 19-6.62 19.22-18.88.35-20.38.3-40.77.07-61.15-.06-5.09.87-7.39 6.62-7 7.56.415 15.137.435 22.7.06 3.82-.12 5 1.15 5 5-.2 21.25.59 42.55-.41 63.76-1.27 26.89-17.26 42-44 43.3a115.17 115.17 0 01-26.09-1.25c-19.55-3.5-31.91-15.17-34.38-35.06-3-23.74-.64-47.7-1.24-71.56-.09-3.77 1.94-4.16 5-4.12 8.15.11 16.31.21 24.46 0 4-.12 4.89 1.51 4.83 5.14-.18 10.77-.06 21.55-.06 32.32l.06-.05z"></path><path fill="gray" d="M914.33 114.77c-7.27-.21-14.53-.31-21.67-2.14a37.51 37.51 0 01-28-30.3c-.75-4.51.42-6.4 5.22-6.42a161.75 161.75 0 0020-1.17c4.74-.62 6.44.8 7.88 5.39a18.78 18.78 0 0025.94 11.6c3.86-1.82 6.79-4.52 7.13-9.15.34-4.63-2.37-7.71-6.07-9.81-5.38-3.06-11.52-4-17.42-5.49-9.33-2.39-18.58-5.06-26.57-10.66-17.65-12.37-17.39-37.64 1.36-48.15C901.88-2.6 922.9-1.85 943.6 6.59c4.56 1.87 8.12 5.48 11 9.75 3 4.49 6.18 9.88 5.15 14.48-1.49 6.66-8.63 1.92-13.07 3.4-3 1-6.34.69-9.52 1.08-5.22.65-8.92.2-11.25-6.09-2.8-7.57-13.71-10.11-21.08-6.3-3.16 1.64-5.15 4.19-4.82 7.62.33 3.43 3.33 5.5 6.48 6.38 7.28 2 14.69 3.59 22 5.58a122.91 122.91 0 0113.24 4.39c13.57 5.42 22.34 14.57 22.44 30.05.1 14.79-8.49 27.56-22.41 33.5-8.78 3.74-18.04 4.45-27.43 4.34z"></path><path fill="#040404" d="M113.54 112.85c13.53-36 26.59-70.38 39.32-104.92 1.65-4.49 4-5.57 8.29-5.41 10.16.38 22.8-3.26 29.81 1.52 7.01 4.78 8.32 17.72 11.9 27.18 10.13 26.8 20.14 53.63 30.64 81.63-11.26 0-21.59-.1-31.92 0-5.21.06-5.2-4-5.64-7.17-1.24-8.7-5.45-12.61-14.56-10.93-3.65.67-7.54.11-11.33.11-15.51 0-15.73-.07-20.61 14-1.1 3.2-2.34 4-5.34 4-9.87-.09-19.74-.01-30.56-.01zm47.64-42.3h24l-12-39.43-12 39.43z"></path><path fill="gray" d="M1030.18 2.42c18.52-.05 18.49 0 25.15 17.69 10.74 28.61 21.42 57.24 32.41 85.76 2.22 5.76 1.33 7.54-5 7.05a100.23 100.23 0 00-19.21.06c-7.27.83-11-1.77-11.78-8.9-.82-7.42-4.71-10.1-12.24-9.31a114.75 114.75 0 01-21 0c-6.37-.52-10 1.5-10.6 8-.76 8.36-5.25 11.43-13.45 10.11-3.41-.55-7-.1-10.48-.1-14.15 0-14.1 0-9.23-12.85 10.94-28.84 22.26-57.54 32.45-86.65 3-8.68 6.85-12.66 16-11 2.21.5 4.61.14 6.98.14zm-.41 29.06c-2.77 8.85-5 15.71-7 22.59-5.49 18-5.48 17.91 13.44 16.79 4.47-.27 5.44-1.37 4-5.69-3.55-10.4-6.59-20.96-10.48-33.68l.04-.01z"></path><path fill="#040404" d="M106.18 35c-5.47 1.34-10.83 2.59-16.14 4-7.38 1.95-13 3.11-18.62-5.64-7.77-12-27.06-9-33.14 4.47-6.08 13.47-5.56 27.86.07 41.54 3.26 7.92 10.7 10.42 18.71 10.14 9-.31 15.94-4.92 18.2-13.65 2-7.62 5.53-7.77 11.57-5.28a60.32 60.32 0 0013.35 3.92c7.74 1.21 7.41 5.23 5 11-7.42 17.8-20.39 27.75-39.82 29-7.58.48-15.19.64-22.65-.68C14.36 108.82-2.17 85 .31 52.3c1.59-21 9-39 30.45-46.67 21.45-7.67 42.85-8.2 61.88 7.13 6.95 5.6 11.2 13.21 13.54 22.24zm579.52 79.71c-20.4.59-39-6-48.6-27.38-10-22.24-10.24-45.19 3.56-65.84 13-19.43 33.68-21.95 55.24-20 18.82 1.74 31.87 11.18 39.21 28.75 1.72 4.11 1.26 5.44-3.19 6a75.7 75.7 0 00-12.74 2.94c-7 2.15-11.8 2.3-17-5.5-8.6-13-29.82-8.65-35 6.7-4.08 12.11-3.64 24.81.27 37 2.72 8.43 9.92 12.07 18.42 12.19 8.87.12 16.42-3.55 19-12.45 2.41-8.42 6.46-9.52 13.56-6 2.56 1.28 5.5 1.8 8.28 2.62 12.5 3.7 12.51 3.71 7.05 15.33-9.26 19.7-25.9 26.24-48.06 25.64zm70.2-56.38c0-16.62.14-33.24-.08-49.86-.06-4.42 1-6.23 5.77-6 7.56.39 15.16.34 22.73 0 4.45-.19 6.07 1 6 5.76-.18 32.94-.18 65.883 0 98.83 0 4.66-1.36 6-5.9 5.84a207.64 207.64 0 00-22.73 0c-5.44.36-6-2-6-6.55.36-15.93.21-31.99.21-48.02z"></path></g></svg>