<svg xmlns="http://www.w3.org/2000/svg" viewBox="156 55 289 142"><g fill="none" fill-rule="evenodd"><path fill="#7C7B7B" d="M324.763 93.664c-2.96-1.163-8.821-3.664-20.247-3.664C288.886 90 270 100.993 270 128.68c0 23.906 14.742 39.32 35.759 39.32 9.768 0 16.162-1.745 19.241-2.676l-.651-15.762c-1.776.756-6.927 4.013-15.748 4.013-11.427 0-20.13-9.946-20.13-24.662 0-15.24 7.697-24.837 19.774-24.837 8.23 0 12.848 2.792 15.63 4.304l.888-14.716zm54.188-1.049C372.343 91.221 367.877 90 360.792 90 334.893 90 334 109.238 334 111.505c0 26.91 30.424 19.762 30.424 34.35 0 6.161-5.537 8.951-11.253 8.951-6.728 0-11.49-2.615-16.909-4.65l-1.012 14.705c3.334.988 11.372 3.139 20.78 3.139 15.36 0 26.97-8.66 26.97-22.9 0-26.794-30.424-20.401-30.424-34.118 0-5.638 4.406-8.195 10.3-8.195 4.882 0 10.955 1.744 15.242 3.894l.833-14.066zM389 139.883C389 158.88 399.824 169 417 169c17.176 0 28-10.12 28-29.117V91h-17.941v51.783c0 7.693-2.824 12.428-10.059 12.428-7.235 0-10.059-4.735-10.059-12.428V91H389v48.883z"></path><path fill="#15607E" d="M202.808 165.51c-20.875-.65-37.679-18.112-37.679-39.54 0-15.33 8.548-28.648 21.107-35.16-1.279 10.537-.29 21.132 2.966 31.668l6.803 22.138h9.187l-6.803-22.138c-5-16.337-4.652-30.247 0-45.34L205.192 55h-9.187l-6.861 22.138c-.291.828-.407 1.716-.64 2.545C169.606 86.253 156 104.484 156 125.97c0 25.808 19.654 46.94 44.54 48.715 0 0 1.687-6.097 2.268-9.175zm2.326-79.02c20.874.65 37.679 18.053 37.679 39.48 0 15.331-8.548 28.649-21.107 35.22 1.279-10.537.29-21.132-2.908-31.668l-6.803-22.138h-9.187l6.803 22.138c5 16.337 4.652 30.247 0 45.34L202.808 197h9.187l6.803-22.138c.291-.887.582-1.775.814-2.604 18.84-6.57 32.388-24.801 32.388-46.228 0-25.808-19.654-46.94-44.54-48.715-.058-.06-1.745 6.097-2.326 9.175z"></path></g></svg>