<svg xmlns="http://www.w3.org/2000/svg" viewBox="-7.152557373046875e-7 9.5367431640625e-7 177.49598693847656 73.99968719482422"><g fill="none"><path fill="#FE3859" d="M13.5712921 20.2468022C11.6737921 24.5668022 10.8009921 29.1708022 10.1368921 33.7938022 8.81209212 42.6518022 8.17769212 51.5988022 8.23949212 60.5538022 8.22679212 64.2288022 6.85439212 65.7848022 3.85009212 65.7848022 1.20629212 65.7468022-.172507877 64.1088022.0172921231 60.3958022.649792123 48.4868022 2.76219212 36.7858022 5.39329212 25.1738022 6.60309212 19.4018022 8.47279212 13.7888022 10.9654921 8.44480223 11.9394921 6.43280223 13.1221921 4.55480223 15.2030921 3.49180223 18.5424921 1.79080223 21.1736921 3.36580223 21.0660921 7.11580223 20.9775921 10.2788022 19.8011921 13.2638022 20.0857921 16.4958022 20.7864921 23.9008022 21.9525921 31.2538022 23.5769921 38.5128022 25.1079921 37.4178022 25.2529921 35.7488022 25.8919921 34.4018022 28.6429921 28.6018022 31.1099921 22.6248022 35.9479921 18.1278022 38.2059921 16.0278022 40.6219921 14.1368022 43.8729921 13.9348022 46.6999921 13.7638022 47.4209921 14.7058022 46.4029921 17.2678022 42.5069921 27.3868022 42.1339921 37.8738022 43.4939921 48.3728022 44.8279921 58.6438022 50.1599921 65.9748022 61.0319921 68.0678022 61.5829921 68.1758022 62.3349921 68.0998022 62.6579921 69.1368022 60.6969921 70.7558022 58.3379921 70.8318022 55.9849921 70.4908022 45.4669921 68.9468022 38.7309921 62.1738022 36.6879921 51.2378022 35.0689921 42.6808022 36.5809921 34.2618022 37.8329921 25.5338022 35.7779921 27.1028022 34.8919921 29.2028022 33.8989921 31.1568022 30.5529921 37.7538022 27.9289921 44.6098022 27.0619921 52.0288022 26.9609921 52.6528022 26.8169921 53.2698022 26.6319921 53.8758022 26.1889921 55.5828022 25.0949921 56.7028022 23.3489921 56.8228022 21.6036921 56.9428022 20.7498921 55.5578022 20.1869921 54.1658022 18.2493921 48.8238022 16.7848921 43.3208022 15.8101921 37.7218022 14.7107921 31.9478022 13.9630921 26.1118022 13.5712921 20.2468022L13.5712921 20.2468022zM162.227992 34.3378022C156.099992 33.7368022 150.963992 33.9018022 145.897992 35.0398022 143.822992 35.5078022 142.235992 35.1858022 141.729992 32.9908022 141.191992 30.6378022 142.640992 29.8668022 144.758992 29.6578022 147.997992 29.3418022 151.216992 28.7218022 154.461992 28.5318022 156.137992 28.4308022 156.630992 27.7668022 156.775992 26.2928022 156.869992 25.3588022 157.111992 24.4448022 157.490992 23.5858022 157.718992 23.0418022 158.147992 22.6058022 158.688992 22.3708022 159.229992 22.1348022 159.840992 22.1168022 160.393992 22.3208022 161.715992 22.6748022 161.475992 23.8958022 161.165992 24.6798022 159.716992 28.3868022 161.892992 28.8798022 164.726992 28.9748022 165.777992 29.0288022 166.822992 29.1708022 167.850992 29.3988022 171.278992 30.0878022 172.240992 33.0608022 169.918992 35.7678022 168.868992 36.9948022 167.388992 37.6648022 166.054992 38.4488022 160.444992 41.7508022 155.245992 45.5458022 150.931992 51.0358022 160.855992 50.4028022 170.500992 49.2388022 177.495992 59.0168022 174.498992 59.0168022 172.587992 57.5748022 170.424992 57.0818022 169.501992 56.8728022 168.609992 56.5128022 167.679992 56.3738022 166.022992 56.1268022 164.150992 55.4438022 162.733992 55.9558022 161.038992 56.5888022 162.183992 58.7458022 161.785992 60.1938022 161.272992 62.0338022 160.330992 63.3558022 158.306992 63.1348022 155.884992 62.8878022 156.927992 60.9088022 156.934992 59.6498022 156.934992 55.8548022 157.022992 55.8038022 153.272992 56.3358022 150.672992 56.7028022 148.104992 57.2838022 145.536992 57.8348022 144.404992 58.0748022 143.291992 58.5998022 142.374992 57.3978022 141.983992 56.8968022 141.738992 56.2968022 141.667992 55.6658022 141.595992 55.0338022 141.700992 54.3938022 141.969992 53.8178022 143.210992 50.9078022 144.989992 48.2578022 147.212992 46.0068022 151.406992 41.5358022 156.434992 38.1198022 162.227992 34.3378022zM132.192992 56.9298022C130.968992 57.9548022 129.688992 58.9108022 128.359992 59.7958022 122.920992 62.9578022 116.342992 61.1358022 113.813992 55.2418022 110.549992 47.7788022 111.068992 40.0618022 113.907992 32.5418022 114.297992 31.6788022 114.848992 30.8998022 115.533992 30.2458022 116.583992 29.1328022 118.018992 28.2288022 119.461992 28.8288022 121.137992 29.5248022 120.270992 31.2898022 120.093992 32.4788022 119.178992 37.2308022 118.786992 42.0678022 118.923992 46.9058022 119.157992 51.6808022 120.896992 54.4318022 123.850992 54.6218022 126.936992 54.8238022 129.542992 52.1808022 130.175992 47.5698022 130.851992 42.5728022 131.218992 37.5318022 131.572992 32.5038022 131.724992 30.3348022 132.205992 28.8548022 134.798992 28.8988022 137.328992 28.9368022 137.530992 30.3218022 137.632992 32.3778022 138.043992 40.7768022 137.353992 49.2078022 138.511992 57.5878022 138.802992 59.6938022 135.715992 61.9648022 133.773992 61.3828022 132.616992 61.0478022 132.958992 60.0738022 132.774992 59.3208022 132.591992 58.5688022 132.363992 57.8858022 132.192992 56.9298022zM98.9299921 47.4428022C99.1449921 43.1168022 99.1829921 38.8098022 99.9039921 34.5338022 100.295992 32.2248022 100.813992 29.9678022 103.868992 30.3528022 106.923992 30.7388022 106.892992 32.8008022 106.455992 35.2928022 105.159992 42.6418022 105.905992 49.9848022 107.151992 57.2648022 107.530992 59.4978022 107.410992 60.9718022 104.830992 61.4018022 101.667992 61.9388022 100.010992 61.1988022 99.6889921 58.4538022 99.2519921 54.8108022 99.1639921 51.1238022 98.9299921 47.4428022z"></path><path fill="#FE3A5A" d="M70.7979921,19.6138022 C70.8239921,20.0918022 70.7099921,20.5668022 70.4709921,20.9808022 C70.2319921,21.3958022 69.8769921,21.7308022 69.4499921,21.9478022 C66.2119921,23.8448022 62.9419921,25.7428022 59.6339921,27.5008022 C58.7169921,27.9938022 57.6099921,28.1328022 56.8449921,27.0198022 C56.1749921,26.0268022 56.6489921,25.1858022 57.2819921,24.4898022 C59.8679921,21.5558022 62.8159921,19.0638022 66.4709921,17.5708022 C68.4889921,16.7488022 70.6899921,17.8678022 70.7979921,19.6138022 Z"></path><path fill="#FE395A" d="M106.742992,20.1768022 C108.639992,20.1388022 110.087992,20.6638022 110.106992,22.9028022 C110.106992,24.9208022 107.842992,26.8498022 105.224992,26.8498022 C103.143992,26.8498022 101.517992,25.9008022 101.220992,23.6868022 C100.986992,21.8658022 103.731992,20.2018022 106.742992,20.1768022 Z"></path><path fill="#FE3859" d="M129.426992,65.3168022 C129.021992,64.7728022 128.224992,64.9938022 127.636992,65.1838022 C125.536992,65.8608022 123.487992,66.7088022 121.368992,67.2898022 C105.120992,71.7808022 92.8759921,65.8668022 87.2589921,50.8898022 C86.7279921,49.4798022 86.3609921,48.2398022 87.3989921,46.7658022 C92.4139921,39.6508022 94.8049921,31.4538022 96.4869921,23.0798022 C97.7519921,16.8438022 97.8849921,10.4878022 95.5389921,4.39080223 C93.6409921,-0.511197766 89.9729921,-1.36519777 86.2279921,2.11380223 C83.6989921,4.45980223 82.1169921,7.44480223 80.9219921,10.6138022 C76.8989921,21.2968022 76.7669921,32.3018022 79.1829921,43.2558022 C80.0809921,47.3418022 78.7149921,49.6318022 75.9129921,51.8518022 C73.9599921,53.4648022 71.7139921,54.6848022 69.2969921,55.4438022 C64.5719921,56.8418022 60.8149921,55.4438022 58.6709921,51.6488022 C57.4759921,49.5558022 57.2549921,48.3028022 60.3539921,48.2148022 C64.0789921,48.1068022 67.6909921,47.3168022 70.6509921,44.8058022 C73.2369921,42.6108022 74.6729921,39.8468022 73.8449921,36.4248022 C73.5219921,34.8138022 72.7459921,33.3278022 71.6079921,32.1418022 C70.4689921,30.9568022 69.0159921,30.1208022 67.4189921,29.7338022 C63.0349921,28.5258022 59.0449921,29.4488022 55.4519921,32.0298022 C48.4949921,37.0328022 47.2869921,47.8418022 52.6879921,55.9178022 C57.4059921,62.9768022 66.4759921,64.5768022 74.1919921,59.7128022 C77.1719921,57.8188022 79.7249921,55.3248022 81.6869921,52.3888022 C83.0469921,54.7608022 84.1159921,56.8168022 85.3489921,58.7138022 C91.7439921,68.7448022 100.439992,74.7468022 112.810992,73.9248022 C118.755992,73.6018022 124.392992,71.1788022 128.717992,67.0878022 C129.211992,66.6638022 130.033992,66.1268022 129.426992,65.3168022 Z M56.9639921,43.4268022 C55.4139921,40.0178022 59.5819921,33.5668022 63.3959921,33.5288022 C66.9569921,33.4838022 68.7339921,36.4128022 67.0389921,39.5308022 C65.6729921,42.0608022 61.0369921,44.4448022 58.1839921,44.1478022 C57.6529921,44.0718022 57.2359921,44.0278022 56.9639921,43.4268022 Z M85.0459921,41.3898022 C83.5089921,31.4608022 84.9509921,21.9348022 88.8409921,12.7648022 C89.2259921,11.8538022 89.6629921,10.5258022 90.9339921,10.7658022 C92.2049921,11.0058022 92.2369921,12.3598022 92.2309921,13.3588022 C92.1359921,23.2698022 89.3779921,32.5098022 85.0459921,41.3898022 Z"></path></g></svg>