<svg xmlns="http://www.w3.org/2000/svg" viewBox="0.8716068267822266 0.7177696228027344 354.62841796875 350.21136474609375"><g fill="none"><path fill="#192C8B" d="M167.3 1.1c-14 1.7-26.4 10.8-34.9 25.5-2.8 4.9-9.2 15.9-14.1 24.4-39.6 68.2-80.9 140.2-82.4 143.5-9.2 20.7.6 47.6 20.9 57.9 11.4 5.8 7.9 5.6 116.5 5.6 110.9 0 108 .2 119.4-6.6 3.2-2 7.3-5 9.1-6.7 4.5-4.3 9.7-13 11.6-19.6 1.9-6.3 2.1-18.3.5-24.7l-1.1-4.4h-68.7l-1.1 5.5c-4.9 23.6-27.1 41.5-51.5 41.5-32.7 0-57.6-29.9-51.5-62 1-5 9.2-25.2 36.7-89.5 10.2-23.8 13.3-30.1 14.8-30.3 1.7-.2 5.1 7.1 25.9 56 13.2 31 24.6 59.1 25.4 62.6l1.4 6.2h30.9c22.1-.1 30.9-.4 30.9-1.2 0-.6-6.4-12.2-14.2-25.7-7.8-13.5-20.5-35.6-28.3-49.1-7.7-13.5-22.6-39.3-33.1-57.4C215.6 26.8 210.3 18.4 206 14 195.9 3.9 182.2-.7 167.3 1.1z"></path><path fill="#01A08A" d="M180 146.8c-19.9 5.2-34 23.6-34 44.2 0 17 10.7 33.5 26.5 41 12.1 5.8 28.1 5.3 40.9-1.2 5.6-2.9 14.1-11.2 17.5-17.2 2.5-4.4 6.1-14.3 6.1-16.8 0-.4-7.4-.8-16.5-.8H204l-1.6 2.6c-5.3 8-18.3 6.8-22.6-2.1-6.7-13.8 11.7-26.1 21.6-14.4l2.5 2.9h16.6c15.4 0 16.6-.1 16.1-1.8-.3-.9-.8-3.1-1.2-4.7-2.5-10.8-12.7-23.1-23.6-28.4-10.7-5.3-20.4-6.3-31.8-3.3z"></path><path fill="#192C8B" d="M32.5 287C8.8 291.3-4 308.9 2.6 328.3c5.2 15.3 25.1 24.7 47 22.1l7.9-.9.3-10.1.3-10.1-9.9.1c-9.1.1-10.1-.1-14-2.6-6.9-4.6-6.9-12 .1-17.2 2.5-1.8 4.2-2.1 13.3-2l10.4.1v-9.8c0-5.7-.4-10.1-1-10.4-1.8-1.1-19.2-1.4-24.5-.5zm136.7.1c-11.8 2-19.1 7-21.1 14.5-1.8 6.7.3 10.8 8.7 17.7 4.3 3.5 7.2 6.6 7.2 7.7 0 3-3.6 4.3-9.6 3.5l-5.4-.6v9.4c0 11.2-.8 10.7 15.1 10.7 13.2 0 19.7-1.8 25.2-6.9 3.6-3.4 4.1-4.4 4.5-9.3.6-7.7-1.6-11.7-10-18.5-4.1-3.3-6.8-6.3-6.8-7.4 0-2.9 4.5-4.2 10.3-3.1l4.7.9v-18.4l-4.6-.7c-5.9-.8-11.4-.6-18.2.5zm153.3-.2c-1.6.4-4.9 1.8-7.2 3L311 292v-5h-27v63.1l13.8-.3 13.7-.3.3-19.2.2-19.2 2.7-2c3-2.4 8.1-2.7 10.9-.7 1.7 1.3 1.9 3 2.2 21.5l.3 20.2 13.7-.3 13.7-.3V326c0-25.9-.5-28.8-5.8-34-5.2-5.1-17.6-7.4-27.2-5.1zm-240.2.8c-1.5.3-2.5 1.4-2.9 3.1-.3 1.5-1 4.3-1.5 6.2-.5 1.9-.9 3.9-.9 4.5 0 .6 5.7 1 15.1 1 14.6 0 15.1.1 17 2.4 2.5 3 2.6 5.6.2 4.5-3.8-1.6-18-1.6-23.7 0-6.5 1.9-13.2 7.3-15.3 12.3-1.9 4.7-1.6 12 .7 16.7 5.6 11.2 23.5 15.9 37.3 9.8 4.6-2 4.7-2.1 4.7-.1 0 1.8.8 1.9 11.6 1.9h11.5l-.3-25.3c-.3-25.2-.3-25.4-2.8-29-1.6-2.3-4.3-4.5-7.5-5.9-4.5-2-6.9-2.2-23-2.4-9.9-.1-19 0-20.2.3zM110 324c4.4 4.4.9 10-6.2 10-2.9 0-4.9-.7-6.5-2.2-2.9-2.7-2.9-4.5-.1-7.5 2.9-3.1 9.9-3.2 12.8-.3zm105.4-36.3c-1.7.3-2.4 1.6-3.4 6.6-.7 3.4-1.3 6.5-1.4 7 0 .4 6.5.8 14.5 1 12.8.2 15 .4 16.8 2.1 1.2 1.1 2.1 2.8 2.1 3.8 0 1.6-.4 1.8-2.2 1.1-1.3-.4-6.8-.8-12.3-.8-8.9 0-10.6.3-15.1 2.7-13.8 7.3-16.5 22.2-5.8 32.5 7.8 7.6 23.1 9.5 33.3 4.3 4.1-2 4.1-2 4.1 0 0 1.9.6 2 12.1 2h12.1l-.4-24.3c-.3-22.5-.5-24.5-2.5-28.3-4.4-8.2-11.9-10.5-34.3-10.3-8.5.1-16.5.4-17.6.6zm27.4 35.9c2.7 1.9 2.9 6.4.3 8.8-1.1 1-3.6 1.7-6.2 1.8-7.5.1-11.1-6.9-5.6-10.7 2.8-2 8.7-1.9 11.5.1z"></path></g></svg>