<svg xmlns="http://www.w3.org/2000/svg" viewBox="-0.0121002197265625 0.721595287322998 1229.5120849609375 919.7996215820312"><g fill="none"><path fill="#040333" d="M1229.5 789.66c-10.72-4-21.85-1.44-32.75-1.67-6.51-.14-8.51-1.86-8.37-8.36.42-18.55.28-37.11.2-55.66 0-4.15.14-7.08 5.72-7.06 5.58.02 7 2.25 6.95 7.42-.23 14.43.32 28.88-.23 43.29-.28 7.23 2.22 9.67 9.09 8.79 6.43-.82 13.13 1.49 19.39-1.61v14.86zm-301.25-586.2l-1.23 6.95c-2.54 3-1.88 6.55-1.84 10l-2.51 9.71a25.3 25.3 0 00-2.77 12.16c-.16 1.82-4.09 3.58-.08 5.46-1.67 3.15-3.68 6.24-1.83 10-7.63 15.27-8.62 32.29-12.52 48.53-6.81 28.38-13.06 56.9-19.1 85.46-1.16 5.48-3.29 8.39-8.54 10.5a77181.94 77181.94 0 00-234.37 94.97c-.72.3-1.62.17-4 .37 3-13.83 5.88-27.28 8.92-40.68 5.64-24.86 11.54-49.67 17-74.58 1.34-6.13 4-9.47 10.23-11.91 37.15-14.5 74-29.87 111.07-44.43 8.23-3.23 13.42-7.37 12.86-16.69 2.37-3 1.57-6.48 1.6-9.84 2.5-2.86 2.92-6.26 2.54-9.86 2.57-2.31 2.18-5.15 1.45-8.05 1.16-3.92 2.323-7.84 3.49-11.76 2.27-3 2.13-6.53 2.29-10a2290.8 2290.8 0 002.14-7c.27-3.25.55-6.5.82-9.75l.23-.13c1.83-.22 2-1.43 1.76-2.92l1.22-4.51c2.72-3.72 1.26-8.06 1.79-12.11l2.28-5.45c3.16-4.09 2.43-8.62 1.47-13.18 3.12-3.32 3.72-7.4 3.51-11.73 2.8-2.21 2-5.14 1.58-8 1.78-5.38 3.55-10.76 6.33-19.2l-136.57 58.47c5.7-23.62 11.54-44.89 15.82-66.47 3.63-18.26 7.27-36.42 13.2-54.11 1.19-3.55 2.65-5.52 6-6.87 78.92-32 157.83-64 236.73-96 .63-.25 1.5.09 3.61.28-9.44 42.6-18.827 85.08-28.16 127.44-3.87 4.64-2 10.07-2.11 15.23-.42.61-.86 1.2-1.33 1.76-1.44.62-1.65 1.72-1.16 3.07l-.42 4.86c-2.57 3-1.76 6.7-1.92 10.19-.31.61-.65 1.21-1 1.8-1.57.64-1.88 1.75-1.19 3.23-.15 1.47-.31 2.94-.46 4.42l-2.13 10.44c-.75 2.23-1.5 4.45-2.26 6.68-.807 4.427-1.62 8.843-2.44 13.25zM278.11 514.29l2.16-6.5c2.21-3.86.94-8.14 1.46-12.21l2.61-7.79c3.08-3.77 1.47-8.3 2-12.48a11.17 11.17 0 002-9.63 15.87 15.87 0 002.87-10.2l2-7.17 2.89-12.78a19.4 19.4 0 00.33-2.16c3.63-4.46 1.9-9.81 2.46-14.77 2.86-2.95 2.36-6.59 2.13-10.18 2.47-2.24 2.34-5.08 1.85-8 9.58-32.36 14.85-65.72 22.8-98.46 3.58-14.75 2.82-33 11.52-43.38 8.7-10.38 26.65-12.94 40.67-18.65a67183.74 67183.74 0 01187.44-76.1c3.87-1.57 8.58-6.13 12.17-2.23 2.83 3.08 1.1 8.64.08 13.08-7.42 32.45-15 64.86-22.11 97.38-1.64 7.48-4.73 11.8-12.3 14.72-36.05 13.92-71.63 29.09-107.79 42.74-11.13 4.2-15.78 10.5-15.08 21.73-1.3 2.58-2.74 5.13-2 8.21l-7.62 28.78-.81 9.93c-3 2.81-2.32 6.84-3.34 10.3-2.05 2.41-1.36 5.11-.81 7.79a12.32 12.32 0 00-3.22 9.51c-2.64 3-1.86 6.62-2 10.09l-2.8 9.73c-1.5 3.25-2.47 6.59-1.95 10.22-3 2.5-3.19 5.8-2.67 9.31-.8 3.48-1.593 6.95-2.38 10.41-.55 4.34-3.78 8.3-1.75 13.88l133.86-57.46c-5.82 24.46-11.08 46.67-16.4 68.87-3.92 16.37-8 32.72-11.85 49.11-1 4.06-1.77 7.48-6.54 9.41-79.56 32.16-159 64.52-240.83 97.77 10-45.37 19.54-88.8 29.1-132.23.6-3.513 1.217-7.043 1.85-10.59zm289.95-224.76c5.1-24.52 11.32-48.87 15-73.6 4.44-29.92 13.2-58.73 19.42-88.16 1.42-6.68 4.36-9.71 10.23-12 30.54-12.1 61-24.53 91.44-36.79 3-1.19 6.3-4.14 9.17-1.89 3.27 2.56 1.8 6.92 1 10.46-11.72 49.89-20.55 100.44-34.11 149.91-.41 1.52 0 3.27.07 4.92-36.37 18.24-74.48 32.25-112.22 47.15zm83.96 79.77c-11.8 53.813-23.607 107.62-35.42 161.42-1 4.67-1.27 9.14-7.32 11.56-34.67 13.9-69.1 28.38-106 43.63 12.16-56.3 23.9-110.66 35.63-165 2.22-4.92 5.25-8.51 10.77-10.58 13.81-5.2 27.25-11.34 41-16.83 20.39-8.21 40.89-16.15 61.34-24.2zm-44.75 469.16c-10-7-18.54-12.39-29.25-12.64-13.89-.32-25.89 6.94-31.54 19.6-6.7 15-4 35.88 6.06 46.53 8.44 8.94 26.22 12.64 38 8 10.22-4.09 4.52-12.78 5.13-19.29.65-7-5.8-3.45-9.2-4.17-5.75-1.22-15.06 4.1-14-8.83.54-6.26 2.28-8.09 8.78-8.29 32.52-1 32.52-1.23 32.59 31.19 0 21.68-1.56 23.64-23 28-24.56 5-46.45-3.44-58.13-22.54-12.87-21.05-11.3-49.47 3.78-68.43 14.13-17.75 36.34-22.82 60.47-16 15.19 4.29 11 14.51 10.31 26.87zm323.14 25.59c0-14.43.2-28.86-.1-43.28-.12-5.87.75-9.14 7.89-8.89 14.41.51 28.86.4 43.28 0 5.94-.14 8.06 1.8 7.74 7.74-.27 5.19.41 9.89-7.37 9.44-9-.52-18.16.35-27.19-.24-8.37-.55-7.72 5.14-6.58 9.58 1.34 5.2-5.73 14.41 6.16 15.14 5.75.36 11.54.07 17.31.14 5.45.06 11.24-2 11.33 7.83.09 10.3-5.88 8.76-12 8.67h-6.18c-16.92-.11-16.09-.06-17.12 17.27-.65 10.86 3.44 13.42 13 12.57 6.14-.55 12.37 0 18.55-.16 6.18-.16 10.61-.36 10.72 8.65.12 10-5.77 7.83-11.13 7.86-12.78.08-25.6-.65-38.32.2-8.73.58-10.37-2.76-10.07-10.49.53-14 .15-28 .15-42.05l-.07.02zm-210.65-14.08c0 11.12.79 22.31-.17 33.35-1.92 22.41-17.31 36.21-39.07 36.26-23.26.05-38.6-12.77-40.13-36-1.43-21.75-.54-43.65-1-65.47-.18-8.77 6-5.48 10.22-6.06 5.54-.76 8.14.85 8 7.22-.37 19-.45 37.93.06 56.87.3 11 2.86 21.46 15.3 25.55 17.34 5.7 30.74-4.84 31.29-25.37.5-18.54.24-37.1 0-55.64 0-5.64.41-9.16 7.76-8.91 6.47.21 8.62 2 8.27 8.53-.52 9.86-.13 19.78-.13 29.67h-.4zm62.39-43.2c16.45 37.76 31.81 73 47.27 108.48-11.41 2.48-20.75 2.89-23.41-10.72-1.06-5.4-4.73-6.76-10-6.44a147.94 147.94 0 01-22.18 0c-10.49-1-18 .91-21 12.84-2.61 10.16-11.69 3.49-20.92 7.13 17.3-38.37 33.28-73.75 50.24-111.29zm-.81 38.51c-3.15 7.27-5.3 12-7.31 16.88-9.16 22.09-9.16 21.88 15.23 20.53 5.59-.31 7.65-.81 4.92-6.76-4.22-9.22-7.87-18.69-12.84-30.65zM344.9 914.96c-11.85 3.57-17.82.71-24-10.11-8.17-14.27-24.42-4-36.85-6.47-5.08-1-11-1.41-12.5 6.18-2.5 12.25-10.86 13.73-22.91 10.83 16.08-35.57 32.03-70.86 49.1-108.55 16.36 37.5 31.73 72.69 47.16 108.12zm-47.2-68c-5.16 4.1-5.83 10.16-8 15.27-9.54 22.21-8.7 23 15.72 20.65 6.56-.63 6.18-2.79 4-7.63-4.2-9.25-7.75-18.72-11.75-28.31l.03.02zm120.76 69.91c1.19-4 1.48-5.58 2.14-7 15.07-33.34 30.23-66.6 46.75-102.94l47.32 108.32c-11.82 2.76-20.8 2.26-23.51-10.92-1.14-5.58-5.15-6.47-10.22-6.21-7 .35-14.1.76-21 0-11-1.26-18.62 1.08-22.16 13.15-2.89 9.87-11.71 3.16-19.32 5.6zm48.1-71.47c-2.95 6.74-5.12 11.54-7.16 16.4-9.54 22.67-8.56 23.93 16.08 20.9h1.23c4.11-.16 4.65-2 3.09-5.59-4.36-10.04-8.45-20.19-13.24-31.71zm-235.89-7.3c-7.71-4.79-13.16-10.53-21.29-11.48-14.8-1.73-27.46 4.48-33.9 17.26-7.75 15.39-5.08 37.4 5.92 48.62 9.48 9.68 23.48 11.47 37.72 4.86 4.12-1.91 9.36-7 12 .36 1.81 5.14 3.2 11.61-4.37 15.95-19.25 11.05-45.1 7-60.38-11.08-16.22-19.23-18.06-41.28-8.43-63.72 8.56-19.94 24.46-30.48 46.74-30.1 1.24 0 2.48.11 3.71.21 19.98 1.74 24.44 7.13 22.28 29.12zm779.46 55.06c8.47 4.64 15.48 9.15 23.81 10.1 7.8.89 15.55-.15 19-8 3.6-8.07.67-15.35-6.62-20.47-5.73-4-11.67-7.73-17.44-11.69-15.66-10.74-20.41-22.93-14.76-37.68 4.8-12.54 18.61-18.65 36.33-16.08 15.93 2.31 17.35 4.17 15.55 21.34-7.13-1.48-13.1-6.4-20.48-6.62-6.65-.2-12.76.89-15.6 7.43-3 6.91 1.14 11.91 6.47 15.65 7 5 14.68 9.15 21.53 14.36 13.44 10.22 18 25.29 12.69 39.37-4.62 12.15-18.38 19.85-34.36 19.22-21.14-.8-24.37-3.94-26.12-26.93zm-109.82-61.84c-8.1-2.82-14.12-5.63-20.45-6.92-6.65-1.35-13.77-.64-16.73 6.87-2.89 7.33 1.16 12.68 7.09 16.66 5.46 3.68 11.18 7 16.6 10.72 19.16 13.21 24.4 31.6 13.69 47.5-9.52 14.14-37.59 19.2-52.83 9-7.66-5.1-2.88-13.52-4.87-21.55 8.54 3.62 15.28 8.54 23.49 9.49 8.21.95 16 .17 20-8.44s-.52-15.12-7.33-20.12c-7-5.09-14.58-9.36-21.39-14.65-13.56-10.54-16.58-28.58-7.22-40.24 9.61-12 36.58-15.17 47.59-5.43 5.36 4.77.49 10.79 2.36 17.11z"></path><path fill="#818285" d="M652.02 369.3c-20.45 8.05-41 16-61.36 24.18-13.7 5.49-27.14 11.63-41 16.83-5.52 2.07-8.55 5.66-10.77 10.58-2.63-9.47-8.3-2.22-11.11-1.1-32.56 12.95-64.86 26.56-97.28 39.88-13.25 5.45-26.62 10.6-39.93 15.88.82-3.48 1.637-6.957 2.45-10.43 48.36-19.333 96.693-38.69 145-58.07 2.29-.93 3.63-4.19 5.42-6.37 2.49 4.91 5.54 1.46 8.2.39 16.32-6.57 32.75-12.9 48.82-20.05 18.23-8.11 37.71-13.47 54.61-24.55 15.16-2.22 28.31-10 42.27-15.48 34.72-13.55 69.21-27.66 103.79-41.55 0 3.36.77 6.86-1.6 9.84-18.51 4.14-35 13.47-52.43 20.41-31.85 12.71-63.38 26.35-95.08 39.61zm-83.96-79.77c37.74-14.92 75.85-28.93 112.18-47.19 19-4.1 36-13.4 53.84-20.43 27.87-11 55.44-22.75 83.2-34 3.32-1.35 6.48-3.81 10.48-2.88.449 2.86 1.22 5.79-1.58 8-14.47 5.94-29 11.75-43.39 17.84-35.2 14.9-71.17 28-105.73 44.43-1 .43-2.59.34-2.17 2.2l.16-.14c-2 0-4.17-.52-5.87.17-33 13.35-65.87 26.92-98.87 40.21-3.55 1.44-3.85 5-6.36 7-1-2.35-2.7-2.92-4.95-2.05-14.25 5.47-28.82 10.27-42.68 16.62a1295.067 1295.067 0 01-98.09 40.17c-.7-3.08.74-5.63 2-8.21 44.073-18.26 88.14-36.507 132.2-54.74 5.24-2.22 10.43-4.66 15.63-7z"></path><path fill="#040333" d="M372.8 872.73c0-11.94-.39-23.91.15-35.83.31-6.77-2.12-8.66-8.45-8-4.89.5-9.9-.21-14.81.18-6.59.52-10.66-.17-10.63-8.75 0-9.09 5.08-8.36 11.12-8.32 21.83.14 43.67.2 65.5-.08 6.05-.08 8.85 1.16 8.83 8.07-.02 6.91-2 9-9.09 9.18-24.88.49-24.88.79-24.87 25.86 0 17.72-.45 35.45.21 53.14.3 8-3.46 8.32-9.52 8.37-6.06.05-9-.9-8.58-8 .64-11.91.18-23.88.18-35.83l-.04.01zm-171.31-123.2l-19.23 42-20.12-41.86c-2.31 12.3-4.44 21.7-5.74 31.22-.79 5.8-3.4 8-8.91 6.94-6.74-1.29-2.64-6.07-2.17-8.79 3.67-21 7.79-41.9 12.3-65.65l24.61 52.14c8.25-17.65 15.61-33.42 24.37-52.17 4.69 24.91 8.82 46.83 12.93 68.76.62 3.25.26 5.64-4.05 5.65-3.95 0-7.38 0-8.2-5.11-1.61-9.91-3.45-19.82-5.79-33.13zm-68.7 3.3c-.12 21-14.44 37.2-33 37.31-19.36.11-34-16.19-33.95-37.73.05-21.54 15-37.51 34.45-37.28 18.47.22 32.62 16.65 32.5 37.7zm-12.35.71c.44-14.27-8.79-25.85-20.64-25.92-12.2-.06-20.79 9.67-21.18 24-.41 14.9 8.06 25.58 20.49 25.83 11.87.25 20.89-9.87 21.33-23.92v.01zm618.64 38.79l-44.54-48.15c0 13.27-.09 24.12 0 35 .05 4.64.86 8.85-6.35 8.89-6.91 0-5.67-4.19-5.68-8.16v-66.23l44.16 47.58V725.1c0-3.92-1.21-8.17 5.65-8.25 6.86-.08 6.81 3.62 6.78 8.55-.1 21.13-.02 42.33-.02 66.93zm-326.26-.69l-43.87-47.45c0 13.66-.07 25.09 0 36.52 0 4.05-.11 7.1-5.64 7.26-5.76.18-7-2.44-6.93-7.39.12-21.3.05-42.59.05-67.6l44.6 48.13c0-13.67-.09-24.12.05-34.56.05-4.1-2.06-9.19 5.63-9.61 8-.43 6 4.75 6.05 8.88.1 20.82.06 41.63.06 65.82zm346.46-39.05c0-9.49.08-19-.05-28.46-.06-4-.16-7.43 5.53-7.08 9.43.58 18.94-.43 28.17 2.74 15.53 5.34 24.11 18.22 23.13 35.26-.911 15.727-12.302 28.867-27.74 32-26.33 5.06-29.06 2.86-29-23.37-.02-3.67-.03-7.38-.04-11.09zm44.13.38c.17-15.14-12.12-25.76-27.44-24.38-4.42.4-4.26 2.72-4.27 5.58 0 12.28.06 24.55 0 36.82 0 3.43 1.07 4.9 4.79 5.4a23.71 23.71 0 0026.92-23.42zm40.51-9.53c0 6.59-.41 13.21.08 19.76.67 8.78 5.23 15 14.48 15.5 9.73.54 15.86-4.93 16.48-14.49.85-13.13.59-26.34.6-39.51 0-4.48-.12-8 6.23-7.7 5.87.27 5.29 3.77 5.16 7.53-.51 14 1.11 28-1.15 41.92-2.3 14.16-11.3 23.08-24.09 24-15 1.06-25.45-6-29-21-3.77-15.8-.92-32-1.64-48-.23-5.19 3.62-4.29 6.87-4.46 4-.2 6.21.87 6.06 5.43-.24 7-.07 14.01-.08 21.02zm231.2 43.09c-12.77 4.93-16.48-3.52-21.81-10.36-4.52-5.78-6.71-17.27-14.69-15.44-5.24 1.2-1.38 12.44-2.08 19.14-.42 4 .73 7.93-5.9 8.13-7.19.21-6.64-3.72-6.61-8.5.12-18.11.29-36.23-.11-54.34-.15-6.54 1.94-8.84 8.4-8.12 6.11.69 12.35.32 18.45 1 9 1.09 15.37 6.31 17.57 15.07 2.06 8.2-.34 16.07-7.8 20.42-6.07 3.54-4.46 6.24-1.38 10.39 5.32 7.18 10.33 14.61 15.96 22.61zm-35.19-59.08c-5.06-1-3.9 5.19-3.31 9.76.59 4.57-4 12.88 6.69 11.9 6.43-.59 12.58-2 13.11-10 .61-9.33-6.25-10.29-16.49-11.69v.03zm-605.76 25.08c0-9.48.1-19-.06-28.44-.07-4.1 0-7.15 5.56-7.22 5.29-.07 5.72 2.48 6 6.8 1.54 22.37 1.66 22.08 23.29 21.79 6.4-.09 9-1.6 8.28-8.24-.53-4.89.11-9.9-.23-14.83s2.41-5.26 6.13-5.3c3.72-.04 6.48 0 6.45 4.91-.12 20.207-.12 40.41 0 60.61 0 4.47-1.76 5.86-5.93 5.29-3.16-.42-7 .4-6.62-4.84.17-2.47.07-5 .07-7.42 0-19 0-18.26-18.4-19.23-11.11-.58-15.05 2.79-13.24 13.56a34.69 34.69 0 010 8.64c-.35 4 2.35 9.47-5.7 9.39-8.05-.08-5.5-5.54-5.6-9.51-.15-8.67 0-17.33 0-25.96zm98.81 36.25l34-75.18c10.63 24.11 20.38 46.25 30.19 68.37 1.05 2.36 2.34 5.41-1.19 5.65-3.53.24-9.13 2.5-10.58-3.09-3-11.54-11.88-9-19.71-9.06-7.59-.09-15.61-1.78-18.58 9-1.63 5.98-7.61 2.47-14.13 4.31zm33.58-49c-4.06 9.77-7.1 17.07-10.17 24.47h20.22l-10.05-24.47zm579.11-26.25c11.32 25.88 21.55 49.25 32.31 73.81-7 .5-12.61 2.57-16-6.4-3-8-29.36-8-34-.69-4.64 7.31-4.74 7.44-15.53 6.79l33.22-73.51zm-10.64 50.8h20.35c-4.09-7.92-5.2-16-11.24-22.49l-9.11 22.49zm-821.31-50.87l32.13 73.29c-7.63 2.08-12.63 1.92-16-6.41-3-7.31-29.18-7-33.59-.29-1.33 2.05-1.79 4.84-3.46 6.46-2.57 2.51-6.37 1.94-9.36 1-3.77-1.12-1.38-3.77-.44-5.86l30.72-68.19zm-.58 26.67l-10.47 24.55h20.72c-3.32-7.98-6.34-15.15-10.25-24.55zm-260.47-6.66c-17.51-8.67-27.12-8.22-34.53 1.44-7.76 10.1-7.1 27.71 1.35 36.57 8 8.43 18.51 7.94 34.31-1.62 1.41 16.12-10.82 24.43-28.68 19.49-17.68-4.88-28.41-25-24.23-45.5 4-19.48 19.18-30.91 38.18-28.52 10.03 1.26 17.93 4.54 13.6 18.14zm183.58 19.27c0-6.16-.92-12.49.25-18.42 1.15-5.76-5.79-15.12 4.77-17 20.9-3.69 35.69 3.22 39.09 16.65 2.68 10.62-3.17 23-15 24.17-16.12 1.63-19.15 9.41-16.66 22.89 1.06 5.74-1.94 6.66-7 6.89-5.84.27-5.54-2.91-5.49-6.89.14-9.41.05-18.85.04-28.29zm12.13-13.64c1.94 3.41-3.41 11 5.52 10.5 7.06-.38 14.67-1.8 14.39-11.39-.23-8-6.75-9.29-13-10.07-9.81-1.23-5.56 6.45-6.91 10.96zm652.86 33.43c7.61 2.78 12.47 5.25 17.62 6.25 5.47 1.07 11-.26 13.2-6.31 1.91-5.3-.49-9.49-5-12.66-5.39-3.76-11-7.34-15.88-11.65-8.65-7.58-9.31-19.77-2-27.16 6.54-6.6 25-7.93 31-2.41 3.14 2.89 1.84 6.36 1 9.15-1.19 3.81-4 .6-5.95.17-2.79-.59-5.44-2-8.23-2.3-4.17-.45-8.32-.13-10.43 4.56-2.21 4.91.88 8 4.1 10.47 4.51 3.52 9.65 6.25 14.19 9.76 10.77 8.35 13.6 22.22 6.71 31.52-6.21 8.4-26.28 11.37-35.28 5.44-5.44-3.65-1.93-8.93-5.05-14.83zm75.43-14.88c0-4.1-.5-8.29.1-12.31 1.89-12.6-1.43-19.75-15.9-16.84-4.48.9-6.54-.86-6.56-6 0-5.75 3.24-5.55 7.15-5.53 14.38.09 28.76.07 43.13.09 3.76 0 7.17-.34 7.28 5.45.12 6.57-4 6.62-8 5.86-13.19-2.52-16 3.52-15 15.39 1 12.24 0 24.63.33 37 .14 5.27-1.38 7.16-6.85 7.16s-5.85-2.64-5.75-6.85c.17-7.81.07-15.61.07-23.42zm-454.32-4.19c0 9.44-.12 18.89 0 28.33.07 3.89-.69 6.32-5.32 6.08-3.89-.2-7.28 0-7.23-5.62.193-19.713.193-39.42 0-59.12 0-5.06 2.4-6 6.8-6.23 5.53-.23 5.81 2.89 5.76 7-.09 9.85-.01 19.71-.01 29.56zm127.01-1.35c0-8.61-.17-17.22.06-25.82.11-4-2.15-9.29 5.76-9.37 8.3-.09 6.59 5.37 6.62 10 .08 16.8.17 33.61-.09 50.41-.07 4.22 2.64 10.27-5.95 10.59-8.59.32-6.19-5.64-6.31-10-.24-8.59-.07-17.21-.09-25.81zm451.9.34c0 9.45-.08 18.9 0 28.35.05 4 .05 7.17-5.56 7.15-5.25 0-7.11-1.65-7-7.09.29-18.9.25-37.81 0-56.71-.06-5.19 1.43-7.33 6.94-7.26 5.51.07 5.66 3.21 5.62 7.2-.06 9.44 0 18.9 0 28.36z"></path><path fill="#818285" d="M919.86 242.28a25.3 25.3 0 012.81-12.16c18.47-4.42 34.85-14.33 52.81-20 3.25-1 7.51-7 10.14-1.19 2.54 5.59-3.76 7.23-7.78 8.95-19.32 8.18-38.66 16.27-57.98 24.4zm8.39-38.82c.82-4.4 1.633-8.803 2.44-13.21 3.57 4.22 6.68.52 9.76-.73 17.07-6.89 34.08-13.93 51.62-21.13 2.8 8.43-2.82 10.25-8 12.37l-55.82 22.7zm9.48-39.81c.16-3.49-.65-7.16 1.92-10.19 18.33-4.55 34.65-14.42 52.59-20 2.69-.83 6.35-5 8.25-.25 1.52 3.78-1.71 6.6-5.64 8.11-19.07 7.39-38.08 14.89-57.12 22.33zm-12.55 56.76c0-3.45-.7-7 1.84-10 21.63-5.88 41.33-16.94 63.24-24.12.28 5.39-.73 9.23-5.86 11-20.02 7-38.73 17.45-59.22 23.12zm-7.23 37.37c-1.85-3.8.16-6.89 1.83-10 18.3-3.54 34.24-13.38 51.64-19.34 2.68-.92 5.32-2 8.38-3.13 1.81 4.26 1.35 8.16-2.39 9.55-19.91 7.38-38.45 18.36-59.46 22.92zm15-74.25l2.13-10.47c17.78-5 34.3-13.15 51.39-19.89 3.2-1.26 7.74-4.84 9.81-1 2.22 4.14-1.76 7-6.13 8.73-19.12 7.45-38.14 15.11-57.2 22.63zm9.61-39.76c.1-5.16-1.76-10.59 2.11-15.23.91 8.31 5.64 4.57 9.55 3 14.1-5.78 28.13-11.73 42.27-17.37 2.29-.91 5.59-4.11 7.41-.33 1.52 3.16-.29 6.48-4 7.86-19.15 7.19-37.23 17.3-57.34 22.07zM298.89 418.59c-.56 5 1.17 10.31-2.46 14.77-1.4-8.09-6.24-2.83-8.94-1.77-14.87 5.82-29.55 12.14-44.44 18.36-3.85-7.91 1.8-9.79 6.68-11.77 16.35-6.65 32.77-13.08 49.16-19.59zm3.98-18.18c.49 2.92.62 5.76-1.85 8-15.9 6.66-31.75 13.44-47.77 19.81-2.34.94-6.13 5.33-8 0-1.12-3.18 1.36-6.22 4.88-7.54 17.63-6.61 34.35-15.62 52.74-20.27zm-6.77 35.12l-2.85 12.79c-16.38 4-31.17 12.25-46.95 17.87-2.85 1-6.41 4.05-8.06-.22-1.21-3.12 1.69-5.85 5.14-7.25 13.65-5.57 27.28-11.2 40.83-17 4.1-1.76 7.94-4.11 11.89-6.19zm-17.99 78.76c-.627 3.54-1.26 7.077-1.9 10.61-14.54 1.79-26.69 10.16-40.25 14.63-4.26 1.41-8.38 3.29-12.7 5-3.13-5.8-.54-9 4.29-10.75 17.04-6 32.96-14.91 50.56-19.49zm13.13-58.76a15.87 15.87 0 01-2.87 10.2c-15.39 6.52-30.73 13.16-46.22 19.45-2.28.92-6 4.87-7.7-.43-1.24-3.73 1.59-5.8 5-7.19 15.48-6.38 30.91-12.89 46.35-19.38 1.87-.84 3.62-1.81 5.44-2.65zm-9.51 40.05c-.52 4.07.75 8.35-1.46 12.21-1.76-2.68-3.61-2-6.24-.9-12.8 5.47-25.72 10.69-38.69 15.76-2.59 1-6.15 4.82-8.19.1-1.26-2.94.29-6.28 4.16-7.75 16.84-6.39 33.62-12.93 50.42-19.42zm4.63-20.27c-.55 4.18 1.06 8.71-2 12.48-7-3.39-11.92 2.25-17.58 4.32-9.26 3.4-18.31 7.36-27.53 10.89-2.38.91-5.86 4-7.38.25-1.62-4 1.56-6.67 5.42-8.24 14.82-6 29.6-12.21 44.41-18.29 1.48-.62 3.1-.94 4.66-1.41zm649.18-306.63c-.69-1.48-.38-2.59 1.19-3.23-.39 1.08-.79 2.15-1.19 3.23zm4.53-20.08c-.49-1.35-.28-2.45 1.16-3.07-.39 1-.77 2.05-1.16 3.07zM400.45 435.85c.12-3.47-.66-7.12 2-10.09 1.22-.09 2.56.14 3.63-.3 46.393-18.887 92.76-37.82 139.1-56.8 4.27-1.74 7.1-4.21 4.38-9.69-28.92 11.89-57.58 24.23-86.68 35.46-19 7.35-36.91 17.84-57.23 21.82-.55-2.68-1.24-5.38.81-7.79 47.1-19.16 94.21-38.3 141.33-57.42 3.68-1.49 5.8-4.32 8.06-7.19 5 5.43 9.16-.05 13-1.56 33.1-13.2 66-26.89 99-40.44 31.91-13.19 63.69-26.73 95.8-39.44 16.7-6.62 32.52-15.62 50.33-19.36-.27 3.25-.55 6.5-.82 9.75-2 .17-4.23-.15-6 .58-47.527 19.547-95 39.163-142.42 58.85-1.1.35-2.38.54-2.06 2.22-36.78 10.42-70.78 27.88-106.15 41.86-2.86 1.13-4 3.92-2.85 5.9 2.1 3.64 5.16.56 7.48-.38 31.64-12.75 63.21-25.7 94.84-38.48 4.3-1.73 7-4.12 6.5-9.06l1-.35h1c2.19 9.06 7.15 2.44 10.1 1.25 45.53-18.31 90.94-36.91 136.38-55.45-.16 3.47 0 7-2.29 10-12.17 4.84-24.37 9.65-36.52 14.54a243669.682 243669.682 0 00-111.71 45l-112.2 46.97c-6.85 2.74-13.7 5.45-20.53 8.21-42.427 17.12-84.853 34.25-127.28 51.39zm9.35-37.69l.81-9.93c4.44 1.15 8.08-1.44 11.76-2.95 32.39-13.29 64.79-26.54 96.94-40.39 13.54-5.83 28.59-8.4 40.32-18.23 2-.1 4.25.33 6-.39 35.493-14.62 70.957-29.32 106.39-44.1 23.13-9.39 46.18-19 69.42-28.11 25.85-10.15 50.85-22.47 77.47-30.68-.53 4 .93 8.39-1.79 12.11-2.16-4-4.82-1.53-7.31-.51-47.333 19.42-94.693 38.853-142.08 58.3l-111.59 45.85c-13.31 5.46-26.58 11-39.93 16.37a47816.949 47816.949 0 01-106.41 42.66zm-14.06 57.65c-.52-3.63.45-7 1.95-10.22 3 .66 5.59-.71 8.26-1.8 41.813-17.18 83.603-34.353 125.37-51.52 5.58-2.31 12-3.25 16-8.67 1.61 0 3.43.51 4.81-.05a29417.523 29417.523 0 00107.51-44.46c21.73-8.79 43.34-17.88 65.22-26.3 26.81-10.32 52.47-23.57 80.32-31.26.73 2.9 1.12 5.74-1.45 8.05-28.8 11.72-57.72 23.12-86.34 35.26-20.65 8.77-42.24 15.42-61.81 26.69-38.16 12.64-74.56 29.69-111.81 44.6-18.18 7.45-36.28 15.09-54.56 22.29-31.23 12.28-61.61 26.69-93.47 37.39zm426.93-251.06c1 4.56 1.69 9.09-1.47 13.18-1.13-8.35-5.95-3-8.71-1.91-21.38 8.53-42.83 17-63.89 26.25-25.2 11.1-51.72 19.08-75.92 32.49-4-.94-7.12 1.36-10.45 2.72a40799.256 40799.256 0 00-101.79 41.9c-38.52 15.74-76.94 31.74-115.65 47-6.74 2.66-13.93 9-22.1 3.62-.38-2.95 1.32-3.32 2.81-3.93 38.28-15.66 76.64-31.13 114.77-47.17 8-3.39 17.27-4.93 23.46-12.09 2 .05 4.29.75 6 .05 33.36-13.57 66.63-27.34 100-40.94 4.12-1.68 5.47-4.5 5.32-8.55l-.16.14c.74-.09 1.48-.22 2.21-.38.85 8.26 5.57 3.35 8.48 2.16 26.24-10.69 52.23-22 78.63-32.32 19.46-7.58 37.9-17.67 58.46-22.22z"></path><path fill="#FCFCFD" d="M805.18 281.53c-27.85 7.69-53.55 20.94-80.37 31.26-21.88 8.42-43.49 17.51-65.22 26.3.28-3.25.57-6.5.85-9.76a466202.32 466202.32 0 01111.71-45c12.15-4.89 24.35-9.7 36.52-14.54-1.16 3.907-2.323 7.82-3.49 11.74zm-132.51-6.77c24.2-13.41 50.72-21.39 75.92-32.49 21.06-9.29 42.51-17.72 63.89-26.25 2.76-1.1 7.58-6.44 8.71 1.91l-2.28 5.45c-26.62 8.21-51.62 20.53-77.47 30.68-23.24 9.13-46.29 18.72-69.42 28.11.23-2.47.44-4.94.65-7.41zm150-70.01c-20.56 4.55-39 14.64-58.46 22.2-26.4 10.29-52.39 21.63-78.63 32.32-2.91 1.19-7.63 6.1-8.48-2.16a2.18 2.18 0 000-1.82c34.56-16.44 70.53-29.53 105.73-44.43 14.4-6.09 28.92-11.9 43.39-17.84.17 4.33-.43 8.41-3.55 11.73zm-154.93 88.53a927937.78 927937.78 0 01142.08-58.3c2.49-1 5.15-3.46 7.31.51-.41 1.51-.81 3-1.22 4.51l-1.76 2.92-.23.13c-17.81 3.74-33.63 12.74-50.33 19.36-32.11 12.71-63.89 26.25-95.8 39.44-.02-2.85-.03-5.71-.05-8.57zm-12.16 58.25c19.57-11.27 41.16-17.92 61.81-26.69 28.62-12.14 57.54-23.54 86.34-35.26.38 3.6 0 7-2.54 9.86-34.58 13.89-69.07 28-103.79 41.55-14 5.45-27.11 13.26-42.27 15.48l.45-4.94zm155.38-91.76c-45.44 18.54-90.85 37.14-136.38 55.45-2.95 1.19-7.91 7.81-10.1-1.25a2.06 2.06 0 00.26-1.74c47.44-19.64 94.89-39.257 142.35-58.85 1.78-.73 4-.41 6-.58l-2.13 6.97z"></path><path fill="#818285" d="M814.15 242.92l1.76-2.92c.26 1.53.07 2.7-1.76 2.92z"></path><path fill="#FCFCFD" d="M563.73 306.79c-6.19 7.16-15.42 8.7-23.46 12.09-38.13 16-76.49 31.51-114.77 47.17-1.49.61-3.19 1-2.81 3.93 8.17 5.42 15.36-1 22.1-3.62 38.71-15.24 77.13-31.24 115.64-47-.26 2.427-.527 4.853-.8 7.28-11.73 9.83-26.78 12.4-40.32 18.23-32.15 13.85-64.55 27.1-96.94 40.39-3.68 1.51-7.32 4.1-11.76 2.95l7.62-28.78a1309.523 1309.523 0 0098.09-40.17c13.86-6.35 28.43-11.15 42.68-16.62 2.25-.87 4-.3 4.95 2.05a3.88 3.88 0 00-.22 2.1zm-16.46 76.81c-3.94 5.42-10.37 6.36-16 8.67a39806.993 39806.993 0 01-125.32 51.52c-2.67 1.09-5.23 2.46-8.26 1.8l2.76-9.74c42.427-17.127 84.853-34.257 127.28-51.39 6.83-2.76 13.68-5.47 20.53-8.21l-.99 7.35zm-151.53 72.21c31.86-10.7 62.24-25.11 93.47-37.39 18.28-7.2 36.38-14.84 54.56-22.29l-.27 4.55c-1.79 2.18-3.13 5.44-5.42 6.37a24788.842 24788.842 0 01-145 58.07c-.53-3.51-.34-6.81 2.66-9.31zm14.06-57.65c35.48-14.22 70.95-28.43 106.41-42.63 13.35-5.37 26.62-10.91 39.93-16.37-.1 1.57-.19 3.15-.29 4.72-2.26 2.87-4.38 5.7-8.06 7.19a53089.854 53089.854 0 00-141.33 57.42c1.02-3.49.3-7.52 3.34-10.33zm-4.13 18.09c20.32-4 38.19-14.47 57.23-21.82 29.1-11.23 57.76-23.57 86.68-35.46 2.72 5.48-.11 7.95-4.38 9.69-46.353 18.947-92.733 37.88-139.14 56.8-1.07.44-2.41.21-3.63.3a12.32 12.32 0 013.24-9.51z"></path><path fill="#040333" d="M543.5 400.68l.27-4.55c37.25-14.91 73.65-32 111.81-44.6l-.45 4.94c-16.9 11.08-36.38 16.44-54.61 24.55-16.07 7.15-32.5 13.48-48.82 20.05-2.66 1.07-5.71 4.52-8.2-.39zm20.23-93.89a3.88 3.88 0 01.22-2.08c2.51-1.94 2.81-5.54 6.36-7 33-13.29 65.89-26.86 98.87-40.21 1.7-.69 3.9-.14 5.87-.17.15 4.05-1.2 6.87-5.32 8.55-33.36 13.6-66.63 27.37-100 40.94-1.71.71-3.99.02-6-.03z"></path><path fill="#040333" d="M677.06 255.29a2.18 2.18 0 010 1.82c-.73.16-1.47.29-2.21.38-.38-1.86 1.17-1.77 2.21-2.2z"></path><path fill="#FCFCFD" d="M120.44 753.53c-.44 14-9.46 24.16-21.33 23.91-12.44-.24-20.9-10.91-20.44-25.82.39-14.33 9-24.06 21.18-24 11.82.07 21.03 11.65 20.59 25.91zm446.12-13.76l10.05 24.47h-20.22c3.07-7.4 6.11-14.71 10.17-24.47z"></path><path fill="#040333" d="M547.27 383.6l1-7.35 112.17-46.92c-.28 3.26-.57 6.51-.85 9.76a79241.827 79241.827 0 01-107.51 44.44c-1.41.58-3.2.08-4.81.07zm8.58-39.75c.1-1.57.19-3.15.29-4.72l111.6-45.85v8.57c-33 13.55-65.87 27.24-99 40.44-3.73 1.51-7.92 6.99-12.89 1.56zm106.65-29.56c.5 4.94-2.2 7.33-6.5 9.06-31.63 12.78-63.2 25.73-94.84 38.48-2.32.94-5.38 4-7.48.38-1.15-2 0-4.77 2.85-5.9 35.37-14 69.37-31.44 106.15-41.86l-.18-.16z"></path><path fill="#040333" d="M664.74 312.23a2.06 2.06 0 01-.26 1.74h-1l-1 .35.18.16c-.3-1.71 1.01-1.9 2.08-2.25zm-105.07 14.43c.267-2.42.533-4.847.8-7.28 33.933-14 67.867-27.967 101.8-41.9 3.33-1.36 6.49-3.66 10.45-2.72-.22 2.47-.43 4.94-.65 7.41a63850.507 63850.507 0 01-106.39 44.1c-1.8.72-4.01.26-6.01.39z"></path></g></svg>