<svg xmlns="http://www.w3.org/2000/svg" xmlns:xlink="http://www.w3.org/1999/xlink" viewBox="159.33592224121094 248.73265075683594 2706.159423828125 1045.159912109375"><g transform="translate(-2619.113 -1676.04) scale(5.51827)"><defs><path id="fn6720ffcefdma" d="M1440 900V0H0v900"></path></defs><clipPath id="fn6720ffcefdmb"><use width="100%" height="100%" overflow="visible" xlink:href="#fn6720ffcefdma"></use></clipPath><g clip-path="url(#fn6720ffcefdmb)"><defs><path id="fn6720ffcefdmc" d="M613.5 418.9c5.7 5.6 9.9 12.7 11.9 20.6h19.2c-2.3-13.2-8.8-25-18-34l-13.1 13.4z"></path></defs><clipPath id="fn6720ffcefdme"><use width="100%" height="100%" overflow="visible" xlink:href="#fn6720ffcefdmc"></use></clipPath><linearGradient id="fn6720ffcefdmd" x1="1.239" x2="2.239" y1="889.757" y2="889.757" gradientTransform="scale(29.9604 -29.9604) rotate(-62.354 -735.57 421.854)" gradientUnits="userSpaceOnUse"><stop offset="0" stop-color="#e41f13"></stop><stop offset="1" stop-color="#e30613"></stop></linearGradient><path fill="url(#fn6720ffcefdmd)" d="M637.9 392.7l20.6 39.5-38.3 20.1-20.7-39.5z" clip-path="url(#fn6720ffcefdme)"></path></g><g clip-path="url(#fn6720ffcefdmb)"><defs><path id="fn6720ffcefdmf" d="M582 387.5l.2 18.8h.4c12.2 0 23.2 4.9 31.2 12.9l13.3-13.3c-11.4-11.4-27.1-18.4-44.5-18.4h-.6"></path></defs><clipPath id="fn6720ffcefdmh"><use width="100%" height="100%" overflow="visible" xlink:href="#fn6720ffcefdmf"></use></clipPath><linearGradient id="fn6720ffcefdmg" x1="-4.074" x2="-3.073" y1="893.545" y2="893.545" gradientTransform="scale(40.6804 -40.6804) rotate(-23.265 -2188.62 397.203)" gradientUnits="userSpaceOnUse"><stop offset="0" stop-color="#e42313"></stop><stop offset="1" stop-color="#e41f13"></stop></linearGradient><path fill="url(#fn6720ffcefdmg)" d="M589 371.2l49.5 21.3-18.5 43-49.5-21.3z" clip-path="url(#fn6720ffcefdmh)"></path></g><g clip-path="url(#fn6720ffcefdmb)"><defs><path id="fn6720ffcefdmi" d="M537.7 406.3l13.4 13.1c8-8.1 19.1-13.2 31.4-13.2v-18.8c-17.5.1-33.4 7.3-44.8 18.9"></path></defs><clipPath id="fn6720ffcefdmk"><use width="100%" height="100%" overflow="visible" xlink:href="#fn6720ffcefdmi"></use></clipPath><linearGradient id="fn6720ffcefdmj" x1="7.478" x2="8.477" y1="901.273" y2="901.273" gradientTransform="scale(-40.9563 40.9563) rotate(24.757 2027.988 406.062)" gradientUnits="userSpaceOnUse"><stop offset="0" stop-color="#e42313"></stop><stop offset="1" stop-color="#e52d12"></stop></linearGradient><path fill="url(#fn6720ffcefdmj)" d="M594.7 413.9l-49.2 22.6-20-43.4 49.1-22.6z" clip-path="url(#fn6720ffcefdmk)"></path></g><g clip-path="url(#fn6720ffcefdmb)"><defs><path id="fn6720ffcefdml" d="M519.7 450.4v.5l18.8-.2v-.4c0-12.2 4.9-23.2 12.9-31.2l-13.3-13.3c-11.4 11.5-18.4 27.2-18.4 44.6"></path></defs><clipPath id="fn6720ffcefdmn"><use width="100%" height="100%" overflow="visible" xlink:href="#fn6720ffcefdml"></use></clipPath><linearGradient id="fn6720ffcefdmm" x1="6.582" x2="7.582" y1="895.797" y2="895.797" gradientTransform="scale(-39.8036 39.8036) rotate(67.04 664.846 437.82)" gradientUnits="userSpaceOnUse"><stop offset="0" stop-color="#e52d12"></stop><stop offset="1" stop-color="#e74018"></stop></linearGradient><path fill="url(#fn6720ffcefdmm)" d="M567.5 412.8l-21 49.5-43-18.2 21-49.5z" clip-path="url(#fn6720ffcefdmn)"></path></g><g clip-path="url(#fn6720ffcefdmb)"><defs><path id="fn6720ffcefdmo" d="M519.7 450.4c0 17.6 7.2 33.4 18.8 44.8l13.1-13.4c-8.1-8-13.2-19.1-13.2-31.4h-18.7z"></path></defs><clipPath id="fn6720ffcefdmq"><use width="100%" height="100%" overflow="visible" xlink:href="#fn6720ffcefdmo"></use></clipPath><linearGradient id="fn6720ffcefdmp" x1="1.503" x2="2.503" y1="892.737" y2="892.737" gradientTransform="scale(41.914 -41.914) rotate(-67.19 -673.035 432.656)" gradientUnits="userSpaceOnUse"><stop offset="0" stop-color="#e74018"></stop><stop offset="1" stop-color="#e84617"></stop></linearGradient><path fill="url(#fn6720ffcefdmp)" d="M546.8 439l20.8 49.5-43.1 18.1-20.9-49.5z" clip-path="url(#fn6720ffcefdmq)"></path></g><g clip-path="url(#fn6720ffcefdmb)"><defs><path id="fn6720ffcefdmr" d="M538.1 494.8c11.4 11.4 27.1 18.4 44.4 18.4h.5l-.2-18.8h-.4c-12.2 0-23.2-4.9-31.2-12.9l-13.1 13.3z"></path></defs><clipPath id="fn6720ffcefdmt"><use width="100%" height="100%" overflow="visible" xlink:href="#fn6720ffcefdmr"></use></clipPath><linearGradient id="fn6720ffcefdms" x1="-4.302" x2="-3.302" y1="893.613" y2="893.613" gradientTransform="scale(40.3659 -40.3659) rotate(-21.516 -2379.023 393.943)" gradientUnits="userSpaceOnUse"><stop offset="0" stop-color="#e84617"></stop><stop offset="1" stop-color="#ea561f"></stop></linearGradient><path fill="url(#fn6720ffcefdms)" d="M544.1 466.2l49.8 19.6-16.9 42.8-49.7-19.6z" clip-path="url(#fn6720ffcefdmt)"></path></g><g clip-path="url(#fn6720ffcefdmb)"><defs><path id="fn6720ffcefdmu" d="M582.5 494.5v18.8c20.3 0 38.4-9.6 49.9-24.6l-14.9-11.4c-8.1 10.4-20.7 17.2-35 17.2"></path></defs><clipPath id="fn6720ffcefdmw"><use width="100%" height="100%" overflow="visible" xlink:href="#fn6720ffcefdmu"></use></clipPath><defs><filter id="fn6720ffcefdmv" width="85.9" height="85.9" x="564.5" y="452.3" filterUnits="userSpaceOnUse"><feColorMatrix values="1 0 0 0 0 0 1 0 0 0 0 0 1 0 0 0 0 0 1 0"></feColorMatrix></filter></defs><mask id="fn6720ffcefdmB" width="85.9" height="85.9" x="564.5" y="452.3" maskUnits="userSpaceOnUse"><g filter="url(#fn6720ffcefdmv)"><defs><path id="fn6720ffcefdmx" d="M577.1 464.8h60.7v60.8h-60.7z" transform="rotate(134.789 607.45 495.209)"></path></defs><clipPath id="fn6720ffcefdmz" clip-path="url(#fn6720ffcefdmw)"><use width="100%" height="100%" overflow="visible" xlink:href="#fn6720ffcefdmx"></use></clipPath><linearGradient id="fn6720ffcefdmy" x1="-6.295" x2="-5.295" y1="901.142" y2="901.142" gradientTransform="scale(48.5004 -48.5004) rotate(45.213 1097.764 467.326)" gradientUnits="userSpaceOnUse"><stop offset="0" stop-color="#fff"></stop><stop offset=".27" stop-color="#fff"></stop><stop offset=".333" stop-color="#f4f4f4"></stop><stop offset=".446" stop-color="#d5d5d5"></stop><stop offset=".595" stop-color="#a4a4a4"></stop><stop offset=".774" stop-color="#606060"></stop><stop offset=".978" stop-color="#0a0a0a"></stop><stop offset="1"></stop></linearGradient><path fill="url(#fn6720ffcefdmy)" d="M521.6 495.5l85.5-86.1 86.2 85.5-85.5 86.2z" clip-path="url(#fn6720ffcefdmz)"></path></g></mask><linearGradient id="fn6720ffcefdmA" x1="-6.295" x2="-5.295" y1="901.142" y2="901.142" gradientTransform="scale(48.5004 -48.5004) rotate(45.213 1097.764 467.326)" gradientUnits="userSpaceOnUse"><stop offset="0" stop-color="#ea561f"></stop><stop offset=".27" stop-color="#ea561f"></stop><stop offset="1" stop-color="#e9531e"></stop></linearGradient><path fill="url(#fn6720ffcefdmA)" d="M564.5 495.4l42.8-43.1 43.1 42.8-42.8 43.1z" clip-path="url(#fn6720ffcefdmw)" mask="url(#fn6720ffcefdmB)"></path></g><g clip-path="url(#fn6720ffcefdmb)"><defs><path id="fn6720ffcefdmC" d="M887.4 418.9c5.7 5.6 9.9 12.7 11.9 20.6h19.2c-2.3-13.2-8.7-25-18-34l-13.1 13.4z"></path></defs><clipPath id="fn6720ffcefdmE"><use width="100%" height="100%" overflow="visible" xlink:href="#fn6720ffcefdmC"></use></clipPath><linearGradient id="fn6720ffcefdmD" x1="-.999" x2=".001" y1="913.176" y2="913.176" gradientTransform="scale(-23.4055 23.4055) rotate(-59.808 -797.721 498.756)" gradientUnits="userSpaceOnUse"><stop offset="0" stop-color="#006fb9"></stop><stop offset="1" stop-color="#0078c0"></stop></linearGradient><path fill="url(#fn6720ffcefdmD)" d="M895.3 453.1l-22.7-39 38-22.1 22.7 38.9z" clip-path="url(#fn6720ffcefdmE)"></path></g><g clip-path="url(#fn6720ffcefdmb)"><defs><path id="fn6720ffcefdmF" d="M855.9 387.5l.2 18.8h.4c12.2 0 23.2 4.9 31.2 12.9l13.3-13.3c-11.4-11.4-27.1-18.4-44.5-18.4h-.6"></path></defs><clipPath id="fn6720ffcefdmH"><use width="100%" height="100%" overflow="visible" xlink:href="#fn6720ffcefdmF"></use></clipPath><linearGradient id="fn6720ffcefdmG" x1="5.027" x2="6.027" y1="907.727" y2="907.727" gradientTransform="scale(-33.6988 33.6988) rotate(-22.46 -2266.106 539.214)" gradientUnits="userSpaceOnUse"><stop offset="0" stop-color="#0078c0"></stop><stop offset="1" stop-color="#0085ca"></stop></linearGradient><path fill="url(#fn6720ffcefdmG)" d="M894.4 435.1l-49.7-20.6 17.8-42.9 49.6 20.5z" clip-path="url(#fn6720ffcefdmH)"></path></g><g clip-path="url(#fn6720ffcefdmb)"><defs><path id="fn6720ffcefdmI" d="M811.6 406.3l13.4 13.1c8-8.1 19.1-13.2 31.4-13.2v-18.8c-17.5.1-33.4 7.3-44.8 18.9"></path></defs><clipPath id="fn6720ffcefdmK"><use width="100%" height="100%" overflow="visible" xlink:href="#fn6720ffcefdmI"></use></clipPath><linearGradient id="fn6720ffcefdmJ" x1="-8.928" x2="-7.928" y1="898.198" y2="898.198" gradientTransform="scale(34.1146 -34.1146) rotate(23.063 2238.12 523.923)" gradientUnits="userSpaceOnUse"><stop offset="0" stop-color="#0091d0"></stop><stop offset="1" stop-color="#0085ca"></stop></linearGradient><path fill="url(#fn6720ffcefdmJ)" d="M800.1 392.4l49.5-21 18.4 43.2-49.5 21z" clip-path="url(#fn6720ffcefdmK)"></path></g><g clip-path="url(#fn6720ffcefdmb)"><defs><path id="fn6720ffcefdmL" d="M793.6 450.4v.5l18.8-.2v-.4c0-12.2 4.9-23.2 12.9-31.2L812 405.9c-11.4 11.4-18.4 27.1-18.4 44.5"></path></defs><clipPath id="fn6720ffcefdmN"><use width="100%" height="100%" overflow="visible" xlink:href="#fn6720ffcefdmL"></use></clipPath><linearGradient id="fn6720ffcefdmM" x1="-7.797" x2="-6.797" y1="905.043" y2="905.043" gradientTransform="scale(33.4723 -33.4723) rotate(67.38 696.858 469.682)" gradientUnits="userSpaceOnUse"><stop offset="0" stop-color="#009dd7"></stop><stop offset="1" stop-color="#0091d0"></stop></linearGradient><path fill="url(#fn6720ffcefdmM)" d="M777.6 444.3l20.7-49.6 43 17.9-20.7 49.6z" clip-path="url(#fn6720ffcefdmN)"></path></g><g clip-path="url(#fn6720ffcefdmb)"><defs><path id="fn6720ffcefdmO" d="M793.6 450.4c0 17.6 7.2 33.4 18.8 44.8l13.1-13.4c-8.1-8-13.2-19.1-13.2-31.4h-18.7z"></path></defs><clipPath id="fn6720ffcefdmQ"><use width="100%" height="100%" overflow="visible" xlink:href="#fn6720ffcefdmO"></use></clipPath><linearGradient id="fn6720ffcefdmP" x1="1.794" x2="2.794" y1="891.001" y2="891.001" gradientTransform="scale(33.8892 -33.8892) rotate(-66.774 -673.427 422.195)" gradientUnits="userSpaceOnUse"><stop offset="0" stop-color="#009dd7"></stop><stop offset="1" stop-color="#00a9dd"></stop></linearGradient><path fill="url(#fn6720ffcefdmP)" d="M820.6 438.8l21.2 49.4-43.2 18.6-21.2-49.5z" clip-path="url(#fn6720ffcefdmQ)"></path></g><g clip-path="url(#fn6720ffcefdmb)"><defs><path id="fn6720ffcefdmR" d="M812 494.8c11.4 11.4 27.1 18.4 44.4 18.4h.5l-.2-18.8h-.4c-12.2 0-23.2-4.9-31.2-12.9L812 494.8z"></path></defs><clipPath id="fn6720ffcefdmT"><use width="100%" height="100%" overflow="visible" xlink:href="#fn6720ffcefdmR"></use></clipPath><linearGradient id="fn6720ffcefdmS" x1="-4.325" x2="-3.325" y1="893.401" y2="893.401" gradientTransform="scale(39.3914 -39.3914) rotate(-22.249 -2295.16 376.641)" gradientUnits="userSpaceOnUse"><stop offset="0" stop-color="#00a9dd"></stop><stop offset="1" stop-color="#70c5e9"></stop></linearGradient><path fill="url(#fn6720ffcefdmS)" d="M818.5 465.8l49.6 20.3-17.5 42.9-49.7-20.3z" clip-path="url(#fn6720ffcefdmT)"></path></g><g clip-path="url(#fn6720ffcefdmb)"><defs><path id="fn6720ffcefdmU" d="M856.5 494.5v18.8c20.3 0 38.4-9.6 49.9-24.6l-14.9-11.4c-8.1 10.4-20.8 17.2-35 17.2"></path></defs><clipPath id="fn6720ffcefdmW"><use width="100%" height="100%" overflow="visible" xlink:href="#fn6720ffcefdmU"></use></clipPath><defs><filter id="fn6720ffcefdmV" width="85.7" height="85.6" x="838.5" y="452.4" filterUnits="userSpaceOnUse"><feColorMatrix values="1 0 0 0 0 0 1 0 0 0 0 0 1 0 0 0 0 0 1 0"></feColorMatrix></filter></defs><mask id="fn6720ffcefdmab" width="85.7" height="85.6" x="838.5" y="452.4" maskUnits="userSpaceOnUse"><g filter="url(#fn6720ffcefdmV)"><defs><path id="fn6720ffcefdmX" d="M851.3 464.7h60.2v61.1h-60.2z" transform="rotate(132.22 881.353 495.214)"></path></defs><clipPath id="fn6720ffcefdmZ" clip-path="url(#fn6720ffcefdmW)"><use width="100%" height="100%" overflow="visible" xlink:href="#fn6720ffcefdmX"></use></clipPath><linearGradient id="fn6720ffcefdmY" x1="-5.503" x2="-4.503" y1="901.255" y2="901.255" gradientTransform="scale(54.9624 -54.9624) rotate(47.779 1033.15 469.727)" gradientUnits="userSpaceOnUse"><stop offset="0" stop-color="#fff"></stop><stop offset=".27" stop-color="#fff"></stop><stop offset=".333" stop-color="#f4f4f4"></stop><stop offset=".446" stop-color="#d5d5d5"></stop><stop offset=".595" stop-color="#a4a4a4"></stop><stop offset=".774" stop-color="#606060"></stop><stop offset=".978" stop-color="#0a0a0a"></stop><stop offset="1"></stop></linearGradient><path fill="url(#fn6720ffcefdmY)" d="M795.9 499.4l81.3-89.6 89.7 81.3-81.4 89.6z" clip-path="url(#fn6720ffcefdmZ)"></path></g></mask><linearGradient id="fn6720ffcefdmaa" x1="-5.503" x2="-4.503" y1="901.255" y2="901.255" gradientTransform="scale(54.9624 -54.9624) rotate(47.779 1033.15 469.727)" gradientUnits="userSpaceOnUse"><stop offset="0" stop-color="#70c5e9"></stop><stop offset=".27" stop-color="#70c5e9"></stop><stop offset="1" stop-color="#70c5e9"></stop></linearGradient><path fill="url(#fn6720ffcefdmaa)" d="M838.5 497l40.5-44.6 45.2 41.1-40.4 44.5z" clip-path="url(#fn6720ffcefdmW)" mask="url(#fn6720ffcefdmab)"></path></g><g clip-path="url(#fn6720ffcefdmb)"><defs><path id="fn6720ffcefdmac" d="M937.3 414.5h18.8v56.7h-18.8z"></path></defs><clipPath id="fn6720ffcefdmae"><use width="100%" height="100%" overflow="visible" xlink:href="#fn6720ffcefdmac"></use></clipPath><linearGradient id="fn6720ffcefdmad" x1="3.129" x2="4.129" y1="895.448" y2="895.448" gradientTransform="matrix(0 56.26 56.26 0 -49431.336 238.882)" gradientUnits="userSpaceOnUse"><stop offset="0" stop-color="#009879"></stop><stop offset="1" stop-color="#73ba64"></stop></linearGradient><path fill="url(#fn6720ffcefdmad)" d="M937.3 414.5h18.8v56.7h-18.8z" clip-path="url(#fn6720ffcefdmae)"></path></g><g clip-path="url(#fn6720ffcefdmb)"><defs><path id="fn6720ffcefdmaf" d="M937.3 470.9c0 19.8 9.2 31.7 25.2 42.2l10.7-15.4c-10.9-7.5-17.2-13.3-17.2-26.8h-18.7z"></path></defs><clipPath id="fn6720ffcefdmah"><use width="100%" height="100%" overflow="visible" xlink:href="#fn6720ffcefdmaf"></use></clipPath><defs><filter id="fn6720ffcefdmag" width="77.4" height="77.5" x="916.5" y="453.3" filterUnits="userSpaceOnUse"><feColorMatrix values="1 0 0 0 0 0 1 0 0 0 0 0 1 0 0 0 0 0 1 0"></feColorMatrix></filter></defs><mask id="fn6720ffcefdmam" width="77.4" height="77.5" x="916.5" y="453.3" maskUnits="userSpaceOnUse"><g filter="url(#fn6720ffcefdmag)"><defs><path id="fn6720ffcefdmai" d="M927.9 464.3h54.6v55.4h-54.6z" transform="rotate(-140.489 955.253 492.018)"></path></defs><clipPath id="fn6720ffcefdmak" clip-path="url(#fn6720ffcefdmah)"><use width="100%" height="100%" overflow="visible" xlink:href="#fn6720ffcefdmai"></use></clipPath><linearGradient id="fn6720ffcefdmaj" x1="-3.844" x2="-2.844" y1="886.479" y2="886.479" gradientTransform="scale(22.2616 -22.2616) rotate(-39.508 -1245.416 367.336)" gradientUnits="userSpaceOnUse"><stop offset="0" stop-color="#fff"></stop><stop offset=".1" stop-color="#fafafa"></stop><stop offset=".223" stop-color="#eaeaea"></stop><stop offset=".36" stop-color="#d1d1d1"></stop><stop offset=".506" stop-color="#aeaeae"></stop><stop offset=".659" stop-color="gray"></stop><stop offset=".818" stop-color="#494949"></stop><stop offset=".98" stop-color="#090909"></stop><stop offset="1"></stop></linearGradient><path fill="url(#fn6720ffcefdmaj)" d="M947.9 415.3l84.1 69.3-69.4 84.2-84.1-69.4z" clip-path="url(#fn6720ffcefdmak)"></path></g></mask><linearGradient id="fn6720ffcefdmal" x1="-3.844" x2="-2.844" y1="886.479" y2="886.479" gradientTransform="scale(22.2616 -22.2616) rotate(-39.508 -1245.416 367.336)" gradientUnits="userSpaceOnUse"><stop offset="0" stop-color="#73ba64"></stop><stop offset="1" stop-color="#73ba64"></stop></linearGradient><path fill="url(#fn6720ffcefdmal)" d="M951.8 453.3l42.1 34.7-35.2 42.8-42.2-34.8z" clip-path="url(#fn6720ffcefdmah)" mask="url(#fn6720ffcefdmam)"></path></g><g clip-path="url(#fn6720ffcefdmb)"><defs><path id="fn6720ffcefdman" d="M682.1 404.7v38.1c2.8-15.1 16.2-36.5 41.8-36.5h1.4v-18.8h-1.4c-16.4 0-31.1 6.6-41.8 17.2"></path></defs><clipPath id="fn6720ffcefdmap"><use width="100%" height="100%" overflow="visible" xlink:href="#fn6720ffcefdman"></use></clipPath><linearGradient id="fn6720ffcefdmao" x1="-5.934" x2="-4.934" y1="895.921" y2="895.921" gradientTransform="matrix(43.1541 0 0 -43.1541 938.139 39077.852)" gradientUnits="userSpaceOnUse"><stop offset="0" stop-color="#e60064"></stop><stop offset="1" stop-color="#e54c88"></stop></linearGradient><path fill="url(#fn6720ffcefdmao)" d="M682.1 387.5h43.2v55.2h-43.2z" clip-path="url(#fn6720ffcefdmap)"></path></g><g clip-path="url(#fn6720ffcefdmb)"><defs><path id="fn6720ffcefdmaq" d="M724.4 387.5v18.8c18.1.3 32.8 14.7 32.8 33.2v6.2H776v-6.2c0-28.8-23.2-51.7-51.6-52z"></path></defs><clipPath id="fn6720ffcefdmas"><use width="100%" height="100%" overflow="visible" xlink:href="#fn6720ffcefdmaq"></use></clipPath><defs><filter id="fn6720ffcefdmar" width="77.5" height="81.1" x="711.4" y="376" filterUnits="userSpaceOnUse"><feColorMatrix values="1 0 0 0 0 0 1 0 0 0 0 0 1 0 0 0 0 0 1 0"></feColorMatrix></filter></defs><mask id="fn6720ffcefdmax" width="77.5" height="81.1" x="711.4" y="376" maskUnits="userSpaceOnUse"><g filter="url(#fn6720ffcefdmar)"><defs><path id="fn6720ffcefdmat" d="M716 384.8h68.4v63.5H716z" transform="rotate(-103.239 750.199 416.61)"></path></defs><clipPath id="fn6720ffcefdmav" clip-path="url(#fn6720ffcefdmas)"><use width="100%" height="100%" overflow="visible" xlink:href="#fn6720ffcefdmat"></use></clipPath><linearGradient id="fn6720ffcefdmau" x1="2.902" x2="3.902" y1="892.563" y2="892.563" gradientTransform="scale(38.8392 -38.8392) rotate(-76.759 -559.023 430.703)" gradientUnits="userSpaceOnUse"><stop offset="0" stop-color="#fff"></stop><stop offset="1"></stop></linearGradient><path fill="url(#fn6720ffcefdmau)" d="M784.9 358.8l22.1 94.1-91.5 21.5-22.2-94.1z" clip-path="url(#fn6720ffcefdmav)"></path></g></mask><linearGradient id="fn6720ffcefdmaw" x1="2.902" x2="3.902" y1="892.563" y2="892.563" gradientTransform="scale(38.8392 -38.8392) rotate(-76.759 -559.023 430.703)" gradientUnits="userSpaceOnUse"><stop offset="0" stop-color="#e54c88"></stop><stop offset="1" stop-color="#ea4a87"></stop></linearGradient><path fill="url(#fn6720ffcefdmaw)" d="M773.3 376l15.6 66.6-61.8 14.6-15.7-66.6z" clip-path="url(#fn6720ffcefdmas)" mask="url(#fn6720ffcefdmax)"></path></g><g clip-path="url(#fn6720ffcefdmb)"><defs><path id="fn6720ffcefdmay" d="M757.2 445.7H776h-18.8z"></path></defs><clipPath id="fn6720ffcefdmaA"><use width="100%" height="100%" overflow="visible" xlink:href="#fn6720ffcefdmay"></use></clipPath><defs><filter id="fn6720ffcefdmaz" width="18.8" height="3.6" x="757.2" y="443.8" filterUnits="userSpaceOnUse"><feColorMatrix values="1 0 0 0 0 0 1 0 0 0 0 0 1 0 0 0 0 0 1 0"></feColorMatrix></filter></defs><mask id="fn6720ffcefdmaF" width="18.8" height="3.6" x="757.2" y="443.8" maskUnits="userSpaceOnUse"><g filter="url(#fn6720ffcefdmaz)"><defs><path id="fn6720ffcefdmaB" d="M765.7 436.3h1.8V455h-1.8z" transform="rotate(-95.607 766.581 445.68)"></path></defs><clipPath id="fn6720ffcefdmaD" clip-path="url(#fn6720ffcefdmaA)"><use width="100%" height="100%" overflow="visible" xlink:href="#fn6720ffcefdmaB"></use></clipPath><linearGradient id="fn6720ffcefdmaC" x1="15.36" x2="16.36" y1="872.175" y2="872.175" gradientTransform="scale(9.777 -9.777) rotate(-84.394 -458.755 379.063)" gradientUnits="userSpaceOnUse"><stop offset="0" stop-color="#fff"></stop><stop offset="1"></stop></linearGradient><path fill="url(#fn6720ffcefdmaC)" d="M775.8 442l.5 5.5-18.9 1.8-.6-5.4z" clip-path="url(#fn6720ffcefdmaD)"></path></g></mask><linearGradient id="fn6720ffcefdmaE" x1="15.36" x2="16.36" y1="872.175" y2="872.175" gradientTransform="scale(9.777 -9.777) rotate(-84.394 -458.755 379.063)" gradientUnits="userSpaceOnUse"><stop offset="0" stop-color="#ea4a87"></stop><stop offset="1" stop-color="#ea4a87"></stop></linearGradient><path fill="url(#fn6720ffcefdmaE)" d="M775.8 443.8l.2 1.9-18.6 1.8-.2-1.8z" clip-path="url(#fn6720ffcefdmaA)" mask="url(#fn6720ffcefdmaF)"></path></g><path fill="#bcbcb6" d="M663.3 392.6h18.8v65.7h-18.8zm274-43.8h18.8v65.7h-18.8zm-180.1 96.9H776v65.7h-18.8zm-178.3-6.2h65.7v18.8h-65.7zm274 0h65.7v18.8h-65.7z" clip-path="url(#fn6720ffcefdmb)"></path></g></svg>