<svg xmlns="http://www.w3.org/2000/svg" viewBox="0.18000030517578125 0.28418004512786865 955.2286987304688 248.3885040283203"><g fill="none"><path fill="#176B67" d="M225.463 7.665l.002-.116c.002-.121.003-.244.001-.37l-.004-.175c.006.228.006.448 0 .661zm-.217-3.203l-.03-.228c.124.935.212 1.796.24 2.577v-.014a26.073 26.073 0 00-.21-2.335zM297.96 50.31c15.42 15.7 24.74 36 27.37 58.35 5.76 48.79-13.29 85.67-55.09 110.91-15.56 9.4-31.72 17.8-47.23 27.27-8.43 5.14-13.66-1.86-18.9-4.79-44.26-24.77-88.11-50.28-132-75.63-23.57-13.61-47.06-27.35-71.93-41.81 15.75-9.08 30.48-17.56 45.19-26.07l150.7-87.14a55.37 55.37 0 015.48-2.409.052.052 0 01-.01-.011c3.86-2.41 7.83-4.68 11.57-7.27 4.8-3.34 8.27-.04 12.04 2.05 25.23 14.08 52.38 25.74 72.81 46.55z"></path><path fill="#030303" d="M551.81 183.49c-10.92-.56-25.37 1.28-39.69-.88-23.19-3.49-32.09-12.08-34.14-35.2-1.44-16.35-1.67-32.9.4-49.27 2.25-17.78 10.56-28.24 27.95-30.31 32.41-3.85 65.11-4.63 97.42 1.17 16.4 2.94 27.16 22.29 23 38.1-.83 3.15-3 2.28-4.77 2.31-6.76.12-13.53-.09-20.28.08-5.89.15-11.4 1.22-12.24-7.79-.45-4.78-6.49-5.77-10.81-5.85-15.57-.29-31.17-.62-46.72.1-11.63.55-16.78 6.28-17.43 18-.55 8.5-.42 17.03.39 25.51 1 9.46 5.7 13.65 15.15 13.87 16.15.38 32.33.27 48.49.1 7.62-.08 13.31-3.13 13.3-11.84 0-4 2.22-4 5-4 6.76.05 13.52 0 20.28 0 11.37 0 11.37 0 10.9 11.53-.94 22.83-11.63 33.3-35.76 34.21-12.28.54-24.64.16-40.44.16zm169.09.04c-13.15-.79-29.06 1.46-44.81-1.62-19.12-3.74-28.79-14.13-29.56-33.66-.63-15.83-.62-31.73 0-47.56.75-19 11.28-31.18 30-33.27a387.73 387.73 0 0190.53.34c20.78 2.56 29.79 16.26 27.7 37.61-.37 3.76-1.82 4.19-4.88 4.13-6.76-.15-13.52 0-20.27-.07-5.14-.05-10.75 2-11.48-7.07-.44-5.55-7.17-6.49-12.14-6.59-14.69-.29-29.4-.51-44.07 0-13 .46-17.48 5.23-18.86 18.39a110.67 110.67 0 00.25 24.61c1.16 9.71 5.57 14.38 15.33 14.61 16.15.39 32.32.23 48.48.07 7.24-.06 12.63-3 13.25-11.09.29-3.68 1.65-4.93 5.42-4.8 8.51.28 17 .22 25.56 0 3.55-.09 4.93.6 5.19 4.69 1.76 27.42-10 40.59-37.72 41.21-11.74.29-23.5.07-37.92.07zM875.49 67.12c15.35 1.13 34.21-1.94 52.88 1.52 14.26 2.65 22.89 11 25.47 25.43a89.51 89.51 0 01.18 32.39c-3.44 18.29-13.78 26.92-32.3 27.07-20.57.17-41.15.23-61.71-.1-5.66-.09-7.56 1.29-7.34 7.18.27 6.94 3.23 16.45-1.22 20.2-4.18 3.51-13.36 1.2-20.34 1.25-13.85.08-13.86 0-13.86-13.61 0-31.15.23-62.31-.19-93.45-.09-6.81 1.91-8.24 8.32-8 15.56.42 31.15.12 50.11.12zm6.55 57.3v.07c7.91 0 15.83.13 23.75 0 9.06-.19 12.35-3.72 12.62-13.1.31-10.38-2.48-14.64-11.63-14.92-16.4-.49-32.83-.14-49.25-.15-2.42 0-4.8-.14-4.7 3.46.22 7.9-1.92 16.89 1.24 23.31 2.06 4.17 11.94.92 18.29 1.33 3.22.15 6.45-.02 9.68-.02v.02zm-446.81.27l-46.533 26.51.003.01c-14.92 9.34-30.57 17.32-46.13 25.48-5.4 2.82-9.46.53-13.61-2.44-4.452-3.194-1.12-6.61-.32-9.964l.38-1.664c3.7-16.12 8.109-32.18 3.84-48.992-.053-.224-3.361-18.263-7.793-30.998-5.68-16.318-12.757-28.221-12.437-28.592l122.6 70.65zM377.82 148l-3.89 2.166c-12.337 6.845-24.852 13.597-38.307 20.921l-.003.013 10.447-5.687c10.964-5.96 21.403-11.623 31.773-17.413 2.808-1.556 5.225-2.31 7.177-1.573-1.96-.757-4.388 0-7.197 1.573z"></path></g></svg>