<svg xmlns="http://www.w3.org/2000/svg" viewBox="214.99996948242188 16 170.00003051757812 215.00003051757812"><g fill="none"><path fill="#000" d="M359.493 168.477h3.632c7.268 0 12.732 1.258 16.403 3.798 3.599 2.544 5.472 6.341 5.472 11.317 0 4.536-1.469 8.112-4.406 10.766-2.863 2.766-7.045 4.35-12.33 4.757a11.918 11.918 0 013.818 3.578c.916 1.36 1.649 3.35 2.199 6.116l4.514 20.72H362.8l-3.306-15.113v-20.648c2.388-.291 4.293-.96 5.725-1.952 2.127-1.367 3.045-3.358 3.045-5.787 0-2.14-.623-3.726-2.09-4.755-1.36-1.071-3.451-1.587-6.204-1.587h-.476v-11.21zm-19.3 0h19.3v11.207h-5.944l-2.823 14.268h5.758c1.105 0 2.093-.077 3.008-.187v20.649l-.993-4.576c-.436-1.657-1.058-2.947-2.2-3.572-1.063-.74-2.752-1.068-5.06-1.068H348.3l-5.063 24.328H329.48v-10.029l10.713-51.02zm-10.712 8.553l2.091-6.342c-.699-.22-1.393-.439-2.09-.663v7.005zm0 52.496h-2.093l2.093-10.029v10.029zm0-59.501c-3.008-.923-5.799-1.548-8.627-2.063-3.484-.665-6.749-.962-9.944-.962-6.31 0-11.7.853-16.215 2.616-4.626 1.703-8.621 4.351-12.183 8.037-2.975 3.062-5.286 6.786-6.935 11.098a37.294 37.294 0 00-2.276 9.066v9.145c.77 6.787 3.341 12.237 7.742 16.298 5.358 5.084 12.804 7.74 22.382 7.74a51.85 51.85 0 008.115-.662c2.674-.408 5.535-.923 8.581-1.662l1.47-14.083c-2.534 1.18-4.952 2.14-7.377 2.765-2.387.626-4.805.96-7.12.96-5.356 0-9.538-1.4-12.694-4.24-3.048-2.725-4.625-6.638-4.625-11.388 0-7.373 2.097-13.199 6.203-17.4 4.073-4.131 9.762-6.233 17.1-6.233 2.712 0 5.247.296 7.666 1.032a22.25 22.25 0 016.715 2.952l2.02-6.013v-7.003h.002zm-56.179 1.476v-.883c.072.036.186.036.258.07l-.258.813zm0-.883v.883l-3.745 11.54c-2.2-1.367-4.401-2.326-6.82-2.952-2.313-.736-4.957-1.032-7.67-1.032-7.267 0-13.061 2.102-17.134 6.234-4.111 4.2-6.13 10.026-6.13 17.399 0 4.75 1.468 8.661 4.624 11.388 3.083 2.84 7.376 4.24 12.622 4.24 2.42 0 4.845-.334 7.154-.96 2.423-.626 4.957-1.585 7.485-2.765l-1.578 14.083c-2.97.74-5.907 1.254-8.62 1.662a51.675 51.675 0 01-8.11.662c-9.575 0-16.914-2.656-22.307-7.74-5.36-4.943-8.073-12.016-8.073-21.015 0-4.607.842-9.144 2.53-13.493 1.654-4.313 3.962-8.037 6.932-11.098 3.56-3.684 7.672-6.334 12.182-8.037 4.516-1.764 9.98-2.616 16.22-2.616 3.227 0 6.603.298 9.98.962a69.193 69.193 0 0110.458 2.655zm0 27.2c-.185 1.439-.255 2.915-.255 4.427 0 1.626.068 3.21.255 4.719v-9.146z"></path><path fill="#B30000" d="M301.487 29.01c10.228 4.753 17.134 13.67 17.134 24.068 0 10.299-6.867 19.399-17.134 23.784V29.009zm0 103.712c11.142 4.095 24.63 3.77 34.936-1.12a63.796 63.796 0 01-16.154 7.572c-5.776 1.704-11.808 2.719-17.729 2.794l-1.017.03h-.036v-9.276zm0-3.295c4.932 2.174 10.67 3.402 16.81 3.402 28.104 0 46.415-29.072 46.703-54.445-.22-20.445-10.23-38.568-25.614-49.842 9.462 8.81 15.933 24.106 15.933 42.484 0 18.053-11.294 47.375-35.6 47.375-7.232 0-13.23-4.892-13.556-12.211-.332-10.077 7.09-10.95 13.961-14.753 11.952-6.491 16.993-12.548 21.088-25.088 6.25-19.646-8.591-50.026-39.33-50.349h-.395v9.207c11.915 4.31 21.23 13.74 21.23 28.091 0 12.726-8.517 22.187-20.285 27.186-.326.108-.62.255-.945.4v48.543zm-37.9.031c-2.196-1.591-4.241-3.332-6.217-5.183-11.838-11.343-19.225-27.186-19.37-44.803.222-25.373 18.348-54.118 46.345-54.118 6.248 0 12.095 1.3 17.142 3.655v47.853c-.078.037-.148.07-.257.107-11.915 5.115-20.982 14.752-20.982 27.622 0 14.355 9.32 23.784 21.238 28.131V142c-31.031-.323-45.983-30.81-39.618-50.456 3.98-12.655 9.026-18.6 20.975-25.197 6.982-3.732 14.329-4.677 13.997-14.645-.218-7.466-6.248-12.325-13.557-12.325-24.305 0-35.6 29.397-35.6 47.489.001 18.27 6.435 33.752 15.904 42.592zM301.487 16h-.225c-12.822.031-24.737 3.841-34.717 10.399 10.306-4.892 23.792-5.253 34.942-1.192V16zm0 64.884c-9.942 4.677-17.034 14.575-17.034 24.76 0 10.513 6.836 19.213 17.034 23.783V80.884z"></path></g></svg>