<svg xmlns="http://www.w3.org/2000/svg" viewBox="-0.05016364902257919 0.8688923120498657 1799.7301025390625 1058.3812255859375"><g fill="none"><path fill="#015387" d="M1680.27 408.33c3.49-12.63 6.77-25.28 7.75-38.44a140 140 0 00-11-66.59c-12.9-30-33.58-54.18-57.4-75.94-21.13-19.3-44.49-35.59-68.85-50.5-1.84-1.13-3.63-2.35-5.45-3.53.92-1.47 2-1 2.95-1 25.42 0 50.87-.57 76.25 1.54 33.2 2.75 65.91 7.85 97 20.68 18.39 7.6 35.09 17.76 48.77 32.45 15 16.07 23.74 35.2 27.82 56.6.76 4 .32 8.11 1.57 12v40.65a1.62 1.62 0 00-1.13 1.27c-4.19 31.15-19 56.61-41.64 77.91-21.69 20.44-47.66 32.79-76.19 40.27-6.11 1.61-12.2 3.43-18.57 3.83 4.92-10.35 10.16-20.57 13.56-31.57 1.96-6.43 4.44-12.75 4.56-19.63zm-344.96 650.92c-2.4-2.07-5.65-2-8.38-3.3-2-1-2.33-2-1.33-3.8.6-1.07 1.18-2.16 1.73-3.26.76-1.51 1.73-2.06 3.45-1.28a42.44 42.44 0 009.48 2.55 12 12 0 006.65-.55c2.46-.91 3.6-2.6 3.27-5.21a4.14 4.14 0 00-4.07-3.89 14.44 14.44 0 00-4.87.18c-2.86.73-4.17-1.16-5.55-2.89-1.69-2.12.45-3.35 1.41-4.72 1.73-2.5 3.65-4.87 5.44-7.23-1.12-1.8-2.76-1.45-4-1.72-20.11-4.3-31.82-17-36.06-36.67a80.27 80.27 0 014.81-49.44c10.75-25.14 33.83-39.38 61.16-38.08a81.56 81.56 0 0117 2.39c21.28 5.62 32.36 24.45 31.06 44.5a6.07 6.07 0 01-1.66.48h-31.93c-1.59-1.66-.87-3.66-1.29-5.36-1.78-7.38-6.13-11.31-13.7-11.9-9.77-.77-17.09 3.42-22.33 11.44-5.24 8.02-7 17-7.65 26.27a41.32 41.32 0 001.25 13.43c2 7.27 6.07 12.62 13.93 13.86 8.38 1.32 15.44-1 20.35-8.35a28.66 28.66 0 003.34-7.24c.47-1.49 1-2.56 2.86-2.55h33.76c-2.27 20.45-16.47 40.81-41.89 46.48a54.22 54.22 0 01-12.78 1.65c-4.59-.08-6.93 2.5-9.16 6.7 2.36.12 4.1.19 5.84.31 6.5.47 10.55 3.45 12 8.76 1.66 6.27-.62 11.87-6.07 15.43-1.65 1.08-4 1-5.07 3l-21 .01zM669.24 551.87a200.44 200.44 0 01-10.59 23.74 434.81 434.81 0 01-88.5 118.92 12.73 12.73 0 01-9.13 4c-52.73 1.43-105.46 2.36-158.2 2.294-53.78-.074-107.53-1.264-161.27-2.764-25.23-.7-50.43-2.18-75.65-3-4-.13-6.31-1.68-8.63-4.57-24.05-29.87-39.08-63.83-46.3-101.37-6.33-32.93-6.66-66.07-2.65-99.26 13-107.23 63.58-193.26 148-259.55 42.36-33.28 91.08-53.23 144.06-62.92 32.89-6 66.05-7.4 99.33-5.65 32.29 1.71 63.93 7.15 94.25 19 58.43 22.87 94 65.26 108.25 126 6.83 29.2 8.24 58.84 7.19 88.68-.16 4.37-.24 4.41-5.24 4.57-17.23.54-34.46 1-51.68 1.57-37.74 1.22-75.477 2.46-113.21 3.72-4.3.14-8.62.12-12.92.41-2.87.2-3.4-.89-3.17-3.58 1.09-13.09 1.71-26.2.52-39.34-.89-9.84-2.57-19.51-6.06-28.79-9.86-26.18-29-40-56.68-42-29.22-2.11-53.25 8.82-73.38 29.48-10.68 11-19.18 23.5-26.72 36.73a445.1 445.1 0 00-53 148 310.82 310.82 0 00-4.71 52.72 100 100 0 005.59 33.82c8.72 24.09 26.13 37.71 51.19 41.47 34.94 5.25 64.27-5.72 88.24-31.47 15.16-16.28 26.18-35.14 34.78-55.52a38.1 38.1 0 002-5.14c.85-3.36 2.58-4.44 6.19-4.11 14.1 1.27 28.23 2.13 42.35 3.23 18.2 1.41 36.39 2.92 54.59 4.36 26.76 2.1 53.54 4.17 81.16 6.32zm.4 141.72c2.57-11.13 4.9-21.3 7.27-31.46 17.453-74.653 34.903-149.283 52.35-223.89 19.547-83.62 39.087-167.233 58.62-250.84a110.46 110.46 0 002.45-10.79c.48-3.74 2.35-4.83 5.77-4.35 1.022.07 2.048.07 3.07 0h477.66c1.09 2.51-.07 4.37-.51 6.27-9.767 42.12-19.557 84.237-29.37 126.35-1.31 5.62-1.34 5.63-7.15 5.63H955.94c-9.72 0-7.4-1.15-10.09 7.73-7.13 23.54-14.14 47.11-21.2 70.67a19.49 19.49 0 00-1.38 6.43h245.51c.88 2.72.08 4.86-.34 7-7.6 38.2-15.207 76.393-22.82 114.58-.12.61-.16 1.23-.29 1.83-1 4.75-1 4.8-5.94 4.81H902.98c-4.8.07-4.83.07-6 4.84a90651.126 90651.126 0 00-18.71 73.27c-2.07 8.1-4.15 16.21-6.37 24.89h273.75l.12 1.33c-156.16 37.56-314.98 55.89-476.13 65.7zm903.57-402.66c-.21 1.79-.41 3.58-.65 5.75-13.64-3.16-27.18-2.3-40.66-2.35-22.17-.07-44.33 0-66.5 0-5.7 0-5.67 0-7 5.83-7.5 32.76-15.013 65.52-22.54 98.28-.45 2-1.17 3.93-.82 6 1 1 2.29.73 3.46.72 31.61 0 63.23.3 94.83-.22 18-.3 35.47-3.48 51.38-12.79 5.15-3 9.37-7.06 13.74-11.17.93 1.95 0 3.19-.61 4.44-1.92 4.31-3.72 8.68-5.93 12.84-13.35 25.21-31.7 46.12-54.3 63.51-16.62 12.79-34.29 23.93-52.15 34.82-9.11 5.56-18.45 10.7-27.7 16a16.4 16.4 0 01-8.7 2.36c-11.29-.15-22.58-.07-33.87 0-5.36 0-5.38 0-6.74 5.42-1.31 5.16-2.79 10.3-3.75 15.53-.6 3.24-2.27 4.92-5.13 6.21-15.71 7.05-31.5 13.91-47.44 20.4a1268.25 1268.25 0 01-127.16 44c-6.08 1.75-12.11 3.71-18 5.52-1.25-1.39-.65-2.55-.38-3.73 23.54-102.473 47.07-204.94 70.59-307.4 9.4-40.953 18.773-81.907 28.12-122.86 1.27-5.55.25-5.75 7.09-5.74h78.82c2.46 0 4.92-.16 7.37-.25 2.1.79 4.25 1.48 6.3 2.39a652.81 652.81 0 0179.9 42.08c23.91 14.86 46.77 31.13 67.07 50.75 7.64 7.37 15.36 14.75 21.36 23.66zm86.3 173.35c16.28 5.3 31.87 12.1 45.5 22.62 25.81 19.9 45.17 44.58 51.18 77.24 10.92 59.35-6.71 119.12-64 157.77-25 16.87-52.53 27.57-81.74 34.32-30.93 7.15-62.37 9.76-94 9.79-113.7.093-227.403.093-341.11 0-2 0-4.08.47-6.37-.74 5.693-24.667 11.4-49.363 17.12-74.09 13.06-2.56 26.13-5 39.17-7.68 41.95-8.47 83.77-17.48 124.64-30.4 14.047-4.453 28.09-8.913 42.13-13.38 2.25.1 4.5.29 6.75.29h73.8a245.94 245.94 0 0035-2.09c16-2.28 31.22-6.69 44.69-16 12-8.3 19.79-19.37 22.88-33.71a63 63 0 00-1.14-31 14.07 14.07 0 011.78-1.68c24.75-16.7 44.61-38.41 63.13-61.5 7.54-9.44 13.85-19.74 20.59-29.76z"></path><path fill="#F58424" d="M1573.21 290.93c-6-8.91-13.72-16.29-21.38-23.69-20.3-19.62-43.16-35.89-67.07-50.75a652.81 652.81 0 00-79.9-42.08c-2-.91-4.2-1.6-6.3-2.39-15.3-7.51-31.24-13.48-47.15-19.51-62.21-23.61-126-41.87-190.64-57.59-64.64-15.72-129.69-28.66-195.21-39.69a3701.597 3701.597 0 00-132.61-19.76c-28.47-3.68-57-6.73-85.54-9.9a2590.668 2590.668 0 00-119.52-10.49c-29.07-1.89-58.18-3.17-87.3-4.19-54.36-1.9-108.73-2.55-163.12-2.46-6.54 0-13.08-.11-19.61-.17l12.62-.69c13.93-.78 27.85-1.79 41.79-2.3 29.52-1.1 59.05-2.24 88.59-3.12C553.6.59 606.33.51 659.07 1.61c37.75.78 75.46 2.76 113.06 6.14 39.23 3.52 78.27 8.57 117.25 14.13a3198.792 3198.792 0 01199.28 34.84c83.15 17.33 165.45 37.86 246 65.16 42.57 14.44 84.62 30.32 124.57 51 38.62 20 74.59 44 105 75.56 17.25 17.91 31.41 37.92 39 62 5.6 17.74 6.92 35.69 2.46 54-3.2-27.95-14.54-52.18-32.48-73.51zm86.3 173.35c-6.74 10-13 20.32-20.62 29.77-18.52 23.09-38.38 44.8-63.13 61.5a14.07 14.07 0 00-1.78 1.68c-10.81 6.25-21.3 13-32.31 19-34.87 18.76-71.23 34.16-108.19 48.21-13.76 5.24-27.61 10.23-41.43 15.34-14.04 4.46-28.083 8.92-42.13 13.38-40.87 12.92-82.69 21.93-124.64 30.4-13 2.64-26.11 5.12-39.17 7.68-9.42 1.28-18.78 2.86-28.07 4.86-1.62.14-3.26.2-4.87.45-11.94 1.84-23.87 3.77-35.81 5.57-21.88 3.3-43.78 6.41-65.75 9-20.14 2.37-40.27 4.83-60.43 7-17.93 1.94-35.88 3.66-53.83 5.27-22.45 2-44.91 4-67.39 5.62-22.89 1.65-45.82 2.78-68.73 4.26-32.12 2.06-64.28 3.11-96.44 4.37-15.56.61-31.13 1-46.69 1.57-11.88 0-23.77-.19-35.64.14-25.6.7-51.21.45-76.82.37-12.7 0-25.39-.88-38.09-.41-.82-.09-1.63-.24-2.45-.25-38.55-.64-77.08-2.09-115.59-3.88-16-.74-32-1.59-47.91-2.72a5835.103 5835.103 0 01-74.81-5.78c-15.32-1.28-30.61-2.92-45.91-4.44-12.23-1.22-24.45-2.51-36.68-3.77-30.92-3.9-61.83-7.87-92.61-12.78-28.74-4.59-57.41-9.63-85.84-16a42.44 42.44 0 01-5.8-1.85c8.71.91 17.46 1.22 26.09 3 8.84 1.78 17.78 3.06 26.69 4.48 21.87 3.47 43.77 6.7 65.76 9.3 23.83 2.81 47.66 5.57 71.51 8.11a1359.999 1359.999 0 0044.73 4c28 2.11 56 4.19 84.1 5.91 20.47 1.25 41 2 61.48 2.81 49 1.91 98 2.69 147.11 2.69 37.35 0 74.7-.68 112-1.72 30.55-.85 61.1-2.2 91.63-3.72a3613.865 3613.865 0 0079.24-4.87c36.44-2.68 72.86-5.68 109.15-9.26 31.22-3.1 62.42-6.45 93.53-10.41 50-6.37 99.9-13.78 149.53-22.81 53.87-9.8 107.52-20.65 160.08-36.1 75.66-22.25 149.64-49.06 220-85.16 22.85-11.73 45.31-24.36 64.51-41.6 31.69-28.47 57.47-61.33 72.1-102a18 18 0 011.12-2.18c-.09 6.87-2.6 13.19-4.59 19.62-3.4 11-8.64 21.22-13.56 31.57l-2.65 4.78z"></path><path fill="#015387" d="M658.15 739.15c15.56-.52 31.13-1 46.69-1.57 32.16-1.26 64.32-2.31 96.44-4.37 22.91-1.48 45.84-2.61 68.73-4.26 22.48-1.63 44.94-3.62 67.39-5.62 17.95-1.61 35.9-3.33 53.83-5.27 20.16-2.18 40.29-4.64 60.43-7 22-2.59 43.87-5.7 65.75-9 11.94-1.8 23.87-3.73 35.81-5.57 1.61-.25 3.25-.31 4.87-.45l-11.74 53.43c-1 4.6-2.17 9.18-3.09 13.8-.4 2-1.3 2.87-3.3 2.77-1.43-.07-2.87 0-4.31 0h-476c-2.24 0-4.52.4-7.05-.56.97-8.92 4.16-17.43 5.55-26.33zm226.69 283c2.5-12.26 4.9-24.25 7.38-36.24 5.26-25.473 10.54-50.94 15.84-76.4.09-.4.16-.8.25-1.2 1.21-5.46 1.21-5.5 6.61-5.5H974a62.57 62.57 0 0112.81 1.38c14.09 2.94 20.94 12.1 20.25 26.43-.64 13.34-6.89 22.44-19.51 26.88 0 2.18 1.82 2.14 2.94 2.79 7.91 4.64 12 11.62 12.37 20.66.79 18.82-8.55 32.32-26.4 38.35a56.23 56.23 0 01-18.08 3.21h-70.16a32.74 32.74 0 01-3.38-.36zm42.15-28.3h26.18a14.68 14.68 0 004.18-.93c6.2-2 9.14-6.42 8.4-12.51-.61-5.13-3.83-8-10.44-8.3-6.95-.35-13.93-.12-20.9-.21-1.91 0-3 .58-3.34 2.63-1.2 6.14-2.59 12.31-4.08 19.3v.02zm9.33-45c.623.252 1.27.443 1.93.57 5.33 0 10.66 0 16 .1a25.17 25.17 0 009.1-1.2c3.24-1.15 5.75-3.12 6.32-6.83.86-5.58-1.47-9.12-7.53-9.67-6.51-.6-13.1-.23-19.66-.42-2.16-.06-2.88 1.13-3.23 2.85-.99 4.72-1.93 9.52-2.93 14.53v.07zm-840.3 72.99c1.8-8.86 3.56-17.67 5.4-26.48 6.06-29.08 12.143-58.16 18.25-87.24.21-1 .49-2 .69-3a2.55 2.55 0 013-2.34c1 .07 2.05 0 3.08 0h50.48a49.71 49.71 0 0119.18 3.79c15.05 6.2 24.05 17.58 26.81 33.48a76.1 76.1 0 01-6.76 47.33c-10.77 22.19-29.37 33.54-53.41 34.78-21.49 1.1-43.08.28-64.63.28a9 9 0 01-2.09-.6zm43.6-30.14c6.62 0 12.34.05 18.05 0 10.6-.11 18.35-5 23.44-14.2a44.43 44.43 0 005.21-26.7c-1-10.48-6.91-16.25-17.52-17-4.28-.3-8.62.12-12.89-.22-3.49-.28-4.61 1.43-5.18 4.39-1.06 5.62-2.27 11.22-3.44 16.83-2.49 12.01-4.99 24.01-7.67 36.9zm596.02-24.24c9 4.49 10.9 12.26 11 20.83.07 5.32-.06 10.66-.15 16-.09 5.91 0 11.81 1.36 17.47-1.79 1.16-3.47.74-5.07.75-8.2.04-16.403.04-24.61 0-5.85 0-5.72-.06-6.52-6.08-.71-5.38.33-10.62.75-15.92 0-.61.24-1.21.33-1.81 1.95-12.67-2-17.41-15-17.81-3.48-.11-7-.06-10.45 0-4.51.07-4.61.08-5.57 4.6-2.29 10.82-4.47 21.66-6.71 32.48-.93 4.48-1 4.53-5.54 4.54h-27.68c-1.21 0-2.47.21-3.8-.78.61-7 2.58-13.88 4-20.85a15939.572 15939.572 0 0119.38-93.21c1-4.81 1-4.86 5.79-4.87h59.67a51.88 51.88 0 0118.66 3.25c8.74 3.34 14 9.64 15.93 18.8a41.13 41.13 0 010 17.67c-2.48 11.07-9.12 18.57-19.52 22.82-1.74.75-3.74 1.28-6.25 2.12zm-47.38-12.66c8.71 0 16.82.41 24.93-.38a14.24 14.24 0 004.63-1.52c5.32-2.55 8.22-7.85 7.2-12.89-1.07-5.27-4.65-8.24-11.15-8.56-5.91-.29-11.85 0-17.77-.1-1.83 0-3.15.44-3.55 2.49-1.35 6.76-2.76 13.5-4.29 20.96zM184.2 718.44c12.23 1.26 24.45 2.55 36.68 3.77 15.3 1.52 30.59 3.16 45.91 4.44 24.92 2.073 49.857 4 74.81 5.78 15.95 1.13 31.93 2 47.91 2.72 38.51 1.79 77 3.24 115.59 3.88.82 0 1.63.16 2.45.25-13.09 8.19-27.27 14.06-41.69 19.3-30.68 11.16-62.41 16.79-95 17.83-32.77 1-65.1-1.73-96.79-10.38-31.23-8.51-59.73-22.5-84.86-43.06-1.75-1.42-3.35-3.02-5.01-4.53zm1500.3 181.5a74 74 0 0121.85 2.92c15.28 4.75 25.77 14.55 29.37 30.25 6.28 27.48 1.46 52.66-18.39 73.59-13.7 14.43-31.27 19.68-50.82 18.78a69.93 69.93 0 01-14-1.94c-18.36-4.63-30.52-15.8-34.48-34.44-4.88-23-.84-44.57 13.2-63.6 13.12-17.78 31.38-25.68 53.27-25.56zm16.58 53.38a31.37 31.37 0 00-1.26-10.95c-2.34-7.63-7.8-12-15.74-12.36-7.94-.36-14.78 2.18-19.57 8.37-10.24 13.24-13.15 28.45-9.8 44.66 1.59 7.69 7.69 11.87 15.68 12.31 9.46.52 16.66-3.5 21.88-11.17 6.32-9.3 8.24-19.91 8.81-30.86zm-597.13-50.51c-2 9.63-3.78 18.62-5.64 27.61-3 14.24-6 28.47-8.91 42.72a36.54 36.54 0 00-.48 12.25 11 11 0 009 9.65 18.85 18.85 0 0020.35-8.23c3.48-5.22 5-11.18 6.31-17.21 4.253-20.247 8.467-40.507 12.64-60.78.25-1.2.7-2.38.85-3.59.22-1.79 1.21-2.44 2.89-2.43h33.52c1.25 1.73.65 3.16.38 4.47-5.2 25.08-10.37 50.16-15.7 75.21-5.28 24.82-22.41 39.79-47.77 42.46a89.77 89.77 0 01-34.12-2.45 41.93 41.93 0 01-12.79-5.89c-11.75-8.17-17-19.38-14.24-33.5 4.23-21.93 9-43.76 13.49-65.63.83-4 1.69-8 2.54-12 .31-1.49.79-2.67 2.71-2.66 11.49.02 22.95 0 34.97 0zm-734.94 79.34c4.93 0 9.85.06 14.77 0 2.26 0 3.3.69 3.4 3.14a19 19 0 001.38 5.95c1.13 3 3.06 5.42 6.26 6.35 6.69 2 13.33 2 19.78-1.07 3.81-1.83 6.29-4.83 6.36-9.07.07-4.24-3-6.54-6.51-8.12-4.88-2.2-10.06-3.48-15.16-5-6.09-1.83-12.16-3.68-17.84-6.61-19.93-10.29-24.32-35.4-9.08-52 8-8.71 18.36-13 29.7-14.82a74 74 0 0134.68 2.19c14.71 4.73 23.36 14.64 25 30.24.59 5.62.28 6-5.28 6h-25.23c-2.4 0-3.56-.48-4-3.27-.77-5.27-4.38-7.91-9.57-9a24.15 24.15 0 00-12.72.82c-3.53 1.17-5.95 3.55-6.19 7.59-.24 4.04 2.19 6 5.32 7.46 4.48 2.12 9.33 3.06 14.12 4.16a79.07 79.07 0 0118 6.11c22.48 11.26 26.94 38.49 9.16 56.51-7.59 7.69-17.07 11.84-27.5 14.11-14.18 3.08-28.15 2.44-41.73-2.73-15.76-6-24.74-18.33-25.09-33.86-.11-5-.11-5 5-5.09 4.36.01 8.66.01 12.97.01zm1197.65 40.34h-33.77c-2 0-2.91-.77-3.07-2.84-.28-3.68-.93-7.32-1.19-11-.16-2.37-1.26-3.2-3.49-3.19-11.067.04-22.137.04-33.21 0-2.25 0-3.23 1.27-4.14 3-2 3.81-4.13 7.54-6.08 11.37a4.25 4.25 0 01-4.3 2.68c-11.26-.08-22.53 0-33.67 0-1.11-1.9.3-2.91 1-4 21.5-37.267 43.007-74.527 64.52-111.78 1.61-2.8 3.31-4.1 6.71-4 9 .26 18 .09 27.06.08 4.15 0 5-.66 5.83 4.72 3.37 22.89 7.09 45.73 10.66 68.59 2.32 15.13 4.63 30.3 7.14 46.37zm-45.71-77.61l-18 34.84h19.47c2.15 0 2.91-.93 2.68-3-.64-5.69-1-11.41-1.89-17.05-.69-4.4-.34-8.98-2.26-14.79zm-905.42-41.84c-2 9.92-4 19.12-5.77 28.35-.53 2.67-2.49 2.26-4.28 2.26H582.1c-6 0-6 0-7.29 6.12a35225.055 35225.055 0 00-15.48 74.6 33.89 33.89 0 00-1 4.8c-.18 2.66-1.53 3.4-4 3.36-6.36-.11-12.72 0-19.08 0h-14.76c6.16-29.87 12.17-59 18.29-88.78H506.7c-.9-2.14-.3-3.91.05-5.62 1.47-7.22 3.16-14.41 4.47-21.66.5-2.81 1.65-4 4.44-3.66.41.025.82.025 1.23 0h94.15c1.21-.01 2.42.12 4.49.23zm241.74-.26c-2.66 13-5.19 25.38-7.75 37.77-5.18 25-10.3 50.1-15.62 75.12-1.77 8.32-.23 6.7-8.49 6.81-8 .11-16 0-24 0-1.81 0-3.67.29-5.69-.53.65-7.2 2.61-14.08 4-21 6.43-31.1 12.94-62.13 19.43-93.17 1-4.92 1-5 5.75-5 10.61-.02 21.25 0 32.37 0zm-596.74 119.71c2.44-11.83 4.66-22.66 6.9-33.47 5.713-27.48 11.41-54.96 17.09-82.44.45-2.17.77-3.86 3.63-3.83 11.06.1 22.12 0 33.41 0 .77 2.29.11 4.26-.28 6.16a159276.03 159276.03 0 01-22.13 107.14 32.51 32.51 0 00-.8 3.59c-.19 2-1.11 2.88-3.15 2.87-11.3-.04-22.55-.02-34.67-.02zM1265.3 902.78c-3.58 17.43-6.93 33.85-10.32 50.27a51619.54 51619.54 0 01-13.36 64.31c-1.06 5.09-1 5.12-6.27 5.14h-31.91c1.46-7.32 2.75-14.06 4.14-20.79 6.44-31.047 12.893-62.097 19.36-93.15 1.19-5.74 1.15-5.76 7-5.77 10.21-.02 20.41-.01 31.36-.01zm233.97-7.3c.42-17.56 14-27.43 29.74-22.15 3.86 1.3 7.51 3.23 11.31 4.73 4.33 1.71 6.95 1.28 8.66-2.78s4.55-4.38 8.19-4.32c8.37.13 8.37 0 6 8.14-4 13.53-14.8 19.09-28.2 14.35a102.3 102.3 0 01-9.57-4.14c-5.55-2.65-9.41-1.72-11.63 3.53a3.8 3.8 0 01-4.19 2.68c-3.27-.16-6.53-.04-10.31-.04z"></path><path fill="#FEFEFF" d="M1392.05 639.74c13.82-5.11 27.67-10.1 41.43-15.34 37-14 73.32-29.45 108.19-48.21 11-5.92 21.5-12.71 32.31-19a63 63 0 011.14 31c-3.09 14.34-10.9 25.41-22.88 33.71-13.47 9.33-28.71 13.74-44.69 16a245.94 245.94 0 01-35 2.09h-73.8c-2.2.04-4.45-.15-6.7-.25z"></path></g></svg>