<svg xmlns="http://www.w3.org/2000/svg" viewBox="-0.0016117095947265625 0.8357686996459961 1356.919677734375 591.4542236328125"><g fill="none"><path fill="#1E4A85" d="M238.99 255.19L60.58 592.29l-2.5-.94 13.13-63c12.26-58.67 24.36-117.38 37-176 1.85-8.58.92-11.26-8.57-11.07-29.45.58-58.92.14-88.38.2-13.56 0-12.49.41-9-13 5.09-19.41 8.43-39.27 12.52-58.94 10.15-48.81 19.35-97.84 30.76-146.35 8.53-36.26 14.4-73 22.73-109.29 2.67-11.63 5.9-13.93 16.35-9 7.6 3.6 15.21 7.8 21.58 13.2 17.16 14.54 38.5 22.06 56.7 34.83 5.57 3.91 6.44 7.37 5.18 13.34-12.5 59.34-24.68 118.79-37.5 178.09-2 9.12-.37 11.2 8.91 11 32.42-.45 64.89-.17 99.5-.17z"></path><path fill="#0D9B79" d="M309.85 341.35c-15.51 0-31-.13-46.53.06-6.73.08-9.26-.71-7.43-9.13 13.56-62.77 26-125.78 39.54-188.54 11.68-54-27.92-72.69-68-61.11-17.21 5-30.8 15.77-43.89 27.38-1.54 1.36-2.52 4.51-5.23 3.34-3.87-1.66-.81-4.56-.63-6.91 2.24-28.66 13.48-52.26 36.13-71 22.65-18.74 47.77-29.82 76.5-33.16 30.24-3.52 59.78-1.5 86 16.19 21.55 14.55 33.48 35.08 34.69 61.24 1.2 25.2-4.42 49.52-8.42 74.31-5.49 34-13.57 67.37-19.81 101.15-4.77 25.86-11 51.45-16 77.27-1.41 7.31-4.49 9.4-11.61 9.16-15.11-.5-30.24-.15-45.36-.15l.05-.1z"></path><path fill="#1E4A85" d="M1101.43 198c16.77-18.26 36.6-14 54-12.53 19.53 1.71 32.67 16.75 36.92 35.82 8.27 37.11 2.34 71.94-24 100.86-18.3 20.1-42 25.94-68.52 21.54-11.06-1.84-18.85-8.46-25.25-17.12-4.27 1.46-3.2 5.38-3.59 7.78-1 6-4 7.3-9.51 7-8.9-.42-17.85-.32-26.75 0-6.62.27-7.46-1.78-6-8.18 7.76-35.12 14.85-70.39 22.27-105.59 7-33.07 14.24-66.08 21-99.2 1.53-7.55 3.94-11.5 12.63-10.51a134.72 134.72 0 0025.56.08c8.84-.71 9.31 2.75 7.48 10.11-5.59 22.16-10.4 44.4-16.24 69.94zm-15.36 78.53c.6 4 1.14 9 2.14 13.84 1.83 8.91 6.27 15.84 15.66 18.23 11.11 2.82 22.13-.47 28.76-8.12 15.55-17.92 18.86-40.17 15.64-63.18-1.26-8.95-7-16.33-16.23-17.58-8.57-1.16-17.07-2.73-25.4 5.35-14.67 14.23-17.99 31.84-20.57 51.46zm-399.32 68.43c-55.54.2-80.57-48-66-99 13.18-46.17 68.16-73.08 112.23-59.64 32.246 9.572 51.562 42.491 44.19 75.31-1.39 6.32-.55 12.84-2.45 19.27-11.63 39.45-45.33 64.2-87.97 64.06zm45.62-90.71c-.56-32.47-11.49-37.9-35.1-34.58-9.86 1.38-17.3 8.28-22.89 16.58a70.14 70.14 0 00-12.11 42.66c.41 11.64 2.67 22.46 14.72 27.64 12.54 5.4 24.3 3.24 34.61-5.58 15.22-13.01 20.3-30.39 20.77-46.72zm569.1 72.19c-15.45 15.05-33.33 21.47-54.39 17.35-21.62-4.23-33.48-15.91-36.87-36.18-3.56-21.27 4.86-40.29 22.6-50.73 13.7-8.05 29-10.78 44.43-12.22 8.86-.82 17.84-.37 26.72-1.05 4.09-.31 10.25 2.86 11.7-3.69 1.56-7 .9-14-6.44-18.32-11.53-6.78-24-5.39-36.2-3.49a201.46 201.46 0 00-28 6.67c-4 1.23-5.36 1.49-5.81-3.15-.9-9.09 2.15-17.61 3.33-26.38.42-3.09 3.35-3.75 6-4.61 24-7.69 48.36-10.87 73.19-4.44 24.49 6.35 36.89 23.65 35 48.9-2.29 30.21-10.6 59.4-15.58 89.16-2.87 17.11-3.25 17-21.44 17.15h-3.49c-15.14.13-15.14.13-14.75-14.97zm-30.54-15.66c18.39-.22 35.12-15.15 37.58-33.45.33-2.45.81-4.71-2.76-4.74-15.15-.16-30.43-.75-43.91 7.88-7.49 4.8-11.31 11.88-8.81 20.78s10.38 9.24 17.9 9.53zm-351.35-11.8c-.89 6.6-1.29 11.17-2.14 15.67-4.33 23.09-4.34 23.21-27.2 27.54-19.25 3.65-38.46 4.41-57.46-1.73-26.66-8.63-41.36-27.5-43.09-55.44-2.93-47.08 22.82-86.3 65.67-99.11 18.79-5.62 38.17-5.05 55.43 3.95 19.53 10.17 29.59 27.64 30.33 50.26 1.19 36.4-.35 38.31-35.59 38.33-21.72 0-43.45.21-65.16-.23-7.94-.16-9.1 3.07-7.51 9.74 2.83 11.9 11.16 19.72 24.21 21.79 17.24 2.73 33.91.26 50.1-6l12.41-4.77zm-79.89-52.34h51.91c3.29 0 5.84-.29 6.83-4.37 2.51-10.34-4.92-23.2-15.45-25-20.7-3.44-36.29 4.84-43.29 29.37zm-295.34 98.27c-49.22-.07-78.18-35.55-70.08-81.46 12.21-69.2 64.73-90.82 125-76.36 6.21 1.49 8.49 4.14 5.27 10.3-1.23 2.36-1.62 5.15-2.41 7.74-2 6.64-2.14 15.39-6.56 19.34-4.76 4.25-11.24-3.54-17.42-4.92-29-6.45-55.1 13.48-57.75 45.18-1.37 16.41-2.07 33.34 16.29 42.2 11.58 5.59 23.2 1.87 34.48-1.61 12.85-4 13-4 11.84 9-2.19 24.76-4.31 27-29.3 30-4.21.59-8.49.59-9.36.59zm433.23-3.61c-23.29-.12-23.4-.3-18.61-22.91a86307.75 86307.75 0 0040.34-191.31c1.34-6.42 3.5-9.42 10.48-9 9.65.54 19.35.35 29 .09 5.18-.14 6.82 1.42 5.67 6.71-6 27.93-11.84 55.93-17.77 83.89a46915.67 46915.67 0 01-19.81 93c-1.37 6.41-2.89 12.79-4.23 19.21-4.25 20.41-4.23 20.42-25.07 20.32zM814.31 468.72c3.427-16 6.86-32.027 10.3-48.08.57-2.64 1.26-5.26 1.92-7.88 1.13-4.43 4.74-3.17 7.6-3.05 4.68.22 3 3.78 2.48 6-4.57 21.52-9.37 43-13.95 64.51-1 4.73-3.58 6.24-8.2 6-4.4-.2-8-.1-9.73-5.65-3.93-12.91-8.48-25.63-12.88-38.39-1.68-4.87-3.65-9.65-6.73-17.76-4.14 19.79-7.56 36.2-11 52.61a29.51 29.51 0 01-1.77 6.67c-1.79 3.67-5.43 2.7-8.23 2-3-.69-2.18-3.5-1.7-5.78 4.52-21.54 9.2-43 13.43-64.63 1-5.09 3.58-6 8-5.92 4.7.13 8.58-.24 10.48 6 5.48 17.89 11.79 35.54 17.78 53.28l2.2.07zm-340.24-24.49c13.73-.12 13.74-.12 10.79 13.24-.33 1.51-.83 3-1.15 4.5-5.42 25.87-8.22 28.07-31.79 25.1-18.83-2.37-31-17.21-29.14-36.7 3.73-39 37.74-47.34 64.48-39.55 2.92.84 5.76 1.79 3.65 6.42-1.57 3.44-2.39 4.77-6.54 3.48-7.76-2.41-15.7-3.33-24-1.41-18.58 4.31-30 23.62-24.28 41.94 3.53 11.38 18.78 19.92 29.77 15.57 8.42-3.34 5.75-12.56 7.1-19.19 1.35-6.63-4.89-3.87-8-4.16-3.45-.32-6-.59-5.71-5.11.27-3.86 2.66-4.15 5.55-4.13h9.27zm753.16 39.75c-18 3.86-27.71.35-32.28-11.61-5-13 1.72-32.81 13.58-40 7.5-4.57 15.25-4.81 23.3-1.49 3.74 1.54 7.69 9.65 11.61-.16.3-.75 4.47-.57 6.5.14 2.35.83 1.25 3.31.88 5.06-4 18.5-7.45 37.14-12.33 55.4-4.35 16.3-32.24 25.63-45.75 16.21-2.38-1.66-2.5-3.55-1.69-6 1.72-5.16 4.92-3 8.34-2.09 17.86 4.57 23.91 1.66 29.68-13.82.56-1 1.35-2.11-.16-2.86-.33-.15-1.11.79-1.68 1.22zm8.76-30.77c-.51-7.07-2.32-14.45-12.39-15.41-10.07-.96-18.3 9.6-18.63 23.53-.21 8.75 2.43 15.49 12.56 15.82 9.95.33 17.89-9.71 18.46-23.94zm-623.15 27.33c-1.49 7.4-3.07 14.52-4.31 21.7-.89 5.15-3.65 7.73-8.75 6.51-5.82-1.38-2.27-5.39-1.7-8.29 4.15-21.2 8.43-42.37 12.65-63.55.59-3 .93-8 4.59-6.34 8.76 4 16-1.92 24-2 8-.08 14.22 3.31 18.06 10.36 6 11 1.45 33.05-8.4 42-9.46 8.51-22.6 8.53-36.14-.39zm35.45-27.33c.12-8-1.28-14.94-11.31-15.46-10.65-.55-20.27 11.12-20.49 25.11-.14 8.94 4 15.09 13.27 15.77 9.89.73 18.21-11.13 18.53-25.42zm220.23 34c-13.17.35-22.3-2.73-26.74-13.62-4.68-11.5-.38-28.88 9.2-37.24 8.84-7.72 19-10.29 30.06-5.47 8.59 3.74 13.69 18.87 9.91 27-1.59 3.46-4.15 2.75-6.72 2.77-7.72.06-15.46-.24-23.16.2-3.32.18-8.55-2.65-9.62 3a11.3 11.3 0 006.47 12.52c5.25 2.56 10.94 2.76 16.92 1.6 2.42-.47 7-4.85 8.43 1.09 1.43 5.94-3.57 6.81-7.83 7.5a66.72 66.72 0 01-6.92.65zm-15.71-34.93c7.27 0 13.31.29 19.32-.12 3.16-.22 8.41 2.49 8.57-4.12.12-5.26-2.41-8.89-7.69-9.87-10.77-2-15.93 4.23-20.2 14.11zm139.58 35.19c-10.83.2-20.09-2.46-24.71-13.42-4.88-11.59-1.13-28.62 8.6-37.36 8.65-7.76 18.77-10.62 30-5.95 8.78 3.67 14 18 10.41 26.82-1.42 3.5-3.86 3.18-6.5 3.2-8.12 0-16.23-.14-24.34.12-3.06.09-7.63-2.08-8.69 2.73a11.19 11.19 0 005.24 12c5.87 3.78 12.35 3.3 19 2.15 2.28-.39 6.14-4.34 7.53.82 1.26 4.66-1.64 7.17-6.19 7.73-3.44.46-6.9.79-10.35 1.16zm-13.93-35.11c7.36 0 13.4.33 19.38-.14 3.12-.25 8.37 2.46 8.55-4.18.14-5.33-2.41-8.89-7.61-9.87-10.72-2.02-15.94 4.17-20.32 14.19zm143.12 8.41c-2.71 0-5.5-.43-8.1.1-3.68.73-9.66-3-10.61 3.16-.95 6.16 2.09 11.09 8.63 13.36 5.8 2 11.38 1 17.13 0 2.08-.35 5.56-3.37 6.16 1.6a6.23 6.23 0 01-3.56 6.62c-17 9.41-39.15-2.92-39.84-22.3-.64-17.75 11.11-32.79 27.48-34.54 10-1.07 18.65 1.84 22.72 12 5.99 15.08.99 20.02-20.01 20zm-17.42-8.5c7.37 0 13.42.32 19.42-.13 3.1-.22 8.4 2.67 8.48-4.07.07-5.21-2.3-8.93-7.61-9.89-10.68-1.92-16.02 4.03-20.32 14.09h.03zm-147.74 2.03c-.14 19.93-12.44 33-31.11 33-16.12 0-25.63-9.19-25.71-24.88-.1-19.61 13.53-34 32.1-33.88 15.76.07 24.88 9.53 24.72 25.76zm-45.12 7.82c-.14 10.11 5 16.48 13.47 16.64 10.31.21 20.77-12.57 20.68-25.26-.06-9.33-6.17-15.92-14.67-15.84-10.7.11-19.29 10.9-19.48 24.46zm385.73-20.83c1.55-15.38 12.43-12.38 20.25-12.38 12 0 20 7.06 19.18 17.11-1 12.24-3.89 24.33-5.92 36.49-.61 3.64-4.68 5-5.84 3.56-6-7.36-10.65-.43-15.78.81-10.22 2.46-20.4-2.36-22.76-10.87-2.62-9.46 3.07-18.83 13.44-22.19 6-1.93 12.08-2.22 18.28-2.5 3-.14 7.85 2.4 8.38-3 .49-5-2.09-8.84-7.53-10.08-7.03-1.66-13.6.51-21.7 3.05zm26 18.63c-7.41-1.32-14.26-.81-20.52 2.47-4.55 2.38-6.51 6.78-4.45 11.64 1.91 4.5 6.09 5.4 10.62 4.14 9.21-2.57 13.37-9.05 14.35-18.26v.01zm-628.45 27.34c-16.4 0-25.54-8.7-25.77-24.67-.28-19.71 13.07-34 31.74-34 15.79 0 24.87 9.28 24.93 25.56.1 19.76-12.25 33.05-30.9 33.11zm-14.12-25c-.09 10.14 5.07 16.44 13.53 16.51 10.45.1 20.64-12.56 20.44-25.39-.16-9.59-5.95-15.72-14.73-15.59-10.85.12-19.12 10.63-19.2 24.46l-.04.01zm400.98-12.29c-1.87 8.8-4.54 20.45-6.74 32.2-.86 4.58-3.87 4.13-6.9 4-5.23-.21-3.7-4-3.19-6.83 1.6-8.73 3.28-17.45 5.29-26.09 1.33-5.7 1.68-11.21-4.17-14.18-6.2-3.15-12.07-1.16-16.88 3.64-5.42 5.4-7.71 12.29-9.23 19.61-1.4 6.78-3.18 13.48-4.83 20.2-.81 3.3-3.23 4-6.2 3.65-3.94-.51-3.73-3.79-3.27-6.2 2.87-15.17 6.17-30.27 9-45.44.83-4.39 4.81-5.52 6.69-4.11 5.87 4.41 10.36.66 15.53-.89 13.65-4.06 24.77 3.87 24.9 20.44zm-540.49 17.2c2-9.69 4.5-21.4 6.77-33.16.88-4.54 4.23-3.84 7.18-3.78 5.49.11 3.42 4 2.93 6.71-1.59 8.75-3.54 17.44-5.11 26.19-1 5.4-1.92 11.22 4.47 14.14s12.13.59 16.75-4.12c5.95-6.09 7.95-14 9.29-22.12.87-5.32 3-10.47 3.54-15.8.56-5 3.36-5.27 7.15-5.05 5.32.31 3.75 4.09 3.21 6.81-2.91 14.8-6.31 29.5-9 44.34-.93 5.18-6.26 6.08-7.19 4.57-4.7-7.63-8.53-1.55-12.57 0-14.19 5.39-27.26-2.48-27.42-18.73zm-38.73 18.89c-4.12.52-5.86-.77-4.93-5.17 3.22-15.11 6.26-30.25 9.31-45.4.69-3.41 2.62-7 5.92-5 7 4.29 12.37-.23 18.46-1.51 3.06-.65 7.56-2.1 8.09 3.35.4 4.07-1.61 6-6.27 6.12-11.84.26-16.35 9-19.21 18.61-2.2 7.37-3.44 15.05-4.94 22.62-.75 3.75-1.84 6.85-6.43 6.38zm690.58-53.53c-1.26 2.86-1.12 5.78-5.1 5.85-15.43.26-19.2 11.85-22.3 23.74-1.65 6.32-2.94 12.74-4 19.18-.78 4.68-3.6 5.32-7.46 4.8-5-.68-3.48-4.39-2.94-7.1 2.92-14.72 6.28-29.36 9-44.12.79-4.28 4.35-6.17 6.09-4.37 6.65 6.88 11.4-.42 17-1.21 3.7-.53 8.49-2.98 9.71 3.23zm66.07 48.38c3.37-15.72 6.87-30.79 9.69-46 .94-5 3.81-5 7.4-4.82 5.42.3 3.54 4.28 3 6.88-2.89 14.4-6.26 28.71-9.05 43.13-.95 4.93-3.36 6.58-8 6-3.91-.44-4.08-2.73-3.04-5.19zm26.71-71.12c-1.66 3.5-.37 9.44-7.14 7.93-2.43-.54-7.1 1.82-6-3.75.76-3.76.55-9 7-8.14 2.91.36 6.67-.92 6.14 3.96z"></path><path fill="#FDFDFD" d="M1227.23 483.98c.57-.43 1.39-1.37 1.68-1.22 1.51.75.72 1.85.16 2.86l-1.84-1.64z"></path></g></svg>