<svg xmlns="http://www.w3.org/2000/svg" viewBox="0 0.0033303163945674896 499.7495422363281 205.39805603027344"><g fill-rule="evenodd" transform="scale(1.6629)"><ellipse cx="61.075" cy="61.734" fill="#fff" rx="61.075" ry="61.732"></ellipse><path fill="red" stroke="red" stroke-width=".1" d="M57.895.053l.219 123.39C33.539 123.059-2.513 100.626.219 57.898 4.717 11.652 41.455.879 57.895.053zm5.589.007c2.82.09 5.64.414 8.46.955l-.117 31.194L87.205 5.97c2.666 1.054 4.93 2.61 7.251 4.095L79.26 37.15l27.603-16.189c2.081 2.233 3.672 4.564 5.321 6.883l-48.7 28.69zm-.049 123.46c2.82-.092 5.64-.415 8.46-.956l-.117-31.194 15.378 26.239c2.666-1.054 4.93-2.61 7.252-4.096L79.21 86.43l27.603 16.189c2.081-2.233 3.672-4.564 5.321-6.884l-48.7-28.69zm2.472-61.913L114.91 32.55c1.287 2.458 2.486 4.968 3.384 7.659L91.107 56.354l30.81.416c.25 2.943.228 5.941.088 8.963l-32.145.238 28.37 17.583c-.986 2.837-2.124 5.331-3.501 7.698z"></path><path fill="#00f" stroke="#00f" stroke-width=".3" d="M170.242 43.465l3.077-6.001c-52.078-21.118-55.443 60.721-.307 43.085l-3.078-6.001c-8.898 4.363-26.924 3.734-26.928-16.926 1.851-22.607 22.228-17.663 27.236-14.157zm15.135-9.121l26.135-.117.059 6.732-16.201-.022-.01 12.952 15.395.015-.022 7.324-15.46.008.002 14.848 18.861-.001-.004 6.69-28.795-.155zm43.14-.042h26.194v6.615l-16.201-.022-.01 12.952 15.395.015-.022 7.324-15.46.008.002 14.848 18.86-.001-.003 6.69-28.795-.155zm43.254.01h26.193v6.616l-16.2-.022-.01 12.951 15.395.015-.022 7.324-15.461.008.003 14.848h18.86l-.003 6.69-28.796-.156z"></path></g></svg>