<?xml version="1.0" encoding="UTF-8"?>
<svg xmlns="http://www.w3.org/2000/svg" xmlns:xlink="http://www.w3.org/1999/xlink" width="2000pt" height="468pt" viewBox="0 0 2000 468" version="1.1">
<g id="surface1">
<path style=" stroke:none;fill-rule:nonzero;fill:rgb(100%,100%,100%);fill-opacity:1;" d="M 1192.128906 237.777344 C 1209.652344 234.078125 1230.929688 237.804688 1242.023438 253.070312 C 1251.496094 266.292969 1250.65625 283.476562 1249.605469 298.925781 C 1248.425781 314.929688 1240.871094 332.558594 1224.949219 338.671875 C 1205.195312 346.488281 1178.09375 343.078125 1166.371094 323.558594 C 1157.1875 307.664062 1156.953125 287.933594 1160.546875 270.359375 C 1163.773438 254.644531 1176.074219 240.847656 1192.128906 237.777344 Z M 1192.128906 237.777344 "/>
<path style=" stroke:none;fill-rule:nonzero;fill:rgb(100%,100%,100%);fill-opacity:1;" d="M 370.800781 310.574219 C 378.332031 306.011719 387.488281 306.0625 396.011719 305.773438 C 412.722656 305.746094 429.433594 305.773438 446.144531 305.828125 C 445.855469 316.714844 446.824219 327.703125 445.539062 338.566406 C 445.382812 342.527344 440.871094 342.683594 438.039062 343.523438 C 423.375 346.332031 408.316406 347.195312 393.414062 346.25 C 385.125 345.492188 376.050781 344.519531 369.414062 339.011719 C 360.914062 331.953125 361.28125 316.554688 370.800781 310.574219 Z M 370.800781 310.574219 "/>
<path style=" stroke:none;fill-rule:nonzero;fill:rgb(91.372549%,45.490196%,1.176471%);fill-opacity:1;" d="M 1638.640625 0 L 1647.824219 0 C 1664.007812 4.511719 1677.074219 15.582031 1690.425781 25.210938 C 1728.988281 55.484375 1762.539062 92.078125 1789.507812 133.003906 C 1798.636719 146.117188 1803.59375 162.566406 1799.972656 178.464844 C 1793.230469 211.78125 1767.917969 236.359375 1746.484375 261.074219 C 1776.574219 239.117188 1805.21875 215.269531 1834.785156 192.605469 C 1882.527344 155.429688 1930.195312 118.152344 1977.78125 80.796875 C 1982.660156 76.96875 1988.089844 73.953125 1993.597656 71.117188 C 1994.515625 73.03125 1996.355469 76.890625 1997.273438 78.832031 C 1990.660156 97.089844 1978.382812 112.355469 1967.15625 127.914062 C 1946.589844 154.511719 1925.316406 180.589844 1902.886719 205.617188 C 1872.875 238.433594 1843.941406 272.5625 1810.046875 301.550781 C 1795.433594 314.195312 1780.929688 327.496094 1763.589844 336.308594 C 1757.976562 339.328125 1751.523438 338.199219 1745.539062 337.464844 C 1746.089844 329.828125 1746.773438 322.066406 1749.683594 314.875 C 1757.1875 295.410156 1767 276.945312 1777.335938 258.816406 C 1762.617188 271.960938 1747.089844 284.105469 1732.320312 297.167969 C 1721.25 306.691406 1709.890625 316.949219 1695.433594 320.804688 C 1679.851562 325.027344 1661.253906 324.765625 1648.53125 313.617188 C 1631.820312 300.160156 1627.832031 277.207031 1627.964844 256.929688 C 1628.015625 176.550781 1627.675781 96.144531 1628.121094 15.765625 C 1627.152344 8.421875 1632.582031 2.992188 1638.640625 0 Z M 1638.640625 0 "/>
<path style=" stroke:none;fill-rule:nonzero;fill:rgb(0%,29.019608%,52.941176%);fill-opacity:1;" d="M 0 142.734375 C 1.625 127.363281 17.628906 120.882812 31.269531 121.199219 C 45.855469 121.300781 64.21875 119.675781 74.316406 132.503906 C 117.023438 187.988281 159.835938 243.417969 202.625 298.847656 C 202.910156 240.347656 201.941406 181.820312 203.121094 123.347656 C 223.214844 120.148438 243.679688 122.507812 263.929688 121.851562 C 264.113281 201.078125 263.957031 280.273438 264.035156 359.5 C 264.246094 369.3125 261.9375 381.21875 251.863281 385.46875 C 236.59375 391.53125 219.308594 390.636719 203.515625 387.359375 C 192.8125 385.261719 187.277344 375.082031 180.953125 367.316406 C 141.027344 315.847656 101.3125 264.195312 61.304688 212.75 C 61.203125 270.882812 61.515625 329.015625 61.121094 387.125 C 40.976562 390.820312 20.355469 388.09375 0 388.878906 Z M 0 142.734375 "/>
<path style=" stroke:none;fill-rule:nonzero;fill:rgb(0%,29.019608%,52.941176%);fill-opacity:1;" d="M 546.273438 144.203125 C 546.171875 138.773438 546.144531 130.796875 553.542969 130.667969 C 570.59375 129.488281 587.75 130.5625 604.828125 130.144531 C 604.800781 149.871094 604.828125 169.625 604.828125 189.351562 C 628.4375 189.664062 652.074219 188.589844 675.65625 189.980469 C 677.703125 203.726562 680.011719 218.496094 674.972656 231.824219 C 672.351562 238.589844 664.558594 239.484375 658.289062 239.507812 C 640.453125 239.71875 622.613281 239.402344 604.800781 239.585938 C 604.984375 265.507812 604.566406 291.449219 604.984375 317.367188 C 605.167969 326.078125 607.894531 336.835938 617.3125 339.695312 C 637.171875 345.597656 657.660156 338.355469 677.175781 334.394531 C 684.390625 331.824219 685.335938 341.398438 687.671875 345.882812 C 690.898438 355.539062 697.429688 369.914062 686.753906 377.257812 C 670.617188 387.410156 651.179688 391.085938 632.425781 392.816406 C 608.289062 394.519531 581.402344 390.558594 563.484375 372.90625 C 550.15625 360.050781 546.433594 340.742188 546.328125 322.902344 C 546.25 263.355469 546.355469 203.78125 546.273438 144.203125 Z M 546.273438 144.203125 "/>
<path style=" stroke:none;fill-rule:nonzero;fill:rgb(0%,29.019608%,52.941176%);fill-opacity:1;" d="M 326.757812 197.613281 C 332.425781 190.136719 342.628906 189.351562 351.179688 187.933594 C 378.726562 184.734375 406.664062 183.945312 434.234375 186.9375 C 454.144531 189.507812 475.578125 195.332031 488.902344 211.441406 C 501.914062 226.996094 504.171875 248.140625 504.644531 267.65625 C 504.90625 298.246094 504.984375 328.859375 504.644531 359.472656 C 504.878906 367.945312 500.445312 376.421875 492.207031 379.359375 C 469.308594 388.488281 444.359375 391.164062 419.9375 392.738281 C 389.140625 393.945312 355.929688 393.417969 328.855469 376.707031 C 295.644531 356.507812 294.386719 300.945312 326.785156 279.4375 C 346.433594 266.710938 370.800781 264.929688 393.597656 264.824219 C 411.253906 264.691406 428.882812 266.03125 446.433594 268.15625 C 445.777344 259.707031 446.957031 250.105469 441.210938 243.078125 C 434.941406 236.726562 425.417969 235.785156 417 234.945312 C 398.6875 233.816406 380.273438 234.183594 361.988281 235.757812 C 349.816406 236.703125 337.722656 239.273438 325.472656 238.433594 C 324.710938 224.976562 320.699219 210.417969 326.757812 197.613281 M 370.800781 310.574219 C 361.28125 316.554688 360.914062 331.953125 369.414062 339.011719 C 376.050781 344.519531 385.125 345.492188 393.414062 346.25 C 408.316406 347.195312 423.375 346.332031 438.039062 343.523438 C 440.871094 342.683594 445.382812 342.527344 445.539062 338.566406 C 446.824219 327.703125 445.855469 316.714844 446.144531 305.828125 C 429.433594 305.773438 412.722656 305.746094 396.011719 305.773438 C 387.488281 306.0625 378.332031 306.011719 370.800781 310.574219 Z M 370.800781 310.574219 "/>
<path style=" stroke:none;fill-rule:nonzero;fill:rgb(0%,29.019608%,52.941176%);fill-opacity:1;" d="M 977.703125 201.261719 C 999.449219 184.601562 1028.644531 183.371094 1054.828125 186.4375 C 1064.585938 187.933594 1075.96875 189.21875 1082.320312 197.773438 C 1086.832031 206.402344 1085.203125 216.632812 1084.46875 225.945312 C 1083.65625 229.566406 1083.839844 234.183594 1080.667969 236.675781 C 1062.199219 237.332031 1042.339844 232.058594 1025 240.664062 C 1014.742188 246.511719 1013.429688 259.472656 1013.328125 270.125 C 1013.117188 309.734375 1013.328125 349.375 1013.222656 388.984375 C 994.28125 388.855469 975.339844 388.878906 956.375 388.933594 C 954.222656 381.0625 954.851562 372.824219 954.851562 364.746094 C 954.957031 328.859375 954.800781 292.972656 954.933594 257.113281 C 955.089844 236.675781 960.597656 214.167969 977.703125 201.261719 Z M 977.703125 201.261719 "/>
<path style=" stroke:none;fill-rule:nonzero;fill:rgb(0%,29.019608%,52.941176%);fill-opacity:1;" d="M 1155.035156 194.703125 C 1177.703125 185.152344 1203.09375 183.238281 1227.28125 186.753906 C 1251.179688 190.558594 1275.132812 201.183594 1290.320312 220.648438 C 1304.300781 238.222656 1308.761719 261.335938 1308.710938 283.320312 C 1308.605469 314.824219 1308.839844 346.304688 1308.578125 377.785156 C 1308.210938 400.527344 1302.78125 424.953125 1285.835938 441.292969 C 1267.390625 460.023438 1240.058594 464.878906 1214.925781 466.949219 L 1187.015625 466.949219 C 1170.75 465.351562 1153.671875 465.769531 1138.40625 459.289062 C 1127.464844 454.175781 1129.40625 440.113281 1129.773438 430.222656 C 1130.769531 424.347656 1129.722656 412.988281 1138.589844 413.699219 C 1165.371094 415.820312 1192.523438 420.414062 1219.332031 415.585938 C 1228.566406 413.644531 1238.640625 410.3125 1244.046875 401.996094 C 1250.917969 392.003906 1249.84375 379.253906 1250.472656 367.738281 C 1223.792969 393.890625 1180.953125 396.460938 1148.03125 381.589844 C 1123.453125 370.570312 1106.953125 346.25 1101.496094 320.332031 C 1095.988281 293.679688 1096.695312 264.796875 1108.238281 239.796875 C 1117.390625 219.546875 1134.574219 203.253906 1155.035156 194.703125 M 1192.128906 237.777344 C 1176.074219 240.847656 1163.773438 254.644531 1160.546875 270.359375 C 1156.953125 287.933594 1157.1875 307.664062 1166.371094 323.558594 C 1178.09375 343.078125 1205.195312 346.488281 1224.949219 338.671875 C 1240.871094 332.558594 1248.425781 314.929688 1249.605469 298.925781 C 1250.65625 283.476562 1251.496094 266.292969 1242.023438 253.070312 C 1230.929688 237.804688 1209.652344 234.078125 1192.128906 237.777344 Z M 1192.128906 237.777344 "/>
<path style=" stroke:none;fill-rule:nonzero;fill:rgb(0%,29.019608%,52.941176%);fill-opacity:1;" d="M 720.332031 190.898438 C 739.164062 187.75 758.367188 190.007812 777.359375 189.351562 C 777.648438 227.679688 777.335938 266.003906 777.519531 304.332031 C 777.648438 313.855469 778.828125 324.425781 786.019531 331.457031 C 796.589844 341.609375 812.59375 343.128906 826.441406 341.03125 C 836.097656 339.851562 845.882812 335.050781 850.785156 326.339844 C 855.585938 318.078125 855.429688 308.1875 855.5625 298.953125 C 855.429688 269.285156 855.613281 239.613281 855.457031 209.96875 C 855.351562 203.621094 855.796875 197.300781 856.792969 191.03125 C 875.65625 187.671875 895.015625 189.980469 914.085938 189.457031 C 914.035156 230.355469 914.164062 271.277344 914.035156 312.199219 C 914.246094 333.738281 907.003906 356.507812 890.082031 370.726562 C 869.859375 388.226562 841.921875 393.128906 815.921875 393.15625 C 789.429688 393 760.78125 387.648438 740.871094 368.839844 C 725.132812 354.726562 718.992188 332.898438 718.992188 312.332031 C 718.808594 278.125 719.046875 243.890625 718.886719 209.683594 C 718.78125 203.386719 719.253906 197.089844 720.332031 190.898438 Z M 720.332031 190.898438 "/>
<path style=" stroke:none;fill-rule:nonzero;fill:rgb(0%,29.019608%,52.941176%);fill-opacity:1;" d="M 1354.460938 190.085938 C 1371.824219 188.300781 1389.375 189.824219 1406.820312 189.351562 C 1407.082031 226.839844 1406.742188 264.351562 1406.976562 301.839844 C 1407.320312 312.253906 1408 323.847656 1415.347656 331.980469 C 1422.113281 339.773438 1432.949219 342.003906 1442.839844 342.105469 C 1454.773438 342.1875 1467.8125 338.984375 1475.839844 329.515625 C 1483.578125 320.4375 1484.652344 307.871094 1484.8125 296.460938 C 1484.863281 264.902344 1484.628906 233.371094 1484.835938 201.839844 C 1485.230469 197.484375 1484.996094 190.742188 1490.6875 190.007812 C 1508.210938 188.433594 1525.917969 189.746094 1543.519531 189.429688 C 1543.414062 249.582031 1543.652344 309.734375 1543.390625 369.914062 C 1543.023438 394.730469 1539.585938 422.09375 1521.640625 440.847656 C 1502.753906 460.863281 1473.792969 466.242188 1447.402344 466.949219 L 1428.382812 466.949219 C 1412.066406 465.296875 1394.910156 466.085938 1379.589844 459.5 C 1368.835938 454.28125 1370.75 440.375 1371.195312 430.511719 C 1372.246094 424.664062 1371.117188 413.828125 1379.75 414.167969 C 1408.710938 416.058594 1439.269531 422.878906 1467.339844 412.359375 C 1483.734375 405.855469 1485.046875 385.96875 1485.125 370.882812 C 1473.03125 380.722656 1458.65625 388.042969 1442.996094 389.667969 C 1416.839844 392.660156 1387.433594 387.492188 1368.496094 367.894531 C 1352.886719 351.917969 1348.503906 328.625 1348.425781 307.058594 C 1348.398438 271.933594 1348.320312 236.808594 1348.425781 201.679688 C 1348.792969 197.457031 1348.476562 190.058594 1354.460938 190.085938 Z M 1354.460938 190.085938 "/>
</g>
</svg>
