<svg xmlns="http://www.w3.org/2000/svg" viewBox="0.2682514190673828 0.8799999952316284 1820.5966796875 862.4200439453125"><g fill="none"><path fill="#183278" d="M105.22.88c39.63 25.17 78.52 49.84 117.4 74.58 22.33 14.21 22.69 14.32 17.32 39.46a44946.745 44946.745 0 01-52.32 241.53c-2.36 10.68-.9 13.78 10.84 13.59 44.22-.74 88.46-.3 132.69-.3h13.37l-263 493.56c-3-9.6.61-17.13 2.12-24.25a48686.857 48686.857 0 0172.67-336.64c2.09-9.49-1-9.59-8.14-9.56-46.24.19-92.48-.17-138.72.39-9.39.11-10.19-2.57-8.44-10.66a130158.75 130158.75 0 0073.44-341.47c9.333-43.38 18.667-86.753 28-130.12.71-3.08 1.68-6.1 2.77-10.11z"></path><path fill="#027F52" d="M250.62 173.94c4.79-22.25 8.25-44.76 14.72-66.38 5.16-17.23 19.31-29.71 32-41.53 64.48-59.89 139.78-73.41 222-45.85 44.74 15 72.36 58.69 73.33 105.93.84 41.29-7.83 81.27-15.87 121.24-15.94 79.21-33.12 158.16-49.44 237.3-1.34 6.49-3.61 8.58-10.1 8.54-47.84-.23-95.68-.34-143.52 0-8.23.06-7.73-3-6.42-9.14 12.78-59.833 25.413-119.7 37.9-179.6 7.53-36 15.63-71.87 22.09-108 8.59-48.22-29.49-83.91-80-76.72-35.53 5.06-63.62 22.87-87.9 48.14-2.24 2.36-3.51 6.6-8.79 6.07z"></path><path fill="#183278" d="M1411.26 268.38c-.69 5.33-.44 9.64-2.88 13.38 4 2.58 5.34-1 7.35-2.42 29.51-20.25 61-21.39 92.32-6.56 30.52 14.46 40.69 42.46 42.14 74.28 1.91 41.92-7.54 80.71-35.24 113.17-27.44 32.14-63.09 42.53-104.06 34.58-15-2.92-27-11.73-36.75-26.25-5.85 28-11.64 54.37-16.8 80.83-5.92 30.41-5.68 30.45-36.26 30.46-8.84 0-17.71-.47-26.5.17-7.81.56-8.46-2.75-7.11-9.14 12.46-58.64 25.08-117.25 37-176 7.94-39.12 17.65-77.9 23.37-117.44 1-6.73 3-9.54 10.44-9.26 17.23.64 34.5.2 52.98.2zm71.36 92.84c0-3.62.29-7.26 0-10.84-1.31-13.41-5.79-25.17-18.9-31.32-13.51-6.35-26.67-4.45-38.72 3.78-27.61 18.85-42.22 76.39-27.19 106.07 4.19 8.28 10.28 14.45 19.84 15.71 18.69 2.47 33.93-3.73 45.26-19 14.18-19.13 18.97-41.18 19.71-64.4zm-388.14 67.67c-2.85 19.11-5.3 35.67-7.81 52.22-.41 2.72-2.29 3.83-4.86 4.57-33.42 9.64-67.24 16.34-102 8.64-51.19-11.35-76.55-44.24-76.14-97.31.47-59.85 41.38-114.34 98.1-129.49 28.85-7.71 57.27-5.52 84.14 8.36 21.65 11.18 30.82 30.27 36.42 53.34 5.12 21.11.77 40.93-1.21 61.37-.86 8.79-4.18 11.2-12.85 11.11-43.82-.43-87.65.08-131.47-.4-9.58-.11-11.75 2.26-9.37 11.53 5.44 21.18 18.48 32.07 40.66 34.28 29.98 2.97 57.88-3.3 86.39-18.22zM977.1 355.17c26.15 0 52.12 0 78.09-.05 2.93 0 6.88 1.16 7.4-3.74 1.7-16-3.12-33.52-21.71-37.36-29.15-6.02-54.74 9.97-63.78 41.15zm812.33 77.85c-2 14.66-3.93 29.36-6.31 44-.51 3.12-.12 7.15-5 8.59-39 11.52-78.29 17.9-118.11 4.31-33.47-11.41-53.58-35.38-58.55-69.95-10-69.75 31.59-131 87.34-149.69 29.19-9.78 58.25-9.77 86.7 2.6 28.45 12.37 42.65 35.31 44.85 65.73a197.27 197.27 0 01-3.74 55c-1.36 6.51-3.83 8-10.14 8-44.22-.27-88.44.31-132.65-.38-11.12-.18-11.73 4.34-10.1 12.69 3.49 17.84 17.17 30.63 36.64 32.93 16.9 2 33.41 1.75 50.14-4.24 12.12-4.34 25.38-5.87 37.46-11 .49.44.97.93 1.47 1.41zm-75.27-77.82h18c6 0 12 .12 18 0 3.31-.09 6.74 1 8.16-4.39 4.2-16-5.75-33.22-22-36.79-26.24-5.78-53.51 10.1-62 35.46-2.11 6.3 1.06 5.75 4.91 5.75l34.93-.03zm-858.54 77.79c-2.49 16.67-5 32.84-7.28 49-.46 3.18-2.32 4.64-5 6.13-38.84 21.74-105.59 8.64-131.79-26.78-22.07-29.85-22.2-63.84-14.22-98 17.24-73.75 81.93-108.6 152.53-98 10.25 1.54 20.42 3.64 30.58 5.75 5.09 1.05 7.07 3.26 4.87 9.34-4.73 13.14-8.67 26.61-12.1 40.16-1.72 6.84-3.7 6.72-9.59 4-52-24.28-99.5 4.57-102.63 62-.48 8.83-1 17.79 1.27 26.36 8.33 31.89 29 35.34 60.58 30.48 10.78-1.71 21.12-6.63 32.78-10.44zm308.78 59.78c22.57-105.61 44.94-210 67.08-314.5 1.34-6.33 3.75-8.69 10.33-8.5 15.66.46 31.38.78 47 0 9.28-.47 9.43 3.4 7.92 10.42-14.73 68.39-28.58 137-44.26 205.15-7.48 32.54-13.38 65.39-20.71 97.95-1.65 7.34-4.27 9.89-11.84 9.66-18.04-.55-36.11-.18-55.52-.18zm-70.61 158.21c-5.43 25.69-11.28 51.29-16 77.11-1.38 7.5-4.41 8.86-11.05 8.79-6.64-.07-6.89-2.3-5.63-8a5246.7 5246.7 0 0020.33-95.81c1-5 1.91-8.87 7.8-7.62 6.1 1.31 14.11-4.67 17.68 6.55 8.52 26.87 18.25 53.36 28.73 83.59 4.22-18.82 7.78-34.4 11.18-50 2-9 3.49-18 5.44-27 3-13.79 3.09-13.77 18.9-12.5a55740.16 55740.16 0 01-20 91.63c-.59 2.72-.54 5.69-1.65 8.15-2 4.4-.12 11.95-9.25 10.93-7.51-.84-14.71 1.83-18.1-9.73-7.61-25.94-17.45-51.23-26.37-76.78l-2.01.69zM694.33 675.8c18.86-.08 18.83-.09 14.64 18.32-2.57 11.3-5.43 22.56-7.3 34-.88 5.37-3.25 7.89-8.18 8.49-12.74 1.54-25.51 3.32-38.27.16-17.68-4.38-29.82-14.38-34.74-32.65-11.79-43.75 24.37-84.8 71-80.12 7.14.72 14.14 2.36 21.21 3.72 4.71.89 8 2.25 5.51 8.56-2.05 5.1-3.46 8.32-10 6.07-11.08-3.78-22.37-5.11-34.23-2.48-26.73 5.93-43.44 32.84-36.22 59.39 4.8 17.63 26.53 29.37 44 24 3.56-1.09 5.42-3.08 6.12-6.5.7-3.42 1.35-7.09 2.12-10.62 3.45-15.74 3.47-15.74-12.63-17.31-2.63-.25-6.29.73-5.63-3.89.54-3.79.32-8.64 5.79-9 5.47-.36 11.19-.14 16.81-.14zm990.56 56.77c-27.61 6.48-41.79 2.54-49.5-13.36-8.48-17.49-.62-46.71 15.78-58.72 14.52-10.63 32.7-8.91 48 4.53 3.38-.76 2.25-3.72 2.86-5.83 1.85-6.43 7.19-4.12 11.06-3.84 6.08.43 3.5 5 2.82 8.23-5.35 25.45-10.7 50.91-16.23 76.33a38.74 38.74 0 01-33.32 30.48c-10.73 1.28-21.56 1.1-32.2-2.12-6.08-1.84-6.53-4.59-5.13-10.47 1.89-7.93 5.61-4.29 9.6-3 24.367 8 39.667 2.14 45.9-17.58a21.64 21.64 0 00.36-4.65zm-35.77-31.23c-.25 9 1.82 16.76 10.81 20.78 9.38 4.19 17.66.7 23.92-5.87 9.34-9.83 12.72-22.12 9-35.41-4.3-15.46-21.94-19.65-33-7.92-7.35 7.87-10.35 17.72-10.73 28.42zm-778.94 25.83c-2.58 11.45-5.83 22.14-7.17 33-1.09 8.91-5.57 10.77-12.95 9.44-9.08-1.63-3.12-7.43-2.42-11.06 6.3-32.55 13-65 19.4-97.55.59-3 1.14-5.81 4.68-5.74 3.36.06 9-2.19 9.62 1.73 1.22 7.69 3.59 3.95 6.93 2 15.33-8.88 33.55-7 42.83 4.21 10.18 12.29 8.94 40-2.6 57.81-9.52 14.67-25 20.24-42.86 15.94-6.13-1.4-10.41-5.23-15.46-9.78zm4.46-24.6c.37 10.41 3.59 18.28 13.18 21.63 9.35 3.28 17.35.27 23.51-7.2 8-9.74 10.64-21.5 9.76-33.58-1.1-15-14.32-21.44-27.89-14.22-13.57 7.22-16.4 20.62-18.58 33.37h.02zm115.63-48.85c22.69.47 36 13.88 35.82 36-.29 29-19.52 49.27-46.42 48.87-23.56-.35-37.68-14.66-37.1-37.61.71-28.74 19.96-47.8 47.7-47.26zm-2 12.94c-15.23.23-26.92 13.67-28.68 33-1.24 13.68 5 23.18 16.54 25.23 13.61 2.41 25.56-7 31-24.07 2.23-7 3.16-13.72.23-21-3.64-8.87-9.38-13.62-19.1-13.1l.01-.06zm257.35 34.98c0-28.92 17.63-47.67 45.11-47.85 23.84-.16 37.46 12.62 37.67 35.33.27 28.42-19.16 49.48-45.72 49.57-24.01.08-37.06-12.97-37.06-37.05zm65.59-10c0-11.15-2.45-18.92-11.23-23-8.3-3.85-16.47-2.84-23.58 2.81-11.68 9.29-15.67 22-13.76 36.3 2 15.25 15.45 22.22 29.27 15.26 13.5-6.87 18.46-19.13 19.26-31.41l.04.04zm251.7 29.92c1.57 11.72-3.32 16.15-13.38 15.62a6.14 6.14 0 00-1.2.14c-16.58 2.55-33.07 2.34-43.08-13.43-10.18-16-7.32-33.2 1.91-48.87 9.11-15.46 23.08-22.73 41.38-21.11 20.24 1.79 33.36 23.53 25.88 42.76-1.77 4.54-5.13 2.95-8 3-13.66.17-27.36.73-41-.11-9.46-.59-10.06 4.35-8.53 10.86 1.77 7.56 6.59 12.3 14.64 14.07 10.63 2.32 20.62-.48 31.38-2.93zm-43.75-33.6c11 0 21 .07 31 0 9.54-.08 12.25-4.71 7.7-13.25a14.38 14.38 0 00-12.45-8c-12.31-.99-20.16 5.01-26.25 21.25zm-123.13 33.96c2.17 12-3.52 15.66-13.32 15.23a6.16 6.16 0 00-1.2.15c-16.67 2.85-32.51 1.61-43.22-13.33-9.43-13.16-7-36.37 4-52 10.91-15.51 26.18-20.53 44.24-17.51 16.61 2.79 28.21 26.57 21.19 42.18-1.83 4.06-5.21 3.14-8.19 3.16-14 .11-28.11.36-42.15-.16-7-.26-8.06 2.75-7.44 8.58 1.23 11.6 11.07 18.57 25.81 17.29 6.71-.63 13.29-2.33 20.28-3.59zm-43-33.92c10.53 0 20.92-.56 31.22.16 10.81.76 9.92-5 7.59-11.83-2-5.8-6.29-8.93-12.58-9.57-13.07-1.33-22.08 5.66-26.26 21.24h.03zm-141.32 11.72h-18.08c-10.37.09-13.29 4.29-9.3 13.91 4.25 10.29 13.65 11.57 23 11.86 4.74.15 9.54-1.22 14.31-1.86 2.68-.36 6.5-4.4 7.71.55 1.08 4.39 1 9.55-5.12 11.93-15.53 6.1-41.61 1.41-50.55-9.4-10.45-12.66-10.23-36.39.5-53.2 10.13-15.86 29.47-23.69 47.13-19.09 15.34 4 25.85 26 19.86 41.27-1.55 3.93-4.49 4-7.78 4-7.213.02-14.44.03-21.68.03zm-25.5-11.77h7c8.78 0 17.57-.25 26.34.1 6.43.26 7.66-3.14 6.5-8.19-1.76-7.68-6-12.73-14.62-13.22-12.64-.68-20.7 5.74-25.22 21.35v-.04zm575.41-16.23c-2.47-13.62 5.38-16.89 15.91-17.53 4-.24 8-.54 12-.39 21.26.84 31.21 11.54 28.41 32.32-2 15-5.76 29.76-9 44.57-1.23 5.59-12.7 9.08-14 4.64-3.13-10.66-7.11-1.95-9.42-.82-11.9 5.83-23.4 5.6-33.93-2.18-8.45-6.24-8.76-15.46-6.43-25 2.24-9.23 9-14 17.13-16.9 9.41-3.37 19.28-4.65 29.37-5 3.76-.13 10.41 4.18 11.48-3.89 1-7.59-3.4-12.63-10.2-14.19a35.64 35.64 0 00-20.17.86c-3.63 1.34-7.37 2.36-11.15 3.51zm25.6 26.31a31.92 31.92 0 00-17.42 3.54c-6.43 3.28-11.33 8.69-8.57 16.22 2.76 7.53 9.48 8.6 16.91 6.94 8.57-1.91 13.71-7.69 17.5-14.95 5.3-10.15 4.18-11.82-8.42-11.72v-.03zm-964.66 32.28a37.42 37.42 0 01-19.69 8.12c-18.25 2.29-30.69-8.61-30.13-26.79.53-17.69 6.21-34.52 9.66-51.72 1.56-7.8 7.43-4.56 11.49-4.6 6.08-.06 4 5 3.44 8.07-2.6 13.32-5.59 26.56-8.5 39.81-1.74 7.89-2 15.72 6 20.17 7.81 4.34 15.52 2 22.3-3.27 14-10.87 14.7-27.55 18.45-42.85 1.33-5.41 2.11-10.95 3.2-16.42 1.52-7.64 7.53-6 12.43-5.51 7.22.64 3.59 5.65 2.92 9-4.35 21.92-8.86 43.8-13.34 65.69-.55 2.68-.6 6.77-4 6.33-3.91-.52-10 4.3-11.67-3.6.17-1.42 1-3.58.39-4.13-1.62-1.43-1.89 1.11-2.95 1.7zm671.25-47.84c-3.26 16-6.72 32-9.69 48.12-1.6 8.68-8.07 6.56-13 5.88-6.57-.92-3-6.12-2.32-9.39 2.44-12.54 5.49-25 7.9-37.49 1.52-8 3-16.92-6-21.3-8.74-4.25-17.34-1.48-24.26 5.11-6.25 6-10 13.55-11.88 21.88-2.61 11.27-5.71 22.52-7 34-1.14 9.92-7.69 7.76-13.15 7.27-9.08-.81-2.56-6.87-2.06-9.69 3.74-21.18 8.1-42.26 12.41-63.34 1.68-8.23 11.15-12.58 15.34-6.39 4.19 6.19 6 2.09 8.91.63 11.1-5.49 22.54-6.07 33.42-.32 9.7 5.12 11.48 14.66 11.38 25.03zm83.13 53.13c4.84-24 9.55-47.78 14.47-71.51 2.32-11.15 5.82-11.88 14.89-3.67 2.16 1.95 4.34.83 6.37-.68 5.28-3.93 11.24-6.29 17.81-5.89 3.65.22 10.27-2.22 8.72 5.57-.81 4.08-.13 9.74-8.9 8-10.43-2.06-22.14 8.06-26.74 21.95a187.83 187.83 0 00-8.1 34.82c-1.5 11.65-6.58 15.23-18.52 11.41zm-861.41.12c4.85-24 9.54-47.8 14.57-71.52.73-3.45.12-9.23 5.9-8.71 3.12.27 9.86-4.92 9.49 4.62-.09 2.22 3.9 1.08 5.79-.37a29.31 29.31 0 0119-6c3.51.08 9.46-1.33 7.6 5.42-.93 3.34 1 9.48-7.75 8.42-13.9-1.71-26.09 10.67-30.36 28.45-2.33 9.66-5.4 19.32-6.14 29.13-1.01 13.43-8.49 12.91-18.1 10.56zm1005.43.87c-6.65 1.24-8-1.76-6.73-7.4 4.86-22.26 9.8-44.51 14.26-66.86 1.59-8 6.92-7.86 12.64-7.14 8.12 1 3.54 6 2.76 9.82-4.25 20.74-8.44 41.5-12.81 62.21-1.15 5.5-2.07 11.68-10.12 9.37zm24.56-115.87c3.31.56 9-2.48 7.73 5.71-1 6.72-1.24 13.24-10.5 11.51-3.07-.58-9.84 3.12-8.54-3.77 1.06-5.57-1.34-16.38 11.31-13.45z"></path><path fill="#183278" d="M1787.97 431.54c.85-.93 1.78-1.09 2.51 0 .11.17-.68.95-1 1.45-.55-.45-1.03-.94-1.51-1.45z"></path><path fill="#FDFDFD" d="M822.56 730.31c1-.61 1.33-3.13 3-1.69.61.55-.22 2.71-.39 4.13l-2.61-2.44z"></path></g></svg>