<svg xmlns="http://www.w3.org/2000/svg" xmlns:xlink="http://www.w3.org/1999/xlink" viewBox="34.00002670288086 79.1563491821289 529.2083740234375 92.84368133544922"><defs><path id="fn42bcb7eccdma" d="M.67.157h85.288v91.671H.67z"></path><path id="fn42bcb7eccdmc" d="M.79.241h15.418v16.86H.79z"></path><path id="fn42bcb7eccdme" d="M.019.457h15.84V17H.018z"></path><path id="fn42bcb7eccdmg" d="M.484.828h18.71V17H.484z"></path></defs><g fill="none" fill-rule="evenodd"><g transform="translate(180 79)"><mask id="fn42bcb7eccdmb" fill="#fff"><use xlink:href="#fn42bcb7eccdma"></use></mask><path fill="#020303" d="M13.11 64.24c3.197 0 6.393.039 9.587-.02 1.419-.024 2.13.08 2.132 1.957.005 5.398 1.563 7.427 6.763 8.827 5.634 1.518 11.317 2.188 16.82-.69 1.761-.922 3.31-2.091 4.531-3.662 2.916-3.753 2.743-7.157-.684-10.423-3.93-3.745-8.609-6.34-13.621-8.296-5.579-2.178-10.93-4.715-15.694-8.427-11.645-9.074-9.989-22.154-1.97-31.24C27.107 5.316 35.382 1.72 44.558.711 55.77-.52 66.813-.134 76.68 6.392c7.487 4.948 10.082 12.113 9.067 20.864-.167 1.43-.826 1.633-2.012 1.628-6.39-.034-12.783-.04-19.175.005-1.246.007-1.97-.179-1.748-1.683 1.212-8.234-4.106-10.558-10.276-11.125-3.823-.348-7.578.506-10.878 2.702-5.334 3.547-5.586 9.444-.474 13.356 4.278 3.277 9.298 5.201 14.155 7.406 3.64 1.652 7.416 3.025 10.836 5.134 11.917 7.355 14.905 16.723 7.808 30.677-4.775 9.391-13.728 12.714-23.036 14.946-10.586 2.541-21.281 1.584-31.867-.5-4.086-.805-7.776-2.647-11.122-5.094C1.588 80.05-.06 73.541.942 66.048c.183-1.371.857-1.879 2.271-1.84 3.297.097 6.597.032 9.897.032" mask="url(#fn42bcb7eccdmb)"></path></g><path fill="#020303" d="M109.48 108.094c-3.009 0-6.023-.11-9.024.044-1.638.085-2.093-.575-2.364-2.023-1.525-8.147-7.16-11.433-15.37-9.318-4.935 1.272-8.907 3.877-11.977 7.81-8.199 10.505-12.7 22.393-12.65 35.78.03 7.603 3.402 12.369 9.366 13.55 7.75 1.537 16.552-2.133 18.057-8.877.301-1.355 1.195-1.633 2.526-1.62 6.95.072 13.902.105 20.85-.01 2.239-.037 2.303.628 1.66 2.495-4.178 12.097-12.884 19.304-24.992 22.21-10.478 2.515-21.2 2.43-31.747.087-11.006-2.446-17.754-10.541-19.384-22.957-1.828-13.894 2.366-26.522 8.672-38.604 6.117-11.72 14.792-20.756 27.954-24.265 11.923-3.178 24.004-3.466 35.762.79 10.04 3.634 14.978 12.025 14.076 22.613-.138 1.633-.572 2.415-2.393 2.332-3.002-.136-6.013-.037-9.023-.037"></path><path fill="#E31F14" d="M125 107.965c2.413-8.394 4.722-16.35 6.976-24.323.385-1.361 1.174-1.64 2.502-1.638 20.572.038 41.146.045 61.72-.004 1.85-.005 2.059.588 1.586 2.17-2.164 7.26-4.256 14.542-6.354 21.823-.325 1.13-.584 2.01-2.172 2.007-21.297-.053-42.592-.035-64.258-.035m14.376 60.002c-10.038 0-20.077-.037-30.113.032-1.95.013-2.724-.129-1.99-2.473 2.094-6.694 3.925-13.47 5.784-20.236.439-1.592 1.054-2.297 2.919-2.29 20.281.087 40.565.078 60.847.014 1.917-.005 2.566.328 1.954 2.35-2.059 6.814-4.091 13.638-5.922 20.514-.5 1.879-1.415 2.127-3.056 2.12-10.141-.059-20.282-.03-30.423-.03M117 134.986c1.557-5.463 3.066-10.612 4.46-15.792.3-1.105.919-1.194 1.788-1.194 21.161.004 42.325.004 63.752.004-1.506 5.43-2.944 10.594-4.364 15.763-.269.979-.885 1.235-1.83 1.233-21.152-.018-42.305-.014-63.806-.014"></path><path fill="#020303" d="M320.27 113.507c-2.988 5.615-8.11 8.64-14.443 9.063-4.674.314-9.385.06-14.412.06 2.352-8.07 4.684-15.906 6.875-23.779.377-1.354 1.162-1.197 2.07-1.199 3.657-.003 7.312.018 10.966-.005 10.711-.068 13.412 7.47 8.944 15.86m23.694-12.548c-.395-9.699-9.497-17.645-20.085-18.388-14.52-1.022-29.055-.293-43.58-.57-1.668-.032-2.287.518-2.729 2.155-2.275 8.426-4.74 16.803-7.113 25.205-5.395 19.102-10.736 38.221-16.22 57.3-.575 2.005-.14 2.332 1.703 2.278 3.345-.093 6.693-.025 10.04-.025 3.032 0 6.082-.193 9.093.059 2.526.213 3.354-.827 3.939-3.11 1.772-6.948 3.798-13.831 5.74-20.734 2.025-7.2 2.041-7 9.51-7.269 7.508-.271 15.104.906 22.514-.732 16.863-3.73 27.938-17.774 27.188-36.169"></path><path fill="#1D1D1B" d="M379.294 97.236l4.473.725c-1.222 2.607-2.812 4.595-4.77 5.975A11.092 11.092 0 01372.47 106c-2.693 0-4.69-.855-5.989-2.563-1.302-1.71-1.744-4.187-1.332-7.438.335-2.635 1.15-5.049 2.445-7.236 1.293-2.188 2.916-3.862 4.865-5.022 1.952-1.16 3.989-1.741 6.111-1.741 2.383 0 4.227.672 5.528 2.017 1.302 1.345 1.935 3.177 1.9 5.498l-4.397.443c-.07-1.349-.407-2.329-1.018-2.934-.606-.608-1.484-.91-2.626-.91-1.25 0-2.472.4-3.66 1.203-1.188.8-2.215 2.051-3.084 3.756-.869 1.703-1.408 3.404-1.624 5.102-.237 1.856.005 3.29.722 4.302.717 1.014 1.706 1.52 2.968 1.52 1.172 0 2.297-.4 3.374-1.202 1.081-.802 1.959-1.988 2.641-3.56m20.427-1.493c.136-1.04-.052-1.873-.561-2.5-.514-.627-1.238-.94-2.175-.94-.927 0-1.789.293-2.583.879-.794.587-1.467 1.437-2.011 2.552-.545 1.118-.88 2.145-1.002 3.082-.153 1.161.036 2.084.567 2.767.527.683 1.26 1.024 2.198 1.024 1.177 0 2.232-.514 3.163-1.545 1.33-1.457 2.13-3.232 2.404-5.32m-12.648 3.135c.394-3.007 1.538-5.405 3.433-7.193C392.4 89.894 394.7 89 397.402 89c2.344 0 4.09.66 5.232 1.98 1.143 1.318 1.57 3.095 1.276 5.326-.345 2.63-1.466 4.904-3.36 6.82-1.898 1.915-4.229 2.874-6.99 2.874-1.497 0-2.782-.306-3.858-.917-1.079-.613-1.828-1.478-2.25-2.6-.422-1.121-.549-2.323-.379-3.607m22.527-9.485h4.15l-.68 2.018c1.832-1.607 3.636-2.409 5.42-2.409 1.23 0 2.143.26 2.742.783.597.522.928 1.24.992 2.158.674-.834 1.575-1.533 2.705-2.096 1.13-.564 2.262-.845 3.4-.845 1.301 0 2.269.354 2.905 1.063.634.71.875 1.65.721 2.815-.076.573-.349 1.564-.823 2.972L427.706 106h-4.411l3.426-10.15c.424-1.27.647-1.991.668-2.157.062-.461-.027-.822-.265-1.087-.236-.266-.626-.4-1.167-.4-1.1 0-2.154.588-3.172 1.767-.735.846-1.466 2.341-2.19 4.488L418.053 106h-4.412l3.382-10.041c.386-1.157.604-1.907.648-2.25.057-.438-.039-.799-.295-1.08-.255-.282-.638-.423-1.151-.423-.481 0-.998.145-1.549.438a5.362 5.362 0 00-1.503 1.204c-.451.511-.868 1.167-1.251 1.971-.173.376-.485 1.224-.935 2.547L408.413 106H404l5.6-16.609zm28.325 8.957c-.167 1.22.007 2.165.521 2.839.516.674 1.183 1.011 2.003 1.011.712 0 1.432-.253 2.161-.76.732-.507 1.395-1.346 1.993-2.522.595-1.173.961-2.263 1.099-3.267.158-1.168-.004-2.064-.49-2.688-.486-.625-1.168-.938-2.051-.938-.822 0-1.61.288-2.365.862-.755.575-1.392 1.422-1.916 2.536-.523 1.116-.841 2.091-.955 2.927zm-1.375-8.979h4.087l-.564 1.607c.968-.707 1.855-1.214 2.656-1.518A7.016 7.016 0 01445.24 89c1.674 0 2.942.564 3.805 1.697.862 1.13 1.141 2.815.835 5.056-.385 2.822-1.587 5.207-3.605 7.151-1.73 1.661-3.621 2.494-5.676 2.494-2.114 0-3.597-.843-4.45-2.523L433.312 111H429l7.55-21.631zm25.862 8.681a8.902 8.902 0 01-1.053.198c-2.178.267-3.626.653-4.348 1.161-.514.367-.81.861-.89 1.485-.067.51.054.94.366 1.29.31.352.76.528 1.344.528.645 0 1.273-.16 1.885-.48.614-.321 1.093-.734 1.441-1.238.348-.505.702-1.293 1.059-2.362l.196-.582zm-3.532-4.066l-4.117-.367c.664-1.447 1.643-2.578 2.934-3.392 1.29-.814 2.912-1.225 4.867-1.225 2.032 0 3.48.421 4.34 1.261.863.84 1.218 1.868 1.06 3.082-.065.489-.175 1.01-.332 1.558-.155.552-.64 1.998-1.45 4.342-.669 1.936-1.053 3.29-1.153 4.065-.091.694-.072 1.464.057 2.31h-4.151a8.089 8.089 0 01-.073-1.836 7.916 7.916 0 01-2.372 1.645c-.864.38-1.708.573-2.529.573-1.31 0-2.333-.442-3.072-1.322-.738-.882-1.016-2.016-.836-3.403.201-1.548.832-2.788 1.89-3.712 1.058-.93 2.806-1.49 5.24-1.682 2.055-.175 3.441-.385 4.157-.63.258-.61.412-1.098.46-1.466.062-.469-.07-.862-.398-1.176-.324-.316-.852-.475-1.574-.475-.764 0-1.388.16-1.87.482-.484.321-.844.777-1.078 1.368zm14.715-4.593h4.176l-.715 2.16c1.167-.92 2.226-1.573 3.183-1.963a7.708 7.708 0 012.942-.588c1.342 0 2.345.391 3.016 1.172.671.785.922 1.821.751 3.115-.076.583-.391 1.687-.943 3.313l-3.155 9.4h-4.406l3.173-9.43c.471-1.408.726-2.246.761-2.518.077-.574-.032-1.024-.322-1.353-.288-.329-.73-.493-1.322-.493-.648 0-1.399.277-2.26.83a6.959 6.959 0 00-2.146 2.19c-.413.645-.954 1.964-1.626 3.956L472.408 106H468l5.595-16.609zM492.408 105H488l7.73-22h4.41l-2.763 7.832c1.098-.758 2.099-1.307 3.005-1.643a8.132 8.132 0 012.834-.503c1.32 0 2.316.37 2.982 1.112.666.739.918 1.711.753 2.912-.087.64-.367 1.63-.837 2.97l-3.276 9.32h-4.407l3.345-9.499c.356-1.032.553-1.69.594-1.98.073-.532-.039-.957-.333-1.276-.295-.32-.733-.482-1.315-.482-.737 0-1.48.25-2.224.751a7.994 7.994 0 00-2.344 2.432c-.33.528-.837 1.775-1.528 3.735L492.408 105zm22.227-22H519l-1.35 3.901h-4.365l1.35-3.901zm-2.098 6.062h4.363L511.365 105H507l5.537-15.938zm13.875 8.988a8.902 8.902 0 01-1.053.198c-2.178.267-3.626.653-4.348 1.161-.514.367-.81.861-.89 1.485-.067.51.054.94.366 1.29.31.352.76.528 1.344.528.645 0 1.273-.16 1.885-.48.614-.321 1.093-.734 1.441-1.238.348-.505.702-1.293 1.059-2.362l.196-.582zm-3.532-4.066l-4.117-.367c.664-1.447 1.643-2.578 2.934-3.392 1.29-.814 2.912-1.225 4.867-1.225 2.032 0 3.48.421 4.342 1.261.86.84 1.216 1.868 1.057 3.082a10.87 10.87 0 01-.33 1.558c-.156.552-.64 1.998-1.45 4.342-.67 1.936-1.054 3.29-1.154 4.065-.091.694-.072 1.464.057 2.31h-4.151a8.089 8.089 0 01-.073-1.836 7.916 7.916 0 01-2.372 1.645c-.864.38-1.708.573-2.529.573-1.31 0-2.333-.442-3.072-1.322-.738-.882-1.016-2.016-.836-3.403.201-1.548.832-2.788 1.89-3.712 1.058-.93 2.806-1.49 5.24-1.682 2.055-.175 3.441-.385 4.157-.63.258-.61.412-1.098.462-1.466.06-.469-.073-.862-.4-1.176-.324-.316-.852-.475-1.574-.475-.764 0-1.388.16-1.87.482-.484.321-.842.777-1.078 1.368zM359 138l7.585-22H383l-1.265 3.677H369.88l-1.73 4.997h11.46l-1.263 3.676h-11.464l-2.194 5.972h12.881L376.29 138zm26.593-16.609h4.18l-.716 2.16c1.165-.92 2.224-1.573 3.184-1.965a7.728 7.728 0 012.941-.586c1.34 0 2.346.391 3.017 1.172.669.783.92 1.82.75 3.115-.077.583-.392 1.687-.942 3.313l-3.157 9.4h-4.407l3.175-9.428c.472-1.41.724-2.248.762-2.52.074-.572-.034-1.024-.322-1.351-.29-.33-.732-.495-1.325-.495-.646 0-1.398.277-2.26.83a6.91 6.91 0 00-2.144 2.19c-.415.647-.956 1.964-1.627 3.956L384.408 138H380l5.593-16.609zm26.295 6.794c.037-.194.06-.34.074-.443.16-1.2.01-2.104-.446-2.706-.46-.6-1.137-.902-2.042-.902-.903 0-1.757.34-2.563 1.026-.808.68-1.427 1.689-1.858 3.025h6.835zm3.327 2.675h-10.959a5.335 5.335 0 00-.07.4c-.143 1.08.047 1.95.573 2.612.525.664 1.23.994 2.111.994 1.452 0 2.686-.753 3.698-2.262l3.825.656c-.972 1.581-2.149 2.766-3.525 3.554a8.787 8.787 0 01-4.446 1.186c-2.171 0-3.844-.688-5.02-2.07-1.175-1.382-1.611-3.21-1.31-5.482.297-2.222 1.174-4.198 2.633-5.931 1.988-2.345 4.534-3.517 7.64-3.517 1.978 0 3.47.613 4.472 1.84 1.004 1.231 1.357 2.952 1.062 5.162a13.16 13.16 0 01-.684 2.858zm5.354-9.469h4.098l-1.08 3.224c1.844-2.41 3.658-3.615 5.44-3.615.635 0 1.29.16 1.973.486l-2.163 3.674a3.41 3.41 0 00-1.24-.218c-.756 0-1.562.29-2.416.878-.857.582-1.568 1.361-2.133 2.335-.567.976-1.203 2.52-1.908 4.636L419.389 138H415l5.569-16.609zm12.557 9.57c-.16 1.274-.014 2.248.434 2.916.447.67 1.069 1.005 1.867 1.005.729 0 1.475-.302 2.234-.902.76-.6 1.391-1.454 1.894-2.56.5-1.105.815-2.177.942-3.208.148-1.194-.03-2.154-.535-2.878-.504-.73-1.145-1.093-1.922-1.093-.75 0-1.477.323-2.184.965-.706.645-1.349 1.635-1.92 2.973-.44 1.032-.709 1.96-.81 2.782m-5.936 8.11l4.336.695c-.06.486-.032.851.084 1.099.114.247.323.459.63.632.304.175.737.262 1.302.262.886 0 1.618-.19 2.201-.57.435-.295.819-.77 1.152-1.423.208-.411.517-1.308.93-2.686l.245-.791c-1.612 1.308-3.19 1.96-4.736 1.96-1.517 0-2.692-.58-3.521-1.74-.829-1.158-1.106-2.856-.83-5.089.243-1.973.796-3.78 1.662-5.423.864-1.644 1.948-2.889 3.248-3.73 1.3-.844 2.572-1.267 3.818-1.267 1.032 0 1.938.294 2.72.887.784.589 1.347 1.418 1.694 2.482l.952-2.973H447l-4.412 13.991c-.715 2.244-1.283 3.846-1.703 4.806-.42.96-.86 1.723-1.319 2.292a6.252 6.252 0 01-1.652 1.431c-.64.385-1.374.661-2.203.83-.829.17-1.715.254-2.658.254-2.188 0-3.793-.406-4.81-1.218-1.017-.813-1.411-2.162-1.178-4.048.025-.2.066-.421.125-.663M461.315 116H466l-5.577 4.733H457.5l3.815-4.733zm-1.359 13.869c.037-.2.062-.352.075-.458.161-1.239.01-2.171-.45-2.791-.459-.62-1.142-.932-2.052-.932-.909 0-1.768.351-2.579 1.058-.812.705-1.435 1.745-1.868 3.123h6.874zm3.347 2.762H452.28a6.572 6.572 0 00-.071.411c-.144 1.114.05 2.012.577 2.696.528.685 1.238 1.027 2.125 1.027 1.46 0 2.7-.779 3.718-2.335l3.847.678c-.976 1.63-2.16 2.855-3.545 3.668a8.681 8.681 0 01-4.47 1.224c-2.186 0-3.869-.712-5.052-2.138-1.182-1.427-1.62-3.313-1.315-5.658a11.886 11.886 0 012.646-6.12c2-2.421 4.56-3.631 7.685-3.631 1.989 0 3.49.635 4.498 1.9 1.012 1.27 1.366 3.046 1.07 5.327-.142 1.094-.373 2.077-.69 2.951zm3.927-6.846l1.157-3.221h2.236l.923-2.571L477.22 117l-2.015 5.564H478l-1.158 3.22h-2.81l-2.436 6.73c-.439 1.221-.67 1.914-.694 2.087-.046.331.028.59.224.779.198.187.59.28 1.175.28.203 0 .712-.036 1.53-.107l-1.171 3.22c-.81.151-1.628.227-2.461.227-1.617 0-2.752-.294-3.401-.883-.653-.59-.905-1.41-.757-2.457.072-.496.43-1.633 1.075-3.418l2.333-6.457h-2.218zM481.637 116H486l-1.348 3.901h-4.365l1.35-3.901zm-2.099 6.062h4.362L478.365 138H474l5.538-15.938zm14.554 9.442l4.041.686c-.925 1.897-2.12 3.34-3.581 4.327a8.438 8.438 0 01-4.83 1.483c-2.005 0-3.515-.617-4.53-1.852-1.015-1.231-1.382-2.929-1.1-5.088a13.23 13.23 0 011.713-5 10.077 10.077 0 013.696-3.706c1.55-.903 3.178-1.354 4.886-1.354 1.856 0 3.272.498 4.25 1.499.978.999 1.428 2.313 1.356 3.946l-4.104.442c.021-.909-.163-1.576-.546-2.004-.384-.426-.93-.64-1.644-.64-.82 0-1.626.314-2.417.948-.795.63-1.461 1.575-2.007 2.835-.541 1.257-.886 2.436-1.029 3.537-.125.959.007 1.698.395 2.218.386.52.92.778 1.602.778.681 0 1.372-.254 2.069-.764.697-.508 1.292-1.273 1.78-2.291m18.32-1.454a9.223 9.223 0 01-1.053.2c-2.178.265-3.626.65-4.348 1.161a2.07 2.07 0 00-.89 1.483c-.067.51.054.94.366 1.291.31.353.76.527 1.344.527.645 0 1.273-.16 1.885-.48.614-.321 1.093-.734 1.441-1.238.348-.505.702-1.293 1.059-2.362l.196-.582zm-3.532-4.066l-4.117-.365c.664-1.449 1.643-2.58 2.934-3.394 1.29-.816 2.912-1.225 4.867-1.225 2.032 0 3.48.421 4.342 1.261.86.84 1.216 1.868 1.057 3.082a10.87 10.87 0 01-.33 1.558c-.156.552-.64 2-1.45 4.342-.67 1.938-1.054 3.291-1.154 4.065-.091.694-.072 1.464.057 2.31h-4.151a8.077 8.077 0 01-.073-1.835 7.91 7.91 0 01-2.372 1.644c-.864.38-1.708.573-2.529.573-1.31 0-2.333-.44-3.072-1.322-.738-.88-1.016-2.016-.836-3.401.201-1.55.832-2.788 1.89-3.714 1.058-.93 2.806-1.488 5.24-1.682 2.055-.175 3.441-.385 4.157-.63.258-.609.412-1.098.462-1.465.06-.47-.073-.863-.4-1.177-.324-.315-.85-.475-1.574-.475-.764 0-1.388.16-1.87.484-.484.32-.842.775-1.078 1.366zm23.456 5.273c-.154 1.122.014 1.998.505 2.627.49.63 1.158.943 2 .943.784 0 1.547-.262 2.299-.79.748-.524 1.4-1.33 1.953-2.41.555-1.085.902-2.121 1.036-3.115.155-1.13-.031-2.045-.56-2.745-.525-.698-1.194-1.047-2.009-1.047-1.264 0-2.396.69-3.395 2.068-1.001 1.375-1.611 2.866-1.83 4.47zm9.106 6.374h-4.095l.593-1.696c-.882.738-1.724 1.264-2.525 1.584-.8.32-1.68.481-2.631.481-1.655 0-2.923-.553-3.8-1.66-.876-1.109-1.169-2.74-.872-4.907.342-2.507 1.374-4.775 3.097-6.802 1.721-2.025 3.77-3.038 6.147-3.038 2.147 0 3.643.836 4.487 2.507l2.837-8.1H549l-7.558 21.63z"></path><g transform="translate(547 121)"><mask id="fn42bcb7eccdmd" fill="#fff"><use xlink:href="#fn42bcb7eccdmc"></use></mask><path fill="#1D1D1B" d="M12.246 7.367c.035-.192.058-.338.071-.44.155-1.19.01-2.086-.43-2.684-.442-.594-1.095-.894-1.967-.894-.87 0-1.693.338-2.47 1.017-.779.676-1.375 1.676-1.79 3.001h6.586zm3.206 2.653H4.892a5.432 5.432 0 00-.068.397c-.138 1.07.045 1.933.552 2.59.507.658 1.185.986 2.035.986 1.4 0 2.586-.747 3.563-2.244l3.686.652c-.937 1.568-2.07 2.742-3.397 3.524A8.283 8.283 0 016.98 17.1c-2.093 0-3.704-.683-4.838-2.053C1.009 13.678.589 11.865.88 9.611a11.419 11.419 0 012.536-5.882C5.332 1.404 7.785.24 10.779.24c1.905 0 3.344.608 4.31 1.824.966 1.222 1.306 2.929 1.023 5.12a13.422 13.422 0 01-.66 2.835z" mask="url(#fn42bcb7eccdmd)"></path></g><path fill="#1D1D1B" d="M355.128 164.084l4.31-.237c-.123 1.445-.014 2.422.331 2.927.553.825 1.712 1.237 3.482 1.237 1.47 0 2.567-.28 3.296-.84.726-.56 1.14-1.235 1.24-2.025.086-.686-.108-1.268-.588-1.742-.332-.348-1.298-.914-2.893-1.694-1.596-.781-2.752-1.432-3.466-1.955a4.686 4.686 0 01-1.586-2.035c-.342-.834-.442-1.811-.3-2.929.245-1.952 1.114-3.571 2.61-4.859 1.495-1.286 3.503-1.932 6.029-1.932 2.562 0 4.47.64 5.714 1.916 1.245 1.277 1.802 2.976 1.676 5.096l-4.336.208c.03-1.11-.24-1.956-.81-2.551-.574-.59-1.491-.885-2.752-.885-1.243 0-2.158.232-2.75.697-.59.465-.929 1.05-1.019 1.756-.084.666.09 1.214.524 1.647.432.443 1.432 1.05 3.005 1.821 2.37 1.149 3.854 2.084 4.447 2.8.891 1.055 1.232 2.414 1.023 4.07-.256 2.047-1.24 3.796-2.95 5.247-1.708 1.453-3.923 2.178-6.647 2.178-1.878 0-3.464-.336-4.754-1.006-1.295-.67-2.148-1.6-2.565-2.795-.416-1.192-.508-2.565-.27-4.115m28.913-10.488h-1.9c.435-1.21.871-2.055 1.31-2.541.635-.693 1.355-1.041 2.16-1.041.522 0 1.425.243 2.704.727.747.278 1.266.416 1.558.416a.96.96 0 00.614-.214c.182-.143.374-.457.582-.943H393c-.356 1.22-.858 2.118-1.504 2.698-.648.579-1.322.868-2.026.868-.45 0-1.149-.197-2.09-.593-.94-.398-1.546-.597-1.819-.597-.3 0-.572.087-.819.262-.242.173-.476.493-.7.958zm1.504 10.673a9.25 9.25 0 01-1.066.192c-2.206.26-3.673.637-4.404 1.131-.52.355-.82.838-.902 1.443-.068.496.055.914.372 1.255.313.343.769.513 1.36.513.654 0 1.29-.156 1.91-.467.62-.313 1.107-.714 1.462-1.205.35-.489.709-1.255 1.07-2.296l.198-.566zm-3.577-3.954l-4.17-.355a7.613 7.613 0 012.97-3.301c1.308-.792 2.952-1.187 4.932-1.187 2.06 0 3.526.407 4.4 1.224.873.817 1.231 1.816 1.07 2.995a10.29 10.29 0 01-.333 1.515c-.16.537-.648 1.944-1.47 4.223-.678 1.883-1.068 3.2-1.171 3.953-.09.675-.072 1.424.058 2.246h-4.204a7.743 7.743 0 01-.075-1.785 7.975 7.975 0 01-2.402 1.6c-.875.37-1.729.557-2.562.557-1.327 0-2.363-.43-3.112-1.286-.748-.858-1.03-1.96-.846-3.309.205-1.505.842-2.71 1.913-3.61 1.072-.902 2.843-1.449 5.31-1.636 2.081-.17 3.484-.373 4.21-.61.264-.596.42-1.07.466-1.426.063-.457-.071-.838-.401-1.145-.33-.308-.865-.462-1.597-.462-.773 0-1.404.156-1.895.468-.49.313-.854.756-1.091 1.33zm24.754 1.425c.135-1.039-.052-1.87-.564-2.5-.511-.627-1.236-.94-2.174-.94-.928 0-1.79.294-2.582.88-.796.586-1.467 1.437-2.011 2.552-.546 1.118-.88 2.145-1.003 3.082-.152 1.162.037 2.084.566 2.767.529.684 1.26 1.026 2.198 1.026 1.178 0 2.234-.515 3.165-1.546 1.328-1.457 2.13-3.233 2.405-5.32m-12.651 3.134c.395-3.007 1.538-5.406 3.435-7.193 1.893-1.79 4.193-2.682 6.896-2.682 2.344 0 4.088.659 5.231 1.978 1.145 1.319 1.57 3.096 1.276 5.329-.343 2.63-1.465 4.902-3.36 6.819-1.897 1.917-4.227 2.874-6.99 2.874-1.498 0-2.783-.306-3.86-.917-1.078-.614-1.827-1.478-2.248-2.6-.422-1.122-.548-2.324-.38-3.608m34.345-6.912h1.36c2.327 0 3.897-.15 4.716-.45a4.559 4.559 0 002.028-1.441 4.3 4.3 0 00.956-2.175c.068-.531.01-.965-.174-1.306a1.607 1.607 0 00-.866-.741c-.393-.156-1.307-.233-2.739-.233h-3.153l-2.128 6.346zM424.411 170H420l7.35-22h8.704c1.549 0 2.749.187 3.6.562.853.374 1.486.997 1.898 1.861.413.864.54 1.898.384 3.099a9.544 9.544 0 01-1.051 3.241c-.556 1.05-1.177 1.89-1.867 2.523-.693.629-1.408 1.106-2.153 1.43-.743.326-1.718.572-2.93.744-.704.101-2.006.15-3.905.15h-2.818l-2.801 8.39z"></path><g transform="translate(442 154)"><mask id="fn42bcb7eccdmf" fill="#fff"><use xlink:href="#fn42bcb7eccdme"></use></mask><path fill="#1D1D1B" d="M10.325 9.263c-.264.07-.61.135-1.04.193-2.156.26-3.59.635-4.305 1.132a2.008 2.008 0 00-.882 1.443c-.067.496.054.915.362 1.256.308.342.752.514 1.33.514a4.04 4.04 0 001.868-.468c.606-.313 1.08-.714 1.425-1.205.346-.491.694-1.258 1.05-2.298l.192-.567zM6.83 5.306L2.753 4.95c.657-1.41 1.626-2.51 2.905-3.303C6.936.855 8.542.457 10.478.457c2.011 0 3.443.41 4.297 1.228.853.816 1.203 1.815 1.048 2.997-.064.476-.175.983-.328 1.516-.155.538-.633 1.945-1.435 4.227-.663 1.883-1.045 3.2-1.144 3.955-.09.675-.07 1.425.056 2.248H8.864a7.739 7.739 0 01-.073-1.787 7.82 7.82 0 01-2.348 1.602c-.854.368-1.69.557-2.502.557-1.297 0-2.311-.43-3.042-1.287-.73-.858-1.007-1.962-.827-3.311.198-1.507.824-2.712 1.87-3.613C2.988 7.885 4.72 7.34 7.13 7.152c2.033-.17 3.405-.374 4.115-.612.256-.595.408-1.07.456-1.426.06-.458-.072-.84-.396-1.146-.32-.308-.841-.462-1.557-.462-.756 0-1.373.156-1.851.469-.48.313-.835.756-1.067 1.33z" mask="url(#fn42bcb7eccdmf)"></path></g><g transform="translate(459 154)"><mask id="fn42bcb7eccdmh" fill="#fff"><use xlink:href="#fn42bcb7eccdmg"></use></mask><path fill="#1D1D1B" d="M4.57.828h4.346l-3.26 9.357c-.392 1.122-.61 1.82-.647 2.098-.063.457.056.846.355 1.176.298.327.714.49 1.249.49.384 0 .772-.072 1.165-.214a5.87 5.87 0 001.24-.657c.433-.29.833-.625 1.197-1.004.364-.374.724-.87 1.08-1.486.255-.456.562-1.2.923-2.23L14.85.828h4.344l-5.515 15.8H9.625l.746-2.144C8.365 16.162 6.318 17 4.23 17c-1.323 0-2.313-.372-2.97-1.117-.653-.742-.894-1.74-.725-2.99.073-.546.393-1.63.958-3.257L4.57.828z" mask="url(#fn42bcb7eccdmh)"></path></g><path fill="#1D1D1B" d="M477 170l7.652-22H489l-7.636 22zm23.722-8.26c.135-1.039-.052-1.87-.563-2.5-.512-.627-1.237-.94-2.175-.94-.927 0-1.787.294-2.581.88-.796.586-1.467 1.437-2.012 2.552-.544 1.118-.879 2.145-1.002 3.082-.152 1.162.037 2.084.567 2.767.527.684 1.26 1.026 2.197 1.026 1.177 0 2.233-.515 3.164-1.546 1.33-1.457 2.131-3.233 2.405-5.32m-12.65 3.134c.395-3.007 1.54-5.406 3.435-7.193 1.893-1.79 4.194-2.682 6.895-2.682 2.344 0 4.09.659 5.231 1.978 1.145 1.319 1.57 3.096 1.278 5.329-.345 2.63-1.467 4.902-3.36 6.819-1.899 1.917-4.229 2.874-6.991 2.874-1.496 0-2.783-.306-3.858-.917-1.078-.614-1.829-1.478-2.249-2.6-.423-1.122-.55-2.324-.381-3.608"></path></g></svg>