<svg xmlns="http://www.w3.org/2000/svg" viewBox="95 76 410 98"><g fill="none"><path fill="#006EA1" d="M368.16 77.082v3.75C363.308 77.801 357.6 76 351.464 76 334.055 76 320 90.134 320 107.585s14.127 31.585 31.464 31.585c6.136 0 11.844-1.73 16.696-4.832v8.15c0 9.23-7.492 16.73-16.696 16.73-7.491 0-13.77-4.905-15.91-11.683l-13.699 5.697c4.352 12.115 15.982 20.768 29.61 20.768 17.408 0 31.464-14.134 31.464-31.585H383V77.01l-14.84.072zm-16.624 47.233c-9.204 0-16.696-7.5-16.696-16.73s7.492-16.73 16.696-16.73 16.695 7.5 16.695 16.73c-.071 9.23-7.491 16.73-16.695 16.73zM183.5 76c-17.429 0-31.5 14.32-31.5 32s14.143 32 31.5 32c17.429 0 31.5-14.32 31.5-32s-14.143-32-31.5-32m0 48.877c-9.214 0-16.714-7.598-16.714-16.95s7.5-16.95 16.714-16.95c9.214 0 16.714 7.598 16.714 16.95s-7.5 16.95-16.714 16.95m-57.032-33.9c5.864 0 11.014 3.069 14.018 7.744l10.656-10.74C145.349 80.677 136.48 76 126.54 76 109.09 76 95 90.32 95 108s14.16 32 31.54 32a31.23 31.23 0 0024.602-11.982l.858-19.945c-3.004 4.53-19.668 16.804-25.532 16.804-9.226 0-16.735-7.598-16.735-16.95s7.51-16.95 16.735-16.95"></path><path fill="#6EA62E" d="M419.5 76c-17.429 0-31.5 14.32-31.5 32s14.143 32 31.5 32c17.429 0 31.5-14.32 31.5-32V76h-31.5zm16.714 31.927c0 9.352-7.5 16.95-16.714 16.95-9.214 0-16.714-7.598-16.714-16.95s7.5-16.95 16.714-16.95h16.714v16.95z"></path><path fill="#006EA1" d="M307.963 82.439C303.653 78.17 298.268 76 291.23 76c-6.966 0-15.511 3.69-20.107 11.792-3.16-6.655-9.91-11.792-17.81-11.792-6.103 0-11.92 2.677-16.66 8.03v-6.945H221V138h15.727v-33.568c.143-4.775 1.58-7.597 3.95-10.056 2.369-2.46 5.457-3.328 8.76-3.328 6.607 0 10.413 5.353 10.413 13.89V138h15.654v-33.568c.144-4.775 1.58-7.597 3.95-10.056 2.37-2.46 5.457-3.328 8.76-3.328 6.607 0 10.413 5.353 10.413 13.89V138H315v-36.824c-.072-8.247-2.729-14.397-7.037-18.737m189.434 24.354c-2.654-1.536-9.037-3.95-14.416-6.07-8.535-3.292-10.472-5.486-10.185-7.754.287-2.121 3.801-3.803 9.252-3.51 5.451.292 10.042 1.17 16.712 4.022l5.164-12.288C495.963 77.536 488.647 76 483.052 76c-9.109 0-14.344 1.463-19.222 5.047-4.877 3.657-6.957 8.119-6.957 13.897 0 5.705 3.873 10.752 8.966 13.897 2.51 1.536 6.24 3.657 12.193 5.705 3.73 1.317 6.025 1.975 7.961 3 2.08 1.096 2.654 2.34 2.654 3.803 0 1.828-2.152 4.096-7.531 4.096-6.527 0-14.417-2.414-21.374-6.583L453 131.735c4.662 2.999 7.388 4.169 12.48 5.778 5.092 1.682 10.041 2.487 14.847 2.487 7.172 0 13.054-1.902 17.86-5.559 4.16-3.145 6.813-8.046 6.813-14.19 0-4.754-1.721-9.947-7.603-13.458"></path></g></svg>