<svg xmlns="http://www.w3.org/2000/svg" viewBox="34.34529495239258 177.9983367919922 431.3046875 144.0019989013672"><path fill="#004a3e" d="M58.5 311.6c1.7 2.6 3.4 5.4 7.2 4.6 3.8-.8 6-3.4 6.7-7.1.5-2.2.8-4.4 1.2-6.7 1 .2.5-.6.5-.9v-64c0-.8.2-1.6-.5-2.3-1.7-1.8-3.8-.7-5.7-.8-1.7-.1-2.4-.6-2.3-2.3 0-1.6.3-2.5 2.2-2.5 7.9.1 15.8.1 23.7 0 2.6 0 2.3 1.4 2.3 3.1 0 13.4.1 26.8 0 40.2 0 13.5-.2 27-.1 40.4 0 1.3-1 2.6 0 3.9-1.8.7-3.5.7-4.9-.7-1.1-2.1-2.1-4.2-3.3-6.6-3.3 2.9-5.9 6.2-9.4 8.5-8.4 5.5-15.7 4.8-22.4-2.8-8.2-9.4-12.9-20.6-15.8-32.5-4-16.3-4.3-32.8-2.5-49.4 0-.4.3-.7.4-1.1.6.3.4.8.6 1.3-.1-.9.3-1.8-.4-2.6-.1-1.5-.2-2.9.7-4.3.7.6.6 1.4.5 1.6-.1-.6.4-1.8-.3-3 1.4-10.4 4.7-20.1 10.2-29 2.1-2.1 4.1-4.2 6.4-6 .6-.5 1-1.4 1.9-1 1 .4 1.3 1.4 1.1 2.3-.8 2.8-.3 5.6-.4 8.3-.7 10.4.3 20.8-.1 31.3-.3 8.8.2 17.7.2 26.5 0 13.4-.5 26.7-.4 40.1 0 4.7.1 9.4 2.7 13.5zm233.2-26c-.1-.4-.1-.9-.2-1.3-.8-2.2.2-4.6-.6-6.8v-8.2c.8-2.7.4-5.5.5-8.3.2-5.1 1.8-9.5 4.4-13.7 2.8-5 5.2-10.2 9.7-13.9 2.5-2 5.1-3.6 8.4-3.9 2-.5 4-.5 6 0 12.4 3.9 17.4 14.1 20.2 25.3 4.8 18.6 3.9 37-7.1 53.5-9.3 14-22.6 13.8-32.5.2-.6-.9-1.3-1.7-1.9-2.6-.8-.7-1.8-1.3-2.1-2.5 0-1.1 0-2.3-.9-3.2-1-.6-.3-1.7-.8-2.4-1.8-1.1-1-3.1-1.6-4.6-1.4-.9 0-2.4-.8-3.5-.9-1.1 0-2.8-.7-4.1zM169.5 232c3.9 2.7 4.8 7.1 6.1 11.2 1.1 3.6 1.9 7.4 1.8 11.3-.7.8-.4 1.8-.4 2.7v45.3c0 .8.3 1.6-.4 2.3.3 0 .6 0 .6-.2-.4-15.7-.1-31.5-.2-47.2 0-.6.1-1.1.5-1.5 1 5.3.6 10.6.6 16 .1 11.6 0 23.3 0 34.9 0 4.6 1.1 5.3 4.7 4 2.2.2 2.5 1.4 1.7 3.2-.8 1.7-2 2.9-3.8 3.4-.7.4-1.5.3-2.3.3-.4 0-.9.1-1.3-.3.1.8 1.2.1 1.3.8-1.8.8-3.6.9-5.4 0-.9-1.4-2.3-1.5-3.8-1.6-3.4-2.4-5.1-6-6.9-9.9-3 4.5-4.7 10-10.7 11.3-2.7-.3-5.3.2-8-.1-1.1-.5-2.2-.9-3.3-1.4-.9-.5-2-.5-2.8-1.1-.5-.3-.8-.7-1-1.2-.4-1.1-1.5-1.7-2.2-2.7-5.9-10.8-5.8-22-1.9-33.3 2.9-8.2 11.6-14.1 20.4-14.3 2.3-.1 4.5.3 6.7-.4.6-.4.7-1.1.7-1.8-.2-7.9.1-15.7-.2-23.6-.2-.8-.5-1.5-.8-2.2-.2-.3-.3-.7-.5-1-.9-3.2-3.7-4.1-6.3-5.3-1-.5-2.5-.5-1.6-2.3 2.7-.4 5.4-.3 8 0 3.8 1.5 7.6 2.3 10.7 4.7zm205 82.9c-5 4.5-10.9 5.1-16.7 2.3-5.7-2.8-8.4-8.2-9.1-14.4.6-1.4.3-2.9.3-4.4v-57.8c0-1.3-.3-2.7 0-3.3 0 15.9.1 32.4 0 49 0 5 .7 10.1-.4 15.1-1.1-2.8-.7-5.8-.7-8.7-.1-18.4-.1-36.9.1-55.3 0-3.6-.8-5.1-4.5-4.5-1.1.2-3 .9-3.5-.8-.5-1.3-.9-3 1.7-3.6 12.1-3 18-10.1 19.3-22.6.1-1 .4-2.1.6-3.1 2.9 1.2 2.9 1.2 2.9 4.9v15.9c.4-6.4-.5-13.8.4-21.1 1.1 6.2.2 12.5.5 18.7.1 2.3.2 4.5.3 6.8 4.1.2 8.3-.6 12.3.8.9 1.5.9 2.9-.2 4.3-1.9 1.3-4.1.9-6.2 1-4.2.2-4.6.5-4.6 5.1v50.6c0 4.8.3 9.6-.2 14.4-.2 1.1-.9 2.1-1.1 3.3-.1.4-.2.7-.3 1.1.3-.2.5-.7 1-.5 3.5 2.5 4.8 2 6.2-2.1 1.4-4 .5-8.3 1.3-12.3.4-1.2.2-2.4.5-3.6.3-1.6 1-2.8 2.9-2.6 1.6.1 2.2 1.3 2.3 2.8.3 3.6.1 7.2.1 10.7 0 .7-.1 1.4-.2 2.1-.8 2.6-1 5.4-2 8-.8 1.6-1.6 2.9-3 3.8z"></path><path fill="#fd332d" d="M208 235.2c-1.2-.2-2.1.5-3.2.8-.8 1.2-2.1 1.7-3.3 2.3-.6 1.2-1.2 2.5-2.5 3.2-1.4 2-1.1 4.6-2.2 6.7-.5-.2-.3-.9-.6-1.3.3.9-.2 1.9.5 2.7-.3 3.7.2 7.4-.8 11-1.1-1.2 0-2.6-.4-3.6-.3.7.5 2.3-1.2 2.5-.8.1-1.1-.6-1.1-1.4.3-8.4-.9-16.8.7-25.1.7-1.2 1.8-1.5 3.1-1.5h32.1c.3 0 .4.2.3-.1-11.6.2-23.4-.3-35.2.3-.5-.1-1-.3-1.3-.6 1-1.3 2.5-.6 3.7-.6 11.8-.1 23.5-.1 35.3-.1 1.4 1.3.7 2.7.3 4.1-7.3 26.3-14 52.8-21.1 79.1-.4 1.4-.5 3-2.1 3.7-4.2 1.2-8.5.9-12.8.9-1.8 0-3.5-.2-4.6-1.8-.5-.8-.6-1.6-.6-2.6 0-.4.1-.8.2-1.3 1.5-4.6 2.1-9.6 4.6-13.9 5.3-18.5 10.2-37 14.7-55.7.4-1.8.9-3.7 1.3-5.5 1.3-5-2.6-1.2-3.8-2.2zm49-3.2c-3.8 15.2-7.7 30.5-11.5 45.7-2.9 11.4-5.7 22.8-8.8 34.1-.7 2.7.3 3 2.3 2.9 1.4-.4 2.8-.5 4.2 0 .6 1-.2 1.1-.9 1.3.9 0 1.3-.8 2-1.1 2.4-.9 4.9-1.5 7.4-1 1.6.3 2.8 1 2.6 2.9-.2 1.7-1.4 2.2-2.9 2-5.3-.5-10.6-.3-15.8-.4-4.9-.1-10 .2-15 .4-1.9.1-3.9-.1-4.1-2.7.8-7.9 3.5-15.4 5.6-23 4.8-18.1 9.5-36.2 14.5-54.3.4-1.5.5-3.2 2-4.3.5-1.1 1-2.1 1.5-3.2 4.4-.1 8.7-.1 13.1-.1 1.4 0 2.7-.2 3.8.8z"></path><path fill="#004a3e" d="M133 317.1c-9.6.1-19.3.1-28.9.2-1.4 0-2.3-.1-2.3-1.9 0-1.7.2-2.1 2.1-1.8 1.6.2 3-.9 3-3.2-.1-24.7-.1-49.5 0-74.2 0-2-.7-2.6-2.6-2.4-1.4.2-2.5.1-2.5-2 0-2.4 1.4-2.1 2.9-2.1h13.2c3.7 0 3.7 0 4.2 4.2 4.2-5.9 9.5-7.4 15.9-5 .2.1.3.3.3.5s0 .3-.1.3c-.6 1.1 1.5 2.9-.9 3.4-1.1-.1-2-.8-3-1.2-1.8-.8-3.2-.4-4.4 1.2-2.5 3-3.5 6.4-3.5 10.4.1 21.1.1 42.2 0 63.2 0 3.2.4 5.3 4.4 5.6 3.3.2 3.6 1.3 2.2 4.8zm298.6-81.6c-.6 1.5-1.2 3-1.8 4.6.1 2.7-1.9 5.2-.7 8 0 20.7.1 41.4 0 62.1 0 3.6.9 5 4.5 3.9.5 0 .7.3.5.8-1.4 1.2-3.6.7-4.9 2.2-.4.2-.7.4-1.1.6-4.9 1.4-9.9.3-14.8.8-2.1-.5-2.2-2.3-2.6-3.9 0-.5 0-1 .1-1.5.5-1.3.3-2.6.3-4v-71.7c0-2.9-.2-5.1-3.9-4.9-2 .1-1.3-1.6-1.4-2.6-.2-1.7 1.1-1.4 2.2-1.4 6 .1 12 0 18 0 2.6 1.8 0 4.7 1.5 6.8 1.3.9 3-3 4.1.2zm-143.2 78.6c1.3.2 2.6.5 4 .7 1 4.2.9 4.4-3.2 4.4-7.9.1-15.8-.2-23.7.2-2.7-1.6-1-3 .3-4.1.6-.5 1.9 0 2.6-.7.2-.3.4-.6.5-.9l.6-.9c.3-.7.7-1.4.7-2.2.1-24.6.1-49.3 0-73.9-.3-1.2-.5-2.3-.4-3.6l-.1-.1c-.1.1-.2.2-.3.2-.4.1-.8.2-1.3.1-.4-.1-.9-.3-1.3-.4-1-.4-2.2-.6-2-2 .2-1.2 1.2-1.3 2.1-1.3 6.1.1 12.1-.5 18.2.3 1.6 1 1.4 2.7 1.5 4.3.2 9.2 0 18.4.1 27.6 0 1.6-.1 3.2.3 4.8.1.9 0 1.8.1 2.7-.5 1.7-.5 3.3-.1 5-.1.4-.2.9-.3 1.3-.1 12.1-.1 24.3 0 36.4.3 1 1 1.6 1.7 2.1zm176.9 3.9c-2.8 1.8-5.9.5-8.8.7-3.5.2-7-.1-10.4.1-2.9.2-3.5-.8-3.5-3.6.1-23.7 0-47.4.1-71.1 0-3.9-.7-7.4-3.2-10.5-.3-.7-.8-1-1.6-.9h-3.1c-2 0-2.2-1.3-1.9-2.8.9-.4 1.7-.8 2.6-1.2 2.9 0 5.9.3 8.8-.1 5.4.2 9.3 3 11.8 7.6 2 3.6 3.4 7.5 3.4 11.7-.5 2.5.3 5 .4 7.5v52.9c0 1.3-.3 2.7.3 3.9.2 3.5 3.4 1.1 4.7 2.4-1.3.9-3-.1-4.8.8-.1 0 .8.4.5 0-.1-.2-.1-.4.2-.4 1.6.3 4-1.1 4 2.2.1.5.3.7.5.8z"></path><path fill="#fcfdfd" d="M133 317.1c.6-3.2-.5-4.8-3.9-4.2-3.4.6-4.2-.9-4.1-4.1.1-21.2.2-42.5 0-63.7 0-5.5 1.3-10.2 5.2-14.1 1.6-.4 3.2-.3 4.8 0 .8.6 1.7 1.2 2.5 1.8 2.6 1.1 2.2 2.9 1.2 4.9-2.3 4.4-2.4 8.9-.8 13.5 2.4 6.5 7 7.2 11.6 1.9 3.3-6.5 2.9-12.6-2.1-18.1-2.1-2.3-1.6-4.2 1.5-5.2 4.1-1.3 8.6 1 10.9 5.6l-.1-.1c1.5 1.8.7 4.2 1.4 6.2v19.6c0 1.2.6 2.7-.6 3.8-4 .2-8-.4-11.9.6-9.6 2.6-15.6 9.9-16.9 20.4-1.1 9-.5 17.7 4.1 25.8.1 1.1 1.3 1.4 1.6 2.3.3.3.6.6.8.9.4.5.5 1 0 1.5l-3.2-1.6c-.7.5-.7 2.1-2 2.3z"></path><path fill="#fdfdfd" d="M264.4 318c.9 1.5 2.4.7 3.5.7 6.8.1 13.5-.2 20.3.1 3.3.1 4.6-.8 4.2-4.1 1 .4 1.6 2.7 3.1.7.4-.5-.3-1.9 1.1-1.6.5.1.9.9 1.3 1.4-1.1.4-.8 1.9-1.7 2.4-2.9 1.8-6.1 1.9-9.5 1.9-7.2 0-14.5.6-21.6.3-15.9-.7-31.9.7-47.7-.8-3.9-.4-7.2 1.4-11 .6-3.8-.8-8-.5-12-.1-4.2.3-6.6-1.6-8.1-5.2-.1-.3-.7-.4-1-.6-.4-4.1 1-8 1.1-12 0-.8.5-1.5 1.5-1.5 1.1-.5 1.6-.2 1.9 1 .4 1.5 1.7.9 2.6.6.7-.3 2.9-.5.5-1.7.7-1.1 2.3-.6 3.1-1.5-.9 5-2.2 9.9-3.9 14.6-.6-1.5-1.1-2.9-2.9-3.4.4 1.6 2.8 1.5 2.9 3.4 0 .8-.1 1.5-.1 2.3.1 1.2.3 2.5 2 2.4 5-.2 10 .7 15-.6 3.7-13.8 7.4-27.5 11.1-41.3 3.7-13.8 7.5-27.6 11.2-41.3.4-1.4 1.1-2.7.8-4.3 1-1.7 2.6-2 4.4-1.6 2.1.5 1.2 2.3 1.4 3.6.1.8.2 1.6 1 2-3.6 14-7.3 27.9-10.9 41.9-3.4 13-6.8 26.1-10.2 39.1-.6 1.6-.8 2.8 1.6 2.9 11.1.2 22.2.1 33.3 0 4.2 0 5-1.2 5-5.4v-18.4c0-1.6.1-3.2-.9-5-1.8 2.2.5 5.7-2.7 7-1.9-2.7-.3-5.7-.6-8.6-.2-2 2.2-1 3.5-1.2 1.9-.3 2.6.7 2.6 2.5-.1 5.7 0 11.5 0 17.2 0 7.1.1 7.2 7.2 5.9.4-.1.7-.1.9.3.1.8-.3 1.4-1 1.8-2.3.3-1.8 2.3-2.3 3.6z"></path><path fill="#024a3d" d="M58.5 311.6c-3.5-3.4-3.6-7.9-3.5-12.2.2-11.3 1-22.7-.4-34-.4-3 .8-5.7.8-8.7-.2-13 0-26.1-.1-39.1-.1-7.1-.4-14.3-.8-21.4-.2-2.2 1.4-4 .5-6.3-.5 1.1-1.1 2.3-1.6 3.4-.3.6-.5 1.7-1.5.4-.8-1.1-1.7-1.1-1.6.5.1 2.6-1.5 2.4-3.1 2.3 1.6-3.6 3.8-6.7 6.7-9.4 9.8-9.1 18.8-8.8 29.7 1.3 1.1-2.2 2.3-4.3 3.2-6.4.8-1.8 2.3-1.6 3.7-1.5 1.6.2 1.1 1.6 1.1 2.5v31.7c0 3.4-1.6 3.3-3.9 1.9.1-2.4.5-4.9-1-7.1-1.8-5.4-2.7-11.1-5.8-16.1-1.3-2.1-2.5-4.1-4.3-5.8-4.9-4.6-10.8-4.1-15.1 1-3.9 4.6-4.7 10-4.7 15.8 0 24.2-.1 48.5-.1 72.7 0 8.6-.4 17.1.2 25.7.1 3.2 1 5.9 1.6 8.8z"></path><path fill="#004a3e" d="M267.6 190.3c0-.3-.1-.5 0-.8 1.4-7 5.3-11.4 10-11.5 4.9-.1 8.9 4.3 10.4 11.5 1.1 5.1.6 10.1-1.9 14.8-1.8 3.3-4.2 6-8.3 6.1-4.2 0-6.5-2.7-8.3-6-1.1-2.1-2.2-4.3-2-6.8.6-2.5.6-4.9.1-7.3zm114.1 1.6c.6-5.5 2.3-10.4 8-12.7 1.3.5 2.7.6 4-.1 6.2 1.9 7.6 7.3 8.6 12.7 1 5.3-.2 10.4-3.1 14.9-3.9 6.2-10.6 6.2-14.5.1-1.5-2.4-2.8-4.8-2.9-7.7.7-2.5 1.3-4.9-.1-7.2z"></path><path fill="#fb3430" d="M253.9 296.5c.9-2 .9-4.2.6-6.3-.3-2.6 1.6-2.3 2.8-2.5 2.3-.4 1.3 1.6 1.3 2.5.1 8.5 0 17.1.1 25.6 0 2.1-.4 3.1-2.8 3-12.1-.1-24.3-.1-36.4 0-3.1 0-3-1.2-1.8-3.3-.1 1.6.4 2.1 2.3 2.3 4.3.4 8.6.2 12.8.2 5.3.1 10.6.1 15.9 0 1.7 0 3.5.7 4.9-.8.3-.3.3-1.2 0-1.5-1.5-1.7-3.5-.8-5.3-.8-1.6-.1-3.1 1.7-4.9.7-1.2-1.4-2.9-.5-4.4-.9 2.4-1.1 5.4-.6 7.6-2.5 2.1-2.6 3.7-5.6 6.1-8 .5.3 1.1.7 1.5-.2-.5.6-1 .6-1.5 0-.3-.8-.2-1.5.4-2.1 0-1.8.1-3.6.8-5.4z"></path><path fill="#f9fbfb" d="M377.6 228.8c-4-.7-8.1.8-12-.8 1.7-1.4 3.8-.8 5.7-.8 8.9.1 17.8 0 26.8 0 2.7 0 5.7-.3 3.8 4.1-.3.8-.1 1.9-.1 2.8 0 24.6.1 49.3-.1 73.9 0 2.1 1.3 4 .9 6.1-.7.4-1.4.4-2-.2-.3-.4-.5-.9-.6-1.4-.4-23-.1-46-.2-69v-8.8c0-1.3.1-2.7-1-3.7-3.3-1.6-6.8-.6-10.2-.8-2.2-.2-4.5 0-6.8-.1-.7 0-1.3-.1-2-.1-.4 0-.9-.1-1.3-.3-.2-.3-.6-.6-.9-.9zm49 .2c-6.2-1.2-12.5-.2-18.7-.5-1.5-.1-1.8.7-1.8 2 0 1.4.5 2.1 1.9 1.8 3.6-.7 3.4 1.6 3.4 4v77.8c-1.1.8-2.1.9-3.2 0 1.6-1.3 2.5-2.8 2.5-5-.1-23.9-.1-47.8-.1-71.7 0-2.5 0-4.8-3.6-4-1.2.3-1.8-.5-1.9-1.6-.3-1.8-.4-3.9.9-5.3 1.1-1.2 1.3.6 1.9 1.1.9.8 2.1.5 3.1.4 5.3-.2 10.7.4 16-.3.2 0 .6.4.8.7 0 0-.3.4-.5.6-.2.2-.4.2-.7 0z"></path><path fill="#f8fbfa" d="M433.7 314.8c0-.2-.1-.5-.1-.7 2.7.1 2 2 1.6 3.5-.3 1.2-.7 2.3-2.6 2.3-17.1-.2-34.2-.2-51.3-.2-2 0-3.8 0-3.6-2.8.1-2.3-1.7-2-3.1-2 2.3-3.4 2.7-7.6 3.9-11.4 1.7 3.3 1.8 7.2 4.3 10.1.1.4.1.7 0 1.1-.5 1.2-2.6.1-2.7 1.9 1.1 1.3 2.7 1.1 4.1 1 13.3-.2 26.6.5 39.9.4 2.7 0 5.3-.2 7.9-.9.8-.5 1.1-1.5 1.7-2.3z"></path><path fill="#054a3c" d="M159.6 235.5c-4.2-5.7-8.1-6.5-13.8-2.7 3.8 2.3 6.2 5.7 6.5 9.9.3 3.8.5 7.8-2.1 11.2-1.6-1.7-.5-3.6-.4-5.4.4-5.3-.5-9.8-5.1-13.5-1.3-1.1-3.5-2.4-4.3-4.5.3-.3.6-.3.9 0 3.5-.1 6-3.6 9.7-3.1.7 2.2 3.2 2.1 4.7 2.6 2.9 1.1 3.5 3 3.9 5.5z"></path><path fill="#fafbfb" d="M286.7 274.6v-.8c-.5-1.3-.5-2.7 0-4v-2.4c-.7-6.3-.3-12.7-.3-19 0-6.5-.3-12.9.1-19.4.9.1 1.4.5 1.4 1.6-.4 12 .1 24 0 36-.2 14.2 0 28.3-.3 42.5 0 1.7-.1 3.5.8 5.1-.9.4-1.4-.2-1.7-.9-.7-11-.1-22-.3-33 0-2-.3-3.8.3-5.7z"></path><path fill="#054c3d" d="M187.8 300.3c-.9 4.5-.4 9.3-2.6 13.6h-.5c-.2-1.3-.6-2.5-1.7-3.2 1.9-4.4.9-9.1 1.3-13.7.1-1.3-1.1-3.6 1.6-3.7 3-.1 1.5 2.4 1.8 3.8.1 1.1 0 2.2.1 3.2z"></path><path fill="#fafef8" d="M267.5 312.4h-.8v-72.6c0-1.5-.6-3.2.8-4.6.2.2.4.4.5.6.8 1.5.6 3.1.6 4.7V307c0 1.6.2 3.2-.6 4.7-.1.3-.3.5-.5.7z"></path><path fill="#044335" d="M73.7 235.3c1.1.7.9 1.9.9 2.9v66c0 .3-.2.6-.4 1.8-.2-1.7-.4-2.5-.5-3.4v-67.3z"></path><path fill="#004839" d="M348.6 301.4v-66.1h.7c.1.8.2 1.5.2 2.3v61.8c0 1.2.3 2.4-.7 3.4-.1-.5-.2-1-.2-1.4z"></path><path fill="#004f39" d="M460.3 312.4c-1.2-1.2-.7-2.8-.7-4.2v-53.7c-.5-1.7-.7-3.4.1-5 .2.9.6 1.8.6 2.7v60.2z"></path><path fill="#fafbfb" d="M295.8 247.4c-2.7 7.1-4 14.5-4.9 22v-34h.7v15.2c3 .4 2.1-3.2 4.2-3.2z"></path><path fill="#024938" d="M286.5 229c.9 7.6.2 15.2.4 22.8.1 5.2-.1 10.4-.2 15.6-1.2-1.2-.7-2.8-.7-4.2-.1-10.2-.1-20.4-.1-30.6 0-.7-.4-1.5-.7-2.2-5.5-1-11-.2-16.5-.4-1.4-.1-2.9.2-4.3-.1-.5-.5-.4-.8.2-1 7.3.4 14.6.3 21.9.1z"></path><path fill="#04463b" d="M177.6 255.9v51.6c-1.3-2-.9-3.3-.9-4.6-.3-15.7.6-31.5-.5-47.2-.1-.9.6-1 1.3-1.2 0 .5 0 1 .1 1.4z"></path><path fill="#f7322c" d="M194.4 233.6c-1.7 8.4-.5 16.8-.3 25.2 1.8-1.4.6-3.5 1.9-6.1v8c-1.5.3-3.3 1.2-3.3-1.6l.3-27.9c.2 0 .5.1.7.1.6.7.7 1.5.7 2.3z"></path><path fill="#fc2822" d="M257 232l-15.9.3c-.7 0-.8-.5-1-1 5.4-1.5 10.9-.4 16.4-.6.7.1.7.8.5 1.3z"></path><path fill="#faf9f8" d="M253.1 302c0 .8-.1 1.6-.1 2.4v-.1c-1.8 2.9-2.9 6.4-6.4 7.9-.2-1.7.7-3.3.1-5-.3-.8 0-1.9 1-1.6 3.4 1.1 3.5-2.5 5.4-3.6z"></path><path fill="#064436" d="M364.8 202.5V228h-.9v-24.5c-2.3.3-.8 2.3-2.2 2.8-.1-1.2-.2-2.4-.2-3.6 1-1 2.1-.7 3.3-.2z"></path><path fill="#054b3d" d="M426.6 229c.2 0 .4 0 .6-.1v6.4c2.2-2.1 3.4-4.2 5.7-5.2.5 1 .8 2.2 1.9 2.8-1.1.9-2.1 1.8-3.2 2.6-5-.3-5-.3-5-6.5z"></path><path fill="#fafbfb" d="M293.2 293.4c1 1.3 1.4 2.9 1.6 4.6-1.3.1-2.1-.9-3.2-2.4-.1 5.9.7 11-.8 16.1 0-5.2.2-10.3-.1-15.4-.1-2.5 2.3-1.5 2.5-2.9z"></path><path fill="#054a3c" d="M169.5 232c-1.1.1-2-.2-3-.8-1.6-1-2.9-3.5-5.5-.9-.8.8-1.6-1.7-2-3 4.1.3 7.8 1.5 10.5 4.7z"></path><path fill="#fafef8" d="M264.6 228.9c-.1.2-.1.5-.1.7-.5 3.1 2 2.7 3.8 3.2.2.2.4.2.6.2.9.5.9 1.2.6 2-.2.3-.5.6-.9.7-.4 0-.8-.1-1.1-.4-.3-.4-.6-1-1-1.1-1.4-.5-3.7 1.3-4.2-.5-.4-1.4.9-3.5 2.3-4.8z"></path><path fill="#024135" d="M444.3 228.8c-2.9 2.4-5.9.7-8.8.1 2.9-1.1 5.9-1.1 8.8-.1z"></path><path fill="#024134" d="M143.8 317.8c2.7-.6 5.3-1.7 8 .1-2.7 1.2-5.4 1.1-8-.1z"></path><path fill="#014637" d="M381.7 191.9c3.1 2.4 1.6 4.8.1 7.2-.6-2.4-.7-4.8-.1-7.2z"></path><path fill="#fbf9f8" d="M208 235.2c1.5-.7 3.1-1.2 4.5-.4.9.5.5 1.9-.4 2.6-.3-.7-.1-3-1.3-1.4-2.5 3.3-1.7-1.2-2.8-.8z"></path><path fill="#03443e" d="M86.6 209.6c.2-.6.2-1.6.5-1.7.8-.3 1.1.6 1.1 1.2-.1 2.6.7 5.2-.6 7.7-.1-.6-.1-1.3-.2-1.9-.8-1.8.3-3.7-.8-5.3z"></path><path fill="#1b5b4d" d="M408.2 314.1c1.1.4 2.1.3 3.2 0v.9c-.3.3-.7.6-1.2.7-2.1.4-4.2.2-6.3.2-1.2-.4-3.1.3-2.8-2.1.5.1.9.2 1.4.3h5.7z"></path><path fill="#fafbfb" d="M296.6 303.5c1.6.1 1.6 1.4 2.1 2.5-1.3-.1-3 .2-3.7-1.2-.4-.9.8-1.2 1.6-1.3z"></path><path fill="#fbf9f8" d="M199 241.6c.2-1.5 1.2-2.5 2.5-3.2-.3 1.7-.6 3.3-.9 5.1-.6-.7-1.1-1.3-1.6-1.9z"></path><path fill="#054b3d" d="M429 248.1c-1.7-2.9.1-5.4.7-8-.2 2.7-.4 5.3-.7 8z"></path><path fill="#074538" d="M169.4 316.6c2.1-.8 3.3-.3 3.8 1.6-1.5-.1-2.8-.5-3.8-1.6z"></path><path fill="#014231" d="M267.6 190.3c1.2 2.4 1.2 4.8 0 7.2-.7-2.4-.6-4.8 0-7.2z"></path><path fill="#003f30" d="M465.3 318c-.9-2.3-2.8-2.6-4.9-3.2h4.7c.8 1 .6 2.1.2 3.2z"></path><path fill="#fbf9f8" d="M201.5 238.4c.8-1.2 1.8-2.1 3.3-2.3.8 3.5-1.9 2-3.3 2.3z"></path><path fill="#004336" d="M459.7 249.5c0 1.7-.1 3.3-.1 5-1.2-2.1-1.2-4.3 0-6.4 0 .5.1.9.1 1.4z"></path><path fill="#fafbfb" d="M290.9 277.5c.8 2.2.6 4.5.6 6.8-1.4-2.2-.5-4.5-.6-6.8z"></path><path fill="#084f3e" d="M88.9 316.5c1.6.7 3.2.8 4.9.7-1.9 1.4-3.6 1.7-4.9-.7z"></path><path fill="#094d3f" d="M319.9 229.6h-6c2-1 4-1 6 0z"></path><path fill="#024a3d" d="M86.5 209.6c1.7 1.5.6 3.5.8 5.2-.9-1.6-.7-3.5-.8-5.2z"></path><path fill="#034233" d="M393.7 179.1c-1.3 1.4-2.6 1.4-4 .1 1.3-.6 2.6-.6 4-.1z"></path><path fill="#004333" d="M36.9 225.6c1.2 1.2.8 2.5.5 3.9-1-.7-.4-1.8-.7-2.6.1-.4.1-.8.2-1.3z"></path><path fill="#074538" d="M178.6 318.2c-.6-.1-1.2-.2-1.8-.2v-.6h4.1c-.6.7-1.4.8-2.3.8z"></path><path fill="#fafbfb" d="M294.8 297.9c.7.7 1 1.5.8 2.4-.5 0-1.2.3-1.4.1-.5-.9.4-1.6.6-2.5z"></path><path fill="#fd2627" d="M196.8 249.7c-1.1-.9-.9-2-.5-3.8.3 1.2.4 1.8.6 2.4-.1.5-.1 1-.1 1.4z"></path><path fill="#054b3d" d="M437.9 232.9c.3-.6.9-1 1.5-.7.8.4.1 1.1 0 1.6l-1.5-.9z"></path><path fill="#023f32" d="M36 231.2c1.1.9.9 2 .5 3.2-.9-.5-.4-1.3-.7-1.9.1-.4.2-.8.2-1.3z"></path><path fill="#f0f7f6" d="M138.1 316.4v-1.5c1.1 0 1.7.8 2.3 1.5-.8.6-1.5.5-2.3 0z"></path><path fill="#fafbfb" d="M291.7 285.6c.8 1.3.8 2.9.7 4.3-1.4-1.2-.6-2.8-.7-4.3z"></path><path fill="#0c4f40" d="M141.3 230.4c-.2 0-.5.1-.7.1-1.2.7-1.9.1-2.4-.9v-.7c1.1.1 2.2.7 3.1 1.5z"></path><ellipse cx="70.2" cy="233.2" fill="#034034" rx="3.9" ry=".3"></ellipse><path fill="#fcfdfd" d="M310 273.7v-29.3c0-1.7 0-3.5.4-5.2.8-3.2 2.2-6.2 6.1-6 3.9.2 5.6 3.1 6.4 6.6.3 1.5.3 3.2.3 4.8v58.2c0 3.1 0 6.2-2 8.8-2.6 3.4-6.4 3.5-9.1.2-2-2.5-2.2-5.4-2.2-8.4.1-9.9.1-19.8.1-29.7z"></path><path fill="#004232" d="M324.5 241.2v65.4h-.4v-65.5c.1-.1.2 0 .4.1z"></path><path fill="#043f34" d="M308.7 305v-62.5h.4v62.4c-.2.1-.3.1-.4.1z"></path><path fill="#fafbfb" d="M160.5 300.9c-1.1 2.9-.7 6.3-3.2 8.8-1.4 1.4-2.8 2.6-4.8 1.9-2.1-.7-2.8-2.5-3-4.4-.3-2.6-.2-5.3-.2-8 0-6.8-.1-13.6.1-20.4.2-6.7 1.5-8.1 7.6-9.8h.3c1.1.5 2.7.1 3.4 1.5 1 7.2.3 14.5.4 21.7-.1 3 .4 5.9-.6 8.7z"></path><path fill="#004131" d="M160.5 300.9v-30.3c.3.6.8 1.1.8 1.7v31.4c-1.1-.9-.5-1.9-.8-2.8z"></path><path fill="#054635" d="M160.4 264.9c.1-7.9.1-15.8.2-23.7-.4-1.5-.6-2.9.1-4.3 1.2 1 .8 2.5.8 3.8.1 7.6.1 15.2.2 22.9-.1 1-.4 1.3-1.3 1.3z"></path><path fill="#004233" d="M157.1 269.1h-.3c-.7-.1-1.3-.2-2.1-.3 1-1.7 2.4-1 3.3-.3.5.3-.5.4-.9.6z"></path><path fill="#054a3c" d="M160.6 236.9c0 1.4-.1 2.9-.1 4.3-.3-1.9-.6-3.9-1-5.8.9.1 1.1.8 1.1 1.5z"></path><path fill="#f0f7f6" d="M137.2 314c.1-1.2-3.8.5-1.6-2.3 1.1.4 1.7 1.2 1.6 2.3z"></path><path fill="#fdfdfd" d="M382.3 314c-3.3-2.8-4.1-6.5-4-10.6 0-.5.1-1 .1-1.5.9-4.3-.1-8.6.7-12.9.2-1.3-1.5-1-2.5-1.1-1.2-.1-2.1 0-2 1.6.1 1.9.3 3.7-.2 5.6.1 3.7.1 7.4-.8 11.1-.3 1-.6 2.1-1.1 3-.8 1.4-2 2.6-3.8 2.6-2.4 0-2.1-2.3-3.1-3.6-.9-.6-.6-1.4-.2-2.1-.1-23.1-.1-46.2-.3-69.3 0-3.2.8-4.2 4-3.9 2.8.3 5.6 0 8.4 0 .4-.3.8-.5 1.3-.7 1.3-.3 2.5-.3 3.8.2 1.9 1 1.8 2.9 1.8 4.6 0 24.1.1 48.2 0 72.3-.1 1.7-.1 3.6-2.1 4.7z"></path><path fill="#024133" d="M364 303.4v-70h.4v70h-.4z"></path><path fill="#f8fbfa" d="M374.5 295.1c0-1.3 0-2.6-.1-4-.2-4.1.2-4.5 4.1-3.5 1.1.3 2.2.1 1.3 2.5-.9 2.5-1.2 5.9-.3 8.9.4 1.4.3 2.3-1 3 0-3.8.1-7.6.1-11.5 0-1.3-.1-2.3-1.9-2.3-1.7 0-1.9.9-1.9 2.2 0 1.6.4 3.2-.3 4.7z"></path><path fill="#024133" d="M365.5 306c.1.7.2 1.4.2 2.1-.2.4.1 1.1-.7 1.1.2-1.1-1.6-2.4.5-3.2z"></path><path fill="#c2e4df" d="M378.5 232.8h-1v-4h.9c1.1 1.4 1.1 2.7.1 4z"></path><path fill="#fd2922" d="M194.4 233.6c-.9-.6-.8-1.4-.7-2.3h36.8v.7h-25c-2.4 0-4.8.1-7.2 0-1.7-.1-2.9.5-3.9 1.6z"></path><path fill="#fa2c2d" d="M208.9 317.4c-.1 2-1.7 1.3-2.7 1.3-4.1.1-8.2-.1-12.3.1-2.9.1-3.2-.9-1.9-3.2 1 1.4 2.5 1.8 4.2 1.6 4.1-.4 8.3.9 12.3-.8 0 .1.3.7.4 1z"></path><path fill="#fb3430" d="M243.4 315.6c-.7.9-1.7.9-2.8 1 .5-1.7 1.9-.7 2.8-1z"></path><path fill="#014a3e" d="M138.1 229.6l2.4.9c.8.8 1.6 1.2 2.8.9 2-.4 2.3-.1 1.1 1.7-.6 1-.3 1.1.2 1.3 7.3 3.5 6.3 9.9 5.8 16.2-.1 1.1-.2 2.1-.3 3.2-1.4 3-3.7 4.5-7 4.1-3.1-.3-4.9-2.6-6.1-5.2-2.4-5.2-2.1-10.4.4-15.4.9-1.8 1.2-3-.2-4.5.8-.7 1-1.4.2-2.2-.8-.9.1-.8.7-1z"></path><path fill="#004235" d="M107.7 312.1v-77.4h.4v77.6c-.2 0-.3-.1-.4-.2z"></path><path fill="#014335" d="M124.3 240.3v71h-.4v-71.2c.1.1.3.2.4.2z"></path><path fill="#01423c" d="M117.8 231h-14.2v-.4h14.2v.4z"></path><path fill="#0c4f40" d="M134.9 231h-4.8c1.6-1 3.2-.9 4.8 0z"></path><path fill="#024131" d="M120.7 234.5c-.3-1.7-.4-2.7-.6-4.1 1.5 1.2 1.1 2.3.6 4.1z"></path><path fill="#004a3e" d="M382.3 314c1-1.5 1.2-3.1 1.2-4.9 0-24.3 0-48.6-.1-72.9 0-1.4.9-3.4-1.8-3.6-.5-.3-1-.4-1.4-.8-1-1.2-.9-2.3.6-3.1h19.3c.7 1.4.4 2.9.4 4.3 0 25.5 0 51 .1 76.6 0 1.4-.7 2.9.6 4.2v-.1c.5 1.6 2 .8 3 1.2.5.3.4 1.8 1.5.6.6-.6 1.9-.8 2.2-.1 1.7 3.4 1.8-.7 2.7-.5.3 0 .6-.1.9-.1.8.9.5 2.4 1.6 3.1 3.8-.8 7.6-.1 11.4-.4 1.4-.1 3 .5 3.9-1.2h.8c3.1-2 3.7-1.8 4.9 1.6-.6 1.3-1.9.7-2.8.7-16.5 0-33 0-49.5.1-3.6 0-4.1-1.3-2.4-4.1 5.3 1.1 5.3 1.1 5.3-4.3v-70.7c0-1.4-.1-2.7 0-4.1 0 25.5 0 51.1-.1 76.6 0 1.2 1 3.9-2.2 2.5-.1-.1 0-.3-.1-.6z"></path><path fill="#004238" d="M413 233.1v80.5h-.4V233c.1 0 .2.1.4.1z"></path><path fill="#00423c" d="M428.3 316.4c-.3 1.9-1.8 1.6-3 1.6h-12.2c2.5-1.6 5.2-.5 7.8-.8 2.4-.2 5 .6 7.4-.8z"></path><path fill="#013f2f" d="M434 318.1c-1.1-2.3-2.6-3.2-4.9-1.6.8-2.8 3.1-1.1 4.6-1.6.9.9.6 2 .3 3.2z"></path><path fill="#f1fef6" d="M268.3 235.3h.7c1.5 1.2 1.2 2.9 1.2 4.4V309c0 1.7-.1 3.5-1.1 5-.2.1-.4.3-.4.6-1 1.2-1.5.3-2.1-.5.3-.6.5-1.2.8-1.7.8-1.4.4-2.9.4-4.3v-68.5c.1-1.5-.2-3 .5-4.3z"></path><path fill="#014238" d="M270.7 312.4c0 .7-.2 1.3-.8 1.6-.7-1-.4-2.1-.4-3.1V236c0-1-.2-2.1.4-3.1 1.6.3.4 1.6.8 2.4.6.8.4 1.8.4 2.7v71.7c0 .9.2 1.9-.4 2.7z"></path><path fill="#056a5a" d="M269.9 232.9v81.2h-.8c0-24.7 0-49.3-.1-74 0-1.6-.1-3.2-.1-4.8 0-.8 0-1.5-.1-2.3.4-.1.8-.1 1.1-.1z"></path><path fill="#004b45" d="M270.7 312.4v-77.2c1.2 1 .8 2.5.8 3.8v69.7c0 1.2.4 2.7-.8 3.7z"></path><path fill="#024938" d="M286.7 274.6v38.6c-.8-.7-.7-1.6-.7-2.6v-33.4c0-.9-.1-1.9.7-2.6z"></path><path fill="#013f2f" d="M268.3 232.8c-2.3.2-5.3 1.1-3.8-3.2 6.9 0 13.7.1 20.6.2.1 0 .2.2.2.3 0 .1-.1.3-.1.4h-19.8c.5 2.1 2.4 1.1 2.9 2.3z"></path><path fill="#00423b" d="M288.3 317.9h-15.8v-.6h15.8c-.1.2 0 .4 0 .6z"></path><path fill="#054636" d="M266.7 314.1c.7.2 1.4.3 2.1.5 1.1.7.6 1.5-.3 1.3-2.1-.5-3.1.7-4.1 2.1-.6-2.1-.5-3.8 2.3-3.9z"></path><path fill="#024938" d="M286.7 269.8v4c-1.1-1.3-1.1-2.6 0-4z"></path><path fill="#054b40" d="M444.3 248.1v-5.5h.8v5.5c.6.8.4 1.8.4 2.7v58.9c0 .9.2 1.9-.4 2.7l-.8.8c-.6-.8-.4-1.8-.4-2.7v-59.7c0-.9-.1-1.8.4-2.7z"></path><path fill="#01453e" d="M444.3 248.1v65.1c-1.2-1-.8-2.5-.8-3.7v-57.6c0-1.3-.4-2.7.8-3.8z"></path><path fill="#004b39" d="M445.1 312.4v-64.3c1.2 1 .8 2.5.8 3.7v56.8c0 1.3.5 2.8-.8 3.8z"></path><path fill="#00433b" d="M443.7 317.5c4.8.5 9.5-.8 14.5 0h-14.5z"></path><path fill="#fefefe" d="M192.1 313.4c-.3-.3-.5-.7-.9-.8-2.7-.8-2.7-.8-2.2-4.1 1.9 1 3.5 2.3 3.1 4.9zm69.4.4c.4 2.1.9 3.3-.6 4-.2.1-.7 0-.7-.2-.4-1.1.2-2.1 1.3-3.8z"></path><path fill="#03443e" d="M89.8 215.9v-34h.4v33.9c-.1-.1-.2 0-.4.1z"></path><path fill="#fe2b26" d="M257.2 317v-22.8h.4v23c-.2-.1-.3-.2-.4-.2z"></path><path fill="#fe2a1e" d="M253 304.3c.5-.6.9-1.1 1.4-1.7-.2 2.5-.2 2.5-1.4 1.7z"></path><path fill="#004234" d="M401.1 314c-1.8-1.1-1-2.9-1-4.4v-80.7c1.5.1 1.1 1.2 1.1 2.1 0 27.6 0 55.3-.1 83z"></path><path fill="#036a4e" d="M380.8 232c.3.2.5.5.8.7-1 0-2.1.1-3.1.1v-4c.3-.1.5-.1.8 0 .7 1 0 2.7 1.5 3.2z"></path><path fill="#034136" d="M380.8 232c-2.2-.2-1.4-1.9-1.6-3.1h1.6c-.8 1-.7 2.1 0 3.1z"></path><path fill="#014034" d="M382.2 314.7c3-.2 1.8-2.5 1.8-4 .1-24.3 0-48.7.1-73 0-1.4-.4-2.9.8-5v78.8c0 4.9-.9 5.4-5.7 3.2 1-.5 2-.4 3 0z"></path><path fill="#fefefe" d="M268.3 235.3v72.6c0 1.5.6 3.2-.8 4.6v-77.2h.8z"></path><path fill="#004a3e" d="M410.5 315c-2.4.7 2.1 2.5-.4 2.9-.9.1-3.5 1.5-2.8-1.8.1-.5-1.1-.3-1.4.3-.5 1.4-1.5 2.2-2.7 1.3-1.2-1 1.1-1.5.8-2.6 2.3-.1 4.4-.1 6.5-.1z"></path></svg>