<svg xmlns="http://www.w3.org/2000/svg" viewBox="0.36578088998794556 0.21129941940307617 1874.8443603515625 743.9151000976562"><g fill="none"><path fill="#0573BB" d="M1875.21 710.04c-3.16 0-6.37-.4-9.46 0-7.35 1-9.31-1.81-9.49-9.17-.2-8.36 2.31-11.5 10.54-10.24 2.75.42 5.6.11 8.41.14v19.27z"></path><path fill="#E6911A" d="M540.04 286.3C466.75 188.36 385.61 96.92 303.25 4.95c33.28-6 65.24-5.94 97-1.85 80.167 10.313 149.21 43.783 207.13 100.41a384.87 384.87 0 0133.37 37.44c3 3.86 3.73 6.94.63 11.27-32.09 45-64.17 89.94-99.13 132.75a9.22 9.22 0 01-2.21 1.33zM129.1 83.51c4.47.19 5.85 3.06 7.73 5 36.1 37.18 72.4 74.18 108.11 111.73a34723.99 34723.99 0 01168 177.86c6.59 7 12.7 14.47 19.66 21.07 5 4.69 4.09 7.76-.29 12.08-10.38 10.25-20.61 20.68-30.41 31.49-4.63 5.11-7.46 5.37-12.53.21a53122.338 53122.338 0 00-178.75-180.71c-41.08-41.45-82.07-83-123.5-124.06-5.89-5.85-5.34-9-.14-14.4 12.06-12.52 23.1-26 37-36.75 1.84-1.45 3.4-3.66 5.12-3.52zm229.15 402.41c-11.44 10.8-24.23 22.61-36.7 34.76-4.2 4.09-7.34 4.21-11.71.26-17.85-16.17-36.1-31.92-53.9-48.14-34.9-31.8-69.93-63.46-104.29-95.82-43.77-41.23-86.9-83.15-130.42-124.64-3.43-3.27-3.57-6-2.09-10.24a439.73 439.73 0 0123.24-53.69c3.67-7.3 6-7.53 11.72-1.88a9350.124 9350.124 0 0088.3 86.84 184967.65 184967.65 0 00187.1 181.86c9.94 9.67 19 20.22 28.75 30.69zM471.8 368.16c-32.3-36.32-63.53-71.91-95.28-107-44.4-49.12-89.05-98-135.35-145.39-19.64-20.09-38.4-41-57.86-61.32-4.51-4.7-4.18-6.66 1.54-9.75 16.61-9 33.86-16.43 51.4-23.37 5.52-2.18 7.69.57 10.64 3.73 62.21 66.45 123.36 133.91 182.25 203.37 25.08 29.59 49.64 59.62 74.7 89.23 4.36 5.16 5.42 8.5.16 14-11.06 11.57-21.24 23.97-32.2 36.5zM3.11 312.99c25.35 23.46 49.53 46 73.84 68.31 63.43 58.33 127.78 115.69 194.1 170.76 7.22 6 7 8.87-.2 14.26a326.43 326.43 0 00-28.42 24.27c-5.39 5.07-8.82 5.13-14.91.32a4247.25 4247.25 0 01-177-147.95c-11.77-10.34-23-21.4-35.29-31-9.42-7.37-14-15.79-14.31-27.79-.66-23.18-1.42-46.28 2.19-71.18z"></path><path fill="#0573BB" d="M827.77 406.71c.3 22.06 2.4 42.51 10.72 61.82 14.543 34.174 53.993 50.14 88.21 35.7 14-5.81 23.41-16.19 26.95-31 1.4-5.82 4-7.37 9.49-7.11a178.91 178.91 0 0023.5 0c8.26-.68 8.34 2.57 6.76 9.31-6 25.67-22 42.7-45.49 52.82-26.7 11.51-54.61 13-82.59 5.73-32.59-8.41-53.66-30.31-64.67-61.24-15.69-44.1-15.67-88.74 1.1-132.6 17.79-46.49 56.1-70.72 105.92-68 17.49.95 34.54 4.27 50.19 12.83 20 11 31.57 28 36.43 50.06 1.8 8.14-.28 12.28-9.34 10.7a12.24 12.24 0 00-3.2 0c-14.58 1.33-27.08 1.44-30.51-18.33-1.86-10.89-12.36-18.18-23.27-21.83-32.62-10.91-69.85-3.88-87.28 33.81-10.08 21.79-12.55 45.01-12.92 67.33zm515.31 43.91c-17.81 0-35.66.72-53.41-.27-10.26-.57-11.54 3.29-11 12.11 2.14 37.43 29.35 59.51 63.73 51.17 15.35-3.73 24.83-13.39 28.23-28.61 1.25-5.58 3.49-7.89 9.28-7.33 4.94.48 10 .09 14.94.1 11.52.05 11.92.6 9 12.26-6.72 26.95-30.49 45.86-61.93 48.8-10.27 1-20.7 1.26-30.91-.48-35.64-6-56.09-26-63.41-62.67-4.71-23.68-4.22-47.51 2.84-70.75 10-32.74 34.66-52 68.62-54.48 10.36-.76 20.73-.81 30.86 1.18 34.65 6.84 54.24 31 57.18 69.89 2.19 29.08 2.19 29.08-26.6 29.08h-37.42zm-16.2-23.48h39.5c3.23 0 5.92.27 6.62-4.58 3-20.83-12.23-43.68-32.41-47.72-31.44-6.28-56.64 12.49-60.46 44.44-.8 6.64 1.19 8.08 7.18 8 13.21-.33 26.4-.14 39.57-.14zm-219.24 23.48c-18.88 0-37.76.31-56.63-.14-7.47-.18-9.07 2.61-8.31 9.42 1.18 10.66 2.8 21.13 7.79 30.77 8.81 17 27.63 26.53 48.4 24.54 19.35-1.85 30.75-11.73 36.53-31.79.57-2 .11-5.07 2.71-5.14 9.93-.28 19.93-.61 29.79.25 3.51.3 1.58 4.76 1.09 7.34-4.66 24.78-20.06 40.48-43.15 48.44-22.16 7.62-44.93 7.37-67.13-.06-20-6.69-34.19-20.31-41.4-40.23-11.67-32.29-11.94-65.07.38-97 11-28.4 33.21-43.36 63.49-46.35 11-1.09 22.14-1.21 33 1 36.19 7.29 55.15 32.25 57.66 75.22 1.39 23.76 1.39 23.76-22.54 23.76l-41.68-.03zm-17.73-23.48h40.53c3.54 0 6.68.48 7.26-5.05 2.19-20.94-12.32-42.64-32.07-47.06-31.18-7-57.93 12.43-61.51 44.31-.71 6.34 1.32 8.08 7.39 7.91 12.79-.36 25.6-.11 38.4-.11zm406.8-76.63a98 98 0 0142.48 8.42c16.21 7.29 24.21 20 26 37.35.59 5.69-.44 8.95-7.11 8.07a42.8 42.8 0 00-9.6 0c-10.27 1-19.12 1.32-20.19-13.16-.51-6.88-7.24-11.15-14-13.41a56.58 56.58 0 00-38.64.57c-10.52 3.88-16.27 11.37-16.2 22.59.06 10.85 7.05 17.11 16.49 19.86 19.76 5.75 40 10 59.61 16 24.55 7.59 37.13 26.88 33.8 51.11-2.63 19.12-12.06 34.42-30.25 42.23-27.58 11.85-56 12.69-84.21 2.34-19.44-7.13-29.9-22-32.88-42.36-.94-6.41.38-10.32 8.12-9.17 3.54.45 7.12.45 10.66 0 9.87-1.09 18-.69 18.82 12.56.29 4.68 4.49 8.66 8.55 11.83 12.67 9.91 40.56 11.14 53.75 2.11 9.09-6.22 12.42-15.08 11.49-25.89-.89-10.27-8-14.8-16.49-17.25-16-4.64-32.24-8.44-48.33-12.77a146.13 146.13 0 01-14.1-4.78c-40.42-15.43-34.13-64.38-10-81.54 15.46-10.97 32.6-14.96 52.23-14.71zm121.39 93.25c-.08 15.38 1 30.6 7.32 44.92 8 18.15 22.62 26.43 42.91 24.49 16.46-1.57 27.73-12 32-30.81 1.32-5.8 3.15-8.79 9.64-7.9 4.54.63 9.24.12 13.87.12 13 0 13 0 9.94 12.94-8 33.85-42 55.67-79.58 51-42-5.22-64.09-27.32-70.28-70.17-3.73-25.87-2-51.15 9.15-75.11 26.7-57.42 106.09-52 128.82-17.89a77.1 77.1 0 0111.82 29.35c1 5.27 0 8.36-6.25 7.64-2.46-.28-5 0-7.47 0-6-.09-12.93 1.56-17.86-.83-4.76-2.31-3-10.16-5.11-15.32-4.79-11.89-13.32-19.43-26-21.11-15.71-2.09-29.71 1.75-40 14.84-9.25 11.89-13.03 27.8-12.92 53.84z"></path><path fill="#E6911A" d="M366.38 713.92c-26.88.15-26.91.14-19.16-20.23a977.376 977.376 0 0027.41-82.94 31.73 31.73 0 0110-15.81c14.1-12.52 27.86-25.43 41.52-38.44 3.69-3.52 5.84-4.14 10.11-.28 23.51 21.3 23.42 21.07 13.11 49.08-12.14 33-25.11 65.59-40.64 97.16-3 6.07-6.69 9.4-13.64 9.64-11.03.41-22.03 1.41-28.71 1.82z"></path><path fill="#0573BB" d="M1192.83 418.26c0-36.28.22-72.57-.17-108.85-.08-7.6 2.26-9.44 9.59-9.381 24.31.191 24.31-.109 24.31 24.481 0 66.16-.15 132.32.18 198.48 0 8.39-1.41 11.77-10.83 11.49-23.06-.67-23.08-.16-23.08-23.39v-92.83z"></path><path fill="#E6911A" d="M303.05 709.84a382.79 382.79 0 01-61.87-15.16c-3.9-1.33-5.37-2.92-4.17-7.67 4.77-18.93 9.05-38 13.15-57.08.85-4 3.38-6 6.07-8.3 14.37-12.19 28.92-24.19 43-36.66 4.5-4 7.44-3.47 11.61.23 8.75 7.76 22.53 13.54 25.62 23s-4.08 22.28-7.4 33.45c-6.17 20.74-12.73 41.35-19.33 62-1.04 3.33-1.35 8.64-6.68 6.19zm128.33-3.99c17.83-31.86 32-63.91 45.33-96.34a133.35 133.35 0 005.37-14.79c5.45-19.62 15.29-36.24 31.12-49.46 7-5.89 13.11-13.06 19.12-20.08 4.29-5 6.49-5.55 12-.34 11.79 11.08 13 21.35 6.17 36.28-19 41.35-37.17 83-61.19 121.77-3.36 5.43-7.38 9-13.6 10.89-14.09 4.41-28.11 9.21-44.32 12.07zM28.18 494.26c11.94 5.74 20.77 15.57 30.77 23.78 45.6 37.47 91.77 74.19 139.53 108.88 5.47 4 8.21 7.45 5.93 14.84-2.81 9.1-3.72 18.76-5.57 28.16-.74 3.76-1.64 6.52-6.79 3.74-75.2-40.62-130.61-99.32-163.75-178.48-.13-.3 0-.71 0-1.06l-.12.14zm595.1-9.56c12.16 11.53 11.79 22.27 5.27 36-20.41 42.94-42.3 84.94-68.56 124.65-12 18.1-31.6 23.66-49.4 32.78 15.72-26.69 31.14-53.13 44.36-80.78 6-12.49 13.25-24.63 17.24-37.75 9.3-30.62 32.06-51.36 51.09-74.9zm40.4-309.19c19 29.41 18.93 29.4.47 57-23.92 35.73-49.64 70.15-75.71 104.32-4.41 5.8-7 7.67-11.79.16-16.85-26.19-19.44-16.11 1.16-43.17 14.65-19.25 29.4-38.44 43.61-58 14.21-19.56 27.75-39.57 42.26-60.31z"></path><path fill="#0573BB" d="M1663.38 592.19c21.67 0 34.64 7.36 39 21.71.85 2.82 4.76 7.85-.76 8.57-4.62.61-11 4.24-15-2.9-8.48-15.38-30.34-19-43.74-7.47-9.23 7.94-7.24 21.38 4.4 25.47s23.86 6.69 35.68 10.4c17 5.34 23.54 13.55 23.63 28.58.09 15.86-7.56 26.37-23.15 31.9a67.35 67.35 0 01-40.9 1.65c-11.84-3.19-20.2-10.37-22.6-22.88-.73-3.82-4.87-10 2.38-10.92 4.85-.63 13-4.68 14.17 6.56.85 8 6.78 12.87 15 14.64a44.17 44.17 0 0028.13-2.71c6.8-3.06 10.24-8.58 10.26-16.07 0-7.74-4.07-13-11-15.33-8-2.67-16.42-4.4-24.69-6.36-6.59-1.56-13-3.54-18.9-6.94-19.48-11.28-20-37.79-1-50.1a50.29 50.29 0 0129.09-7.8zm-859.35 59.32v-50.18c0-3.68-.42-7.07 5.2-6.92 14.93.4 30-.55 44.8.8 22 2 35.29 15.53 41.4 36a71.93 71.93 0 011.51 34.83c-5.43 27.58-21.79 42.43-49.65 43.69-12.08.54-24.21-.14-36.29.31-5.83.22-7.15-1.92-7.06-7.32.28-17 .09-34.09.09-51.21zm15.55.64v22.46c0 23.22 0 23.23 23.53 21.84 12.58-.74 24.19-3.82 30.85-15.74 10.11-18.07 10.29-36.66 1-55.09-8.45-16.82-24.1-18.05-40.29-17.69a76 76 0 01-8.54 0c-5.23-.46-6.76 1.93-6.66 6.89.27 12.43.11 24.89.11 37.36v-.03z"></path><path fill="#E6911A" d="M580.31 631.76a893.11 893.11 0 0074.93-137.25c3.36-7.64 9.49-14.07 14.44-21 12.35-17.3 24.75-34.56 38.31-53.47-1.48 14.28-4.89 26.28-8.5 38.16-21.37 70.23-59.66 129.2-117.25 175.22l-1.93-1.66zM615.22 393c-17.36-24-17.32-24 .25-47.11A1784.126 1784.126 0 00688 243.01c1.28-2 2.64-3.92 4.4-6.54 4.71 9.82 6.94 19.48 9.61 29a9.06 9.06 0 01-1.24 8c-26.16 40.71-53.83 80.34-83.75 118.39a6.47 6.47 0 01-1.8 1.14z"></path><path fill="#0573BB" d="M1740.11 710.9c16.31-38.72 31.85-75.26 47-111.95 2.39-5.79 6.63-4.32 10.59-4.37 3.96-.05 8.39-1.47 10.66 4.21 14.55 36.55 29.33 73 44.06 109.58-15.87 3.75-16.07 3.64-22-10.74-7.16-17.56-7.16-17.56-26.18-17.56a36.92 36.92 0 01-6.4 0c-20.46-3.71-34.47 1.82-38.74 24.51-1.82 10-11.07 3.61-18.99 6.32zm57-100.36c-7.08 17.75-13.25 33.17-19.39 48.59-1.52 3.8-2 6.88 3.82 6.8 11.67-.16 23.34 0 36.36 0l-20.79-55.39zm-644.21 27.91c23.39-22.06 56.33-9.57 60.8 20.78a64 64 0 01-.7 24.32c-3.12 13.34-9.35 24.09-23.44 27.62-13.39 3.37-25.38.41-34.68-10.62-4.74 1.59 1.14 8.34-5.24 9.58-8.74 1.69-12-.46-12-9.56 0-31.33-.13-62.65.17-94 0-4.84-4-12.22 7.19-12.42 10.86-.2 7.68 6.61 7.8 11.89.27 10.34.1 20.67.1 32.41zm-.12 34.49c-.47 3.14 1.12 8.35 2.72 13.34 2.83 8.79 8.86 14.39 18.54 15 10.08.64 17.27-4 21-13.11a48.81 48.81 0 00.13-37.29c-3.16-8.08-9.75-12.26-18.09-12.73-7.93-.44-14.5 3-18.67 10.06-4.17 7.06-5.37 14.53-5.63 24.73zm309.17 27.48c-9.65 11.34-21.18 14-34.29 10.73-10-2.53-17.46-8-18.54-19.29-1.12-11.86 3.93-21.47 14-26.51 8.85-4.44 18.4-4.87 28.1-5 3.6 0 9.62 2.92 10.22-3.92.53-6 0-12.34-6.13-16-8-4.84-19.87-2.5-24.2 5.85-4.15 8-10.4 3.65-15.75 4-2.3.16-1.48-2.61-1-4.24 1.9-7.31 5.93-12.93 13.13-15.75a46.75 46.75 0 0136.32.61c10.33 4.35 13.06 13.44 13.24 23.57.267 15.333.357 30.647.27 45.94 0 3.85 3.28 9.54-5.25 9.73-7.14.2-11.21-1.15-10.12-9.72zm-.23-23.38c.32-2.95.51-5.92-3.72-5.82-8.06.17-16.25-1.08-24 2.48-6.49 3-10.13 7.89-9 15.07 1.16 7.55 6.24 11.59 13.73 12.49 13.05 1.56 22.44-8.37 22.99-24.22zm-95.96 35.58c-28.62-11.48-37.93-51.38-17.87-74 9.3-10.51 21.44-13.12 35-10.38 10.79 2.18 17.67 8.64 21.11 18.85.93 2.76 3.13 7.23-1.43 7.84-4.08.54-10.52 3.71-12.59-3.14-2.75-9.14-8.19-14.18-17.73-13.38-10.45.88-15.21 8-17.22 17.55a62.53 62.53 0 00.76 30.57c2.5 8.72 7.76 14.46 17.22 14.76 9 .28 15-4.23 16.94-13.06 1.87-8.6 8.71-5.6 12.81-4.72 5.83 1.23 2.21 6.48 1.1 9.52-4.17 11.5-13.23 17.18-24.89 19-3.54.56-7.3.15-8.43 5.3 1.77 1.9 4.34.78 6.49 1.16 5.54 1 9.31 4.21 10 9.62.74 5.67-1.54 10.63-7 13.15a29.94 29.94 0 01-22.86 1.12c-1.68-.57-3.75-.65-3.37-3.09a3.87 3.87 0 014.45-3.57c3.84.41 7.53 2.37 11.52.89 2.85-1.05 5.25-2.58 5.08-6-.17-3.42-2.22-5.69-5.39-5.49-17.22 1.07-6.22-6.9-3.7-12.5zm121.92-43.11c.21-26.75 14.94-42.48 39.75-42.45 25.17 0 40.17 16.31 40 43.45-.13 26.19-15.34 41.87-40.49 41.73-24.94-.12-39.47-15.92-39.26-42.73zm15.7.54c.12 22.69 12.71 35.35 30.42 30.59 11.9-3.2 18.71-15.72 17.84-32.79-.91-17.72-7.55-27.42-20.56-29.36-9.57-1.43-17.74 1.45-22.86 10-3.9 6.59-5.19 14.02-4.84 21.59v-.03z"></path><path fill="#E6911A" d="M640.53 435.3c-3.77-6.23-6.91-11.77-10.4-17.08-2.16-3.3-1.37-5.78.84-8.64 27.12-35.23 52.54-71.67 78.28-111.75 1.48 17.64 7 31.45-3.73 46.5-21.44 30.09-41.69 61.02-64.99 90.97z"></path><path fill="#0573BB" d="M1294.47 670.29c0 10.68.12 21.37-.08 32.05 0 3 1.84 8.2-4.21 7.48-3.78-.44-10.11 3.64-10.73-4.42-.44-5.66-2.45-3.44-4.92-1.34-10.46 8.85-22.45 11.27-34.75 5.43-12.65-6-14.75-18-14.5-30.78.28-13.88.35-27.78-.07-41.65-.18-6.16 1.88-7.77 7.87-7.87 6.46-.11 7.7 2.43 7.57 8.17-.33 13.88-.25 27.77-.06 41.65.19 14.35 5.65 21.68 16.16 22.32 11.93.72 20.89-7.36 21.76-21.22.9-14.19.77-28.46.59-42.7-.07-5.77 1.27-8.24 7.65-8.21 6.12 0 8.06 1.95 7.84 8-.41 11.01-.12 22.06-.12 33.09zm-295.65-28.54c-1.73 3.25 3.71 9.44-3.44 10.15-5 .5-10.58 2.56-13.52-5.67-3.22-9-18.54-10.82-25.63-4.25-6.64 6.16-5 14.11 4.06 17.32 8.34 3 17 4.93 25.47 7.6 8.82 2.78 14.88 8 15.36 18.1.5 10.4-3.8 18.11-13 22.55a48.49 48.49 0 01-37.35 2.37c-6.32-2.08-11.56-6.16-13.73-12.5-1.11-3.27-5.82-8.94.18-10.5 4.41-1.15 11.5-4.48 15 4.63 4.18 11 19.91 13.3 28.72 5.3 6.72-6.1 5.68-14.55-2.85-17.81-6.57-2.51-13.73-3.48-20.58-5.3-15-4-21.36-10.93-21-22.78.36-11.85 8.23-19.71 22.85-22.7 15.88-3.25 29.45.38 39.65 13.68l-.19-.19z"></path><path fill="#0573BB" d="M999.03 641.94c-.3-6.67-3.27-14.9 9.22-12.91 5.31.84 3.18-4.22 3.74-6.93.68-3.31-1.78-7.77 2-9.79 3.58-1.93 8.23-3.81 11.89-3.09 3 .58 1.56 5.73 1.26 8.66-.86 8.26 1 13 10.69 11.35 4.15-.73 8.4-1.4 8.28 5.7-.13 7.61-5.21 5.51-8.82 5.14-8.13-.83-10.54 2.44-10.17 10.33.59 12.43.35 24.92.09 37.37-.19 8.93 3.54 13.68 12.66 12.73 4.09-.43 5.87.17 5.83 4.69 0 4.19-1 6.27-5.71 7-19.73 3-27.94-3.85-28-24v-37.38c0-11.89-.4-12.11-13.18-9l.22.13z"></path><path fill="#E6911A" d="M483.67 458.29c-.78.93-1.83 2.33-3 3.58-10.34 10.8-20.87 21.43-31 32.45-3.91 4.25-6.39 3.88-10-.29-6.22-7.21-17.29-13.48-18.2-21.11-.85-7.18 11.45-13.15 17.47-20.13a84.2 84.2 0 018.92-9.19c4.64-4 9.24-14 13.5-11.12 8.84 6 15 15.83 22.3 24.12.16.19.01.67.01 1.69zM368.6 571.78c-3.16-2.59-6.22-4.94-9.1-7.48-5.83-5.16-15.55-9.92-16.28-15.77-.8-6.36 9.7-10.91 15.18-16.33 7.07-7 14.49-13.62 21.51-20.66 3.21-3.21 5.83-3.55 8.73 0 .238.263.499.504.78.72 22.55 19.58 22.56 19.59.86 39.88a2214.284 2214.284 0 01-16.42 15.2c-1.48 1.45-3.2 2.73-5.26 4.44zm148.32-149.63c-7.06-8.39-13.5-16.33-20.28-24-2.79-3.14-2.19-5.25.33-8.09 9.88-11.14 19.7-22.34 29.28-33.74 3.65-4.34 5.61-3.22 8.83.65 18.68 22.51 18.79 22.44-.29 44.62-5.77 6.72-11.6 13.36-17.87 20.56zm196.4-59.83c3.37 19.94-3.82 36.14-15.63 51.47-13.65 17.72-26.08 36.38-39.27 55-10-15.77-9.7-15.59-.09-29.13 16.49-23.2 32.6-46.67 48.93-70 1.87-2.69 2.77-6.4 6.06-7.34zM523.46 501.67c-1.61 1.88-2.92 3.56-4.38 5.09-9.31 9.77-18.8 19.38-27.93 29.31-3.63 3.94-5.82 4.4-10.09.25-17-16.55-17.18-16.36-1.18-33 5.9-6.15 12.15-12 17.58-18.56 4.32-5.19 7.42-6.49 11.8-.17 3.21 4.64 7.38 8.61 11.07 12.93 1.11 1.27 2.05 2.7 3.13 4.15zm64.19-73.56a46.7 46.7 0 01-2.65 3.88c-9 10.58-18.11 21-26.93 31.72-3.32 4-5.64 3.23-8.15-.49a21.08 21.08 0 00-1.3-1.69c-14.32-17.24-14.29-17.21.54-34 5.64-6.41 11.23-12.88 16.58-19.53 2.91-3.62 4.93-4.34 7.82.09 4.43 6.78 9.34 13.3 14.09 20.02z"></path><path fill="#0573BB" d="M1069.49 641.63c6.34-8.13 12.9-13 22.14-13.06 4.4 0 7.69.21 7.29 6.09-.31 4.41.45 7.48-6.41 7.69-16.77.53-22.72 7.35-23 24.06-.2 11 0 22.06-.07 33.09 0 5.37 1.88 11-7.85 10.85-10.06-.17-7.23-6.41-7.28-11.36-.18-19.22-.31-38.45.1-57.65.1-4.52-4-11.62 6.45-12.22 9.4-.55 8.9 4.97 8.63 12.51z"></path><path fill="#E6911A" d="M614.17 467.51a15.39 15.39 0 01-1.52 3.12 5595.553 5595.553 0 01-27.53 32.4 5.22 5.22 0 01-2.44 1.42c-4.31-5.12-8.6-10.27-12.68-15.58-2.9-3.75.8-5.8 2.65-8 7.94-9.52 16.12-18.85 24-28.39 2.83-3.4 5-4.76 7.76 0 3.06 5.12 6.52 10.03 9.76 15.03z"></path><path fill="#0573BB" d="M924.17 670.51c0 11-.37 22.1.13 33.12.3 6.55-3.19 6.38-7.87 6.5-5.09.14-7.69-.68-7.59-6.81.34-22.427.34-44.863 0-67.31-.09-6.35 3-6.59 7.87-6.71 5.27-.14 7.79 1.05 7.57 7-.41 11.38-.11 22.79-.11 34.21zm181.27-1.08c0-11 .29-22.1-.12-33.12-.23-6 2.28-7.18 7.56-7 4.82.13 8 .35 7.88 6.7-.34 22.44-.34 44.877 0 67.31.1 6.12-2.49 7-7.58 6.82-4.68-.12-8.16 0-7.88-6.5.49-11.4.14-22.82.14-34.21zm222.48.61c0 10.68-.26 21.36.11 32 .2 5.72-1.08 8.29-7.53 8.15-5.73-.13-8.06-1.26-7.95-7.59.38-21.7.27-43.41.06-65.11-.06-5.5.75-8.31 7.4-8.35 7 0 8.25 2.78 8 8.87-.37 10.68-.09 21.36-.09 32.03zm123.93-56.38c-3-.79-6.45-1.56-9.81-2.61-4.42-1.38-8.69-3.36-12.09 2.07a4.22 4.22 0 01-6.45 1.18c-2.12-1.68-.51-3.94.22-5.78 3.33-8.36 9.33-10.41 17.87-8.2 6.63 1.72 14.16 6.84 19.64-2.57.42-.72 2.77-.86 4-.45 2 .7 1.94 2.8 1.45 4.46-2.14 7.15-6.65 11.47-14.83 11.9zm-339.03-18.98c6.36-1.12 9.69.13 9.64 8-.05 7.87-3.4 8.46-9.68 8.43-6.28-.03-9.39-.83-9.42-8.58.02-7.96 3.22-9.02 9.46-7.85zm-196.29 16.1c-6.76 1.44-9-.94-9.24-8.29-.26-8.39 4-7.85 9.76-8.13 6.51-.32 9.1 1 9.17 8.48.08 8.01-3.37 8.99-9.69 7.94zm820.04 89.23c1.24 6.73.09 10.24-8.29 10.33-8.38.09-9.84-2.66-9.77-10.25.07-7.15 1.55-9.78 9.28-9.65 7.47.13 10.59 2.07 8.78 9.57zM1319.3 594.79c6.95-1.23 10.27 0 10.16 7.84-.11 7.5-3 8.62-9.45 8.51-6.26-.1-9.51-.81-9.4-8.51.11-7.44 2.44-9.74 8.69-7.84z"></path><path fill="#E6911A" d="M582.24 633.43c-.69 1.54-2.22 2.34-3.31 1.32-1.6-1.5.82-2 1.39-3l1.92 1.68zM28.38 494.12l-.86-.55.7.69z"></path></g></svg>