<svg xmlns="http://www.w3.org/2000/svg" version="1.0" viewBox="0 0 120.47516632080078 30.25113868713379"><path fill="#fe9007" fill-rule="evenodd" d="M40.934 11.53c1.904 0 3.491 1.587 3.491 3.595a3.567 3.567 0 01-3.597 3.598h-4.76a3.567 3.567 0 01-3.596-3.598 3.568 3.568 0 013.596-3.596h4.866z"></path><path fill="#015f3d" fill-rule="evenodd" d="M88.743 26.655a3.565 3.565 0 01-3.596 3.596c-1.904 0-3.596-1.585-3.596-3.596V3.597C81.55 1.588 83.243 0 85.147 0c2.01 0 3.596 1.587 3.596 3.491v23.164zM112.86 2.011c1.057.527 1.797 1.691 1.797 3.067 0 2.009-1.586 3.596-3.49 3.596-.74 0-1.375-.212-1.904-.528-1.163-.637-2.538-1.059-3.913-1.059a8.036 8.036 0 00-8.039 8.039 8.037 8.037 0 008.039 8.04c3.174 0 5.817-1.904 7.192-4.443h-7.192c-2.01 0-3.596-1.694-3.596-3.597a3.567 3.567 0 013.596-3.598h11.53a3.566 3.566 0 013.595 3.598c0 8.356-6.77 15.125-15.125 15.125-8.356 0-15.125-6.769-15.125-15.125S96.994 0 105.35 0c2.75 0 5.288.74 7.51 2.01m-89.802.212c1.057.633 1.692 1.796 1.692 3.067 0 2.008-1.586 3.596-3.49 3.596-.74 0-1.375-.212-1.904-.634a8.46 8.46 0 00-4.231-1.164 8.035 8.035 0 00-8.039 8.038 8.036 8.036 0 008.039 8.04c3.596 0 6.664-2.434 7.615-5.713L27.289 2.75c.423-1.48 1.798-2.433 3.385-2.433h13.645c2.01 0 3.596 1.586 3.596 3.49a3.567 3.567 0 01-3.596 3.598h-9.944c-.634 0-1.164.422-1.374.952l-3.385 11.105c-1.904 6.241-7.722 10.789-14.491 10.789C6.769 30.252 0 23.483 0 15.126 0 6.77 6.769 0 15.125 0c2.856 0 5.605.847 7.933 2.222M43.79 21.79l5.922-19.25A3.524 3.524 0 0153.097 0h.742c1.586 0 2.96 1.059 3.385 2.434l4.125 13.326L65.26 2.54C65.685 1.059 67.06 0 68.752 0h.742c1.585 0 2.96 1.059 3.383 2.434l7.088 23.164c.105.316.105.74.105 1.057 0 2.011-1.588 3.596-3.491 3.596a3.52 3.52 0 01-3.384-2.537L69.07 14.493l-4.02 13.326c-.423 1.376-1.798 2.432-3.384 2.432h-.741a3.522 3.522 0 01-3.385-2.537l-4.02-13.221-3.914 12.902c-.528 1.483-1.798 2.54-3.49 2.54H32.472c-1.905 0-3.49-1.587-3.49-3.597 0-1.904 1.585-3.49 3.49-3.49h9.942c.636 0 1.165-.424 1.376-1.058"></path></svg>