<svg xmlns="http://www.w3.org/2000/svg" viewBox="0.3650665283203125 0.6826891899108887 729.2788696289062 129.56582641601562"><g fill="none"><path fill="#26C0D0" d="M684.86 34.51c6.1-9.8 11.28-18.19 16.53-26.54 3.69-5.88 20.09-9.33 25.62-5.48 2.43 1.69 2.59 4.23 2.59 6.82 0 19.46.14 38.92-.08 58.38-.08 7.26-4.18 10.78-11.63 11-6.07.17-8.68-1.89-8.53-8.26a256.92 256.92 0 00-1.74-40.45c-5.66 9.36-11.26 18.74-17 28.05-5 8.14-6.68 8.16-11.6.13-5.46-8.89-10.76-17.88-16.93-28.16-3.46 7.37-1.67 13.63-2 19.6-.34 6.37 0 12.76-.14 19.14-.22 7.94-5.57 10-12.29 10.27-7.63.31-7.54-4.81-7.5-10.28.12-18.193.12-36.38 0-54.56 0-6.15 1.84-11.32 8.22-12.1 6.54-.8 14.11-3.57 19 4.39 5.42 8.92 11.04 17.74 17.48 28.05z"></path><path fill="#25BFD0" d="M169.04 52.05c0-14.47.13-26.43-.05-38.38-.11-6.85 2.79-10.93 9.57-12.05 6.78-1.12 11.05.8 11 8.85-.23 18.5 0 37-.1 55.5 0 5.77-1.34 11.72-7.91 12.41-6.78.7-14.66 3.78-19.83-4.55-7.39-11.92-15-23.68-22.74-35.39-1.63-2.46-2.37-6-6.7-7-1.83 9.56-.44 19-.87 28.33-.16 3.5.12 7.07-.46 10.49-1.19 7.11-6.45 8.71-12.75 8.75-7.13.05-7.15-4.89-7.16-9.87V14.6c0-5.9 1.46-11.6 7.89-12.45 6.8-.91 14.59-3.8 19.82 4.47 8 12.66 16.33 25.12 24.56 37.63 1.26 2 2.78 3.84 5.73 7.8z"></path><path fill="#26C0D0" d="M295.07 79.01c-5.74 0-11.48-.09-17.22 0-4.62.1-8.49-.65-8.46-6.42.03-5.77 2.86-8.81 8.86-8.75 8.61.1 17.23 0 25.84 0 2.88 0 5.72 0 8.2-1.88a6.51 6.51 0 002.46-7.6c-.94-3.27-3.54-4.3-6.6-4.46-6.68-.34-13.44-.05-20-1.06-12.5-1.91-18.65-9.66-18.8-22.46-.16-13.7 5.64-22 18-24.15 12.62-2.16 25.45-.68 38.18-.73 3.74 0 5.7 2.42 5.62 6.29-.1 4.76-2 8.24-7.12 8.48-7.63.35-15.29.2-22.94.37-5.15.12-11.24-.06-11.32 7.06-.08 7.3 6.06 6.89 11.21 7 3.82.07 7.66-.12 11.48.12 15.63 1 23.33 9.64 23 25.59-.29 14-9 22.14-24.13 22.55-5.41.17-10.84.05-16.26.05z"></path><path fill="#25BFD0" d="M447.24 79h-18.19c-4.32 0-7.67-1-7.68-6.22-.01-5.22 2-8.74 7.72-8.83 8.933-.12 17.87-.12 26.81 0 5.52.05 11-.7 11.06-7.46 0-6.53-5.53-6.7-10.55-6.64-3.83 0-7.68.21-11.48-.08-16.25-1.27-23.95-9.53-23.63-25.13.29-14.6 8.79-22.74 24.59-23.17 9.25-.25 18.51-.08 27.76 0 4.51 0 9.48-.37 9.52 6.33.04 6.7-3.9 8.91-9.89 8.9h-21.06c-5 0-10.52.64-10.65 6.85-.16 7.05 5.74 7.25 11.06 7.25 3.51 0 7-.1 10.53.06 15.81.76 24.61 9.26 24.37 23.43-.27 16.31-8.46 24.45-25 24.74-5.08.05-10.19-.03-15.29-.03z"></path><path fill="#26C0D0" d="M610.3 79.01h-2.87c-33.39 0-49.69-22.48-39.61-54.63 4.33-13.8 14.53-21.95 29.64-22.84 8.89-.52 17.83-.09 26.74-.15 4.41 0 7.62 1.41 7.62 6.39 0 4.72-2.18 8.21-7.14 8.53-6.66.44-13.36.34-20 .33-3.57 0-7.13.14-9.92 2.57-3.35 2.92-7.64 6.35-6.33 11 1.31 4.65 6.54 2 10 2.42a66.48 66.48 0 008.59.07c4.48 0 8.51.52 8.34 6.48-.15 5.33-3 8.34-8.22 8.68a114 114 0 01-14.32.06c-6.25-.37-6.24 2.34-3.75 6.68 3.39 5.91 7.89 9.76 15.29 9.4 6.35-.31 12.73-.1 19.1 0 5.48.06 8.13 3.23 8.38 8.39.27 5.65-3.42 6.83-8.16 6.71-4.47-.18-8.93-.09-13.38-.09z"></path><path fill="#25BFD0" d="M240.88 79.01h-3.83c-34.24 0-51.52-27-37.63-58.74 5.3-12.11 15.1-17.87 27.77-18.71 8.89-.59 17.86-.13 26.79-.15 4.24 0 7.65.85 7.6 6.21 0 4.76-1.74 8.38-6.84 8.69-7 .43-14 .37-21 .31-4.37 0-8.24.87-11.17 4.3-2.49 2.9-6 6.27-4.66 9.89 1.43 3.86 6.19 1.4 9.44 1.78a74.48 74.48 0 009.57.08c4.48-.06 8.55.43 8.5 6.36-.05 5.41-3.12 8.3-8.24 8.71-4.775.363-9.57.407-14.35.13-6.34-.35-6.26 2.66-3.82 6.85 3.2 5.47 7.32 9.52 14.42 9.23 6.37-.26 12.76 0 19.14-.06 5.87-.09 8.95 2.58 9 8.55.08 6.64-4.48 6.65-9.2 6.58-3.83-.07-7.66-.02-11.49-.01z"></path><path fill="#26C0D0" d="M46.08 79.01h-2.87c-34 0-50.27-22.75-39.6-55.43C8.06 9.95 18.4 2.22 33.89 1.48c8-.38 15.95 0 23.93-.11 5.25-.08 9.77.39 9.5 7.41-.23 6.27-2.8 10.62-9.41 11-6.36.39-12.77 0-19.15.14-11.27.27-17.5 7.71-17.4 20.52.11 12.43 6.13 19.56 17 19.85 6.38.16 12.77-.09 19.15.08 7.37.2 9.7 4.87 9.83 11.47.13 7.12-4.63 7.28-9.75 7.17-3.85-.06-7.68 0-11.51 0z"></path><path fill="#25BFD0" d="M527.25 1.38h30.58c4.43 0 8.36.34 8.36 6.4 0 5.48-2.54 8.28-7.89 8.74-.32 0-.64 0-.95.07-6.21.79-14.25-2.86-18.26 1.93-4.38 5.22-1.36 13.46-1.58 20.37-.3 9.54-.08 19.1-.1 28.66 0 6.93-3.77 10.56-10.38 11.36-6 .73-9.68-.8-9.5-8.11.38-15.28-.22-30.59.26-45.86.22-6.85-2.11-9.12-8.67-8.38-3.78.42-7.64.08-11.46 0-5.68-.07-9-2.77-9.21-8.63-.24-6.71 4.58-6.56 9.18-6.57 9.87.02 19.75.02 29.62.02z"></path><path fill="#26C0D0" d="M343.86 1.56c7.87-.69 12.84 1.74 16.84 7.19 4.51 6.16 9.85 11.72 14.5 17.78 2.68 3.49 4.52 3.56 7.22.07 4.87-6.3 10.1-12.33 15.11-18.53 2-2.51 4.11-5 7.38-5.77 5.28-1.24 12.33-3.17 15.45.56 3.44 4.12-3.45 7.6-5.93 11.19a90 90 0 01-11.55 14c-10.81 10.32-16.19 22.27-13.89 37.45 1 6.3-1.5 11.34-8.32 13.12-8.41 2.19-13.11-.63-11.9-9.21 2.6-18.47-4.31-32.55-17.08-44.93-4.09-4-7.47-8.71-10.91-13.3-1.82-2.42-5.82-4.52-4.38-7.83 1.44-3.31 5.76-1.5 7.46-1.79z"></path><path fill="#25BFD0" d="M98.51 38.93c0 9.86-.11 19.71 0 29.55.11 8.16-5.05 10.06-11.74 10.53-7.47.52-7.91-4.14-7.85-9.84.16-18.43.24-36.86 0-55.29-.11-8 3.51-11.77 11.1-12.44 5.78-.51 8.88 1.34 8.6 7.95-.46 9.83-.11 19.69-.11 29.54z"></path><path fill="#26C0D0" d="M297.16 115.54c4-3.12-1.66-12.09 5.28-11.3 6.94.79 1.93 8.38 3.16 12.77.5 1.76.19 3.79 0 5.68-.2 2.69.69 6-3.41 6.77-3.6.71-6-.63-7.82-3.81-1.66-2.92-3.74-5.62-5.61-8.39-4.78 3.46 1.06 13.34-7.13 11.66-5.9-1.21-1.76-8.76-2.7-13.37a25.83 25.83 0 01-.05-5.7c.06-2.56 0-5.26 3.32-6 3-.64 5.43-.29 7.46 2.57 2.32 3.22 3.26 7.66 7.5 9.12zm130.73 1.3c-6 11.26-10.46 7.23-14.27-.71-3.92 4.21 1.95 13.33-5.29 12.66-7.08-.65-2.24-8.84-3.28-13.56-.66-3-1-7.24.54-9.27 3.74-4.76 7.77-2.77 10.45 1.87 2.43 4.2 4.77 6.24 7.63.49 2-4 5.06-5.82 9.3-4.34 4.24 1.48 2 5.45 2.28 8.29.37 3.78.06 7.63.09 11.45 0 3.19-.65 6-4.59 5.64-3.94-.36-2.7-3.63-2.83-6-.13-2.16-.03-4.34-.03-6.52zm122.27 5.19c-3.38-2.87-6.87-1.53-9.76-2.7a7.71 7.71 0 01-5.17-8.27c.28-3.85 2.25-7 6.35-7.19 4.86-.17 13.44-2.38 13.85 1.5.78 7.46-8.45 1.31-12 5.28 1.37 4.08 5.11 2 7.7 2.62 4.87 1.13 7 4 6.72 8.88-.24 4.61-2.81 7.46-7.19 7.23-5-.26-13.48 3.26-14.25-2.26-.77-5.52 7.8-1.72 11.84-3.52.69-.454 1.33-.98 1.91-1.57zm-197.39-10.18c1.75 3.72 7.55.24 7.64 4.59.09 4.65-5.39 1.89-7.44 4.32 1.16 4.47 5 2.8 7.81 3.23 2.17.34 5.17.18 5.18 3 0 4-3.63 2.53-5.8 2.65-12.88.66-19-6.62-15.44-18.15 2-6.49 14.46-11.16 20.09-7.45a3.06 3.06 0 011.27 2.19c0 1.93-1.61 2.47-3.21 2.85-3.22.75-7.09-1.14-10.1 2.77zm143.7 13.62c0 1.44.6 3.14-.93 3.51-1.37.34-3.74.32-4.34-.51-3.91-5.42-7.45-6.56-11.62-.24-.57.86-3.08 1.08-4.38.65-1.95-.64-1.23-2.59-.76-4.05 1.86-5.75 3.72-11.49 5.69-17.2a5.52 5.52 0 015.78-4.05 4.17 4.17 0 014.29 3.07c2.13 6.33 4.22 12.67 6.27 18.82zm-308.49 4.11c-6.73.33-12-.69-14.14-6.89-1.91-5.65-1.89-11.44 2.6-16 4.49-4.56 10.66-2.95 16.26-2.86a2.45 2.45 0 012.54 2.32 3 3 0 01-2.52 3.47c-2.17.38-4.42.23-6.62.43-4.35.4-5.95 3-5.75 7.15.19 3.72 1.8 6 5.77 6.07h1.9c3 .24 7.58-.9 7 3.81-.53 4.54-5.36 1.43-7.04 2.5zm45.18-12.95c2.17-4.2-3-12.45 4.4-12.33 7.19.13 3.17 8.14 3.34 12.44.17 4.3 3.2 12.44-3.89 12.25-7.3-.2-1.39-8.34-3.85-12.36z"></path></g></svg>