<svg xmlns="http://www.w3.org/2000/svg" viewBox="2 6.650000095367432 111.06999969482422 21.829999923706055"><g fill="#7dc242"><path d="M95.33 12.08h-.74l-.91 4.31h.82c.42 0 .76-.15 1.03-.48.25-.3.46-.85.63-1.63.19-.85.21-1.44.1-1.75-.13-.29-.43-.45-.93-.45zm-20.84-.05c-.44 0-.76.13-.97.36-.21.25-.38.65-.49 1.23l-.32 1.52h2.22l.32-1.52c.13-.57.13-.99 0-1.23-.11-.23-.36-.36-.76-.36zm31.18.3c-.57 0-1.03.46-1.35 1.37-.3.91-.65 2.18-.99 3.86-.4 1.86-.63 3.21-.66 4.03-.04.8.23 1.2.8 1.2.59 0 1.03-.44 1.33-1.35.3-.89.63-2.18.99-3.88.36-1.69.57-2.98.65-3.88.08-.89-.18-1.35-.77-1.35z"></path><path d="M109.84 6.65H29.21v21.83h80.63c1.77 0 3.23-1.45 3.23-3.23V9.88c0-1.78-1.45-3.23-3.23-3.23zM39.23 24.51H36c-1.18 0-2.01-.3-2.49-.89-.47-.59-.59-1.48-.32-2.68l1.44-6.8c.3-1.42.76-2.37 1.39-2.87.63-.47 1.63-.72 3.06-.72h2.75l-.34 1.58h-2.01c-.61 0-1.06.13-1.35.4-.28.27-.51.74-.65 1.41l-.27 1.22-.38 1.86-.78 3.61c-.17.84-.15 1.42.04 1.79.21.36.66.53 1.37.53h2.09l-.32 1.56zm9.23-7.5h-3.34l-.76 3.61c-.17.84-.17 1.42.04 1.79.21.36.66.53 1.35.53h2.11l-.34 1.58H44.3c-1.2 0-2.01-.3-2.49-.89-.47-.59-.59-1.48-.34-2.68l1.44-6.8c.3-1.42.78-2.37 1.39-2.87.63-.47 1.65-.72 3.06-.72h2.77l-.34 1.58h-2.01c-.63 0-1.06.13-1.37.4-.28.27-.49.74-.63 1.41l-.27 1.22h3.34l-.39 1.84zm11.02-3.65l-2.37 11.15H54.3l2.36-11.06c.08-.42.04-.72-.13-.93-.19-.21-.51-.32-.99-.32h-.49l-2.62 12.31H49.6l2.96-13.96h4.67c.89 0 1.54.25 1.92.74.41.49.52 1.17.33 2.07zm4.56 11.15h-2.81l2.62-12.39h-2.6l.32-1.58h8.07l-.32 1.58h-2.66l-2.62 12.39zm13.91-10.3l-2.18 10.3h-2.83l1.6-7.5h-2.22l-1.6 7.5H67.9l2.18-10.3c.27-1.23.8-2.18 1.6-2.83.82-.66 1.86-.99 3.15-.99 1.37 0 2.3.3 2.79.91.5.63.59 1.58.33 2.91zm7.5 9.52c-.78.66-1.82 1.01-3.12 1.01-1.25 0-2.13-.34-2.66-1.04-.51-.68-.63-1.69-.34-3.04l2.15-10.11h2.81L82.17 20.6c-.17.76-.21 1.29-.13 1.61.1.3.32.47.74.47.38 0 .68-.15.89-.46.23-.28.42-.84.59-1.63l2.13-10.05h2.81l-2.15 10.11c-.29 1.39-.84 2.42-1.6 3.08zm13.63-9.92c-.17.84-.47 1.52-.93 2.03-.44.51-1.01.87-1.71 1.08.65.08 1.12.32 1.41.74.27.42.34.93.21 1.54l-1.14 5.3h-2.68l1.14-5.38c.08-.36.02-.63-.13-.8-.15-.19-.4-.29-.74-.29h-1.18l-1.37 6.46h-2.81l2.96-13.96h4.29c1.18 0 1.98.27 2.39.82.44.54.53 1.36.29 2.46zm9.61 3.75c-.61 2.83-1.35 4.73-2.24 5.72-.91.97-2.03 1.46-3.4 1.46s-2.3-.49-2.79-1.46c-.49-.99-.44-2.89.17-5.72.61-2.87 1.37-4.77 2.24-5.74.91-.95 2.05-1.42 3.42-1.42 1.39 0 2.34.44 2.83 1.29.49.87.41 2.83-.23 5.87z"></path></g><path fill="#d82833" d="M5.04 6.65C3.37 6.65 2 8.02 2 9.69v15.74c0 1.67 1.37 3.04 3.04 3.04h23.44V6.65H5.04zm14.82 19.44c-.66.06-1.47.13-2.03.18l.72-1.42c.49-.02 1.21-.06 1.8-.1l-.49 1.34zm.66-1.76c-.47.03-1.06.06-1.74.09l.7-1.36c.57-.01 1.1-.03 1.54-.05l-.5 1.32zm.66-1.8c-.52.02-1.08.04-1.46.05l.51-.98c.38-.01.91-.02 1.32-.03l-.37.96zm4.21-11.36c-4.28.81-8.67 2.64-10.81 4.85-2.91 3.02-.63 5.48 5.11 5.57l-.56.99c-7.32-.08-10.41-2.9-6.92-6.34 2.56-2.52 8.42-5.16 13.63-5.9l-.45.83zm.58-1.06c-5.75.7-11.74 3.39-14.48 6.09-3.75 3.7-.47 6.74 7.39 6.83l-.78 1.38c-.28.01-.56.01-.84.01-8.96 0-12.38-3.96-8.21-8.27 3.34-3.45 10.89-6.34 17.28-6.7l-.36.66zm.48-.89c-6.88.34-14.55 3.25-18.06 6.88-4.39 4.53-.83 8.79 8.58 8.79.3 0 .57-.01.87-.02l-.82 1.46c-1.07.07-4.61.27-7.98-.78-5.58-1.72-6.92-5.59-3.2-9.36 3.99-4.05 12.92-7.15 20.88-7.45l-.27.48z"></path></svg>