<svg xmlns="http://www.w3.org/2000/svg" viewBox="0.16764450073242188 0.9301176071166992 1085.0501708984375 206.08816528320312"><g fill="#F17923"><path d="M401.27 125.61c20.3-47.34 57.33-62.85 100.65-67.65 23.18-2.58 46.42-1.4 68.52 7.46 28.36 11.36 40.8 33.45 37.09 63.59-1.12 9.14-3.92 12.9-14 12.72-36.12-.65-72.26-.34-108.39-.15-4.48 0-10.66-2.42-12.75 4-1.91 5.83.19 11.51 4.09 16.17 5.51 6.58 13.29 9 21.32 10 18.81 2.41 36.72-.37 51.64-12.91 5.54-4.66 10-5.76 16.7-2.94 9.76 4.13 20 7.2 31.63 11.3-15.51 17-33.65 26.5-53.91 32.13-31 8.63-62.46 10-93.87 2.16-32.38-8.07-47.23-24.69-51.79-57.28-3.73 1.42-4.22 5-5.75 7.7-14.17 24.67-36.51 38.55-62.75 46.87a155.22 155.22 0 01-78 4.59c-27-5.36-49.64-17.26-59.91-44-7.86 7.28-14.93 15.49-23.54 21.51-42.52 29.74-88.65 33.52-135.93 14.3-27.89-11.35-38.21-38.88-28.7-69.51C15.19 88.42 43.9 70.36 79.47 61.49c25.47-6.35 51.29-6.74 76.56 1.63 17.76 5.89 31.25 16.82 37.95 35 2.49 6.78.92 9.67-6.82 9.87-15.15.38-30.28 1.6-45.42 2.4-3.91.21-7 .58-9.31-4.72-7.82-18.1-30.89-21.53-44-5.77-14.18 17.05-17 38-13.41 59.37 1.37 8.2 8.53 12.19 16.66 13.33 17.62 2.47 33-2.22 44.35-16.16 4.88-6 9.6-8.72 17-6 1.63.6 3.53.45 5.3.66 9.29 1.1 19.79 5.41 27.57 2.49 9.77-3.66 2.91-16.27 5.6-24.79 5.74-18.2 15.32-33.44 30.68-44.24 42.42-29.84 88.9-35.4 137.41-18.62 25.63 8.77 41.54 27.18 41.68 59.67zm-72.54-8c0-13.39-2.73-23-15.45-26.72-14.25-4.12-30.8 1.26-38.79 13.62-8.95 13.85-12.27 29.56-11.7 45.75.51 14.45 8.66 21.48 23.22 22 15.21.56 26.71-5.67 33.64-19.36 5.9-11.65 8.28-24.27 9.08-35.31v.02zm181.12-3.59c5.78 0 11.58.39 17.31-.13 4.43-.41 10.81 2.91 12.89-3.08 2.3-6.63.08-13.12-5.56-18-14.7-12.64-45.77-4.95-52.51 12.91-2 5.39-1.5 8.48 5.23 8.29 7.55-.2 15.1-.04 22.64-.01v.02zm175.2 20.69c27-64.06 88-92.75 153.94-72.44 18.92 5.83 33.18 16.81 40.34 35.93 2.49 6.65 1.62 9.67-6.44 9.72-12 .06-24 1.08-36.05 1.89-9.6.65-18 3-22.1-11.21-3.48-12.21-28-11.57-39.86-.37-11.46 10.8-20.17 47.21-14.59 61.64 3 7.83 9.19 11.73 17.35 12.76 17.12 2.17 32.14-2.4 43.22-15.79 5.26-6.36 10.31-9.16 18.14-6.34a18.36 18.36 0 004 .49c9.73 1.13 20.67 5.55 28.89 2.54 10-3.67 4-17 6.82-25.86 8.33-26.52 25.45-44.9 50-56.15 35.73-16.37 73.13-19.19 111-8.78 34.14 9.38 48.48 32.07 45 67.11-.88 8.93-4.07 12-13.25 11.86-36.56-.49-73.13-.27-109.69-.11-4.1 0-9.67-2.2-11.81 3.27-2 5.2-.66 10.57 2.61 15.2 3.77 5.35 9 8.48 15.31 10 21.55 5.28 41.74 2.69 59.31-11.54 5.13-4.16 9.19-5.45 15.51-2.81 10.16 4.25 20.8 7.37 32.54 11.41-15.39 17-33.29 26.45-53.23 32-33.26 9.2-66.77 10.85-100.2.56-21.7-6.67-38.07-19.19-44.43-42.17-.92.14-2 0-2.25.39-32.8 50.22-103.72 55.3-145.6 42.26-31.65-9.85-43.08-27.07-44.27-65.66l-.21.2zm301.54-20.68c5.8 0 11.65.47 17.38-.15 4.83-.52 12 3.43 14-3.64 2.15-7.39-1.4-14.07-7.66-18.63-14.79-10.78-41.58-3.79-50.2 12.59-4.14 7.87-2 10.36 6.4 9.9 6.71-.39 13.39-.11 20.08-.1v.03z"></path><path d="M685.22 134.46c-8.35 13.05-7.75 28.46-10.89 42.81-5.33 24.37-4.77 24.49-29.61 24.49-12 0-24.11-.32-36.14.12-7.43.27-10.29-1.21-8.57-9.67a17858.331 17858.331 0 0035.82-181C637.27 3.73 639.66.65 647.75.95c17.37.63 34.79.28 52.19.13 5.67 0 9.34.13 7.51 8-8.82 37.64-12.83 76.32-24.29 113.42a13.09 13.09 0 001.88 12.27l.18-.31z"></path></g></svg>