<svg xmlns="http://www.w3.org/2000/svg" viewBox="8.600000381469727 7.400001525878906 600.0999145507812 212.39999389648438"><path fill="#7b39f4" d="M365.7 24.2c0 9.4-7.6 16.8-16.8 16.8S332 33.4 332 24.2c0-9.4 7.6-16.8 16.8-16.8s16.9 7.4 16.9 16.8"></path><path fill="#2d3137" d="M607.6 37.7h-21.8c-.7 0-.9.4-.9 1.1l-1.1 9.2c0 .4-.2.7-.7.9-.4.2-.7.2-1.1-.2-4-3.1-8.3-6.7-12.8-8.5-6.5-2.9-13.9-4.5-21.3-4.7h-.9c-7 0-14.2 1.3-20.7 3.8-7 2.7-13.3 7.9-18.6 12.8-5.4 5.2-9.7 11.5-12.6 18.2-2.9 6.7-4.5 14.4-4.5 21.8s1.6 15.1 4.5 21.8c2.9 6.7 7.2 13 12.6 18.2 5.2 5.2 11.7 10.1 18.6 12.8 6.7 2.7 14.4 4 21.6 3.8 7.4-.2 14.6-1.8 21.3-4.7 4.5-2 8.8-5.4 12.6-8.5.2-.2.7-.2 1.1-.2.4.2.7.4.7.9l.9 8.3c0 .4.4.9 1.1.9h22c.7 0 1.1-.4 1.1-1.1V38.8c0-.7-.4-1.1-1.1-1.1m-58.8 87.2c-18.2 0-33-14.8-33-33s14.8-33 33-33 33 14.8 33 33-14.8 33-33 33m-86.3-73.7c-4.9-4.9-11-9.4-17.5-12.1-6.5-2.5-13.5-3.8-20.4-3.8-7 0-13.9 1.6-20.2 4.3-2.9 1.3-5.8 3.6-8.5 5.4-.2.2-.7.2-1.1 0-.2-.2-.4-.4-.4-.9l-.7-5.6c0-.4-.4-.9-1.1-.9h-21.3c-.7 0-1.1.4-1.1 1.1v106c0 .7.4 1.1 1.1 1.1H394c.7 0 1.1-.4 1.1-1.1V79.8c1.8-4.7 3.8-8.1 7.2-11.5 6.1-5.8 14.4-9 22.7-8.8 8.3.2 15.1 3.6 20.9 9.4 5.6 5.8 8.8 13.7 8.5 21.8v53.7c0 .7.4.9 1.1.9H478c.7 0 1.1-.7 1.1-1.3V89.1c0-7-1.6-14.2-4.3-20.7-3.1-6.2-7.4-12.3-12.3-17.2M65.6 59c10.1 0 19.5 4.5 26.1 12.4.2.4.9.4 1.3.2L110.7 59c.2-.2.4-.4.4-.7s0-.7-.2-.9c-10.8-13.9-27.6-22.2-45.2-22.2C34.3 35.2 8.6 60.8 8.6 92c0 31.4 25.6 56.8 57.1 56.8 17.5 0 34.6-8.3 45.2-22.2.2-.2.2-.4.2-.9 0-.2-.2-.4-.4-.7L93 112.5c-.4.2-1.1.2-1.3.7-6.3 7.9-15.9 11.7-26.1 11.7-18.4 0-32.3-14.2-32.3-32.6C33.2 73.9 47.1 59 65.6 59m265.7 75.7c17.7-8.5 26.3-22.2 26.3-42.2 0-27.6-18-57.1-57.7-57.1-28.1 0-58.4 18-58.4 57.1 0 17.1 5.6 31.4 15.9 41.6 10.3 9.9 24.9 15.1 42.5 15.1 20 0 32.8 8.8 32.8 23.6 0 14.4-16.2 22.9-33.2 22.9-17.1 0-32.3-8.8-33-25.4 0-.7-.4-1.1-1.1-1.1h-22.5c-.7 0-1.1.4-1.1.9 0 13.9 4.5 26.1 12.8 34.4 10.1 10.1 25.4 15.3 44.7 15.3 28.1 0 58.2-14.8 58.2-47.4 0-11.9-4.5-28.1-26.3-36.4-.4-.2-.7-.4-.7-.9.1.1.4-.4.8-.4m-31.4-10.1c-19.8 0-33.7-13.5-33.7-32.6 0-20 13.3-33 33.7-33 19.1 0 33 13.9 33 33-.2 19.2-13.7 32.6-33 32.6M172 35.4c-31.4 0-57.1 25.6-57.1 56.8 0 31.4 25.6 56.8 57.1 56.8s57.1-25.6 57.1-56.8c0-31.4-25.6-56.8-57.1-56.8m0 89c-17.7 0-32.3-14.4-32.3-32.1S154.3 59 172 59c17.7 0 32.1 15.5 32.1 33.2s-14.3 32.2-32.1 32.2m199.5 45.8H389v2.5h-14.8v8.3h13.3v2.5h-13.3v8.5h15.1v2.5h-17.8zm28.1 0h8.3c7.6 0 12.8 5.2 12.8 11.9s-5.2 12.1-12.8 12.1h-8.3v-24zm8.3 21.8c6.1 0 10.1-4 10.1-9.4s-3.8-9.7-10.1-9.7h-5.6V192h5.6zm23.1-7.6v-14.2h2.7v13.9c0 5.2 2.7 8.1 7.4 8.1 4.5 0 7.2-2.7 7.2-7.9v-14.2h2.7V184c0 7-4 10.8-10.1 10.8-5.8.1-9.9-3.7-9.9-10.4m30.4-2c0-7 5.2-12.6 12.1-12.6 4.5 0 7 1.6 9.4 3.8l-1.8 2c-2-2-4.3-3.4-7.6-3.4-5.4 0-9.4 4.3-9.4 9.9 0 5.6 4 9.9 9.4 9.9 3.4 0 5.4-1.3 7.9-3.6l1.8 1.8c-2.5 2.5-5.4 4.3-9.7 4.3-7 .4-12.1-5.2-12.1-12.1m40.2-12.2h2.5l11 24.3h-2.9l-2.9-6.3h-13l-2.9 6.3h-2.7l10.9-24.3zm6.7 15.5l-5.4-12.4-5.6 12.4h11zm21.8 12.8l2.7-3.8c-6.1-.9-10.6-5.8-10.6-12.4 0-6.7 5.2-12.6 12.1-12.6 4.5 0 7 1.6 9.4 3.8l-1.8 2c-2-2-4.3-3.4-7.6-3.4-5.4 0-9.4 4.3-9.4 9.9 0 5.6 4 9.9 9.4 9.9 3.4 0 5.4-1.3 7.9-3.6l1.8 1.8c-2.5 2.5-4.9 4-9.2 4.3l-2.2 4.9-2.5-.8zm32.6-28.3h2.5l11 24.3h-2.9l-2.9-6.3h-13.3l-2.9 6.3h-2.7l11.2-24.3zm-4.5-2.4c.7-2.5 1.6-3.6 3.1-3.6 1.6 0 3.6 1.3 4.7 1.3.9 0 1.3-.4 1.8-1.6l1.8.4c-.7 2.5-1.6 3.6-3.1 3.6-1.6 0-3.6-1.3-4.7-1.3-.9 0-1.3.4-1.8 1.6l-1.8-.4zm11 17.9l-5.4-12.4-5.6 12.4h11zm14.2-3.3c0-6.7 4.9-12.6 12.4-12.6 7.4 0 12.4 5.8 12.4 12.4 0 6.7-4.9 12.6-12.4 12.6-7.7.1-12.4-5.7-12.4-12.4m21.7 0c0-5.6-4-10.1-9.4-10.1-5.6 0-9.4 4.5-9.4 9.9s4 9.9 9.4 9.9c5.4.4 9.4-4.1 9.4-9.7"></path></svg>