<?xml version="1.0" standalone="no"?>
<!DOCTYPE svg PUBLIC "-//W3C//DTD SVG 20010904//EN"
 "http://www.w3.org/TR/2001/REC-SVG-20010904/DTD/svg10.dtd">
<svg version="1.0" xmlns="http://www.w3.org/2000/svg"
 width="200.000000pt" height="200.000000pt" viewBox="0 0 200.000000 200.000000"
 preserveAspectRatio="xMidYMid meet">

<g transform="translate(0.000000,200.000000) scale(0.100000,-0.100000)"
fill="#000000" stroke="none">
<path d="M0 1000 l0 -1000 1003 2 1002 3 -997 2 -998 3 0 990 0 990 998 3 997
2 -1002 3 -1003 2 0 -1000z"/>
<path d="M505 1245 c-20 -19 -25 -34 -25 -73 0 -66 29 -95 91 -90 37 2 45 7
47 25 3 20 0 22 -27 17 -40 -8 -61 9 -61 51 0 40 21 59 55 51 18 -5 27 -2 32
10 15 40 -75 47 -112 9z"/>
<path d="M675 1245 c-19 -18 -25 -35 -25 -70 0 -62 32 -95 90 -95 58 0 90 33
90 95 0 62 -32 95 -90 95 -30 0 -47 -6 -65 -25z m97 -40 c17 -38 0 -80 -32
-80 -18 0 -27 8 -34 27 -13 36 6 78 34 78 12 0 25 -10 32 -25z"/>
<path d="M870 1175 c0 -94 0 -95 24 -95 21 0 25 5 28 38 l3 37 22 -37 c16 -28
29 -38 48 -38 31 0 31 4 3 42 -17 25 -19 34 -10 49 33 53 -2 99 -75 99 l-43 0
0 -95z m78 32 c2 -10 -3 -17 -12 -17 -10 0 -16 9 -16 21 0 24 23 21 28 -4z"/>
<path d="M1040 1175 c0 -95 0 -95 25 -95 22 0 25 4 25 35 0 19 4 35 8 35 5 0
17 -16 28 -35 14 -27 25 -35 47 -35 30 0 30 2 -5 53 -18 25 -18 28 -3 43 23
23 15 66 -15 81 -14 7 -44 13 -67 13 l-43 0 0 -95z m85 35 c0 -8 -8 -16 -17
-18 -13 -2 -18 3 -18 18 0 15 5 20 18 18 9 -2 17 -10 17 -18z"/>
<path d="M1220 1175 l0 -95 55 0 c48 0 55 2 55 20 0 16 -7 20 -30 20 -23 0
-30 4 -30 20 0 16 7 20 30 20 23 0 30 4 30 20 0 16 -7 20 -30 20 -20 0 -30 5
-30 15 0 10 10 15 30 15 23 0 30 4 30 20 0 18 -7 20 -55 20 l-55 0 0 -95z"/>
<path d="M1405 1258 c-18 -48 -55 -163 -55 -170 0 -18 49 -8 55 12 4 14 15 20
35 20 20 0 31 -6 35 -20 7 -22 56 -29 54 -7 0 6 -13 48 -27 92 -26 77 -28 80
-60 83 -20 2 -34 -2 -37 -10z m49 -70 c5 -23 3 -28 -13 -28 -14 0 -19 5 -16
15 14 42 16 48 19 44 2 -2 6 -16 10 -31z"/>
<path d="M220 815 c0 -95 0 -95 25 -95 22 0 25 4 25 35 0 19 4 35 8 35 5 0 16
-16 25 -35 14 -29 22 -35 47 -35 l30 0 -26 40 c-26 39 -26 41 -9 60 23 26 13
68 -21 80 -14 6 -43 10 -65 10 l-39 0 0 -95z m85 35 c0 -8 -8 -16 -17 -18 -13
-2 -18 3 -18 18 0 15 5 20 18 18 9 -2 17 -10 17 -18z"/>
<path d="M400 815 c0 -95 0 -95 25 -95 25 0 25 0 25 95 0 95 0 95 -25 95 -25
0 -25 0 -25 -95z"/>
<path d="M490 815 l0 -95 51 0 c28 0 59 5 70 10 22 12 26 59 7 78 -9 9 -9 15
0 24 36 36 -7 78 -80 78 l-48 0 0 -95z m88 38 c2 -8 -5 -13 -17 -13 -12 0 -21
6 -21 16 0 18 31 15 38 -3z m0 -76 c2 -12 -3 -17 -17 -17 -15 0 -21 6 -21 21
0 25 33 22 38 -4z"/>
<path d="M670 815 l0 -95 55 0 c48 0 55 2 55 20 0 16 -7 20 -30 20 -23 0 -30
4 -30 20 0 15 7 20 25 20 18 0 25 5 25 20 0 15 -7 20 -25 20 -16 0 -25 6 -25
15 0 10 10 15 30 15 23 0 30 4 30 20 0 18 -7 20 -55 20 l-55 0 0 -95z"/>
<path d="M810 815 c0 -95 0 -95 25 -95 25 0 25 0 25 95 0 95 0 95 -25 95 -25
0 -25 0 -25 -95z"/>
<path d="M900 815 c0 -95 0 -95 25 -95 22 0 25 4 25 35 0 19 4 35 8 35 5 0 17
-16 28 -35 14 -27 25 -35 47 -35 30 0 30 2 -5 53 -18 25 -18 28 -3 43 23 23
15 66 -15 81 -14 7 -44 13 -67 13 l-43 0 0 -95z m85 35 c0 -8 -8 -16 -17 -18
-13 -2 -18 3 -18 18 0 15 5 20 18 18 9 -2 17 -10 17 -18z"/>
<path d="M1105 885 c-19 -18 -25 -35 -25 -70 0 -59 32 -95 84 -95 48 0 65 8
81 41 26 49 15 106 -24 136 -28 22 -89 16 -116 -12z m84 -24 c13 -9 18 -71 6
-90 -8 -15 -38 -14 -53 1 -16 16 -16 70 0 86 14 14 28 15 47 3z"/>
<path d="M1370 890 c-11 -11 -20 -25 -20 -31 0 -22 22 -49 50 -64 44 -23 38
-39 -11 -31 -38 6 -40 5 -37 -16 2 -19 10 -24 47 -26 52 -4 81 17 81 59 0 23
-8 32 -40 49 -45 23 -44 45 0 36 20 -4 30 -1 34 11 14 36 -70 47 -104 13z"/>
<path d="M1531 822 c-37 -103 -36 -102 -12 -102 19 0 22 4 65 123 l25 67 -23
0 c-20 0 -27 -12 -55 -88z"/>
<path d="M1667 903 c-3 -5 -15 -41 -27 -82 -12 -40 -24 -80 -27 -87 -9 -23 45
-17 57 6 6 12 21 20 36 20 17 0 28 -7 31 -20 4 -14 14 -20 33 -20 l28 0 -31
95 c-31 94 -32 95 -64 95 -17 0 -34 -3 -36 -7z m52 -90 c1 -7 -6 -13 -14 -13
-16 0 -18 12 -8 50 l7 25 7 -25 c4 -14 7 -31 8 -37z"/>
</g>
</svg>
