<svg xmlns="http://www.w3.org/2000/svg" viewBox="13.200000762939453 14.699996948242188 283.5 207.8000030517578"><path fill="#F39800" d="M280.9 48.6C237 83 195.6 89.8 195.6 89.8l-4.7 13.6c53.6-13 78.7-35.9 86.3-43.6 2.1-6.4 3.7-11.2 3.7-11.2s-2.2 6.6 0 0z"></path><path fill="#83B81A" d="M161.4 51.1c75.7-7.2 107.2-22.6 135.3-36.4 0 0-.7 1.8-3.4 9.1-6.2 5.3-50.8 34.7-140.7 42.6l8.8-15.3z"></path><path fill="#E32119" d="M22.7 78.2l-9.5 16.2C166.3 98.6 220.5 77.5 247 62.3c1.3-2.1 4.4-8.3 5.5-10.6-53.8 23.2-134.1 33.2-229.8 26.5z"></path><path fill="#0098D1" d="M77.4 169.6l-2.3 10.7c-8.8 1.1-22.6 1.2-22.6 1.2-24.6 0-33.7-12.4-29.5-32 4.2-19.7 19.4-33 43.8-33 0 0 14.8.6 24.9 1.5l-5.5 10.4h-22c-13.1 0-18.8 10.5-21.1 21.5-2.3 10.6-1.3 19.7 12 19.7h22.3zm60.2-14.6c-4.2 1.3-9.5 1.7-15.6 1.9-4 .1-10.3 0-13.4 0l-5.1 23.7H84.3L97.6 118h30.7c8.2 0 15.2.4 20.2 3.6 5.6 3.6 7.5 9.3 6.1 16-1.7 8-7.7 14.4-17 17.4zM123 128.5h-8.4l-3.8 17.9h7.6c8.1 0 15.6-1.7 17.2-9.2 1.4-7.1-4.8-8.7-12.6-8.7zm111.8 35.3c-.7 3.3 1.3 6 4.5 6h27.4l-6.1 10.7h-39.3c-5.2 0-8.5-4.4-7.4-9.8l11.3-52.7h19.4l-9.8 45.8zm-55.1-20.2h30l-2.3 10.6h-30l-5.6 26.5h-18.9l11.2-52.7c1.2-5.4 6.3-9.9 11.6-9.9h43.7l-6.1 10.7h-24.6c-3.2 0-6.4 2.7-7.1 6l-1.9 8.8zM87.6 206h13.5l-1 4.6H86.6l-1.5 6.9h13.6l-1 4.6H75.5l5.1-22.8c.5-2.4 2.8-4.3 5.2-4.3h19.7l-2.7 4.7H91.6c-1.4 0-2.9 1.2-3.2 2.6l-.8 3.7zm63.1 0h13.5l-1 4.6h-13.5l-1.5 6.9h13.5l-1 4.6h-22.1l5.1-22.8c.5-2.4 2.8-4.3 5.2-4.3h19.7l-2.7 4.7h-11.1c-1.4 0-2.9 1.2-3.2 2.6l-.9 3.7zm77.2 16.1l6-27.1h8.8l-6 27.1h-8.8zm-106.2 0l-6.7-22.4-5 22.4h-7.5l6-27.1h12.1l6.6 22.5 5-22.5h7.5l-6 27.1h-12zm71.6 0h-9.5l-3.5-10.3h-3.6l-2.3 10.3h-8.6l6-27.1h13.8c3.7 0 6.8.2 9.1 1.6 2.5 1.6 3.4 4 2.7 6.9-.6 2.9-3.4 6.3-9.1 7.3l5 11.3zm-10.1-22.6h-3.8l-1.7 7.7h3.4c3.6 0 7-.7 7.7-4 .7-3-2.1-3.7-5.6-3.7zm43.1 7.7L223 222c-6.2.5-11.7.5-11.7.5-11.1 0-15.1-5.4-13.3-13.8 1.9-8.5 8.7-14.3 19.7-14.3 0 0 6.7.3 11.2.6l-2.6 4.5h-9.7c-6 0-8.4 4.1-9.5 9.3-1 4.6.8 9 6.3 9 1.7 0 1.9-.5 1.9-.5l2.3-10.2h8.7zm38.3 14.9l-1.3-6.1h-11.8l-4 6.1h-8.4L258 195h8.6l7.2 27.1h-9.2zm-3.5-22.5l-7 12.1h8.6l-1.6-12.1z"></path></svg>