<svg xmlns="http://www.w3.org/2000/svg" viewBox="74.20999908447266 61.124000549316406 450.7900085449219 124.75200653076172"><path fill="#D66617" fill-rule="evenodd" d="M80.26 61.124h42.507l18.188 29.719h-24.278l18.23 29.677H92.398L74.21 90.843l24.405-.083zm127.522 0h-42.55l-18.187 29.719h24.278l-18.23 29.677h42.55l18.146-29.677-24.363-.083zM80.26 185.876h42.507l18.188-29.719h-24.278l18.23-29.677H92.398L74.21 156.157l24.405.083zm127.522 0h-42.55l-18.187-29.719h24.278l-18.23-29.677h42.55l18.146 29.677-24.363.083zm82.274-76.612c-1.18-5.968-5.265-9.052-12.215-9.212-10.193 0-15.29 6.769-15.12 19.986 0 6.449.673 11.455 2.358 15.18 2.19 5.007 6.613 7.57 13.057 7.57 3.075 0 5.939-.801 8.13-2.563 2.358-1.603 3.748-4.046 4.253-7.09v-1.602h12.763l-.169 1.762c-.337 4.366-2.19 8.051-5.265 11.295-2.864 2.924-6.613 5.007-11.204 6.128-2.864.801-5.939 1.282-8.971 1.282-9.182-.16-16.3-3.084-21.229-8.731-4.254-5.007-6.444-12.096-6.444-21.629 0-4.686.674-9.212 2.022-13.538 1.685-5.647 4.928-9.852 9.856-12.896C266.638 92.482 272.07 91 278.347 91c3.58 0 6.95.48 10.361 1.602 3.412 1.122 6.276 2.724 8.635 4.846 1.516 1.603 2.864 3.405 3.917 5.488 1.01 2.082 1.516 4.045 1.685 5.967v1.763h-12.72l-.17-1.402zm22.913 12.576c0-5.967 1.01-11.294 2.864-16.14 1.18-2.925 3.075-5.488 5.602-7.73 2.19-2.084 4.928-3.726 7.624-4.847 3.917-1.442 8.129-2.083 12.72-2.083 8.466 0 15.121 2.243 20.007 6.93 2.696 2.402 4.59 5.166 5.77 8.05a42.76 42.76 0 012.696 15.02c-.169 20.506-9.688 30.8-28.515 30.96-19.123-.16-28.768-10.133-28.768-30.16zm12.72-.64c-.168 14.539 5.265 21.788 16.132 21.628 10.362.16 15.795-6.93 15.795-21.468 0-5.167-.842-9.693-2.527-13.538-2.022-5.167-6.613-7.73-13.226-7.73-2.358 0-4.59.32-6.781 1.121-6.36 2.404-9.561 9.012-9.393 19.987zm56.483-29.038h21.397c2.358 0 4.76.16 6.781.32 2.19.32 4.254.801 6.276 1.442 3.243 1.121 5.939 3.404 7.792 6.609 1.685 2.723 2.527 5.967 2.527 9.692 0 6.609-2.19 11.295-6.613 14.179-3.748 2.403-9.182 3.725-16.132 3.885l-4.422.16h-5.097v22.43H382.13V92.162h.042zm12.552 9.051v18.064h5.265c1.684.16 3.411 0 5.096-.16 6.107-.641 9.182-3.565 9.182-9.052.169-5.647-3.243-8.531-10.024-8.731l-4.254-.16h-5.265v.04zm80.785-9.051v9.051H447.5v14.66h26.283v9.212H447.5v16.622h28.852v9.212h-41.573V92.162h40.73zm23.714 0v49.545H525v9.212h-38.497V92.162h12.72z"></path></svg>