<!DOCTYPE svg PUBLIC "-//W3C//DTD SVG 20010904//EN" "http://www.w3.org/TR/2001/REC-SVG-20010904/DTD/svg10.dtd">
<svg version="1.0" xmlns="http://www.w3.org/2000/svg" width="153px" height="75px" viewBox="0 0 1530 750" preserveAspectRatio="xMidYMid meet">
<g id="layer101" fill="#000000" stroke="none">
<path d="M1105 741 c-53 -9 -63 -16 -73 -54 l-8 -32 -500 0 c-274 0 -505 -4 -511 -8 -16 -10 -19 -582 -3 -592 6 -3 10 -15 10 -26 0 -17 7 -19 68 -19 l67 0 13 40 c6 22 12 62 12 90 0 27 4 50 10 50 5 0 18 -17 29 -38 22 -43 69 -89 126 -123 57 -34 202 -40 269 -11 25 12 46 26 46 33 0 8 4 8 15 -1 11 -9 13 -16 5 -24 -23 -23 -4 -27 123 -24 118 3 135 5 163 25 43 31 74 93 74 149 0 49 -10 73 -47 117 l-23 29 42 59 c51 74 101 119 131 119 31 0 172 -140 203 -202 77 -151 -22 -258 -137 -148 -18 16 -39 30 -48 30 -56 0 -39 -72 32 -136 48 -43 50 -44 120 -44 86 0 122 23 161 102 48 97 29 178 -70 290 l-64 73 71 3 c59 2 73 0 84 -15 7 -10 17 -14 22 -10 4 5 8 75 8 155 l0 147 -190 1 c-104 1 -208 -1 -230 -5z m-822 -148 c-18 -2 -48 -2 -65 0 -18 2 -4 4 32 4 36 0 50 -2 33 -4z m680 -10 c-24 -2 -62 -2 -85 0 -24 2 -5 4 42 4 47 0 66 -2 43 -4z m-729 -65 c-21 -24 -41 -44 -46 -46 -4 -2 -8 17 -8 42 l0 46 46 0 46 0 -38 -42z m707 -22 c-27 -35 -57 -78 -67 -95 -19 -32 -39 -45 -55 -35 -10 6 -12 100 -3 157 l7 37 83 0 83 0 -48 -64z m-319 4 c65 -18 68 -26 68 -173 0 -155 -5 -180 -31 -172 -11 4 -37 -5 -63 -20 -78 -46 -188 -43 -251 7 -79 62 -86 211 -14 292 46 53 102 76 184 76 39 0 87 -5 107 -10z m267 -251 c27 -10 31 -15 31 -47 -1 -53 -38 -92 -89 -92 -19 0 -21 6 -21 75 0 72 1 75 24 75 12 0 37 -5 55 -11z"/>
</g>
<g id="layer102" fill="#ceb900" stroke="none">
<path d="M1060 621 l0 -51 51 0 50 0 -3 48 -3 47 -47 3 -48 3 0 -50z"/>
<path d="M20 300 l0 -290 65 0 65 0 0 290 0 290 -65 0 -65 0 0 -290z"/>
</g>
<g id="layer103" fill="#d1c300" stroke="none">
<path d="M1060 620 l0 -40 48 0 48 0 -4 40 -4 40 -44 0 -44 0 0 -40z"/>
<path d="M20 300 l0 -290 60 0 59 0 3 290 3 290 -62 0 -63 0 0 -290z"/>
</g>
<g id="layer104" fill="#939598" stroke="none">
<path d="M360 525 c-179 -56 -231 -311 -89 -441 69 -63 106 -78 205 -82 111 -5 177 17 188 63 4 15 5 29 2 32 -2 2 -23 -9 -46 -26 -162 -117 -392 6 -366 195 13 100 81 196 162 230 42 18 167 17 217 0 78 -28 77 -24 77 -256 0 -199 -1 -208 -20 -213 -11 -3 -20 -10 -20 -17 0 -8 36 -11 133 -8 128 3 135 4 170 31 63 48 62 132 -2 196 l-38 36 60 87 c66 98 117 148 150 148 14 0 51 -29 105 -81 108 -107 157 -199 150 -283 -5 -61 -23 -89 -67 -104 -39 -14 -99 9 -139 53 -18 19 -37 35 -42 35 -24 0 -6 -32 41 -74 51 -46 51 -46 125 -46 72 0 75 1 112 38 43 43 54 78 43 137 -12 63 -35 98 -132 200 l-91 95 117 0 c101 0 120 -3 131 -17 19 -27 29 -8 18 35 l-9 37 -210 6 c-170 5 -216 3 -242 -8 -32 -15 -90 -83 -156 -183 -36 -54 -38 -55 -77 -52 l-40 4 0 105 c0 96 2 105 20 110 11 3 20 10 20 17 0 11 -134 16 -145 4 -3 -3 -25 -2 -48 3 -66 13 -217 9 -267 -6z m535 -280 c51 -21 71 -88 42 -145 -19 -37 -74 -70 -118 -70 l-39 0 0 115 0 115 40 0 c22 0 56 -7 75 -15z"/>
</g>
<g id="layer105" fill="#eedd00" stroke="none">
<path d="M78 583 l-58 -4 0 -284 0 -285 60 0 60 0 0 290 c0 160 -1 289 -2 288 -2 -1 -29 -3 -60 -5z"/>
</g>
<g id="layer106" fill="#fee300" stroke="none">
<path d="M1060 620 l0 -40 45 0 45 0 0 40 0 40 -45 0 -45 0 0 -40z"/>
<path d="M20 295 l0 -285 55 0 55 0 0 263 c0 144 3 272 6 285 6 21 4 22 -55 22 l-61 0 0 -285z"/>
</g>


</svg>