<svg xmlns="http://www.w3.org/2000/svg" viewBox="0 0.045412179082632065 166.9565887451172 34.499324798583984"><g data-name="Layer 2"><g data-name="Layer 1"><path fill="none" stroke="#80bc00" stroke-width="1.5" d="M142.89 17.32l-7.4 7.31m.06-14.68l7.34 7.37m13.5 0l7.4 7.31m-.06-14.68l-7.34 7.37m-6.78-6.78l-7.31-7.4m14.68.06l-7.37 7.34m0 13.5l-7.31 7.4m14.68-.06l-7.37-7.34"></path><path fill="#0f206c" d="M10.25 27.87H6V10.61H0V6.77h16.46v3.84h-6.21zm26.51 0h-4.24v-3.95c0-2.06-1-3.06-3-3.06H24v7h-4.28V6.77h10.4c2.58 0 4.39.46 5.37 1.37S37 10.7 37 13.05a8.83 8.83 0 01-.75 4.39A4.05 4.05 0 0133.66 19c2.06.3 3.1 1.69 3.1 4.13zM24 17.24h5.52a3.56 3.56 0 002.58-.68 4.41 4.41 0 00.62-2.8 4.74 4.74 0 00-.57-2.76 3.31 3.31 0 00-2.39-.6H24zm25.54 10.81c-3.86 0-6.3-.62-7.44-1.88s-1.7-3.94-1.7-8.17c0-5 .54-8.12 1.66-9.43s3.78-2 8.12-2c3.8 0 6.3.65 7.41 1.93s1.66 4.1 1.66 8.5c0 4.84-.54 7.82-1.67 9.1s-3.76 1.95-8.04 1.95zm.33-17.78c-3.22 0-4.23.52-4.52 1-.43.65-.65 3-.65 7 0 2.94.26 4.72.75 5.3s2 .86 4.51.86 3.83-.33 4.28-1 .71-2.72.71-6.15-.23-5.48-.67-6.09c-.28-.43-1.28-.92-4.41-.92zm32.91 17.6h-6.93v-.08l-5.98-11.41c-.31-.6-.77-1.6-1.39-3l-1.17-2.63.08 2.31v14.81h-4.21V6.77h6.93v.08l5.45 10.55c.49 1 1 2.1 1.66 3.4l1.42 3.05-.07-2.27V6.77h4.24zm13.07.18c-3.86 0-6.3-.62-7.44-1.88s-1.7-3.94-1.7-8.19c0-5 .54-8.12 1.66-9.43s3.78-2 8.12-2c3.8 0 6.3.65 7.41 1.93s1.66 4.08 1.66 8.52c0 4.84-.55 7.82-1.67 9.1s-3.76 1.95-8.04 1.95zm.33-17.78c-3.22 0-4.23.52-4.52 1-.43.65-.65 3-.65 7 0 2.94.26 4.72.75 5.3s2 .86 4.51.86 3.83-.33 4.28-1 .71-2.72.71-6.15-.23-5.48-.67-6.09c-.3-.43-1.3-.92-4.41-.92zm31.66 17.6h-5l-3-5.07c-.46-.78-.9-1.57-1.31-2.36l-.78-1.44-.35.64c-.53 1-1.13 2.06-1.8 3.16l-3 5.07h-5.11L114.37 17l-6.43-10.23H113v.08l2.78 4.63c.43.72.85 1.45 1.23 2.17l.66 1.26c.12-.22.22-.4.28-.53l.38-.72c.32-.62.72-1.33 1.23-2.17l2.62-4.72h5L121.09 17zm16.83-14.09a4 4 0 101.77 5.32 4 4 0 00-1.77-5.32zm9.94 0a4 4 0 11-1.76 5.32 4 4 0 011.76-5.32zm-1.45-1.46a4 4 0 10-5.33 1.77 4 4 0 005.33-1.77zm0 9.94a4 4 0 11-5.33-1.76 4 4 0 015.33 1.76z"></path><path fill="#80bc00" d="M136.9 21.82a3.14 3.14 0 101.4 4.18 3.14 3.14 0 00-1.4-4.18zm.04-9.05a3.14 3.14 0 111.43-4.21 3.16 3.16 0 01-1.43 4.21zm25.44 9.05A3.14 3.14 0 11161 26a3.15 3.15 0 011.38-4.18zm-.04-9.05a3.14 3.14 0 10-1.43-4.21 3.16 3.16 0 001.43 4.21zm-17.23-8.22A3.14 3.14 0 10140.89 6a3.13 3.13 0 004.22-1.45zm9.05.04A3.14 3.14 0 11158.37 6a3.16 3.16 0 01-4.21-1.41zM145.11 30a3.14 3.14 0 11-4.22-1.4 3.15 3.15 0 014.22 1.4zm9.05 0a3.14 3.14 0 104.21-1.43 3.16 3.16 0 00-4.21 1.43z"></path></g></g></svg>