<svg xmlns="http://www.w3.org/2000/svg" viewBox="175 54 249 143"><g fill="none" fill-rule="evenodd"><path fill="#001D7E" d="M175 101h249v72c0 13.23-10.641 24-23.714 24H198.714C185.641 197 175 186.23 175 173v-72zm0-31h249v21H175zm0-16h249v10H175z"></path><path fill="#FFF" fill-rule="nonzero" d="M224.335 154.486v.305c0 3.815-1.369 6.715-3.955 8.852-2.738 2.136-6.388 3.204-11.104 3.204-5.172 0-9.127-1.526-12.017-4.73-2.89-3.205-4.259-7.631-4.259-13.43 0-6.41 1.369-11.293 4.26-14.65 2.89-3.358 6.996-5.037 12.472-5.037 4.564 0 8.062 1.068 10.496 3.052 2.434 1.984 3.803 5.036 3.955 9.004h-9.43c-.153-1.526-.61-2.747-1.674-3.662-1.065-.916-2.282-1.374-3.955-1.374-2.282 0-3.955 1.068-5.02 3.052-1.065 2.29-1.52 5.342-1.52 9.462 0 3.663.608 6.562 1.672 8.394 1.217 1.831 2.89 2.9 5.172 2.9 1.673 0 2.89-.459 3.955-1.374.913-.916 1.521-2.137 1.673-3.815h9.28v-.153zm5.324-6.41c0-5.952 1.521-10.682 4.411-13.887 2.89-3.358 7.15-5.036 12.474-5.036s9.43 1.678 12.473 5.036c2.89 3.357 4.411 7.935 4.411 13.887 0 5.952-1.521 10.53-4.411 13.888-2.89 3.357-7.15 5.036-12.473 5.036-5.324 0-9.431-1.679-12.474-5.036-2.89-3.358-4.41-7.936-4.41-13.888zm9.431-.152c0 3.815.609 6.562 1.825 8.546 1.217 1.984 3.043 2.9 5.629 2.9 2.433 0 4.259-.916 5.476-2.9 1.217-1.831 1.825-4.731 1.825-8.546 0-3.816-.608-6.715-1.825-8.546-1.217-1.984-3.043-2.9-5.476-2.9-2.434 0-4.26.916-5.629 2.9-1.216 1.983-1.825 4.883-1.825 8.546zm39.854-1.832h4.107c1.977 0 3.346-.457 4.259-1.22.913-.764 1.369-1.984 1.369-3.663 0-1.679-.456-2.9-1.37-3.663-.912-.763-2.433-1.068-4.41-1.068h-4.107v9.614h.152zm-9.127 20.298v-36.627h15.06c4.258 0 7.605 1.068 9.734 2.9 2.282 1.984 3.347 4.883 3.347 8.698 0 3.816-1.065 6.715-3.347 8.852-2.13 2.136-5.172 3.205-9.126 3.205h-6.541v12.972h-9.127zm50.806-14.193l-4.108-15.261-4.563 15.26h8.67zm-22.057 14.193l12.778-36.627h11.104l13.082 36.627h-10.192l-2.282-7.173h-12.93l-2.28 7.173h-9.28zm49.589-11.904v.305c0 1.679.456 2.9 1.369 3.968.913.916 2.13 1.374 3.499 1.374 1.825 0 3.042-.306 3.954-1.069.913-.61 1.37-1.678 1.37-2.9 0-1.83-1.978-3.357-5.78-4.425a25.604 25.604 0 00-2.13-.61c-4.412-1.374-7.302-2.747-8.823-4.426-1.521-1.679-2.282-3.968-2.282-6.868 0-3.204 1.217-5.799 3.803-7.783s5.933-3.052 10.04-3.052c4.41 0 7.757.916 10.04 2.747 2.28 1.831 3.346 4.426 3.346 8.088v.61h-9.127v-.152c0-1.526-.304-2.594-1.065-3.51-.76-.763-1.673-1.22-3.042-1.22-1.37 0-2.434.304-3.195 1.068-.76.763-1.217 1.678-1.217 2.747 0 1.83 2.434 3.357 7.302 4.73 1.217.306 2.282.61 3.042.763 3.042.916 5.172 2.137 6.693 3.816 1.37 1.678 2.13 3.815 2.13 6.562 0 3.815-1.37 6.562-3.955 8.546-2.586 1.984-6.389 3.052-11.257 3.052-4.41 0-7.91-1.068-10.191-3.204-2.282-2.137-3.499-5.19-3.499-9.31h8.975v.153zm45.938-2.29l-4.107-15.26-4.563 15.26h8.67zm-22.056 14.194l12.777-36.627h11.104L409 166.39h-10.192l-2.281-7.173h-12.93l-2.282 7.173h-9.278z"></path></g></svg>