<svg xmlns="http://www.w3.org/2000/svg" viewBox="114 71 371 109"><g fill="none" fill-rule="evenodd"><path fill="#000" fill-rule="nonzero" d="M337.786 116.13c-1.084-6.602-6.504-10.223-14.093-10.223-11.71 0-16.263 9.797-16.263 19.593s4.554 19.593 16.263 19.593c8.456 0 13.443-4.686 14.093-12.14H356C354.916 149.992 341.69 160 323.91 160c-21.25 0-34.91-15.333-34.91-34.5S302.66 91 323.91 91c15.177 0 31.44 9.157 32.09 24.917h-18.214v.213zm40.936 20.092c.427 7.855 5.338 10.19 13.025 10.19 5.338 0 11.104-1.91 11.104-6.794 0-5.732-9.823-7.006-19.858-9.553-9.822-2.76-20.071-7.007-20.071-19.108 0-14.437 15.16-19.957 28.185-19.957 13.665 0 27.544 6.37 27.544 21.23h-17.936c.214-5.944-5.551-7.855-11.103-7.855-3.843 0-8.754 1.274-8.754 5.733 0 5.095 10.035 5.944 20.07 8.704 10.036 2.76 20.072 7.006 20.072 19.108 0 16.772-14.947 22.08-30.107 22.08-15.8 0-29.893-6.582-29.893-23.566h17.722v-.212zM426 92h18.252l23.77 40.665h.212V92H485v66h-18.252l-23.77-41.09h-.212V158H426z"></path><path fill="#004E94" d="M289 71h195v3H289zm0 106h195v3H289zm-167.22-41c-4.322 0-7.78-3.262-7.78-7.34v-6.32c0-4.078 3.458-7.34 7.78-7.34h51.44c4.322 0 7.78 3.262 7.78 7.34v6.116c0 4.078-3.458 7.34-7.78 7.34h-51.44V136zm88 0c-4.322 0-7.78-3.262-7.78-7.34v-6.32c0-4.078 3.458-7.34 7.78-7.34h51.44c4.322 0 7.78 3.262 7.78 7.34v6.32c0 4.078-3.458 7.34-7.78 7.34h-51.44zm-45.98 43c-2.71 0-5.213-1.234-6.673-3.7l-16.683-28.578c-.209-.412-.418-.617-.418-1.028-.208-1.645.835-3.29 2.503-3.496l13.347-2.056c2.92-.41 5.839 1.028 7.09 3.29l7.716 13.158c.418.617 1.043 1.028 1.877 1.028h34.827c.834 0 1.46-.411 1.877-1.028l7.716-13.158c1.46-2.467 4.171-3.906 7.09-3.29l13.348 2.056c1.668.206 2.92 1.85 2.502 3.496 0 .41-.208.822-.417 1.028l-16.683 28.577c-1.46 2.467-3.963 3.701-6.674 3.701H163.8zm0-108c-2.71 0-5.213 1.246-6.673 3.737l-16.683 29.476c-.209.416-.418.623-.418 1.038-.208 1.661.835 3.322 2.503 3.53l13.347 2.075c2.92.415 5.839-1.038 7.09-3.321l7.716-13.7c.418-.623 1.043-1.039 1.877-1.039h34.827c.834 0 1.46.416 1.877 1.038l7.716 13.7c1.46 2.492 4.171 3.945 7.09 3.322l13.348-2.076c1.668-.207 2.92-1.868 2.502-3.529 0-.415-.208-.83-.417-1.038L222.82 74.737c-1.46-2.491-3.963-3.737-6.674-3.737H163.8z"></path></g></svg>