<svg xmlns="http://www.w3.org/2000/svg" viewBox="0.18997955322265625 0.34052467346191406 1581.579345703125 663.809326171875"><g fill="none"><path fill="#066597" d="M.19 374.79c11.4-27.27 14.62-56.59 20.84-85.1 18.33-83.94 36-168 53.86-252.07 2.13-10 4.76-19.93 6.21-30 1.27-8.92 4.46-8.68 11-4.42 23.72 15.46 48.06 30 71.37 46 9.59 6.6 25.25 8.86 27.63 20.45 2.19 10.72-3.71 23.14-6.19 34.78-12.12 56.78-24 113.62-36.7 170.28-2.24 10 .18 11.65 9.47 11.54 34.16-.41 68.33 0 102.5-.15 7.39 0 9.7.64 5.4 8.61-23.73 43.94-46.88 88.21-70.26 132.33a37567.752 37567.752 0 01-44.65 84.07c-25.493 48.093-50.967 96.19-76.42 144.29-1.15 2.18-2.15 4.46-3.44 6.56-1.29 2.1-3.25 2.79-5.22 1.63-1.5-.88-1.09-2.6-.57-4.35 10.31-34.27 16.39-69.56 23.52-104.51 11-54.23 23.72-108.09 34.75-162.31 1.58-7.77-.26-9.93-8.29-9.88-38.27.21-76.54-.17-114.81-.34v-7.41z"></path><path fill="#066597" d="M198.44 131.8c3.75-32.8 11.63-62.44 38.11-86.51 44.62-40.54 120.47-55.42 173.85-30 32.55 15.42 50.09 41.75 51.92 77.75 2 39.5-8 77.59-15.59 115.83-10.73 54.27-22.78 108.32-33.92 162.55-1.64 8-4.05 11.76-13.27 11.57-33.73-.66-67.49-.54-101.23-.27-8.65.07-12.14-.51-9.77-11.35a10302.485 10302.485 0 0041-196.69c3.2-16.15 9.3-32.35 3.09-49.57-7.53-20.94-22.6-33.42-44.6-34.37-34.42-1.49-62 12.29-83.67 38.57-1.25 1.56-2.64 3.17-5.92 2.49zm614.32 72.24c54.19-.81 89.54 41 77.69 100.75-13.56 68.41-94.19 105.53-150.5 68.25-29.15-19.27-34-49.12-30.33-80.81 6.13-52.42 48.65-88.19 103.14-88.19zm-51.89 98.25c0 19.72.84 34.59 17.37 41.65 14.84 6.34 33 1.59 43.47-13.63 10.66-15.48 20.49-32 18.47-52.46-1.15-11.68-2-23.53-13.89-29.69-13.18-6.84-26.73-5.92-38.44 3-18.13 13.94-26.52 33.07-26.98 51.17v-.04zm449.25 32.41c-1.26 8.08-2.21 14.5-3.28 20.89-3.74 22.29-3.76 22.25-26.51 26.95-13.73 2.83-27.49 5.08-41.62 4-55.31-4.19-82.2-36.74-75.73-91.77 4.93-42.05 37.52-79.44 78.51-88.72 23.11-5.23 45.49-2.55 66 10.45 15.66 9.91 23 25 25.55 42.44 2.17 14.7.54 29.47-1.77 44.23-1.2 7.62-4.4 9.13-11.3 9.07-31.7-.29-63.41-.11-95.12-.11-16.6 0-18.06 2.85-10.57 17.36 5.94 11.51 15.67 17.21 27.55 17.7 18 .74 36.64 4.27 53.33-7 3.64-2.38 8.36-3.15 14.96-5.49zm-90.61-59.06h51.56c15.25 0 19-6.07 12.25-20.18-2.76-5.79-6.93-10-13.39-11.59-19.62-4.93-45.11 3.1-50.42 31.77zm359.74-56.6c20.79-13.07 39.59-17.86 61.22-12.68 20.94 5 33.21 17.39 38.92 37.1 5.37 18.54.48 36.81-3.2 54.9-5.11 25.15-11.25 50.09-16.22 75.27-1.41 7.17-4.16 9.69-11.28 9.38-10.68-.47-21.41-.43-32.09 0-7.06.28-9.1-1-7.42-8.93 6.62-31.06 13.09-62.2 17.84-93.58 1.34-8.79 4.34-19.43-3.58-28.1-10.12-11.07-35.3-7.54-44.72 6.75-9.42 14.29-14.5 30.11-17.89 46.57-4.53 22.05-8.94 44.14-12.56 66.36-1.43 8.81-5 11.86-13.77 10.88-7.31-.82-14.8-.13-22.21-.17-18-.1-19-1.63-14.8-19.35 7.26-30.42 14.47-60.84 21.35-91.35 4.23-18.79 8.3-37.66 11.41-56.66 1.09-6.71 3.83-7.92 9.57-7.81 10.28.2 20.57-.11 30.86-.17 6.27-.08 14.07-1.83 8.57 11.59zm-473.48-15c11.79-.64 25.38 3 39.16 5.26 5.57.91 8.25 3.24 6.31 9.08-.13.39-.15.82-.27 1.21-2.66 9-3 20-8.57 26.68-7 8.44-16.4-2.28-25.12-2.75-9.81-.53-19.5-2.39-29.1.82-12.45 4.17-14.72 13.55-4.58 22 11 9.19 23.62 16.52 34.39 26 25.81 22.65 22.36 64.34-11.21 83.55-25.62 14.66-56.16 14.5-85.4 6.92-22.16-5.74-22.1-6-16.5-27.75.2-.79.43-1.58.64-2.38 4.8-18.84 4.81-18.87 22.6-10.21 12.32 6 25.41 6.53 38.52 4.59 6.49-1 12.65-4 14.45-11.62 1.63-6.89-1.27-12.29-6.38-16.24-7.13-5.51-14.73-10.41-22.15-15.54-17.44-12.05-30.59-26.35-27.37-49.85 3.32-24.27 18.76-37.4 40.54-44.77 12.22-4.12 24.84-5.47 40.04-5zM670.6 335.35c-2.14 14.66-4 26.72-5.62 38.8-.56 4.09-3.54 5.19-6.71 6.26-36.7 12.45-78.26 11-106.07-29.33a47.36 47.36 0 01-8.13-27.15c.23-20.6-1-40.93 8.63-60.56 17.46-35.45 45.11-55.33 84.22-59 16.92-1.6 33.63.73 50.22 4.55 6.78 1.55 7.75 4.16 5.71 10.17-3.17 9.34-5.79 18.87-8.49 28.37-1.43 5-3 5.92-8.51 3.44-24.55-11.1-47-8-61.76 7.44-16.76 17.52-22.94 51-13.21 71.57 6.58 13.9 33.38 22.52 47.73 15.5 6.5-3.22 13.16-6.06 21.99-10.06zm657-111.31c5.75-4.25 10.8-7.68 15.52-11.52 13-10.55 28.22-7.55 42.92-7.34 4.42.07 4.32 3.65 3.47 7.38-2.73 12-5.44 24-7.54 36.11-1 5.8-4.06 6.53-8.62 5.26-31.37-8.68-52.57 15.42-58.42 39.94-6.33 26.54-11.83 53.29-17.09 80.07-1.25 6.34-2.94 9.3-10 8.93-11.48-.6-23-.4-34.52-.12-5.92.14-7.86-1.14-6.48-7.71 11.2-53.42 22.14-106.897 32.82-160.43 1.16-5.85 3.64-7.35 9-7.18 7.8.24 15.63-.21 23.43 0 19.43.46 15.61-2.46 15.51 16.61z"></path><path fill="#272727" d="M946.95 520.44c4.31-20 8.55-40 13-59.95.72-3.23-.15-7.87 5.63-7.92 4.38 0 8.24-1 6.59 6.16-5.72 24.78-11.06 49.66-16.25 74.56-1.18 5.69-4.77 5.45-9 5.62-5.33.2-9-.29-11-6.7-5.39-17.66-11.67-35-17.61-52.53a14.26 14.26 0 00-5.17-7.68l-11 53.2a82.46 82.46 0 00-1.75 8.43c-.63 6.32-5.39 5.45-9.23 5.08-5.71-.55-2.92-4.44-2.3-7.38 5-23.71 10.13-47.39 14.71-71.18 1-5.35 2.57-7.75 8.39-7.66 5.63.1 10-.19 12.21 6.87 6.44 20.56 13.68 40.87 20.6 61.28l2.18-.2zM560.38 491.5c14.5-.13 14.51-.13 11.35 14.39-1.48 6.84-4.07 13.62-4.32 20.5-.42 11.22-7.33 13.11-16.16 13.78-28.93 2.2-46.84-9.61-49.25-32.61-3-28.38 14.39-51.54 42.16-55.75a65.62 65.62 0 0128.17 1.69c3.3 1 8 .7 6.6 6.58-1.18 5.13-3.66 6.14-8.82 4.63-9.58-2.79-19.36-3.39-29.24-.52-20.61 6-32.32 31.73-22.92 50.91 5.29 10.8 22.36 18.38 32.9 13.19 8.59-4.22 6.45-14.32 7.86-21.92 1.34-7.21-5.42-3.81-8.75-4.4-3-.54-7 1.08-6.66-4.48.27-4.75 2.62-6.44 7.21-6 3.27.24 6.58.01 9.87.01zm831.98 75.08c-4.79-1-9.59-1.9-14.38-2.9-4.4-.92-6.2-3-4.56-7.87 1.7-5 4.35-3.32 7.6-2.18 11.42 4 22.5 5.37 31.31-5.6 2.37-3 5-6.57 3.13-10-2.14-4-5.87-.08-8.81.22-14.2 1.46-23.78-3-28.58-13.94-5.66-12.86.05-34.67 11.42-43.63 10.36-8.16 22.7-9 33-1.28 4.33 3.24 6.58 5.78 8.65-1.69.92-3.31 5.14-2 7.7-1.5 3.51.67 2.2 3.77 1.73 6-4.48 20.833-9.013 41.647-13.6 62.44-3.38 15.12-19.95 21.97-34.61 21.93zm-3.61-56.1c-.56 9.67 2.39 17.47 13 18.64 11.7 1.28 21.4-10.07 22-24.49.57-13.94-4.55-19-16.55-20.78-10.7-1.57-17.95 9.76-18.45 26.63zm-671.92 21.18c-1.9 8.7-3.35 15.92-5.08 23.06-1.18 4.85-.68 11.68-8.94 10.07-9.08-1.78-3.14-8.13-2.44-11.58 5-24.46 9.4-49 12.41-73.77.73-6 9.12-4.79 10.95-2.9 4.09 4.24 6.27 1.92 10 .36 18-7.47 33.59 2.93 33.16 22.38-.2 9.44 1.23 19-6.09 27.77-13.18 15.81-26.29 18.08-43.97 4.61zm39.4-29.62c.1-13.26-3.74-17.66-15.63-17.9-10-.19-19.46 13.83-19.69 29.13-.16 10.65 5.31 17.06 14.72 17.24 11.55.2 20.47-12.14 20.6-28.47zm55.34 38.16c-19.85.34-31-9-31.36-26.38-.45-23 13.53-39.16 34.49-39.81 17.49-.55 29 10.28 29.35 27.52.4 21.88-13.43 38.35-32.48 38.67zm19.9-36.77c.41-11-6.41-19.51-15.63-19.6-11.88-.12-22.31 12.36-22.9 27.38-.46 12 5.28 19.27 15.36 19.4 11.87.15 22.65-12.45 23.17-27.18zm657.54-15.65c-1.58-12.34 7-11.95 13.47-13.05 21.25-3.59 32.67 7.67 29.27 28.71-1.51 9.33-3.47 18.58-5.27 27.86-.8 4.17-2.75 10.06-7.26 7.16-7.36-4.73-12.51-.16-18.63 1.25-11 2.55-21.67-2.49-24.49-11.31-3.5-10.93 1.84-20.79 13.64-25.27 7.07-2.68 14.46-2.78 21.88-3.1 3.6-.15 9.35 2.41 9.84-4 .45-6-3.17-10.36-9.09-11.46-3.92-.72-8.16-.2-12.18.35-3.55.46-6.99 1.74-11.18 2.86zm9.86 42.74c7.53-.12 17.85-9.78 18.55-17.16.63-6.64-4.29-4.8-7.39-4.58-9.36.67-20 .62-21.83 12.92-.99 6.61 4.69 8.75 10.67 8.82zm-454.25-19.72c1.16-23.79 14.77-37.27 36.71-36.36 17.3.71 27 11.89 26.27 30.1-1 22.92-16.09 37.13-38 35.75-17.05-1.08-25.86-11.46-24.98-29.49zm50.45-6.81c.65-11.87-6-20-16.48-20.27-10.89-.27-20.93 12-22.05 27-.88 11.84 4.8 19.45 14.82 19.85 12.07.47 22.89-11.65 23.71-26.53v-.05zm58.96 6.19c-4.1 0-8.27-.48-12.28.14-3.85.59-10-2.78-10.82 4.35a13.11 13.11 0 007.07 13.35c7.32 4.06 15 3.09 22.68 1.08 2.18-.57 5.28-2.49 6.07.93.66 2.81.82 6.18-3.25 8.19-11.16 5.53-33.32 1.71-40.1-7.37-8.2-11-6.2-33 4.09-44.8 10.29-11.8 27.32-15.33 39-8.37 8.25 4.93 13.5 21.54 9.65 29.73-1.37 2.94-3.64 2.8-6.07 2.81h-16l-.04-.04zm-18.86-8.14c6.2-3 12.84-.32 19.13-1.46 3.45-.63 8.84 3.17 10.05-3.09 1.15-5.93-2.09-10.28-7.44-12.62-10.34-4.52-22.22 5-21.7 17.16-.73.28-.8-2.46-1.92-.42l1.88.43zm159.51 8.13c-3.28 0-6.71-.61-9.81.15-4 1-10.92-3.73-11.57 4.5-.52 6.66 2.56 11.92 9.21 14.42 6.42 2.42 13 .95 19.49.75 2.48-.07 6.4-5.29 7.43 1.08.63 3.88-1.51 6.49-6 7.84-13.62 4.15-32.49.07-38.69-9-6.93-10.09-5.3-30.25 3.48-41.86 7.49-9.9 17.34-14.84 29.88-13.46 15.5 1.72 24.78 16.82 20 31.66-2.19 6.88-7.38 3.26-11.23 3.85-4 .62-8.18.14-12.28.14l.09-.07zm-18.36-10.3c.64.37 1.28 1 1.94 1.06 6.54.14 13.09.47 19.61.13 3.15-.16 8.1 2.35 8.95-3.24.7-4.58-.65-8.75-5.11-11.56-9.57-6.02-20.35-.34-25.39 13.61zm-27.5-.61c-2 9.75-4.92 22.17-7 34.71-1.11 6.58-5.73 5.25-9.29 4.68-5.45-.87-2.38-5.1-1.88-7.86 1.83-10.11 4.06-20.15 5.91-30.26 1.08-5.89 1.13-11.93-5.17-15.09s-12-1.22-17.2 2.82c-6.12 4.76-9.38 11.3-11 18.72-1.88 8.42-4 16.8-5.44 25.29-.87 5-2.86 7.14-8.13 6.48-6.53-.82-3.92-5.12-3.31-8.28 3.23-16.54 6.89-33 9.94-49.57.83-4.5 5-6.68 6.44-4.71 6.64 8.85 11.74 1 17.26-.74 16.56-5.12 29.59 4.21 28.87 23.81zm-226.78 10.86c-9 .53-17.33 1.31-25.63 1.43-7.52.1-9.41 2.28-6.87 9.16 3.35 9.06 16.53 13.16 27.43 8.08 2.92-1.36 5.53-4.79 7.5.15 1.62 4 1.06 7.64-4.29 9.56-13.17 4.72-31.81 1.24-38.85-7.79-7.63-9.79-6.7-29.42 2-41.71s22.28-17.37 35.38-13.42c12.24 3.69 19.54 18.73 15.21 30.79-2.63 7.24-8.43 2.58-11.88 3.75zm-31.09-9.47c8.1 0 15.06.34 22-.14 3.41-.24 9 2.67 9.5-4.19.45-5.64-2.49-9.35-7.57-11.39-8.93-3.57-17.6 1.72-23.93 15.72zm-356.44 15.23c1.89-9.24 4.72-22.08 7-35 .95-5.27 4.21-5.25 8.09-5 5.43.39 4 4.2 3.4 7.26-2 10.48-4.21 20.93-6.28 31.41-1.1 5.57-.7 11.18 4.48 14.33 5.82 3.53 11.75 2.14 17.18-2a31.23 31.23 0 0011.65-18.32c2.08-8.79 5-17.65 5.26-26.55.24-8 5-5.75 8.81-5.91 5.84-.26 3.73 4.09 3.2 6.86-3.26 16.93-6.85 33.8-10 50.75-1.13 6-7.4 7-8.66 4.48-4.47-9.1-8.07-2-11.68-.27-16.56 7.73-32.57-1.2-32.45-22.04zm-49.41 16.57c3.5-16.83 7.26-33.62 10.35-50.52.86-4.71 4-8.13 6.82-5.76 7.8 6.44 13.36-.2 19.93-1.37 3.46-.62 9-2.7 9.65 3.63.3 2.68-.2 6.72-5.21 6.67-17.8-.17-21.73 13.36-25.45 26.6-2.1 7.47-3.21 15.21-4.7 22.84-1 5.27-5.23 4.65-8.72 4.36-4.28-.36-3.65-3.51-2.67-6.45zm789.71-55.6c-.57 5.22-1.24 8.12-5.84 8.21-15.32.28-20.6 11.26-24 23.58a185.09 185.09 0 00-5.15 24.07c-.8 5.72-4 6.5-8.51 6.08-6.75-.63-3.44-5.21-2.85-8.24 3.16-16.1 6.58-32.14 9.83-48.21.65-3.22 2-8.62 5.12-6.13 9.38 7.37 16.43-1.82 24.57-1.89 3.26-.03 6.62-.57 6.83 2.53zm94.92 1.89c-4.44 20.78-8.33 37.92-11.67 55.17-1.06 5.48-4.6 4.81-8.18 4.79-5.64 0-4-3.79-3.3-6.88 3.57-16.78 7.38-33.51 10.65-50.34 1.11-5.69 4.54-6.09 8.87-5.59 4.33.5 3.46 3.59 3.63 2.85zm5.84-24.7c0 5.09-1.84 8.9-8.52 8-2.78-.38-6.33.05-5.43-4.3.9-4.35 1-10.16 8.33-9.11 3.11.41 7.08-.66 5.62 5.41z"></path><path fill="#FDFDFD" d="M1095.07 504.04c-.82 14.93-11.64 27-23.71 26.55-10-.4-15.7-8-14.82-19.85 1.12-14.95 11.16-27.24 22.05-27 10.51.24 17.13 8.38 16.48 20.3zm40.1-2l-1.88-.43c1.12-2 1.19.7 1.92.42l-.04.01zm141.15-2.17c5-14 15.82-19.63 25.39-13.61 4.46 2.81 5.81 7 5.11 11.56-.85 5.59-5.8 3.08-8.95 3.24-6.52.34-13.07 0-19.61-.13-.66-.02-1.31-.69-1.94-1.06zm-285.37.78c6.35-14 15-19.29 23.89-15.72 5.08 2 8 5.75 7.57 11.39-.54 6.86-6.09 4-9.5 4.19-6.96.53-13.88.14-21.96.14z"></path></g></svg>