<svg xmlns="http://www.w3.org/2000/svg" viewBox="0.9088888764381409 0.7923600673675537 500.1343688964844 260.63763427734375"><g fill="none"><path fill="#515152" d="M247.6 113.14c5.12 0 10.33.58 15.35-.12 9.32-1.31 9.76 3 7.32 10-1.88 5.4-3.8 10.8-5.15 16.34-1.13 4.65-4.41 4.06-7.7 4.19-13.78.55-27.72-1.75-41.3 2.28-18.31 5.42-32.12 16.49-39.66 34.1-9.72 22.73 4.2 42.34 30.38 43.36 9.33.36 18.69.24 28 .08 4.76-.08 5.76 1.41 4 5.87a80.55 80.55 0 00-5 17.84c-.79 5.22-3.89 7.85-9.94 7.25-14.29-1.43-28.66 1.18-43.06-2.64-36.47-9.67-50.95-48.78-37.52-80.74 16-38.05 48.62-52.81 87.14-57.58 5.64-.7 11.44-.1 17.17-.1l-.03-.13zm188.23 141.03c-7.52-.61-16.36-.29-25.41-2.15-38.24-7.89-54.14-57.16-33.44-90.72 18.72-30.4 47.6-44.05 81.8-47.73 12.22-1.32 24.69-.22 37-.49 4.53-.1 6.2 1.39 4.76 5.81-.09.28-.23.56-.3.85-6 23.86-6 24.41-31 23.65-24.38-.75-44.39 6.95-58.58 27.18-7.58 10.8-11.51 22.84-5.07 35.61 6.57 13 18.4 17.26 32.24 17.23 8.74 0 17.49.19 26.22-.07 4.85-.14 6 1.59 4.15 5.87a24.38 24.38 0 00-.76 2.6c-6.68 22.33-6.68 22.33-31.61 22.36zm-99.47-141.04c14.47 0 28.95.29 43.41-.12 7-.2 8 2.6 5.38 8-3.41 7-1.47 17.76-8.11 21.25-6.21 3.25-15.34 1.6-23.1 1-7.2-.54-10.34 1.64-12.34 8.91-8.43 30.71-17.93 61.13-26.33 91.86-2.25 8.26-6 11.6-14.35 10.5-4.15-.54-8.43-.14-12.65-.16-15.25-.06-14 1.84-9.51-13.57 8.46-29.2 17.42-58.2 26.13-87.3 2.84-9.49 2.45-9.95-7.79-10-3.61 0-7.23.06-10.85.05-10.11 0-10.11 0-6.87-10.11 6.52-20.29 6.52-20.29 28-20.29l28.98-.02z"></path><path fill="#B3CB69" d="M44.01 261.43c-15.32-17.26-19.23-37.8-21.42-58.45-1.87-17.64-1.81-35.74 2-53.1 3.33-15.12 7.25-30.26 13-44.85 7.43-19 14.71-38 26-55.07 10.47-15.8 21.76-30.93 36.42-43.2a37.12 37.12 0 016.1-3.84c4.55-2.49 9.33-3.37 13.4.57 4.42 4.29 2.08 8.94-.41 13.2-5.28 9.06-14.09 14.83-21.43 21.84C82.15 53.38 72.35 71.85 62.8 90.42c-11.76 22.87-15.76 48.33-22.58 72.84-6.67 24-5.75 48.24-2.72 72.47.87 6.94 4.35 13.53 6.46 20.33.4 1.31.05 2.86.05 5.37z"></path><path fill="#B3CB69" d="M40.7 199.1c-.37-22.33 7.17-42.72 15.85-62.73 3.54-8.16 5.7-16.9 9.28-24.77 3.07-6.74 9.48-12.32 13.93-18.91a160 160 0 0134.23-36.78c5.14-4 12.29-8.57 17.67-2.28 4.83 5.65 0 12.06-4.4 16.65-11.27 11.63-23 22.71-33.13 35.54-10 12.64-16.38 27.11-24.47 40.72-9.21 15.5-13.59 32.92-20.3 49.41-1.9 4.7-1.23 9.49-1.71 14.24-.24 2.31-.75 4.22-3.6 4.11-2.85-.11-3.33-2.06-3.34-4.36 0-3.613-.003-7.227-.01-10.84z"></path><path fill="#B3CB69" d="M81.76 160.9c-4.08-10.85 1.45-17.93 5.59-23.55 10.93-14.75 22.93-28.96 39.93-37.46a20.18 20.18 0 0114.93-1.23c5.69 1.76 3.38 5.77 1.27 9.35-4.67 7.93-13.8 10.1-20.22 15.83-10.66 9.51-23.28 17-31.18 29.33-2.58 4.06-7.48 3.17-10.32 7.73zM.91 105.05c8.72 14.4 14.83 27.28 14.21 42.7-.59 14.39.46 28.85-2.14 43.15-.35 1.94.57 4.64-2.44 5-2.4.29-4.05-1.7-4.86-3.49-2.46-5.47-4.74-11.08-4.74-17.25v-46C.9 121.85.91 114.6.91 105.05z"></path></g></svg>