<svg xmlns="http://www.w3.org/2000/svg" viewBox="0.8307857513427734 0.20639915764331818 1694.6728515625 338.5008239746094"><g fill="#888"><path d="M87.95 144.15C113.37 86.22 154.6 43.51 201.74 5.7c3.38-2.71 6.6-5.44 11.38-5.43 28.88.08 57.76 0 87.08.9-16.26 10.06-31.85 20.8-46.29 33.11-31.24 26.64-59.78 55.68-81.53 90.83a104.011 104.011 0 00-3 5.16c-10.63 19.21-10.37 21.5 3.1 38.59 39.06 49.593 78.06 99.21 117 148.85 1.79 2.28 5.41 4.5 4.24 7.38-1.5 3.75-5.84 1.94-8.9 2-26.58.13-53.17-.2-79.75.23-7.71.13-12.16-2.41-15.59-9.29a605 605 0 00-95-138.41c-1.92-2.12-3.22-5.11-8.47-5.5 0 14.9-.14 29.64 0 44.38.38 33.22 1 66.44 3.77 99.56.61 7.28-2.2 9.27-9 9.19-22.92-.24-45.87-.57-68.77.15-10 .32-11.37-4-11.16-12.44 2.21-90 2-180.06 1.59-270.1C2.39 32.91 2.03 20.95 1.6 9 1.37 2.76 3.6.12 10.27.21c22.93.3 45.86.37 68.78 0 7.83-.13 9.49 3.26 9.35 10.17-.84 39.86-1.507 79.717-2 119.57-.01 4.11-.85 8.44 1.55 14.2zm1413-2.41c4.35-.29 5.69-3.67 7.75-6 14.4-16.67 29.78-32.18 49.18-43.15 27.09-15.32 56.32-16.55 85.06-8.72 31.46 8.56 45.33 33.71 50.6 64.24 2.62 15.16 2 30.5 1.44 45.75-1.55 40.53-.85 81 .5 121.53.29 8.6-2 11.92-11 11.65a926.888 926.888 0 00-55.8 0c-9 .27-11.15-3.07-11-11.62.51-33.21.68-66.44.21-99.65a126.4 126.4 0 00-10.32-49.43c-3.8-8.64-8.81-16.35-16.35-22.24-13.29-10.38-30.63-11.41-44.59-2-27.63 18.71-42.82 44.45-44.4 78.24-1.48 31.85-4.68 63.62-4.22 95.53.12 8-2.15 11.33-10.65 11.12-19.59-.48-39.21-.42-58.8 0-8.16.16-10-3-9.57-10.74 4.23-69 6.66-138 4.07-207.12-.12-3.32.1-6.65-.07-10-.26-5.11 2.11-7.12 7.13-7.09 21.6.1 43.19.14 64.79 0 6.06-.05 7.24 3.27 7 8.27-.61 10.61-1.21 21.22-1.67 31.83-.18 3.16-.89 6.48.71 9.6z"></path><path d="M539.45 178.8c-1.31 46.82-2.75 93.63-3.82 140.45-.15 6.83-2.58 9.76-9.29 9.63-7-.13-14 .06-20.93 0-22.91-.14-45.43 1.07-68.21 5.72a170 170 0 01-100.75-9.58 99.53 99.53 0 01-24.85-14.54c-32.24-26.21-29-72.65 6.88-93.84 24.9-14.7 52.89-21.21 80.38-29 14.37-4.06 29.27-6.27 43.09-12.19 11-4.71 21.89-10.51 22.43-24.07.55-14-9.94-21.07-21-26.48a67.93 67.93 0 00-40.79-6c-23.35 3.54-46.21 9.36-68.9 15.8-9.49 2.69-10.56 2.13-9-7.78 5.27-33.6-2.35-26.92 32.39-32.84 31.82-5.42 63.88-8.44 96.18-8 17.67.24 35.12 2.19 51.84 8.57 23.53 9 34.23 24.2 34.31 49.23.06 11.66.03 23.34.04 34.92zm-71.75 68.29h-.41c.32-7.29.38-14.6 1-21.87 1.86-21.27 1.88-21.42-17.6-13.4-20.22 8.33-41.37 14.48-60.56 25.25-14.17 8-21.93 20.79-19.93 32.67 2.47 14.66 12.21 24.23 28.76 27.87 20.79 4.57 40.86 1.34 60.62-5.67 4.54-1.61 5.92-4.66 6.13-9.06.57-11.95 1.32-23.86 1.99-35.79zm846.33-31.42c-26.24 0-52.49.35-78.72-.18-9.69-.2-11.12 3.75-9.68 12 8 45.37 54.56 74.71 100.27 63 24.31-6.26 47-16.3 68.69-28.84 8.92-5.16 8.35-4.6 9.94 5.68 3.09 19.93-5.51 30.58-23.16 38.92-33.13 15.65-66.64 28.95-104 26.72-34.21-2-67.28-8.83-94.75-31.55-31.16-25.78-39.29-60.85-37-98.68 3.19-52.3 28.13-91.24 78-110.33 42.14-16.14 85.1-14.19 126 5 33 15.51 47.36 45.1 52.76 79.63 1.38 8.82 1.17 17.88 2 26.79.83 8.91-2.13 12.29-11.64 12.07-26.21-.63-52.46-.23-78.71-.23zm-39.39-27.45h43.74c4.64 0 8.07-.75 9.58-6.28 7.36-26.94-13.15-58.61-40.37-61.85-35.93-4.28-65.31 22.45-64.91 58.73.07 6.73 2.28 9.61 9.21 9.47 14.24-.3 28.5-.07 42.75-.07zM844.47 337.37c-20.63.34-44.63-2.67-68.57-6.8-7.64-1.32-11.66-4.14-12-12.59-.52-11.58-2.24-23.11-3.72-34.63-.81-6.3.58-7.7 6.8-4.91 17.08 7.67 35.19 11.76 53.76 13.95a65.57 65.57 0 0034-5.3c12-5.17 16.17-15.69 11.1-27.85-4.75-11.38-13.43-19.58-22.71-27.27-19.14-15.87-40.82-28.65-57.49-47.52-28.41-32.23-18.41-74.83 21.59-89.65 32.54-12 66.28-12.43 100.25-7.82 12.16 1.65 24.26 3.77 36.41 5.57 6 .89 8.52 4 7.91 10.18-.88 8.91-1.58 17.87-1.77 26.83-.14 6.62-2.84 7.8-8.76 6.17-15.7-4.34-31.57-7.82-48-7.91a73.1 73.1 0 00-22.53 3.6c-14.39 4.57-19.73 15.49-14.41 29.55 5.9 15.58 17.7 26.25 30.8 35.65 13.76 9.86 28.05 19 40.3 30.83a104 104 0 0115.34 18.27c16.19 25 10.12 53.58-15.07 71.65-20.69 14.85-41.59 20.1-83.23 20zm262.17-245.33c9.64 0 19.28.17 28.91-.06 6.1-.14 8.57 2 7.08 8.31-2.65 11.31-5.15 22.66-7.34 34.07-1 5.46-4.72 5.65-8.88 5.65-16 0-31.9.31-47.84-.1-7.3-.19-10.26 2.61-10.4 9.7-.75 37.19-2 74.37-2.32 111.57-.13 17.76 9.79 26.58 27.63 26.86 7.68.12 15.33-.47 22.64-2.9 6.6-2.2 7.68.61 6.58 6.24-1.85 9.46-3.73 18.9-5.35 28.4-.76 4.44-3 7-7.26 8.47-22.25 7.59-45.22 11.93-68.57 10-35.84-2.89-52.09-22-51.55-58.94.52-34.54 1.6-69.07 2.61-103.6 1-33.21 2.12-66.4 3.27-99.6.23-6.63 1.38-13.29 1-19.88-.64-11.17 4.35-15.49 15.18-17.16 17.37-2.69 34.51-6.91 51.66-10.86 7.14-1.65 9.55.08 9 7.7-1.25 15.89-1.51 31.85-2.58 47.76-.41 6 1.51 8.54 7.68 8.36 9.63-.27 19.27-.07 28.9-.07l-.05.08zM658.6 126.97c11.73-9.27 20.83-19.93 32.78-27.15 16-9.66 33.55-14 51.75-16.52 4.79-.67 8 .53 7.54 6.13a16752.57 16752.57 0 01-4.32 52.56c-.5 5.82-4.79 4.25-8.26 4-14-.87-27.82-1-41.32 3.84-16.58 5.91-27.26 16.86-31.69 34.11-9 35.17-9.5 70.89-7.39 106.8.59 9.93 1.4 19.86 2.52 29.74.77 6.7-2 8.82-8.37 8.762-21.25-.212-42.49-.252-63.73 0-7 .088-8.16-2.892-7.78-9.142 3.61-59 3.38-118.09 2.39-177.16-.24-13.93-.94-27.85-1.76-41.76-.39-6.7 1.8-9.68 8.93-9.52 20.24.43 40.49.53 60.74.48 6.06 0 8.26 2.46 8.05 8.37-.3 8.28-.08 16.52-.08 26.46z"></path></g></svg>