<svg xmlns="http://www.w3.org/2000/svg" viewBox="0.17891311645507812 0.1800832748413086 1529.260986328125 922.1676025390625"><g fill="none"><path fill="#D7291F" d="M1141.77.21c1.05 3.09 3.36 4 6.47 4.46 146.2 21.81 266.34 156.17 257.61 317.27-6.28 115.76-62.61 201.85-163.64 258.36-46.08 25.77-96.1 36.58-148.79 36.43-90.433-.247-180.863-.203-271.29.13-8.75 0-12.28-2.06-11.49-11.28.79-9.22.2-18.64.2-28 0-14.7 0-14.72 14.23-14.72h203.46c19.72 0 39.42.22 59.11-2.25 36-4.52 70-15 101.5-33.19 53.44-30.82 94.48-73.23 116.06-131.64 33.32-90.17 17.94-173-43.15-246.66-42.71-51.49-98.83-80.74-164.53-91.66-22.66-3.77-45.62-3.68-68.56-3.62-68.9.18-137.8-.17-206.69.26-9.66.06-12.31-2.59-11.84-12 .69-13.93-.15-27.94-.34-41.91l331.68.02zm-437.21 0c-2.31 13.53-1.27 27.19-.73 40.72.4 10.17-2.2 13.35-12.86 13.29-76.44-.46-152.873-.49-229.3-.09-67.49.33-126.87 23-178.45 66.48-121.8 102.77-115.3 291.36 12.82 385.83 50.61 37.32 106.72 56.23 169.41 56.27 75.73.05 151.46.25 227.18-.1 9.2 0 11.74 2.53 10.93 11.44a165.68 165.68 0 000 29c.9 10.42-1.73 14-13.27 13.921-87.57-.581-175.15-.281-262.72-.341-15.42 0-30.86.13-46.18-2.31-121.87-19.36-207.87-85.49-251.48-200.84-62.64-165.7 32.23-351.06 202.16-400.77 12.07-3.53 24.16-6.76 36.63-8.53 2.55-.36 6.18.43 6.34-4l329.52.03z"></path><path fill="#0E5B98" d="M1529.44 883.24c-.64.28-1.64.37-1.87.85-17.94 36.46-50.35 39.87-85.11 36.64-23.9-2.23-44.5-11.11-56.15-34.08a32.89 32.89 0 01-3-6.9c-1.32-5.42-5.57-12.19-1.31-16.17 4.52-4.21 12.34-1.76 18.7-2.32 2.63-.24 3.47 1.87 3.91 4.18 4.18 21.62 19.68 30.62 39.3 34.09 14.26 2.52 28.69 2.13 42.35-3.46 10.93-4.48 18.87-11.76 19.09-24.7.18-10.41-6-18.4-18.91-23.34-17.12-6.59-35.37-9-53-13.87-11.82-3.26-23.47-7-32.75-15.38-23.27-21.06-15.08-58.65 15.82-70.81 25-9.85 50.6-9.76 75.56.26 16.23 6.52 26.68 18.73 30.63 36.21 1.4 6.18.57 9-6.68 9.67-9.47.83-17.75 2.18-19.43-11-.6-4.71-4.35-8.77-8.47-12.06-15-12-52.18-12.73-67.3-1.11-14.29 11-12 29.68 4.74 36.91 15.24 6.6 31.81 8.38 47.71 12.57 20.27 5.35 40.41 10.65 52.11 30.6.47.81 2.62.63 4 .91l.06 32.31z"></path><path fill="#D7291F" d="M758.38 258.73c114.1 0 228.2.15 342.3-.25 10.77 0 13.94 2.51 13.48 13.52-1 23.29-.66 46.64-.12 69.95.18 8.06-2.1 10.33-10.15 10.28-52-.35-104.06-.19-156.09-.19-177.613 0-355.223.08-532.83.24-9.72 0-12-2.69-11.79-11.94.63-23.67.6-47.37 0-71-.2-8.46 2-10.75 10.7-10.72 114.82.32 229.64.39 344.46.21l.04-.1z"></path><path fill="#D7291F" d="M924.36 515.71c-38.75 0-77.5-.09-116.25.09-6.37 0-9.36-1.09-9.43-8.67-.28-27.91-.61-27.73 27.74-27.94 60.27-.46 120.63 2.45 180.8-1.36 54.36-3.43 102.6-23.54 141-63.33 64.29-66.71 60.65-159.16-8.43-220.82-39.83-35.56-87.25-54-140.14-55.36-63.11-1.64-126.3-.71-189.45-.44-8.58 0-13-1.31-11.19-11 1.51-8.28-4.14-19.52 2.14-24.38 5.24-4 15.84-1.33 24.07-1.32 68.54 0 137.1-1.08 205.6.56 63.31 1.52 120.17 22.78 166 67.48 59 57.58 78.74 126.36 50 205.21-20.06 55-61 91.48-113 116.24-35.86 17.09-73.88 24.91-113.58 24.8-31.93-.09-63.87 0-95.81 0l-.07.24zm-333.99-.39c-31.59 0-63.18.24-94.76-.05-65.65-.59-123.7-21.17-172.9-65.58-85.31-77-85.25-199.7-6.06-276.87 47.44-46.23 104.94-69.76 170.55-71.15 73.19-1.55 146.44-.35 219.67-.65 7.11 0 9 2 9 9 .17 27.57.42 27.56-26.88 27.59-55.28.06-110.56-.27-165.84.28-52.37.53-100.44 16.75-139.94 50.47-85.34 72.87-73.3 172.86-7.61 232.86 39.22 35.81 85.92 55.11 138.42 56.85 63.47 2.1 127.05 1.1 190.58 1 8.67 0 11.64 1.7 11.42 11-.61 25.57-.16 25.56-25.54 25.541H590.33l.04-.291z"></path><path fill="#0E5B98" d="M757.96 775.91v66.29c0 22.24-.56 44.5.22 66.71.42 12.13-7.16 9.28-14 9.91-7.68.7-10.62-1.24-10.551-9.79.421-51.653.421-103.303 0-154.95 0-8.08 2.331-10.26 10.301-10.33 26.77-.23 26.9-.6 35.79 24.41 13.87 39 27.53 78.12 41.31 117.18a53.41 53.41 0 003 5.47c14.22-37.7 27.84-73.78 41.45-109.87 1.887-5.027 3.77-10.06 5.65-15.1 9.08-24.39 9.07-24.25 35-22.2 5.17.41 6.66 2.28 6.64 7.24-.153 53.453-.153 106.9 0 160.34 0 6.14-2 8.11-8.1 7.85-19.44-.84-16.18 2-16.24-15.77-.14-37.66.08-75.32 0-113 0-3 1-6.3-1.28-9.64-4.76 4.1-5.17 9.89-7.07 15-14.42 39-29.24 77.84-43.35 116.94-3.43 9.52-10.4 5.15-16 5.92-5 .69-9.08.46-11.46-6.26-15.19-42.86-31-85.49-46.64-128.2-1-2.83-2.09-5.65-3.13-8.48l-1.54.33zm390.71 103.44c0-42.51.25-82.65-.2-122.79-.1-8.36 1-12.1 10.63-11.58 8.7.46 13.88.13 13.69 12-.8 50.59-.53 101.21-.16 151.81 0 7.89-1.72 10.28-9.92 10.25-11 0-18.4-3.47-24.9-12.76-26.91-38.5-54.56-76.48-82-114.61-1.57-2.18-2.48-5.12-6.82-6.29v36.47c0 29.44-.45 58.88.25 88.29.25 10.52-6 8.57-11.78 8.39-5.78-.18-12.73 2.39-12.631-8.64.514-52.4.544-104.803.091-157.21-.06-7.77 3.09-8.66 9.36-9.07 10.82-.71 18.05 2.26 24.82 12.08 27.6 40 56.47 79.17 84.89 118.62.79 1.13 1.85 2.05 4.68 5.04zM279.94 741.13c56.15 1.17 90.37 37.86 88 96.7-2.07 50.4-37 84.94-93.09 83.86-52-1-86.75-39.38-85.54-94.11 1.1-52.45 37.88-87.53 90.63-86.45zm-65.09 91.42c0 2.51-.14 5 0 7.53 1.95 28.68 15.39 48.16 39.14 57.42 25.88 10.08 54.46 3.72 72-16.07 16.83-19 18.64-41.94 15.06-65.77-6.31-41.85-44.69-64.84-84.71-50.93-28.44 9.9-41.51 31.24-41.49 67.83v-.01zm345.41-1.42c0-25.84.18-51.67-.12-77.5-.08-7 1.39-10.1 9.42-10 39.1.427 78.207.427 117.32 0 8.25-.09 9.45 3.28 9.26 10.12-.18 6.57.21 11.43-9.31 11.23-30.49-.63-61 0-91.49-.44-8.13-.13-10.67 2.27-10.22 10.32.6 11.469.6 22.961 0 34.43-.36 7.4 2.65 9.1 9.42 9 28-.28 56 .17 84-.31 8.36-.14 10.81 2.14 11 10.76.24 9.52-3.89 10.25-11.43 10.16-27.27-.35-54.54 0-81.81-.37-8-.11-11.73 1.6-11.16 10.68.72 12.9.72 25.83 0 38.73-.38 8 2 10.44 10.22 10.32 31.93-.48 63.88.24 95.8-.48 9.55-.22 9.13 4.37 9.31 10.94.18 6.57-.38 10.39-8.88 10.302-40.9-.475-81.803-.509-122.71-.102-7.45.06-8.88-2.51-8.79-9.27.37-26.14.17-52.34.17-78.52zM88.99 741.05c31.53.43 56.27 12.09 70.58 41.86 3.5 7.28 1.86 9.61-5.74 11.51-10 2.49-16.06 2.81-21.46-8.95-9.17-19.94-28-25.61-48.74-24.38-22.76 1.35-41.27 10.71-50.31 32.66-10.58 25.69-10.54 52.14 1 77.47 10.26 22.53 30.2 30.6 53.78 30.35 22.95-.24 39.56-10.72 49.2-32 1.76-3.88.54-11 6.28-11 6.62 0 13.5 2 19.76 4.47 4.15 1.62 1 5.94.11 8.53-7.11 19.82-20.6 34.23-39.42 43.21-32.14 15.28-79.36 6.58-101.52-18.53C-8.61 861-12.73 777.13 46.17 750.13a100.43 100.43 0 0142.82-9.08zm1263.26 177.66c-9.25 3.12-13.59-3.11-16.87-12.23-4.11-11.44-9.36-22.47-13.67-33.85-1.75-4.61-3.89-6.84-9.2-6.77-21.86.28-43.723.28-65.59 0-5.45-.08-7.42 2.42-9 7-4.11 11.6-9.67 22.62-13.35 34.45-3.23 10.39-17.54 16-27.21 11.18-5.38-2.66-1-6.21.09-8.9 11.91-29.4 24-58.72 36.12-88.05 9.61-23.31 19.7-46.44 28.63-70 3.7-9.77 10.85-7.37 17.59-7.64 6.74-.27 12.48-1.17 16.27 7.71 21.9 51.34 44.63 102.32 67.14 153.4 6.05 13.77 6.14 13.73-10.95 13.7zm-74.3-154.42c-5.88 29.66-21.36 54.21-29.13 82.58 18.2 0 35.7-.32 53.19.14 7.58.2 8.41-2 5.72-8.5-9.8-23.81-19.21-47.78-29.78-74.22zm-830.14 77.08c0-21.89-.55-43.8.26-65.66.35-9.58-3.06-11.46-11.62-11.1-14.33.61-28.71-.25-43 .26-9 .32-7.38-5.39-7.42-10.65-.04-5.26-1.24-10.61 7.58-10.55 44.5.313 89 .313 133.5 0 9.88-.08 7.08 6.38 7.54 11.63.54 6.19-.26 10.1-8.35 9.72-14.32-.67-28.72.28-43.05-.36-8.52-.38-10.91 2.56-10.84 10.89.33 44.49-.33 89 .44 133.49.2 11.27-5.64 10-12.59 10s-13.21 1.58-12.7-9.83c.96-22.59.25-45.23.25-67.84zm533.79-9.9c0 25.8-.3 51.6.16 77.39.15 7.91-1.86 10.66-10.13 10.26-15.08-.72-15.11-.23-15.11-15.79 0-49.8.45-99.61-.26-149.41-.21-14.27 9-9.08 15.7-10.19 8.47-1.41 10 2.61 9.84 10.35-.49 25.78-.19 51.59-.2 77.39z"></path></g></svg>