<svg xmlns="http://www.w3.org/2000/svg" viewBox="0.43967247009277344 0.9199999570846558 1473.4337158203125 521.03515625"><g fill="none"><path fill="#FE7F30" d="M676.5 3.03c14.78-2.49 29.7-2 44.59-2 23.87 0 47.73.06 71.59-.11 4.21 0 6.27.61 6.16 5.59-.76 36.27 1.38 72.59-1.31 108.82-1.44 19.32-6.07 37.83-18.28 53.49-14.78 18.95-35.67 26.31-58.44 29-30.7 3.64-61.58 1-92.38 1.67-8 .17-15.91 0-23.86.08-3.12.05-5.23-.35-5.12-4.32 1.14-40.7-3-81.58 2.9-122.11 5-34.32 23.34-57.9 58-67.06 1.79-.48 4.11-.08 5.26-2.23l-.11.12h6.86c1.43-.09 3 .26 4.14-.94zM398.83 201.88c-15.78 2.61-30.07 5.32-43.84 10.15-47.21 16.58-71.55 51.77-81.11 99.17-4.14 20.55-5.38 41.37-5.52 62.21a9314.73 9314.73 0 00.06 136.42c0 6.34-1.81 7.81-7.9 7.71-22.86-.36-45.72-.28-68.58 0-4.91 0-6.24-1.4-6.22-6.25.19-51.19-.07-102.38.29-153.57.16-22.39 2.92-44.59 9.38-66.14 13-43.24 41.43-70.72 84.84-82.9 38.16-10.71 77.22-8.94 116.19-8.6.37-.07.73.46 2.41 1.8z"></path><path fill="#FE7F30" d="M299.22 202.15c-17.93 2.93-35.63 6.75-52.25 14.36-36.52 16.74-56.48 46.37-65.68 84.37-5 20.64-7 41.65-7.11 62.78-.28 48.493-.263 96.98.05 145.46 0 6.17-1 8.56-8 8.4-22.61-.53-45.25-.33-67.87-.1-4.94.06-6.85-.9-6.83-6.41.26-52.71-.14-105.42.43-158.13.29-27 4.55-53.46 15.45-78.42 17.6-40.29 50.36-60.76 91.92-69.09 33-6.61 66.41-6.39 99.84-5.49.04.78.05 1.53.05 2.27z"></path><path fill="#FE7F30" d="M207.25 201.36c-10.05 2.13-18.2 3.71-26.29 5.6-53 12.43-84 46.13-95.11 98.9-4.41 21-6 42.25-6 63.67 0 46.74-.12 93.48.15 140.22 0 6.21-1.59 7.87-7.78 7.76-21.62-.39-43.26-.28-64.89 0-4.86 0-6.92-.78-6.89-6.36.31-53.7-.1-107.41.62-161.1.34-25.94 4.83-51.43 15.31-75.46 17.45-40 49.94-60.31 91.1-69.06 31.39-6.68 63.25-5.75 95.05-5.63.91-.02 1.84.5 4.73 1.46zM618.54 1.47h40.28v2.22c-22.51 4.72-42.65 13.39-55.4 34-3.11 5-5.56 10.44-8.31 15.68-.72 0-1.41.12-1.06 1.15.19 4.15.15 8.27-3.79 10.94a2.7 2.7 0 00-1.39 2.37c-.247 39.333-.49 78.667-.73 118 0 3.23-.22 6.46-.17 9.69.05 3.23-1.55 4.24-4.6 4.22-25.08-.15-50.17-.2-75.25-.29-.32-2.22 1.07-5.2-2.61-5.95v-3c3.57-1.5 3.56-3 0-4.48V165.1l1.7-.75-1.7-.75c.27-32.92-3.09-66 4.24-98.61 4.56-20.3 14.17-37.69 32.71-48.51 11.48-6.7 23.77-11.7 37.34-12.52 1.45-.06 3 .27 4.19-.93a47.19 47.19 0 0115-.82c1.77 2.3 3.34 2.53 4.59-.46 4-1 7.94-.7 11.93-.28.17.91.36 1.92 1.5 1.92 1.14 0 1.35-1.01 1.53-1.92z"></path><path fill="#FE7F30" d="M564.82 3.77c-12.79 3.11-25.46 6.5-36.56 14.11-19.84 13.69-28.59 33.76-32 56.59-4.81 31.87-1.94 64-2.62 96-.16 7.7-.3 15.42.08 23.11.24 5-1.61 6.27-6.41 6.19-15.4-.26-30.81-.15-46.22 0-8.19.09-16.38.45-24.56.92-3.71.21-5.62 0-5.58-4.87.32-33.05-.07-66.12.44-99.17.31-20 3.72-39.56 14.1-57.19C438.36 17.58 459.1 7.97 483 4.01c27.12-4.5 54.5-2.81 81.81-2.54 0 .76.01 1.53.01 2.3z"></path><path fill="#FE8032" d="M425.03 521.94c-29.58.62-49.24-17.83-54.14-48.67-.48-3-.06-5.23 3.41-6.24 7.38-2.14 14.75-4.37 22-6.89 3.13-1.09 4-.08 4.24 2.78a56.83 56.83 0 004.39 17.25c4.69 11.26 12.32 16.17 23 14.91 9.76-1.16 17.35-9.06 19.06-20.07 2-12.69-1.48-24-8.62-34.53-8.48-12.48-20.05-22-30.44-32.68-6.94-7.11-14.19-13.92-20.11-22-17.44-23.73-19.35-56-4.48-76.8 12.39-17.35 34.11-24.55 56.46-18.73 19.92 5.19 32.21 20 35 41.65.57 4.37-.83 6.28-4.87 7.47a103.89 103.89 0 00-16.09 5.81c-6.05 2.93-7.41.24-8.13-5.07a42.35 42.35 0 00-2.91-10.72c-4-9.58-11.91-14.13-21.15-12.62-9 1.46-15.41 8.72-16.57 18.5-1.73 14.48 4.05 26.45 13.45 36.57 10.81 11.65 22.33 22.64 33.76 33.69 18.3 17.7 27.94 38.57 26.52 64.59-1.73 31.21-22.45 51.74-53.78 51.8zm519.72-147.71c1.46-2.4 2.27-3.63 3-4.91 8.48-15.07 21.15-21.47 35.6-18 14.1 3.41 24.21 16.37 24.62 32.61.4 15.91.14 31.83.15 47.74 0 26.36-.13 52.72.11 79.08.05 5.05-1.06 7.3-6.5 6.7-7.56-.83-17.43 3.17-22.15-1.69-4.36-4.49-1.17-14.21-1.2-21.62-.12-30.33 0-60.67-.06-91v-6.71c-.47-10-5.31-16.68-12.82-17.67-7.51-.99-15.29 4.65-18.16 13.65a38.3 38.3 0 00-1.33 11.8c0 35.31-.12 70.62.15 105.93 0 5.88-1.59 8-7.45 7.33-7.3-.85-16.82 3.07-21.41-1.71-4.24-4.42-1.16-13.76-1.18-20.93-.1-44.76 0-89.52-.17-134.28 0-5.69 1.2-8.17 7.32-7.46 6.6.76 14.89-2.56 19.5 1.3 4.33 3.69.35 12.12 1.98 19.84zM558.51 494.19c-3.59 6.32-6.3 11.21-10 15.42-14.72 16.77-42.59 13.81-51.88-6.46-10.07-22-8.85-44.74 1.45-66.26 8-16.73 24.69-19.28 41.1-20.86a69 69 0 0113.4-.07c5.46.54 6.83-1.72 6.46-6.76-.42-5.69.09-11.44-.25-17.13-.6-9.84-6.25-15.46-16-16.38-10.26-1-17.81 3.39-19.64 12.9-1.36 7-4.28 8.11-10.16 5.55a51.59 51.59 0 00-6.41-1.95c-13.29-3.73-13.29-3.72-7.84-16.82 7.64-18.38 26.52-27.62 50.18-24.56 26.58 3.44 38.11 16.22 38.22 43 .15 39 0 78 .15 117 0 5.09-1.14 7.28-6.53 6.66-7.06-.82-16.39 3-20.62-1.66-3.49-3.93-1.24-12.99-1.63-21.62zm.43-38.3v-5.94c0-12.89-.3-12.91-13.33-11.26-11.12 1.41-20.36 5.25-23.7 16.92a53.25 53.25 0 00-.33 27.93c2.59 10.23 11.81 14.44 21.37 9.85 6.14-2.94 10-8.08 12.5-14.15 3.33-7.94 3.91-16.36 3.49-23.36v.01zm302.78 38.99c-3.23 5-5.46 9.12-8.26 12.78-15.1 19.78-45.56 16.22-54.7-6.92-8-20.23-7-41 1.08-61 5.78-14.34 18.34-20.14 32.85-22.48a116.34 116.34 0 0123.79-1.38c4 .18 6-.78 5.69-5.28-.35-5.94.06-11.93-.16-17.89-.37-10.06-5.81-16-15.2-17.07-10.56-1.17-18.65 3.25-20.41 12.93-1.38 7.57-4.41 8-10.29 5.34-2.23-1-4.77-1.34-7.18-2-11.68-3.06-11.72-3.14-7.69-14.29 7-19.51 24.33-29.14 48.64-27.12 28.27 2.35 40.38 15.38 40.43 43.8.07 38.55-.09 77.09.14 115.64 0 5.64-1.12 8.28-7.29 7.45-6.78-.92-15.87 3.07-19.85-1.71-3.4-4-1.23-12.7-1.59-20.8zm.36-40v-12.63c0-1.77-.18-3.16-2.46-3.86-12.81-3.9-31.12 5.16-34.49 17.6a54.81 54.81 0 00-.19 27.92c2.6 10.37 12.92 14.44 22.27 9 6.53-3.79 10.33-9.78 12.76-16.76 2.43-6.98 2.18-14.07 2.11-21.27zm322.41-80.24c2.11-3.68 3.68-6.68 5.51-9.52 6.82-10.59 16.84-15.47 29.13-14.44 12.89 1.08 21.16 9 25.91 20.67a43.94 43.94 0 013 16.75c0 40.76-.11 81.52.1 122.27 0 5.37-1.06 7.74-6.92 7.14a82.44 82.44 0 00-15.63 0c-5.76.51-7.53-1.31-7.48-7.31.3-36 .14-72.07.16-108.1a44.28 44.28 0 00-1.24-11.8c-1.56-5.71-4.74-10.05-10.59-11.34-6.09-1.35-11.25 1.15-15.21 5.81-4.59 5.39-5.76 11.88-5.75 18.79 0 35.54-.13 71.08.16 106.61 0 5.92-1.57 7.83-7.41 7.34-7.13-.6-16.72 2.26-20.86-1.38-4.78-4.2-1.51-14-1.53-21.35-.15-44.73 0-89.47-.19-134.2 0-5.62 1.07-8.14 7.26-7.51 6.62.67 15.18-2 19.51 1.28 4.73 3.53.7 12.53 2.07 20.29zm-543.13.59c1.86-3.4 3-5.52 4.16-7.59 7.1-12.36 18.89-18.72 31.42-17 13.15 1.82 23.58 11.75 26.65 25.71a55.79 55.79 0 011.34 11.79c.1 40.75 0 81.49.18 122.23 0 5.45-1.22 7.66-7 7.14a96.22 96.22 0 00-16.37 0c-5.25.43-6.72-1.37-6.68-6.58.22-31.54.12-63.09.12-94.63 0-6.71.21-13.43-.09-20.12-.44-9.83-5.74-16.67-13.09-17.5-7.63-.86-15.17 4.89-18 13.81a38.18 38.18 0 00-1.49 11.76c.06 35.28-.1 70.56.17 105.84 0 5.83-1.44 8.09-7.38 7.4-7.29-.85-17.1 3.15-21.28-1.76-3.62-4.25-1.24-13.72-1.25-20.87 0-44.46.1-88.92-.15-133.38 0-6.2 1-9.37 8-8.37 6.54.94 15.33-2.85 19.18 1.63 3.23 3.83 1.14 12.29 1.56 20.49zm455.47 63.15c-9.69 0-19.39.1-29.08 0-3.93-.06-5.8.63-5.36 5.41.89 9.63.42 19.36 2.17 28.94a43 43 0 005.17 14.66c5.91 9.81 18.46 10.54 25.61 1.55a23.11 23.11 0 005.33-13.68c.24-7.84 4.09-10.14 11.22-8.85a22 22 0 003.72 0c14.34 0 14.34 0 11.65 13.92-5.78 30-28.9 45.33-57.91 38.49-16.34-3.86-25.52-15.35-29.71-30.41-9.28-33.35-10.34-67.25-1.45-100.79 7.48-28.18 28.57-41.27 55.45-35.92 15.08 3 24.94 12.67 31 26.43 8 18.1 6.89 37.35 7 56.45 0 4.25-3 3.82-5.7 3.82l-29.11-.02zm-14.31-22.5c5.45 0 10.91-.1 16.36 0 3 .07 4.66-.68 4.41-4.13-.68-9.43-1.59-18.79-6.49-27.19-3.36-5.75-8.17-9.34-15.14-8.89-6.97.45-11.26 4.33-14.21 10.39-4 8.26-4.19 17.22-5.24 26-.38 3.16 1.32 3.79 4 3.76 5.4-.01 10.86.06 16.31.06zm356.68 22.5h-29.09c-2.52 0-5.23-.31-5.07 3.56.59 14.12.08 28.42 5.67 41.81 3.53 8.45 8.6 11.69 16.5 11.27 7.2-.38 12.12-5.5 15.33-15.11 1.42-4.26-.19-10.74 3.31-12.49 4.22-2.11 10.15-.86 15.34-1 2.23-.07 4.47.06 6.71 0 2.47-.08 3.67.87 3.5 3.5-2.11 31.88-21.37 55.39-56.27 49.48-17.85-3-27.61-14.66-32.76-30.89-7.24-22.85-7.82-46.43-6.61-70.1a125.41 125.41 0 015.45-32.23c7.53-23.39 23.81-36.18 45.58-35.68 22.13.51 37.21 13.48 44 37.49 4.39 15.38 2.67 31.08 3.08 46.68.1 3.72-2.23 3.77-4.88 3.76-9.913-.053-19.843-.07-29.79-.05zm-13.47-22.5h15.64c2.37 0 4.41-.08 4.36-3.42-.16-10.29-1.16-20.43-7.11-29.21-7.44-11-21.56-10-27.83 1.73a42.66 42.66 0 00-4.45 14.11c-2.39 16.8-2.39 16.8 14.18 16.8l5.21-.01zm-93.04-18.35c-1.33-5.14-2.1-9.77-4.88-13.72-5.8-8.23-17.42-10.77-25-5.31-7 5-7.67 15.92-1.08 23.9 8.31 10.07 19.48 16.87 29.68 24.74 14.18 10.92 25.65 23.37 27.8 42.22 2.64 23.14-10.38 43.42-31.87 49.15-25.71 6.85-49-3.5-58.45-25.76-1.29-3-1.41-4.79 1.76-6.6 5.81-3.33 11.51-6.88 17-10.7 4.06-2.81 5-1.15 6.15 2.77 3.2 11.3 9.51 16.68 18.93 16.81 10.83.14 18.21-8.11 16.73-18.91-1.1-8.09-5.92-14-11.7-19.32-11.52-10.58-25-18.8-35.83-30.24-11.34-12-15-26.13-12.2-41.92 3.35-18.63 15.63-29.89 35.22-33.45 19-3.45 37.3 4.31 47 20 .26.42.5.85.75 1.28 5.66 9.75 5.68 9.78-3.84 15.52-5.16 3.15-10.5 6.21-16.17 9.54zM767.97 333.1v7.45c0 11.78 0 11.95 11.61 12.55 3.62.18 4.74 1.41 4.61 4.86a144.52 144.52 0 000 16.39c.39 4.92-1.75 5.69-6 5.66-10.22-.07-10.23.13-10.23 10.31v83.51c0 10.75 2 13.27 12.69 15.32 3 .58 3.5 2 3.48 4.53-.06 5.22-.41 10.47.09 15.64.53 5.49-1.57 7.82-6.88 7.8-2.23 0-4.47.26-6.7.28-21.82.18-32.21-9.8-32.38-31.56-.19-22.61 0-45.23 0-67.85 0-10.43-.22-20.88.1-31.31.15-4.9-.88-7.76-6.4-6.76-7.49 1.37-10.57-1.54-9.21-9.13a30.18 30.18 0 000-5.21c0-11.46 0-11.67 11.11-12.28 3.86-.21 4.44-1.85 4.4-5.06-.11-9.94.17-19.89-.13-29.82-.13-4.6 1.39-6.15 6-5.9 5.954.38 11.926.38 17.88 0 5.16-.37 6.39 1.79 6.06 6.43-.33 4.64-.1 9.42-.1 14.15zM564.82 3.77v-2.3c6.45-.14 13-1.6 19.18 1.56-1.2 1.2-2.74.87-4.19.93-4.95-4.22-10.01 1.14-14.99-.19zm94-.08V1.47c6-.24 12-1.33 17.68 1.56-1.18 1.2-2.71.87-4.15.95-2.3-3.1-4.6-2.06-6.89 0l.11-.12-6.75-.17zm-359.6 198.46v-2.23c5.57-.47 11.14-.64 16.73.71l-16.73 1.52zm206.29-8.7c3.68.75 2.29 3.73 2.61 5.95-4.84-.24-2.35-3.7-2.61-5.95zm0-7.46c3.56 1.49 3.57 3 0 4.48v-4.48zM603.62 1.75c-1.25 3-2.82 2.76-4.59.46 1.41-1.33 2.99-.94 4.59-.46zm14.92-.28c-.16.91-.36 1.92-1.49 1.92s-1.33-1-1.5-1.92h2.99zM505.51 163.6l1.7.75-1.7.75zm88.54-109.13c-.35-1 .34-1.11 1.06-1.15-.35.38-.75.76-1.06 1.15z"></path><path fill="#FEFEFD" d="M665.46 3.99c2.29-2.07 4.59-3.11 6.89 0h-6.89z"></path></g></svg>