<svg xmlns="http://www.w3.org/2000/svg" viewBox="75.48699188232422 60.982994079589844 448.780029296875 127.01700592041016"><g fill="none" fill-rule="evenodd"><path fill="#000" fill-rule="nonzero" d="M231.178 109.924c-3.422-3.232-9.045-5.221-14.667-5.221-13.689 0-22.733 8.205-22.733 18.648 0 9.698 8.555 17.654 22.733 17.654 7.089 0 12.222-2.237 15.889-6.216l7.089 3.979c-1.711 1.989-9.045 7.956-23.222 7.956-19.311 0-31.534-12.183-31.534-23.621 0-14.173 12.956-24.368 31.778-24.368 8.067 0 16.378 2.238 21.511 6.962l-6.844 4.227zm32.266 14.422L239 97.492h11.244l17.6 20.638 18.09-20.638h10.755l-24.445 26.854v23.373h-8.8v-23.373zm38.867-25.86h29.578c16.622 0 20.778 7.709 20.778 14.173 0 6.465-7.09 12.93-16.867 13.676l19.311 22.627h-11l-19.8-22.378h-13.2v22.378h-8.8V98.486zm8.8 22.379h18.333c6.845 0 13.934-1.243 13.934-8.206 0-6.962-6.845-8.205-13.934-8.205h-18.333v16.41zm48.156-23.622h44v6.465h-35.445v15.168h35.445v6.465h-35.445v16.162h37.156v6.465h-45.711V97.243zm52.555 0h8.8v42.022h36.422v8.454h-45.222zm78.222-.248h7.578l26.645 50.475h-9.778l-6.356-10.194h-29.577l-5.867 10.194h-9.778l27.133-50.475zM505.2 129.07l-11.489-23.124h-.244l-11.734 23.124H505.2zm-311.911 27.103c3.422 0 5.867 0 8.067 1.492 1.955 1.243 3.177 3.48 3.177 5.719 0 2.486-1.222 6.216-7.089 7.708 1.467.249 2.934.249 4.89 1.492 2.2 1.492 3.422 3.73 3.422 6.216 0 3.232-1.712 5.719-3.667 6.962-2.2 1.492-4.4 1.99-10.022 1.99h-6.845v-31.579h8.067zm-1.711 14.173c1.466 0 4.155 0 5.866-.746 2.2-1.243 2.934-3.73 2.934-5.719 0-.995-.245-3.232-1.956-4.476-1.466-.994-3.178-1.243-6.11-1.243h-3.423v11.935h2.689v.249zm.978 15.416c1.71 0 4.4 0 6.11-.994 2.2-1.492 2.69-4.227 2.69-5.72 0-1.243-.245-3.73-2.445-5.221-1.711-1.243-3.667-1.243-7.333-1.243h-2.69v13.178h3.668zm31.044-29.838c3.422 0 6.111 0 8.8 1.492 3.667 1.74 3.911 4.973 3.911 6.216 0 3.482-2.2 7.709-9.533 8.952l12.466 15.167h-5.133l-11.489-14.919h-2.444v14.92h-4.4v-31.828h7.822zm-3.422 2.238v12.93h2.444c3.178 0 9.045 0 9.045-6.962 0-5.968-4.89-5.968-8.556-5.968h-2.933zm38.133-1.989L270.533 188h-4.644l-4.4-11.686h-11L246.333 188h-3.177l12.222-31.578h2.933v-.249zm-7.089 18.151h9.534l-4.645-12.93-4.889 12.93zm48.156-17.654v1.74l-18.822 27.104H300.6V188h-25.422v-1.74l19.066-27.352h-18.088v-2.238zm13.444 0V188h-4.644v-31.33zm15.645 0v28.844h13.689V188h-18.09v-31.33zm44 .249c3.422 0 5.866 0 8.555 1.243 3.422 1.74 3.667 4.724 3.667 6.216 0 3.481-1.956 7.46-9.045 8.703l12.223 14.67h-5.134l-11-14.421h-2.444V188h-4.4v-31.081h7.578zm-3.423 1.99v12.432h2.445c3.178 0 8.8 0 8.8-6.714 0-5.719-4.645-5.719-8.311-5.719h-2.934zm42.045-1.99v2.238h-12.222v11.686h11.244v2.238h-11v12.433h12.222V188H395.2v-31.081zm21.022 0L444.09 188h-4.645l-4.4-11.438H424.29L420.133 188H417.2l11.978-31.081h2.933zm-7.089 17.654h9.29l-4.645-12.681-4.645 12.681zm31.778-17.654v28.595h12.711V188H452.89v-31.081zm38.133 0v2.238h-10.022V188h-4.4v-29.092H470.49v-2.238h24.444zm9.045 0l8.555 14.919 8.556-14.92h2.933l-10.51 17.158V188h-4.156v-13.924l-10.267-17.157z"></path><g fill-rule="nonzero"><path fill="#5F1700" d="M93.73 80.169l13.135-7.133 12.892-7.133v-4.92L98.108 73.037 76.216 84.842l18.243-4.673zM120 65.903l12.892 7.133 13.135 7.133 17.514 4.673-21.65-11.806L120 60.984h-.243v4.919z"></path><path fill="#BD5426" d="M146.027 80.169H94.46l-18.244 4.673-.243.246h87.811l-.243-.246z"></path><path fill="#9A171F" d="M120 65.903L93.73 80.169h52.297z"></path></g><path fill="#5F1700" fill-rule="nonzero" d="M80.838 181.75v-78.707h77.838v.246l5.351-5.657h-88.54v89.529h.243l5.351-5.411z"></path><path fill="#BD5426" fill-rule="nonzero" d="M158.676 103.289v78.46H81.08l-5.351 5.412h88.54V97.63h-.243z"></path><path stroke="#000" stroke-width=".14" d="M158.676 103.289v-.246H80.838v78.707h.243"></path><path fill="#9A171F" fill-rule="nonzero" d="M80.838 103.043v78.46h78.08v-78.46h-78.08zm65.432 66.163H93.243v-53.62h53.027v53.62z"></path><g fill-rule="nonzero"><path fill="#BD5426" d="M99.324 163.057V121.49l40.865.246 2.92-2.952 3.161-3.443H93v53.865h.243l3.162-3.444z"></path><path fill="#5F1700" d="M140.19 121.736l.486 40.829-41.352-.246-6.08 6.887h53.026V115.34z"></path></g></g></svg>