<svg xmlns="http://www.w3.org/2000/svg" viewBox="0.17622756958007812 0.8176994323730469 813.8712768554688 274.0046081542969"><path fill="#3EB0B0" d="M203.79 92.6c0 25.54.61 51.1-.14 76.62-1 34.66-12.16 65.06-41.45 86.15-35.69 25.71-83.85 25.74-118.68.63C7.69 230.15-8.61 185 4.89 143c20.39-63.45 88.75-88 140.67-59.93 5.42 2.93 10.13 7.16 15.29 10.61 2 1.35 4 4.23 6.76 2.47 2.16-1.35 1.15-4.21 1.15-6.39 0-25.54-.023-51.083-.07-76.63 0-10.72 3-13.31 14-12 2.26.27 4.49.91 6.75 1 14.45.72 14.44.69 14.44 15.82v74.67l-.09-.02zm-37 80.81c0-38.55-28-66.84-66-66.621-35.77.211-63 28.911-63.16 66.491-.13 35.92 28.28 66 62.55 66.23 38.12.26 66.63-28.03 66.63-66.1h-.02zm261.43 42.98c0 16.37-.17 32.75.1 49.12.09 5.47-1.59 8-7.26 7.35-2.26-.26-4.58 0-6.87 0-6.2-.16-13.54 1.64-18.33-1.06-5.82-3.28-1.4-11.4-2.51-17.29-.35-1.88.14-4.46-2.26-4.85-2.4-.39-3.92 2-5.71 3.38-26.41 20.24-55.66 27.3-87.77 17.25-40.74-12.76-64.42-41-71.09-82.94-6.85-43 15.35-84.73 54.69-104.9 37.81-19.39 86.4-12.42 116.66 17.31 19.58 19.25 29 43.33 30.14 70.49.67 15.36.12 30.78.12 46.17l.09-.03zm-52.75-86.69h.17c-20.23-30.85-74-30.7-98 .28a1.34 1.34 0 00-.81 1.4c-28.14 29.27-15.13 86.49 23.63 102.48 17.45 7.2 35.23 9 52.46-1.33l2.72-.73c17.47-6.3 27.17-19.9 32.24-36.64 4-13.34 6.31-27.3-.47-40.82.94-2.42.24-4.6-1-6.67a25.69 25.69 0 00-8.71-14.95l-.19-.76-2.04-2.26zm392.67 125.97l-3.68 2.66c-9.12 3.38-17.21 8.87-26.64 11.82-18 5.65-35.92 3.79-53.94.77l-4.09-1c-11.81-6.73-24.45-11.93-34.78-21.33-12.09-11-19.92-24.78-27.7-38.72a.89.89 0 00-.34-1.24c-6.06-24.15-7.63-48.07 1.47-72.05 6.53-17.22 18.36-30.39 30.5-43.51v.06c3.68-1.32 7.28-2.77 9.56-6.25 3.6-.9 6.77-2.47 8.93-5.65l2.76-.66 21.67-7.47 4.06-.65c5.37.36 10.75.7 15.93-1.29h3.21l27.87 3.88a.75.75 0 001.17.2l20.4 9.62c.57 1.66 2 2 3.46 2.1 34 24.91 47.31 59 46 100.33-.88 28.06-.15 56.17-.14 84.25l-.14.18c-8.16.14-16.34 0-24.48.52-7 .46-10.39-1.82-9.73-9.32.45-5.06.09-10.19.09-16.56-5.69 2.73-9.4 4.95-11.42 9.31zm8.65-82.55c1.82-37.56-30.16-66.67-64.41-66.41-37.06.28-64 27.75-64 66 0 37.87 27.09 66.34 63.53 66.74 36.91.4 64.91-28.23 64.88-66.36v.03zm-254.4-45.1a1.35 1.35 0 00.52-1.49 4.58 4.58 0 002.15-4.28l-.11.22c4.36-3.85 6.73-9 9.15-14.11a1.06 1.06 0 00.66-1.25c2.07-.89 3.46-2.29 3.63-4.65 20.94-19.89 45.71-30.11 74.73-29.61l.19.1c1.64 11.2.28 22.45.63 33.68h-.51l-.13.46c-16.88-.28-33.24.78-43.81 16.87-1.92 1.3-3.55 2.81-3.78 5.31-10.9 14.14-13.72 30.91-15.63 48l-.42 3.62c-4.75 20.2-11.18 39.73-22.67 57.25a.9.9 0 00-.61 1.15c-2.08.86-3.66 2.15-3.91 4.57l.08-.09-26 19.67h-.76l-.58.49-31.2 8.16-4.29.09a1.36 1.36 0 00-1.72.05h-6c-4.25-1.38-3.92-5.39-5-8.62a36.14 36.14 0 00.13-15.73 13.34 13.34 0 00.18-8l.51-.2v-.54c9.31-2.43 19.88 1 28.19-6 .58.1 1.16-.181 1.44-.7 11.52-3.09 17.1-12.26 22.13-21.86 13.56-25.9 12.87-55.7 22.81-82.56z"></path></svg>