<svg xmlns="http://www.w3.org/2000/svg" viewBox="73.9999771118164 72.99998474121094 452.0000305175781 104"><g fill="none" fill-rule="evenodd"><path fill="#006" d="M450.412 111.617l8.198-28.161 8.198 28.16h-16.396zm-1.945-37.92l-19.87 60.365h15.284l3.057-10.596h23.066l3.057 10.596h15.284l-19.87-60.365h-20.008zm-23.205 0h-14.45v39.174l-26.818-39.174h-14.59v60.365h14.452V94.887l26.817 39.175h14.45V73.697h.14zm-89.066 12.408c8.615 0 15.701 7.946 15.701 17.705 0 9.758-7.086 17.705-15.7 17.705-8.616 0-15.702-7.947-15.702-17.705 0-9.76 6.947-17.705 15.701-17.705zm0-13.105c16.396 0 29.596 13.802 29.596 30.81s-13.339 30.81-29.596 30.81c-16.396 0-29.596-13.802-29.596-30.81C306.461 86.802 319.8 73 336.196 73zm-69.057 0a27.521 27.521 0 0116.812 5.716l-8.336 10.316c-2.502-1.812-5.42-2.927-8.476-2.927-8.615 0-15.424 7.946-15.424 17.705 0 9.758 6.948 17.705 15.424 17.705 5.558 0 10.42-3.346 13.06-8.365v18.123c-3.89 2.092-8.336 3.207-13.06 3.207-16.118 0-29.319-13.802-29.319-30.81.14-16.868 13.2-30.67 29.319-30.67zm-66.835.697v60.365h35.71v-12.687H215.59v-11.152h18.34V97.536h-18.34V86.383h20.425V73.697h-35.71zm-34.876 28.997V84.85h7.226c9.865 0 9.865 17.844 0 17.844h-7.226zm-13.617-28.997v60.365h13.617v-24.397h.695l14.45 24.257h15.98l-15.84-24.257c19.174-.697 19.036-35.968-.556-35.968H151.81zm-4.168 0h-15.285v60.365h15.285V73.697zm-73.643 0h26.956c5.697 0 10.56 1.534 14.45 4.043C94.704 84.153 81.365 100.464 74 112.453V73.697zm46.687 8.783c14.311 16.73 7.642 51.582-19.731 51.582H88.868c4.168-24.955 23.343-44.193 31.819-51.582zm165.627 6.831v44.75h15.284v-44.75h4.03l-11.672-15.614-11.672 15.614h4.03zM117.49 79.273c.417.28.834.698 1.25 1.116-7.78 6.552-29.318 26.906-33.764 53.533H74v-14.22c5.975-11.57 19.73-33.04 43.49-40.429zm404.34 81.834c-.972.418-2.362.837-4.307 1.116-1.111.139-1.806.418-2.362.557-.417.279-.834.558-.973.976a2.36 2.36 0 00-.416 1.394c0 .837.277 1.394.833 1.952.556.558 1.25.836 2.362.836.973 0 1.946-.278 2.64-.697.834-.557 1.39-1.115 1.807-1.951.278-.698.417-1.673.417-2.928v-1.255zm.278 6.553c-.972.975-1.945 1.533-2.779 1.951-.833.418-1.806.558-2.917.558-1.668 0-3.057-.418-3.891-1.394-.973-.976-1.39-2.091-1.39-3.625 0-.836.14-1.673.556-2.37.417-.697.834-1.255 1.39-1.673.556-.418 1.25-.697 1.945-.976.556-.139 1.25-.278 2.362-.418 2.084-.279 3.752-.558 4.724-.976v-.697c0-1.254-.277-2.09-.694-2.51-.695-.696-1.668-.975-3.057-.975-1.25 0-2.223.279-2.78.697-.555.418-.972 1.394-1.25 2.649l-2.64-.418c.278-1.255.556-2.231 1.112-2.928.556-.697 1.25-1.394 2.362-1.812.973-.419 2.223-.558 3.474-.558 1.39 0 2.362.14 3.196.558.833.418 1.389.836 1.806 1.254.417.558.695 1.255.834 1.952.139.558.139 1.394.139 2.649v3.903c0 2.789 0 4.461.138 5.159.14.697.278 1.394.695 2.09h-2.779c-.278-.557-.417-1.254-.556-2.09zm-50.577 2.09v-17.286h2.64v17.426h-2.64v-.14zm0-20.493v-3.345h2.64v3.345h-2.64zm-43.769 20.494v-17.287h2.362v2.649c.556-1.255 1.112-2.092 1.668-2.37a2.664 2.664 0 011.667-.558c.834 0 1.807.279 2.64.976l-.972 2.649c-.695-.419-1.251-.558-1.946-.558-.556 0-1.111.14-1.528.558-.417.418-.834.976-.973 1.673-.278.975-.417 2.23-.417 3.485v9.061h-2.5v-.278zm-40.434-8.644c-.972.418-2.362.837-4.307 1.116-1.112.139-1.807.418-2.362.557-.417.279-.834.558-.973.976a2.36 2.36 0 00-.417 1.394c0 .837.278 1.394.834 1.952.556.558 1.25.836 2.362.836.973 0 1.945-.278 2.64-.697.834-.557 1.39-1.115 1.806-1.951.278-.698.417-1.673.417-2.928v-1.255zm.278 6.553c-.973.975-1.945 1.533-2.779 1.951-.834.418-1.806.558-2.918.558-1.667 0-3.057-.418-3.89-1.394-.973-.976-1.39-2.091-1.39-3.625 0-.836.14-1.673.556-2.37.417-.697.834-1.255 1.39-1.673.555-.418 1.25-.697 1.945-.976.556-.139 1.25-.278 2.362-.418 2.084-.279 3.751-.558 4.724-.976v-.697c0-1.254-.278-2.09-.695-2.51-.694-.696-1.667-.975-3.056-.975-1.251 0-2.224.279-2.78.697-.555.418-.972 1.394-1.25 2.649l-2.64-.418c.278-1.255.556-2.231 1.112-2.928.555-.697 1.25-1.394 2.362-1.812.972-.419 2.223-.558 3.473-.558 1.39 0 2.363.14 3.196.558.834.418 1.39.836 1.807 1.254.416.558.694 1.255.833 1.952.14.558.14 1.394.14 2.649v3.903c0 2.789 0 4.461.138 5.159.14.697.278 1.394.695 2.09h-2.78c-.416-.557-.555-1.254-.555-2.09zm-60.581 2.09v-23.838h2.64v8.643c1.25-1.534 2.779-2.37 4.585-2.37 1.111 0 2.084.279 2.918.697.833.558 1.39 1.255 1.806 2.091.417.837.556 2.23.556 3.904v11.013h-2.64v-11.013c0-1.534-.278-2.51-.834-3.207-.556-.697-1.39-.976-2.362-.976-.834 0-1.528.28-2.223.697-.695.419-1.112 1.116-1.529 1.813-.277.836-.416 1.812-.416 3.206v9.48h-2.501v-.14zm-50.439 0v-17.286h2.362v2.51c1.112-1.953 2.78-2.789 5.002-2.789.973 0 1.807.14 2.64.558.834.418 1.39.836 1.807 1.533.417.558.695 1.394.833 2.23.14.558.14 1.534.14 2.928v10.595h-2.64v-10.595c0-1.254-.14-2.09-.278-2.648a2.214 2.214 0 00-1.112-1.395c-.556-.418-1.112-.557-1.806-.557-1.112 0-2.085.418-2.918 1.254-.834.837-1.25 2.37-1.25 4.462v9.48h-2.78v-.28zm-48.493-10.316h8.615c-.14-1.394-.417-2.51-.973-3.346-.833-1.115-1.945-1.672-3.196-1.672-1.25 0-2.223.418-3.056 1.394-.834.976-1.251 2.09-1.39 3.624zm8.615 4.74l2.779.418c-.417 1.813-1.25 3.207-2.362 4.183s-2.64 1.533-4.447 1.533c-2.223 0-4.03-.836-5.419-2.37-1.39-1.533-1.945-3.764-1.945-6.552 0-2.928.695-5.158 1.945-6.831 1.39-1.673 3.057-2.37 5.28-2.37 2.085 0 3.752.836 5.142 2.37 1.25 1.533 1.945 3.764 1.945 6.692v.836h-11.533c.139 1.952.556 3.346 1.39 4.322.833.976 1.945 1.533 3.195 1.533.973 0 1.807-.278 2.501-.836.556-.697 1.112-1.673 1.529-2.928zm-59.331-3.346c0 2.231.417 3.904 1.25 5.02.834.975 1.807 1.533 3.057 1.533s2.223-.558 3.057-1.534c.834-.976 1.25-2.649 1.25-4.88 0-2.09-.416-3.763-1.25-4.74-.834-1.114-1.806-1.672-3.057-1.672-1.111 0-2.223.558-3.057 1.533-.833 1.116-1.25 2.65-1.25 4.74zm-2.084 10.456l2.5.418c.14.837.417 1.534.834 1.952.695.558 1.529.837 2.64.837 1.25 0 2.224-.28 2.78-.837.694-.557 1.11-1.255 1.389-2.23.139-.558.139-1.813.139-3.764-1.112 1.533-2.64 2.23-4.308 2.23-2.084 0-3.751-.836-5.002-2.649-1.111-1.673-1.806-3.764-1.806-6.134 0-1.673.278-3.206.834-4.6.555-1.394 1.25-2.51 2.362-3.207.972-.697 2.223-1.115 3.612-1.115 1.807 0 3.335.836 4.586 2.51v-2.092h2.362v15.057c0 2.648-.278 4.6-.695 5.715-.556 1.116-1.25 1.952-2.362 2.65-1.112.696-2.362.975-3.89.975-1.807 0-3.335-.418-4.447-1.394-1.112-1.115-1.667-2.51-1.528-4.322zm-50.022-1.533v-17.287h2.362v2.51c1.112-1.953 2.78-2.789 5.002-2.789.973 0 1.807.14 2.64.558.834.418 1.39.836 1.807 1.533.417.558.694 1.394.833 2.23.14.558.14 1.534.14 2.928v10.595h-2.64v-10.595c0-1.254-.14-2.09-.279-2.648a2.214 2.214 0 00-1.111-1.395c-.556-.418-1.112-.557-1.807-.557-1.111 0-2.084.418-2.917 1.254-.834.837-1.251 2.37-1.251 4.462v9.48h-2.779v-.28zm-48.354-10.317h8.615c-.14-1.394-.417-2.51-.973-3.346-.834-1.115-1.945-1.672-3.196-1.672-1.25 0-2.223.418-3.057 1.394-.833.976-1.39 2.09-1.39 3.624zm8.615 4.74l2.779.418c-.417 1.813-1.25 3.207-2.362 4.183s-2.64 1.533-4.447 1.533c-2.223 0-4.03-.836-5.419-2.37-1.39-1.533-1.945-3.764-1.945-6.552 0-2.928.695-5.158 1.945-6.831 1.39-1.673 3.057-2.37 5.28-2.37 2.085 0 3.752.836 5.141 2.37 1.25 1.533 1.946 3.764 1.946 6.692v.836H76.918c.139 1.952.556 3.346 1.39 4.322.833.976 1.945 1.533 3.195 1.533.973 0 1.807-.278 2.501-.836.556-.697 1.112-1.673 1.529-2.928zm421.014-90.477h-15.284v60.365H526v-13.663h-19.453V73.697z"></path><path fill="#69F" d="M163.41 103.147V83.874h8.743c4.303 0 6.94 2.773 8.189 6.24a13.06 13.06 0 01.694 4.16c0 1.386-.278 2.772-.694 4.159-1.11 3.466-3.886 6.24-8.189 6.24h-8.744v-1.526zm-63.011-27.315H75V108c3.47-4.992 7.772-10.4 13.185-15.53 6.246-5.823 13.88-11.092 23.04-14.42a14.802 14.802 0 00-3.47-1.247c-2.36-.694-4.72-.971-7.356-.971zM491.648 108H504V75.832h-12.352V108zm-53.712 0h11.103l7.078-24.542 1.388-4.853 1.388 4.853L465.972 108h11.103l-10.687-32.168h-17.904L437.936 108zm-26.648 0h11.52V75.832h-11.52V108zm-41.36 0h11.52V90.668l2.637 3.882 9.3 13.45h10.964l-22.207-32.168H369.93V108zm-62.455 0h11.104c-.278-1.248-.278-2.496-.278-3.744 0-5.269 1.943-9.983 4.996-13.45 3.054-3.466 7.356-5.684 12.214-5.684 4.719 0 9.021 2.218 12.213 5.685 3.054 3.466 4.997 8.18 4.997 13.45 0 1.247-.139 2.495-.278 3.743h11.103c.14-1.248.278-2.496.278-3.744 0-8.042-3.192-15.39-8.327-20.66C350.359 78.329 343.42 75 335.648 75c-7.773 0-14.85 3.328-19.847 8.597-5.136 5.269-8.328 12.617-8.328 20.66-.277 1.247-.138 2.495 0 3.743zm-68.562 0h10.964c-.277-1.248-.277-2.496-.277-3.744 0-5.269 1.804-9.983 4.858-13.45 3.053-3.466 7.355-5.684 12.074-5.684 1.666 0 3.331.277 4.997.832 1.11.416 2.22.97 3.33 1.525l6.246-7.903c-1.943-1.248-4.025-2.358-6.384-3.05-2.637-.833-5.413-1.387-8.328-1.387-7.633 0-14.572 3.189-19.569 8.458-4.996 5.269-8.189 12.617-8.189 20.66 0 1.247.14 2.495.278 3.743zm-37.75 0h30.672v-8.458h-18.321V85.399h20.403v-9.567H201.16V108zm-48.439 0h30.673c4.164-1.387 6.94-4.853 8.327-9.151.694-2.219 1.11-4.715 1.11-7.072s-.416-4.853-1.248-7.071c-1.943-5.13-5.968-9.013-12.075-9.013h-26.787V108zm-19.43 0h12.352V75.832h-12.352V108zm-32.893 0h25.398c.139-1.248.139-2.496.139-3.744 0-6.932-1.943-13.865-5.968-19.134-5.135 4.575-13.046 12.479-19.57 22.878z"></path><path fill="#6194F7" d="M163.41 102.582v-18.98h8.743c4.303 0 6.94 2.731 8.189 6.145.416 1.229.694 2.594.694 4.096 0 1.366-.278 2.731-.694 4.097-1.11 3.413-3.886 6.144-8.189 6.144h-8.744v-1.502zm-63.011-26.9H75v31.68c3.47-4.916 7.772-10.242 13.185-15.294 6.246-5.735 13.88-10.923 23.04-14.2a14.925 14.925 0 00-3.47-1.23c-2.36-.682-4.72-.955-7.356-.955zM491.648 109H504V75.683h-12.352V109zm-54.128 0h11.242l7.633-25.67 1.388-4.78 1.388 4.78 7.633 25.67h11.242l-11.242-33.317H448.9L437.52 109zm-26.232 0h11.52V75.683h-11.52V109zm-41.36 0h11.52V90.293l2.637 3.823L394.495 109h10.964l-23.317-33.317H369.93V109zm-62.316 0h11.242c-.416-1.639-.694-3.414-.694-5.189 0-5.189 1.943-9.831 4.997-13.245 3.053-3.413 7.355-5.598 12.213-5.598 4.719 0 9.021 2.185 12.214 5.598 3.053 3.414 4.996 8.056 4.996 13.245 0 1.775-.278 3.55-.694 5.189h11.242a31.45 31.45 0 00.416-5.189c0-7.92-3.192-15.156-8.327-20.345C350.082 78.277 343.142 75 335.37 75c-7.772 0-14.85 3.277-19.847 8.466a28.912 28.912 0 00-8.327 20.345c0 1.639.139 3.414.416 5.189zm-68.423 0h10.964c-.416-1.639-.694-3.414-.694-5.189 0-5.189 1.804-9.831 4.858-13.245 3.053-3.413 7.356-5.598 12.074-5.598 1.666 0 3.331.273 4.997.82 1.11.409 2.22.955 3.33 1.501l6.385-7.92c-1.943-1.228-4.025-2.32-6.384-3.004-2.637-.819-5.413-1.365-8.328-1.365-7.633 0-14.572 3.14-19.569 8.33a29.4 29.4 0 00-8.189 20.345c0 1.775.14 3.55.556 5.325zm-38.029 0h12.352v-.546h18.321v-9.422h-18.321V85.104h20.403v-9.421H201.16V109zm-48.438 0h10.687v-.956h3.054l.416.683.139.273h10.964l-.555-.956 2.637-.136c6.107-.273 9.993-4.37 11.797-9.559.694-2.184 1.11-4.642 1.11-6.963 0-2.322-.416-4.78-1.249-6.964-1.943-5.053-5.968-8.876-12.074-8.876h-26.926V109zm-19.43 0h12.352V75.683h-12.352V109zm-33.865 0h26.093c.277-1.775.416-3.55.416-5.189 0-6.827-1.943-13.654-5.968-18.843-5.135 4.642-13.324 12.699-19.986 23.213-.139.136-.416.546-.555.819z"></path><path fill="#5C8FF2" d="M163.41 102.893V83.794h8.743c4.303 0 6.94 2.748 8.189 6.183.416 1.237.694 2.61.694 4.122 0 1.374-.278 2.748-.694 4.122-1.11 3.435-3.886 6.184-8.189 6.184h-8.744v-1.512zm-63.011-27.069H75v31.878c3.47-4.946 7.772-10.305 13.185-15.389 6.246-5.771 13.88-10.992 23.04-14.29a14.87 14.87 0 00-3.47-1.237c-2.36-.687-4.72-.962-7.356-.962zm391.249 35.039H504V75.824h-12.352v35.039zm-54.684 0h11.242l8.05-27.481 1.388-4.81 1.388 4.81 8.05 27.48h11.242l-11.659-35.175h-17.903l-11.798 35.176zm-25.676 0h11.52V75.824h-11.52v35.039zm-41.36 0h11.52V90.527l2.637 3.847L395.605 111h10.964l-24.427-35.176H369.93v35.039zm-61.9 0h11.381c-.694-2.199-1.11-4.535-1.11-6.87 0-5.222 1.943-9.894 4.996-13.329 3.054-3.435 7.356-5.633 12.214-5.633 4.719 0 9.021 2.198 12.213 5.633 3.054 3.435 4.997 8.107 4.997 13.328 0 2.474-.417 4.81-1.11 6.87h11.38a28.23 28.23 0 00.833-6.87c0-7.97-3.192-15.252-8.327-20.473C350.359 78.298 343.42 75 335.648 75c-7.773 0-14.85 3.298-19.847 8.52-5.136 5.22-8.328 12.503-8.328 20.472-.277 2.474 0 4.672.555 6.87zm-68.562 0h11.242c-.694-2.199-1.11-4.535-1.11-6.87 0-5.222 1.804-9.894 4.858-13.329 3.053-3.435 7.355-5.633 12.074-5.633 1.666 0 3.331.274 4.997.824 1.11.412 2.22.962 3.33 1.511l6.246-7.832c-1.943-1.236-4.025-2.336-6.384-3.023-2.637-.824-5.413-1.374-8.328-1.374-7.633 0-14.572 3.16-19.569 8.382a29.682 29.682 0 00-8.189 20.473c0 2.474.278 4.672.833 6.87zm-38.306 0h12.352v-2.199h18.321v-9.48h-18.321V85.167h20.403v-9.481H201.16v35.176zm-48.438 0h10.687v-2.611h3.054l.416.687 1.11 1.924h11.104l-.278-.413-1.388-2.198 2.637-.137c6.107-.275 9.993-4.397 11.797-9.619.694-2.198 1.11-4.672 1.11-7.007 0-2.336-.416-4.81-1.249-7.008-1.943-5.084-5.968-8.931-12.074-8.931h-26.926v35.313zm-19.43 0h12.352V75.824h-12.352v35.039zm-34.836 0h26.786c.416-2.199.694-4.535.694-6.87 0-6.87-1.943-13.741-5.968-18.962-5.135 4.671-13.324 12.778-19.986 23.358-.555.825-.971 1.65-1.526 2.474z"></path><path fill="#5787EB" d="M163.41 104.744V84.377h8.743c4.303 0 6.94 2.93 8.189 6.594a14.51 14.51 0 01.694 4.395c0 1.466-.278 2.93-.694 4.396-1.11 3.663-3.886 6.593-8.189 6.593h-8.744v-1.611zm-63.011-28.865H75v33.993c3.47-5.275 7.772-10.99 13.185-16.41 6.246-6.154 13.88-11.722 23.04-15.239a14.269 14.269 0 00-3.47-1.318c-2.36-.733-4.72-1.026-7.356-1.026zM491.648 115H504V75.88h-12.352V115zm-55.239 0h11.381l.416-1.465 8.189-29.597 1.388-5.128 1.388 5.128 8.188 29.597.417 1.465h11.38l-12.213-39.267H449.04L436.41 115zm-25.12 0h11.519V75.88h-11.52V115zm-41.36 0h11.52V91.557l2.636 4.102L396.715 115h10.965l-25.538-39.267H369.93V115zm-61.484 0h11.52c-1.11-2.784-1.805-5.86-1.805-9.084 0-5.568 1.943-10.55 4.997-14.213 3.053-3.663 7.355-6.007 12.213-6.007 4.719 0 9.021 2.344 12.214 6.007 3.053 3.663 4.996 8.645 4.996 14.213 0 3.223-.694 6.3-1.804 9.084h11.52c.832-2.93 1.248-5.86 1.248-9.084 0-8.498-3.192-16.264-8.327-21.832C350.082 78.516 343.142 75 335.37 75c-7.772 0-14.85 3.516-19.847 9.084-5.135 5.568-8.327 13.334-8.327 21.832 0 3.223.416 6.3 1.249 9.084zm-68.562 0h11.38c-1.11-2.784-1.804-5.86-1.804-9.084 0-5.568 1.804-10.55 4.858-14.213 3.053-3.663 7.356-6.007 12.074-6.007 1.666 0 3.331.293 4.997.88 1.11.439 2.22 1.025 3.33 1.61l6.385-8.35c-1.943-1.32-4.025-2.492-6.384-3.224-2.637-.88-5.413-1.465-8.328-1.465-7.633 0-14.572 3.37-19.569 8.937-4.996 5.568-8.189 13.334-8.189 21.832 0 3.223.417 6.3 1.25 9.084zm-38.723 0h12.352v-4.103h18.321v-10.11h-18.321V85.843h20.403v-10.11H201.16V115zm-48.438 0h10.687v-4.542h3.054l.416.732 2.082 3.663h11.242l-1.25-2.05-1.387-2.345 2.637-.147c6.107-.293 9.993-4.688 11.797-10.256.694-2.344 1.11-4.982 1.11-7.473 0-2.49-.416-5.128-1.249-7.472-1.943-5.421-5.968-9.524-12.075-9.524h-27.064V115zm-19.43 0h12.352V75.88h-12.352V115zm-35.67 0h27.342c.694-2.93 1.11-6.007 1.11-9.084 0-7.326-1.942-14.652-5.967-20.22-5.135 4.982-13.324 13.626-19.986 24.908A35.339 35.339 0 0097.623 115z"></path><path fill="#5482E3" d="M448.068 112.053l8.188-28.351 1.388-4.913 1.388 4.913 8.189 28.35.555 1.966h-20.264l.556-1.965zm-284.659-8.562V83.982h8.744c4.303 0 6.94 2.807 8.189 6.316.416 1.263.694 2.667.694 4.21 0 1.404-.278 2.808-.694 4.211-1.11 3.51-3.886 6.316-8.189 6.316h-8.744v-1.544zM100.4 75.842H75v32.562c3.47-5.053 7.772-10.527 13.185-15.72 6.246-5.895 13.88-11.228 23.04-14.596a14.66 14.66 0 00-3.47-1.263c-2.36-.702-4.72-.983-7.356-.983zM491.648 115H504V75.842h-12.352V115zm-55.794 0h43.58l-12.769-39.158h-17.903L435.854 115zm-24.566 0h11.52V75.842h-11.52V115zm-41.36 0h11.52V90.86l2.637 3.93 13.74 20.21h10.965l-.278-.421-26.37-38.737H369.93V115zM309 115h11.936c-1.666-2.947-2.637-6.596-2.637-10.386 0-5.333 1.943-10.105 4.996-13.614 3.054-3.509 7.356-5.754 12.214-5.754 4.719 0 9.021 2.245 12.213 5.754 3.054 3.509 4.997 8.28 4.997 13.614 0 3.79-.972 7.298-2.637 10.386h11.936c1.11-3.228 1.804-6.737 1.804-10.386 0-8.14-3.192-15.579-8.327-20.912C350.359 78.368 343.42 75 335.648 75c-7.773 0-14.85 3.368-19.847 8.702-5.136 5.333-8.328 12.772-8.328 20.912A23.662 23.662 0 00309 115zm-68.562 0h11.658c-1.665-2.947-2.637-6.596-2.637-10.386 0-5.333 1.804-10.105 4.858-13.614 3.053-3.509 7.356-5.754 12.074-5.754 1.666 0 3.331.28 4.997.842 1.11.42 2.22.982 3.33 1.544l6.385-8c-1.943-1.264-4.025-2.386-6.384-3.088-2.637-.842-5.413-1.404-8.328-1.404-7.633 0-14.572 3.228-19.569 8.562-4.996 5.333-8.189 12.772-8.189 20.912 0 3.65.694 7.158 1.805 10.386zm-39.278 0h12.352v-5.474h18.321v-9.684h-18.321V85.526h20.403v-9.684H201.16V115zm-48.438 0h10.687v-6.035h3.054l.416.702 3.053 5.193h11.242l-2.36-3.65-1.387-2.245 2.637-.14c6.107-.281 9.993-4.492 11.797-9.825.694-2.246 1.11-4.772 1.11-7.158s-.416-4.912-1.249-7.158c-1.943-5.193-5.968-9.123-12.074-9.123h-26.926V115zm-19.43 0h12.352V75.842h-12.352V115zm-36.64 0h27.757c.972-3.368 1.527-6.877 1.527-10.386 0-7.018-1.943-14.035-5.968-19.368-5.135 4.772-13.324 13.052-19.986 23.86-1.11 1.964-2.22 3.789-3.33 5.894z"></path><path fill="#4F7DDE" d="M448.068 110.54l8.188-27.297 1.388-4.73 1.388 4.73 8.189 27.298.555 1.891h-20.264l.556-1.891zm-284.659-8.243V83.514h8.744c4.303 0 6.94 2.702 8.189 6.08.416 1.217.694 2.568.694 4.055 0 1.351-.278 2.702-.694 4.054-1.11 3.378-3.886 6.08-8.189 6.08h-8.744v-1.486zM100.4 75.676H75v31.351c3.47-4.865 7.772-10.135 13.185-15.135 6.246-5.676 13.88-10.81 23.04-14.054a15.055 15.055 0 00-3.47-1.216c-2.36-.676-4.72-.946-7.356-.946zM491.648 115H504V75.676h-12.352V115zm-56.35 0h44.691l-13.324-39.324h-17.903L435.299 115zm-24.01 0h11.52V75.676h-11.52V115zm-41.36 0h11.52V90.135l2.637 3.784L399.075 115h10.964l-1.388-2.027-26.37-37.297H369.93V115zm-60.373 0h12.214c-2.36-3.108-3.748-7.162-3.748-11.486 0-5.136 1.943-9.73 4.997-13.109 3.053-3.378 7.356-5.54 12.213-5.54 4.72 0 9.022 2.162 12.214 5.54 3.053 3.379 4.996 7.973 4.996 13.109 0 4.324-1.388 8.378-3.747 11.486h12.213c1.527-3.514 2.36-7.432 2.36-11.486 0-7.838-3.192-15-8.327-20.136C349.804 78.243 342.865 75 335.093 75a27.705 27.705 0 00-19.847 8.378 28.463 28.463 0 00-8.328 20.136c.278 4.054 1.11 7.972 2.637 11.486zm-68.562 0h12.075c-2.221-3.108-3.609-7.162-3.609-11.486 0-5.136 1.804-9.73 4.858-13.109 3.053-3.378 7.356-5.54 12.074-5.54 1.666 0 3.331.27 4.997.81 1.11.406 2.22.947 3.33 1.487l6.385-7.838c-1.943-1.216-4.025-2.297-6.384-2.973-2.637-.81-5.413-1.351-8.328-1.351a27.186 27.186 0 00-19.569 8.243c-4.996 5.135-8.189 12.298-8.189 20.135 0 4.19.833 8.108 2.36 11.622zm-39.833 0h12.352v-6.892h18.321v-9.324h-18.321V85h20.403v-9.324H201.16V115zm-48.438 0h10.687v-7.432h3.054l.416.675 4.025 6.622h11.38l-3.47-5.135-1.387-2.162 2.637-.136c6.107-.27 9.993-4.324 11.797-9.459.694-2.162 1.11-4.595 1.11-6.892 0-2.297-.416-4.73-1.249-6.892-1.943-5-5.968-8.784-12.074-8.784h-26.926V115zm-19.43 0h12.352V75.676h-12.352V115zm-37.473 0h28.035c1.388-3.649 2.082-7.568 2.082-11.486 0-6.757-1.943-13.514-5.968-18.65-5.135 4.595-13.324 12.568-19.986 22.974-1.388 2.162-2.776 4.594-4.163 7.162z"></path><path fill="#4A78D6" d="M448.068 110.72l8.188-28.185 1.388-4.884 1.388 4.884 8.189 28.186.555 1.953h-20.264l.556-1.953zm-284.659-8.51V82.813h8.744c4.303 0 6.94 2.79 8.189 6.279.416 1.256.694 2.651.694 4.186 0 1.395-.278 2.79-.694 4.186-1.11 3.488-3.886 6.28-8.189 6.28h-8.744v-1.536zm-57.598-27.07H75v31.813c3.47-5.023 7.772-10.465 13.185-15.627 6.246-5.86 13.88-11.163 23.04-14.512a14.715 14.715 0 00-3.47-1.256c-.695-.14-1.388-.279-1.944-.418zm385.837 41.72H504V75.14h-12.352v41.72zm-56.904 0h45.662l-13.74-41.72h-18.32l-13.602 41.72zm-23.456 0h11.52V75.14h-11.52v41.72zm-41.36 0h11.52V89.651l2.637 3.907L400.046 117h10.965l-2.499-3.767L382.56 75.14h-12.63v41.72zm-59.54 0h12.769c-3.054-3.488-4.997-8.232-4.997-13.534 0-5.303 1.943-10.047 4.997-13.535 3.053-3.489 7.355-5.721 12.213-5.721 4.719 0 9.021 2.232 12.214 5.72 3.053 3.49 4.996 8.233 4.996 13.536 0 5.302-1.943 10.046-4.996 13.534h12.768c2.082-4.046 3.192-8.65 3.192-13.534 0-8.093-3.192-15.489-8.327-20.791-3.33-3.349-7.356-6-11.936-7.395h-15.96c-4.58 1.395-8.606 3.907-11.937 7.395-5.135 5.302-8.327 12.698-8.327 20.79.139 4.884 1.249 9.489 3.33 13.535zm-68.562 0h12.63c-3.054-3.488-4.858-8.232-4.858-13.534 0-5.303 1.804-10.047 4.858-13.535 3.053-3.489 7.355-5.721 12.074-5.721 1.666 0 3.331.279 4.997.837 1.11.419 2.22.977 3.33 1.535l6.246-7.954c-1.943-1.255-4.025-2.372-6.384-3.07-.139 0-.278-.139-.417-.139H258.48c-4.44 1.395-8.466 3.907-11.658 7.395-4.996 5.303-8.189 12.698-8.189 20.791 0 4.744 1.11 9.349 3.193 13.395zm-40.666 0h12.352v-8.79h18.321v-9.628h-18.321V84.209h20.403V75H201.16v41.86zm-48.438 0h10.687v-9.209h3.054l.416.698 4.996 8.511h11.52l-4.441-6.976-1.388-2.233 2.637-.14c6.107-.278 9.993-4.464 11.797-9.767.694-2.232 1.11-4.744 1.11-7.116s-.416-4.884-1.249-7.116c-1.526-4.047-4.302-7.396-8.466-8.512h-30.673v41.86zm-19.43 0h12.352V75.14h-12.352v41.72zm-38.167 0h28.174c.139-.279.139-.418.278-.697 1.665-4.047 2.359-8.372 2.359-12.837 0-6.977-1.943-13.954-5.968-19.256-5.135 4.744-13.324 12.977-19.986 23.72-1.804 2.93-3.47 5.861-4.857 9.07z"></path><path fill="#4573CF" d="M448.068 111.186L456.256 83l1.388-4.884L459.032 83l8.189 28.186.555 1.954h-20.264l.556-1.954zm-284.659-8.512V83.28h8.744c4.303 0 6.94 2.79 8.189 6.28.416 1.255.694 2.65.694 4.185 0 1.396-.278 2.79-.694 4.186-1.11 3.489-3.886 6.28-8.189 6.28h-8.744v-1.536zM110.947 77.28H75v30.14c3.47-5.024 7.772-10.466 13.185-15.628 6.246-5.86 13.88-11.163 23.04-14.512h-.278zm380.7 41.72H504V77.28h-12.352V119zm-57.458 0h46.772l-13.74-41.72H447.79L434.189 119zm-64.26 0h11.52V90.116l2.636 3.907L401.157 119h21.512V77.28h-11.52v40.324l-2.637-3.907-24.843-36.419h-13.74V119zm-58.708 0h13.601l-1.665-1.674c-3.054-3.489-4.997-8.233-4.997-13.535 0-5.303 1.943-10.047 4.997-13.535 3.053-3.489 7.355-5.721 12.213-5.721 4.719 0 9.021 2.232 12.214 5.72 3.053 3.49 4.996 8.233 4.996 13.536 0 5.302-1.943 10.046-4.996 13.535L345.918 119h13.602c2.498-4.465 4.024-9.628 4.024-15.21 0-8.092-3.192-15.488-8.327-20.79a26.14 26.14 0 00-7.772-5.72h-24.15a26.14 26.14 0 00-7.772 5.72c-5.135 5.302-8.327 12.698-8.327 20.79 0 5.582 1.526 10.745 4.025 15.21zm-34.42 0h1.249v-1.116c-.417.418-.833.697-1.25 1.116zm-34.143 0h13.324l-1.665-1.674c-3.054-3.489-4.858-8.233-4.858-13.535 0-5.303 1.804-10.047 4.858-13.535 3.053-3.489 7.356-5.721 12.074-5.721 1.666 0 3.331.279 4.997.837 1.11.419 2.22.977 3.33 1.535l6.385-7.954c-.833-.558-1.804-1.116-2.776-1.674h-23.871c-2.915 1.395-5.413 3.349-7.634 5.721-4.996 5.302-8.189 12.698-8.189 20.79 0 5.582 1.527 10.745 4.025 15.21zm-41.498 0h12.352v-10.465h18.321v-9.628h-18.321V84.674h20.403V77.14H201.16V119zm-48.438 0h10.687v-10.884h3.054l.416.698 5.968 10.046h11.52l-5.552-8.511-1.388-2.233 2.637-.14c6.107-.278 9.993-4.464 11.797-9.767.694-2.232 1.11-4.744 1.11-7.116s-.416-4.884-1.249-7.116c-1.11-2.791-2.775-5.303-5.135-6.977h-33.865v42zm-19.43 0h12.352V77.28h-12.352V119zm-38.861 0h28.174c.416-.837.694-1.535 1.11-2.372 1.666-4.047 2.36-8.372 2.36-12.837 0-6.977-1.943-13.954-5.968-19.256-5.135 4.744-13.324 12.977-19.986 23.72A61.044 61.044 0 0094.431 119z"></path><path fill="#406EC9" d="M163.41 102V82.605h8.743c4.303 0 6.94 2.79 8.189 6.279.416 1.256.694 2.65.694 4.186 0 1.395-.278 2.79-.694 4.186-1.11 3.488-3.886 6.279-8.189 6.279h-8.744V102zm-56.072-23.72H75v28.604c3.47-5.024 7.772-10.465 13.185-15.628 5.274-5.023 11.658-9.628 19.153-12.977zM491.648 120H504V78.279h-12.352V120zm-58.015 0h47.883l-13.601-41.72h-9.993l1.11 4.046 8.189 28.186.555 1.953h-20.264l.556-1.953 8.188-28.186 1.11-4.047h-9.992L433.634 120zm-63.704 0h11.52V89.442l2.636 3.907L402.267 120h20.402V78.28h-11.52v38.65l-2.637-3.907L384.78 78.28h-14.85V120zm-57.737 0h14.712c-1.388-.837-2.637-1.953-3.886-3.21-3.054-3.488-4.997-8.232-4.997-13.534 0-5.303 1.943-10.047 4.997-13.535C326.07 86.233 330.374 84 335.23 84c4.72 0 9.022 2.233 12.214 5.72 3.053 3.49 4.996 8.233 4.996 13.536 0 5.302-1.943 10.046-4.996 13.535-1.11 1.256-2.36 2.372-3.886 3.209h14.711c3.193-4.744 4.997-10.605 4.997-16.884 0-8.093-3.192-15.488-8.327-20.79-1.527-1.535-3.193-2.93-4.997-4.047h-29.84c-1.804 1.116-3.47 2.512-4.996 4.047-5.135 5.302-8.328 12.697-8.328 20.79.417 6.28 2.221 12.14 5.413 16.884zm-37.473 0h3.33v-2.79c-.97.976-2.081 1.953-3.33 2.79zm-31.09 0h14.574c-1.388-.837-2.637-1.953-3.747-3.349-3.054-3.488-4.858-8.232-4.858-13.535 0-5.302 1.804-10.046 4.858-13.535 3.053-3.488 7.355-5.72 12.074-5.72 1.666 0 3.331.279 4.997.837 1.11.418 2.22.976 3.33 1.535l6.246-7.954H251.68c-1.805 1.116-3.331 2.512-4.858 4.047-4.996 5.302-8.189 12.697-8.189 20.79 0 6.28 1.944 12.14 4.997 16.884zm-42.469 0h12.352v-12h18.321v-9.628h-18.321V84.14h20.403v-5.86H201.16V120zm-48.438 0h10.687v-12.558h3.054l.416.698 6.94 11.72h11.658l-6.662-10.186-1.388-2.232 2.637-.14c6.107-.279 9.993-4.465 11.797-9.767.694-2.233 1.11-4.744 1.11-7.116s-.416-4.884-1.249-7.117A15.907 15.907 0 00188.53 78h-35.808v42zm-19.43 0h12.352V78.28h-12.352V120zm-39.555 0h27.896c.694-1.256 1.388-2.651 1.944-4.047 1.665-4.046 2.359-8.372 2.359-12.837 0-6.976-1.943-13.953-5.968-19.256-5.135 4.745-13.324 12.977-19.986 23.721-2.36 3.907-4.441 7.954-6.245 12.419z"></path><path fill="#3B66C2" d="M163.719 100.326V80.93h8.774c4.318 0 6.964 2.79 8.217 6.28a13.16 13.16 0 01.697 4.185c0 1.396-.279 2.791-.697 4.186-1.114 3.489-3.9 6.28-8.217 6.28h-8.774v-1.535zm-59.61-22.186H75v26.93c3.482-5.023 7.8-10.465 13.231-15.628 4.596-4.186 9.75-8.093 15.878-11.302zm388.997 41.72H525v-.558h-19.638V78.14h-12.395v41.72h.139zm-58.635 0h11.699l.14-.418h25.347l.14.418h11.699l-13.788-41.72H459.68l.696 2.372 8.217 28.186.557 1.953h-20.334l.557-1.953 8.218-28.186.696-2.372h-10.028l-13.788 41.72zm-63.51 0h11.56V87.767l2.646 3.907L404.666 120h19.36V78.14h-11.56v36.976l-2.647-3.907-22.702-33.07h-16.156v41.721zm-56.685 0h17.13c-2.785-.976-5.292-2.65-7.38-4.883-3.065-3.489-5.015-8.233-5.015-13.535s1.95-10.047 5.014-13.535c3.064-3.488 7.382-5.721 12.256-5.721 4.736 0 9.053 2.233 12.257 5.721 3.064 3.488 5.014 8.233 5.014 13.535s-1.95 10.046-5.014 13.535c-1.95 2.232-4.457 4.046-7.382 4.883h17.13c3.9-5.023 6.268-11.441 6.268-18.418 0-8.093-3.203-15.489-8.356-20.79-.836-.838-1.81-1.675-2.646-2.512h-34.54c-.976.697-1.811 1.534-2.647 2.511-5.153 5.302-8.357 12.698-8.357 20.79 0 6.978 2.368 13.396 6.268 18.42zm-42.34 0h6.824v-4.465c-.974 1.117-2.089 2.093-3.342 2.791-1.114.837-2.229 1.395-3.482 1.674zm-26.462 0h16.852a17.144 17.144 0 01-7.242-4.883c-3.065-3.489-4.875-8.233-4.875-13.535s1.81-10.047 4.875-13.535c3.064-3.488 7.381-5.721 12.117-5.721 1.67 0 3.342.28 5.013.837 1.115.419 2.229.977 3.343 1.535l5.153-6.418h-30.5c-.975.697-1.81 1.534-2.646 2.511-5.014 5.302-8.218 12.698-8.218 20.79-.139 6.978 2.229 13.396 6.129 18.42zm-43.872 0h12.395v-13.674h18.385v-9.628h-18.385V82.326h20.474V78H201.6v41.86zm-48.608 0h10.725v-14.093h3.064l.418.698 7.938 13.395h11.839l-7.8-11.86-1.392-2.233 2.646-.14c6.128-.278 10.028-4.464 11.838-9.767.697-2.232 1.114-4.744 1.114-7.116s-.417-4.884-1.253-7.116c-.418-1.256-1.114-2.512-1.81-3.628h-37.327v41.86zm-19.498 0h12.395V78.14h-12.395v41.72zm-40.39 0h27.576c1.254-1.674 2.229-3.627 3.065-5.58 1.67-4.047 2.367-8.373 2.367-12.838 0-6.977-1.95-13.954-5.989-19.256-5.153 4.744-13.37 12.977-20.055 23.721-2.647 4.326-5.014 9.07-6.964 13.953z"></path><path fill="#3661BA" d="M336.281 84.512c4.736 0 9.053 2.232 12.257 5.72 3.064 3.489 5.014 8.233 5.014 13.535 0 5.303-1.95 10.047-5.014 13.535-3.064 3.489-7.382 5.721-12.257 5.721-4.735 0-9.053-2.232-12.256-5.72-3.064-3.489-5.014-8.233-5.014-13.536 0-5.302 1.95-10.046 5.014-13.534 3.064-3.489 7.382-5.721 12.256-5.721zm-172.562 18.14V83.255h8.774c4.318 0 6.964 2.79 8.217 6.279.418 1.256.697 2.651.697 4.186 0 1.395-.279 2.79-.697 4.186-1.114 3.488-3.9 6.279-8.217 6.279h-8.774v-1.535zM101.184 82.14H75v25.255c3.482-5.023 7.8-10.465 13.231-15.628 3.76-3.488 8.078-6.837 12.953-9.627zm391.922 41.72H525v-2.232h-19.638V82.14h-12.395v41.72h.139zm-59.192 0h11.838l.279-.976.278-1.117h25.348l.279 1.117.278.976h11.839l-13.788-41.72h-10.168l.279.697 8.217 28.186.557 1.954h-20.334l.557-1.954 8.218-28.186.278-.697h-10.306l-13.65 41.72zm-62.953 0h11.56V90.093L385.167 94l20.613 30h18.245V82.14h-11.56v35.441l-2.646-3.907L388.23 82.14h-17.27v41.72zm-55.292 0h41.225c4.736-5.302 7.66-12.279 7.66-20.093 0-8.093-3.203-15.488-8.356-20.79l-.836-.837h-38.161l-.836.837c-5.153 5.302-8.357 12.697-8.357 20.79 0 7.814 2.925 14.93 7.66 20.093zm-68.942 0h32.033v-6.14c-.974 1.117-2.089 2.094-3.342 2.792-2.507 1.535-5.293 2.372-8.217 2.372-4.736 0-9.053-2.233-12.117-5.721-3.065-3.489-4.875-8.233-4.875-13.535s1.81-10.047 4.875-13.535c3.064-3.488 7.381-5.72 12.117-5.72 1.67 0 3.342.278 5.013.836 1.115.419 2.229.977 3.343 1.535l3.9-4.744h-31.059l-.835.837c-5.014 5.303-8.218 12.698-8.218 20.79-.139 7.954 2.786 15.07 7.382 20.233zm-45.125 0h32.869v-1.116h-20.474v-14.232h18.385v-9.628h-18.385V84.65h20.474V82H201.6v41.86zm-48.608 0h10.725v-15.767h3.064l.418.698 8.774 15.07h11.978l-8.775-13.396-1.392-2.232 2.646-.14c6.128-.279 10.028-4.465 11.838-9.767.697-2.233 1.114-4.745 1.114-7.117s-.417-4.883-1.253-7.116c-.279-.698-.557-1.395-.836-1.953h-38.3v41.72zm-19.498 0h12.395V82.14h-12.395v41.72zm-40.947 0h26.88c1.81-2.093 3.203-4.604 4.318-7.255 1.67-4.047 2.367-8.372 2.367-12.838 0-6.976-1.95-13.953-5.989-19.255-5.153 4.744-13.37 12.976-20.055 23.72-2.925 4.745-5.571 10.047-7.521 15.628z"></path><path fill="#305CB5" d="M336.281 84.977c4.736 0 9.053 2.232 12.257 5.72 3.064 3.489 5.014 8.233 5.014 13.536 0 5.302-1.95 10.046-5.014 13.534-3.064 3.489-7.382 5.721-12.257 5.721-4.735 0-9.053-2.232-12.256-5.72-3.064-3.489-5.014-8.233-5.014-13.535 0-5.303 1.95-10.047 5.014-13.535 3.064-3.489 7.382-5.721 12.256-5.721zm-237.743-.698H75v23.581c3.482-5.023 7.8-10.465 13.231-15.627 3.064-2.791 6.546-5.582 10.307-7.954zM493.106 126H525v-3.767h-19.638V84.279h-12.395V126h.139zm-59.75 0h11.839l.696-2.512.279-1.116h25.348l.279 1.116.696 2.512h11.838l-13.788-41.72h-10.167l7.939 27.348.557 1.953h-20.056l.557-1.953 7.939-27.349h-10.167L433.357 126zm-62.395 0h11.56V90.558l2.646 3.907L406.894 126h17.131V84.28h-11.56v33.766l-2.646-3.907-20.474-29.86h-18.384V126zm-53.76 0h38.022c.278-.28.696-.558.975-.977 5.153-5.302 8.356-12.697 8.356-20.79 0-7.675-2.924-14.791-7.52-19.954h-41.365c-4.736 5.302-7.521 12.28-7.521 19.954 0 8.093 3.203 15.488 8.356 20.79.14.419.418.698.697.977zm-68.803 0h30.362v-7.674c-.974 1.116-2.089 2.093-3.342 2.79-2.507 1.535-5.293 2.372-8.217 2.372-4.736 0-9.053-2.232-12.117-5.72-3.065-3.489-4.875-8.233-4.875-13.535 0-5.303 1.81-10.047 4.875-13.535 3.064-3.489 7.381-5.721 12.117-5.721 1.67 0 3.342.279 5.013.837 1.115.419 2.229.977 3.343 1.535l2.507-3.21h-31.198c-4.596 5.303-7.381 12.28-7.381 19.954 0 8.093 3.064 15.488 8.217 20.79 0 .559.279.838.696 1.117zm-46.796 0h32.869v-2.651h-20.474v-14.233h18.385v-9.628h-18.385V85.256h20.474v-.977H201.6V126zm-48.608 0h10.725v-17.442h3.064l.418.698 9.888 16.604h11.978l-9.889-15.07-1.392-2.232 2.646-.14c6.128-.278 10.028-4.465 11.838-9.767.697-2.232 1.114-4.744 1.114-7.116s-.417-4.884-1.253-7.116c0-.14-.14-.28-.14-.419H175.28c2.646.977 4.456 3.21 5.292 5.86.418 1.256.696 2.652.696 4.187 0 1.395-.278 2.79-.696 4.186-1.114 3.488-3.9 6.279-8.217 6.279h-8.775V84.279h-10.724V126h.14zm-19.498 0h12.395V84.28h-12.395V126zm-41.504 0h26.044c2.507-2.512 4.457-5.581 5.71-8.93 1.672-4.047 2.368-8.372 2.368-12.837 0-6.977-1.95-13.954-5.989-19.256-5.153 4.744-13.37 12.976-20.055 23.72-3.204 5.163-6.128 11.024-8.078 17.303z"></path><path fill="#2B57AD" d="M96.03 84.28H75v22.046c3.482-5.024 7.8-10.466 13.231-15.628 2.368-2.233 5.014-4.465 7.8-6.419zm180.502 0h-4.457c1.114.418 2.229.976 3.204 1.534l1.253-1.535zM493.106 126H525v-5.442h-19.638V84.28h-12.395V126h.139zm-60.307 0h11.978l1.254-4.186.278-1.116h25.348l.279 1.116 1.253 4.186h11.978L471.38 84.28h-10.307l7.382 25.673.557 1.954h-20.195l.557-1.954 7.382-25.674h-10.307L432.8 126zm-61.838 0h11.56V88.884l2.646 3.907L408.008 126h15.878V84.28h-11.56v32.092l-2.646-3.907-19.22-28.186h-19.5V126zm-51.81 0h34.261c.975-.837 1.95-1.674 2.786-2.512 5.153-5.302 8.356-12.697 8.356-20.79a30.779 30.779 0 00-6.128-18.419h-16.852a17.594 17.594 0 017.103 4.884c3.064 3.488 5.014 8.232 5.014 13.535 0 5.302-1.95 10.046-5.014 13.535-3.064 3.488-7.382 5.72-12.256 5.72-4.736 0-9.053-2.232-12.257-5.72-3.064-3.489-5.014-8.233-5.014-13.535 0-5.303 1.95-10.047 5.014-13.535 1.95-2.233 4.318-3.907 7.103-4.884h-16.852c-3.9 5.023-6.128 11.442-6.128 18.419 0 8.093 3.203 15.488 8.356 20.79.558.838 1.532 1.675 2.507 2.512zm-68.942 0h28.551v-9.349c-.974 1.116-2.089 2.093-3.342 2.79-2.507 1.536-5.293 2.373-8.217 2.373-4.736 0-9.053-2.233-12.117-5.721-3.065-3.488-4.875-8.233-4.875-13.535s1.81-10.046 4.875-13.535c1.95-2.232 4.317-3.907 6.963-4.883h-16.713a30.779 30.779 0 00-6.128 18.418c0 8.093 3.064 15.489 8.217 20.79.836.978 1.811 1.815 2.786 2.652zm-48.607 0h32.869v-4.326h-20.474v-14.232h18.385v-9.628h-18.385V84.279h-12.395V126zm-48.608 0h10.725v-19.116h3.064l.418.697 10.863 18.28h12.117l-11.003-16.745-1.392-2.232 2.646-.14c6.128-.279 10.028-4.465 11.838-9.767.697-2.233 1.114-4.744 1.114-7.117a21.28 21.28 0 00-.835-5.86h-14.485c1.254 1.116 2.09 2.512 2.646 4.186.418 1.256.697 2.651.697 4.186 0 1.395-.279 2.79-.697 4.186-1.114 3.489-3.9 6.28-8.217 6.28h-8.774v-18.56h-10.725V126zm-19.498 0h12.395V84.28h-12.395V126zm-42.061 0h24.79c.14-.14.28-.14.418-.28 3.204-2.79 5.571-6.278 7.104-10.185 1.67-4.047 2.367-8.372 2.367-12.837 0-6.558-1.81-13.117-5.432-18.419h-1.67c-5.154 4.744-12.675 12.698-18.942 22.744-3.482 5.721-6.546 12-8.635 18.977z"></path><path fill="#2652A6" d="M93.802 87.14H75v20.372c3.482-5.024 7.8-10.465 13.231-15.628 1.81-1.535 3.621-3.21 5.571-4.744zm399.304 41.72H525v-7.116h-19.638V87.14h-12.395v41.721h.139zm-60.864 0h11.978l1.671-5.86.279-1.116h25.348l.279 1.116 1.671 5.86h11.978l-13.789-41.72h-10.306l6.964 24 .557 1.953h-20.056l.557-1.953 6.964-24h-10.306l-13.789 41.72zm-61.281 0h11.56V90.21l2.646 3.907L409.123 129h14.763V87.14h-11.56v30.418l-2.646-3.907-18.245-26.511H370.96v41.72zm-49.582 0h29.666c1.81-1.255 3.62-2.65 5.153-4.186 5.153-5.302 8.356-12.697 8.356-20.79 0-6.28-1.81-12-5.014-16.744h-14.763c1.393.837 2.646 1.953 3.76 3.209 3.065 3.488 5.015 8.232 5.015 13.535 0 5.302-1.95 10.046-5.014 13.535-3.064 3.488-7.382 5.72-12.257 5.72-4.735 0-9.053-2.232-12.256-5.72-3.064-3.489-5.014-8.233-5.014-13.535 0-5.303 1.95-10.047 5.014-13.535 1.114-1.256 2.368-2.372 3.76-3.21h-14.763c-3.203 4.745-5.014 10.466-5.014 16.745 0 8.093 3.204 15.488 8.357 20.79 1.393 1.675 3.203 3.07 5.014 4.186zm-68.942 0h26.323v-11.023c-.974 1.116-2.089 2.093-3.342 2.79-2.507 1.536-5.293 2.373-8.217 2.373-4.736 0-9.053-2.233-12.117-5.72-3.065-3.49-4.875-8.233-4.875-13.536 0-5.302 1.81-10.046 4.875-13.535 1.114-1.256 2.367-2.372 3.62-3.209H244.22c-3.064 4.744-5.014 10.465-5.014 16.744 0 8.093 3.064 15.489 8.217 20.79a20.698 20.698 0 005.014 4.326zm-50.835 0h32.869v-6h-20.474v-14.232h18.385V99h-18.385V87h-12.395v41.86zm-48.608 0h10.725v-20.65h3.064l.418.698 11.838 19.953h12.256l-11.977-18.418-1.393-2.233 2.646-.14c6.128-.278 10.028-4.464 11.838-9.767.697-2.232 1.115-4.744 1.115-7.116 0-1.395-.14-2.79-.418-4.186h-13.37c.556.837.974 1.674 1.253 2.512.418 1.255.696 2.65.696 4.186 0 1.395-.278 2.79-.696 4.186-1.114 3.488-3.9 6.279-8.217 6.279h-8.775V87.14h-10.724v41.72h-.279zm-19.498 0h12.395V87.14h-12.395v41.72zm-42.48 0h22.981c.975-.558 1.81-1.255 2.646-1.953 3.204-2.79 5.571-6.28 7.104-10.186 1.67-4.047 2.367-8.372 2.367-12.837 0-5.86-1.393-11.86-4.317-16.744h-4.457c-5.014 4.883-11.7 12.14-17.27 21.209-3.76 6.14-7.103 12.977-9.053 20.511z"></path><path fill="#214DA1" d="M91.852 90.14H75v18.76c3.482-5.04 7.8-10.5 13.231-15.68 1.114-.98 2.368-2.1 3.621-3.08zM493.106 132H525v-8.68h-19.638V90.14h-12.395V132h.139zm-61.42 0h12.116l2.09-7.56.278-1.12h25.348l.279 1.12 2.089 7.56h12.117l-13.51-41.86h-10.446l6.407 22.54.557 1.96h-20.195l.557-1.96 6.546-22.54h-10.445L431.685 132zm-60.725 0h11.56V91.54l2.646 3.92 25.07 36.54h13.649V90.14h-11.56v28.98l-2.646-3.92-16.992-25.06h-21.727V132zm-46.657 0h23.955c2.925-1.4 5.71-3.5 7.939-5.88 5.153-5.32 8.356-12.74 8.356-20.86 0-5.6-1.392-10.78-4.039-15.12h-13.51c.558.42 1.115.98 1.533 1.54 3.064 3.5 5.014 8.26 5.014 13.58s-1.95 10.08-5.014 13.58-7.382 5.74-12.257 5.74c-4.735 0-9.053-2.24-12.256-5.74-3.064-3.5-5.014-8.26-5.014-13.58s1.95-10.08 5.014-13.58c.557-.56.975-1.12 1.532-1.54h-13.51c-2.507 4.48-4.039 9.66-4.039 15.12 0 8.12 3.204 15.54 8.357 20.86 2.228 2.38 4.875 4.48 7.939 5.88zm-68.942 0h23.398v-12.74c-.974 1.12-2.089 2.1-3.342 2.8-2.507 1.54-5.293 2.38-8.217 2.38-4.736 0-9.053-2.24-12.117-5.74-3.065-3.5-4.875-8.26-4.875-13.58s1.81-10.08 4.875-13.58c.417-.56.974-1.12 1.532-1.54h-13.37c-2.508 4.48-3.9 9.66-3.9 15.12 0 8.12 3.063 15.54 8.217 20.86 2.089 2.52 4.735 4.62 7.8 6.02zm-53.76 0h32.869v-7.7h-20.474v-14.28h18.385v-9.66h-18.385V90.14h-12.395V132zm-48.608 0h10.725v-22.4h3.064l.418.7 12.813 21.56h12.256l-13.092-20.02-1.392-2.24 2.646-.14c6.128-.28 10.028-4.48 11.838-9.8.697-2.24 1.114-4.76 1.114-7.14 0-.84-.139-1.68-.139-2.52h-12.813c.139.28.278.56.278.84.418 1.26.697 2.66.697 4.2 0 1.4-.279 2.8-.697 4.2-1.114 3.5-3.9 6.3-8.217 6.3h-8.774v-15.4h-10.725V132zm-19.498 0h12.395V90.14h-12.395V132zm-42.897 0h20.195c2.089-.98 4.039-2.1 5.71-3.64 3.204-2.8 5.571-6.3 7.103-10.22 1.672-4.06 2.368-8.4 2.368-12.88 0-5.32-1.114-10.64-3.482-15.12h-6.964c-4.874 4.76-10.585 11.48-15.599 19.6-3.9 6.58-7.381 14.14-9.331 22.26z"></path><path fill="#1C4599" d="M89.903 90.14H75v17.22c3.482-5.04 7.8-10.5 13.231-15.68.557-.56 1.114-1.12 1.672-1.54zM493.106 132H525v-10.36h-19.638v-31.5h-12.395V132h.139zm-61.978 0h12.117l2.646-9.1.279-1.12h25.348l.279 1.12 2.646 9.1h12.117l-13.788-41.86h-10.446l5.989 20.86.557 1.96h-20.056l.557-1.96 5.99-20.86h-10.447L431.128 132zm-19.638 0h12.535V90.14h-11.56v27.3l-2.646-3.92-16.017-23.38H382.8l2.507 3.64L411.49 132zm-40.529 0h11.56V90.14h-11.56V132zm-42.48 0h15.46c4.736-1.4 8.914-4.06 12.257-7.56 5.153-5.32 8.356-12.74 8.356-20.86 0-4.9-1.114-9.52-3.064-13.44h-12.813c3.064 3.5 4.875 8.26 4.875 13.44 0 5.32-1.95 10.08-5.014 13.58s-7.382 5.74-12.257 5.74c-4.735 0-9.053-2.24-12.256-5.74-3.064-3.5-5.014-8.26-5.014-13.58s1.81-10.08 4.875-13.44h-12.814a31.178 31.178 0 00-3.064 13.44c0 8.12 3.204 15.54 8.357 20.86 3.203 3.5 7.52 6.16 12.117 7.56zm-69.08 0h15.32c1.393-.42 2.786-.98 4.04-1.54v-12.74c-.975 1.12-2.09 2.1-3.343 2.8-2.507 1.54-5.293 2.38-8.217 2.38-4.736 0-9.053-2.24-12.117-5.74-3.065-3.5-4.875-8.26-4.875-13.58s1.81-10.08 4.875-13.44h-12.675a31.178 31.178 0 00-3.064 13.44c0 8.12 3.064 15.54 8.218 20.86 3.203 3.5 7.242 6.16 11.838 7.56zm-57.8 0h32.87v-9.24h-20.474v-14.28h18.385v-9.66h-18.385v-8.68h-12.395V132zm-48.607 0h10.725v-24.08h3.064l.418.7 13.788 23.24h12.395l-14.206-21.56-1.392-2.24 2.646-.14c6.128-.28 10.028-4.48 11.838-9.8.697-2.24 1.114-4.76 1.114-7.14V90H180.99c.278 1.12.418 2.24.418 3.36 0 1.4-.279 2.8-.697 4.2-1.114 3.5-3.9 6.3-8.217 6.3h-8.775V90.14h-10.725V132zm-19.498 0h12.395V90.14h-12.395V132zm-43.176 0h15.181c4.457-.84 8.218-2.66 11.142-5.18 3.204-2.8 5.571-6.3 7.104-10.22 1.67-4.06 2.367-8.4 2.367-12.88 0-4.62-.835-9.38-2.646-13.58h-9.332c-4.456 4.62-9.61 10.78-14.066 17.92-4.318 7-7.94 15.12-9.75 23.94z"></path><path fill="#174091" d="M88.092 92H75v15c3.343-4.865 7.8-10.135 13.092-15zm36.072 0h-11.56c-4.039 4.324-8.495 9.595-12.534 15.81-4.318 6.893-8.078 14.73-9.889 23.514h10.306c6.686 0 12.117-2.027 16.156-5.405 3.204-2.703 5.571-6.081 7.104-9.865 1.67-3.919 2.367-8.108 2.367-12.432 0-4.054-.696-7.973-1.95-11.622zm21.727 0h-12.395v39.19h12.395V92zm47.354 0h-12.117c.14.54.14 1.081.14 1.757 0 1.351-.28 2.702-.697 4.054-1.114 3.378-3.9 6.08-8.217 6.08h-8.775V92.136h-10.724v39.19h10.724v-23.649h3.064l.418.675 14.067 22.838h12.396l-14.346-21.216-1.392-2.162 2.646-.135c6.128-.27 10.028-4.325 11.838-9.46.557-1.892.975-4.054.975-6.216zm20.613 0h-12.396v39.19h32.87v-9.325h-20.474V108.08h18.384v-9.324h-18.384V92zm39.833 0h-12.117c-1.532 3.514-2.368 7.432-2.368 11.486 0 7.838 3.064 15 8.217 20.136 5.014 5.135 11.978 8.243 19.638 8.243 2.229 0 4.318-.27 6.407-.81 1.81-.406 3.621-1.082 5.292-1.893v-12.297c-.974 1.08-2.089 2.027-3.342 2.703-2.507 1.486-5.293 2.297-8.217 2.297-4.736 0-9.053-2.162-12.117-5.54-3.065-3.38-4.875-7.974-4.875-13.109-.14-4.054 1.253-7.973 3.482-11.216zm108.356 0h-12.256c2.228 3.108 3.621 7.162 3.621 11.486 0 5.136-1.95 9.73-5.014 13.109-3.064 3.378-7.381 5.54-12.256 5.54-4.735 0-9.053-2.162-12.256-5.54-3.064-3.379-5.014-7.973-5.014-13.109 0-4.324 1.393-8.243 3.621-11.486h-12.256c-1.532 3.514-2.368 7.432-2.368 11.486 0 7.838 3.203 15 8.357 20.136 5.153 5.135 12.117 8.378 19.916 8.378a27.85 27.85 0 0019.916-8.378 28.413 28.413 0 008.357-20.136c0-4.054-.836-7.972-2.368-11.486zm20.613 0h-11.699v39.19h11.56V92h.14zm41.365 0h-11.56v24.73l-2.646-3.784L394.916 92h-11.002l1.392 1.892 26.463 37.297h12.256V92zm49.582 0h-10.585l5.571 18.514.557 1.891h-20.334l.557-1.891L454.944 92H444.36l-13.37 39.19h12.117l2.785-9.19.279-1.081h25.347l.279 1.081 2.785 9.19H486.7L473.607 92zm31.894 0h-12.395v39.19H525v-10.406h-19.638V92h.14z"></path><path fill="#123B8C" d="M86.42 94H75v13.944c3.064-4.507 6.825-9.296 11.42-13.944zm38.301 0h-13.649c-3.62 4.225-7.52 9.155-11.002 14.789-4.318 7.183-8.078 15.352-9.889 24.507h10.306c6.686 0 12.117-2.113 16.156-5.634 3.204-2.817 5.571-6.338 7.104-10.282 1.67-4.084 2.367-8.45 2.367-12.957 0-3.662-.418-7.043-1.393-10.423zm21.17 0h-12.395v39.296h12.395V94zm47.215 0h-11.839v.14c0 1.41-.278 2.818-.696 4.226-1.114 3.521-3.9 6.338-8.217 6.338h-8.775V94h-10.724v39.296h10.724v-24.649h3.064l.418.705 14.067 23.803h12.396l-14.346-22.113-1.392-2.253 2.646-.141c6.128-.282 10.028-4.507 11.838-9.86.418-1.408.697-3.098.836-4.788zm20.752 0h-12.396v39.296h32.87v-9.719h-20.474v-14.366h18.384v-9.718h-18.384V94zm38.858 0h-11.7c-1.113 3.24-1.67 6.62-1.67 10.282 0 8.169 3.063 15.633 8.217 20.986 5.014 5.352 11.977 8.591 19.638 8.591 2.228 0 4.317-.282 6.406-.845 1.81-.422 3.621-1.127 5.293-1.972v-12.817c-.975 1.127-2.09 2.113-3.343 2.817-2.507 1.55-5.292 2.395-8.217 2.395-4.736 0-9.053-2.254-12.117-5.775-3.064-3.521-4.875-8.31-4.875-13.662-.278-3.521.697-7.042 2.368-10zm110.028 0h-11.839c1.672 2.958 2.647 6.479 2.647 10.282 0 5.352-1.95 10.14-5.014 13.662-3.064 3.52-7.382 5.774-12.257 5.774-4.735 0-9.053-2.253-12.256-5.774-3.064-3.521-5.014-8.31-5.014-13.662 0-3.803.975-7.324 2.646-10.282H309.68c-1.115 3.24-1.81 6.62-1.81 10.282 0 8.169 3.202 15.633 8.356 20.986 5.153 5.352 12.117 8.732 19.916 8.732 7.8 0 14.903-3.38 19.916-8.732 5.154-5.353 8.357-12.817 8.357-20.986 0-3.521-.557-7.043-1.671-10.282zm19.916 0h-11.699v39.296h11.56V94h.14zm41.365 0h-11.56v24.225l-2.646-3.943L396.03 94h-11.003l.278.423 26.463 38.873h12.256V94zm50 0H463.44l5.014 17.606.557 1.971h-20.195l.557-1.971L454.387 94h-10.585l-12.813 39.296h12.117l2.785-9.578.279-1.126h25.348l.279 1.126 2.785 9.578H486.7L474.025 94zm31.476 0h-12.395v39.296H525V122.45h-19.638V94h.14z"></path><path fill="#0F3685" d="M84.75 95H75v12.794c2.646-4.118 5.989-8.53 9.75-12.794zm40.39 0h-15.46c-3.204 3.97-6.546 8.53-9.61 13.676-4.318 7.5-8.078 16.03-9.889 25.589h10.306c6.686 0 12.117-2.206 16.156-5.883 3.204-2.94 5.571-6.617 7.104-10.735 1.67-4.265 2.367-8.823 2.367-13.53 0-3.088-.278-6.176-.975-9.117zm20.751 0h-12.395v39.265h12.395V95zm47.076 0h-11.7c-.139.882-.278 1.912-.557 2.794-1.114 3.677-3.9 6.618-8.217 6.618h-8.774V95h-10.725v39.265h10.725v-25.736h3.064l.418.736 14.066 24.853h12.396l-14.485-23.089-1.392-2.353 2.646-.147c6.128-.294 10.028-4.705 11.838-10.294.279-1.03.418-2.059.697-3.235zm20.89 0h-12.395v39.265h32.87v-10.147h-20.474v-15h18.384V98.97h-18.384V95zm38.023 0h-11.42c-.836 2.794-1.254 5.882-1.254 8.97 0 8.53 3.064 16.324 8.217 21.912 5.014 5.589 11.978 8.97 19.638 8.97a23.28 23.28 0 006.407-.881c1.81-.442 3.621-1.177 5.292-2.06V118.53c-.974 1.177-2.089 2.206-3.342 2.942-2.507 1.617-5.293 2.5-8.217 2.5-4.736 0-9.053-2.353-12.117-6.03-3.065-3.676-4.875-8.676-4.875-14.265-.14-2.94.557-6.029 1.671-8.676zm111.42 0h-11.56a23.306 23.306 0 011.812 8.97c0 5.589-1.95 10.589-5.014 14.265-3.064 3.677-7.382 6.03-12.257 6.03-4.735 0-9.053-2.353-12.256-6.03-3.064-3.676-5.014-8.676-5.014-14.264 0-3.236.697-6.324 1.81-8.971h-11.56c-.835 2.794-1.253 5.882-1.253 8.97 0 8.53 3.204 16.324 8.357 21.912 5.153 5.589 12.117 9.118 19.916 9.118 7.8 0 14.903-3.53 19.917-9.118 5.153-5.588 8.356-13.382 8.356-21.911-.139-3.089-.557-6.177-1.253-8.971zm19.36 0h-11.699v39.265h11.56V95h.14zm41.365 0h-11.56v23.53l-2.646-4.118L397.145 95h-11.003l25.627 39.265h12.256V95zm50.557 0h-10.724l4.596 16.765.557 2.059h-20.195l.557-2.06L453.97 95h-10.585l-12.256 39.265h12.117l2.786-10 .278-1.177h25.347l.279 1.177 2.785 10h12.117L474.582 95zm30.92 0h-12.396v39.265H525V122.94h-19.638V95h.14z"></path><path fill="#0A307D" d="M83.217 97H75v10.483c2.368-3.449 5.014-7.035 8.217-10.483zm42.34 0h-17.27a95.774 95.774 0 00-8.217 11.31c-4.318 7.035-8.078 15.035-9.889 24h10.306c6.686 0 12.117-2.069 16.156-5.517 3.204-2.759 5.571-6.207 7.104-10.069 1.67-4 2.367-8.276 2.367-12.69 0-2.482-.14-4.827-.557-7.034zm20.334 0h-12.395v35.172h12.395V97zm46.658 0h-11.7c-.139.276-.139.69-.278.966-1.114 3.448-3.9 6.206-8.217 6.206h-8.775V97h-10.724v35.172h10.724v-24.138h3.064l.418.69 14.067 23.31h12.396l-14.346-21.655-1.392-2.207 2.646-.138c6.128-.275 10.028-4.413 11.838-9.655 0-.413.14-.965.279-1.379zm21.309 0h-12.396v35.172h32.87v-9.517h-20.474v-14.069h18.384V99.07h-18.384V97zm37.326 0h-11.142a28.345 28.345 0 00-.836 6.897c0 8 3.064 15.31 8.217 20.551 5.014 5.242 11.978 8.414 19.638 8.414a24.71 24.71 0 006.407-.828c1.81-.413 3.621-1.103 5.292-1.93v-12.552c-.974 1.103-2.089 2.069-3.342 2.758-2.507 1.518-5.293 2.345-8.217 2.345-4.736 0-9.053-2.207-12.117-5.655-3.065-3.448-4.875-8.138-4.875-13.38-.14-2.206.278-4.551.975-6.62zm112.535 0h-11.421a21.71 21.71 0 011.114 6.897c0 5.24-1.95 9.93-5.014 13.379-3.064 3.448-7.381 5.655-12.256 5.655-4.735 0-9.053-2.207-12.256-5.655-3.064-3.448-5.014-8.138-5.014-13.38 0-2.344.418-4.69 1.114-6.896h-11.42a28.345 28.345 0 00-.836 6.897c0 8 3.203 15.31 8.356 20.551 5.154 5.242 12.117 8.552 19.917 8.552 7.8 0 14.902-3.31 19.916-8.552 5.153-5.241 8.357-12.551 8.357-20.551.139-2.483 0-4.69-.557-6.897zm18.941 0h-11.699v35.172h11.56V97h.14zm41.365 0h-11.56v20.414l-2.646-3.862L398.259 97h-11.003l24.513 35.172h12.256V97zm51.114 0h-10.724l4.178 14.069.557 1.931h-20.334l.557-1.931L453.552 97h-10.725l-11.699 35.172h12.117l2.786-9.379.278-1.103h25.348l.279 1.103 2.785 9.38h12.117L475.14 97zm30.362 0h-12.395v35.172H525v-10.62h-19.638V97h.14z"></path><path fill="#052B78" d="M81.825 98H75v8.739c1.95-2.731 4.178-5.735 6.825-8.739zm44.01 0h-18.94a84.581 84.581 0 00-6.825 9.558c-4.318 6.964-8.078 14.884-9.889 23.76h10.306c6.686 0 12.117-2.049 16.156-5.463 3.204-2.73 5.571-6.144 7.104-9.967 1.67-3.96 2.367-8.193 2.367-12.563 0-1.775-.14-3.55-.278-5.325zm20.056 0h-12.395v33.18h12.395V98zm46.24 0h-11.839c-1.253 3.14-3.9 5.462-7.938 5.462h-8.775V98h-10.724v33.18h10.724v-23.758h3.064l.418.682 14.067 23.077h12.396l-14.346-21.438-1.392-2.185 2.646-.136c5.989-.137 9.888-4.233 11.699-9.422zm21.727 0h-12.396v33.18h32.87v-9.421h-20.474v-13.928h18.384V98.41h-18.384V98zm36.908 0h-11.003a31.342 31.342 0 00-.418 5.189c0 7.92 3.064 15.156 8.218 20.345 5.014 5.189 11.977 8.33 19.638 8.33a24.96 24.96 0 006.406-.82c1.81-.41 3.621-1.092 5.293-1.911v-12.426c-.975 1.092-2.09 2.048-3.343 2.73-2.507 1.503-5.292 2.322-8.217 2.322-4.736 0-9.053-2.185-12.117-5.598-3.064-3.414-4.875-8.057-4.875-13.245-.278-1.502 0-3.277.418-4.916zm113.231 0h-11.142c.418 1.639.697 3.414.697 5.189 0 5.189-1.95 9.831-5.014 13.245-3.064 3.413-7.382 5.598-12.257 5.598-4.735 0-9.053-2.185-12.256-5.598-3.064-3.414-5.014-8.056-5.014-13.245 0-1.775.279-3.55.697-5.189h-11.282a31.342 31.342 0 00-.418 5.189 28.86 28.86 0 008.357 20.345c5.153 5.189 12.117 8.466 19.916 8.466 7.8 0 14.903-3.277 19.917-8.466a28.86 28.86 0 008.356-20.345c-.139-1.775-.278-3.414-.557-5.189zm18.663 0h-11.699v33.18h11.56V98h.14zm41.365 0h-11.56v18.57l-2.646-3.823L399.373 98H388.37l23.26 33.18h12.256V98h.14zm51.671 0h-10.863l3.621 12.29.557 1.91h-20.195l.557-1.91L452.994 98h-10.863l-11.142 33.18h12.117l2.785-9.284.279-1.093h25.348l.279 1.093 2.785 9.285H486.7L475.696 98zm29.805 0h-12.395v33.18H525v-10.513h-19.638V98h.14z"></path><path fill="#002670" d="M80.432 101H75v7.24c1.532-2.367 3.343-4.734 5.432-7.24zm45.543 0H105.64c-1.95 2.506-3.76 5.152-5.571 8.076-4.318 7.101-8.078 15.177-9.889 24.228h10.306c6.686 0 12.117-2.089 16.156-5.57 3.204-2.785 5.571-6.266 7.104-10.164 1.67-4.038 2.367-8.355 2.367-12.81 0-1.254 0-2.507-.14-3.76zm19.916 0h-12.395v32.304h12.395V101zm45.544 0h-11.978c-1.393 2.367-3.9 3.899-7.103 3.899h-8.775V101h-10.724v32.304h10.724v-24.367h3.064l.418.696 14.067 23.532h12.396l-14.346-21.861-1.392-2.228 2.646-.14c5.292-.139 9.053-3.48 11.003-7.936zm40.807 0h-30.78v32.304h32.87v-9.608h-20.474v-14.202h18.384V101zm18.106 0h-11.003c-.139 1.253-.278 2.367-.278 3.62 0 8.076 3.064 15.456 8.217 20.747 5.014 5.291 11.978 8.494 19.638 8.494 2.228 0 4.318-.279 6.407-.836 1.81-.417 3.62-1.114 5.292-1.95v-12.67c-.975 1.114-2.089 2.089-3.342 2.785-2.507 1.532-5.293 2.367-8.218 2.367-4.735 0-9.053-2.228-12.117-5.709-3.064-3.48-4.874-8.215-4.874-13.506 0-.975.139-2.089.278-3.342zm113.928 0h-11.142c.139 1.114.278 2.367.278 3.62 0 5.291-1.95 10.026-5.014 13.507-3.064 3.48-7.381 5.708-12.256 5.708-4.735 0-9.053-2.227-12.256-5.708-3.064-3.481-5.014-8.216-5.014-13.507 0-1.253.14-2.506.278-3.62h-11.142c-.139 1.253-.278 2.367-.278 3.62 0 8.076 3.203 15.456 8.356 20.747 5.154 5.291 12.117 8.633 19.917 8.633 7.8 0 14.902-3.342 19.916-8.633 5.153-5.291 8.357-12.67 8.357-20.747a15.765 15.765 0 000-3.62zm18.384 0h-11.699v32.304h11.56V101h.14zm41.365 0h-11.56v17.405l-2.646-3.899L400.487 101h-11.002l22.145 32.304h12.256V101h.14zm52.228 0H465.39l3.203 11 .557 1.95h-20.334l.557-1.95 3.204-11h-10.864l-10.585 32.304h12.117l2.786-9.469.278-1.113h25.348l.279 1.113 2.785 9.469h12.117L476.253 101zm29.248 0h-12.395v32.304H525v-10.722h-19.638V101h.14z"></path><path fill="#FCC" d="M85 104.028L91.205 110c.944-1.858 2.023-3.583 3.102-5.308C100.917 94.474 108.74 86.512 114 82c-7.958 2.92-14.567 7.431-20.098 12.474-3.372 3.052-6.34 6.37-8.902 9.554"></path><path fill="#900" d="M96 103.317L90.39 98c-7.335 7.556-12.37 15.67-15.39 21.407V132h8.486c2.014-10.074 6.33-19.169 11.363-27.004.432-.56.72-1.12 1.151-1.68"></path><path fill="#FFC2C2" d="M85 104.028L91.176 110c.94-1.858 2.014-3.583 3.222-5.308C100.977 94.474 108.764 86.512 114 82c-8.056 2.787-14.634 7.299-20.139 12.341-3.356 3.052-6.31 6.37-8.861 9.687"></path><path fill="#FFBABA" d="M85 104.057L91.176 110c1.074-1.85 2.148-3.698 3.222-5.415C100.977 94.415 108.764 86.49 114 82c-7.921 2.906-14.5 7.396-20.005 12.415-3.49 3.038-6.444 6.34-8.995 9.642"></path><path fill="#FFB0B0" d="M85 104.085L91.176 110l3.222-5.521C100.977 94.357 108.764 86.469 114 82c-7.921 2.892-14.5 7.362-20.005 12.357-3.49 3.023-6.444 6.441-8.995 9.728"></path><path fill="#FFA6A6" d="M84 104.085L90.176 110a102.742 102.742 0 013.222-5.521C99.977 94.357 107.764 86.469 113 82c-7.787 2.892-14.366 7.362-19.87 12.357-3.491 3.155-6.445 6.441-9.13 9.728"></path><path fill="#FF9C9C" d="M84 103.981L90.147 110c1.07-1.963 2.139-3.794 3.341-5.626C100.037 94.299 107.788 86.449 113 82c-7.885 2.748-14.433 7.196-19.912 12.168-3.475 3.14-6.549 6.411-9.088 9.813"></path><path fill="#FF9191" d="M84 103.981L90.205 110c1.079-1.963 2.158-3.794 3.372-5.626C100.05 94.43 107.74 86.84 113 82.262l-.135-.262c-7.688 2.879-14.298 7.196-19.693 12.168A77.264 77.264 0 0084 103.981"></path><path fill="#FF8787" d="M84 103.867L90.444 110c1.121-2 2.382-4 3.503-5.867 6.304-9.466 13.73-16.933 19.053-21.6l-.56-.533a62.633 62.633 0 00-18.913 11.733A93.15 93.15 0 0084 103.867"></path><path fill="#FF7D7D" d="M84 104.748L90.781 111c1.154-2.039 2.453-4.078 3.751-6.117 6.06-8.97 13.13-16.174 18.468-21.067L111.99 83c-6.925 2.854-12.985 6.932-18.035 11.417A67.402 67.402 0 0084 104.747"></path><path fill="#FF7575" d="M84 105.624L91.026 112c1.196-2.218 2.541-4.297 3.886-6.238 5.83-8.594 12.557-15.524 18.088-20.514L111.655 84c-6.578 2.91-12.258 6.792-17.191 10.95-4.186 3.327-7.624 7.07-10.464 10.674"></path><path fill="#FF6B6B" d="M84 105.495L90.317 112c1.075-2.263 2.285-4.384 3.495-6.505C98.65 97.293 104.296 90.646 109 85.697L107.387 84c-5.376 2.828-9.946 6.505-14.113 10.465-3.494 3.676-6.586 7.353-9.274 11.03"></path><path fill="#FF6161" d="M84 104.565L90.267 111c1.066-2.238 2.266-4.477 3.6-6.435 4.533-7.555 9.6-13.85 14.133-18.606L106.133 84c-4.8 2.658-8.933 6.016-12.666 9.653-3.734 3.497-6.8 7.135-9.467 10.912"></path><path fill="#FF5757" d="M84 105.394L90.558 112c1.116-2.298 2.512-4.596 3.768-6.75 4.325-7.18 9.348-13.213 13.674-17.952L105.767 85c-4.465 2.585-8.372 5.745-11.86 9.048-3.767 3.734-7.116 7.612-9.907 11.346"></path><path fill="#FF4F4F" d="M84 105.75l6.552 6.25 3.763-6.522c4.043-6.25 8.643-11.685 12.685-16.032L104.49 87c-3.902 2.31-7.387 5.027-10.593 7.88-3.764 3.533-7.11 7.202-9.897 10.87"></path><path fill="#FF4545" d="M84 107.54l6.503 6.46c1.245-2.388 2.49-4.635 3.874-6.742A119.83 119.83 0 01106 91.81L103.233 89c-3.321 2.247-6.503 4.635-9.27 7.303-4.013 3.652-7.196 7.585-9.963 11.236"></path><path fill="#FF3B3B" d="M84 107.48l6.493 6.52c1.244-2.358 2.487-4.578 3.869-6.798 3.316-5.41 7.046-10.127 10.638-14.15L101.96 90c-2.9 1.942-5.526 4.162-8.013 6.382-3.868 3.468-7.184 7.352-9.947 11.098"></path><path fill="#FF3030" d="M84 106.527L90.807 113c1.303-2.341 2.607-4.683 4.055-6.749 3.186-4.82 6.807-9.227 10.138-12.946L101.524 90c-2.607 1.79-4.924 3.58-7.096 5.509-4.056 3.443-7.531 7.3-10.428 11.018"></path><path fill="#FF2626" d="M84 106.327L90.424 113a116.89 116.89 0 013.964-7.099c2.734-4.543 5.741-8.66 8.612-12.21L99.446 90c-1.914 1.562-3.827 3.123-5.468 4.827-3.827 3.692-7.107 7.667-9.978 11.5"></path><path fill="#FF1C1C" d="M84 105.372L90.41 112c1.226-2.538 2.59-4.795 3.954-7.192 2.454-3.949 5.045-7.757 7.636-11L98.182 90c-1.5 1.27-3 2.538-4.364 3.808-3.682 3.807-7.09 7.756-9.818 11.564"></path><path fill="#FF1212" d="M84 106.42l6.714 6.58c1.286-2.52 2.715-4.9 4.143-7.14 2.286-3.5 4.714-6.72 7.143-9.8L97.857 92l-3.428 2.94c-4 3.64-7.572 7.56-10.429 11.48"></path><path fill="#FF0A0A" d="M84 108.146L91.05 115c1.35-2.625 2.85-5.104 4.5-7.583 2.1-3.209 4.2-6.125 6.45-8.896L97.35 94c-.75.73-1.65 1.313-2.4 2.042-4.2 3.937-7.8 8.166-10.95 12.104"></path><path fill="#9E0000" d="M96 103.273L90.466 98c-7.378 7.633-12.344 15.82-15.466 21.51V132h8.372c1.986-9.992 6.243-19.012 11.21-26.784.567-.694.992-1.387 1.418-1.943"></path><path fill="#A30000" d="M96 103.23L90.608 98C83.23 105.57 77.98 113.83 75 119.611V132h8.372c1.986-9.91 6.243-18.858 11.21-26.567.567-.826.992-1.514 1.418-2.202"></path><path fill="#A80000" d="M96 103.052L90.68 98c-7.42 7.647-12.6 15.84-15.68 21.71V132h8.26c1.96-9.831 6.16-18.707 11.06-26.353.56-.956 1.12-1.776 1.68-2.595"></path><path fill="#AB0000" d="M96 103.032L90.75 98c-7.46 7.616-12.572 15.912-15.75 21.76V132h8.151c1.935-9.792 6.08-18.632 10.915-26.248.69-.952 1.381-1.904 1.934-2.72"></path><path fill="#B00000" d="M96 102.992L90.888 98C83.29 105.556 78.04 114.056 75 119.857V132h8.151c1.935-9.714 6.08-18.484 10.915-26.04.69-1.079 1.381-2.023 1.934-2.968"></path><path fill="#B50000" d="M96 102.098L90.955 97c-7.637 7.854-12.819 16.535-15.955 22.598V132h8.045c1.91-9.921 6-18.878 10.773-26.594.682-1.24 1.364-2.205 2.182-3.308"></path><path fill="#BA0000" d="M75.141 131.04l.987.96h7.334c1.974-9.882 6.205-18.804 11.14-26.49.847-1.235 1.552-2.334 2.398-3.569L91.782 97c-8.038 7.824-13.538 16.608-16.782 22.647v11.392h.141z"></path><path fill="#BF0000" d="M75 128.732L78.385 132h4.936c1.974-9.805 6.205-18.658 11.14-26.284.847-1.362 1.693-2.588 2.539-3.813L91.923 97c-8.18 7.899-13.68 16.615-16.923 22.743v8.989z"></path><path fill="#C40000" d="M75 127.301L80.848 133h2.367c1.95-10.008 6.127-19.042 11-26.826.836-1.39 1.81-2.78 2.785-4.17L91.987 97c-8.215 8.062-13.784 17.236-16.987 23.49v6.811z"></path><path fill="#C90000" d="M75.138 124.83L83.25 133c1.925-9.97 6.05-18.97 10.863-26.723.962-1.523 1.924-2.908 2.887-4.43L92.05 97C83.8 105.17 78.3 114.308 75 120.538v4.293h.137z"></path><path fill="#CF0000" d="M75 121.5l8.472 8.5c2.05-9.048 5.876-17.411 10.385-24.54.957-1.645 2.05-3.154 3.143-4.662L92.08 96c-8.198 8.089-13.8 17.274-17.08 23.58v1.92z"></path><path fill="#D40000" d="M75 120.05l8.745 8.95c2.05-8.53 5.74-16.22 9.975-23.072l3.28-5.034L92.217 96C83.882 104.25 78.28 113.619 75 120.05"></path><path fill="#D90000" d="M76 117.757L84.744 126c2.256-7.568 5.782-14.46 9.73-20.405 1.129-1.757 2.398-3.514 3.526-5L93.064 96c-7.897 7.162-13.538 15.54-17.064 21.757"></path><path fill="#DE0000" d="M76 115.17l8.29 7.83c2.21-6.635 5.388-12.872 8.98-18.313A87.393 87.393 0 0197 99.512L92.164 95c-7.322 6.635-12.572 14.2-16.164 20.17"></path><path fill="#E30000" d="M78 115.02l8.286 7.98c2.285-6.3 5.285-12.18 8.714-17.5 1.286-1.96 2.714-3.92 4-5.74L94.143 95C86.857 101.58 81.57 109 78 115.02"></path><path fill="#E80000" d="M80 114.143L88.282 122c2.218-5.857 5.176-11.143 8.281-16 1.48-2.143 2.81-4.286 4.437-6.143L95.972 95c-6.95 6.143-12.127 13.143-15.972 19.143"></path><path fill="#ED0000" d="M80 112.416L87.544 120c1.956-5.056 4.47-9.691 7.125-14.045 1.397-2.247 2.794-4.354 4.331-6.32L94.25 95c-6.007 5.618-10.757 11.798-14.25 17.416"></path><path fill="#F00000" d="M80 110.571L87.2 118c1.8-4.429 4.015-8.714 6.37-12.571 1.384-2.429 2.907-4.572 4.43-6.715L93.57 94l-.278.429c-5.538 5.142-9.83 11-13.292 16.142"></path><path fill="#F50000" d="M80 109.038L87.286 116c1.714-3.76 3.714-7.24 5.857-10.582 1.571-2.367 3.143-4.734 4.857-6.823L93.286 94l-.572.557c-5.143 4.734-9.285 9.747-12.714 14.481"></path><path fill="#FA0000" d="M81 108l7.35 7c1.65-3.143 3.45-6.286 5.4-9.143 1.65-2.571 3.45-5 5.25-7.286L94.05 94c-.3.286-.6.571-.9.714A89.886 89.886 0 0081 108"></path><path fill="red" d="M84 106.482L91.421 113c1.421-2.496 3-4.993 4.737-7.212a99.26 99.26 0 015.842-7.35L96.947 94c-.473.277-.79.693-1.263.97-4.579 3.607-8.368 7.629-11.684 11.512"></path><path fill="#FCC" d="M286.592 98h12.816v-8.979H302L292.928 77 284 89.02h2.592v1.594z"></path><path fill="#FFC2C2" d="M286.592 98h12.816v-8.638H302L292.928 77 284 89.362h2.592V91z"></path><path fill="#FFBABA" d="M286.592 96h12.816v-7.489H302L292.928 77 284 88.51h2.592v1.526z"></path><path fill="#FFB0B0" d="M286.592 94l12.816-.127V87.53H302L292.928 77 284 87.53h2.592v1.395z"></path><path fill="#FFA6A6" d="M286.592 94l12.816-.13v-6.016H302L292.928 77 284 87.854h2.592v1.438z"></path><path fill="#FF9C9C" d="M286.592 94l12.816-.135v-5.667H302L292.928 77 284 88.198h2.592v1.485z"></path><path fill="#FF9191" d="M286.592 94h12.816v-5.434H302L292.928 77 284 88.566h2.592v1.532z"></path><path fill="#FF8787" d="M286.592 94h12.816v-5.042H302L292.928 77 284 88.958h2.592v1.584z"></path><path fill="#FF7D7D" d="M286.592 94h12.816v-4.622H302L292.928 77 284 89.377h2.592v1.64z"></path><path fill="#FF7575" d="M286.592 94h12.816v-4.173H302L292.928 77 284 89.827h2.592v1.7z"></path><path fill="#FF6B6B" d="M286.592 93h12.816v-3.471H302L292.928 77 284 89.528h2.592v1.66z"></path><path fill="#FF6161" d="M286.592 93l12.816-.155v-2.952H302L292.928 77 284 89.893h2.592v1.709z"></path><path fill="#FF5757" d="M286.592 91l12.816-.141v-2.122H302L292.928 77 284 88.737h2.592v1.556z"></path><path fill="#FF4F4F" d="M286.592 89h12.816v-1.582H302L293.504 77h-1.008L284 87.418h2.592v1.45z"></path><path fill="#FF4545" d="M286.592 89h12.816v-1.1H302l-7.776-9.9h-2.448L284 87.9h2.592z"></path><path fill="#FF3B3B" d="M286.592 88h12.816v-.571H302L294.944 78l-3.888.143L284 87.429h2.592z"></path><path fill="#FF3030" d="M284 85h18l-6.336-7h-5.328z"></path><path fill="#FF2626" d="M284 83h18l-5.445-5h-7.11z"></path><path fill="#FF1C1C" d="M285 85h18l-4.46-5h-9.08z"></path><path fill="#FF1212" d="M285 86l16-.148L298.01 82h-10.02z"></path><path fill="#FF0A0A" d="M285 86h16l-1.882-2h-12.236z"></path><path fill="red" d="M285 85h13l-.542-1h-11.916z"></path><path fill="#F20305" d="M286.592 87h12.816v-.222H302L300.272 85h-14.544L284 86.778h2.592z"></path><path fill="#E8050A" d="M286.592 92h12.816v-3.71H302l-.864-1.29h-16.272L284 88.29h2.592v1.775z"></path><path fill="#DB050F" d="M287 94h12v-5h-12v1.25z"></path><path fill="#CF0814" d="M287 97h12v-7h-12v.25z"></path><path fill="#C20A1C" d="M287 100h12V90h-12z"></path><path fill="#B50A21" d="M287 101h12V90h-12z"></path><path fill="#AB0D26" d="M287 104h12V92h-12z"></path><path fill="#9E0D2B" d="M287 110h12V94h-12z"></path><path fill="#910F30" d="M287 112h12V95h-12z"></path><path fill="#871236" d="M287 113h12V96h-12z"></path><path fill="#78123B" d="M287 118h12V97h-12z"></path><path fill="#6E1440" d="M287 120h12V98l-12 .14z"></path><path fill="#611745" d="M287 124l12-.14V100l-12 .14z"></path><path fill="#541A4A" d="M287 126l12-.136V101h-12z"></path><path fill="#4A1A4F" d="M287 129l12-.142V101l-12 .142z"></path><path fill="#3D1C54" d="M287 129l12-.133V101l-12 .133z"></path><path fill="#301F5C" d="M299 103h-12v28h12z"></path><path fill="#242161" d="M299 104l-12 .143V132h12z"></path><path fill="#172166" d="M299 107l-12 .144V134h12z"></path><path fill="#0D246B" d="M299 107h-12v25h12z"></path><path fill="#002670" d="M299 108l-12 .14V132h12z"></path></g></svg>