<svg xmlns="http://www.w3.org/2000/svg" viewBox="0.6511393785476685 0.9272496700286865 1023.4619140625 411.87713623046875"><g fill="none"><path fill="#F9B519" d="M63.95 121.05c2.55-6.24 7.05-11.27 11-16.57 21.23-28.79 42.79-57.34 64.18-86 3.54-4.74 7-9.59 10.18-14.55 2.87-4.42 5-3.63 7.66.22 8 11.84 16 23.68 24.22 35.35 11.54 16.34 23.4 32.43 34.92 48.78 22.17 31.46 48.43 59.95 68.06 93.24 17.52 29.75 23.84 61.85 19.74 96.15-1.15 9.6-2.41 19.1-5.66 28.25-1.06 3-1.54 6.39-5.24 7.54-1.53-2.52-3.51-4.62-4.35-7.67-4.77-17.29-14.83-31.57-26.42-44.86-19.37-22.17-44.7-34.14-72.62-40.34-15-3.32-29.93-1.44-42.51 9.55-19.14 16.72-21.7 48.32-.81 68.26-1.92 2.4-4.05 1.08-6 .21-11.51-5.06-23-10.55-32.47-18.74-21.23-18.41-37.41-40.48-45.3-68-4.19-14.6-5.5-29.74-5.13-44.56.33-13 2.77-26.42 8.46-38.7 1.33-2.92 3.18-6.15-1.91-7.56z"></path><path fill="#F38B2A" d="M63.95 121.05c5.09 1.41 3.24 4.64 1.88 7.57-5.69 12.28-8.13 25.67-8.46 38.7-.37 14.82.94 30 5.13 44.56 7.89 27.5 24.07 49.57 45.3 68 9.45 8.19 21 13.68 32.47 18.74 2 .87 4.11 2.19 6-.21 13.44 13.18 30.27 15.18 46.51 9.61s26.79-18.75 29.84-37.26c4.54 6.82 3.16 13.67 4 20.18 2.87 21.24-1.93 41.12-10.37 60.25a124.12 124.12 0 01-46.6 55.06c-2.45 1.59-4.49 3-4.21 6.28-39.94 2.19-76.06-8.7-107.17-33.68-31.5-25.29-50.33-58.3-56.05-98.71-5.46-38.52 3.52-73.53 24-106 10.14-16.11 21-31.77 32.19-47.15 1.62-2.24 2.94-4.69 5.54-5.94z"></path><path fill="#454545" d="M383.54 145.99c0-17.09-.06-34.18 0-51.27.06-10 4.92-16.45 14.08-16.77 16.06-.55 32.21-1.31 48.23.35 34.5 3.6 51.23 27.95 54 58.82 1.6 18-.22 35.82-10.63 51.39-11.27 16.88-27.79 24.83-47.78 25.45-13.61.42-27.25.2-40.87.07-11.88-.12-17-5.43-17-17.51-.03-16.85-.03-33.69-.03-50.53zM430 190.07c22 0 32.7-6.58 37.58-24.8 3.84-14.32 3.74-28.93-2-42.9-4.39-10.68-12.25-17.58-23.83-20.22-6.88-1.56-13.77-.83-20.64-1.31-5.65-.4-7.18 1.87-7.12 7.28.24 22 .1 44 .1 66 .01 15.94.01 15.94 15.93 15.95H430z"></path><path fill="#D24528" d="M165.48 412.53c-.28-3.23 1.76-4.69 4.21-6.28a124.12 124.12 0 0046.6-55.06c8.44-19.13 13.24-39 10.37-60.25-.88-6.51.5-13.36-4-20.18-3.05 18.51-13.48 31.69-29.84 37.26-16.36 5.57-33.07 3.59-46.48-9.63-20.89-19.94-18.33-51.54.81-68.26 12.58-11 27.52-12.87 42.51-9.55 27.95 6.21 53.25 18.18 72.57 40.34 11.59 13.29 21.65 27.57 26.42 44.86.84 3.05 2.82 5.15 4.35 7.67 1.57 10.85-4.86 19-10 27.19-23.09 36.82-56.59 59.22-98.61 69.16-6.19 1.46-12.61 1.85-18.91 2.73zm-30.33-148.64c-2 23.64 19.4 44.47 43 43.65 22.39-.78 40.47-19.18 41.39-43 .83-21.31-19.49-42.25-41.32-42.71-24.84-.56-45.46 22.98-43.07 42.06z"></path><path fill="#454545" d="M774.59 171.14c0-11.89-.14-23.78 0-35.67.16-10.85 3.18-15.87 13.44-18.62 18-4.82 36.3-8.41 54.15 1.1 2.73 1.45 5.14.51 7.77-.5 14-5.31 28.3-7.38 42.77-2.74 13.47 4.33 20.62 15 20.87 30.89.33 20.81 0 41.62.15 62.42 0 4.41-1.4 6-6 6.13-20 .53-20 .67-20-19.41 0-14.37-.11-28.74 0-43.1.07-6.7-1.56-12.28-8-15.42-7.49-3.63-14.56-.59-21.55 1.74-2.25.75-1.42 3.39-1.41 5.3.1 21.3.05 42.6.42 63.9.11 5.68-1.89 7.16-7.33 7.06-18.59-.36-18.59-.18-18.59-18.95 0-14.36.07-28.73 0-43.1 0-6 0-12.07-6.39-15.49-7.33-3.9-14.5-1.8-21.56.63-3.06 1.05-2 4.2-2 6.53-.06 20.8-.29 41.62.13 62.42.13 6.43-2.11 7.94-8.06 7.91-18.76-.09-18.77.11-18.77-18.51-.02-8.173-.033-16.347-.04-24.52zm-153.85-1.55c0-12.14.13-24.29-.05-36.43-.1-7.35 2.85-12.47 9.84-14.83 19.13-6.47 38.33-10.07 57.58-.42 2.76 1.38 5.13.5 7.78-.51 14-5.34 28.27-7.33 42.79-2.72 13.47 4.27 20 14.65 20.49 28 .72 21.78.16 43.61.29 65.42 0 4.42-1.46 6-6.07 6-19.63.31-19.64.46-19.66-19.3 0-14.12.1-28.25-.05-42.38-.06-6.22-.37-12.47-7.1-15.94-7.74-4-15-1-22.28 1.33-2.75.89-1.84 3.7-1.83 5.85.08 21.06 0 42.13.36 63.19.09 5.44-1.48 7.4-7.15 7.31-17.94-.28-17.95-.08-18-17.95 0-14.13.09-28.25 0-42.38-.12-17.16-12.93-24.67-28.38-16.93-3.43 1.72-2.55 4.47-2.56 7-.06 20.57-.24 41.14.13 61.7.11 6.3-1.28 8.71-8.13 8.57-18-.37-18 0-18-17.87v-26.77.06zm-110.59-5.78c-.2-19.24 5.09-36 23.19-45.63 22.7-12.09 58.51-7.62 70 19 7.36 17.13 7.56 34.87.42 52-8.25 19.79-32.46 30.73-54.67 25.79-27.28-6.02-38.82-21.22-38.94-51.16zm71.86 1.1c.15-7-.3-13.89-3.44-20.31-4.06-8.28-10.44-12.82-20-12.65-9.25.16-15.44 4.59-18.93 12.9-4.6 10.94-4.2 22.51-1.56 33.52 3.1 13 12 18.54 23.93 17.35 10.44-1 18-9.53 19.45-21.93.35-2.94.38-5.92.55-8.88zm441.94-.97c1.13 18.93-4.67 35.35-22.07 45.06-27.22 15.19-72.31 6.51-75.61-36.77-.92-12.11-.27-23.74 4.82-34.77 9.4-20.33 30.38-27 50.23-25.18 29.12 2.67 44.57 23.94 42.63 51.66zm-25.7 2.37c.19-9.18-.89-16.69-4.72-23.64-4.28-7.79-11-11.06-19.67-10.67-8.1.37-14.21 3.91-17.57 11.49-5.37 12.12-5.44 24.67-1.55 37 3.37 10.71 11 15.64 21.11 15.35 10.59-.29 16.38-5 20.34-16.29 1.69-4.78 1.76-9.71 2.06-13.24z"></path><path fill="#989898" d="M414.85 338.48c-6.95 0-13.89.17-20.83 0-8.2-.24-11.21-3.31-11.24-11.3-.08-19.827-.08-39.66 0-59.5 0-8.84 3.19-12 12.12-12.12 13.39-.11 26.78.1 40.16-.09 4.72-.07 6.92 1.5 6.65 6.42-.24 4.44-.17 8.87-6.53 8.27-8.64-.81-17.23 1.68-25.9.11-5.3-1-7.5 1.4-7.51 7 0 12.19-.26 12.19 12 12.2 5.7 0 11.41.17 17.1 0 4.92-.19 6.5 2.05 6.45 6.72-.05 4.67-1.18 7.82-6.54 7.8-6.94 0-13.9.28-20.82-.1-6.11-.35-8.35 1.86-8.23 8.09.22 11.9-.07 11.91 11.66 11.93 7.44 0 14.88.23 22.31 0 6.43-.24 6.2 3.77 6.39 8.29.2 4.85-1.53 6.69-6.41 6.48-6.93-.29-13.88-.07-20.82-.07l-.01-.13zm222.92 19.58a44 44 0 01-15.37-2.08c-12.8-3.73-16.74-14.87-9.22-26a60 60 0 013.89-5.42c4.42-5.18 4.1-9.61-1.56-13.7-5.83-4.22-7.48-10.11-6.13-17 1.56-7.93 6.61-12.69 14.13-14.56a51.59 51.59 0 0113.93-1.56 69.26 69.26 0 0023.33-3.56c3.19-1 6.45-2.13 7.44 2.8.69 3.44 3.1 7.28-2.93 8.6-2.35.51-4.25 1.44-3.62 5.13 2.81 16.69-1.69 22.59-18.39 25a56.68 56.68 0 01-6.65.44c-2.79.07-4 1.39-3.89 4.18.11 2.79 1.88 3.12 4 3.14 5.2.05 10.41-.06 15.59.23 9.44.51 15.19 5.08 16 12.36 1.05 9.72-3.21 16.45-12.34 19.27a67.57 67.57 0 01-9.35 2.32 79.54 79.54 0 01-8.86.41zm.73-23.73v-.08c-2.48 0-5 .1-7.43 0-3.7-.17-6.38 1.22-7.18 4.95-.87 4.09 2.12 6.14 5.19 7 6.76 1.9 13.66 2.1 20.35-.6 3-1.19 5.38-3.24 4.83-6.65-.55-3.41-3.84-4.28-6.85-4.54-3.01-.26-5.94-.08-8.87-.08h-.04zm-2.87-28.66h3c5.57 0 9.51-3.07 9.56-8.27 0-7.15-6-8.22-11.65-8.59-7.09-.46-12.43 3.27-12.61 8.56-.18 5.29 4.04 8.3 11.7 8.3zm91.12-29.38c7-.26 13.53.6 19 5.26a16.92 16.92 0 016.08 13.73c-.07 7.66.14 15.32.46 23 .14 3.36.28 6.52 3.69 9.1 3.61 2.74.89 6.29-.81 9.26-1.7 2.97-3.53 2.92-6.7 1.43-6.36-3-13.08-1.41-19.55.35-5.86 1.59-11.68 1.95-17.52.14-9.23-2.85-13.8-9.37-13.29-18.88.48-9.12 6.15-15.31 15.82-16.72 5.11-.75 10.31-.89 15.48-1.23 2.9-.2 6.23.52 6.34-4.1.1-3.75-1.41-6-5.14-7-7.39-2-14.07 1.23-21 2.48-2.83.5-6.72 4.57-8.11-1.71-1-4.72-3.06-9.88 4.42-11.45 6.91-1.51 13.67-4.21 20.83-3.66zm9.79 42.72c1-5.16-2.35-6.32-7-5.66-5.73.81-13.92-3.14-15.16 7-.73 5.9 4 7 8.22 7.2 9.68.45 13.85-2.16 13.94-8.54zm-192.4-5.67H529.3c-4.06 0-4.65 1.91-3.07 5.2 2.3 4.79 6.42 6.52 11.39 7 6.56.65 12.7-1.44 19-2.75 3-.63 6.39-1.49 6.86 2.89.35 3.34 2.41 7.71-2.81 9.49-11.58 3.95-23.17 6.92-35.34 1.93-11.24-4.61-17.31-14.2-17.36-28.33-.06-15.4 6.27-26 18.4-30.74 11.12-4.37 24.33-1.61 32.11 6.66 5.84 6.2 7.24 13.87 7 21.94-.13 4.33-2.65 6.72-7.21 6.67-4.56-.05-9.4 0-14.1 0l-.03.04zm-8-10.88h5.92c2.41-.06 5.28.62 6.61-2.12s-.43-5.34-2-7.51c-4-5.74-12.95-6.24-18.28-1.06-2.3 2.24-4.87 4.93-3.77 8.33 1.22 3.78 5 1.93 7.77 2.31a26.85 26.85 0 003.74.05h.01zm-87.9 8.01c0-6.68.09-13.36 0-20-.09-4.72 1.78-8.55 6-10.17 10.81-4.11 22-5.74 33.35-2.31a18.83 18.83 0 0113.75 18.24c.23 11.88-.13 23.77.18 35.64.16 6.08-3.06 6.79-7.93 6.76-5.12 0-9.44-.07-9.27-7.1.24-10.39-.25-20.8.14-31.17.28-7.17-3.94-9.15-9.6-9.41-7.86-.36-10.39 2.19-10.41 9.65 0 10.64-.22 21.28.09 31.92.15 5.21-2.28 6.48-6.75 6-4.12-.4-9.62 1.56-9.58-5.77.04-7.33.02-14.85.03-22.28zm123.3-.88c0-6.42.13-12.84 0-19.26-.15-5.58 2.6-8.7 7.68-10.3a69.17 69.17 0 0121.89-2.88c4.64.06 5.12 2.73 5.13 6.28.01 3.55-.09 6.65-4.86 6.41a10.45 10.45 0 00-1.48 0c-12 1.11-12.07 1.16-12.07 13.24 0 9.39-.14 18.77 0 28.15.1 5.54-2.58 7.51-7.76 7.26-4.88-.24-8.82-1.14-8.62-7.44.23-7.16 0-14.33 0-21.49l.09.03zm103.91-2.62c0-7.91.11-15.83 0-23.74-.13-6.48 4.27-5.92 8.59-6.08 4.32-.16 7 .7 6.93 6-.22 16.07-.32 32.15 0 48.22.12 6.51-3.6 6.31-8.11 6.33-4.51.02-7.75-.32-7.49-6.23.36-8.14.09-16.31.09-24.48l-.01-.02zm7.68-36.8c-5.62-.05-9.83-2.16-9.86-8.38 0-5.91 3.46-9 9.4-9s9.06 2.88 9.18 9c.12 6.12-3.05 8.42-8.72 8.38z"></path><path fill="#454545" d="M135.15 263.89c-2.39-19.08 18.23-42.62 43.09-42.1 21.83.46 42.15 21.4 41.32 42.71-.92 23.86-19 42.26-41.39 43-23.63.86-45.03-19.97-43.02-43.61z"></path></g></svg>