<svg xmlns="http://www.w3.org/2000/svg" viewBox="0 0.32500001788139343 257.00799560546875 257.00799560546875"><g fill-rule="evenodd"><path fill="#fff" d="M0 .325h257.008v257.008H0V.325"></path><path fill="#00613c" d="M245.145 117.89c-1.75-4.026-18.2-3.762-21.962 1.487l-7.614 20.475c-.874 2.275 6.826 2.45 7.7 0l7.088-19.863c.788-2.1 9.8-3.5 7.176 1.226.087.874 2.012 1.574 6.475.612 1.75-1.4 2.099-2.712 1.137-3.938m-35.612 1.838l-1.662 5.775c-.438.963-1.226 1.4-2.626 1.488h-5.512c-.788-.175-1.75-.35-1.4-1.488l2.45-5.775c.174-1.051.7-1.487 1.662-1.487h6.126c.962 0 1.224.436.962 1.487zm7.788.176c.436-2.364-2.889-4.551-5.95-4.551l-9.276.175c-4.375-.263-8.575 1.837-9.45 5.249l-4.812 13.126c-2.013 4.9.7 7.088 4.462 7.088l7.438.262c4.462-.175 9.45-.175 12.162-6.212-2.187-.963-4.55-.963-7.087 0-.35 1.487-1.663 3.325-4.201 3.5-1.574.087-4.199.262-5.862-1.313.175-2.45 1.05-5.338 2.276-6.475 2.275-1.487 6.736-1.225 10.587-1.4 3.937-.525 6.999-1.838 8.225-5.425l1.488-4.024m-26.776-10.851c.263-1.575-6.212-2.275-7.437 0l-11.025 31.5c-.35 1.575 7.088 1.575 7.262-.087l11.2-31.413m-18.024 13.125c1.663-4.462-.701-6.738-6.476-6.913h-4.724c-1.488-.261-2.713-.437-2.538-1.487l1.312-4.812c.35-.962-6.562-1.401-7.174.175l-11.549 31.062c-.439 2.275 6.824 2.188 7.61 0l7.526-20.3c.35-1.05.613-1.925 1.663-1.575h5.6c1.574 0 2.012 1.05 1.75 2.888l-3.588 9.45-3.5 9.537c-.7 1.925 6.912 2.363 7.788-.088l6.3-17.937m-36.925-1.576l-6.038 15.839c-.35.962-.787 1.312-1.575 1.487-2.188.525-4.375.35-6.562-.175-1.05-.175-1.488-.35-1.05-1.4l6.037-16.275c.35-.962 1.225-2.1 2.188-2.1l5.512.087c1.05.263 1.837 1.488 1.488 2.537zm7.788-.437c.787-3.5-2.8-4.637-7.176-4.9l-8.575-.175c-4.987 1.138-7 .088-10.412 9.188l-3.938 10.325c-1.75 4.813 2.363 6.737 9.8 6.737 8.313 0 11.55-2.1 13.562-3.85l6.739-17.325m-13.563-10.937c.175-.7-.525-.875-1.312-.963h-1.75c-1.05.176-1.4 0-2.1 1.75l-.788 1.926c-.35.963.437 1.312 1.924 1.312 1.751 0 2.363-.437 2.714-.788l1.312-3.237m15.312 0c.175-.7-.525-.875-1.4-.963h-1.749c-1.05.176-1.4 0-2.1 1.75l-.788 1.926c-.35.963.525 1.312 2.012 1.312 1.663 0 2.276-.437 2.712-.788l1.313-3.237m-39.462 11.637l-6.125 15.838c-.35.962-.787 1.225-1.575 1.488-2.187.525-4.463.35-6.65-.088-.962-.262-1.487-.438-1.05-1.575l6.038-16.187c.35-.963 1.225-2.1 2.275-2.1l5.512.087c1.05.264 1.838 1.4 1.575 2.537zm11.638-11.112c.175-.961-.438-1.4-1.313-1.575l-4.725.087c-.612.176-1.05.701-1.313 1.4l-2.1 5.688H97.535c-4.988 1.137-6.913 0-10.413 9.188l-3.85 10.325c-1.838 4.812 2.275 6.737 9.712 6.737 8.4 0 11.726-2.1 13.738-3.85l10.588-28m-105.963.612c.525-3.412 6.65-2.012 9.625-1.661 2.8 1.224 8.925 7.349 9.712 10.674 1.05 2.975-9.537 3.938-11.112 1.838-3.15-6.738-8.488-9.712-8.225-10.851m52.5 14.876c-1.138-1.576-10.063.787-9.013 2.887 1.837 2.713 10.325 8.4 14 8.75 2.887.7 10.237-3.937 9.362-6.3-.7-1.312-10.324-3.237-14.35-5.338"></path><path fill="#17b08c" d="M24.997 110.89c-1.138-1.226-.526-2.1 1.487-2.363 2.625-.263 4.725-.087 6.125.438 2.275.875 4.637 2.975 7.175 6.474.963 1.664.525 2.625-.7 3.413-4.288 1.75-5.25 4.2-3.413 7.175.7.963 1.4 1.925 2.1 2.8.875 1.05.7 2.1-.525 3.15-1.837 1.225-4.462 2.275-7.612 3.325-1.662.175-3.15-.437-4.287-2.187-1.05-2.188-2.188-4.375-3.15-6.475-.7-1.925.087-3.063 2.45-3.5 7-.263 8.4-2.8 5.512-7.001-1.663-1.75-3.5-3.412-5.162-5.248m40.249 26.249c1.225 1.312 3.063 2.187-6.65 5.862-2.712.262-5.162-.175-6.737-1.75-2.1-1.313-5.513-4.462-6.913-7.35-.7-1.662.088-3.325 1.313-4.112 3.238-2.013 5.074-2.888 3.325-5.863-.7-.963-1.925-1.663-2.888-2.45-.7-1.05-.437-1.662.438-2.362 1.487-.439 1.75-.524 4.9-1.488 1.225 0 1.75.262 2.975 1.138 1.487 1.399 1.837 1.487 3.412 3.238.787.7 2.1 1.4 0 2.624-4.025 1.838-6.3 2.275-3.412 5.163 1.662 1.75 8.137 5.774 10.237 7.35"></path><path fill="#00613c" d="M37.86 112.203c-1.489-1.751-.789-3.063 1.662-3.238 3.587.175 6.65.787 8.05 2.538 1.225.873 2.187 2.012 3.062 3.149 1.05 1.575.263 2.625-1.925 3.15-2.975.7-4.2 1.925-2.1 4.462 4.288 3.325 3.413 5.163-1.05 6.65-2.888 1.926-2.712 4.55.262 8.226l4.026 4.025c2.362 2.099 2.537 3.15-1.75 4.987l-6.3 2.888c-2.363 1.662-4.288 1.225-5.863-.788-2.187-1.662-4.112-3.675-5.775-5.95-2.1-2.538-1.925-4.55.788-6.037 2.012-.876 3.937-2.101 6.037-2.976 2.625-1.75 3.412-3.674.963-6.387-3.588-2.713-2.887-4.9.875-6.738 3.587-1.75 2.45-4.287-.963-7.961"></path></g></svg>