<!DOCTYPE svg PUBLIC "-//W3C//DTD SVG 20010904//EN" "http://www.w3.org/TR/2001/REC-SVG-20010904/DTD/svg10.dtd">
<svg version="1.0" xmlns="http://www.w3.org/2000/svg" width="570px" height="153px" viewBox="0 0 5700 1530" preserveAspectRatio="xMidYMid meet">
<g id="layer101" fill="#231f20" stroke="none">
 <path d="M1495 1496 c-112 -19 -178 -40 -263 -83 -50 -26 -74 -45 -78 -61 -8 -28 43 -129 78 -155 23 -18 26 -17 99 12 40 16 97 35 124 41 28 6 61 17 74 23 13 7 72 12 136 12 64 0 123 -5 136 -12 13 -6 47 -17 74 -23 28 -6 83 -25 124 -41 68 -27 75 -28 97 -14 32 20 87 131 80 159 -8 32 -153 102 -261 126 -117 26 -313 34 -420 16z"/>
 <path d="M2725 1220 c-68 -13 -160 -45 -210 -75 -62 -36 -178 -164 -210 -232 -41 -88 -58 -182 -51 -293 7 -126 57 -280 90 -280 5 0 7 -3 3 -6 -13 -13 87 -110 171 -166 81 -55 167 -79 293 -85 139 -7 237 13 335 69 106 60 127 82 121 129 -6 47 -82 150 -120 163 -22 8 -33 5 -69 -21 -75 -54 -115 -66 -213 -66 -109 -1 -175 24 -231 85 -58 65 -79 120 -79 213 1 135 60 229 171 270 27 10 53 22 59 27 12 11 152 10 160 -1 3 -5 19 -12 35 -16 17 -4 53 -22 81 -41 68 -46 99 -45 138 5 17 21 31 42 31 45 0 4 11 24 25 44 31 46 31 53 -2 93 -69 82 -217 138 -378 144 -55 2 -122 0 -150 -5z"/>
 <path d="M73 1183 c-10 -4 -13 -122 -13 -543 0 -481 2 -538 16 -544 9 -3 126 -6 260 -6 284 0 359 11 472 68 127 64 178 113 236 226 l51 99 0 156 c0 156 0 156 -33 226 -48 102 -77 140 -146 190 -34 24 -67 49 -74 56 -7 6 -39 20 -70 31 -117 41 -177 48 -437 47 -137 0 -256 -3 -262 -6z m558 -292 c72 -28 121 -73 148 -138 24 -58 28 -144 9 -205 -14 -49 -78 -123 -128 -148 -51 -26 -150 -42 -240 -38 l-75 3 -3 265 c-1 146 0 271 3 279 9 22 214 9 286 -18z"/>
 <path d="M4492 1178 c-9 -9 -12 -144 -12 -544 l0 -533 22 -15 c12 -9 28 -16 35 -16 14 0 8 -6 148 146 60 65 142 153 181 194 38 41 92 99 119 128 26 28 52 52 56 52 4 0 30 -24 57 -52 27 -29 118 -127 203 -218 85 -91 164 -179 176 -196 29 -40 73 -60 102 -44 21 11 21 13 21 554 0 487 -2 544 -16 550 -30 12 -249 7 -262 -6 -9 -9 -12 -76 -12 -237 l-1 -226 -27 30 c-28 31 -136 155 -183 208 -34 39 -83 42 -111 6 -11 -13 -55 -64 -98 -114 -43 -49 -88 -101 -99 -115 l-20 -25 -1 236 c0 207 -2 238 -16 243 -30 12 -249 7 -262 -6z"/>
 <path d="M1533 984 c-10 -4 -13 -73 -13 -294 0 -249 -2 -291 -16 -304 -12 -13 -40 -16 -139 -16 -68 0 -130 -3 -139 -6 -24 -9 -24 -269 0 -278 9 -3 208 -6 444 -6 353 0 430 2 439 14 8 9 11 56 9 142 l-3 129 -142 5 c-78 3 -147 10 -152 15 -7 7 -12 120 -13 305 l-3 295 -130 2 c-71 1 -136 -1 -142 -3z"/>
 <path d="M3735 970 c-65 -13 -179 -77 -232 -130 -124 -124 -158 -334 -80 -503 28 -61 114 -153 179 -191 105 -61 297 -74 421 -27 31 13 57 26 57 29 0 4 18 18 41 32 22 14 55 43 73 65 31 37 79 127 80 150 1 6 5 13 11 17 6 4 10 55 10 115 0 108 0 108 -44 196 -30 60 -58 101 -91 130 -54 49 -155 102 -220 116 -52 12 -147 12 -205 1z m201 -310 c38 -36 56 -76 56 -126 0 -97 -62 -158 -159 -158 -60 0 -96 21 -127 73 -39 67 -11 191 52 226 43 24 144 16 178 -15z"/>
 </g>

</svg>