<svg xmlns="http://www.w3.org/2000/svg" viewBox="75.20985412597656 83.37899780273438 449.3441162109375 85.2969970703125"><defs><linearGradient id="fn1c5d1d05ddma" x1="49.8%" x2="50.213%" y1="24.605%" y2="158.592%"><stop offset="0%" stop-color="#00ABBF"></stop><stop offset="100%" stop-color="#0A4261"></stop></linearGradient><linearGradient id="fn1c5d1d05ddmb" x1="46.48%" x2="63.796%" y1="9.246%" y2="168.204%"><stop offset="0%" stop-color="#00ABBF"></stop><stop offset="100%" stop-color="#0A4261"></stop></linearGradient></defs><g fill="none"><path fill="url(#fn1c5d1d05ddma)" d="M17.565.572C45.433 42.26 20.964 80.279.913 71.275 7.37 83.615 18.585 86.949 28.1 84.28 50.53 77.944 66.503 37.59 17.565.57z" transform="translate(474.92 82.809)"></path><path fill="url(#fn1c5d1d05ddmb)" d="M2.379 20.963c-5.777 9.005 1.02 17.342 7.816 21.344C3.738 25.632 37.723 19.63 30.926.286 28.547 7.289 8.156 11.958 2.379 20.963" transform="translate(465.977 111.776)"></path><path fill="#5A5758" d="M125.656 123.364v35.79c0 .574 0 1.148-.19 1.914-.189 1.722-1.136 2.87-2.462 3.828l-2.273 1.148c-4.357 1.34-8.903 2.297-13.45 2.488a104.84 104.84 0 01-10.986 0c-2.652-.191-5.303-.765-7.766-1.722-5.872-2.106-9.471-6.125-11.365-12.25-.569-2.105-.947-4.21-1.326-6.507-.758-5.359-.758-10.718-.38-16.077.38-4.21.948-8.23 2.653-12.249 1.326-3.062 3.41-5.55 6.061-7.273 2.273-1.531 4.546-2.297 7.198-2.87 2.273-.575 4.547-.766 6.82-.958 3.599-.191 7.198 0 10.797.575.379 0 .757.19 1.326.19.568.192 1.136.766 1.136 1.532v3.828c0 .765-.379 1.148-1.136 1.148-.947 0-1.895-.191-2.842-.191-2.841-.192-5.682-.383-8.524-.192-1.894.192-3.978.383-5.682 1.149-3.031 1.148-5.115 3.253-6.44 6.316-.948 2.296-1.516 4.785-1.895 7.273a58.37 58.37 0 00-.568 11.483c.19 3.445.568 6.89 1.326 10.144.19.957.568 1.723.757 2.488 1.516 3.828 4.357 6.125 8.146 7.082 3.03.765 6.25.765 9.281.574 3.978-.192 7.956-.766 11.744-1.723 1.326-.383 1.326-.383 1.326-1.722V88.147c0-.765.19-.957.948-1.148 2.083-.574 4.167-1.148 6.25-1.531.948-.192 1.326.191 1.326 1.148v1.149c.19 11.674.19 23.732.19 35.599zm39.4 43.637c-19.321 0-24.057-8.23-24.057-22.967v-35.216c0-.957.568-1.149 1.515-1.531l5.873-1.532h.378c.758 0 .947.766.947 1.532v37.512c0 10.336 3.6 15.12 15.533 15.12 14.207 0 15.343-7.081 15.343-15.31v-35.791c0-.957.569-1.149 1.516-1.531l5.872-1.532h.379c.757 0 1.136.766 1.136 1.532v36.364c-.379 11.1-1.894 23.35-24.435 23.35m167.449-3.254c0 .383-.379.957-.947 1.149-2.462.765-7.198 2.105-13.449 2.105-10.797 0-16.1-4.785-16.1-15.311V90.635c0-.957.567-1.148 1.325-1.34l5.872-1.53h.38c.757 0 1.136.765 1.136 1.34v18.182h18.374c.947 0 1.704.574 1.704 1.722v3.828c0 .957-.568 1.722-1.704 1.722h-18.374v38.088c0 6.124 3.22 7.464 8.902 7.464 3.41 0 7.767-.957 10.04-1.531h.379c.568 0 .947.383 1.136.957l.947 4.019v.191h.38zm76.527-54.929c-.379-.574-.947-1.531-1.894-1.531h-7.009c-.568 0-.947.574-.947 1.34l.379.765 19.32 26.986-19.32 26.795-.38.957c0 .766.38 1.34 1.137 1.34h6.82c.568 0 1.136-.383 1.515-.957l15.154-21.245 15.154 21.245c.378.383.947.957 1.515.957h6.82c.757 0 1.136-.574 1.136-1.34l-.38-.957-39.02-54.355zm22.541 22.202c.758.765 1.326-.192 1.326-.192l15.343-21.436.38-.766c0-.574-.38-1.34-.948-1.34h-7.009c-.947 0-1.515.766-1.894 1.532l-10.797 14.928s-.947.957-.19 1.914c.19.383 2.653 3.828 3.79 5.36M235.71 109.583c0-.957-.757-1.148-1.136-1.34-3.6-1.148-15.722-3.062-24.246-1.913h-.569c-2.273.382-3.977 1.34-4.735 2.105-1.137 1.148-1.516 3.062-1.516 6.124v49.188c0 .957.569 1.723 1.516 1.723h5.683c.947 0 1.515-.574 1.515-1.723v-49.762h1.136c8.524-.574 15.723.766 20.269 1.531h.757c.38 0 .947-.19.947-.957l.758-4.976h-.379zm46.22-.765c-3.22-1.723-8.714-2.68-16.102-2.871-5.493-.192-15.532.957-19.131 2.297-.379.19-1.137.382-1.137 1.34v.19l.947 4.977c.19.574.569.957 1.137.957l.568-.192c4.546-1.148 9.66-2.105 16.48-2.105 4.735 0 7.956.383 10.04 1.34 3.788 1.531 3.977 4.402 3.977 7.847v35.216c-4.546 1.531-9.47 2.105-14.396 2.105-7.198 0-16.67-.765-16.67-11.674 0-8.804 6.252-10.336 10.987-10.336h13.638c.759 0 1.137-.382 1.137-1.148v-4.785c0-.765-.378-1.148-1.136-1.148h-14.396c-8.524 0-18.753 3.254-18.753 17.608 0 17.99 15.533 18.565 24.814 18.565 5.872 0 10.987-.957 14.207-1.531 7.577-1.914 9.092-3.637 9.092-11.484v-31.77c.568-5.168.38-10.527-5.304-13.398m105.13 6.89c-3.6-6.316-10.04-9.953-21.594-9.953-21.784 0-25.383 11.867-25.383 30.623 0 20.288 6.44 30.432 27.845 30.432 7.198 0 14.396-1.532 18.942-3.254.569-.383 1.326-.766 1.137-1.723-.19-.765-1.137-4.21-1.137-4.21-.378-1.149-1.326-.957-1.515-.957l-.947.191c-3.03.957-5.683 1.531-8.903 2.106-1.894.19-4.167.574-6.63.574-7.766 0-13.07-1.149-16.29-5.36-1.515-1.913-2.652-4.21-3.03-7.272-.19-.574-.38-4.21-.38-5.36-.19-5.167 0-8.42 0-8.803.19-3.637.38-7.273 1.326-10.91 1.895-7.081 6.062-9.378 14.965-9.378 8.903 0 13.07 2.297 15.153 9.378.948 4.02 1.137 7.273 1.326 11.484h-26.14c-.758 0-1.136.383-1.136 1.148v4.977c0 .765.378 1.148 1.136 1.148h33.338c.758 0 1.705-.766 1.705-1.914v-4.785c-.379-7.273-.947-13.206-3.788-18.182"></path></g></svg>