<svg xmlns="http://www.w3.org/2000/svg" viewBox="0.7390222549438477 0.019862178713083267 711.8262329101562 409.27264404296875"><g fill="#444975"><path d="M625.24 364.11c-30.83-7.9-63.75 8.53-97.61 20.07-19 6.48-38.55 10.5-58.39 14.05-21.2 3.81-42.4 7.19-63.78 9a595.32 595.32 0 01-99.74-.06c-26.93-2.2-53.28-6.93-79.69-12.26-30.38-6.13-59.16-16.74-87.71-28.24a34.29 34.29 0 00-13.77-2.37c-28.23.23-56.46 0-84.68.4-7.17.11-10.09-1.78-9.52-9.3.6-7.91-.25-15.92.2-23.85 1.5-25.91-2.59-49.24-15.67-73.32-23.5-43.23-16.14-87.17 10.5-127.71 3.51-5.34 5.18-10.23 5.12-16.37-.17-19.09.43-38.19-.21-57.25-.32-9.57 2-13.37 12.43-13 23 .79 46.16-.58 69.16.58 19.87 1 36.71-5.91 54.33-13.65 15.64-6.88 33-10.13 49.78-14.09 17.94-4.23 36-8.48 54.25-10.87a694.48 694.48 0 01141.29-3.95 430.93 430.93 0 0150.53 7.06c37.47 7.32 74.56 16.17 109.46 32.34 6.26 2.91 13 3.37 19.77 3.34 28.63-.1 57.27.26 85.89-.23 9.52-.16 12.48 3.21 12.24 12.49-.52 20.66 0 41.35-.19 62-.08 8.19 2.13 15.29 6.06 22.54 23 42.5 23.27 85.19-.61 127.49a42.08 42.08 0 00-5.37 21.6c.08 20.68-.37 41.37.26 62 .3 9.55-2.91 12.27-12.26 11.78-15.05-.81-30.2-.22-52.07-.22zm-4.7-19.33c12.72 0 25.47-.47 38.16.16 8.58.42 10.85-2.86 10.58-11-.53-15.89.19-31.81-.26-47.7-.25-8.71 2.1-15.93 6.68-23.37 19.3-31.29 25.52-66 7.81-98.15-14.34-26-14.28-51.71-14.3-78.78 0-3.58-.49-7.23.07-10.72 1.36-8.54-2.2-11.11-10.47-11-24.64.38-49.3 0-73.94.28a40 40 0 01-17.41-3.32c-59.14-27.3-122-37.69-186.36-41.2-30.18-1.65-60.3.18-90.39 3.56-39 4.38-77.47 11.2-114 25.8-26 10.41-51.94 18.24-80.45 15.23-12.18-1.29-24.63 0-36.94-.28-7.06-.18-9.81 2.11-9.55 9.62.54 15.88.11 31.8.16 47.7a22.43 22.43 0 01-4.48 14.16c-14.43 20.13-24.46 41.64-23.81 67.68.54 21.21 3.7 41.56 16.44 58.25 10.78 14.13 13.35 28.83 11.94 45.39-.27 3.16 0 6.36-.05 9.54-.12 28.08-.05 26.87 27.8 28.46 24.8 1.43 49.21-3.73 74.61 6.43 51 20.35 104.22 33.82 159.88 36.45 43.41 2 86.33 2 129.5-4.53 41.66-6.32 82-16.38 120.74-32.59 10.68-4.47 21.24-7.36 33-6.21 8.28.78 16.69.13 25.04.14z"></path><path d="M511.81 205.52c0-13.71-.1-27.42 0-41.12.12-12.33 13.8-20.17 24.51-14.3 3.34 1.84 2.16 4.81 2.17 7.32.07 31.42-.1 62.83.1 94.25 0 6.27-2.26 7.54-8.28 8.11-12.82 1.2-21.31-1.73-27.05-14.82-6.37-14.54-15.72-27.78-26.27-41.4 0 14.4-.66 28.84.22 43.18.65 10.57-2.79 13.52-13.29 13.23-9.5-.27-14.24-1-13.88-12.63.92-29.4.61-58.85.12-88.27-.14-8.06 2.65-8.42 9.89-9.84 16.45-3.2 21.91 7.21 27.94 18.19a12717.24 12717.24 0 0121.11 38.65l2.71-.55zm-79.38-1.68c-.81 8.66.23 17.56-2.7 25.92-10.35 29.59-45.35 41.63-70.88 23.25-17.3-12.43-22-31.92-20.68-52.2.64-9.91 1.09-20.29 6-29.67 10.42-20.09 34.42-26.9 47.56-24.21 24.34 5 38.55 21 40.1 43.84.24 4.35.38 8.75.6 13.07zm-28 3.66c0-7 .28-11-.06-14.91-1-11.36-9.67-20.14-19.42-19.9-9.09.21-17.34 9-17.88 19.83-.42 8.28.17 16.61 0 24.9-.22 9.49 4.68 14.86 13.43 16.63 9.3 1.88 16.93 0 21.48-9.9 2.99-6.55 2.09-13.1 2.46-16.63l-.01-.02zm195.47-57.63c13.28-3.79 18.33 3.52 21.59 14.29 8.33 27.51 16.66 55 25.7 82.3 3.27 9.86 2.12 13.77-9.26 13.47-10.07-.27-19.56.75-19.63-13.49 0-3.87-3-5.26-6.6-5.23-4.77 0-9.61.5-14.3-.09-9.12-1.15-15.34 1-16.37 11.37-.36 3.52-1.06 7.35-6.19 6.94-7.44-.6-15.12 1.84-22.28-1.27-1.5-.65-.71-3.48-.07-5.49 10.38-32.34 20.89-64.66 30.83-97.15 3.28-10.62 11.7-2.9 16.58-5.65zm1.64 29.89c-6.32 11.27-8.26 22.19-9.61 32.51-1 7.88 7.55 4.06 11.94 4.66 4.39.6 6.44-1.31 5-6.39-2.55-9.4-4.49-18.97-7.33-30.78zM121.1 150c10.16-2.44 15.06 1.2 18.08 13.55 6 24.4 14.95 48.08 22.84 72 1.9 5.76.13 12.69 5.75 17.39.74.62 0 5-.94 5.32-7.21 2.76-14.81 1.44-22.23 1-5.14-.29-7.42-4.15-7.25-9.14.26-7.47-3.66-9.57-10.44-9a90.77 90.77 0 01-14.28 0c-8.12-.65-14.18.44-13 11 .6 5.4-2.4 7.93-7.94 7.66-6.71-.33-15.19 2.09-19.72-1.14-6.31-4.49 1.83-10.84 3.39-16.25 7.19-24.92 12.5-50.49 24.18-73.94.34-.67 1.11-1.4 1-2-3.7-17.45 7.45-17.51 20.56-16.45zm-.72 30.84c-7.71 11.16-9.37 22.15-9.62 32.44-.17 7.22 8.14 3.24 12.62 3.59 4.25.34 5.93-1.52 4.19-6.69-2.98-8.73-4.54-17.92-7.19-29.34zm167-31.01c11.14 0 22.31.56 33.4-.18 7.87-.53 9.18 2.49 8.91 9.49-.78 20 2.31 17.54-17 17.12-9-.2-11.58 2.36-11.29 11.27.66 19.87-.3 39.79.45 59.65.55 14.91-9.3 11.84-18.12 12.65-9.88.91-12.22-3.18-12-12.27.54-20.27-.25-40.57.36-60.84.26-8.61-2.67-10.66-10.83-10.42-16.25.47-21.2-7-17-23 1.29-4.9 4.53-3.53 7.32-3.57 11.93-.15 23.86-.06 35.79-.06l.01.16zm-106.7 53.63c0-14.72.25-29.44-.11-44.15-.17-6.94 1.68-9.74 9.34-9.73 19.54 0 19.56-.38 19.58 19.24 0 16.71.63 33.45-.26 50.11-.58 11 3.65 14.21 13.79 12.83 4.28-.59 8.73-.07 13.1 0 17.32.2 20.64 4.6 17 22-.88 4.27-3 5.89-7.32 5.85-18.7-.17-37.4-.27-56.09 0-8 .11-9.05-4.59-9-10.81.06-15.12 0-30.24 0-45.35l-.03.01z"></path></g></svg>