<svg xmlns="http://www.w3.org/2000/svg" viewBox="55 59.000186920166016 489.0001220703125 131.99981689453125"><g fill="none"><path fill="#5FAC28" d="M517.15 82.136c8.517 1.776 20.145.888 26.697-5.681 1.31-1.243-5.896 10.12-17.525 16.689-15.887 9.054-36.033 10.12-53.394 7.811.818-14.558-11.63-24.5-24.077-24.5-11.137 0-19.49 7.457-22.275 17.399-11.137-1.065-21.456-.888-33.576 2.84 4.258-21.837 25.714-36.573 56.015-37.638 30.464-1.243 46.187 18.642 68.135 23.08"></path><path fill="#006B52" d="M381.62 107.467c-8.54 1.576-18.72 10.51-22.497 13.838-3.613 3.153-8.703-3.679-4.598-6.832 4.926-3.503 22.333-13.663 38.425-16.991 18.392-3.679 36.619-.175 57.145 6.831 20.69 6.832 31.528 7.533 50.905 6.832-10.181 21.02-35.14 28.027-52.219 27.852-17.899 0-36.126-5.606-47.456-17.867-6.076-6.657-10.017-15.415-19.705-13.663"></path><path fill="#1E120D" d="M83.212 165.342c-.168-4.601-3.19-8.317-7.557-8.317-4.534 0-7.389 3.362-8.228 8.317h15.785zm-15.617 7.432c.167 5.485 3.19 9.201 8.564 9.201 3.023 0 6.045-1.415 7.22-4.424h11.756C92.784 186.93 84.555 191 75.99 191 63.396 191 55 183.037 55 169.412 55 157.025 64.404 148 75.823 148c13.77 0 20.655 10.971 20.151 24.774h-28.38zm60.958-8.96c0-3.376-2.987-5.864-6.14-5.864-6.97 0-8.132 6.397-8.132 12.083 0 5.33 2.157 10.661 7.468 10.661 4.315 0 6.472-2.665 7.136-6.93H141c-1.162 10.84-8.962 17.236-19.085 17.236-11.451 0-19.915-8.351-19.915-20.79 0-12.97 7.634-22.21 19.915-22.21 9.46 0 17.923 5.33 18.753 16.17h-12.115v-.356zm32.947 17.1c5.93 0 7.793-6.017 7.793-11.326 0-5.131-1.863-11.325-7.793-11.325s-7.624 6.194-7.624 11.325c0 5.132 1.694 11.326 7.624 11.326m0-32.914c12.029 0 20.5 9.379 20.5 21.588 0 12.21-8.471 21.412-20.5 21.412s-20.5-9.202-20.5-21.412c.17-12.21 8.471-21.588 20.5-21.588"></path><path fill="#88868B" d="M194.939 165.198h11.449c4.51 0 6.939-2.129 6.939-6.06 0-4.914-3.296-5.733-6.94-5.733H194.94v11.793zM188 148h19.255c8.847 0 13.184 3.767 13.184 10.319 0 7.207-5.378 9.172-6.592 9.5v.164c2.429.327 5.898 1.965 5.898 8.026 0 4.422.694 8.517 2.255 9.991h-7.46c-1.04-1.638-1.04-3.767-1.04-5.569 0-6.88-1.561-9.991-7.98-9.991h-10.408V186H188v-38zm44.833 21.501c0 7.818 3.5 15.636 11.667 15.636 8.333 0 11.667-7.818 11.667-15.636s-3.5-15.635-11.667-15.635c-8.333 0-11.667 7.64-11.667 15.635m30.167 0c0 11.727-6.833 21.499-18.5 21.499-11.5 0-18.5-9.772-18.5-21.499 0-11.726 6.833-21.499 18.5-21.499 11.5-.177 18.5 9.773 18.5 21.5m11.04 10.929h6.87c10.989 0 13.221-5.897 13.221-13.595 0-7.534-2.404-13.595-13.222-13.595h-6.869v27.19zM267 148h16.485c12.192 0 17.515 8.517 17.515 19s-5.323 19-17.515 19H267v-38zm41.833 21.501c0 7.818 3.5 15.636 11.667 15.636 8.333 0 11.667-7.818 11.667-15.636s-3.5-15.635-11.667-15.635c-8.333 0-11.667 7.64-11.667 15.635m30.167 0c0 11.727-6.833 21.499-18.5 21.499-11.5 0-18.5-9.772-18.5-21.499 0-11.726 6.833-21.499 18.5-21.499 11.5-.177 18.5 9.773 18.5 21.5M344 148h7.104l9.811 30.104h.17l9.98-30.104H378l-13.363 38h-7.612zm39 0h7v38h-7zm22.557 22.866h11.886l-5.86-16.45h-.167l-5.86 16.45zM407.9 148h7.2l14.9 38h-7.2l-3.682-10.035h-15.403L400.032 186H393l14.9-38zm30.084 28.313c0 6.37 4.54 8.847 10.302 8.847 6.285 0 8.555-3.185 8.555-6.193 0-3.185-1.746-4.424-3.317-5.132-2.794-1.061-6.46-1.77-12.048-3.362-6.984-1.946-8.905-6.193-8.905-10.44 0-8.14 7.508-12.033 14.842-12.033 8.38 0 15.54 4.6 15.54 13.095h-7.334c-.35-5.309-3.841-7.255-8.73-7.255-3.318 0-7.333 1.238-7.333 5.308 0 2.831 1.92 4.424 4.888 5.309.699.177 9.604 2.477 11.699 3.185 5.238 1.593 7.857 6.193 7.857 10.44 0 9.202-8.032 12.918-16.063 12.918-9.254 0-16.762-4.424-16.937-14.687h6.984z"></path></g></svg>