<svg xmlns="http://www.w3.org/2000/svg" viewBox="0.4307551383972168 0.9700000286102295 933.12548828125 222.80543518066406"><g fill="none"><path fill="#88A905" d="M685.73 57.67c21.55 19.6 26 66.23 9 93.51-13.78 22.06-30.27 26.12-66.46 15.89 0 10.55-.26 20.87.08 31.17.3 9 27.55 5.55 12 19.38-11.76 10.47-30.93 5.06-46.64 2.06-6.19-1.18-8.48-7.27-3.75-13.16 33.9-42.29 8.41-90.76 13.54-136 .782-6.846-10.63-4.404-17.148-4.603h-.004l.001-.08c-.007-3.299-.88-7.616.741-9.007 14.08-12 85.57-11 98.64.84zm-30 7.67c-26.69-.82-27.89 22.86-28 42.86-.12 20.87-.62 46.48 28 46.31 26.15-.15 25.16-25.18 27.83-44.52-2.68-19.3-1.54-43.85-27.83-44.65zm-69.81.56l.214.01.214.007v.2l-.007.275-.011.268z"></path><path fill="#87A904" d="M55.96 170.26c-8.09.05-16.24.64-24.27-.1-9.89-.91-23.6 5.3-28.8-4.86-7-13.74 14.72-8.17 15.52-16.63 1.84-19.41 5.37-39.68 1.74-58.33-4.96-25.47 18.74-56.28-16.13-77.47C-6.15 6.69 7.71 1.19 15.69 1.11c26.59-.25 53.2-.07 79.8-.14 9.73 0 19.29.11 18.21 14-.69 8.84 4.33 21.42-4.82 25.45-14 6.17-10.76-9.85-15.72-16-11.36-14-29.49-9.9-41.4-5.38-17.63 6.68-6.59 26.14-8.21 39.9-2 16.88 11.61 13.27 21.38 13.75 5.77.29 11.57-.1 17.34.16 6.62.3 15.55-1.3 16.24 8.17.92 12.7-10.17 11.48-17.23 10.2-37.05-6.73-42.53 13.3-38.22 43 1.28 8.85-1.51 20.8 12.75 19.31 13.77-1.43 30.45 8.46 40.76-8.24 4-6.41-2.67-22.36 13.42-17 11.27 3.73 5.61 16 6.46 24.58 1.07 10.82-2.83 17.77-15.35 17.46-15.08-.4-30.08-.11-45.14-.07z"></path><path fill="#89AA07" d="M118.57 53.58c35-5.19 60.69-3.77 85.8-6.47 22.6-2.44 30.46 18.25 33.12 40.52 2.8 23.47-12.91 50 12.24 70.73 7.3 6-2 11.73-9.44 11.62-13.66-.2-27.72 3.26-43.72-4.59 24.88-22.88 14.94-52.13 15.88-79.41.33-9.49-3.57-18.74-14.94-20.34-11.88-1.69-21.68 4.47-24.85 14.81-7.17 23.38-13.12 52.53 1 70 18.41 22.81 4 18.71-9.37 19.69-11.29.82-22.7.17-45.09.17 29.31-18.54 28.15-39.14 27-59.84-1.06-20.1 7.22-43.05-27.63-56.89z"></path><path fill="#8AAB0A" d="M811.03 70.63c6.47 19.12-3.07 41.54 4.45 58.19 19 42.14-1 40.16-33.87 41.95-25.29 1.37-48.15 6.3-56.46-21.92-8.52-28.94 9.9-44.44 36.41-53.2 9.69-3.21 25.56 1.29 27.49-15.41.85-7.33-3-13.54-11.15-15.21-15.8-3.24-27.11 1.58-32.49 17.86-.84 2.55-4.52 4.17-10.01 8.92-11.14-29.68 2.43-40.53 24.8-44.58 21.94-4 42.26-1.92 50.83 23.4zm-20.46 52.16c-1.17-6.82.2-17.07-12.92-13.2-14.34 4.25-30.09 8.26-31.34 27.1-.83 12.59 7.14 19.58 19.35 18.83 19.159-1.166 22.625-15.682 24.78-31.745z"></path><path fill="#89AA07" d="M430.45 45.57c30.05 2.93 49.9 31.88 47.66 69.49-2.19 36.76-24.35 61.2-54 59.55-32.23-1.79-50.34-28.53-48.28-71.28 1.78-36.88 24.32-60.72 54.62-57.76zm-4.44 19.56c-27.06-.55-26.04 23.8-28.49 42.89 2.06 20.72-.27 46.41 28.78 46.76 26.34.32 28-23.12 28-43.18v-.628c.014-20.76.054-45.268-28.29-45.842z"></path><path fill="#8CAC0D" d="M265.64 122.19c-.57-62.84 34-88.38 83.89-72.66 11 3.46 10.91 10.43 10.66 18.41-.25 7.71 2.86 17.5-6.23 21.81-11.11 5.27-12.31-6.07-17.07-11.84-16.48-20-33.76-17.65-43.71 6.06-6.46 15.36-7.48 31.26-1.89 47.36 3.89 11.19 7.93 22.18 21.77 24 12 1.58 19.56-4.06 24-15.26 3.18-8.15 9.79-15.57 18.4-10.3 11.49 7 2.51 17.24-1.62 23.82-11.74 18.71-29.53 25-50.9 18.6-29.77-8.85-35.84-32.88-37.3-50z"></path><path fill="#8CAC0E" d="M585.89 65.87c-5.77 10-3.72 39.25-25.21 9.29-11.65-16.24-22.48-4.83-23 6.8-1.2 24.43-15.8 51.22 9 73.13 9.63 8.5 3.93 14.61-6.55 14.85-14.69.33-29.79 3.49-44.18-3 16.84-35 25.82-69.62.74-104.51-3.17-4.41-1.63-8.68 2.43-11.65 8.78-6.42 78 6.27 87.2 15.84.01.04-.43-.75-.43-.75z"></path><path fill="#87A904" d="M904.46 164.15c-28.15 8.24-31.42 8.25-58.7.45 24.59-27 24.35-85.11-3.35-108.93 26-11.21 51.73-2 76.07-5.31 9.19-1.26 15.87 8.75 15 19.55-.45 5.35-1.15 13.8-4.26 15.2-9 4-12.53-3-17.75-10.38-12.5-17.56-22.7-1.39-23.44 7.33-2.46 28.36-16.01 60 16.43 82.09z"></path></g></svg>