<svg xmlns="http://www.w3.org/2000/svg" viewBox="0.2392120361328125 0.19843196868896484 1276.245361328125 563.7056884765625"><g fill="none"><path fill="#D63631" d="M272.05 282.55v265.08c0 17.25 0 17.25-17.53 15.57C97.24 548.14-18.88 401.07 2.86 245.04c6.51-46.71 21.77-90.08 50.4-127.4C104.86 50.36 171.41 8.01 257.78.54c12-1 14.49 3.25 14.45 14.22-.34 89.26-.19 178.53-.18 267.79zm158.99-22.27h40.57c27.64 0 55.29.28 82.93-.05 9.41-.11 14.06 2.36 14 12.92-.21 35.31 2.56 30-29.27 30.23-35.66.31-71.32.07-109.17.07 4.17 7.18 9.39 9.61 14.14 12.46 31.09 18.59 62 37.57 93.46 55.43 10.49 5.95 13.41 12.11 7.62 22.54a102.94 102.94 0 00-5.85 12.22c-3.5 8.92-8.43 10-16.69 5a45064.898 45064.898 0 00-205.22-122.74c-9.42-5.59-7.51-9.55.27-14.17 68.52-40.707 137.023-81.443 205.51-122.21 7.25-4.33 12.52-4.85 15.5 4.39.176.42.387.825.63 1.21 13.52 25.53 13.36 25.57-11.74 40.37-29.64 17.48-59.1 35.29-88.66 52.92-2.69 1.66-5.58 3.02-8.03 9.41zm-93.77-123.11c17.94-18.91 27.63-41.8 40.2-63 7.63-12.83 15-25.86 21.85-39.11 3.81-7.32 7.87-7.9 15.18-4.61 26.47 11.89 26.88 12.52 13.27 37.37a23172.83 23172.83 0 00-46.74 85.78c-.84 1.54-1.36 3.26-3.2 7.72 16.52-5.83 28.6-14.91 41.42-22.39 22.27-13 44.51-26 66.41-39.62 7.69-4.78 12.59-4 18.44 3 19 22.66 19.3 22.58-5.65 37.49a130237.72 130237.72 0 01-187.77 112c-13.36 8-14.29 7.46-14.29-8.54 0-77 .3-154 0-231 0-10.06 3.57-13.07 12.66-11.78.452.052.906.079 1.36.08 27.06 1.3 27 1.3 26.91 28-.12 36.21-.05 72.41-.05 108.61zm41.83 267.37c3.22 10.48 8.85 19.09 13.79 28 13.8 25 27.36 50.06 41.61 74.77 4.58 7.95 4.1 12.43-4.12 17.44-24.39 14.86-24.63 15.22-38.4-9.16-17.1-30.26-33.83-60.73-51.25-92.07-4.79 5-3.26 9.71-3.28 13.82-.17 35.35-.62 70.71.09 106 .24 12.32-3 17.81-16.06 19.05-25.1 2.38-25 3.12-25-22.23-.073-72.973-.097-145.943-.07-218.91 0-4.73-2.3-11.18 2.25-13.91 4.55-2.73 9.22 2.28 13.31 4.73 65.66 39.31 131.13 78.93 196.94 118 10 5.93 11.58 11 4 19.85-20.35 23.7-12.65 22.74-39 7.11-27.65-16.4-55.2-33-82.78-49.5-3.49-1.97-6.69-4.6-12.03-2.99z"></path><path fill="#3467A4" d="M997.43 218.71c0-29.46.29-58.92-.17-88.37-.14-8.94 2.82-11.85 11.7-11.71 28.54.42 57.11.68 85.64-.08 13.85-.38 10.49 8.49 11.26 16.21.91 9.06-1.59 13.18-11.66 12.61-14-.8-28.11.3-42.13-.34-9.58-.44-13.24 3.64-13 12.57.025.453.025.907 0 1.36-2.37 38-2.37 38 35.53 37.93 5 0 10 .49 14.94-.12 11-1.35 14.8 2.46 15 14.09.24 12.22-3.37 16-15.33 15.1-12.61-1-25.37.12-38-.23-7.82-.21-12 2.48-11.91 10.71.08 13.14.03 26.277-.15 39.41-.11 8.21 4 11.11 11.84 11 18.58-.17 37.19.7 55.72-.16 12.35-.57 11.35 6.64 11.32 14.7-.03 8.06.79 14.91-11.46 14.61-31.7-.78-63.417-.78-95.15 0-11.8.27-14.41-4-14.13-15 .71-28.08.23-56.19.23-84.29h-.09zm-159.08 1.15c0-29.43.15-58.87-.09-88.3-.08-8.75 2.14-13.07 12.21-12.86 28.54.59 57.11.67 85.64-.07 12.87-.34 10.47 7.67 10.78 15.15.33 7.82.53 14.31-10.85 13.6-14-.88-28.09.07-42.13-.29-9.63-.25-13.42 3.16-13.59 13.41-.64 38.29-1 38.28 37 38.4 3.63 0 7.25 0 10.88.07 16.38.15 22.23 8.42 17.1 23.75-1.79 5.36-6 4.8-9.93 4.85-14.5.16-29 .47-43.49.11-8-.2-11.65 2.57-11.45 10.88.32 13.13.33 26.29-.05 39.42-.26 9 3.74 11.78 12.32 11.5 17.66-.56 35.36.16 53-.74 9.84-.5 14.55 2 13.76 12.53-.63 8.41 2 17.2-12.31 16.81-32.15-.9-64.35-.65-96.52-.15-10.6.16-12.92-4.06-12.72-13.81.58-28.08.2-56.17.2-84.26h.24zm318.28-1.21c0-29 .25-58-.15-87.05-.12-8.82 1.64-13.22 11.81-13 28.1.59 56.23.7 84.33.08 13.16-.3 11.29 8 11.87 16.16.67 9.44-2.76 13-12.41 12.51-14.48-.68-29 .1-43.52-.28-7.21-.19-10.25 1.74-10.84 9.69-3.15 42.7-3.38 42.69 39 42.63h9.52c15.75.09 21.32 7.94 16.54 22.83-2 6.13-6.84 5-11.13 5-14 .16-28.11.13-42.16.08-8.12 0-12.51 2.67-11.92 12 .74 11.768.74 23.572 0 35.34-.71 11 2.71 15.5 14.39 14.92 17.64-.88 35.38.31 53-.45 12.19-.52 11.14 6.86 11.48 14.92.36 8.67-1.27 13.41-11.67 13.25-32.19-.5-64.39-.32-96.57.09-8.77.11-11.93-2.67-11.79-11.7.47-29 .18-58 .18-87.05l.04.03zm-412.81 101.6c-54.21-.35-94.32-28.58-106.89-75.24-17.44-64.72 28.12-125 97.53-129.1 18.4-1.09 36.18 1.17 53.08 8.86 6.11 2.78 14.33 4.83 8.89 14.2-4.2 7.24-4.74 19.13-19.83 12.76-26.91-11.35-53.49-9.4-76.56 10.05-25.1 21.17-31 65.06-13.64 95 17.08 29.57 52.54 41.68 87.65 30.05 6.38-2.12 12.73-7.5 17.89 3.17 7.83 16.24 7.62 17.95-9.39 24.23-12.53 4.65-25.5 6.13-38.73 6.02z"></path></g></svg>