<svg xmlns="http://www.w3.org/2000/svg" viewBox="0 0 319.1300048828125 113.39490509033203"><path fill="#0af" fill-rule="evenodd" d="M319.13 45.82C276.37 17.27 220.59 0 159.57 0 98.54 0 42.76 17.27 0 45.82c42.53-14.14 92.25-22.91 159.57-22.91 67.31 0 117.04 8.77 159.56 22.91z" clip-rule="evenodd"></path><path fill="#0af" d="M135.1 60.66c-3.13 0-4.74 2.54-5.16 5.65-.46 3.43-2.26 15.34-2.66 18.37-.24 1.81-.37 3.71-2.13 4.48-1.76.78-3.9-.42-5.72-1.97-1.83-1.55-28.84-24.55-28.84-24.55a8.187 8.187 0 00-5.36-1.99c-4.08 0-8 2.53-8 8.72v38.35c0 2.99 2.11 4.9 4.63 4.9 2.78 0 4.58-1.84 4.98-4.54 0 0 2.97-18.28 3.33-20.32.42-2.37.79-4.23 3.08-4.94 2.07-.64 4.03.56 6.94 3.11 2.87 2.51 27.2 24.48 27.2 24.48 1.86 1.57 3.22 2.21 5.85 2.21 2.39 0 6.73-.98 6.73-8.28v-38.2c0-3.54-2.2-5.48-4.87-5.48zm174.01 40.87c-21.2 4.56-45.45-.31-45.45-15.3 0-11.33 10.51-15.95 18.79-16.61 8.69-.69 15.48 1.13 18.97 4.76 2.18 2.26 1.57 5.36-2.71 5.61-3.95.24-11.35.47-17.52.7-3.5.13-5.37 2-5.37 4.52 0 1.99 1.5 4.28 5.53 4.3 5.77.03 20.42.12 27.7.14 4.8.01 7.17-2.68 7.17-8.2 0-8.75-7.93-22.03-31.14-22.03-21.03 0-36.24 10.47-36.24 27.6 0 24.28 35.73 31.69 61.92 22.67 2.48-.85 4.73-2.63 4.01-5.41-.64-2.47-2.65-3.4-5.66-2.75zm-245.91 0c-21.2 4.56-45.45-.31-45.45-15.3 0-11.33 10.51-15.95 18.79-16.61 8.68-.69 15.47 1.13 18.97 4.76 2.18 2.26 1.58 5.36-2.71 5.61-3.95.24-11.36.47-17.52.7-3.5.13-5.37 2-5.37 4.52 0 1.99 1.5 4.28 5.53 4.3 5.77.03 20.43.12 27.7.14 4.8.01 7.17-2.68 7.17-8.2 0-8.75-7.93-22.03-31.14-22.03-21.03 0-36.24 10.47-36.24 27.6 0 24.28 35.74 31.69 61.92 22.67 2.48-.85 4.73-2.63 4.01-5.41-.64-2.47-2.65-3.4-5.66-2.75zm164.18-23.35c.46 13.24 1.71 24.22 2.06 28.07.45 4.97 3.02 6.38 5.6 6.38 2.47 0 5.09-1.29 5.55-6.33.38-4.25 1.64-17.34 2.25-30.3.03-.67-.44-.96-.97-.87l-13.8 2.23c-.42.09-.71.42-.69.82zm7.69-18.77c-6.33 0-8.18 4.96-8.1 8 .01.56.07 2.13.16 4.07.02.44.42.86.95.79l14.4-2.34c.46-.09.68-.43.7-.79.04-.68.05-1.37.06-1.7.08-2.92-1.8-8.03-8.17-8.03zm-21.16 21.11c-4.8 0-19.61.11-29.09.14-4.6.01-5.75 2.48-5.75 4.53 0 1.78 1.23 4.08 5.52 4.3 6.54.34 14.85.73 18.69.93 5.17.27 5.24 2.92 3.49 5.2-3.51 4.57-12.05 7.56-20.9 7.56-11.58 0-24.32-6.59-24.32-17.03 0-9.79 10.9-20.58 43.3-16.03 2.85.4 5.65-.11 6.35-2.75.74-2.8-1.08-4.6-4.76-5.57-7.34-1.93-14.03-2.39-20.43-2.39-21.8 0-39.29 10.41-39.29 27.23 0 17.96 17.42 26.74 39.13 26.74 24.25 0 36.06-13.2 36.06-24.74.02-5.87-2.97-8.12-8-8.12z"></path></svg>