<!DOCTYPE svg PUBLIC "-//W3C//DTD SVG 20010904//EN" "http://www.w3.org/TR/2001/REC-SVG-20010904/DTD/svg10.dtd">
<svg version="1.0" xmlns="http://www.w3.org/2000/svg" width="285px" height="78px" viewBox="0 0 2850 780" preserveAspectRatio="xMidYMid meet">
<g id="layer101" fill="#5b8e3d" stroke="none">
 <path d="M117 721 c-4 -16 -3 -53 0 -81 5 -47 4 -54 -24 -83 -17 -18 -36 -42 -42 -54 -17 -34 -13 -119 8 -161 22 -43 40 -61 139 -134 84 -63 119 -106 134 -165 6 -24 14 -43 18 -43 3 0 17 44 30 98 13 53 27 100 30 105 4 4 27 -9 53 -29 46 -36 97 -118 97 -156 0 -10 4 -18 8 -18 7 0 48 139 54 184 5 32 22 28 73 -16 48 -43 84 -104 85 -145 0 -41 18 -24 34 31 56 191 60 341 13 437 -30 62 -65 92 -126 109 -42 11 -111 0 -138 -22 -8 -6 -23 -3 -45 8 -41 22 -123 23 -163 2 -27 -15 -32 -15 -60 0 -16 8 -52 16 -80 16 -27 1 -53 5 -57 11 -4 5 -5 38 -1 73 5 58 4 62 -14 62 -15 0 -22 -9 -26 -29z"/>
 <path d="M1737 553 c-4 -3 -7 -73 -7 -155 l0 -148 35 0 35 0 0 63 0 62 41 -62 c37 -57 45 -63 75 -63 19 0 34 3 34 8 0 4 -20 36 -44 72 l-43 65 58 72 c33 39 59 76 59 82 0 14 -45 14 -70 1 -11 -6 -40 -35 -65 -66 l-45 -56 0 66 c0 66 0 66 -28 66 -16 0 -32 -3 -35 -7z"/>
 <path d="M2067 553 c-4 -3 -7 -62 -7 -130 l0 -123 -45 0 c-41 0 -45 -2 -45 -25 l0 -25 125 0 125 0 0 25 c0 23 -4 25 -45 25 l-45 0 0 130 0 130 -28 0 c-16 0 -32 -3 -35 -7z"/>
 <path d="M2462 552 c-29 -3 -36 -10 -59 -57 -22 -44 -54 -75 -78 -75 -3 0 -5 29 -5 65 l0 65 -35 0 -35 0 0 -150 0 -150 75 0 c81 0 127 16 145 49 16 32 12 66 -13 93 l-23 25 23 34 c22 32 49 98 41 102 -1 1 -18 1 -36 -1z m-112 -172 c35 0 50 -12 50 -40 0 -20 -6 -29 -22 -34 -53 -14 -58 -10 -57 47 0 28 3 46 6 40 2 -7 13 -13 23 -13z"/>
 <path d="M2596 550 c-60 -18 -96 -73 -96 -147 0 -90 63 -153 153 -153 103 0 157 54 157 158 0 51 -4 65 -27 93 -45 53 -113 71 -187 49z m119 -75 c19 -18 25 -35 25 -68 0 -63 -29 -97 -81 -97 -73 0 -109 66 -79 145 18 48 96 60 135 20z"/>
 <path d="M980 400 l0 -150 110 0 110 0 0 25 c0 24 -2 25 -75 25 l-75 0 0 35 0 35 70 0 c68 0 70 1 70 25 0 24 -2 25 -70 25 l-70 0 0 40 0 40 75 0 c73 0 75 1 75 25 l0 25 -110 0 -110 0 0 -150z"/>
 <path d="M1240 400 l0 -150 35 0 35 0 0 125 0 125 60 0 c57 0 60 1 60 25 0 25 0 25 -95 25 l-95 0 0 -150z"/>
 <path d="M1470 400 l0 -150 110 0 110 0 0 25 c0 24 -2 25 -75 25 l-75 0 0 35 0 35 70 0 c68 0 70 1 70 25 0 24 -2 25 -70 25 l-70 0 0 40 0 40 75 0 c73 0 75 1 75 25 l0 25 -110 0 -110 0 0 -150z"/>
 </g>
<g id="layer102" fill="#82a943" stroke="none">
 <path d="M380 595 c-32 -10 -54 -26 -78 -56 -17 -24 -32 -49 -32 -56 0 -8 -4 -11 -10 -8 -5 3 -10 1 -10 -5 0 -7 -23 5 -51 25 l-52 37 7 -27 c5 -18 -1 -47 -16 -86 -21 -53 -25 -58 -48 -52 -14 3 -31 10 -38 16 -17 13 -15 2 7 -42 21 -41 54 -72 149 -140 67 -48 118 -114 128 -167 3 -19 9 -34 13 -34 7 0 51 166 51 194 0 25 17 19 65 -20 43 -35 95 -120 95 -156 0 -47 19 -8 42 84 14 56 30 104 35 105 16 6 103 -77 123 -118 11 -21 20 -50 20 -64 0 -47 17 -26 38 48 66 226 55 387 -32 473 -52 52 -107 70 -168 53 -24 -6 -48 -15 -55 -21 -8 -6 -21 -4 -40 5 -44 23 -94 27 -143 12z m-160 -265 c-10 -19 -11 -19 -42 0 -17 10 -35 17 -39 14 -9 -5 9 63 23 90 9 16 13 12 39 -33 24 -41 27 -55 19 -71z m70 -82 c0 -3 -13 7 -30 23 -17 18 -27 36 -23 45 4 11 12 5 29 -23 13 -21 24 -41 24 -45z"/>
 </g>
<g id="layer103" fill="#3291ce" stroke="none">
 <path d="M381 595 c-48 -15 -94 -61 -112 -114 -15 -45 3 -130 37 -171 14 -16 65 -61 114 -100 67 -54 95 -83 114 -122 14 -29 26 -60 26 -70 0 -10 4 -18 8 -18 12 0 63 210 55 224 -6 11 24 -13 85 -69 40 -35 72 -94 72 -130 0 -46 17 -26 38 48 47 160 54 316 18 402 -20 47 -59 90 -100 112 -38 20 -116 20 -156 -1 -27 -13 -36 -14 -59 -2 -42 22 -93 26 -140 11z"/>
 </g>
<g id="layer104" fill="#f8a231" stroke="none">
 <path d="M615 598 c-22 -5 -52 -20 -67 -35 -29 -28 -62 -89 -61 -113 3 -38 -6 -41 -48 -14 l-41 26 7 -51 c4 -27 4 -54 1 -60 -4 -5 -27 -1 -56 10 -63 24 -70 24 -70 0 0 -28 39 -71 140 -151 67 -54 95 -83 114 -122 14 -29 26 -60 26 -70 0 -10 4 -18 8 -18 12 0 63 210 55 224 -6 11 24 -13 85 -69 40 -35 72 -94 72 -130 0 -46 17 -26 38 48 47 160 54 316 18 402 -40 96 -127 144 -221 123z"/>
 </g>
<g id="layer105" fill="#83b0e1" stroke="none">
 <path d="M405 411 c4 -27 4 -54 1 -60 -4 -5 -27 -1 -56 10 -63 24 -70 24 -70 0 0 -28 39 -71 140 -151 67 -54 95 -83 114 -122 14 -29 26 -60 26 -70 0 -10 4 -18 8 -18 11 0 63 206 56 223 -2 7 -21 23 -41 37 -43 30 -93 104 -93 139 0 13 -3 22 -6 18 -3 -3 -24 5 -46 19 l-40 26 7 -51z"/>
 </g>

</svg>