<svg xmlns="http://www.w3.org/2000/svg" viewBox="0.8140817284584045 0.3084449768066406 1003.935546875 434.7570495605469"><g fill="none"><path fill="#1062AC" d="M459.41 131.63c21.89.36 43.36-.7 64.66 4.24 25.5 5.9 34.59 16.59 35 42.25.29 17.24-.74 34.56.72 51.69 1.09 12.82-4.27 16.3-15 13.94-11.77-2.6-29.09 9.7-33.77-13.09-20.38 16.81-43 19.1-67.11 13.46-14.91-3.5-26.15-11.26-27.07-27.76-.9-16.19 8.68-25.52 23-31.52 18.78-7.88 38.84-6.13 58.29-9 5-.72 12.89 2.51 13.14-6.24.17-6.12-4.78-10.21-10.61-12.26-6.86-2.41-15.12-3.87-20.25.86-16.65 15.35-36.07 6.69-54.83 9.16.72-16.45 9.44-26.66 20.5-35.86 52.82-43.94 113.87-72 178.76-92.39C699.84 15.58 775.7-3.41 855.49.93c29.58 1.61 58.32 5.9 85.41 18.26 55.7 25.43 76.21 72.74 56.57 130.79-15.62 46.16-45.75 82.58-81.61 113.81-122.4 106.67-264.4 165.71-427.42 171.17a233.35 233.35 0 01-82.85-12.56c-55.49-18.82-93-53.39-78.6-125.44 8.27 47 47 60.71 82.86 66 40.1 5.92 82.2-.91 122.37-12.28 82.45-23.35 156.76-60.53 214.51-125.74 18-20.31 31.71-43.2 34.69-71 2.86-26.73-7.3-47.24-30.29-61.28-21.28-13-44.7-17.22-69.31-18.42-80.11-3.9-152.36 21.95-222.41 57.39zm38.37 65.77c-20.43.26-30.54 5.3-29.06 14.76 1.52 9.62 9.62 11.17 17.41 11.06 12.7-.19 22.78-5.67 24.4-19.18 1.38-11.47-8.6-4.89-12.75-6.64z"></path><path fill="#1062AC" d="M167.08 188.13c0-13.41.65-26.86-.23-40.2-.58-8.72.6-13.16 10.74-12.39 11.42.88 29.76-4 33.21 1.37 12.23 18.92 19.66 1.67 28.52-.91 20.3-5.9 39.45-5.3 55.27 10.1 6.15 6 9.18 5.46 15.25.23 15-12.86 32.72-16.54 51.93-12.14 21.28 4.87 31.77 17.23 32.32 38.91.49 19.78-.34 39.59.34 59.36.33 9.58-3.43 11.33-12.15 11.68-37.84 1.51-37.82 1.82-37.83-35.78 0-9.57-.12-19.15 0-28.73.11-11-4-18.9-15.83-19.94-13.47-1.19-20.73 7.16-21.89 19a271.51 271.51 0 00-.63 47.79c1.16 14.59-3.65 18.2-17.89 17.78-32.45-1-32.47-.15-32.47-33.45 0-9.58-.19-19.16 0-28.73.3-12.33-3.23-22.14-17.35-22.42-13.34-.26-19.62 9-20.37 20.88a446.48 446.48 0 00-.28 49.76c.52 10.94-3.19 13.75-13.91 13.87-36.67.4-36.66.85-36.66-35v-21.04h-.09z"></path><path fill="#EC3338" d="M140.35 214.43c-1.53 15.52-12.1 21.51-23.65 25.75-27.9 10.24-56.25 10.16-84.41 1.25-21.92-6.94-30.21-24.06-31.34-45.49-1.15-22.5 4.77-42.17 26.49-53 27.66-13.73 56.5-14.81 85.16-3.59 19.59 7.67 31.33 28.87 31.41 50.68 0 10-5.67 9.66-12.35 9.65-21.07 0-42.15-.39-63.2.22-5.68.16-16.63-4.75-15.3 7.48 1.2 11.11 9.73 20.36 21 16.45 21.39-7.4 42.15-15.36 66.19-9.4zm-70.5-32.86c9.24-2.63 25 1 27.13-10.67 2-11-11.16-15.45-22.06-15-10.55.47-20.91 3.33-22 16.26-1.1 13.2 9.69 7.85 16.93 9.41zm611.12 16c-11.49 0-23-.24-34.48.14-3.86.13-9.66-2.69-11.07 3.79-1.12 5.18.12 10.6 4.67 13.79 11.61 8.16 25.32 10 34.86-.38 13.26-14.46 28.65-6.83 42.91-7.36 7.45-.27 6.29 8.07 3.24 13.44-4.6 8.1-11.84 13.48-20.45 16.51-28.59 10-57.86 10.62-86.4 1.47-26.17-8.4-36.51-35.4-28.71-68.65 5.19-22.15 28.42-37.07 53.3-34.86 12.47 1.11 23.82-6.09 37.09-3.94 30.82 5 48.95 24.27 50.38 55.44.42 9-2.94 11-10.86 10.76-11.48-.4-22.98-.1-34.48-.15zm-30.16-18.66c8.8-5.28 26 1.75 28.72-10.35 2.45-11-11.41-14.43-22.2-14.11-10.79.32-20.73 2.63-22.08 15.66-1.32 12.71 9.05 6.53 15.56 8.84v-.04z"></path></g></svg>