<svg xmlns="http://www.w3.org/2000/svg" viewBox="-0.00078582763671875 0.94638991355896 562.8705444335938 111.90985870361328"><g fill="none"><path fill="#006A6A" d="M.4 2.3C.2 3 .1 8.1.2 13.6l.3 9.9 39.3.5c21.7.3 39.8.2 40.3-.1.6-.3.8-5.4.7-11.5l-.3-10.9-39.8-.3C8.3 1 .9 1.2.4 2.3zm412.3-.6c-.4.3-.7 20.6-.7 44.9 0 41.8.1 44.6 2 49.7 2.5 6.6 7.8 11.9 15 14.7 4.5 1.8 6.8 2.1 13 1.7 4.1-.3 9.1-1.2 11-2 5.8-2.5 12.2-7.6 11.8-9.5-.2-.9-2.9-4.1-6.1-7.1l-5.8-5.4-3.5 1.6c-6.1 3-10.3 1.7-12.4-3.7-.6-1.5-1-11.1-1-22.1 0-22.7-1.6-20.4 14.5-20.8l10-.2.3-7.9c.2-4.8-.1-8.3-.8-9-.6-.6-6.1-1.3-12.3-1.6l-11.2-.5-.3-10.4c-.1-5.8-.8-11.1-1.4-11.8-1.1-1.4-20.8-1.9-22.1-.6zM143.5 25.4c-4.9 1.4-7.5 2.8-14.1 7.7-5.7 4.2-6.2 4.1-12.7-2.3-2.1-2.1-4.7-4.3-5.7-4.8-2.6-1.4-9.4-1.2-10.8.2-1.4 1.4-1.7 82.4-.4 84.6.6.9 3.7 1.2 11.8 1l10.9-.3.5-25c.6-27.4 1-29.3 7-35.3 4-4 9-5.6 16.1-4.9 7 .6 10.1 2.7 13.1 8.7 2.2 4.2 2.3 6 2.8 30.5l.5 26 11.2.3 11.2.3.7-2.5c.3-1.4.4-15.1.1-30.3-.5-28.5-.9-32.1-5.2-40.8-2-4-3.3-5.6-7.6-8.8-6.7-5.1-20-7-29.4-4.3zm85.5.1c-17 4.6-27.3 18.4-28.6 38.2-1.5 22.3 6.3 37.5 23.6 45.7 5.9 2.7 7.4 3 16.5 3 9.4 0 10.3-.1 16-3.3 3.3-1.8 7.1-4.4 8.6-5.7 1.4-1.3 3-2.4 3.6-2.4.7 0 3.9 2.5 7.2 5.6 5.9 5.4 6.1 5.5 11.3 5.2l5.3-.3.3-42c.2-38.6.1-42.1-1.5-43.3-2.2-1.6-19.4-1.7-21.1 0-.7.7-1.2 2.9-1.2 5 0 3.1-.4 3.8-1.9 3.8-1 0-2.5-.7-3.2-1.6-6.4-7.7-22.5-11.3-34.9-7.9zm29 21.7c9 5.5 12.7 16.2 10 29.2-1 4.7-2 6.7-5.8 10.6-3.9 4-5.6 5-10.3 5.9-10.3 2.1-19-1.4-24.7-10.2-2.5-3.8-2.7-5.1-2.7-13.7s.3-9.9 2.6-13.5c5.4-8.1 10.7-11.2 19.4-11.4 5.2-.1 6.9.4 11.5 3.1zm240.2-21.6c-8.2 2.2-14.3 6.6-20.4 14.6-6.3 8.3-9.5 24.4-7.2 37.3 3.6 20.8 17.2 33.6 37.2 35.1 9.4.8 16.7-1.5 24.8-7.6 2.9-2.2 5.7-4 6.2-4 .6 0 3.6 2.5 6.8 5.5 5.8 5.5 6 5.6 11.4 5.3l5.5-.3.3-42.4c.2-33.3 0-42.6-1-43.3-2.1-1.3-20.2-1-21.6.4-.7.7-1.2 2.9-1.2 5 0 3.1-.4 3.8-1.9 3.8-1 0-2.5-.7-3.2-1.6-6.4-7.7-22.8-11.3-35.7-7.8zM525.8 46c9.5 5 12.7 10.8 12.7 23 0 7.5-.3 9.1-2.8 13.2-3.6 6.2-8.2 9.6-14.5 10.8-9.9 1.8-18-1.4-23.3-9.3-3.3-5-3.4-5.6-3.4-14.7 0-8.8.2-9.8 3-14.3 6-9.7 19-13.7 28.3-8.7zM310.7 25.7c-.4.3-.7 13.4-.7 28.9 0 30.2.6 35.2 5.2 44.3 2.4 4.7 8.4 10 13.8 12.2 2.2.9 6.9 1.4 12.5 1.4 10.2-.1 15.7-2 22.2-7.8 6.1-5.4 6.6-5.4 13.6 1.3 6.1 5.8 6.3 5.9 12 6h5.7V69.1c0-38.2-.2-43-1.6-43.5-2.2-.9-19.7-.7-21.1.2-.8.5-1.2 7.9-1.5 25.2-.3 23.4-.4 24.7-2.6 29-3.4 6.5-5.6 8.5-11.5 10.5-4.4 1.5-5.9 1.5-9.6.5-5.5-1.5-10.5-6.3-12-11.5-.6-2.4-1.1-13.7-1.1-28.1 0-17.3-.3-24.3-1.2-25.2-1.3-1.3-20.9-1.8-22.1-.5zM0 45.2c.3.8 1 16.2 1.1 32.6.1 16.3.4 30.3.6 31 .4 1 7 1.2 30.2 1.1 20.1-.1 30.5 1.3 32.4 2.1 1.6.6 5.9 0 9.7 0h6.9l.3-10.5c.2-5.8.1-11-.1-11.6-.2-.6-7.1-.9-20-.8l-19.6.2-9.3-9.1c-5.2-5-22.425-9.7-22.225-10.4.4-1 20.225-1.4 42.325-1.6 21.9-.2 28.7.937 28.8-.063.2-3.7-.3-22.637-.6-22.937-.4-.4-80.8-.9-80.5 0z"></path><path fill="#FA6909" d="M67.466 112.466L0 45v67.152z"></path></g></svg>