<svg xmlns="http://www.w3.org/2000/svg" xmlns:xlink="http://www.w3.org/1999/xlink" viewBox="182 33 236 186"><defs><path id="fned069cfabdma" d="M.323 92.202v1.596c.413 50.82 41.78 91.892 92.72 91.892 50.999 0 92.365-41.189 92.66-92.129V92.44C185.409 41.499 144.043.31 93.044.31 42.103.31.736 41.381.323 92.202z"></path><path id="fned069cfabdmc" d="M.336.302a73.24 73.24 0 0028.771 5.852A73.155 73.155 0 0057.859.302H.336z"></path><path id="fned069cfabdme" d="M.33.488a73.222 73.222 0 0032.607 7.618A73.142 73.142 0 0065.522.488H.33z"></path><path id="fned069cfabdmg" d="M.177.023a73.24 73.24 0 0035.951 9.383A73.164 73.164 0 0072.057.023H.177z"></path><path id="fned069cfabdmi" d="M.386.21A73.278 73.278 0 0039.32 11.357c14.259 0 27.58-4.077 38.909-11.149H.386z"></path><path id="fned069cfabdmk" d="M.242.395C12.134 8.55 26.456 13.31 41.873 13.31c15.406 0 29.72-4.76 41.605-12.914H.242z"></path><path id="fned069cfabdmm" d="M.33.581c9.598 7.17 20.94 12.06 33.26 13.884h21.664C67.566 12.641 78.902 7.751 88.496.581H.33z"></path><path id="fned069cfabdmo" d="M.613.117C8.5 6.495 17.685 11.282 27.698 14h38.55C76.253 11.28 85.433 6.495 93.318.117H.613z"></path><path id="fned069cfabdmq" d="M.424.303c6.89 6 14.868 10.744 23.589 13.884h49.746c8.716-3.14 16.689-7.884 23.578-13.884H.424z"></path><path id="fned069cfabdms" d="M.382.489a74.547 74.547 0 0021.103 13.884h58.629A74.556 74.556 0 00101.209.489H.382z"></path><path id="fned069cfabdmu" d="M.47.024a74.842 74.842 0 0019.17 13.884h66.146A74.865 74.865 0 00104.95.024H.469z"></path><path id="fned069cfabdmw" d="M.035.21a75.105 75.105 0 0017.592 13.884h72.724A75.141 75.141 0 00107.938.21H.035z"></path><path id="fned069cfabdmy" d="M.345.396A75.336 75.336 0 0016.603 14.28h78.6A75.384 75.384 0 00111.458.396H.345z"></path><path id="fned069cfabdmA" d="M.115.582a75.536 75.536 0 0015.101 13.884h83.926a75.595 75.595 0 0015.1-13.884H.115z"></path><path id="fned069cfabdmC" d="M.612.118a75.707 75.707 0 0014.082 13.884h88.8A75.776 75.776 0 00117.574.118H.613z"></path><path id="fned069cfabdmE" d="M.554.304a75.851 75.851 0 0013.17 13.884h93.292A75.93 75.93 0 00120.186.304H.554z"></path><path id="fned069cfabdmG" d="M.574.49a75.97 75.97 0 0012.344 13.884h97.457A76.06 76.06 0 00122.719.49H.574z"></path><path id="fned069cfabdmI" d="M.03.026A76.067 76.067 0 0011.616 13.91h101.335A76.163 76.163 0 00124.542.026H.028z"></path><path id="fned069cfabdmK" d="M.192.212a76.145 76.145 0 0010.89 13.884H116.04A76.248 76.248 0 00126.932.212H.192z"></path><path id="fned069cfabdmM" d="M.421.398a76.205 76.205 0 0010.243 13.884H119.01A76.313 76.313 0 00129.257.398H.421z"></path><path id="fned069cfabdmO" d="M.074.584a76.25 76.25 0 009.637 13.884h111.53A76.365 76.365 0 00130.88.584H.074z"></path><path id="fned069cfabdmQ" d="M.426.12a76.283 76.283 0 009.067 13.883h114.52A76.403 76.403 0 00133.083.12H.427z"></path><path id="fned069cfabdmS" d="M.197.305A76.307 76.307 0 008.725 14.19h117.332A76.43 76.43 0 00134.59.305H.197z"></path><path id="fned069cfabdmU" d="M.023.491a76.324 76.324 0 008.016 13.884h119.98A76.451 76.451 0 00136.043.491H.022z"></path><path id="fned069cfabdmW" d="M.54.027A76.336 76.336 0 008.07 13.91h122.473A76.466 76.466 0 00138.078.027H.54z"></path><path id="fned069cfabdmY" d="M.472.213a76.346 76.346 0 007.063 13.884h124.82A76.478 76.478 0 00139.424.213H.472z"></path><path id="fned069cfabdmaa" d="M.454.399a76.356 76.356 0 006.614 13.884h127.03A76.49 76.49 0 00140.72.399H.454z"></path><path id="fned069cfabdmac" d="M.485.585a76.369 76.369 0 006.182 13.884h129.11a76.503 76.503 0 006.19-13.884H.485z"></path><path id="fned069cfabdmae" d="M.563.12A76.386 76.386 0 006.33 14.004h131.064A76.52 76.52 0 00143.167.12H.563z"></path><path id="fned069cfabdmag" d="M0 .128A76.413 76.413 0 005.412 14.19H138.31A76.547 76.547 0 00143.73.128H0z"></path><path id="fned069cfabdmai" d="M.13.136a76.452 76.452 0 004.977 14.062h134.786A76.584 76.584 0 00144.878.136H.131z"></path><path id="fned069cfabdmak" d="M.315.144a76.505 76.505 0 004.553 14.062H141.41A76.636 76.636 0 00145.972.144H.315z"></path><path id="fned069cfabdmam" d="M.552.152a76.576 76.576 0 004.141 14.062h138.169A76.704 76.704 0 00147.013.152H.553z"></path><path id="fned069cfabdmao" d="M.203.16a76.666 76.666 0 003.74 14.062h139.67A76.79 76.79 0 00147.365.16H.203z"></path><path id="fned069cfabdmaq" d="M.543.168A76.779 76.779 0 003.89 14.23h141.054A76.899 76.899 0 00148.302.168H.542z"></path><path id="fned069cfabdmas" d="M.295.176a76.916 76.916 0 002.962 14.062h142.321A77.031 77.031 0 00148.552.176H.295z"></path><path id="fned069cfabdmau" d="M.096.184a77.081 77.081 0 002.585 14.062h143.475A77.191 77.191 0 00148.752.184H.096z"></path><path id="fned069cfabdmaw" d="M.585.192A77.277 77.277 0 002.8 14.254h144.517A77.38 77.38 0 00149.542.192H.585z"></path><path id="fned069cfabdmay" d="M.484.2c.19 4.816.82 9.517 1.848 14.062h145.452A77.601 77.601 0 00149.644.2H.485z"></path><path id="fned069cfabdmaA" d="M.432.207c.07 4.81.58 9.51 1.487 14.063h146.28A77.857 77.857 0 00149.7.207H.432z"></path><path id="fned069cfabdmaC" d="M1.557 14.278A78 78 0 01.427.215h149.278l.002.24v1.012a78.045 78.045 0 01-1.145 12.81H1.557z"></path><path id="fned069cfabdmaE" d="M1.247 14.286A78.152 78.152 0 01.47.223h149.192c.025.725.04 1.453.045 2.183v1.012c-.026 3.69-.31 7.32-.833 10.868H1.247z"></path><path id="fned069cfabdmaG" d="M.987 14.293A78.315 78.315 0 01.561.231h149.01c.08 1.366.126 2.742.136 4.126V5.37a78.348 78.348 0 01-.571 8.924H.987z"></path><path id="fned069cfabdmaI" d="M.777 14.301A78.49 78.49 0 01.7.24h148.73c.17 2.002.263 4.026.277 6.07v1.01a78.517 78.517 0 01-.36 6.98H.778z"></path><path id="fned069cfabdmaK" d="M.616 14.31A78.676 78.676 0 01.89.246h148.353c.289 2.633.446 5.306.465 8.013v1.012a78.696 78.696 0 01-.196 5.037H.616z"></path><path id="fned069cfabdmaM" d="M.504 14.317A78.874 78.874 0 011.127.255h147.876c.441 3.258.68 6.58.704 9.956v1.012a78.888 78.888 0 01-.082 3.094H.504z"></path><path id="fned069cfabdmaO" d="M.44 14.325A78.099 78.099 0 011.415.263h147.3c.625 3.876.964 7.85.992 11.9v1.011c-.003.385-.008.768-.016 1.151H.44z"></path><path id="fned069cfabdmaQ" d="M149.707 14.333v-.22a77.972 77.972 0 00-1.33-13.842H1.753a77.932 77.932 0 00-1.33 14.062h149.283z"></path><path id="fned069cfabdmaS" d="M149.676 14.341a77.717 77.717 0 00-1.69-14.062H2.143A77.662 77.662 0 00.455 14.34h149.221z"></path><path id="fned069cfabdmaU" d="M149.596 14.349A77.48 77.48 0 00147.542.287H2.587A77.428 77.428 0 00.535 14.349h149.061z"></path><path id="fned069cfabdmaW" d="M148.83 14.357A77.283 77.283 0 00146.407.295H2.445a77.227 77.227 0 00-2.42 14.062h148.804z"></path><path id="fned069cfabdmaY" d="M148.652 14.365A77.103 77.103 0 00145.856.303H2.996A77.056 77.056 0 00.202 14.365h148.45z"></path><path id="fned069cfabdmba" d="M148.426 14.373A76.958 76.958 0 00145.249.31H3.604A76.914 76.914 0 00.428 14.373h147.998z"></path><path id="fned069cfabdmbc" d="M147.511 14.38A76.838 76.838 0 00143.946.319H3.63A76.797 76.797 0 00.066 14.381H147.51z"></path><path id="fned069cfabdmbe" d="M147.184 14.389A76.741 76.741 0 00143.222.326H4.354A76.704 76.704 0 00.392 14.39h146.792z"></path><path id="fned069cfabdmbg" d="M146.167 14.396A76.665 76.665 0 00141.8.334H4.5A76.63 76.63 0 00.133 14.396h146.035z"></path><path id="fned069cfabdmbi" d="M145.737 14.404A76.606 76.606 0 00140.952.342H5.348A76.574 76.574 0 00.563 14.404h145.174z"></path><path id="fned069cfabdmbk" d="M144.615 14.412A76.563 76.563 0 00139.4.35H5.622A76.533 76.533 0 00.408 14.412h144.207z"></path><path id="fned069cfabdmbm" d="M143.438 14.42A76.531 76.531 0 00137.781.358H5.965A76.505 76.505 0 00.308 14.42h143.13z"></path><path id="fned069cfabdmbo" d="M142.206 14.428A76.509 76.509 0 00136.09.366H6.379A76.485 76.485 0 00.264 14.428h141.942z"></path><path id="fned069cfabdmbq" d="M140.917 14.436A76.493 76.493 0 00134.326.374H6.866a76.472 76.472 0 00-6.59 14.062h140.64z"></path><path id="fned069cfabdmbs" d="M139.569 14.444A76.48 76.48 0 00132.483.382H7.433A76.462 76.462 0 00.348 14.444h139.22z"></path><path id="fned069cfabdmbu" d="M138.16 14.452A76.467 76.467 0 00130.557.39H8.083A76.452 76.452 0 00.479 14.452H138.16z"></path><path id="fned069cfabdmbw" d="M136.051 14.46A76.45 76.45 0 00127.905.398H8.182A76.438 76.438 0 00.035 14.46h136.016z"></path><path id="fned069cfabdmby" d="M134.515 14.468A76.427 76.427 0 00125.797.405H9.014a76.418 76.418 0 00-8.72 14.063h134.221z"></path><path id="fned069cfabdmbA" d="M132.912 14.475a76.392 76.392 0 00-9.524-14.3H10.146a76.385 76.385 0 00-9.525 14.3h132.291z"></path><path id="fned069cfabdmbC" d="M130.47 14.896A76.338 76.338 0 00120.2.596H10.78a76.334 76.334 0 00-10.27 14.3h129.96z"></path><path id="fned069cfabdmbE" d="M127.933 14.666a76.262 76.262 0 00-11.075-14.3H11.57a76.261 76.261 0 00-11.076 14.3h127.439z"></path><path id="fned069cfabdmbG" d="M125.298 14.437a76.16 76.16 0 00-11.956-14.3H12.532a76.161 76.161 0 00-11.956 14.3h124.722z"></path><path id="fned069cfabdmbI" d="M121.92 14.857a76.025 76.025 0 00-12.93-14.3H13.055a76.03 76.03 0 00-12.931 14.3h121.794z"></path><path id="fned069cfabdmbK" d="M119.066 14.627a75.855 75.855 0 00-14.021-14.3H14.447a75.86 75.86 0 00-14.022 14.3h118.641z"></path><path id="fned069cfabdmbM" d="M115.453 14.398a75.644 75.644 0 00-15.265-14.3H15.474a75.651 75.651 0 00-15.266 14.3h115.245z"></path><path id="fned069cfabdmbO" d="M111.707 14.818a75.388 75.388 0 00-16.71-14.3h-78.16a75.397 75.397 0 00-16.712 14.3h111.582z"></path><path id="fned069cfabdmbQ" d="M107.815 14.589a75.083 75.083 0 00-18.44-14.3H18.628a75.093 75.093 0 00-18.442 14.3h107.628z"></path><path id="fned069cfabdmbS" d="M103.76 14.359A74.727 74.727 0 0083.168.059H21.005A74.738 74.738 0 00.413 14.36H103.76z"></path><path id="fned069cfabdmbU" d="M98.882 14.78C92.063 8.645 84.136 3.76 75.446.48H23.62C14.93 3.76 7.004 8.645.184 14.78h98.698z"></path><path id="fned069cfabdmbW" d="M93.794 14.55C85.775 7.956 76.392 3.019 66.142.25H27.818C17.568 3.02 8.185 7.956.166 14.55h93.628z"></path><path id="fned069cfabdmbY" d="M88.458 14.32C77.939 6.47 65.33 1.36 51.639.02H37.214c-13.69 1.34-26.3 6.45-36.818 14.3h88.062z"></path><path id="fned069cfabdmca" d="M82.185 12.79C70.429 4.906 56.359.32 41.235.32 26.112.32 12.042 4.907.286 12.79h81.899z"></path><path id="fned069cfabdmcc" d="M75.54 10.608A73.184 73.184 0 0038.043.32 73.184 73.184 0 00.55 10.608h74.99z"></path><path id="fned069cfabdmce" d="M67.13 8.427A73.145 73.145 0 0033.575.32 73.143 73.143 0 00.022 8.427H67.13z"></path><path id="fned069cfabdmcg" d="M58.031 6.246A73.153 73.153 0 0029.107.32 73.149 73.149 0 00.185 6.246H58.03z"></path><path id="fned069cfabdmci" d="M186 100.78c-4.002 47.54-43.984 84.85-92.719 84.85-51.355 0-92.984-41.483-92.984-92.66C.297 41.794 41.927.31 93.281.31c48.735 0 88.717 37.31 92.719 84.799v15.672z"></path><path id="fned069cfabdmck" d="M.133 6.25A73.305 73.305 0 0128.277.35h1.401a73.076 73.076 0 0128.202 5.9H.133z"></path><path id="fned069cfabdmcm" d="M.14 8.016A73.299 73.299 0 0132.105.35h1.402a73.076 73.076 0 0132.019 7.666H.139z"></path><path id="fned069cfabdmco" d="M.632 9.782A73.324 73.324 0 0135.936.35h1.402a73.108 73.108 0 0135.35 9.432H.632z"></path><path id="fned069cfabdmcq" d="M.21 11.548A73.36 73.36 0 0138.49.35h1.401c14.037.123 27.151 4.202 38.322 11.198H.21z"></path><path id="fned069cfabdmcs" d="M.07 13.314C11.791 5.26 25.88.504 41.042.35h1.401c15.18.133 29.28 4.893 41.011 12.964H.07z"></path><path id="fned069cfabdmcu" d="M33.159.545C20.942 2.415 9.69 7.298.16 14.43h88.307C78.952 7.299 67.717 2.415 55.518.545h-22.36z"></path><path id="fned069cfabdmcw" d="M27.42.36C17.45 3.096 8.304 7.88.445 14.244h92.84C85.44 7.881 76.307 3.096 66.352.36H27.42z"></path><path id="fned069cfabdmcy" d="M23.778.174C15.084 3.324 7.131 8.067.258 14.06h97.04C90.438 8.067 82.497 3.324 73.816.174H23.778z"></path><path id="fned069cfabdmcA" d="M21.272.64A74.655 74.655 0 00.218 14.524h100.949A74.552 74.552 0 0080.144.64H21.272z"></path><path id="fned069cfabdmcC" d="M19.44.454A74.943 74.943 0 00.308 14.34h104.598A74.86 74.86 0 0085.799.454H19.441z"></path><path id="fned069cfabdmcE" d="M18.075.269A75.197 75.197 0 00.512 14.154h108.015A75.132 75.132 0 0090.99.269H18.075z"></path><path id="fned069cfabdmcG" d="M16.418.084A75.42 75.42 0 00.185 13.968h111.22A75.371 75.371 0 0095.195.084H16.418z"></path><path id="fned069cfabdmcI" d="M15.674.549A75.61 75.61 0 00.594 14.434h114.23A75.578 75.578 0 0099.765.549h-84.09z"></path><path id="fned069cfabdmcK" d="M14.517.364A75.772 75.772 0 00.453 14.248h117.064A75.754 75.754 0 00103.47.364H14.517z"></path><path id="fned069cfabdmcM" d="M13.55.178A75.906 75.906 0 00.396 14.063h119.73A75.902 75.902 0 00106.988.178H13.55z"></path><path id="fned069cfabdmcO" d="M12.747.644A76.016 76.016 0 00.417 14.528h122.24A76.025 76.025 0 00110.341.644H12.747z"></path><path id="fned069cfabdmcQ" d="M12.086.458A76.104 76.104 0 00.511 14.343h124.603A76.124 76.124 0 00113.554.458H12.085z"></path><path id="fned069cfabdmcS" d="M10.915.273A76.172 76.172 0 00.036 14.158h126.828A76.202 76.202 0 00115.998.273H10.915z"></path><path id="fned069cfabdmcU" d="M10.498.088A76.223 76.223 0 00.266 13.973h128.92A76.263 76.263 0 00118.966.088H10.499z"></path><path id="fned069cfabdmcW" d="M10.184.553A76.26 76.26 0 00.558 14.438h130.888A76.308 76.308 0 00121.831.553H10.184z"></path><path id="fned069cfabdmcY" d="M9.329.368A76.285 76.285 0 00.272 14.253h132.736A76.34 76.34 0 00123.961.368H9.33z"></path><path id="fned069cfabdmda" d="M8.562.183A76.3 76.3 0 00.044 14.067h134.468A76.362 76.362 0 00126.003.183H8.562z"></path><path id="fned069cfabdmdc" d="M8.516.648A76.31 76.31 0 00.509 14.532h136.09A76.377 76.377 0 00128.601.648H8.516z"></path><path id="fned069cfabdmde" d="M7.909.463a76.315 76.315 0 00-7.52 13.884h137.606A76.387 76.387 0 00130.483.463H7.909z"></path><path id="fned069cfabdmdg" d="M7.375.277A76.318 76.318 0 00.322 14.162h139.016A76.394 76.394 0 00132.292.277H7.375z"></path><path id="fned069cfabdmdi" d="M6.91.092A76.323 76.323 0 00.304 13.977h140.327A76.4 76.4 0 00134.033.092H6.91z"></path><path id="fned069cfabdmdk" d="M6.51.557A76.33 76.33 0 00.335 14.442h141.54A76.41 76.41 0 00135.71.557H6.509z"></path><path id="fned069cfabdmdm" d="M6.172.372A76.343 76.343 0 00.416 14.257h142.657A76.423 76.423 0 00137.322.372H6.172z"></path><path id="fned069cfabdmdo" d="M5.894.187A76.365 76.365 0 00.492 14.25h143.781A76.446 76.446 0 00138.876.187H5.894z"></path><path id="fned069cfabdmdq" d="M5.59.18A76.4 76.4 0 00.624 14.243h144.794A76.48 76.48 0 00140.456.18H5.59z"></path><path id="fned069cfabdmds" d="M4.714.172A76.449 76.449 0 00.17 14.235h145.7A76.528 76.528 0 00141.33.172H4.715z"></path><path id="fned069cfabdmdu" d="M4.54.165A76.516 76.516 0 00.41 14.228h146.498A76.593 76.593 0 00142.78.165H4.54z"></path><path id="fned069cfabdmdw" d="M3.79.158A76.604 76.604 0 00.063 14.221h147.194A76.677 76.677 0 00143.529.158H3.791z"></path><path id="fned069cfabdmdy" d="M3.74.151A76.715 76.715 0 00.402 14.214H148.19A76.784 76.784 0 00144.857.151H3.739z"></path><path id="fned069cfabdmdA" d="M3.108.144A76.852 76.852 0 00.157 14.207h148.28a76.916 76.916 0 00-2.95-14.063H3.108z"></path><path id="fned069cfabdmdC" d="M3.171.137A77.017 77.017 0 00.598 14.2h148.674A77.075 77.075 0 00146.7.137H3.171z"></path><path id="fned069cfabdmdE" d="M2.652.13A77.213 77.213 0 00.45 14.193h148.97A77.264 77.264 0 00147.22.13H2.651z"></path><path id="fned069cfabdmdG" d="M2.187.123A77.441 77.441 0 00.351 14.186H149.52A77.486 77.486 0 00147.684.123H2.187z"></path><path id="fned069cfabdmdI" d="M1.775.116A77.705 77.705 0 00.3 14.179h149.27A77.743 77.743 0 00148.096.116H1.775z"></path><path id="fned069cfabdmdK" d="M1.415.109A77.934 77.934 0 00.298 14.172h149.275A77.965 77.965 0 00148.456.109H1.415z"></path><path id="fned069cfabdmdM" d="M1.106.102a78.087 78.087 0 00-.764 14.063h149.186a78.113 78.113 0 00-.764-14.063H1.106z"></path><path id="fned069cfabdmdO" d="M.848.095a78.251 78.251 0 00-.412 14.062h148.999a78.753 78.753 0 00-.412-14.062H.847z"></path><path id="fned069cfabdmdQ" d="M.64.087A78.427 78.427 0 00.577 14.15h148.716a78.562 78.562 0 00-.062-14.063H.64z"></path><path id="fned069cfabdmdS" d="M.48.08a78.614 78.614 0 00.288 14.063h148.335A78.383 78.383 0 00149.39.08H.48z"></path><path id="fned069cfabdmdU" d="M.37.073a78.814 78.814 0 00.638 14.063h147.855A78.215 78.215 0 00149.5.073H.37z"></path><path id="fned069cfabdmdW" d="M.308.066a78.06 78.06 0 00.99 14.063h147.274a78.058 78.058 0 00.99-14.063H.308z"></path><path id="fned069cfabdmdY" d="M.294.06A77.881 77.881 0 001.64 14.121h146.59A77.88 77.88 0 00149.577.059H.294z"></path><path id="fned069cfabdmea" d="M.328.052a77.604 77.604 0 001.705 14.063h145.805A77.603 77.603 0 00149.543.052H.328z"></path><path id="fned069cfabdmec" d="M.41.045a77.363 77.363 0 002.068 14.063h144.914A77.361 77.361 0 00149.461.045H.409z"></path><path id="fned069cfabdmee" d="M.54.038A77.155 77.155 0 002.978 14.1h143.915A77.153 77.153 0 00149.33.038H.54z"></path><path id="fned069cfabdmeg" d="M.08.03a76.978 76.978 0 002.814 14.064H145.7A76.976 76.976 0 00148.513.03H.081z"></path><path id="fned069cfabdmei" d="M.31.024a76.83 76.83 0 003.194 14.063H145.09A76.828 76.828 0 00148.285.024H.309z"></path><path id="fned069cfabdmek" d="M.588.017A76.707 76.707 0 004.172 14.08h140.25A76.706 76.706 0 00148.006.017H.588z"></path><path id="fned069cfabdmem" d="M.279.01A76.608 76.608 0 004.26 14.071h138.795A76.608 76.608 0 00147.038.01H.278z"></path><path id="fned069cfabdmeo" d="M.021.002a76.53 76.53 0 004.39 14.063H141.63A76.53 76.53 0 00146.02.002H.021z"></path><path id="fned069cfabdmeq" d="M.455.646a76.47 76.47 0 004.809 14.063h135.513A76.47 76.47 0 00145.586.646H.455z"></path><path id="fned069cfabdmes" d="M.303.639a76.426 76.426 0 005.24 14.063H139.22A76.425 76.425 0 00144.46.639H.303z"></path><path id="fned069cfabdmeu" d="M.206.632a76.394 76.394 0 005.685 14.062h131.706A76.394 76.394 0 00143.28.632H.206z"></path><path id="fned069cfabdmew" d="M.165.624A76.372 76.372 0 006.31 14.687H135.9A76.372 76.372 0 00142.046.624H.166z"></path><path id="fned069cfabdmey" d="M.181.617A76.357 76.357 0 006.803 14.68h127.328A76.357 76.357 0 00140.753.617H.18z"></path><path id="fned069cfabdmeA" d="M.256.61a76.346 76.346 0 007.12 14.063h124.905A76.345 76.345 0 00139.401.61H.256z"></path><path id="fned069cfabdmeC" d="M.392.603a76.335 76.335 0 007.64 14.063H130.35A76.334 76.334 0 00137.99.603H.392z"></path><path id="fned069cfabdmeE" d="M.591.596A76.32 76.32 0 008.777 14.66h119.55A76.32 76.32 0 00136.513.596H.591z"></path><path id="fned069cfabdmeG" d="M.216.589a76.301 76.301 0 008.762 14.063h116.595A76.301 76.301 0 00134.335.589H.216z"></path><path id="fned069cfabdmeI" d="M.548.582a76.27 76.27 0 009.573 14.3h113.032a76.27 76.27 0 009.574-14.3H.547z"></path><path id="fned069cfabdmeK" d="M.444.162a76.22 76.22 0 0010.323 14.3h109.188a76.221 76.221 0 0010.323-14.3H.444z"></path><path id="fned069cfabdmeM" d="M.433.393a76.151 76.151 0 0011.136 14.3h105.03a76.152 76.152 0 0011.136-14.3H.433z"></path><path id="fned069cfabdmeO" d="M.523.623a76.055 76.055 0 0012.024 14.301h100.521a76.056 76.056 0 0012.024-14.3H.522z"></path><path id="fned069cfabdmeQ" d="M.08.204a75.929 75.929 0 0013.007 14.3h95.611a75.93 75.93 0 0013.008-14.3H.079z"></path><path id="fned069cfabdmeS" d="M.388.434a75.767 75.767 0 0014.11 14.301h90.235a75.768 75.768 0 0014.11-14.3H.389z"></path><path id="fned069cfabdmeU" d="M.181.015a75.565 75.565 0 0015.37 14.3h84.3a75.566 75.566 0 0015.37-14.3H.18z"></path><path id="fned069cfabdmeW" d="M.109.245a75.32 75.32 0 0016.835 14.301h77.684a75.32 75.32 0 0016.836-14.3H.109z"></path><path id="fned069cfabdmeY" d="M.184.476a75.026 75.026 0 0018.594 14.3h70.187a75.027 75.027 0 0018.594-14.3H.184z"></path><path id="fned069cfabdmfa" d="M.423.056a74.683 74.683 0 0020.79 14.301H82.7a74.684 74.684 0 0020.79-14.3H.422z"></path><path id="fned069cfabdmfc" d="M.21.287c6.897 6.162 14.918 11.049 23.71 14.3h50.966C83.678 11.337 91.7 6.45 98.596.288H.21z"></path><path id="fned069cfabdmfe" d="M.212.518c8.142 6.646 17.68 11.59 28.098 14.3h37.08c10.417-2.71 19.956-7.654 28.098-14.3H.212z"></path><path id="fned069cfabdmfg" d="M.465.098c10.994 8.139 24.254 13.294 38.637 14.3h10.39c14.382-1.006 27.642-6.161 38.637-14.3H.465z"></path><path id="fned069cfabdmfi" d="M.383.329c11.71 7.78 25.696 12.3 40.722 12.3s29.013-4.52 40.722-12.3H.383z"></path><path id="fned069cfabdmfk" d="M.043.56a73.255 73.255 0 0037.232 10.117A73.255 73.255 0 0074.508.56H.043z"></path><path id="fned069cfabdmfm" d="M.204.14a73.225 73.225 0 0033.242 7.936A73.226 73.226 0 0066.688.139H.204z"></path><path id="fned069cfabdmfo" d="M.439.37a73.245 73.245 0 0028.538 5.754A73.245 73.245 0 0057.517.37H.438z"></path><path id="fned069cfabdmfq" d="M62.54 0c28.015 2.98 49.883 26.506 50.104 55.222v.883c-.236 30.745-25.287 55.54-56.13 55.54-30.96 0-56.13-25.031-56.13-55.952C.385 26.8 22.36 2.999 50.502 0h12.04z"></path><path id="fned069cfabdmfs" d="M51.19 0C22.63 2.595.295 26.66.295 56.044c0 29.057 21.972 52.943 50.11 55.956h12.051c28.179-3.013 50.099-26.899 50.099-55.956 0-29.365-22.44-53.448-51.005-56.044H51.189z"></path></defs><g fill="none" fill-rule="evenodd"><g transform="translate(182 33)"><mask id="fned069cfabdmb" fill="#fff"><use xlink:href="#fned069cfabdma"></use></mask><path fill="#ED1C24" d="M0 186h186V0H0z" mask="url(#fned069cfabdmb)"></path></g><g transform="translate(262.957 197.346)"><mask id="fned069cfabdmd" fill="#fff"><use xlink:href="#fned069cfabdmc"></use></mask><path fill="#9E0B0F" d="M-56.17 12.42L114.255.302V16.91H-56.17z" mask="url(#fned069cfabdmd)"></path></g><g transform="translate(259.128 195.395)"><mask id="fned069cfabdmf" fill="#fff"><use xlink:href="#fned069cfabdme"></use></mask><path fill="#9E0B0F" d="M-52.34 12.606L118.085.488v1.765L-52.34 14.372z" mask="url(#fned069cfabdmf)"></path></g><g transform="translate(255.936 194.094)"><mask id="fned069cfabdmh" fill="#fff"><use xlink:href="#fned069cfabdmg"></use></mask><path fill="#9F0B0F" d="M-49.149 12.142L121.277.023v1.765L-49.15 13.908z" mask="url(#fned069cfabdmh)"></path></g><g transform="translate(252.745 192.143)"><mask id="fned069cfabdmj" fill="#fff"><use xlink:href="#fned069cfabdmi"></use></mask><path fill="#A00C10" d="M-45.957 12.328L124.468.209v1.765l-170.425 12.12z" mask="url(#fned069cfabdmj)"></path></g><g transform="translate(250.191 190.192)"><mask id="fned069cfabdml" fill="#fff"><use xlink:href="#fned069cfabdmk"></use></mask><path fill="#A10C10" d="M-43.404 12.514L127.02.395V2.16L-43.404 14.28z" mask="url(#fned069cfabdml)"></path></g><g transform="translate(247.638 188.24)"><mask id="fned069cfabdmn" fill="#fff"><use xlink:href="#fned069cfabdmm"></use></mask><path fill="#A20C11" d="M-40.851 12.7L129.574.581v1.765L-40.85 14.466z" mask="url(#fned069cfabdmn)"></path></g><g transform="translate(245.085 186.94)"><mask id="fned069cfabdmp" fill="#fff"><use xlink:href="#fned069cfabdmo"></use></mask><path fill="#A30D11" d="M-38.298 12.236L132.128.116v1.766L-38.298 14.001z" mask="url(#fned069cfabdmp)"></path></g><g transform="translate(243.17 184.988)"><mask id="fned069cfabdmr" fill="#fff"><use xlink:href="#fned069cfabdmq"></use></mask><path fill="#A40D11" d="M-36.383 12.422L134.043.302v1.766L-36.383 14.187z" mask="url(#fned069cfabdmr)"></path></g><g transform="translate(241.255 183.037)"><mask id="fned069cfabdmt" fill="#fff"><use xlink:href="#fned069cfabdms"></use></mask><path fill="#A50D12" d="M-34.468 12.608L135.957.488v1.766L-34.468 14.373z" mask="url(#fned069cfabdmt)"></path></g><g transform="translate(239.34 181.736)"><mask id="fned069cfabdmv" fill="#fff"><use xlink:href="#fned069cfabdmu"></use></mask><path fill="#A60D12" d="M-32.553 12.143L137.872.024V1.79L-32.553 13.908z" mask="url(#fned069cfabdmv)"></path></g><g transform="translate(238.064 179.785)"><mask id="fned069cfabdmx" fill="#fff"><use xlink:href="#fned069cfabdmw"></use></mask><path fill="#A70E12" d="M-31.277 12.33L139.15.21v1.766L-31.277 14.094z" mask="url(#fned069cfabdmx)"></path></g><g transform="translate(236.149 177.834)"><mask id="fned069cfabdmz" fill="#fff"><use xlink:href="#fned069cfabdmy"></use></mask><path fill="#A80E13" d="M-29.362 12.515L141.064.396v1.766L-29.362 14.28z" mask="url(#fned069cfabdmz)"></path></g><g transform="translate(234.872 175.882)"><mask id="fned069cfabdmB" fill="#fff"><use xlink:href="#fned069cfabdmA"></use></mask><path fill="#A90E13" d="M-28.085 12.701L142.34.582v1.766L-28.085 14.466z" mask="url(#fned069cfabdmB)"></path></g><g transform="translate(232.957 174.581)"><mask id="fned069cfabdmD" fill="#fff"><use xlink:href="#fned069cfabdmC"></use></mask><path fill="#AA0F14" d="M-26.17 12.237L144.255.118v1.765L-26.17 14.002z" mask="url(#fned069cfabdmD)"></path></g><g transform="translate(231.68 172.63)"><mask id="fned069cfabdmF" fill="#fff"><use xlink:href="#fned069cfabdmE"></use></mask><path fill="#AC0F14" d="M-24.894 12.423L145.532.303V2.07L-24.894 14.188z" mask="url(#fned069cfabdmF)"></path></g><g transform="translate(230.404 170.679)"><mask id="fned069cfabdmH" fill="#fff"><use xlink:href="#fned069cfabdmG"></use></mask><path fill="#AD0F14" d="M-23.617 12.609L146.809.49v1.765L-23.617 14.374z" mask="url(#fned069cfabdmH)"></path></g><g transform="translate(229.766 169.378)"><mask id="fned069cfabdmJ" fill="#fff"><use xlink:href="#fned069cfabdmI"></use></mask><path fill="#AE1015" d="M-22.979 12.144L147.447.026V1.79L-22.98 13.91z" mask="url(#fned069cfabdmJ)"></path></g><g transform="translate(228.49 167.427)"><mask id="fned069cfabdmL" fill="#fff"><use xlink:href="#fned069cfabdmK"></use></mask><path fill="#AF1015" d="M-21.702 12.33L148.723.212v1.765L-21.702 14.096z" mask="url(#fned069cfabdmL)"></path></g><g transform="translate(227.213 165.475)"><mask id="fned069cfabdmN" fill="#fff"><use xlink:href="#fned069cfabdmM"></use></mask><path fill="#B01016" d="M-20.426 12.516L150 .398v1.765L-20.426 14.282z" mask="url(#fned069cfabdmN)"></path></g><g transform="translate(226.574 163.524)"><mask id="fned069cfabdmP" fill="#fff"><use xlink:href="#fned069cfabdmO"></use></mask><path fill="#B11116" d="M-19.787 12.702L150.638.584v1.765L-19.787 14.468z" mask="url(#fned069cfabdmP)"></path></g><g transform="translate(225.298 162.223)"><mask id="fned069cfabdmR" fill="#fff"><use xlink:href="#fned069cfabdmQ"></use></mask><path fill="#B21116" d="M-18.51 12.238L151.914.119v1.765l-170.426 12.12z" mask="url(#fned069cfabdmR)"></path></g><g transform="translate(224.66 160.272)"><mask id="fned069cfabdmT" fill="#fff"><use xlink:href="#fned069cfabdmS"></use></mask><path fill="#B31117" d="M-17.872 12.424L152.553.305V2.07L-17.872 14.19z" mask="url(#fned069cfabdmT)"></path></g><g transform="translate(224.021 158.32)"><mask id="fned069cfabdmV" fill="#fff"><use xlink:href="#fned069cfabdmU"></use></mask><path fill="#B41117" d="M-17.234 12.61L153.191.49v1.765l-170.425 12.12z" mask="url(#fned069cfabdmV)"></path></g><g transform="translate(222.745 157.02)"><mask id="fned069cfabdmX" fill="#fff"><use xlink:href="#fned069cfabdmW"></use></mask><path fill="#B51217" d="M-15.957 12.146L154.468.026v1.766L-15.957 13.911z" mask="url(#fned069cfabdmX)"></path></g><g transform="translate(222.106 155.069)"><mask id="fned069cfabdmZ" fill="#fff"><use xlink:href="#fned069cfabdmY"></use></mask><path fill="#B61218" d="M-15.32 12.331L155.107.213v1.765L-15.319 14.097z" mask="url(#fned069cfabdmZ)"></path></g><g transform="translate(221.468 153.117)"><mask id="fned069cfabdmab" fill="#fff"><use xlink:href="#fned069cfabdmaa"></use></mask><path fill="#B71218" d="M-14.68 12.518L155.744.398v1.766L-14.681 14.283z" mask="url(#fned069cfabdmab)"></path></g><g transform="translate(220.83 151.166)"><mask id="fned069cfabdmad" fill="#fff"><use xlink:href="#fned069cfabdmac"></use></mask><path fill="#B81319" d="M-14.043 12.704L156.383.584V2.35L-14.043 14.469z" mask="url(#fned069cfabdmad)"></path></g><g transform="translate(220.191 149.865)"><mask id="fned069cfabdmaf" fill="#fff"><use xlink:href="#fned069cfabdmae"></use></mask><path fill="#B91319" d="M-13.404 12.24L157.02.12v1.766L-13.404 14.004z" mask="url(#fned069cfabdmaf)"></path></g><g transform="translate(220.191 147.914)"><mask id="fned069cfabdmah" fill="#fff"><use xlink:href="#fned069cfabdmag"></use></mask><path fill="#B91319" d="M-13.404 12.247L157.02.128v1.944L-13.404 14.19z" mask="url(#fned069cfabdmah)"></path></g><g transform="translate(219.553 145.963)"><mask id="fned069cfabdmaj" fill="#fff"><use xlink:href="#fned069cfabdmai"></use></mask><path fill="#BA1319" d="M-12.766 12.255L157.66.136V2.08L-12.766 14.198z" mask="url(#fned069cfabdmaj)"></path></g><g transform="translate(218.915 144.011)"><mask id="fned069cfabdmal" fill="#fff"><use xlink:href="#fned069cfabdmak"></use></mask><path fill="#BB1319" d="M-12.128 12.263L158.298.144v1.944L-12.128 14.206z" mask="url(#fned069cfabdmal)"></path></g><g transform="translate(218.277 142.06)"><mask id="fned069cfabdman" fill="#fff"><use xlink:href="#fned069cfabdmam"></use></mask><path fill="#BC141A" d="M-11.49 12.27L158.937.153v1.943l-170.425 12.12z" mask="url(#fned069cfabdman)"></path></g><g transform="translate(218.277 140.109)"><mask id="fned069cfabdmap" fill="#fff"><use xlink:href="#fned069cfabdmao"></use></mask><path fill="#BD141A" d="M-11.49 12.279L158.937.159v1.944l-170.425 12.12z" mask="url(#fned069cfabdmap)"></path></g><g transform="translate(217.638 138.157)"><mask id="fned069cfabdmar" fill="#fff"><use xlink:href="#fned069cfabdmaq"></use></mask><path fill="#BE141A" d="M-10.851 12.287L159.574.167v1.944L-10.85 14.231z" mask="url(#fned069cfabdmar)"></path></g><g transform="translate(217.638 136.206)"><mask id="fned069cfabdmat" fill="#fff"><use xlink:href="#fned069cfabdmas"></use></mask><path fill="#BF141A" d="M-10.851 12.295L159.574.175V2.12L-10.85 14.238z" mask="url(#fned069cfabdmat)"></path></g><g transform="translate(217.638 134.255)"><mask id="fned069cfabdmav" fill="#fff"><use xlink:href="#fned069cfabdmau"></use></mask><path fill="#C0141B" d="M-10.851 12.302L159.574.184v1.943L-10.85 14.246z" mask="url(#fned069cfabdmav)"></path></g><g transform="translate(217 132.304)"><mask id="fned069cfabdmax" fill="#fff"><use xlink:href="#fned069cfabdmaw"></use></mask><path fill="#C1151B" d="M-10.213 12.31L160.213.192v1.943L-10.213 14.254z" mask="url(#fned069cfabdmax)"></path></g><g transform="translate(217 130.352)"><mask id="fned069cfabdmaz" fill="#fff"><use xlink:href="#fned069cfabdmay"></use></mask><path fill="#C2151B" d="M-10.213 12.318L160.213.2v1.943L-10.213 14.262z" mask="url(#fned069cfabdmaz)"></path></g><g transform="translate(217 128.401)"><mask id="fned069cfabdmaB" fill="#fff"><use xlink:href="#fned069cfabdmaA"></use></mask><path fill="#C3151B" d="M-10.213 12.326L160.213.207v1.944L-10.213 14.27z" mask="url(#fned069cfabdmaB)"></path></g><g transform="translate(217 126.45)"><mask id="fned069cfabdmaD" fill="#fff"><use xlink:href="#fned069cfabdmaC"></use></mask><path fill="#C4151C" d="M-10.213 12.334L160.213.215V2.16L-10.213 14.278z" mask="url(#fned069cfabdmaD)"></path></g><g transform="translate(217 124.498)"><mask id="fned069cfabdmaF" fill="#fff"><use xlink:href="#fned069cfabdmaE"></use></mask><path fill="#C5151C" d="M-10.213 12.342L160.213.223v1.944L-10.213 14.286z" mask="url(#fned069cfabdmaF)"></path></g><g transform="translate(217 122.547)"><mask id="fned069cfabdmaH" fill="#fff"><use xlink:href="#fned069cfabdmaG"></use></mask><path fill="#C6161C" d="M-10.213 12.35L160.213.231v1.944L-10.213 14.293z" mask="url(#fned069cfabdmaH)"></path></g><g transform="translate(217 120.596)"><mask id="fned069cfabdmaJ" fill="#fff"><use xlink:href="#fned069cfabdmaI"></use></mask><path fill="#C7161C" d="M-10.213 12.358L160.213.239v1.944L-10.213 14.3z" mask="url(#fned069cfabdmaJ)"></path></g><g transform="translate(217 118.645)"><mask id="fned069cfabdmaL" fill="#fff"><use xlink:href="#fned069cfabdmaK"></use></mask><path fill="#C8161C" d="M-10.213 12.366L160.213.247v1.944L-10.213 14.309z" mask="url(#fned069cfabdmaL)"></path></g><g transform="translate(217 116.693)"><mask id="fned069cfabdmaN" fill="#fff"><use xlink:href="#fned069cfabdmaM"></use></mask><path fill="#C9161D" d="M-10.213 12.374L160.213.255v1.943l-170.426 12.12z" mask="url(#fned069cfabdmaN)"></path></g><g transform="translate(217 114.742)"><mask id="fned069cfabdmaP" fill="#fff"><use xlink:href="#fned069cfabdmaO"></use></mask><path fill="#CA161D" d="M-10.213 12.382L160.213.262v1.944l-170.426 12.12z" mask="url(#fned069cfabdmaP)"></path></g><g transform="translate(217 112.79)"><mask id="fned069cfabdmaR" fill="#fff"><use xlink:href="#fned069cfabdmaQ"></use></mask><path fill="#CC171D" d="M-10.213 12.39L160.213.27v1.944l-170.426 12.12z" mask="url(#fned069cfabdmaR)"></path></g><g transform="translate(217 110.84)"><mask id="fned069cfabdmaT" fill="#fff"><use xlink:href="#fned069cfabdmaS"></use></mask><path fill="#CD171D" d="M-10.213 12.398L160.213.278v1.944L-10.213 14.341z" mask="url(#fned069cfabdmaT)"></path></g><g transform="translate(217 108.888)"><mask id="fned069cfabdmaV" fill="#fff"><use xlink:href="#fned069cfabdmaU"></use></mask><path fill="#CE171E" d="M-10.213 12.405L160.213.287V2.23L-10.213 14.35z" mask="url(#fned069cfabdmaV)"></path></g><g transform="translate(217.638 106.937)"><mask id="fned069cfabdmaX" fill="#fff"><use xlink:href="#fned069cfabdmaW"></use></mask><path fill="#CF171E" d="M-10.851 12.413L159.574.295v1.943L-10.85 14.357z" mask="url(#fned069cfabdmaX)"></path></g><g transform="translate(217.638 104.986)"><mask id="fned069cfabdmaZ" fill="#fff"><use xlink:href="#fned069cfabdmaY"></use></mask><path fill="#D0171E" d="M-10.851 12.421L159.574.303v1.943L-10.85 14.365z" mask="url(#fned069cfabdmaZ)"></path></g><g transform="translate(217.638 103.034)"><mask id="fned069cfabdmbb" fill="#fff"><use xlink:href="#fned069cfabdmba"></use></mask><path fill="#D1181E" d="M-10.851 12.43L159.574.31v1.944L-10.85 14.373z" mask="url(#fned069cfabdmbb)"></path></g><g transform="translate(218.277 101.083)"><mask id="fned069cfabdmbd" fill="#fff"><use xlink:href="#fned069cfabdmbc"></use></mask><path fill="#D2181E" d="M-11.49 12.437L158.937.318v1.944L-11.489 14.38z" mask="url(#fned069cfabdmbd)"></path></g><g transform="translate(218.277 99.132)"><mask id="fned069cfabdmbf" fill="#fff"><use xlink:href="#fned069cfabdmbe"></use></mask><path fill="#D3181F" d="M-11.49 12.445L158.937.326V2.27L-11.489 14.389z" mask="url(#fned069cfabdmbf)"></path></g><g transform="translate(218.915 97.18)"><mask id="fned069cfabdmbh" fill="#fff"><use xlink:href="#fned069cfabdmbg"></use></mask><path fill="#D4181F" d="M-12.128 12.453L158.298.334v1.944L-12.128 14.396z" mask="url(#fned069cfabdmbh)"></path></g><g transform="translate(218.915 95.23)"><mask id="fned069cfabdmbj" fill="#fff"><use xlink:href="#fned069cfabdmbi"></use></mask><path fill="#D5181F" d="M-12.128 12.46L158.298.343v1.944L-12.128 14.404z" mask="url(#fned069cfabdmbj)"></path></g><g transform="translate(219.553 93.278)"><mask id="fned069cfabdmbl" fill="#fff"><use xlink:href="#fned069cfabdmbk"></use></mask><path fill="#D6191F" d="M-12.766 12.469L157.66.35v1.944L-12.766 14.412z" mask="url(#fned069cfabdmbl)"></path></g><g transform="translate(220.191 91.327)"><mask id="fned069cfabdmbn" fill="#fff"><use xlink:href="#fned069cfabdmbm"></use></mask><path fill="#D71920" d="M-13.404 12.477L157.02.358v1.943l-170.425 12.12z" mask="url(#fned069cfabdmbn)"></path></g><g transform="translate(220.83 89.375)"><mask id="fned069cfabdmbp" fill="#fff"><use xlink:href="#fned069cfabdmbo"></use></mask><path fill="#D81920" d="M-14.043 12.485L156.383.365V2.31L-14.043 14.43z" mask="url(#fned069cfabdmbp)"></path></g><g transform="translate(221.468 87.424)"><mask id="fned069cfabdmbr" fill="#fff"><use xlink:href="#fned069cfabdmbq"></use></mask><path fill="#D91920" d="M-14.68 12.493L155.744.373v1.944l-170.426 12.12z" mask="url(#fned069cfabdmbr)"></path></g><g transform="translate(222.106 85.473)"><mask id="fned069cfabdmbt" fill="#fff"><use xlink:href="#fned069cfabdmbs"></use></mask><path fill="#DA1920" d="M-15.32 12.5L155.107.383v1.943L-15.319 14.444z" mask="url(#fned069cfabdmbt)"></path></g><g transform="translate(222.745 83.521)"><mask id="fned069cfabdmbv" fill="#fff"><use xlink:href="#fned069cfabdmbu"></use></mask><path fill="#DB1A21" d="M-15.957 12.508L154.468.39v1.943L-15.957 14.452z" mask="url(#fned069cfabdmbv)"></path></g><g transform="translate(224.021 81.57)"><mask id="fned069cfabdmbx" fill="#fff"><use xlink:href="#fned069cfabdmbw"></use></mask><path fill="#DC1A21" d="M-17.234 12.516L153.191.398V2.34L-17.234 14.46z" mask="url(#fned069cfabdmbx)"></path></g><g transform="translate(224.66 79.619)"><mask id="fned069cfabdmbz" fill="#fff"><use xlink:href="#fned069cfabdmby"></use></mask><path fill="#DD1A21" d="M-17.872 12.524L152.553.405V2.35L-17.872 14.468z" mask="url(#fned069cfabdmbz)"></path></g><g transform="translate(225.298 77.668)"><mask id="fned069cfabdmbB" fill="#fff"><use xlink:href="#fned069cfabdmbA"></use></mask><path fill="#DD1A21" d="M-18.51 12.295L151.914.175v2.182L-18.511 14.475z" mask="url(#fned069cfabdmbB)"></path></g><g transform="translate(226.574 75.066)"><mask id="fned069cfabdmbD" fill="#fff"><use xlink:href="#fned069cfabdmbC"></use></mask><path fill="#DE1A21" d="M-19.787 12.715L150.638.596v2.181l-170.425 12.12z" mask="url(#fned069cfabdmbD)"></path></g><g transform="translate(227.851 73.115)"><mask id="fned069cfabdmbF" fill="#fff"><use xlink:href="#fned069cfabdmbE"></use></mask><path fill="#DF1A21" d="M-21.064 12.485L149.362.367v2.18l-170.426 12.12z" mask="url(#fned069cfabdmbF)"></path></g><g transform="translate(229.128 71.163)"><mask id="fned069cfabdmbH" fill="#fff"><use xlink:href="#fned069cfabdmbG"></use></mask><path fill="#E01A22" d="M-22.34 12.256L148.085.136v2.182L-22.34 14.437z" mask="url(#fned069cfabdmbH)"></path></g><g transform="translate(231.043 68.562)"><mask id="fned069cfabdmbJ" fill="#fff"><use xlink:href="#fned069cfabdmbI"></use></mask><path fill="#E11B22" d="M-24.255 12.676L146.17.558v2.18l-170.425 12.12z" mask="url(#fned069cfabdmbJ)"></path></g><g transform="translate(232.32 66.61)"><mask id="fned069cfabdmbL" fill="#fff"><use xlink:href="#fned069cfabdmbK"></use></mask><path fill="#E21B22" d="M-25.532 12.447L144.894.327V2.51L-25.532 14.627z" mask="url(#fned069cfabdmbL)"></path></g><g transform="translate(234.234 64.659)"><mask id="fned069cfabdmbN" fill="#fff"><use xlink:href="#fned069cfabdmbM"></use></mask><path fill="#E31B22" d="M-27.447 12.217L142.98.098V2.28L-27.447 14.398z" mask="url(#fned069cfabdmbN)"></path></g><g transform="translate(236.149 62.057)"><mask id="fned069cfabdmbP" fill="#fff"><use xlink:href="#fned069cfabdmbO"></use></mask><path fill="#E41B22" d="M-29.362 12.638L141.064.518V2.7L-29.362 14.818z" mask="url(#fned069cfabdmbP)"></path></g><g transform="translate(238.064 60.106)"><mask id="fned069cfabdmbR" fill="#fff"><use xlink:href="#fned069cfabdmbQ"></use></mask><path fill="#E61B23" d="M-31.277 12.408L139.15.289v2.18L-31.277 14.59z" mask="url(#fned069cfabdmbR)"></path></g><g transform="translate(239.979 58.155)"><mask id="fned069cfabdmbT" fill="#fff"><use xlink:href="#fned069cfabdmbS"></use></mask><path fill="#E71B23" d="M-33.191 12.178L137.234.059V2.24L-33.191 14.36z" mask="url(#fned069cfabdmbT)"></path></g><g transform="translate(242.532 55.553)"><mask id="fned069cfabdmbV" fill="#fff"><use xlink:href="#fned069cfabdmbU"></use></mask><path fill="#E81B23" d="M-35.745 12.599L134.681.479v2.182L-35.745 14.78z" mask="url(#fned069cfabdmbV)"></path></g><g transform="translate(245.085 53.602)"><mask id="fned069cfabdmbX" fill="#fff"><use xlink:href="#fned069cfabdmbW"></use></mask><path fill="#E91B23" d="M-38.298 12.369L132.128.25v2.181L-38.298 14.55z" mask="url(#fned069cfabdmbX)"></path></g><g transform="translate(247.638 51.65)"><mask id="fned069cfabdmbZ" fill="#fff"><use xlink:href="#fned069cfabdmbY"></use></mask><path fill="#EA1C23" d="M-40.851 12.14L129.574.02v2.181L-40.85 14.321z" mask="url(#fned069cfabdmbZ)"></path></g><g transform="translate(250.83 51)"><mask id="fned069cfabdmcb" fill="#fff"><use xlink:href="#fned069cfabdmca"></use></mask><path fill="#EB1C24" d="M-44.043 10.609l170.426-12.12V.672L-44.043 12.789z" mask="url(#fned069cfabdmcb)"></path></g><g transform="translate(254.021 51)"><mask id="fned069cfabdmcd" fill="#fff"><use xlink:href="#fned069cfabdmcc"></use></mask><path fill="#EC1C24" d="M-47.234 8.428l170.425-12.12v2.182L-47.234 10.608z" mask="url(#fned069cfabdmcd)"></path></g><g transform="translate(258.49 51)"><mask id="fned069cfabdmcf" fill="#fff"><use xlink:href="#fned069cfabdmce"></use></mask><path fill="#ED1C24" d="M-51.702 6.247l170.425-12.12v2.182L-51.702 8.427z" mask="url(#fned069cfabdmcf)"></path></g><g transform="translate(262.957 51)"><mask id="fned069cfabdmch" fill="#fff"><use xlink:href="#fned069cfabdmcg"></use></mask><path fill="#ED1C24" d="M114.255-5.872L-56.17 6.246v-16.653h170.425z" mask="url(#fned069cfabdmch)"></path></g><g transform="translate(232 33)"><mask id="fned069cfabdmcj" fill="#fff"><use xlink:href="#fned069cfabdmci"></use></mask><path fill="#ED1C24" d="M0 186h186V0H0z" mask="url(#fned069cfabdmcj)"></path></g><g transform="translate(277.957 47)"><mask id="fned069cfabdmcl" fill="#fff"><use xlink:href="#fned069cfabdmck"></use></mask><path fill="#9E0B0F" d="M114.255-5.87L-56.17 6.25v-16.657h170.425z" mask="url(#fned069cfabdmcl)"></path></g><g transform="translate(274.128 47)"><mask id="fned069cfabdmcn" fill="#fff"><use xlink:href="#fned069cfabdmcm"></use></mask><path fill="#9E0B0F" d="M118.085-4.103L-52.34 8.016V6.25L118.085-5.87z" mask="url(#fned069cfabdmcn)"></path></g><g transform="translate(270.298 47)"><mask id="fned069cfabdmcp" fill="#fff"><use xlink:href="#fned069cfabdmco"></use></mask><path fill="#9F0B0F" d="M121.915-2.337L-48.511 9.782V8.016L121.915-4.103z" mask="url(#fned069cfabdmcp)"></path></g><g transform="translate(267.745 47)"><mask id="fned069cfabdmcr" fill="#fff"><use xlink:href="#fned069cfabdmcq"></use></mask><path fill="#A00C10" d="M124.468-.57L-45.957 11.547V9.782L124.468-2.337z" mask="url(#fned069cfabdmcr)"></path></g><g transform="translate(265.191 47)"><mask id="fned069cfabdmct" fill="#fff"><use xlink:href="#fned069cfabdmcs"></use></mask><path fill="#A10C10" d="M127.021 1.195L-43.404 13.314v-1.766L127.02-.571z" mask="url(#fned069cfabdmct)"></path></g><g transform="translate(262.638 47.65)"><mask id="fned069cfabdmcv" fill="#fff"><use xlink:href="#fned069cfabdmcu"></use></mask><path fill="#A20C11" d="M129.574 2.31L-40.85 14.43v-1.766L129.574.544z" mask="url(#fned069cfabdmcv)"></path></g><g transform="translate(260.085 49.602)"><mask id="fned069cfabdmcx" fill="#fff"><use xlink:href="#fned069cfabdmcw"></use></mask><path fill="#A30D11" d="M132.128 2.125l-170.426 12.12v-1.767L132.128.36z" mask="url(#fned069cfabdmcx)"></path></g><g transform="translate(258.17 51.553)"><mask id="fned069cfabdmcz" fill="#fff"><use xlink:href="#fned069cfabdmcy"></use></mask><path fill="#A40D11" d="M134.043 1.94L-36.383 14.06v-1.766L134.043.174z" mask="url(#fned069cfabdmcz)"></path></g><g transform="translate(256.255 52.854)"><mask id="fned069cfabdmcB" fill="#fff"><use xlink:href="#fned069cfabdmcA"></use></mask><path fill="#A50D12" d="M135.957 2.405l-170.425 12.12v-1.767L135.957.64z" mask="url(#fned069cfabdmcB)"></path></g><g transform="translate(254.34 54.805)"><mask id="fned069cfabdmcD" fill="#fff"><use xlink:href="#fned069cfabdmcC"></use></mask><path fill="#A60D12" d="M137.872 2.22L-32.553 14.34v-1.766L137.872.454z" mask="url(#fned069cfabdmcD)"></path></g><g transform="translate(252.426 56.756)"><mask id="fned069cfabdmcF" fill="#fff"><use xlink:href="#fned069cfabdmcE"></use></mask><path fill="#A70E12" d="M139.787 2.035L-30.638 14.154v-1.766L139.787.269z" mask="url(#fned069cfabdmcF)"></path></g><g transform="translate(251.149 58.708)"><mask id="fned069cfabdmcH" fill="#fff"><use xlink:href="#fned069cfabdmcG"></use></mask><path fill="#A80E13" d="M141.064 1.85L-29.362 13.968v-1.765L141.064.083z" mask="url(#fned069cfabdmcH)"></path></g><g transform="translate(249.234 60.009)"><mask id="fned069cfabdmcJ" fill="#fff"><use xlink:href="#fned069cfabdmcI"></use></mask><path fill="#A90E13" d="M142.979 2.315L-27.447 14.434v-1.766L142.98.548z" mask="url(#fned069cfabdmcJ)"></path></g><g transform="translate(247.957 61.96)"><mask id="fned069cfabdmcL" fill="#fff"><use xlink:href="#fned069cfabdmcK"></use></mask><path fill="#AA0F14" d="M144.255 2.13L-26.17 14.248v-1.766L144.255.364z" mask="url(#fned069cfabdmcL)"></path></g><g transform="translate(246.68 63.911)"><mask id="fned069cfabdmcN" fill="#fff"><use xlink:href="#fned069cfabdmcM"></use></mask><path fill="#AC0F14" d="M145.532 1.944l-170.426 12.12v-1.767L145.532.178z" mask="url(#fned069cfabdmcN)"></path></g><g transform="translate(245.404 65.212)"><mask id="fned069cfabdmcP" fill="#fff"><use xlink:href="#fned069cfabdmcO"></use></mask><path fill="#AD0F14" d="M146.809 2.41L-23.617 14.528v-1.766L146.809.644z" mask="url(#fned069cfabdmcP)"></path></g><g transform="translate(244.128 67.163)"><mask id="fned069cfabdmcR" fill="#fff"><use xlink:href="#fned069cfabdmcQ"></use></mask><path fill="#AE1015" d="M148.085 2.224L-22.34 14.344v-1.767L148.085.458z" mask="url(#fned069cfabdmcR)"></path></g><g transform="translate(243.49 69.115)"><mask id="fned069cfabdmcT" fill="#fff"><use xlink:href="#fned069cfabdmcS"></use></mask><path fill="#AF1015" d="M148.723 2.039L-21.702 14.158v-1.766L148.723.273z" mask="url(#fned069cfabdmcT)"></path></g><g transform="translate(242.213 71.066)"><mask id="fned069cfabdmcV" fill="#fff"><use xlink:href="#fned069cfabdmcU"></use></mask><path fill="#B01016" d="M150 1.854L-20.426 13.973v-1.766L150 .087z" mask="url(#fned069cfabdmcV)"></path></g><g transform="translate(240.936 72.367)"><mask id="fned069cfabdmcX" fill="#fff"><use xlink:href="#fned069cfabdmcW"></use></mask><path fill="#B11116" d="M151.277 2.319L-19.15 14.438v-1.766L151.277.553z" mask="url(#fned069cfabdmcX)"></path></g><g transform="translate(240.298 74.318)"><mask id="fned069cfabdmcZ" fill="#fff"><use xlink:href="#fned069cfabdmcY"></use></mask><path fill="#B21116" d="M151.915 2.134L-18.511 14.253v-1.766L151.915.367z" mask="url(#fned069cfabdmcZ)"></path></g><g transform="translate(239.66 76.27)"><mask id="fned069cfabdmdb" fill="#fff"><use xlink:href="#fned069cfabdmda"></use></mask><path fill="#B31117" d="M152.553 1.948l-170.425 12.12V12.3L152.553.183z" mask="url(#fned069cfabdmdb)"></path></g><g transform="translate(238.383 77.57)"><mask id="fned069cfabdmdd" fill="#fff"><use xlink:href="#fned069cfabdmdc"></use></mask><path fill="#B41117" d="M153.83 2.414L-16.596 14.532v-1.765L153.83.647z" mask="url(#fned069cfabdmdd)"></path></g><g transform="translate(237.745 79.521)"><mask id="fned069cfabdmdf" fill="#fff"><use xlink:href="#fned069cfabdmde"></use></mask><path fill="#B51217" d="M154.468 2.228l-170.425 12.12V12.58L154.468.463z" mask="url(#fned069cfabdmdf)"></path></g><g transform="translate(237.106 81.473)"><mask id="fned069cfabdmdh" fill="#fff"><use xlink:href="#fned069cfabdmdg"></use></mask><path fill="#B61218" d="M155.106 2.043L-15.319 14.162v-1.766L155.106.277z" mask="url(#fned069cfabdmdh)"></path></g><g transform="translate(236.468 83.424)"><mask id="fned069cfabdmdj" fill="#fff"><use xlink:href="#fned069cfabdmdi"></use></mask><path fill="#B71218" d="M155.745 1.858L-14.681 13.977V12.21L155.745.092z" mask="url(#fned069cfabdmdj)"></path></g><g transform="translate(235.83 84.725)"><mask id="fned069cfabdmdl" fill="#fff"><use xlink:href="#fned069cfabdmdk"></use></mask><path fill="#B81319" d="M156.383 2.323L-14.043 14.442v-1.766L156.383.557z" mask="url(#fned069cfabdmdl)"></path></g><g transform="translate(235.191 86.676)"><mask id="fned069cfabdmdn" fill="#fff"><use xlink:href="#fned069cfabdmdm"></use></mask><path fill="#B91319" d="M157.021 2.138L-13.404 14.257V12.49L157.02.372z" mask="url(#fned069cfabdmdn)"></path></g><g transform="translate(234.553 88.627)"><mask id="fned069cfabdmdp" fill="#fff"><use xlink:href="#fned069cfabdmdo"></use></mask><path fill="#B91319" d="M157.66 2.13L-12.766 14.25v-1.945L157.66.187z" mask="url(#fned069cfabdmdp)"></path></g><g transform="translate(233.915 90.579)"><mask id="fned069cfabdmdr" fill="#fff"><use xlink:href="#fned069cfabdmdq"></use></mask><path fill="#BA1319" d="M158.298 2.124L-12.128 14.243v-1.945L158.298.18z" mask="url(#fned069cfabdmdr)"></path></g><g transform="translate(233.915 92.53)"><mask id="fned069cfabdmdt" fill="#fff"><use xlink:href="#fned069cfabdmds"></use></mask><path fill="#BB1319" d="M158.298 2.117L-12.128 14.235v-1.944L158.298.172z" mask="url(#fned069cfabdmdt)"></path></g><g transform="translate(233.277 94.481)"><mask id="fned069cfabdmdv" fill="#fff"><use xlink:href="#fned069cfabdmdu"></use></mask><path fill="#BC141A" d="M158.936 2.11L-11.489 14.228v-1.944L158.936.165z" mask="url(#fned069cfabdmdv)"></path></g><g transform="translate(233.277 96.433)"><mask id="fned069cfabdmdx" fill="#fff"><use xlink:href="#fned069cfabdmdw"></use></mask><path fill="#BD141A" d="M158.936 2.102l-170.425 12.12v-1.945L158.936.158z" mask="url(#fned069cfabdmdx)"></path></g><g transform="translate(232.638 98.384)"><mask id="fned069cfabdmdz" fill="#fff"><use xlink:href="#fned069cfabdmdy"></use></mask><path fill="#BE141A" d="M159.574 2.095L-10.85 14.215V12.27L159.574.151z" mask="url(#fned069cfabdmdz)"></path></g><g transform="translate(232.638 100.335)"><mask id="fned069cfabdmdB" fill="#fff"><use xlink:href="#fned069cfabdmdA"></use></mask><path fill="#BF141A" d="M159.574 2.088L-10.85 14.208v-1.945L159.574.144z" mask="url(#fned069cfabdmdB)"></path></g><g transform="translate(232 102.286)"><mask id="fned069cfabdmdD" fill="#fff"><use xlink:href="#fned069cfabdmdC"></use></mask><path fill="#C0141B" d="M160.213 2.081L-10.213 14.2v-1.944L160.213.137z" mask="url(#fned069cfabdmdD)"></path></g><g transform="translate(232 104.238)"><mask id="fned069cfabdmdF" fill="#fff"><use xlink:href="#fned069cfabdmdE"></use></mask><path fill="#C1151B" d="M160.213 2.074L-10.213 14.193v-1.944L160.213.13z" mask="url(#fned069cfabdmdF)"></path></g><g transform="translate(232 106.189)"><mask id="fned069cfabdmdH" fill="#fff"><use xlink:href="#fned069cfabdmdG"></use></mask><path fill="#C2151B" d="M160.213 2.067L-10.213 14.186v-1.944L160.213.122z" mask="url(#fned069cfabdmdH)"></path></g><g transform="translate(232 108.14)"><mask id="fned069cfabdmdJ" fill="#fff"><use xlink:href="#fned069cfabdmdI"></use></mask><path fill="#C3151B" d="M160.213 2.06L-10.213 14.179v-1.944L160.213.115z" mask="url(#fned069cfabdmdJ)"></path></g><g transform="translate(232 110.092)"><mask id="fned069cfabdmdL" fill="#fff"><use xlink:href="#fned069cfabdmdK"></use></mask><path fill="#C4151C" d="M160.213 2.053L-10.213 14.172v-1.945L160.213.11z" mask="url(#fned069cfabdmdL)"></path></g><g transform="translate(232 112.043)"><mask id="fned069cfabdmdN" fill="#fff"><use xlink:href="#fned069cfabdmdM"></use></mask><path fill="#C5151C" d="M160.213 2.046L-10.213 14.165V12.22L160.213.102z" mask="url(#fned069cfabdmdN)"></path></g><g transform="translate(232 113.994)"><mask id="fned069cfabdmdP" fill="#fff"><use xlink:href="#fned069cfabdmdO"></use></mask><path fill="#C6161C" d="M160.213 2.039L-10.213 14.157v-1.944L160.213.095z" mask="url(#fned069cfabdmdP)"></path></g><g transform="translate(232 115.945)"><mask id="fned069cfabdmdR" fill="#fff"><use xlink:href="#fned069cfabdmdQ"></use></mask><path fill="#C7161C" d="M160.213 2.032L-10.213 14.15v-1.944L160.213.087z" mask="url(#fned069cfabdmdR)"></path></g><g transform="translate(232 117.897)"><mask id="fned069cfabdmdT" fill="#fff"><use xlink:href="#fned069cfabdmdS"></use></mask><path fill="#C8161C" d="M160.213 2.024l-170.426 12.12v-1.945L160.213.08z" mask="url(#fned069cfabdmdT)"></path></g><g transform="translate(232 119.848)"><mask id="fned069cfabdmdV" fill="#fff"><use xlink:href="#fned069cfabdmdU"></use></mask><path fill="#C9161D" d="M160.213 2.017l-170.426 12.12v-1.945L160.213.073z" mask="url(#fned069cfabdmdV)"></path></g><g transform="translate(232 121.8)"><mask id="fned069cfabdmdX" fill="#fff"><use xlink:href="#fned069cfabdmdW"></use></mask><path fill="#CA161D" d="M160.213 2.01L-10.213 14.13v-1.945L160.213.066z" mask="url(#fned069cfabdmdX)"></path></g><g transform="translate(232 123.75)"><mask id="fned069cfabdmdZ" fill="#fff"><use xlink:href="#fned069cfabdmdY"></use></mask><path fill="#CC171D" d="M160.213 2.003L-10.213 14.122v-1.944L160.213.059z" mask="url(#fned069cfabdmdZ)"></path></g><g transform="translate(232 125.702)"><mask id="fned069cfabdmeb" fill="#fff"><use xlink:href="#fned069cfabdmea"></use></mask><path fill="#CD171D" d="M160.213 1.996L-10.213 14.115V12.17L160.213.052z" mask="url(#fned069cfabdmeb)"></path></g><g transform="translate(232 127.653)"><mask id="fned069cfabdmed" fill="#fff"><use xlink:href="#fned069cfabdmec"></use></mask><path fill="#CE171E" d="M160.213 1.989L-10.213 14.108v-1.944L160.213.044z" mask="url(#fned069cfabdmed)"></path></g><g transform="translate(232 129.604)"><mask id="fned069cfabdmef" fill="#fff"><use xlink:href="#fned069cfabdmee"></use></mask><path fill="#CF171E" d="M160.213 1.982L-10.213 14.1v-1.944L160.213.037z" mask="url(#fned069cfabdmef)"></path></g><g transform="translate(232.638 131.556)"><mask id="fned069cfabdmeh" fill="#fff"><use xlink:href="#fned069cfabdmeg"></use></mask><path fill="#D0171E" d="M159.574 1.975L-10.85 14.094V12.15L159.574.03z" mask="url(#fned069cfabdmeh)"></path></g><g transform="translate(232.638 133.507)"><mask id="fned069cfabdmej" fill="#fff"><use xlink:href="#fned069cfabdmei"></use></mask><path fill="#D1181E" d="M159.574 1.968L-10.85 14.087v-1.945L159.574.024z" mask="url(#fned069cfabdmej)"></path></g><g transform="translate(232.638 135.458)"><mask id="fned069cfabdmel" fill="#fff"><use xlink:href="#fned069cfabdmek"></use></mask><path fill="#D2181E" d="M159.574 1.96L-10.85 14.08v-1.945L159.574.017z" mask="url(#fned069cfabdmel)"></path></g><g transform="translate(233.277 137.41)"><mask id="fned069cfabdmen" fill="#fff"><use xlink:href="#fned069cfabdmem"></use></mask><path fill="#D3181F" d="M158.936 1.954L-11.489 14.072v-1.944L158.936.01z" mask="url(#fned069cfabdmen)"></path></g><g transform="translate(233.915 139.36)"><mask id="fned069cfabdmep" fill="#fff"><use xlink:href="#fned069cfabdmeo"></use></mask><path fill="#D4181F" d="M158.298 1.947L-12.128 14.065v-1.944L158.298.002z" mask="url(#fned069cfabdmep)"></path></g><g transform="translate(233.915 140.662)"><mask id="fned069cfabdmer" fill="#fff"><use xlink:href="#fned069cfabdmeq"></use></mask><path fill="#D5181F" d="M158.298 2.59L-12.128 14.709v-1.944L158.298.645z" mask="url(#fned069cfabdmer)"></path></g><g transform="translate(234.553 142.613)"><mask id="fned069cfabdmet" fill="#fff"><use xlink:href="#fned069cfabdmes"></use></mask><path fill="#D6191F" d="M157.66 2.583L-12.766 14.702v-1.945L157.66.64z" mask="url(#fned069cfabdmet)"></path></g><g transform="translate(235.191 144.564)"><mask id="fned069cfabdmev" fill="#fff"><use xlink:href="#fned069cfabdmeu"></use></mask><path fill="#D71920" d="M157.021 2.576L-13.404 14.694V12.75L157.02.632z" mask="url(#fned069cfabdmev)"></path></g><g transform="translate(235.83 146.516)"><mask id="fned069cfabdmex" fill="#fff"><use xlink:href="#fned069cfabdmew"></use></mask><path fill="#D81920" d="M156.383 2.569L-14.043 14.687v-1.944L156.383.624z" mask="url(#fned069cfabdmex)"></path></g><g transform="translate(236.468 148.467)"><mask id="fned069cfabdmez" fill="#fff"><use xlink:href="#fned069cfabdmey"></use></mask><path fill="#D91920" d="M155.745 2.562L-14.681 14.68v-1.944L155.745.617z" mask="url(#fned069cfabdmez)"></path></g><g transform="translate(237.106 150.418)"><mask id="fned069cfabdmeB" fill="#fff"><use xlink:href="#fned069cfabdmeA"></use></mask><path fill="#DA1920" d="M155.106 2.554l-170.425 12.12v-1.945L155.106.61z" mask="url(#fned069cfabdmeB)"></path></g><g transform="translate(237.745 152.37)"><mask id="fned069cfabdmeD" fill="#fff"><use xlink:href="#fned069cfabdmeC"></use></mask><path fill="#DB1A21" d="M154.468 2.547l-170.425 12.12v-1.945L154.468.603z" mask="url(#fned069cfabdmeD)"></path></g><g transform="translate(238.383 154.32)"><mask id="fned069cfabdmeF" fill="#fff"><use xlink:href="#fned069cfabdmeE"></use></mask><path fill="#DC1A21" d="M153.83 2.54L-16.596 14.66v-1.944L153.83.596z" mask="url(#fned069cfabdmeF)"></path></g><g transform="translate(239.66 156.272)"><mask id="fned069cfabdmeH" fill="#fff"><use xlink:href="#fned069cfabdmeG"></use></mask><path fill="#DD1A21" d="M152.553 2.533L-17.872 14.652v-1.944L152.553.589z" mask="url(#fned069cfabdmeH)"></path></g><g transform="translate(240.298 158.223)"><mask id="fned069cfabdmeJ" fill="#fff"><use xlink:href="#fned069cfabdmeI"></use></mask><path fill="#DD1A21" d="M151.915 2.764L-18.511 14.883V12.7L151.915.582z" mask="url(#fned069cfabdmeJ)"></path></g><g transform="translate(241.574 160.825)"><mask id="fned069cfabdmeL" fill="#fff"><use xlink:href="#fned069cfabdmeK"></use></mask><path fill="#DE1A21" d="M150.638 2.344L-19.787 14.463V12.28L150.638.16z" mask="url(#fned069cfabdmeL)"></path></g><g transform="translate(242.851 162.776)"><mask id="fned069cfabdmeN" fill="#fff"><use xlink:href="#fned069cfabdmeM"></use></mask><path fill="#DF1A21" d="M149.362 2.575L-21.064 14.694V12.51L149.362.393z" mask="url(#fned069cfabdmeN)"></path></g><g transform="translate(244.128 164.728)"><mask id="fned069cfabdmeP" fill="#fff"><use xlink:href="#fned069cfabdmeO"></use></mask><path fill="#E01A22" d="M148.085 2.805L-22.34 14.925v-2.183L148.085.623z" mask="url(#fned069cfabdmeP)"></path></g><g transform="translate(246.043 167.33)"><mask id="fned069cfabdmeR" fill="#fff"><use xlink:href="#fned069cfabdmeQ"></use></mask><path fill="#E11B22" d="M146.17 2.386L-24.255 14.505v-2.183L146.17.204z" mask="url(#fned069cfabdmeR)"></path></g><g transform="translate(247.32 169.28)"><mask id="fned069cfabdmeT" fill="#fff"><use xlink:href="#fned069cfabdmeS"></use></mask><path fill="#E21B22" d="M144.894 2.616l-170.426 12.12v-2.183L144.894.434z" mask="url(#fned069cfabdmeT)"></path></g><g transform="translate(249.234 171.882)"><mask id="fned069cfabdmeV" fill="#fff"><use xlink:href="#fned069cfabdmeU"></use></mask><path fill="#E31B22" d="M142.979 2.197L-27.447 14.315v-2.182L142.98.015z" mask="url(#fned069cfabdmeV)"></path></g><g transform="translate(251.149 173.834)"><mask id="fned069cfabdmeX" fill="#fff"><use xlink:href="#fned069cfabdmeW"></use></mask><path fill="#E41B22" d="M141.064 2.427l-170.426 12.12v-2.183L141.064.245z" mask="url(#fned069cfabdmeX)"></path></g><g transform="translate(253.064 175.785)"><mask id="fned069cfabdmeZ" fill="#fff"><use xlink:href="#fned069cfabdmeY"></use></mask><path fill="#E61B23" d="M139.149 2.658L-31.277 14.777v-2.182L139.15.475z" mask="url(#fned069cfabdmeZ)"></path></g><g transform="translate(254.979 178.387)"><mask id="fned069cfabdmfb" fill="#fff"><use xlink:href="#fned069cfabdmfa"></use></mask><path fill="#E71B23" d="M137.234 2.238l-170.425 12.12v-2.183L137.234.056z" mask="url(#fned069cfabdmfb)"></path></g><g transform="translate(257.532 180.338)"><mask id="fned069cfabdmfd" fill="#fff"><use xlink:href="#fned069cfabdmfc"></use></mask><path fill="#E81B23" d="M134.68 2.47L-35.744 14.587v-2.182L134.681.286z" mask="url(#fned069cfabdmfd)"></path></g><g transform="translate(260.085 182.29)"><mask id="fned069cfabdmff" fill="#fff"><use xlink:href="#fned069cfabdmfe"></use></mask><path fill="#E91B23" d="M132.128 2.7L-38.298 14.819v-2.183L132.128.518z" mask="url(#fned069cfabdmff)"></path></g><g transform="translate(262.638 184.89)"><mask id="fned069cfabdmfh" fill="#fff"><use xlink:href="#fned069cfabdmfg"></use></mask><path fill="#EA1C23" d="M129.574 2.28L-40.85 14.399v-2.182L129.574.097z" mask="url(#fned069cfabdmfh)"></path></g><g transform="translate(265.83 186.842)"><mask id="fned069cfabdmfj" fill="#fff"><use xlink:href="#fned069cfabdmfi"></use></mask><path fill="#EB1C24" d="M126.383 2.51L-44.043 14.63v-2.183L126.383.33z" mask="url(#fned069cfabdmfj)"></path></g><g transform="translate(269.66 188.793)"><mask id="fned069cfabdmfl" fill="#fff"><use xlink:href="#fned069cfabdmfk"></use></mask><path fill="#EC1C24" d="M122.553 2.741l-170.425 12.12v-2.183L122.553.559z" mask="url(#fned069cfabdmfl)"></path></g><g transform="translate(273.49 191.395)"><mask id="fned069cfabdmfn" fill="#fff"><use xlink:href="#fned069cfabdmfm"></use></mask><path fill="#ED1C24" d="M118.723 2.322L-51.702 14.44v-2.182L118.723.14z" mask="url(#fned069cfabdmfn)"></path></g><g transform="translate(277.957 193.346)"><mask id="fned069cfabdmfp" fill="#fff"><use xlink:href="#fned069cfabdmfo"></use></mask><path fill="#ED1C24" d="M-56.17 12.49L114.255.37v16.541H-56.17z" mask="url(#fned069cfabdmfp)"></path></g><g transform="translate(256 73)"><mask id="fned069cfabdmfr" fill="#fff"><use xlink:href="#fned069cfabdmfq"></use></mask><path fill="#9E0B0F" d="M.646 16.736H113V0H.646z" mask="url(#fned069cfabdmfr)"></path><path fill="#9F0B10" d="M.646 33.471H113V16.736H.646z" mask="url(#fned069cfabdmfr)"></path><path fill="#9F0B10" d="M.646 36.69H113v-3.22H.646z" mask="url(#fned069cfabdmfr)"></path><path fill="#A00C10" d="M.646 39.264H113V36.69H.646z" mask="url(#fned069cfabdmfr)"></path><path fill="#A10C11" d="M.646 42.483H113v-3.219H.646z" mask="url(#fned069cfabdmfr)"></path><path fill="#A30D11" d="M.646 45.701H113v-3.218H.646z" mask="url(#fned069cfabdmfr)"></path><path fill="#A40D11" d="M.646 48.276H113V45.7H.646z" mask="url(#fned069cfabdmfr)"></path><path fill="#A50E12" d="M.646 51.494H113v-3.218H.646z" mask="url(#fned069cfabdmfr)"></path><path fill="#A60E12" d="M.646 54.069H113v-2.575H.646zm0 1.931H113v-1.931H.646z" mask="url(#fned069cfabdmfr)"></path><path fill="#A70E12" d="M.646 57.287H113V56H.646z" mask="url(#fned069cfabdmfr)"></path><path fill="#A80F13" d="M.646 58.575H113v-1.288H.646z" mask="url(#fned069cfabdmfr)"></path><path fill="#A90F13" d="M.646 60.506H113v-1.931H.646z" mask="url(#fned069cfabdmfr)"></path><path fill="#AA0F14" d="M.646 61.793H113v-1.287H.646z" mask="url(#fned069cfabdmfr)"></path><path fill="#AC1014" d="M.646 63.724H113v-1.93H.646z" mask="url(#fned069cfabdmfr)"></path><path fill="#AD1014" d="M.646 65.011H113v-1.287H.646z" mask="url(#fned069cfabdmfr)"></path><path fill="#AE1015" d="M.646 66.299H113V65.01H.646z" mask="url(#fned069cfabdmfr)"></path><path fill="#AF1015" d="M.646 68.23H113v-1.931H.646z" mask="url(#fned069cfabdmfr)"></path><path fill="#B01116" d="M.646 69.517H113V68.23H.646z" mask="url(#fned069cfabdmfr)"></path><path fill="#B11116" d="M.646 70.805H113v-1.288H.646z" mask="url(#fned069cfabdmfr)"></path><path fill="#B11116" d="M.646 72.092H113v-1.287H.646z" mask="url(#fned069cfabdmfr)"></path><path fill="#B21116" d="M.646 73.38H113v-1.288H.646z" mask="url(#fned069cfabdmfr)"></path><path fill="#B31217" d="M.646 74.023H113v-.644H.646z" mask="url(#fned069cfabdmfr)"></path><path fill="#B41217" d="M.646 75.31H113v-1.287H.646z" mask="url(#fned069cfabdmfr)"></path><path fill="#B51217" d="M.646 75.954H113v-.644H.646z" mask="url(#fned069cfabdmfr)"></path><path fill="#B61218" d="M.646 77.241H113v-1.287H.646z" mask="url(#fned069cfabdmfr)"></path><path fill="#B71318" d="M.646 77.885H113v-.644H.646z" mask="url(#fned069cfabdmfr)"></path><path fill="#B91319" d="M.646 79.172H113v-1.287H.646z" mask="url(#fned069cfabdmfr)"></path><path fill="#BA1319" d="M.646 79.816H113v-.644H.646z" mask="url(#fned069cfabdmfr)"></path><path fill="#BB1419" d="M.646 81.103H113v-1.287H.646z" mask="url(#fned069cfabdmfr)"></path><path fill="#BC141A" d="M.646 81.747H113v-.644H.646z" mask="url(#fned069cfabdmfr)"></path><path fill="#BD141A" d="M.646 83.034H113v-1.287H.646z" mask="url(#fned069cfabdmfr)"></path><path fill="#BE141A" d="M.646 84.322H113v-1.288H.646z" mask="url(#fned069cfabdmfr)"></path><path fill="#BF151B" d="M.646 84.966H113v-.644H.646z" mask="url(#fned069cfabdmfr)"></path><path fill="#C0151B" d="M.646 86.253H113v-1.287H.646zm0 .644H113v-.644H.646z" mask="url(#fned069cfabdmfr)"></path><path fill="#C1151B" d="M.646 87.54H113v-.643H.646z" mask="url(#fned069cfabdmfr)"></path><path fill="#C2151C" d="M.646 88.184H113v-.644H.646z" mask="url(#fned069cfabdmfr)"></path><path fill="#C3161C" d="M.646 88.828H113v-.644H.646z" mask="url(#fned069cfabdmfr)"></path><path fill="#C4161C" d="M.646 89.471H113v-.643H.646z" mask="url(#fned069cfabdmfr)"></path><path fill="#C5161C" d="M.646 90.115H113v-.644H.646z" mask="url(#fned069cfabdmfr)"></path><path fill="#C6161D" d="M.646 90.759H113v-.644H.646z" mask="url(#fned069cfabdmfr)"></path><path fill="#C7161D" d="M.646 91.402H113v-.643H.646z" mask="url(#fned069cfabdmfr)"></path><path fill="#C8161D" d="M.646 92.69H113v-1.288H.646z" mask="url(#fned069cfabdmfr)"></path><path fill="#CA171E" d="M.646 93.333H113v-.643H.646z" mask="url(#fned069cfabdmfr)"></path><path fill="#CB171E" d="M.646 93.977H113v-.644H.646z" mask="url(#fned069cfabdmfr)"></path><path fill="#CC171E" d="M.646 94.62H113v-.643H.646z" mask="url(#fned069cfabdmfr)"></path><path fill="#CD171E" d="M.646 95.264H113v-.643H.646z" mask="url(#fned069cfabdmfr)"></path><path fill="#CE171F" d="M.646 95.908H113v-.644H.646z" mask="url(#fned069cfabdmfr)"></path><path fill="#CF171F" d="M.646 96.552H113v-.644H.646z" mask="url(#fned069cfabdmfr)"></path><path fill="#D0181F" d="M.646 97.195H113v-.643H.646z" mask="url(#fned069cfabdmfr)"></path><path fill="#D1181F" d="M.646 97.84H113v-.645H.646z" mask="url(#fned069cfabdmfr)"></path><path fill="#D21820" d="M.646 99.126H113V97.84H.646z" mask="url(#fned069cfabdmfr)"></path><path fill="#D31820" d="M.646 99.77H113v-.644H.646zm112.354 0H.646 113z" mask="url(#fned069cfabdmfr)"></path><path fill="#D41820" d="M.646 100.414H113v-.644H.646z" mask="url(#fned069cfabdmfr)"></path><path fill="#D51820" d="M.646 101.057H113v-.643H.646z" mask="url(#fned069cfabdmfr)"></path><path fill="#D61820" d="M.646 101.701H113v-.644H.646z" mask="url(#fned069cfabdmfr)"></path><path fill="#D71921" d="M113 101.701H.646 113z" mask="url(#fned069cfabdmfr)"></path><path fill="#D81921" d="M.646 102.345H113v-.644H.646z" mask="url(#fned069cfabdmfr)"></path><path fill="#D91921" d="M.646 102.989H113v-.644H.646z" mask="url(#fned069cfabdmfr)"></path><path fill="#DA1921" d="M113 102.989H.646 113z" mask="url(#fned069cfabdmfr)"></path><path fill="#DB1921" d="M.646 103.632H113v-.643H.646z" mask="url(#fned069cfabdmfr)"></path><path fill="#DC1921" d="M.646 104.276H113v-.644H.646z" mask="url(#fned069cfabdmfr)"></path><path fill="#DD1A22" d="M.646 104.92H113v-.644H.646z" mask="url(#fned069cfabdmfr)"></path><path fill="#DE1A22" d="M113 104.92H.646 113z" mask="url(#fned069cfabdmfr)"></path><path fill="#DF1A22" d="M.646 105.563H113v-.643H.646z" mask="url(#fned069cfabdmfr)"></path><path fill="#E11A22" d="M.646 106.207H113v-.644H.646z" mask="url(#fned069cfabdmfr)"></path><path fill="#E21A22" d="M113 106.207H.646 113z" mask="url(#fned069cfabdmfr)"></path><path fill="#E31A22" d="M.646 106.85H113v-.643H.646z" mask="url(#fned069cfabdmfr)"></path><path fill="#E41B23" d="M.646 107.494H113v-.643H.646z" mask="url(#fned069cfabdmfr)"></path><path fill="#E51B23" d="M.646 108.138H113v-.644H.646z" mask="url(#fned069cfabdmfr)"></path><path fill="#E61B23" d="M113 108.138H.646 113z" mask="url(#fned069cfabdmfr)"></path><path fill="#E71B23" d="M.646 108.782H113v-.644H.646z" mask="url(#fned069cfabdmfr)"></path><path fill="#E81B23" d="M.646 109.425H113v-.643H.646z" mask="url(#fned069cfabdmfr)"></path><path fill="#E91B23" d="M.646 110.069H113v-.644H.646z" mask="url(#fned069cfabdmfr)"></path><path fill="#EA1C24" d="M113 110.069H.646 113z" mask="url(#fned069cfabdmfr)"></path><path fill="#EB1C24" d="M.646 110.713H113v-.644H.646z" mask="url(#fned069cfabdmfr)"></path><path fill="#EC1C24" d="M.646 111.356H113v-.643H.646z" mask="url(#fned069cfabdmfr)"></path><path fill="#ED1C24" d="M113 111.356H.646 113zm-112.615 0h112.319H.384z" mask="url(#fned069cfabdmfr)"></path></g><g transform="translate(232 68)"><mask id="fned069cfabdmft" fill="#fff"><use xlink:href="#fned069cfabdmfs"></use></mask><path fill="#9E0B0F" d="M0 112h112.354V95.168H0z" mask="url(#fned069cfabdmft)"></path><path fill="#9F0B10" d="M0 95.168h112.354V78.335H0zm0-16.833h112.354v-3.237H0z" mask="url(#fned069cfabdmft)"></path><path fill="#A00C10" d="M0 75.098h112.354v-2.59H0z" mask="url(#fned069cfabdmft)"></path><path fill="#A10C11" d="M0 72.509h112.354v-3.237H0z" mask="url(#fned069cfabdmft)"></path><path fill="#A30D11" d="M0 69.272h112.354v-3.237H0z" mask="url(#fned069cfabdmft)"></path><path fill="#A40D11" d="M0 66.035h112.354v-2.59H0z" mask="url(#fned069cfabdmft)"></path><path fill="#A50E12" d="M0 63.445h112.354v-3.237H0z" mask="url(#fned069cfabdmft)"></path><path fill="#A60E12" d="M0 60.208h112.354v-2.59H0z" mask="url(#fned069cfabdmft)"></path><path fill="#A60E12" d="M0 57.618h112.354v-1.942H0z" mask="url(#fned069cfabdmft)"></path><path fill="#A70E12" d="M0 55.676h112.354v-1.294H0z" mask="url(#fned069cfabdmft)"></path><path fill="#A80F13" d="M0 54.382h112.354v-1.295H0z" mask="url(#fned069cfabdmft)"></path><path fill="#A90F13" d="M0 53.087h112.354v-1.942H0z" mask="url(#fned069cfabdmft)"></path><path fill="#AA0F14" d="M0 51.145h112.354V49.85H0z" mask="url(#fned069cfabdmft)"></path><path fill="#AC1014" d="M0 49.85h112.354v-1.942H0z" mask="url(#fned069cfabdmft)"></path><path fill="#AD1014" d="M0 47.908h112.354v-1.295H0z" mask="url(#fned069cfabdmft)"></path><path fill="#AE1015" d="M0 46.613h112.354v-1.295H0z" mask="url(#fned069cfabdmft)"></path><path fill="#AF1015" d="M0 45.318h112.354v-1.942H0z" mask="url(#fned069cfabdmft)"></path><path fill="#B01116" d="M0 43.376h112.354V42.08H0z" mask="url(#fned069cfabdmft)"></path><path fill="#B11116" d="M0 42.08h112.354v-1.294H0zm0-1.294h112.354v-1.295H0z" mask="url(#fned069cfabdmft)"></path><path fill="#B21116" d="M0 39.491h112.354v-1.294H0z" mask="url(#fned069cfabdmft)"></path><path fill="#B31217" d="M0 38.197h112.354v-.648H0z" mask="url(#fned069cfabdmft)"></path><path fill="#B41217" d="M0 37.55h112.354v-1.296H0z" mask="url(#fned069cfabdmft)"></path><path fill="#B51217" d="M0 36.254h112.354v-.647H0z" mask="url(#fned069cfabdmft)"></path><path fill="#B61218" d="M0 35.607h112.354v-1.295H0z" mask="url(#fned069cfabdmft)"></path><path fill="#B71318" d="M0 34.312h112.354v-.647H0z" mask="url(#fned069cfabdmft)"></path><path fill="#B91319" d="M0 33.665h112.354V32.37H0z" mask="url(#fned069cfabdmft)"></path><path fill="#BA1319" d="M0 32.37h112.354v-.647H0z" mask="url(#fned069cfabdmft)"></path><path fill="#BB1419" d="M0 31.723h112.354v-1.295H0z" mask="url(#fned069cfabdmft)"></path><path fill="#BC141A" d="M0 30.428h112.354v-.648H0z" mask="url(#fned069cfabdmft)"></path><path fill="#BD141A" d="M0 29.78h112.354v-1.294H0z" mask="url(#fned069cfabdmft)"></path><path fill="#BE141A" d="M0 28.486h112.354V27.19H0z" mask="url(#fned069cfabdmft)"></path><path fill="#BF151B" d="M0 27.19h112.354v-.647H0z" mask="url(#fned069cfabdmft)"></path><path fill="#C0151B" d="M0 26.543h112.354V25.25H0zm0-1.294h112.354V24.6H0z" mask="url(#fned069cfabdmft)"></path><path fill="#C1151B" d="M0 24.601h112.354v-.647H0z" mask="url(#fned069cfabdmft)"></path><path fill="#C2151C" d="M0 23.954h112.354v-.648H0z" mask="url(#fned069cfabdmft)"></path><path fill="#C3161C" d="M0 23.306h112.354v-.647H0z" mask="url(#fned069cfabdmft)"></path><path fill="#C4161C" d="M0 22.659h112.354v-.647H0z" mask="url(#fned069cfabdmft)"></path><path fill="#C5161C" d="M0 22.012h112.354v-.648H0z" mask="url(#fned069cfabdmft)"></path><path fill="#C6161D" d="M0 21.364h112.354v-.647H0z" mask="url(#fned069cfabdmft)"></path><path fill="#C7161D" d="M0 20.717h112.354v-.648H0z" mask="url(#fned069cfabdmft)"></path><path fill="#C8161D" d="M0 20.07h112.354v-1.295H0z" mask="url(#fned069cfabdmft)"></path><path fill="#CA171E" d="M0 18.775h112.354v-.648H0z" mask="url(#fned069cfabdmft)"></path><path fill="#CB171E" d="M0 18.127h112.354v-.647H0z" mask="url(#fned069cfabdmft)"></path><path fill="#CC171E" d="M0 17.48h112.354v-.648H0z" mask="url(#fned069cfabdmft)"></path><path fill="#CD171E" d="M0 16.832h112.354v-.647H0z" mask="url(#fned069cfabdmft)"></path><path fill="#CE171F" d="M0 16.185h112.354v-.647H0z" mask="url(#fned069cfabdmft)"></path><path fill="#CF171F" d="M0 15.538h112.354v-.648H0z" mask="url(#fned069cfabdmft)"></path><path fill="#D0181F" d="M0 14.89h112.354v-.647H0z" mask="url(#fned069cfabdmft)"></path><path fill="#D1181F" d="M0 14.243h112.354v-.648H0z" mask="url(#fned069cfabdmft)"></path><path fill="#D21820" d="M0 13.595h112.354v-1.294H0z" mask="url(#fned069cfabdmft)"></path><path fill="#D31820" d="M0 12.3h112.354v-.647H0zm0-.647h112.354H0z" mask="url(#fned069cfabdmft)"></path><path fill="#D41820" d="M0 11.653h112.354v-.647H0z" mask="url(#fned069cfabdmft)"></path><path fill="#D51820" d="M0 11.006h112.354v-.648H0z" mask="url(#fned069cfabdmft)"></path><path fill="#D61820" d="M0 10.358h112.354v-.647H0z" mask="url(#fned069cfabdmft)"></path><path fill="#D71921" d="M0 9.711h112.354H0z" mask="url(#fned069cfabdmft)"></path><path fill="#D81921" d="M0 9.711h112.354v-.647H0z" mask="url(#fned069cfabdmft)"></path><path fill="#D91921" d="M0 9.064h112.354v-.648H0z" mask="url(#fned069cfabdmft)"></path><path fill="#DA1921" d="M0 8.416h112.354H0z" mask="url(#fned069cfabdmft)"></path><path fill="#DB1921" d="M0 8.416h112.354V7.77H0z" mask="url(#fned069cfabdmft)"></path><path fill="#DC1921" d="M0 7.769h112.354V7.12H0z" mask="url(#fned069cfabdmft)"></path><path fill="#DD1A22" d="M0 7.121h112.354v-.647H0z" mask="url(#fned069cfabdmft)"></path><path fill="#DE1A22" d="M0 6.474h112.354H0z" mask="url(#fned069cfabdmft)"></path><path fill="#DF1A22" d="M0 6.474h112.354v-.647H0z" mask="url(#fned069cfabdmft)"></path><path fill="#E11A22" d="M0 5.827h112.354v-.648H0z" mask="url(#fned069cfabdmft)"></path><path fill="#E21A22" d="M0 5.18h112.354H0z" mask="url(#fned069cfabdmft)"></path><path fill="#E31A22" d="M0 5.18h112.354v-.648H0z" mask="url(#fned069cfabdmft)"></path><path fill="#E41B23" d="M0 4.532h112.354v-.648H0z" mask="url(#fned069cfabdmft)"></path><path fill="#E51B23" d="M0 3.884h112.354v-.647H0z" mask="url(#fned069cfabdmft)"></path><path fill="#E61B23" d="M0 3.237h112.354H0z" mask="url(#fned069cfabdmft)"></path><path fill="#E71B23" d="M0 3.237h112.354V2.59H0z" mask="url(#fned069cfabdmft)"></path><path fill="#E81B23" d="M0 2.59h112.354v-.648H0z" mask="url(#fned069cfabdmft)"></path><path fill="#E91B23" d="M0 1.942h112.354v-.647H0z" mask="url(#fned069cfabdmft)"></path><path fill="#EA1C24" d="M0 1.295h112.354H0z" mask="url(#fned069cfabdmft)"></path><path fill="#EB1C24" d="M0 1.295h112.354V.647H0z" mask="url(#fned069cfabdmft)"></path><path fill="#EC1C24" d="M0 .647h112.354V0H0z" mask="url(#fned069cfabdmft)"></path><path fill="#ED1C24" d="M0 0h112.354H0zm112.615 0H.296h112.32z" mask="url(#fned069cfabdmft)"></path></g><path fill="#FFF" d="M349.629 136.262c-.71-1.582-2.248-2.755-3.785-2.755 0 0-.237 0-.414.058-.237.059-1.124.294-1.124.294l2.248-17.065c.473-3.695-.533-7.155-2.899-9.794-2.306-2.639-5.618-4.046-9.284-4.046h-.12c-7.57 0-13.069 5.688-14.488 14.66-.355 1.584-1.656 3.167-2.247 3.812l-8.694 8.679 5.026-37.237c.178-1.115-.177-2.288-.828-3.167a4.54 4.54 0 00-2.838-1.642c-.178 0-.355-.059-.532-.059-2.189 0-4.022 1.584-4.258 3.753l-1.598 12.198-.177-.059a12.79 12.79 0 00-4.73-.88c-7.217 0-13.722 5.63-14.727 12.726l-.414 2.229c-.06.117-.06.234-.119.292-.295 1.173-1.064 2.17-1.36 2.522l-10.113 11.494-1.005.996c-3.844 3.871-6.683 6.217-11.474 6.217-3.253 0-3.607-3.284-3.607-3.284l9.108-6.275c6.09-4.691 12.479-9.03 11.532-17.124v-.175c-1.478-7.858-8.162-9.735-12.005-9.735h-.178c-7.452 0-13.602 5.395-14.667 12.784l-2.425 16.537-2.602 1.818a4.148 4.148 0 00-1.774 2.757c-.177 1.113.06 2.286.71 3.225.828 1.114 2.129 1.818 3.548 1.818a4.54 4.54 0 001.242-.177h.118s.474 1.584 1.183 2.405c2.248 2.698 5.678 4.046 9.463 4.046 8.634 0 13.07-4.163 17.801-8.972l1.065-1.055c.058-.06.058-.06.118-.118l3.135-3.46-.06.411c-.355 3.46.651 6.568 2.839 9.03 2.188 2.464 5.322 3.93 8.812 4.047h.591c4.673 0 8.576-1.231 11.592-3.694 2.247-1.642 4.258-3.636 6.21-5.63l1.064-1.055.119-.118.177-.176 4.79-4.457-.236 1.466c0 .235-.059.41-.059.587v.235l-3.194 23.984c-.177 1.114.178 2.228.887 3.167a4.548 4.548 0 002.839 1.642c.178.058.355.058.591.058 2.189 0 4.022-1.583 4.258-3.753l1.716-13.253.177.058c1.479.587 3.135.939 4.79.939h.119c1.833 0 3.666-.41 5.44-1.173.119-.058.237-.058.355-.117l12.243-5.16c1.064-.47 1.833-1.232 2.247-2.287.355-.763.355-1.936-.118-2.992zm-91.787-19.293c.414-2.756 2.78-5.688 6.683-5.688h.178c.295 0 3.252 0 3.607 2.58.296 3.343-3.194 5.747-8.576 9.852l-1.241.997-1.834 1.29 1.183-9.03zm44.178-.762l-2.129 17.944c-.355 2.58-2.188 5.395-5.559 5.454-1.479-.059-2.662-.176-3.371-1.055-.65-.763-.887-2.111-.592-3.988l2.307-17.945c.355-3.812 3.43-5.277 5.323-5.277h.118c1.479 0 2.484.352 3.135 1.055.768.704 1.005 1.994.768 3.812zm35.958.88l-2.247 16.889c-.355 2.58-2.248 5.336-5.56 5.336-1.478-.058-2.661-.235-3.37-1.114-.651-.821-.829-2.111-.592-3.988l2.247-17.71c.355-3.636 3.135-5.22 5.737-5.22 1.124 0 2.07.412 2.78 1.174.828.997 1.241 2.639 1.005 4.633z"></path></g></svg>