<!DOCTYPE svg PUBLIC "-//W3C//DTD SVG 20010904//EN" "http://www.w3.org/TR/2001/REC-SVG-20010904/DTD/svg10.dtd">
<svg version="1.0" xmlns="http://www.w3.org/2000/svg" width="1180px" height="371px" viewBox="0 0 11800 3710" preserveAspectRatio="xMidYMid meet">
<g id="layer101" fill="#037d7f" stroke="none">
<path d="M1344 3629 l-91 -29 -5 -340 c-3 -187 -7 -343 -11 -346 -3 -3 -36 12 -74 34 -37 22 -97 55 -133 75 -36 19 -141 76 -233 126 -92 50 -170 91 -174 91 -11 0 -173 -175 -173 -188 0 -7 11 -29 24 -50 21 -33 70 -123 224 -412 25 -47 54 -96 64 -109 10 -13 18 -27 18 -32 0 -5 -153 -10 -340 -11 -290 -3 -342 -5 -350 -18 -18 -28 -60 -171 -60 -204 0 -38 14 -53 85 -90 28 -14 88 -50 135 -80 47 -30 99 -62 115 -71 100 -55 235 -141 232 -150 -3 -9 -55 -41 -227 -141 -36 -21 -92 -55 -124 -76 -33 -21 -64 -38 -70 -39 -6 0 -40 -22 -76 -48 -79 -58 -83 -76 -42 -206 l28 -90 89 -6 c50 -4 206 -7 348 -8 l258 -1 -30 -54 c-125 -217 -291 -534 -291 -554 0 -16 22 -47 65 -91 105 -109 72 -113 370 50 143 77 279 152 303 166 l42 25 0 -184 c0 -102 3 -259 6 -349 l7 -165 93 -27 c52 -16 109 -27 130 -25 34 3 41 9 76 63 21 33 41 67 45 75 4 8 45 78 91 155 46 77 102 170 124 208 22 37 41 67 43 67 7 0 80 -112 124 -190 23 -41 63 -106 87 -145 25 -38 49 -79 53 -91 9 -19 42 -73 76 -121 12 -17 26 -23 55 -23 57 0 198 47 210 70 6 11 10 145 10 349 0 182 4 331 9 331 4 0 19 -8 32 -18 13 -10 69 -43 124 -72 93 -50 138 -75 354 -194 47 -25 90 -46 97 -46 16 0 184 165 184 180 0 7 -8 24 -18 38 -10 15 -39 65 -64 112 -25 47 -91 168 -147 270 l-101 185 346 10 347 10 29 100 c15 55 28 112 28 126 0 23 -31 44 -290 199 -159 96 -286 178 -282 182 8 8 305 188 462 280 108 63 110 65 110 96 0 36 -49 194 -66 213 -12 14 -60 17 -345 22 -182 3 -333 8 -336 10 -2 3 6 22 20 44 13 21 68 119 122 218 53 99 117 215 141 257 24 43 44 81 44 85 0 5 -41 49 -90 98 l-90 90 -33 -19 c-17 -10 -131 -72 -252 -138 -121 -66 -242 -134 -268 -150 -26 -17 -50 -28 -53 -26 -2 3 -8 158 -12 344 l-7 339 -84 28 c-47 16 -105 30 -129 31 l-45 1 -70 -115 c-38 -63 -112 -187 -164 -275 -52 -88 -100 -166 -107 -173 -10 -10 -25 9 -76 95 -35 59 -76 128 -91 153 -15 25 -60 99 -100 165 -39 66 -79 128 -87 138 -21 24 -61 21 -168 -14z m189 -507 c30 -50 149 -239 218 -345 l24 -37 85 2 85 3 140 220 140 220 6 -60 c4 -33 7 -148 8 -256 1 -140 5 -200 14 -211 15 -18 113 -78 129 -78 11 0 226 110 391 200 l79 43 -56 -104 c-31 -57 -86 -162 -122 -234 l-67 -130 33 -63 c18 -34 40 -66 49 -71 9 -5 121 -11 250 -15 128 -3 239 -10 247 -14 10 -5 -26 -32 -114 -87 -70 -44 -166 -105 -214 -137 l-88 -59 0 -79 0 -79 44 -33 c24 -18 57 -40 73 -49 30 -18 233 -145 298 -188 l40 -26 -267 -5 c-300 -6 -278 1 -327 -89 l-30 -55 51 -95 c28 -53 81 -152 118 -221 37 -69 70 -133 74 -144 6 -17 5 -17 -16 -4 -56 36 -435 238 -447 238 -7 0 -39 -14 -72 -31 -43 -23 -59 -38 -63 -58 -3 -14 -8 -138 -12 -275 -5 -188 -9 -246 -18 -234 -21 30 -70 109 -178 286 -98 158 -90 152 -175 155 -78 2 -103 -11 -134 -71 -8 -15 -34 -59 -59 -98 -25 -40 -67 -109 -95 -154 -27 -45 -60 -94 -72 -108 l-22 -27 -1 258 c0 163 -4 266 -11 278 -5 11 -35 36 -65 55 l-55 35 -212 -112 c-117 -61 -228 -121 -247 -132 l-34 -21 21 34 c43 72 202 377 219 418 19 49 12 74 -36 132 l-29 35 -272 5 -272 5 168 105 c93 58 187 115 209 128 73 41 86 63 86 146 l0 73 -92 60 c-51 33 -122 78 -158 99 -36 21 -74 45 -85 54 -11 9 -42 30 -70 46 l-50 29 70 6 c39 4 158 7 265 8 107 1 200 5 206 9 16 10 74 110 74 126 0 16 -190 382 -224 433 -14 20 -24 38 -22 40 2 2 106 -51 231 -117 175 -93 234 -120 252 -115 31 7 104 52 121 73 9 12 12 83 12 275 0 166 3 256 10 252 5 -3 25 -32 43 -63z"/>
</g>
<g id="layer102" fill="#69614e" stroke="none">
<path d="M1463 3649 c15 -9 17 -27 16 -162 -1 -84 -4 -163 -8 -176 -6 -23 -11 -18 -57 55 -60 94 -118 192 -127 217 -7 18 -22 23 -31 9 -2 -4 -6 -157 -7 -340 -2 -184 -7 -336 -11 -338 -8 -5 -111 47 -116 59 -2 4 -8 5 -13 1 -5 -3 -9 0 -9 5 0 6 -6 11 -14 11 -8 0 -22 7 -30 16 -9 8 -16 12 -16 8 0 -4 -8 0 -17 8 -35 30 -403 222 -410 214 -2 -1 20 -43 48 -92 28 -48 70 -127 94 -174 l43 -86 -56 29 c-32 15 -79 41 -107 57 -27 16 -62 34 -77 40 -16 7 -28 16 -28 21 0 5 -6 9 -13 9 -8 0 -25 9 -38 21 -49 42 -30 -9 72 -197 56 -104 122 -227 147 -274 25 -47 54 -96 64 -109 10 -13 18 -27 18 -32 0 -5 -153 -10 -340 -11 -290 -3 -342 -5 -350 -18 -18 -28 -60 -171 -60 -204 0 -38 14 -53 85 -90 28 -14 88 -50 135 -80 47 -30 99 -62 115 -71 100 -55 235 -141 232 -150 -3 -9 -55 -41 -227 -141 -36 -21 -92 -55 -124 -76 -33 -21 -64 -38 -70 -39 -6 0 -40 -22 -76 -48 -79 -58 -83 -76 -42 -206 l28 -90 89 -6 c50 -4 206 -7 348 -8 l258 -1 -30 -54 c-119 -208 -291 -534 -291 -552 0 -24 112 -151 152 -172 22 -12 43 -3 283 129 143 77 279 152 303 166 l42 25 0 -184 c0 -102 3 -259 6 -349 l7 -165 93 -27 c52 -16 109 -27 130 -25 34 3 41 9 76 63 21 33 41 67 45 75 4 8 45 78 91 155 46 77 102 170 124 208 22 37 41 67 43 67 7 0 80 -112 124 -190 23 -41 63 -106 87 -145 24 -38 51 -83 59 -100 21 -41 60 -104 73 -117 31 -31 239 10 262 52 6 11 10 145 10 349 0 182 4 331 9 331 4 0 19 -8 32 -18 13 -10 69 -43 124 -72 93 -50 138 -75 354 -194 47 -25 90 -46 97 -46 16 0 184 165 184 180 0 7 -8 24 -18 38 -10 15 -39 65 -64 112 -25 47 -91 168 -147 270 l-101 185 346 10 347 10 29 100 c15 55 28 112 28 126 0 23 -31 44 -290 199 -159 96 -286 178 -282 182 8 8 305 188 462 280 108 63 110 65 110 96 0 36 -49 194 -66 213 -12 14 -60 17 -345 22 -182 3 -333 8 -336 11 -3 2 4 18 16 34 12 17 21 33 21 37 0 4 29 58 64 119 106 187 216 395 216 411 0 17 -157 185 -172 185 -5 0 -43 -20 -84 -45 -40 -25 -76 -45 -80 -45 -7 0 -296 -159 -377 -207 -32 -19 -60 -33 -63 -31 -2 3 -7 144 -10 314 -6 343 -8 374 -29 374 -8 0 -15 -5 -15 -12 0 -7 -39 -78 -87 -157 -102 -170 -96 -173 -107 59 -4 85 -11 159 -15 163 -9 9 -21 -8 -206 -318 -76 -126 -143 -236 -150 -243 -11 -13 -27 9 -122 173 -10 17 -20 32 -24 35 -5 5 -8 9 -119 200 -88 151 -96 160 -129 160 -23 -1 -24 -2 -8 -11z m1716 -524 c28 -31 51 -60 51 -64 0 -5 -60 -40 -132 -79 -145 -77 -168 -88 -168 -77 0 10 119 234 142 267 24 35 37 29 107 -47z m-1669 40 c0 -6 9 -20 20 -30 11 -10 17 -22 14 -26 -3 -5 -2 -9 3 -9 4 0 21 -25 38 -55 16 -30 32 -55 36 -55 3 0 14 -17 25 -37 22 -44 112 -182 130 -200 8 -8 39 -13 77 -13 74 0 105 18 137 80 10 20 48 80 82 131 35 52 81 124 103 161 22 37 43 68 46 68 10 0 19 -144 19 -310 0 -178 5 -220 28 -220 9 0 25 -9 36 -19 12 -11 28 -21 36 -23 8 -2 20 -9 26 -17 9 -11 23 -8 85 22 117 57 365 191 384 208 18 17 26 9 13 -13 -7 -13 -11 -27 -9 -33 1 -5 0 -7 -4 -3 -4 4 -36 -50 -72 -120 -36 -70 -85 -165 -110 -210 l-44 -84 21 -44 c12 -24 26 -44 31 -44 6 0 7 -4 4 -10 -3 -5 -1 -10 4 -10 6 0 11 -6 11 -14 0 -22 17 -24 206 -26 99 -1 213 -5 254 -8 l75 -7 -110 -69 c-60 -38 -161 -102 -222 -143 l-113 -73 0 -79 0 -80 44 -33 c24 -18 57 -40 73 -49 30 -18 233 -145 298 -188 l40 -26 -267 -5 c-300 -6 -278 1 -327 -89 l-30 -55 51 -95 c28 -53 81 -152 118 -221 37 -69 70 -133 74 -144 6 -17 5 -17 -16 -4 -56 36 -435 238 -447 238 -7 0 -39 -14 -72 -31 -43 -23 -59 -38 -63 -58 -3 -14 -8 -138 -12 -275 -5 -188 -9 -246 -18 -234 -21 30 -70 109 -178 286 -98 158 -90 152 -175 155 -78 2 -103 -11 -134 -71 -8 -15 -34 -59 -59 -98 -25 -40 -67 -109 -95 -154 -27 -45 -60 -94 -72 -108 l-22 -27 -1 258 c0 163 -4 266 -11 278 -5 11 -35 36 -65 55 l-55 35 -212 -112 c-117 -61 -228 -121 -247 -132 l-34 -21 21 34 c43 72 202 377 219 418 19 49 12 74 -36 132 l-29 35 -272 5 -272 5 168 105 c93 58 187 115 209 128 73 41 86 63 86 146 l0 73 -92 60 c-51 33 -122 78 -158 99 -36 21 -74 45 -85 54 -11 9 -42 30 -70 46 l-50 29 70 6 c39 4 159 7 267 8 223 1 211 -3 258 87 l24 47 -99 196 c-55 108 -115 215 -132 238 -18 24 -28 43 -22 43 11 0 231 -111 239 -121 3 -3 47 -27 99 -53 105 -53 177 -69 187 -42 3 9 12 16 20 16 8 0 14 3 14 8 0 4 10 12 23 17 31 14 35 56 36 322 1 193 3 222 16 217 8 -4 15 -12 15 -19z"/>
<path d="M8100 3269 c-104 -11 -214 -40 -283 -76 -68 -34 -175 -143 -214 -218 -94 -181 -115 -514 -48 -764 32 -118 76 -192 165 -274 132 -122 251 -161 490 -161 234 0 351 36 459 139 114 109 161 251 161 490 0 72 -3 147 -6 168 l-7 37 -449 0 -450 0 7 47 c16 109 44 174 99 229 37 36 67 56 97 65 60 16 480 5 564 -16 33 -8 66 -15 73 -15 9 0 12 35 12 141 l0 140 -32 14 c-43 17 -212 43 -372 55 -143 11 -145 11 -266 -1z m358 -987 c-3 -32 -16 -80 -29 -107 -20 -42 -33 -54 -82 -79 -80 -40 -138 -44 -223 -16 -84 28 -133 74 -163 155 -26 68 -26 92 -3 98 9 3 127 5 261 6 l244 1 -5 -58z"/>
<path d="M4837 3255 c-123 -24 -197 -63 -292 -155 -137 -135 -175 -241 -182 -519 -10 -352 56 -545 231 -678 128 -97 248 -129 476 -127 137 1 166 5 244 28 100 30 154 63 219 136 107 119 123 178 130 463 l6 207 -450 0 -449 0 0 28 c0 49 21 145 40 183 27 53 102 115 155 128 25 6 125 11 232 11 171 -1 239 -7 371 -35 l32 -7 0 145 c0 134 -1 146 -19 152 -10 3 -63 15 -118 26 -133 27 -510 36 -626 14z m473 -918 c0 -30 -28 -134 -46 -173 -21 -45 -32 -55 -77 -75 -103 -45 -260 -21 -335 52 -30 30 -54 87 -67 162 l-6 37 266 0 c146 0 265 -1 265 -3z"/>
<path d="M10837 3250 c-99 -18 -182 -58 -234 -113 -66 -70 -90 -112 -108 -188 -26 -111 -15 -266 26 -359 11 -25 41 -67 67 -94 105 -109 295 -155 641 -156 l144 0 -7 -87 c-12 -157 -36 -173 -278 -181 -140 -4 -377 13 -475 34 l-23 4 0 -144 c0 -166 -17 -145 140 -170 221 -35 588 -30 745 10 123 32 209 109 247 223 22 65 23 78 26 639 l3 572 -140 0 c-155 0 -143 5 -157 -72 -3 -21 -11 -38 -18 -38 -6 0 -40 18 -76 40 -102 63 -172 81 -335 85 -77 2 -161 0 -188 -5z m419 -336 c106 -63 108 -68 112 -194 l4 -110 -129 0 c-222 1 -312 22 -343 79 -5 10 -12 48 -16 84 -9 84 5 119 60 152 37 22 52 25 147 25 103 0 106 -1 165 -36z"/>
<path d="M5950 2525 l0 -715 139 0 139 0 17 75 c9 41 20 77 26 80 5 4 34 -14 65 -39 30 -25 95 -65 142 -88 l87 -43 222 -3 223 -3 52 28 c29 15 77 51 108 79 47 44 59 63 80 125 l25 74 3 573 3 572 -195 0 -196 0 -1 -222 c-1 -324 -15 -831 -23 -848 -3 -9 -26 -28 -49 -44 -40 -26 -46 -27 -137 -23 -84 3 -103 8 -165 39 -38 20 -96 55 -127 79 l-58 42 0 489 0 488 -190 0 -190 0 0 -715z"/>
<path d="M9433 3228 c-4 -7 -13 -26 -19 -43 -7 -16 -31 -77 -54 -135 -23 -58 -45 -120 -50 -138 -4 -18 -20 -61 -34 -95 -38 -93 -366 -975 -366 -986 0 -18 34 -21 224 -21 l192 0 48 138 c147 419 261 757 280 829 l22 83 17 -48 c9 -26 25 -78 36 -117 10 -38 45 -146 78 -240 33 -93 95 -271 137 -395 43 -124 85 -231 94 -237 11 -9 68 -13 203 -13 l187 0 -8 34 c-7 33 -26 85 -90 256 -18 47 -53 139 -77 205 -25 66 -55 147 -68 180 -70 186 -132 353 -166 449 -22 59 -58 153 -80 207 l-41 99 -229 0 c-171 0 -230 -3 -236 -12z"/>
</g>
<g id="layer103" fill="#516e62" stroke="none">
<path d="M1463 3649 c15 -9 17 -27 16 -162 -1 -84 -4 -163 -8 -176 -6 -23 -11 -18 -57 55 -60 94 -118 192 -127 217 -7 18 -22 23 -31 9 -2 -4 -6 -158 -7 -340 -1 -183 -6 -335 -10 -337 -6 -4 -109 44 -134 62 -5 5 -26 16 -45 26 -19 10 -66 36 -105 58 -112 65 -333 178 -338 173 -3 -3 18 -44 45 -92 86 -149 138 -259 123 -259 -8 0 -12 4 -9 9 3 4 2 8 -3 9 -30 3 -48 11 -79 34 -19 14 -44 28 -56 30 -11 3 -32 14 -45 26 -12 13 -26 20 -29 16 -11 -10 -45 13 -38 25 5 8 1 9 -9 5 -10 -4 -29 -2 -43 3 l-25 10 18 -27 c10 -16 32 -56 48 -90 16 -35 32 -63 36 -63 4 0 13 -16 19 -35 6 -19 16 -35 21 -35 6 0 7 -4 4 -10 -3 -5 -1 -10 4 -10 6 0 10 -3 10 -7 -3 -18 2 -31 21 -53 11 -13 20 -29 20 -36 0 -7 6 -19 13 -26 7 -7 28 -46 47 -86 18 -40 39 -76 45 -80 7 -4 16 -17 19 -29 l7 -23 -308 0 c-333 0 -378 -4 -387 -29 -3 -9 -14 -41 -25 -71 -11 -30 -23 -75 -26 -100 -7 -55 9 -77 80 -111 72 -35 85 -43 85 -51 0 -5 7 -8 15 -8 8 0 15 -4 15 -9 0 -5 16 -15 35 -22 19 -7 35 -17 35 -21 0 -4 7 -8 15 -8 7 0 18 -6 22 -14 4 -7 28 -23 53 -35 61 -29 104 -54 108 -63 2 -5 10 -8 18 -8 8 0 14 -4 14 -10 0 -5 6 -10 13 -10 22 -1 57 -38 51 -54 -3 -8 -26 -23 -50 -32 -24 -9 -44 -20 -44 -25 0 -4 -10 -11 -22 -15 -12 -3 -31 -15 -42 -25 -11 -11 -25 -19 -31 -19 -7 0 -22 -9 -35 -20 -13 -11 -29 -20 -36 -20 -7 0 -19 -6 -26 -12 -19 -18 -66 -46 -115 -69 -24 -11 -43 -24 -43 -29 0 -6 -7 -10 -15 -10 -8 0 -15 -4 -15 -10 0 -5 -5 -10 -10 -10 -11 0 -25 -10 -62 -43 -22 -20 -21 -65 2 -122 6 -16 11 -31 11 -32 -1 -2 -1 -4 0 -5 0 -2 2 -11 4 -22 2 -10 9 -31 16 -47 11 -28 13 -29 88 -30 42 0 101 0 131 1 30 1 150 -1 267 -5 l211 -8 -10 -28 c-5 -16 -13 -29 -18 -29 -4 0 -15 -20 -24 -45 -10 -25 -21 -45 -26 -45 -5 0 -16 -20 -26 -45 -9 -25 -20 -45 -24 -45 -4 0 -18 -25 -30 -55 -12 -30 -26 -55 -30 -55 -4 0 -18 -25 -30 -55 -12 -30 -25 -55 -29 -55 -4 0 -22 -34 -40 -75 l-33 -74 21 -35 c26 -42 137 -146 156 -146 7 0 20 7 28 15 8 8 33 22 56 31 23 9 41 20 41 24 0 4 25 18 55 30 30 12 55 26 55 30 0 4 29 19 65 35 36 15 65 31 65 35 0 4 25 18 55 30 30 12 55 26 55 30 0 4 17 14 38 24 20 9 48 23 62 31 l25 14 7 -107 c4 -59 7 -165 7 -237 0 -308 1 -358 7 -352 4 3 22 0 40 -8 19 -8 34 -11 34 -8 0 3 7 -1 17 -8 9 -8 18 -13 20 -11 1 1 4 2 6 1 25 -8 51 -11 91 -12 l49 -2 33 55 c18 30 38 60 43 67 6 7 11 14 11 17 0 3 39 69 86 148 48 79 104 173 126 211 22 37 41 67 43 67 7 0 80 -112 124 -190 23 -41 67 -113 96 -160 30 -47 54 -88 55 -92 0 -4 11 -24 25 -45 53 -82 48 -78 109 -76 70 2 183 38 196 63 6 11 10 150 10 349 0 182 4 331 9 331 4 0 19 -8 32 -18 13 -10 69 -43 124 -72 93 -50 138 -75 354 -194 47 -25 90 -46 97 -46 15 0 184 165 184 180 0 6 -11 27 -24 48 -22 35 -255 460 -290 530 l-17 32 143 1 c79 1 235 5 347 8 l204 6 29 100 c15 55 28 112 28 126 0 23 -31 44 -290 199 -159 96 -286 178 -282 182 8 8 318 196 462 280 99 57 113 72 106 113 -12 80 -48 186 -67 202 -9 7 -131 12 -342 16 -181 3 -331 8 -334 11 -3 3 4 18 16 34 12 17 21 33 21 37 0 4 29 58 64 119 106 187 216 395 216 411 0 17 -157 185 -172 185 -5 0 -43 -20 -84 -45 -40 -25 -76 -45 -80 -45 -7 0 -296 -159 -377 -207 -32 -19 -60 -33 -63 -31 -2 3 -7 144 -10 314 -6 343 -8 374 -29 374 -8 0 -15 -5 -15 -12 0 -7 -39 -78 -87 -157 -102 -170 -96 -173 -107 59 -4 85 -11 159 -15 163 -9 9 -21 -8 -206 -318 -76 -126 -143 -236 -150 -243 -11 -13 -27 9 -122 173 -10 17 -20 32 -24 35 -5 5 -8 9 -119 200 -88 151 -96 160 -129 160 -23 -1 -24 -2 -8 -11z m1716 -524 c28 -31 51 -60 51 -64 0 -5 -60 -40 -132 -79 -145 -77 -168 -88 -168 -77 0 10 119 234 142 267 24 35 37 29 107 -47z m-1669 40 c0 -6 9 -20 20 -30 11 -10 17 -22 14 -26 -3 -5 -2 -9 3 -9 4 0 21 -25 38 -55 16 -30 32 -55 36 -55 3 0 14 -17 25 -37 22 -44 112 -182 130 -200 8 -8 39 -13 77 -13 75 0 105 18 139 83 11 23 44 75 73 117 28 41 76 115 106 165 l54 89 6 -64 c4 -36 7 -147 8 -247 1 -179 9 -233 33 -233 6 0 21 -9 32 -19 12 -11 28 -21 36 -23 8 -2 20 -9 26 -17 9 -11 23 -8 85 22 117 57 365 191 384 208 19 18 27 8 11 -16 -9 -14 -14 -25 -11 -25 3 0 0 -6 -6 -13 -11 -11 -56 -95 -179 -331 l-41 -79 22 -43 c11 -24 25 -44 30 -44 6 0 7 -4 4 -10 -3 -5 -1 -10 4 -10 6 0 11 -6 11 -14 0 -20 35 -24 220 -26 91 -1 199 -5 240 -9 l75 -6 -110 -69 c-60 -38 -161 -103 -222 -143 l-113 -74 0 -79 0 -79 44 -33 c24 -18 57 -40 73 -49 15 -9 73 -45 128 -80 55 -35 112 -70 126 -77 14 -8 39 -24 55 -37 l29 -24 -260 -1 c-219 0 -264 -2 -283 -16 -12 -8 -22 -21 -22 -29 0 -7 -4 -15 -8 -17 -4 -2 -17 -22 -28 -45 l-21 -42 32 -58 c63 -115 202 -378 208 -396 7 -18 5 -18 -26 1 -17 11 -68 39 -112 63 -44 24 -132 71 -195 106 -63 34 -121 63 -129 63 -7 0 -39 -14 -72 -31 -43 -23 -59 -38 -63 -58 -3 -14 -8 -138 -12 -275 -5 -188 -9 -246 -18 -234 -12 18 -60 94 -91 144 -41 66 -119 191 -151 241 -37 57 -34 56 -153 55 -36 -1 -69 -26 -92 -70 -7 -15 -32 -56 -55 -92 -23 -36 -70 -111 -105 -168 -34 -56 -68 -107 -76 -113 -11 -10 -13 31 -14 232 -1 134 -3 254 -4 267 -3 26 -32 62 -52 62 -7 0 -13 5 -13 10 0 6 -5 10 -12 10 -6 0 -19 7 -29 16 -16 14 -20 14 -51 -2 -18 -9 -36 -21 -39 -26 -3 -5 -10 -9 -15 -9 -16 1 -44 -10 -44 -18 0 -5 -38 -26 -85 -47 -47 -21 -85 -41 -85 -45 0 -3 -33 -21 -72 -39 -40 -18 -75 -36 -78 -40 -9 -12 -40 -20 -40 -10 0 5 4 11 9 15 5 3 24 37 42 75 17 39 35 70 40 70 4 0 15 21 25 46 10 25 23 52 30 58 15 16 86 156 79 156 -3 0 0 10 7 23 19 34 15 67 -13 101 -5 6 -17 21 -27 34 -9 13 -26 25 -37 27 -11 2 -135 4 -275 5 -224 1 -253 2 -235 15 11 8 25 18 30 22 6 4 27 17 47 28 21 11 38 22 38 26 0 4 8 9 17 13 21 6 51 25 71 44 7 6 20 12 28 12 8 0 14 5 14 10 0 6 7 10 15 10 8 0 15 5 15 10 0 6 7 10 15 10 8 0 15 4 15 8 0 5 16 14 35 22 19 8 35 17 35 22 0 4 6 8 14 8 29 0 56 64 56 131 0 63 -1 64 -39 92 -22 15 -44 27 -50 27 -6 0 -11 5 -11 10 0 6 -7 10 -15 10 -8 0 -15 5 -15 10 0 6 -7 10 -15 10 -8 0 -15 4 -15 9 0 5 -16 15 -35 22 -19 7 -35 17 -35 21 0 4 -7 8 -15 8 -8 0 -15 4 -15 8 0 5 -16 15 -36 22 -20 8 -40 22 -45 31 -5 10 -25 23 -44 29 -19 6 -35 16 -35 21 0 5 -7 9 -15 9 -8 0 -15 4 -15 9 0 15 68 20 280 21 113 1 216 3 230 5 14 2 28 4 33 4 4 1 7 8 7 16 0 8 4 15 9 15 5 0 15 16 22 35 7 19 17 35 21 35 4 0 8 6 8 14 0 24 -196 403 -229 443 -17 21 -27 39 -22 41 9 3 230 -106 241 -119 3 -3 47 -27 99 -53 105 -53 177 -69 187 -42 3 9 12 16 20 16 8 0 14 3 14 8 0 4 10 12 23 17 31 14 35 56 36 322 1 193 3 222 16 217 8 -4 15 -12 15 -19z"/>
</g>
<g id="layer104" fill="#916148" stroke="none">
<path d="M1463 3649 c15 -9 17 -27 16 -162 -1 -84 -4 -163 -8 -176 -6 -23 -11 -18 -57 55 -60 94 -118 192 -127 217 -7 18 -22 23 -31 9 -3 -5 -6 -158 -7 -340 -1 -183 -5 -335 -9 -337 -8 -5 -193 87 -220 109 -20 17 -307 172 -345 186 -64 25 -64 21 -13 -68 67 -116 140 -263 134 -269 -2 -3 -14 5 -25 16 -12 12 -24 21 -28 21 -14 -1 -73 34 -73 43 0 4 -4 5 -10 2 -5 -3 -10 -1 -10 5 0 6 -3 9 -7 7 -12 -7 -73 29 -65 38 4 5 1 5 -5 1 -14 -8 -56 11 -49 22 2 4 -11 8 -30 9 l-35 2 19 -32 c38 -64 110 -202 110 -211 0 -5 4 -12 9 -15 4 -3 16 -22 27 -41 67 -125 130 -240 148 -267 l20 -33 -324 -1 c-177 -1 -334 -4 -348 -8 -28 -8 -63 -83 -83 -178 -11 -55 -11 -55 18 -80 27 -23 185 -119 353 -217 122 -70 192 -118 192 -132 0 -7 -15 -21 -32 -30 -18 -9 -110 -63 -205 -120 -95 -57 -174 -104 -176 -104 -11 0 -143 -94 -151 -107 -10 -18 -4 -48 29 -157 l25 -83 342 -6 c187 -4 343 -9 345 -11 2 -2 -56 -114 -130 -247 -173 -314 -189 -347 -183 -367 3 -10 41 -52 84 -95 l78 -78 304 166 c166 91 305 163 307 161 3 -3 7 -158 10 -345 l6 -341 86 -26 c47 -15 106 -28 130 -28 l45 -1 123 205 c68 113 144 240 169 283 25 42 47 77 50 77 6 0 80 -113 123 -190 24 -41 84 -142 134 -225 l92 -149 57 1 c69 1 185 38 198 63 6 11 10 152 10 356 0 269 3 334 13 326 23 -20 591 -332 603 -332 11 0 176 162 182 179 1 5 -10 30 -26 57 -41 68 -244 438 -276 500 l-25 52 337 6 c185 4 342 9 348 11 5 1 23 55 39 119 29 115 29 116 10 135 -11 10 -141 91 -290 180 -148 89 -271 166 -273 170 -1 4 8 12 21 18 12 6 99 57 192 113 94 57 208 125 255 152 98 57 113 72 106 113 -12 80 -48 186 -67 202 -9 7 -131 12 -342 16 -181 3 -331 8 -334 11 -3 3 4 18 16 34 12 17 21 33 21 37 0 4 29 58 64 119 106 187 216 395 216 411 0 17 -157 185 -172 185 -5 0 -43 -20 -84 -45 -40 -25 -76 -45 -80 -45 -7 0 -296 -159 -377 -207 -32 -19 -60 -33 -63 -31 -2 3 -7 144 -10 314 -6 343 -8 374 -29 374 -8 0 -15 -5 -15 -12 0 -7 -39 -78 -87 -157 -102 -170 -96 -173 -107 59 -4 85 -11 159 -15 163 -9 9 -21 -8 -206 -318 -76 -126 -143 -236 -150 -244 -11 -11 -15 -9 -25 10 -7 13 -47 80 -90 149 -43 69 -110 181 -151 250 -87 151 -95 160 -128 160 -23 -1 -24 -2 -8 -11z m1716 -524 c28 -31 51 -60 51 -64 0 -5 -60 -40 -132 -79 -145 -77 -168 -88 -168 -77 0 10 119 234 142 267 24 35 37 29 107 -47z m-1669 40 c0 -7 7 -18 15 -25 8 -6 30 -41 50 -76 19 -36 44 -75 55 -86 11 -12 23 -31 26 -42 7 -22 99 -162 120 -183 8 -8 39 -13 77 -13 75 0 105 18 139 83 11 23 44 75 73 117 28 41 76 115 106 165 l54 89 6 -64 c4 -36 7 -150 8 -254 l1 -188 42 -39 c40 -36 51 -43 63 -36 2 1 10 -6 18 -17 13 -18 16 -17 88 17 117 57 365 191 384 208 18 17 26 9 13 -13 -7 -13 -13 -25 -13 -28 0 -3 -8 -16 -17 -30 -15 -23 -49 -87 -167 -313 -39 -74 -40 -80 -27 -110 7 -18 31 -51 53 -74 l40 -41 149 -1 c190 -1 344 -11 344 -22 0 -5 -4 -9 -9 -9 -9 0 -160 -94 -359 -224 l-73 -47 3 -82 3 -82 95 -63 c52 -35 143 -92 201 -127 59 -36 117 -74 130 -85 l24 -19 -262 -1 -261 0 -27 -32 c-15 -18 -36 -51 -47 -73 l-20 -41 47 -95 c26 -52 78 -150 115 -219 92 -172 91 -167 17 -126 -285 158 -394 216 -407 216 -23 0 -118 -58 -129 -78 -5 -9 -12 -134 -16 -277 -6 -198 -10 -256 -19 -242 -6 10 -26 40 -43 65 -18 26 -40 61 -48 77 -9 17 -53 89 -98 160 l-83 130 -81 3 -81 3 -31 -38 c-17 -21 -31 -41 -31 -45 0 -4 -19 -38 -43 -75 -24 -37 -77 -122 -118 -188 l-74 -120 -5 269 -5 268 -37 32 c-69 60 -83 64 -136 36 -188 -98 -439 -233 -451 -243 -9 -7 -7 0 5 18 32 47 221 406 234 446 17 46 9 76 -34 124 l-34 40 -271 5 -271 5 167 105 c92 58 188 117 214 132 73 42 89 69 89 147 l0 66 -62 40 c-35 21 -110 67 -167 102 -57 34 -111 69 -120 76 -9 8 -35 25 -58 37 -24 13 -43 27 -43 31 0 13 79 19 276 19 111 0 216 3 233 6 25 5 38 18 66 66 l35 58 -100 201 c-71 144 -114 219 -152 263 -28 33 -43 54 -33 44 11 -9 76 -45 145 -80 69 -34 127 -66 130 -69 3 -3 47 -27 99 -53 105 -53 177 -69 187 -42 3 9 12 16 20 16 8 0 14 3 14 8 0 4 10 12 23 17 31 14 35 56 36 322 1 193 3 222 16 217 8 -4 15 -12 15 -19z"/>
</g>
<g id="layer105" fill="#0196a3" stroke="none">
<path d="M1463 3649 c15 -9 17 -27 16 -162 -1 -84 -4 -163 -8 -176 -6 -23 -11 -18 -57 55 -60 94 -118 192 -127 217 -7 18 -22 23 -31 9 -3 -5 -6 -158 -7 -340 -1 -183 -5 -335 -9 -337 -8 -5 -193 87 -220 109 -20 17 -307 172 -345 186 -64 25 -64 21 -13 -68 51 -88 138 -257 138 -267 0 -8 -133 65 -145 80 -5 7 -14 12 -18 12 -23 2 -66 27 -60 36 3 6 1 7 -5 3 -6 -4 -24 0 -39 7 -15 8 -38 18 -51 22 l-23 7 23 -39 c39 -62 119 -213 113 -213 -3 0 -1 -6 5 -12 6 -7 40 -65 75 -128 35 -63 75 -134 89 -156 14 -23 26 -44 26 -47 0 -3 -151 -7 -336 -9 -335 -3 -336 -3 -354 -26 -24 -29 -59 -136 -63 -187 -2 -37 1 -41 43 -68 96 -60 260 -159 362 -218 59 -34 122 -74 140 -89 l32 -27 -25 -15 c-13 -8 -64 -39 -114 -70 -101 -62 -220 -133 -274 -163 -77 -43 -151 -96 -161 -116 -9 -16 -5 -43 21 -130 l32 -109 348 0 c192 0 349 -2 349 -5 0 -3 -29 -56 -64 -118 -35 -61 -109 -197 -165 -300 l-102 -188 21 -34 c23 -38 135 -145 152 -145 9 0 170 86 483 259 66 36 123 68 127 69 4 2 8 -154 8 -346 l0 -349 108 -31 c59 -17 118 -30 131 -29 25 2 86 97 318 491 l46 79 23 -29 c13 -16 45 -66 71 -112 26 -46 66 -111 88 -146 22 -35 58 -93 80 -130 102 -169 84 -151 148 -149 71 2 184 38 197 63 6 11 10 152 10 354 l0 335 63 -36 c142 -84 542 -303 553 -303 12 0 176 162 182 179 1 5 -10 30 -26 57 -41 68 -244 438 -276 500 l-25 52 337 6 c185 4 342 9 348 11 5 1 23 55 39 119 29 115 29 116 10 135 -11 10 -141 91 -290 180 -148 89 -271 166 -273 170 -1 4 8 12 21 18 12 6 99 57 192 113 94 57 208 125 255 152 99 57 111 71 105 112 -10 78 -46 187 -66 203 -9 7 -131 12 -342 16 -181 3 -331 8 -334 11 -3 3 4 18 16 34 12 17 21 33 21 37 0 4 29 58 64 119 106 187 216 395 216 411 0 17 -157 185 -172 185 -5 0 -43 -20 -84 -45 -40 -25 -76 -45 -80 -45 -7 0 -296 -159 -377 -207 -32 -19 -60 -33 -63 -31 -2 3 -7 144 -10 314 -6 343 -8 374 -29 374 -8 0 -15 -5 -15 -12 0 -7 -39 -78 -87 -157 -102 -170 -96 -173 -107 59 -4 85 -11 159 -15 163 -9 9 -21 -8 -206 -318 -76 -126 -143 -236 -150 -244 -11 -11 -15 -9 -25 10 -7 13 -47 80 -90 149 -43 69 -110 181 -151 250 -87 151 -95 160 -128 160 -23 -1 -24 -2 -8 -11z m1716 -524 c28 -31 51 -60 51 -64 0 -5 -60 -40 -132 -79 -145 -77 -168 -88 -168 -77 0 10 119 234 142 267 24 35 37 29 107 -47z m-1669 40 c0 -7 7 -18 15 -25 8 -6 30 -41 50 -76 19 -36 44 -75 55 -86 11 -12 23 -31 26 -42 7 -22 99 -162 120 -183 8 -8 39 -13 77 -13 75 0 105 18 139 83 11 23 44 75 73 117 28 41 76 115 106 165 l54 89 6 -64 c4 -36 7 -150 8 -254 l1 -188 42 -39 c40 -36 51 -43 63 -36 2 1 10 -6 18 -17 13 -18 16 -17 88 17 117 57 365 191 384 208 18 17 26 9 13 -13 -7 -13 -13 -25 -13 -28 0 -3 -8 -16 -17 -30 -15 -23 -49 -87 -167 -313 -39 -74 -40 -80 -27 -110 7 -18 31 -51 53 -74 l40 -41 149 -1 c190 -1 344 -11 344 -22 0 -5 -4 -9 -9 -9 -9 0 -160 -94 -359 -224 l-73 -47 3 -82 3 -82 95 -63 c52 -35 143 -92 201 -127 59 -36 117 -74 130 -85 l24 -19 -262 -1 -261 0 -27 -32 c-15 -18 -36 -51 -47 -73 l-20 -41 47 -95 c26 -52 78 -150 115 -219 92 -172 91 -167 17 -126 -285 158 -394 216 -407 216 -23 0 -118 -58 -129 -78 -5 -9 -12 -134 -16 -277 -6 -198 -10 -256 -19 -242 -6 10 -26 40 -43 65 -18 26 -40 61 -48 77 -9 17 -53 89 -98 160 l-83 130 -80 3 c-86 3 -103 -5 -136 -68 -13 -25 -123 -204 -204 -334 l-44 -70 -1 220 c-1 120 -4 246 -8 279 -6 59 -7 60 -62 98 l-56 39 -102 -51 c-130 -66 -349 -183 -387 -207 l-29 -19 18 29 c63 97 247 459 247 485 0 10 -15 41 -32 67 -30 45 -37 50 -83 56 -27 3 -153 7 -280 7 -208 2 -228 3 -210 17 11 8 87 56 168 107 82 51 174 108 205 127 68 42 82 67 82 142 l0 57 -57 39 c-32 21 -91 59 -131 83 -104 62 -134 81 -178 110 -21 14 -52 34 -69 44 -27 17 -28 19 -10 26 11 4 112 8 225 8 113 1 229 4 258 8 52 6 53 6 87 67 l34 60 -64 122 c-36 66 -62 124 -58 127 3 4 1 7 -6 7 -7 0 -9 5 -6 10 3 6 1 10 -5 10 -6 0 -8 5 -5 10 3 6 1 10 -5 10 -6 0 -8 5 -5 10 3 6 2 10 -2 10 -5 0 -15 16 -22 35 -7 19 -17 35 -23 35 -6 0 -9 3 -5 6 6 6 -3 17 -63 88 -19 23 -26 34 -15 24 11 -9 76 -45 145 -80 69 -34 127 -66 130 -69 3 -3 47 -27 99 -53 105 -53 177 -69 187 -42 3 9 12 16 20 16 8 0 14 3 14 8 0 4 10 12 23 17 31 14 35 56 36 322 1 193 3 222 16 217 8 -4 15 -12 15 -19z"/>
<path d="M2326 3631 c15 -14 54 -23 54 -13 0 5 -10 12 -22 16 -33 8 -44 8 -32 -3z"/>
</g>
<g id="layer106" fill="#db4b21" stroke="none">
<path d="M467 3028 c7 -8 55 -93 106 -189 162 -301 180 -333 199 -358 10 -13 18 -27 18 -32 0 -4 -151 -9 -336 -11 -335 -3 -336 -3 -354 -26 -24 -29 -59 -136 -63 -187 -2 -37 1 -41 43 -68 96 -60 260 -159 362 -218 59 -34 122 -74 140 -89 l32 -27 -25 -15 c-13 -8 -64 -39 -114 -70 -101 -62 -220 -133 -274 -163 -77 -43 -151 -96 -161 -116 -9 -16 -5 -43 21 -130 l32 -109 348 0 c192 0 349 -2 349 -5 0 -3 -29 -56 -64 -118 -35 -61 -109 -197 -165 -300 l-102 -188 21 -34 c23 -38 135 -145 152 -145 9 0 170 86 483 259 66 36 123 68 127 69 4 2 8 -154 8 -346 l0 -349 108 -31 c59 -17 118 -30 131 -29 25 2 86 97 318 491 l46 79 23 -29 c13 -16 45 -66 71 -112 26 -46 66 -111 88 -146 22 -35 58 -93 80 -130 102 -169 84 -151 148 -149 71 2 184 38 197 63 6 11 10 152 10 354 l0 335 63 -36 c142 -84 542 -303 553 -303 12 0 176 162 182 179 1 5 -10 30 -26 57 -41 68 -244 438 -276 500 l-25 52 337 6 c185 4 342 9 348 11 5 1 23 55 39 119 29 115 29 116 10 135 -11 10 -141 91 -290 180 -148 89 -271 166 -273 170 -1 4 8 12 21 18 12 6 99 57 192 113 94 57 210 126 258 154 49 28 93 59 98 68 13 25 -26 201 -53 235 -6 8 -44 -11 -131 -67 -67 -43 -170 -103 -228 -133 -102 -53 -218 -124 -412 -251 l-88 -58 3 -81 3 -82 95 -63 c52 -35 143 -92 201 -127 59 -36 117 -74 130 -85 l24 -19 -262 -1 -261 0 -27 -32 c-15 -18 -36 -51 -47 -73 l-20 -41 47 -95 c26 -52 78 -150 115 -219 92 -172 91 -167 17 -126 -285 158 -394 216 -407 216 -23 0 -118 -58 -129 -78 -5 -9 -12 -134 -16 -277 -6 -198 -10 -256 -19 -242 -6 10 -26 40 -43 65 -18 26 -40 61 -48 77 -9 17 -53 89 -98 160 l-83 130 -80 3 c-86 3 -103 -5 -136 -68 -13 -25 -123 -204 -204 -334 l-44 -70 -1 220 c-1 120 -4 246 -8 279 -6 59 -7 60 -62 98 l-56 39 -102 -51 c-130 -66 -349 -183 -387 -207 l-29 -19 18 29 c63 97 247 459 247 485 0 10 -15 41 -32 67 -30 45 -37 50 -83 56 -27 3 -153 7 -280 7 -208 2 -228 3 -210 17 11 8 87 56 168 107 82 51 174 108 205 127 68 42 82 67 82 142 l0 57 -57 39 c-32 21 -91 59 -131 83 -104 62 -134 81 -178 110 -21 14 -52 34 -69 44 -27 17 -28 19 -10 26 11 4 112 8 225 8 113 1 229 4 258 8 52 6 53 6 87 67 l34 60 -64 122 c-36 66 -62 124 -58 127 3 4 1 7 -6 7 -7 0 -9 5 -6 10 3 6 1 10 -5 10 -6 0 -8 5 -5 10 3 6 1 10 -5 10 -6 0 -8 5 -5 10 3 6 2 10 -2 10 -5 0 -15 16 -22 35 -7 19 -17 35 -23 35 -6 0 -9 3 -5 6 6 6 -7 24 -67 91 -45 50 -269 181 -356 208 -21 7 -23 6 -13 -7z"/>
<path d="M7513 2525 c0 -22 2 -30 4 -17 2 12 2 30 0 40 -3 9 -5 -1 -4 -23z"/>
</g>
<g id="layer107" fill="#629160" stroke="none">
<path d="M3495 2350 c-66 -43 -168 -103 -226 -133 -102 -53 -218 -124 -412 -251 l-88 -58 3 -81 3 -82 95 -63 c52 -35 143 -92 201 -127 59 -36 117 -74 130 -85 l24 -19 -262 -1 -261 0 -27 -32 c-15 -18 -36 -51 -47 -73 l-20 -41 47 -95 c26 -52 78 -150 115 -219 92 -172 91 -167 17 -126 -285 158 -394 216 -407 216 -23 0 -118 -58 -129 -78 -5 -9 -12 -134 -16 -277 -6 -198 -10 -256 -19 -242 -6 10 -26 40 -43 65 -18 26 -40 61 -48 77 -9 17 -53 89 -98 160 l-83 130 -80 3 c-86 3 -103 -5 -136 -68 -13 -25 -123 -204 -204 -334 l-44 -70 0 -170 c0 -194 8 -278 24 -273 9 3 147 226 303 491 l46 79 23 -29 c13 -16 45 -66 71 -112 26 -46 67 -113 90 -150 71 -111 103 -164 136 -222 l32 -54 57 1 c69 1 185 38 198 63 6 11 10 152 10 354 l0 335 63 -36 c142 -84 542 -303 553 -303 12 0 176 162 182 179 1 5 -10 30 -26 57 -41 68 -244 438 -276 500 l-25 52 337 6 c185 4 342 9 348 11 5 1 23 55 39 119 29 115 29 116 10 135 -11 10 -141 91 -290 180 -148 89 -271 166 -273 170 -1 4 8 12 21 18 12 6 99 57 192 113 94 57 210 126 258 154 49 28 93 59 98 68 11 20 -13 142 -41 204 -10 24 -20 44 -22 43 -2 0 -57 -36 -123 -79z"/>
</g>
<g id="layer108" fill="#838e49" stroke="none">
<path d="M3600 2417 c-33 -30 -220 -143 -329 -200 -63 -33 -201 -115 -306 -182 l-190 -122 0 -84 0 -84 95 -63 c52 -35 143 -92 201 -127 59 -36 117 -74 130 -85 l24 -19 -262 -1 -261 0 -27 -32 c-15 -18 -36 -51 -47 -73 l-20 -41 47 -95 c26 -52 76 -147 112 -212 35 -64 68 -129 73 -143 l10 -26 -52 30 c-213 119 -369 204 -396 213 -27 9 -38 7 -83 -17 -28 -16 -57 -38 -64 -49 -9 -14 -15 -97 -20 -280 -6 -198 -10 -256 -19 -242 -6 10 -26 40 -43 65 -18 26 -40 61 -48 77 -9 17 -53 89 -98 160 l-83 130 -80 3 c-86 3 -103 -5 -136 -68 -13 -25 -123 -204 -204 -334 l-44 -70 0 -170 c0 -194 8 -278 24 -273 9 3 147 226 303 491 l46 79 23 -29 c13 -16 45 -66 71 -112 26 -46 67 -113 90 -150 71 -111 103 -164 136 -222 l32 -54 57 1 c69 1 185 38 198 63 6 11 10 152 10 354 l0 335 63 -36 c142 -84 542 -303 553 -303 12 0 176 162 182 179 1 5 -10 30 -26 57 -45 76 -236 422 -270 490 l-31 62 337 6 c185 4 342 9 347 10 6 2 23 55 40 119 24 94 27 118 16 130 -6 9 -138 91 -292 183 -153 92 -279 171 -279 174 0 4 10 11 23 17 13 6 99 57 192 113 94 57 210 126 258 154 49 28 93 59 98 69 11 19 -21 168 -46 217 -18 35 -16 34 -35 17z"/>
</g>
<g id="layer109" fill="#af9029" stroke="none">
<path d="M3522 2364 c-103 -69 -249 -153 -302 -174 -19 -8 -128 -74 -242 -148 l-208 -134 0 -75 c0 -91 -4 -86 178 -201 67 -42 157 -99 200 -127 l77 -50 -262 -3 -261 -2 -27 -32 c-15 -18 -36 -51 -47 -73 l-20 -41 32 -65 c18 -35 65 -125 106 -199 40 -74 80 -152 89 -173 l16 -38 -23 12 c-13 6 -111 60 -218 120 -107 59 -206 110 -220 114 -32 7 -127 -46 -139 -78 -5 -12 -12 -137 -16 -276 -6 -192 -10 -251 -19 -239 -12 18 -59 91 -91 144 -18 29 -95 152 -162 257 l-23 37 -79 0 -80 0 -30 -37 c-17 -21 -31 -41 -31 -45 0 -4 -19 -38 -43 -75 -24 -38 -78 -125 -120 -194 l-77 -127 0 -168 c0 -191 8 -276 24 -271 5 2 85 128 176 279 91 152 168 280 172 283 7 8 97 -124 142 -210 15 -27 49 -84 76 -125 27 -41 61 -97 76 -125 49 -91 58 -99 119 -98 78 1 179 37 194 69 7 17 11 128 11 356 0 263 3 328 13 321 10 -9 88 -53 432 -244 33 -18 83 -45 110 -61 28 -15 55 -28 61 -28 12 0 176 162 182 180 2 5 -5 22 -16 37 -10 16 -41 69 -67 118 -26 50 -72 132 -102 184 -30 52 -74 134 -99 182 l-44 89 32 1 c473 7 654 11 657 15 3 3 6 11 7 20 1 8 11 45 22 82 34 110 36 135 15 154 -10 9 -67 45 -128 81 -203 118 -430 258 -432 265 -1 4 41 32 95 63 181 104 467 280 474 292 4 7 5 28 2 47 -9 50 -53 189 -62 193 -4 1 -49 -25 -100 -59z"/>
</g>
<g id="layer110" fill="#f4af00" stroke="none">
<path d="M3560 2381 c-156 -101 -222 -140 -290 -173 -61 -29 -182 -101 -483 -292 -15 -9 -18 -23 -16 -86 3 -75 3 -75 44 -105 22 -16 42 -32 45 -35 3 -3 22 -13 42 -24 20 -10 46 -27 57 -37 11 -11 25 -19 31 -19 5 0 10 -5 10 -12 0 -6 3 -9 6 -6 6 7 167 -90 172 -103 2 -5 9 -9 17 -9 7 0 18 -7 25 -15 11 -13 -13 -15 -207 -15 -321 0 -329 -2 -381 -102 l-23 -45 116 -218 c106 -198 133 -255 119 -255 -11 0 -360 194 -366 204 -5 7 -8 7 -8 1 0 -5 -4 -4 -9 3 -4 7 -26 19 -47 27 -37 13 -41 12 -99 -20 -59 -33 -60 -34 -67 -87 -4 -29 -10 -143 -12 -253 -2 -110 -5 -209 -5 -219 -1 -18 -2 -19 -21 -1 -11 10 -18 20 -16 23 3 2 1 9 -4 16 -50 60 -64 81 -83 115 -12 21 -55 93 -96 160 l-74 122 -78 -2 c-65 -1 -81 -5 -98 -23 -11 -12 -19 -24 -18 -27 3 -8 -125 -213 -135 -217 -5 -2 -8 -10 -8 -18 0 -8 -5 -14 -12 -14 -6 0 -9 -3 -5 -6 3 -3 -19 -45 -50 -92 l-55 -86 4 -207 c3 -225 12 -262 43 -195 10 20 21 36 26 36 5 0 8 3 7 8 -3 11 75 142 85 142 4 0 6 4 3 8 -3 5 5 20 17 33 12 13 20 24 19 24 -9 0 22 55 31 55 6 0 8 3 4 6 -5 5 74 136 102 170 6 7 7 15 4 18 -4 3 -2 6 4 6 6 0 13 10 16 21 5 20 7 20 22 6 9 -9 16 -20 17 -24 1 -4 9 -16 18 -25 9 -10 36 -53 60 -95 24 -43 58 -100 75 -128 53 -83 69 -110 70 -115 0 -3 13 -24 28 -47 15 -24 38 -61 52 -83 23 -36 29 -40 68 -40 23 0 59 5 81 11 21 6 47 12 58 14 43 9 56 17 64 38 4 12 10 171 13 353 l6 332 205 -113 c113 -63 210 -117 215 -122 6 -5 13 -10 17 -11 26 -7 78 -37 78 -44 0 -5 5 -6 10 -3 6 3 10 1 10 -5 0 -6 5 -8 10 -5 6 3 10 2 10 -3 0 -5 15 -13 33 -19 29 -9 37 -7 63 15 16 14 29 28 29 32 0 4 26 32 58 63 31 31 57 59 57 63 0 4 -8 17 -18 28 -25 28 -84 136 -75 136 5 0 3 4 -3 8 -15 9 -201 347 -215 389 -6 18 -15 33 -20 33 -5 0 -9 5 -9 10 0 6 122 10 345 10 l344 0 29 93 c45 142 45 144 21 164 -12 10 -27 23 -34 30 -7 7 -15 9 -19 6 -3 -4 -6 -1 -6 5 0 7 -5 12 -11 12 -15 0 -362 209 -371 224 -4 6 -8 7 -8 3 0 -5 -13 1 -29 12 -15 11 -40 25 -55 31 -14 5 -26 16 -26 24 0 14 50 53 50 39 0 -5 4 -3 8 3 10 15 112 75 112 66 0 -4 4 -2 8 4 8 13 272 176 272 168 0 -3 6 0 13 6 6 6 33 24 60 41 41 27 47 35 47 64 0 36 -45 191 -58 198 -4 2 -32 -12 -62 -32z"/>
</g>


</svg>