<svg xmlns="http://www.w3.org/2000/svg" viewBox="0.34100425243377686 0 349.6589660644531 114.50017547607422"><g fill="none"><path fill="#4DA7CA" d="M7.5 1c.35.55 1.3 1 2.15 1 3.5 0 18 8.65 23.35 13.95 10.5 10.35 12.85 21.15 7.05 32.6-3.9 7.7-3.35 7.8 3.95.85 16.85-16.05 21.5-32 13.2-45.15L54.5 0H30.7C15.05 0 7.1.35 7.5 1z"></path><path fill="#E37639" d="M28.75 37.95C2.4 55.6 2.6 78.15 29.45 105l8.75 8.75 22.15.45c24.65.5 24.2.55 19.65-1.9-11.85-6.5-31.75-22.75-40.65-33.2-14.4-16.85-16.5-30.25-6.3-40.65 6.1-6.2 4.5-6.35-4.3-.5z"></path><path fill="#4EA8C9" d="M84.5 49.9C70.65 56.25 69.7 80.95 83 87.85c4.55 2.35 17.15 2.7 22.3.6 3.05-1.2 1.9-7.05-1.3-6.7-1.35.15-4.75.55-7.5.85-8.3.95-12.4-1.8-14-9.35L81.85 70H108v-5.25c0-12.9-11.7-20.3-23.5-14.85zm12.75 6.85c.9.95 1.9 3 2.3 4.5l.65 2.75h-8.6c-8 0-8.6-.15-8.6-2.05 0-5.6 10.45-9.45 14.25-5.2zm34.15-7.35c-1.7.75-4.05 2.6-5.25 4.1L124 56.25v-3.6c0-3.6-.05-3.65-4-3.65h-4v40h9V76.95c0-14.95 2-19.7 9.15-21.45C139.9 54.05 141 57.05 141 74v15h9V73.45c0-18.2-.95-21.7-6.45-24-4.3-1.8-8.1-1.8-12.15-.05zm35.8.7c-12.9 6.4-13.7 31-1.2 37.6 9.15 4.85 24 2.6 24-3.65v-3.8l-3.75 1.3c-8.65 3.1-17.15 1-19.15-4.65-2.6-7.45-2.65-7.45 12.05-7.1l13.15.3-.55-6.1c-1.2-13.2-12.7-19.75-24.55-13.9zM181 57c4.85 4.85 2.85 7-6.5 7-9.6 0-10.3-.7-5.9-5.9 3.2-3.8 9.15-4.35 12.4-1.1zm31.5-6.85c-1.5 1.2-3.4 3.55-4.15 5.25-1.45 3.1-1.45 3.1-.85-1.65l.6-4.75h-8.6l-.1 20-.05 20h9.15V77.75C208.5 61.7 210.45 57 217 57c1.9 0 3-.5 3-1.4 0-.75.3-2.75.65-4.5.75-3.9-3.65-4.45-8.15-.95zm26-.8c-8.65 2.8-13.9 9-15.1 17.75-2.25 16.4 12.25 26.55 31.15 21.8l4.45-1.15V68h-8v6.9c0 6.85-.05 6.95-2.9 7.6-7.15 1.55-14.35-3.1-15.65-10-2.2-11.5 7-19.3 19.1-16.2l5.5 1.4.55-2.6c.3-1.45.7-3.1.9-3.75.75-2.5-14.05-4-20-2zm59-.45c-16.8 3-18.3 17.45-2.35 23.25 6.65 2.4 9.3 4.85 8.4 7.65-1.05 3.35-9.1 3.6-16.95.6-1.5-.6-1.7-.1-1.4 3.7.65 8.95 22.05 7.7 26.45-1.55 3.45-7.2 1.15-11.1-9.95-16.55-12.1-5.95-11.05-11.8 1.95-10.75 6 .5 6.2.45 6.7-2.1.8-4.1-4.25-5.75-12.85-4.25zm27.75.25c-4.8.9-5.25 1.25-5.25 3.7.05 4.55 1.05 5.25 5.55 3.65 8.65-3.1 15.45-.9 15.45 5 0 2.3-.4 2.5-4.35 2.5-16.15 0-25.3 13.5-15.7 23.15 4.9 4.85 16.45 3.15 20-3 .8-1.3 1-1.05 1 1.5.05 2.95.3 3.15 4.05 3.5l4 .4v-16c-.05-23.85-4.6-28.3-24.75-24.4zM341 71.55c0 9.3-11 15.35-14.95 8.25-2.1-3.8.9-7.85 7.05-9.45 6.9-1.85 7.9-1.7 7.9 1.2zM267 69v20h9V49h-9z"></path><path fill="#E37639" d="M1.7 74.1C-.95 84.65.35 98.95 4.95 109.65l2.1 4.85H21c16.05 0 15.85.1 8.3-4.45C16.95 102.7 6.85 89.9 3.95 78c-1.35-5.45-1.7-6.1-2.25-3.9z"></path></g></svg>