<svg xmlns="http://www.w3.org/2000/svg" viewBox="0.656000018119812 0.0389995239675045 717.40966796875 251.40728759765625"><g fill="none"><path fill="#4E2D32" d="M431.543981 55.4602616C472.943981 55.2611499 506.943981 88.8611499 506.943981 129.66115 506.943981 171.86115 473.643981 205.76115 431.943981 205.56203 389.943981 205.36115 356.443981 172.56115 356.64309 130.26115 356.843981 87.0611499 391.343981 55.6611499 431.543981 55.4602616zM431.643981 91.7611499C410.143981 91.8611499 393.043981 109.26115 393.043981 130.86115 393.043981 151.46115 410.743981 169.16115 431.243981 169.061572 453.743981 168.96115 470.443981 152.26115 470.344427 129.86115 470.243981 108.86115 452.943981 91.7611499 431.643981 91.7611499zM161.643981 152.86115C162.143981 140.66115 160.243981 125.46115 162.443981 110.56115 168.543981 70.2611499 208.243981 47.6611499 242.943981 57.6611499 265.043981 64.0611499 279.843981 77.8611499 287.743981 99.2611499 289.943981 105.26115 290.943981 111.56115 290.943981 117.96115 290.943981 143.86115 290.843981 169.76115 291.043981 195.66115 291.043981 199.66115 290.043981 201.36115 285.643981 201.26115 277.143981 200.96115 268.543981 201.06115 260.043981 201.26115 256.043981 201.36115 254.743981 199.76115 254.743981 195.86115 254.843981 170.86115 254.843981 145.76115 254.743981 120.76115 254.643981 104.06115 241.943981 91.4611499 225.643981 91.6611499 212.743981 91.8611499 201.243981 101.36115 198.643981 113.96115 197.843981 117.66115 197.543981 121.36115 197.643981 125.16115 197.643981 148.46115 197.643981 171.76115 197.643981 195.06115 197.643981 201.16115 197.643981 201.16115 191.343981 201.26115 183.343981 201.26115 175.443981 201.26115 167.443981 201.26115 161.943981 201.26115 161.743981 201.06115 161.743981 195.76115 161.643981 182.26115 161.643981 168.96115 161.643981 152.86115zM143.843981 100.66115C148.943981 112.26115 150.643981 124.46115 149.643981 137.06115 149.343981 140.26115 147.743981 140.66115 145.043981 140.66115 121.843981 140.46115 98.4439808 140.46115 75.1439808 140.46115 51.9439808 140.46115 28.7439808 140.36115 5.64398077 140.56115 2.14398077 140.56115.543980768 139.86115.243980768 135.96115-1.35601923 115.26115 4.94398077 97.0611499 18.2439808 81.4611499 31.5439808 65.9611499 48.7439808 57.2611499 69.1439808 55.7611499 101.443981 53.4611499 130.643981 70.7611499 143.843981 100.66115zM91.3439808 95.4611499C75.6439808 87.5611499 53.3439808 93.2611499 43.7439808 107.76115 43.0439808 108.76115 41.8439808 109.96115 42.4439808 111.26115 43.0439808 112.66115 44.7439808 112.16115 45.9439808 112.16115L45.9439808 112.16115 79.8944437 112.160687C87.9800919 112.158372 96.0773141 112.144483 104.243981 112.06115 104.415409 112.06115 104.595001 112.073395 104.778675 112.089721L105.056736 112.116252C106.083777 112.217272 107.172552 112.318293 107.643981 111.06115 107.938718 110.250624 107.527637 109.494391 107.050833 108.752446L106.844331 108.435228C106.740934 108.276939 106.638718 108.119045 106.543981 107.96115 102.843981 102.16115 97.3439808 98.4611499 91.3439808 95.4611499z" transform="translate(.656 .039)"></path><path fill="#4F2E33" d="M678.743981,127.96115 C678.743981,105.36115 678.843981,82.8611499 678.643981,60.2611499 C678.643981,56.1611499 679.843981,54.6611499 684.043981,54.7611499 C692.743981,55.0611499 701.443981,54.8611499 710.143981,54.7611499 C713.943981,54.7611499 715.543981,56.1611499 715.443981,60.1611499 C715.343981,105.26115 715.343981,150.46115 715.443981,195.56115 C715.443981,199.86115 714.243981,201.46115 709.843981,201.26115 C701.043981,200.96115 692.143981,201.06115 683.343981,201.26115 C679.643981,201.36115 678.643981,200.06115 678.643981,196.46115 C678.843981,173.66115 678.743981,150.76115 678.743981,127.96115 C678.743981,127.96115 678.743981,127.96115 678.743981,127.96115 Z" transform="translate(.656 .039)"></path><path fill="#EE5E7A" d="M14.6439808,167.46115 C22.1439808,162.96115 29.6439808,158.56115 37.0439808,153.96115 C39.1439808,152.66115 40.3439808,152.76115 42.0439808,154.96115 C48.2439808,163.36115 56.5439808,169.46115 66.7439808,171.26115 C79.3439808,173.46115 91.4439808,170.86115 101.343981,161.96115 C103.843981,159.76115 106.143981,157.36115 108.243981,154.76115 C109.843981,152.76115 111.343981,153.16115 113.143981,154.16115 C120.543981,158.56115 127.843981,163.06115 135.243981,167.46115 C137.843981,168.96115 138.743981,170.16115 136.743981,173.16115 C127.743981,186.86115 115.043981,195.66115 99.9439808,201.46115 C94.5439808,203.36115 89.0439808,204.36115 83.4439808,204.96115 C75.5106474,205.894483 69.5439808,205.894483 65.5439808,204.96115 C62.2439808,204.16115 58.8439808,203.86115 55.4439808,202.86115 C42.9439808,199.26115 31.8439808,193.36115 22.4439808,184.36115 C19.1439808,181.26115 16.5439808,177.66115 13.8439808,174.06115 C11.7439808,171.46115 11.8439808,169.36115 14.6439808,167.46115 Z" transform="translate(.656 .039)"></path><path fill="#4E2D32" d="M717.343981 21.5611499C717.243981 33.3611499 708.243981 42.0611499 696.043981 41.6611499 685.043981 41.3611499 676.543981 32.9611499 676.543981 21.0611499 676.543981 9.16114989 686.343981.76114989 697.543981.86114989 707.743981.96114989 718.343981 10.0611499 717.343981 21.5611499zM641.243981 72.0611499C658.443981 86.3611499 666.443981 105.36115 668.043981 127.26115 668.343981 130.86115 667.643981 134.46115 667.343981 138.06115 667.243981 140.06115 665.743981 140.76115 664.043981 140.86115 661.643981 141.06115 659.143981 141.16115 656.643981 141.16115 641.443981 141.36115 626.143981 141.26115 610.743981 141.26115 593.943981 141.26115 577.143981 141.36115 560.343981 141.16115 556.743981 141.16115 555.943981 142.06115 557.443981 145.36115 564.843981 161.96115 579.443981 169.96115 597.343981 167.76115 607.343981 166.56115 615.343981 161.96115 621.443981 154.06115 623.943981 150.86115 626.243981 150.46115 629.843981 152.76115 637.243981 157.66115 644.943981 162.26115 652.643981 166.76115 656.043981 168.76115 656.143981 170.86115 654.043981 173.86115 643.643981 188.46115 630.143981 198.46115 612.643981 203.36115 590.843981 209.56115 570.543981 206.26115 551.743981 194.76115 532.743981 183.16115 521.043981 165.76115 517.243981 143.96115 510.543981 104.96115 531.943981 69.7611499 567.543981 57.7611499 594.643981 48.6611499 619.343981 53.7611499 641.243981 72.0611499zM595.843981 92.1611499C581.443981 90.7611499 569.943981 96.2611499 561.043981 107.46115 560.97475 107.545765 560.903744 107.630972 560.83201 107.716862L560.615669 107.976671C559.822087 108.937481 559.067058 109.991919 559.743981 111.26115 560.386838 112.404007 561.437858 112.373395 562.496167 112.262608L562.813478 112.22806C563.130205 112.193293 563.443981 112.16115 563.743981 112.16115L563.743981 112.16115 620.543981 112.16115C621.843981 112.16115 623.743981 112.86115 624.443981 111.26115 625.043981 109.86115 623.843981 108.56115 622.943981 107.46115 616.043981 98.5611499 607.043981 93.2611499 595.843981 92.1611499z" transform="translate(.656 .039)"></path><path fill="#4E2E33" d="M346.643981 127.06115C346.643981 148.36115 347.043981 169.66115 346.543981 190.86115 346.143981 206.86115 341.743981 221.86115 330.643981 234.06115 322.943981 242.56115 312.843981 247.46115 301.743981 249.66115 288.143981 252.26115 274.443981 252.06115 260.943981 248.36115 254.343981 246.56115 253.643981 245.46115 253.543981 238.76115 253.543981 232.36115 253.643981 226.06115 253.543981 219.66115 253.443981 216.16115 254.943981 214.86115 258.243981 215.16115 262.143981 215.46115 266.043981 215.46115 269.943981 216.06115 280.343981 217.56115 290.343981 216.06115 299.143981 210.06115 305.643981 205.56115 307.543981 198.76115 307.543981 191.46115 307.743981 169.06115 307.643981 146.56115 307.643981 124.16115 307.643981 103.06115 307.643981 81.8611499 307.643981 60.7611499 307.643981 55.0611499 308.743981 53.8611499 314.443981 53.8611499 322.743981 53.8611499 330.943981 53.8611499 339.243981 53.8611499 345.443981 53.8611499 346.643981 55.1611499 346.643981 61.1611499 346.643981 83.0611499 346.643981 105.06115 346.643981 127.06115zM315.343981 38.0611499C313.443981 38.4611499 312.043981 37.5611499 310.743981 36.2611499 303.043981 28.3611499 302.243981 16.0611499 309.943981 7.06114989 319.243981-3.73885011 339.843981-2.43885011 346.243981 12.9611499 349.943981 21.9611499 347.943981 30.8611499 339.543981 37.7611499 334.243981 42.1611499 328.243981 43.3611499 321.743981 42.2611499 319.043981 41.8611499 316.143981 41.5611499 315.343981 38.0611499 317.043981 37.1611499 318.443981 38.3611499 319.843981 38.8611499 327.643981 41.4611499 336.643981 38.7611499 341.243981 32.4611499 346.243981 25.6611499 346.043981 16.3611499 340.843981 9.46114989 336.343981 3.46114989 326.743981.66114989 319.243981 3.76114989 305.743981 9.46114989 303.743981 24.0611499 312.343981 33.6611499 313.543981 35.0611499 315.643981 35.7611499 315.343981 38.0611499z" transform="translate(.656 .039)"></path><path d="M14.6439808,167.46115 C12.9439808,169.56115 12.4439808,171.26115 14.4439808,173.86115 C30.0439808,194.66115 50.9439808,204.66115 76.8439808,204.76115 C79.0439808,204.76115 81.1439808,204.86115 83.3439808,204.86115 C82.3439808,206.96115 80.4439808,206.46115 78.8439808,206.46115 C64.6439808,206.96115 51.2439808,203.66115 38.9439808,197.16115 C28.6439808,191.66115 19.6439808,184.16115 13.2439808,174.16115 C11.5439808,171.66115 10.3439808,168.86115 14.6439808,167.46115 Z" transform="translate(.656 .039)"></path><path fill="#4E2E33" d="M344.943981 126.66115C344.943981 147.06115 344.943981 167.46115 344.943981 187.86115 344.943981 198.36115 343.543981 208.76115 339.243981 218.16115 332.943981 232.16115 322.243981 242.06115 307.143981 246.36115 292.543981 250.56115 277.743981 250.06115 262.943981 246.96115 255.743981 245.46115 255.343981 244.56115 255.343981 237.36115 255.343981 231.86115 255.343981 226.36115 255.343981 220.86115 255.343981 215.86115 256.343981 214.86115 261.243981 216.16115 267.543981 217.76115 273.843981 217.66115 280.243981 217.56115 284.643981 217.56115 288.943981 216.46115 292.943981 214.96115 303.643981 211.06115 309.243981 202.66115 309.243981 190.96115 309.243981 147.96115 309.243981 104.96115 309.243981 62.0611499 309.243981 56.1611499 309.243981 56.1611499 315.343981 56.1611499 323.643981 56.1611499 331.843981 56.3611499 340.143981 56.0611499 343.943981 55.9611499 345.143981 57.3611499 345.043981 61.0611499 344.943981 82.9611499 344.943981 104.76115 344.943981 126.66115zM315.343981 38.0611499C308.943981 32.8611499 305.243981 26.6611499 306.543981 17.8611499 308.643981 3.76114989 325.643981-3.23885011 337.343981 4.76114989 346.443981 10.9611499 348.943981 22.0611499 342.943981 32.1611499 339.143981 38.5611499 327.643981 44.6611499 317.343981 38.9611499 316.643981 38.6611499 316.043981 38.3611499 315.343981 38.0611499L315.343981 38.0611499z" transform="translate(.656 .039)"></path></g></svg>