<svg xmlns="http://www.w3.org/2000/svg" viewBox="0.3646557331085205 0.4714818000793457 449.1353454589844 146.86500549316406"><g fill="none"><path fill="#4C94B4" d="M9 1.25c0 .4.55.75 1.2.75 3 0 20.3 9.5 27.05 14.85 17.25 13.7 21.85 29.5 13.5 46.35-4.5 9.05-3.1 8.6 7.7-2.5C79.4 39.2 83.65 19.1 70.7 2.8 69.3 1 9-.5 9 1.25zm91.9 30.65c-6 6.05-2.65 13.05 6.35 13.1H112v-4c0-2.9-.4-4-1.5-4-.95 0-1.5.95-1.5 2.5 0 2.75-3.55 3.55-5.8 1.3-3.35-3.35.15-9.4 4.9-8.45 3.1.65 5-1.05 2.8-2.45-2.85-1.8-7-.95-10 2zM117 37c0 8.4 2.5 12.1 3.2 4.75l.3-3.25 1.8 3.25c1.25 2.35 2.45 3.25 4.3 3.25h2.6l-2.65-3.15c-2.6-3.1-2.6-3.1-.6-4.55 4.4-3.05.8-8.3-5.65-8.3H117v8zm6.5-2.5c0 1.1-.8 2.1-1.75 2.3-1.3.25-1.75-.3-1.75-2.3 0-2 .45-2.55 1.75-2.3.95.2 1.75 1.2 1.75 2.3zm8.5.75c0 7.9 1.35 9.95 6.35 9.95 5.9 0 7.65-2.3 7.65-9.95 0-8.1-3.4-9.3-3.6-1.2-.2 7.95-.2 7.95-3.35 7.95-3.45 0-4.4-2-3.9-8.25.3-3.35 0-4.3-1.4-4.55-1.5-.3-1.75.5-1.75 6.05zm19 1.6c0 6.6.3 8.15 1.5 8.15.95 0 1.5-.95 1.5-2.5 0-1.95.5-2.5 2.35-2.5 8.35 0 7.15-9.6-1.3-10.7l-4.05-.55v8.1zm6.95-3.4c1.55 1.85.55 3.55-2 3.55-1.4 0-1.95-.7-1.95-2.5 0-2.8 2.05-3.35 3.95-1.05z"></path><path fill="#4C94B4" d="M166.8 32.05c-5.5 5.5-2.45 12.95 5.3 12.95 7.1 0 10.5-8.5 5.45-13.55-3.35-3.35-7-3.15-10.75.6zm7.25 1c4.15 2.2 1.95 9.3-2.65 8.8-2.5-.3-2.95-.85-3.25-3.8-.45-4.7 2.25-7 5.9-5zM44.3 44.45c-4.8 2.1-14.25 8.75-19.05 13.4C2.4 80.05 7.1 106.95 39.1 137.4l9.9 9.45 27.75.35c26.05.3 30.5.15 27.55-.9-7.1-2.55-35.35-24.35-47.95-36.95-25.4-25.5-29.7-45.95-12.95-61.55 5.55-5.2 5.6-5.4.9-3.35zm66.25 19C99.6 66.4 93.25 78 94.25 93.15c1.15 16.7 10.05 23.75 28.25 22.55 12.5-.85 14.65-1.95 13.85-7.05-.8-5.2-.3-4.95-5.3-3.15-13.65 4.8-23.8.3-25.65-11.4l-.65-4.1h16.55c19.05 0 18.6.25 16.8-9.45-2.7-14.55-13.05-21-27.55-17.1zm13.8 10.2c1.45 1.45 2.65 3.2 2.65 3.9 0 .7.25 2 .6 2.85.55 1.4-.8 1.6-10.95 1.6H105.1l1.05-2.95c2.8-8.1 12.6-11 18.2-5.4zM171.5 62.9c-4.9 1.25-7.4 2.95-10.55 7.35l-3 4.15.65-5.7.7-5.7h-10.8v52H160V99.45c0-20.6 3.2-27.45 12.85-27.45 7.4.05 8.15 2.3 8.15 25.05V115h11.15l-.35-21.25c-.35-23.45-1-26.25-6.7-29.2-3.7-1.9-9.75-2.65-13.6-1.65zm48 0c-11.9 3.1-17.95 12.2-17.9 27.15 0 21 13.65 30.05 36.9 24.6l5-1.2-.1-4.25c-.1-5.4-.15-5.4-5.45-3.55-13.15 4.55-23.45-.3-25.25-11.9l-.55-3.75H246v-4.3c0-15.9-12.3-26.5-26.5-22.8zm10.55 9.15c2.1 1.1 4.95 5.95 4.95 8.4 0 1.3-1.75 1.55-11 1.55-11.75 0-12-.15-9.5-5 2.8-5.45 10.25-7.8 15.55-4.95zm45.45-8.65c-3.7 1.65-7 5.15-8.45 9-1.6 4.2-2.1 2.75-1.15-3.2.95-6.25 1-6.2-5.05-6.2H256v52h11v-13.8c0-20.9 3.15-28.2 12.15-28.2 2.1 0 2.7-.6 3.25-3.15 1.6-8 0-9.5-6.9-6.45zm149-.8c-1.1.25-4.65.95-7.85 1.6l-5.85 1.1.45 4.4c.65 5.65.3 5.5 7.25 3.15 10.45-3.55 19.5-.5 19.5 6.5 0 2-.7 2.3-7.85 3.25-21.35 2.9-30.55 18.9-17.5 30.4 6.15 5.4 20.1 3.1 24.1-3.95 2.4-4.2 3.1-3.8 2.5 1.45l-.5 4.5h10.75l-.5-21.45c-.55-23.9-.95-25.25-8.05-28.75-3.55-1.7-12.95-3-16.45-2.2zM438 92.1c0 10.65-12.65 19.75-18.15 13-4.5-5.6-.35-13.3 7.95-14.65 2.05-.3 4.4-.75 5.2-.9 4.3-.9 5-.55 5 2.55zM303.45 64.55c-20.6 7.6-23.15 38.55-4.05 48.75 4.85 2.6 21.9 3.1 29.35.9l4.25-1.3V88h-11v17.9l-4.3.65c-18.95 2.8-27.65-21.35-11.6-32.4 3.45-2.35 14.95-2.7 21.55-.65 2.35.75 5.05-6.85 3.2-8.95-1.45-1.65-22.9-1.7-27.4 0zM343 88.95V115h11.5l-.25-25.75-.2-25.75-5.55-.3-5.5-.3zm32.5-24c-15.95 6.3-14.1 21 3.5 28.15 18.75 7.6 10.55 18.55-8.75 11.65l-4.25-1.5v10.55l7.05 1.3c16 2.85 28.1-3.35 28.35-14.45.15-6.55-2.4-9.4-13.05-14.65-10.4-5.15-12.35-6.55-12.35-8.95 0-4.65 10-7.5 18.2-5.25l3.6 1 .45-4.15c.25-2.3.25-4.4 0-4.65-1.35-1.6-18.05-.9-22.75.95z"></path><path fill="#D4D64D" d="M1.6 96c-2.55 11.35-1 32.45 3.25 43.5l2.7 7 17.95.5c21.55.65 21.2.75 13.45-3.85C20.9 132.5 6.5 114.6 3.7 99.3c-1.25-6.6-1.3-6.7-2.1-3.3z"></path></g></svg>