<svg xmlns="http://www.w3.org/2000/svg" viewBox="0.02801513671875 6.074000358581543 296.94500732421875 87.85200500488281"><path fill="#6764ad" d="M52.407 62.059c0 3.291-1.306 5.68-3.913 7.208-2.071 1.214-5.044 1.798-8.923 1.798-3.87 0-6.844-.627-8.957-1.933-2.476-1.574-3.744-4.056-3.744-7.48v-8.286a1494.51 1494.51 0 0110.904-1.754V61.97c0 .719.13 1.309.446 1.753.316.363.813.544 1.443.544.631 0 1.079-.181 1.396-.544.319-.444.454-1.034.454-1.753v-8.917h10.894zm55.58 8.379H97.136v-1.484c-.583.583-1.486 1.08-2.702 1.484-1.127.406-2.478.627-4.053.627-2.298 0-4.236-.584-5.724-1.798-1.48-1.215-2.204-2.655-2.204-4.374v-17.56c3.558-.229 7.203-.449 10.9-.633v15.45c0 1.354.633 2.029 1.891 2.029.628 0 1.077-.136 1.396-.456.313-.4.496-.898.496-1.53V46.48c3.56-.183 7.204-.32 10.853-.452zm15.404-6.26c.499 0 .947-.135 1.215-.455.41-.4.588-.898.588-1.572V50.71c-.755.184-1.393.393-1.89.621-.483.214-.84.441-1.084.686-.54.538-.813 1.219-.813 2.028v8.106c0 .674.182 1.172.501 1.572.339.303.803.445 1.396.456zm-.087 6.612c-.996.194-2.254.275-3.83.275-3.242 0-5.54-.584-6.938-1.71-1.35-1.17-2.024-2.925-2.024-5.269v-8.914c0-3.56 2.432-6.536 7.295-8.875.497-.227.992-.45 1.44-.632l4.057-.092c4.209-.102 8.464-.187 12.786-.22v25.085h-9.633v-1.71c-.543.99-1.353 1.619-2.433 1.894-.227.06-.465.118-.72.168m-42.788-8.731c0 2.834-.95 4.999-2.747 6.488l2.925 5.452h-9.01l-1.578-2.977c-.718.043-1.432.043-2.25.043-3.915 0-6.931-.627-9.095-1.933-2.567-1.574-3.827-4.056-3.827-7.48V49.676c3.556-.406 7.206-.72 10.898-1.081V61.97c0 .719.132 1.309.45 1.753.314.363.81.544 1.446.544.625 0 1.078-.181 1.391-.544.319-.444.498-1.034.498-1.753V48.277c3.561-.266 7.16-.538 10.9-.809zm79.627 8.379h-6.89c-4.732 0-7.611-.626-8.694-1.891-1.079-1.308-1.578-4.237-1.578-8.83V45.31l5.677-.051 5.227.051v14.322c0 1.3.447 2.2 1.307 2.743.626.359 1.623.54 2.923.54h2.028zm40.854-23.914v23.914h-10.904V46.07c3.694.134 7.298.272 10.904.454M187.978 62.06c0 3.335-1.265 5.763-3.78 7.208-2.028 1.214-4.957 1.798-8.832 1.798-3.919 0-6.978-.627-9.098-1.933-2.562-1.574-3.872-4.056-3.872-7.48v-16.3c3.694.041 7.343.13 10.903.18V61.97c0 .719.178 1.309.49 1.753.319.363.763.544 1.4.544.626 0 1.127-.181 1.44-.544.312-.444.451-1.034.451-1.753V45.623c3.688.09 7.297.224 10.898.355zm40.853 8.379h-10.899V47.557c3.687.228 7.341.541 10.899.812zm14.973-6.26h.068c.54 0 .946-.135 1.264-.455.355-.4.54-.898.54-1.572V50.71c-.744.184-1.364.393-1.872.626-.475.212-.842.442-1.102.681-.54.538-.764 1.219-.764 2.028v8.106c0 .674.134 1.172.447 1.572.345.312.825.445 1.42.456m0 6.61c-.979.195-2.274.276-3.853.276-3.243 0-5.538-.584-6.891-1.71-1.35-1.17-2.028-2.925-2.028-5.269v-8.914c0-2.39 1.04-4.462 3.198-6.308 3.258.3 6.446.617 9.573.951 4.397.47 8.66.976 12.77 1.53v19.093h-9.641v-1.71c-.539.99-1.348 1.619-2.422 1.894-.225.06-.452.118-.707.168m26.33-.352h-10.899V51.699c3.782.501 7.426 1.039 10.899 1.624z"></path><path fill="#2d307a" d="M97.133 42.434V25.986h10.855v15.891c.97-.042 1.948-.09 2.929-.13V34.68c0-3.291 1.307-5.678 4.01-7.213 1.996-1.104 4.802-1.725 8.37-1.79.214-.005.425-.012.637-.012 3.87 0 6.755.676 8.693 1.985 2.293 1.487 3.47 4.013 3.47 7.429v5.99c2.278-.039 4.574-.06 6.889-.072V32.56h-4.862v-6.574h4.862v-8.92h10.898v8.92h5.858v6.574h-5.858v8.437c2.857.016 5.694.044 8.512.093v-6.011c0-3.327 1.306-5.806 3.87-7.34 2.178-1.372 5.134-2.05 8.923-2.067l.183-.007c3.55 0 6.529.811 8.913 2.394 2.478 1.484 3.693 3.693 3.693 6.621v7.15c.706.03 1.413.063 2.12.094V25.986h10.897v1.48c.48-.373 1.099-.719 1.864-1.006.253-.088.518-.174.795-.248 1.213-.368 2.562-.547 4.096-.547 2.303 0 4.144.632 5.628 1.895 1.531 1.216 2.257 2.702 2.257 4.465v11.493c.765.057 1.534.12 2.293.185V25.986h10.903v18.713c3.585.357 7.088.737 10.49 1.14 4.214-2.091 6.356-3.6 6.356-4.5v-6.573c0-.723-.143-1.263-.456-1.62-.317-.356-.807-.586-1.437-.586-.498 0-.945.23-1.308.585-.36.358-.538.898-.538 1.621v8.783h-10.543V34.68c0-3.291 1.353-5.678 4.008-7.213 2.164-1.17 5.137-1.802 9.011-1.802 3.87 0 6.757.676 8.687 1.985 2.3 1.487 3.471 4.013 3.471 7.429v13.113c.178.024.364.063.539.089.715.11 1.421.229 2.123.344V15.579h10.894V50.62c11.265 2.278 20.396 4.856 26.845 7.7-14.55-4.097-34.412-7.521-57.923-10.039a701.756 701.756 0 00-15.669-1.479 853.295 853.295 0 00-20.522-1.43 929.728 929.728 0 00-27.67-1.15 998.78 998.78 0 00-51.892-.042c-19.793.503-38.517 1.582-55.573 3.14-3.323.303-6.583.623-9.773.961a553.689 553.689 0 00-18.313 2.252c-15.59 2.179-29.006 4.804-39.61 7.787 6.452-2.844 15.583-5.422 26.847-7.7V35.08c0-3.327 1.215-5.806 3.688-7.34 2.12-1.398 5.135-2.074 9.012-2.074l.063.007c3.804.004 6.75.635 8.853 1.795 2.613 1.486 3.918 3.878 3.918 7.213v11.806c.838-.105 1.677-.21 2.525-.314V35.08c0-3.327 1.26-5.806 3.827-7.34 2.179-1.382 5.153-2.055 8.963-2.067l.134-.007c3.558 0 6.53.811 8.963 2.394 2.436 1.484 3.695 3.693 3.695 6.621v8.903c.643-.047 1.29-.105 1.939-.151V25.986h10.893v16.679c1.254-.078 2.517-.157 3.785-.23m105.726-9.698c-.619 0-1.1.141-1.413.453-.317.313-.45.81-.45 1.49v7.82l1.863.117 1.874.115v-7.965c0-1.35-.587-2.029-1.846-2.029zm-27.67 8.63l1.89.052v-6.653c0-.723-.137-1.263-.45-1.62-.312-.356-.812-.586-1.44-.586-.5 0-.943.23-1.307.585-.363.358-.583.898-.583 1.621v6.547zm-51.892-.045l1.894-.048v-6.508c0-.723-.179-1.263-.492-1.62-.318-.356-.765-.586-1.402-.586-.54 0-.99.23-1.346.585-.362.358-.537.898-.537 1.621v6.611zm-55.573 3.42l1.888-.187v-9.789c0-.723-.174-1.263-.492-1.62-.315-.356-.766-.586-1.396-.586-.54 0-.99.23-1.354.585-.362.358-.538.898-.538 1.621v10.166zm-28.086.203h1.873V34.766c0-.723-.134-1.263-.452-1.62-.317-.356-.763-.586-1.395-.586h-.026c-.525.01-.973.232-1.329.585-.36.358-.532.898-.532 1.621v10.18zM223.38 23.552h-5.451v-7.973h10.901v7.973z"></path><path fill="#565353" d="M192.814 87.776l1.097-3.508c.258-.846.463-1.839.673-2.667h.043c.21.828.449 1.804.718 2.661l1.124 3.514zm4.095 1.96l1.29 4.044h2.79l-4.63-14.245h-3.315L188.48 93.78h2.682l1.225-4.045zm-16.966 4.044h2.597V79.54h-2.597zm-6.678-7.863h-5.035v2.05h2.524v3.55c-.34.173-1.038.295-1.97.295-2.96 0-4.947-1.925-4.947-5.158 0-3.32 2.134-5.115 5.176-5.115 1.504 0 2.453.275 3.236.613l.572-2.111c-.658-.295-2.027-.656-3.786-.656-4.713 0-7.923 2.899-7.923 7.396-.022 2.154.718 4.04 1.987 5.24 1.353 1.291 3.171 1.905 5.585 1.905 1.898 0 3.67-.466 4.581-.806zm-24.877-4.395c.253-.07.784-.128 1.606-.128 1.692 0 2.792.72 2.792 2.282 0 1.419-1.1 2.353-2.855 2.353h-1.543zm-2.575 12.258h2.575v-5.859h1.313c1.478.045 2.157.638 2.558 2.498.404 1.772.738 2.933.948 3.361h2.686c-.3-.553-.678-2.2-1.12-3.975-.358-1.376-.972-2.367-1.987-2.748v-.062c1.326-.487 2.578-1.733 2.578-3.568 0-1.213-.441-2.207-1.228-2.855-.95-.81-2.342-1.138-4.393-1.138-1.505 0-2.962.122-3.93.289zm-6.936-8.432h-5.365v-3.685h5.682v-2.128h-8.28V93.78h8.6v-2.14h-6.002v-4.181h5.365zM115 93.78v-5.094c0-2.349-.017-4.232-.13-6.065l.063-.026c.702 1.61 1.653 3.361 2.56 4.902l3.722 6.283h2.681V79.535h-2.411v4.968c0 2.173.07 4.016.239 5.916h-.045a39.193 39.193 0 00-2.432-4.776l-3.675-6.108h-2.958V93.78zm-9.32-8.432h-5.368v-3.685h5.682v-2.128h-8.28V93.78h8.599v-2.14h-6.001v-4.181h5.367zM35.957 16.504c-.685.255-2.023.606-3.44.606-1.815 0-3.2-.462-4.22-1.434-.954-.908-1.497-2.325-1.497-3.949.016-3.408 2.421-5.574 5.973-5.574 1.321 0 2.356.272 2.85.51l-.43 1.576c-.59-.27-1.306-.462-2.436-.462-2.294 0-3.903 1.354-3.903 3.855 0 2.436 1.498 3.885 3.727 3.885.716 0 1.227-.095 1.48-.207v-2.69h-1.894v-1.546h3.79zm8.233-5.35h1.162c1.322 0 2.134-.701 2.134-1.768 0-1.163-.812-1.72-2.085-1.72-.622 0-1.02.048-1.211.096zm-1.942-4.73c.748-.143 1.83-.239 2.961-.239 1.545 0 2.58.255 3.312.86.59.494.925 1.242.925 2.166 0 1.386-.94 2.324-1.96 2.676v.047c.78.287 1.243 1.035 1.497 2.07.35 1.338.637 2.58.844 2.994h-2.006c-.16-.318-.43-1.195-.716-2.531-.32-1.402-.813-1.848-1.928-1.88h-.987v4.41h-1.942zm15.286-.159v6.258c0 2.102.876 3.074 2.197 3.074 1.418 0 2.262-.972 2.262-3.074V6.265h1.958v6.13c0 3.313-1.704 4.778-4.283 4.778-2.484 0-4.093-1.385-4.093-4.761V6.265zm14.889 5.127c.255.08.557.096.956.096 1.465 0 2.357-.732 2.357-1.975 0-1.194-.828-1.815-2.182-1.815-.542 0-.923.048-1.13.096zM70.481 6.41c.716-.129 1.688-.224 2.993-.224 1.434 0 2.47.303 3.153.876.637.525 1.052 1.37 1.052 2.373 0 1.019-.319 1.847-.908 2.42-.796.78-2.007 1.163-3.392 1.163-.367 0-.686-.016-.956-.08V17h-1.942zm14.698 5.254c0 2.197 1.098 3.932 2.977 3.932 1.895 0 2.962-1.767 2.962-4.012 0-2.022-1.003-3.933-2.962-3.933-1.943 0-2.977 1.798-2.977 4.013m8.01-.144c0 3.598-2.182 5.654-5.128 5.654-3.041 0-4.954-2.325-4.954-5.463 0-3.312 2.088-5.637 5.112-5.637 3.122 0 4.97 2.373 4.97 5.446"></path></svg>