<svg xmlns="http://www.w3.org/2000/svg" viewBox="0.9100000262260437 0.9270000457763672 337.8800048828125 398.6679992675781"><g fill="none" fill-rule="evenodd"><path fill="#FF0009" fill-rule="nonzero" d="M338.79 168.713c0 92.667-75.64 167.79-168.94 167.79C76.547 336.503.91 261.38.91 168.713.91 76.048 76.548.927 169.85.927c93.3 0 168.94 75.121 168.94 167.786"></path><path stroke="#232020" stroke-width="1.333" d="M169.85 168.32v.29l.265-.263-.025-.027z"></path><path stroke="#232020" stroke-width="1.333" d="M170.115 168.346l.024-.027h-.05z"></path><path stroke="#232020" stroke-width="1.333" d="M169.85 168.08v.24h.24z"></path><path fill="#FFF" fill-rule="nonzero" d="M322.115 168.321l1.54-.758-102.368-50.39-51.148 51.147z"></path><path fill="#0054F6" fill-rule="nonzero" d="M170.09 168.32h.049l51.148-51.148-.7-.345-50.738-103.07V168.08z"></path><path fill="#0054F6" fill-rule="nonzero" d="M169.85 168.08l-51.084-51.083-102.722 50.565 1.54.759H169.85zm152.265.241H170.139l-.024.026 50.3 50.3.172-.35z"></path><path fill="#FFF" fill-rule="nonzero" d="M169.85 13.756l-50.735 103.07-.35.172 51.085 51.082zm0 154.854v152.758l50.564-102.721-50.3-50.3z"></path><path fill="#FFF" fill-rule="nonzero" d="M169.85 168.32H17.584l101.53 49.977.346.703 50.39-50.39z"></path><path fill="#0054F6" fill-rule="nonzero" d="M119.46 219l50.39 102.367V168.61z"></path><path fill="#0054F6" fill-rule="nonzero" d="M290.81 285.68c-32.232 28.148-74.628 45.248-121.084 45.248s-88.852-17.1-121.084-45.248L8.766 337.292c37.895 41.3 92.713 62.303 160.96 62.303 68.245 0 123.065-21.003 160.959-62.303L290.81 285.68z"></path><path fill="#FFF" fill-rule="nonzero" d="M78.574 323.628l-4.068 5.661-16.17-11.62-4.714 6.563 14.838 10.664-3.76 5.232-14.838-10.664-5.395 7.505 16.512 11.867-4.068 5.661-23.245-16.705 22.006-30.623zm2.082 32.339c.085.989.374 1.88.865 2.674.492.795 1.157 1.508 2 2.14.843.636 1.77 1.162 2.776 1.579.684.284 1.44.53 2.268.74a8.35 8.35 0 002.468.25 5.176 5.176 0 002.263-.635c.692-.382 1.22-1.011 1.582-1.888.39-.946.407-1.834.047-2.67-.36-.833-.947-1.649-1.761-2.442-.814-.795-1.78-1.595-2.894-2.399a100.636 100.636 0 01-3.354-2.532 35.458 35.458 0 01-3.311-2.77 14.048 14.048 0 01-2.561-3.203 9.297 9.297 0 01-1.206-3.784c-.138-1.372.123-2.855.784-4.451.739-1.79 1.764-3.185 3.075-4.185a11.236 11.236 0 014.364-2.052c1.6-.367 3.268-.438 5.005-.216 1.736.224 3.386.658 4.948 1.305a24.058 24.058 0 014.994 2.781c1.506 1.102 2.72 2.375 3.646 3.826a10.843 10.843 0 011.655 4.77c.179 1.732-.15 3.607-.984 5.623l-7.419-3.07c.367-1.069.503-2.022.412-2.858a4.664 4.664 0 00-.821-2.227 6.816 6.816 0 00-1.78-1.708 14.201 14.201 0 00-2.51-1.325 9.989 9.989 0 00-1.934-.573 5.45 5.45 0 00-1.967-.012c-.64.117-1.222.35-1.75.705-.527.355-.944.904-1.255 1.653-.283.683-.383 1.29-.296 1.82.085.532.436 1.134 1.053 1.808.616.675 1.524 1.468 2.728 2.386 1.2.916 2.778 2.101 4.73 3.557.596.401 1.4 1.01 2.414 1.828 1.014.82 1.934 1.841 2.764 3.06.828 1.219 1.399 2.628 1.71 4.221.312 1.596.062 3.37-.744 5.323-.66 1.593-1.583 2.945-2.764 4.057-1.186 1.11-2.592 1.91-4.222 2.396-1.632.49-3.464.636-5.498.44-2.035-.192-4.24-.781-6.614-1.765a23.922 23.922 0 01-5.296-3.019c-1.61-1.218-2.898-2.62-3.862-4.2-.967-1.581-1.532-3.32-1.7-5.218-.167-1.899.21-3.915 1.132-6.047l7.417 3.067c-.484 1.172-.684 2.253-.597 3.24m35.574-9.292l1.304-6.847 30.35 5.776-1.302 6.847-11.103-2.112-5.746 30.196-8.146-1.55 5.746-30.195zm56.684 16.395c1.901-.02 3.323-.46 4.263-1.317.942-.857 1.401-2.234 1.377-4.136-.02-1.83-.51-3.153-1.47-3.97-.962-.816-2.391-1.215-4.293-1.19l-9.084.106.124 10.614 9.083-.106zm2.76-17.09c1.69-.021 3.213.233 4.576.765 1.361.528 2.533 1.263 3.513 2.203a9.713 9.713 0 012.255 3.273c.527 1.246.797 2.59.813 4.032.026 2.22-.417 4.143-1.332 5.774-.913 1.63-2.421 2.88-4.525 3.75l.003.103c1.022.272 1.872.693 2.549 1.267a7.182 7.182 0 011.661 2.038c.432.79.751 1.656.954 2.604.205.948.349 1.9.429 2.847.041.599.087 1.301.13 2.112a43.1 43.1 0 00.214 2.479c.099.844.25 1.646.45 2.398.203.755.5 1.394.897 1.92l-8.292.096c-.471-1.193-.771-2.614-.896-4.268a63.743 63.743 0 00-.531-4.748c-.305-1.969-.92-3.404-1.844-4.309-.927-.904-2.43-1.344-4.505-1.321l-8.292.097.172 14.733-8.291.098-.44-37.707 20.332-.236zm48.156-7.51l1.5 6.809-19.442 4.286 1.743 7.89 17.842-3.934 1.388 6.292-17.842 3.938 1.989 9.024 19.856-4.38 1.5 6.809-27.952 6.164-8.123-36.823zm16.003-6.41l12.574 28.05 16.77-7.519 2.851 6.363-24.337 10.91-15.426-34.413zm51.813-4.143l-12.183-8.098-.082.062 4.508 13.974 7.757-5.938zm-14.435-18.081l34.115 21.376-6.836 5.232-7.368-4.936-11.197 8.57 2.752 8.467-6.624 5.07-11.595-38.612 6.753-5.167z"></path></g></svg>