<svg xmlns="http://www.w3.org/2000/svg" viewBox="135.9995880126953 81.9998779296875 329.00042724609375 85.99983215332031"><g fill="#FE0000" transform="translate(136 82)"><path d="M192.967 40.64c-.526-9.135-7.359-12.18-11.622-11.945-4.322.234-7.067 2.518-9.345 7.846l-1.285-6.09h-17.93v40.342s-7.826 5.562-17.229 4.8c-9.344-.76-18.689-6.615-19.214-10.421l29.844-16.219s.233-19.497-23.537-20.55c-16.177.233-32.647 16.745-25.055 39.58 0 0-8.118 6.615-11.622 7.084-3.563.527-3.796-3.572-4.03-13.467-.233-9.895.234-20.258.234-20.258h9.87V30.744h-8.585V14L63.72 25.416v5.562h-5.84v9.368h5.08v30.447s-5.08 5.562-16.703 5.094c-10.396-.762-23.77-6.85-23.77-20.552-.526-5.855 3.796-12.178 6.074-14.696 0 0 3.037 2.81 8.877 2.81 5.84 0 14.66-2.81 14.192-9.133-.467-6.324-10.162-11.71-21.55-6.148 0 0-4.323-4.04-4.03-9.895.233-4.567 8.877-16.219 14.659-11.417 0 0-2.512 3.044-2.512 5.855 0 2.81 2.044 7.845 7.593 7.845 5.548 0 9.87-4.332 9.636-8.607C55.194 7.617 50.347-.229 33.175.005 15.888.298 8.821 13.472 8.355 19.795c0 5.094 1.751 9.134 8.117 13.935 0 0-16.703 6.85-16.47 25.353.234 11.651 9.637 26.64 34.4 26.874 12.673 0 23.01-4.04 29.085-8.9 0 0-.993 9.661 10.863 8.9 10.104-.76 18.98-7.611 24.296-12.705 0 0 8.351 13.466 29.084 12.705 14.952-.234 17.93-4.8 24.004-9.134v8.139h19.215v-34.72s.233-9.369 2.278-7.085c2.044 2.283 5.84 7.611 10.103 7.846 4.322.234 10.163-1.288 9.637-10.364zM35.16 33.436c.175-2.342 2.92-3.22 5.549-2.693 4.555.82 6.891 2.693 6.6 4.567-.351 1.874-4.264 2.752-6.893 2.225-3.445-.703-5.431-1.757-5.256-4.099zm86.67 2.694c7.243 0 9.754 12.998 9.754 12.998L114.53 59.433c-6.54-8.607 0-23.303 7.3-23.303zM198 31.66v53.797h20.163s0-39.74-.175-41.418c-.175-1.678 2.04-6.537 7.576-6.652 4.545.173 6.701 2.313 6.701 7.346v34.881s.175 6.826 7.576 6.363c7.4-.52 17.832-4.859 24.417-8.503 0 0-1.166 8.503 9.09 8.156 10.257-.347 20.513-7.693 27.914-11.858v11.511h18.006V41.551H329V31.197h-10.081V15l-18.007 10.702v5.669h-6.06v10.007h6.06v26.03s-9.266 7.52-14.452 8.157c-5.186.694-3.73-4.685-3.73-8.503V33.164h-17.657v35.228s-7.575 7-11.246 7c-3.73 0-3.847-2.025-3.847-7.868V45.66c0-3.992-2.04-16.892-15.326-16.892-9.615 0-12.12 2.661-15.792 6.826l-1.69-4.165L198 31.66z"></path><circle cx="274.5" cy="18.5" r="10.5"></circle></g></svg>