<svg xmlns="http://www.w3.org/2000/svg" data-name="Camada 1" viewBox="0.02000141143798828 -0.010455183684825897 133.87998962402344 29.94045639038086"><path fill="#3d3d3f" d="M70.51 14.69h-3.2v1.59h3.2V26c0 2.38.71 3.66 4 3.66a16.72 16.72 0 002.29-.17v-1.76a10.07 10.07 0 01-2.07.17c-1.7 0-2.1-.59-2.1-1.87v-9.75h4.17v-1.59h-4.19V10h-2.1zm-16.35 4.54c.14-2.35 1.73-3.23 5-3.23s4.87.76 4.87 2.89c0 1.45-.57 1.7-5.16 2-3.23.17-7.34.62-7.34 4.62 0 3.32 3.2 4.42 5.72 4.42 4.82 0 6.24-2 6.89-2.95h.06c0 1.16.14 2.61 2.27 2.61a8.88 8.88 0 001.76-.23V27.9c-.37 0-.74.06-1.11.06-.82 0-1.16-.42-1.16-1.64V18.6c0-2.83-1.81-4.37-6.75-4.37s-6.72 1.9-7 5zm9.92 4.51c0 3-3.32 4.56-6.15 4.56-2.27 0-4.25-.68-4.25-3 0-1.76 1.42-2.49 3.85-2.72 4.19-.4 5.61-.51 6.55-1.11zm-15.59.43c-.54 2.29-2.27 4-5.36 4-4 0-6.21-2.41-6.21-6.06 0-3.4 2-6.06 6.21-6.06 2.61 0 4.59 1 5.24 3.51h2.1c-.34-2.12-2.3-5.27-7.34-5.27-5.58 0-8.3 3.4-8.3 7.82 0 4.62 3 7.82 8.3 7.82s7.06-3.8 7.45-5.72zm-17.66 5.26h2.1V14.69h-2.1v8c0 3.34-1.87 5.44-6 5.44-2.66 0-4.45-1-4.45-3.94v-9.5h-2.1v9.13c0 3.51 1.47 6.07 6.38 6.07 3.26 0 5.47-1.79 6.09-3.34h.06zm-17-4.71c-.74 2.24-2.32 3.4-5.84 3.4-3.74 0-5.92-2.49-5.92-5.55h14.25c0-6.69-4.51-8.33-8.3-8.33-5.5 0-8 3.71-8 7.82 0 3.6 2 7.82 8 7.82 4.88 0 7.08-2.55 7.94-5.16zM2.1 21c.48-3.6 3.37-5 6.07-5s5.47 1.36 6.06 5zm89.75 3.72c-.74 2.24-2.32 3.4-5.84 3.4-3.74 0-5.92-2.49-5.92-5.55h14.23c0-6.69-4.51-8.33-8.3-8.33-5.5 0-8 3.71-8 7.82 0 3.6 2 7.82 8 7.82 4.87 0 7.08-2.55 7.94-5.16zM80.09 21c.48-3.6 3.37-5 6.07-5s5.47 1.36 6.06 5z"></path><path fill="#3d3d3f" d="M93.98 29.43h2.75l5.44-6.12 5.47 6.12h2.77l-6.91-7.65 6.38-7.09h-2.75l-4.96 5.61-4.99-5.61h-2.72l6.29 7.09-6.77 7.65z"></path><path fill="#0091b3" d="M117.88 8.28a10.75 10.75 0 00-1.61-2.75 8.81 8.81 0 00-1.15-1.25l.16.07a11.78 11.78 0 013.47 2.78c.25-.29.51-.56.76-.83a11.53 11.53 0 013.17-2.25A11.43 11.43 0 00111.92.17c0 .1-.1.21-.15.34a11.43 11.43 0 004.15 13.38 12.16 12.16 0 012-5.61"></path><path fill="#e2e71f" d="M133.9 5.29a11.29 11.29 0 00-5.9-1.62 11.44 11.44 0 00-11.4 10.56c0 .43.25.51.36.35a15 15 0 019.13-6.07 21.36 21.36 0 00-8.45 6.86c-1 1.44-2.3 3.34-2.35 3.44a.46.46 0 000 .45l.56.27s.16.19.36-.06 1.73-2.92 1.94-3.29a11.31 11.31 0 004.3.83 11.41 11.41 0 0011.4-11.4 1.36 1.36 0 000-.34"></path></svg>