<svg xmlns="http://www.w3.org/2000/svg" viewBox="155 90 290 68"><path d="M178.988 118.676c.935-8.717 4.565-15.135 13.284-15.135 8.72 0 12.612 6.418 13.547 15.135h-26.831zm42.66 11.093s5.352 0 5.352-5.565C227 103.874 214.613 90 191 90s-36 13.54-36 34.019C155 144.534 167.387 158 191 158c15.717 0 26.495-5.973 31.921-16.063 0 0 .3-.483.3-1.15 0-1.336-1.048-2.449-2.358-2.449h-17.589c-2.095 3.784-5.763 6.158-11.04 6.158-8.569 0-12.199-6.232-13.246-14.727h42.66zm99.302-11.077c.936-8.723 4.566-15.144 13.285-15.144 8.72 0 12.611 6.421 13.547 15.144H320.95zm42.699 11.098s5.351 0 5.351-5.567C369 103.883 356.613 90 333 90s-36 13.51-36 34c0 20.526 12.387 34 36 34 15.717 0 26.495-5.976 31.921-16.072 0 0 .3-.483.3-1.15 0-1.337-1.048-2.45-2.358-2.45h-17.551c-2.096 3.786-5.763 6.161-11.04 6.161-8.57 0-12.2-6.236-13.247-14.736h42.624v.037zM231 155.581V95.564C231 90 236.413 90 236.413 90H255v67.992h-21.615c0 .037-2.385.037-2.385-2.41"></path><path d="M257 158l52-68h-17.183s-5.377 0-9.625 5.562L257 128.486V158zm139.726-2.447c0 2.447-2.358 2.447-2.358 2.447H373V90h18.374s5.352 0 5.352 5.525v3.077C401.778 92.966 409.225 90 417.532 90 432.688 90 445 101.828 445 116.436v39.08c0 2.447-2.358 2.447-2.358 2.447h-21.368V121.85c0-7.045-5.5-12.718-12.274-12.718-6.773 0-12.274 5.71-12.274 12.718v33.703z"></path></svg>