<svg xmlns="http://www.w3.org/2000/svg" viewBox="136 72 328 106"><g fill="none" fill-rule="evenodd"><path fill="#E12626" d="M136 72h148v106H136z"></path><path fill="#FFF" d="M142 78h136v94H142V78zm4.383 4.348h127.234v85.305H146.383V82.347z"></path><path fill="#25201F" d="M156 92h49v11.207h-40.214v18.719H205v11.207h-40.214v18.66H205V163h-49V92m56 0h49v13.73l-38.091 46.65H261V163h-49v-13.555l38.74-47.47H212V92m143 11h51v7.709h-40.254v15.593h35.089v9.52h-35.089v15.593H406V160h-51v-57m-65 0h61v9.344h-25.068V160h-10.864v-48.59H290V103m174 48.765V160h-39.264C417.19 160 411 153.985 411 146.568v-30.136c0-7.358 6.19-13.432 13.736-13.432H464v8.235h-32.956c-5.718 0-10.434 4.321-10.434 9.578v21.433c0 5.256 4.657 9.578 10.434 9.578l32.956-.059"></path></g></svg>