<svg xmlns="http://www.w3.org/2000/svg" viewBox="184 36.99978256225586 232.99993896484375 178.00018310546875"><g fill="none" fill-rule="evenodd"><path fill="#000" fill-rule="nonzero" d="M306.107 84.753V137l-.972-.227c-3.74-.453-10.246-1.963-13.462-3.624l-.598-.377V84.3h.972c4.039-.68 8.451-.453 12.49.226h.822l.748.227zM291 37.942h.823v-.227l.224.227.972-.227c24.232-4.077 48.314 9.664 59.607 31.333l.374.831-11.667 11.778-.374-.83c-5.16-15.176-18.398-25.973-34.029-28.238l-.823-.226v19.932h-1.196c-4.787.076-8.526.604-13.088 1.812H291V37.942z"></path><path fill="#000" fill-rule="nonzero" d="M306.107 84.753V137l-.972-.227c-3.74-.453-10.246-1.963-13.462-3.624l-.598-.377V84.3h.972c4.039-.68 8.451-.453 12.49.226h.822l.748.227zM291 37.942h.823v-.227l.224.227.972-.227c24.232-4.077 48.314 9.664 59.607 31.333l.374.831-11.667 11.778-.374-.83c-5.16-15.176-18.398-25.973-34.029-28.238l-.823-.226v19.932h-1.196c-4.787.076-8.526.604-13.088 1.812H291V37.942z"></path><path fill="#B2B2B2" d="M269.545 114.407l-.38-.376-.227-.377-.606-.602-.228-.376-.834-.829-.379-.226-.379-.376-.379-.226h-.227l-.38-.226-.227-.226h-.379l-.227-.226-.38-.225h-.227l-.379-.226h-.379l-.227-.226h-.834c-1.971.075.152-.301-1.82-.226l-.833.226h-.607l-.834.226-.606.226-.607.225c-2.653.829-4.548 3.238-5.306 5.873l-.38 1.205c-.985 3.765.835 6.777 3.033 9.713l.834 1.43.985 1.431 1.213 1.431.986 1.205c37.753 43.068 108.103 12.95 102.342-44.65l-.228-.603V87v3.012c.607 49.694-62.618 67.615-89.227 27.181l-.834-1.43"></path><path fill="red" d="M333.889 80.812l.38.229.227.228.38.228.227.228.228.38.379.23.228.38.227.228.38.837v.228l.227.38v.381l.228.38v1.675l-.228.228v.609l-.227.38v.228l-.228.229v.228l-.228.228-.227.38-.38.381v.229l-.607.608h-.227l-.38.229-.38.38h-.227l-.227.228h-.38l-.227.229h-.228l-.38.228h-2.276l-.228-.228h-.379l-.228-.229h-.379l-.228-.228h-.227l-.38-.38h-.227l-.835-.61c-25.117-16.512-58.732-7.685-72.39 19.71l-.835 1.445L253 113l.835-2.055c13.203-30.894 48.184-44.134 78.309-30.741l.834.38"></path><path fill="#000" fill-rule="nonzero" d="M189.897 157h222.038l.151.227h.605l.227.152h.378l.453.455h.378l.227.152.227.227 1.587 1.668v.152l.227.455.227.151v.228l.151.379v.682l.227.152v47.84l-.227.152v.606l-.151.455v.152l-.227.227-.227.455v.152l-1.587 1.668-.227.152-.227.227h-.378l-.453.455h-.378l-.227.152h-.605l-.151.227h-222.87l-.378-.227h-.378l-.453-.152h-.152l-.226-.228-.454-.227h-.151l-.605-.607-.454-.227-.378-.38v-.227l-.226-.151-.605-.607v-.455l-.227-.227v-.152l-.151-.455v-.151l-.227-.455v-48.144l.227-.455v-.227l.151-.38v-.227l.227-.151v-.455l.605-.607.226-.227v-.152l.378-.455.454-.151.605-.607h.151l.454-.227.226-.228h.152l.453-.152h.378l.378-.227h.605"></path><path fill="#FFF" d="M393.242 192.04l-.377.218h-.452c-2.185 1.24-5.05.584-6.708 2.552v.365l-.226.219v.947l.226.22v.218l.377.364v.22l.226.218h.226l.227.219h.376l.227.218h.98l.225.22.377-.22h.98l.226-.218h.226l.377-.22h.226l.226-.218.226-.219.227-.218h.226l.226-.22v-.218l.377-.364v-.22l.226-.364.226-.218v-.365l.226-.219v-.583l.226-.219v-1.385l-.15-.51zm-16.656-6.344v-1.166c1.507-7.145 10.778-7 16.656-6.854h.603l.603.22h1.206c.83.437 1.809.29 2.638.801l.603.219 1.206.583.377.365.377.218.377.365.226.364.603.584.376.583.227.365c.527.802.376 1.75.829 2.551v15.312l.226.218v.584h.226v.218l.226.22v.218l.377.364h.226l.226.22v.582h-10.552l-.603-2.77-.226.219-.377.364-.377.219-.602.583-.377.219-.226.146h-.227l-.376.218-.226.22-.377.218h-.226l-.377.219h-.226l-.377.218h-.226l-.377.22h-.377l-.226.218h-.905l-.226.219h-1.658l-.603.218h-1.206l-.377-.218h-1.432l-.376-.22h-.377l-.377-.218-.377-.219h-.377l-.377-.218-.226-.22-.377-.218c-1.055-.364-2.562-2.041-3.014-2.916v-.438l-.377-.802v-.364l-.226-.365v-2.552l.226-.218v-.584l.226-.364v-.219l.226-.219v-.218l.226-.365v-.219l.226-.219.226-.218.226-.219v-.146l.98-.948.377-.218.377-.365h.226l.226-.219.377-.218h.226l.377-.22.226-.218h.377l.377-.219.603-.218h.603l.376-.219.603-.219h.603l.603-.218h.377l1.206-.22 1.206-.218.98-.219h1.206l.603-.218h.98l.226-.22h.376l.377-.218h.226l.227-.219h.226v-.218h.376v.145l.227-.218v-.219h.226v-1.385l-.226-.219v-.219h-.227v-.218h-.226l-.376-.365h-.227l-.376-.073h-.83l-.226-.219h-1.432l-.226.22h-.829l-.377.364h-.226l-.829.802v.218h-.226v.584l-.226.218h-9.647v-.073zm-15.451-.364l-.226-.365v-.364l-.226-.219-.226-.364v-.22h-.227l-.226-.218c-.829-.802-1.96-.583-3.014-.583h-.377l-.226.219h-.377l-.226.218-.226.219-.377.365v.218l-.226.219v.365l.226.218v.365h.226l.226.219v.218h.226l.226.219.377.219h.226c1.809.802 4.598.948 6.331 1.604h.377l.603.219.377.218h.603l.377.219.603.219.376.218.226.22h.377l.226.218h.227l.376.219.377.364h.226l.377.365c.679.729 1.658 1.385 1.81 2.333l.225.219v.218l.226.365v.364l.226.365v2.552l-.226.583v.365l-.226.583-.377.365-.226.364c-1.96 3.791-9.421 4.885-13.416 4.74h-.98l-.602-.22c-1.508.073-4.447-.802-5.88-1.385l-.376-.219-.377-.364c-1.733-.802-3.015-2.479-3.618-4.156v-.365l-.376-1.166v-.583h9.722v.802l.226.218v.22l.226.218v.219l.377.364v.219h.226v.219h.227l.226.218h.226v.22h.603l.226.218h2.638l.226-.219h.377l.226-.219h.226l.226-.218v-.22h.226l.226-.218v-.219l.226-.218v-1.167h-.226v-.364h-.452v-.22h-.226l-.226-.218h-.226v-.219h-.226l-.227-.218h-.226c-3.391-1.531-9.42-1.24-11.983-3.938l-.98-.947v-.22l-.377-.364v-.364l-.377-.365v-.364l-.226-.219v-.583l-.226-.22v-2.186l.226-.584v-.583l.377-.802.226-.583.377-.365.226-.364.377-.22.226-.364.377-.364.377-.219.376-.364.377-.22.603-.218.377-.364.377-.22.603-.218h.377l.603-.219.377-.218.602-.22c1.734-.218 3.467-.51 5.276-.364h2.261l.377.22h.603l.377.218h.603l.377.219h.603l.377.218.603.219.377.219.602.218.377.22.377.218c1.734 1.02 2.713 1.968 3.618 3.718v.584l.226.364.226.583v.584h-8.818v-.146zm-30.45 6.708l-.376.218h-.377l-.377.22-.377.218-.829.219-.98.218h-.527l-.377.22h-.377l-.377.218h-.377l-1.206.583h-.301v.219h-.226v.219h-.226v.218h-.226v.219l-.227.219v1.604l.227.218v.22l.603.583h.226l.226.218h.226l.226.219h.98l.377.219h.376l.227-.219h.603l.226-.219h.603l.603-.583h.226l.829-.802v-.219l.226-.364v-.22l.226-.218v-.219l.226-.218v-.365l.226-.219v-.947l.226-.365v-1.313h-.15zm-16.807-6.344v-.947l.226-.365v-.583l.226-.219V183l.377-.365v-.218l.226-.365v-.219l.226-.219.227-.364.376-.219.226-.364.377-.22.603-.582.377-.22.377-.218c2.638-1.53 8.065-2.041 10.929-1.75h2.637c3.543.365 7.236 1.313 8.743 4.74l.226.364.227.583.226.365c.98 5.104.301 10.499.377 15.749v1.385l.226.219v.218l.377.365v.219l.226.218h.226l.226.219v.583h-10.552l-.377-2.77-.226.218-.377.22-.226.218-.226.219-.226.218-.377.22-.377.364-.377.218h-.226l-.226.22-.377.218-.226.219h-.377l-.226.218h-.527l-.226.22h-.377l-.377.218h-.226l-.377.219h-.603l-.377.218h-1.432l-.377.219h-.377c-3.391.073-7.386-1.167-8.969-4.302l-.376-.802v-.364l-.227-.365v-.802l-.226-.364v-1.167l.226-.219v-.948l.227-.218v-.584l.376-.364v-.365l.227-.218v-.22l1.808-1.749.227-.219.226-.218h.376l.377-.365h.377l.377-.365h.377l.603-.218.377-.219h.603l.603-.219.376-.218h.603l.603-.22h.603l.98-.218 1.206-.219 1.206-.218h.98l.603-.22h.98l.376-.218h.226l.377-.219h.377v-.218h.226l.226-.22h.226l.227-.218v-.219h.226v-.218l.226-.219v-.948h-.226v-.364l-.226-.22h-.227v-.218l-.376-.219-.226-.218h-.227l.076-.292h-.83l-.376-.219h-1.206l-.377.22h-.603l-.226.218-.377.219h-.226l-.377.364v.219h-.226v.219h-.226v.364l-.226.219v.364h-9.949v-.073zm-19.295-.583h-1.205l-.227.219h-.226l-.226.219h-.226l-.377.218-.98.948v.219l-.226.219v.218l-.226.22v.218l-.226.219v.218l-.226.365v.364l-.226.22v3.134l.226.219v.365l.226.364v.365l.226.218v.22l.226.364v.218l.603.584v.218l.226.22h.227l.226.218.226.219.226.218h.226l.226.22h.603l.226.218h.98l.226-.219h.603l.226-.219h.226l.226-.218h.226l.377-.365h.226l.227-.219.226-.218.226-.22v-.218l.377-.364v-.22l.226-.218v-.583l.226-.219v-.219l.226-.218v-.948l.226-.583v-.948l-.226-.584v-.802l-.226-.364v-.365l-.226-.218v-.22l-.226-.364v-.218l-.377-.365v-.365l-.226-.218h-.226l-.377-.365v-.219l-.226-.218h-.227l-.376-.219h-.377l-.226-.219h-1.056v.073zM280.188 169h10.175v11.811l1.206-1.166.377-.219c1.28-1.093 2.939-1.677 4.672-1.75h1.206c2.035-.218 3.995.584 5.653 1.604l.603.365.83.802c3.692 3.5 4.747 9.04 3.617 13.78l-.377 1.167v.583l-.226.583-.377.583c-.603 1.823-2.035 3.427-3.618 4.52l-.452.147-.603.364c-1.96.802-3.994 1.386-6.105 1.386h-.603l-.377-.22h-.829l-.377-.218h-.602l-.227-.219h-.226l-.377-.218h-.226l-.376-.365h-.377l-.603-.583h-.226l-.98-.948-.226-.365-.226-.218v-.22l-.377-.364-.226-.364h-.227v3.5h-8.968V169h.075zm-22.385 9.04h9.346v4.886h.226v-.365l.226-.364c1.055-1.75 1.055-1.969 2.638-3.354l.377-.219h.226l.377-.219.226-.218.377-.219h.226l.377-.219h.603l.377-.218h.829l.226-.22h2.035v9.844h-.226l-.377-.22h-.226c-1.432.074-.603-.29-1.81-.218l-.376.219h-.98l-.226.219h-.452l-.226.218h-.377l-.226.22h-.226l-.377.218-.603.583-.226.219-.377.364v.22l-.226.364-.226.218v.365l-.226.219-.227.364v.802l-.226.365v10.572h-10.325V178.04h.075zm-14.019 17.28h9.723l-.226.365v.365l-.377.802c-1.357 3.354-5.653 5.833-9.346 6.27h-.603l-.829.219h-.603c-3.165.437-2.713 0-5.276 0l-.376-.219h-.377c-.679-.073-2.638-.583-3.241-.948h-.377l-.226-.219-.377-.218-.226-.219-.83-.365c-1.28-.947-1.356-.656-2.411-1.968l-.452-.292-.226-.364-.377-.365-.226-.364-.377-.365v-.365l-.377-.364v-.365l-.226-.218-.226-.365v-.219l-.226-.364v-.219l-.226-.364v-.802l-.227-.22v-.947l-.226-.583v-1.386c-.15-1.822.302-1.24.226-2.77l.227-.219v-.364l.226-.22v-.364l.226-.219v-.364l.226-.219v-.364l.226-.22v-.364l.226-.218.226-.365.226-.219v-.218l.226-.365.377-.364.226-.365.603-.583.226-.365.227-.219.376-.218.227-.22.226-.364.376-.218.227-.22.376-.218.227-.219.376-.218.227-.219.376-.219.377-.218.226-.22.377-.218h.226l.83-.364h.376l.226-.22h.377l.377-.218h.377l.377-.219h.603l.376-.218h3.844c.83-.073 3.166.291 3.844.583h.377l.377.219.226.218h.377l.829.365.377.219.377.218.226.22 1.206.582.829.802.377.22.226.364.377.218.376.802.377.365.226.365.226.218.227.365.226.219c1.055 1.75 1.432 3.208 2.035 5.103v.802l.226.584v2.187h-19.672v.364l.226.365v.365l.226.218v.365l.227.219v.218l.226.365.829.802.226.219v.218h.226l.377.365h.226l.226.219h.377l.226.218h.226l.226.219h2.638l.226-.219h.226l.377-.218h.226l1.432-1.386v-.291zm-9.12-7.655h9.573v-.364l-.227-.22v-.583l-.226-.218v-.219l-.226-.219v-.218l-.226-.22v-.218l-.226-.219h-.226v-.218c-.905-.948-.075.218-.98-.802h-.226v-.22h-.226l-.226-.218h-.377l-.226-.219h-2.412l-.226.22h-.377l-.226.218h-.603v.219h-.226l-.226.218-.226.22h-.226l-.227.218v.219h-.226l-.226.218v.219l-.226.219v.218l-.226.22v.218l-.226.219v.583l-.226.365v.364h.377zM196.076 169h28.415v7.874h-16.883V183h13.416v7.874h-13.416v11.812H196V169h.075z"></path></g></svg>