<svg xmlns="http://www.w3.org/2000/svg" viewBox="0.9493083953857422 0.22904503345489502 547.220703125 514.7216186523438"><g fill="none"><path fill="#1E1411" d="M276.12 414.21c-73.46 0-146.923-.027-220.39-.08a131.51 131.51 0 01-23.22-1.8C11.26 408.49 1.3 393.87 4.64 372.5c1.64-10.51 5.47-20.39 8.78-30.41 24.94-75.54 49.913-151.07 74.92-226.59 1.17-3.54 2.48-7 3.82-10.52 11.25-29.21 27.33-41.16 58.42-41.55 90.56-1.11 181.14-1.79 271.71-2.61 4 0 8.1.12 12.12.48 13.84 1.26 18.88 5 22.47 18.29 24.49 90.6 52 180.36 77 270.8 3.14 11.31 8 22.38 7.53 34.66-.55 13.43-7 22.13-19.94 25.79-9.14 2.59-18.49 2.25-27.8 2.25-72.533.06-145.063.06-217.59 0l.04 1.12zm236.08-32c-3.08-9.28-6.07-17.35-8.44-25.6a125555.823 125555.823 0 01-73.26-256.3c-1.78-6.29-5.07-8.8-11.15-8.71-3.42.05-6.85-.05-10.27 0l-247.36 2.67c-32.19.34-33.43 0-44.47 32.71-26.14 77.4-51.4 155.1-77 232.68-7.75 23.43-7.76 23.47 17.11 23.42 147.213-.267 294.427-.55 441.64-.85l13.2-.02zm-235.25 97.76c0 9-.21 18 .08 26.92.15 4.64-.89 6.62-6.12 6.45-16.61-.55-13.36 1.63-13.55-13-.2-15.52 0-31-.17-46.57-.08-5.37.55-7.9 7.36-8.21 9.24-.43 14.79 2.55 19.26 10.42a111 111 0 0018.51 24c0-9.35.44-18.72-.13-28-.5-8.29 5.15-6.21 9.16-5.84 4.01.37 10.57-3.63 10.38 5.72-.36 18.31-.21 36.64 0 55 .06 4.63-1 6.34-6.09 6.66-9.08.58-15.83-1-20.55-10-4.5-8.59-10.83-16.23-16.35-24.29l-1.79.74zm-211.33-.71c0 8.09-.69 16.26.19 24.25 1 8.75-2.54 11.08-10.38 9.8a20.13 20.13 0 00-5.59 0c-4.26.51-5.42-1.55-5.18-5.42.23-3.72-.43-7.54.16-11.18 1.48-9.17-2.17-11.65-11.1-11.06-12 .8-12 .16-12 12.86 0 15.9 0 15.76-15.29 14.87-3.85-.22-5.52-1.08-5.48-5.28.18-18.98.18-37.96 0-56.94 0-4.17 1.42-5.54 5.41-5.2a41.4 41.4 0 009.31-.05c5.27-.75 6.62 1.7 6.06 6.31a30.93 30.93 0 000 3.73c0 14.32 5.26 18.46 19.59 15.69 3-.57 3.2-2.74 3.34-4.74a59.78 59.78 0 000-12.11c-1.05-7.57 2.21-8.71 9.19-9.13 9.85-.59 13.13 2.4 11.95 12.16-.88 7.04-.19 14.28-.18 21.44zm129.08 4.65c7.59 6.31 11.41 12.42 17.83 28.7-.81.23-1.59.52-2.4.68-14.5 2.88-24.41-2.08-28.73-16.74a21.47 21.47 0 00-2.27-4.06c-1.88-3.35-4.28-7.21-8.34-6.25-4.6 1.1-1.76 5.82-2.26 8.89a27.63 27.63 0 000 8.37c1.1 7.47-1.42 9.83-9.38 10.11-9.46.32-12.16-2.13-11.62-11.71.93-16.43.51-33 .14-49.43-.12-5.49 1.74-6.81 6.84-6.61 9.63.36 19.28 0 28.92.15 14.47.17 21.61 4.1 24.15 13.08 2.86 10.05-.73 16.96-12.88 24.82zm-20.62-24.71c-3.21-.55-6.25.56-5.77 6.95.34 4.5.26 8.22 6.32 7.36 5.31-.76 12.61.61 12.66-7.46.04-6.88-6.29-6.35-13.21-6.85zm211.55 15.88c15.67 0 15.67 0 15.7 15.34 0 15.06-.71 16.13-14.8 21.28-20.87 7.63-41.82 1.46-49.7-14.65-6.5-13.29-4.69-32.39 4.74-42 11.2-11.46 25.27-11.42 39.79-8.62 7.92 1.52 14.41 4.88 17.47 12.91.61 1.62 2.16 4.49-.35 4.54-7 .16-14.35 7.51-21.15-1.19-2.52-3.22-7.05-3.72-11.23-2.88-7.48 1.49-11.12 6.69-11.79 13.73-.84 8.92-2.12 18.44 7.21 24.26 6.53 4.07 13 2.11 19.44-1.17 2.62-1.34 2.54-3.26 2.33-5.38-.27-2.72-2.57-2.23-4.27-2.14-6 .35-10.6.41-9.83-8.36.79-9.06 6.9-4.62 10.87-5.56 1.76-.46 3.71-.11 5.57-.11zm162.54 37.74c-2.22.28-2.84.33-3.44.45-14.48 2.86-24.52-1.87-28.75-16.69a14.14 14.14 0 00-1.83-3.24c-2.11-3.44-4.26-8.2-8.72-7.14-4.91 1.17-1.45 6.37-2.33 9.66a14.77 14.77 0 00-.1 3.71c0 13.83-3.67 16.61-17.34 13.8-2.94-.61-3.42-2-3.42-4.39 0-19.58.1-39.16-.09-58.73 0-4.11 1.89-4.38 5.08-4.33 9.94.14 19.89 0 29.83.12 10.1.13 20.49.2 24.62 12.16 3.54 10.27 0 17.25-12.6 25.91 10.16 6.86 12.71 18.39 19.09 28.71zm-45-46.72c-1.23 5.5.6 8.23 6.57 7.42 5.07-.69 11.73.15 12-6.94.32-7.39-6.19-6.85-11.4-7.24-4.94-.37-8.77.25-7.14 6.76h-.03zm-89.25 13.54c0-9.32.23-18.65-.08-28-.15-4.55 1.42-5.85 5.87-5.78 14.92.24 29.85.37 44.76 0 6.24-.17 5.28 3.56 5.16 7.17-.12 3.41 1.55 7.8-4.89 7.53-8.07-.34-16.17.09-24.24-.15-4.24-.12-6.12 1-6 5.67.07 4.31 1.95 5.31 5.64 5.28 7.15-.06 14.34.53 21.44 0 6-.47 5.54 2.81 5.67 6.8.14 4.39-.5 7.06-5.94 6.75-7.12-.42-14.31.17-21.44-.19-6-.3-5.11 3.59-5.28 7.29-.19 3.9.26 6.57 5.3 6.37 8.07-.3 16.16 0 24.24-.1 3.49 0 7.89-.62 5.91 4.81-1.32 3.63 4.18 11.16-6.3 10.45-13.92-.94-28-.51-41.94-.09-6 .18-8.38-1.27-8-7.65.5-8.73.1-17.45.12-26.16zm-334.66.13c0-9.32.22-18.65-.09-28-.15-4.45 1.18-6 5.71-5.91 14.92.22 29.84.37 44.75-.06 6.89-.19 5.26 4.11 5.53 7.92.3 4.19.08 7.14-5.65 6.79-8.05-.48-16.16.12-24.23-.19-5-.19-5.24 2.28-5.35 6.27-.13 4.45 1.71 5 5.47 4.86 7.13-.29 14.3.13 21.43-.21 4.84-.24 5.76 2 5.51 6.14-.23 3.72.82 7.65-5.27 7.37-7.13-.32-14.3.18-21.43-.13-8.54-.38-4.68 6-5.63 9.72-1.51 6 3.29 3.65 5.44 3.73 8.38.28 16.8.52 25.16 0 6.1-.38 5.62 3.25 5.37 7-.24 3.55 2 8.39-5.15 8.24-15.53-.31-31.07-.25-46.61 0-4.47.07-5.08-1.91-5-5.61.16-9.28.04-18.61.04-27.93zm162.72.34c0 9-.23 18 .1 26.94.18 4.72-1 7-6.1 6.3a36.92 36.92 0 00-8.34 0c-4.59.45-6.62-.78-6.54-6 .3-18.58.26-37.16 0-55.74-.06-4.59 1.53-5.58 5.86-5.71 15-.45 15-.64 15 14.72v19.51l.02-.02zM159.26 36.16c-9.53 3.35-14.26-.75-17.15-8.46-.87-2.32-2.4-5.3-5-4.72-3.19.72-1.38 4.19-1.65 6.44-.42 3.6 1.71 8-5.38 7.91-6.47-.08-5.91-3.56-5.86-7.73.09-7.76.19-15.52-.07-23.27-.14-4.08 1.37-5.51 5.35-5.34 6.2.26 12.46-.26 18.6.38 8.24.87 12.38 10.4 6.29 15.63-5 4.3-2.94 6.19-.27 9.72 2.01 2.66 3.25 5.9 5.14 9.44zm-13.42-24.7c-1.16-3.45-4.11-3-6.78-3.3-3.61-.37-3.94 1.89-3.72 4.56.31 3.79 3.13 3.08 5.42 2.73 2.29-.35 4.91-.77 5.08-3.99zm227.98 6.4c0-3.64.22-7.3-.06-10.91-.31-4.07.32-6.12 5.34-6.12 5.51 0 4.92 3 4.89 6.53-.07 7.77.13 15.55-.09 23.32-.06 2.13 1.67 5.68-1.95 6.18-3.43.47-7.46 1.67-10.14-2.39-3.32-5.05-6.87-9.95-10.67-15.41-2.54 4.06-1 7.49-1.39 10.71-.39 3.22 1.72 7.41-4.82 7.54-6.09.13-5.42-3.27-5.4-7 0-7.46-.13-14.93.13-22.38.08-2.36-1.86-6.22 2.58-6.68 3.5-.36 7.35-1.34 9.9 2.93 3 5 6.53 9.69 9.82 14.51l1.86-.83zm108.68-5.68c13.57 7 16.35 13.29 10.52 20.51-5 6.21-20.94 6.9-26.29 1-1.8-2-4.53-4.92-2.46-7.2 2.07-2.28 6.13-2.36 9.2-.36 1.49 1 2.38 2.9 3.9 3.82 2.71 1.65 5.64 1.41 7-1.74 1.36-3.15-1.18-4.48-3.66-5.33-3.49-1.2-7.25-1.83-10.53-3.44-3.83-1.89-6.17-5.27-5.42-9.86a9.61 9.61 0 017.73-8.29c5.85-1.41 11.74-1.82 17.15 1.35 2.42 1.42 4.8 3.9 4.27 6.74-.63 3.34-4.13 1.24-6.28 1.88-1.13.29-2.26.4-5.13.92zm1.51-1.18c-.91-2.56-2.56-4.08-5.46-3.85-1.64.13-3.34.7-3.23 2.52.21 3.52 3.49 2.73 5.64 3.39 1.59.49 2.98.11 3.03-2.09l.02.03zM290.39 8.66c-6.21 0-9.94-.17-13.65.05-3.28.19-4.46-1.3-4.49-4.34-.03-3.04 2-3.37 4.35-3.36 6.52 0 13.06-.16 19.57.12 2.53.1 6.11-1.83 7.44 1.69s-.51 6.39-3.17 9c-5.31 5.21-10.34 10.71-16.94 17.61h16.48c2.63 0 4.88-.11 4.82 3.71-.06 3.51-1.86 4-4.72 4-7.77-.08-15.54.1-23.3-.09-2.19-.05-5.36 1.53-6.38-1.81a7.37 7.37 0 012-7.7c5.54-5.67 10.94-11.48 17.99-18.88zM87.5 19.02c-.08-18-.07-18.3 17.77-17.81 3.93.11 11.21-3.4 11.56 2.88.41 7.14-7.2 4.1-11.58 4.93-2.37.45-6.38-1.66-6.63 2.47-.28 4.57 3.92 2.53 6.25 2.84a46.41 46.41 0 007.46.07c2.64-.07 4 .85 3.86 3.76-.14 2.91-1.31 3.86-4 3.79-3.42-.08-6.84 0-10.26 0-2 0-3.56.39-3.52 3 .04 2.61.71 4.2 3.6 4.18h12.13c2.6 0 3.91 1 3.88 3.89 0 2.65-.83 4.12-3.66 4.11-7.78 0-15.56-.07-23.33 0-3 0-3.6-1.58-3.56-4.1.03-4.67.03-9.34.03-14.01zm219 17.85c4.13-11.07 8.22-21.37 11.76-31.86 1.55-4.57 4.81-4 8.14-4 3.13-.05 5.83-.19 7.2 3.94 3.5 10.51 7.61 20.81 11.77 32-5.41-.43-9.85 2.38-13.43-4.17-1.91-3.5-10.37-3.41-12.24-.1-3.58 6.29-7.88 4.02-13.2 4.19zm19.31-24.19c-1.06 3.65-5.32 6.72-2.13 10.6.59.71 3.66.62 4.27-.14 3.03-3.87-1.3-6.86-2.15-10.46h.01zm102.57 5.76c0-17.42 0-17.71 17-17.21 4.2.13 12-3.75 12.3 3 .41 8.51-8 2.8-12.16 4.34-2.21.81-6.32-1.54-5.89 3.36.35 3.91 3.9 1.62 5.84 2.5 3.63 1.65 10.69-4.09 11 3.47.31 8.14-7 2.37-10.6 3.92-2.35 1-6.76-1.72-6.37 3.9.36 5.29 4.51 2.52 7 3.47 4 1.54 11.64-4 11.76 3.6.14 8.62-8 3.94-12.13 4.07-17.74.58-17.75.25-17.75-18.42zm-374.69.76C53.91.99 53.91.99 72.02 1c1.86 0 3.72.07 5.57 0 2.82-.13 3.79 1.2 3.71 3.93-.08 2.73-1.24 3.37-3.85 3.95-4.25 1-11.75-3.94-12.16 3.14-.31 5.24 6.94 2 10.75 2.79 2.37.46 3 1.56 3.08 3.67.17 2.74-.89 4.31-3.68 3.78-9.14-1.73-12.3 2.1-10.81 10.94.73 4.36-2.52 4-5.38 3.93-2.86-.07-5.74.39-5.6-4 .16-4.63.04-9.28.04-13.93zm124.39 17.77c-4.44.82-6.34-.47-6-4.78.29-3.71 0-7.46 0-11.19.07-6 1.95-13.18-8.6-11.49-3.35.54-2.6-2.59-2.79-4.62-.26-2.71.74-4 3.63-4 8.71.11 17.41.14 26.12 0 3.38-.05 4.07 1.52 4.11 4.57 0 3.53-1.75 4.43-4.61 4-6.28-.89-7.26 2.46-6.87 7.69.34 4.64-.1 9.32 0 14 .22 4.13-.22 7.3-4.99 5.82zm41.42-18c0-3.72.13-7.45 0-11.16-.18-4-.36-7 5.46-7 5.47 0 6.08 2.41 5.73 6.67-.2 2.46 0 5 0 7.44 0 12.51 0 12.62 12.1 13.24 3.1.16 5.26.19 5.44 4.25.21 4.64-2.21 5.06-5.74 4.74-1.54-.14-3.1 0-4.65 0-18.34-.01-18.34-.01-18.34-18.18zM406.27 1.05c4.34 0 8.67.05 13 0 2.62 0 3.91.83 3.79 3.75-.11 2.69-.17 5.38-3.73 4.77-8.43-1.44-7.88 3.89-7.61 9.4.19 4-.13 8 0 12.07.17 3.79 0 6.3-5.18 6.26-5.18-.04-6.48-1.84-6.07-6.53.33-3.68 0-7.42.08-11.13.14-5.68 1.21-11.85-8.08-10.13-2.89.54-3.35-1.63-3.47-4.12-.16-3.21 1.05-4.46 4.22-4.36 4.38.12 8.72.02 13.05.02zM264.92 19.68c0 3.73-.14 7.47 0 11.19.14 3.72.15 6.31-5.12 6.42-5.48.11-6.06-2.25-5.93-6.63.24-8.08.24-16.167 0-24.26-.09-3.84.83-5.55 5.14-5.53 4.31.02 6.27 1.1 5.87 5.76-.36 4.32-.07 8.7-.07 13l.11.05zm-53.5-.02c0 3.71-.28 7.45.06 11.12.43 4.73-1.08 6.48-6.1 6.56-5.25.09-5.17-2.62-5.11-6.31.13-8.35.24-16.71-.06-25.05-.16-4.28 1.61-5.19 5.42-5 3.37.16 6.17.05 5.86 4.78-.31 4.73-.07 9.26-.07 13.9z"></path><path fill="#FDFDFD" d="M483.99 10.97c0 2.17-1.44 2.55-3 2.06-2.15-.66-5.43.13-5.64-3.39-.11-1.82 1.59-2.39 3.23-2.52 2.85-.15 4.5 1.32 5.41 3.85z"></path><path fill="#C5043E" d="M64.24 365.89c7.42-20.5 14.46-40 21.53-59.49 11.113-30.667 22.233-61.333 33.36-92 10.63-29.29 21.42-58.53 31.82-87.9 1.85-5.22 4.23-7.21 9.95-7.21 32.69 0 65.38-.16 98.06-.89 8-.18 6.36 2.35 4.75 7.76-3.82 12.77-11.19 19.14-24.94 17-10.33-1.63-14.82 3-17.91 13.24-5.25 17.44-9.94 35.17-17.65 51.88-2.87 6.24-3.48 13.52-5.37 21.32 9.18 0 17.84-.08 26.49 0 5 .06 5.36-3.92 5.69-7 .88-8.29 5.37-10.11 13.13-10 24.9.48 49.81.37 74.71.11 5.87-.06 8.66 1.28 10.14 7.58 4.11 17.54 9 34.91 14 52.24 1.69 5.91 1.19 8.21-5.92 8.14-37.67-.33-75.34-.27-113-.07-5.72 0-8.19-1-8.11-7.52.2-16.14-.19-15.53-16.76-16.34-9-.44-12.76 2.53-15.43 11-9.63 30.52-20.09 60.78-30.23 91.14-1.14 3.43-1.31 7.16-6.78 7.11-26.79-.23-53.53-.1-81.53-.1zm431.75 3.25c-25.83 0-50.37-.18-74.9.131-6 .069-7-3.541-8.39-7.821a26278.515 26278.515 0 00-31.87-97.24 94589.415 94589.415 0 00-44.1-133.41c-3.74-11.3-3.76-11.37 8.57-11.33 21.28.08 42.57.29 63.86.37 3.05 0 3.41 2.26 4 4.25 13.31 42.53 28.43 84.46 42.36 126.78 11.31 34.36 23.14 68.62 35.21 102.77 1.67 4.64 3.18 9.33 5.26 15.5z"></path></g></svg>