<svg xmlns="http://www.w3.org/2000/svg" viewBox="0.3901156485080719 0.8066043853759766 1219.7216796875 271.2061462402344"><g fill="none"><path fill="#FABA04" d="M1139.51 270.05c-23.8-2.17-52.31 4.1-80.15-5.48-16-5.5-31.18-11.85-42.91-24.21-6.52-6.88-10.68-9.58-19-1.05-21.77 22.35-49.69 30.67-80.36 30.72-35.82.07-71.64.18-107.46-.05-16.57-.11-19.91-6.24-11.16-20.28 6-9.68 13.92-16.14 26.33-18 25.89-3.85 51.79-1.75 77.67-2.24 56.91-1.08 68.53-34.78 61.09-77.88-3.66-21.18-22.27-35.18-49.25-37.08-29.51-2.06-59.13-2.32-88.68-3.74-15.31-.74-24.52-10.16-30.31-23.49-3-7-1.14-14 6.68-13.49 57.87 3.69 117.34-12.76 173.45 13.31 13.21 6.14 50.45 6.05 63.22-.58a117.72 117.72 0 0155-13.36h109.31c6.07 0 13.19-1.29 16.35 5.6 2.67 5.81-2.14 10.4-4.81 15.17-5.88 10.49-14.7 16.37-26.8 16.86-28.32 1.16-56.7 1.5-85 3.45-55.08 3.79-62.05 42.46-51 82.83 6.41 23.36 28.56 30.57 51.48 32 28.9 1.83 58-2.32 86.83 3 6.28 1.16 12.15 2.32 16.42 7.27 6.31 7.3 16.34 14.46 12.5 24.89-3.72 10.1-15.18 5.33-23.29 5.59-17.25.64-34.55.24-56.15.24z"></path><path fill="#8D034D" d="M285.35 119.72c-8.5 24.9-26.31 35.57-51.91 35.5-46.94-.12-93.89 0-140.83.2-26.63.1-35.58 9.05-35.83 35.46-.09 9.88 0 19.76 0 29.65-.11 25.12-15.06 43.69-39.86 50.34-10.8 2.89-16.5.76-16.46-11.75.2-66.72-.47-133.44.35-200.14.34-27.74 27.74-53.61 59.48-55.64C133.07-1.32 206 1.99 278.87 1.41c13.94-.11 17.73 6.32 10.56 18.68-9.5 16.37-23.36 24.28-42.54 24.13-46.95-.35-93.9-.19-140.84 0-7.36 0-14.93.19-22 1.85-23 5.37-29.71 15.06-27.77 38.13 1.45 17.34 15.78 30.31 35.56 30.44 55 .37 110 .11 164.93.2 9.62-.02 19.64-1.59 28.58 4.88zm357.8 68.07c-25.43 0-45.81.1-66.19 0-11.33-.07-14.65 4.51-9.65 14.94 8.15 17 20.82 27 40.35 26.95 42 0 84-.11 126 .3 8.52.08 20.64-3.55 23.5 8.06 2.69 10.91-7.33 18.11-15.33 23.35-11 7.19-24.14 8.67-37.24 8.68-34 0-67.94.19-101.9 0-52.61-.37-93-40.37-94.83-93.5-2-58.89 33.05-102.57 87.41-105.87a977.39 977.39 0 01103.7-.38c45.9 2.11 70.85 38.9 57.38 82.64-5.78 18.64-19.68 28.63-38.78 32.17-26.41 4.92-53 1.41-74.42 2.66zm-15.08-36.09v.06c15.43 0 30.85.07 46.28 0 13.12-.09 25.41-2.14 27-18.52 1.67-17.48-10.72-22.38-24.38-23.77-25.82-2.64-51.75-2.68-77.48 1.3-13.88 2.15-23.1 11.59-29.59 23-5.64 9.92-4.46 18.11 10.05 18 16.03-.17 32.07-.07 48.12-.07zm-292.74-39.82c0-29-.25-58 .08-87 .25-22.21 8.74-27.22 29.18-19 20.44 8.22 31.14 20.44 30.2 44.58-1.79 45.62-.51 91.36-.52 137.05 0 33.63 8.67 42.09 42.73 42.29 12.32.08 24.65.66 36.94 1.44 11 .7 11.62 7.57 7.89 15.59-6 12.86-17.57 20-30.45 21.77-27.79 3.91-55.44 1.84-80.71-12-21.07-11.54-32.59-30.14-33.26-54.05-.85-30.22-.21-60.49-.21-90.73l-1.87.06z"></path></g></svg>