<svg xmlns="http://www.w3.org/2000/svg" viewBox="0.6000000238418579 0.7999987602233887 398.3118896484375 121.4000015258789"><defs><linearGradient id="fn89f88f596dma" x1="49.91%" x2="49.91%" y1="86.907%" y2="15.536%"><stop offset="0%" stop-color="#E60060"></stop><stop offset="100%" stop-color="#C20831"></stop></linearGradient></defs><g fill="none"><path fill="#7C7C7B" d="M302.1 52.8h-1.6l1.9-10c.3-1.6-1.1-2.3-3.2-2.3-1.2 0-3.1.5-4.7 1.7l-2 10.5h-1.6l2.6-13.5h1.4l-.1 1.3c1.8-1 3.3-1.6 4.6-1.6 1.7 0 3.4.1 4.3 1.9 2.2-1.7 4-1.9 5.3-1.9 2.7 0 5.3.7 4.2 6.3l-1.4 7.5h-1.6l1.4-7.5c.8-4.1-.9-4.7-2.8-4.7-1.3 0-3.1.4-4.7 1.9l-2 10.4zm40.5-11c-1.1-.8-2.7-1.2-3.7-1.2-2.4 0-5.2 1.8-5.9 5.2-.9 4.8 2.1 5.6 3.7 5.6 1.1 0 3.2-.6 4.3-1.8l1.6-7.8zm-1.7 9.6c-1.3.9-2.7 1.7-4.4 1.7-2.2 0-6.2-1.1-5-7.2.9-4.6 4.5-6.8 7.8-6.8.9 0 2.3.2 3.6 1.2l1.4-7.2h1.6l-3.8 19.7h-1.4l.2-1.4zM351.1 34c.8 0 .9.4.8 1-.1.5-.4 1-1.2 1-.8 0-.9-.4-.8-1 .1-.6.4-1 1.2-1zm-4.4 18.8l2.6-13.5h1.6l-2.6 13.5h-1.6zm15.5-.1c-1.1.2-2.5.4-3.9.4-3.1 0-5.9-2.5-5-7 .9-4.5 4.7-7 7.8-7 1.4 0 2.8.2 3.8.4l-.3 1.6c-1.1-.2-2.5-.4-3.8-.4-2.3 0-5.1 1.9-5.8 5.4-.7 3.5 1.4 5.4 3.7 5.4 1.3 0 2.9-.1 3.9-.3l-.4 1.5zm8-18.7c.8 0 .9.4.8 1-.1.5-.4 1-1.2 1-.8 0-.9-.4-.8-1 .1-.6.4-1 1.2-1zm-4.5 18.8l2.6-13.5h1.6l-2.6 13.5h-1.6zm6.2 0l2.6-13.5h1.4l-.1 1.3c1.1-.9 3.3-1.6 4.6-1.6 3.1 0 5.1 1.4 4.3 5.5l-1.6 8.3h-1.6l1.6-8.3c.6-2.9-.8-3.9-2.9-3.9-1.1 0-2.8.5-4.5 1.4l-2.1 10.8h-1.7zm24.9-6.2c-1-.3-2.2-.4-3.2-.4-2.7 0-4.5 1-4.8 2.7-.3 1.5.3 2.5 2.4 2.5 1.3 0 3.4-.4 4.9-1.4l.7-3.4zm-.8 4.8c-1.2 1-3.7 1.7-5 1.7-3.4 0-4.2-1.7-3.8-4.1.5-2.8 3.1-4.2 6.7-4.2.9 0 2.5.1 3.1.4l.1-.4c.6-3.2-.8-4.2-2.5-4.2-1.6 0-3.1.3-5.1 1.1l.3-1.5c1.6-.6 3.2-1.1 5.1-1.1 2.6 0 4.7 1.3 3.8 5.8l-1.6 8h-1.4l.3-1.5zm-90.6 23.3c1.2.7 2.6 1 3.5 1 2.1 0 3.9-.2 4.5-2.1.4-1.7-1.3-2.2-3.3-2.9l-1.3-.4c-2.6-.9-2.2-3-2.1-3.4.5-2.3 2.5-3.8 6.3-3.7.8 0 2.3.4 3.2.7l-.3 1.6c-.8-.3-2.6-.7-3.3-.7-2.6-.1-4 .8-4.3 2.3 0 .1-.3 1.1 1.3 1.6l1.3.4c2.6.9 4.8 1.6 4.1 4.5-.9 3.4-3.5 3.6-6.4 3.6-1 0-2.5-.3-3.5-.8l.3-1.7zm21.4-4c-1-.3-2.2-.4-3.2-.4-2.7 0-4.5 1-4.8 2.7-.3 1.5.2 2.5 2.4 2.5 1.3 0 3.4-.4 4.9-1.4l.7-3.4zm-.9 4.8c-1.2 1-3.7 1.7-5 1.7-3.4 0-4.2-1.7-3.8-4.1.5-2.8 3.1-4.2 6.7-4.2.9 0 2.5.1 3.1.4l.1-.4c.6-3.2-.8-4.2-2.5-4.2-1.6 0-3.1.3-5.1 1.1l.3-1.5c1.6-.6 3.2-1.1 5.1-1.1 2.6 0 4.7 1.3 3.8 5.8l-1.6 8h-1.4l.3-1.5zM340 61.2h-1.6l2.7-3.5h1.7l-2.8 3.5zm.8 14.3c-1.1 1-3.4 1.7-4.6 1.7-3.1 0-5.1-1.4-4.3-5.5l1.6-8.3h1.6l-1.6 8.3c-.6 2.9.9 3.9 3 3.9 1.1 0 2.8-.5 4.5-1.4l2.1-10.8h1.6l-2.6 13.5h-1.4l.1-1.4zm17-9.6c-1.1-.8-2.7-1.2-3.7-1.2-2.4 0-5.2 1.8-5.9 5.2-.9 4.8 2.1 5.6 3.7 5.6 1.1 0 3.2-.6 4.3-1.8l1.6-7.8zm-1.8 9.6c-1.3.9-2.7 1.7-4.4 1.7-2.2 0-6.2-1.1-5-7.2.9-4.6 4.5-6.8 7.8-6.8.9 0 2.3.2 3.6 1.2l1.4-7.2h1.6l-3.8 19.7h-1.4l.2-1.4zm-38-30.1c1.1.5 4.4 1.1 6.4.8 3.8-.7 3.6-5.5-.9-5.5-2.3-.1-4.7 1.7-5.5 4.7m-.3 1.4c-.4 3.1 1.4 4.7 3.9 4.7 1.9 0 3.9-.3 5-.6l-.3 1.5c-1.1.3-2.9.6-4.9.6-3.7 0-6.1-2.1-5.1-7.1.9-4.4 4.3-6.9 7.6-6.9 6.4 0 6.4 7.4 1.3 8.4-2.7.5-5.8-.1-7.5-.6m-31.2 22.7c1.1.5 4.4 1.1 6.4.8 3.8-.7 3.6-5.5-.9-5.5-2.3 0-4.7 1.7-5.5 4.7m-.3 1.4c-.4 3.1 1.4 4.7 3.9 4.7 1.9 0 3.9-.3 5-.6l-.3 1.5c-1.1.3-2.9.6-4.9.6-3.7 0-6.1-2.1-5.1-7.1.9-4.5 4.3-6.9 7.6-6.9 6.4 0 6.4 7.4 1.3 8.4-2.7.6-5.8-.1-7.5-.6m77.4-1.4c1.1.5 4.4 1.1 6.4.8 3.8-.7 3.6-5.5-.9-5.5-2.3 0-4.7 1.7-5.5 4.7m-.3 1.4c-.4 3.1 1.4 4.7 3.9 4.7 1.9 0 3.9-.3 5-.6l-.3 1.5c-1.1.3-2.9.6-4.9.6-3.7 0-6.1-2.1-5.1-7.1.9-4.5 4.3-6.9 7.6-6.9 6.4 0 6.4 7.4 1.3 8.4-2.7.6-5.8-.1-7.5-.6"></path><path fill="url(#fn89f88f596dma)" d="M64.8.8H56C41.6.8 27.4 3 23.2 23.9c0 0-2.1 10.9-3.7 17.8-.9.2-3.9 1.7-5.2 2.5l-2 8.4h4.9c-1.1 4.8-8.3 40.8-8.3 40.8C6.3 106.1 5.1 109.9.6 113l7.3 9.2c5.5-3.1 9.4-7.7 12.6-20.4l10-49.3h14.9l2.4-10.9h-15s1.8-9.2 3.1-15.4c1.3-6.2 3.8-13 14.4-13h14.4l1.5-7.9c.4-2.8-.2-4.2-1.4-4.5z"></path><path fill="#7C7C7B" d="M168.6 73.8c-1.4 7.3-6.8 12.1-12.7 12.1-7.5 0-9.3-3.3-7.8-11.7l6.5-34h-12.9l-7.2 37.7c-2.5 12 5 20.3 15.7 20.3 4.9 0 10.8-2.7 14.7-6.7l.7-.7-1.3 7.2h12.9l11-57.8H175l-6.4 33.6zM104.9 87c-7.3 0-10-2.9-10-9.9 0-.6 0-1.3.2-2.4 1.6.1 3.4.2 5 .2 20 0 31.4-7 31.4-19.4 0-8.8-6.4-15.8-20.5-15.8-20.8 0-28.9 19.4-28.9 37.5 0 15 8 21.1 19.8 21.1 5.3 0 11.1-1 16.9-3.8 1.7-.8 3.5-1.8 5.2-3.1l-6.4-8.1c-3.7 2-7.8 3.7-12.7 3.7zm5.6-35.8c5.5 0 8.5 2.5 8.5 6 0 2.9-3.5 7.9-17.6 7.9-1.4 0-3 0-4.6-.1 1.6-6.9 6.3-13.8 13.7-13.8zm156.9-10.9c-9.6 28.2-18.1 44.8-18.1 44.8-.4-26.6-4.8-44.8-4.8-44.8-12.3-1.6-24.2.5-31.7 7.9l-.6.5 1.4-8.4h-13l-11.2 57.8H203l6.5-32.3c2.1-11.1 12.1-14.7 23.4-14.7 2.5 15 7.7 42.1 7.7 44.4-2.4 6.8-10.8 13.3-18.5 16.3l6.9 8.6c25.5-6 43.6-60.5 51.5-80.1h-13.1zM71.8 88.2c-8.5 1.3-9.1-.6-8.5-4.7 0 0 13.6-66.6 14.3-70 .1-.3 0-.8-.6-1.7-.9-1.4-8.6-10.3-12-11h-.3c1.3.3 1.8 1.7 1.4 4.6l-1.5 7.9v.2L51.3 80.2c-3 13.7 3.3 19.9 13.2 19.8 2 0 8.8-.6 14.1-2.8l-6.8-9z"></path></g></svg>