<svg xmlns="http://www.w3.org/2000/svg" viewBox="31.88995361328125 5.584000587463379 956.030029296875 393.260986328125"><path fill="#244fa0" d="M976.483 28.53c6.341 0 11.437-5.129 11.437-11.503 0-6.315-5.096-11.443-11.437-11.443-6.386 0-11.504 5.128-11.504 11.443a11.47 11.47 0 0011.504 11.504zm0-2.018c-5.248 0-9.502-4.243-9.502-9.485 0-5.183 4.254-9.43 9.502-9.43 5.216 0 9.414 4.247 9.414 9.43 0 5.242-4.198 9.485-9.414 9.485zm-.682-8.721c.735.058 1.428 0 1.958.545.606.645.606 1.705.758 2.868.087.801.314 1.65.455 2.408h2.695c-.455-1.223-.607-2.619-.802-3.9-.205-1.467-.422-2.295-2.282-2.652v-.065c1.796-.363 2.737-1.586 2.737-3.143 0-3.052-2.555-3.728-5.032-3.728h-4.361v13.488h2.109v-5.821zm-1.765-2.106v-3.457h2.533c1.678 0 2.143.525 2.143 1.532 0 1.044-.465 1.86-2.457 1.925h-2.219M433.712 127.899l-9.696-49.8-9.707 49.8zm-57.948-95.624h96.516l38.21 159.384h-64.354l-6.201-31.88h-31.826l-6.212 31.88h-64.344l38.211-159.384m-122.683 31.88L237 64.144v31.88h16.081c8.884 0 16.091-7.148 16.091-15.935 0-8.786-7.207-15.934-16.09-15.934zm41.456 62.866l41.003 64.638h-68.37L237 139.85v51.808h-64.344V32.275h112.608c26.643 0 48.252 21.442 48.252 47.814 0 23.704-16.763 42.652-38.979 46.932m354.706-30.997h32.173V64.149h-32.173zm46.25-63.749h64.356v127.504h64.344v31.88h-128.7V32.275m140.766 0h128.7v31.869h-64.346v31.88h64.346v31.875h-64.346v31.88h64.346v31.88h-128.7V32.275m-804.369 0h128.7v31.869H96.234v31.88h64.354v31.875H96.235v63.76H31.89V32.275"></path><path fill="#244fa0" d="M518.53 159.779h65.038l-55.947-55.586c-7.878-7.822-13.116-18.162-13.116-30.082 0-23.11 18.906-41.836 42.236-41.836.228-.232 92.502 0 92.502 0v31.869h-64.994l56.618 56.27c7.65 7.593 12.401 17.84 12.401 29.398 0 23.103-18.915 41.847-42.247 41.847-.216.221-92.492 0-92.492 0v-31.88"></path><path fill="#ee2537" d="M32.085 223.528h96.322L32.075 280.86l.01-57.332m.455 97.002l160.223-97.002H321.46L31.891 398.845l.65-78.314m63.694 78.314l289.581-175.317h128.69L224.934 398.845h-128.7m193.056 0l289.57-175.317h128.7L417.99 398.845h-128.7m193.054 0l289.57-175.317h128.7L611.031 398.845H482.344m193.043 0l289.572-175.317-.218 78.042-160.665 97.275h-128.69m193.055 0l96.452-59.106.011 59.106h-96.463"></path></svg>