<svg xmlns="http://www.w3.org/2000/svg" viewBox="70.61312866210938 70.6500015258789 298.494140625 54.245994567871094"><g fill-rule="evenodd" clip-rule="evenodd"><path fill="#003595" d="M238.052 70.65h1.789v54.246h-1.789V70.65zm19.543 26.415c-1.619-1.058-3.148-2.057-3.148-3.145 0-1.017 1.296-1.756 3.08-1.756 1.198 0 2.454.226 4.075.73a.15.15 0 00.196-.16l-.295-2.975a.154.154 0 00-.125-.134c-1.699-.309-3.242-.46-4.712-.46-3.484 0-6.999 1.384-6.999 4.474 0 2.398 2.404 4.014 4.524 5.441 1.606 1.079 3.124 2.099 3.124 3.206 0 1.295-1.659 1.755-3.079 1.755-1.581 0-3.319-.364-5.162-1.082a.15.15 0 00-.148.021.146.146 0 00-.058.137l.328 3.128a.148.148 0 00.121.133c2.055.398 3.793.662 5.602.662 5.297 0 7.176-2.547 7.176-4.728 0-2.305-2.39-3.868-4.5-5.247zm14.271-3.576c-5.188 0-8.541 2.785-8.541 7.095 0 2.978 2.113 6.457 8.066 6.457 6.282 0 8.51-3.766 8.51-6.992.001-4.046-3.078-6.56-8.035-6.56zm-.415 10.757c-2.249 0-3.701-1.408-3.701-3.586 0-1.316.398-4.376 4.087-4.376 2.316 0 3.643 1.345 3.643 3.689-.001 2.065-1.061 4.273-4.029 4.273zm15.289-14.775h-4.269a.152.152 0 00-.152.148c-.151 6.937-.556 12.029-.947 16.953a.15.15 0 00.152.163h4.239a.152.152 0 00.151-.146c.186-5.043.447-11.001.979-16.954a.155.155 0 00-.04-.116.16.16 0 00-.113-.048zm17.557 4.323h-4.149a.15.15 0 00-.151.148l-.003.117c-.032 1.327-.128 5.361-.47 6.975-.403 1.842-1.698 2.855-3.645 2.855-1.906 0-2.872-.847-2.872-2.517 0-1.416.445-6.375.562-7.409a.152.152 0 00-.152-.169h-4.208a.153.153 0 00-.153.151c-.016 2.529-.174 4.475-.301 6.037-.094 1.14-.173 2.124-.173 3.017 0 2.608 1.981 4.043 5.576 4.043 2.528 0 4.27-.684 5.332-2.068v1.613c0 .084.068.151.152.151h3.912a.153.153 0 00.153-.149c.052-3.688.28-7.583.74-12.628a.144.144 0 00-.039-.115.137.137 0 00-.111-.052zm16.622 0h-4.298a.15.15 0 00-.151.151c-.034 4.728-.257 8.858-.681 12.624a.15.15 0 00.151.168h4.417a.15.15 0 00.152-.15c.031-5.368.195-9.025.562-12.625a.145.145 0 00-.039-.117.146.146 0 00-.113-.051zm.229-4.479a.154.154 0 00-.11-.047h-4.268a.152.152 0 00-.152.148l-.06 2.391a.148.148 0 00.043.11c.028.03.067.046.109.046h4.209a.15.15 0 00.151-.144l.118-2.39a.15.15 0 00-.04-.114zm9.697 4.174c-5.187 0-8.538 2.785-8.538 7.095 0 2.978 2.111 6.457 8.066 6.457 6.28 0 8.51-3.766 8.51-6.992 0-4.046-3.08-6.56-8.038-6.56zm-.414 10.757c-2.249 0-3.703-1.408-3.703-3.586 0-1.316.399-4.376 4.087-4.376 2.316 0 3.644 1.345 3.644 3.689 0 2.065-1.058 4.273-4.028 4.273zm14.746-8.627l.12-1.674a.15.15 0 00-.152-.151h-4.149a.151.151 0 00-.152.149c-.08 4.395-.319 8.17-.801 12.625a.153.153 0 00.153.168h4.238c.082 0 .15-.065.152-.148l.01-.449c.032-1.464.097-4.51.49-6.312.46-2.025 1.875-3.188 3.883-3.188 2.068 0 2.992.793 2.992 2.57 0 2.106-.211 4.372-.681 7.351a.16.16 0 00.034.123.153.153 0 00.115.052h4.388a.151.151 0 00.152-.151c0-2.324.152-4.526.275-6.294.079-1.131.14-2.023.14-2.632 0-2.728-1.958-4.17-5.665-4.17-2.555.001-4.366.705-5.542 2.131zm13.46 1.506c0 1.725 1.798 2.906 3.386 3.949 1.139.748 2.216 1.456 2.216 2.153 0 1.087-1.608 1.171-2.102 1.171-1.437 0-2.857-.461-4.188-.932a.156.156 0 00-.146.024.15.15 0 00-.055.137l.326 2.747a.15.15 0 00.121.131c1.849.366 3.366.535 4.774.535 2.79 0 6.05-.938 6.05-3.583 0-1.923-1.978-3.245-3.566-4.309-1.047-.701-2.037-1.362-2.037-1.948 0-.939 1.11-1.069 2.308-1.069 1.223 0 2.294.331 3.18.653a.152.152 0 00.203-.153l-.178-2.594a.152.152 0 00-.128-.14c-1.796-.282-3.156-.409-4.411-.409-5.006.001-5.753 2.278-5.753 3.637zm-43.983-3.276a.144.144 0 00-.105-.046h-3.368a.182.182 0 01-.128-.054.183.183 0 01-.05-.123l.105-2.701a.153.153 0 00-.051-.112.143.143 0 00-.123-.032l-3.823.712a.148.148 0 00-.12.135l-.128 2.01c0-.007-.002-.013-.003-.02 0 .052-.01.179-.044.591-.455 5.581-.685 8.745-.685 9.405 0 3.012 2.079 3.427 4.326 3.427a14.69 14.69 0 003.354-.385.147.147 0 00.108-.1l.327-2.575a.146.146 0 00-.172-.172l-.306.068c-.575.128-.863.173-1.829.173-1.158 0-1.395-.714-1.395-1.786 0-.51.189-3.603.301-5.401l.007-.109a.178.178 0 01.178-.167h3.4a.145.145 0 00.146-.139l.119-2.501a.148.148 0 00-.039-.099c-.001.002-.001.001-.002.001zm-178.446-4.74h-5.959a.146.146 0 00-.139.1c-.368 1.09-1.934 4.472-3.316 7.455l-1.91 4.191a.182.182 0 01-.334-.017l-.256-.744c-.823-2.377-3.328-9.612-3.565-10.866a.147.147 0 00-.144-.119h-5.84c-.079 0-.139.053-.145.128-.011.128-1.092 12.912-1.69 16.958a.15.15 0 00.034.119c.027.032.069.05.111.05h3.794a.145.145 0 00.145-.14c.145-3.665.423-7.595.848-12.012a.18.18 0 01.157-.161c.084-.01.162.04.189.121l3.976 12.091a.148.148 0 00.139.101h4.002c.058 0 .11-.033.134-.087l5.336-12.122a.177.177 0 01.199-.103.179.179 0 01.141.174c-.001 2.942-.343 10.481-.414 11.992 0 .038.014.075.039.1a.152.152 0 00.108.046h3.942a.147.147 0 00.147-.146c0-7.857.196-12.504.414-16.956a.145.145 0 00-.143-.153zm25.776 4.368a.148.148 0 00-.105-.046h-3.367a.176.176 0 01-.178-.177l.105-2.701a.153.153 0 00-.051-.112.141.141 0 00-.122-.032l-3.822.712a.147.147 0 00-.12.135l-.128 2.01c0-.007-.002-.013-.003-.019 0 .052-.01.179-.043.591-.455 5.581-.685 8.745-.685 9.405 0 3.012 2.079 3.427 4.326 3.427a14.69 14.69 0 003.354-.385.147.147 0 00.108-.099l.327-2.575a.145.145 0 00-.172-.172l-.306.068c-.575.128-.863.174-1.83.174-1.157 0-1.395-.714-1.395-1.786 0-.51.189-3.603.301-5.401l.007-.109a.18.18 0 01.178-.167h3.4a.145.145 0 00.146-.139l.119-2.501a.148.148 0 00-.039-.099l-.005-.002zm9.291-.35c-1.937 0-3.98.236-6.432.741a.145.145 0 00-.115.115l-.445 2.367a.147.147 0 00.19.165c2.147-.713 4.023-1.06 5.734-1.06 2.108 0 2.551.681 2.551 1.252 0 1.039-1.801 1.402-3.897 1.824-2.913.588-6.537 1.321-6.537 4.406 0 1.123.528 3.733 5.422 3.733.945 0 1.845-.076 2.751-.231a.146.146 0 00.115-.098l.741-2.186a.147.147 0 00-.181-.187c-.816.252-1.558.374-2.27.374-1.936 0-2.343-.737-2.343-1.353 0-1.31 1.869-1.766 3.677-2.207.838-.205 1.629-.399 2.232-.677a.18.18 0 01.175.014.178.178 0 01.077.158c-.232 3.69-.322 4.851-.465 5.923l-.001.018c0 .034.012.07.038.096a.14.14 0 00.109.05h4.121c.08 0 .146-.066.146-.146 0-2.248.177-4.586.32-6.477l.184-3.162c.001-2.258-2.039-3.452-5.897-3.452zm13.052-4.018h-4.268a.148.148 0 00-.147.143c-.151 6.945-.556 12.033-.948 16.953a.147.147 0 00.04.112.142.142 0 00.106.048h4.239c.08 0 .144-.062.147-.141.185-5.048.446-11.011.977-16.953a.15.15 0 00-.037-.113.143.143 0 00-.109-.049zm8.375 2.022c.893 0 1.808.255 2.504.476a.145.145 0 00.19-.148l-.148-2.415a.152.152 0 00-.113-.135 15.56 15.56 0 00-3.62-.411c-3.019 0-4.682 1.253-4.682 3.542l-.434 6.198c-.132 2.728-.256 5.306-.514 7.98a.147.147 0 00.147.146h4.209a.147.147 0 00.146-.141l.402-9.835a.179.179 0 01.178-.172h3.187c.077 0 .141-.06.145-.138l.148-2.502a.14.14 0 00-.04-.1.142.142 0 00-.106-.046h-3.35a.178.178 0 01-.179-.178c.015-1.201.164-2.121 1.93-2.121zm12.461 2.127l-1.315-.131c-1.417 0-2.573.479-3.537 1.463a.18.18 0 01-.199.039.181.181 0 01-.107-.164l.047-.888a.145.145 0 00-.041-.1.15.15 0 00-.106-.046h-3.942a.147.147 0 00-.147.146c0 5.158-.251 8.491-.494 11.723l-.068.907c-.003.04.01.08.037.109a.148.148 0 00.108.048h4.12a.146.146 0 00.146-.146v-1.578c0-2.672.119-4.525.351-5.508.305-1.306 1.181-2.863 3.623-2.863.485 0 .952.074 1.562.247a.145.145 0 00.13-.025.15.15 0 00.055-.121l-.118-2.976c-.001-.046-.017-.127-.105-.136zm6.07.173h-4.298a.146.146 0 00-.146.145c-.033 4.733-.256 8.863-.681 12.624a.148.148 0 00.145.164h4.417a.148.148 0 00.146-.146c.032-5.372.195-9.029.562-12.625a.144.144 0 00-.037-.113.143.143 0 00-.108-.049zm.227-4.48a.153.153 0 00-.107-.047h-4.269a.147.147 0 00-.147.143l-.059 2.392a.144.144 0 00.146.149h4.209a.146.146 0 00.146-.139l.12-2.39a.153.153 0 00-.039-.108zm-66.041 4.176c-7.563 0-8.15 5.522-8.15 7.216 0 1.902.817 6.326 8.387 6.326 1.563 0 3.143-.159 4.829-.485a.148.148 0 00.117-.117l.534-2.669a.142.142 0 00-.044-.135.142.142 0 00-.138-.034c-1.45.391-3.142.809-4.882.809-2.707 0-4.389-1.357-4.389-3.54v-.082c0-.098.08-.178.178-.178h10.288a.15.15 0 00.143-.118 7.09 7.09 0 00.181-1.505c-.001-3.437-2.638-5.488-7.054-5.488zm-3.06 4.756c.45-1.251 1.538-1.996 2.972-1.996 1.615 0 2.344.588 2.487 1.996h-5.459zm78.743-4.756c-5.183 0-8.532 2.783-8.532 7.089 0 2.978 2.111 6.454 8.059 6.454 6.279 0 8.506-3.764 8.506-6.986 0-4.045-3.076-6.557-8.033-6.557zm-.413 10.756c-2.251 0-3.705-1.409-3.705-3.591 0-1.317.398-4.381 4.09-4.381 3.173 0 3.647 2.313 3.647 3.693 0 2.069-1.059 4.279-4.032 4.279z"></path><path fill="#00abc8" d="M89.371 86.048c-.005-.308.273-.466.273-.466l3.487-2.014a1.126 1.126 0 00-1.127-1.95l-.001-.001-4.443 2.565s-.115.087-.263-.01l-4.426-2.555v.001a1.126 1.126 0 00-1.126 1.95l3.487 2.012s.278.158.272.465l.001 6.076h.001l-.001.001a1.932 1.932 0 003.864 0v-.001l.002-6.073zm-13.042 7.53c-.264-.158-.539.004-.539.004l-3.488 2.013a1.126 1.126 0 01-1.125-1.95l-.001-.001 4.443-2.565s.133-.056.122-.234l.001-5.11h.001a1.127 1.127 0 012.252-.001l-.001 4.026s-.002.32.267.469l5.261 3.038.001.001a1.931 1.931 0 11-1.932 3.346l-.002-.001-5.26-3.035zm20.274-3.354c.269-.15.267-.469.267-.469v-4.027a1.126 1.126 0 012.252 0h.001v5.13s-.018.144.141.222l4.425 2.556a1.126 1.126 0 01-1.126 1.95l-3.486-2.013s-.276-.162-.54-.004l-5.262 3.037-.002.001a1.931 1.931 0 11-1.932-3.346l.001-.001 5.261-3.036zm-7.232 19.231c-.005.307.273.465.273.465l3.487 2.014a1.125 1.125 0 11-1.127 1.95l-.001.001-4.443-2.566s-.115-.087-.263.011l-4.426 2.555v-.001a1.125 1.125 0 01-1.126-1.95l3.487-2.012s.278-.158.272-.465l.001-6.076h.001l-.001-.002a1.931 1.931 0 113.864 0v.002l.002 6.074zm-13.042-7.53c-.264.158-.539-.003-.539-.003l-3.488-2.013a1.125 1.125 0 10-1.126 1.95l4.442 2.565s.133.056.122.234l.001 5.11h.001a1.127 1.127 0 002.252.001l-.001-4.026s-.002-.32.267-.469l5.261-3.038v-.001h.001a1.932 1.932 0 00-1.932-3.346l-.002.001-5.259 3.035zm20.274 3.355c.268.149.267.469.267.469l.001 4.027a1.126 1.126 0 002.251 0h.001v-5.13s-.018-.144.141-.223l4.425-2.555v-.001a1.126 1.126 0 00-1.126-1.95l-3.487 2.013s-.275.162-.539.004l-5.263-3.037-.001-.001a1.932 1.932 0 10-1.931 3.347l5.261 3.037z"></path></g></svg>