<svg xmlns="http://www.w3.org/2000/svg" viewBox="0.9042932391166687 0.20440459251403809 600.0958251953125 184.79559326171875"><defs><radialGradient id="fnd335abef8dma" cx="50%" cy="0%" r="139.53%" fx="50%" fy="0%" gradientTransform="matrix(.85998 .42845 -.49664 .70262 .07 -.214)"><stop offset="0%" stop-color="#F22F1A"></stop><stop offset="100%" stop-color="#FF9C33"></stop></radialGradient><radialGradient id="fnd335abef8dmb" cx="50%" cy="0%" r="174.418%" fx="50%" fy="0%" gradientTransform="matrix(.68796 .34275 -.24427 .91422 .156 -.171)"><stop offset="0%" stop-color="#F22F1A"></stop><stop offset="100%" stop-color="#FF9C33"></stop></radialGradient><radialGradient id="fnd335abef8dmc" cx="50%" cy="0%" r="149.452%" fx="50%" fy="0%" gradientTransform="matrix(.80289 .4 -.341 .89192 .099 -.2)"><stop offset="0%" stop-color="#F22F1A"></stop><stop offset="100%" stop-color="#FF9C33"></stop></radialGradient><radialGradient id="fnd335abef8dmd" cx="50%" cy="0%" r="164.594%" fx="50%" fy="0%" gradientTransform="matrix(.72902 .3632 -.66612 .37645 .135 -.182)"><stop offset="0%" stop-color="#F22F1A"></stop><stop offset="100%" stop-color="#FF9C33"></stop></radialGradient><radialGradient id="fnd335abef8dme" cx="50%" cy="0%" r="144.46%" fx="50%" fy="0%" gradientTransform="matrix(.83063 .41383 -.36745 .88593 .085 -.207)"><stop offset="0%" stop-color="#F22F1A"></stop><stop offset="100%" stop-color="#FF9C33"></stop></radialGradient><radialGradient id="fnd335abef8dmf" cx="50%" cy="0%" r="142.346%" fx="50%" fy="0%" gradientTransform="matrix(.84297 .41997 -.52353 .64042 .079 -.21)"><stop offset="0%" stop-color="#F22F1A"></stop><stop offset="100%" stop-color="#FF9C33"></stop></radialGradient><radialGradient id="fnd335abef8dmg" cx="50%" cy="0%" r="134.323%" fx="50%" fy="0%" gradientTransform="matrix(.89332 .44505 -.43206 .87148 .053 -.223)"><stop offset="0%" stop-color="#F22F1A"></stop><stop offset="100%" stop-color="#FF9C33"></stop></radialGradient><radialGradient id="fnd335abef8dmh" cx="50%" cy="0%" r="134.581%" fx="50%" fy="0%" gradientTransform="matrix(.8916 .4442 -.44067 .85117 .054 -.222)"><stop offset="0%" stop-color="#F22F1A"></stop><stop offset="100%" stop-color="#FF9C33"></stop></radialGradient><radialGradient id="fnd335abef8dmi" cx="50%" cy="0%" r="135.336%" fx="50%" fy="0%" gradientTransform="matrix(.88663 .44172 -.45007 .8241 .057 -.22)"><stop offset="0%" stop-color="#F22F1A"></stop><stop offset="100%" stop-color="#FF9C33"></stop></radialGradient><radialGradient id="fnd335abef8dmj" cx="50%" cy="0%" r="134.95%" fx="50%" fy="0%" gradientTransform="matrix(.88916 .44299 -.44531 .83769 .055 -.221)"><stop offset="0%" stop-color="#F22F1A"></stop><stop offset="100%" stop-color="#FF9C33"></stop></radialGradient><radialGradient id="fnd335abef8dmk" cx="50%" cy="0%" r="149.816%" fx="50%" fy="0%" gradientTransform="matrix(.80094 .39903 -.3392 .89233 .1 -.2)"><stop offset="0%" stop-color="#F22F1A"></stop><stop offset="100%" stop-color="#FF9C33"></stop></radialGradient><radialGradient id="fnd335abef8dml" cx="50%" cy="0%" r="134.903%" fx="50%" fy="0%" gradientTransform="matrix(.88948 .44314 -.44472 .8394 .055 -.222)"><stop offset="0%" stop-color="#F22F1A"></stop><stop offset="100%" stop-color="#FF9C33"></stop></radialGradient><radialGradient id="fnd335abef8dmm" cx="50%" cy="0%" r="171.394%" fx="50%" fy="0%" gradientTransform="matrix(.7001 .3488 -.69488 .3328 .15 -.174)"><stop offset="0%" stop-color="#F22F1A"></stop><stop offset="100%" stop-color="#FF9C33"></stop></radialGradient><radialGradient id="fnd335abef8dmn" cx="50%" cy="0%" r="140.744%" fx="50%" fy="0%" gradientTransform="matrix(.85256 .42475 -.5086 .67431 .074 -.212)"><stop offset="0%" stop-color="#F22F1A"></stop><stop offset="100%" stop-color="#FF9C33"></stop></radialGradient><radialGradient id="fnd335abef8dmo" cx="50%" cy="0%" r="178.351%" fx="50%" fy="0%" gradientTransform="matrix(.6728 .33519 -.23294 .91687 .164 -.168)"><stop offset="0%" stop-color="#F22F1A"></stop><stop offset="100%" stop-color="#FF9C33"></stop></radialGradient></defs><g fill="none"><path fill="#507A26" d="M91.7 1.1C72.4 3.6 53.1 14.6 43.6 28.3c-2.2 3.2-4.1 5.7-4.3 5.7-.1 0 1.1-2.7 2.8-5.9 3.2-6.2 4.6-13.1 3.5-17.5-1-3.9-2-3.1-3.4 2.6-.8 3.4-3.7 9-8.2 15.8-8.6 13-10.9 18.2-11 24.1 0 4.8 1.6 10.9 3 10.9.4 0 1-2.3 1.2-5.1.5-5 5.9-16.9 9.9-21.9l2-2.5-1.9 4C34.4 44.3 32 52.8 32 56.9l.1 3.6 1.4-3.9c2.1-5.9 9.6-16.4 16.7-23.4 7.8-7.6 11.7-10.5 19-14.3 10.4-5.3 15.2-6 37.5-5.7l20.2.3-2.2 2.3c-3.3 3.5-15.3 9-23.2 10.7-3.8.8-11.9 1.5-18 1.5-22.6.1-34.5 5.2-42.4 18.4-3.8 6.3-3.6 8.5.4 3.8 1.4-1.7 5.2-4.4 8.3-5.9l5.7-2.8 23.3.3c26.4.3 30.6-.3 43.2-6.5 10.4-5.1 20.2-15 25.8-26.2 2.3-4.6 4.1-8.6 3.9-8.8-.2-.2-2 .4-4 1.2-4.5 1.9-9.6 1.9-26.2 0-14.3-1.6-19.6-1.7-29.8-.4z"></path><path fill="url(#fnd335abef8dma)" d="M46.9 137c-5.6-3-8.2-7.3-8.6-14.5-.5-7.1 1.9-13 6.4-15.9 3.4-2.3 3-2.7 13.4 14.8l8.3 13.9-2.3 1.9c-3.1 2.5-12.2 2.4-17.2-.2z" transform="matrix(1 0 0 -1 .9 185)"></path><path fill="url(#fnd335abef8dmb)" d="M78.3 135.4c-4.7-2.4-8.4-7.6-8.9-12.8-.5-4-.8-4.5-3.7-5-4.3-.8-9.5-6.3-10.3-10.9-.5-3.4-.4-3.6 3.1-4.5 4.3-1.2 9.2-.1 13 2.9l2.5 2 3.1-2.3c2.4-1.7 4.5-2.3 8.9-2.3 10.6 0 17.1 6.7 17.1 17.8 0 5.9-2.3 10.4-7.2 14-3.8 2.8-13.1 3.4-17.6 1.1zm-7.8-23.1c1-2.4-3.3-6.2-7.7-7-3.1-.5-3.7-.3-3.7 1.1 0 2.6 5.5 7.6 8.3 7.6 1.4 0 2.8-.7 3.1-1.7z" transform="matrix(1 0 0 -1 .9 185)"></path><path fill="#DC0000" d="M485 60.6c-.6 1.4-1 7.2-1 12.9v10.3l-2.8.7c-4 .8-9.2 4.2-9.2 5.9 0 2.9 3 4.6 8.1 4.6h4.9v11.2c.1 15 1.6 34.2 3 36.7.8 1.6 2 2.1 5.1 2.1 6.6 0 7.3-2.8 7.6-30l.3-22.5 3.5-.7c6.1-1.3 9.7-3.7 9.3-6.1-.3-2.4-3.1-3.4-9.4-3.6l-4.2-.1-.7-8.8c-.7-9.1-1.3-10.7-5.5-13.5-3.8-2.6-7.8-2.2-9 .9z"></path><path fill="#3D5E1B" d="M174.4 61c-8 1.8-14.4 8.9-18.5 20.5-4.3 12.3-4.8 44.3-.9 57.6 1.2 4.3 4.8 6.2 10.6 5.7l3.9-.3-.1-5.5c-.1-3-.5-11.5-.9-18.8-.8-12.7-.7-13.2 1.2-13.2 5 0 16.4-10.1 21.9-19.6 2.4-4.1 2.9-6 2.9-11.6 0-6-.3-7-2.9-9.7-4-4.2-11.5-6.4-17.2-5.1zm11.2 13.2c-.3 1.9-1.8 4.7-3.4 6.4-3.2 3.5-12.1 9.8-12.9 9.1-.3-.3.2-3.1 1.1-6.2 2.5-8.3 11.4-16.3 15-13.4.5.4.6 2.3.2 4.1z"></path><path fill="#DC0000" d="M376 64.9c-5.4 1.7-9.2 4.3-12 8.2-3.5 4.8-4.7 8.4-6.3 18.1-1.3 7.8-1.3 7.7-8.9 9.3-5.3 1-2.2 5.5 4.9 7 3.1.6 3.1.7 3.8 8.3.9 9.8 3.3 21.9 5.1 25.3 2.6 5.2 13 10 14.8 7 .4-.6-.4-5.7-1.8-11.3-2.5-9.9-5-27.7-4.1-28.6.2-.3 4.4-1.1 9.2-1.9 10.2-1.6 11.8-2.6 8.4-5.4-1.8-1.5-2-1.9-.7-1.9.9 0 2.7 1 4 2.3 2.2 2.2 2.4 3.2 2.8 19.4.4 14.6.7 17.4 2.4 20.4 1.8 3 2.5 3.4 6.3 3.4 6.6 0 8.2-2.8 9.2-15.9 1-14.8 4-20.8 11.5-23 2-.6 2.2-.2 2.7 9.1.6 11.1 1.7 15.5 5 20.4 3.6 5.3 8.2 7.9 14.1 7.9 6.1 0 9.7-2.1 13.6-8l2.7-4.1.8 2.8c1 4.2 5.3 9.3 9.2 11 1.9.8 5.6 1.3 8.1 1.1 5.9-.4 6.3-2.6 1.2-6-5.1-3.5-6.3-8.8-5.6-26.1l.6-13.8-2.7-2.5c-3-2.8-5.8-3.7-9.9-3.2-2.7.3-2.9.6-3.6 6.3-2.4 19-3.6 23.4-8.1 28.2-5.8 6.4-8.9.3-9.3-18.2-.3-15.8-.3-15.8-11.4-14.9-9.4.7-12.8 1.8-17.8 5.4l-3.9 2.8-3.1-4.3c-1.7-2.4-4.3-5.2-5.8-6.2-5.6-3.6-16.4-1.1-16.4 3.7 0 1.6-.5 1.9-2.2 1.6-1.3-.3-4.4-.8-7-1.1-4.7-.6-4.8-.7-4.8-4 0-6.6 2.2-13.8 5-16.7 3.3-3.3 6.6-3.5 15-1.3 7.7 2.1 15.9 2 16.7-.2 2.1-5.6-22.1-13.6-31.7-10.4z"></path><path fill="url(#fnd335abef8dmc)" d="M26 115c-4.3-2.2-8.5-5-9.6-6.3-1.7-2.2-2.1-2.3-3.8-1.1-2.3 1.7-4.5 1.8-4.5.3 0-.6 1.4-2.7 3.1-4.7 1.8-2 2.8-3.7 2.3-3.8-.5-.1-2.6-.5-4.8-.9-2.1-.3-4.9-1.7-6.2-3-5.4-5.4-1.6-19 7.2-26.4 5.2-4.2 8.6-4.8 14.3-2.3 2.5 1.1 5.8 2.3 7.3 2.6 5.4 1.2 7.8 6.4 7.8 17.5 0 5.6.2 6.2 1.5 5.1 1.3-1.1 1.9-.9 3.8.7 2.1 1.9 2.2 1.9 4 .1C50 91.1 50 91 47.6 91c-5.9 0-9-8.5-4.8-13.2 1.9-2.2 5.6-3 8.5-1.9 2.2.8 2.3.7 2-2.9l-.4-3.7-2.3 2.3c-6.5 6.5-16.3-1.3-12.1-9.5 1.9-3.5 5.7-4.9 9.6-3.4 2.5.9 2.6.8 2.2-1.8-.3-1.8.3-3.4 1.8-4.9 2-2 2.1-2.4.6-3.2-1.9-1.1-2.1-5.9-.4-7.6 1.5-1.5 5.1-1.5 6.6 0 1.8 1.8 1.5 6.6-.5 7.6-1.4.8-1.4 1 .6 1.7 1.3.4 2.8 2 3.5 3.7 1.2 2.7 1.4 2.8 1.9.9.3-1.1 1.7-2.5 3.1-3.1 5-1.9 10.3 2.4 9.4 7.4-.4 2.1-.2 2.2 4.2 1.8 4.2-.4 4.9-.1 6.8 2.3 1.2 1.5 2.2 3.8 2.2 5.1 0 3.1-3.9 7.4-7 7.6-2.3.2-2.5.6-2.2 3.8.5 4.8-1.9 7.3-6.3 6.8-2.7-.3-3.1-.1-2.7 1.5.3 1.3.7 1.5 1.2.6 1.4-2.1 3.8-.1 5.1 4 1.5 4.9.2 10.4-2.5 10.9-1.5.3-1.7-.2-1.1-4 .3-2.3.2-5.4-.3-6.8l-1-2.5-1 2.6c-2.1 5.3-7.7 7.3-12 4.3-2.1-1.4-2.2-1.4-2.2.5 0 4.6-7.7 7.1-10.2 3.2-1.1-1.7-1.2-1.7-3.4.8s-2.2 2.6-4.3.7c-1.2-1.1-2.1-2.6-2.1-3.5 0-1.1-.3-1.2-1.1-.4-.9.9-.9 2 0 4.4 2 5.8.6 16-2.2 15.9-.7-.1-4.6-1.9-8.8-4zm8.1-4.9c0-6.3-.6-7.1-4.6-5.9-2.9.8-4.3.6-7.5-1.1-3.7-1.9-3.9-2-3.9-.3 0 1 .6 2.5 1.3 3.4 1.1 1.5 12.2 7.6 14 7.8.4 0 .7-1.8.7-3.9zm25.6-25.6c1.1-.9 3.4-1.4 5.7-1.2 3.3.2 3.7 0 3.7-2 0-2.4-1.4-3.1-2.6-1.2-.4.7-2.5.9-5.5.7l-4.9-.5v3.3c0 2-.8 4.2-1.9 5.3-1.9 1.9-1.8 1.9.3 2.9 1.9.8 2.2.6 2.7-2.5.3-1.8 1.5-4 2.5-4.8zm14.7-14.6c-.4-2.5-.1-4.5.8-5.6 1.3-1.5 1.2-1.5-.8-.5-1.2.7-3.1 1.2-4.3 1.2-2 0-2 .1-.4 2.5.9 1.4 1.4 3.7 1.2 5.4-.4 2.7-.3 2.8 1.8 1.9 1.9-.9 2.1-1.6 1.7-4.9zm-16.7-6.5c-.1-.1-1.3-.4-2.7-.7-2.3-.6-2.5-.4-2.1 2.2l.4 2.8 2.2-2.1c1.2-1.1 2.2-2.1 2.2-2.2zm6.9-1.8c-1.5-2.3-1.7-2.4-3.3-.8-1.6 1.6-1.6 1.7 1.3 2.3 1.6.4 3.1.7 3.3.8.1 0-.5-1-1.3-2.3z" transform="matrix(1 0 0 -1 .9 185)"></path><path fill="#3F611C" d="M327 68.3c-3.5 1.8-4.8 6.1-2.9 9.5 1.3 2.4 2.1 2.7 6.8 2.7 4.7 0 5.7-.4 7.4-2.7 2.2-3 1.8-6.7-1-8.4-3.2-2-7.7-2.5-10.3-1.1z"></path><path fill="url(#fnd335abef8dmd)" d="M104.9 113.9c-1-.5-1.8-1.3-1.8-1.8 0-.4 2.2-3 4.9-5.8 10-10.3 13.4-24.7 9.7-40.6-.9-3.8-1.6-7-1.6-7.3 0-.2 1.4-.4 3-.4 1.7 0 3 .4 3 .9s1.6 1.8 3.5 3c5.4 3.2 7.5 8.6 7.5 19.7 0 17.5-6.9 29.5-18.2 31.5-2.4.4-5.2 1-6.3 1.3-1.1.3-2.8.1-3.7-.5z" transform="matrix(1 0 0 -1 .9 185)"></path><path fill="url(#fnd335abef8dme)" d="M92.2 100.2c-4.9-2.4-7.4-6.2-7.4-11.2 0-13 19.5-17.9 26.4-6.6 7 11.5-6.6 24.2-19 17.8zm7.9-7.3c0-.5-.4-.9-1-.9-.5 0-1 .7-1 1.6 0 .8.5 1.2 1 .9.6-.3 1-1 1-1.6zm-5-.9c0-.5-.2-1-.4-1-.3 0-.8.5-1.1 1-.3.6-.1 1 .4 1 .6 0 1.1-.4 1.1-1zm10 0c0-.5-.5-1-1.1-1-.5 0-.7.5-.4 1 .3.6.8 1 1.1 1 .2 0 .4-.4.4-1zm-10.3-3.6c-.3-.3-1.2-.4-1.9-.1-.8.3-.5.6.6.6 1.1.1 1.7-.2 1.3-.5zm10.8-1.4c.3-.5.2-1-.4-1-.5 0-1.3.5-1.6 1-.3.6-.2 1 .4 1 .5 0 1.3-.4 1.6-1zm-8.5-1.4c0-.3-.4-.8-1-1.1-.5-.3-1-.1-1 .4 0 .6.5 1.1 1 1.1.6 0 1-.2 1-.4zm4-.6c0-.5-.4-1-1-1-.5 0-1 .5-1 1 0 .6.5 1 1 1 .6 0 1-.4 1-1z" transform="matrix(1 0 0 -1 .9 185)"></path><path fill="#DC0000" d="M573.3 86.9c-5.4 2.5-7.4 5.7-8 12.9-.8 8.1 1.5 12 13.7 23.4 5.5 5.1 10 10.1 10 11 0 4.8-10.3 6.4-16.1 2.5-3.3-2.3-3.4-2.5-3.1-8.5.3-6.1.3-6.2-2.2-6.2-3.3 0-9.3 5.3-10.1 9-.8 3.5-1.7 3.7-4.3.9-2.5-2.6-3.2-6.2-3.2-16.5 0-7.7-.2-8.5-2.3-9.9-1.8-1.1-3.4-1.3-6.3-.7-3.4.7-3.9 1.2-4.7 4.7-.4 2.2-.6 5.3-.3 6.8.7 3.6-1.7 9.3-5.6 13.4-5.6 5.8-7.8 3.6-7.8-7.9 0-9.8 2.6-15.1 9.5-19.5 2.8-1.8 5.9-3.9 7-4.8l2-1.5-2-1.6c-4.3-3.4-18.4.8-24.8 7.4-11 11.3-10.9 32.2.1 39.7 6.2 4.3 15.4 2.7 20.5-3.4l2.2-2.7 2.7 4.2c3.4 5.4 8.5 7.3 14.3 5.4 3.3-1.1 3.8-1 5.1.8 2.4 3.5 10 5.7 19.4 5.7 9.5-.1 14.6-1.5 19-5.2 2.5-2.1 3-3.2 3-6.9 0-5.9-1.7-8.9-10-18.1-8.5-9.3-11.5-14.9-10.5-20 .9-5 2.5-7.2 6.8-9.4 4.2-2.2 4.5-2.9 1.9-5.2-2.5-2.3-10.6-2.2-15.9.2z"></path><path fill="#3D5E1B" d="M221 91.5c-.7.9-1.5 5.6-1.8 11l-.5 9.5-2.2-4.8c-2.7-5.9-8.9-11.6-11.9-10.9-1.1.2-4.1.9-6.6 1.6-2.5.6-6.2 1.3-8.2 1.6-14.4 2.2-19.4 26.7-8 38.9 8.1 8.6 21.1 8.7 29.6.2 4.4-4.3 7.5-11.2 7.7-17 .1-1.7.5 0 1 3.9 1.1 8.6 3.5 15.2 5.9 16.5 1 .6 3.6 1 5.8 1 5.8 0 7.2-2.1 7.2-11.1s1.6-19.2 3.5-23c2.1-3.9 8.4-9.9 10.6-9.9 2.6 0 3 1 4.4 13.6 1.8 15.2 3.8 21.6 8.2 26.4 2.9 3.3 4.2 4 7.3 4 3.2 0 4.4-.6 6.9-3.6 1.6-2 4.4-7.1 6.2-11.3 1.8-4.2 3.8-8.4 4.5-9.4 1.1-1.7 1.3-1.5 2.4 2 4 12.3 10.8 22.6 17.1 25.9 1.6.8 4.4 1.4 6.4 1.4 3.8 0 9.5-2.4 9.5-4 0-.5 1.7-.2 3.7.7 5.1 2.1 12.5 1.1 17.3-2.2 3.7-2.6 9-10.8 9-13.9 0-2.5-3.7-1.9-5.5.8-4.2 6.3-10.2 7-13.1 1.4-2.2-4.3-3-19-1.5-26.8 1.7-8.7-.6-10.8-8.8-7.9-7.9 2.8-11.6 24.6-6.6 39.2 1.4 4 .7 5.2-2.4 4.2-2.6-.8-3.9-4.4-5.5-15.4-1.1-6.8-2.4-11.3-4.8-15.9-7.6-14.7-17.5-13.1-25.7 4.1l-3.8 8-1.7-8.8c-2.1-11.4-4.8-16.3-10.6-19.3-3.5-1.8-5.7-2.3-10.1-2-6.8.5-10.5 2.9-16.4 10.9l-4.3 5.8-.7-3.6c-1.3-7.1-4.7-11.5-9.6-12.7-1.8-.4-3.1-.1-3.9.9zm-17.2 21.1c2.5 7.4-2.6 24.5-7.5 25.2-3.3.5-4.8-5.3-4.8-18.1 0-10.2.1-11 2.4-12.8 2.3-1.9 2.4-1.9 5.5-.1 2 1.2 3.6 3.2 4.4 5.8z"></path><path fill="url(#fnd335abef8dmf)" d="M105.7 74.1c-.3-.5-1.5-.7-2.6-.4-1.4.4-2 0-2-1.1 0-.9-.8-1.6-1.9-1.6-1 0-2.9-.9-4.2-1.9-2.1-1.6-2.4-2.7-2.2-7.9.3-13.7 6.3-16.8 15.8-8.1 4.9 4.5 6 7.5 4.3 11.6-.6 1.5-1 3.4-.9 4.1.2 1.3-3.8 6.1-5.1 6.2-.4 0-.9-.4-1.2-.9z" transform="matrix(1 0 0 -1 .9 185)"></path><path fill="url(#fnd335abef8dmg)" d="M28.1 66.3c-4.1-1.5-5.4-7.8-2.2-10.6 2.7-2.5 7.8-2.2 9.6.5 2.2 3.2 2 5.5-.9 8.3-2.4 2.5-3.6 2.8-6.5 1.8z" transform="matrix(1 0 0 -1 .9 185)"></path><path fill="#E1150B" d="M133.4 119c-2.7 1-4.4 5.7-3.3 8.8 1.9 5 8.2.5 7.7-5.5-.3-4-1.2-4.6-4.4-3.3z"></path><path fill="url(#fnd335abef8dmh)" d="M11.9 57.6c-.9-2.2-.8-2.9.7-4.6 3.5-3.8 7.9-1.6 7.3 3.7-.2 2.3-.8 2.9-3.5 3.1-2.7.3-3.5-.1-4.5-2.2z" transform="matrix(1 0 0 -1 .9 185)"></path><path fill="url(#fnd335abef8dmi)" d="M37.3 55c-3.3-3.1-3-9.2.4-11.9 1.5-1.2 3.7-2.1 4.9-2.1 1.2 0 3.4.9 4.9 2.1 3.3 2.6 3.7 8.8.6 11.9-2.6 2.6-8 2.6-10.8 0z" transform="matrix(1 0 0 -1 .9 185)"></path><path fill="url(#fnd335abef8dmj)" d="M80.3 54.7c-3-3.2-2.8-7.1.4-9.6 3.3-2.6 5.5-2.6 8.5-.3 3.1 2.6 3.1 7.8 0 10.4-3.1 2.4-6.3 2.3-8.9-.5z" transform="matrix(1 0 0 -1 .9 185)"></path><path fill="url(#fnd335abef8dmk)" d="M122.6 52.4c-1.6-.9-4.7-1.6-6.8-1.5-2.6.1-5.3-.7-8.1-2.3-2.3-1.3-6.7-2.9-9.9-3.5-6-1.1-11-3.9-12.7-7.1-2.6-4.9.4-13.9 5.4-16.1 1.3-.6 2.9-2.2 3.5-3.5 1.3-3 6.8-6.4 10.1-6.4 6.3 0 11 5.5 12.5 14.7.4 2.3 2 6.2 3.6 8.5 1.6 2.4 2.9 5.4 3 6.8.1 1.7.3 1.9.6.8.6-2.5 5.1-3.4 7-1.5 2.1 2.1 1 6.4-1.9 7.3-1.6.5-2.7.1-3.9-1.5-1.2-1.5-2-1.8-2.5-1-1 1.8 2.5 3.9 6.4 3.9 2.6 0 3.3.4 3 1.8-.4 2.3-5.5 2.7-9.3.6z" transform="matrix(1 0 0 -1 .9 185)"></path><path fill="url(#fnd335abef8dml)" d="M21 51.1C15.9 47 19.3 38 26 38c6.5 0 9.5 8.9 4.5 12.9-3.3 2.6-6.5 2.7-9.5.2z" transform="matrix(1 0 0 -1 .9 185)"></path><path fill="url(#fnd335abef8dmm)" d="M5.5 48.8c-1.1-2.2-1.5-4.7-1.1-8.2.4-4.1 1-5.5 4.1-8.3 2.3-2.1 3.6-4.2 3.6-5.8 0-1.8.5-2.5 1.9-2.5 1.5 0 2 1 2.4 5.3.4 2.8.9 6.7 1.3 8.5.9 4.4-2.1 10.9-5.7 12.8-3.9 2-4.6 1.8-6.5-1.8z" transform="matrix(1 0 0 -1 .9 185)"></path><path fill="url(#fnd335abef8dmn)" d="M64.5 47.3c-.9-2-1.4-4.7-1.1-6 .3-1.8 0-2.3-1.7-2.3-3.1 0-8.6-3.7-8.6-5.8 0-3 5.3-7.3 9.8-7.9l3.9-.5-.9-4c-.5-2.4-2-4.9-3.8-6.5C56 9.3 59.4 0 67.2 0c4.4 0 7.6 2.2 8.4 5.9.8 3.6-1.6 8.7-4.5 9.6-1.1.4-2 1.5-2 2.6 0 2.8 2.4 8.1 4.3 9.8 1.5 1.2 1.7 1 1.7-1.3 0-1.5.8-4.1 1.7-5.9 1.1-2 1.6-4.9 1.4-7.8-.2-4 .1-4.9 2.5-6.8 5.9-4.7 13.9-.9 13.7 6.6-.2 5.1-3.1 7.7-8.7 7.8-2.4 0-4.2.4-3.9.8.3.4-.1 3.1-.8 5.9-.9 3.9-.9 5.3 0 5.6 1.9.6 1.2 3.9-.9 4.5-1.1.3-2 1.3-2 2.4 0 3.2-3.9 8.4-7.5 9.9-4.6 1.9-4.4 1.9-6.1-2.3zm.9-13c-.7-.2-2.1-.2-3 0-1 .3-.4.5 1.2.5 1.7 0 2.4-.2 1.8-.5zm2.6-4.9c1-.9-6.6-.3-7.9.6-1 .7-.1.8 3 .4 2.5-.4 4.7-.8 4.9-1zm12.1-1.6c0-.7.3-2.4.6-3.8.5-1.7.4-2.2-.4-1.5C78.7 24 77.7 29 79 29c.6 0 1.1-.6 1.1-1.2z" transform="matrix(1 0 0 -1 .9 185)"></path><path fill="url(#fnd335abef8dmo)" d="M21.5 34.5c-1.2-4.9.1-14 2.5-17.3 3.9-5.6 8.7-8.5 14.6-9 8.3-.7 12.2.5 17 4.9 4.2 3.9 7.2 9.4 5.6 10.3C60 24.2 23.8 37 22.9 37c-.4 0-1-1.1-1.4-2.5z" transform="matrix(1 0 0 -1 .9 185)"></path></g></svg>