<svg xmlns="http://www.w3.org/2000/svg" xmlns:xlink="http://www.w3.org/1999/xlink" viewBox="338.79998779296875 342 365.4000244140625 84.10000610351562"><defs><path id="fn764eaf37adma" d="M338.8 384c0 23.2 18.9 42 42.2 42 23.2 0 42-18.6 42.1-41.7v-.6c-.2-23.1-19-41.7-42.1-41.7-23.3 0-42.2 18.8-42.2 42"></path></defs><clipPath id="fn764eaf37admc"><use overflow="visible" xlink:href="#fn764eaf37adma"></use></clipPath><radialGradient id="fn764eaf37admb" cx="-1.706" cy="768" r="1" gradientTransform="matrix(65.0444 0 0 -65.0444 475.498 50316.777)" gradientUnits="userSpaceOnUse"><stop offset="0" stop-color="#65c6f2"></stop><stop offset=".105" stop-color="#419ed2"></stop><stop offset=".209" stop-color="#287db6"></stop><stop offset=".307" stop-color="#1964a2"></stop><stop offset=".398" stop-color="#125494"></stop><stop offset=".478" stop-color="#0d4a8c"></stop><stop offset=".539" stop-color="#0b4789"></stop><stop offset=".824" stop-color="#10559d"></stop><stop offset=".988" stop-color="#1e71b7"></stop><stop offset="1" stop-color="#1e71b7"></stop></radialGradient><path fill="url(#fn764eaf37admb)" d="M338.8 342h84.3v84.1h-84.3z" clip-path="url(#fn764eaf37admc)"></path><path fill="#fff" d="M402.8 403.2s-9.7-.5-21.8-.5c-12.1 0-21.8.5-21.8.5s9.8.5 21.8.5c12.1-.1 21.8-.5 21.8-.5m-40.7 3.7s8.5.5 18.9.5c10.4 0 18.9-.5 18.9-.5s-8.5-.5-18.9-.5c-10.4 0-18.9.5-18.9.5m42-8.1h.8v.7h-.8zm0-1.8h.8v.5h-.8zm0 .9h.8v.6h-.8zm0-1.5h.8v.4h-.8zm0-.4h.8v.2h-.8zm-1.6 2.8h.8v.7h-.8zm0-1.8h.8v.5h-.8zm0 .9h.8v.6h-.8zm0-1.5h.8v.4h-.8zm0-.4h.8v.2h-.8zm1 0h.4v.6h-.4zm0 .7h.4v.6h-.4zm0 .7h.4v.6h-.4zm0 .8h.4v.6h-.4zm0 .7h.4v.6h-.4zm-1.5-2.6h-2.6v3.2h-.3V396h3.2v3.5h-.3zm3.1-.3h.6v3.6h-.6zm-6.5.3v3.2h.3V396h-45l.2.3h44.5z"></path><path fill="#fff" d="M385.9 397.8h10.8v.8h-10.8zm10.3 1h.5v.7h-.5zm-.6 0h.5v.7h-.5zm-.7 0h.5v.7h-.5zm-.7 0h.5v.7h-.5zm-.7 0h.5v.7h-.5zm-.7 0h.5v.7h-.5zm-.7 0h.5v.7h-.5zm-.7 0h.5v.7h-.5zm-.7 0h.5v.7h-.5zm-.7 0h.5v.7h-.5zm-.7 0h.5v.7h-.5zm-.7 0h.5v.7h-.5zm-.6 0h.5v.7h-.5zm-.7 0h.5v.7h-.5zm-.7 0h.5v.7h-.5zm-.7 0h.5v.7h-.5zm0-1.1h10.9l1.6-1.3h-12.5zm-.3-1.3h.2v3.1h-.2zm-20 0h.2v3.1h-.2zm-10.7 1.4l.5.8h10v-.8zm10 1h.5v.7h-.5zm-.7 0h.5v.7h-.5zm-.7 0h.5v.7h-.5zm-.7 0h.5v.7h-.5zm-.7 0h.5v.7h-.5zm-.7 0h.5v.7h-.5zm-.7 0h.5v.7h-.5zm-.7 0h.5v.7h-.5zm-.6 0h.5v.7h-.5zm-.7 0h.5v.7h-.5zm-.7 0h.5v.7h-.5zm-2.6 0l.5.7h1.9v-.7zm-.7-1.1h10.7v-1.3h-11.2zm30.5 1.2h-.5v-.7h.5v.7zm-.9 0h-.5v-.7h.5v.7zm-.8 0h-.5v-.7h.5v.7zm-.8 0h-.5v-.7h.5v.7zm-.9 0h-.5v-.7h.5v.7zm-.8 0h-.5v-.7h.5v.7zm-.8 0h-.5v-.7h.5v.7zm-.9 0h-.5v-.7h.5v.7zm-.8 0h-.5v-.7h.5v.7zm-.9 0h-.5v-.7h.5v.7zm-.8 0h-.5v-.7h.5v.7zm-.8 0h-.5v-.7h.5v.7zm-.9 0h-.5v-.7h.5v.7zm-.8 0h-.5v-.7h.5v.7zm-.9 0h-.5v-.7h.5v.7zm-.8 0h-.5v-.7h.5v.7zm-.8 0h-.5v-.7h.5v.7zm-.9 0h-.5v-.7h.5v.7zm-.8 0h-.5v-.7h.5v.7zm-.9 0h-.5v-.7h.5v.7zm-.8 0h-.5v-.7h.5v.7zm-.8 0h-.5v-.7h.5v.7zm-.9 0h-.5v-.7h.5v.7zm18.3-1v-1.4h-.4v1.4h-.6v-1.4h-.4v1.4h-.5v-1.4h-.5v1.4h-.5v-1.4h-.4v1.4h-.5v-1.4h-.4v1.4h-.5v-1.4h-.3v1.4h-.5v-1.4h-.4v1.4h-.5v-1.4h-.5v1.4h-.5v-1.4h-.4v1.4h-.5v-1.4h-.4v1.4h-.5v-1.4h-.4v1.4h-.4v-1.4h-.4v1.4h-.5v-1.4h-.4v1.4h-.5v-1.4h-.5v1.4h-.5v-1.4h-.4v1.4h-.5v-1.4h-.4v1.4h-.5v-1.4h-.4v1.4h-.5v-1.4h-.5v1.4h-.5v-1.4h-.4v1.4h-.5v-1.4h-.4v1.4h-.5v-1.4h-.4v1.4h-.3v1.6h19.4v-1.6h-.4zm-29.2-24.1v14.5c0 3.3 1.1 5.6 2.1 7h6.7c-1.3-1.4-3-4.1-3-8.4V370c0-3.3-1-5.6-2.1-7.1-1.7 1.9-3.3 4-4.5 6.2.5 1.4.8 2.9.8 4.7"></path><path fill="#fff" d="M353.7 395.3h3.2c-1-1.6-2-3.9-2-7v-14.4c0-1.5-.2-2.7-.5-3.8-2 4-3.2 8.6-3.2 13.3 0 4.2.8 8.2 2.5 11.9m15.4-9.4V368c0-5.9-2.7-9.1-3.5-9.8-1.9 1.2-3.7 2.6-5.3 4.3 1.1 1.5 2.3 4 2.3 7.5v16.8c0 4.5 1.9 7.1 3.1 8.4h7.8c-.1 0-.2-.1-.2-.1-.1 0-4.2-2.7-4.2-9.2m37.1-12.1v14.5c0 3.3-1 5.6-2.1 7h-6.7c1.2-1.4 3-4.1 3-8.4V370c0-3.3 1-5.6 2.1-7.1 1.8 1.9 3.3 4 4.5 6.2-.5 1.4-.8 2.9-.8 4.7"></path><path fill="#fff" d="M408.4 395.3h-3.2c1.1-1.6 2-3.9 2-7v-14.4c0-1.5.2-2.7.5-3.8 2 4 3.2 8.6 3.2 13.3 0 4.2-.9 8.2-2.5 11.9m-15.5-9.4V368c0-5.9 2.7-9.1 3.5-9.8 1.9 1.2 3.7 2.6 5.3 4.3-1.1 1.5-2.3 4-2.3 7.5v16.8c0 4.5-1.9 7.1-3.1 8.4h-7.8c.1 0 .3-.1.3-.1s4.1-2.7 4.1-9.2m15.3 10.1l-1.3 3.5h-1V396"></path><path fill="#2a2522" d="M577.6 381.4h5.4c5.4-.1 11.7-2.4 11.7-8.9.1-5.3-4.1-5.8-9.4-5.8H581l-3.4 14.7zm-4.5 20h5.3c7.2 0 13.1-3 13.2-9.6.1-4.7-3.2-6.8-7.5-6.8H577l-3.9 16.4zm4.6-38.4h7.6c6.7 0 13.7 1.1 13.6 9.3-.1 6-4.9 10.2-10.4 10.8v.1c4.8.7 7.2 3.7 7.2 8.6-.1 8.1-7.3 13.3-17 13.3h-10.6l9.6-42.1zm29.2 16.8c.4-1.8.7-3.5.9-5.5h3.8c-.2 1.9-.4 3.6-.7 4.6h.1c2-3 4.6-5.4 8.6-5.4 1.3 0 2.3.3 3.3.4l-1 4c-1-.4-2.1-.5-3.2-.5-6.2 0-8.8 6.8-10 12.3l-3.3 15.1h-4l5.5-25zm23.9 22.7c7.1 0 10.4-6.4 11.4-12.8-1.3 0-2.4-.1-3.7-.1-5.1 0-13.4.8-13.5 7.5-.1 3.5 2.7 5.4 5.8 5.4m13.7-4.8c-.6 2.3-1.1 5.2-1.2 7.3h-3.8c.2-1.6.3-3.2.7-4.5h-.2c-2.7 3.8-6 5.2-10.6 5.2-4.8 0-8.7-3.5-8.7-8.6.1-9 10.3-10.9 17.8-10.9 1.6 0 3 .1 4.2.2.1-.9.2-1.8.2-3.1 0-4.2-2.3-6.7-6.5-6.7-3.5 0-7.1 1.6-9.1 2.7l.5-3.9c2.2-.9 5.7-2.1 9.3-2.1 6.6 0 10.1 3.6 10 10 0 1.2-.3 3.4-.9 5.8l-1.7 8.6zm5.7 2.6c2.2 1.3 4.7 2.2 7.3 2.2 3.7 0 8.7-1.4 8.8-6.2.1-6.7-12-6.4-11.9-14.2.1-6.1 6.6-8.6 11.5-8.6 2.8 0 5.3.5 7.9 1.5l-1.3 3.6c-2-1.1-4.5-1.8-6.8-1.8-3 0-7.2.9-7.3 5.2 0 5.3 12.2 5.9 12.1 14.1-.1 7-6.5 9.6-12.5 9.6-3.2 0-6-.5-8.9-1.7l1.1-3.7zm38.6-34.2h-4.5l1.2-5.1h4.5l-1.2 5.1zm-6 8.2h4l-6.9 30.7h-4l6.9-30.7zm17.4-14.5h4L693.9 405H690zm-160.7 22.7l-1.9 7.7h8.3c-1.9 3.7-5.2 4.8-8.9 4.8-3.4 0-10.7-2-10.7-10.2 0-14.2 17.2-14.7 25.8-14.7h2.7l1.8-7c-3.2-.6-7-.9-10.7-.9-15.7 0-33.2 7.2-33.2 25.3 0 12.2 11.6 18.4 21.5 18.4 4.8 0 7.8-.7 10.8-.8 2.3 0 3.5.5 4.7 1.9h.2l6.7-24.3h-17.1zM519.2 363H484l-1.9 7.1h10.5l-8.8 34.9h13.7l8.8-34.9h9.5l3.4-7.1zm-82.8 24.4c0 11.9 10.9 18.4 24 18.4 3.5 0 6.9-.4 10.4-1l3-11.6c-3.9.9-6.6 1.4-10.7 1.4-3.9 0-13.1-1.4-13.1-9.9 0-5.4 2.5-8.9 6.1-11.1 5.8-3.5 14.4-3.7 19.7-3.7h1.7l1.8-7.1c-2.9-.5-6.4-.8-9.7-.8-15.7.1-33.2 7.3-33.2 25.4"></path><path fill="#fff" d="M394.6 410.8s-6.1-.5-13.7-.5-13.7.5-13.7.5 6.1.4 13.7.4c7.6.1 13.7-.4 13.7-.4"></path></svg>