<svg xmlns="http://www.w3.org/2000/svg" viewBox="95 79 409.9999694824219 92"><g fill="none"><path fill="#951234" d="M201 171H95l53.605-92 8.543 17.196-35.31 62.48 52.395.072-12.244-23.359-8.472 12.253h-15.875l24.347-41.63z"></path><path fill="#000" d="M248.697 129.72l26.303.142v34.81s-5.132 3.242-10.835 4.017c-5.702.775-9.765 1.62-20.315 1.198-10.55-.423-16.893-.493-25.233-7.61C209.42 154.384 206 143.603 206 135.358c0-10.852 1.212-18.11 6.13-26.566 5.703-9.865 17.892-15.573 26.873-16.912 10.193-1.55 18.32-.775 24.806.211 5.916.916 10.55 3.594 10.55 3.594v12.966l-3.493-1.339s-13.187-3.946-21.313-3.876c-10.55.07-18.89 3.876-22.953 9.866-4.063 5.99-5.132 11.063-5.132 16.7 0 5.638 1.64 14.799 6.914 19.59 5.275 4.792 13.045 7.33 20.743 7.33 7.698 0 10.977-2.044 10.977-2.044v-14.305l-11.405.211v-11.063zm84.023-1.053s-.77-5.934-5.184-9.867c-4.414-3.934-7.636-4.693-12.4-5.383-6.725-.897-11.98-.069-11.98-.069s-6.374 1.518-8.406 2.278c-2.032.759-3.573 2.898-3.573 2.898l.21 8.211s7.776-3.588 14.922-3.795c10.018-.207 12.47 4.485 12.47 6.693 0 2.209-.07 4.072-.07 4.072s-10.018.414-14.361.759c-4.414.414-13.591 2-17.584 5.934-3.993 3.933-4.764 8.28-4.764 13.801 0 8.28 7.566 13.801 19.195 13.801 11.56 0 18.775-9.454 18.775-9.454V168l12.96-.069.07-22.91-.28-16.354zm-13.59 20.495s-6.026 9.867-14.362 9.867c-8.337 0-10.228-3.243-10.228-6.762 0-3.52 2.732-8.005 9.878-9.592 7.215-1.587 14.851-.552 14.711-.552v7.039zm185.59-20.495s-.77-5.934-5.184-9.867c-4.414-3.934-7.636-4.693-12.4-5.383-6.725-.897-11.98-.069-11.98-.069s-6.374 1.518-8.406 2.278c-2.032.759-3.573 2.898-3.573 2.898l.21 8.211s7.776-3.588 14.922-3.795c10.018-.207 12.47 4.485 12.47 6.693 0 2.209-.07 4.072-.07 4.072s-10.018.414-14.361.759c-4.414.414-13.591 2-17.584 5.934-3.993 3.933-4.764 8.28-4.764 13.801 0 8.28 7.566 13.801 19.195 13.801 11.56 0 18.775-9.454 18.775-9.454V168l12.96-.069.07-22.91-.28-16.354zm-13.59 20.426s-6.026 9.867-14.362 9.867c-8.407 0-10.228-3.243-10.228-6.762 0-3.52 2.732-8.005 9.878-9.592 7.215-1.587 14.851-.552 14.711-.552v7.039zm-128.098-31.038l11.52-.141v9.457l-11.52.07v42.488l-16.848.071.072-42.135-5.256.141v-10.022h5.976v-11.292s-1.224-5.152 3.672-9.599c4.896-4.446 8.928-3.952 8.928-3.952L376.928 93l.072 11.645-10.512-.423s-1.656 0-2.448 1.2-1.224 3.246-1.224 3.246l.216 9.387zM383 105h15v8h-15zm0 12h15v54h-15zm61.302 12.874s-5.773-4.46-11.907-4.46-10.32.425-10.68 5.239c-.361 4.813 4.907 6.441 8.226 7.29 3.32.85 10.175 1.7 14.361 5.31 0 0 5.412 3.255 4.618 11.608-1.01 10.051-5.123 11.963-8.804 13.945-3.68 2.052-10.536 2.194-16.742 2.194-6.206 0-11.907-1.203-13.206-1.628-1.227-.425-3.68-1.628-3.68-1.628l-.072-10.122s3.391 2.406 7.505 3.61c4.113 1.203 8.226 1.203 11.907.424 3.68-.778 7.216-2.052 6.855-6.087-.433-4.035-1.876-5.663-6.422-7.291-4.547-1.628-9.887-2.407-14-4.813-4.113-2.407-5.773-6.088-6.206-11.326-.433-5.238 1.732-9.556 5.412-11.963 3.68-2.406 8.804-4.176 15.01-4.176 6.206 0 9.598.779 12.918 1.628 3.32.779 4.907 2.407 4.907 2.407v9.839z"></path></g></svg>