<svg xmlns="http://www.w3.org/2000/svg" width="304.516" height="59.503" viewBox="0 0 304.516 59.503"><path d="M12.083 0l48.259.154a6.419 6.419 0 0 1 6.254 4.637 6.841 6.841 0 0 1 .23 2.535l-.023.241-.27-.165-.373-.214-.379-.2-.386-.194-.392-.185-.4-.174-.4-.165-.411-.154-.416-.144-.422-.133-.428-.122-.433-.111-.439-.1-.443-.089-.448-.078-.453-.066-.458-.054-.463-.042-.466-.031-.471-.018-.487-.007-.828.019-.836.057-.829.094-.823.131-.815.166-.806.2-.8.234-.786.268-.774.3-.761.331-.748.361-.733.392-.717.419-.7.448-.684.474-.665.5-.647.526-.627.551-.607.575-.585.6c-1.6 1.569-2.465 1.33-3.452 0l-.457-.6-.483-.574-.509-.551-.534-.526-.558-.5-.582-.474-.6-.448-.627-.419-.649-.391-.67-.362-.69-.331-.71-.3-.728-.268-.746-.234-.763-.2-.779-.166-.795-.131-.81-.094-.823-.057-.84-.019-.947.025-.945.073-.937.12-.928.167-.917.212-.9.255-.891.3-.876.339-.86.379-.842.418-.823.455-.8.492-.781.527-.758.56-.734.593-.709.624-.682.656-.655.684-.626.713-.6.74-.564.766-.531.79-.5.814-.461.837-.424.857-.386.877-.346.9-.305.913-.263.929-.219.943-.174.956-.127.952-.047.5-.034.483-.022.479-.009.476v.474l.014.47.026.466.038.462.049.459.06.455.071.45.083.445.093.441.1.436.115.431.125.426.136.421.146.415.156.41.166.4.176.4.185.392.2.386.2.38.214.373.223.366.232.36.24.352.25.346.258.338.267.332.321.378 11.71 11.334c1.175.683 2.088 1.071 3.938-.187l3.388-2.822a2.52 2.52 0 0 0 .147-3.593l-12-11.74-.13-.161-.128-.168-.123-.171-.119-.176-.115-.178-.11-.181-.106-.184-.1-.188-.1-.191-.091-.193-.086-.2-.082-.2-.077-.2-.071-.2-.067-.206-.061-.208-.056-.21-.051-.213-.046-.215-.04-.217-.035-.219-.03-.223-.023-.224-.018-.225-.013-.227-.007-.23v-.466l.011-.237.017-.239.019-.2.069-.525.086-.471.108-.462.128-.453.149-.445.169-.437.188-.428.207-.419.226-.409.244-.4.262-.389.278-.378.294-.366.311-.353.325-.34.338-.325.352-.31.365-.294.376-.278.387-.261.4-.242.406-.224.414-.205.421-.185.428-.166.435-.146.442-.124.447-.1.453-.081.459-.06.469-.032.482-.013.4.009.406.028.4.046a13.76 13.76 0 0 1 8.845 5.441c2.067 2.376 4.727 5.551 10.211.353a19.729 19.729 0 0 1 9.279-5.649l.4-.081.4-.064.407-.046.412-.028.45-.01h.2l.234.009.23.015.227.021.224.027.222.032.219.038.216.043.214.049.211.054.209.06.205.065.2.07.2.075.2.081.195.085.192.09.189.1.187.1.183.105.18.109.177.115.175.119.17.123.166.128.164.133.16.137.156.141.152.145.149.15.146.154.14.156.136.16.133.165.128.168.124.171.119.175.115.179.111.182.106.184.1.187.1.192.092.193.086.2.081.2.077.2.071.2.066.206.061.208.056.211.051.213.046.214.04.217.035.22.03.223.024.223.018.225.013.228.007.23v.465l-.011.237-.017.239-.023.241-.029.24-.035.239-.04.237-.046.234-.051.232-.057.23-.061.228-.067.225-.072.223-.077.222-.082.22-.087.217-.092.215-.1.213-.1.211-.106.208-.111.206-.115.2-.12.2-.124.2-.128.2-.133.193-.137.191-.142.188-.145.185-.149.181-.153.178-.157.175-.161.171-.164.168-.162.159-26.466 21.46c-2.613 1.888-1.148 4.4.3 4.438l6.142-.019c2.369.094 2.99-.929 5.135-2.569l16.765-13.3-1.124 11.976a8.022 8.022 0 0 1-7.827 7.13l-48.259-.154a6.447 6.447 0 0 1-6.485-7.177L4.253 7.128A8.022 8.022 0 0 1 12.083 0z" fill="#ec1c24" fill-rule="evenodd"/><g fill-rule="evenodd"><path d="M174.67 26.587a20.29 20.29 0 0 1 .073 4.941l-1.929 21.295a2.643 2.643 0 0 1-2.977 2.577 29.446 29.446 0 0 1-6.429-.54 10.677 10.677 0 0 1-1.485-.463c-.255-.1-.522-.226-.784-.3a2.72 2.72 0 0 0-1.267.028 35.537 35.537 0 0 0-4.082 1.159 16.773 16.773 0 0 1-5.156.769c-3.557 0-7.006-.853-9.625-3.392q-.305-.3-.586-.619c-4.235 1.932-11.631 4.613-15.458 1.443-2.241-1.856-2.414-5.038-2.192-7.724l.906-9.825c.145-1.574.215-3.824-.7-5.189a4.554 4.554 0 0 0-3.97-1.671 5.742 5.742 0 0 0-4.413 1.814 8.374 8.374 0 0 0-1.861 4.945l-1.57 17.845a1.851 1.851 0 0 1-1.932 1.677l-9.253-.012a1.69 1.69 0 0 1-1.868-1.863l1.547-17.579c.138-1.57.207-3.82-.7-5.18a4.566 4.566 0 0 0-3.974-1.676 5.737 5.737 0 0 0-4.412 1.815 8.366 8.366 0 0 0-1.861 4.944l-1.57 17.842a1.759 1.759 0 0 1-1.832 1.68h-.019l-9.46-.012a1.729 1.729 0 0 1-1.746-1.834v-.018l2.882-32.741v-.02a2.253 2.253 0 0 1 2.448-2.026h.028c4.448.116 7.058.922 10.464 3.9l.62.543.607-.56a17.1 17.1 0 0 1 5.251-3.31 16.327 16.327 0 0 1 6.045-1.148 13.231 13.231 0 0 1 5.769 1.176 9.752 9.752 0 0 1 3.912 3.5l.586.887.793-.709a18.888 18.888 0 0 1 12.692-4.829c3.147 0 6.572.628 8.792 3.056s2.557 5.9 2.27 9.033q-.663 7.25-1.323 14.5c-.007.071-.023.435.051.491.19.143.829.055 1.044.013a6.272 6.272 0 0 0 .964-.284 12.346 12.346 0 0 1 .313-2.625 13.769 13.769 0 0 1 .476-1.62 12.173 12.173 0 0 1 4.292-5.682 18.987 18.987 0 0 1 11.665-3.414 14.147 14.147 0 0 1 3.144.376h.014a14.158 14.158 0 0 1 4.327 1.885l.289-2.616a4.009 4.009 0 0 0-2.033-4.212c-1.826-.981-5.06-1.059-7.115-1.062-1.836 0-3.672.038-5.506.144q-1.053.06-2.106.134h-.015a1.958 1.958 0 0 1-2.057-2.475l.775-2.641a2.342 2.342 0 0 1 2.338-1.756c1.8-.132 3.59-.312 5.387-.412a89.38 89.38 0 0 1 5.6-.178c3.983.005 11.018.268 14.245 2.712a6.413 6.413 0 0 1 2.095 2.912l.357-4.083v-.011a1.718 1.718 0 0 1 1.862-1.764l5.235.006.864-9.538.006-.061.012-.06c.254-1.228.921-2.123 2.3-2.052l8.992.025a1.967 1.967 0 0 1 1.61.641 2.344 2.344 0 0 1 .395 1.71v.04l-.871 9.311 6.683.008h.028a1.754 1.754 0 0 1 1.455.587 1.829 1.829 0 0 1 .231 1.536l-.384 4.232a1.8 1.8 0 0 1-1.879 1.92h-.019l-6.862-.008-1.5 13.028c-.252 2.035-.076 4.878 1.868 6.081a4.409 4.409 0 0 0 3.913.082l1.864-.973a16.714 16.714 0 0 1-.842-7.311 18.159 18.159 0 0 1 2.44-7.669l.008-.013.268-.438a21.964 21.964 0 0 1 5.075-5.52 26.263 26.263 0 0 1 16.8-5.6 21.427 21.427 0 0 1 12.044 3.314 15.842 15.842 0 0 1 5.164 5.52l.533-5.879.061-.15a3.46 3.46 0 0 1 3.463-2.269h.012l7.257.009h.023a2.76 2.76 0 0 1 2.03.781 2.182 2.182 0 0 1 .436 1.9l-1.509 16.656c-.142 1.573-.192 3.768.73 5.13a4.506 4.506 0 0 0 3.944 1.7 6.075 6.075 0 0 0 4.574-1.73 8.323 8.323 0 0 0 1.9-5l1.524-16.821v-.018a2.681 2.681 0 0 1 2.483-2.58h.026l8.707.011.054.005a2.171 2.171 0 0 1 1.669.913 2.956 2.956 0 0 1 .34 1.962l-2.027 22.992a16.009 16.009 0 0 0 5.395 1.05 6.236 6.236 0 0 0 3.366-.847 3.3 3.3 0 0 0 1.635-2.529c.173-1.905-2.419-4.11-3.74-5.2-.46-.37-.918-.744-1.382-1.11l-.021-.016-.02-.017a9.407 9.407 0 0 1-2.473-3.2 7.121 7.121 0 0 1-.585-3.629 9.82 9.82 0 0 1 5.041-7.785c3.755-2.311 8.517-2.932 12.854-2.926 1.071 0 2.142.055 3.208.15.557.049 1.114.094 1.668.17a2.273 2.273 0 0 1 2.093 2.8l-.427 3.939a2.13 2.13 0 0 1-.848 1.632 3.15 3.15 0 0 1-2.181.389 28.55 28.55 0 0 0-2.516-.117 6.468 6.468 0 0 0-3.2.713 3 3 0 0 0-1.593 2.339 3.155 3.155 0 0 0 .537 1.939 13.356 13.356 0 0 0 2.12 2.276c1.739 1.531 3.97 3.612 5.012 5.687a8.99 8.99 0 0 1 .84 4.869 9.548 9.548 0 0 1-4.558 7.537c-3.359 2.189-7.706 2.772-11.642 2.768a33.569 33.569 0 0 1-6.471-.771 30.076 30.076 0 0 1-6.294-1.9c-2.63-.708-5.279-1.884-8.013-2.08a4.591 4.591 0 0 0-3.07.97l-.041.031-.034.031a15 15 0 0 1-4.975 2.98 18.159 18.159 0 0 1-6.178.994c-3.165 0-6.72-.59-8.983-3.011-2.229-2.384-2.553-5.847-2.272-8.952l1.192-13.154a3.471 3.471 0 0 1-1.128.818L215.786 45.14c6.185 2.526 11.61 2.55 17.852-.987a2.339 2.339 0 0 1 2.473.261 2.566 2.566 0 0 1 1.052 2.511c-.077.475-.152.95-.194 1.428-.045.517-.084 1.03-.138 1.546v.046c-.461 3.1-4.307 4.516-6.969 5.129a41.465 41.465 0 0 1-9.5 1.058c-5.615-.007-11.307-1.184-15.678-4.913-4.45 2.319-9.165 4.244-14.266 4.239-2.976.11-6.528-.189-8.759-2.4-2.53-2.512-2.59-6.746-2.289-10.066l1.465-16.16-5.213-.006h-.089l-.088-.015a2.557 2.557 0 0 1-.755-.222zm37.116 12.456l15.315-8.715.054-.023c1.267-.549 1.358-1.21.213-2-3.886-2.69-8.642-1.472-12.228 1.111-3.32 2.391-4.181 5.772-3.354 9.628zm-51.6 7.592a4.961 4.961 0 0 0 2.037-3.5 4.267 4.267 0 0 0-1.447-3.61 5.6 5.6 0 0 0-3.909-1.469 6.355 6.355 0 0 0-4.023 1.4 4.96 4.96 0 0 0-2.027 3.506 4.219 4.219 0 0 0 1.409 3.629 5.594 5.594 0 0 0 3.9 1.412 6.554 6.554 0 0 0 4.055-1.363z" fill="#0066b2"/><path d="M175.073 25.544l.054.054a1.338 1.338 0 0 0 .477.142l5.372.007h1.022l-1.571 17.336c-.266 2.931-.283 6.961 1.974 9.2 1.985 1.97 5.329 2.189 7.96 2.091h.036c4.945.006 9.543-1.907 13.856-4.162l.563-.294.48.415c4.175 3.6 9.67 4.709 15.049 4.715a40.425 40.425 0 0 0 9.252-1.029c2.434-.56 5.785-1.8 6.146-4.236.173-1.639.078-1.412.341-3.033a1.491 1.491 0 0 0-1.927-1.66c-7.1 4.027-13.342 3.715-20.8.157l25.912-14.417.031-.015a2.216 2.216 0 0 0 .983-.829l.495-.8-.346-.975a2.007 2.007 0 0 0-.135-.3 14.752 14.752 0 0 0-4.843-5.187 20.355 20.355 0 0 0-11.446-3.133 25.183 25.183 0 0 0-16.126 5.372 20.9 20.9 0 0 0-4.835 5.244l-.26.426a17.05 17.05 0 0 0-2.294 7.218 15.511 15.511 0 0 0 .821 6.95l.3.776-2.769 1.444-.05.02a5.444 5.444 0 0 1-4.876-.17c-2.355-1.458-2.68-4.638-2.372-7.13l1.517-13.149.1-.829h.834l6.992.008c.635-.011.773-.314.821-.931l.384-4.247v-.038l.007-.039c.121-.689.063-.842-.65-.862l-6.843-.008h-1.025l.1-1.021.885-9.469c.046-.817-.04-1.211-.927-1.21l-9-.025h-.046c-.8-.042-1.039.488-1.184 1.192l-.876 9.67-.077.851h-.855l-5.368-.007c-.547 0-.751.207-.784.757v.024l-.411 4.7v.023l-.058.415zm67.294 1.049l-1.6 17.636c-.251 2.773-.012 5.98 1.985 8.116 2.035 2.177 5.358 2.666 8.2 2.669a17.1 17.1 0 0 0 5.811-.93 13.92 13.92 0 0 0 4.62-2.768l.076-.068.085-.062a5.662 5.662 0 0 1 3.783-1.174c2.857.2 5.49 1.382 8.227 2.117l.076.021.071.033a36.534 36.534 0 0 0 12.327 2.576c3.707 0 7.884-.529 11.051-2.593a8.474 8.474 0 0 0 4.068-6.722 7.912 7.912 0 0 0-.731-4.29c-.949-1.893-3.172-3.961-4.765-5.364a14.481 14.481 0 0 1-2.3-2.483l-.009-.014-.008-.013a4.208 4.208 0 0 1-.7-2.606 4.068 4.068 0 0 1 2.127-3.177 7.5 7.5 0 0 1 3.743-.859c.871 0 1.744.043 2.611.121.927.082 1.778.057 1.858-1.044l.43-3.972c.132-.945-.213-1.469-1.168-1.6-.536-.074-1.075-.117-1.615-.164a35.604 35.604 0 0 0-3.115-.146c-4.12 0-8.717.571-12.287 2.766a8.748 8.748 0 0 0-4.531 6.963 6.048 6.048 0 0 0 .494 3.088 8.363 8.363 0 0 0 2.2 2.825c.466.367.928.744 1.395 1.12 1.69 1.4 4.351 3.726 4.133 6.136a4.369 4.369 0 0 1-2.135 3.344 7.281 7.281 0 0 1-3.943 1.014 17.113 17.113 0 0 1-5.862-1.149l-.682-.242 2.1-23.825c.078-.885.019-1.6-1.042-1.7l-8.626-.011c-.877.041-1.352.748-1.462 1.634l-1.522 16.8a9.336 9.336 0 0 1-2.185 5.639 7.138 7.138 0 0 1-5.361 2.069 5.529 5.529 0 0 1-4.838-2.174c-1.089-1.608-1.08-3.964-.911-5.832l1.514-16.705.008-.041c.2-1.075-.472-1.369-1.45-1.413l-7.234-.009a2.393 2.393 0 0 0-2.473 1.6l-.442 4.874zm-106.189 3.522c.257-2.809 0-6.025-1.992-8.206s-5.177-2.7-8-2.705a17.814 17.814 0 0 0-11.971 4.555L112.49 25.3l-1.274-1.931a8.677 8.677 0 0 0-3.482-3.127 12.191 12.191 0 0 0-5.3-1.067 15.216 15.216 0 0 0-5.646 1.073 15.96 15.96 0 0 0-4.917 3.1l-1.32 1.217-1.351-1.182c-3.311-2.9-5.734-3.53-9.78-3.636a1.2 1.2 0 0 0-1.373 1.085l-2.88 32.721a.645.645 0 0 0 .688.677l9.442.012a.691.691 0 0 0 .772-.687l1.57-17.85a9.409 9.409 0 0 1 2.135-5.573 6.82 6.82 0 0 1 5.216-2.171 5.588 5.588 0 0 1 4.868 2.153c1.073 1.613 1.041 4.014.877 5.879l-1.548 17.58c-.037.392.174.7.783.687l9.275.011a.776.776 0 0 0 .843-.691l1.57-17.845a9.409 9.409 0 0 1 2.135-5.574 6.825 6.825 0 0 1 5.216-2.17 5.569 5.569 0 0 1 4.865 2.15c1.083 1.616 1.051 4.019.879 5.889l-.906 9.823c-.188 2.278-.115 5.2 1.806 6.8 2.587 2.143 8 1.421 15.084-1.95a9.084 9.084 0 0 0 1.025 1.183c2.409 2.335 5.6 3.082 8.873 3.086a15.7 15.7 0 0 0 4.824-.717c9.221-2.967 2.78.053 14.413.067a1.57 1.57 0 0 0 1.862-1.566l1.931-21.323a18.736 18.736 0 0 0-.119-5l-.1-.563-.15-.5a5.68 5.68 0 0 0-1.925-3.006c-2.969-2.249-9.941-2.489-13.594-2.493-1.844 0-3.69.062-5.534.176-1.789.1-3.583.279-5.372.411-.7.051-1.2.275-1.375.966l-.779 2.655a.882.882 0 0 0 .96 1.095q1.058-.074 2.119-.135a94.893 94.893 0 0 1 5.569-.146c2.278 0 5.6.1 7.624 1.19a5.078 5.078 0 0 1 2.6 5.272l-.322 2.9c-.118.893-.722 1-1.432.638a12.6 12.6 0 0 0-7.1-2.219 17.937 17.937 0 0 0-11.016 3.2 11.1 11.1 0 0 0-3.923 5.182 12.853 12.853 0 0 0-.439 1.5 11.044 11.044 0 0 0-.276 3.028v.023c-.806.511-4.487 1.85-4.226-.983q.66-7.25 1.323-14.5zm19.954 18.959a6.663 6.663 0 0 1-4.633-1.7 5.3 5.3 0 0 1-1.756-4.523 6.035 6.035 0 0 1 2.438-4.259 7.427 7.427 0 0 1 4.69-1.625 6.688 6.688 0 0 1 4.638 1.754 5.349 5.349 0 0 1 1.791 4.5 6.031 6.031 0 0 1-2.453 4.259 7.629 7.629 0 0 1-4.716 1.587zm71.453-17.781l-16.529 9.405-.28-1.227c-.987-4.328-.054-8.209 3.733-10.936 3.964-2.856 9.193-4.086 13.474-1.123 1.864 1.29 1.644 3-.4 3.881z" fill="#0094d9"/></g><path d="M85.396 5.858c0 .043.007.1.008.169s0 .144-.01.223-.018.16-.032.24a1.191 1.191 0 0 1-.057.217.564.564 0 0 1-.086.159.14.14 0 0 1-.109.061.652.652 0 0 1-.288-.11q-.189-.11-.486-.246a4.443 4.443 0 0 0-.716-.246 3.878 3.878 0 0 0-.979-.11 3.035 3.035 0 0 0-1.011.158 2.88 2.88 0 0 0-.809.434 2.831 2.831 0 0 0-.612.648 3.625 3.625 0 0 0-.413.8 3.8 3.8 0 0 0-.209.888 4.236 4.236 0 0 0-.007.907 2.577 2.577 0 0 0 .234.875 1.9 1.9 0 0 0 .482.629 2.038 2.038 0 0 0 .7.382 2.851 2.851 0 0 0 .882.13 3.1 3.1 0 0 0 .632-.065 2.286 2.286 0 0 0 .566-.195l.2-1.938H81.67a.165.165 0 0 1-.131-.061.363.363 0 0 1-.066-.2 1.462 1.462 0 0 1 0-.169c0-.069.007-.142.014-.217s.019-.152.033-.23a.948.948 0 0 1 .061-.207.553.553 0 0 1 .094-.149.165.165 0 0 1 .126-.058h2.877a.378.378 0 0 1 .324.142.562.562 0 0 1 .081.4l-.344 3.357a.981.981 0 0 1-.045.211.507.507 0 0 1-.089.159.923.923 0 0 1-.317.184 5.3 5.3 0 0 1-.621.211 7.055 7.055 0 0 1-.828.175 6.158 6.158 0 0 1-.948.071 5.911 5.911 0 0 1-1.634-.207 3.486 3.486 0 0 1-1.232-.619 3.056 3.056 0 0 1-.817-1.008 3.857 3.857 0 0 1-.383-1.374 6.011 6.011 0 0 1 .016-1.374 5.14 5.14 0 0 1 .331-1.28 4.673 4.673 0 0 1 .643-1.121 4.081 4.081 0 0 1 .956-.891 4.579 4.579 0 0 1 1.267-.587 5.54 5.54 0 0 1 1.578-.211 5.441 5.441 0 0 1 .916.074 6.478 6.478 0 0 1 .786.181 3.781 3.781 0 0 1 .593.23 2 2 0 0 1 .326.191.39.39 0 0 1 .117.152.737.737 0 0 1 .042.215zM95.815 6.792a2.933 2.933 0 0 1-.031.823 2.321 2.321 0 0 1-.287.771 2.369 2.369 0 0 1-.582.655 2.868 2.868 0 0 1-.924.467 1.246 1.246 0 0 1 .58.489 3.889 3.889 0 0 1 .454 1l.522 1.7q.04.143.069.256a1.45 1.45 0 0 1 .036.191.142.142 0 0 1-.031.11.294.294 0 0 1-.147.075 1.714 1.714 0 0 1-.3.042q-.193.013-.489.013-.277 0-.446-.016a1.069 1.069 0 0 1-.265-.052.246.246 0 0 1-.131-.094.523.523 0 0 1-.057-.136l-.518-1.86a3.472 3.472 0 0 0-.2-.571 1.541 1.541 0 0 0-.269-.411.982.982 0 0 0-.364-.246 1.339 1.339 0 0 0-.485-.081h-.54l-.326 3.2a.2.2 0 0 1-.054.117.342.342 0 0 1-.153.084 1.436 1.436 0 0 1-.275.048q-.17.017-.42.016t-.413-.016a1.221 1.221 0 0 1-.258-.048.276.276 0 0 1-.133-.081.145.145 0 0 1-.026-.12l.78-7.622a.542.542 0 0 1 .192-.411.655.655 0 0 1 .405-.127h2.285a5.045 5.045 0 0 1 1.094.11 2.749 2.749 0 0 1 .86.337 1.754 1.754 0 0 1 .851 1.38zm-1.824.318a.955.955 0 0 0-.1-.337.776.776 0 0 0-.228-.269 1.1 1.1 0 0 0-.376-.175 2.06 2.06 0 0 0-.536-.061h-.981l-.239 2.378h.823a2.112 2.112 0 0 0 .822-.139 1.368 1.368 0 0 0 .517-.36 1.2 1.2 0 0 0 .256-.489 1.562 1.562 0 0 0 .042-.549zM107.076 10.259a4.293 4.293 0 0 1-.371 1.409 3 3 0 0 1-.766 1.014 3.191 3.191 0 0 1-1.133.613 4.937 4.937 0 0 1-1.471.2 4.878 4.878 0 0 1-1.513-.211 2.535 2.535 0 0 1-1.048-.626 2.327 2.327 0 0 1-.573-1.04 3.952 3.952 0 0 1-.081-1.448l.511-4.973a.211.211 0 0 1 .051-.116.316.316 0 0 1 .15-.084 1.551 1.551 0 0 1 .271-.052 3.79 3.79 0 0 1 .423-.019 3.728 3.728 0 0 1 .417.019 1.312 1.312 0 0 1 .262.052.249.249 0 0 1 .131.084.175.175 0 0 1 .028.116l-.509 4.978a2.625 2.625 0 0 0 .028.862 1.4 1.4 0 0 0 .281.6 1.177 1.177 0 0 0 .507.35 2.086 2.086 0 0 0 .722.114 2.23 2.23 0 0 0 .768-.127 1.676 1.676 0 0 0 .6-.369 1.9 1.9 0 0 0 .411-.593 2.57 2.57 0 0 0 .206-.8l.511-5.016a.208.208 0 0 1 .051-.116.308.308 0 0 1 .143-.084 1.383 1.383 0 0 1 .268-.052 3.8 3.8 0 0 1 .419-.019 3.541 3.541 0 0 1 .41.019 1.3 1.3 0 0 1 .256.052.249.249 0 0 1 .131.084.172.172 0 0 1 .028.116zM117.927 7.018a3.687 3.687 0 0 1-.005.758 3.076 3.076 0 0 1-.188.775 2.934 2.934 0 0 1-.4.719 2.631 2.631 0 0 1-.656.6 3.322 3.322 0 0 1-.942.415 4.864 4.864 0 0 1-1.3.152h-.889l-.274 2.683a.2.2 0 0 1-.054.117.343.343 0 0 1-.156.084 1.514 1.514 0 0 1-.278.048q-.169.017-.419.016t-.407-.016a1.221 1.221 0 0 1-.259-.048.276.276 0 0 1-.133-.081.145.145 0 0 1-.025-.12l.768-7.55a.644.644 0 0 1 .21-.457.711.711 0 0 1 .472-.152h1.863q.342 0 .615.023a5.2 5.2 0 0 1 .541.075 2.993 2.993 0 0 1 .745.24 2.191 2.191 0 0 1 .584.4 1.922 1.922 0 0 1 .4.571 2.308 2.308 0 0 1 .187.748zm-1.8.194a1.035 1.035 0 0 0-.206-.537.918.918 0 0 0-.5-.318 1.476 1.476 0 0 0-.315-.061q-.173-.017-.384-.016h-.764l-.277 2.845h.79a1.975 1.975 0 0 0 .633-.088 1.528 1.528 0 0 0 .444-.23 1.267 1.267 0 0 0 .308-.337 1.767 1.767 0 0 0 .189-.408 1.96 1.96 0 0 0 .085-.431 2.316 2.316 0 0 0-.007-.418zM129.349 7.77a7.53 7.53 0 0 1 .019 1.219 6.622 6.622 0 0 1-.208 1.286 5.346 5.346 0 0 1-.492 1.221 3.75 3.75 0 0 1-2.036 1.737 4.7 4.7 0 0 1-1.652.266 5.311 5.311 0 0 1-1.423-.175 3.006 3.006 0 0 1-1.082-.538 2.632 2.632 0 0 1-.725-.914 3.8 3.8 0 0 1-.346-1.3 7.833 7.833 0 0 1-.021-1.274 6.38 6.38 0 0 1 .217-1.3 5.226 5.226 0 0 1 .505-1.215 3.967 3.967 0 0 1 .832-1.018 3.743 3.743 0 0 1 1.206-.7 4.774 4.774 0 0 1 1.633-.256 5.207 5.207 0 0 1 1.424.178 2.99 2.99 0 0 1 1.079.545 2.666 2.666 0 0 1 .722.923 3.879 3.879 0 0 1 .348 1.315zm-1.814.162a2.813 2.813 0 0 0-.161-.716 1.509 1.509 0 0 0-.341-.541 1.476 1.476 0 0 0-.551-.341 2.345 2.345 0 0 0-.792-.119 2.092 2.092 0 0 0-.986.217 2.256 2.256 0 0 0-.7.567 2.866 2.866 0 0 0-.459.8 5.219 5.219 0 0 0-.256.914 5.836 5.836 0 0 0-.1.9 6.22 6.22 0 0 0 .022.771 2.826 2.826 0 0 0 .162.719 1.462 1.462 0 0 0 .344.535 1.486 1.486 0 0 0 .554.334 2.411 2.411 0 0 0 .8.117 2.106 2.106 0 0 0 .979-.214 2.2 2.2 0 0 0 .7-.561 2.857 2.857 0 0 0 .456-.794 5.116 5.116 0 0 0 .257-.907 5.773 5.773 0 0 0 .1-.9 6.3 6.3 0 0 0-.028-.78z" fill="#ec1c24"/></svg>