<svg xmlns="http://www.w3.org/2000/svg" viewBox="0 0.7264648675918579 515.3226318359375 162.5563507080078"><g fill="none"><path fill="#F89920" d="M52.185 71.913l-5.333-3.671.039 4.653 1.875 2.498zM27.388 15.271l-1.208-.385a1.93 1.93 0 00-2.415 1.224l-4.94 14.702a1.93 1.93 0 001.251 2.456l7.305 2.29-.002-20.197c0-.03.008-.06.01-.09zm78.082 33.845l5.334-7.241-2.816-.898-2.521 2.572zM6.664 70.807a1.93 1.93 0 00-1.5 1.29L.747 85.35a1.93 1.93 0 001.245 2.45l1.902.605L18.467 68.75 6.664 70.807zm103.208 51.346l5.44-16.323a1.93 1.93 0 00-1.245-2.449l-8.567-2.723.012 20.106 4.36 1.389zM82.895 66.586l3.306 1.988.009-5.371-3.315 3.383zM23.699 94.711l3.689 1.174-.001-6.238zM117.293 69.7l9.483-1.659a1.93 1.93 0 001.5-1.294l5.16-15.607a1.93 1.93 0 00-1.245-2.444l-1.675-.535-14.614 19.662 1.391 1.878zm-70.129 35.852l.078 9.424 4.691-1.489.178-1.24zm-27.86-.182a1.93 1.93 0 00-.47 1.912l4.06 13.374a1.93 1.93 0 002.43 1.28l2.066-.657-.002-24.135-8.084 8.225zm112.173-17.138a1.93 1.93 0 001.263-2.4l-4.443-14.638a1.93 1.93 0 00-2.435-1.277l-6.797 2.175 12.05 16.255.362-.115zm-23.489-47.255l6.645-6.782a1.93 1.93 0 00.466-1.915l-4.814-15.725a1.93 1.93 0 00-2.43-1.274l-2.403.764.013 24.127 2.523.805zM78.275 58.338l5.452-.95.396-.019-3.919-5.245-.977-.306zm7.993-30.495l.01-5.705-2.846.905-.119.813zM56.784 79.639l-4.624.277 3.731 4.971.135.044zM0 49.558L5.016 66.23a1.93 1.93 0 002.441 1.28l9.361-3.025-12.13-16.417L0 49.558zm55.891 35.329l.119.159.016-.115z"></path><path fill="#F89920" d="M80.204 52.124l-.855-1.142-.122.836zM130.86 47.7a1.93 1.93 0 00-.416-2.712L117.7 35.74a1.93 1.93 0 00-2.687.417l-4.21 5.717 19.712 6.286.343-.46zM83.432 23.043l1.344-9.198a1.93 1.93 0 00-.784-1.846L70.239 2.12a1.93 1.93 0 00-2.676.418l-.025.034 15.31 20.655.584-.185zM65.08 83.822l-3.558 2.856 6.003 1.908.109-.035zM19.22 67.735l-.753 1.016 1.332-.232zm50.412-13.573l3.706-3.77.383-.301-6.272-1.967-.955.309zM.917 92.42l14.496 10.412a1.93 1.93 0 002.685-.431l5.6-7.69-19.804-6.307L.917 92.42zm51.016 21.067l-1.805 12.594c-.102.712.2 1.421.784 1.84l11.701 8.411a1.93 1.93 0 002.675-.416l2.163-2.91-14.632-19.8-.886.28zm23.754-2.22l3.981 5.304 1.795-2.415-.685-1.268zM60.569 25.853l-5.167-6.913-2.91 3.924.275.501z"></path><path fill="#F89920" d="M67.525 88.586l.155.049-.046-.084zm-.076-40.462l-1.357-.425.402.734zm9.998 15.877l.828-5.663-5.804 1.01 1.696 3.096zm-14.23-21.552l2.875 5.25 1.357.425 7.865-2.541-12.055-16.13-6.097 1.938 5.43 9.916 1.564-2.146zM56.01 85.046l2.836 3.78 2.676-2.148-5.496-1.747zm23.339-34.064l-2.499-3.345-3.129 2.454 5.506 1.727zm-8.445 43.623l-3.224-5.97-.155-.049-7.143 2.286 12.08 16.097 4.37-1.387-5.478-10.143-1.044 1.418zM57.527 74.456l-.743 5.183 5.634-.339.201-.035-1.734-3.21zm23.936 39.7l6.053 11.209a1.93 1.93 0 001.701 1.012l14.37-.022a1.93 1.93 0 001.927-1.93l-.002-3.66-23.418-7.458-.631.849zM27.39 124.462a1.93 1.93 0 001.922 1.93l16.072.065a1.93 1.93 0 001.938-1.945l-.08-9.536-19.852 6.303v3.183zm46.744-42.101L72.95 86.85l6.188-1.981.069-.093zM27.388 95.885v1.259l.942-.958zm32.811-40.07l.803-5.606.001-.002-6.398 2.068-.48.658zm45.252-40.256a1.93 1.93 0 00-1.89-1.929l-15.303-.309a1.93 1.93 0 00-1.97 1.926l-.01 6.891 19.174-6.093v-.486zm-6.527 83.008l6.576 2.091-.002-3.367-1.022-.486zM52.492 22.864l-4.636-8.467a1.93 1.93 0 00-1.697-1.003l-16.854.037a1.925 1.925 0 00-1.917 1.84l24.856 7.927.248-.334zM35.77 38.19l-8.389-2.631.001 4.682.776.368z"></path><path fill="#F89920" d="M28.33 96.186l15.578 4.96-8.778-11.879zm57.88-32.983l1.29-1.317-1.285-1.719zM70.904 94.605l.45.834 3.363-4.567-2.61-.829zm20.331 6.404l7.689-2.442-4.752-1.51zm-28.018-58.56l-.625-1.142-3.139 4.31 2.625.823zm42.25 1.1l-.002-3.377-13.173-4.201 8.872 11.97zM42.78 35.962l-7.01 2.228 4.347 1.363zm11.825 16.313l-1.11.358.63.3zm24.533 32.594l.158-.05-.089-.043zM41.712 64.704l-.856.149 2.328 3.103 1.086-1.491zm39.066 48.184l1.316.419 9.141-12.298-14.403 4.573zM27.387 89.647l3.983-5.469-3.984-5.392zm78.086-35.893l-.003-4.638-1.711 2.325zM94.656 73.661l1.454-.255-4.296-5.747-2.191 2.974zM52.767 23.365l-.523-.167-9.464 12.764 14.382-4.571zm19.704 35.983l-2.839-5.186-4.108 4.18 3.416 1.621zM67.68 88.635l4.427 1.408.843-3.193-5.316 1.701z"></path><path fill="#F89920" d="M47.94 49.997l5.555 2.636 1.11-.358 4.848-6.658-19.336-6.064-3.692 4.979 10.27 4.874-.022-2.631zm37.434 37.715l-6.078-2.893-.158.05-4.421 6.003 19.455 6.185 2.832-3.809-10.835-5.158-.003 1.643zm-22.755-8.447l2.461 4.557 4.343-3.487.144-.147-3.284-1.564zm3.473-31.566l-4.014-1.259-1.075 3.767 5.491-1.774zm3.039 87.581a1.93 1.93 0 002.7.405l12.7-9.396a1.93 1.93 0 00.396-2.71l-5.26-7.008-12.216 16.436 1.68 2.274zM66.748 1.507a1.93 1.93 0 00-2.675-.419L51.34 10.22a1.93 1.93 0 00-.421 2.723l4.483 5.998L67.538 2.573l-.79-1.066zM53.634 62.628l-2.674-4.95-.102-.259-4.05 5.561.007.835zm51.864 34.663l10.975 5.225a1.93 1.93 0 001.981-.194l13.293-9.885a1.93 1.93 0 00.399-2.698l-1.032-1.392-25.616 8.133v.811zM27.382 40.24l-9.943-4.718a1.93 1.93 0 00-1.942.168L4.001 43.826a1.93 1.93 0 00-.437 2.722l1.123 1.52 22.695-7.212v-.615zm53.433 35.842l1.666 4.249 3.709-5.036v-.153zm33.275-5.821l-3.339 4.491 8.314-2.66-1.772-2.391zm-97.272-5.776l2.402 3.25 3.926-5.295zm41.232 6.321l-1.694-3.136-4.171 4.243 5.342 2.543zm-3.022 21.085l.982-6.845-.119-.159-8.924-2.836.168 20.123 6.139 1.955 1.65-11.511-1.334.427zM52.16 79.916l-3.394-4.523-1.839 1.87.025 2.966zm28.065-34.927l-.876 5.993.855 1.142 6.021 1.889.033-19.967-4.237-1.351-1.644 11.252 2-.647zm5.994 12.277l-2.096.103 2.092 2.798zm-7.468 13.549l4.144-4.229-5.448-2.585-.511 3.5z"></path><path fill="#F89920" d="M80.225 44.989l.152-1.042-5.063 1.636 1.536 2.054zM67.566 28.085l-6.997-2.232 2.69 3.6zm37.907 25.669l.01 18.012 8.607-1.505 1.812-2.438zm-38.154 54.848l8.368 2.665-3.225-4.298zM55.028 91.891l-.104.727 5.458-1.746-1.536-2.046zM19.799 68.519l7.587 10.267-.001-11.587zm65.575 19.193l.795.378.009-5.473-2.489.796zM47.94 49.997l-1.245-.591.045 5.41 2.746-.887zM23.146 62.44l4.238-1.369v-4.345zm60.167-38.584l-.466-.628-15.281 4.857 14.455 4.61zm-31.202 88.391l.708.959 14.5-4.604-14.045-4.473zm53.378-30.415l5.262-7.08-5.265 1.685zM46.808 62.98l-.698.958.705-.123zM86.19 75.295l.129-.176-.129.023zM58.866 65.116l.499-3.486-5.731.998 2.722 5.042zM42.145 80.518l1.683-.101 3.099-3.154-.036-4.368-3.707-4.939L31.37 84.178l3.76 5.089 8.222-8.366zm4.707-12.276l-.037-4.427-.705.123-1.84 2.527zm29.197 5.331l-.502 3.431 5.268-.922-2.064-5.267z"></path><path fill="#F89920" d="M86.201 68.574l-.011 6.568.129-.023 3.304-4.486zm6.117-11.605L87.5 61.886l4.314 5.773 11.945-16.218-2.595-3.5-8.062 8.228 2.101.659zm-.026-20.998l-6.024-8.128-.01 6.203zm-64.134 4.638l-.776.247.002 15.87 9.041-12.194zm76.318 56.196l1.022-.325-.009-14.648-8.485 11.416z"></path><path fill="#F89920" d="M92.318 56.969l.784-.8-6.877-2.156-.006 3.253zm-48.49 23.448l-.476.484 3.615 1.15-.015-1.822zm.08 20.729l3.256 4.406-.029-3.378zm35.388-16.327l4.393-1.406-1.208-3.082-3.274 4.445zm-9.729-4.631l4.567 2.173 1.413-5.357-3.452.603zM53.495 52.633l-4.009 1.296 1.372 3.49 3.267-4.486zm44.147 22.824l-2.986-1.796-8.337 1.458-.129.176-.012 7.322 19.308-6.18-.003-4.671-9.373 1.64zM65.524 58.342l-5.325-2.527-.834 5.815 3.531-.615zM39.71 63.326l2.002 1.378 4.398-.766.698-.958-.068-8.164-19.356 6.255.001 6.128 13.471-2.346z"></path><path fill="#F89920" d="M66.283 78.624l5.812-1.017 3.954-4.034.887-6.072-2.769-5.057-5.227-2.481-6.044 1.052-4.03 4.101-.816 5.69 2.835 5.249zm376.982 78.67c-10.463-.064-20.896-.654-31.312-1.64-11.184-1.058-22.327-2.492-33.5-3.636-8.638-.885-17.288-1.583-25.977-1.809a197.549 197.549 0 00-51.054 4.96 99.338 99.338 0 00-22.492 7.893c-.31.159-.6.427-.895-.046-.369-.592.21-.667.475-.836a67.169 67.169 0 0111.003-5.508 129.103 129.103 0 0128.975-7.71 182.675 182.675 0 0125.2-1.997c9.64-.07 19.276.37 28.87 1.316 11.858 1.085 23.664 2.653 35.512 3.833 8.745.871 17.505 1.564 26.297 1.822 5.283.155 10.563.236 15.843.058 15.073-.508 30.072-1.675 44.747-5.442a58.524 58.524 0 0015.783-6.144 16.689 16.689 0 003.469-2.622c.287-.296.571-.595.963-.176.38.407-.055.65-.254.882a27.092 27.092 0 01-8.633 6.27 81.625 81.625 0 01-20.425 6.687 190.932 190.932 0 01-29.735 3.503 290.32 290.32 0 01-12.86.342z"></path><path fill="#58585A" d="M186.11 68.753c1.01.524 2.5.065 3.768.172 1.066.09 1.268-.3 1.266-1.301-.033-15.075-.04-30.15-.023-45.225a3.277 3.277 0 01.003-.425.695.695 0 00-.875-.919c-.849.073-1.702.072-2.55-.004-.949-.1-1.168.218-1.165 1.157.034 12.663.042 25.326.023 37.99v1.38c-.363-.498-.568-.767-.76-1.045l-25.046-36.318c-.723-1.047-1.27-2.473-2.277-2.995-1.01-.524-2.5-.065-3.768-.173-1.069-.091-1.266.305-1.264 1.303.033 15.075.04 30.15.023 45.225a3.35 3.35 0 01-.003.425.695.695 0 00.877.916 14.585 14.585 0 012.551.005c.952.101 1.164-.225 1.162-1.16a9103.886 9103.886 0 01-.023-37.988V28.38c.365.509.567.782.76 1.061l25.047 36.315c.722 1.048 1.268 2.474 2.274 2.996zm227.999-23.065l.004 20.006c.001 1.024-.342 2.392.177 2.98.6.68 2.005.116 3.05.24.874.104 1.048-.253 1.044-1.066-.031-6.42-.017-12.84-.018-19.261a16.832 16.832 0 011.104-6.24 9.289 9.289 0 0113.286-4.256c2.388 1.542 3.015 3.982 3.043 6.557.085 7.732.06 15.465.043 23.197-.002.792.136 1.173 1.026 1.074a10.4 10.4 0 012.231 0c.877.094 1.038-.261 1.035-1.066-.03-7.06-.02-14.118-.015-21.177a29.246 29.246 0 00-.214-4.138c-.503-3.554-1.876-6.61-5.377-8.094a13.835 13.835 0 00-11.644.171 11.25 11.25 0 00-5.214 5.234c-1.911-4.89-5.647-6.619-10.53-6.506-4.904.114-8.396 2.505-10.915 6.985V37.09c0-2.75 0-2.702-2.763-2.762-.985-.022-1.15.314-1.147 1.206.03 10.074.02 20.148.02 30.222 0 .745.033 1.492-.01 2.234-.04.663.13.982.874.927.85-.059 1.702-.06 2.552-.002.684.042.837-.245.826-.868a196.255 196.255 0 01-.008-5.533c.06-5.07-.258-10.151.147-15.208.417-5.21 2.91-10.031 9.634-10.417a6.698 6.698 0 017.38 5.321c.262 1.14.389 2.308.379 3.478zM323.2 111.455a41.17 41.17 0 00-.175-5.417c-.526-3.97-2.234-7.064-6.244-8.464a12.987 12.987 0 00-3.754-.676c-4.853-.203-8.833 1.379-11.414 5.729a.578.578 0 01-.455.486 8.816 8.816 0 00-7.545-6.05c-5.745-.828-10.21 1.19-13.348 6.23 0-.877.027-1.755-.008-2.63-.036-.909.405-2.112-.2-2.639-.513-.447-1.689-.09-2.562-.181-.872-.093-1.122.174-1.119 1.082.037 9.863.019 19.726.03 29.589 0 1.022-.437 2.37.163 2.98.654.663 2.02.106 3.066.223.803.09 1.01-.2 1.006-.998-.034-5.854-.015-11.707-.02-17.561-.006-1.242.08-2.481.255-3.71.733-4.992 3.423-8.07 7.808-8.914 4.418-.851 7.736 1.066 8.707 5.053.208.862.31 1.747.305 2.634-.014 5.605-.016 11.21-.007 16.817 0 1.95.027 3.903-.015 5.853-.014.663.185.877.84.828a12.81 12.81 0 012.233.003c.914.094 1.2-.172 1.19-1.145-.05-5.996-.021-11.992-.027-17.988a26.616 26.616 0 01.263-3.816c.823-5.734 4.19-8.599 9.821-8.348 4.003.179 6.167 2.111 6.83 6.067.108.665.16 1.338.155 2.011 0 6.706 0 13.411.003 20.117.001.986-.325 2.306.176 2.873.585.66 1.94.102 2.949.224.89.107 1.121-.216 1.116-1.104-.039-6.386-.02-12.772-.022-19.158zm-128.548-.673a31.971 31.971 0 00-.227-4.245c-.507-3.836-2.021-7.004-5.833-8.602a15.596 15.596 0 00-5.185-1.043 11.75 11.75 0 00-12.145 6.718c0-1.103.01-1.937-.003-2.772-.015-.95.31-2.219-.174-2.769-.565-.643-1.871-.099-2.843-.223-.934-.119-1.18.203-1.175 1.151.038 9.864.019 19.728.03 29.592 0 .988-.417 2.273.162 2.889.635.675 1.95.117 2.958.237.835.1 1.07-.194 1.065-1.041-.037-5.997-.016-11.993-.023-17.99a21.34 21.34 0 01.172-2.755c.805-6.316 5.677-10.187 11.995-9.458a6.99 6.99 0 016.386 5.254c.437 1.536.643 3.128.613 4.725-.004 6.741.015 13.483-.022 20.224-.005.857.24 1.126 1.07 1.046a11.45 11.45 0 012.127 0c.818.078 1.074-.169 1.069-1.033-.04-6.635-.027-13.27-.017-19.905zm247.088 8.73c-.639 0-1.28.045-1.914-.011a.85.85 0 00-1.067.896 10.06 10.06 0 01-5.804 7.876 10.545 10.545 0 01-13.638-5.087 17.768 17.768 0 01-.321-16.267 10.81 10.81 0 015.472-5.567c3.957-1.788 10.721-1.628 13.343 4.516.373.875.192 2.193 1.159 2.557.87.328 1.963.023 2.951.092.802.056.871-.3.759-.942a12.6 12.6 0 00-3.26-6.79 13.175 13.175 0 00-9.168-3.868c-5.123-.283-9.604 1.156-13.002 5.187-3.071 3.644-4.133 7.98-4.182 12.635-.035 1.918.193 3.83.676 5.686 2.168 8.649 9.53 13.452 18.286 11.942 5.496-.949 9.693-5.43 10.833-11.57.239-1.284.239-1.284-1.123-1.285zm-191.498-53.95c-.738.083-1.48.15-2.223.174-3.013.097-4.16-1-4.191-3.995-.011-1.135-.002-2.27-.002-3.405 0-6.49.015-12.981-.02-19.472-.004-.803.205-1.044 1.003-.995 1.13.07 2.269.018 3.404.018 2.713 0 2.688 0 2.656-2.715-.008-.658-.191-.847-.84-.832-1.772.04-3.547-.012-5.32.027-.674.015-.912-.151-.901-.879.044-2.908.002-5.817.031-8.725.007-.626-.127-.9-.813-.855-.885.058-1.773.058-2.659 0-.688-.045-.822.232-.812.857.035 2.092.02 4.185.01 6.277-.005 1.061.369 2.488-.168 3.087-.618.69-2.072.205-3.16.215-2.794.029-2.778.01-2.677 2.83.019.552.164.737.725.724 1.454-.034 2.91.032 4.362-.028.757-.032.944.211.938.949-.035 4.043-.017 8.086-.017 12.13 0 3.617.006 7.235-.004 10.853-.004.922.066 1.842.21 2.752a5.034 5.034 0 004.776 4.614 22.5 22.5 0 003.393.163c3.04-.06 3.134-.172 2.923-3.22-.033-.48-.176-.6-.624-.55zm-35.152 62.814a21.74 21.74 0 01-2.223.165c-2.658.072-3.885-.98-3.903-3.614-.05-7.622-.014-15.246-.028-22.868a.595.595 0 01.723-.739c1.204.035 2.41.01 3.616.01 2.61 0 2.58 0 2.562-2.619a.725.725 0 00-.923-.866c-1.665.037-3.334-.035-4.998.032-.827.033-1.01-.248-.99-1.024.054-2.02.044-4.042.008-6.062-.017-1.013.464-2.397-.2-2.937-.627-.51-1.962-.11-2.978-.197-.798-.069-1.02.188-1.003.992.053 2.658-.015 5.319.039 7.976.018.922-.16 1.384-1.2 1.249a16.628 16.628 0 00-2.126-.017c-2.727 0-2.709 0-2.61 2.766a.595.595 0 00.733.718c1.418-.033 2.838.031 4.254-.027.766-.033.95.24.944.966-.03 4.006-.014 8.012-.014 12.019h.083c0 4.076-.092 8.155.028 12.227.1 3.388 1.959 5.166 5.34 5.416.95.07 1.909.062 2.863.04 2.878-.066 2.861-.074 2.744-2.934-.023-.566-.175-.746-.74-.672zm-58.004-43.52a9.857 9.857 0 01-2.125-.001c-.972-.112-1.215.228-1.213 1.202.034 14.08.043 28.16.027 42.24 0 1.093-.371 2.56.184 3.18.637.712 2.138.119 3.253.241.851.094 1.053-.218 1.049-1.047-.033-7.413-.019-14.825-.019-22.237 0-7.484-.022-14.967.027-22.45.006-.982-.287-1.221-1.183-1.128zM274.07 34.628c.044-.685-.237-.844-.859-.826a12.69 12.69 0 00-10.567 5.374 22.014 22.014 0 00-1.718 3.15c-.045-.29-.065-.358-.065-.426-.003-1.63-.003-3.262-.003-4.894 0-2.66-.001-2.62-2.711-2.675-.92-.019-1.182.202-1.179 1.159.039 10.177.02 20.355.03 30.533 0 .916-.388 2.115.156 2.673.598.611 1.82.09 2.757.218 1.048.143 1.279-.266 1.279-1.28.001-5.991-.2-11.987.076-17.974.312-6.79 5.144-11.418 11.96-11.578.612-.015.9-.095.847-.797a19.333 19.333 0 01-.002-2.657zm-1.49 63.449a.648.648 0 00-.808-.792 12.889 12.889 0 00-8.635 3.281 20.325 20.325 0 00-3.523 4.792c0-1.589.021-3.178-.008-4.766-.017-.876.385-2.005-.166-2.559-.552-.555-1.687-.079-2.556-.185-.872-.107-1.126.19-1.123 1.09.034 9.925.018 19.85.028 29.777 0 .95-.401 2.186.16 2.774.619.648 1.886.089 2.854.23 1.048.153 1.192-.333 1.188-1.244-.025-5.954-.098-11.912.046-17.864a11.451 11.451 0 019.67-10.963c.948-.167 2.293.447 2.77-.529.407-.83.056-2.016.102-3.042zm134.324 1.77c0-.46-.023-.923.007-1.382a.49.49 0 00-.603-.616c-.885.049-1.773.046-2.658-.01-.83-.07-.991.248-.986 1.02.032 5.283.017 10.566.017 15.85v4.468c0 3.866.019 7.731-.017 11.596-.007.746.201 1.017.952.946a8.998 8.998 0 011.911.002c1.065.129 1.414-.186 1.408-1.342-.052-10.177-.03-20.354-.03-30.532zM347.822 83.86a1.328 1.328 0 00-1.23.631c-1.968 2.685-3.964 5.348-5.945 8.022a.522.522 0 00-.205.638c3.088.096 3.088.096 5.147-2.136.144-.156.295-.305.44-.46l6.231-6.682c-1.675 0-3.058.026-4.438-.012zm58.411.998c-.954.047-1.911.03-2.866.005a.55.55 0 00-.696.65c.027 1.77.022 3.54.002 5.31-.006.481.111.708.645.69a39.8 39.8 0 012.972.002c.56.023.636-.236.622-.699-.026-.848-.008-1.698-.008-2.548 0-.885-.022-1.77.009-2.654.017-.51-.072-.786-.68-.756zm-56.61-29.807a35.906 35.906 0 00-.05-20.338 17.399 17.399 0 00-8.984-11.066 24.953 24.953 0 00-11.187-2.558c-5.318-.08-10.637 0-15.956-.04-.855-.007-1.055.241-1.051 1.067.03 7.624.018 15.248.018 22.871 0 7.624.013 15.248-.019 22.871-.003.833.206 1.072 1.055 1.065 4.893-.042 9.787-.033 14.68-.015a32.896 32.896 0 006.652-.615c7.527-1.52 12.68-5.784 14.842-13.242zm-30.209 9.955c-2.386.028-2.386.005-2.386-2.35V44.988c0-6.315.018-12.63-.02-18.945-.006-.896.249-1.122 1.126-1.102 4.535.102 9.084-.207 13.602.358 5.242.656 9.707 2.645 12.303 7.595a20.428 20.428 0 012.08 7.426 37.05 37.05 0 01-.675 12.984c-1.615 6.484-5.893 10.025-12.339 11.163-4.538.801-9.123.484-13.69.539zm74.485 19.85c-.742.07-1.49.07-2.232 0-.85-.083-1.06.23-1.055 1.058.036 5.641.019 11.283.019 16.924v1.054a.862.862 0 01-.53-.69 10.92 10.92 0 00-3.026-3.656c-5.545-4.394-17.133-4.045-21.444 5.494a22.928 22.928 0 00-.227 18.89 13.184 13.184 0 0012.01 8.62c5.757.355 10.393-1.748 13.335-6.95a.419.419 0 01.188-.012c0 1.1-.025 2.2.008 3.3.028.909-.403 2.097.187 2.652.58.547 1.76.082 2.67.177.777.08 1.022-.157 1.02-.98a13617.64 13617.64 0 01-.005-44.918c.002-.711-.134-1.036-.918-.963zm-5.815 39.504c-3.497 6-14.553 7.21-18.432-1.08a19.303 19.303 0 01.052-17.141c1.82-3.82 4.978-5.78 9.95-5.737a9.846 9.846 0 019.245 6.217c2.606 5.983 2.53 12.003-.815 17.741zm-17.688-54.665a12.04 12.04 0 008.273-5.092c.374-.508.753-1.013 1.32-1.776 0 .552-.01.76.001.966.229 3.96 1.59 5.213 5.546 5.11.178-.004.356.007.532-.006 1.641-.116 1.641-.117 1.641-1.783 0-.426-.03-.854.008-1.277.057-.643-.14-.74-.781-.612-1.909.38-2.974-.529-3.05-2.497-.013-.319-.008-.639-.008-.958 0-5.96.013-11.92-.005-17.881-.016-5.468-2.862-8.989-8.15-10.127a22.869 22.869 0 00-8.565-.127c-5.867.961-9.203 4.487-9.988 10.374-.096.717.062.961.792.915a18.443 18.443 0 012.446.002.796.796 0 001.026-.883c.485-3.898 2.58-6.089 6.446-6.87 1.99-.377 4.034-.37 6.02.02 4.071.735 6.136 3.476 5.713 7.575-.211 2.049-1.089 3.108-3.108 3.492-1.597.304-3.223.464-4.84.663a42.37 42.37 0 00-9.88 1.92 8.7 8.7 0 00-6.107 7.563c-.65 5.363 2.123 9.599 7.34 10.99 2.414.595 4.924.696 7.378.3zm-8.27-5.332a5.956 5.956 0 011.133-10.066 25.013 25.013 0 017.578-1.956c1.925-.302 3.858-.555 5.777-.885a4.892 4.892 0 002.967-1.342 61.993 61.993 0 01-.04 6.682c-.52 4.695-3.816 8.06-8.664 9.148-3.135.704-6.137.606-8.75-1.58zm98.437 5.498c8.184.578 13.673-3.006 15.936-10.39.612-1.996.612-1.996-1.45-1.996-2.154 0-2.152 0-2.92 1.958-.141.362-.309.714-.47 1.068-3.29 7.222-13.593 7.545-17.833 2.086a16.437 16.437 0 01-3.205-8.639c-.092-.868-.006-1.238 1.042-1.22 4.077.07 8.156.028 12.235.028 4.15 0 8.299-.014 12.448.016.652.004.837-.162.833-.824a28.6 28.6 0 00-.456-5.182 17.76 17.76 0 00-5.213-10.102c-5.439-5.065-18.466-5.307-23.105 5.094a24.264 24.264 0 00-.642 18.435c2.093 5.99 6.441 9.22 12.8 9.668zM450.71 48.25a16.177 16.177 0 012.897-7.112 10.274 10.274 0 0117.15.75 15.488 15.488 0 012.114 6.403c.09.701-.108.904-.824.897-3.44-.036-6.882-.016-10.323-.016-3.405 0-6.81-.022-10.216.016-.765.009-.936-.153-.798-.938zM280.358 66.156c4.872 4.344 10.584 4.608 16.46 2.783 5.267-1.635 7.592-5.927 8.907-10.922.12-.458-.089-.555-.487-.546-.637.05-1.277.046-1.913-.013-1.295-.194-1.83.29-2.277 1.571a10.729 10.729 0 01-17.14 4.823c-3.18-2.756-4.225-6.51-4.504-10.554-.054-.782.495-.532.848-.533 4.15-.013 8.3-.008 12.45-.009 4.114 0 8.23-.016 12.343.016.729.006.989-.17.965-.938a32.856 32.856 0 00-.457-4.969 18.174 18.174 0 00-4.923-9.922c-5.489-5.48-19.014-5.673-23.613 5.21a25.331 25.331 0 00-1.37 14.803 15.65 15.65 0 004.71 9.2zm-.844-17.867c.677-3.781 2.079-7.171 5.288-9.491 5.472-3.958 12.866-1.649 15.672 4.817.597 1.477 1 3.026 1.197 4.606.119.78-.123.973-.877.965-3.439-.033-6.878-.014-10.317-.014-3.404 0-6.808-.015-10.211.011-.702.006-.889-.134-.753-.894zm198.802 80.15c.001-.355-.098-.442-.505-.406-2.573.228-3.238-.403-3.24-2.999-.001-5.925.016-11.85-.005-17.776-.02-5.538-3.04-9.08-8.463-10.037a24.285 24.285 0 00-6.988-.172c-6.015.679-9.75 4.071-10.644 9.687-.22 1.385-.206 1.416 1.148 1.517.565.043 1.143-.034 1.7.048.972.144 1.248-.277 1.344-1.195a6.839 6.839 0 015.269-6.226 14.416 14.416 0 016.636-.248c4.146.705 6.019 3.076 5.783 7.254a3.424 3.424 0 01-3.057 3.628c-1.639.3-3.292.515-4.953.644-3.286.261-6.53.901-9.668 1.907-7.711 2.78-6.819 12.847-2.616 16.04a13.205 13.205 0 007.956 2.52c4.727.121 8.71-1.338 11.538-5.321.326-.46.66-.913 1.147-1.583.04.822.035 1.382.1 1.935.207 1.765.85 3.237 2.75 3.762a10.86 10.86 0 004.22.097.545.545 0 00.55-.628c-.009-.816-.004-1.632-.002-2.448zm-8.073-8.152c-.76 4.687-4.617 8.076-9.579 8.698a9.163 9.163 0 01-7.308-1.716c-3.011-2.432-3.48-7.975 1.392-10.076a26.127 26.127 0 016.456-1.634c1.992-.308 3.991-.572 5.978-.91a5.288 5.288 0 003.22-1.446c-.076 2.52.208 4.822-.159 7.084zM236.478 96.912c-5.869-.363-11.141 1.946-14.078 7.585-2.445 4.692-2.707 9.699-1.972 14.811 1.182 8.223 6.567 13.09 14.652 13.315 7.356.204 12.346-3.298 14.493-10.173.622-1.993.622-1.993-1.431-1.993-2.097 0-2.133-.013-2.834 1.91-3.011 8.25-13.243 8.324-17.375 3.684a15.714 15.714 0 01-3.672-9.202c-.086-.81.157-1.01.959-1.001 4.007.042 8.015.02 12.022.02 4.008-.001 8.016-.028 12.023.022.844.01 1.009-.302.99-1.032a29.672 29.672 0 00-.484-5.072c-1.419-7.155-5.806-12.412-13.293-12.874zm8.646 15.47c-3.332-.033-6.664-.015-9.996-.015-3.26 0-6.522-.026-9.783.018-.864.012-1.142-.093-.952-1.083a14.779 14.779 0 013.433-7.526c5.117-5.54 13.57-4.155 16.82 2.727a15.038 15.038 0 011.34 4.997c.07.72-.172.889-.862.882zm100.752-15.46c-5.994-.417-11.343 1.94-14.253 7.626-2.475 4.836-2.773 9.97-1.845 15.22.684 3.87 2.214 7.35 5.39 9.834 4.285 3.35 9.197 3.63 14.245 2.423 5.086-1.216 7.897-4.814 9.405-9.615.614-1.956.624-1.953-1.377-1.953-2.149 0-2.18-.011-2.908 1.957-2.995 8.094-12.887 8.231-17.087 3.914-2.496-2.567-3.51-5.74-3.916-9.2-.112-.955.042-1.303 1.105-1.286 3.935.063 7.872.025 11.808.025 4.042 0 8.085-.014 12.127.014.677.005.914-.164.91-.88.01-1.772-.15-3.541-.48-5.283-1.415-7.087-5.806-12.286-13.124-12.796zm8.63 15.454c-3.4-.018-6.801-.009-10.202-.009-3.33 0-6.66-.01-9.99.01-.616.004-.846-.051-.718-.803.601-3.526 1.892-6.695 4.724-9.006 5.01-4.086 12.291-2.372 15.38 3.578a14.5 14.5 0 011.537 5.48c.06.683-.166.753-.73.75zM214.292 69.925a14.997 14.997 0 0013.558-7.113c3.428-5.68 3.851-11.795 1.966-18.035-1.906-6.31-6.073-10.355-12.745-11.27-7.55-1.037-13.99 2.012-17.171 9.202a22.441 22.441 0 00-1.649 11.334c.722 7.859 5.597 15.716 16.04 15.882zm-9.004-28.253a11.25 11.25 0 0119.283 1.415 18.002 18.002 0 012.024 8.488c-.05 3.997-.952 7.732-3.602 10.848a11.167 11.167 0 01-17.46-.55c-4.11-5.477-4.22-14.63-.245-20.2z"></path></g></svg>