<svg xmlns="http://www.w3.org/2000/svg" viewBox="0.14000000059604645 0.7325000166893005 1030.8270263671875 294.9859619140625"><g fill="none"><path fill="#D73138" d="M.14 148.5V30.64C.14 10.2 9.27.82 29.43.81c64.94 0 129.89-.31 194.84.31 10.28.1 20.9-.29 31.09 1.84 13.83 2.88 20.33 11.37 20.58 25.83.18 11.08-.39 22.19.13 33.26.32 7-2.47 8.26-8.85 8.24-64.64-.2-129.27 0-193.9-.24-7.32 0-9.14 1.53-9.07 9.14.43 46.88.23 93.77 0 140.65 0 5.35 1 6.88 6.81 6.85 65.26-.36 130.52-.29 195.79-.55 6.7 0 10 1.52 9.19 9-1.55 14.64 2.52 29.62-2.84 44.07-4 10.84-11.49 16.32-23.83 16.34-61.153.12-122.3.168-183.44.14-13 0-26 .09-39-.05C9.79 295.46.14 285.51.14 268.23V148.5z"></path><path fill="#373737" d="M987.34 137.81c11.4 0 22.82.21 34.21-.11 5-.14 6.56 1 5.73 6.32-3.17 20.26-5.88 40.59-8.77 60.89-1.59 11.26-3.27 22.5-4.74 33.78-.69 5.26-2.21 8.81-8.72 8a53.8 53.8 0 00-14.23 0c-10.18 1.43-15.7-1.38-13.55-12.77.35-1.89.36-4.11-2.13-4.51a8.81 8.81 0 00-7.9 2.08c-26.94 24.54-58 24-89.37 12.26-26-9.72-36.77-33-42.1-58-8.1-38.07 4.72-71.1 27.33-101.57 20.56-27.71 48.28-41.17 81.75-42.54 36.3-1.48 67.66 11.12 82.2 47.93.4.857.753 1.735 1.06 2.63 5.3 19 4.69 19.79-14.61 19.8-6 0-12 .16-18.06 0-11-.35-22.05 2-26.92-13.84-4.69-15.22-40.78-16.57-53.89.1-20.71 26.31-27.55 55.59-18.15 87.86 6.33 21.73 28.26 23.39 49 17.1 8.92-2.71 16.06-8.47 21.44-16.32a9 9 0 001.06-9c-1.28-2.84-4.44-1.15-6.86-1-22 1.3-22 1.28-18.38-19.93 3.27-19.08 3.27-19.08 22.69-19.08l21.91-.08zM574.56 246.53c-23.45 0-46.9-.21-70.35.15-6.17.09-7.56-1.66-6.67-7.59a38538.042 38538.042 0 0025.25-172.23c2.7-18.75 2.47-18.79 21.77-18.78 41.19 0 82.39.24 123.58-.162 8.34-.078 9.62 2.812 8.15 10.002-1.58 7.74-2.36 15.64-3.32 23.49-.78 6.45-3 9.62-10.73 9.44-25.66-.6-51.34 0-77-.35-6.09-.08-8.18 1.3-8.27 7.67-.09 6.56-1.78 13.14-3.12 19.64-1.12 5.45.61 7.23 6.25 7.16 21.23-.28 42.47.13 63.69-.29 6.72-.14 8.11 2.07 6.93 8.19-1.66 8.66-2.75 17.43-4 26.17-.84 6-3.06 8.89-10.26 8.65-20.89-.69-41.82 0-62.72-.48-5.31-.12-7.32 1-7.74 6.39-.53 6.92-2 13.77-3.09 20.64-1.19 7.31.73 10.45 9.24 10.25 26.29-.63 52.6 0 78.9-.41 6.65-.1 8.27 1.81 6.94 8.13-2 9.24-3.93 18.58-4.53 28-.38 6-2.9 6.47-7.62 6.45-23.77-.15-47.54-.07-71.3-.07l.02-.06zm-84.3-70.3c-9.66 39.42-49.43 73.44-89 77.94-20.25 2.31-39.54.42-58.29-7.49-23.94-10.1-37.48-28.71-40.67-53.78-5.1-40.06 3-77.86 28.19-109.79 21.93-27.84 52.23-40.58 88.1-39 9.47.42 18.92.85 28.09 3.4 30.35 8.43 49.7 37 50.35 70.26.09 4.4-1.86 5.32-5.7 5.26-14.88-.24-29.77-.59-44.64-.27-6.1.13-5.38-4.17-6.21-7.44-7-27.77-27.94-31.15-47.22-24.3-11.4 4.06-16.81 14.8-22.1 24.81-12.66 24-15.3 49.26-7.07 75.1 6.23 19.54 20.76 23 41.4 17.63 13.48-3.54 22.8-13.26 27.15-26.85 1.11-3.48 2.43-5.55 6.36-5.53 17.01.09 34.04.05 51.26.05zm260.67 70.3c-22.15 0-44.31-.22-66.46.15-6.33.11-7.36-2-6.51-7.69 7.83-52.93 15.44-105.9 23.15-158.85 1.37-9.34 3.2-18.62 4.31-28 .57-4.81 2.55-6.2 7.25-6.12 14.87.27 29.75.18 44.62 0 3.86 0 5.4.26 4.65 5.16-5.72 37.63-11.07 75.31-16.4 113-1.54 10.88-2.36 21.86-4.08 32.71-1 6.27 1.38 7.49 7.05 7.43 23.74-.24 47.49.27 71.21-.32 7.94-.2 9 2.72 7.84 9.28-1.49 8.69-2.66 17.45-3.7 26.21-.62 5.18-2.47 7.36-8.36 7.23-21.52-.45-43-.17-64.57-.17v-.02z"></path><path fill="#D73138" d="M240.41 160.68c-8.21 0-16.44-.16-24.65.06-5.06.14-7.44-1.42-7.38-7 .22-20.74-2-16.73 16-17 13.9-.2 27.82.16 41.72-.16 6.08-.14 8.35 1.6 8 8.1-.81 15.91-.5 15.92-16.61 15.86h-17.07l-.01.14zm.05 43.39c-8.52 0-17-.18-25.56.06-4.91.14-6.4-1.73-6.59-6.63-.65-17.63-.84-17.62 16.34-17.63 13.57 0 27.15.33 40.71-.15 6.76-.24 8.85 2.09 8.56 8.65-.79 18.25 2.74 15.24-15.47 15.74-6 .17-12 0-18 0l.01-.04zm-.69-86.83c-7.89 0-15.79-.3-23.66.1-5.5.28-8.08-1.13-7.84-7.19.84-21.86-2.62-17.27 17.27-17.64 13.57-.25 27.15.15 40.71-.2 5.88-.15 7.75 1.9 7.41 7.7-1.12 19.19 4.19 17.19-17.79 17.33h-16.1v-.1z"></path></g></svg>