<!DOCTYPE svg PUBLIC "-//W3C//DTD SVG 20010904//EN" "http://www.w3.org/TR/2001/REC-SVG-20010904/DTD/svg10.dtd">
<svg version="1.0" xmlns="http://www.w3.org/2000/svg" width="212px" height="83px" viewBox="0 0 2120 830" preserveAspectRatio="xMidYMid meet">
<g id="layer101" fill="#00003b" stroke="none">
<path d="M1000 783 c1 -5 7 -33 14 -63 12 -53 14 -55 48 -58 42 -4 55 16 35 56 -8 18 -22 28 -40 30 -19 2 -27 9 -27 23 0 10 -7 19 -15 19 -8 0 -15 -3 -15 -7z m78 -81 c4 -26 -22 -31 -32 -6 -10 26 -7 36 12 32 9 -2 18 -13 20 -26z"/>
<path d="M1225 781 c-3 -5 -1 -12 5 -16 6 -4 5 -13 -2 -25 -9 -13 -9 -27 -2 -47 8 -23 16 -29 49 -31 41 -3 41 12 0 20 -12 2 -21 13 -23 27 -3 20 0 23 17 18 21 -5 28 3 14 17 -5 4 -9 12 -9 17 -1 5 -2 14 -3 19 -1 13 -38 13 -46 1z"/>
<path d="M80 735 c-15 -18 -6 -78 15 -95 20 -16 87 -19 92 -3 3 7 -9 11 -32 10 -40 -1 -55 13 -55 56 0 22 4 27 25 27 18 0 25 -5 25 -20 0 -12 7 -20 16 -20 11 0 14 5 10 16 -3 9 -6 22 -6 30 0 19 -74 19 -90 -1z"/>
<path d="M190 743 c1 -5 7 -33 14 -63 12 -52 14 -55 45 -58 31 -3 61 11 61 30 0 5 -11 20 -25 34 -17 17 -32 23 -45 19 -16 -5 -20 -2 -20 19 0 16 -6 26 -15 26 -8 0 -15 -3 -15 -7z m88 -81 c2 -7 -7 -12 -22 -12 -19 0 -26 5 -26 20 0 16 4 18 22 11 12 -4 24 -13 26 -19z"/>
<path d="M322 738 c-18 -18 -15 -63 6 -88 21 -26 92 -34 99 -12 3 9 -3 12 -18 11 -46 -4 -60 1 -69 26 -14 37 -3 55 36 55 19 0 34 5 34 10 0 14 -74 12 -88 -2z"/>
<path d="M476 723 c23 -104 23 -103 58 -103 36 0 62 21 53 44 -8 20 -56 51 -65 41 -4 -4 3 -14 16 -22 28 -20 28 -35 0 -31 -19 2 -25 12 -32 51 -5 30 -13 47 -22 47 -10 0 -13 -8 -8 -27z"/>
<path d="M590 724 c0 -44 17 -64 55 -64 37 0 40 5 29 59 -6 28 -10 31 -45 31 -35 0 -39 -3 -39 -26z m58 -22 c4 -26 -22 -31 -32 -6 -10 26 -7 36 12 32 9 -2 18 -13 20 -26z"/>
<path d="M696 714 c9 -51 11 -54 40 -54 29 0 31 11 5 27 -11 7 -21 22 -23 34 -2 12 -9 24 -16 27 -10 3 -12 -5 -6 -34z"/>
<path d="M765 703 c9 -61 12 -65 35 -50 23 14 26 27 6 27 -7 0 -16 11 -18 25 -3 14 -1 25 3 25 5 0 9 5 9 10 0 6 -10 10 -21 10 -20 0 -21 -4 -14 -47z"/>
<path d="M826 713 c7 -39 19 -61 29 -51 12 11 -8 88 -22 88 -11 0 -12 -9 -7 -37z"/>
<path d="M873 733 c-11 -28 19 -68 55 -71 39 -4 43 15 5 20 -21 2 -29 9 -31 27 -3 21 -1 23 22 17 20 -5 24 -3 20 9 -8 21 -63 20 -71 -2z"/>
<path d="M966 713 c7 -39 19 -61 29 -51 12 11 -8 88 -22 88 -11 0 -12 -9 -7 -37z"/>
<path d="M1119 738 c-5 -55 13 -78 58 -78 34 0 35 1 29 31 -3 17 -6 38 -6 45 0 18 -79 20 -81 2z m59 -36 c4 -26 -22 -31 -32 -6 -10 26 -7 36 12 32 9 -2 18 -13 20 -26z"/>
<path d="M1313 734 c-3 -9 -2 -28 3 -43 8 -21 16 -26 44 -26 31 0 35 3 38 28 2 16 -2 35 -9 43 -16 19 -68 18 -76 -2z m61 -20 c10 -26 7 -34 -13 -34 -18 0 -35 33 -23 44 11 11 30 6 36 -10z"/>
<path d="M1416 735 c-11 -29 16 -70 48 -73 16 -2 33 1 39 7 15 15 -10 41 -39 41 -13 0 -24 5 -24 11 0 7 10 9 25 6 16 -3 24 0 22 7 -6 19 -64 19 -71 1z"/>
<path d="M1510 741 c0 -6 15 -11 33 -12 29 -1 30 -2 7 -8 -18 -5 -25 -14 -25 -31 0 -22 5 -25 38 -28 21 -2 37 1 37 7 0 6 -15 11 -32 12 l-33 1 28 10 c21 7 27 16 25 32 -2 16 -11 22 -40 24 -22 2 -38 -1 -38 -7z"/>
<path d="M1650 741 c0 -6 17 -11 37 -13 47 -4 55 -26 11 -30 -39 -4 -50 -35 -22 -62 20 -20 75 -18 82 3 3 10 -2 12 -20 8 -29 -8 -74 18 -48 27 8 3 24 6 35 8 24 4 32 33 15 53 -14 16 -90 21 -90 6z"/>
<path d="M1760 737 c0 -5 8 -7 18 -5 14 4 28 -9 56 -54 20 -33 42 -58 48 -56 7 3 17 29 24 59 17 69 17 69 -1 69 -8 0 -15 -7 -15 -15 0 -8 -9 -15 -20 -15 -24 0 -26 -16 -4 -28 9 -5 15 -15 12 -23 -3 -8 -16 5 -32 33 -23 39 -32 46 -57 46 -16 -1 -29 -5 -29 -11z"/>
<path d="M1342 638 c3 -7 17 -13 31 -13 35 -1 29 19 -7 23 -20 3 -27 0 -24 -10z"/>
<path d="M1044 523 c4 -16 9 -35 12 -44 4 -14 -6 -18 -53 -24 -69 -8 -130 -33 -158 -65 -15 -16 -20 -36 -20 -79 l0 -57 -25 30 c-32 38 -74 54 -161 62 l-72 7 6 -33 c4 -18 7 -36 7 -40 0 -5 24 -11 53 -15 28 -4 59 -11 68 -16 22 -11 31 -52 19 -84 -9 -24 -13 -26 -67 -23 l-58 3 -35 155 -36 155 -52 0 c-29 0 -53 -4 -54 -8 0 -4 19 -93 43 -197 l44 -190 123 0 c137 0 171 10 197 60 8 16 15 44 15 62 l0 33 18 -30 c50 -81 134 -121 272 -131 91 -6 108 2 91 44 -12 27 -16 30 -82 35 -112 9 -171 50 -187 128 -16 72 6 102 84 115 l41 6 23 -90 c12 -50 30 -98 40 -107 23 -21 123 -37 182 -29 56 8 104 35 119 68 26 56 -19 174 -79 209 -40 23 -155 35 -176 18 -11 -9 -15 -5 -20 26 -13 74 -13 73 -73 73 -55 0 -55 0 -49 -27z m268 -173 c23 -31 27 -98 7 -111 -8 -5 -32 -8 -53 -7 -43 3 -38 -6 -70 121 l-7 28 52 -3 c42 -2 56 -8 71 -28z"/>
<path d="M137 446 c-58 -16 -94 -48 -109 -98 -25 -83 32 -207 117 -255 54 -30 160 -47 244 -38 l68 7 -9 37 -9 37 -92 -1 c-100 0 -141 15 -179 65 -22 30 -33 88 -24 125 12 47 138 78 150 38 3 -10 10 -37 16 -60 l11 -43 54 0 c30 0 55 3 55 8 -1 15 -38 163 -42 167 -9 9 -112 25 -157 24 -25 0 -68 -6 -94 -13z"/>
</g>
<g id="layer102" fill="#012357" stroke="none">
<path d="M1004 768 c3 -13 6 -30 6 -38 0 -13 1 -13 11 0 7 11 8 4 4 -25 -4 -29 -3 -35 4 -20 9 19 10 19 10 -2 1 -17 7 -21 30 -21 23 1 28 5 24 22 -4 18 -3 19 7 6 9 -12 10 -10 4 10 -10 36 -23 50 -50 50 -17 0 -24 6 -24 20 0 12 -7 20 -16 20 -12 0 -15 -6 -10 -22z m78 -63 c-5 -28 -27 -34 -36 -9 -10 25 -7 32 12 37 25 5 30 0 24 -28z"/>
<path d="M1225 781 c-3 -5 -1 -12 5 -16 6 -4 5 -13 -2 -25 -9 -13 -9 -27 -2 -47 8 -24 15 -28 47 -29 38 -1 39 11 2 18 -12 2 -21 13 -23 27 -3 20 0 23 17 18 26 -6 26 0 4 26 -10 11 -12 17 -6 13 9 -5 11 -2 7 8 -7 17 -39 22 -49 7z"/>
<path d="M81 737 c-6 -6 -10 -22 -10 -36 1 -25 2 -25 10 4 7 26 8 25 5 -12 -5 -49 12 -71 41 -54 16 9 16 10 2 11 -19 0 -29 20 -29 55 0 17 7 24 28 27 25 4 28 1 24 -19 -3 -16 0 -23 12 -23 9 0 16 5 16 11 0 5 -4 8 -9 5 -4 -3 -6 5 -4 18 4 21 1 23 -35 23 -23 0 -46 -5 -51 -10z"/>
<path d="M320 736 c-30 -30 8 -114 44 -100 18 7 18 8 -2 15 -12 5 -22 16 -22 26 0 15 -2 16 -10 3 -7 -11 -10 -6 -10 20 0 26 3 31 10 20 6 -10 10 -11 10 -2 0 7 14 12 35 12 19 0 35 4 35 9 0 11 -78 9 -90 -3z"/>
<path d="M475 735 c2 -11 7 -37 11 -59 5 -31 9 -35 16 -22 11 20 0 105 -12 86 -6 -10 -9 -9 -14 1 -3 8 -4 5 -1 -6z"/>
<path d="M590 723 c0 -42 15 -58 55 -59 37 -1 39 3 29 53 -5 26 -10 29 -45 32 -37 2 -39 0 -39 -26z m63 3 c2 3 2 -6 0 -20 -3 -13 -13 -26 -23 -29 -14 -3 -17 -1 -13 11 4 8 2 13 -3 10 -5 -4 -9 4 -9 17 0 19 3 21 21 14 12 -4 24 -6 27 -3z"/>
<path d="M690 733 c0 -15 2 -16 11 -3 7 11 8 4 4 -25 -4 -29 -3 -35 4 -20 9 19 10 19 10 -2 1 -16 7 -23 21 -23 25 0 26 12 1 27 -11 7 -21 22 -23 34 -4 27 -28 38 -28 12z"/>
<path d="M765 703 c8 -55 13 -66 26 -57 5 3 6 11 2 17 -4 7 -6 23 -5 37 2 20 1 22 -7 10 -9 -12 -11 -11 -11 7 0 16 4 21 15 17 8 -4 15 -1 15 5 0 6 -10 11 -21 11 -20 0 -21 -4 -14 -47z"/>
<path d="M873 733 c-3 -9 0 -28 8 -42 11 -20 23 -26 47 -26 39 0 43 12 5 17 -21 2 -29 9 -31 27 -3 21 -1 23 22 17 20 -5 24 -3 20 9 -8 21 -63 20 -71 -2z"/>
<path d="M966 715 c7 -41 19 -63 30 -53 3 4 1 26 -4 50 -5 23 -11 34 -12 23 l-1 -20 -9 20 c-7 14 -8 8 -4 -20z"/>
<path d="M1119 738 c-5 -54 9 -72 56 -74 38 -1 39 3 25 61 l-7 30 -7 -37 c-9 -43 -32 -50 -42 -13 -3 14 -11 22 -17 18 -6 -3 -7 -1 -3 5 4 8 15 8 31 2 20 -7 25 -6 25 5 0 19 -59 21 -61 3z"/>
<path d="M1313 734 c-3 -9 -2 -28 3 -43 8 -21 16 -26 44 -26 31 0 35 3 38 28 2 16 -2 35 -9 43 -16 19 -68 18 -76 -2z m43 -4 c27 10 26 11 28 -27 1 -24 -3 -28 -25 -28 -21 0 -25 4 -22 20 4 15 2 17 -5 6 -7 -10 -9 -6 -9 15 0 16 2 24 4 17 3 -8 12 -9 29 -3z"/>
<path d="M1416 735 c-9 -25 -7 -32 5 -15 8 12 9 9 5 -12 -7 -30 5 -42 47 -44 32 -2 43 11 27 31 -8 9 -21 13 -36 9 -18 -5 -24 -2 -24 11 0 13 6 16 25 12 16 -3 24 0 22 7 -6 19 -64 19 -71 1z m83 -58 c0 -9 -2 -9 -5 0 -4 8 -13 9 -29 3 -16 -6 -27 -6 -31 2 -4 6 -3 9 2 6 5 -3 18 -2 29 2 23 9 35 4 34 -13z"/>
<path d="M1510 740 c0 -8 13 -11 35 -8 27 3 35 0 38 -14 3 -12 4 -10 3 4 -1 19 -8 24 -38 26 -24 2 -38 -1 -38 -8z"/>
<path d="M1650 739 c0 -5 16 -9 35 -9 22 0 38 -6 44 -17 8 -16 4 -18 -27 -18 -30 0 -38 -4 -40 -21 -4 -31 25 -56 61 -52 33 3 51 28 20 28 -15 0 -16 -2 -3 -10 13 -9 13 -10 0 -10 -8 1 -24 7 -34 15 -10 8 -24 11 -30 8 -6 -4 -5 0 2 9 10 13 10 17 0 21 -7 3 4 3 24 0 30 -4 39 -2 44 12 12 30 -10 50 -55 52 -22 1 -41 -3 -41 -8z"/>
<path d="M1760 738 c0 -6 8 -8 18 -6 14 4 28 -9 56 -54 20 -33 42 -58 48 -56 12 4 42 117 33 126 -3 3 -5 -3 -6 -14 0 -18 -1 -18 -9 1 -7 17 -9 17 -9 3 -1 -11 -9 -18 -22 -18 -15 0 -19 -5 -15 -16 4 -10 2 -13 -6 -8 -7 5 -8 3 -3 -6 5 -9 4 -11 -4 -6 -6 4 -9 12 -6 17 11 17 -13 43 -44 45 -17 1 -31 -2 -31 -8z m124 -70 c8 -31 7 -38 -3 -38 -5 0 -8 8 -7 18 0 9 -4 16 -11 15 -7 -2 -10 4 -7 12 9 22 21 18 28 -7z"/>
<path d="M1524 705 c-3 -8 -4 -20 -2 -27 5 -14 78 -19 78 -5 0 5 -16 7 -35 5 -40 -5 -44 -1 -12 12 22 9 22 9 -3 10 l-25 2 25 8 c24 8 24 8 2 9 -12 1 -25 -6 -28 -14z"/>
<path d="M232 701 c-8 -4 -14 -24 -15 -42 -2 -32 0 -34 31 -37 32 -3 62 11 62 30 0 11 -46 58 -57 58 -4 0 -14 -4 -21 -9z m18 -12 c-12 -8 -12 -9 5 -7 11 1 21 -1 23 -5 6 -19 0 -26 -25 -30 -27 -4 -27 -4 4 -6 17 0 34 4 36 9 3 6 4 5 3 -2 -1 -7 -19 -14 -40 -16 -36 -3 -37 -2 -30 25 9 37 13 43 27 43 7 0 6 -4 -3 -11z"/>
<path d="M520 700 c0 -5 9 -14 20 -20 28 -15 25 -33 -5 -28 -14 3 -25 1 -25 -3 0 -5 15 -10 33 -10 31 -2 31 -2 -8 -9 l-40 -8 39 2 c56 2 71 29 33 62 -29 25 -47 31 -47 14z"/>
<path d="M145 634 c-19 -15 -19 -15 9 -12 16 2 31 9 34 16 5 17 -19 15 -43 -4z"/>
<path d="M385 634 c-19 -15 -19 -15 9 -12 16 2 31 9 34 16 5 17 -19 15 -43 -4z"/>
<path d="M1340 641 c0 -17 20 -23 34 -11 10 7 16 8 19 0 3 -6 4 -5 3 2 -3 15 -56 24 -56 9z"/>
<path d="M1044 523 c4 -16 9 -35 12 -44 4 -14 -6 -18 -56 -24 -33 -4 -57 -11 -54 -16 3 -5 -2 -6 -10 -3 -32 12 -114 -52 -102 -81 3 -9 2 -13 -4 -10 -6 4 -10 -10 -10 -35 0 -27 4 -39 11 -34 8 4 8 0 0 -15 -13 -24 -23 -28 -14 -6 3 10 0 15 -8 13 -7 -2 -14 4 -14 12 0 8 -7 14 -14 12 -7 -1 -10 2 -6 7 8 13 -32 34 -51 27 -8 -3 -13 -2 -10 3 6 8 -63 21 -115 21 -23 0 -29 -5 -29 -21 0 -11 4 -18 9 -15 4 3 6 -5 4 -18 -5 -22 -1 -24 46 -31 27 -4 55 -3 62 1 7 4 9 3 6 -3 -4 -6 -1 -13 7 -16 19 -8 28 -51 16 -82 -9 -25 -13 -26 -73 -24 -62 2 -64 3 -59 27 3 15 1 23 -5 19 -6 -4 -8 4 -5 20 4 20 2 24 -8 18 -10 -6 -12 -4 -6 10 8 21 -3 87 -14 80 -4 -2 -5 7 -2 22 3 14 1 24 -4 20 -5 -3 -9 11 -9 31 -1 63 -9 72 -63 72 -57 0 -61 -2 -54 -36 3 -19 7 -22 13 -12 6 8 6 -1 2 -21 -4 -22 -3 -32 4 -28 6 4 8 -4 5 -20 -3 -16 -1 -24 5 -20 6 4 8 -4 5 -20 -3 -15 -1 -24 5 -20 5 4 8 -7 5 -26 -3 -26 -1 -29 8 -17 10 13 11 12 6 -4 -8 -23 3 -88 14 -81 4 2 5 -7 2 -22 -3 -15 -1 -24 5 -20 5 4 8 -7 5 -26 -3 -25 -1 -29 7 -17 7 10 11 11 11 3 0 -10 30 -13 114 -13 119 0 150 5 139 23 -3 6 -1 7 6 3 16 -10 43 13 37 31 -4 9 -1 11 6 7 8 -5 9 -2 5 10 -4 10 -3 15 3 11 6 -4 10 9 10 32 1 33 2 35 12 18 18 -33 60 -75 70 -69 5 3 7 0 6 -8 -2 -7 5 -12 14 -12 10 1 16 -2 13 -6 -7 -12 32 -23 46 -14 8 5 9 3 4 -6 -6 -10 -1 -12 18 -8 15 3 24 2 22 -2 -5 -8 68 -20 121 -20 43 0 64 9 64 27 0 8 -4 11 -10 8 -6 -3 -7 1 -4 9 3 9 1 16 -6 16 -6 0 -8 5 -5 10 6 9 -28 13 -127 14 -14 1 -24 5 -21 10 4 5 -4 7 -15 4 -12 -4 -20 -2 -16 3 3 5 0 10 -5 10 -6 1 -15 2 -20 3 -12 1 -26 15 -27 27 -1 5 -2 14 -3 20 0 5 -5 7 -11 4 -6 -4 -7 1 -3 11 4 10 2 15 -3 11 -6 -4 -9 7 -6 26 2 22 1 28 -6 18 -7 -10 -9 -6 -9 14 0 19 2 23 8 14 6 -10 9 -8 9 8 0 24 34 53 63 53 10 0 16 4 13 8 -3 5 8 6 24 4 27 -4 30 -9 50 -92 12 -49 30 -96 40 -105 23 -21 123 -37 182 -29 56 8 104 35 119 68 26 56 -19 174 -79 209 -40 23 -155 35 -176 18 -11 -9 -15 -5 -20 26 -13 74 -13 73 -73 73 -55 0 -55 0 -49 -27z m-546 -80 c-16 -2 -40 -2 -55 0 -16 2 -3 4 27 4 30 0 43 -2 28 -4z m814 -93 c23 -31 27 -98 7 -111 -8 -5 -32 -8 -53 -7 -43 3 -38 -6 -70 121 l-7 28 52 -3 c42 -2 56 -8 71 -28z m-669 -17 c-13 -2 -33 -2 -45 0 -13 2 -3 4 22 4 25 0 35 -2 23 -4z m545 -270 c-15 -2 -42 -2 -60 0 -18 2 -6 4 27 4 33 0 48 -2 33 -4z"/>
<path d="M195 450 c13 -6 5 -7 -24 -3 -30 4 -42 3 -38 -5 4 -6 0 -8 -11 -5 -26 6 -78 -40 -92 -83 -13 -39 -5 -128 11 -119 5 3 6 -1 3 -9 -12 -31 73 -135 97 -121 8 6 10 4 4 -5 -6 -10 -4 -12 9 -7 10 4 15 3 11 -3 -7 -12 40 -24 56 -14 7 4 10 3 6 -3 -7 -12 64 -24 127 -21 39 1 38 2 -14 9 -43 5 -36 6 31 3 l86 -4 -5 25 c-2 14 -8 23 -12 20 -5 -3 -6 3 -3 13 4 16 -4 18 -101 17 -58 -1 -103 2 -100 6 6 10 -26 20 -38 12 -6 -3 -8 -1 -5 4 8 13 -17 36 -27 25 -4 -4 -7 -2 -6 3 4 20 0 36 -9 31 -5 -4 -7 4 -3 16 3 12 1 19 -5 15 -17 -11 3 95 20 108 9 7 15 14 13 16 -2 2 22 5 55 7 59 3 59 3 65 -27 4 -17 10 -29 14 -26 4 2 5 -7 2 -22 -3 -18 -1 -24 6 -19 8 5 10 2 6 -8 -5 -13 3 -16 50 -16 47 0 56 3 56 18 0 14 -2 15 -10 2 -7 -11 -8 -5 -3 19 4 21 2 32 -4 28 -5 -4 -8 7 -5 26 3 25 1 29 -7 17 -8 -11 -9 -7 -4 19 4 24 3 32 -5 27 -8 -5 -10 -1 -5 10 5 14 2 16 -15 12 -12 -4 -20 -3 -17 2 6 9 -71 20 -134 19 -35 0 -41 -2 -26 -9z"/>
</g>
<g id="layer103" fill="#7d1415" stroke="none">
<path d="M1044 523 c4 -16 9 -36 12 -45 4 -13 -3 -18 -28 -21 l-33 -4 38 -1 c24 -1 37 -7 37 -16 0 -8 3 -21 6 -29 4 -11 -2 -17 -18 -20 -21 -4 -21 -4 -2 -6 19 -1 25 -14 44 -90 12 -49 30 -97 40 -106 23 -21 123 -37 182 -29 56 8 104 35 119 68 26 56 -19 174 -79 209 -40 23 -155 35 -176 18 -11 -9 -15 -5 -20 26 -13 74 -13 73 -73 73 -55 0 -55 0 -49 -27z m268 -173 c23 -31 27 -98 7 -111 -8 -5 -32 -8 -53 -7 -43 3 -38 -6 -70 121 l-7 28 52 -3 c42 -2 56 -8 71 -28z"/>
<path d="M1513 449 c-18 -5 -39 -19 -48 -31 -33 -49 -8 -155 51 -210 67 -63 274 -75 304 -18 9 16 -17 157 -46 253 -4 13 -17 17 -60 17 -51 0 -54 -1 -49 -22 3 -13 14 -61 25 -108 11 -47 20 -88 20 -92 0 -17 -78 -7 -103 13 -29 22 -51 86 -41 114 7 17 20 17 80 -1 18 -5 20 -2 16 26 -7 50 -79 79 -149 59z"/>
<path d="M1804 443 c2 -10 15 -56 27 -103 12 -47 28 -97 36 -112 19 -39 67 -60 147 -66 l68 -5 -7 34 c-10 47 -12 49 -46 49 -45 0 -71 36 -94 132 l-21 83 -58 3 c-52 3 -57 1 -52 -15z"/>
</g>
<g id="layer104" fill="#3b5074" stroke="none">
<path d="M1004 768 c3 -13 6 -30 7 -38 0 -10 3 -8 9 5 14 32 11 55 -6 55 -12 0 -15 -6 -10 -22z"/>
<path d="M1225 781 c-3 -5 -1 -12 5 -16 6 -4 5 -13 -2 -25 -9 -13 -9 -27 -2 -47 8 -24 15 -28 46 -28 38 0 39 10 3 17 -12 2 -21 13 -23 27 -3 20 0 23 17 18 22 -5 29 7 11 18 -6 4 -7 11 -4 17 5 7 2 8 -6 3 -10 -6 -12 -4 -7 8 5 12 1 17 -13 17 -10 0 -21 -4 -25 -9z m27 -98 c7 -9 7 -13 0 -13 -13 0 -22 25 -21 53 2 19 2 19 6 -3 3 -14 10 -31 15 -37z"/>
<path d="M80 736 c-6 -6 -9 -21 -9 -35 1 -25 2 -25 10 4 7 26 8 25 5 -12 -5 -50 12 -71 41 -53 17 10 17 11 -2 6 -18 -5 -20 0 -23 39 -3 42 -1 45 23 45 18 0 25 -5 25 -20 0 -11 7 -20 15 -20 8 0 15 5 15 11 0 5 -5 7 -10 4 -7 -4 -9 2 -5 17 6 22 3 23 -35 23 -22 0 -45 -4 -50 -9z"/>
<path d="M192 740 c0 -8 3 -26 7 -40 7 -24 8 -24 15 8 4 18 5 36 2 39 -3 4 -6 -2 -7 -13 0 -18 -1 -18 -9 1 -5 12 -8 14 -8 5z"/>
<path d="M320 736 c-16 -16 -11 -62 8 -86 15 -19 22 -21 38 -12 19 11 19 11 -1 13 -11 1 -24 1 -28 0 -5 -1 -6 9 -2 21 5 18 4 20 -4 8 -8 -12 -11 -7 -11 20 0 26 3 31 10 20 6 -10 10 -11 10 -2 0 7 14 12 35 12 19 0 35 3 35 8 0 11 -79 9 -90 -2z"/>
<path d="M475 735 c2 -11 7 -38 11 -60 6 -32 9 -36 15 -20 4 11 8 29 8 40 l0 20 -10 -20 c-7 -15 -8 -9 -4 20 4 26 3 35 -3 26 -8 -11 -11 -11 -16 0 -3 8 -4 5 -1 -6z"/>
<path d="M590 716 c1 -26 2 -28 11 -13 5 9 7 22 4 27 -4 6 2 7 17 1 27 -10 38 -51 14 -51 -9 0 -16 6 -16 13 0 8 -3 7 -10 -3 -12 -20 0 -31 28 -24 13 4 22 15 23 28 1 16 3 13 9 -9 10 -38 12 -9 3 36 -5 28 -7 30 -14 14 -6 -16 -8 -17 -8 -3 -1 12 -9 16 -31 16 -27 -1 -30 -4 -30 -32z"/>
<path d="M761 722 c2 -23 2 -24 6 -5 3 14 9 20 19 16 8 -3 14 -1 14 4 0 5 -9 9 -20 10 -16 1 -20 -4 -19 -25z"/>
<path d="M827 715 c6 -46 10 -55 24 -55 5 0 9 10 8 23 0 21 -1 21 -10 2 -6 -14 -8 -7 -4 25 3 30 2 38 -4 25 l-8 -20 -6 20 c-3 11 -3 2 0 -20z"/>
<path d="M873 734 c-3 -7 -3 -19 0 -26 3 -7 6 -3 6 10 1 12 5 22 10 22 6 0 6 -12 1 -30 -6 -20 -5 -32 3 -37 15 -10 67 -10 67 -1 0 4 -12 8 -27 10 -21 2 -29 9 -31 27 -3 21 -1 23 25 18 15 -4 22 -4 15 -1 -6 3 -10 9 -8 13 3 4 -9 8 -25 8 -17 0 -33 -6 -36 -13z"/>
<path d="M1049 743 c-17 -4 -29 -33 -28 -63 0 -10 3 -8 9 5 8 19 9 19 9 -3 1 -32 32 -25 49 11 11 22 11 31 2 43 -7 7 -15 13 -19 13 -3 -1 -13 -3 -22 -6z m35 -36 c-9 -30 -28 -40 -36 -19 -11 29 -9 40 10 45 26 5 34 -2 26 -26z"/>
<path d="M1116 733 c-3 -8 -1 -11 5 -8 6 4 8 -2 4 -17 -8 -30 13 -49 42 -42 15 4 23 17 28 41 3 19 4 37 2 39 -3 3 -8 -11 -11 -31 -8 -39 -31 -47 -41 -14 -8 24 15 46 27 26 5 -8 8 -7 8 5 0 21 -56 22 -64 1z"/>
<path d="M1315 742 c-3 -3 -4 -17 -4 -31 1 -25 2 -25 9 4 4 17 8 25 9 18 0 -6 10 -9 21 -6 13 3 20 0 20 -8 0 -11 2 -11 10 1 11 17 13 1 4 -24 -8 -22 -44 -21 -45 2 0 14 -2 14 -8 -3 -12 -28 -6 -33 31 -30 28 2 34 7 36 30 2 15 -1 32 -8 39 -11 11 -65 17 -75 8z"/>
<path d="M1415 732 c-3 -8 -3 -17 0 -20 3 -3 5 1 5 9 0 11 2 11 10 -1 8 -12 10 -12 10 -1 0 9 8 12 25 8 16 -3 24 0 22 7 -6 17 -65 16 -72 -2z"/>
<path d="M1510 737 c0 -5 16 -7 35 -5 27 3 35 0 38 -14 3 -12 4 -11 3 4 -1 19 -7 22 -38 24 -21 0 -38 -3 -38 -9z"/>
<path d="M1650 738 c0 -7 57 -13 83 -9 4 0 7 -7 7 -16 0 -14 -8 -18 -37 -18 -32 0 -39 -4 -41 -24 -2 -14 0 -21 6 -17 6 4 13 2 17 -4 3 -5 0 -10 -7 -10 -8 0 -6 -5 5 -11 10 -6 29 -9 44 -7 30 3 44 28 16 28 -15 0 -16 -2 -3 -10 11 -7 6 -10 -20 -10 -23 0 -30 3 -22 9 11 7 10 9 -3 15 -9 3 -13 11 -9 17 4 8 3 9 -4 5 -7 -4 -12 -2 -12 5 0 8 11 10 36 6 39 -6 56 12 37 41 -10 17 -93 25 -93 10z"/>
<path d="M1760 737 c0 -5 8 -7 18 -5 14 4 28 -9 55 -53 37 -58 50 -69 62 -49 11 18 -5 69 -23 73 -12 3 -10 5 6 6 14 1 22 -5 22 -16 0 -9 3 -14 6 -11 3 3 1 21 -5 39 -5 19 -10 26 -10 17 -1 -10 -8 -18 -17 -18 -9 0 -23 -8 -31 -17 -12 -15 -14 -15 -10 -2 3 9 1 22 -3 30 -10 15 -70 20 -70 6z m125 -74 c3 -14 3 -28 0 -32 -11 -10 -34 30 -28 47 5 11 3 13 -7 7 -8 -5 -11 -4 -6 3 10 17 34 3 41 -25z"/>
<path d="M707 720 c-10 -36 -8 -60 3 -35 8 19 9 19 9 -2 1 -16 7 -23 21 -23 11 0 20 5 20 11 0 6 -7 9 -15 5 -8 -3 -14 -2 -13 2 1 4 -1 14 -5 22 -3 8 -7 22 -9 30 -3 9 -7 5 -11 -10z"/>
<path d="M776 692 c-8 -36 5 -65 19 -41 5 8 4 10 -3 5 -7 -4 -12 -1 -12 9 0 13 4 14 20 5 14 -7 20 -7 20 0 0 5 -6 10 -14 10 -8 0 -16 10 -18 23 -3 18 -5 16 -12 -11z"/>
<path d="M1527 713 c-2 -5 -3 -17 -3 -28 1 -15 9 -19 39 -20 20 -1 37 2 37 8 0 5 -16 7 -35 5 -40 -5 -44 -1 -12 12 22 9 22 9 -3 10 l-25 2 25 8 c23 7 23 8 3 9 -12 1 -24 -2 -26 -6z"/>
<path d="M232 701 c-8 -4 -14 -24 -15 -42 -2 -32 0 -34 31 -37 34 -3 62 11 62 32 0 6 -5 3 -11 -6 -12 -21 -79 -26 -78 -5 2 32 14 45 37 36 30 -11 28 -27 -5 -32 l-28 -4 27 -2 c40 -2 56 32 26 53 -26 18 -28 19 -46 7z"/>
<path d="M530 700 c8 -5 11 -10 5 -10 -5 0 -2 -5 8 -11 26 -15 21 -32 -8 -27 -14 3 -25 1 -25 -3 0 -5 15 -10 33 -10 31 -2 31 -2 -8 -9 l-40 -8 39 2 c56 2 71 29 33 62 -15 13 -33 24 -40 24 -7 0 -6 -4 3 -10z"/>
<path d="M1453 702 c-35 -3 -41 -13 -20 -29 16 -13 69 -11 74 3 6 18 -19 30 -54 26z m46 -25 c0 -9 -2 -9 -5 0 -4 8 -13 9 -29 3 -16 -6 -27 -6 -31 2 -4 6 -3 9 2 6 5 -3 18 -2 29 2 23 9 35 4 34 -13z"/>
<path d="M417 453 c-2 -5 4 -37 14 -73 9 -36 17 -58 18 -50 0 8 -6 39 -13 68 l-14 52 47 0 48 0 11 -42 11 -43 -5 40 c-3 22 -8 43 -10 47 -7 10 -102 10 -107 1z"/>
<path d="M311 446 c2 -2 22 -6 44 -9 28 -5 34 -4 20 3 -19 8 -73 14 -64 6z"/>
<path d="M895 428 c-30 -16 -65 -50 -65 -62 0 -6 7 0 16 12 8 12 32 31 52 42 20 10 33 19 27 19 -5 0 -19 -5 -30 -11z"/>
<path d="M392 405 c0 -11 4 -31 8 -45 6 -20 8 -21 8 -5 0 11 -4 31 -8 45 -6 20 -8 21 -8 5z"/>
<path d="M183 375 c-18 -8 -33 -17 -33 -20 0 -3 10 -1 21 6 12 6 42 15 68 19 42 7 43 8 11 8 -19 1 -50 -5 -67 -13z"/>
<path d="M1057 384 c12 -3 24 -13 27 -22 3 -12 4 -11 3 3 -2 14 -10 21 -27 22 -21 1 -21 1 -3 -3z"/>
<path d="M296 355 c14 -58 24 -83 18 -40 -3 22 -10 47 -15 55 -6 10 -7 5 -3 -15z"/>
<path d="M541 350 c0 -8 6 -37 13 -65 8 -27 15 -43 15 -35 0 8 -6 38 -13 65 -8 28 -15 43 -15 35z"/>
<path d="M571 328 c1 -17 3 -18 6 -6 3 12 17 18 46 21 l42 4 -47 1 c-44 2 -48 0 -47 -20z"/>
<path d="M820 308 l0 -42 -27 26 c-31 30 -73 48 -106 47 -12 0 0 -6 28 -14 45 -12 62 -25 113 -89 14 -18 -13 -145 -31 -146 -16 -1 -77 -29 -64 -30 30 0 76 29 91 58 20 38 26 149 8 138 -5 -3 -7 17 -4 44 2 28 2 50 -2 50 -3 0 -6 -19 -6 -42z"/>
<path d="M21 314 c-1 -35 25 -130 39 -139 5 -3 3 10 -5 29 -8 20 -19 59 -24 88 -6 37 -9 43 -10 22z"/>
<path d="M132 290 c0 -19 2 -27 5 -17 2 9 2 25 0 35 -3 9 -5 1 -5 -18z"/>
<path d="M461 260 c0 -8 6 -37 13 -65 8 -27 15 -43 15 -35 0 8 -6 38 -13 65 -8 28 -15 43 -15 35z"/>
<path d="M660 261 c20 -4 42 -11 50 -15 8 -4 6 0 -4 8 -11 9 -34 15 -50 15 -31 -1 -31 -1 4 -8z"/>
<path d="M950 233 c0 -7 12 -25 28 -41 15 -15 20 -19 11 -7 -9 11 -21 29 -27 40 -6 11 -12 14 -12 8z"/>
<path d="M724 194 c0 -30 2 -33 9 -16 5 12 5 26 0 36 -7 12 -9 7 -9 -20z"/>
<path d="M150 212 c0 -15 67 -71 95 -78 13 -3 30 -4 37 -1 7 3 3 6 -10 6 -33 1 -77 26 -101 57 -12 15 -21 22 -21 16z"/>
<path d="M858 185 c26 -50 122 -116 164 -114 7 0 -10 9 -39 20 -35 13 -66 36 -94 67 -23 26 -37 38 -31 27z"/>
<path d="M581 178 c-2 -40 10 -48 69 -48 33 0 61 3 63 8 3 4 -22 7 -56 7 -57 0 -62 2 -68 25 -4 14 -7 18 -8 8z"/>
<path d="M90 137 c26 -30 89 -67 112 -67 7 0 -7 10 -32 21 -25 11 -58 32 -75 47 l-30 27 25 -28z"/>
<path d="M1026 150 c6 -6 28 -13 50 -15 21 -2 30 -2 19 1 -11 3 -33 10 -50 15 -21 7 -26 6 -19 -1z"/>
<path d="M318 123 c12 -2 32 -2 45 0 12 2 2 4 -23 4 -25 0 -35 -2 -22 -4z"/>
<path d="M1143 123 c15 -2 37 -2 50 0 12 2 0 4 -28 4 -27 0 -38 -2 -22 -4z"/>
</g>
<g id="layer105" fill="#5e6f8a" stroke="none">
<path d="M1225 781 c-3 -5 -1 -13 5 -16 8 -5 8 -11 0 -20 -6 -8 -10 -24 -7 -37 4 -21 4 -21 6 3 1 29 25 56 35 41 3 -6 -1 -12 -9 -16 -18 -7 -20 -37 -2 -55 10 -12 8 -13 -8 -7 -11 4 -16 4 -11 -1 4 -4 23 -8 41 -8 35 0 35 10 0 17 -12 2 -21 13 -23 27 -3 20 0 23 17 18 17 -4 19 -2 11 13 -5 9 -6 21 -2 25 4 5 1 4 -7 0 -11 -6 -13 -4 -8 8 5 12 1 17 -13 17 -10 0 -21 -4 -25 -9z"/>
<path d="M82 738 c-7 -7 -11 -23 -11 -37 1 -24 2 -24 8 4 6 27 10 30 41 27 39 -4 39 2 -1 11 -14 4 -31 1 -37 -5z"/>
<path d="M908 738 c-19 -16 -31 -58 -14 -55 6 1 10 -2 9 -8 -1 -5 12 -10 28 -10 37 0 38 13 2 17 -21 2 -29 9 -31 27 -3 21 -1 23 25 18 15 -4 22 -4 15 -1 -6 3 -10 10 -6 15 8 13 -10 11 -28 -3z"/>
<path d="M976 714 c-4 -20 -5 -38 -3 -40 3 -3 8 11 11 32 4 20 5 38 3 40 -3 3 -8 -11 -11 -32z"/>
<path d="M1048 743 c-10 -2 -18 -11 -18 -19 0 -13 2 -13 16 0 18 18 39 22 28 4 -5 -7 -3 -8 6 -3 9 6 10 2 5 -16 -8 -26 -25 -40 -37 -33 -4 3 -8 0 -8 -6 0 -7 7 -9 16 -6 9 3 18 6 20 6 3 0 9 12 14 26 10 25 -1 56 -19 53 -3 -1 -14 -3 -23 -6z"/>
<path d="M1186 716 c-4 -19 -14 -37 -22 -40 -23 -9 -24 -8 -18 12 5 13 4 14 -4 3 -8 -11 -10 -11 -15 0 -3 8 -6 9 -6 3 -2 -19 24 -34 46 -28 15 4 23 17 28 41 3 19 4 37 2 39 -3 3 -8 -11 -11 -30z"/>
<path d="M1314 736 c-3 -8 -4 -23 -2 -33 3 -11 6 -6 9 15 6 34 2 42 -7 18z"/>
<path d="M1344 734 c-18 -15 -18 -15 3 -5 30 15 33 14 27 -6 -5 -15 -4 -16 5 -3 9 13 11 12 12 -5 0 -11 3 -14 6 -7 5 13 -13 42 -26 42 -4 0 -16 -7 -27 -16z"/>
<path d="M1427 743 c7 -2 9 -12 6 -21 -3 -10 -2 -13 4 -6 12 16 41 24 47 13 2 -5 4 -4 2 2 -1 6 -17 13 -36 14 -19 1 -30 0 -23 -2z"/>
<path d="M1510 736 c0 -5 15 -6 34 -3 29 5 36 2 39 -14 4 -15 4 -14 3 3 -1 19 -7 23 -38 23 -21 0 -38 -4 -38 -9z"/>
<path d="M1650 738 c0 -7 49 -11 76 -7 4 0 11 -5 15 -13 6 -9 9 -9 9 -1 0 6 -5 15 -11 19 -16 9 -89 11 -89 2z"/>
<path d="M1760 737 c0 -5 9 -7 20 -4 10 3 21 0 23 -6 1 -5 11 -11 20 -13 13 -2 15 2 8 14 -10 17 -71 25 -71 9z"/>
<path d="M312 700 c0 -19 2 -27 5 -17 2 9 2 25 0 35 -3 9 -5 1 -5 -18z"/>
<path d="M233 703 c-7 -2 -13 -12 -12 -21 0 -11 2 -12 6 -4 2 6 8 10 12 8 4 -3 20 -7 35 -10 22 -4 25 -2 16 8 -6 8 -21 12 -33 9 -18 -4 -19 -3 -7 6 15 11 5 13 -17 4z"/>
<path d="M1463 702 c-13 -2 -23 -8 -23 -13 0 -6 -6 -7 -12 -3 -10 6 -9 3 0 -8 14 -17 34 -15 61 6 12 9 13 7 7 -9 -6 -16 -5 -18 5 -7 18 17 -8 40 -38 34z"/>
<path d="M723 679 c-1 -12 5 -17 18 -16 24 2 24 9 1 23 -15 10 -18 8 -19 -7z"/>
<path d="M1530 685 c-7 -8 -11 -15 -9 -16 25 -4 79 -2 79 4 0 4 -15 7 -32 8 -28 0 -30 2 -13 9 15 7 16 9 4 9 -9 1 -22 -6 -29 -14z"/>
<path d="M1326 669 c4 -7 62 -5 69 3 3 3 -13 5 -34 4 -22 0 -38 -3 -35 -7z"/>
<path d="M333 642 c12 -11 19 -12 33 -3 17 11 16 11 -5 5 -14 -3 -21 -2 -18 3 4 5 -1 10 -9 10 -13 0 -13 -2 -1 -15z"/>
<path d="M1685 650 c3 -6 0 -10 -7 -10 -8 0 -6 -5 5 -11 10 -6 30 -8 45 -6 23 3 22 4 -8 6 -23 1 -31 4 -22 10 11 7 10 9 -3 14 -9 4 -13 3 -10 -3z"/>
<path d="M72 413 c-15 -16 -19 -21 -7 -12 11 9 29 21 40 27 11 6 14 12 8 12 -7 0 -25 -12 -41 -27z"/>
<path d="M822 311 l-2 -43 -35 31 c-20 17 -41 31 -48 31 -7 0 -3 -6 8 -12 11 -6 32 -22 47 -36 23 -21 28 -23 33 -10 4 9 5 31 2 50 -3 29 -4 28 -5 -11z"/>
<path d="M390 136 c0 -2 11 -6 25 -8 14 -3 25 -1 25 3 0 5 -11 9 -25 9 -14 0 -25 -2 -25 -4z"/>
</g>
<g id="layer106" fill="#a0615e" stroke="none">
<path d="M1182 448 c-15 -15 -16 -42 -2 -33 7 4 9 -2 5 -17 -6 -22 -4 -23 47 -19 29 3 46 6 37 8 -10 2 -19 17 -21 33 -4 26 -1 29 26 33 18 2 7 4 -24 5 -32 1 -61 -3 -68 -10z"/>
<path d="M1617 435 c19 -8 33 -22 36 -37 4 -22 4 -22 6 -1 1 23 -32 53 -59 53 -8 -1 -1 -7 17 -15z"/>
<path d="M1672 415 c0 -11 4 -31 8 -45 6 -20 8 -21 8 -5 0 11 -4 31 -8 45 -6 20 -8 21 -8 5z"/>
<path d="M1782 385 c0 -11 4 -31 8 -45 6 -20 8 -21 8 -5 0 11 -4 31 -8 45 -6 20 -8 21 -8 5z"/>
<path d="M1831 340 c0 -8 4 -24 9 -35 5 -13 9 -14 9 -5 0 8 -4 24 -9 35 -5 13 -9 14 -9 5z"/>
<path d="M1512 215 c21 -22 39 -37 41 -35 2 3 -15 20 -37 39 l-41 35 37 -39z"/>
<path d="M1710 242 c0 -7 -17 -13 -37 -14 l-38 -1 34 -4 c33 -4 61 10 48 24 -4 3 -7 1 -7 -5z"/>
<path d="M2031 233 c20 -3 28 -13 37 -41 l11 -37 -6 35 c-7 47 -10 50 -41 49 l-27 -2 26 -4z"/>
<path d="M1253 223 c9 -2 25 -2 35 0 9 3 1 5 -18 5 -19 0 -27 -2 -17 -5z"/>
<path d="M1876 208 c7 -12 64 -40 73 -36 4 2 -12 12 -35 24 -24 11 -41 17 -38 12z"/>
<path d="M1983 163 c9 -2 25 -2 35 0 9 3 1 5 -18 5 -19 0 -27 -2 -17 -5z"/>
</g>
<g id="layer107" fill="#7a889d" stroke="none">
<path d="M1225 781 c-3 -5 -1 -13 5 -16 8 -5 8 -11 0 -20 -6 -8 -10 -24 -7 -37 4 -21 4 -21 6 3 1 29 25 56 35 41 3 -6 -1 -12 -9 -16 -18 -7 -20 -37 -2 -55 10 -12 8 -13 -8 -7 -11 4 -16 4 -11 -1 4 -4 23 -8 41 -8 35 0 35 10 0 17 -23 4 -33 37 -14 49 7 4 14 15 15 23 1 9 -2 13 -9 9 -6 -4 -8 0 -4 10 5 12 1 17 -13 17 -10 0 -21 -4 -25 -9z"/>
<path d="M375 740 l-30 -8 33 -1 c17 0 32 4 32 9 0 6 -1 9 -2 9 -2 -1 -16 -5 -33 -9z"/>
<path d="M620 739 c-13 -9 -13 -10 2 -6 9 3 19 1 22 -6 2 -7 5 -4 5 6 1 20 -7 21 -29 6z"/>
<path d="M906 737 c-11 -8 -16 -20 -13 -28 4 -10 6 -9 6 5 1 14 6 17 29 12 15 -3 21 -3 14 0 -6 3 -10 10 -6 15 8 13 -10 11 -30 -4z"/>
<path d="M1073 735 c0 -8 5 -12 10 -8 5 3 6 -4 2 -18 -8 -26 -25 -40 -37 -33 -4 3 -8 0 -8 -5 0 -27 45 2 54 35 4 13 1 26 -7 32 -10 9 -14 8 -14 -3z"/>
<path d="M1148 739 c-10 -5 -18 -15 -18 -20 0 -6 7 -3 16 5 8 9 20 14 25 11 5 -4 9 -1 9 4 0 14 -10 13 -32 0z"/>
<path d="M1510 736 c0 -5 15 -6 34 -3 19 3 37 1 40 -4 2 -5 3 -4 2 3 -3 14 -76 18 -76 4z"/>
<path d="M1658 738 c4 -3 23 -8 42 -9 19 -2 38 -8 42 -14 5 -6 8 -6 8 2 0 6 -5 15 -11 19 -15 9 -90 11 -81 2z"/>
<path d="M1890 735 c0 -8 -9 -15 -19 -15 -10 0 -22 -7 -25 -16 -3 -8 -11 -12 -17 -8 -7 4 -9 3 -5 -4 3 -6 16 -9 28 -7 12 3 26 -1 30 -8 5 -8 8 -7 8 6 0 9 -8 17 -17 18 -14 0 -13 2 5 9 18 8 33 40 17 40 -3 0 -5 -7 -5 -15z"/>
<path d="M87 688 c-6 -42 13 -65 39 -49 17 10 17 11 -5 8 -13 -1 -26 4 -29 12 -2 8 0 11 5 8 5 -3 8 6 5 24 -5 37 -9 37 -15 -3z"/>
<path d="M151 708 c-1 -10 6 -18 14 -18 8 0 15 5 15 11 0 5 -4 8 -9 5 -5 -4 -12 0 -14 6 -3 8 -6 6 -6 -4z"/>
<path d="M650 696 c0 -17 -27 -29 -43 -20 -8 5 -9 4 -2 -4 15 -17 55 -3 55 19 0 11 -2 19 -5 19 -3 0 -5 -6 -5 -14z"/>
<path d="M1463 703 c-14 -3 -21 -11 -20 -23 1 -13 6 -16 21 -11 11 4 20 15 22 24 1 10 2 16 1 16 -1 -1 -12 -4 -24 -6z"/>
<path d="M542 691 c-11 -7 -11 -9 2 -14 26 -10 19 -30 -9 -25 -14 3 -25 1 -25 -3 0 -16 49 -9 60 9 10 15 10 15 8 -3 -2 -15 -13 -22 -43 -26 l-40 -6 36 -2 c22 0 42 5 49 14 14 17 6 46 -12 43 -7 -2 -12 3 -10 10 2 14 1 14 -16 3z"/>
<path d="M723 679 c-2 -20 5 -23 24 -11 9 6 8 11 -5 19 -15 9 -18 7 -19 -8z"/>
<path d="M1121 694 c-1 -6 5 -16 12 -22 10 -8 13 -6 14 11 2 15 0 18 -6 8 -7 -11 -9 -11 -14 0 -3 8 -6 9 -6 3z"/>
<path d="M1525 672 c8 -8 75 -7 75 1 0 4 -18 7 -40 5 -22 -1 -37 -4 -35 -6z"/>
<path d="M1853 647 c17 -27 41 -29 43 -4 2 13 1 14 -3 2 -5 -18 -25 -15 -31 5 -3 8 0 10 9 5 8 -5 10 -4 6 0 -4 5 -15 10 -23 11 -14 2 -14 0 -1 -19z"/>
<path d="M214 640 c2 -33 97 -20 96 14 0 6 -5 3 -11 -6 -12 -21 -75 -25 -82 -5 -2 7 -3 6 -3 -3z"/>
<path d="M255 650 l-30 -8 27 -1 c15 0 30 4 33 9 3 6 5 9 3 9 -2 -1 -16 -5 -33 -9z"/>
<path d="M331 646 c14 -15 20 -16 35 -6 18 11 18 11 0 6 -10 -4 -26 -1 -35 6 -14 11 -14 10 0 -6z"/>
<path d="M169 641 c11 -7 8 -10 -12 -14 l-27 -4 27 1 c29 1 45 26 16 26 -14 0 -15 -2 -4 -9z"/>
<path d="M822 312 c-1 -30 -6 -41 -14 -36 -7 5 -8 3 -3 -5 13 -22 27 4 22 45 l-4 39 -1 -43z"/>
<path d="M731 327 c2 -2 18 -11 34 -21 l30 -17 -24 20 c-13 12 -28 21 -34 21 -6 0 -8 -1 -6 -3z"/>
<path d="M830 180 c0 -22 2 -40 4 -40 2 0 6 18 8 40 2 22 0 40 -4 40 -5 0 -8 -18 -8 -40z"/>
<path d="M192 168 c16 -16 34 -28 41 -28 6 0 3 6 -8 12 -11 6 -29 18 -40 27 -12 9 -8 4 7 -11z"/>
<path d="M90 137 c14 -16 34 -33 45 -39 21 -11 20 -10 -35 37 l-35 30 25 -28z"/>
<path d="M916 119 c6 -11 64 -42 69 -37 2 2 -14 13 -36 25 -21 12 -37 17 -33 12z"/>
</g>
<g id="layer108" fill="#ba8a73" stroke="none">
<path d="M1030 460 l-35 -7 38 -2 c20 0 37 4 37 9 0 6 -1 9 -2 9 -2 -1 -19 -5 -38 -9z"/>
<path d="M1182 448 c-15 -15 -16 -42 -2 -33 7 4 9 -2 5 -17 -6 -22 -4 -23 42 -19 26 3 38 7 27 9 -15 2 -23 12 -26 32 -4 28 -2 29 36 33 35 3 33 4 -14 5 -33 1 -61 -3 -68 -10z"/>
<path d="M1800 453 c0 -4 24 -6 54 -5 46 3 55 1 60 -15 4 -15 5 -15 3 2 -2 17 -11 20 -60 23 -31 2 -57 -1 -57 -5z"/>
<path d="M1617 435 c17 -7 33 -22 36 -32 4 -15 5 -15 6 -1 1 19 -35 48 -59 48 -8 -1 -1 -7 17 -15z"/>
<path d="M1453 355 c0 -27 2 -38 4 -22 2 15 2 37 0 50 -2 12 -4 0 -4 -28z"/>
<path d="M1440 266 c0 -18 -9 -46 -21 -62 l-21 -29 26 28 c18 19 26 39 26 63 0 19 -2 34 -5 34 -3 0 -5 -15 -5 -34z"/>
<path d="M1570 281 c0 -9 49 -56 53 -50 1 2 -10 16 -25 31 -15 15 -28 23 -28 19z"/>
<path d="M2037 234 c12 -3 24 -13 27 -22 3 -12 4 -11 3 3 -2 14 -10 21 -27 22 -21 1 -21 1 -3 -3z"/>
<path d="M1120 211 c0 -10 39 -46 43 -40 2 2 -7 14 -20 26 -13 12 -23 19 -23 14z"/>
</g>
<g id="layer109" fill="#ccaeab" stroke="none">
<path d="M1040 533 c0 -12 3 -14 8 -6 4 6 30 13 57 16 l50 3 -57 2 c-49 2 -58 -1 -58 -15z"/>
<path d="M1179 444 c-10 -12 -10 -17 -1 -23 7 -4 10 -15 6 -24 -5 -14 0 -17 32 -16 22 1 32 3 23 6 -9 2 -19 17 -21 33 -4 28 -3 29 41 33 44 3 44 3 -10 5 -41 2 -60 -2 -70 -14z"/>
<path d="M1800 453 c0 -4 23 -6 51 -4 35 2 55 -1 61 -10 8 -11 9 -11 5 1 -2 11 -20 16 -60 18 -31 2 -57 -1 -57 -5z"/>
<path d="M1443 265 c0 -22 2 -30 4 -17 2 12 2 30 0 40 -3 9 -5 -1 -4 -23z"/>
</g>
<g id="layer110" fill="#adafbb" stroke="none">
<path d="M1001 773 c0 -13 2 -14 6 -4 5 11 7 11 14 0 7 -11 9 -10 9 4 0 9 -7 17 -15 17 -8 0 -15 -8 -14 -17z"/>
<path d="M1225 781 c-10 -18 17 -23 33 -7 15 15 15 16 -5 16 -12 0 -24 -4 -28 -9z"/>
<path d="M1265 760 c-3 -5 -3 -10 2 -10 4 0 0 -5 -9 -11 -21 -12 -24 -42 -5 -56 15 -13 63 -25 51 -13 -5 4 -18 10 -29 12 -23 4 -33 37 -14 49 7 4 14 15 15 23 3 18 -2 21 -11 6z"/>
<path d="M82 738 c-7 -7 -11 -23 -11 -37 l2 -26 4 25 c3 14 10 31 15 38 13 15 6 16 -10 0z"/>
<path d="M913 740 c-13 -5 -22 -17 -22 -27 1 -17 2 -17 6 0 4 14 11 17 31 13 15 -3 21 -3 14 0 -6 3 -10 10 -6 15 6 11 6 11 -23 -1z"/>
<path d="M1224 736 c-3 -8 -4 -23 -2 -33 3 -11 6 -6 9 15 6 34 2 42 -7 18z"/>
<path d="M1453 740 c-13 -5 -23 -15 -22 -22 0 -10 2 -10 6 0 2 6 11 12 18 12 8 0 17 5 20 10 7 12 7 12 -22 0z"/>
<path d="M1890 737 c0 -8 -10 -18 -22 -20 l-23 -4 23 -2 c22 -1 41 23 28 36 -3 4 -6 -1 -6 -10z"/>
<path d="M233 703 c-7 -2 -13 -12 -12 -21 0 -10 3 -12 5 -5 3 7 13 9 22 6 13 -4 14 -3 3 5 -11 8 -11 10 0 15 8 3 10 5 4 5 -5 0 -16 -2 -22 -5z"/>
<path d="M650 696 c0 -8 -6 -17 -12 -19 -8 -3 -6 -6 5 -6 11 -1 17 6 17 19 0 11 -2 20 -5 20 -3 0 -5 -6 -5 -14z"/>
<path d="M1080 693 c0 -5 -10 -15 -22 -21 -13 -6 -18 -11 -12 -11 16 -1 50 27 41 35 -4 4 -7 3 -7 -3z"/>
<path d="M1443 682 c1 -15 6 -18 20 -13 26 10 26 25 0 29 -16 2 -21 -2 -20 -16z"/>
<path d="M1666 692 c-3 -5 8 -6 25 -4 16 2 29 6 29 8 0 8 -49 4 -54 -4z"/>
<path d="M1826 690 c8 -7 64 -6 64 2 0 4 -15 6 -34 5 -19 -1 -32 -4 -30 -7z"/>
<path d="M903 676 c0 -6 13 -11 29 -11 15 0 28 3 28 6 0 4 -13 9 -28 11 -16 2 -29 -1 -29 -6z"/>
<path d="M297 645 c-7 -17 -72 -21 -80 -5 -3 6 -4 5 -3 -2 4 -20 70 -22 86 -3 7 8 11 18 8 21 -3 3 -8 -2 -11 -11z"/>
<path d="M510 648 c0 -5 11 -8 24 -8 14 0 27 3 29 8 3 4 -8 7 -24 7 -16 0 -29 -3 -29 -7z"/>
<path d="M1891 648 c-1 -20 -11 -23 -29 -8 -7 5 -5 2 3 -7 11 -13 18 -14 26 -6 6 6 9 17 6 25 -4 9 -6 7 -6 -4z"/>
<path d="M409 641 c11 -7 8 -10 -12 -14 l-27 -4 27 1 c29 1 45 26 16 26 -14 0 -15 -2 -4 -9z"/>
<path d="M842 638 c6 -18 28 -21 28 -4 0 9 -7 16 -16 16 -9 0 -14 -5 -12 -12z"/>
<path d="M980 635 c0 -8 7 -15 15 -15 8 0 15 7 15 15 0 8 -7 15 -15 15 -8 0 -15 -7 -15 -15z"/>
<path d="M1342 639 c2 -7 11 -14 19 -17 11 -3 11 -2 -1 7 -12 9 -11 11 7 11 12 0 24 -5 26 -10 3 -6 4 -5 3 2 -1 7 -15 14 -30 16 -19 3 -27 0 -24 -9z"/>
<path d="M1703 623 c9 -2 25 -2 35 0 9 3 1 5 -18 5 -19 0 -27 -2 -17 -5z"/>
<path d="M208 453 c17 -2 47 -2 65 0 17 2 3 4 -33 4 -36 0 -50 -2 -32 -4z"/>
<path d="M417 453 c-3 -4 19 -6 48 -5 45 3 54 1 59 -15 4 -15 5 -15 3 2 -2 17 -11 20 -54 23 -28 2 -53 -1 -56 -5z"/>
<path d="M1018 453 c12 -2 30 -2 40 0 9 3 -1 5 -23 4 -22 0 -30 -2 -17 -4z"/>
<path d="M1181 446 c-9 -10 -9 -16 -1 -21 6 -4 8 -15 5 -26 -4 -13 -2 -19 8 -19 12 0 13 7 7 35 l-8 34 57 4 56 3 -56 2 c-38 1 -60 -3 -68 -12z"/>
<path d="M850 395 c-13 -14 -22 -27 -19 -29 2 -2 14 10 27 25 29 36 24 38 -8 4z"/>
<path d="M23 305 c0 -22 2 -30 4 -17 2 12 2 30 0 40 -3 9 -5 -1 -4 -23z"/>
<path d="M420 281 c0 -6 -24 -12 -52 -14 l-53 -3 58 -2 c45 -2 57 1 57 13 0 8 -2 15 -5 15 -3 0 -5 -4 -5 -9z"/>
<path d="M70 157 c0 -2 15 -16 33 -33 l32 -29 -29 33 c-28 30 -36 37 -36 29z"/>
<path d="M590 138 c0 -5 26 -7 58 -7 61 1 55 6 -15 11 -24 2 -43 0 -43 -4z"/>
</g>
<g id="layer111" fill="#e3e3e7" stroke="none">
<path d="M842 638 c2 -6 11 -13 19 -16 12 -3 12 -2 0 6 -11 8 -11 10 0 15 10 4 8 6 -4 6 -10 1 -17 -4 -15 -11z"/>
<path d="M1342 638 c2 -6 11 -13 19 -16 12 -3 12 -2 0 6 -11 8 -11 10 0 15 10 4 8 6 -4 6 -10 1 -17 -4 -15 -11z"/>
<path d="M219 627 c5 -5 24 -7 42 -5 33 3 33 4 -8 8 -23 3 -39 2 -34 -3z"/>
<path d="M518 623 c12 -2 30 -2 40 0 9 3 -1 5 -23 4 -22 0 -30 -2 -17 -4z"/>
<path d="M417 453 c-3 -5 21 -8 53 -8 32 0 56 3 53 8 -2 4 -26 7 -53 7 -27 0 -51 -3 -53 -7z"/>
<path d="M1181 446 c-8 -10 -9 -16 -1 -21 6 -4 9 -14 8 -22 -2 -9 2 -18 9 -20 8 -3 9 6 3 31 l-8 35 57 4 56 3 -56 2 c-38 1 -60 -3 -68 -12z"/>
<path d="M1660 452 c0 -4 19 -6 43 -4 70 5 76 10 15 11 -32 0 -58 -2 -58 -7z"/>
<path d="M1800 453 c0 -5 27 -8 59 -8 33 0 57 3 54 8 -2 4 -29 7 -59 7 -30 0 -54 -3 -54 -7z"/>
<path d="M593 343 c15 -2 37 -2 50 0 12 2 0 4 -28 4 -27 0 -38 -2 -22 -4z"/>
<path d="M1263 153 c9 -2 25 -2 35 0 9 3 1 5 -18 5 -19 0 -27 -2 -17 -5z"/>
<path d="M1668 153 c12 -2 30 -2 40 0 9 3 -1 5 -23 4 -22 0 -30 -2 -17 -4z"/>
<path d="M599 137 c5 -5 28 -7 52 -5 l44 3 -52 5 c-29 3 -48 1 -44 -3z"/>
<path d="M308 53 c18 -2 45 -2 60 0 15 2 0 4 -33 4 -33 0 -45 -2 -27 -4z"/>
<path d="M1128 53 c18 -2 45 -2 60 0 15 2 0 4 -33 4 -33 0 -45 -2 -27 -4z"/>
</g>


</svg>