<svg xmlns="http://www.w3.org/2000/svg" viewBox="0.6549873352050781 0.07200000435113907 409.3450012207031 54.85499954223633"><g fill="#6B88BB"><path d="M67.447 26.342c-1.585 7.092-3.53 13.099-10.304 19.105-7.494 6.586-17.294 9.48-27.815 9.48-19.672 0-31.274-10.348-28.175-25.545C4.396 13.678 20.321 3.329 40.497 3.329c12.899 0 21.906 4.487 25.509 13.533l-16.502 4.993c-1.297-4.631-5.404-7.67-11.961-7.67-10.737 0-17.943 7.887-19.456 15.269-1.513 7.526 2.738 15.125 13.403 15.125 7.061 0 13.042-2.822 14.844-8.395H33.075l2.018-9.914h32.354v.072zm18.015-.579h.144c3.747-4.052 9.08-5.862 14.988-5.862h2.882l-2.305 11.217c-1.874-.868-3.82-1.085-6.197-1.085-8.36 0-11.386 4.27-12.539 9.987l-2.738 13.316H64.565l6.773-32.928h15.133l-1.01 5.355h.001z"></path><path d="M144.766 38.862h-31.85c-1.009 4.776 1.73 7.31 7.999 7.31 3.242 0 5.764-.87 7.854-3.04h14.556c-4.035 7.743-14.268 11.29-23.996 11.29-14.123 0-23.419-6.152-21.113-17.514 2.234-11 13.331-17.586 27.238-17.586 14.772 0 21.906 7.092 19.6 18.31l-.288 1.23zm-12.682-6.803c-.072-3.112-3.387-5.21-7.494-5.21-4.396 0-8.431 1.809-10.016 5.21h17.51zm33.291-7.381h.144c4.324-3.98 8.791-5.356 14.7-5.356 11.457 0 14.916 5.573 13.259 13.678l-4.18 20.336h-15.132l3.315-16.066c.648-3.112 2.45-8.684-5.044-8.684-6.125 0-8.647 3.546-9.44 7.67l-3.53 17.08h-15.133l6.773-32.928h15.133l-.865 4.27zm62.403 25.039h-.144c-3.315 3.257-8.863 4.776-13.835 4.776-12.61 0-19.889-8.177-17.943-17.585 1.945-9.408 12.322-17.513 24.932-17.513 4.9 0 9.8 1.447 12.322 4.27L237.938.072h15.133l-10.953 53.264h-15.133l.793-3.619zm-16.357-12.81c-.865 4.198 2.09 7.382 8.214 7.382 6.125 0 10.377-3.184 11.241-7.381.865-4.053-2.017-7.454-8.214-7.454-6.125 0-10.377 3.401-11.241 7.454v-.001zm82.651 1.955h-31.85c-1.009 4.776 1.73 7.31 7.999 7.31 3.242 0 5.764-.87 7.854-3.04h14.556c-4.035 7.743-14.268 11.29-23.996 11.29-14.123 0-23.419-6.152-21.113-17.514 2.234-11 13.33-17.586 27.238-17.586 14.772 0 21.906 7.092 19.6 18.31l-.288 1.23zm-12.682-6.803c-.072-3.112-3.387-5.21-7.494-5.21-4.396 0-8.431 1.809-10.017 5.21h17.511zm33.29-7.381h.145c4.324-3.98 8.791-5.356 14.7-5.356 11.457 0 14.916 5.573 13.259 13.678l-4.18 20.336h-15.132l3.315-16.066c.648-3.112 2.45-8.684-5.044-8.684-6.125 0-8.647 3.546-9.44 7.67l-3.53 17.08H293.64l6.773-32.928h15.133l-.865 4.27h-.001zm76.383 14.184h-31.85c-1.009 4.776 1.73 7.31 7.999 7.31 3.242 0 5.764-.87 7.854-3.04h14.556c-4.035 7.743-14.268 11.29-23.996 11.29-14.123 0-23.419-6.152-21.113-17.514 2.234-11 13.331-17.586 27.238-17.586 14.773 0 21.906 7.092 19.6 18.31l-.288 1.23zm-12.682-6.803c-.072-3.112-3.387-5.21-7.494-5.21-4.396 0-8.431 1.809-10.016 5.21h17.51zm28.729-17.09c1.25 1.25 1.874 2.812 1.874 4.531 0 1.797-.625 3.36-1.875 4.61-1.25 1.25-2.812 1.874-4.53 1.874-1.798 0-3.282-.625-4.532-1.875s-1.875-2.812-1.875-4.609c0-1.797.625-3.281 1.875-4.531 1.25-1.25 2.812-1.875 4.531-1.875 1.719-.078 3.281.547 4.531 1.875h.001zm.702-.781C406.328 12.703 404.609 12 402.5 12c-2.031 0-3.828.703-5.313 2.188C395.703 15.672 395 17.391 395 19.5c0 2.11.703 3.828 2.188 5.313C398.672 26.297 400.391 27 402.5 27c2.11 0 3.828-.703 5.313-2.188 1.484-1.484 2.187-3.28 2.187-5.312 0-2.11-.703-3.828-2.188-5.313v.001zm-4.218 5c-.313.156-.781.156-1.406.156h-1.329v-2.969h1.25c.782 0 1.407.078 1.72.313.39.234.546.624.546 1.171.078.625-.156 1.094-.781 1.329zm-4.14 4.374h1.483v-3.28h1.172c.782 0 1.329.077 1.641.234.547.312.781.937.781 1.875v1.015h1.328l-.078-.078c0-.078-.078-.234-.078-.39v-1.25c0-.391-.156-.86-.469-1.25-.312-.47-.78-.704-1.406-.782.547-.078.938-.234 1.172-.39.547-.313.781-.86.781-1.641 0-1.016-.39-1.719-1.25-2.11-.469-.234-1.25-.312-2.265-.312h-2.891v8.36h.078l.001-.001z"></path></g></svg>