<svg xmlns="http://www.w3.org/2000/svg" viewBox="0.2394847869873047 0.6967208385467529 876.9973754882812 107.9932861328125"><g fill="none"><path fill="#010101" d="M63.01 78.55c-18.08 12.55-36.16 12-50.37-1.2-14-13-16.6-40.57-5.47-58.72C16.44 3.5 36.63-2.99 54.66 3.5c6.71 2.41 12.37 6.44 15.89 12.73 2.3 4.1 6.86 8.49 3.13 13.35-2.64 3.46-15.1-.58-18.18-5.2-7.27-10.92-24.76-10.34-32 1.43-7.24 11.77-7.55 24-.87 35.92C30 74.95 50.15 75.8 57.26 63.51c3.27-5.67 3.56-9.3-4.91-9.08-3.45.09-9 2.91-10.19-3.27-1.12-5.76-1.36-11.38 7.91-10.35 8.39.93 19.39-2.63 24.72 1.55 5.66 4.44 1.25 15.89 1.87 24.25a36 36 0 01-.06 8.5c-.6 3.6 2.7 8.77-3.23 10.44-5.65 1.59-9.3-1.05-10.36-7z"></path><path fill="#B58E16" d="M415.46 26.76c7.55 7.15 17.6 8 26.92 10.58 18.19 5.1 25.06 14 22.31 29.1a18.9 18.9 0 01-2.53 7c-9.1 13.73-23 15.37-37.63 14-12.63-1.23-23-6.61-27.64-19.41-1.17-3.2-4.32-8.47.72-9.53 5.04-1.06 11.93-4.32 16 3 5.72 10.28 14.73 13.94 25.78 10.5 3.88-1.21 6.89-3.36 7.44-7.62.55-4.26-2-7-5.6-8.89-6.78-3.62-14.35-4.45-21.61-6.4-15.68-4.22-21.85-11.51-21.18-24.59.55-10.93 7.05-16.94 16.57-20.59a73.38 73.38 0 0129.08 0l-.13-.07c2.42 1.83 5.35 2.58 8.06 3.81a11.6 11.6 0 016.82 6.18c1.9 4.28 6.14 9 1.72 13.55-3.61 3.69-14.51.29-17.59-4.71-6-9.78-19.22-9.48-27.41.62a2.76 2.76 0 01-.89-2.72 8 8 0 00.79 6.19z"></path><path fill="#B58E15" d="M856.48 28.34c1.38 2 3.31 2.06 4.79.59 4.74-4.72 10.08-3.55 15.54-2 0 .6.07 1.2.1 1.8-1.71 11.24-.46 22.54-.74 33.81-.24 9.54.22 19.1-.82 28.62 0 6.16-4 10-8.63 12.45-12.82 6.65-25.91 7-38.78-.31a5.08 5.08 0 01-.77-.54c-4-3.25-9.16-8.3-5.79-12.19 3.07-3.54 10.51-3 15.61.4 2.28 1.53 4.06 3.79 6.07 5.72 3.4 1.67 7 1.38 10.61 1.13 1.26-.09 1.94-.67.71-.41a5.06 5.06 0 01-.34-.81c2.22-2.17 5.11-3.78 5.9-7.11.79-3.33 3.28-7 .53-9.76s-4.79 1.54-7.16 2.52c-12.83 5.26-27 .16-32.44-12.55-4.68-10.9-4.2-21.86.91-32.74 5.76-12.22 25.54-17 34.7-8.62zm5.09 25.98c-.15-10.67-6.14-17.95-14.39-17.49-7.43.38-12.22 7.29-12.1 17.38.13 11.35 4.66 16.97 13.38 16.62 7.79-.31 13.24-7.17 13.11-16.51z"></path><path fill="#B58F15" d="M724.61 45.8a58.27 58.27 0 011.11 12.18c.27 20.19-18.42 39.67-43.85 23 0 6.13-.39 11.71.11 17.2.62 6.92-2.48 8.3-8.76 8.39-6.78.11-8.58-2.29-8.47-8.76.34-21.1.08-42.21.19-63.31 0-3-1.55-7.25 2.19-8.38 4-1.21 9.61-2.59 12.46.79 2.85 3.38 4.08 2.21 6.73.89 17.4-8.69 34-.94 38.29 18zm-29.6-8.72a11.73 11.73 0 00-11.37 6.93 27.13 27.13 0 00.1 23.63c4.05 8.45 16.6 9.29 22.05 1.7 2.82-3.93 3.26-8.71 2.93-13.49.11-3.77 0-7.48-1.82-10.98-2.5-4.91-6.54-7.65-11.89-7.79z"></path><path fill="#B58F16" d="M617.39 30.4a2.16 2.16 0 012.53 0c-.421 3.259-.91 6.526.353 9.655l-.014.063-.029.152c-6.34 8.68-6.62 18.01-2.21 27.41 3.42 7.24 11.25 8.95 18 4.75 6.75-4.2 9.3-16.84 5.36-26.49-3.21-7.86-8.95-10.01-19.41-7.25a1.85 1.85 0 00-.719.184l.159.126c-3.91-3-.7-6.39-.41-9.62 8.36-6.2 16.86-3.94 25.38-.74 12.12 7.91 17 23.44 12.29 39-4.1 13.49-13.18 20.11-26.25 20-5.69-.07-9.84-3.64-16.59-5.8 0 6.74-.18 12.8 0 18.85.28 7.35-5 5.71-9.11 5.87-4.11.16-7.93.19-7.85-6.15.28-22.62.1-45.25.1-67.87l-.002-.362c-.024-2.735-.226-5.793 3.422-6.358 5.65-.88 11.26-1 15 4.58zM509.91 83.71c-3.05-10.63-.76-21.5-1.37-32.25-.71-12.64-4.92-15.72-17.46-12-.92-.5-1.75-.84-1.37.82-6 10.83-3.21 22.64-3.59 34.05-.4 12.6-3.59 14.6-15.84 9.24 2.22-3 .15-6.62 1.36-9.68 0-1.35.22 6.5-1.35 9.69-2.42-18.44-.47-37-1.05-55.44-.17-5.34.51-10.76-.15-16-1.08-8.59 3.18-10 10.38-9.57 4.76.29 7 1.8 6.6 6.72a52.2 52.2 0 000 8.48c.31 4-2 9.34 1.1 11.64 3.1 2.3 6.08-3 9.48-4.15 14.17-4.95 27.44 2.88 28.53 17.73.91 12.21.7 24.52.47 36.78-.13 6.81-5.52 8-15.74 4 2.68-10.39 0-21.06 1.34-31.52-1.08 10.41 1.12 21.06-1.34 31.46z"></path><path fill="#010101" d="M361.98 30.44c3.42 3.32 4.29 7.63 4.36 12.08.21 12.9.29 25.8.33 38.69 0 4.23-8.38 7.37-13.85 3.63-4.25-2.91-6.61-1.34-9.91.1-7.52 3.29-15.15 3.75-22.83.58-7.68-3.17-10.69-9.12-10.48-17.2.21-8.08 4.52-13.09 11.68-15.3 5.65-1.74 11.7-2.27 17.59-3.19 4.4-.68 9.11-1 10.48-6.29a5.68 5.68 0 00-3.26-6.29c-4.72-2.24-11.27-3.37-14 .78-5.18 7.79-11.6 7-18.78 5.8a5.53 5.53 0 01-.19-6.15c8-14.25 37.2-18.57 48.86-7.24zm-16.6 27.79c-9.69.07-19 4.71-18.94 10.2.07 6.32 4.55 7.42 7.93 7.58 9.35.06 14.99-5.08 15.32-12.44.14-3.02.03-5.34-4.31-5.34z"></path><path fill="#020202" d="M126.76 27.7c10 5.47 14.18 14.58 15.16 25.56.43 4.77-1.12 6.87-6.26 6.72-10.07-.29-20.15.11-30.23-.14-8.18-.2-7.33 3.73-4.29 8.68 4 6.51 13.47 8.82 19.78 3.3 6.01-5.25 12.13-5.53 19.63-4.73-3.43 17.12-24.65 25.17-41.34 17.69-15.13-6.79-21.93-27.13-14.28-43.66 7-15.2 26.8-21.63 41.83-13.42zm-14.18 9.24c-6.59-.14-13.33 3.37-13 9.37.38 7.09 8.19 1.07 12.25 3.62 3.77-2.72 11.27 4 11.9-3.99.45-5.58-5.26-8.88-11.15-9z"></path><path fill="#010101" d="M146.72 55.93c0-7.23-.19-14.47.09-21.69.11-2.85-2-7.5 1.94-8.19 4.27-.76 10.34-2.79 13.18 1.52 2.73 4.15 4 2 6.36.66 17.78-10 33.25-2.21 34.61 17.84.76 11.27.06 22.63.42 33.93.21 6.65-4.13 5.86-8.18 5.71-4.05-.15-9.31 1.73-9.12-5.73.23-9.74.13-19.5 0-29.24-.1-6.85-2-12.84-10.32-12.92-8.32-.08-11.76 5-12 12.65-.26 9.74-.5 19.5-.2 29.23.26 8.28-5.58 5.5-9.74 6.06-4.82.64-7.58-.32-7.19-6.26.49-7.88.15-15.76.15-23.57z"></path><path fill="#B58F16" d="M562.47 24.31c18.89-.04 30.88 12.11 30.94 31.35.06 19.18-12 31.69-30.7 31.8-19 .11-32-13-31.71-31.95.29-18.95 12.58-31.16 31.47-31.2zm1.35 13.19c-5.45-.83-10.53 1.2-12.94 5.82-4.25 8.17-4.55 17.22.09 25.29 3.81 6.64 10.79 6.58 17.6 5.21a3.07 3.07 0 003.16-2c4.16-4.69 3.86-10.9 5.58-16.41a2.76 2.76 0 00-.25-2.24c-.71-2.39-1.4-4.79-2.12-7.17-1.65-5.5-5.97-7.71-11.12-8.5z"></path><path fill="#020202" d="M264.3 43.07c.95 2.09.3 4.4.78 6.51 1.73 7.58-2.19 9.13-8.75 9.44-10.53.51-21.19-1.94-31.69.91-.63 6.39 2 11.36 7.8 13.61a15.51 15.51 0 0016.71-3.16c.47-.42.83-1 1.27-1.39a11.2 11.2 0 0113.83-1.28c3 2.21-1.22 7.09-3.79 10.14-8.41 10-23.27 12.68-36.29 6.71-11.93-5.48-18.9-19.71-16.63-34 2.22-13.93 13-24.46 26-26.17 13.29-1.73 28 5.31 30.76 18.68zm-21-4.83c-2.48-1.54-5.39-1.48-8.19-.93-5.32 1.06-10.36 4.27-10.1 9.39.31 6.12 6.49 1.27 9.71 2.76a5 5 0 001.85 0v-.05a23.46 23.46 0 004.67 0c2.81-.59 7.15 2.16 8.21-1.69 1.23-4.48-2.64-7.32-6.15-9.48z"></path><path fill="#B58F16" d="M756.14 54.57c0-6.61-.13-13.23.06-19.84.09-3-1.51-7.11 2.12-8.5 4-1.52 9.33-2.63 12.43.77 3.1 3.4 4.78 2.26 7.79.69 17.48-9.12 31.93-1.79 33.51 17.51 1 11.58.31 23.29.47 34.93.09 6.54-4.62 5.54-8.59 5.56-3.97.02-8.56 1-8.39-5.65.23-9.13.18-18.27 0-27.41-.13-7.22-1-14.4-10.53-14.82-7.58-.33-11.64 4.62-12 14.86-.32 8.8-.32 17.64 0 26.45.27 6.76-3.88 6.64-8.6 6.65-4.72.01-8.78.25-8.38-6.64.48-8.2.12-16.37.11-24.56z"></path><path fill="#040404" d="M391.13 44.49c0 11.63-.36 23.28.13 34.89.31 7.15-4 6.36-8.46 6.36-4.46 0-8.72.75-8.63-6.32.32-23.26.44-46.53 0-69.79-.14-7.65 4.21-6.66 9-6.84 5-.18 8.34.17 8.06 6.81-.51 11.61-.11 23.26-.1 34.89z"></path><path fill="#090909" d="M313.12 37.68c.06 2.047.113 4.097.16 6.15-6.54-7.17-17.31-4.53-22.79 5.58-2 9-.85 18.07-.72 27.08.1 7.19-2.1 9.9-9.63 10.1-7.76.2-7.65-3.79-7.57-9.28.2-14.41 0-28.83.15-43.25 0-2.77-1.85-7.37 2.66-7.74 4.07-.33 9.47-3.33 12.39 2.74 1 2 2.22 3 4.21 1.11a62.9 62.9 0 017-4.29c8.6-3.9 11.3-2.23 12 7.12.17 1.83-.12 3.82 2.14 4.68z"></path><path fill="#B69019" d="M731.32 55.11c0-7.86.23-15.73-.07-23.57-.25-6.24 3.57-6.24 8-6.16 4.43.08 9.1-.78 9 6.19-.16 16-.16 32.03 0 48.09.08 7.15-4.83 5.91-9.09 6.07-4.26.16-8.24.17-8-6.1.3-8.16.07-16.35.07-24.52h.09z"></path><path fill="#010101" d="M291.98 30.17c-.85 3.24-3.63 5.56-4.69 1.41-2-7.82-7.43-4.52-11.23-4.31-4.6.27-2.78 4.88-2.82 7.63-.18 14.13.13 28.28-.19 42.42-.13 5.6 1.41 7.67 7.36 7.67 6.13 0 7.89-1.83 8.11-8 .32-9.18-2.81-18.7 2-27.56-.07 10-.5 20.11-.12 30.14.33 8.71-5.42 7.25-10.71 7.59-5.73.36-8.74-1.06-8.58-7.69.37-14.77 0-29.56.22-44.33.07-3.64-2.35-9.54 3.51-10.14 4.85-.5 11.61-3.8 14.71 4 .22.61 1.58.79 2.43 1.17z"></path><path fill="#B79322" d="M739.9 17c-5.91 1.13-8.8 0-8.88-7-.08-7 3.21-7.58 8.6-7.56 5.39.02 8.81.71 8.88 7.61.07 7.18-3.38 7.88-8.6 6.95z"></path><path fill="#090909" d="M224.64 59.93c1.17-3.75 4.35-2.82 7-2.87 5.88-.11 11.77 0 17.65 0 14.41 0 14.41 0 15.07-13.94 2.07 1.88 1.75 4.55 2.28 6.94 1.51 6.83 0 10.57-8.29 10.1-11.21-.68-22.47-.23-33.71-.23z"></path><path fill="#AF8B00" d="M875.35 91.16c-4.46-4.34.33-8.74.1-13.19-.68-13.42-.3-26.9-.2-40.35 0-3-1-6.33 1.66-8.89.14 17.84.37 35.67.32 53.51-.01 2.97-1.22 5.95-1.88 8.92z"></path><path fill="#B58E15" d="M444.08 3.82H415c9.72-3.89 19.38-4.43 29.08 0z"></path><path fill="#B58F15" d="M619.8 30.73l-2.34-.41c9.33-7.82 19.76-8.43 28.92-1.68-8.32-.48-17-5.48-24.72 1.81-.49.98-1.11 1.07-1.86.28z"></path><path fill="#B58E15" d="M876.81 26.93c-5.24.6-10.93-1.64-15.2 4.2-1.8 2.47-4.33 0-5.13-2.79 6.7-1.56 13.13-7.08 20.33-1.41z"></path><path fill="#B18B00" d="M854.04 96.6c.41.69 4.4.26 1.13 1.87a10.78 10.78 0 01-12.11-1.78l10.98-.09z"></path><path fill="#B18F02" d="M489.72 40.24l-2.93-1.4c.52-.65.92-1.69 1.57-1.88 2-.57 2.43.94 2.73 2.46a1.26 1.26 0 01-1.37.82z"></path><path fill="#B58F16" d="M452.01 7.56c-3.37.18-6.21-.76-8.06-3.81 3.35-.13 6.21.77 8.06 3.81z"></path><path fill="#B08E00" d="M415.46 26.76c-2.58-2.26-2.3-4.88-.53-9.29l.62 5.73-.09 3.56z"></path><path fill="#B08B00" d="M723.86 52.12c-.15 2.92-.31 5.85-.54 10.17-2.06-4.64-1.21-7.8.54-10.17z"></path><path fill="#B18E08" d="M621.97 38.69l-1.71 1.58c-4.13-3-2-6.28-.46-9.55.61-.11 1.24-.2 1.86-.27-.18 2.76-1.71 5.57.31 8.24z"></path><path fill="#AF9100" d="M650.47 58.93V52.8c2.53 2.01.8 4.04 0 6.13z"></path><path fill="#AF8A00" d="M612.89 91.3c1.26 1.9 1.54 3.7.45 5.56-2.23-1.81-.39-3.84-.45-5.56z"></path><path fill="#B28C00" d="M509.91 83.71V50.03c1.1 11.25 4.32 22.55 0 33.68z"></path><path fill="#B58F16" d="M470.29 83.58v-11c1.52 3.73 3.39 7.51 0 11z"></path><path fill="#B09110" d="M568.57 73.8l3.16-2c1.19.55 4 .23 2.8 2.3-1.54 2.65-4.09 2.37-5.96-.3z"></path><path fill="#B18B00" d="M577.31 55.41c-.08-.75-.17-1.5-.25-2.26 1.56-.77 3-1.17 2.95 1.37 0 1 .77 2.67-1 2.87-.51.06-1.14-1.28-1.7-1.98z"></path><path fill="#B58D00" d="M757.97 81.01V31.18h1.16v50.2z"></path><path fill="#B09000" d="M781.51 36.46c2.77-3.17 4.8-1.49 7.65-2.33-2.74 3.07-4.77 1.37-7.65 2.33z"></path><path fill="#B38C00" d="M733.72 54.64V43.93a11.52 11.52 0 010 10.71z"></path></g></svg>