<svg xmlns="http://www.w3.org/2000/svg" viewBox="74.99999237060547 64 449.99993896484375 122.99996948242188"><g fill="none" fill-rule="evenodd"><path fill="#000" fill-rule="nonzero" d="M495.47 123.365c0-2.963.08-4.806.32-5.606.239-.801.638-1.122 1.276-1.122.718 0 1.277.881 1.756 2.643.399 1.442.878 2.643 1.197 3.524 1.117 2.403 2.394 4.245 3.831 5.447 1.437 1.201 3.113 1.762 5.028 1.762 2.554 0 4.63-.72 6.066-2.163 1.436-1.441 2.235-3.444 2.235-5.846 0-2.003-.639-3.685-1.836-5.046-1.197-1.362-4.07-3.124-8.54-5.367-4.47-2.162-7.422-4.165-8.859-6.007-1.437-1.842-2.155-4.085-2.155-6.888 0-4.085 1.357-7.288 4.15-9.771 2.794-2.403 6.465-3.685 11.174-3.685 2.314 0 4.47.24 6.385.641 1.915.4 3.272.961 4.07 1.522.32.24.559.56.718 1.041.16.48.24 1.201.24 2.163 0 2.563-.08 4.325-.32 5.126-.239.8-.638 1.281-1.197 1.281-.638 0-1.277-.72-1.755-2.162a23.401 23.401 0 00-1.357-2.804c-.958-1.441-1.995-2.483-3.113-3.203-1.197-.721-2.474-1.042-3.91-1.042-2.076 0-3.752.561-5.108 1.682-1.357 1.122-1.996 2.483-1.996 4.245 0 2.563 2.953 5.206 8.78 8.01.957.48 1.675.8 2.154 1.04 3.512 1.683 6.146 3.685 7.822 5.928 1.676 2.243 2.474 4.966 2.474 8.01 0 4.965-1.596 8.81-4.709 11.693-3.112 2.883-7.422 4.325-12.77 4.325-2.234 0-4.39-.24-6.464-.8-2.075-.561-3.672-1.202-4.789-2.003-.24-.24-.4-.56-.559-.961-.08-.4-.16-1.202-.16-2.243v-3.364h-.08zm-35.277-16.58c0 6.008 1.357 10.893 4.15 14.498 2.794 3.684 6.465 5.526 11.094 5.526 4.15 0 7.981-1.682 11.493-5.046.479-.48.798-.8.958-.8.319 0 .558.08.638.24.16.16.24.48.24.88 0 .561-.24 1.202-.719 2.003-.478.8-1.197 1.602-2.075 2.483-1.995 2.002-4.31 3.524-7.023 4.645a23.88 23.88 0 01-8.62 1.602c-5.986 0-10.774-2.162-14.366-6.487-3.591-4.325-5.427-10.092-5.427-17.3 0-7.13 1.916-12.816 5.826-17.221 3.911-4.325 8.94-6.568 15.244-6.568 5.108 0 9.258 1.442 12.53 4.405 3.273 2.964 4.949 6.568 4.949 10.893 0 .881-.24 1.442-.798 1.762-.479.32-1.437.48-2.873.48H461.39c-.478 0-.877.081-.957.321-.16.16-.24.641-.24 1.282v2.403zm9.099-7.048c3.75 0 6.305-.4 7.821-1.201 1.517-.801 2.315-2.163 2.315-4.005 0-1.922-.718-3.524-2.235-4.886-1.516-1.361-3.352-2.082-5.587-2.082-2.474 0-4.629.881-6.544 2.643-1.916 1.762-3.193 4.085-3.751 6.808l-.32 1.522v.32c0 .24.08.48.32.561.24.16.558.16.957.16h7.024v.16zm-56.586 31.077v14.177c0 1.441.16 2.402.479 2.963.319.56 1.037.961 2.154 1.362.56.16 1.437.4 2.475.48h.16c.957.08 1.595.24 1.835.48.24.241.399.642.399 1.202 0 .48-.16.801-.559 1.122-.399.32-.878.4-1.596.4-.878 0-2.394-.08-4.55-.4-2.154-.24-3.91-.4-5.267-.4-1.756 0-3.591.08-5.666.4-2.075.24-3.193.4-3.432.4-.559 0-1.038-.16-1.357-.4-.32-.24-.479-.641-.479-1.122 0-.56.08-.96.32-1.201.239-.24.718-.4 1.596-.48.558-.08 1.037-.161 1.356-.241.24-.08.559-.16.878-.24.878-.4 1.517-.801 1.836-1.362.32-.56.479-1.522.479-2.883V99.898c0-1.362-.08-2.403-.4-3.044-.239-.64-.718-1.121-1.356-1.442-.32-.16-.718-.24-1.437-.32-1.037-.08-1.596-.56-1.596-1.282 0-.4.16-.8.4-1.04.239-.321.877-.642 1.915-1.042.479-.16.878-.32 1.356-.56.4-.16.878-.481 1.277-.722a31.835 31.835 0 004.869-3.444c1.596-1.361 2.554-2.002 2.793-2.002.4 0 .639.16.798.48.16.32.24.882.24 1.602v4.886c0 .24.08.4.08.56.08.161.16.161.319.161.08 0 .24-.08.399-.16.16-.08.24-.24.399-.4l1.117-1.202c1.836-2.002 3.751-3.444 5.747-4.325 1.995-.881 4.07-1.362 6.385-1.362 5.108 0 9.338 2.163 12.69 6.408 3.352 4.245 5.028 9.611 5.028 16.099 0 7.288-2.075 13.295-6.226 17.94-4.15 4.646-9.497 7.05-15.962 7.05-1.676 0-3.272-.161-4.788-.561-1.517-.401-3.113-.962-4.63-1.763l-.478.4zm0-28.914v18.502c0 3.043.718 5.366 2.234 6.968 1.517 1.602 3.672 2.403 6.545 2.403 4.23 0 7.742-1.762 10.375-5.287 2.634-3.524 3.99-8.09 3.99-13.776 0-5.606-1.276-10.172-3.91-13.536-2.634-3.364-6.145-5.046-10.455-5.046-2.953 0-5.188.801-6.624 2.403-1.437 1.602-2.155 4.005-2.155 7.369zm-24.901 17.86c0 2.404.239 4.166.638 5.127.4.961 1.117 1.442 2.075 1.442.559 0 1.357-.4 2.235-1.122.958-.72 1.596-1.04 1.995-1.04.4 0 .718.16.878.4.24.24.32.64.32 1.04 0 1.122-1.118 2.644-3.273 4.406-2.155 1.762-4.23 2.643-6.145 2.643-1.597 0-3.033-.64-4.31-1.762-1.277-1.201-2.315-2.883-3.113-5.126h-.638l-2.315 1.762c-2.713 2.082-4.789 3.444-6.305 4.165a10.457 10.457 0 01-4.55 1.041c-2.314 0-4.23-.72-5.586-2.162-1.357-1.442-2.075-3.364-2.075-5.847 0-3.605 1.197-6.728 3.671-9.371 2.474-2.643 6.944-5.447 13.488-8.33l2.794-1.282c.479-.24.798-.48.957-.72.16-.32.24-.801.24-1.682v-7.049c0-3.123-.32-5.206-.958-6.327-.638-1.121-1.756-1.682-3.432-1.682-1.596 0-2.953.48-4.07 1.442-1.117.96-2.315 2.643-3.512 5.206-1.197 2.483-2.394 4.165-3.432 4.966-1.037.8-2.394 1.12-3.99 1.12-.559 0-1.118-.16-1.517-.56-.399-.4-.558-.8-.558-1.281 0-3.444 1.995-6.648 5.906-9.532 3.91-2.963 8.54-4.405 13.887-4.405 3.99 0 6.784.801 8.22 2.323 1.517 1.522 2.235 4.565 2.235 9.13v23.068h.24zm-8.78-2.162v-7.849c0-.4-.08-.64-.16-.88-.08-.161-.239-.321-.398-.321-.08 0-.24 0-.48.08-.239.08-.398.16-.638.24l-3.671 1.602c-2.075.961-3.671 2.243-4.709 3.844-1.117 1.602-1.676 3.525-1.676 5.687 0 2.003.32 3.604 1.038 4.646.718 1.04 1.676 1.602 3.032 1.602 1.996 0 3.752-.882 5.268-2.644 1.676-1.601 2.394-3.684 2.394-6.007zm-42.06-26.59c0 .24 0 .48.08.64.08.16.16.24.24.24.079 0 .238-.08.398-.16.16-.08.4-.24.639-.56l2.155-2.163c1.197-1.282 2.394-2.243 3.591-2.884a7.922 7.922 0 013.751-.96c1.995 0 3.751.64 5.108 2.002 1.357 1.361 2.075 2.963 2.075 4.885 0 1.362-.479 2.563-1.516 3.524-.958.962-2.235 1.442-3.672 1.442-1.596 0-3.272-.8-5.028-2.403-1.756-1.602-2.953-2.403-3.511-2.403-1.357 0-2.315.801-2.953 2.323-.639 1.522-1.038 3.925-1.038 7.049v21.545c0 1.281.16 2.162.559 2.723.399.56 1.117 1.041 2.234 1.442.719.24 1.676.48 2.794.56.08 0 .16.08.16.08.08 0 .16 0 .239.08 1.277.24 1.915.802 1.995 1.602 0 .481-.24.801-.638 1.122-.4.32-.958.4-1.676.4-1.038 0-2.634-.08-4.949-.32-2.234-.24-3.99-.32-5.267-.32-1.437 0-3.193.08-5.188.32-1.995.24-3.272.32-3.751.32-.559 0-1.038-.16-1.357-.4-.32-.24-.479-.721-.479-1.282 0-.8.559-1.281 1.597-1.441h.08s.08-.08.159-.08c.878-.16 1.596-.32 2.235-.561.798-.4 1.356-.801 1.676-1.282.319-.48.479-1.441.479-2.883V99.737c0-1.521-.08-2.563-.32-3.123-.24-.48-.638-.881-1.277-1.202-.24-.16-.718-.24-1.356-.32-1.038-.08-1.597-.56-1.597-1.282 0-.56.639-1.201 1.996-1.922l.08-.08c.718-.32 1.276-.64 1.755-.881.48-.32.958-.56 1.357-.881 1.437-.801 2.873-1.842 4.31-3.124 1.436-1.281 2.314-1.922 2.554-1.922.399 0 .718.16.878.48.16.32.24.882.24 1.602v3.925h.159zm-24.422 28.753c0 2.403.239 4.165.638 5.126.4.961 1.117 1.442 2.075 1.442.559 0 1.357-.4 2.235-1.122.958-.72 1.596-1.04 1.995-1.04.4 0 .718.16.878.4.24.24.32.64.32 1.04 0 1.122-1.118 2.644-3.273 4.406-2.155 1.762-4.23 2.643-6.145 2.643-1.597 0-3.033-.64-4.31-1.762-1.277-1.201-2.315-2.883-3.113-5.126h-.638l-2.315 1.762c-2.713 2.082-4.789 3.444-6.305 4.165a10.457 10.457 0 01-4.55 1.041c-2.314 0-4.23-.72-5.586-2.162-1.357-1.442-2.075-3.364-2.075-5.847 0-3.605 1.197-6.728 3.671-9.371 2.474-2.643 6.944-5.447 13.488-8.33l2.794-1.282c.479-.24.798-.48.957-.72.16-.32.24-.801.24-1.682v-7.049c0-3.123-.32-5.206-.958-6.327-.638-1.121-1.756-1.682-3.432-1.682-1.596 0-2.953.48-4.07 1.442-1.117.96-2.315 2.643-3.512 5.206-1.197 2.483-2.394 4.165-3.432 4.966-1.037.8-2.394 1.12-3.99 1.12-.559 0-1.118-.16-1.517-.56-.399-.4-.558-.8-.558-1.281 0-3.444 1.995-6.648 5.906-9.532 3.91-2.963 8.54-4.405 13.887-4.405 3.99 0 6.784.801 8.22 2.323 1.517 1.522 2.235 4.565 2.235 9.13v23.068h.24zm-8.78-2.163v-7.849c0-.4-.08-.64-.16-.88-.08-.161-.239-.321-.398-.321-.08 0-.24 0-.48.08-.239.08-.398.16-.638.24l-3.671 1.602c-2.075.961-3.671 2.243-4.709 3.844-1.117 1.602-1.676 3.525-1.676 5.687 0 2.003.32 3.604 1.038 4.646.718 1.04 1.676 1.602 3.032 1.602 1.996 0 3.752-.882 5.268-2.644 1.596-1.601 2.394-3.684 2.394-6.007zm-42.06-26.59c0 .24 0 .48.08.64.08.16.16.24.24.24.079 0 .239-.08.398-.16.16-.08.4-.24.639-.56l2.155-2.163c1.197-1.282 2.394-2.243 3.591-2.884a7.922 7.922 0 013.751-.96c1.995 0 3.751.64 5.108 2.002 1.357 1.361 2.075 2.963 2.075 4.885 0 1.362-.479 2.563-1.516 3.524-.958.962-2.235 1.442-3.672 1.442-1.596 0-3.272-.8-5.028-2.403-1.755-1.602-2.953-2.403-3.511-2.403-1.357 0-2.315.801-2.953 2.323-.639 1.522-1.038 3.925-1.038 7.049v21.545c0 1.281.16 2.162.559 2.723.399.56 1.117 1.041 2.234 1.442.719.24 1.677.48 2.794.56.08 0 .16.08.16.08.08 0 .16 0 .239.08 1.277.24 1.915.802 1.995 1.602 0 .481-.24.801-.638 1.122-.4.32-.958.4-1.676.4-1.038 0-2.634-.08-4.949-.32-2.234-.24-3.99-.32-5.267-.32-1.437 0-3.193.08-5.188.32-1.995.24-3.272.32-3.751.32-.559 0-1.038-.16-1.357-.4-.319-.24-.479-.721-.479-1.282 0-.8.559-1.281 1.597-1.441h.08s.08-.08.159-.08c.878-.16 1.596-.32 2.235-.561.798-.4 1.357-.801 1.676-1.282.319-.48.479-1.441.479-2.883V99.737c0-1.521-.08-2.563-.32-3.123-.24-.48-.638-.881-1.277-1.202-.239-.16-.718-.24-1.356-.32-1.038-.08-1.597-.56-1.597-1.282 0-.56.639-1.201 1.996-1.922l.08-.08c.718-.32 1.276-.64 1.755-.881.48-.32.958-.56 1.357-.881 1.437-.801 2.873-1.842 4.31-3.124 1.437-1.281 2.314-1.922 2.554-1.922.399 0 .718.16.878.48.16.32.24.882.24 1.602v3.925h.159zM237.2 119.76c0 2.403.24 4.165.638 5.126.4.961 1.118 1.442 2.075 1.442.56 0 1.357-.4 2.235-1.122.958-.72 1.596-1.04 1.995-1.04.4 0 .719.16.878.4.24.24.32.64.32 1.04 0 1.122-1.118 2.644-3.273 4.406-2.155 1.762-4.23 2.643-6.145 2.643-1.596 0-3.033-.64-4.31-1.762-1.277-1.201-2.314-2.883-3.113-5.126h-.638l-2.315 1.762c-2.713 2.082-4.788 3.444-6.305 4.165a10.457 10.457 0 01-4.549 1.041c-2.314 0-4.23-.72-5.587-2.162-1.357-1.442-2.075-3.364-2.075-5.847 0-3.605 1.197-6.728 3.671-9.371 2.475-2.643 6.944-5.447 13.489-8.33l2.793-1.282c.479-.24.798-.48.958-.72.16-.32.24-.801.24-1.682v-7.049c0-3.123-.32-5.206-.959-6.327-.638-1.121-1.755-1.682-3.431-1.682-1.597 0-2.953.48-4.07 1.442-1.118.96-2.315 2.643-3.513 5.206-1.197 2.483-2.394 4.165-3.431 4.966-1.038.8-2.395 1.12-3.991 1.12-.559 0-1.117-.16-1.516-.56-.4-.4-.56-.8-.56-1.281 0-3.444 1.996-6.648 5.907-9.532 3.91-2.963 8.54-4.405 13.887-4.405 3.99 0 6.784.801 8.22 2.323 1.517 1.522 2.235 4.565 2.235 9.13v23.068h.24zm-8.78-2.163v-7.849c0-.4-.08-.64-.159-.88-.08-.161-.24-.321-.4-.321-.079 0-.239 0-.478.08-.24.08-.399.16-.638.24l-3.672 1.602c-2.075.961-3.671 2.243-4.709 3.844-1.117 1.602-1.676 3.525-1.676 5.687 0 2.003.32 3.604 1.038 4.646.718 1.04 1.676 1.602 3.033 1.602 1.995 0 3.75-.882 5.267-2.644 1.676-1.601 2.395-3.684 2.395-6.007zM159.144 94.45c0-1.121-.16-2.082-.478-2.723-.32-.64-.878-1.121-1.597-1.522-.478-.24-1.197-.4-2.155-.56h-.16c-.717-.08-1.196-.24-1.436-.401-.24-.24-.319-.56-.319-1.041 0-.48.16-.881.479-1.202.32-.32.798-.4 1.357-.4.319 0 1.356.16 3.112.4 1.756.24 3.273.4 4.71.4.638 0 1.436-.08 2.314-.16.878-.08 1.436-.16 1.676-.16.638 0 1.117.08 1.357.32.239.241.319.642.319 1.362v26.432c0 3.604.798 6.407 2.474 8.41 1.676 2.002 3.91 3.043 6.784 3.043 3.033 0 5.347-.961 7.023-2.803 1.676-1.842 2.474-4.405 2.474-7.77V94.452c0-1.201-.16-2.162-.478-2.723-.32-.56-.799-1.041-1.597-1.442a5.943 5.943 0 00-1.995-.56c-.08 0-.16-.08-.16-.08-.798-.08-1.277-.24-1.516-.401-.24-.24-.32-.56-.32-1.041 0-.48.16-.881.48-1.202.319-.32.798-.48 1.356-.48.24 0 1.198.08 2.874.32 1.676.24 3.352.32 4.868.32.718 0 1.516 0 2.394-.08.878-.08 1.357-.08 1.517-.08.638 0 1.117.08 1.357.32.239.241.319.641.319 1.362v33.32c0 1.521.08 2.563.399 3.123.24.56.718 1.041 1.357 1.362.16.08.399.16.558.24.24.08.48.08.958.08.718.08 1.197.24 1.357.4.24.16.32.481.32.802 0 .8-1.118 1.601-3.353 2.322-.32.08-.559.16-.798.24-1.915.641-3.592 1.202-5.188 1.603-1.516.4-2.474.64-2.793.64-.479 0-.798-.16-1.038-.48-.24-.32-.399-.881-.399-1.602v-4.085c0-.48 0-.8-.08-1.041-.08-.24-.16-.4-.319-.4l-.24.24-.478.48-1.197 1.202c-1.437 1.682-3.193 3.043-5.188 3.924-1.995.961-4.07 1.362-6.305 1.362-4.39 0-7.822-1.362-10.376-4.085-2.554-2.723-3.91-6.327-3.91-10.813V94.451h-.32z"></path><path fill="#C02829" d="M93.91 109.06c1.038-.399 1.597-.638 1.916-.797.24-.159.399-.318.399-.477 0-.08-.16-.24-.479-.399-.32-.159-.878-.477-1.755-.875l-2.873-1.592c-3.67-1.911-6.543-4.459-8.538-7.563-1.995-3.105-3.032-6.528-3.032-10.19 0-6.528 2.953-12.022 8.777-16.48C94.15 66.23 101.571 64 110.508 64c6.782 0 13.325 1.194 19.709 3.662.239.08.478.16.638.239.08.08.32.16.479.318 1.596.876 3.51 1.354 5.825 1.354.16 0 .399 0 .877-.08.4 0 .718-.08 1.038-.08l5.186-.318c.08 0 .24 0 .479-.08.798-.08 1.596-.08 2.394-.08 1.755 0 2.952.399 3.59 1.195.639.796.958 2.309.958 4.538 0 .318-.24.477-.639.716-.398.16-.957.319-1.675.319-2.075 0-3.99 0-5.586.08-1.596.079-2.872.159-3.67.238a22.737 22.737 0 012.234 5.493c.479 1.831.718 3.662.718 5.493 0 5.732-2.154 10.509-6.543 14.33-4.388 3.821-10.373 6.21-17.953 7.165-1.357.16-2.633.239-3.75.318-1.118.08-2.235.08-3.352.08-2.074.08-3.67.239-4.787.398-1.117.16-1.995.319-2.713.478-1.676.477-3.112 1.194-4.23 2.07-1.116.875-1.675 1.751-1.675 2.627 0 1.672.958 2.866 2.873 3.582 1.915.637 6.064 1.035 12.527 1.035h3.511c13.246 0 22.422 1.194 27.449 3.503 5.027 2.388 7.58 6.369 7.58 12.021 0 7.324-4.309 13.693-13.006 19.186-8.698 5.493-19.15 8.2-31.439 8.2-9.974 0-17.953-1.433-23.778-4.22-5.825-2.786-8.777-6.527-8.777-11.145 0-1.99.718-3.821 2.075-5.652 1.436-1.751 3.59-3.503 6.463-5.095L90 132.385c.718-.398 1.197-.796 1.436-1.114a1.26 1.26 0 00.4-.956c0-.08-.08-.318-.32-.637-.24-.318-.479-.637-.878-.955l-2.473-2.309c-2.953-2.786-4.947-4.936-6.064-6.528-1.118-1.512-1.676-2.786-1.676-3.821 0-.876.399-1.592 1.117-2.15.718-.636 2.394-1.353 4.947-2.229l7.42-2.627zm4.629 22.37c-2.394 1.512-4.23 3.264-5.506 5.254-1.277 1.99-1.835 4.06-1.835 6.29 0 4.139 1.915 7.562 5.825 10.19 3.83 2.626 8.857 3.98 15.16 3.98 7.5 0 13.565-1.354 18.273-3.98 4.708-2.707 7.022-6.13 7.022-10.27 0-7.325-12.687-11.066-37.982-11.305-.478-.16-.798-.16-.957-.16zm12.767-26.272c4.149 0 7.58-1.671 10.133-5.174 2.554-3.423 3.91-7.882 3.91-13.454 0-5.653-1.276-10.11-3.83-13.534-2.553-3.423-5.984-5.095-10.213-5.095-4.23 0-7.66 1.672-10.294 5.095-2.633 3.423-3.91 7.881-3.91 13.613 0 5.653 1.277 10.11 3.91 13.534 2.634 3.344 6.065 5.015 10.294 5.015z"></path><path fill="#000" fill-rule="nonzero" d="M273.237 171.602h2.081c.56 0 .96-.08 1.44-.24.4-.158.72-.477 1.04-.875.321-.399.561-.797.721-1.195.16-.398.24-.876.32-1.354v-.478c0-.398-.08-.796-.16-1.195-.08-.398-.32-.716-.56-1.035a2.5 2.5 0 00-.88-.717c-.32-.159-.72-.239-1.2-.239h-.56l-2.402-.08v7.408h.16zm-2.08-8.283h5.521c.72 0 1.361.159 1.921.318.56.16.96.398 1.36.797.32.318.64.716.8 1.274.161.478.241 1.035.241 1.673v.637c0 .717-.08 1.433-.32 1.911a4.518 4.518 0 01-.96 1.434c-.4.398-.88.637-1.36.956-.481.239-.961.477-1.441.557-.16.08-.4.08-.56.08-.16 0-.4.08-.56.08h-1.842c-.16 0-.24 0-.4-.08-.08 0-.24-.08-.32-.08v8.044h-2.001v-17.6h-.08zm-11.524 9.239h4.481l-2.24-6.054-2.241 6.054zm-4.482 8.044l6.882-17.522h.48l6.723 17.522h-2.561l-2.4-6.85h-5.363l-2.24 6.85h-1.761.24zm-9.603-9.24l.08.08h.56c.64 0 1.2-.08 1.68-.159.48-.08.88-.239 1.2-.478.321-.239.641-.478.881-.717.24-.238.4-.477.56-.796.08-.16.16-.398.24-.557.08-.16.08-.399.16-.558 0-.16.08-.319.08-.478v-.558c0-.08 0-.238-.08-.318 0-.16-.08-.239-.08-.398-.08-.16-.16-.24-.16-.398-.08-.24-.24-.399-.4-.638-.16-.239-.4-.398-.64-.557a2.93 2.93 0 00-.88-.398c-.32-.08-.72-.16-1.2-.16l-1.921-.08v7.169h-.08zm-2.081 9.24v-17.283h5.362c.72 0 1.36.159 1.92.318.56.24.96.478 1.361.876.32.399.64.876.8 1.354.16.478.24 1.036.24 1.593 0 .558-.08 1.115-.24 1.513-.16.478-.32.877-.64 1.195-.24.319-.56.637-.88.876-.32.24-.64.478-.96.558l-.48.239c-.16.08-.32.08-.481.159-.16.08-.32.08-.4.08-.16 0-.24.08-.4.08l5.842 8.442h-2.562l-5.682-8.283h-.72v8.283h-2.081zm-11.844-8.044h4.481l-2.24-6.054-2.241 6.054zm-4.482 8.044l6.883-17.522h.48l6.722 17.522h-2.48l-2.402-6.85h-5.361l-2.241 6.85h-1.76.16zm-9.603-9.24l.08.08h.64c.64 0 1.2-.08 1.68-.159.48-.08.881-.239 1.201-.478.32-.239.64-.478.88-.717.24-.238.4-.477.56-.796.08-.16.16-.398.24-.557.08-.16.08-.399.16-.558 0-.16.08-.319.08-.478v-.558c0-.08 0-.238-.08-.318 0-.16-.08-.239-.08-.398-.08-.16-.16-.24-.16-.398-.08-.24-.24-.399-.4-.638-.16-.239-.4-.398-.64-.557a2.93 2.93 0 00-.88-.398c-.32-.08-.72-.16-1.2-.16l-1.921-.08v7.169h-.16zm-2.08 9.24v-17.283h5.361c.72 0 1.36.159 1.92.318.56.24.961.478 1.361.876.32.399.64.876.8 1.354.16.478.24 1.036.24 1.593 0 .558-.08 1.115-.24 1.513-.16.478-.32.877-.64 1.195-.24.319-.56.637-.88.876-.32.24-.64.478-.96.558l-.48.239c-.16.08-.32.08-.48.159-.16.08-.32.08-.4.08-.16 0-.24.08-.401.08l5.842 8.442h-2.56l-5.683-8.283h-.72v8.283h-2.08zm-11.845-8.044h4.482l-2.241-6.054-2.24 6.054zm-4.481 8.044l6.882-17.522h.48l6.722 17.522h-2.56l-2.401-6.85h-5.362l-2.24 6.85h-1.761.24zm-15.366-6.69v-10.593c.08.08.24.08.32.08.08 0 .16.079.24.079h1.2c.08 0 .16 0 .16-.08.08 0 .08 0 .16-.08v10.195c0 1.195.08 2.15.321 2.947.24.797.56 1.434.96 1.912.4.478.96.876 1.52 1.115a4.772 4.772 0 001.842.398c.88 0 1.6-.16 2.16-.398.64-.24 1.12-.637 1.44-1.195.32-.557.641-1.195.801-1.911.16-.717.32-1.593.4-2.629V163.32c.08 0 .08.08.16.08s.08.079.16.079h.88c.08 0 .16 0 .16-.08.08 0 .16-.08.16-.08v9.956c0 1.195-.16 2.23-.4 3.107a7.773 7.773 0 01-1.12 2.469c-.48.716-1.12 1.274-1.92 1.592-.8.32-1.841.478-2.962.478h-.32c-1.2 0-2.24-.159-3.04-.557a3.613 3.613 0 01-1.841-1.593c-.4-.717-.72-1.513-.96-2.31-.4-.717-.48-1.593-.48-2.548zM166 172.159c.08-1.354.24-2.469.48-3.424.32-.956.72-1.753 1.2-2.39.48-.637 1.04-1.195 1.601-1.593.56-.398 1.12-.796 1.76-1.035.32-.16.641-.24.961-.319.32-.08.64-.16.96-.16.32-.079.64-.079.88-.158.32 0 .56-.08.801-.08.48 0 .96 0 1.44.08l1.441.239c.48.08.96.239 1.44.477.48.24.96.478 1.441.717l-.72 2.15c-.08 0-.16-.079-.24-.159l-.24-.239c-.08-.08-.16-.238-.24-.318l-.32-.319c-.24-.159-.4-.398-.72-.557-.24-.16-.561-.319-.881-.478-.32-.16-.64-.239-1.04-.319-.4-.08-.8-.159-1.281-.159h-.4c-.16 0-.32 0-.48.08-.16 0-.32 0-.48.08-.16 0-.32.079-.48.159-.56.159-1.041.398-1.601.796-.48.398-.96.797-1.44 1.354-.48.558-.8 1.195-1.041 1.991-.24.797-.4 1.752-.48 2.788V172c0 1.195.16 2.31.4 3.345.32 1.036.72 1.912 1.28 2.628.56.797 1.28 1.354 2.081 1.673.8.398 1.6.558 2.641.558.4 0 .72 0 1.12-.08.32 0 .72-.08 1.04-.16.32-.079.641-.159.881-.318.24-.16.48-.239.64-.398v-6.531l.08.08h1.36c.08 0 .16 0 .24-.08.08 0 .161-.08.241-.08v7.328c-.08 0-.16.08-.24.08-.08 0-.16.079-.32.079-.08.08-.24.08-.32.16-.08 0-.24.079-.4.079-.24.08-.56.16-.8.16-.24.079-.56.079-.801.158-.24.08-.48.08-.72.16s-.48.08-.72.08-.48.079-.64.079h-.881c-1.2 0-2.32-.16-3.361-.558-.96-.398-1.84-.955-2.561-1.831a7.479 7.479 0 01-1.6-2.788c-.8-1.115-.961-2.31-.961-3.664zm206.077 8.14v-16.754H380c0 .078 0 .156-.08.234 0 .078 0 .078-.08.156v1.169c-.24-.078-.4-.078-.64-.156-.24 0-.48-.078-.72-.078h-4.563v5.922h3.28l2.082-.234c0 .078 0 .156-.08.234 0 .078 0 .078-.08.156v.701c0 .078 0 .156.08.234 0 .078.08.156.08.234l-2.561-.234h-2.721v6.935c.08 0 .24.078.32.078h2.561c.32 0 .56 0 .881-.078.24 0 .56 0 .8-.078.24 0 .48-.078.72-.078s.4-.078.56-.078c0 .078 0 .156-.08.234 0 .078-.08.156-.08.234v.779c0 .078 0 .156.08.156 0 .078 0 .078.08.078h-7.762v.234zm-11.045-16.754h7.763v1.247c0 .078 0 .156.08.234 0 .078 0 .156.08.234h-.48c-.08 0-.08 0-.16-.078-.24 0-.4-.078-.64-.078s-.4-.078-.64-.078-.4-.078-.64-.078-.4-.078-.64-.078c-.401 0-.881-.078-1.361-.078h-1.361v5.922h3.281l2.241-.156c0 .078 0 .156-.08.234 0 .078 0 .078-.08.156v1.169l-2.24-.234h-3.282v8.416h-1.92v-16.754h.08zM344.145 180.3v-16.91h1.04l10.485 12.858V163.39c.08.078.08.078.16.078s.08.077.16.077h.64c.08 0 .16 0 .16-.077.08 0 .08-.078.16-.078v16.83h-.88l-10.724-13.246v13.247h-1.12c.08.078 0 .078-.08.078zm-17.207-8.416c0 1.247.16 2.416.4 3.35.32 1.014.72 1.793 1.28 2.494.561.702 1.281 1.17 2.002 1.559.72.311 1.6.545 2.48.545.801 0 1.601-.156 2.242-.545.72-.312 1.28-.857 1.84-1.559.56-.701.96-1.48 1.28-2.493.321-1.013.561-2.104.641-3.35v-.313c0-1.09-.16-2.026-.4-2.96-.32-.858-.72-1.715-1.28-2.416-.56-.701-1.281-1.247-2.001-1.637-.72-.39-1.601-.545-2.481-.545-.8 0-1.601.156-2.161.468-.64.311-1.2.7-1.601 1.324-.4.624-.8 1.169-1.12 1.87a9.602 9.602 0 00-.72 1.948c-.08.234-.08.39-.16.624-.08.234-.08.39-.08.623 0 .156-.08.39-.08.546 0 .078-.08.311-.08.467zm-2.24 0v-.935c.08-1.013.32-1.948.72-2.805.4-.935.96-1.792 1.6-2.572.72-.857 1.52-1.48 2.561-1.87a9.758 9.758 0 013.522-.623c1.36.078 2.48.234 3.441.623.96.312 1.76.857 2.321 1.48.56.624 1.04 1.325 1.44 2.027.4.701.64 1.48.801 2.26 0 .077.08.233.08.311 0 .078 0 .156.08.234 0 .078 0 .156.08.312 0 .078 0 .233.08.311 0 .156.08.39.08.546v.777c0 1.325-.24 2.571-.64 3.662-.4 1.091-1.04 1.948-1.92 2.728-.881.779-1.762 1.324-2.722 1.714-.96.39-2 .545-3.041.545h-.88c-.16 0-.4 0-.56-.078-.161 0-.401-.077-.561-.077-.16-.078-.4-.078-.56-.156a5.528 5.528 0 01-2.081-.935 17.897 17.897 0 01-1.921-1.637c-.64-.701-1.04-1.48-1.36-2.493-.4-.935-.56-2.026-.56-3.35zm-14.647.156c0-1.169.16-2.182.56-3.195s.88-1.948 1.601-2.805c.72-.857 1.6-1.48 2.561-1.948.96-.468 2.081-.623 3.361-.623h1.921c.32 0 .64.077.88.077.32.078.56.156.881.234.32.078.56.156.8.312s.48.234.72.39l-.56 1.87h-.16c-.24-.234-.56-.468-.8-.702-.24-.233-.56-.39-.88-.545-.32-.156-.56-.312-.88-.39-.32-.078-.561-.156-.881-.233h-1.04c-.8 0-1.521.155-2.161.467a4.91 4.91 0 00-1.921 1.48 6.751 6.751 0 00-1.36 2.338c-.32.935-.481 1.948-.481 3.04v.311c0 1.402.24 2.571.48 3.584.32 1.013.8 1.793 1.36 2.338a7.098 7.098 0 001.922 1.325c.64.311 1.36.39 2.16.39h.4c.4 0 .801-.079 1.201-.157s.8-.233 1.12-.39c.4-.155.72-.389 1.041-.545.32-.233.64-.467.88-.701l-.16 1.48c-.08.078-.24.156-.32.234-.08.078-.16.156-.32.156-.08.078-.24.156-.32.156-.08.078-.24.078-.32.156-.16.078-.32.156-.48.156-.16.078-.32.078-.48.156-.08 0-.08 0-.16.077-.08 0-.08 0-.16.078-.24.078-.4.078-.641.156-.24.078-.4.078-.64.156-.24 0-.4.078-.64.078h-.64c-1.041 0-2.082-.156-2.962-.545-.96-.39-1.76-.936-2.561-1.793-.8-.779-1.36-1.714-1.76-2.805 0-1.169-.16-2.415-.16-3.818zm-16.727-4.831c.08-.702.24-1.325.56-1.792.24-.546.56-.935 1.04-1.247.401-.312.881-.546 1.281-.78a6.9 6.9 0 011.361-.389h.64c.4 0 .72 0 1.04.078.32.078.641.156.961.312.32.078.56.233.8.39.24.155.4.389.56.545-.08.078-.16.233-.24.311-.08.078-.08.234-.16.39s-.08.312-.16.468c-.08.155-.08.39-.16.545l-.32-.078s0-.078-.08-.156c0-.078-.08-.156-.08-.156 0-.078-.08-.155-.08-.233 0-.078-.08-.156-.16-.234-.08-.156-.24-.312-.4-.468-.16-.156-.32-.311-.56-.39-.16-.155-.4-.233-.64-.311-.24-.078-.56-.078-.8-.078-.321 0-.641.078-.881.234-.32.156-.56.39-.8.623-.24.312-.48.624-.56.935-.16.312-.16.702-.16 1.091v.468c0 .233.08.39.16.623.08.234.24.468.4.701.16.234.32.39.56.624.24.156.48.39.8.545l2.4 1.091c.401.234.801.468 1.121.78.32.311.56.623.8.934.24.39.32.702.48 1.091.08.39.16.78.16 1.17v.545a8.042 8.042 0 01-.48 1.87c-.24.623-.64 1.169-1.12 1.714-.48.545-1.04.935-1.6 1.169-.56.234-1.28.39-2.001.39h-.8c-.24-.078-.56-.156-.8-.234-.241-.078-.561-.156-.801-.312s-.48-.234-.72-.39c-.16-.155-.4-.311-.56-.39.08-.155.08-.31.16-.467.08-.156.08-.311.08-.39v-1.324l.32-.078c.4.623.72 1.169 1.04 1.558.32.39.64.624.88.702.24.078.56.156.8.234.24.077.48.077.72.077.481 0 .881-.077 1.281-.233.4-.156.64-.39.96-.78.24-.311.401-.7.561-1.09.16-.39.16-.78.24-1.17 0-.31 0-.623-.16-.934a2.845 2.845 0 00-.4-.857 2.8 2.8 0 00-.56-.78c-.24-.233-.56-.39-.88-.545l-2.242-1.169c-.64-.312-1.12-.623-1.52-1.013-.4-.39-.64-.701-.72-1.09l-.24-1.17a3.532 3.532 0 01-.32-1.48zM283 180.298v-16.753h7.923c0 .078 0 .156-.08.234 0 .078 0 .078-.08.156v1.169c-.24-.078-.4-.078-.64-.156-.24 0-.48-.078-.72-.078h-4.563v5.922h3.281l2.081-.234c0 .078 0 .156-.08.234 0 .078 0 .078-.08.156v.701c0 .078 0 .156.08.234 0 .078.08.156.08.234l-2.321-.078h-2.721v6.935c.08 0 .24.078.32.078h2.562c.32 0 .56 0 .88-.078.24 0 .56 0 .8-.078.24 0 .481-.078.721-.078s.4-.078.56-.078c0 .078 0 .156-.08.234 0 .078-.08.156-.08.234v.779c0 .078 0 .156.08.156 0 .078 0 .078.08.078H283v.078zm157.22-12.399c.079-.726.237-1.37.553-1.854.238-.564.554-.967 1.029-1.29.395-.322.87-.564 1.265-.806.396-.16.87-.322 1.345-.403h.633c.395 0 .712 0 1.028.08.317.081.633.162.95.323.316.08.553.242.79.403.238.161.396.403.554.564-.079.081-.158.242-.237.323-.08.08-.08.242-.158.403-.08.161-.08.322-.159.483-.079.162-.079.403-.158.565l-.316-.081s0-.08-.08-.161c0-.08-.078-.161-.078-.161 0-.081-.08-.162-.08-.242 0-.08-.079-.161-.158-.242-.079-.161-.237-.322-.395-.484-.158-.16-.317-.322-.554-.403-.158-.16-.395-.241-.633-.322-.237-.08-.553-.08-.79-.08-.317 0-.634.08-.87.241-.317.161-.555.403-.792.645-.237.322-.475.645-.554.967-.158.323-.158.726-.158 1.129v.483c0 .242.08.403.158.645.08.242.238.483.396.725.158.242.316.403.554.645.237.161.474.403.79.564l2.374 1.129c.395.241.79.483 1.107.806.317.322.554.644.791 1.047.237.403.317.726.475 1.129.079.403.158.806.158 1.209v.562a8.633 8.633 0 01-.475 1.935c-.237.645-.632 1.21-1.107 1.773a4.39 4.39 0 01-1.582 1.21 5.099 5.099 0 01-1.978.402h-.791c-.237-.08-.553-.161-.79-.242-.238-.08-.554-.16-.792-.322-.237-.161-.474-.242-.712-.403a2.405 2.405 0 00-.553-.403c.079-.161.079-.322.158-.484.079-.16.079-.322.079-.403v-1.37l.316-.08c.396.645.712 1.209 1.029 1.612.316.403.632.644.87.725.237.08.554.161.79.242.238.08.475.08.713.08.474 0 .87-.08 1.265-.241.396-.162.633-.403.87-.806.238-.323.396-.726.554-1.129.158-.403.158-.806.238-1.209 0-.322 0-.644-.159-.967a3.006 3.006 0 00-.395-.886 2.896 2.896 0 00-.554-.806c-.237-.242-.554-.403-.87-.565l-2.215-1.208c-.633-.323-1.107-.645-1.503-1.048-.395-.403-.633-.726-.712-1.129l-.237-1.209c-.237-.644-.237-1.128-.237-1.611zm-10.205 13.54V164.11h7.832c0 .081 0 .162-.08.242 0 .08 0 .08-.079.161v1.29c-.237-.08-.395-.08-.633-.161-.237 0-.474-.08-.711-.08h-4.509v6.125h3.243l2.057-.242c0 .08 0 .161-.08.242 0 .08-.079.08-.079.16v.726c0 .08 0 .161.08.242 0 .08.079.161.079.242l-2.532-.242h-2.69v7.173c.08 0 .238.08.317.08h2.532c.316 0 .553 0 .87-.08.237 0 .553 0 .79-.08.238 0 .475-.081.713-.081.237 0 .395-.08.553-.08 0 .08 0 .16-.079.241 0 .08 0 .161-.079.242v.805c0 .081 0 .162.08.162 0 .08 0 .08.078.08h-7.673v.162zm-14.634-18.86c0-.242.08-.483.159-.725s.158-.403.316-.645c.08-.161.237-.322.395-.484.159-.16.238-.241.396-.403.08 0 .08-.08.158-.08.08 0 .08-.08.158-.08.08 0 .08-.081.159-.081h.553c.08 0 .159 0 .238.08.079 0 .158 0 .237.08.079 0 .158.081.237.081 0 0 .08 0 .08.081h.078s.08 0 .08.08c0 0 .079 0 .079.081 0 0 .079 0 .079.08 0 0 .079 0 .079.081 0 0 .079 0 .079.081 0 0 .08 0 .08.08.078 0 .157.081.157.081.08.08.158.08.158.08.08 0 .08.081.159.081s.158.081.158.081c.079.08.237.08.395.161h.317c.079 0 .237 0 .316-.08.08-.081.238-.162.317-.242.079-.08.237-.242.316-.403.08-.161.158-.403.237-.645l.712.161c0 .08 0 .161-.079.242 0 .08-.079.161-.079.322 0 .081-.079.242-.079.323-.08.08-.08.242-.158.322-.08.161-.238.323-.317.564-.079.162-.237.323-.395.484a1.644 1.644 0 01-.475.322c-.158.08-.395.08-.633.08h-.474c-.158 0-.317-.08-.475-.16-.158-.08-.316-.161-.395-.242-.159-.08-.238-.161-.396-.242-.158-.08-.237-.161-.395-.161-.08-.08-.238-.161-.317-.161-.079-.08-.237-.08-.316-.161-.08 0-.158-.081-.237-.081-.159 0-.238 0-.396.08-.08 0-.158.081-.237.162-.08.08-.08.16-.159.242-.079.08-.158.16-.158.322 0 0 0 .08-.079.08 0 .081 0 .081-.079.081v.322l-.554-.322zm-2.373 10.317c0 1.37.158 2.498.396 3.546.316 1.048.712 1.854 1.265 2.579.554.725 1.266 1.209 1.978 1.612.712.322 1.582.564 2.452.564.791 0 1.582-.161 2.215-.564.712-.323 1.266-.887 1.82-1.612.553-.725.949-1.531 1.265-2.58.316-1.047.554-2.175.633-3.465v-.644c0-1.129-.158-2.096-.396-2.983-.237-.886-.712-1.773-1.265-2.498-.554-.726-1.266-1.29-1.978-1.693s-1.582-.564-2.452-.564c-.791 0-1.503.161-2.136.484-.633.322-1.107.725-1.582 1.37a14.247 14.247 0 00-1.107 1.853 8.68 8.68 0 00-.712 2.015c-.08.242-.08.403-.158.645-.08.242-.08.403-.08.645s-.079.403-.079.645c-.079.322-.079.483-.079.645zm-2.215 0v-.968a8.667 8.667 0 01.712-2.901c.396-.887.95-1.773 1.582-2.66.712-.806 1.503-1.45 2.532-1.934a9.15 9.15 0 013.401-.645c1.345.08 2.452.242 3.401.645.95.322 1.74.886 2.294 1.531.554.645 1.029 1.37 1.424 2.096.396.725.633 1.531.791 2.337 0 .08.08.242.08.322 0 .081 0 .162.079.242 0 .08 0 .242.079.323 0 .08 0 .16.079.322 0 .242.079.403.079.564v.806c0 1.37-.237 2.66-.633 3.788-.395 1.129-1.028 2.015-1.898 2.821-.87.806-1.74 1.37-2.69 1.773-.95.403-1.977.564-3.006.564h-.87c-.158 0-.395 0-.554-.08-.158 0-.395-.08-.553-.08-.159-.081-.396-.081-.554-.162-.712-.161-1.424-.484-2.136-.967a17.926 17.926 0 01-1.898-1.693c-.633-.725-1.029-1.531-1.345-2.579-.237-.886-.396-2.095-.396-3.465zm-14.317 0c0-1.37.158-2.58.474-3.627.317-1.048.712-1.935 1.345-2.58.554-.725 1.187-1.289 1.899-1.692.632-.484 1.344-.806 2.056-1.048.238-.08.396-.08.633-.16.237-.082.396-.082.633-.082s.395-.08.633-.08h.553c.396 0 .712 0 1.108.08.316 0 .712.081 1.028.162.158 0 .317.08.475.08.158.08.316.08.395.08.159.081.238.081.396.162.158.08.237.08.395.08.08.081.238.081.317.162.079.08.158.08.316.161.08.08.158.08.238.161.079 0 .158.08.237.08l-.554 2.096h-.158c-.158-.241-.237-.403-.475-.564a3.46 3.46 0 00-.553-.483 7.275 7.275 0 00-.633-.403c-.238-.081-.475-.242-.712-.242-.158-.08-.317-.161-.554-.161-.158-.081-.316-.081-.474-.081-.159 0-.317-.08-.475-.08h-.396c-.87 0-1.66.16-2.294.483-.632.322-1.186.806-1.66 1.45-.396.646-.792 1.29-1.03 2.016-.236.725-.474 1.45-.632 2.176 0 .161-.079.403-.079.564 0 .161-.08.403-.08.564v1.693c0 .16 0 .403.08.564 0 .161.08.403.08.645 0 .16.078.403.157.644a9.58 9.58 0 00.712 1.935c.317.645.712 1.209 1.108 1.773a4.39 4.39 0 001.582 1.209c.633.242 1.265.403 2.056.403.475 0 .95-.08 1.424-.161.475-.081.87-.242 1.187-.484.395-.242.712-.484 1.107-.725.317-.242.712-.565 1.029-.806l-.159 1.773a3.46 3.46 0 01-.553.483c-.238.162-.475.242-.712.323-.238.08-.554.161-.87.242-.317.08-.554.16-.87.241-.159 0-.238 0-.396.081-.158 0-.237 0-.396.08h-1.423l-.554.968c.395 0 .79 0 1.107.08.317.08.554.162.791.403a1.5 1.5 0 01.475.565c.079.241.158.483.158.805v.322c-.079.323-.158.565-.316.807a1.866 1.866 0 01-.554.564c-.237.161-.554.242-.791.322-.316.081-.633.081-.95.081h-.474c-.158 0-.316-.08-.474-.08-.159 0-.317-.081-.475-.081-.158-.08-.317-.08-.475-.161l.317-.806c.079 0 .237.08.316.08.08.08.158.08.317.08.079 0 .158.081.316.081h.237c.238 0 .396 0 .554-.08l.475-.242.316-.322c.08-.08.158-.242.158-.323 0-.08 0-.16-.079-.322-.079-.08-.079-.161-.158-.242-.08-.08-.158-.161-.317-.161-.158-.08-.237-.08-.474-.08h-.633l-.316-.242.632-1.935c-.949-.08-1.819-.322-2.61-.806a7.117 7.117 0 01-2.136-1.692c-.633-.726-1.107-1.612-1.424-2.74-.316-1.37-.474-2.58-.474-4.03zm-14.476 0c0-1.21.158-2.257.554-3.305.395-1.048.87-2.015 1.582-2.901.712-.887 1.582-1.532 2.531-2.015.95-.484 2.057-.645 3.322-.645h1.899c.316 0 .633.08.87.08.316.081.554.162.87.242.317.08.554.161.791.323.237.16.475.241.712.403l-.554 1.934h-.158c-.237-.242-.554-.484-.79-.725-.238-.242-.555-.403-.871-.565-.316-.16-.554-.322-.87-.403-.317-.08-.554-.16-.87-.241h-1.029c-.79 0-1.503.16-2.135.483a4.872 4.872 0 00-1.899 1.532 7.062 7.062 0 00-1.345 2.417c-.316.968-.474 2.015-.474 3.144v.322c0 1.45.158 2.66.474 3.708.317 1.047.791 1.853 1.345 2.417a7.013 7.013 0 001.899 1.37c.632.323 1.344.404 2.056.404h.396c.395 0 .79-.081 1.186-.162a4.52 4.52 0 001.108-.403c.395-.16.712-.403 1.028-.564.317-.242.633-.483.87-.725l-.158 1.531c-.08.08-.237.161-.316.242-.08.08-.159.161-.317.161-.079.08-.237.161-.316.161-.08.081-.238.081-.317.162-.158.08-.316.16-.474.16-.158.081-.317.081-.475.162-.079 0-.079 0-.158.08-.08 0-.08 0-.158.081-.238.08-.396.08-.633.161s-.396.081-.633.162c-.237 0-.395.08-.554.08h-.632c-1.029 0-2.057-.161-2.927-.564a7.572 7.572 0 01-2.532-1.854c-.79-.806-1.344-1.773-1.74-2.901.08-1.21-.158-2.499-.158-3.95zm96.45.227h4.457l-2.228-6.216-2.228 6.216zm-4.455 8.26l6.843-17.993h.478L488 181.383h-2.467l-2.387-7.034h-5.332l-2.228 7.034h-1.591zM466.992 184l6.127-22c.08.082.08.082.16.082s.08.082.159.082h.637c.079 0 .158 0 .158-.082.08 0 .08-.082.16-.082l-6.128 21.918h-1.433c.32.082.24.082.16.082zm-8.912-16.357c.08-.736.238-1.39.557-1.88.238-.573.557-.982 1.034-1.31.398-.327.875-.572 1.273-.817a6.585 6.585 0 011.353-.41h.637c.398 0 .716 0 1.034.083.318.081.637.163.955.327.318.081.557.245.796.409.239.163.398.409.557.572-.08.082-.16.245-.239.327-.08.082-.08.246-.159.41-.08.163-.08.326-.16.49-.079.163-.079.409-.158.572l-.319-.081s0-.082-.08-.164c0-.082-.079-.164-.079-.164 0-.081-.08-.163-.08-.245 0-.082-.079-.163-.158-.245-.08-.164-.24-.327-.398-.491-.16-.164-.319-.327-.557-.409-.16-.163-.398-.245-.637-.327-.239-.082-.557-.082-.796-.082-.318 0-.636.082-.875.246-.318.163-.557.408-.796.736-.239.327-.477.654-.557.981-.159.327-.159.736-.159 1.145v.491c0 .245.08.409.16.654.079.245.238.49.317.736.16.245.319.409.557.654.24.164.478.41.796.573l2.387 1.145c.398.245.796.49 1.115.818.318.327.557.654.795 1.063.239.409.319.736.478 1.145.08.409.159.818.159 1.227v.572a8.823 8.823 0 01-.478 1.963c-.238.654-.636 1.227-1.114 1.8a4.421 4.421 0 01-1.591 1.226 5.092 5.092 0 01-1.99.409h-.796c-.238-.082-.556-.164-.795-.246-.239-.081-.557-.163-.796-.327-.239-.163-.477-.245-.716-.409a2.42 2.42 0 00-.557-.409c.08-.163.08-.327.16-.49.079-.164.079-.327.079-.41v-1.471l.318-.082c.398.654.716 1.227 1.035 1.636.318.409.636.654.875.736.239.081.557.245.796.245.238.082.477.082.716.082a3.22 3.22 0 001.273-.246c.398-.163.637-.408.875-.817.239-.327.398-.736.557-1.145.16-.41.16-.818.24-1.227 0-.327 0-.654-.16-.982a3.064 3.064 0 00-.398-.9 2.94 2.94 0 00-.557-.817c-.239-.245-.557-.409-.875-.572l-2.228-1.227c-.637-.327-1.114-.655-1.512-1.063-.398-.41-.637-.737-.717-1.145l-.238-1.227c-.16-.654-.16-1.145-.16-1.636z"></path></g></svg>