<svg xmlns="http://www.w3.org/2000/svg" viewBox="0.9766900539398193 0.920091450214386 148.03443908691406 44.97991180419922"><path fill="#1761a3" d="M79 13.4c1.2-.8 2.3-1.3 3.6-1.4.9-.1 1.8-.1 2.6.1 1.7.4 2.7 1.4 3.2 3.1.4 1.7.2 3.4-.1 5.1-.5 2.3-1.1 4.4-2.5 6.3-2 2.8-5.7 3.5-8.6 2.5-.4-.1-.8-.4-1.1-.6-.5-.4-.5-.4-.7.2-.2 1-.5 2.1-.7 3.1-.4 1.9-1.7 3-3.6 3.2-.8.1-1.5-.1-2.1-.5-.4-.2-.3-.5-.2-.8.3-1.5.7-3.1 1-4.6 1.2-5.3 2.4-10.5 3.6-15.8.2-.8.5-1.1 1.3-1.2 1.2-.2 2.4-.2 3.6 0 .6.3 1 .4.7 1.3zm3.8 4.8v-.6c0-1.1-.6-1.6-1.6-1.7-1.6-.1-2.9.9-3.4 2.6-.2.9-.4 1.7-.6 2.6-.2.9-.5 1.8-.4 2.8.1.9.6 1.5 1.4 1.6 1.2.3 2.4-.3 3.1-1.5.9-1.8 1.3-3.8 1.5-5.8zm39.2 10c-1.1.7-2.1 1.1-3.3 1.2-.8.1-1.6.1-2.3 0-2.2-.3-3.5-1.6-3.7-3.8-.3-4 .5-7.7 2.8-11 1.3-1.9 3.2-2.7 5.5-2.8 1.3-.1 2.6 0 3.7.7.3.2.5.6.8.5.3-.1.3-.6.4-1 .4-1.6.8-3.1 1.1-4.7.1-.4.3-.7.7-.7.6-.1 1.2-.2 1.8-.2 1.7 0 2.8 1.4 2.4 3.1-.8 3.3-1.5 6.6-2.3 9.9-.5 2.3-1 4.6-1.6 6.9-.6 2.5-3.2 3.8-5.4 2.7-.5 0-.8-.2-.6-.8zm-3.8-4.9v.4c0 1.2.6 1.8 1.9 1.8 1.5 0 2.7-.9 3.1-2.5.3-1 .5-2 .7-2.9.2-.8.4-1.7.4-2.6-.1-1-.7-1.6-1.7-1.6-1.4-.1-2.3.5-2.9 1.7-.9 1.8-1.3 3.7-1.5 5.7zm-74-9.7c1.2-.7 2.4-1.2 3.6-1.4.9-.1 1.9-.1 2.8.1 1.9.5 3 2.2 2.7 4.2-.3 2.1-.9 4.1-1.3 6.2-.3 1.4-.6 2.7-.9 4-.6 2.4-3.2 3.5-5.4 2.5-.4-.2-.5-.4-.4-.9.8-3.4 1.6-6.8 2.3-10.3.3-1.2-.2-1.7-1.4-1.8-.4 0-.8 0-1.2.1-1 .2-1.7.7-1.9 1.9-.5 2.7-1.2 5.4-1.8 8.1-.7 2.9-3.5 3.7-5.4 2.8-.5-.2-.6-.5-.5-1 1.4-6.2 2.9-12.4 4.3-18.6.2-.7.3-1.4.5-2.1.1-.4.3-.6.7-.7.6 0 1.2-.1 1.8-.1 1.7 0 2.8 1.3 2.5 3-.2 1.1-.5 2.2-.8 3.3-.2.3-.2.4-.2.7zm18.9 14.5c-1.1.7-2.2 1.2-3.3 1.4-.8.1-1.5.1-2.3 0-2.2-.4-3.6-1.7-3.8-3.9-.4-3.9.5-7.6 2.7-10.9 1.2-1.8 3-2.6 5.1-2.7 1-.1 2-.1 3 .1.6.2 1.2.4 1.7.9.2.2.4.3.5-.1.1-.3.3-.4.6-.5 1.5-.4 3-.3 4.5 0 .5.1.4.4.4.7-.7 3.2-1.5 6.4-2.2 9.5-.3 1.3-.6 2.7-.9 4-.6 2.4-3.2 3.6-5.4 2.5-.5-.1-.8-.3-.6-1zm-3.8-5.2c-.1 2.2.7 3 2.8 2.6 1.1-.2 1.8-1.1 2.1-2.1.5-1.8.9-3.6 1.2-5.4.2-1-.4-1.9-1.3-2-1.4-.3-2.5.2-3.2 1.5-1.1 1.7-1.4 3.8-1.6 5.4zm84.1-9.6c.1-1 .7-1 1.3-1.1 1.2-.2 2.4-.2 3.6.1.8.1.8.2.6 1-.9 3.7-1.7 7.4-2.6 11.1-.2.7-.3 1.4-.5 2.2-.6 2.3-3.1 3.6-5.3 2.6-.5-.2-.8-.4-.5-1.2-1.2.8-2.3 1.3-3.5 1.4-1.8.2-3.5.1-4.8-1.3-.8-.9-1.2-2-1.2-3.2-.1-3.7.7-7.1 2.7-10.2 1.2-1.8 3.1-2.7 5.3-2.8h1.9c1.1.1 2.1.4 3 1.4zm-7.2 10v.7c.1 1 .6 1.5 1.6 1.6 1.7.1 2.9-.8 3.4-2.5.4-1.5.7-3 1-4.5.1-.4.1-.7.1-1.1 0-1-.6-1.5-1.6-1.6-1.4-.1-2.4.5-3 1.8-1 1.7-1.4 3.6-1.5 5.6zm-40.3 1.5c.2-.4.3-.7.5-1.1 1.5-3.6 2.9-7.2 4.4-10.9.2-.6.5-.8 1.1-.8 1.3-.1 2.5-.2 3.8 0 .5.1.6.3.4.7-1.9 4.5-3.8 8.9-5.7 13.4-.3.8-.9 1.6-1.5 2.2-.7.7-1.5 1.2-2.5 1.2-1.4 0-2.9 0-4.3-.2-.4-.1-.6-.2-.7-.7-.6-5.2-1.3-10.3-2-15.5-.1-.5.1-.7.6-.8 1.4-.3 2.8-.3 4.2 0 .5.1.7.3.7.9.4 3.8.7 7.7 1 11.6z"></path><path fill="#c43f34" d="M23 6.5c-.2 2.7-1 5.4-2.1 8.1-.4.9-.8 1.7-1.4 2.5-1.2 1.5-2.5 1.5-3.6 0-1.4-1.8-2-3.9-2.6-6-.4-1.4-.7-2.8-.8-4.2-.4-2.8 1.6-5.4 4.3-5.9 2.9-.5 5.7 1.4 6.1 4.2.1.4.1.8.1 1.3z"></path><path fill="#c8522c" d="M11.7 20.9c-2.7-.2-5.4-.7-7.9-1.8-1.9-.9-3-2.8-2.8-4.9.2-1.9 1.7-3.6 3.7-4 1.2-.3 2.4-.1 3.4.6 2.5 1.6 4.5 3.7 6.1 6.1.3.5.6 1.1.7 1.7.2.9-.1 1.6-1 1.9-.6.3-1.4.4-2.2.4zm12.2.1c-.7 0-1.4 0-2.1-.2-1.2-.4-1.6-1.2-1.3-2.3.1-.5.3-.9.6-1.3 1.6-2.5 3.7-4.6 6.2-6.2 1.8-1.1 4.1-.8 5.6.6 2.4 2.2 1.8 6.1-1.1 7.6-1.9 1-4 1.4-6.1 1.8h-1.8z"></path><path fill="#1761a3" d="M106 29.5h-.5c-1.3-.2-1.6-.5-1.3-1.8 1.1-5 2.3-10 3.4-15 .1-.5.3-.7.8-.7 1.4-.2 2.8-.2 4.3 0 .4.1.6.2.5.7-1.1 4.6-2.1 9.2-3.2 13.9-.5 1.8-2 3-4 2.9z"></path><path fill="#e4af2c" d="M14.2 31.4c.2-1.6.8-3.5 1.9-5.2 0-.1.1-.1.1-.2 1-1.4 2.1-1.5 3.1-.1 1.3 1.8 2 3.9 2.1 6.1.1 2-1.9 3.5-4 3.3-2.1-.2-3.4-1.7-3.2-3.9z"></path><path fill="#d2782b" d="M23.1 22.5c1.5 0 2.9.3 4.2.7 1.7.6 2.5 2.4 1.8 4s-2.5 2.2-4.1 1.3c-1.5-.8-2.8-2-3.9-3.4-.2-.3-.4-.6-.5-.9-.3-.7 0-1.2.7-1.5.2-.1.4-.1.6-.1.5 0 .8 0 1.2-.1zM9.2 29c-1.4 0-2.6-.9-2.9-2.2-.3-1.3.2-2.7 1.4-3.3 1.8-.9 3.8-1.2 5.8-.9 1.4.2 1.8 1.1 1 2.3-1 1.6-2.4 2.8-4 3.7-.5.3-.9.4-1.3.4z"></path><path fill="#1761a3" d="M110.8 11.3c-.7 0-1.4 0-2.1-.1-.4-.1-.6-.2-.5-.7.2-.8.4-1.5.5-2.3.1-.3.2-.5.6-.6.9-.1 1.9-.1 2.8-.1 1.3.1 1.9.8 1.7 2.2-.3 1.5 0 1.4-1.8 1.6-.4.1-.8 0-1.2 0z"></path><path fill="#424242" d="M107.4 40.7c-.2.9-.4 1.9-.6 2.9-.1.3-.2.4-.5.4-.3-.1-.3-.3-.2-.5.2-.9.4-1.7.5-2.6.1-.3.1-.5-.2-.7-.2-.2-.5-.2-.8 0-.5.2-.8.5-.9 1-.2.8-.3 1.6-.5 2.4-.1.3-.2.6-.5.5-.5-.1-.3-.4-.2-.7.2-.8.3-1.6.5-2.4.1-.3.1-.5-.1-.7-.3-.2-.5-.1-.8 0-.4.2-.8.5-.9 1-.1.7-.3 1.4-.4 2.1 0 .2-.1.4-.2.6-.1.2-.3.3-.5.2-.2 0-.3-.2-.2-.4.3-1.3.5-2.5.8-3.8.1-.3.3-.5.6-.3s.5.1.8 0c.5-.2 1-.2 1.5.2.2.2.4.2.6 0 .3-.2.6-.3 1-.3.7-.3 1.2.2 1.2 1.1zm5.1 3.3s-.3 0-.4-.1c-.7-.4-.7 0-.8.5-.1.4-.1.8-.2 1.1-.1.3-.3.4-.6.4-.3-.1-.2-.3-.2-.5.4-1.9.8-3.7 1.2-5.6.1-.3.3-.6.6-.4.3.2.6.1.9 0 1.1-.3 2 .3 1.9 1.4 0 .7-.2 1.5-.5 2.1-.4.8-1 1.2-1.9 1.1zm1.6-3c.1-.8-.5-1.2-1.2-.9-.5.2-.8.6-.9 1.1-.1.3-.1.6-.2.9-.1.5 0 1 .5 1.2.5.2 1.1 0 1.4-.5.2-.6.3-1.2.4-1.8zm-21.2-1.3c.8-.3 1.5-.6 2.1 0 .6.6.5 1.4.3 2.1-.1.5-.2 1-.5 1.4-.5.9-1.5 1.2-2.4.8-.2-.1-.3-.3-.5 0-.1.1-.3.2-.5.1s-.1-.4-.1-.6c.3-1.6.7-3.2 1-4.8 0-.2.1-.4.2-.7.1-.3.3-.4.5-.3.3.1.2.3.2.5-.1.4-.2.9-.3 1.5zm1.8 1.5c0-1-.5-1.4-1.2-1.1-.3.1-.5.3-.6.5-.4.6-.5 1.4-.5 2.1 0 .5.3.7.8.7s.9-.3 1.1-.7c.2-.6.3-1.1.4-1.5zm-14.9 1.2c.1-.6.2-1.4.5-2 .5-.9 1.5-1.3 2.4-.9.3.1.4.2.7 0 .3-.2.6 0 .5.4-.3 1.2-.5 2.5-.8 3.7 0 .2-.2.4-.4.3-.5-.3-.9.1-1.4.1-1 .1-1.5-.4-1.5-1.6zm.8-.1c0 1 .6 1.3 1.3.9.4-.2.6-.5.7-.9l.3-1.2c.1-.5.1-.9-.5-1.1-.5-.2-1 .1-1.3.6-.3.6-.5 1.2-.5 1.7zm38.8.3c.1-.7.2-1.5.5-2.2.5-1 1.6-1.4 2.6-.9.2.1.3.2.5 0 .1-.1.3-.1.5 0 .1.1.1.3.1.4-.3 1.2-.5 2.5-.8 3.7-.1.4-.3.6-.7.3-.3-.2-.4 0-.6.1-1.2.4-2.1-.2-2.1-1.4zm.7-.2c0 .7.3 1 1 .9.6-.1 1-.5 1.1-1.1.1-.3.1-.6.2-1 .1-.5.1-1-.5-1.2-.4-.2-1 0-1.3.5-.3.7-.4 1.3-.5 1.9zm14.9-1.3c0 .5-.1 1.1-.3 1.6-.5 1.1-1.4 1.6-2.5 1.3-.6-.1-.9-.6-1-1.2-.1-.9.1-1.9.6-2.7.5-.7 1.7-1.1 2.5-.7.5.3.7.7.7 1.7zm-.8 0c0-.4 0-.9-.5-1.1-.5-.1-1 0-1.3.5-.4.5-.5 1.2-.5 1.8 0 .5-.1.9.5 1.1.6.1 1-.1 1.3-.6.3-.5.5-1.1.5-1.7zM98 44c-1.1 0-1.6-.5-1.6-1.5 0-.9.2-1.7.7-2.4.3-.4.7-.7 1.2-.8.6-.1 1.2-.1 1.6.4.4.6.3 1.2.1 1.8-.1.3-.3.3-.6.3h-1.5c-.3 0-.7-.1-.7.4s.1.9.7 1c.3.1.7 0 1-.1.2-.1.5-.2.6.1.1.3-.2.4-.4.5-.4.3-.8.4-1.1.3zm.4-2.6c.3-.2.8.2 1-.3.1-.4.1-.7-.2-.9-.4-.3-.8-.1-1.1.1-.3.2-.7.6-.6 1 .1.2.5 0 .9.1zm43.2 2.6c-1.1 0-1.7-.5-1.7-1.5 0-.8.2-1.5.6-2.2.5-.7 1.2-1.1 2.1-1 .5 0 .9.3 1.1.8.2.6 0 1.1-.3 1.6-.1.2-.3.2-.5.2h-1.5c-.3 0-.8-.1-.7.5 0 .5.1.9.7.9.4.1.7 0 1-.1.2-.1.4-.1.5.1.1.2 0 .4-.2.5-.4.2-.8.3-1.1.2zm.4-2.6c.3-.1.7.2.9-.2.2-.3.2-.7-.1-1-.3-.3-.7-.2-1.1 0-.4.2-.7.6-.7 1 .1.4.5.1.8.2h.2zm-63.9-3.6h1.2c.2 0 .6-.1.5.3 0 .3-.3.3-.6.3h-1.6c-.4 0-.6.2-.7.6-.1.3-.1.7-.2 1-.1.4.1.6.5.6h1.1c.2 0 .6-.1.5.3 0 .3-.3.3-.6.3h-1.3c-.4 0-.6.2-.7.5-.1.6-.2 1.1-.4 1.7-.1.3-.2.5-.5.4-.4-.1-.2-.4-.2-.6.3-1.7.7-3.3 1-5 .1-.4.3-.6.7-.6.5.2.9.2 1.3.2zm9.4 2.3h-1.6c-.2 0-.4 0-.4-.3s.2-.3.4-.3h2.2c.4 0 .5.3.2.7-.7.8-1.4 1.5-2.1 2.3-.2.3-.5.5-.9.9h1.8c.2 0 .5 0 .5.2 0 .3-.2.4-.4.4h-2.4c-.4 0-.5-.3-.2-.7.6-.7 1.3-1.4 1.9-2.2l1-1zm40.6 2.8c.6-1 1.1-2 1.6-2.9.1-.1.2-.3.3-.4.2-.2.4-.3.7-.2.3.2 0 .4-.1.5l-2.1 3.6c-.2.3-.4.5-.7.4-.4 0-.4-.4-.4-.6-.2-1.1-.4-2.2-.5-3.4 0-.2-.1-.5.3-.6.4-.1.5.2.5.5.1 1.1.2 2 .4 3.1zm9.5 1.1c-1.1 0-1.6-.6-1.6-1.6 0-.6.2-1.3.5-1.8.5-1 1.6-1.5 2.7-1.2.2.1.4.1.4.4-.1.2-.3.3-.5.3-1.5-.1-2.5 1.1-2.2 2.6.1.4.3.7.8.7h.7c.2 0 .4 0 .4.2.1.2-.1.3-.3.4-.4.1-.6 0-.9 0zm-19.2-3.9c-.6 0-1.2.4-1.3 1-.2.8-.3 1.6-.5 2.3-.1.3-.2.6-.5.5-.4-.1-.3-.4-.2-.6.2-1.1.5-2.2.7-3.3.1-.5.3-.8.8-.5.2.1.4 0 .5-.1.3-.1.5-.2.8-.1.2.1.5.1.4.4-.1.3-.3.4-.6.4h-.1zm22.9-1.5c.1-.1.1-.2.2-.2.1-.1.3-.2.4-.3.8-.6 1.2-.5 1.7.3.1.1.1.3 0 .4-.1.1-.3.2-.4.1-.5-.6-1-.3-1.5 0-.1 0-.3-.1-.4-.3z"></path></svg>