<svg xmlns="http://www.w3.org/2000/svg" viewBox="75 85 450 80.99993133544922"><g fill="none" transform="translate(75 85)"><path fill="#07254E" d="M160 2v76h-15.839V43.546H102.84V78H87V2h15.839v29.675h41.322V2zm73.614 51.613l.38-.078c.153-11.249-2.892-20.015-9.06-25.99-9.44-9.231-23.067-8.533-23.22-8.533-11.876-.155-20.936 3.103-26.95 9.775-9.06 10.086-7.69 24.67-7.69 24.826v.078c0 .232.609 27.308 33.422 27.308.457 0 25.961.466 31.9-19.473l.152-.465H216.56l-.076.233c0 .077-4.187 8.223-15.912 8.223h-.304c-2.97 0-17.74-.776-18.196-15.749l.076-.077h51.466v-.078zm-51.618-9.31c.457-2.793 3.274-14.895 18.12-14.818h.456c14.846 0 17.663 12.103 18.12 14.818h-36.696zM241 0h15v78h-15zm87.988 49.362c-1.636-31.56-30.456-29.695-30.456-29.695-14.878 0-20.33 6.919-21.966 9.717V0H262v77.814h14.566v-7.618c7.166 10.494 22.277 9.794 22.277 9.794 31.702-.622 30.145-30.628 30.145-30.628zm-33.884 19.201s-14.8 1.244-18.538-13.37V44.93c.857-4.353 4.362-13.914 18.616-13.914 18.46 0 18.616 16.557 18.694 19.356 0-.078.624 18.112-18.772 18.19zM450 20.407v14.937c-26.543-6.006-26.696 14.167-26.696 14.552V78H409V21.87h14.304v11.164C432.024 16.48 450 20.407 450 20.407zm-48.018 29.099c-1.158-30.263-30.736-30.572-34.365-30.495-2.317-.077-33.361-.542-34.597 30.495 0 0-2.008 30.262 34.21 30.494h.464c36.219-.232 34.288-30.494 34.288-30.494zm-34.365 19.349h-.077c-20.156-.465-19.538-19.427-19.538-19.427 1.158-20.355 19.538-18.962 19.538-18.962h.154s18.38-1.47 19.538 18.962c-.154.078.54 19.04-19.615 19.427z"></path><ellipse cx="39.5" cy="39" fill="#07254E" rx="39.5" ry="39"></ellipse><path fill="#FF4C2E" d="M32 58h13z"></path><path fill="#FFF" d="M72.844 58.845H6.624L39.733.543z"></path><path fill="#07254E" d="M56.094 32.217v25.23h-9.582v-20.34l-13.556 6.367v13.973h-9.66v-25.23l9.66-16.924v18.321l13.556-6.365V15.293z"></path></g></svg>