<svg xmlns="http://www.w3.org/2000/svg" viewBox="0.5903419256210327 0.6822967529296875 1239.971435546875 279.4412841796875"><g fill="#213A78"><path d="M.75 138.59c-.81-11.78 1.59-22.46 4.31-33C22.27 39.08 84.77-4.77 153.66 1.23c47.1 4.07 79 38.69 79 85.7 0 31.08-.24 62.16.17 93.23.09 7.49-2.28 11.43-9.18 14.45a1484.503 1484.503 0 00-60.06 27.89c-8.55 4.23-9.09.73-9.07-6.45.16-47.547.183-95.097.07-142.65 0-26.14-15.85-41.61-42.11-41.34-55.31.57-103.83 44.91-109.34 99.83-.18 2 .76 4.45-2.39 6.7z"></path><path d="M278.38 152.13c.75 22.47-7.12 42.39-18.2 61.11-29.35 49.55-89.24 75.83-145.35 64.12-39.75-8.3-66-40.09-66.24-80.56-.18-32.17.16-64.35-.202-96.52-.078-7.08 2.352-10.75 8.722-13.57 19.81-8.79 39.58-17.76 59-27.45 9-4.48 10.62-2 10.57 6.91-.27 46.39-.15 92.78-.12 139.17 0 29.567 14.767 44.03 44.3 43.39 49-1 94.18-38 105-86 .71-3.5 1.65-7.07 2.52-10.6zm328.73-72.47c15.31.5 30.67-.22 46 .69 13.28.8 26.5 3.52 31.81 18.33 4.91 13.97 1.68 26.25-9.95 36.37 10 5.71 16.41 13.46 17.59 24.84 2.3 22.17-10 37-33.51 38.52-17.51 1.1-35.13.24-52.69.64-5.7.13-6.75-2.29-6.73-7.31.16-34.767.16-69.533 0-104.3 0-5.69 1.38-8 7.48-7.78zm29.465 65.372a20.996 20.996 0 00-2.426.1c-11.138 1.12-3.024 11.338-6.471 16.804l-.108.164c4.166 4.723-5.196 16.23 8.602 16.364a27.8 27.8 0 001.363-.022l.485-.022c19.24-1 25.62-4 25.76-15.69.16-12.62-7.48-17.23-26.75-17.69l-.455-.008zm2.935-45.512c-3.25 1.71-9.93-3.15-10.63 3.44-.77 7.2-3.92 17.39 1.44 21.32l-.09-.067.09.067c.178.13.362.256.551.376l.01.007c5.471 3.475 15.006 2.409 22.059-.963 4.347-2.064 5.353-5.905 5.243-9.914-.044-1.679-.287-3.39-.563-5.016l-.062-.345-.067-.335c-.52-2.477-1.463-4.2-2.702-5.406-3.567-3.483-9.583-2.673-15.027-3.141zm-269.98 38.79c0-17.21.16-34.41-.1-51.61-.07-5.09 1-6.92 6.68-7.1 22.29-.7 22.28-1 22.28 20.93 0 24.37 0 24 24.15 24.46 8 .15 11.68-1.38 10.48-10.19-.8-5.88-.38-12-.09-17.93.27-5.48-2.51-14.36 1.33-15.73 7.29-2.6 16.05-1.23 24.2-1.15 3.88 0 3.18 3.45 3.18 5.92 0 35.52 0 71.05.12 106.57 0 4.76-1.3 6.27-6.23 6.62-22.7 1.58-22.7 1.77-22.7-20.25v-4.49c0-28.13 0-28-28.53-25.64-5.15.41-6.1 2.31-6 6.78.21 12-.2 23.94.18 35.9.19 5.83-1.66 7.54-7.55 7.71-21.43.63-21.42.88-21.42-20.42l.02-40.38zm719.48-12.39c0 12.35-.15 24.71.07 37.07.1 6 .76 12.3 5.56 16.52 4.57 4 10.27 3.88 15.93 2 5.86-2 7.7-6.48 8.14-12.11 2-25.43.2-50.9 1-76.33.14-4.37-3.14-11.46 2.75-12.7 7.85-1.64 16.35-.32 24.55.1.54 0 1.33 3.22 1.32 4.94-.16 27.69.16 55.41-.88 83.08-.65 17-9.66 25.92-26.18 30.51-9.27 2.57-18.6 2.59-27.85 1.43-19.87-2.51-31.17-12.53-32.38-32.51-1.68-27.61-.8-55.38-1.15-83.08 0-4 1.72-4.73 5.34-5.14 23-2.63 23.7-2.17 23.7 20.39v25.84l.08-.01zm-562.6-46.37c17.62.53 17.65.06 23.49 16.78 11.75 33.72 23.49 67.43 35.76 102.62h-10.4c-19.32.07-19.42.1-25.86-18.65-1.51-4.4-3.36-7.09-8.61-6.29-3.29.51-6.72.1-10.09.1h-2.223c-17.094.012-17.993.519-23.167 18.25-3.14 10.71-10.6 6.07-16.25 6.37-12.8.68-12.9.18-8.77-11.86 11.24-32.74 22.73-65.41 33.7-98.24 2.2-6.6 5-9.3 12.42-9.08zm1.94 39.55c-.48 1.475-.962 2.95-1.444 4.427l1.444-4.417c-2.79 8.53-5.593 17.102-8.367 25.663l-1.433 4.417c-.569 1.756-.76 3.299.094 4.232.54.604 1.503.956 3.056.948h19.52l-.004-.01h.004l-10.63-35zM890 79.61c18.11.3 18.06 0 24.13 17.45l4.132 11.884c10.335 29.714 20.727 59.494 31.368 90.006h-10c-19.8.1-20 .16-26.14-18.34-1.68-5-4.05-7.4-9.46-6.57-2.56.39-5.23.07-7.85.07h-1.189c-19.032.004-19.376.302-25.971 19-1.53 4.35-3.31 6.09-7.79 5.91-6.32-.26-12.67-.07-19-.07-1.79-4.24.59-7.41 1.71-10.7 11.42-33.44 23.08-66.81 34.24-100.35 2.12-6.36 5.16-8.41 11.82-8.29zm2.12 39.26c-1.94 6.35-3.84 12.7-5.83 19-1.683 5.36-2.67 9.257-2.701 12v.03c-.07 6.107 4.59 6.498 16.831 4.58 2.458-.385 3.93-.74 3.923-2.575.006-.553-.126-1.24-.413-2.105-3.38-10.35-6.48-20.82-9.68-31.25l-2.13.32zm120.31-39.09c6.22 0 10.8.57 15.17-.11 9.89-1.55 13 2 12.25 12-.48 6.57-1.46 9.24-8.64 8.8-10.43-.64-20.93-.23-31.39-.13-5.56.05-12.18-.55-14 6.21-2 7.34 4.23 10.45 9.43 13.38 8.75 4.94 18 9.05 26.42 14.52 17 11.06 22.48 27.35 15.37 44.44-6.22 14.94-19.36 20-34 21.7a72 72 0 01-22.33-.61c-27.07-5.51-20.53-.25-21.54-27.32-.22-5.81 1.82-6.66 6.38-3.68 7.87 5.13 16.2 9.16 25.55 10.8 7.25 1.26 15.33 2 18.63-5.82 3.72-8.79-3.48-13.56-10.06-17.5-8.3-5-17-9.28-25-14.67-12.36-8.33-18.94-19.75-16.07-35.24 2.87-15.49 13.39-22.08 27.72-25.23 9.26-2.04 18.51-1.09 26.11-1.54zm-222.16 70.17c0-13.86-.3-27.73.13-41.57.2-6.24-1.47-9.09-8-8.11a47.33 47.33 0 01-6.74 0c-11.92 0-15.65-5.38-12.38-17.14.81-2.9 2.35-3.38 4.72-3.38 24.34 0 48.69.12 73-.09 6.15-.05 5.73 4 5 7.49-.89 4.43 3.87 10.82-4 13a12.7 12.7 0 01-2.24.08c-6.59.59-15.86-3-19.11 1.68-3.37 4.9-1.35 13.63-1.38 20.69-.09 22.09-.34 44.2.13 66.28.16 7.36-1 10.44-9.44 10.22-19.69-.51-19.7 0-19.7-20l.01-29.15zm384.56-10.72c0-16.8.38-33.62-.18-50.41-.25-7.47 2.1-9.33 9.36-9.25 20 .22 20-.12 20 19.46 0 23.53.27 47.07-.16 70.59-.13 7 1.93 9.39 8.84 8.64 5.17-.56 10.55.54 15.65-.25 10.13-1.56 12.84 2.47 12.11 12.16-.47 6.29-1.07 9.24-8.51 8.95-16-.64-32.13-.62-48.17 0-7.62.28-9.34-2.34-9.14-9.46.48-16.77.2-33.59.2-50.43zm-429.75.56c0 17.22-.24 34.45.13 51.66.12 5.77-1.33 7.56-7.38 7.68-21.73.43-21.73.71-21.73-21.32 0-29.2.3-58.41-.19-87.61-.14-8.1 1.48-11 10.26-10.66 18.89.65 18.91.1 18.91 18.68v41.57z"></path></g></svg>