<?xml version="1.0" standalone="no"?>
<!DOCTYPE svg PUBLIC "-//W3C//DTD SVG 20010904//EN"
 "http://www.w3.org/TR/2001/REC-SVG-20010904/DTD/svg10.dtd">
<svg version="1.0" xmlns="http://www.w3.org/2000/svg"
 width="547.000000pt" height="390.000000pt" viewBox="0 0 547.000000 390.000000"
 preserveAspectRatio="xMidYMid meet">
<metadata>
Created by potrace 1.15, written by Peter Selinger 2001-2017
</metadata>
<g transform="translate(0.000000,390.000000) scale(0.100000,-0.100000)"
fill="#000000" stroke="none">
<path d="M1934 3597 c-3 -8 -4 -121 -2 -253 l3 -239 60 -13 c33 -8 123 -29
200 -49 l140 -35 23 29 c170 204 357 363 583 496 51 31 101 61 109 66 10 6
-176 10 -548 10 -461 1 -564 -1 -568 -12z"/>
<path d="M3105 3553 c-205 -142 -393 -306 -530 -461 -52 -59 -95 -112 -95
-118 0 -6 62 -34 138 -64 201 -78 437 -198 613 -313 32 -21 32 -21 124 123
136 214 266 519 330 770 14 54 25 103 25 109 0 8 -83 11 -262 11 l-263 -1 -80
-56z"/>
<path d="M3661 3082 c-49 -149 -156 -372 -235 -490 -31 -46 -56 -86 -56 -90 1
-4 24 -25 52 -47 28 -22 105 -89 170 -148 l118 -108 0 506 c0 278 -1 505 -3
505 -2 0 -22 -58 -46 -128z"/>
<path d="M1931 2644 c1 -220 3 -408 6 -418 4 -13 14 9 29 63 54 184 149 394
250 548 30 47 53 87 51 90 -8 7 -277 103 -308 110 l-30 6 2 -399z"/>
<path d="M2324 2768 c-85 -129 -199 -349 -257 -498 -47 -119 -112 -333 -123
-401 l-7 -39 261 0 261 0 68 47 c171 116 321 240 455 376 120 121 181 194 175
210 -9 23 -256 164 -507 290 -129 64 -240 117 -247 117 -7 0 -42 -46 -79 -102z"/>
<path d="M3270 2382 c0 -14 -200 -213 -283 -280 -92 -75 -246 -179 -331 -223
-36 -19 -66 -37 -66 -42 0 -4 251 -6 558 -5 l557 3 3 126 3 127 -128 94 c-140
103 -275 195 -298 204 -8 4 -15 2 -15 -4z"/>
<path d="M3940 1421 c-90 -13 -115 -20 -118 -32 -2 -12 8 -18 37 -23 26 -4 47
-15 60 -32 21 -26 21 -36 21 -515 l0 -489 65 0 65 0 0 549 c0 303 -3 552 -7
554 -5 2 -60 -4 -123 -12z"/>
<path d="M815 1388 c-3 -7 -6 -116 -7 -243 l-3 -230 -227 -3 -228 -2 0 240 0
240 -32 0 c-44 0 -258 -29 -270 -36 -16 -10 13 -34 42 -34 40 0 89 -20 100
-40 6 -12 10 -200 10 -484 l0 -466 75 0 75 0 2 257 3 258 219 3 c169 2 221 -1
228 -10 4 -7 8 -124 8 -260 l0 -248 70 0 70 0 -2 533 -3 532 -63 3 c-44 2 -64
-1 -67 -10z"/>
<path d="M1328 1061 c-75 -30 -105 -57 -140 -129 -33 -66 -33 -68 -33 -212 0
-129 3 -151 24 -205 36 -89 109 -157 196 -184 76 -24 201 -28 285 -10 46 10
50 13 50 40 0 29 -1 30 -37 22 -188 -40 -355 90 -395 305 -18 97 -31 92 228
92 l226 0 -4 69 c-5 87 -42 152 -112 195 -44 27 -58 31 -145 33 -76 3 -106 -1
-143 -16z m191 -69 c40 -29 62 -66 68 -110 l6 -42 -157 0 c-155 0 -156 0 -156
23 1 29 32 98 53 116 51 42 139 48 186 13z"/>
<path d="M1918 1062 c-83 -13 -98 -18 -98 -34 0 -11 7 -18 20 -18 29 0 76 -26
84 -45 3 -9 6 -149 6 -310 0 -161 3 -300 6 -309 5 -12 20 -16 64 -16 l58 0 4
238 c3 234 3 238 30 292 34 69 73 94 146 93 l52 0 0 63 0 64 -34 0 c-70 0
-129 -40 -169 -115 l-22 -40 -3 78 c-3 89 10 84 -144 59z"/>
<path d="M2570 1071 c-144 -44 -222 -193 -207 -394 15 -198 91 -308 246 -354
41 -11 81 -14 160 -11 122 6 141 12 141 43 0 21 -3 22 -79 22 -66 -1 -87 4
-134 26 -131 65 -206 219 -194 400 7 107 36 164 99 195 84 42 165 9 188 -77
l11 -41 69 0 c38 0 71 4 75 10 9 15 -23 82 -57 118 -46 47 -122 72 -216 71
-42 0 -88 -4 -102 -8z"/>
<path d="M3110 1062 c-69 -13 -95 -21 -95 -32 0 -8 15 -18 37 -23 71 -17 72
-20 79 -291 5 -248 10 -280 52 -340 47 -67 176 -87 267 -41 46 23 120 103 120
129 0 6 5 4 10 -4 5 -8 10 -41 10 -72 l0 -58 60 0 60 0 0 376 0 377 -37 -7
c-21 -3 -75 -11 -120 -17 -67 -10 -83 -15 -83 -29 0 -12 11 -19 38 -24 72 -11
77 -26 77 -215 l0 -166 -36 -76 c-38 -79 -96 -145 -136 -155 -34 -9 -88 4
-106 24 -47 51 -51 83 -54 377 l-4 280 -22 2 c-12 0 -65 -6 -117 -15z"/>
<path d="M4430 1063 c-105 -36 -161 -117 -181 -260 -30 -210 45 -390 189 -459
69 -33 197 -43 304 -24 66 11 68 13 68 41 0 29 -1 30 -37 22 -177 -37 -328 67
-387 266 -9 30 -16 72 -16 93 l0 38 230 0 230 0 0 48 c0 108 -65 205 -157 236
-59 20 -184 20 -243 -1z m189 -71 c40 -29 62 -66 68 -110 l6 -42 -162 0 -161
0 6 28 c10 42 33 88 54 107 50 45 141 53 189 17z"/>
<path d="M5091 1065 c-78 -24 -130 -97 -131 -183 0 -93 41 -138 206 -222 121
-63 164 -103 164 -155 0 -71 -44 -116 -126 -130 -46 -7 -144 15 -206 46 -21
11 -38 18 -39 17 -7 -19 -4 -90 5 -96 42 -33 237 -42 327 -16 76 23 133 81
148 153 29 134 -26 211 -214 301 -115 56 -145 84 -145 139 0 99 103 126 253
66 65 -26 71 -22 65 37 -3 30 -7 34 -48 45 -61 16 -205 15 -259 -2z"/>
</g>
</svg>
