<svg xmlns="http://www.w3.org/2000/svg" viewBox="0.30000001192092896 0.9700000286102295 501.3600158691406 510.0599670410156"><g fill="none"><path fill="#1D4662" d="M.3 255.69V21.08C.3 3.26 2.63.97 20.76.97h459c18.94 0 21.89 2.87 21.9 21.08v468.08c0 18.08-2.86 20.9-21.17 20.9h-459c-18.94 0-21.17-2.2-21.17-20.72L.3 255.69zm9.49-.66v223.21c0 18.51 5.33 23.95 23.38 23.95 144.63 0 289.26-.26 433.89.39 15.72.07 26.67-11 26.59-27.09-.66-145.76-.38-291.53-.39-437.3 0-21.18-5-26.26-26-26.27H33.37c-19.18 0-23.57 4.35-23.57 23.35-.018 73.24-.023 146.493-.01 219.76z"></path><path fill="#1D4662" d="M427.07 456.15c-9-14.35-18.83-28.25-26.64-43.21-5.27-10.09-13.34-7.74-20.46-6.73-7.12 1.01-3.34 8.17-3.41 12.41-.4 22-.4 44 0 66 .13 6.87-1.56 9.66-8.81 9-7.05-.62-14.19-.14-24-.14 14.3-11.27 20.65-24 22.58-39.75 2.44-19.91-12.9-46.64-31-51.38-19.7-5.14-40.79 8.22-47.57 31.1-6.78 22.88-.51 42.51 19.86 60h-28.83c-6.19 0-4.88-4.52-4.88-8.07-.06-23.92-.41-47.84.17-71.75.2-8-2.85-9.51-9.7-8.9-6.2.57-13.77-1.7-12.74 9.08.69 7.12-.88 14.4 1.23 21.6a14.91 14.91 0 01-3.1.63c-8.34 0-18.37 2.79-24.6-.87-7.23-4.25-2.26-15.14-2.63-23.05-.38-8.33-5.75-6.28-10.28-6.46-4.9-.21-9.84-1.05-9.72 6.94.35 23.53-.15 47.07.27 70.6.14 7.48-1.18 10.66-9.73 10.51-21.59-.38-21.6.08-21.6-21.36 0-12.53.81-25.13-.24-37.57-1-11.44 2.38-16.2 14.19-14.28 4.64.76 9.79 1.67 9.59-6.66-.16-6.69-1.42-9.41-8.79-9.19-17.44.53-34.92.42-52.38 0-6.46-.14-8.34 1.91-8.55 8.38-.24 7.41 3.37 7.63 9 7.66 15.26.05 15.26.25 15.26 16 0 16.33-.08 32.65 0 49 0 4.6-.12 8.07-6.4 7.9-12.75-.35-25.5-.11-42.1-.11 18.32-11.58 25.83-27.22 26.55-43.78 1.1-25.79-20.13-49.66-43.09-48.84-22.96.82-41.42 24.68-39.24 51.12 1.39 16.89 5.57 24.63 22.84 41.39-13 0-25 .35-36.89-.13-7.95-.32-12.27-5.31-12.83-13.28-.19-2.64-.08-5.31-.08-8V42.59c0-18.6 3.17-21.75 21.86-21.75h422.54c18.21 0 21.14 2.95 21.14 21.11v430.52c0 18.38-14.21 27.67-31.46 20.8-4.74-1.89-2.93-5.68-3-8.68-.15-23.16-.53-46.33.14-69.47.27-9-3.11-10.26-11.09-10.66-9.48-.47-9.18 4.27-9 10.89.31 13.45.09 26.92.09 40.38l-2.47.42zm-88.81-72.41c-.18 1.44.38 2.09 1.87 1.73h4.51c2.71-.2 2.69-2 2.32-4l.06-2.26c2.07-20 .43-40.13.84-60.2 0-2.15-.13-4.66-3.25-5-3.77-.58-7.77-1.82-7.51 4.54.89 21.72-1.27 43.5 1.16 65.19zm-123.06-35c.09-18.25-11.32-35.23-25.25-37.59-20.85-3.54-31.2 3.4-38.91 26.1-5.17 15.21 4.72 41.58 17.34 46.27 25.11 9.3 46.69-6.73 46.82-34.81v.03zm172.12 39.32c12.84-.07 24-9.14 25.44-20.57 1.41-11.67-4.89-18.68-20.15-22.47-5.41-1.34-10.94-2.4-16.14-4.31-4-1.47-7.91-4.69-6.48-9.3 1.31-4.18 4.08-7.34 9.94-8.31 8.34-1.39 14.14-.92 18.36 7.39 2.52 4.95 8.13 4.28 11.8 1.68 4.23-3-1-6-2.16-8.27-5.73-11.18-19.73-15.68-32.4-11.16-10.4 3.7-18 13.84-16.67 23.09 1.61 11.11 9.69 15.41 19.63 17.49 4.79 1 9.73 1.81 14.21 3.65 4.68 1.92 8.68 5.33 7.57 11.26-1.11 5.93-5.67 9-11.36 9.38-6.95.48-13.85-.28-17.32-7.78-2.36-5.08-7.24-5.24-10.56-3.45-5.18 2.79-.64 6.61 1.11 9.33 5.85 9.01 14.47 12.92 25.18 12.32v.03zM276.77 348.1c0 9.85.15 19.7-.07 29.54-.11 4.85 1.64 6.73 6.58 6.62 11.74-.25 23.49-.13 35.23-.07 3.38 0 5.79-.37 5.78-4.79 0-4.26-1.27-6.21-5.81-6.09-8.33.23-16.68-.13-25 .12-4.86.14-6.2-1.62-6.59-6.53-.77-9.86.67-16.21 12.94-14.16 5.53.92 11.34.24 17 .11 3.39-.08 7.49.05 7.16-5-.27-4.08-3.34-5.44-7.19-5.41-7.2.06-14.43-.38-21.59.11-7.88.55-7-4.4-7.17-9.48-.17-5.49-.05-9.72 7.5-9.08 7.15.6 14.39.21 21.58.22 3.66 0 7.69 1.11 7.58-5.18-.09-5.37-2.63-6.06-7.09-6-11 .23-22 .29-32.95 0-5.76-.16-8.26 1.66-8 7.75.38 9.12.1 18.23.11 27.32zm-136.23.4v-29.53c0-3.32-.58-5.9-4.91-5.82-4 .07-6.66 1-6.59 5.58.07 4.58-.41 9.13.06 13.62.71 6.63-2 8.16-8.33 8.22-20.22.21-20.22.49-21.3-20a10.63 10.63 0 010-1.13c.21-3.87-.54-6.43-5.47-6.39-4.93.04-6.67 1.82-6.63 6.67.147 19.333.147 38.64 0 57.92 0 4.31 1.48 6 5.91 6.09 4.43.09 6.12-1.47 5.88-5.82-.2-3.77-.06-7.56 0-11.35.19-17.55-1.79-15 15.08-15.06 16 0 14.58-2.3 14.67 14.4 0 3.79.18 7.58 0 11.36-.27 4.95 1.91 6.48 6.75 6.46 5.4 0 4.91-3.49 4.93-6.84-.01-9.46-.05-18.92-.05-28.38zm108.5 6.66c0-5.31.53-10.68-.11-15.91-1.32-10.74.57-17.82 13.78-15.16 3.48.7 5.76-.55 5.84-4.74.08-4.19-1.3-6.28-5.83-6.22-11.75.15-23.51-.09-35.27.11-4 .07-9.72-2.15-9.85 5.55-.14 8.21 6.07 5.44 9.71 5.15 7.81-.62 10.61 1.75 10.2 10-.7 14-.18 28.06-.2 42.09 0 4.26-.53 8.4 6.06 8.28 6.75-.13 5.62-4.61 5.65-8.64.05-6.86.02-13.68.02-20.51z"></path><path fill="#1D4662" d="M107.31 446.61c.26 16.56-10.13 30.74-22.51 30.72-12.38-.02-22.6-14-22.31-30.82v-1.14c.83-16.15 10.4-28.25 22.14-28 12.36.26 22.43 13.28 22.68 29.24zm239.81 2.87c-.38 10.18-3.17 21.08-14.67 26.92-6.41 3.26-13.61 2.93-19-2.48-8.91-9-13.76-19.7-10.31-32.72 4.68-17.63 11.94-24.12 26.08-21.09 10.4 2.22 17.66 10.83 17.9 29.37zm-93.37 23.79c0 20.43 0 20-21 20.51-8.63.23-11.7-2.19-10.56-10.75.65-4.84.07-9.84.13-14.76.24-17.62-2.82-15.89 15.42-16 16.01 0 16.01 0 16.01 21zm143.82-33.93c9.53 16.5 19.1 33 28.57 49.51 2 3.5.2 4.75-3.28 4.73-7.21 0-14.42-.12-21.62 0-4.56.09-5.79-2.2-5.75-6.36.12-15.74 0-31.49 0-47.23l2.08-.65z"></path><path fill="#EDEFF1" d="M344.64 385.44c0-1.76.51-3.26 2.32-4 .37 2.02.39 3.83-2.32 4zm-6.38-1.7l1.87 1.73c-1.49.36-2.05-.29-1.87-1.73z"></path><path fill="#1D4662" d="M203.07 347.96c0 14.9-9.11 27.05-20.29 27.07-11.18.02-20.19-12.09-20.29-27.08-.09-14.77 9.21-27.24 20.25-27.15 11.04.09 20.35 12.62 20.33 27.16z"></path></g></svg>