<svg xmlns="http://www.w3.org/2000/svg" xmlns:xlink="http://www.w3.org/1999/xlink" viewBox="113 62 370.9200134277344 125.00004577636719"><defs><path id="fna5170540edma" d="M0 .537h94.073v79.266H0z"></path><path id="fna5170540edmc" d="M.676.043H.92v27.926H.676z"></path><path id="fna5170540edme" d="M.29.255h.63v15.13H.29z"></path><path id="fna5170540edmg" d="M.392.4h3.24v1H.392z"></path><path id="fna5170540edmi" d="M.88.364h2.64V1H.88z"></path><path id="fna5170540edmk" d="M.84.4h2.64v1H.84z"></path><path id="fna5170540edmm" d="M.42.977h.5V3h-.5z"></path><path id="fna5170540edmo" d="M.679.916H.92V2.12H.679z"></path><path id="fna5170540edmq" d="M.362.05h38.554v47.254H.362z"></path></defs><g fill="none" fill-rule="evenodd"><g transform="translate(113 62)"><mask id="fna5170540edmb" fill="#fff"><use xlink:href="#fna5170540edma"></use></mask><path fill="#2CBADA" d="M54.5.914c3.33.902 6.726 1.487 9.918 2.977 2.241 1.047 4.535 1.978 6.628 3.3 4.959 3.131 9.374 6.84 12.939 11.574 2.437 3.237 4.623 6.592 6.093 10.343 1.15 2.941 2.045 5.96 2.764 9.076 1.396 6.049 1.643 12.076.547 18.095-1.356 7.456-4.154 14.411-8.498 20.69-.238.342-.53.647-.797.969-.38.33-.706.718-1.133.993-.57.411-1.09.931-1.88.867a.563.563 0 01-.16-.327c.209-.957.734-1.782 1.13-2.66.642-1.431.894-2.973 1.307-4.47.267-.606.1-1.267.232-1.892.054-.26.154-.503.282-.734.514-.834 1.303-1.428 1.918-2.177 3.847-4.69 6.04-10.022 6.667-16.07.575-5.566-.346-10.787-3.443-15.437-3.775-5.665-9.054-8.84-16.055-9.043-4.775-.137-8.785 1.61-12.565 4.258-3.068 2.152-5.572 4.87-8.02 7.658-.213.182-.454.301-.74.309-.554-.045-1.111-.064-1.657-.184-1.726-.24-3.461-.05-5.19-.111-.48-.005-.96-.029-1.425.126a4.228 4.228 0 01-.797.105c-.577.02-1.163-.054-1.724.15-3.2.746-6.476 1.124-9.624 2.11-6.038 1.894-11.73 4.457-16.73 8.4-2.63 2.07-4.634 4.622-5.996 7.675a.565.565 0 01-.33.175c-.821-.095-1.31-.74-1.874-1.204-3.065-2.527-5.278-5.608-6.062-9.578C.169 46.709.13 46.533 0 46.4v-1.516c.382-.9.827-1.73 1.96-1.835.846-.036 1.694-.025 2.54-.015.216.008.427.044.636.093 1.317.297 2.652.092 3.976.136 5.493-.74 10.159-3.28 14.353-6.733 5.8-4.775 9.237-10.933 10.477-18.331.18-1.073.397-2.152.775-3.184.264-.71.46-1.432.42-2.2 1.186-5.484 3.611-10 9.374-11.9.402-.132.802-.25 1.23-.237.918.06 1.82-.2 2.738-.127h2.676c1.137-.083 2.232.225 3.345.363" mask="url(#fna5170540edmb)"></path></g><path fill="#1B3B67" d="M113.273 109c.919 2.85 2.062 5.57 4.164 7.791 1.13 1.195 2.41 2.198 3.679 3.225.316.54.067 1.08-.041 1.6-1.022 4.898-.036 9.48 2.095 13.9 1.536 3.188 3.491 6.072 5.915 8.639.317.336.633.681.83 1.114.122.453.221.89-.52.674-8.892-7.847-14.127-17.69-15.936-29.423-.097-.63.038-1.345-.459-1.885v-1.78c.376-1.265-.127-2.593.273-3.855"></path><g transform="translate(483 107)"><mask id="fna5170540edmd" fill="#fff"><use xlink:href="#fna5170540edmc"></use></mask><path fill="#98AAD5" d="M.92 27.969c-.277-.138-.243-.412-.242-.663L.708.13C.778.014.85.014.92.129v27.84z" mask="url(#fna5170540edmd)"></path></g><g transform="translate(483 161)"><mask id="fna5170540edmf" fill="#fff"><use xlink:href="#fna5170540edme"></use></mask><path fill="#C7C5C7" d="M.92 15.36l-.108.025-.11-.003c-.467-.469-.4-1.093-.402-1.678-.015-3.921-.014-7.84 0-11.76C.3 1.356.236.735.68.255c.08.002.16.003.24.001V15.36z" mask="url(#fna5170540edmf)"></path></g><path fill="#6F708A" d="M113.259 108.211c-.181 1.256.275 2.56-.259 3.789v-4l.259.211"></path><g transform="translate(164 62)"><mask id="fna5170540edmh" fill="#fff"><use xlink:href="#fna5170540edmg"></use></mask><path fill="#C8D2D8" d="M3.632.868C2.562 1.016 1.538.588.478.62.4.57.376.52.403.473.428.423.453.4.48.4H2.4c.297.455.926.035 1.232.468" mask="url(#fna5170540edmh)"></path></g><path fill="#CFD6DB" d="M159 62.481c.243-.381.842-.087 1.078-.481h1.826c.085.047.113.096.086.145-.027.049-.054.074-.083.074-.98-.02-1.916.382-2.907.262"></path><g transform="translate(338 185)"><mask id="fna5170540edmj" fill="#fff"><use xlink:href="#fna5170540edmi"></use></mask><path fill="#E2E1E2" d="M3.516.75c0 .084.002.167.004.25H.88V.759C1.758.229 2.636.237 3.516.75" mask="url(#fna5170540edmj)"></path></g><g transform="translate(161 62)"><mask id="fna5170540edml" fill="#fff"><use xlink:href="#fna5170540edmk"></use></mask><path fill="#B6D8E5" d="M.843.619A5.33 5.33 0 01.84.399h2.64c0 .075 0 .149-.002.222L.843.619" mask="url(#fna5170540edml)"></path></g><g transform="translate(483 103)"><mask id="fna5170540edmn" fill="#fff"><use xlink:href="#fna5170540edmm"></use></mask><path fill="#D5D4DA" d="M.679 2.916C.529 2.279.367 1.643.438.976c.439.299.061.919.482 1.224v.72c-.082.112-.163.105-.241-.004" mask="url(#fna5170540edmn)"></path></g><g transform="translate(483 105)"><mask id="fna5170540edmp" fill="#fff"><use xlink:href="#fna5170540edmo"></use></mask><path fill="#B6B7C9" d="M.679.916C.759.916.84.919.92.92v1.2H.708L.679.917" mask="url(#fna5170540edmp)"></path></g><path fill="#0F64AB" d="M129.384 145.476c-3.446-3.65-6.282-7.703-7.998-12.482-1.526-4.253-1.892-8.563-.591-12.949a.492.492 0 01.179-.11c.442-.03.82.15 1.187.37 3.088 1.862 6.519 2.575 10.027 2.645 3.73.074 7.342-.77 10.792-2.274 5.526-2.407 9.99-6.195 13.974-10.674 2.227-2.503 4.214-5.19 6.31-7.795.288-.357.52-.792 1.049-.848l.367-.223c.401-.204.828-.132 1.238-.078 6.794.908 13.017 3.277 18.552 7.403.17.125.326.266.458.434a.36.36 0 01.033.381c-1.23 2.59-1.715 5.372-2.033 8.19-.632 5.62-.417 11.288-.986 16.914-1.237 12.206-8.064 19.85-20.014 22.066-6.741 1.249-13.307.33-19.671-2.18-.282-.292-.695-.315-1.026-.507a2.596 2.596 0 00-1.074-.475c-.534-.239-1.088-.438-1.533-.843-.687-.364-1.333-.808-2.083-1.044l-.046.01c-.399-.625-1.16-.737-1.665-1.21-1.217-.884-2.433-1.767-3.598-2.722-.715-.585-1.41-1.165-1.848-2m94.638-36.525V81.185c.001-1.775.366-2.272 2.127-2.751a12.184 12.184 0 016.423-.002c1.687.451 2.124 1.06 2.125 2.785.001 7.068.021 14.137-.022 21.205-.008 1.065.216 1.447 1.388 1.439 7.315-.056 14.63-.06 21.944.002 1.194.01 1.375-.393 1.368-1.44-.043-7.11-.023-14.22-.022-21.33 0-1.62.382-2.153 1.974-2.612a11.825 11.825 0 016.907.072c1.176.365 1.767 1.083 1.765 2.415-.03 18.68-.03 37.359.001 56.038.002 1.313-.51 2.09-1.717 2.441-2.464.716-4.936.747-7.39-.051-1.1-.357-1.568-1.078-1.561-2.282.041-7.867-.005-15.735.049-23.602.007-1.127-.302-1.392-1.418-1.384-7.313.052-14.628.049-21.942.002-1.073-.006-1.353.301-1.346 1.342.041 7.742.023 15.483.022 23.224 0 1.889-.296 2.438-2.125 2.885-2.335.569-4.708.613-7.03-.198-1.093-.382-1.547-1.082-1.542-2.286.042-9.38.022-18.763.022-28.145m72.271 22.316c1.458-2.193 2.451-4.523 3.364-6.876 3.187-8.212 4.666-16.784 5.109-25.565.014-.297.024-.595.05-.89.255-2.81 1.091-3.64 3.919-3.851 1.592-.12 3.182-.138 4.706.467.98.389 1.529 1.018 1.549 2.192.184 11.05-2.061 21.604-6.597 31.6-3.118 6.875-7.376 13.102-11.779 19.202-1.802 2.497-3.787 4.86-5.564 7.375-2.002 2.835-4.8 3.305-7.898 2.995-1.115-.111-2.243-.302-3.206-.987-1.084-.768-1.158-1.484-.298-2.514 3.598-4.3 7.174-8.617 10.467-13.167.51-.703.516-1.142.034-1.876-5.135-7.796-8.675-16.319-11.058-25.354-1.395-5.292-2.44-10.65-3.023-16.103-.246-2.305.097-2.94 2.352-3.53 2.023-.53 4.056-.51 6.079.033 1.184.319 1.821 1.045 1.899 2.348.61 10.188 3.114 19.9 7.203 29.208.782 1.777 1.588 3.545 2.692 5.293m128.902-34.091c4.44-3.984 9.72-4.596 15.317-3.962.921.105 1.616.529 1.921 1.41.698 2.018.795 4.068.046 6.093-.508 1.378-1.182 1.653-2.642 1.392-5.515-.985-10.333.151-14.005 4.742-.584.73-.806 1.51-.803 2.452.025 9.197.016 18.394.015 27.591 0 1.778-.21 2.148-1.909 2.631-2.314.66-4.632.683-6.907-.26-.835-.347-1.23-.892-1.228-1.837.018-12.97.001-25.94.022-38.908.004-2.469 1.88-4.435 4.325-4.601 1.213-.083 2.435-.064 3.653-.051 1.597.016 1.992.433 2.05 2.027.014.406-.114.832.145 1.28"></path><path fill="#939598" d="M459.815 177.269c-.999.775-3.022.965-4.047.41-.716-.386-.765-1.011-.765-1.703.003-4.021-.01-8.041-.02-12.062-.001-.666-.084-1.307-.384-1.932-.507-1.056-1.39-1.62-2.455-1.99-.668-.226-1.336-.238-2.002.006-1.03.4-2.138.613-3.073 1.237-.188.16-.136.373-.136.574v14.517c0 .206-.003.413.09.606-.905 1.16-3.61 1.445-4.635.507-.432-.396-.388-.885-.388-1.38v-12.413c0-2.329-.364-2.842-2.574-3.645-.847-.238-1.695-.251-2.541.006-2.82.835-2.82.835-2.82 3.786 0 4.116-.034 8.232.021 12.348.016 1.186-.548 1.68-1.618 1.78a9.026 9.026 0 01-1.903-.01c-.996-.12-1.573-.591-1.565-1.718.037-5.446.021-10.893.013-16.34-.002-1.162.463-1.94 1.607-2.41 2.014-.832 4.102-1.282 6.269-1.437 1.1.18 2.2.19 3.3-.006 1.23.045 2.43.271 3.52.835.603.312 1.097.381 1.761.12a13.622 13.622 0 014.406-.941c1.097.167 2.195.176 3.292-.007 4.534.226 6.616 3.474 6.832 6.738-.19 4.142-.024 8.284-.09 12.426-.01.699.12 1.407-.095 2.098M366.789 149c1.768.372 1.868.49 1.87 2.235 0 1.833.033 3.665-.015 5.496-.024 1.002.073 1.413 1.229.88 1.922-.884 3.99-1.046 6.067-.614 3.045.632 5.012 3.227 5.06 6.598-.2 3.151-.052 6.305-.078 9.457-.013 1.618-.082 3.239.05 4.857-1.156 1.221-3.85 1.446-5.103.473-.5-.389-.437-.881-.437-1.383-.003-4.013-.044-8.028.01-12.04.054-3.958-1.495-4.594-5.043-3.842-1.231.26-1.809.863-1.778 2.287.1 4.524.002 9.052.063 13.577.014 1.142-.499 1.667-1.467 1.876a5.985 5.985 0 01-2.647-.01c-.997-.237-1.575-.77-1.57-1.964.04-8.626.04-17.251.002-25.877-.006-1.326.63-1.838 1.784-1.993.668.131 1.336.148 2.003-.013"></path><path fill="#2DBADB" d="M186.08 108.817a1.57 1.57 0 00-.08-.212c.506-2.514 1.99-4.412 3.99-5.858 4.392-3.172 9.688-1.91 12.293 2.86 2.302 4.214 2.17 8.544.313 12.833-1.237 2.856-2.966 5.43-5.32 7.53-.14.06-.258.03-.353-.088l-.049-.394c-.15-.98-.467-1.914-.762-2.854-1.043-2.344-1.925-4.75-3.433-6.882-1.87-2.644-4.114-4.895-6.598-6.935"></path><path fill="#939598" d="M412 158.338c.128-1.232.902-1.823 2.016-1.993 1.874-.285 2.337-.085 3.004 1.217 1.893-1.57 4.132-1.657 6.415-1.514 1.237.078 1.688.889 1.537 2.701-.108 1.289-.549 1.682-1.762 1.582-2.052-.17-4.014-.042-5.594 1.574-.557.57-.808 1.172-.8 1.99.034 3.916.016 7.832.015 11.749 0 1.774-.255 2.143-1.985 2.285-1.01.084-2.16.3-2.83-.883.152-4.617.04-9.233.057-13.85.006-1.62.114-3.241-.073-4.858"></path><path fill="#0F64AB" d="M196.155 126a.301.301 0 00.108.073c.613.459.607 1.185.656 1.838.1 1.355.153 2.718-.124 4.064l-.19.461c-.187.231-.257.531-.422.775-1.332 1.447-2.694 2.866-3.74 4.565-.244.396-.5.782-.67 1.222-.68 1.758-.266 2.506 1.535 2.751.208.028.4.087.577.2l-.011.116c-.233 1.541-1.423 2.379-2.326 3.428-.324.33-.773.451-1.129.73-1.373.697-2.816 1.016-4.306.573-2.696-.805-3.768-3.638-2.712-6.968.914-2.887 2.837-4.98 5.003-6.872 2.08-1.82 4.204-3.585 6.287-5.402.532-.463.978-1.033 1.464-1.554"></path><path fill="#27426E" d="M192 145.885c.936-1.157 1.863-2.324 2.625-3.624l1.894-1.136c.306-.206.498-.183.48.269-1.26 1.74-2.611 3.377-4.42 4.51-.196.116-.39.146-.579-.019"></path><path fill="#919092" d="M412 159c.267.272.194.625.194.954.003 5.695.003 11.39 0 17.084 0 .33.075.682-.179.962L412 159"></path><path fill="#8F8E8E" d="M447.202 178c-.066-.19-.191-.38-.191-.571-.012-5.058-.011-10.116-.01-15.174 0-.08.008-.176.05-.23.03-.038.127-.019.194-.025l-.043 16"></path><path fill="#2F4773" d="M129.322 145l5.678 4.89c-.194.145-.388.146-.584.007-1.927-1.264-3.767-2.645-5.416-4.29.443-.006.44-.273.322-.607"></path><path fill="#929193" d="M460.028 178c-.007-4.675-.015-9.352-.018-14.027-.001-.335-.074-.695.192-.973.019 4.772.04 9.543.057 14.314 0 .255-.002.517-.231.686"></path><path fill="#959395" d="M381.142 177c-.042-.07-.119-.14-.12-.21-.013-4.49-.022-8.98-.022-13.471 0-.106.11-.212.168-.319.059 4.666.11 9.333-.026 14"></path><path fill="#8E8F92" d="M405.204 176c-.238-.226-.201-.527-.201-.814v-12.367c0-.289-.04-.59.194-.819.127 4.667.114 9.333.007 14"></path><path fill="#515F85" d="M135 149.005l.546-.005c.523.296 1.312.33 1.454 1-.777-.181-1.381-.598-2-.995"></path><path fill="#9EC4D3" d="M196 123c.482.93.822 1.9.727 3-.333-.973-.711-1.933-.727-3"></path><path fill="#929091" d="M356.243 168a4.8 4.8 0 01-.005-3l.005 3"></path><path fill="#909092" d="M440 156.07c-.999.382-1.999.372-3 .007 1-.104 2-.1 3-.006"></path><path fill="#908F92" d="M453 156.08c-1 .367-1.999.358-3 .006 1-.114 2-.112 3-.006"></path><path fill="#4B5F8A" d="M137 151.008c.84-.082 1.369.522 2 .901-.1.107-.211.12-.332.038-.58-.274-1.196-.478-1.668-.94"></path><path fill="#8F8E90" d="M437 160.31c.998-.417 1.998-.407 3-.005l-3 .006m14-.011c.597-.56 1.302-.157 1.956-.197.014 0 .045.057.044.088-.002.035-.03.07-.046.104L451 160.3"></path><path fill="#747A99" d="M139 152.04l.378-.04 1.515.715c.09.042.124.089.099.14-.025.053-.051.08-.08.08-.706-.172-1.368-.427-1.912-.895"></path><path fill="#55638A" d="M192.282 145l.718.016c-.53.447-1.224.654-2 .741l1.282-.757"></path><path fill="#567292" d="M196.383 140.994c-.078-.186-.226-.218-.383-.231.27-.364.597-.628 1-.763-.117.404-.278.771-.617.994"></path><path fill="#8F8F90" d="M367 149c-.665.333-1.331.318-2 .012l2-.012"></path><path fill="#4F6089" d="M141.22 153.054c.315.078.619.174.78.573-.367-.082-.717-.218-1-.54.064-.103.138-.115.22-.033"></path><path fill="#445A85" d="M141.973 152.466l-.274.034a195.4 195.4 0 01-.681-.28A1.167 1.167 0 00141 152c.377.045.715.173.973.466"></path><path fill="#1B3B67" d="M197.077 132c-.398-1.938.03-3.953-.546-5.873 2.645-2.928 5.011-6.04 6.073-9.934 1.149-4.205.82-8.24-1.84-11.826-3.03-4.086-8.11-4.498-11.915-1.07-1.587 1.428-2.581 3.253-3.483 5.147-1.86-1.155-3.616-2.48-5.57-3.483-4.396-2.259-9.039-3.692-13.943-4.262-.288-.034-.569-.146-.853-.222 4.021-5.147 8.672-9.593 15.013-11.537 7.128-2.186 13.647-.52 19.074 4.586 5.631 5.302 7.467 12.077 6.773 19.678-.67 7.344-3.6 13.6-8.783 18.796"></path><path fill="#91B0BD" d="M164 100.251l-5.915-.008c-.08-.05-.103-.096-.07-.138.03-.039.058-.059.089-.059 1.964.097 3.948-.274 5.896.205"></path><path fill="#8CAFBC" d="M118 105.04c1.332.093 2.685-.255 4 .202-1.333-.059-2.687.29-4-.202"></path><path fill="#8BABB9" d="M115 105.317c.996-.444 1.996-.392 3-.027l-3 .027"></path><path fill="#D3D4DD" d="M197.279 134c-.136-.485.26-1.067-.279-1.478.051-.296.238-.459.525-.522-.048.671.176 1.375-.246 2"></path><path fill="#9AC0CE" d="M148.003 76c-.023-.703.098-1.377.48-2a3.079 3.079 0 01-.48 2"></path><path fill="#84A6B4" d="M156 101.027c-.616.398-1.328.186-2 .233.612-.424 1.327-.192 2-.233"></path><path fill="#6AACC1" d="M157 100.022l-.014.196-.986.004c.295-.346.66-.179 1-.2"></path><g transform="translate(445 93)"><mask id="fna5170540edmr" fill="#fff"><use xlink:href="#fna5170540edmq"></use></mask><path fill="#0F64AB" d="M28.621 33.996c0 1.746-.011 3.492.008 5.24.006.53-.106.842-.698.987-3.847.943-7.718 1.37-11.599.336-2.729-.727-4.619-2.403-5.08-5.369-.44-2.841-.11-5.47 2.352-7.351 1.382-1.057 3.03-1.473 4.721-1.612 3.087-.253 6.127-.036 9.077 1.044.92.337 1.311.83 1.246 1.871-.1 1.612-.026 3.235-.027 4.854m10.17 6.27c-.008-8.693-.005-17.384-.005-26.076v-1.404c-.145-.713-.243-1.431-.379-2.145C36.93 4.648 32.857 1.635 27.09.635 19.734-.642 12.487.37 5.269 1.804c-.604.12-1.046.518-1.401 1.023-1.386 1.965-1.337 4.17-.927 6.38.183.976.889 1.391 1.925.993.547-.21 1.13-.336 1.703-.47 5.32-1.252 10.674-2.048 16.153-1.33 3.726.487 5.838 2.824 5.894 6.59.027 1.792-.025 3.585.02 5.376.021.894-.152 1.06-1.054.734-5.632-2.035-11.398-2.705-17.26-1.225-4.869 1.229-8.497 3.956-9.576 9.217a19.296 19.296 0 00.02 7.756c.793 3.87 3.119 6.505 6.68 8.096 3.247 1.45 6.668 2.083 10.175 2.28 4.35.245 8.675-.09 12.97-.788 3.222-.523 6.546-.872 8.325-4.281v-.512c-.247-.44-.124-.919-.125-1.378" mask="url(#fna5170540edmr)"></path></g><path fill="#0F64AB" d="M349.92 125.811c-1.58 4.508-4.89 6.79-9.571 7.127-2.777.2-5.5-.238-8.18-.969-.636-.173-.903-.471-.9-1.148a6479.9 6479.9 0 00-.006-26.89c0-.707.295-.965.916-1.115 1.948-.469 3.91-.797 5.966-.73 2.191-.104 4.366.19 6.414 1.131 3.311 1.525 5.426 4.13 6.153 7.644 1.04 5.022.922 10.052-.793 14.95m10.164-20.408c-2.638-6.152-7.681-9.234-13.904-10.574-7.247-1.561-14.45-.752-21.558 1.053-2.438.618-3.593 2.242-3.593 4.727-.002 9.05-.001 18.099-.001 27.15 0 9.134.022 18.269-.027 27.403-.007 1.241.463 1.93 1.562 2.28 2.331.741 4.678.727 7.02.058 1.214-.347 1.74-1.104 1.722-2.444-.067-4.673-.027-9.346-.026-14.02 0-1.548-.003-1.52 1.564-1.203 3.755.763 7.544 1.274 11.385 1.008 7.464-.518 12.778-4.114 15.639-11.123 1.597-3.914 2.055-8.034 2.125-12.214.07-4.143-.248-8.227-1.908-12.101m18.708 6.212c.255-2.302.722-4.538 1.924-6.517 2.148-3.537 5.584-4.249 9.365-3.974 5.143.375 7.6 3.631 8.388 8.616.463 2.929.46 2.929-2.458 2.929h-7.36c-2.96 0-5.921-.018-8.882.013-.8.008-1.08-.137-.977-1.067m29.926 18.276c-.357-1.164-.885-1.402-1.984-.832-4.875 2.53-10.097 3.26-15.499 2.932-2.493-.15-4.977-.54-7.22-1.73-3.789-2.011-4.672-5.64-5.133-9.49-.109-.906.195-1.157 1.088-1.148 4.357.04 8.715.019 13.072.018 4.314 0 8.63.011 12.944-.006 2.025-.008 2.956-.947 2.968-2.958.02-3.396-.182-6.764-1.081-10.069-1.486-5.455-4.519-9.652-9.859-11.799-5.297-2.129-10.797-2.287-16.314-.954-6.409 1.55-10.419 5.677-12.268 11.935-1.749 5.92-1.75 11.954-.78 17.988 1.328 8.265 6.209 13.269 14.29 15.226 4.575 1.11 9.223 1.162 13.87.785 3.123-.254 6.186-.901 8.965-2.497 2.598-1.491 3.82-4.54 2.941-7.401"></path><path fill="#939598" d="M351.588 171.149c-.693 3.172-3.059 4.407-6.053 4.062-2.673-.31-2.667-.37-2.667-3.064v-4.096c0-1.836.035-3.671-.016-5.504-.021-.758.167-1.172.958-1.318 1.423-.264 2.838-.389 4.247.013 2.484.71 3.726 2.493 3.939 5.598.1 1.458-.1 2.895-.408 4.309m5.408-5.129c-.271-3.752-1.87-6.62-5.461-8.017-3.991-1.554-8.033-1.102-12.035 0-1.18.324-1.499 1.313-1.496 2.513.027 8.237.027 16.474-.004 24.71-.003.886.214 1.487 1.066 1.774l2.78-.007c.81-.324 1.09-.905 1.04-1.794-.07-1.356-.018-2.72-.018-4.08 0-2.645-.015-2.534 2.54-2.17 2.548.364 5.122.388 7.429-1.105 3.08-1.992 3.938-5.106 4.163-8.53a12.99 12.99 0 01-.004-3.294m119.793 8.709c-.194.007-.384.12-.577.183-.9.282-1.802.254-2.705.018-1.564-.42-3.007-.922-3.243-2.88-.233-1.949.756-3.507 2.715-3.757 1.342-.172 2.72-.204 4.07.2.816.244 1.277.597 1.19 1.553-.092 1.026-.113 2.075.004 3.095.133 1.178-.419 1.547-1.454 1.588m6.19-13.722c-.624-2.761-2.456-4.233-5.162-4.715-3.247-.578-6.477-.209-9.686.333-1.488.252-2.287 1.455-2.133 2.963.113 1.099.58 1.414 1.65 1.138.563-.144 1.127-.305 1.7-.378 2.05-.258 4.075-.752 6.174-.334 1.83.367 2.664 1.26 2.694 3.142.01.622-.02 1.246.007 1.867.027.596-.185.693-.736.514-2.165-.701-4.387-.746-6.643-.596-2.97.197-5.28 2.091-5.703 4.811-.586 3.755.654 6.158 3.774 7.317 3.395 1.263 6.86 1.056 10.335.463 1.41-.24 2.968-.237 3.75-1.801-.007-4.908-.015-9.816-.02-14.724"></path><path fill="#8F8E90" d="M474.065 176.018L477 176c-.944.574-1.974.22-2.972.212-.01 0-.034-.064-.027-.093.008-.037.04-.068.064-.101"></path><path fill="#939598" d="M398.806 174.706c-.279.013-.553.139-.83.213-.907.227-1.811.27-2.712-.03-2.527-.784-3.309-1.718-3.128-3.73.142-1.593.946-2.608 2.622-2.854 1.467-.216 2.977-.257 4.44.255.723.252 1.096.603 1.037 1.429-.074 1.03-.108 2.078.007 3.1.13 1.158-.378 1.57-1.436 1.617m6.186-13.196c-.72-3.14-2.45-4.806-5.366-5.26-3.18-.495-6.328-.184-9.463.322-1.722.278-2.505 1.532-2.176 3.253.153.797.471 1.307 1.452.924.573-.224 1.206-.316 1.822-.409 2.049-.312 4.084-.742 6.184-.336 1.542.297 2.338 1.032 2.636 2.56.152.784.092 1.568.145 2.351.052.773-.273.79-.893.597-1.922-.596-3.882-.744-5.903-.595-4.618.344-6.408 2.17-6.43 6.733-.012 2.711 1.07 4.372 3.632 5.328 4.286 1.6 8.597 1.103 12.892.002.79-.202 1.232-.798 1.476-1.547-.154-4.642-.137-9.281-.008-13.923"></path><path fill="#8F8E90" d="M396 176c1 .01 2 .02 3 .028-1.006.446-2.006.425-3-.028"></path></g></svg>