<svg xmlns="http://www.w3.org/2000/svg" viewBox="81.00007629394531 2.9999260902404785 138.8556671142578 44.855159759521484"><g fill="none" fill-rule="evenodd"><path fill="#1D1D1B" d="M155.684 9.115c-3.716 7.452-6.243 15.405-8.626 23.356-.335 1.117-.317 2.754.487 3.69.815.95 1.62-.185 1.855-.967 2.273-7.584 4.658-15.156 8.202-22.265.557-1.118.562-2.697 0-3.814-.493-.98-1.426-.986-1.918 0m16.91 18.292c.226-1.97-.145-4.045-1.193-5.61-1.424-2.127-4.022-2.674-6.287-1.597-1.477.702-1.477 5.062.36 5.297 1.471.19 3.34.107 4.101 1.527a5.02 5.02 0 01-1.136 1.273c-2.477 2-6.716 2.599-9.033.08-1.98-2.152-.14-5.123 1.561-6.784 2.323-2.266 5.796-3.393 8.955-3.763 1.964-.231 1.78-5.604 0-5.395-4.587.538-9.38 2.529-11.982 6.504-2.909 4.443-3.153 11.823 1.42 15.274 3.192 2.407 7.775 1.164 10.567-1.453a16.77 16.77 0 00-.026.806c-.006.764.228 2.697 1.356 2.697 1.134 0 1.35-1.933 1.355-2.697.015-2.03.172-4.12-.018-6.16m2.47-13.154c.006.212.004.422-.002.635-.015.292-.01.235.016-.167-.014.202-.033.405-.053.607-.075.788-.182 1.573-.284 2.358-.23 1.759-.459 3.516-.59 5.285-.267 3.642-.446 8.129 1.996 11.148 3.017 3.73 8.069.492 9.814-2.76 1.425-2.654 2.285-5.747 3.117-8.625.953-3.297 1.673-6.656 2.371-10.013.198-.95.04-2.778-.947-3.318-1.076-.589-1.533 1.24-1.668 1.884-1.097 5.276-2.34 10.613-4.471 15.585-.741 1.726-2.26 3.271-4.218 3.491a3.501 3.501 0 01-1.893-.327c-.398-.19-.847-.69-.92-.81-.34-.568-.289-.543-.47-1.306.113.478-.055-.473-.068-.565-.019-.17-.036-.342-.05-.513.018.28.019.255.001-.076-.078-1.76.035-2.78.205-4.366.286-2.69.898-5.432.825-8.147-.02-.765-.21-2.698-1.355-2.698-1.117 0-1.375 1.934-1.356 2.698m27.886.744l-.015-.033.014.033m-5.471 5.843c.874-1.637 1.772-3.262 2.89-4.75.422-.56 1.134-1.643 1.903-1.776.345-.06.157-.007.192.008.08.034.129.052.16.061-.008.014.005.05.08.137l.036.05.104.198c.03.057.056.116.082.174-.022-.041.094.259.119.334.097.3.174.605.25.91l.03.116c.002.017.005.03.009.049a40.244 40.244 0 01.492 3.36c-2.148.24-4.273.59-6.347 1.129m20.96-1.997c-3.888.278-7.902.318-11.874.615a43.106 43.106 0 00-.838-5.598c-.319-1.434-.771-3.067-1.807-4.168-1.378-1.465-2.954-.42-4.112.778-1.813 1.874-3.045 4.355-4.27 6.624-.986 1.825-1.979 3.645-2.972 5.466-.143.065-.288.129-.432.197-.652.31-.964 1.34-.986 2.41a758.555 758.555 0 00-1.963 3.63c-.584 1.089-.55 2.723 0 3.815.504 1.004 1.403.958 1.917 0a925.069 925.069 0 012.764-5.104c3.252-1.379 6.708-2.073 10.23-2.457.013.936.014 1.905.016 2.93.005 2.437-.114 4.87-.126 7.305-.003.763.228 2.697 1.357 2.697 1.133 0 1.351-1.934 1.355-2.697.017-3.47.156-6.979.115-10.477 3.895-.277 7.83-.3 11.627-.571 1.945-.139 1.832-5.525 0-5.395"></path><path fill="#34BBD9" d="M205.903 8.358c1.259-1.981 2.35-4.948 5.836-5.282.99-.096 2.546-.202 3.066.37.335.368.39 1.487.132 1.886-.599.916-3.242 1.621-4.463 2.12-1.47.598-2.853.794-4.44 1.101"></path><path fill="#34BBD9" d="M1.194 11.576c-2.148 1-1.028-3.974.47-4.672C11.084 2.518 21.656-.23 32.108.081 42.255.384 51.48 3.77 60.878 7.25c9.545 3.535 20.148 7.234 30.465 5.405 9.013-1.598 16.577-6.724 25.11-9.666 2.31-.796 1.091 4.134-.469 4.672-8.54 2.945-16.192 8.2-25.21 9.8-9.914 1.758-19.997-1.064-29.268-4.422-9.695-3.51-19.354-7.695-29.832-8.008-10.528-.313-20.964 2.114-30.48 6.545" mask="url(#fn1d02ae29ddmfn1d02ae29ddmfn1d02ae29ddmfn1d02ae29ddmb)" transform="translate(81 29.855)"></path><path fill="#E32313" d="M85.88 25.663c9.516-4.43 19.95-6.858 30.48-6.544 4.31.13 8.48.92 12.574 2.042a13.353 13.353 0 00-1.842-1.422c-7.333-4.688-10.393-5.003-15.526-4.986-5.36 0-17.552 2.67-25.216 6.238-1.5.698-2.619 5.673-.47 4.672"></path><path fill="#75B843" d="M131.16 24.958c-5.488-1.67-10.552-2.675-16.448-2.851-10.453-.313-21.025 2.436-30.445 6.822-1.499.698-2.618 5.672-.47 4.672 9.516-4.43 19.952-6.858 30.48-6.543 10.373.31 19.943 4.412 29.54 7.9-6.234-6.683-8.775-8.75-12.657-10"></path></g></svg>