<svg xmlns="http://www.w3.org/2000/svg" viewBox="55 68 489 111"><g fill="none" fill-rule="evenodd"><path fill="#1D1D1B" d="M110 68c30.289 0 55 24.962 55 55.5 0 30.624-24.711 55.5-55 55.5s-55-24.876-55-55.5S79.711 68 110 68z"></path><path fill="#FFF" d="M107.5 72c27.284 0 49.5 22.69 49.5 50.5S134.784 173 107.5 173 58 150.31 58 122.5 80.216 72 107.5 72z"></path><path fill="#1D1D1B" d="M65 133.325v-15.992h24.079l-5.63-8.637L95.315 101 109 125.286 95.315 150l-11.866-6.841 6.236-9.834zm34 16.185l13.876-22.939L143 126v12.327h-12.647L143 158.082 129.387 166l-13.35-19.429-5.356 8.817zm0-54.177L112.117 120H139v-13.25h-10.526l9.878-19.833L126.45 80l-11.417 18.667-5.506-9.917zM260 97v18.139h-1.281c-1.537-4.993-3.757-8.737-6.831-11.316-2.989-2.58-6.32-3.91-9.905-3.91-3.416 0-6.32 1.08-8.54 3.244-2.305 2.163-3.927 5.159-4.866 9.07-.94 3.91-1.452 7.82-1.452 11.898 0 4.909.512 9.236 1.537 12.98 1.025 3.744 2.732 6.49 5.038 8.237 2.305 1.747 5.038 2.58 8.197 2.58 1.11 0 2.22-.167 3.416-.417 1.195-.25 2.39-.665 3.586-1.164v-10.734c0-1.997-.085-3.328-.342-3.91-.256-.583-.768-1.165-1.536-1.581-.769-.5-1.708-.75-2.818-.75h-1.196v-1.414h22.287v1.415c-1.708.166-2.904.416-3.501.749-.683.416-1.196 1.081-1.537 1.996-.171.5-.342 1.665-.342 3.578v10.734c-2.903 1.497-5.977 2.58-9.136 3.328a42.818 42.818 0 01-9.82 1.165c-4.355 0-7.941-.666-10.844-1.997-2.904-1.331-5.38-3.079-7.6-5.242-2.22-2.163-3.928-4.576-5.123-7.322-1.537-3.495-2.391-7.405-2.391-11.732 0-7.738 2.39-14.311 7.258-19.636 4.867-5.325 10.93-7.988 18.273-7.988 2.305 0 4.355.166 6.148.582 1.025.167 2.562.832 4.782 1.748 2.22.915 3.5 1.414 3.928 1.414.597 0 1.195-.25 1.793-.749.512-.499 1.024-1.497 1.451-2.912H260V97zm7.684 1.165h23.653v1.414h-1.196c-1.793 0-2.988.167-3.671.583-.683.416-1.11.998-1.452 1.747-.256.749-.427 2.58-.427 5.492v25.294c0 4.576.342 7.655.94 9.152.597 1.498 1.622 2.746 3.073 3.745 1.452.998 3.245 1.497 5.38 1.497 2.476 0 4.61-.582 6.319-1.913 1.793-1.248 3.074-2.996 3.927-5.16.854-2.162 1.281-6.073 1.281-11.481v-20.968c0-2.33-.256-3.994-.683-4.91-.427-.998-.94-1.663-1.622-2.08-1.025-.582-2.476-.831-4.27-.831V98.33h15.883v1.415h-.94c-1.28 0-2.39.25-3.244.832-.854.582-1.452 1.414-1.879 2.58-.256.831-.427 2.246-.427 4.326v19.553c0 6.074-.341 10.4-1.025 13.146-.683 2.663-2.476 5.16-5.208 7.406-2.733 2.246-6.49 3.411-11.271 3.411-3.928 0-7.002-.582-9.222-1.747-2.904-1.581-5.038-3.661-6.234-6.24-1.195-2.58-1.793-5.908-1.793-10.235v-25.211c0-2.995-.17-4.826-.427-5.491-.256-.75-.768-1.332-1.537-1.748-.683-.416-2.05-.665-4.013-.582v-1.581h.085zm77.191 36.86h-16.224l-1.963 4.992c-.598 1.664-.94 3.079-.94 4.16 0 1.415.513 2.496 1.537 3.162.598.416 2.135.749 4.526.915v1.415h-15.285v-1.415c1.623-.25 2.989-1.081 4.014-2.33 1.024-1.248 2.39-3.827 3.927-7.738l16.395-41.103h.683l16.565 42.268c1.623 3.994 2.903 6.49 3.928 7.572.769.832 1.879 1.248 3.245 1.414v1.415h-22.201v-1.415h.94c1.792 0 3.073-.25 3.756-.832.513-.416.769-.998.769-1.747 0-.416-.086-.915-.17-1.414-.086-.25-.342-1.165-1.026-2.83l-2.476-6.49zm-1.11-2.83l-6.83-17.722-7.003 17.723h13.833zm60.882-34.03v13.978h-1.196c-.768-3.245-1.537-5.574-2.39-6.906-.854-1.414-2.05-2.496-3.587-3.328-.854-.5-2.39-.666-4.525-.666h-3.416v39.69c0 2.662.085 4.243.342 4.908.256.666.768 1.248 1.537 1.748.768.499 1.793.748 3.074.748h1.537v1.415h-23.994v-1.415h1.537c1.366 0 2.39-.25 3.244-.832.598-.332 1.025-.998 1.366-1.83.257-.583.342-2.163.342-4.743v-39.689h-3.33c-3.074 0-5.294.75-6.746 2.164-1.964 2.08-3.16 4.992-3.757 8.736h-1.28V98.165h41.242zm21.347 2.995v20.968h.939c2.903 0 5.038-.999 6.319-3.079 1.28-2.08 2.134-5.075 2.476-9.069h1.28v26.958h-1.28c-.256-2.912-.854-5.325-1.708-7.238-.854-1.914-1.878-3.162-3.074-3.745-1.11-.665-2.818-.998-5.038-.998v14.478c0 2.828.086 4.576.342 5.158.17.666.598 1.165 1.195 1.581.598.416 1.537.583 2.818.583h2.733c4.269 0 7.685-1.082 10.332-3.329 2.561-2.246 4.44-5.574 5.55-10.15h1.28l-2.049 16.39h-39.62v-1.414h1.537c1.366 0 2.391-.25 3.245-.832.598-.333 1.025-.998 1.366-1.83.256-.583.342-2.164.342-4.743v-33.864c0-2.33-.086-3.745-.171-4.327-.256-.915-.683-1.581-1.28-2.08-.855-.749-2.05-1.082-3.502-1.082h-1.537v-1.414h38.34v15.226h-1.281c-.683-3.744-1.537-6.407-2.733-7.988-1.195-1.58-2.818-2.828-5.038-3.577-1.28-.5-3.586-.666-7.087-.666h-4.696v.083zm60.284 30.952l12.466-33.947h18.7v1.414h-1.537c-1.366 0-2.476.25-3.244.75-.598.332-1.025.998-1.367 1.747-.256.582-.341 2.163-.341 4.742v33.948c0 2.662.085 4.243.341 4.909.257.666.769 1.248 1.537 1.747.769.5 1.794.749 3.074.749h1.452v1.415H493.45v-1.415h1.452c1.366 0 2.476-.25 3.245-.832.512-.333 1.024-.998 1.366-1.83.256-.583.341-2.164.341-4.743V102.74l-17.59 47.01h-.853l-17.847-46.677v36.277c0 2.496.086 4.077.171 4.66a5.3 5.3 0 001.879 3.078c.94.832 2.476 1.165 4.61 1.165v1.415h-15.71v-1.415h.512c1.024 0 1.964-.166 2.817-.582.854-.416 1.537-.915 1.964-1.581.427-.666.769-1.581 1.025-2.746.085-.25.085-1.58.085-3.91V106.9c0-2.579-.085-4.243-.341-4.909-.256-.665-.769-1.248-1.537-1.747-.769-.5-1.793-.749-3.074-.749h-1.452v-1.414h18.7l13.065 34.03zM544 148.254v1.415h-23.994v-1.415h1.537c1.366 0 2.39-.25 3.245-.832.597-.333 1.024-.998 1.366-1.83.256-.583.341-2.164.341-4.743v-33.864c0-2.663-.085-4.244-.341-4.91-.256-.665-.769-1.248-1.537-1.747-.769-.499-1.793-.749-3.074-.749h-1.537v-1.414H544v1.414h-1.537c-1.366 0-2.39.25-3.245.75-.597.332-1.024.998-1.366 1.83-.256.582-.341 2.163-.341 4.742v33.865c0 2.662.085 4.243.341 4.909.256.666.769 1.248 1.537 1.747.769.5 1.793.749 3.074.749H544v.083zm-330 2.986V153h-26v-1.76h1.646c1.398 0 2.632-.334 3.455-1.004.658-.42 1.152-1.173 1.481-2.262.247-.754.412-2.68.412-5.948V99.974c0-3.267-.165-5.278-.412-6.115-.247-.838-.823-1.508-1.645-2.178-.823-.587-1.893-.922-3.291-.922H188V89h26v1.76h-1.646c-1.398 0-2.632.334-3.455 1.004-.658.42-1.152 1.173-1.481 2.262-.247.754-.412 2.765-.412 5.948v42.052c0 3.267.165 5.278.412 6.115.247.838.823 1.508 1.645 2.178.823.587 1.893.922 3.291.922H214z"></path></g></svg>