<svg xmlns="http://www.w3.org/2000/svg" viewBox="0 0.03248739242553711 1892.2799072265625 504.5975036621094"><g fill="#1E4592"><path d="M0 347.54c12.32-63.4 36.32-121.68 76.12-172.9 12.26-15.78 25.39-30.88 42-43.45-2.81 4.4-5.37 9-8.46 13.2-42.58 58.05-71.57 121.23-70.92 194.83.8 90.14 60.21 139.47 149.12 124 87.45-15.2 157-61.42 215.42-126.35 4.36-4.84 8.46-9.91 16.71-12-10 12.95-19.39 26.36-30 38.78-55.39 65.1-121.5 113.95-206.11 134.3-8.94 2.15-17.84 4.45-26.76 6.68h-48c-33.12-9.74-66.75-20-84.84-52.45-10.57-19-16.34-40.59-24.27-61L0 347.54z"></path><path d="M0 391.16c7.93 20.43 13.7 42.06 24.27 61 18.09 32.44 51.72 42.71 84.84 52.45H0V391.16zm1396.37-187.83c25.21.84 39.4 14.46 35.27 38.85a633.101 633.101 0 01-24.4 96.64c-7.16 21.19-26.09 33.43-48.84 34.63-26.84 1.42-53.82.9-80.71.05-6.46-.2-12.79-5-19.86-8-6.11 23.19-12.68 48.17-19.3 73.29l-85.72-.05c18.85-75.49 37.31-150 56.35-224.36 1.11-4.34 6.7-10.51 10.46-10.69 21.77-1 43.62-.89 65.42-.17 3.32.11 6.47 5.33 7.34 6.1 12.32-2.37 23.19-5.85 34.18-6.29 23.24-.91 46.56-.83 69.81 0zm-109.041 46.318l-.009.014c-.652 1.045-1.146 2.123-1.46 3.228a967.907 967.907 0 00-3.467 12.634c-4.296 16.048-8.254 32.223-12.213 48.366-1.823 7.387-3.143 12.768-3.456 16.79-.847 10.783 5.538 11.795 28.856 15.48 4.2-2.69 9.313-5.02 14.145-7.463 6.677-3.36 12.818-6.928 15.264-11.99.12-.244.23-.489.331-.737 9.36-23.29 13.53-48.71 19.2-73.41 1-4.32.92-10.9-1.65-13.68-10.35-11.16-46.882-3.128-55.541 10.768zm354.901-46.568c34.37.24 48 16.55 40.58 50.15-8.84 40.17-19.21 79.97-29.88 123.89-29.75-3.54-57.85-9.18-86-9.61-30-.45-60 5.21-90.14 6-40.16 1.13-49.82-11.44-40.86-49.79a239.64 239.64 0 018.58-29.17c8.07-21.64 22.78-34.9 47.09-35.11 29.78-.24 59.6.14 89.31-1.45 6.15-.33 11.91-8.12 17.85-12.47-6.09-3.45-12.11-9.74-18.28-9.89-37-.94-74-.47-111-.47 1.44-32.15 1.44-32.16 31.06-32.16 47.23 0 94.46-.24 141.69.08zm-92.989 137.646h.043a130.7 130.7 0 008.216-.306c7.12-.48 16.82-6.33 20-12.51 4.726-9.388 6.029-20.528 8.623-32.586l.094-.43.187-.854c.21-.942.427-1.888.656-2.84-9.456 0-17.972-.294-26.089-.3-5.281-.005-10.398.112-15.501.51-14 1.1-32.76 36.54-22.87 43.36 6.716 4.632 16.576 5.936 26.038 5.957h.602zM1139.04 203.11c30.76.27 40.6 11.93 35.16 42.56-3.48 19.98-9.19 39.52-14.5 61.66h-142.44c-12.92 29.24-10.18 33.69 20 33.79 35.46.13 70.93 0 106.41 0-.64 32.68-.64 32.7-29 32.7-52.32 0-104.64.15-157-.05-31.65-.12-42.29-13.54-35-44.08 6.56-27.47 13.16-54.95 20.65-82.18 8.66-31.49 25.47-44.16 58.38-44.4 45.78-.327 91.56-.327 137.34 0zm-114.13 69.22h.003l-.003.03h59.33c2.38-9.12 5.55-16.12 5.55-23.12v-.03c0-4.31-3.89-11-7.68-12.53-31.27-12.37-52.87 1.09-57.2 35.65zM798.98 372.66c9.73-38.53 19-75 28.15-111.47 5.8-23.14 3.91-25.62-19.12-26-35.22-.54-35.3-.5-43.81 33.65-7.36 29.53-15.24 58.95-21.75 88.67-2.62 11.95-7.17 17.2-20.14 16.61-22.41-1-44.9-.29-70.3-.29 14.48-57.84 28.46-113.66 42.76-170.8 11.92 0 23.09 1.78 33.46-.37 22.82-4.72 44.24 7.15 67.88 1.94 22.92-5 47.74-1.64 71.71-1.52 39.5.21 54.21 18.44 45.28 56.57-8.76 37.41-18.15 74.66-27.52 113l-86.6.01zm-421.35-96.12c5.14 22-2.31 34.15-18.23 44.82-54.85 36.79-108.89 74.81-163.22 112.35-3 2.06-5.86 5.15-9.15 5.75-14.23 2.56-28.6 4.37-42.91 6.45-1.31-13-6-26.86-3.27-39 8.71-38.08 20.55-75.44 30.44-113.26 2.25-8.6 1.53-18 2.18-27-9.38 1.77-19 2.75-28.07 5.51-10 3.05-19.55 7.74-31 12.43 2.36-20.66 9.84-31.93 28.35-38.7 42.13-15.41 83.21-33.67 124.77-50.64 5.85-2.38 12-4 21.79-7.31-4.16 34.71-8.64 66.06-11.38 97.57-1.19 13.71 1.18 27.74 1.94 41.62 12.22-4.82 25-8.55 36.53-14.71 20.24-10.82 39.78-23.18 61.23-35.88zm1347.99-72.48h78c-.62 6.68-1.2 12.88-2.17 23.38 24.61-34 57.35-22.39 90.83-24.38-3.86 16.76-7.3 31.71-11 47.92-17.91 0-34.5.23-51.08-.06-20.31-.36-32.39 8.46-37.07 28.89-7.07 30.89-15.46 61.48-23.49 93h-85.86c14.06-56.67 27.86-112.36 41.84-168.75zM618.51 373.13h-86c13.4-54.08 26.35-107.2 40.08-160.11 1.05-4 7.57-9.32 11.72-9.47 24.52-.89 49.1-.44 76.52-.44l-42.32 170.02zM308.49 200.38c3.65-32.84 7.35-62.25 10.05-91.76 2-22.25-.57-24.09-22.69-18-23.54 6.55-46.94 13.6-70.41 20.44a580.104 580.104 0 00-3.53-4.73c6-5.2 11.1-13.14 18-15.14 39.66-11.49 79.6-22 119.69-32 21.4-5.3 29.73 2.61 28.5 24.67-.49 8.68-.91 17.38-1.71 26-3.21 34.97-1.32 36.58 36.79 23.34-4.86 10-7.19 16.44-11 21.88-1.77 2.52-6.38 3.06-9.7 4.5l-93.99 40.8z"></path><path d="M383.04 188.32c-1.07 21.57-1.58 38.67-3 55.68-.32 3.78-3 8.85-6.12 10.66-24.18 14-48.75 27.36-77 43 3.14-25.24 5.21-46.55 8.87-67.58.77-4.42 6.71-9.18 11.39-11.47 20.09-9.82 40.56-18.76 65.86-30.29zm-84.21-80c-2.09 17.38-3.06 32.45-6.14 47.08-1.08 5.14-6.48 11.35-11.41 13.37-26 10.62-52.49 20.07-79.17 30.06-1.86-54.76 16.07-71.89 96.72-90.51zm377.72 33.75c-4 16.05-7.17 28.61-10.66 42.5h-85.86l10.3-42.5h86.22zM318.91 6.76c114.62-31.17 189.74 49.25 162.08 173.46.73-47.6.82-95-33.24-133.61C413.12 7.38 367.36 2.92 318.91 6.76z"></path></g></svg>