<?xml version="1.0" encoding="UTF-8" standalone="no"?>
<svg
   xmlns:dc="http://purl.org/dc/elements/1.1/"
   xmlns:cc="http://creativecommons.org/ns#"
   xmlns:rdf="http://www.w3.org/1999/02/22-rdf-syntax-ns#"
   xmlns:svg="http://www.w3.org/2000/svg"
   xmlns="http://www.w3.org/2000/svg"
   xmlns:sodipodi="http://sodipodi.sourceforge.net/DTD/sodipodi-0.dtd"
   xmlns:inkscape="http://www.inkscape.org/namespaces/inkscape"
   viewBox="0 0 700 700"
   version="1.1"
   id="svg34"
   sodipodi:docname="intelbras-logo.svg"
   width="700"
   height="700"
   inkscape:version="0.92.4 (5da689c313, 2019-01-14)">
  <metadata
     id="metadata40">
    <rdf:RDF>
      <cc:Work
         rdf:about="">
        <dc:format>image/svg+xml</dc:format>
        <dc:type
           rdf:resource="http://purl.org/dc/dcmitype/StillImage" />
        <dc:title></dc:title>
      </cc:Work>
    </rdf:RDF>
  </metadata>
  <defs
     id="defs38" />
  <sodipodi:namedview
     pagecolor="#ffffff"
     bordercolor="#666666"
     borderopacity="1"
     objecttolerance="10"
     gridtolerance="10"
     guidetolerance="10"
     inkscape:pageopacity="0"
     inkscape:pageshadow="2"
     inkscape:window-width="1600"
     inkscape:window-height="837"
     id="namedview36"
     showgrid="false"
     inkscape:zoom="0.71136646"
     inkscape:cx="187.45167"
     inkscape:cy="446.86555"
     inkscape:window-x="-8"
     inkscape:window-y="-8"
     inkscape:window-maximized="1"
     inkscape:current-layer="svg34" />
  <g
     id="g32"
     style="fill:#00a335;fill-rule:evenodd;stroke:none;stroke-width:1;fill-opacity:1"
     transform="matrix(6.6633039,0,0,6.6633039,72.670349,291.67709)">
    <g
       transform="translate(-119,-16)"
       id="g30"
       style="fill:#00a335;fill-opacity:1">
      <g
         id="g28"
         style="fill:#00a335;fill-opacity:1">
        <g
           transform="translate(119,16)"
           id="g26"
           style="fill:#00a335;fill-opacity:1">
          <g
             id="g24"
             style="fill:#00a335;fill-opacity:1">
            <g
               transform="translate(0.606571,0.710258)"
               id="g22"
               style="fill-rule:nonzero;fill:#00a335;fill-opacity:1">
              <path
                 d="m 65.560135,3.8858281 c -3.315989,0 -6.004024,2.7111016 -6.004024,6.0549219 0,3.343422 2.688035,6.054523 6.004024,6.054523 1.094311,0 2.119874,-0.296304 3.003198,-0.811882 v 0.812281 H 71.56495 V 9.9406172 C 71.564818,6.5965312 68.87652,3.8858281 65.560135,3.8858281 Z m 3.001749,6.0547891 v 0.030016 c -0.01594,1.6580308 -1.3535,2.9973118 -3.00188,2.9973118 -1.658127,0 -3.002408,-1.355218 -3.002408,-3.0273274 0,-1.6718438 1.344281,-3.0278594 3.002408,-3.0278594 1.65839,0 3.002144,1.3560156 3.002144,3.0278594 z"
                 id="path2"
                 inkscape:connector-curvature="0"
                 style="fill:#00a335;fill-opacity:1" />
              <path
                 d="m 22.353099,12.738977 c -0.303836,0.146226 -0.643363,0.229632 -1.002778,0.229632 -1.289229,0 -2.33481,-1.054265 -2.33481,-2.354632 h 1.31e-4 l 5.27e-4,-3.7001567 2.272516,-5.312e-4 c 0,-5.313e-4 0.376272,-1.3343672 0.376272,-3.0269297 l -2.648788,5.312e-4 V 0.34478125 c -1.678935,0 -3.002671,0.4473125 -3.002671,0.4473125 0,0 7.9e-4,1.81926565 3.95e-4,3.09386715 h -3.95e-4 v 6.7215081 c 0,0.0023 0,0.0044 0,0.0065 0,2.971812 2.389467,5.381562 5.336691,5.381562 1.008837,0 1.95169,-0.283156 2.756652,-0.774031 -0.749778,-0.684649 -1.352183,-1.530266 -1.753742,-2.482531 z"
                 id="path4"
                 inkscape:connector-curvature="0"
                 style="fill:#00a335;fill-opacity:1" />
              <path
                 d="M 60.846789,4.6598594 C 60.042222,4.16925 59.099105,3.8858281 58.089742,3.8858281 c -2.946829,0 -5.33656,2.4098828 -5.33656,5.3814297 0,0.00239 2.64e-4,0.00438 2.64e-4,0.00651 v 6.7216402 h 3.001881 L 55.75559,9.26726 h -2.63e-4 c 0,-1.3001015 1.045449,-2.3545 2.334415,-2.3545 0.35981,0 0.699469,0.083273 1.003437,0.2296328 0.40169,-0.9525312 1.004095,-1.7978828 1.75361,-2.4825312 z"
                 id="path6"
                 inkscape:connector-curvature="0"
                 style="fill:#00a335;fill-opacity:1" />
              <path
                 d="m 1.691052,0.08951563 c -0.90650398,0 -1.64126869,0.74109374 -1.64126869,1.65484377 C 0.04978331,2.6589062 0.78454802,3.4 1.691052,3.4 c 0.9067673,0 1.641532,-0.7410938 1.641532,-1.6556406 0,-0.91375003 -0.7347647,-1.65484377 -1.641532,-1.65484377 z"
                 id="path8"
                 inkscape:connector-curvature="0"
                 style="fill:#00a335;fill-opacity:1" />
              <path
                 d="m 9.6615172,3.8862266 c -2.9472244,0 -5.3369547,2.4094843 -5.3369547,5.3812968 0,0.00199 2.634e-4,0.00412 2.634e-4,0.00624 V 15.99567 h 3.0020123 v -6.7281488 0 c 0,-1.3003671 1.0454494,-2.3546328 2.3348107,-2.3546328 1.2898881,0 2.3349421,1.0542657 2.3349421,2.3546328 V 15.99567 h 3.002144 V 9.2675234 c 0,-2.9718125 -2.389467,-5.3812968 -5.3372178,-5.3812968 z"
                 id="path10"
                 inkscape:connector-curvature="0"
                 style="fill:#00a335;fill-opacity:1" />
              <path
                 d="M 0.19004579,15.995672 H 3.1921898 V 3.8863594 c -1.6791988,0 -3.00214401,0.4473125 -3.00214401,0.4473125 z"
                 id="path12"
                 inkscape:connector-curvature="0"
                 style="fill:#00a335;fill-opacity:1" />
              <path
                 d="m 35.562006,15.995406 h 3.002276 V 0.34478125 c -1.642717,5.3125e-4 -2.946171,0.42845312 -2.99951,0.44638281 z"
                 id="path14"
                 inkscape:connector-curvature="0"
                 style="fill:#00a335;fill-opacity:1" />
              <path
                 d="m 45.781676,3.8858281 c -1.093784,0 -2.118293,0.2964375 -3.001354,0.8120156 l -7.9e-4,-4.35306245 c -1.645088,5.3125e-4 -2.950517,0.42978125 -2.999774,0.44638281 0,0 -0.0025,9.14241404 -0.0025,9.14958594 0,3.343422 2.688694,6.054523 6.004288,6.054523 3.31678,0 6.004552,-2.711101 6.004552,-6.054523 1.31e-4,-3.3438203 -2.687772,-6.0549219 -6.00442,-6.0549219 z m 0,9.0821169 c -1.657863,0 -3.002144,-1.355617 -3.002144,-3.0273278 h 7.9e-4 v -0.022578 c 0.01212,-1.6618828 1.350998,-3.0050157 3.001354,-3.0050157 1.658653,0 3.002671,1.3554844 3.002671,3.0275938 0,1.6717107 -1.34415,3.0273277 -3.002671,3.0273277 z"
                 id="path16"
                 inkscape:connector-curvature="0"
                 style="fill:#00a335;fill-opacity:1" />
              <path
                 d="M 34.650366,11.374594 C 33.101947,10.754492 31.74792,10.709602 31.74792,10.709602 31.372043,12.167617 29.969682,13.148305 28.450896,12.94643 28.109788,12.90141 27.789752,12.799273 27.498559,12.652117 L 34.288976,7.3976562 C 33.452011,5.5819766 31.740676,4.2234375 29.626598,3.9426719 26.339846,3.5063828 23.325059,5.8395 22.892287,9.1537031 c -0.432773,3.3143359 1.880966,6.3546799 5.167191,6.7909689 3.036913,0.403351 5.841504,-1.654578 6.591678,-4.569945 z M 25.865061,9.5486875 c 0.21665,-1.6588281 1.725558,-2.82625 3.369856,-2.6080391 0.341108,0.045289 0.661143,0.1475547 0.952336,0.2945782 l -4.286632,3.3169924 c -0.06546,-0.321672 -0.08047,-0.6592815 -0.03556,-1.0035315 z"
                 id="path18"
                 inkscape:connector-curvature="0"
                 style="fill:#00a335;fill-opacity:1" />
              <path
                 d="m 78.326919,8.6326797 -1.975001,-0.00199 c -0.470439,0 -0.851979,-0.3844922 -0.851979,-0.8591641 0,-0.4741406 0.381408,-0.8587656 0.851979,-0.8587656 h 4.312973 c 0.01752,-0.054055 0.442123,-1.3581406 0.44265,-3.0143125 0,0 -4.671334,-3.984e-4 -4.958839,-3.984e-4 -2.016224,0 -3.650644,1.6482031 -3.650644,3.6815625 0,2.0333594 1.63442,3.6831564 3.650644,3.6831564 h 1.975001 c 0.470439,0 0.85198,0.384625 0.85198,0.859031 0,0.474406 -0.381409,0.858898 -0.85198,0.858898 h -4.892197 c -0.01804,0.05392 -0.442387,1.358141 -0.44265,3.014446 0,0 5.465627,2.65e-4 5.538195,2.65e-4 2.016224,0 3.650907,-1.647937 3.650907,-3.681562 -1.31e-4,-2.032961 -1.634815,-3.6811641 -3.651039,-3.6811641 z"
                 id="path20"
                 inkscape:connector-curvature="0"
                 style="fill:#00a335;fill-opacity:1" />
            </g>
          </g>
        </g>
      </g>
    </g>
  </g>
</svg>
