<svg xmlns="http://www.w3.org/2000/svg" xmlns:xlink="http://www.w3.org/1999/xlink" viewBox="87 48 425 154"><defs><path id="fnbf4369f39dma" d="M.015.258h345.92v153.74H.015z"></path></defs><g fill="none" fill-rule="evenodd"><path fill="#005A69" d="M87 157h10v-45H87zm38.864-25.723c-1.079 1.125-2.571 1.69-4.466 1.69h-6.29v-11.956h6.29c1.895 0 3.387.543 4.466 1.62 1.079 1.076 1.623 2.544 1.623 4.385 0 1.718-.544 3.142-1.623 4.261m9.982 3.136c1.286-2.183 1.931-4.737 1.931-7.665 0-1.935-.327-3.762-.986-5.47a12.286 12.286 0 00-2.976-4.492c-1.336-1.279-2.985-2.29-4.972-3.04-1.984-.74-4.284-1.113-6.9-1.113H105.16v45.057h9.946v-16.55h5.685l8.389 16.55h11.232L130.4 139.65c2.339-1.307 4.158-3.045 5.446-5.237"></path><text fill="#00BCD4" font-family="DINPro-Medium, DIN Pro" font-size="14" font-weight="400" transform="translate(105 87)"><tspan x="259" y="47">005A69</tspan></text><path fill="#FEFEFE" d="M202.967 87.025l-38.697 86.693h257.526l33.357-86.693z"></path><path fill="#004C69" d="M373.274 121.012h-6.293v11.957h6.293c1.898 0 3.382-.565 4.466-1.69 1.084-1.12 1.624-2.546 1.624-4.262 0-1.84-.54-3.309-1.624-4.384-1.084-1.08-2.568-1.62-4.466-1.62m-103.497 22.414c-2.705 0-4.617.385-5.751 1.15-1.13.772-1.688 1.85-1.688 3.254 0 2.604 1.573 3.905 4.734 3.905a7.06 7.06 0 002.266-.368 6.198 6.198 0 001.962-1.05 5.26 5.26 0 001.389-1.68c.36-.679.54-1.464.54-2.367v-2.56c-.224-.052-.652-.105-1.289-.178-.629-.07-1.35-.106-2.163-.106m-61.048-13.03c.746-.183 1.403-.462 1.961-.844a4.473 4.473 0 001.387-1.548c.36-.652.545-1.457.545-2.407 0-.986-.185-1.813-.545-2.465a4.392 4.392 0 00-1.42-1.548 5.848 5.848 0 00-1.998-.805 10.669 10.669 0 00-2.197-.24h-6.025v10.13h6.025c.766 0 1.523-.086 2.267-.273m3.348 8.813a7.943 7.943 0 00-2.5-.874 14.857 14.857 0 00-2.508-.24h-6.628v11.748h6.628c.724 0 1.537-.053 2.437-.164a7.17 7.17 0 002.499-.774 5.299 5.299 0 001.93-1.755c.52-.769.775-1.827.775-3.172 0-1.22-.24-2.212-.738-2.978a5.335 5.335 0 00-1.895-1.79"></path><path fill="#F8AF00" d="M494.675 48L426 201h17.328L512 48z"></path><g transform="translate(146 48)"><mask id="fnbf4369f39dmb" fill="#fff"><use xlink:href="#fnbf4369f39dma"></use></mask><path fill="#005A69" d="M248.77 109.6V64.311h30.852v8.966h-20.637V82.1h16.032v8.692h-16.032v9.769h22.123v9.038H248.77zm-13.017 0l-8.385-16.638h-5.686v16.637h-9.95V64.312h16.781c2.613 0 4.915.372 6.901 1.117 1.984.753 3.638 1.764 4.971 3.055a12.255 12.255 0 012.973 4.52c.654 1.716.986 3.552.986 5.496 0 2.942-.642 5.504-1.933 7.705-1.28 2.198-3.096 3.948-5.449 5.261l10.02 18.133h-11.23zm-46.513 0h9.735V64.305h-9.735V109.6zm-15.596-36.53h10.419v-8.76h-10.419v8.76zm.341 36.53h9.74V77.751h-9.74V109.6zm-5.993-4.548c-.788 1.266-1.847 2.313-3.174 3.158-1.336.832-2.842 1.462-4.538 1.868a21.935 21.935 0 01-5.18.605c-2.839 0-5.524-.387-8.052-1.15-2.518-.77-4.568-1.944-6.147-3.532l4.797-6.25c1.037.95 2.403 1.742 4.102 2.378 1.68.633 3.316.95 4.9.95 1.437 0 2.638-.177 3.583-.544.95-.361 1.416-1.064 1.416-2.103 0-.409-.098-.781-.302-1.117-.204-.342-.57-.658-1.114-.958-.54-.285-1.3-.593-2.266-.91a80.16 80.16 0 00-3.689-1.095 23.872 23.872 0 01-3.618-1.248c-1.187-.524-2.255-1.168-3.177-1.935a9.022 9.022 0 01-2.235-2.786c-.564-1.087-.846-2.355-.846-3.8 0-1.5.343-2.847 1.017-4.037.679-1.202 1.612-2.249 2.808-3.125 1.195-.888 2.612-1.565 4.263-2.041 1.646-.476 3.415-.709 5.309-.709 2.707 0 5.077.303 7.1.907 2.034.616 3.9 1.507 5.613 2.688l-4.13 6.449c-1.03-.68-2.21-1.288-3.545-1.834-1.333-.538-2.83-.815-4.496-.815-1.495 0-2.57.218-3.244.647-.676.434-1.017 1.01-1.017 1.727 0 1.045.696 1.812 2.096 2.31 1.397.496 3.294 1.07 5.683 1.703 3.246.901 5.599 2.145 7.071 3.727 1.459 1.584 2.19 3.696 2.19 6.325 0 1.761-.393 3.287-1.178 4.547zm-30.648 4.547h-9.128l-.268-2.982c-1.081 1.26-2.448 2.232-4.093 2.915-1.649.675-3.485 1.01-5.516 1.01-1.129 0-2.313-.156-3.545-.464-1.252-.32-2.4-.854-3.457-1.596-1.061-.745-1.933-1.761-2.634-3.021-.702-1.266-1.048-2.856-1.048-4.76 0-1.854.369-3.503 1.109-4.953a10.4 10.4 0 013.082-3.638c1.31-.966 2.853-1.705 4.635-2.206 1.78-.496 3.71-.742 5.787-.742a83.4 83.4 0 013.411.064c1.154.054 1.903.112 2.269.21v-.686c0-.812-.168-1.503-.514-2.063a4.452 4.452 0 00-1.344-1.428 5.548 5.548 0 00-1.93-.815 10.577 10.577 0 00-2.298-.244c-2.17 0-3.962.27-5.38.82-1.417.547-2.633 1.149-3.625 1.832l-3.984-5.972c.673-.499 1.433-1 2.302-1.493.852-.5 1.867-.96 3.043-1.363 1.168-.41 2.487-.731 3.954-.986 1.46-.246 3.146-.367 5.037-.367 4.828 0 8.385 1.294 10.687 3.903 2.3 2.599 3.448 6.093 3.448 10.486v18.54zM102.832 85.9c-2.308 0-4.168.692-5.582 2.072-1.422 1.38-2.132 3.335-2.132 5.877v15.75h-9.743V77.752h9.335l.34 4.007c.808-1.09 1.929-2.128 3.345-3.12 1.425-.996 3.258-1.495 5.516-1.495.855 0 1.59.042 2.196.13a8.88 8.88 0 011.796.478l-1.561 8.624c-.99-.31-2.166-.476-3.51-.476zm-24.285 16.705a10.806 10.806 0 01-3.518 4.012c-1.517 1.045-3.364 1.795-5.552 2.268-2.185.48-4.632.714-7.334.714H45.23V64.312h16.912c2.791 0 5.163.325 7.105.98 1.934.66 3.515 1.526 4.728 2.615 1.22 1.09 2.095 2.344 2.646 3.775.536 1.425.804 2.906.804 4.44 0 1.45-.26 2.73-.777 3.836-.514 1.118-1.123 2.058-1.821 2.856-.699.787-1.448 1.409-2.233 1.865-.796.448-1.458.748-2.003.888.819.176 1.752.504 2.814.98 1.059.473 2.064 1.156 3.009 2.041.944.87 1.746 1.985 2.405 3.324.651 1.33.978 2.909.978 4.723 0 2.344-.416 4.335-1.251 5.97zM23.46 99.01c-.523.767-1.165 1.355-1.931 1.764a7.122 7.122 0 01-2.5.78c-.903.113-1.719.163-2.432.163h-6.64V89.904h6.64c.758 0 1.593.084 2.501.244a8.036 8.036 0 012.5.879 5.394 5.394 0 011.895 1.8c.49.767.74 1.767.74 2.99 0 1.356-.26 2.417-.773 3.193zM9.956 72.256h6.024c.718 0 1.458.084 2.204.24.74.16 1.411.429 1.998.81.584.389 1.05.91 1.417 1.556.357.658.545 1.493.545 2.481 0 .95-.188 1.759-.545 2.417-.366.655-.824 1.17-1.386 1.56a5.948 5.948 0 01-1.961.842c-.746.19-1.5.277-2.272.277H9.956V72.256zm63.679-72L33.253 91.312c-.587-1.055-1.252-1.988-2.046-2.724-.952-.885-1.955-1.568-3.012-2.041-1.056-.476-1.994-.804-2.805-.98.537-.14 1.202-.44 1.992-.888.783-.456 1.532-1.078 2.23-1.865a11.834 11.834 0 001.827-2.856c.52-1.106.777-2.385.777-3.836a12.33 12.33 0 00-.81-4.44c-.542-1.431-1.417-2.686-2.638-3.775-1.22-1.089-2.797-1.954-4.73-2.615-1.942-.655-4.311-.98-7.11-.98H.014V109.6h16.912c2.705 0 5.164-.235 7.34-.714.495-.112.914-.28 1.375-.42L5.452 154h272.242L345.934.256h-272.3z" mask="url(#fnbf4369f39dmb)"></path></g></g></svg>