<svg xmlns="http://www.w3.org/2000/svg" fill="#00488E" viewBox="0 0.0007283389568328857 96.85099029541016 24.87892723083496"><path d="M21.414 22.563l-.1-1.727-.02-13.81c2.029-.04 3.889-.509 5.198 1.708.36.628.63 1.317.829 1.977h.79l-.419-5.022H10.956l-.409 5.022h.79a10.3 10.3 0 01.819-1.977c1.32-2.217 3.189-1.748 5.208-1.708l-.02 13.81-.088 1.727c-.421.979-1.58 1.179-2.621 1.118v.789h9.388v-.789c-1.048.061-2.2-.139-2.609-1.118M0 5.689v.829h.62c.35 0 .871.119 1.27.33.84.338.82 1.735.82 2.335l.02 5.892-.02 5.901c0 .607.02 2.006-.82 2.336-.399.209-.92.33-1.27.33H0v.828h9.547v-.828h-.6c-.36 0-.891-.121-1.279-.33-.851-.33-.83-1.729-.83-2.336l-.021-5.901.021-5.892c0-.6-.021-1.997.83-2.335.388-.211.919-.33 1.279-.33h.6v-.829H0zm59.311-3.545c.461-.368.36-1.407-.14-1.816-.349-.23-.839-.48-1.488-.21-1.811 1.538-3.079 2.936-4.608 4.633 1.469-.509 3.938-1.408 5.719-2.217.188-.04.418-.27.517-.39m-2.669 4.374l1.402.139c.688.16 1.098.71 1.229 1.328v8.188c.219 2.546-.171 5.052-2.49 6.31-1.55.828-4.008.67-5.488-.27-1.119-.609-1.41-1.628-1.64-2.705V7.985c.09-.688.392-1.188.859-1.328.43-.269.84-.139 1.479-.139v-.829h-8.798v.829l1.271.139c.59.23 1.089.749 1.18 1.349l.099 11.691c.249 1.358.88 2.727 2.09 3.654 2.569 1.679 7.358 2.077 10.147.33 2.968-1.547 2.778-4.374 2.778-7.508V7.985s0-.729 1.032-1.328c.588-.139 1.037-.139 1.628-.139v-.829h-6.779v.829zM43.347 22.444L36.258 5.69h-1.2l-6.537 15.935c-.53 1.048-1.49 1.836-2.649 2.057v.788h6.238v-.788c-.431.061-.88-.02-1.569-.33-1.02-1.378.019-2.765.469-4.004h7.037l.191.142c.419 1.217 1.34 2.376.569 3.664-.449.509-1.098.448-1.729.528v.788h8.308l.06-.788c-.821-.14-1.67-.47-2.099-1.238M31.76 17.741l2.709-6.87h.14c.92 2.297 1.91 4.573 2.789 6.87H31.76zm42.167-3.556c-2.1-1.526-4.628-1.937-6.128-4.313-.26-.799-.24-1.787.321-2.406.839-.71 1.838-1.259 3.118-.929 2.309.449 3.928 2.625 4.519 4.793h.859V5.689h-.879c-.451.199-.531 1.009-1.359.699-1.531-.6-3.109-1.238-4.91-1.158-2.12.149-4.277 1.308-4.987 3.484-.41 1.478-.16 3.115.778 4.294 2.63 2.886 6.82 3.295 8.619 6.929.149.818 0 1.667-.351 2.346-.48.601-1.169 1.279-1.949 1.359-2.44.12-4.368-1.318-5.798-3.376-.341-.45-.791-1.768-.791-1.768h-.939v5.971h.939c.431-.888 1.021-.948 1.411-.787 2.34 1.037 5.247 1.787 7.787.568 1.6-.79 3.059-2.446 3.199-4.244.221-2.445-1.539-4.492-3.459-5.821m20.814 8.259L87.654 5.69h-1.201l-6.526 15.935c-.54 1.048-1.511 1.836-2.66 2.057v.788h6.248v-.788c-.44.061-.89-.02-1.58-.33-1.008-1.378.021-2.765.48-4.004h7.028l.2.142c.41 1.217 1.329 2.376.56 3.664-.45.509-1.1.448-1.72.528v.788h8.308l.06-.788c-.831-.14-1.67-.47-2.11-1.238m-11.586-4.703l2.72-6.87h.131c.927 2.297 1.897 4.573 2.788 6.87h-5.639z"></path></svg>