<svg xmlns="http://www.w3.org/2000/svg" viewBox="-0.0019939057528972626 -0.05100000277161598 300.31610107421875 303.7970275878906"><g fill-rule="evenodd"><path fill="#1a5493" d="M50.075-.051H250.25l2.597.053 2.526.215 2.517.321 2.465.438 2.42.572 2.385.679 2.323.795 2.27.912 2.217 1.01 2.155 1.116 2.102 1.233 2.032 1.314 1.952 1.403 1.89 1.519 1.828 1.599 1.723 1.67 1.669 1.761 1.563 1.823 1.502 1.92 1.387 1.993 1.29 2.056 1.2 2.126 1.113 2.18 1.016 2.243.875 2.296.795 2.35.67 2.413.566 2.448.433 2.493.318 2.52.203 2.582.062 2.61v202.533l-.062 2.601-.203 2.564-.318 2.545-.433 2.486-.565 2.45-.671 2.411-.795 2.336-.875 2.297-1.016 2.26-1.113 2.165-1.2 2.126-1.29 2.05-1.387 1.994-1.502 1.899-1.563 1.842-1.67 1.765-1.722 1.671-1.828 1.595-1.89 1.5-1.952 1.406-2.032 1.31-2.102 1.215-2.155 1.12-2.217 1.025-2.27.893-2.323.797-2.385.683-2.42.57-2.465.437-2.517.322-2.526.21-2.597.056H50.075l-2.591-.056-2.533-.21-2.516-.322-2.459-.438-2.44-.569-2.365-.683-2.327-.797-2.271-.893-2.234-1.025-2.158-1.12-2.083-1.215-2.046-1.31-1.952-1.406-1.896-1.5-1.82-1.595-1.728-1.67-1.67-1.766-1.558-1.842-1.483-1.899-1.407-1.993-1.296-2.05-1.201-2.127-1.107-2.165-1.014-2.26-.882-2.297-.788-2.336-.676-2.41-.563-2.45-.431-2.487-.32-2.545-.206-2.564-.056-2.6V50.61l.056-2.609.206-2.582.32-2.52.43-2.493.564-2.448.676-2.413.788-2.35.883-2.296 1.013-2.243 1.107-2.18 1.201-2.126 1.296-2.056 1.407-1.992 1.483-1.921 1.558-1.823 1.67-1.76 1.727-1.671 1.82-1.6L20.1 10.01l1.952-1.403 2.046-1.314L26.18 6.06l2.158-1.117 2.234-1.01 2.27-.91 2.328-.796 2.366-.68 2.44-.57 2.458-.439L44.95.217l2.533-.215z"></path><path fill="#fff212" d="M25.017 253.107h23.35v-101.28h-23.35zm127.975-78.118h-1.334l-1.316.045-1.299.053-1.254.08-1.237.072-1.218.116-1.202.134-1.183.134-1.149.17-1.121.17-1.113.188-1.087.205-1.05.215-1.034.223-1.016.25-.99.25-.962.26-.936.268-.901.285-.883.286-.866.286-.821.304-.804.304-.777.322-.751.303-.725.322-.697.322-.68.321-.636.322-.619.322-.583.33-.565.322 4.399 14.922.503-.304.53-.304.539-.304.565-.286.583-.285.6-.286.62-.286.635-.26.663-.267.67-.269.68-.268.69-.24.698-.233.715-.241.724-.233.734-.205.75-.215.751-.187.769-.188.75-.17.778-.17.786-.151.768-.134.786-.134.769-.117.795-.089.786-.098.768-.054.786-.062.769-.054.795-.018h.768l1.237.018 1.2.054 1.123.098 1.05.116 1.017.17.962.187.901.224.84.25.812.286.75.304.69.321.636.34.6.366.566.376.53.402.468.393.432.42.407.438.362.42.318.437.283.456.265.438.22.429.203.438.177.437.124.42.115.42.097.393.07.403.045.375.035.366v1.153l-2.8.027-2.738.071-2.668.134-2.588.188-2.517.25-2.438.322-2.385.357-2.287.438-2.217.473-2.12.554-2.067.608-1.97.661-1.872.724-1.802.777-1.731.84-1.634.894-1.537.947-1.449 1-1.369 1.064-1.254 1.144-1.184 1.176-1.068 1.234-.98 1.31-.902 1.349-.768 1.404-.69 1.482-.582 1.519-.468 1.595-.38 1.632-.283 1.69-.15 1.766-.053 1.804.018 1.082.07 1.082.133 1.082.194 1.064.239 1.063.282 1.063.336 1.045.397 1.025.433 1.007.504.987.547.968.583.95.636.93.698.892.75.874.787.835.84.797.882.76.945.722.972.683 1.033.646 1.087.607 1.13.55 1.184.495 1.219.455 1.254.399 1.334.342 1.351.284 1.405.228 1.448.172 1.502.094 1.537.038.936-.019.927-.037.901-.039.901-.076.875-.094.883-.115.866-.132.865-.152.84-.19.83-.19.821-.209.813-.228.786-.246.786-.267.768-.303.751-.304.733-.323.733-.342.716-.341.698-.38.67-.398.654-.4.663-.436.618-.437.619-.456.6-.474.583-.494.548-.513.539-.512.53-.532.503-.55.486-.57h.265l2.552 7.88h19v-44.888l-.027-1.707-.088-1.67-.133-1.653-.185-1.636-.248-1.608-.318-1.581-.353-1.537-.433-1.501-.512-1.475-.539-1.43-.645-1.384-.689-1.35-.768-1.304-.83-1.26-.919-1.215-.971-1.153-1.052-1.108-1.148-1.036-1.219-.992-1.298-.93-1.37-.875-1.465-.795-1.537-.742-1.634-.661-1.705-.608-1.82-.518-1.899-.455-1.987-.376-2.084-.286-2.182-.205-2.27-.134-2.358-.045zm13.32 50.111v.456l-.018.475-.036.474-.035.494-.062.475-.053.494-.08.474-.105.475-.045.17-.07.248-.053.228-.062.152-.07.189-.08.19-.203.475-.23.455-.239.456-.264.456-.283.437-.3.455-.318.436-.336.419-.362.417-.354.418-.397.399-.406.398-.415.38-.433.36-.468.362-.468.341-.495.324-.486.322-.521.285-.53.284-.539.267-.565.227-.565.228-.601.21-.6.17-.601.17-.636.134-.636.113-.645.096-.671.056-.68.057h-1.272l-.583-.037-.566-.039-.565-.076-.539-.094-.53-.095-.52-.133-.513-.152-.468-.152-.486-.19-.45-.208-.433-.228-.433-.228-.389-.266-.397-.285-.353-.285-.363-.323-.318-.341-.318-.343-.282-.38-.265-.398-.256-.398-.23-.437-.203-.437-.168-.456-.168-.493-.132-.494-.115-.512-.097-.551-.053-.55-.036-.57-.017-.589.017-.665.053-.626.098-.626.106-.608.15-.57.194-.57.22-.53.248-.532.283-.513.3-.475.336-.475.37-.456.398-.436.433-.4.45-.398.486-.38.513-.38.52-.34.566-.324.583-.323.6-.303.637-.285.636-.266.68-.246.706-.248.716-.208.733-.21.768-.208.769-.171.812-.17.804-.153.848-.133.786-.114.822-.114.83-.094.865-.096.857-.056.901-.076.901-.039.928-.037.556-.02.565-.018.583-.02h2.906zm85.853-47.886v45.152l-.035.645-.062.628-.088.607-.098.608-.132.569-.168.57-.203.532-.168.436-.212.437-.22.437-.23.436-.239.418-.265.437-.282.437-.3.417-.319.418-.318.417-.362.418-.353.399-.371.38-.398.38-.415.36-.433.36-.45.343-.45.341-.486.304-.486.304-.53.266-.521.265-.548.248-.565.208-.574.21-.6.17-.628.152-.636.114-.636.114-.68.057-.671.057h-.716l-.865-.019-.84-.057-.83-.095-.786-.152-.75-.171-.734-.228-.689-.265-.662-.304-.636-.323-.6-.38-.584-.418-.547-.455-.504-.475-.503-.532-.45-.55-.433-.589-.416-.626-.37-.665-.345-.702-.336-.722-.282-.76-.283-.797-.238-.835-.212-.855-.186-.892-.168-.911-.132-.95-.115-.987-.088-1.007-.062-1.044-.036-1.063-.017-1.101v-40.157h-22.789v45.492l.036 1.082.044 1.045.053 1.044.08 1.025.088 1.006.115.969.114.968.15.93.15.912.169.892.203.873.212.855.22.836.23.816.256.779.265.778.3.76.283.74.318.721.318.703.318.683.362.665.354.665.353.626.38.627.397.607.406.57.416.57.432.55.433.532.45.512.469.513.486.475.485.475.495.436.521.437.512.418.54.399.547.38.565.36.557.342.583.322.583.324.6.284.618.285.619.246.645.248.653.228.636.208.68.21.654.17.698.171.67.152.699.152.715.114.707.114.715.095.733.076.733.076.751.057.751.019.768.037h1.449l.654-.019.636-.018.636-.039.644-.056.619-.057.618-.058.6-.094.583-.076.583-.115.583-.094.557-.133.547-.114.548-.152.539-.152.53-.152 1.007-.342.998-.36.936-.38.919-.38.883-.418.848-.417.804-.456.768-.455.733-.476.716-.474.68-.493.654-.494.618-.513.583-.532.547-.532.522-.55.503-.532.477-.531.424-.513.415-.493.398-.475.353-.475.318-.436.3-.456 2.933 10.785h18.504v-75.893zM70.271 151.829v25.35H59.628v17.298h10.643v30.87l.018.95.019.93.02.93.036.893.057.892.075.873.075.855.094.855.093.815.113.817.132.798.15.778.15.76.169.76.169.72.188.722.206.703.225.683.225.665.245.645.262.646.263.608.281.607.3.57.3.57.32.55.338.532.357.531.357.494.375.475.394.474.394.437.375.38.376.38.394.36.394.36.431.343.432.341.47.342.47.323.468.323.507.303.506.285.526.304.545.266.544.266.582.266.563.228.6.247.6.209.62.208.62.19.638.19.657.151.656.152.68.134.672.133.697.113.69.076.715.076.715.076.733.038.734.02.75.018 1.237-.019 1.14-.037 1.077-.058.972-.075.918-.095.848-.115.804-.133.733-.152.715-.152.654-.17.618-.19.619-.19 1.166-.417 1.148-.437v-17.64l-.3.114-.398.115-.468.113-.583.095-.654.096-.733.056-.786.057-.848.019-.75-.019-.698-.038-.672-.075-.636-.115-.6-.133-.566-.152-.547-.19-.504-.227-.468-.247-.45-.266-.433-.323-.38-.322-.37-.361-.337-.38-.318-.418-.282-.456-.265-.455-.247-.512-.221-.513-.212-.55-.168-.59-.168-.588-.132-.645-.133-.646-.088-.684-.097-.721-.071-.722-.062-.76-.035-.797-.036-.797-.017-.836v-27.756h14.485v-17.299H92.947V151.83zm173.282-.018l-14.08 20.47h16.288l19.847-20.47z"></path></g></svg>