<svg xmlns="http://www.w3.org/2000/svg" viewBox="0.34933021664619446 0.5059217214584351 1646.245361328125 364.91412353515625"><g fill="none"><path fill="#000" d="M823.37 1.26c262.22 0 524.45.53 786.67-.752 29.37-.138 37.15 6.542 36.52 36.322-2.12 100.1-1.49 200.28-.28 300.41.27 22.42-6 28.2-28.3 28.18-529.707-.62-1059.423-.62-1589.15 0-22.19 0-28.61-5.66-28.34-28.14C1.7 235.84 1.95 134.35.364 32.91-.02 7.01 7.04.56 32.74.66c263.53.98 527.08.6 790.63.6zM499.09 355.72c371.18.433 742.357 1.037 1113.53 1.81 26.72.09 25.44-14.08 25.37-32.24-.32-94.77-1.14-189.56.496-284.31.444-26.91-8.896-32.53-33.746-32.32-127.67 1.1-255.36.37-383 .54-240.86.333-481.72.763-722.58 1.29-156.34-.46-312.67-.65-469-1.78-17.95-.13-21.71 6.06-21.602 22.61.669 101.173.669 202.353 0 303.54-.098 16.51 3.592 22.76 21.572 22.63 156.29-1.13 312.63-1.31 468.96-1.77z"></path><path fill="#45AE6E" d="M499.12 10.49c240.86-.44 481.72-.87 722.58-1.29 127.68-.17 255.37.56 383-.54 24.85-.21 34.19 5.41 33.73 32.32-1.62 94.75-.8 189.54-.48 284.31.07 18.16 1.35 32.33-25.37 32.24a358475.56 358475.56 0 00-1113.53-1.81c.027-115.067.05-230.143.07-345.23zm608.3 161.27c6.49 7.69 8.06 8.68 8.09 9.71 1.06 34 2.64 68 2.61 102.07 0 17.32 3.67 26.42 23.94 26.56 21.32.14 23.07-10.77 22.83-27.21-.46-31.59-.59-63.23.73-94.79.72-17.11 9.11-30.47 28.4-32.28 16.14-1.51 24.6 6.36 25.46 22.63 1 18.12 14.88 15 26.21 15.39 13 .5 19.26-5.66 18.66-19.11-.44-9.76.78-18.75 14.72-16.89 13.39 1.78 12 11.8 12.14 20.77.27 19.75.07 39.51.13 59.26.18 64.3 22.23 82.53 85.22 72.05 26.19-4.35 38.85-21.4 42.88-50.57 31.06 49.08 115.06 68.45 157 41.72 14.66-9.34 20.36-23.52 21.44-40 .39-6-3-10.88-8.79-10.84-14.67.11-28.64-5.51-41 13.14-14.31 21.65-39.94 15.08-61.61 8.35-15.66-4.87-16.44-19.31-16.13-32.64.43-18.74 15.37-14.51 26.32-14.73 26.33-.52 52.68-.41 79-.12 13.12.14 21.4-1.39 22.87-18.56 4.28-50.13-17.73-80.31-65.25-85.23-74-7.66-104.83 11.27-108.66 68.34-1.76 26.33 4.31 55.68-38.6 51.63-9.54-.9-6.88 12.38-9.22 19.34-3.95 11.71-12.28 17.4-24 15.66-13.3-2-14.95-12.86-15-24 0-15.81 1.31-31.75-.34-47.39-3.44-32.66 3-53.76 43-46.9 11.55 2 27.62 5.09 28.57-16.37 1.07-24.09-16-19.56-29.66-19.52-22.34.08-45.67 4.8-43-31.54 1.1-15.38-15.47-9.87-24.87-10.65-10.83-.91-19.14.12-22 15.23-8 41.79-15.25 38.84-51 31.53-37.81-7.73-79.79-4.45-117.89 3.65-14 3-22.88 6.75-37.09.82-37.71-15.71-77-15.67-115.67-3-15.26 5-21.53 18.55-24.34 33.46-1.29 6.79-.62 14.44 8.19 14.46 13.41 0 28.11 7.26 38.83-9.42 14.46-22.51 38-18.29 56.5-9.87 20.45 9.31 14.79 30.27 11 48.85-23.49-7.93-46-14.15-70.41-10-40.44 6.81-56.09 24.53-54.1 63.38 1.74 33.76 21.11 50.09 60.78 52.62 31.7 2 62.62-10.23 95.08-2 20 5.06 17.9-13.35 17.95-26.23.15-34.79.08-69.54.08-110.76zm-360.73 6.79c0-38.2-.45-76.41.21-114.6.28-16.63-5.49-23.31-22.86-23.35-17.37-.04-23.64 6.87-23.16 23.28.47 15.79-.2 31.61-.09 47.42.09 15.49-4.24 19.14-21.27 15.05-80.49-19.33-108.32 3-108.4 84.1 0 9.22-.3 18.46.22 27.66 3.43 60.05 42.78 88.24 99.86 69.08 15.92-5.34 25.84-9.41 43.32.47s34.45 1.32 32.63-26.39c-2.23-34.11-.53-68.47-.46-102.72zM926.2 218.4c0-23.67-.65-47.36.22-71 .63-17.06-2.63-26.92-23.25-26.85-20.09.07-24.21 9-23.73 26.49.86 31.52 1.11 63.12-.18 94.62-1.13 27.27-21.14 34-44 34.55-24.59.55-30.49-14.85-30.05-36.27.64-31.54-.26-63.11.3-94.66.28-15.57-3.36-24.29-21.64-24.66-19.07-.38-25.47 6.65-24.87 25.2 1 31.53.17 63.11.28 94.66.21 60.62 34.48 85.46 92.09 66.56 13.1-4.3 21.79-14.94 39.58-.35 13.94 11.44 38.75 6.82 35.56-25.23-2.11-20.82-.42-42.02-.31-63.06zm-698.86 44.99c-35.73 47.66-112.07 63.48-155.45 40.31-22.81-12.19-40.33-65.35-28.77-87.83 8.19-15.92 23.09-8.06 35.15-9 15.14-1.16 16.56 10.12 15.68 21.22-2.44 30.75 11.41 43.66 41.94 41.1 20.2-1.7 31.81-10 31.7-31.68-.22-39.45-.81-78.93.47-118.34.65-20.18-8.51-24.37-26-23.7-25 .95-50-1-74.93.56-22.06 1.38-26.21-8.88-26-28.12.22-17.73 4.32-26.28 24.19-26.09 102.33.94 204.68.36 307 1.46 23.89.25 49.47 4.58 60 30.07 11.82 28.83 13.1 58.7-5.45 86.7-3.52 5.31-20.79 7.45-5.06 19 37.82 27.74 27.63 66.17 16.19 100.12-12.05 35.73-47.88 31.1-77.73 31.88-31.54.82-63.26-1.62-94.64.76-29.48 2.24-45.97-5.41-38.29-48.42zm98.4 4.65c12.26 0 21.43.09 30.6 0 25.87-.29 38.32-13.57 38-39.29-.32-25.72-15.66-33.76-38.43-33.7-13.1 0-26.38 1.2-39.27-.51-31.27-4.16-38.05 9-39.53 39.3-2.3 46.79 28.48 32.42 48.63 34.21v-.01zm9.12-179.94c-4.57 0-7.19-.05-9.82 0-23.52.55-49.08-8.76-48.16 34.27.88 40.5 24.84 31.35 46.81 31.83 13.1.29 26.55 1 39.28-1.48 23.43-4.47 34.82-39.32 18.73-56.13-13.79-14.39-32.43-6.19-46.84-8.49z"></path><path fill="#45AE6E" d="M1022.35 278.93c-22-.14-40.35-.26-40.73-24.71-.45-29.27 22.4-28.82 41.68-28.55 16.66.23 36.71 2 37.06 25.64.45 29.66-23.16 25.98-38.01 27.62zm487.49-81.23c-13.6-6.17-36.73 9-38.08-16-1.54-28.65 23.32-26.71 42.38-27.75 17.63-1 37.24 1.07 36.52 24.59-.99 31.96-28.24 10.51-40.82 19.16zm-808.13 24.5c-.3 39-13.17 56.46-47.2 53.69-42.64-3.46-36-36.86-36.76-64.94-.74-29.2 1.56-57.48 41.19-56.42 40.77 1.09 41.71 31.69 42.77 67.67z"></path></g></svg>