<svg xmlns="http://www.w3.org/2000/svg" viewBox="114.99998474121094 52.677001953125 370 147.322998046875"><g fill="none" fill-rule="evenodd"><g fill="red"><path fill-rule="nonzero" d="M241.705 74.592v-.846h-38.308s5.88 1.862 8.485 3.046c1.68.762 2.016 1.27 2.268 2.285.672 2.2.924 50.6.336 53.308-.84 3.892-4.62 6.43-9.493 5.669-1.26-.17-2.436-.677-3.528-1.523-2.184-1.693-3.949-4.57-6.3-6.093-3.53-2.284-14.03-2.115-16.215.762-1.008 1.354-.336 3.808 1.597 5.33 7.56 6.008 27.555 3.64 34.023 1.778 8.821-2.454 16.214-7.108 18.062-14.893 1.26-5.33.42-40.615 1.597-44.253.588-1.693 2.016-2.624 5.796-3.724 1.512-.423 1.68-.507 1.68-.846z"></path><path d="M269.933 82.208v49.584c0 1.946-.084 2.285-.42 3.131-.252.592-.588 1.015-1.092 1.608-1.093 1.1-3.36 2.707-3.36 2.707s29.486 1.27 44.02 0c9.493-.761 25.707-4.146 27.387-15.992 1.008-6.938-5.712-14.215-12.601-15.23-3.277-.424-8.317-1.608-8.653-2.454-.168-.508-.252-1.185-.252-1.185s8.82-3.3 12.853-5.839c6.805-4.315 6.049-13.453-.756-18.784-1.008-.846-6.385-3.808-9.24-4.4-1.681-.339-2.017-.423-3.781-.423l-51.078-.593s3.444 1.185 4.872 2.116c.505.338 1.597 1.608 1.933 2.792.168.677.168 1.016.168 2.962zm18.902 21.915v-27.33s5.208-.255 9.073 0c9.745.592 16.886 8.038 13.945 17.769-1.68 5.5-8.82 9.138-16.717 9.476-2.773.17-6.301.085-6.301.085zm0 25.47v-23.1s3.78-.085 6.72 0c10.082.338 17.643 4.145 19.49 12.945 2.437 11.847-10.332 19.631-21.842 17.431-1.932-.338-3.108-1.269-3.948-3.807-.42-1.185-.42-1.524-.42-3.47zm86.445 7.277c-1.26.338-4.284.845-4.284.507v1.185c.252.253 3.193.084 4.789-.339.42 0 .924-.17 1.428-.254 6.217-1.354 14.03-5.077 14.786-11.423.672-5.923-1.849-8.8-5.797-11.677-2.268-1.607-18.65-7.954-18.818-7.277-.084.423-.168.846 0 .931 1.932.846 5.04 1.608 7.813 2.708 6.636 2.538 13.61 8.038 12.013 16.161-.756 3.639-3.696 6.6-7.309 7.785-.924.423-3.444.93-4.62 1.692zm-13.189 2.368v-.676c0-.254-.168-.339-1.848-.677-4.62-.847-12.265-3.216-14.114-7.785-.672-1.692-1.344-3.977-2.184-4.23-.672-.17-1.764 0-1.764 0v3.892c.168 6.6 2.016 7.192 8.149 8.207 4.452.846 11.761 1.27 11.761 1.27zm42.761-53.308h1.176v-3.215c0-1.438 0-1.777-.252-3.215-.42-3.046-1.008-3.554-2.94-4.146-1.932-.592-4.285-1.354-7.981-1.523-2.1-.085-4.62 0-4.62 0v.677c0 .254.167.338 1.848.677 4.452.846 8.905 3.638 11.34 9.053.757 1.524.925 1.693 1.429 1.693zM363.1 106.154c-7.478-4.908-15.038-6.6-16.215-15.4-.42-2.962 0-6.262 1.849-8.462.504-.592 4.956-4.23 3.948-5.415-.672-.677-4.956 2.285-5.797 3.046-4.704 4.146-6.72 10.07-3.696 15.146 1.26 2.116 3.276 3.893 6.3 6.262 2.185 1.692 13.358 6.515 13.61 5.838.168-.423.168-.93 0-1.015z"></path><path d="M376.709 74c-.42-.085-1.176.085-2.436.338-8.065 1.777-15.206 4.4-17.474 10.747-1.513 4.315-.168 6.853 3.108 10.238.588.592 1.176 1.185 1.848 1.523.924.508 1.176.677 2.772 1.27l26.295 10.66c1.597.678 1.933.847 3.277 1.609 3.864 2.2 7.14 7.361 7.645 10.238.672 3.385.084 7.785-1.849 10.154-2.016 2.454-6.804 5.67-6.048 6.685.504.592 4.116-.762 6.805-2.116 8.485-4.23 13.777-12.438 7.056-21.492-.672-.846-1.344-1.692-2.184-2.37-1.092-.846-1.428-1.015-3.024-1.692l-30.496-13.03c-1.596-.677-1.848-.847-2.856-1.524-3.024-2.2-4.62-7.107-4.2-9.561.924-5.077 3.192-6.854 7.812-9.054.924-.423 1.765-.846 2.773-.93.756-.085 1.092-.17 1.26-.255l3.276-.338v-1.185l-3.36.085zm47.885-21.323c24.531 14.638 39.317 33.677 39.317 54.408 0 20.73-14.786 39.769-39.317 54.407 30.748-14.046 49.65-33.254 49.65-54.407 0-21.154-18.902-40.362-49.65-54.408zm-251.608 108.9c-24.531-14.639-39.317-33.677-39.317-54.408 0-20.73 14.786-39.769 39.317-54.407-30.748 14.046-49.65 33.253-49.65 54.407 0 21.154 18.902 40.277 49.65 54.408z"></path></g><path fill="#7F7F7F" stroke="#7F7F7F" stroke-width=".72" d="M484.244 112c-1.68 44.461-83.556 80.198-184.244 80.198S117.435 156.461 115.756 112a36.103 36.103 0 00-.756 7.382C115 163.928 197.8 200 300 200s185-36.072 185-80.618c0-2.433-.252-4.95-.756-7.382z"></path></g></svg>