<svg xmlns="http://www.w3.org/2000/svg" xmlns:xlink="http://www.w3.org/1999/xlink" viewBox="54.999027252197266 63.99998092651367 489.0010070800781 121.20101165771484"><defs><path id="fn04c8bc26bdma" d="M0 122h488V0H0z"></path></defs><g fill="none" fill-rule="evenodd" transform="translate(55 64)"><path fill="#FEFEFE" d="M487.99 18.047v2.476c-.438.381-.973.285-1.48.285-3.78.008-7.56.003-11.34.007-1.32 0-1.339.022-1.344 1.308-.005 1.202.038 2.405-.014 3.604-.038.872.323 1.122 1.15 1.117 3.85-.026 7.7-.017 11.548-.009.507.002 1.042-.095 1.48.287v2.888c-.542.439-1.188.285-1.792.285-17.38.009-34.76.007-52.142.007-1.943 0-1.943 0-1.943 1.974 0 .927.019 1.855-.007 2.784-.02.73.254 1.102 1.022 1.056.377-.024.757-.004 1.135-.004 17.311.002 34.624 0 51.935.007.604.002 1.25-.153 1.791.285v2.889c-.54.438-1.187.284-1.791.284-17.375.007-34.752.006-52.126.006-1.96 0-1.984.001-1.953 1.969.021 1.264-.153 2.538.132 3.793.44.402.983.25 1.48.25 10.378.008 20.756.01 31.134.003 7.182-.027 14.365-.008 21.547-.01.54 0 1.112-.109 1.577.305v2.887c-.471.402-1.045.285-1.584.287-6.54.007-13.076.003-19.616.005-1.634 0-1.632.003-1.637 1.679-.004.997.048 1.997-.01 2.99-.05.855.284 1.162 1.133 1.153 2.546-.03 5.093-.01 7.64-.01 4.197 0 8.395-.004 12.594.005.506 0 1.043-.097 1.48.286v2.887c-.47.403-1.043.285-1.582.285-6.564.009-13.127.004-19.69.007-1.558 0-1.562.007-1.565 1.536-.002 1.134.036 2.267-.012 3.398-.033.799.255 1.113 1.06 1.092 1.272-.033 2.543-.009 3.815-.009 5.499.002 10.996-.001 16.495.006.507 0 1.042-.097 1.48.286v2.887c-.567.463-1.246.328-1.887.328-15.141.009-30.282.005-45.421.007-2.409 0-4.819-.012-7.227.005-1.187.009-1.285.116-1.298 1.311-.012 1.134.004 2.268-.001 3.403-.004.687.295 1.013.99 1.001.413-.007.825.005 1.238.005 17.206.002 34.41 0 51.615.007.674.002 1.389-.151 1.99.328v2.887c-.566.463-1.245.328-1.886.328-15.141.009-30.282.005-45.423.007-2.408 0-4.817-.012-7.225.005-1.177.009-1.315.149-1.308 1.31.009 1.203.007 2.407.009 3.61 0 .687.293 1.013.988 1 .413-.006.826.008 1.239.008 17.205 0 34.41-.002 51.616.007.674 0 1.389-.154 1.99.326v2.887c-.54.44-1.187.285-1.791.285-17.373.008-34.748.006-52.123.006-1.962 0-1.964.002-1.962 1.963 0 .962.005 1.924 0 2.885-.006.64.288.96.929.961l1.033.003c17.375.002 34.75 0 52.123.007.604 0 1.25-.153 1.791.285v2.887c-.566.463-1.245.328-1.885.328-15.3.007-30.598.005-45.898.005-2.2 0-4.4-.005-6.6.004-1.359.005-1.366.019-1.462 1.352-.035.484-.052.97-.486 1.305-.447.247-.938.183-1.416.183-9.084.005-18.168.005-27.254.002-1.803-.002-1.935-.107-2.013-1.902-.029-.695-.29-.989-.99-.989-4.06.009-8.121.005-12.18.004-.657-.002-.923.284-.92.935.009 2.235.01 4.47 0 6.702-.003.73.278 1.094 1.035 1.063.446-.019.893 0 1.342 0 32.277 0 64.555-.001 96.834.007.635 0 1.318-.17 1.893.283v2.682c-.306.281-.687.283-1.07.288-.549.007-1.1.004-1.65.004H5.185c-1.136 0-2.271-.006-3.407.01-1.034.015-1.231.198-1.237 1.2-.027 3.471.023 6.943-.032 10.415-.01.78.302 1.048 1.045.984.478-.042.964-.007 1.446-.007 160.956 0 321.912 0 482.87.009.71 0 1.47-.21 2.118.298-.045.064.106.216-.103.209-.275-.009-.55-.002-.826-.002-162.009 0-324.017-.002-486.025.026-.92 0-1.035-.245-1.035-1.073.022-30.798.019-61.595.019-92.391.955-.19 1.921-.093 2.88-.093 45.84-.012 91.683-.01 137.524-.009.584 0 1.177-.045 1.702.293.748.484.764 1.105.041 1.633-.29.21-.618.292-.969.307-.55.026-1.102.016-1.651.016-45.428 0-90.858 0-136.286.003-.651 0-1.306-.062-1.95.074-.603.11-.835.442-.818 1.082.044 1.648.018 3.298.014 4.948-.002.462.014.902.513 1.126.213.4.446.28.688.02.446-.261.933-.22 1.413-.22h137.93c.343 0 .688-.019 1.027.062.27.066.508.187.698.392.255.438.262.879.01 1.322-.254.238-.574.338-.898.428-.41.088-.823.06-1.236.06-45.673.002-91.346.002-137.02 0-.343 0-.685.012-1.026-.019-.658.03-1.213-.733-1.933-.26-.176.357.052.692.054 1.04.084 1.55.041 3.096.036 4.642-.002.82.31 1.217 1.154 1.176.446-.023.895 0 1.342 0 46.389 0 92.777-.002 139.168.005.711 0 1.45-.135 2.126.236.5 1.073.624 2.12-.197 3.113-.689.306-1.421.197-2.138.197-41.049.005-82.097.005-123.146.005-5.538 0-11.079-.002-16.618.002-1.653.001-1.68.03-1.684 1.658-.004.998.012 1.995-.004 2.99-.01.727.28 1.091 1.033 1.07.446-.012.894.004 1.341.004 46.347 0 92.694 0 139.043.005.717 0 1.45-.103 2.146.183.874.97.69 2.028.259 3.108-.634.387-1.339.257-2.016.257-18.583.007-37.165.005-55.747.005H2.894c-2.125 0-2.127.002-2.127 2.157.002.927.012 1.855 0 2.784-.007.699.306 1.004.995.987.411-.01.826.003 1.239.003 32.139 0 64.28-.001 96.419.004.686 0 1.38-.088 2.049.155.582.79.487 2.414-.19 3.234-.667.248-1.362.16-2.046.16-32.075.004-64.15.004-96.225.006-2.441 0-2.229-.118-2.24 2.236-.004.86-.004 1.719.008 2.578.008.59.276.885.874.896.446.01.893.013 1.342.013 32.281 0 64.562 0 96.842.004.686 0 1.38-.076 2.051.133.73.671 1.071 2.324.665 3.222-.655.302-1.354.193-2.035.193-32.484.005-64.97.005-97.454.007-2.47 0-2.284-.159-2.292 2.291-.004.894.002 1.788.002 2.682 0 .639.28.95.929.947.447-.001.895.01 1.342.01h99.313c.688 0 1.377-.034 2.061.053 1.3.453 1.486 1.722 1.963 2.759.145.316-.189.531-.498.64-.68.16-1.372.1-2.057.1-33.618.004-67.236.004-100.854.004-2.203 0-2.23.001-2.193 2.183.021 1.16-.193 2.333.166 3.475.408.468.957.312 1.455.312 12.864.007 25.726.005 38.59.005 22.907 0 45.813.01 68.72-.02 1.342-.002 2.498.212 3.446 1.222.351.372.849.574 1.286.849.35.219.715.445.598.962-.48.375-1.05.289-1.59.29-3.27.01-6.54.006-9.81.006H2.974c-2.36 0-2.199-.118-2.204 2.17-.004 1.755.015 3.509-.007 5.26-.01.82.297 1.224 1.144 1.179.376-.02.756.001 1.135.001l378.088-.001c2.416 0 2.23.169 2.239-2.231.006-1.581.006-3.162 0-4.744-.007-1.572-.061-1.633-1.618-1.633-7.64-.005-15.279-.001-22.92-.003-.582 0-1.166.036-1.741-.073-.657-.2-.55-.48-.071-.785.83-.53 1.74-.928 2.519-1.54.08-.075.167-.139.259-.198.637-.341 1.24-.762 1.976-.887 2.167-.138 4.333-.053 6.5-.06 4.436-.015 8.873-.003 13.31-.005 1.792 0 1.792-.004 1.796-1.745.002-.756.002-1.511 0-2.267-.002-1.726-.002-1.73-1.686-1.73-4.024-.003-8.05 0-12.073-.003-.515 0-1.033.035-1.54-.091-.359-.123-.661-.37-.507-.746.418-1.02.755-2.12 1.9-2.626 3.951-.159 7.9-.03 11.852-.07.413-.006.824-.006 1.237-.013.553-.012.807-.283.812-.83.01-1.408.001-2.814.003-4.22.002-.683-.368-.888-.978-.888-1.34-.003-2.68-.002-4.02-.003-1.717-.002-3.436.003-5.153-.004-.479-.001-.966.042-1.417-.19-.456-.935-.18-2.372.61-3.18.492-.202 1.014-.157 1.527-.159 2.685-.005 5.37.004 8.054-.005 1.324-.003 1.374-.064 1.38-1.413.006-1.065-.029-2.133.011-3.196.033-.854-.333-1.15-1.163-1.142-2.719.019-5.437.012-8.156.003-.511-.002-1.038.055-1.51-.231-.615-.972-.724-1.983-.242-3.04.46-.315.987-.254 1.498-.256 2.747-.01 5.496.003 8.244-.009 1.217-.005 1.305-.098 1.317-1.275.012-1.167.014-2.335-.002-3.5-.015-1.064-.107-1.164-1.2-1.17-3.333-.012-6.666-.001-9.998-.007-.548 0-1.1.037-1.642-.084-1.142-.56-1.397-1.764-1.98-2.728-.13-.218.006-.46.261-.578.5-.187 1.02-.137 1.533-.137 3.884-.007 7.767.004 11.653-.007 1.278-.003 1.385-.096 1.37-1.33-.014-1.44.117-2.882-.092-4.312-.292-.503-.786-.344-1.207-.344-5.762-.009-11.522-.034-17.284.009-2.087.015-3.878-.653-5.5-1.898-.223-.17-.536-.073-.768-.244-.418-.31-.696-.618-.088-1.013.567-.212 1.158-.148 1.738-.148 7.085-.005 14.17-.004 21.255-.005.413 0 .826.012 1.237-.035.396-.043.669-.236.667-.642-.005-1.674.249-3.354-.155-5.01-.422-.445-.968-.287-1.465-.287-15.359-.01-30.716-.002-46.073-.01-2.912-.467-5.728-1.314-8.517-2.253-.31-.103-.784-.214-.572-.768.563-.378 1.201-.233 1.807-.233 17.8-.008 35.603-.007 53.403-.008.515 0 1.031.032 1.541-.047.299-.059.572-.238.892-.193.114.022.219.07.314.14.828.536 1.707.588 2.695.533 1.712-.097 3.438-.023 5.159-.02 2.133.006 4.267.011 6.4-.003.873-.005 1.664.147 2.138.962.394.676 1.187.222 1.772.752-.143-.431-.198-.76.213-1.144-.6.27-1.052.478-1.557.331-.245-.07-.447-.197-.528-.445-.095-.286.065-.49.309-.566.534-.167.5-.582.492-.997-.014-.722-.045-1.445.016-2.164.074-.887.12-1.816 1.518-1.802-.433-.243-.687-.112-.936-.04-.47.138-.741-.15-.66-.507.138-.61-.175-.96-.498-1.362-.257-.317-.328-.667.215-.73.862-.1.568-1.006 1.019-1.385.072-.062.005-.183-.07-.264-1.17-1.24-.476-2.718-.493-4.1-.004-.32.32-.55.675-.47.318.071.228.375.221.604a23.66 23.66 0 00.012 2.337c.004-.682-.022-1.363.007-2.042.021-.481.156-.983-.521-1.135-.064-.016-.118-.076-.154-.133-.199-.32.041-.506.226-.702.358-.375-.247-.466-.224-.773.022-.327.16-.503.46-.65-.279-.04-.533.02-.771-.063-.284-.1-.482-.271-.505-.583-.026-.335.202-.466.467-.597 1.358-.667 1.482-.81 1.181-2.296-.276-1.356.037-2.752-.452-4.333.371 1.405.243 2.58.207 3.748-.009.233-.048.548-.311.594-.34.06-.437-.273-.529-.524-.119-.327-.112-.677-.11-1.02.01-1.681-.004-3.362-.114-5.04-.004-.05.186-.194-.016-.15-4.447.951-8.949.246-13.42.455-.712.032-1.387-.018-1.622-.908-.149-.558.046-.856.56-1.011.333-.1.68-.09 1.024-.09 3.578-.002 7.156-.009 10.734.008.445.004 1.2-.167 1.207.397.007.484-.737.273-1.145.276-3.474.021-6.947.006-10.42.014 3.466-.007 6.932-.003 10.397 0 1.165 0 2.222-.209 2.903-1.29.159-.254.44-.311.957-.427-.663-.152-.955-.436-.824-.947.126-.492.542-.449.919-.45 22.774-.13 45.547-.021 68.323-.057.309 0 .62-.014.927.015.843.081 1.19.445 1.115 1.274-.042.464-.127.888.336 1.189.095.063.12.177.095.276-.63 2.531-.126 5.121-.39 7.672-.04.38-.02.749.074 1.123.161.63.434.861 1.106.56.952-.429 2.011-.29 3.008-.32 3.163-.086 6.33-.034 9.495-.03.41 0 .834-.039 1.171.279"></path><path fill="#F7D500" d="M488 108.244v11.738c-.334.315-.75.329-1.166.341-.482.013-.963.007-1.445.007-159.764 0-319.528 0-479.292.008-1.31 0-2.615-.084-3.922-.149-.586-.028-.996.129-1.202.716-.683.263-1.008-.033-.97-.733.199-3.625.01-7.253.104-10.878.026-1.03.231-1.277 1.241-1.24 1.136.042 2.266-.024 3.398-.024 160.48.001 320.958.001 481.438.01.606 0 1.244-.175 1.816.204"></path><path fill="#201B18" d="M.23 0h383.43c.328.372.327.834.33 1.29.01 1.999.02 3.996-.002 5.994-.015 1.45-.247 1.688-1.72 1.691-6.562.018-13.124.014-19.687.006-2.886-.006-5.772.06-8.655-.053-1.436-.277-2.676-1.069-4.01-1.616-4.051-1.657-8.263-2.558-12.587-3.052-3.219-.368-6.445-.513-9.669-.368-7.212.322-14.283 1.396-20.91 4.558-.554.264-1.114.568-1.764.536-5.508-.016-11.014 0-16.519-.005-2.755-.002-5.508.005-8.261-.006-.512 0-1.04.057-1.504-.252-.354-.412-.308-.919-.289-1.403.023-.63-.264-.903-.857-.907l-.72-.003h-26.3c-.31 0-.623.031-.927.012-.709-.048-1.015.235-.95.98.037.448.022.92-.284 1.305-.456.325-.985.272-1.495.272-8.585.007-17.17.007-25.754.002-.51-.002-1.037.053-1.5-.253-.334-.37-.325-.84-.323-1.29.001-.725-.356-1-1.025-.984-.412.009-.825-.006-1.238-.006h-23.7c-.48 0-.963.013-1.442-.031-.31-.021-.62.028-.93-.004-1.268.03-1.272.03-1.436 1.34-.059.46-.159.886-.636 1.09-.297.11-.605.129-.912.129-4.04.012-8.077.014-12.114 0-.377-.002-.756-.016-1.084-.25-.39-.478-.311-1.066-.323-1.616-.012-.5-.22-.693-.685-.69-.618.004-1.239-.006-1.86-.006-8.432-.002-16.864 0-25.297 0-.275 0-.551.007-.826.005-.728-.004-1.063.35-1.044 1.1.009.418-.005.85-.297 1.2-.633.396-1.338.264-2.017.264-16.074.009-32.147.007-48.222.007-30.53 0-61.06-.004-91.59.003-3.24 0-2.544-.213-2.592-2.61C-.003 4.66.02 2.94.028 1.22.03.803-.055.366.231 0"></path><path fill="#FEFEFE" d="M.473.012C.45 2.6.436 5.189.395 7.78c-.009.517.214.647.679.61.34-.028.686-.004 1.03-.004h141.292c.379 0 .757.017 1.135.026.705.946.501 1.93.128 2.923-.592.385-1.265.267-1.909.267-12.459.009-24.92.005-37.378.007-34.11 0-68.22-.002-102.328 0-2.418 0-2.224-.122-2.234 2.232-.004.852-.006 1.705.007 2.558.008.593.293.87.886.88.482.008.964.011 1.444.011 46.363 0 92.725 0 139.086.005.72 0 1.452-.103 2.148.182.87.964.69 2.016.254 3.087-.632.38-1.337.254-2.016.254-18.855.007-37.712.005-56.567.005H2.955c-2.145 0-2.147.002-2.145 2.11 0 .922.007 1.844 0 2.764-.006.673.276 1.014.978 1.007.447-.005.894.006 1.342.006 45.727 0 91.455 0 137.184.005.751.001 1.52-.117 2.246.199.342.243.556.846 1.149.366.093-.074.259.065.335.175.36.524.308 1.102.176 1.675-.11.485-.508.57-.94.645-.848.145-1.695.226-2.558.224-45.907-.005-91.812-.005-137.718-.005-.377 0-.759.022-1.134-.019-.324-.034-.718.004-.777-.474.413-.383.92-.196 1.38-.196 46.049-.01 92.095-.008 138.143-.015.498 0 1.006.116 1.486-.242.634-.47.505-.786-.057-1.185-.384-.273-.788-.2-1.189-.2-45.944-.006-91.889-.006-137.833-.004-.786 0-1.574-.028-2.352.051-.314.033-.421-.145-.611-.257 0-8.91-.004-17.82.015-26.729 0-.248-.331-.812.398-.712"></path><path fill="#D43117" d="M431.688 98.87c.338-.688.151-1.422.162-2.133.008-.514.141-.768.7-.727.477.035.96.002 1.44.002 18.003-.005 36.007-.009 54.01-.012v1.033c-.48.403-1.054.24-1.586.24-17.038.01-34.075.008-51.112.011-.443 0-.892-.062-1.347.073.226.31.538.157.795.159 15.629.01 31.257.009 46.886.01 1.752 0 3.503.002 5.255.004.37.002.759-.083 1.109.124v7.033c-.505.423-1.112.288-1.683.288-11.187.007-22.374.005-33.562.005-21.241 0-42.484.002-63.725-.005-.609 0-1.24.131-1.814-.206-.26-.287-.2-.646-.2-.985-.007-2.203.015-4.408-.016-6.61-.01-.769.185-1.096 1.042-1.086 4.047.042 8.095.042 12.144 0 .88-.008 1.184.327 1.146 1.14-.103 2.167.247 1.768 1.8 1.77 9.196.01 18.391.006 27.587-.004.319 0 .68.163.969-.125M387.293.018c33.252 0 66.504.002 99.758-.018.772-.002.967.164.948.907-.059 2.27-.02 4.54-.02 6.812-.337.295-.755.272-1.165.272-3.933.005-7.867.01-11.8-.001-1.324-.004-1.526-.167-1.485-1.406.021-.608-.274-.9-.747-1.145-.033-.094-.11-.233-.183-.205-.93.346-1.896.187-2.842.187-21.386.01-42.77.008-64.151.012-.615 0-1.235-.07-1.837.127-.168.036-.339.05-.51.056-1.488.06-1.51.056-1.691 1.457-.097.73-.558.91-1.211.917-1.75.013-3.5.004-5.249.004-2.23.002-4.461.015-6.692-.006-1.187-.012-1.392-.207-1.404-1.323-.02-1.875-.01-3.751-.005-5.626.002-.363.005-.728.286-1.02"></path><path fill="#F4D800" d="M488 108.406l-397.06.002c-28.682 0-57.362.002-86.045-.005-1.083-.002-2.16.251-3.256.03-.34-.07-.856-.134-.91.55-.243 3.038-.037 6.08-.112 9.118-.01.47.025.935-.138 1.404-.226.649.052.968.76.885.29-.306.678-.3 1.053-.32.448-.022.896-.011 1.343-.011 160.654 0 321.308 0 481.96.01.808 0 1.663-.213 2.405.32V121c-.517-.008-1.032-.025-1.549-.025-161.66 0-323.321 0-484.981-.004-1.568 0-1.442.221-1.445-1.4-.006-3.486.029-6.974-.025-10.46-.012-.836.315-1.069 1.06-1.062 1.135.012 2.273.002 3.408.002 160.767 0 321.531 0 482.298-.002.411 0 .823-.032 1.234-.049v.406z"></path><path fill="#FAD400" d="M488 121.2H1.423c-.11-.285-.592-.361-.36-.843.186-.386.502-.366.813-.35 9.494.526 18.992.22 28.486.22 152.546.026 305.091.018 457.638.018v.956z"></path><path fill="#D43117" d="M488 73.976c-18.356.003-36.711.002-55.067.024-.713 0-.952-.172-.928-.85.046-1.468.046-2.94-.004-4.41-.022-.624.23-.788.83-.729.305.03.616.008.924.008 17.706-.004 35.411-.01 53.115-.012.377 0 .753.014 1.13.02v5.949z"></path><path fill="#FEFDFC" d="M354 8.431c6.622-.012 13.243-.025 19.865-.034 3.055-.003 6.108-.017 9.163.012.634.007.891-.112.876-.823-.048-2.527-.024-5.057-.028-7.586h2.886c.286.359.2.783.202 1.187.009 1.948 0 3.898.005 5.846.004 1.161.016 1.179 1.127 1.18 4.051.005 8.102-.012 12.154.014.778.005 1.105-.187 1.073-1.038-.057-1.43-.004-1.427 1.448-1.44 22.9-.193 45.798-.03 68.697-.083.24 0 .48-.007.721.008 1.4.078 1.51.15 1.461 1.56-.028.78.25.998 1.004.993 4.017-.026 8.035-.015 12.052-.009.437.002.899-.1 1.294.201v.411c-.392.194-.809.093-1.213.095-3.56.008-7.12.005-10.68.008 3.594.004 7.189 0 10.784.007.369.002.754-.095 1.109.096v.41c-.467.392-1.035.312-1.575.313-3.119.014-6.24-.006-9.365.076.332.14.687.112 1.034.112 2.811.005 5.623-.002 8.435.007.508.001 1.038-.057 1.471.314v.41c-.392.195-.809.093-1.213.093-3.56.01-7.12.005-10.68.009 3.594.005 7.189 0 10.784.008.369.002.754-.094 1.109.095v.412c-.435.38-.968.282-1.471.284-3.797.008-7.594 0-11.389.007-1.22.001-1.28.061-1.281 1.266-.002 1.259-.023 2.52.015 3.777.037.119.073.236.12.347.31.533.836.39 1.297.39 3.744.01 7.488.002 11.23.01.506 0 1.043-.097 1.479.284v.41c-3.47 0-6.94-.005-10.408.006-.537 0-1.106-.134-1.577.282-.135.12-.345.147-.474.013-.487-.512-.773-.175-1.182.158-.524.432-.963.086-1.256-.508-.364-.739-.236-1.423-.158-2.15.177-1.67-.245-3.354.125-5.046.056-.253-.462-.743-.182-1.392.143-.333.58-.318.527-.685-.683-.114-1.012-.368-.63-1.138.382-.768.047-1.21-.832-1.243-.206-.007-.41 0-.618 0-22.19 0-44.381.001-66.571-.016-.642 0-1.27.232-1.925.06-.207-.055-.573-.245-.664.182-.038.179-.03.447.077.564.383.41.35-.402.739-.237.003.48.341 1.144-.694.965-.088-.015-.272.119-.298.215-.366 1.306-1.604 1.27-2.483 1.295-3.912.115-7.83.05-11.746.047-.163 0-.345.027-.544-.318h12.8c-.23-.394-.447-.287-.616-.289-3.847-.007-7.694-.01-11.542.004-.414.001-1.063-.191-1.092.47-.033.71.4.99 1.187.981 3.812-.05 7.626-.022 11.44-.026.396 0 .78.07 1.078-.383.491-.745.564-.106.698.28.338-.04.297-.412.492-.57.286-.234.531-.118.678.153.172.321.017.423-.318.374-.138-.02-.313.078-.274.232.475 1.845.17 3.725.262 5.587.016.28.088.522.373.797a56.31 56.31 0 00.01-5.13c.125.79.602 1.466.637 2.244.053 1.21-.004 2.412.347 3.608.24.82-.506 1.697-1.403 1.843-.274.045-.607.01-.531.423.062.34.32.328.636.312.464-.022.934.081 1.474.138-.099.142-.135.226-.199.281-.312.27-1.047-.244-1.066.456-.017.627.735.3 1.099.625-.317.424-1.087.057-1.245.773.869.103.94.732.909 1.465-.033.751.003 1.505.012 2.258.001.204.307.498-.07.594-.405.103-.396-.321-.45-.546-.243-1.03-.115-2.077-.025-3.276-.827.661-.363 1.465-.51 2.125-.153.687.346 1.383-.101 2.125.478-.119.862-.072 1.273.206-.37.53-1.026.852-.949 1.723.057.627-.617.203-1.109.198.205.274.343.513.533.699.224.218.704.294.392.764-.18.268-.363.514.001.856.213-.854.989-.064 1.368-.507.159.23.314.47.168.756-.114.222-.173.582-.575.337-.683-.416-.71-.018-.847.548-.257 1.058-.19 2.118-.103 3.159.051.622-.037.893-.64.965-.174.02-.37.055-.338.282.026.182.19.289.369.308.338.034.688.094.995-.124.297-.211.607-.431.838.05.335.695-.293.22-.364.304-.194.239-.048.493.22.675.236.161.453.407.16.663-.223.196-.464.026-.593-.196-.268-.45-.478-.646-1.032-.242-.542.395-.714-.424-.816-.613-.426-.806-1.056-.91-1.85-.91-3.915 0-7.83-.104-11.74.004-.92.028-1.73-.044-2.573-.326-.307-.103-.16-.32-.183-.52.514-.356.499-.836.53-1.323.105-1.641-.207-3.27-.095-4.914.054-.764.687-1.333 1.321-.932.837.525 1.724.56 2.641.56h9.482c.583 0 1.165-.007 1.712.065-.414-.327-.354-.665-.023-1.019.171-.182.312-.385.152-.637-.176-.275-.431-.088-.656-.086-3.706.03-7.415.184-11.117-.077-.564-.04-1.099.036-1.63.16-.55.128-.91-.038-1.218-.5-.807-1.219-.597-2.555-.486-3.88.017-.204.152-.393.405-.384.25.012.34.21.388.414.143.6.043 1.218.104 1.996.115-1.237.11-2.288-.454-3.204.026.519-.647.775-.757 1.352-.116.608-.033 1.228-.062 1.843-.03.62-.397 1.168-.36 1.804.015.304-.027.615-.085.917-.047.24-.107.504-.39.543-.304.042-.433-.206-.464-.446-.095-.753-.614-.784-1.206-.784-3.469.009-6.94.036-10.408-.02-.711-.01-1.12.424-1.646.685-.266.132-.14.418.057.58.435.36.809.714 1.497.703 3.57-.055 7.145-.027 10.717-.022.521 0 1.025-.112 1.537-.144.356-.024.765.019.758.482-.028 2.045.16 4.096-.15 6.133-.01.062-.075.114-.094.134-.208.1-.391.169-.572.237a.558.558 0 01-.262-.278c-.275-1.486-.075-2.989-.13-4.484-.043-1.17-.119-1.276-1.313-1.28-3.627-.013-7.256-.001-10.884-.008-.543 0-1.099.064-1.62-.174-.536-.984-1.07-1.97-.616-3.15.516-.254 1.073-.187 1.617-.19 3.805-.006 7.61.004 11.416-.004 1.324-.004 1.383-.07 1.392-1.392.006-1.092.01-2.185-.002-3.278-.012-1.139-.1-1.238-1.227-1.245-3.017-.014-6.034.01-9.05-.01-2.226-.014-4.454.087-6.68-.062-1.16-.565-1.481-1.735-1.985-2.768-.112-.227.057-.448.307-.556.462-.169.945-.134 1.423-.134 5.303-.004 10.605-.004 15.908 0 .476 0 .96-.035 1.414.156.381.26.207.435-.107.553-.393.148-.81.11-1.221.112-4.357.002-8.713.027-13.068-.02-1.028-.011-2.017.422-3.091.207.62.242 1.002.665 1.298 1.234.21.403 1.679.475 2.188.125.426-.296.788-.38 1.199-.028.393.339.869.365 1.357.365 3.222 0 6.446-.02 9.672.012 1.044.01 1.887-.57 2.85-.787.343-.077.552-.459.53-.808-.025-.377-.43-.247-.667-.302-.405-.094-.664-.328-.86-.668-.22-.416-.182-.864-.185-1.306-.009-1.092.009-2.185-.007-3.276-.015-1.163-.115-1.254-1.314-1.281-.31-.007-.618-.002-.925-.002-6.957 0-13.913 0-20.87-.002-.581 0-1.165.017-1.742-.063-1.38-.449-2.43-1.449-3.63-2.196-.391-.246-1.028-.263-1.064-.928"></path><path fill="#D43117" d="M488 84c-.41-.013-.82-.038-1.23-.038-17.865-.004-35.732-.013-53.599.014-.883 0-1.215-.194-1.164-1.193.08-1.526.081-3.062-.001-4.588-.055-1.003.29-1.2 1.163-1.195 5.237.04 10.474.022 15.71.018 13.042-.005 26.081-.01 39.121-.018v1.094c-.478.427-1.05.255-1.58.255-17.044.009-34.087.007-51.13.007-2.057 0-2.057.002-2.055 2.218 0 .436-.01.873.005 1.31-.002-.618 0-1.237 0-1.853 0-1.395.015-1.417 1.294-1.417 3.253-.003 6.504-.003 9.755-.002 14.099.006 28.2 0 42.298.004.47 0 .96-.115 1.413.134V84zm0-52.925v4.633c-.464.324-.997.194-1.5.194-17.168.007-34.338.005-51.506.008-.582 0-1.163-.006-1.746.06-1.035.115-1.227-.068-1.24-1.067-.008-.738.003-1.476-.003-2.21-.025-.282.047-.506.37-.597.153-.042.376-.091.22-.312-.179-.254-.213.098-.35.115-.2.023-.21-.096-.241-.224.01-.361-.023-.723.014-1.08.046-.467.241-.755.786-.5.257.483.732.572 1.215.624.513.056 1.028.034 1.543.034 16.818.002 33.636 0 50.452.007.671 0 1.386-.15 1.986.315m0 57.559v4.25c-.357.186-.742.093-1.113.093-17.813.005-35.624.005-53.438.005-1.433 0-1.433-.002-1.435-1.38 0-1.212.033-2.426-.012-3.637-.026-.689.195-1.024.923-.948 17.893-.005 35.785-.001 53.678.004.469 0 .967-.115 1.397.196v.203c-.57.449-1.247.314-1.886.314-17.081.006-34.163.003-51.245.02-.52.002-1.19-.303-1.549.393.373.514.932.355 1.425.355 14.187-.002 28.375.032 42.56.004 3.195-.007 6.39-.004 9.584.005.373.001.76-.077 1.111.123m0-48.415v3.782c-.538.428-1.182.278-1.784.278-17.026.008-34.05-.002-51.077.013-.442.002-.971-.221-1.315.265.423.503 1.008.311 1.517.313 8.385.013 16.77.008 25.152.012.581.001 1.17-.062 1.738.13.229.068.245.48.657.32.185-.072.452.127.364.442-.305.308-.704.212-1.07.212-9.508.006-19.015.006-28.523.003-1.282-.002-1.565-.331-1.577-1.615-.006-.588-.097-1.176-.08-1.765-.002-.12.057-.205.17-.255.265-.407.018-.84.046-1.26.046-.718.305-1.135 1.12-1.075.238.018.48.002.72.002 17.48 0 34.96-.002 52.442.005.503 0 1.036-.13 1.5.193m0 19.057v5.615c-.324.172-.676.09-1.014.09-6.794.006-13.589.004-20.384.004-1.404-.002-1.591-.177-1.598-1.521-.007-1.193-.002-2.385-.002-3.578 0-.576.21-.913.908-.884 4.514.183 9.032.04 13.547.076 2.448.021 4.897 0 7.347.008.406 0 .835-.08 1.196.19m0-10.056v5.666c-.324.18-.676.093-1.012.093-6.928.005-13.855.005-20.783.004-1.192 0-1.218-.01-1.194-1.17.026-1.31-.022-2.62-.008-3.931.006-.62.216-.885.918-.882 7.03.032 14.061.014 21.091.02.34 0 .695-.04.988.2m0-27.944v5.611c-.349.182-.725.09-1.087.09-3.954.008-7.908.001-11.861.008-.71.001-1.059-.277-1.052-.977.012-1.355.005-2.708.002-4.062-.002-.628.271-.976.964-.944 3.922.183 7.847.03 11.77.084.426.007.88-.1 1.264.19m-13.995-3.773l-.005-.22c.252-1.365.094-2.743.097-4.112.002-.762.114-1.19 1.006-1.17 1.522.035 3.047.034 4.57.028 2.392-.011 4.783-.006 7.175 0 .391.002.806-.084 1.152.199v5.67c-.177.129-.381.097-.578.097-4.158.001-8.318-.002-12.477.005-.412 0-.81.029-.94-.497"></path><path fill="#D72F16" d="M489 31.329c-17.95 0-35.899 0-53.847.006-.594 0-1.163-.068-1.734-.27-.595-.21-.461-.526-.18-.918.283-.226.606-.124.91-.124 17.98-.006 35.957-.006 53.937 0 .305 0 .625-.09.914.11v1.196z"></path><path fill="#C63419" d="M431.793 98.776c.057.456-.312.214-.446.214-9.66.013-19.318.008-28.978.02-.69.002-1.036-.215-.981-.919.024-.33.015-.666.001-.997-.025-.581-.272-.898-.95-.895-4.075.018-8.152.025-12.228-.005-.752-.005-.817.344-.814.92.021 2.427.01 4.854.012 7.28.391.197.81.096 1.214.096 32.72.005 65.442.005 98.164.01.404 0 .822-.096 1.213.092v.4l-83.17-.009c-5.552-.001-11.104-.018-16.655.017-.864.005-1.201-.152-1.173-1.077.072-2.327.055-4.657.005-6.984-.017-.765.235-.946.991-.939 4.25.035 8.498.032 12.748.007.695-.005.948.159.938.878-.03 1.856.007 1.863 1.943 1.863 9.114.002 18.23.002 27.345.003.275 0 .547.017.821.025"></path><path fill="#D23117" d="M488 40.437c-17.908 0-35.816-.001-53.725.002-1.738.002-1.543-.205-1.556 1.613-.003.473-.001.946-.001 1.449-.342-.161-.143-.45-.205-.657-.218-.769-.04-1.556-.096-2.23-.1.673.124 1.463-.107 2.23.141.644-.423 1.554.618 1.857-.086.326-.8.295-.478.778.282.423.26 1.111 1.1 1.107 9.678-.038 19.356-.023 29.034-.025.266 0 .555.057.754-.218 1.008-.31 2.067.09 3.071-.267 6.877-.088 13.754-.024 20.632-.035.347 0 .686.035.959.302V47c-7.283-.007-14.568-.013-21.85-.027-.408 0-.815-.054-1.221-.085-10.55-.003-21.1.002-31.649-.007-.37 0-.753.099-1.11-.097-.33-2.09-.064-4.194-.131-6.292-.012-.395.261-.46.56-.46.377.003.753 0 1.13 0 17.817 0 35.634 0 53.45-.003.276 0 .548-.018.821-.029v.437z"></path><path fill="#C63418" d="M488 8.985c-4.49-.004-8.982-.033-13.471.007-.833.007-1.036-.257-1.018-1.11.038-1.827.114-1.537-1.39-1.537-23.105-.008-46.212 0-69.318-.033-1-.002-1.278.37-1.132 1.307.174 1.103-.224 1.399-1.274 1.38-4.113-.071-8.227-.051-12.34-.007-.821.009-1.05-.246-1.038-1.107.036-2.627-.007-5.256-.019-7.885h.41c0 2.403.046 4.808-.021 7.21-.028 1.02.2 1.377 1.224 1.36 3.928-.062 7.86-.042 11.791-.007.74.007 1.035-.182 1.01-1.029-.042-1.615 0-1.615 1.532-1.618l.923-.002c.358-.196.741-.1 1.111-.1 22.264-.005 44.528-.005 66.792 0 .335 0 .686-.098 1.006.098.863-.035 1.262.295 1.08 1.307-.217 1.192-.078 1.324 1.042 1.326 4.366.003 8.734.001 13.1.001v.439z"></path><path fill="#D23217" d="M433.596 88.234c-.202.05-.474.39-.573-.078-.112-.524.207-.89.554-1.092.219-.126.536-.026.81-.026H488v.956c-.314.33-.704.264-1.075.264-17.673.002-35.348.008-53.021 0-.103 0-.205-.016-.308-.024"></path><path fill="#D33117" d="M488 45.693h-21.992a1.954 1.954 0 00-1.559-.28c-.736.17-1.463.052-2.177-.198H434.14c-.58 0-1.258.158-1.121-.956.31-.38.715-.23 1.08-.23 10.475-.008 20.952-.07 31.427.016 7.12.06 14.239.014 21.359.062.375.002.764-.086 1.116.152v.478c-.396.354-.863.232-1.302.234-6.356.008-12.713.004-19.069.006 6.356 0 12.713-.002 19.07.006.438 0 .905-.122 1.301.232v.478z"></path><path fill="#D72E16" d="M488 78.604c-.347.196-.73.104-1.091.104-17.4.007-34.802.013-52.2-.024-1.04-.001-1.396.259-1.272 1.263.086.676.017 1.369-.046 2.053-.36-1.092.16-2.256-.36-3.329-.12-.241.14-.221.253-.314.46-.377.999-.357 1.548-.357 17.723.004 35.445.004 53.168.004v.6z"></path><path fill="#D82E16" d="M488 97.724c-.351.234-.74.124-1.107.124-17.594.012-35.19.012-52.784.014-.137 0-.275.014-.41-.01-.278-.046-.71.116-.699-.434.009-.55.435-.382.718-.406.24-.022.485-.006.726-.006H488v.718z"></path><path fill="#BF3B1A" d="M488 30.212l-55.077.01c-1.126.285-.41 1.144-.617 1.717.127.127.119.254.004.382-.002.864.015 1.726-.01 2.587-.02.705.414.96 1.034.811.719-.172 1.426-.125 2.137-.125 17.51-.008 35.019-.007 52.529-.008v.383c-.377.01-.751.03-1.128.03l-53.53.001c-1.32 0-1.32 0-1.321-1.233 0-1.31.05-2.624-.018-3.932-.037-.71.233-.85.925-.834 1.711.042 3.425.01 5.138.01 16.645.001 33.289.006 49.934.008v.193z"></path><path fill="#D72E16" d="M433 88.277c.379-.432.854-.23 1.283-.23 17.905-.012 35.812-.01 53.717-.01v.48c-.32.206-.667.108-1.004.108-17.639.008-35.28.016-52.92.002-.357 0-.85.286-1.076-.35m55-43.798c-.288.184-.594.106-.9.106-6.65-.002-13.304.078-19.953-.022-11.343-.168-22.685-.02-34.028-.084-.145-.172-.19-.382.054-.43.336-.064.684-.046 1.03-.048H488v.478z"></path><path fill="#BF3A1A" d="M433.121 87.426c-.617-.074-.85.163-.828.754.04 1.177.06 2.358-.002 3.534-.045.85.304 1.088 1.19 1.084 6.091-.028 12.183-.016 18.276-.014H488v.192c-18.324.003-36.647.002-54.972.024-.787 0-1.064-.174-1.024-.949.072-1.462.043-2.93.013-4.396-.008-.506.169-.704.709-.645.235.026.478 0 .717 0 17.879 0 35.756 0 53.635.002.308 0 .614.022.922.035v.192c-.39.18-.808.088-1.212.088-17.486.005-34.97.003-52.455.01-.404 0-.822-.095-1.212.09"></path><path fill="#D92E16" d="M488 105.24c-33.24 0-66.483 0-99.723-.01-.427 0-.9.206-1.277-.228 33.667 0 67.334 0 101-.002v.24z"></path><path fill="#C33819" d="M488 58.437h-20.437c-.24 0-.48.01-.719-.003-1.46-.075-1.46-.077-1.46 1.555 0 1.13.002 2.259 0 3.388-.003.968.354 1.425 1.357 1.422 7.087-.035 14.172-.019 21.259-.019V65c-7.226-.01-14.45-.042-21.677-.005-1.008.005-1.395-.213-1.312-1.368.106-1.522.075-3.06.012-4.588-.035-.845.24-1.032.992-1.03 7.089.028 14.177.015 21.268.011.239 0 .478-.013.717-.02v.437z"></path><path fill="#C43719" d="M488 49.412c-7.332-.008-14.665-.005-21.997-.045-.577-.003-.639.197-.64.59-.002 1.392.02 2.787-.011 4.179-.017.803.58.636 1.059.636 6.374.007 12.749.005 19.122.005.823 0 1.644 0 2.467.002v.19c-7.404.009-14.807.01-22.21.031-.564.002-.796-.135-.786-.693.031-1.5.031-3.001-.003-4.5-.016-.627.229-.81.892-.807 7.368.022 14.737.022 22.107.029v.383z"></path><path fill="#D23217" d="M433 87.264c.383-.41.853-.22 1.28-.22 17.907-.012 35.813-.012 53.72-.014v.238l-55-.004"></path><path fill="#C73718" d="M489 21.437c-4.1.027-8.2.053-12.301.084-.42.004-.837-.11-1.222-.194-.957-.208-1.146.295-1.155 1.05-.016 1.417.003 2.834-.009 4.251-.004.432.08.829.47 1.019.386.188.82.31 1.058-.272.058-.143.236-.233.317-.05.33.764.982.432 1.486.435 3.786.028 7.57.015 11.356.015v.22c-4.642-.006-9.283-.032-13.925.005-.826.005-1.11-.201-1.072-1.08a68.18 68.18 0 00.007-4.912c-.021-.763.22-.99.962-.986 4.675.018 9.353-.01 14.028-.022v.437z"></path><path fill="#FEFEFE" d="M488 10.965h-10.583c-.242 0-.484 0-.726-.004-.327-.006-.678-.064-.69-.522-.018-.566.412-.422.69-.424 2.074-.012 4.15-.006 6.226-.006 1.693-.002 3.388 0 5.083 0v.956z"></path><mask id="fn04c8bc26bdmb" fill="#fff"><use xlink:href="#fn04c8bc26bdma"></use></mask><path fill="#D72E16" d="M467 45.478h21V45h-21z" mask="url(#fn04c8bc26bdmb)"></path><path fill="#BE3A1B" d="M489 11.465c-3.853 0-7.708-.017-11.561.01-.799.005-1.572-.23-2.399-.053-.599.126-.76.338-.748.911.023 1.215.017 2.428.005 3.643-.005.35.125.748-.223 1.024-.02-1.764-.014-3.528-.073-5.29-.028-.874.526-.694.991-.696 4.67 0 9.339.004 14.008.008v.443zM474.06 17c.345.528.85.47 1.345.468 4.53-.004 9.064-.002 13.595-.002v.238c-4.785.016-9.57.032-14.356.052-.472.002-.781-.124-.583-.756" mask="url(#fn04c8bc26bdmb)"></path><path fill="#FEFEFE" d="M488 11.24h-12V11h12v.24zm0-2h-12V9h12v.24z" mask="url(#fn04c8bc26bdmb)"></path><path fill="#F7D500" d="M372.472 74.734c-.389.918-.43 1.906-.568 2.875.114.715-.173 1.369-.411 1.996-.594 1.567-.951 3.251-2.083 4.572-.575.94-1.366 1.76-1.604 2.887-1.892 2.494-4.007 4.761-6.608 6.53-.475.195-.85.565-1.322.761l.007-.005c-.654.672-1.554.964-2.325 1.45-.484.307-.972.61-1.447.94-5.522 2.622-11.358 4.059-17.403 4.776-4.483.532-8.989.586-13.468.352-6.75-.352-13.223-1.995-19.268-5.133-.987-.631-2.017-1.193-3.032-1.78-.63-.456-1.345-.789-1.953-1.28-2.482-1.933-4.785-4.056-6.796-6.488-.664-.97-1.403-1.889-2.007-2.9-1.226-2.117-2.269-4.314-2.968-6.666a16.809 16.809 0 01-.823-3.166 19.706 19.706 0 01-.375-2.557c-.103-1.282.21-1.615 1.468-1.667.136-.007.274-.005.412-.005 8.648-.002 17.298-.007 25.946.01.71.002 1.594-.215 1.823.869-.015 1.459-.07 1.497-1.503 1.526-8.332.174-16.666.032-25 .103-.35.001-1.05-.42-1.03.488.15.707.222 1.423.308 1.886.105-1.964.105-1.958 2.304-1.958 6.795.003 13.589.003 20.383 0 .473 0 .975.083 1.324-.37.924-.294 1.87-.117 2.807-.123.338-.001.547.26.683.54.154.31.318.596.636.758.217.15.39.344.547.553.09.115.173.234.247.36.117.204.207.422.297.64.317.673.88 1.111 1.458 1.534.116.076.225.165.332.255.366.28.69.709 1.24.348.562.045 1.076.25 1.587.468.692.432 1.462.61 2.242.821.983.27 1.974.475 2.963.697 1.457.33 2.905.298 4.329-.2.27-.094.481-.252.658-.465.1-.113.215-.203.345-.276.525-.187 1.082-.437 1.087.503.002.147.057.15.16.097.087-.047.17-.104.258-.151-.053-.27.944.144.314-.5-.188-.202-.252-.434-.17-.7.476-.599 1.106-.455 1.67-.25.582.207 1.067.54 1.657-.058.256-.258.793-.052 1.183-.19 1.396-.446 1.888-1.595 2.213-2.874.323-1.097 0-2.142-.26-3.19-.346-1.47-1.535-2.163-2.66-2.915-2.606-1.527-5.463-2.375-8.347-3.151-.238-.062-.476-.059-.715-.071a6.496 6.496 0 01-.486-.012c-7.468-1.761-14.982-3.359-22.137-6.236-.918-.445-1.902-.75-2.767-1.312-.423-.34-.98-.475-1.359-.884-.897-.878-2.118-1.25-3.095-2.008-1.95-1.511-3.93-2.986-5.522-4.906-3.297-4.018-4.897-8.659-5.394-13.816-.318-3.292.126-6.466.761-9.633.468-2.332 1.381-4.553 2.609-6.604a27.762 27.762 0 016.8-7.683c2.597-2.023 5.557-3.364 8.588-4.588 2.524-1.019 5.143-1.675 7.786-2.247 3.894-.844 7.842-1.132 11.819-1.274 5.104-.184 10.132.324 15.102 1.397 3.19.688 6.233 1.835 9.16 3.312 3.243 1.636 6.234 3.6 8.716 6.275 1.616 1.74 2.857 3.752 4.098 5.776 1.126 1.837 2.011 3.76 2.624 5.797.47 1.564.946 3.146 1.069 4.798-.308.821-1.14.665-1.74.946a.883.883 0 01-.356-.1c-.43-.18-.882-.126-1.326-.126-6.87-.003-13.74-.003-20.61 0-.478.002-.967-.062-1.417.174-.548.073-1.116.031-1.052-.68.043-.502.43-.835 1.017-.523.423.333.922.215 1.391.217 6.791.008 13.58.001 20.37.001-6.681-.001-13.363-.001-20.045-.005-.478 0-.962.049-1.431-.073-1.114-.584-1.126-.585-1.412.614-.085.355-.257.565-.61.568-.33.002-.578.188-.86.3-.683-.464-.438-1.376-.93-1.932-.334-.62-.612-1.283-1.26-1.667-.602-.427-1.05-1.047-1.722-1.387-2.74-1.762-5.8-2.149-8.956-2.078-1.262.028-2.529-.003-3.778.267-1.456.314-2.849.742-3.957 1.808-.768.79-1.187 1.728-1.179 2.842-.072 1.551.63 2.75 1.716 3.766.295.277.639.508.785.911 1.012.895 2.167 1.487 3.5 1.716.365.042.714.121.94.452 2.916 1.063 5.92 1.813 8.93 2.541.397.085.804.092 1.203.165 6.432 1.357 12.744 3.105 18.824 5.643.445.185.9.34 1.334.55 1.637 1.07 3.454 1.833 5.065 2.95 2.271 1.569 4.41 3.286 6.088 5.515.264.352.611.662.678 1.137l1.675 2.878c1.086 1.44 1.391 3.184 1.84 4.865.147.548.388 1.111.217 1.712-.082.971.047 1.93.202 2.884.332.453.275.981.278 1.494.012 1.685-.026 3.366-.526 4.997M144.231 11.453c.06-.96.13-1.92-.036-2.875.216-.536.135-1.099.097-1.64-.05-.735.217-.941.93-.933 2.952.033 5.905.014 8.856.016 6.486 0 12.973.017 19.461-.02.876-.006 1.271.168 1.143 1.12-.06.468.047.958.076 1.438.325.96.104 1.964.242 2.94a73.65 73.65 0 00-.002 6.359c-.076 1.034-.107 2.068.002 3.106-.12 2.169-.007 4.34-.07 6.509.027.97.029 1.94 0 2.908.061 2.115-.046 4.232.07 6.346-.07 1.03-.117 2.063-.003 3.095a76.086 76.086 0 000 6.463c-.114 1.022-.068 2.044 0 3.067a73.5 73.5 0 00.001 6.322c-.076 1.032-.107 2.065.002 3.1-.12 2.161-.007 4.325-.07 6.488.006.949.065 1.901-.065 2.847-.214 2.148-.46 4.293-.806 6.425a52.667 52.667 0 00-.634 2.967 67.822 67.822 0 01-2.316 6.64c-.452 1.015-1.043 1.957-1.535 2.953a1.056 1.056 0 01-.355.26 4.75 4.75 0 00-1.59 2.293c-.457 1.06-1.28 1.834-2.047 2.651-.444.475-.912.925-1.366 1.39-1.328 1.078-2.649 2.166-4.108 3.072-4.167 2.59-8.741 4.02-13.556 4.65-8.442 1.107-16.791.77-24.94-1.975-2.06-.694-4.04-1.566-5.892-2.712-1.364-1.018-2.869-1.849-4.12-3.026-2.349-1.813-4.159-4.084-5.621-6.655-.36-1.036-.888-1.985-1.504-2.885-1.137-2.065-1.962-4.233-2.17-6.605l-.547-2.889c-.654-1.237-.504-2.621-.677-3.939-.108-.843-.13-1.72.076-2.572.054-.958.228-1.912.045-2.871-.404-1.281-.024-2.533.147-3.79.052-.387.376-.552.74-.622.407-.08.82-.066 1.232-.066l23.5-.001c.242 0 .482-.004.722.01 1.076.063 1.32.295 1.375 1.377.052.966-.036 1.938.124 2.897.112.963.023 1.935.128 2.897.214 2.336.577 4.627 2.019 6.584 1.485 2.397 3.797 2.863 6.337 2.656 1.98-.16 3.735-.84 4.814-2.689 1.342-1.958 1.726-4.157 1.593-6.483.077-.964.048-1.93.058-2.894-.057-1.835-.019-3.67-.02-5.506-.002-.348.024-.692.219-1 .124-.957.207-1.913-.043-2.866a25.4 25.4 0 010-6.546c.252-.949.155-1.903.058-2.859-.224-.33-.236-.709-.236-1.086.005-1.815-.038-3.631.019-5.446-.009-1.018 0-2.037-.076-3.055.135-2.131.005-4.266.076-6.397a170.64 170.64 0 01-.002-2.95c-.052-1.833-.015-3.665-.019-5.497 0-.38.002-.765.232-1.098.101-.956.214-1.912-.068-2.86-.22-2.183-.385-4.366.1-6.538" mask="url(#fn04c8bc26bdmb)"></path><path fill="#201B18" d="M115.375 96.337c1.857.828 3.614 1.883 5.526 2.59 7.186 2.654 14.602 3.187 22.134 2.635 5.393-.398 10.567-1.664 15.371-4.336.546-.304 1.094-.594 1.643-.89.238-.128.499-.173.76-.222.44-.084.885-.107 1.332-.107 8.413-.002 16.828-.006 25.241.001.275 0 .55.002.822.047.127.022.252.063.373.117.51.308.536.83.552 1.356.003.284-.004.572-.002.858-.007.408.092.717.582.656 9.077.036 18.152.004 27.226.015.205 0 .412 0 .62-.011 1.21-.056 1.213-.056 1.302-1.34.035-.495-.051-1.014.3-1.437.463-.32.99-.264 1.5-.264 8.559-.006 17.115-.006 25.671-.002.513.002 1.038-.054 1.507.246.473.54.252 1.23.354 1.85.102.612.309.958.978.958 9.261-.002 18.52.01 27.78-.013.173-.002.339-.05.504-.08.515-.121.38-.557.427-.92.08-.628-.187-1.341.402-1.852.488-.234 1.01-.187 1.522-.187 7.623-.004 15.246-.002 22.868-.002.516 0 1.03.022 1.542.09.255.086.522.124.77.24 3.125 1.458 6.274 2.824 9.608 3.725 6.422 1.737 12.942 2.004 19.51 1.574 5.84-.383 11.574-1.39 17.08-3.534 1.412-.55 2.795-1.176 4.191-1.768.192-.11.385-.14.576 0 3.609.015 7.218.04 10.825.045 5.089.007 10.177.02 15.264-.02.777-.005.979.198.963 1.002-.053 2.579-.046 5.16-.005 7.738.012.716-.193.986-.865.88-.134-.02-.274-.002-.41-.002-126.824.002-253.647.002-380.47.027-.977 0-1.28-.23-1.246-1.286.082-2.505.048-5.015.012-7.522-.01-.671.19-.838.818-.831 3.092.032 6.187.014 9.281.014 34.447 0 68.895.002 103.342 0 .376 0 .754-.029 1.13-.043.265-.244.529-.164.79.005m28.47-56.999c.224 2.219.178 4.44.026 6.662-.928-.009-1.856-.024-2.783-.024-46.577-.002-93.155-.002-139.733-.002-1.344 0-1.36 0-1.335-1.404.031-1.736-.109-3.474.08-5.204.253-.283.587-.339.94-.342.375-.005.754-.004 1.132-.004 46.05 0 92.101 0 138.154-.003.755 0 1.508.03 2.265-.007.44-.023.902-.038 1.254.328M143.805 49c.357 1.897.08 3.814.15 5.72.016.422.154.888-.15 1.278-.858-.01-1.717-.024-2.576-.024-46.71-.002-93.421-.006-140.134.026-.948.002-1.126-.307-1.091-1.224.062-1.663.038-3.33.007-4.994-.01-.56.112-.808.676-.76.58.05 1.165.011 1.75.011h140.339c.345 0 .686-.022 1.03-.033" mask="url(#fn04c8bc26bdmb)"></path><path fill="#201C19" d="M143.853 58a36.915 36.915 0 01-.006 6.65c-.379.4-.879.34-1.35.341-4.212.012-8.423.01-12.636.002-.476 0-.969.026-1.35-.358-.407-1.072-.174-2.19-.202-3.286-.015-.59-.103-.851-.783-.848-8.496.023-16.992.02-25.49.002-.584 0-.73.189-.777.76-.093 1.131-.036 2.279-.333 3.388-.583-.009-1.167-.03-1.75-.03-32.623-.001-65.245 0-97.868-.003-1.518 0-1.28.147-1.293-1.348-.013-1.492.02-2.987-.014-4.48-.014-.59.169-.814.762-.767.58.045 1.166.008 1.75.008l140.105-.003c.41 0 .822-.018 1.235-.028" mask="url(#fn04c8bc26bdmb)"></path><path fill="#211B19" d="M106.372 87c.092.048.224.07.269.147 1.473 2.52 3.365 4.666 5.359 6.721-.321.21-.675.107-1.014.107-36.626.005-73.255.005-109.884.002-.341 0-.692.075-1.024-.087C.056 91.81.04 89.726 0 87.645c-.008-.47.129-.662.583-.627.448.033.901.01 1.349.01 34.398 0 68.797 0 103.197-.002.413 0 .828-.017 1.243-.026" mask="url(#fn04c8bc26bdmb)"></path><path fill="#201B19" d="M101.839 77c.719 2.33 1.44 4.66 2.161 6.987-1.817-.005-3.633-.015-5.45-.015-32.429 0-64.86 0-97.288.028-.955 0-1.327-.199-1.253-1.304.1-1.531.08-3.078.005-4.613-.044-.906.264-1.151 1.043-1.065.542.06 1.096.015 1.643.015 32.705.002 65.407.004 98.111.004.343 0 .685-.024 1.028-.037m-.442-8.996c.395.791.139 1.651.222 2.476.154 1.497.256 2.997.381 4.498-33.616-.002-67.231-.008-100.847.022-.986.002-1.192-.313-1.147-1.285.073-1.627.043-3.261.008-4.892-.013-.618.146-.888.746-.81.306.041.62.008.93.008l98.879.001c.277 0 .552-.013.828-.018" mask="url(#fn04c8bc26bdmb)"></path><path fill="#211B18" d="M357.254 46.787c-2.566-.932-5.042-2.114-7.644-2.951-4.16-1.34-8.38-2.439-12.61-3.506.247-.543.716-.252 1.06-.252 9.289-.022 18.576-.016 27.865-.016 5.634 0 11.267-.004 16.901.003.371 0 .753-.087 1.112.09.017 1.987.01 3.975.061 5.962.023.884-.561.623-.975.625-7.52.009-15.039.005-22.559.007-.578.002-1.159.03-1.74.045-.49.357-.982.18-1.471-.007" mask="url(#fn04c8bc26bdmb)"></path><path fill="#FEFDFD" d="M143.875 39.959c-.617.014-1.234.041-1.85.041-47.02 0-94.04 0-141.06-.002-.24 0-.481-.007-.72-.01-.095-.296-.402-.588-.014-.892.556.013 1.116-.005 1.647.215H141.51c.2-.091.475.057.618-.215v-1.283c-.115-.12-.218-.26-.411-.213-46.32 0-92.641-.002-138.96.002-.532 0-1.113-.149-1.497.424-.18.02-.3-.09-.412-.213-.672-.217-.868-.666-.844-1.402a81.871 81.871 0 00-.003-5.557c-.026-.728.26-.927.847-.957.304.35.707.207 1.067.207 46.32.007 92.639.006 138.957.025.719 0 1.356-.445 2.089-.26.222.058.398-.142.387-.388-.026-.585.159-1.197-.13-1.738-.273-.034-.257.138-.26.264-.006.304-.046.622-.389.646-.367.025-.353-.35-.434-.602-.076-.234-.143-.47-.213-.705.653-.463 1.307-.455 1.966-.014.165.986.101 1.972.034 2.96-.277.331-.658.35-1.037.367-.515.025-1.029.014-1.544.014-46.186 0-92.374 0-138.56.002-2.415 0-2.203-.132-2.215 2.336-.004.855.005 1.71.003 2.566-.002.722.328 1.033 1.006 1.026.447-.005.893.005 1.34.005 46.254 0 92.509 0 138.764.013.727 0 1.525-.245 2.157.394.241.979.18 1.961.038 2.944" mask="url(#fn04c8bc26bdmb)"></path><path fill="#201B18" d="M361 93.892c2.24-1.989 4.481-3.977 6.19-6.529.16-.238.377-.287.602-.363 5.054.01 10.108.037 15.162.013.77-.004 1.089.138 1.041 1.05a46.967 46.967 0 00-.001 4.619c.045.951-.155 1.276-1.146 1.269-6.857-.054-13.711-.028-20.568-.026-.275 0-.552.02-.827.031-.162.061-.317.074-.453-.064M368.829 56c-.673-.809-1.345-1.62-2.02-2.426-1.409-1.687-3.17-2.948-4.809-4.357.151-.176.344-.224.56-.216 6.831.23 13.663.038 20.493.105.306.004.624-.082.912.106.005 1.946-.026 3.893.033 5.84.025.766-.193.944-.91.939-4.753-.027-9.506 0-14.26.009" mask="url(#fn04c8bc26bdmb)"></path><path fill="#D53017" d="M394.51 64.98c-2.17 0-4.341-.036-6.509.019-.804.02-1.024-.257-1-1.061.054-1.678.038-3.36.008-5.04-.012-.646.169-.902.83-.898 4.445.026 8.89.03 13.334.002.67-.004.827.25.817.89-.032 1.717-.048 3.436.008 5.149.027.813-.285.965-.978.952-2.17-.038-4.34-.012-6.51-.012" mask="url(#fn04c8bc26bdmb)"></path><path fill="#D43117" d="M394.598 40.02c2.135 0 4.27.036 6.406-.019.8-.022 1.02.248.993 1.056a88.895 88.895 0 00.002 5.032c.016.722-.22.913-.907.907a774.08 774.08 0 00-13.02.004c-.82.007-1.1-.215-1.065-1.098.067-1.602.069-3.21-.003-4.812-.043-.911.288-1.102 1.085-1.083 2.168.047 4.34.016 6.51.016v-.003zm-.185 43.965c-2.169 0-4.339-.024-6.506.015-.684.01-.924-.214-.906-.935.039-1.717.044-3.437.002-5.153-.02-.75.264-.916.924-.912 4.372.026 8.744.031 13.118.002.73-.006.971.22.952.986a89.204 89.204 0 00.002 5.042c.023.795-.26.98-.977.966-2.202-.044-4.406-.015-6.61-.015v.004zm.111-29c-2.208 0-4.419-.022-6.627.014-.685.012-.915-.163-.896-.801.046-1.469.028-2.937.005-4.406-.008-.532.103-.797.803-.792 4.453.027 8.905.023 13.357 0 .638-.003.849.162.833.755a72.37 72.37 0 00-.003 4.5c.019.616-.222.75-.845.741-2.208-.029-4.418-.01-6.627-.01m-.021 18.996c-2.209 0-4.418-.026-6.625.014-.706.013-.893-.2-.877-.816.044-1.468.037-2.936.002-4.404-.014-.564.15-.78.816-.776 4.452.023 8.904.023 13.356 0 .656-.005.836.188.818.766a69.326 69.326 0 00.005 4.405c.027.705-.27.841-.975.828-2.172-.038-4.348-.014-6.52-.014v-.003zm.05 13.033c2.204 0 4.409.022 6.613-.015.65-.01.849.158.833.75a97.283 97.283 0 00-.003 4.59c.008.498-.17.662-.714.66-4.514-.013-9.03-.014-13.546 0-.535.002-.743-.141-.734-.646a122.28 122.28 0 00-.002-4.686c-.014-.592.296-.67.833-.666 2.24.016 4.48.006 6.72.006v.007z" mask="url(#fn04c8bc26bdmb)"></path><path fill="#201B18" d="M369 83.989c.92-2.281 1.676-4.632 2.415-6.989 3.553.01 7.107.046 10.658.006.76-.01.953.219.924 1.034a73.868 73.868 0 00-.005 5.055c.024.752-.212.909-.842.905-4.384-.026-8.766-.011-13.15-.011" mask="url(#fn04c8bc26bdmb)"></path><path fill="#211C19" d="M371.995 65c-.408-.615-.37-1.37-.512-2.062-.35-1.697-1.028-3.268-1.483-4.923 4.023.002 8.045.026 12.068-.015.753-.009.96.21.93 1.033a77.975 77.975 0 000 5.045c.02.72-.173.92-.831.915-3.39-.03-6.782 0-10.172.007" mask="url(#fn04c8bc26bdmb)"></path><path fill="#201B18" d="M372.042 74.998c-.153-1.278.164-2.527.176-3.797.01-1.062.04-2.125.063-3.188 3.298.002 6.6.023 9.897-.013.64-.005.842.174.82.912a96.125 96.125 0 000 5.224c.017.681-.142.87-.762.864-3.397-.032-6.797-.006-10.194-.002" mask="url(#fn04c8bc26bdmb)"></path><path fill="#FCFBEB" d="M0 93.023c36.084-.001 72.17-.001 108.256-.005.925 0 1.851-.01 2.776-.018 1.322 1 2.644 2.001 3.968 3l-.789-.005c-1.12-.893-2.208-1.836-3.383-2.646-.344-.238-.93-.124-1.404-.124-12.109-.004-24.216-.002-36.324-.002-23.94 0-47.88.002-71.82-.01-.426 0-.896.175-1.28-.19" mask="url(#fn04c8bc26bdmb)"></path><path fill="#DBCA91" d="M327.028 36.865l-1.002-.234c-.058-.172-.019-.304.119-.396.479-.282 1-.222 1.51-.222 18.187-.006 36.375-.006 54.562.004.567 0 1.177-.142 1.656.392l.06-.06.067.05c-.333.292-.722.198-1.093.198-18.066.002-36.133-.002-54.2.01-.56.002-1.166-.226-1.68.258" mask="url(#fn04c8bc26bdmb)"></path><path fill="#756C48" d="M384 40.275c-15.194.004-30.39.008-45.585.024-.464 0-.957-.168-1.397.172-.339-.122-.68-.246-1.018-.37 4.82-.016 9.64-.04 14.46-.044 10.838-.006 21.676-.004 32.514.012.335 0 .744-.252 1.026.206" mask="url(#fn04c8bc26bdmb)"></path><path fill="#FCFBF2" d="M384 48.995L362.052 49 357 46l1.489.007c.108 1.1.862.735 1.619.608-.44.484-.44.76.115.88.435.093.93.14 1.275.387 2.21 1.586 4.696.797 7.05.856 4.757.12 9.52.033 14.28.045.393 0 .837-.174 1.172.212" mask="url(#fn04c8bc26bdmb)"></path><path fill="#D43117" d="M432 46.019c10.698 0 21.394-.002 32.092 0 .304 0 .622-.088.908.116-.859.018-1.718.054-2.579.054-9.815.002-19.631.002-29.448-.01-.322 0-.686.186-.973-.16" mask="url(#fn04c8bc26bdmb)"></path><path fill="#FDF8DA" d="M356.632 96H356l4-2c-.534.958-1.832.967-2.617 1.619-.202.171-.497.256-.751.381" mask="url(#fn04c8bc26bdmb)"></path><path fill="#FEFEFE" d="M1.914 38.542c-.634-.106-1.326.24-1.914-.24.734-.678 1.302-.042 1.914.24" mask="url(#fn04c8bc26bdmb)"></path><path fill="#FDF8DA" d="M361.39 93c.172.022.346.046.52.07-.67.218-1.144.862-1.91.872.344-.49.866-.716 1.39-.942" mask="url(#fn04c8bc26bdmb)"></path><path fill="#FEFEFE" d="M142.718 39c-.03.212.082.502-.194.592-.27.092-.312-.282-.524-.352.172-.282.454-.232.718-.24M142 37.365c.046-.166.03-.44.296-.346.254.088.158.376.182.584-.196-.004-.376-.046-.478-.238M1 37c.196.004.374.046.478.24-.046.164-.03.438-.296.346C.926 37.498 1.024 37.21 1 37" mask="url(#fn04c8bc26bdmb)"></path><path fill="#F6D500" d="M191.94 6.064c2.444-.015 4.89-.04 7.334-.043 6.511-.005 13.024.014 19.534-.02.854-.006 1.185.204 1.083 1.08-.054.47.048.957.08 1.438.457.936.188 1.93.237 2.901.064 2.129-.05 4.26.075 6.39-.078 1.011-.066 2.029-.078 3.044.043 2.169.041 4.339.005 6.507.026.98.03 1.96-.002 2.938.064 2.132-.049 4.264.075 6.394-.078 1.01-.066 2.026-.078 3.038.053.587.04 1.175.02 1.762-.022.757.297 1.075 1.056 1.005 1.17-.106 2.344-.06 3.515-.06 7.312-.004 14.622-.004 21.934 0 .584 0 1.173-.046 1.748.097.26.024.437.342.82.196-.81-.847-.636-1.767-.426-2.795.46-2.24.49-4.524.268-6.802-.06-.624-.116-1.238-.081-1.861.173-3 .131-5.997.041-9.006-.09-2.958.213-5.935.132-8.906-.049-1.755-.139-3.503-.007-5.262.116-1.556.46-1.889 2.017-1.873 3.52.036 7.041.012 10.562.012 5.108.002 10.216-.012 15.326.017.564.004 1.245-.402 1.677.08.376.419-.05 1.045-.005 1.59.279 3.481-.2 6.966.045 10.447.157 2.237-.071 4.467-.044 6.701.023 1.747.267 3.498.177 5.233-.074 1.411-.261 2.828-.163 4.236.276 3.967-.185 7.934.01 11.896.157 3.164-.093 6.326.068 9.493.057 1.158-.093 2.395-.142 3.555-.076 1.868-.137 3.799.121 5.679.13.944.01 1.85-.022 2.778-.087 2.554-.132 5.11.102 7.661a5.3 5.3 0 01-.033 1.242c-.367 2.505-.081 5.005.028 7.508.038.887-.059 1.781-.087 2.674a238.7 238.7 0 00-.116 6.192c-.005 1.165.229 2.377.182 3.582-.038.948-.2 1.097-1.102.93-.345-.062-.688-.051-1.029-.051-8.07.001-16.138-.002-24.207.015 6.787.021 13.575.018 20.362.02 1.449 0 2.897-.01 4.344.004.565.006 1.093.061.88.867-.253.439-.682.408-1.093.408-8.225.003-16.45.002-24.675.005-.447 0-.882-.106-1.334-.089-1.783.07-2.51-.862-2.11-2.656.287-.352.25-.772.25-1.186.002-9.434.013-18.866-.015-28.298-.003-1.552.075-3.103.023-4.655-.047-1.347-.406-1.715-1.74-1.717h-23.904c7.86.002 15.72-.001 23.58.006.504 0 1.048-.125 1.471.296.189.707-.37.497-.664.492-3.792-.075-7.587-.018-11.382-.026-4.64-.014-9.281 0-13.922.005 8.473.128 16.946-.099 25.417.142.092.004.166.118.198.247-.253.432-.704.342-1.097.342-8.421.008-16.842.003-25.263.014-.616.001-1.207-.288-1.841-.09-.432.133-.754.366-.524.8.732 1.383.397 2.746.032 4.123.013 2.264-.08 4.526.055 6.785.022.118.024.238.016.356-.193 2.411-.033 4.828-.085 7.243-.016.718.069 1.442-.302 2.125-.17.309-.085.672.07.998.22.469.254.925-.089 1.36-.107.135-.173.26-.11.461.779 2.422.566 4.868.105 7.302-.128.683.057 1.214.376 1.755.13.391.125.77-.123 1.118-.659 1.05-1.624 1.237-2.812 1.233-7.99-.022-15.979-.036-23.97-.026-.326 0-.71.125-.89-.316-.05-.46.23-.611.618-.644.308-.026.62-.014.93-.014 8.031.002 16.062 0 24.091-.02-8.401.008-16.803-.074-25.205.029-.797.008-1.167-.33-1.188-1.08-.025-.894-.08-1.785.239-2.663.31-.861.05-1.788.161-2.674.246-1.984-.5-3.896-.402-5.856.062-1.298.71-2.59.334-3.88-.608-2.083-.329-4.19-.306-6.278.012-1.218.648-2.458.303-3.67-.6-2.121-.362-4.262-.29-6.384.046-1.284.612-2.586.233-3.871-.312-1.066-.475-2.153-.206-3.165.556-2.092.343-4.196.253-6.28-.052-1.218-.595-2.461-.264-3.671.574-2.089.355-4.195.265-6.278-.053-1.219-.596-2.462-.265-3.672.57-2.089.362-4.194.265-6.278-.06-1.288-.592-2.588-.225-3.875.295-1.03.489-2.092.22-3.059-.582-2.092-.312-4.194-.286-6.283.016-1.18.638-2.39.302-3.566-.527-1.845-.238-3.705-.36-5.554-.065-.958.176-1.755.899-2.394" mask="url(#fn04c8bc26bdmb)"></path><path fill="#F6D500" d="M189.157 8.524c.201-.448.148-.942.1-1.399-.1-.92.2-1.246.942-1.086.166.036.34.033.509.048.366.469.052.993.071 1.49.09 2.167-.065 4.336.164 6.51.192 1.847-.258 3.703-.158 5.572.074 1.407-.038 2.818.149 4.232.124.938.044 1.916-.082 2.885-.166 1.296.047 2.608.08 3.91.051 2.094.156 4.2-.116 6.303-.177 1.364.106 2.745.137 4.12.055 2.343-.102 4.689-.117 7.026-.014 2.336.175 4.681.123 7.026-.03 1.341-.3 2.68-.15 4.017.119 1.067.266 2.142.136 3.192-.268 2.136-.14 4.274-.132 6.409.004 1.232.296 2.48.124 3.705-.165 1.173-.146 2.337-.139 3.507.01 1.444-.065 2.89.146 4.337.185 1.262-.149 2.539-.14 3.81.019 2.375.225 4.746.175 7.128-.028 1.345-.26 2.668-.207 4.023.025.623.264 1.206.185 1.838-.04.307-.036.668-.291.824-.312.19-.429-.224-.634-.378-.394-.3-.563-.77-.75-1.234-.385-.947-.146-1.96-.22-2.94-.056-2.115.039-4.232-.06-6.346.06-1.031.099-2.06.004-3.093.081-2.15.073-4.3 0-6.452.096-1.019.057-2.041-.002-3.063a85.808 85.808 0 000-6.305c.062-1.02.095-2.04.002-3.063a89.676 89.676 0 000-6.446c.096-1.02.057-2.04-.002-3.063a85.808 85.808 0 000-6.304c.062-1.02.095-2.041.002-3.064.081-2.15.073-4.3 0-6.45.097-1.03.052-2.057-.003-3.088.106-2.09 0-4.187.06-6.28-.024-.998.019-1.998-.063-2.995.089-2.168.077-4.336.006-6.503.095-1.022.057-2.044-.002-3.067a86.71 86.71 0 00.002-6.287c.11-.998-.025-2.013.151-3.006" mask="url(#fn04c8bc26bdmb)"></path><path fill="#F8D300" d="M277.597 98.267c-.138-.727-.7-.5-1.14-.5-7.932-.007-15.863-.007-23.792-.022-.346 0-.725.128-1.073-.128.203-.339.506-.169.737-.17 8.062-.01 16.122-.01 24.185-.01 1.546 0 1.52.003 1.653-1.542.082-.976-.386-1.947-.352-2.757.04-.97-.001-2.03.222-3.012.28-1.22-.029-2.43.071-3.662.18-2.23-.041-4.494-.102-6.745-.013-.439.107-.905-.235-1.286-.164-.184-.124-.372.017-.56.64-.862.318-1.809.294-2.756-.067-2.51-.138-5.032.016-7.535.06-1.008-.028-1.97-.073-2.958-.065-1.413.205-2.879-.084-4.233-.251-1.184.379-2.167.217-3.35-.157-1.132.055-2.48-.067-3.611-.24-2.208.101-4.377-.009-6.567-.132-2.658-.27-5.345.085-8.016.215-1.638-.297-3.258-.176-4.907.091-1.232.201-2.474.243-3.693.058-1.739-.298-3.506-.202-5.26.093-1.669-.008-3.333.117-5.008.131-1.715-.179-3.471-.14-5.216.037-1.541 0-3.093.161-4.624.126-1.18-.611-2.37.095-3.539.115-.194-.181-.336-.4-.322-6.025.404-12.057.107-18.085.157-3.148.025-6.3.132-9.452-.074-.671-.044-1.11.553-1.154 1.397-.179 3.588.24 7.179-.01 10.752-.246 3.505.294 7.002-.015 10.478-.226 2.52.203 5.003.036 7.5-.09 1.34 0 2.697-.5 4.003-.227.595-.32 1.321.346 1.774.28.189.538.362.465.699-.027.123-.327.21-.514.268-.459.144-.452-.298-.617-.522-.556-.958-.172-2.03-.358-3.034.119-1.021.058-2.042-.005-3.064.122-2.103.001-4.208.069-6.313a49.373 49.373 0 010-2.9c-.057-2.17.04-4.34-.071-6.508.115-1.04.07-2.082 0-3.125.126-2.111.002-4.225.069-6.339.034-.972-.19-1.963.198-2.91.03-.202.077-.407.084-.61.06-1.88.057-1.88 1.882-1.88 9.046 0 18.093.022 27.138-.027 1.064-.007 1.405.283 1.259 1.31-.057.396-.086.826.088 1.223.406.94.165 1.927.208 2.894.064 2.124-.05 4.252.074 6.376-.077 1.009-.067 2.022-.077 3.034.037 2.149.043 4.295.001 6.442.009 1.005-.001 2.011.073 3.015a71.427 71.427 0 000 6.398c-.076 1.002-.064 2.006-.074 3.01a174.9 174.9 0 01.001 6.438c.009 1.004-.001 2.01.073 3.015a71.998 71.998 0 00-.002 6.395c-.076.997-.062 1.998-.072 2.996.037 2.058.029 4.115.006 6.171a9.214 9.214 0 00-.008.377c.003.984-.004 1.968.074 2.952a72.068 72.068 0 000 6.37c-.074 1.001-.062 2.003-.072 3.007.037 2.147.043 4.292.001 6.437.009 1.005-.001 2.011.073 3.015a71.764 71.764 0 00-.002 6.384c-.155.97.117 1.982-.284 2.929-.198.728-.038 1.472-.1 2.205-.023.253.153.678-.393.597-.2-.248-.387-.505-.621-.723" mask="url(#fn04c8bc26bdmb)"></path><path fill="#FEFDFD" d="M248.917 9c.12.888.098 1.776.011 2.665-.375.381-.885.327-1.361.327-8.712.011-17.423.01-26.135.002-.481 0-.984.033-1.37-.326-.062-.888-.113-1.775.03-2.663L248.917 9" mask="url(#fn04c8bc26bdmb)"></path><path fill="#FEFEFD" d="M279.065 10.655c-.068-.876-.112-1.751.02-2.625 8.463-.008 16.926-.018 25.389-.024.19 0 .414-.054.526.171-.754.79-1.877 1.053-2.756 1.672-.634.447-1.242.98-2.09 1.086-2.298.114-4.596.041-6.892.05-4.188.012-8.377.007-12.567-.004-.56-.002-1.163.115-1.63-.326" mask="url(#fn04c8bc26bdmb)"></path><path fill="#F7D400" d="M189.11 96.166c.209.793 1.404.649 1.395 1.645l.286-.08V6.001L191.61 6c-.165.227.216.642-.308.776-.378.097-.303.49-.303.798-.004 1.59-.139 3.195.043 4.764.138 1.183.665 2.406.32 3.545-.639 2.12-.362 4.253-.308 6.365.033 1.309.679 2.654.237 3.945-.34 1.003-.49 2.046-.237 2.941.594 2.09.333 4.182.313 6.263-.012 1.244-.7 2.528-.325 3.75.639 2.084.358 4.182.315 6.26-.024 1.24-.674 2.537-.306 3.75.644 2.12.37 4.257.294 6.363-.049 1.307-.644 2.648-.2 3.941.342 1.003.465 2.057.202 2.943-.619 2.092-.335 4.188-.293 6.265.024 1.204.663 2.471.308 3.646-.64 2.12-.363 4.253-.306 6.364.034 1.308.673 2.655.232 3.946-.343 1.003-.492 2.05-.23 2.94.594 2.021.187 4.046.363 6.056.083.958-.51 1.754-.454 2.728.103 1.763.028 1.76 1.743 1.758 4.818-.007 9.636-.009 14.454-.01 3.325 0 6.65 0 9.976.012.308 0 .845-.203.852.236.009.487-.546.255-.84.255-8.138.014-16.278.007-24.418.022-.442 0-1.133-.295-1.115.611a2.27 2.27 0 00-.033.137c-.01.844.618.762 1.148.766 2.613.013 5.229.006 7.842.006 5.367 0 10.732 0 16.1.004.31 0 .627-.042.926.04.535.146.502.392.07.666-2.685.092-5.366.031-8.049.037-5.949.012-11.9-.007-17.849.017-.739.003-1.503-.345-2.225.092-.625.035-.45-.384-.409-.727.213-.276.335-.552.002-.83L189 96.228c.038-.02.074-.041.11-.062" mask="url(#fn04c8bc26bdmb)"></path><path fill="#EAD118" d="M300.834 11.844l4.523-2.72c5.515-2.631 11.328-4.14 17.397-4.74 5.507-.546 10.998-.54 16.484.215 4.564.63 8.966 1.81 13.125 3.836.427.207.885.356 1.327.533l4.378 2.89c1.726.906 2.99 2.355 4.255 3.775.744.833 1.546 1.646 2.03 2.686.45 1.034 1.082 1.957 1.705 2.888 1.338 2 2.231 4.187 2.69 6.554.223.96.443 1.918.663 2.878.159.265.317.522.4.83.47 1.714.118 2.202-1.66 2.203-8.325.007-16.648.004-24.974.004-2.388 0-2.498-.097-2.972-2.544a.459.459 0 01.303-.476c.55.583.523 1.394.82 2.076.318.038.636.069.951-.03.556-.059 1.106-.069 1.654.052.506.135 1.02.068 1.53.068 6.697.007 13.396-.002 20.094.012.957.003 1.903-.2 2.863-.108.238.023.484-.027.592-.299 0-.316.191-.614.086-.939-.165-2.208-.908-4.268-1.662-6.316-.826-2.236-1.962-4.33-3.292-6.3-1.891-2.795-4.163-5.263-6.906-7.217-3.15-2.243-6.632-3.93-10.3-5.08-3.401-1.066-6.925-1.67-10.494-1.99-2.005-.178-4.024-.417-6.015-.334-3.801.161-7.61.269-11.388.927-5.42.945-10.628 2.487-15.367 5.296-3.346 1.982-6.23 4.545-8.482 7.82-1.575 2.292-2.826 4.696-3.5 7.37-.837 3.315-1.446 6.656-1.012 10.132.172 1.389.265 2.792.567 4.161.816 3.696 2.408 7.018 4.827 9.93a.359.359 0 01-.258.113c-.311-.048-.518-.263-.733-.467-.783-.889-1.383-1.902-1.956-2.933-1.15-2.093-1.99-4.3-2.473-6.643-.238-.984-.434-1.975-.515-2.987-.215-2.064-.12-4.133-.106-6.201.072-.98.402-1.918.45-2.9.572-2.297 1.21-4.568 2.286-6.69.46-1.005 1.04-1.944 1.552-2.92.86-.923 1.588-1.957 2.426-2.901 1.207-1.356 2.544-2.556 4.087-3.514" mask="url(#fn04c8bc26bdmb)"></path><path fill="#FDFDFD" d="M188.855 8c.212.889.173 1.777.003 2.666-.361.375-.85.324-1.31.326-3.702.01-7.405.01-11.107 0-.46-.002-.949.05-1.312-.325-.198-.885-.133-1.775-.038-2.665C179.679 8 184.266 8 188.855 8" mask="url(#fn04c8bc26bdmb)"></path><path fill="#201B18" d="M143.86 27.985l-1.967.015c-.41-.016-.823-.046-1.233-.046-46.334-.002-92.67-.002-139.003-.002-1.631 0-1.631 0-1.631-1.708 0-1.387.057-2.777-.02-4.158-.05-.91.268-1.167 1.046-1.053.27.04.55.007.824.007h140.96c.343 0 .686-.027 1.027-.04a44.15 44.15 0 01-.003 6.985m.032-16.971c.065 2.33.252 4.663-.1 6.986-.891-.011-1.784-.03-2.676-.03-46.599-.002-93.198-.007-139.798.026-1.087 0-1.384-.293-1.306-1.446.105-1.545.053-3.105.013-4.658-.017-.644.1-.97.775-.876.44.06.893.014 1.337.014l140.726-.001c.343 0 .686-.01 1.029-.015" mask="url(#fn04c8bc26bdmb)"></path><path fill="#D82D16" d="M473.274 5.92H404c.379-.428.853-.226 1.28-.228 22.188-.01 44.375-.008 66.563-.018.395 0 .843.192 1.178-.214.215-.264.388-.604.76-.398.104.058.233.248.218.35-.07.458-.587.126-.725.506" mask="url(#fn04c8bc26bdmb)"></path><path fill="#201B18" d="M339.973 30.545c.103.3.213.597.31.901.543 1.691.541 1.693 2.31 1.693 8.53 0 17.064-.022 25.595.025 1.06.007 1.2-.366.972-1.28-.127-.508-.158-1.04-.23-1.562 4.392.002 8.785.021 13.179-.014.72-.006.917.185.888.934-.072 1.91-.058 3.824-.08 5.738-16.083-.005-32.167-.014-48.25-.014-3.175-.002-6.349.021-9.526.034-1.334-.195-2.4-.981-3.484-1.732-.54-.572-1.134-1.101-1.609-1.727-.705-.933-1.2-1.975-1.005-3.23.336-.32.758-.3 1.165-.302 6.182-.01 12.365-.013 18.547-.002.273.002.546.016.81.107.194.084.369.188.408.431" mask="url(#fn04c8bc26bdmb)"></path><path fill="#201B19" d="M364.421 18c-.677-.378-.979-1.118-1.425-1.709-1.475-1.959-3.263-3.575-4.996-5.254 8.423-.007 16.847-.007 25.27-.037.626-.002.74.226.73.822-.034 2.037-.02 4.076-.023 6.115l-.002.003-17.671.038c-.628.001-1.255.015-1.883.022m4.351 10L366 21.011c5.646.002 11.29.022 16.934-.01.809-.006 1.103.17 1.062 1.072a61.532 61.532 0 00-.005 4.953c.028.773-.188.974-.93.97-4.762-.03-9.525-.003-14.289.004" mask="url(#fn04c8bc26bdmb)"></path><path fill="#D43117" d="M394.557 27.982c-2.168 0-4.34-.03-6.51.017-.75.016-1.073-.156-1.045-1.014.054-1.717.033-3.435.008-5.15-.008-.605.184-.839.786-.835 4.48.02 8.96.026 13.439.004.637-.004.762.27.755.845-.023 1.716-.04 3.434.009 5.15.02.754-.184 1.016-.932 1-2.169-.048-4.34-.017-6.51-.017m-.031-16.969c2.208 0 4.418.023 6.628-.013.643-.01.86.162.845.75a108.076 108.076 0 00-.007 4.596c.01.51-.193.656-.732.654a2014.52 2014.52 0 00-13.465 0c-.587.003-.805-.157-.795-.707.034-1.53.036-3.064.004-4.594-.012-.554.202-.705.789-.697 2.245.026 4.488.01 6.733.011m.031 19.009c2.208 0 4.418.024 6.627-.015.662-.011.83.175.815.756a76.4 76.4 0 00-.002 4.4c.018.605-.151.84-.866.837-4.417-.026-8.834-.027-13.251 0-.718.005-.893-.226-.878-.828a71.714 71.714 0 000-4.308c-.022-.653.174-.88.929-.863 2.208.046 4.417.016 6.626.016v.005z" mask="url(#fn04c8bc26bdmb)"></path><path fill="#FEFEFE" d="M384.052 29.32c.092-.01.15-.014.15-.02.04-1.326.533-2.583.556-3.917.012-.734-.335-1.612.674-2.071.167-.076.116-.584.217-.874.071-.205.13-.536.47-.41.265.1.364.405.241.612-.257.43.004.62.127.99.312.947.197 2.055.046 3.095-.02.139-.192.19-.34.123-.187-.086-.197-.268-.197-.44-.004-.825-.002-1.65-.002-2.705-.742 1.228-.439 3.813.328 4.575.17.168.241.075.397.068 4.126-.209 8.254.04 12.381-.042.307-.007.663.058.906-.077.326-.18.609-.426.848.005.185.332.229.84-.076 1.049-.84.568-.401.828.176 1.217h-3.48c-2.865 0-5.73.007-8.597-.003-.85-.004-1.72.133-2.4-.679-.2-.24-.703.335-1.161.067.642.971-.054 1.952.19 2.957.273 1.12.058 2.36.072 3.545.005.453-.198.66-.625.607-.449-.058-.192-.423-.194-.623-.02-1.843-.026-3.689.012-5.532.007-.388.007-.62-.444-.539-2.468.439-4.955.118-7.431.19-1.863.052-3.73.016-5.593.005-.33-.002-.823.191-.689-.514.097-.507-.609.204-.614-.41-.005-.726.585-1.575 1.358-1.579 3.937-.016 7.872-.002 11.81-.014.506-.002.793.135.752.705-.016.225-.045.476.132.639M383.23 18c.275.174.625.129.869.265.306.169.998-.187.89.475-.102.623-.205 1.288-1.067 1.559-4.185 1.32-8.448.255-12.646.697-.87.089-1.37-1.233-1.756-.72-.638.848-1.11.737-1.794.35-.065-.037-.198.04-.289.088-.582.29-.862.176-.912-.616-.04-.625-.228-.683-.838-.44-.185.077-.276.003-.295-.149-.046-.38-.48-.59-.376-1.011.082-.345.378-.269.603-.265 2.813.043 5.626-.028 8.44-.011 2.837.018 5.675.005 8.513.003.239 0 .485.023.656-.221l.002-.004zm17.77.326c-.145.379-1.352.395-.389.997-.367.27-.576.7-1.214.674-.961-.038-1.926-.009-2.889-.009-2.787 0-5.574-.017-8.361.012-.625.007-1.11-.176-1.634-.408-.73-.321-.478-.861-.443-1.302.047-.61.508-.066.742-.082 4.428-.276 8.864-.068 13.296-.134.321-.005.612.054.892.252" mask="url(#fn04c8bc26bdmb)"></path><path fill="#FEFEFE" d="M386 30c.648.244.716.564.716.921-.004 1.502.002 3.003-.006 4.505-.002.227.066.536-.318.57-.41.039-.388-.272-.388-.503-.006-1.801-.004-3.602-.004-5.493m-1.929-7.376c.008-.582-.28-1.166.25-1.576.186-.142.568.06.546.262-.048.51-.084 1.1-.796 1.314M475.026 10c.21.714.512.998.75 1.334-.58-.072-.868-.372-.75-1.334M402 18c.442.082.614.298.48.672-.022.06-.138.148-.174.134-.378-.152-.07-.592-.306-.806m-.436 11.192c-.132.088-.21.18-.296.188-.158.014-.31-.06-.258-.25.02-.066.176-.132.268-.13.08.002.16.102.286.192m72.843-18.976c.002.216-.068.36-.252.362-.05.002-.138-.164-.144-.258-.01-.134-.062-.354.192-.316.084.012.15.152.204.212" mask="url(#fn04c8bc26bdmb)"></path><path fill="#D72F16" d="M432.002 32.568L432 32.09c.398-.226.094-.744.426-1.09.376.434.246 1.148 1.086 1.268-.592.432-1.074.246-1.51.3" mask="url(#fn04c8bc26bdmb)"></path><path fill="#D72E16" d="M463 45.252c.954 0 1.904.032 2.849-.188.524-.12 1.067-.152 1.151.666-1.036.464-2.073.258-3.111 0-.2-.368-.818.168-.889-.478" mask="url(#fn04c8bc26bdmb)"></path><path fill="#D33117" d="M432 42v-1.998c.078 0 .156 0 .234-.002v2H432" mask="url(#fn04c8bc26bdmb)"></path><path fill="#201B18" d="M279.186 74.71a27.527 27.527 0 01.005-6.426c.411-.339.911-.277 1.388-.279 19.241-.007 38.484-.005 57.725-.005.346 0 .691.036 1.033.045.481.034.944.131 1.37.364 1.17.738 2.244 1.57 2.834 2.867.368 1.115.682 2.231.248 3.403a1.439 1.439 0 01-.355.203c-.306.082-.617.072-.927.072-7.285.003-14.572.003-21.857.003-.455 0-.898-.025-1.297-.27-.156-.145-.31-.292-.465-.438-.821-.875-1.106-1.956-1.23-3.098.04-.687-.487-.531-.863-.531-2.245-.009-4.49 0-6.733 0-6.874.001-13.746.02-20.618-.02-.884-.004-1.168.22-1.035 1.074.157 1.002.231 2.015.34 3.023-.303.282-.688.288-1.065.29-2.475.018-4.952.016-7.428.001-.376-.003-.763-.002-1.07-.279m-.139-10.032c.026-2.111-.182-4.228.113-6.336.385-.389.887-.334 1.362-.334 8.711-.01 17.424-.006 26.137-.006.66 0 1.291.16 1.92.328 2.569.757 5.049 1.776 7.63 2.501 4.896 1.371 9.856 2.478 14.791 3.687-.012.389-.33.394-.59.439-.34.055-.687.032-1.034.032-16.25.002-32.5.002-48.75-.005-.54 0-1.118.125-1.579-.306" mask="url(#fn04c8bc26bdmb)"></path><path fill="#201B19" d="M279.185 92.702c-.235-2.147-.266-4.292.02-6.438.414-.318.906-.258 1.375-.258 4.087-.008 8.173-.007 12.258-.003.476.002.958-.017 1.381.263.281.082.436.306.61.516a33.05 33.05 0 005.691 5.384c.185.136.42.235.48.499-.384.378-.88.326-1.349.328-6.4.008-12.802.01-19.204 0-.437-.002-.895.036-1.262-.29" mask="url(#fn04c8bc26bdmb)"></path><path fill="#201B18" d="M279.155 83.664c-.2-2.115-.216-4.23.007-6.345.344-.349.796-.309 1.222-.31 2.505-.012 5.01-.01 7.513-.002.434.001.875-.004 1.233.31.78 2.187 1.802 4.266 2.87 6.322-.35.406-.838.35-1.294.351-3.414.014-6.83.012-10.245.002-.456-.002-.94.055-1.306-.328" mask="url(#fn04c8bc26bdmb)"></path><path fill="#FDFDFD" d="M308 57.962c-3.916.013-7.832.038-11.75.038-5.707 0-11.414-.017-17.12-.027-.158-.874-.2-1.749.034-2.619.285-.351.71-.34 1.112-.341 7.01-.013 14.02-.023 21.031.004.236 0 .474.021.706.062.226.046.455.086.656.204.362.235.736.459 1.134.648.12.07.22.163.322.25.37.337.874.434 1.323.63L308 57.96" mask="url(#fn04c8bc26bdmb)"></path><path fill="#FDFEFD" d="M279.137 93.04c6.889-.008 13.777-.013 20.667-.022.375 0 .748-.013 1.123-.018.61.414 1.219.832 1.829 1.248.53.42 1.099.775 1.695 1.09.238.127.626.164.536.62-3.195.014-6.389.042-9.584.042-5.44 0-10.879-.02-16.317-.03-.089-.98-.157-1.959.051-2.93" mask="url(#fn04c8bc26bdmb)"></path><path fill="#FDF3C5" d="M342.762 74.028L343 74c-.307 1.203-.808 2.263-2.168 2.706-1.069.03-2.113.359-3.21.115-.873-.195-1.748.164-2.633.164-3.545-.003-7.09-.026-10.635.015-.619.006-1.22-.094-1.823-.195-.52.076-1.017.052-1.445-.29l-.23-.187c-.577-.486-1.166-.961-1.606-1.572-.082-.191-.168-.383-.25-.574.355-.174.736-.086 1.103-.088 7.18-.005 14.363-.003 21.544-.006.372 0 .75.056 1.115-.06" mask="url(#fn04c8bc26bdmb)"></path><path fill="#FDFDFD" d="M339.979 29.992L319.002 30c-.025-1.069.223-2.032 1.212-2.708.455-.294.977-.29 1.499-.29 4.707-.002 9.414 0 14.122-.002.558 0 1.106.049 1.614.287.755.168 1.076.861 1.682 1.21.37.455.992.787.848 1.495M279.12 84.027L292.1 84c.651.987 1.378 1.92 1.9 3h-14.839c-.235-.987-.18-1.98-.04-2.973" mask="url(#fn04c8bc26bdmb)"></path><path fill="#231E1B" d="M338 26.997c-5.667 0-11.333.002-17 .003.539-.841 1.552-1.129 2.51-1.34 4.196-.928 8.385-.931 12.504.335.726.222 1.482.447 1.986 1.002" mask="url(#fn04c8bc26bdmb)"></path><path fill="#FEFDFD" d="M289 76.998l-9.876.002a8.633 8.633 0 01.013-2.987L288.29 74c.236 1 .471 2 .709 2.998" mask="url(#fn04c8bc26bdmb)"></path><path fill="#F8D400" d="M341.614 32.759c-.345.415-.462.022-.614-.236.038-.382.154-.76.548-.608.76.292.659-.294.682-.8.02-.408-.126-.958.341-1.093.371-.107.695.185.885.598-.303.22-.79.272-.775.814.012.517.537.36.775.61.358-.328.78-.232 1.182-.232 7.053-.004 14.106-.004 21.158 0 .403 0 .825-.096 1.183.232h.205c.545-.296 1.089-.39 1.633 0 .63 1.283-.551.888-.763.89-7.914.057-15.829.053-23.742.051-.297 0-.623.101-.858-.226-.614-.143-1.227-.334-1.84 0" mask="url(#fn04c8bc26bdmb)"></path><path fill="#F2D83C" d="M336.76 77.318l.24.417c-.057.228-.294.38-.384.596-.214.251-.483.39-.924.292.466-.634.25-.863-.597-.694-.177-.061-.375-.225-.534-.076-.071.069.2.187.266.313-.16.333-.496.457-.892.546-1.627.369-3.21.367-4.897.087-1.02-.171-2.016-.496-3.1-.55-.618-.03-1.478-.187-1.938-.748.66-.49 1.515-.463 2.294-.475 2.944-.043 5.89-.022 8.835-.013.563.001 1.136.03 1.63.305" mask="url(#fn04c8bc26bdmb)"></path><path fill="#FAD400" d="M314.932 72.236c.154.303.038.497-.256.546-.375.06-.757.1-1.133.1-6.933.006-13.864-.007-20.797.024-.602.004-1.425-.465-1.739.005-.316.475-.06 1.327-.168 1.995-.06.383.445 1.01-.159 1.092-.36.049-.327-.7-.417-1.087-.166-.73-.324-1.476-.24-2.241.046-.79.638-.64 1.088-.643 2.989-.017 5.978-.007 8.966-.01 4.518 0 9.036-.003 13.552.008.438.002.91-.134 1.303.21" mask="url(#fn04c8bc26bdmb)"></path><path fill="#F9D400" d="M344 31.001h21.653c.242 0 .482-.004.722.004.277.01.646.024.624.422-.026.454-.43.282-.672.282-7.114.01-14.229.008-21.344.01-.463 0-.928.022-.983-.718" mask="url(#fn04c8bc26bdmb)"></path><path fill="#F4D600" d="M313.896 72.624c-7.705 0-15.41-.001-23.117.005-.453 0-.984-.164-1.265.39-.242-.161-.64-.302-.475-.64.145-.304.557-.144.847-.146 8.533-.006 17.068-.024 25.601.02 1.04.005 1.459-.258 1.298-1.253L318 74c-.15-.071-.39-.106-.439-.219-.756-1.786-2.369-1-3.665-1.157" mask="url(#fn04c8bc26bdmb)"></path><path fill="#837937" d="M279 65.206c.757.014 1.516.042 2.274.042 16.134.002 32.269.002 48.404-.008.424-.002.899.202 1.279-.22l.424-.02c.063.288 1.031-.158.414.684-.497.226-1.02.17-1.533.17-16.515.004-33.029.006-49.543-.002-.573-.002-1.183.134-1.688-.354l-.031-.292" mask="url(#fn04c8bc26bdmb)"></path><path fill="#F4D700" d="M368 31.484h-24c.073-.592.477-.474.807-.474 7.462-.004 14.925-.004 22.388 0 .328 0 .732-.118.805.474" mask="url(#fn04c8bc26bdmb)"></path><path fill="#D0CFCF" d="M336.286 77.594c-3.17-.56-6.362-.124-9.539-.306-1.043-.06-1.93.62-2.944.556l-1.707-.582a.249.249 0 01-.096-.198c2.838-.024 5.674-.064 8.512-.064 3.496-.002 6.992.03 10.488.048-.258.238-.634.13-.866.286-.99.658-1.925.378-2.906.01-.284-.104-.694-.156-.942.25m6.714-3.57c-.363.34-.792.18-1.188.18-7.567.012-15.133.01-22.7.01-.038-.07-.074-.142-.112-.214l24 .024" mask="url(#fn04c8bc26bdmb)"></path><path fill="#E6CE15" d="M304.78 57l-.218-.15c-.299-.289-.71-.39-1.048-.618a50.44 50.44 0 01-.442-.206c-2.674-1.241-4.798-3.17-6.797-5.251-.192-.201-.353-.435-.235-.744a8.08 8.08 0 00.296-.031 29.88 29.88 0 007.8 6.099c.343.187.678.362.864.722a.31.31 0 01-.22.179" mask="url(#fn04c8bc26bdmb)"></path><path fill="#EFD72A" d="M331.576 65.437L331 65c1.637.247 3.173.92 4.74 1.483 1.484.533 2.82 1.434 4.201 2.227.085.105.078.203-.018.29-.332-.24-.705-.305-1.083-.352-2.072-1.108-4.227-1.936-6.41-2.68-.31-.105-.647-.185-.854-.53" mask="url(#fn04c8bc26bdmb)"></path><path fill="#F2D83C" d="M336 80.028c-.884.384-1.808.494-2.743.454-1.753-.08-3.532.256-5.257-.446 2.667.54 5.322.036 7.98-.036l.02.028z" mask="url(#fn04c8bc26bdmb)"></path><path fill="#F1CC0D" d="M322.153 35c1.312.534 2.477 1.378 3.834 1.815.002.061.005.123.013.185-1.487-.049-2.526-1.25-3.932-1.528-.18-.036.047-.31.085-.472" mask="url(#fn04c8bc26bdmb)"></path><path fill="#E0C817" d="M340 68.26c.006-.087.014-.175.021-.26 1.206.83 2.633 1.483 2.979 3-.772-1.114-1.845-1.963-3-2.74" mask="url(#fn04c8bc26bdmb)"></path><path fill="#F8D400" d="M342.11 30.77c-.095.332-.133.744-.529.676a.698.698 0 01-.576-.776c.034-.296.122-.702.504-.668.408.036.426.5.6.768" mask="url(#fn04c8bc26bdmb)"></path><path fill="#FCF5C8" d="M305.355 95.924c-.616-.894-1.83-.894-2.355-1.924 1.063.522 2.084 1.126 3 1.926l-.645-.002" mask="url(#fn04c8bc26bdmb)"></path><path fill="#F4D700" d="M369.906 31.956H368c.27-.822 1.404-.132 1.674-.956.342.256.202.626.232.956" mask="url(#fn04c8bc26bdmb)"></path><path fill="#D0CFCF" d="M334.87 78.95c-.306-.088-.764.124-.862-.38-.048-.254.12-.472.36-.536.492-.134.72.144.802.594l-.3.322m1.33-.134c-.441-.58-.087-.74.429-.816.262.126.618-.036.888.346-.388.316-.84.422-1.316.47" mask="url(#fn04c8bc26bdmb)"></path><path fill="#F2D83C" d="M319 75c.656.616 1.382 1.162 1.874 1.936-.878-.398-1.558-.992-1.874-1.936" mask="url(#fn04c8bc26bdmb)"></path><path fill="#EBD439" d="M339.972 30.743c-.074-.706-.76-1.105-.972-1.743.884.307 1.096 1.114 1.494 1.782l-.168.218-.354-.257" mask="url(#fn04c8bc26bdmb)"></path><path fill="#FBF1B4" d="M304 56.206l.25-.206c.402.444 1.116.414 1.454.956-.688.024-1.244-.258-1.704-.75" mask="url(#fn04c8bc26bdmb)"></path><path fill="#F2D83C" d="M322.288 77.252a.215.215 0 01.112.198c-.2.054.046.732-.444.344-.322-.256-.788-.35-.956-.794l1.288.252M335 79.477c.612-.388 1.286-.486 1.978-.476l.022.03c-.619.37-1.291.462-1.98.474l-.02-.028zm-10.516-.845c-.678.03-.992-.194-1.484-.632.668.068.984.29 1.484.632m12.516.864c.41-.308.874-.446 1.49-.496-.46.526-.978.486-1.466.528l-.024-.032z" mask="url(#fn04c8bc26bdmb)"></path><path fill="#201B18" d="M143.805 37c-.962-.01-1.923-.026-2.885-.026-46.601-.002-93.204-.004-139.805.024-.918 0-1.157-.245-1.11-1.212.082-1.589.058-3.186.008-4.776-.026-.746.13-1.088.88-.995.544.065 1.097.013 1.647.013 46.74 0 93.48 0 140.22-.002.377 0 .755-.007 1.133-.011.072 2.328.24 4.66-.088 6.985m45.07 49.292c.191 2.143.131 4.288.03 6.432-.335.329-.765.269-1.17.269-7.494.007-14.987.008-22.482 0-.434 0-.906.082-1.253-.308 1.136-1.262 2.46-2.358 3.357-3.827.492-.889 1.04-1.74 1.725-2.495l.268-.09c.461-.294.98-.27 1.493-.27 5.52-.003 11.036-.005 16.554.004.506 0 1.039-.077 1.478.285" mask="url(#fn04c8bc26bdmb)"></path><path fill="#201B19" d="M188.835 77.349c.218 2.095.222 4.19 0 6.285-.355.412-.857.357-1.322.357-5.063.012-10.126.012-15.188 0-.466 0-.967.055-1.325-.354.051-.842.573-1.524.83-2.298.446-1.34.93-2.668 1.396-4.002.389-.338.87-.332 1.347-.332 4.31-.006 8.62-.008 12.932.004.466.001.963-.052 1.33.34" mask="url(#fn04c8bc26bdmb)"></path><path fill="#201B18" d="M188.85 68.295a34.326 34.326 0 010 6.403c-.394.354-.886.294-1.348.296-4.051.008-8.102.008-12.153 0-.464-.002-.956.053-1.349-.301a76.24 76.24 0 01.812-6.405c.401-.333.89-.28 1.354-.282 3.778-.008 7.555-.008 11.334.002.464 0 .954-.06 1.35.287" mask="url(#fn04c8bc26bdmb)"></path><path fill="#201C18" d="M188.843 58.355a30.69 30.69 0 01-.009 6.29c-.354.403-.843.345-1.297.346-3.717.012-7.435.012-11.152 0-.456 0-.942.057-1.302-.337-.069-2.101-.175-4.2.07-6.299.357-.398.845-.343 1.303-.345 3.693-.013 7.389-.013 11.084 0 .456.002.945-.053 1.303.345" mask="url(#fn04c8bc26bdmb)"></path><path fill="#201B19" d="M188.842 20.373c.21 2.094.214 4.189-.005 6.284-.366.39-.855.333-1.313.334-3.703.012-7.404.012-11.107 0-.458-.001-.947.057-1.31-.335-.097-2.096-.204-4.195.052-6.288.35-.412.842-.355 1.298-.357 3.696-.015 7.394-.015 11.092 0 .454.002.947-.056 1.293.362" mask="url(#fn04c8bc26bdmb)"></path><path fill="#201B18" d="M188.84 39.364c.226 2.095.196 4.19.016 6.285-.362.392-.85.34-1.307.342-3.702.012-7.402.012-11.102 0-.457-.001-.947.05-1.307-.343-.171-2.099-.21-4.196.025-6.293.355-.398.845-.345 1.3-.346 3.694-.012 7.385-.012 11.079.001.456.002.945-.055 1.295.354m-13.684-28.362L188.844 11c.216 2.232.196 4.465.012 6.699-.394.352-.874.291-1.332.293-3.681.01-7.365.01-11.047 0-.457-.002-.937.06-1.332-.29a37.58 37.58 0 01.01-6.7m13.695 38.301c.206 2.132.19 4.265.012 6.396-.387.352-.87.292-1.328.294-3.683.01-7.37.008-11.054 0-.458-.002-.939.058-1.33-.289a33.756 33.756 0 01.004-6.402c.387-.352.87-.293 1.326-.294 3.681-.01 7.363-.01 11.044 0 .458.001.939-.057 1.326.295m.062-18.993c.075 2.133.176 4.266-.055 6.398-.396.342-.88.284-1.341.286-3.675.008-7.35.008-11.025 0-.462-.002-.945.058-1.343-.283-.246-2.133-.125-4.27-.062-6.407.388-.352.87-.296 1.328-.298 3.723-.008 7.447-.008 11.17 0 .459.002.942-.054 1.328.303m-44.953 37.978c.158 2.321-.087 4.538-1.626 6.425-.45.29-.96.286-1.466.287-2.797.002-5.595 0-8.39 0-.51 0-1.016-.008-1.468-.29-.617-.349-.758-1.012-.99-1.593-.617-1.544-1.039-3.139-1.018-4.822.396-.346.887-.286 1.352-.288 4.083-.008 8.167-.008 12.25 0 .466 0 .954-.06 1.356.28" mask="url(#fn04c8bc26bdmb)"></path><path fill="#FDFDFD" d="M171.542 84.004c6.103 0 12.208-.002 18.31-.004.223.998.16 1.998.03 3L170 86.98c.378-1.066.91-2.048 1.542-2.976" mask="url(#fn04c8bc26bdmb)"></path><path fill="#FEFDFD" d="M174.667 74c5.065.002 10.13.004 15.198.004.162 1 .202 2-.012 2.996-5.283-.004-10.568-.007-15.853-.013.158-1.009.261-2.034.667-2.987" mask="url(#fn04c8bc26bdmb)"></path><path fill="#FDFDFD" d="M144.838 67.993l-15.65.007c-.233-.99-.212-1.995-.135-3l15.826.014c.157.996.18 1.988-.041 2.979M188.926 30l-13.869-.005c-.055-1-.102-1.998.019-2.995h13.782c.233.995.122 1.998.068 3M175.1 65.007L188.853 65c.217.998.171 1.998.017 3l-13.837-.005c-.044-.999-.06-1.995.069-2.988m.022-47.005L188.87 18c.146 1 .203 2.002-.01 3l-13.719-.005c-.213-.997-.156-1.995-.017-2.993" mask="url(#fn04c8bc26bdmb)"></path><path fill="#FDFDFC" d="M175.136 37.004L188.864 37c.165 1 .2 2.001-.008 3-4.57-.004-9.14-.007-13.712-.009-.21-.995-.171-1.99-.008-2.987" mask="url(#fn04c8bc26bdmb)"></path><path fill="#FDFDFD" d="M188.868 49l-13.74-.002a9.2 9.2 0 01-.01-2.998c4.583.002 9.17.002 13.756.002.18 1 .157 1.999-.006 2.998m-13.741 7.005L188.878 56c.14 1 .19 2.001-.018 2.998-4.575 0-9.15 0-13.726.002-.197-.999-.158-1.996-.007-2.995" mask="url(#fn04c8bc26bdmb)"></path><path fill="#FAD400" d="M173.25 6.603c.048-.402.27-.717.764-.564.61.19.024.49.014.744-.074 2.073-.184 4.152.052 6.222.136 1.208.282 2.406-.09 3.595-.108.344-.052.673-.042 1.018.07 2.314.082 4.626.206 6.943.116 2.155-.25 4.314.01 6.499.31 2.614-.146 5.247-.194 7.874-.016.875.25 1.735.262 2.627a58.592 58.592 0 01-.304 6.834c-.092.862.31 1.61.312 2.446.01 2.554-.204 5.101-.258 7.652-.024 1.203.32 2.395.238 3.612-.038.592-.23.935-.97.891-.34-.322-.234-.72-.234-1.091a97931.29 97931.29 0 01-.002-54.203c0-.374-.072-.77.236-1.099" mask="url(#fn04c8bc26bdmb)"></path><path fill="#FDFDFC" d="M131 74c3.999 0 8 .002 12 .004-.422 1.183-1.425 1.836-2.465 2.237-2.592.999-5.214 1.132-7.738-.33C132 75.447 131.38 74.84 131 74" mask="url(#fn04c8bc26bdmb)"></path><path fill="#F4D600" d="M173.53 7v55.736c-.046.158-.098.404-.334.163-.274-.282-.14-.66-.14-.994-.004-17.934-.006-35.868.01-53.802 0-.382-.324-.936.464-1.103" mask="url(#fn04c8bc26bdmb)"></path><path fill="#FAD400" d="M146 6h25.067c1.892 0 1.892-.002 1.892 1.975 0 1.33.024 2.656-.014 3.984-.01.37.264 1.062-.322 1.04-.512-.018-.27-.706-.279-1.092-.03-1.47-.063-2.946.006-4.414.047-.993-.284-1.302-1.252-1.296-8.05.032-16.098.018-24.147.018h-.925L146 6" mask="url(#fn04c8bc26bdmb)"></path><path fill="#FDFAEA" d="M164.842 93l19.776.037c1.76.002 3.52.002 5.281.003.033.966.066 1.932.101 2.897-.054-.007-.09.014-.111.063-.094-.016-.19-.032-.284-.05-.339-.37-.302-.844-.32-1.29-.028-.787-.42-1.12-1.184-1.111-1.073.01-2.142 0-3.215 0-6.047 0-12.095.026-18.142-.025-1.134-.01-2.076.306-2.793 1.093-.678.743-1.5 1.077-2.403 1.332l-.548.005L164.842 93" mask="url(#fn04c8bc26bdmb)"></path><path fill="#E4CE18" d="M169.996 87c-.546 1.085-1.166 2.116-1.996 3 .262-1.287.974-2.254 1.996-3" mask="url(#fn04c8bc26bdmb)"></path><path fill="#FEFEFD" d="M248.56 96h-28.204c-.395-.906-.514-1.82-.084-2.75.452-.293.973-.245 1.476-.245 8.484-.007 16.968-.007 25.453 0 .503 0 1.024-.047 1.48.242.334.932.555 1.86-.121 2.753" mask="url(#fn04c8bc26bdmb)"></path><path fill="#FDFEFD" d="M161 95.954c1.16-.728 2.188-1.661 3.195-2.61.41-.383.817-.339 1.251-.34 7.382-.005 14.766-.005 22.149-.003 1.26 0 1.376.13 1.402 1.583.007.458 0 .916 0 1.372-3.375.015-6.749.048-10.123.044-5.959-.004-11.916-.029-17.874-.046" mask="url(#fn04c8bc26bdmb)"></path><path fill="#F4D600" d="M220.103 93.282c-.08.955-.102 1.907.005 2.862-.06.601-.293 1.244-.15 1.793.274 1.053-.262 1.053-1.015 1.047-2.344-.022-4.687-.008-7.031-.008-6.926 0-13.854 0-20.781-.002-.377-.002-.755-.034-1.131-.053.12-.558.569-.608.966-.477.749.244 1.502.161 2.254.163 8 .007 15.999.007 23.998-.003.395 0 .836.158 1.177-.198.07-.12.123-.255.262-.322.411-.114.605-.357.565-.807-.036-.389-.112-.802.208-1.137.198-.317.231-.668.207-1.028-.312-.686-.375-1.382-.094-2.093.118-.296.092-.608.096-.917.02-2.692.003-5.381-.215-8.069-.06-.715.234-1.404.232-2.132-.004-2.331-.068-4.662-.113-6.991-.007-.334-.088-.686.094-1.008v-.206c.024-2.037-.037-4.071-.104-6.106-.01-.367.106-.75-.103-1.102.509-1.15.732-2.281-.001-3.454-.477-.763.216-1.621 1.288-1.444 1.86.307 3.718.142 5.572.15 6.941.033 13.883.014 20.824.014h1.314c-.544-.307-.924-.2-1.285-.2-7.84-.008-15.677-.007-23.517-.007-.206 0-.418.024-.62-.005-.304-.046-.835.188-.814-.324.014-.343.512-.179.782-.179 5.742-.01 11.481-.014 17.223.005 2.889.01 5.781-.12 8.668.092.838.38.602 1.186.574 1.78-.066 1.434-.062 2.864-.06 4.297.005 8.38.017 16.765-.012 25.148-.006 1.257.147 2.525-.087 3.781-.373 1.456.44 2.463 1.938 2.31.639-.064 1.204.181 1.83.18 7.99-.03 15.981-.018 23.973-.025.456-.002.994.169 1.277-.408.52-.028.865.095.626.718-.344.021-.687.055-1.029.055-9.32.004-18.64-.013-27.961.028-.854.003-1.095-.258-1.09-1.015.006-.613-.051-1.226-.08-1.84.11-.954.103-1.905 0-2.857-.325-.609-.204-1.268-.216-1.91-.028-1.469.036-2.936-.054-4.402.071-1.036.113-2.073 0-3.11.12-2.153.007-4.308.07-6.463-.03-.97-.028-1.94-.002-2.912-.037-2.105-.04-4.21-.002-6.313-.026-.98-.03-1.959.002-2.937-.054-.684-.01-1.368-.035-2.052-.022-.59-.308-.872-.895-.889a34.56 34.56 0 00-1.033-.017h-24.282c-.31 0-.62.012-.93.01-.686-.005-.997.324-1.002 1.003-.005.616.026 1.233-.03 1.846.01 1.001-.003 2 .074 3a69.426 69.426 0 00-.002 6.358c-.076.996-.064 1.993-.073 2.99.038 2.137.042 4.27 0 6.404.01 1.01.002 2.019.078 3.028-.111 1.66-.031 3.325-.059 4.986-.007.473.031.956-.269 1.374" mask="url(#fn04c8bc26bdmb)"></path><path fill="#F6D500" d="M189.002 97c.278.016.574.094.604.394.038.386-.376.398-.606.562l.002-.956" mask="url(#fn04c8bc26bdmb)"></path><path fill="#201B18" d="M248.838 20.358c.251 2.102.166 4.205.04 6.308-.383.38-.89.326-1.367.328-8.668.008-17.335.008-26.004 0-.477 0-.983.055-1.374-.316a38.488 38.488 0 01-.007-6.32c.373-.394.88-.35 1.359-.35 8.665-.01 17.332-.01 25.999 0 .475 0 .985-.056 1.354.35m.058 9.941c.108 2.139.18 4.278-.037 6.415-.414.337-.916.28-1.393.28-8.635.007-17.269.007-25.904.002-.48-.001-.978.048-1.398-.275-.277-2.136-.13-4.276-.078-6.415.402-.353.903-.3 1.38-.3 8.681-.008 17.363-.008 26.045 0 .477 0 .979-.053 1.385.293M220.09 11.004c9.602 0 19.205-.002 28.808-.004.104 2.236.18 4.472-.038 6.707-.418.347-.918.286-1.397.288-8.63.007-17.257.007-25.886 0-.479 0-.979.055-1.4-.277-.3-2.235-.14-4.475-.087-6.714" mask="url(#fn04c8bc26bdmb)"></path><path fill="#231F19" d="M248.846 39.411c.296 1.134.058 2.296.145 3.44-.375.04-.75.114-1.127.114-8.96.01-17.918-.004-26.877.035-.78.004-1.066-.194-.969-1.07.093-.835-.104-1.695.119-2.529.378-.456.886-.392 1.362-.392a9380.95 9380.95 0 0125.989 0c.477 0 .985-.062 1.358.402" mask="url(#fn04c8bc26bdmb)"></path><path fill="#FEFDFD" d="M248.927 29.993L220.05 30c-.035-.996-.113-1.993.047-2.987L248.915 27c.124.998.1 1.995.012 2.993" mask="url(#fn04c8bc26bdmb)"></path><path fill="#FDFDFD" d="M220.149 18.01l28.733-.01c.133 1.001.187 2-.017 2.998-9.59.002-19.178.002-28.767.002-.111-.998-.167-1.997.051-2.99" mask="url(#fn04c8bc26bdmb)"></path><path fill="#FEFDFD" d="M248.863 40c-9.586-.004-19.173-.005-28.758-.009-.122-.996-.17-1.992.035-2.984 9.58-.002 19.161-.003 28.74-.007.135 1.001.19 2-.017 3" mask="url(#fn04c8bc26bdmb)"></path><path fill="#F9D400" d="M248.574 96c-.312-.27-.198-.637-.198-.966-.005-10.378-.014-20.756.012-31.133.003-1.004.243-2.009-.22-2.97-.404-.499-.964-.413-1.5-.413-7.808-.001-15.619 0-23.43-.007-.375 0-.784.114-1.238-.196.433-.321.843-.204 1.21-.204 7.844-.009 15.687-.014 23.532.014.472.002.987-.34 1.445.1.476.456.833.897.812 1.664-.137 5.203-.039 10.412-.06 15.617-.02 4.872-.01 9.75.04 14.623.012 1.025.007 2.049-.002 3.074-.002.326.102.725-.403.797" mask="url(#fn04c8bc26bdmb)"></path><path fill="#F7D400" d="M218.935 96c.017.413.012.828.055 1.24.068.653-.202.89-.87.693-.477-.335-1.033-.257-1.568-.259-7.624-.01-15.247-.004-22.873-.012-.337 0-.68.022-1.013-.031-.382-.062-.742-.173-.652-.664 1.126-.207 2.266-.097 3.397-.098 6.707-.013 13.415.013 20.12.006 1.205-.001 2.524.301 3.404-.875" mask="url(#fn04c8bc26bdmb)"></path><path fill="#FAD300" d="M251.389 97c-.328-.55-.212-.976-.214-1.386-.006-9.971-.05-19.946.046-29.919.012-1.41-.972-2.728-.332-4.171.144-.326-.356-.488-.642-.67-.208-.133-.302-.33-.214-.552.066-.168.198-.315.43-.301.284.017.324.256.468.408.718.752.73 1.623.728 2.539-.018 10.914-.01 21.83-.018 32.743 0 .39.134.81-.252 1.309m.042-90v33c-.44-.455-.696-31.106 0-33" mask="url(#fn04c8bc26bdmb)"></path><path fill="#F7D400" d="M219.196 74c.216 7 .406 14 0 21-.786-.71-1.06-1.474-.372-2.354.212-.273.128-.592.13-.89.008-1.423.018-2.843-.004-4.266-.006-.527.278-1.185-.74-1.356-.242-.04-.268-.459-.112-.515 1.75-.65.338-1.484.18-2.226-.03-.133-.136-.273.028-.312.966-.237.634-.908.64-1.428.028-2.198.004-4.399.02-6.599.002-.356-.16-.754.23-1.054m-.172-8c.068.079.196.16.192.238-.084 2.255.688 4.505.046 6.762-.39-.293-.228-.683-.23-1.032-.016-1.99-.008-3.979-.008-5.968" mask="url(#fn04c8bc26bdmb)"></path><path fill="#F8D300" d="M249.77 42c-.53-.514-.825-.958-.761-1.54.03-.286.28-.423.558-.454.448-.053.376.274.372.489-.01.457.102.932-.168 1.505" mask="url(#fn04c8bc26bdmb)"></path><path fill="#FDFEFD" d="M331.486 65a36.435 36.435 0 016.64 2.306c.325.15.726.241.874.668-1.843.007-3.689.023-5.532.023-17.837.004-35.672.004-53.508.002-.273 0-.546-.013-.819-.018-.244-.972-.098-1.957-.096-2.936 1.912-.009 3.822-.029 5.734-.029 15.434.004 30.866.011 46.298.015.137 0 .273-.02.409-.031" mask="url(#fn04c8bc26bdmb)"></path><path fill="#201B18" d="M296.064 49.804c1.544 2.058 3.486 3.657 5.566 5.109.469.328 1.042.53 1.37 1.053-7.477.002-14.952.005-22.427.01-.45.003-.9.017-1.35.024-.374-.797-.168-1.645-.153-2.459.03-1.417-.221-2.846.142-4.252.411-.345.911-.281 1.387-.283 4.454-.009 8.906-.005 13.36-.005.523 0 1.036.028 1.505.3l.6.503" mask="url(#fn04c8bc26bdmb)"></path><path fill="#201B19" d="M301 11.025c-1.595 1.596-3.379 2.986-4.78 4.794-.506.65-.841 1.47-1.596 1.903-.465.296-.988.275-1.505.275-4.168.003-8.34.005-12.507-.002-.478-.002-.975.06-1.397-.266-.366-.843-.152-1.735-.159-2.6-.009-1.376-.12-2.755.068-4.129 7.292.009 14.583.018 21.876.025" mask="url(#fn04c8bc26bdmb)"></path><path fill="#211B18" d="M290.585 39.324c.497.872.543 1.89.935 2.799.508 1.174.988 2.36 1.48 3.542-.367.385-.856.325-1.314.326-3.738.012-7.475.012-11.213 0-.458 0-.945.057-1.323-.313a32.912 32.912 0 01.007-6.35c.37-.378.858-.317 1.316-.318 2.93-.014 5.862-.012 8.795-.002.458.003.945-.058 1.317.316" mask="url(#fn04c8bc26bdmb)"></path><path fill="#201B18" d="M293 20.355c-.872 2.065-1.531 4.198-2.228 6.32-.354.338-.81.315-1.25.316-3.035.012-6.07.012-9.107 0-.437-.001-.896.032-1.251-.306a30.68 30.68 0 01.001-6.344c.377-.39.882-.33 1.354-.332 3.71-.012 7.424-.012 11.136 0 .472.001.98-.062 1.345.346m-3.002 9.95c0 2.137 0 4.275.002 6.412-.332.289-.739.274-1.134.275-2.845.01-5.69.01-8.535 0-.394-.001-.802.023-1.136-.266-.347-1.093-.123-2.215-.133-3.32-.007-1.036-.192-2.09.131-3.115.36-.325.806-.28 1.23-.282 2.783-.012 5.566-.012 8.35 0 .427.002.868-.026 1.225.296" mask="url(#fn04c8bc26bdmb)"></path><path fill="#FDFDFD" d="M279.117 46.014c4.658-.003 9.315-.009 13.97-.014L295 49l-15.847-.01c-.216-.989-.18-1.982-.036-2.976M293.374 21l-14.24-.016c-.157-.995-.215-1.987.044-2.977L295 18c-.384 1.09-1.054 2.018-1.626 3m-14.219 16.007L290.498 37c.346.965.446 1.977.502 2.996L279.126 40c-.156-1-.19-1.997.03-2.993M290.58 30l-11.425-.014c-.222-.988-.183-1.98-.024-2.973 3.953-.004 7.905-.01 11.859-.013.072 1.031-.253 2.003-.41 3" mask="url(#fn04c8bc26bdmb)"></path><path fill="#F6D500" d="M249.293 6c.126 0 .268.036.206.182a.7.7 0 01-.312.32c-.16.078-.194-.08-.186-.198.008-.174.116-.278.292-.304m-57.794 91c.221.672.703.594 1.191.594 8.056 0 16.11.012 24.167.026.443.002 1.006-.26 1.143.576l-.208.238c-1.843-.284-3.696-.104-5.543-.114-6.606-.04-13.21-.03-19.817-.006-.526.002-.907-.116-1.243-.584-.404-.564-.094-.658.31-.73" mask="url(#fn04c8bc26bdmb)"></path><path fill="#F7D500" d="M342 32.365c.622-.786 1.337-.036 1.999-.174-.002.032.006.088-.005.094-.06.034-.123.054-.185.08H342" mask="url(#fn04c8bc26bdmb)"></path><path fill="#FBF4C1" d="M303 56c.482.092.964.186 1.186.712-.486-.088-.93-.244-1.186-.712" mask="url(#fn04c8bc26bdmb)"></path><path fill="#D0CFCF" d="M326.73 78.167c-.23.118-.356.21-.494.238-.066.012-.156-.102-.236-.158.122-.086.234-.196.368-.244.064-.022.17.072.362.164" mask="url(#fn04c8bc26bdmb)"></path><path fill="#211B19" d="M248.862 86.295c.21 2.233.148 4.468.03 6.705l-28.786-.005c-.098-2.237-.202-4.474.056-6.707.421-.33.92-.283 1.4-.283 8.634-.007 17.269-.007 25.905 0 .48.002.979-.057 1.395.29" mask="url(#fn04c8bc26bdmb)"></path><path fill="#201B19" d="M220.136 83.647c-.197-2.105-.157-4.208-.025-6.315.383-.38.89-.324 1.366-.326 8.681-.008 17.364-.008 26.045 0 .476.002.983-.053 1.362.33.113 2.103.211 4.204-.05 6.306-.368.405-.878.349-1.353.35-8.663.01-17.325.01-25.987 0-.477 0-.984.05-1.358-.345" mask="url(#fn04c8bc26bdmb)"></path><path fill="#201B18" d="M248.907 68.294c.12 2.136.13 4.27-.007 6.404-.406.347-.907.296-1.385.296-8.651.008-17.3.008-25.95 0-.48 0-.977.046-1.392-.283a29.944 29.944 0 010-6.429c.416-.325.914-.277 1.395-.277 8.65-.007 17.3-.007 25.95 0 .48 0 .98-.051 1.389.29" mask="url(#fn04c8bc26bdmb)"></path><path fill="#221D19" d="M220.229 65.603c-.475-3.576-.475-3.576 2.663-3.576 8.281-.002 16.566.021 24.85-.027 1.012-.006 1.366.305 1.23 1.412-.088.718-.067 1.452-.097 2.18-.37.461-.875.397-1.347.4-8.649.01-17.296.01-25.943 0-.474 0-.978.06-1.356-.389" mask="url(#fn04c8bc26bdmb)"></path><path fill="#FDFDFD" d="M220.134 74.014L248.926 74c.094 1 .105 2.001-.004 3-9.613 0-19.227-.002-28.839-.004-.097-.995-.141-1.992.051-2.982m-.044-9.004l28.833-.01c.115 1 .087 1.999.007 3-9.596-.004-19.195-.007-28.793-.013-.181-.99-.167-1.982-.047-2.976m.02 18.994L248.86 84c.214.997.151 1.998.022 3-9.581-.004-19.166-.005-28.75-.007-.188-.995-.157-1.99-.022-2.988" mask="url(#fn04c8bc26bdmb)"></path></g></svg>