<svg xmlns="http://www.w3.org/2000/svg" viewBox="0.55711829662323 0.24648261070251465 886.7288208007812 234.07666015625"><g fill="none"><path fill="#FA2E2A" d="M231.39 81.13c16.13 55.35-4.75 107.81-52.62 137.26-39.13 24-99.92 20.53-130.13-8 9.47-.12 18.14 2.09 27 2 20.25-.25 37.58-6.22 51.92-21.37 32.62-34.46 65.81-68.4 98.71-102.6 1.62-1.66 2.69-3.77 5.12-7.29zm437.8-14.97c25.17.42 41.62 16.65 41.27 41.92a147.7 147.7 0 01-2.25 20.7c-4 25.4-32.07 38-54.22 27.78-4.11-1.93-8.23-3.9-13.12-6.17 0 16.45-.2 32.1.11 47.73.1 5-1 7-6.34 6.63a130.54 130.54 0 00-17.8 0c-4.26.27-5.17-1.32-5.16-5.28.14-41.92.157-83.84.05-125.76 0-3.75 1-5.15 4.75-5 4.382.275 8.778.275 13.16 0 7.27-.56 13.59-.47 10.55 11.19 8.2-9.79 17.43-13.93 29-13.74zm3.63 20.76c-3.59-6.26-9.69-8.38-16.59-7.55-6.55.79-10.43 4.95-12.55 11.11-3.02 8.72-2.02 17.83-2.35 24.72 0 5.68.02 9.28 0 12.87-.06 9.38 5.08 16.12 14 18.32 8.09 2.187 16.55-1.957 19.78-9.69 7.07-16.78 6.89-33.65-2.29-49.78zM374.83 64.78c26.93.3 47.65 16.68 50.34 39.81 3.52 30.16-14.11 52-44.63 55.32-28.18 3.06-52.85-13.65-56.86-38.5-5.18-32.14 17.27-57.02 51.15-56.63zm.12 8.99c-8.2-.43-13.7 4.49-16.44 11.75-6.91 18.31-6.51 36.79.49 55 2.65 6.84 7.97 10.35 15.65 10.35 7.4-.01 11.89-3.83 15-10.09 4.47-9.04 4.67-18.87 5.67-28.75-1.06-8.53-1.16-17.29-4.45-25.61-2.92-7.41-7.98-12.23-15.92-12.65zm207.89-.86c7.89 5.36 9.95 13.37 9.94 22.26 0 15.22.09 30.44-.15 45.65-.08 5.06 1 8.68 6.68 9.25 1.93.19 3.55.34 3.14 3.06-.29 1.92-.81 3.14-2.76 4.11-10.23 5.1-23.49 3.48-31.64-4.49-2.56-2.51-3.66-3.15-7.28-.73-10.87 7.31-23.1 9.84-36.09 6.5-10-2.58-16-9.37-17.36-19.36-1.42-10.47 2.66-19 11.39-24.28 10-6 21.59-6.45 32.35-9.8 11.65-3.63 14.37-8 10.43-17-1.67-3.81-4.82-5.94-8.47-7.45-11.67-4.8-24.9-1.32-33.1 8.7-6.93-9-6.91-9.16 1.59-15.37 13.55-9.9 47.44-10.49 61.33-1.05zm-20.49 37.57c-9.43 1.49-18.02 4.44-23.43 12.82a17 17 0 00-.14 19c2.48 4.01 6.6 4.99 11.48 4.09 7.62-1.41 11.09-6.69 11.89-13.3.88-7.31.2-14.8.2-22.61zm228.93-38.22c7.55 4.89 10.84 12.1 10.81 21 0 16 .07 32-.06 48 0 4.74 1.27 8.06 6.42 8.87 1.55.25 4.06-.66 3.64 2.43a5.63 5.63 0 01-3.19 4.85c-9.63 4.83-23.26 3.38-31.08-4.25-3-2.93-4.56-3-8.12-.7a45.44 45.44 0 01-32.52 6.93c-11.31-1.72-18.48-9-20.28-20.19-1.75-10.85 2.72-19.53 12.54-25.1 8.51-4.82 18.2-5.42 27.31-8.09 14.06-4.13 16.63-6.29 15.28-14.27-1.38-8.15-11.07-14-21.84-13.23-9.24.65-14.43 3.3-21.04 10.74-6.59-9.09-6.59-9.09 2.13-15.36 13.2-9.49 46.36-10.47 60-1.63zm-21.07 38.29c-10.95-1.14-25.33 12.77-24.51 24 .43 5.78 2.32 10.8 8.89 11.86 6.39 1 11.53-1.09 14.86-7 2.87-5.11 3.04-10.646 3.05-16.224v-3.17c.004-2.124.018-4.246-.02-6.346-.03-1.51.06-2.88-2.27-3.12zM306.38 87.68c0 16.25.44 32.51-.09 48.75-1 30.2-12.66 43.51-41.93 49.42-4 .82-5.52-.77-7-3.85-.77-1.64-1.26-2.89.75-3.7 16.51-6.63 16.07-21.33 16.19-35.23.3-35.12.26-70.243-.12-105.37-.06-6.28 1.25-8.95 7.93-8.18 7.84.91 18.09-3.29 23 1.74 4.53 4.63 1.09 14.73 1.27 22.41.26 11.33.06 22.67.06 34l-.06.01zm195.11 40.04c.73 24.09-21.71 32.76-38.05 32.26-7.93-.25-15.77-2.15-23.53-4.15-4.94-1.27-6.69-4.19-5-8.4 1.49-3.72-1.68-9.24 3.08-11.13 5.5-2.17 7.94 3.16 11.08 6.44 7 7.37 16.59 9.33 24.61 5.22s8.72-12.11 1.18-16.94c-4.07-2.62-8.71-4.4-13.2-6.32-6.43-2.74-12.68-5.77-18.17-10.17-13.59-10.88-13.71-29.43-.3-40.69 17-14.22 36.87-9.54 53.88-2.15 2.42 1.06 2.55 2.81 1.87 5.09-.81 2.71-1.08 5.61-2.06 8.24-.86 2.33.54 6-3.88 6.49-3.69.38-4.75-2.07-6.27-4.56-3.68-6-9-9.93-16-11-7.52-1.15-14.5 2.29-15.65 8.09-1.49 7.45 3.63 10.59 9.43 13 8.08 3.35 16.57 5.59 24.37 9.74 8.86 4.71 13.7 11.42 12.61 20.94zm350.79-43.77c7.33-8.79 15.57-14.91 26.52-16.83 5.06-.89 9.24-.78 8.2 6.64-.71 5.06 1.46 11.21-.7 15.22-2.5 4.63-9.27 1.49-14.12 2.37-14.21 2.56-19.82 8.9-19.71 23.51.09 12.65 0 25.3.3 37.94.13 4.48-1.28 5.9-5.67 5.64-8-.46-18.27 2.46-23.27-1.5-5.29-4.19-1.6-15-1.72-22.84-.28-19.61.06-39.23-.27-58.84-.09-5.24 1.56-6.84 6.59-6.54 5.661.387 11.343.36 17-.08 5.47-.46 7.53 1.45 6.88 6.87a72 72 0 00-.03 8.44z"></path><path fill="#FA332F" d="M29.07 193.61c1.08-3.67 4.07-5.44 6.31-7.68a337163.459 337163.459 0 01154.54-154c.55-.54 1-1.17 1.57-1.71 1.07-1 2.21-2.74 3.82-1.41 2.36 2-.18 3.08-1.24 4.16a4229.41 4229.41 0 01-27.25 27.44c-43.08 43.027-86.18 86.02-129.3 128.98-2.14 2.1-3.77 5.84-8.45 4.22z"></path><path fill="#FA3430" d="M183.14 20.13c-.16 2.11-1.95 2.95-3.18 4.17-37.847 37.68-75.71 75.347-113.59 113-13.9 13.84-27.73 27.73-41.73 41.48-1.24 1.22-2.39 4.58-4.61 2.64-2.75-2.4.62-3.95 2-5.37 30.52-30.427 61.07-60.83 91.65-91.21a27074.79 27074.79 0 0061.91-61.85 34.32 34.32 0 014.58-4.13c1.27-.84 2.47-.21 2.97 1.27z"></path><path fill="#FA332F" d="M167.92 10.86c.47 2.95-1.84 3.8-3.16 5.12-49.007 49.06-98.047 98.087-147.12 147.08-1.09 1.09-2.17 2.21-3.29 3.27-.83.78-1.74 1.07-2.62.06a2 2 0 01-.1-2.79c1-1.17 2.11-2.26 3.2-3.35 47.793-47.747 95.603-95.47 143.43-143.17 2.63-2.62 4.65-6.89 9.66-6.22zM46.5 197.79c11.45-11.34 22.6-22.31 33.67-33.36 39.673-39.6 79.34-79.213 119-118.84 1.28-1.27 2.56-2.55 3.89-3.78 1.1-1 2.28-2.59 3.88-1.13 2.24 2-.19 3.09-1.3 4.21a64194.425 64194.425 0 01-70.73 70.6c-26.387 26.22-52.81 52.4-79.27 78.54-2.15 2.12-3.76 6.05-9.14 3.76zm-41.47-46.4C6.67 143.29 145.5 5.45 149.47 5.29L5.03 151.39zm-3.07-20.46C2.22 124.44 125.04 1.79 130.47 1.69L1.96 130.93z"></path><path fill="#FA2E2A" d="M189.64 24.48c-.06 2.43-1.88 3.28-3.1 4.5l-120 120a4452.8 4452.8 0 01-37.46 37c-1.25 1.22-2.47 4.48-4.69 2.26-2.22-2.22 1-3.55 2.22-4.8C78.983 131 131.397 78.6 183.85 26.24c1.21-1.21 2.15-3.09 4.3-2.82.58.05 1.09.74 1.49 1.06z"></path><path fill="#FA322F" d="M75.34 193.79c32.14-32.54 64-64.88 95.95-97.13 13.08-13.2 26.29-26.273 39.63-39.22 1.61-1.58 3.42-5.82 5.61-3.61 2.79 2.82-1.7 4.68-3.42 6.4a39656.754 39656.754 0 01-104.66 104.49 14681.1 14681.1 0 00-24.66 24.62c-2.39 2.39-4.78 4.65-8.45 4.45z"></path><path fill="#FA2F2B" d="M175.77 16.39c-1.28 1.46-2.55 3.09-4 4.53-49.94 49.76-99.887 99.507-149.84 149.24-1.1 1.09-2.14 2.25-3.28 3.29-.9.8-1.83 2.08-3.14.45-1-1.3-.51-2.35.49-3.35s2.14-2.24 3.23-3.34c49.933-49.747 99.87-99.493 149.81-149.24a22 22 0 014.18-3.41c1.49-.87 2.33.09 2.55 1.83zM58.98 197.68c1.23-1.4 2.15-2.6 3.21-3.65 47.3-47.28 94.607-94.547 141.92-141.8a20.05 20.05 0 012.86-2.6c1.66-1.1 2.77-5.17 5.19-2.46 2 2.22-1.44 3.91-2.91 5.38a19059.824 19059.824 0 01-58 58.09 159126.488 159126.488 0 01-82.22 82c-2.6 2.6-4.76 6.4-10.05 5.04z"></path><path fill="#FA332F" d="M34.2 130.03l94.44-94.88c8.74-8.78 17.55-17.49 26.32-26.24 1.28-1.28 2.48-3 4.49-1.28 2.01 1.72-.23 2.59-1.1 3.45-40.667 40.36-81.333 80.693-122 121-1.83.49-2.52-.22-2.15-2.05z"></path><path fill="#FA3430" d="M119.09.78L.64 121.59C1.78 113.63 114.36 1.32 119.09.78z"></path><path fill="#FA2F2B" d="M141.87 2.56c.29 2.64-2 3.48-3.35 4.81C95.467 50.51 52.383 93.617 9.27 136.69a37.32 37.32 0 01-2.8 2.69c-1 .81-1.76 3.07-3.55 1.07-1.44-1.59-.22-2.79.88-3.93.72-.75 1.41-1.51 2.14-2.24 43-42.82 86.017-85.62 129.05-128.4 1.77-1.75 3.13-5.2 6.88-3.32z"></path><path fill="#FA3330" d="M107.87.29c-35.18 35.55-71 71.73-106.88 108-1.52-3.33 1.31-5.05 3.13-6.86a59013.69 59013.69 0 0198.26-97.71c2.06-2.07 4.26-3.77 5.49-3.43z"></path><path fill="#FA3531" d="M92.96 2.26l-89.15 89c1.53-4.68 84.62-86.87 89.15-89z"></path><path fill="#FA3430" d="M125.93 112.01c-27.46 27.587-54.923 55.183-82.39 82.79-1.6 1.6-3.37 3.41-4.25 2.78l84.47-87.63c1.88-.49 2.54.23 2.17 2.06z"></path><path fill="#FA2F2B" d="M76.56 7.99L7.41 78.7c2.88-8.04 64.07-68.91 69.15-70.71z"></path><path fill="#FA3532" d="M125.93 112.01c-.72-.69-1.44-1.38-2.17-2.06 15.77-16.41 31.79-32.56 48.43-48.09a2.75 2.75 0 012.15 2l-48.41 48.15z"></path><path fill="#FA4542" d="M18.12 55.27C28.9 40.76 41 29.59 54.03 18.64L18.12 55.27z"></path><path fill="#FA322E" d="M174.34 63.87l-2.15-2c8.27-8.47 16.52-17 24.86-25.38 1.09-1.1 2.26-3.66 4.24-1.8 1.98 1.86-.23 3.24-1.44 4.42a4259.022 4259.022 0 01-25.51 24.76z"></path><path fill="#FA3532" d="M34.2 130.03l2.16 2.06c-8.5 8.667-17.01 17.3-25.53 25.9a7.41 7.41 0 01-2 1.07c-.02-5.24 7.18-13.41 25.37-29.03z"></path></g></svg>