<!DOCTYPE svg PUBLIC "-//W3C//DTD SVG 20010904//EN" "http://www.w3.org/TR/2001/REC-SVG-20010904/DTD/svg10.dtd">
<svg version="1.0" xmlns="http://www.w3.org/2000/svg" width="416px" height="121px" viewBox="0 0 4160 1210" preserveAspectRatio="xMidYMid meet">
<g id="layer101" fill="#151011" stroke="none">
 <path d="M0 605 l0 -605 2080 0 2080 0 0 605 0 605 -2080 0 -2080 0 0 -605z"/>
 </g>
<g id="layer102" fill="#231f20" stroke="none">
 <path d="M0 605 l0 -605 2080 0 2080 0 0 605 0 605 -2080 0 -2080 0 0 -605z m2316 478 c-1 -1 -20 0 -41 4 -29 5 -34 8 -20 13 15 5 69 -9 61 -17z m57 20 c-13 -2 -35 -2 -50 0 -16 2 -5 4 22 4 28 0 40 -2 28 -4z m494 -9 l28 -13 -34 6 c-23 4 -32 3 -28 -5 5 -6 -1 -8 -14 -5 -15 4 -17 8 -8 14 8 5 -6 9 -36 12 l-50 4 57 0 c31 0 69 -6 85 -13z m-2604 -1 c-7 -2 -21 -2 -30 0 -10 3 -4 5 12 5 17 0 24 -2 18 -5z m87 -9 c0 -2 -12 -4 -26 -4 -14 0 -23 4 -20 9 6 8 46 4 46 -5z m2070 6 c-34 -11 -60 -11 -35 0 11 5 29 8 40 8 16 0 15 -2 -5 -8z m310 0 c20 -6 21 -8 5 -8 -11 0 -33 4 -50 8 -27 7 -27 8 -5 8 14 0 36 -4 50 -8z m-2543 -6 c-3 -3 -12 -4 -19 -1 -8 3 -5 6 6 6 11 1 17 -2 13 -5z m418 -4 c3 -5 2 -10 -4 -10 -5 0 -13 5 -16 10 -3 6 -2 10 4 10 5 0 13 -4 16 -10z m440 0 c3 -5 1 -10 -4 -10 -6 0 -11 5 -11 10 0 6 2 10 4 10 3 0 8 -4 11 -10z m135 -5 c-7 -9 -15 -13 -17 -11 -7 7 7 26 19 26 6 0 6 -6 -2 -15z m310 5 c-20 -13 -33 -13 -25 0 3 6 14 10 23 10 15 0 15 -2 2 -10z m45 0 c3 -5 1 -10 -4 -10 -6 0 -11 5 -11 10 0 6 2 10 4 10 3 0 8 -4 11 -10z m463 -264 l-2 -231 -6 236 c-3 131 -9 242 -15 250 -5 8 -2 6 8 -4 15 -17 17 -42 15 -251z m114 252 c-17 -17 -17 -479 0 -496 9 -9 -5 -12 -67 -12 -43 0 -75 3 -72 7 4 3 33 5 65 4 l57 -2 -3 240 c-2 164 1 248 8 262 7 11 14 18 18 15 3 -4 0 -12 -6 -18z m115 16 c-3 -3 -12 -4 -19 -1 -8 3 -5 6 6 6 11 1 17 -2 13 -5z m259 -10 c18 -14 18 -14 -6 -3 -31 14 -36 19 -24 19 6 0 19 -7 30 -16z m161 10 c-3 -3 -12 -4 -19 -1 -8 3 -5 6 6 6 11 1 17 -2 13 -5z m374 -16 c11 -21 11 -22 -4 -9 -10 7 -17 17 -17 22 0 15 9 10 21 -13z m99 18 c0 -3 -5 -8 -12 -12 -7 -4 -8 -3 -4 4 7 12 16 16 16 8z m235 -6 c3 -5 4 -10 1 -10 -3 0 -8 5 -11 10 -3 6 -4 10 -1 10 3 0 8 -4 11 -10z m230 0 c3 -5 2 -10 -4 -10 -5 0 -13 5 -16 10 -3 6 -2 10 4 10 5 0 13 -4 16 -10z m160 0 c-3 -5 -11 -10 -16 -10 -6 0 -7 5 -4 10 3 6 11 10 16 10 6 0 7 -4 4 -10z m200 0 c3 -5 4 -10 1 -10 -3 0 -8 5 -11 10 -3 6 -4 10 -1 10 3 0 8 -4 11 -10z m126 -27 c-5 -11 -10 -112 -11 -228 0 -115 -3 -211 -6 -214 -10 -10 1 454 10 469 14 20 20 -4 7 -27z m-3924 20 c-4 -3 -10 -3 -14 0 -3 4 0 7 7 7 7 0 10 -3 7 -7z m230 0 c-4 -3 -10 -3 -14 0 -3 4 0 7 7 7 7 0 10 -3 7 -7z m590 -40 c-3 -10 -5 -2 -5 17 0 19 2 27 5 18 2 -10 2 -26 0 -35z m373 27 c-6 -11 -13 -20 -16 -20 -2 0 0 9 6 20 6 11 13 20 16 20 2 0 0 -9 -6 -20z m557 -17 c-3 -10 -5 -4 -5 12 0 17 2 24 5 18 2 -7 2 -21 0 -30z m380 30 c-4 -3 -10 -3 -14 0 -3 4 0 7 7 7 7 0 10 -3 7 -7z m148 -3 c3 -5 4 -10 1 -10 -3 0 -8 5 -11 10 -3 6 -4 10 -1 10 3 0 8 -4 11 -10z m182 -37 c-3 -10 -5 -2 -5 17 0 19 2 27 5 18 2 -10 2 -26 0 -35z m90 40 c-4 -3 -10 -3 -14 0 -3 4 0 7 7 7 7 0 10 -3 7 -7z m228 -3 c3 -6 -1 -7 -9 -4 -18 7 -21 14 -7 14 6 0 13 -4 16 -10z m-2812 -7 c-8 -2 -13 -22 -13 -44 0 -21 -4 -39 -10 -39 -5 0 -10 18 -10 39 0 36 9 49 35 49 6 0 4 -2 -2 -5z m2136 4 c-16 -12 -79 -45 -79 -42 0 7 63 45 74 45 5 0 7 -1 5 -3z m626 -17 c10 -11 16 -20 13 -20 -3 0 -13 9 -23 20 -10 11 -16 20 -13 20 3 0 13 -9 23 -20z m-2620 0 c-3 -5 -12 -10 -20 -10 -8 0 -17 5 -20 10 -4 6 5 10 20 10 15 0 24 -4 20 -10z m1292 -7 c-4 -3 -7 0 -7 7 0 7 3 10 7 7 3 -4 3 -10 0 -14z m2165 -211 l-3 -229 29 5 c16 2 33 -1 37 -8 5 -8 -4 -10 -31 -8 l-39 3 -3 210 c-2 180 1 255 11 255 1 0 1 -103 -1 -228z m245 211 c-4 -3 -7 0 -7 7 0 7 3 10 7 7 3 -4 3 -10 0 -14z m-3760 1 c-3 -3 -12 -4 -19 -1 -8 3 -5 6 6 6 11 1 17 -2 13 -5z m106 -1 c-7 -2 -19 -2 -25 0 -7 3 -2 5 12 5 14 0 19 -2 13 -5z m152 -13 c10 -11 16 -20 13 -20 -3 0 -13 9 -23 20 -10 11 -16 20 -13 20 3 0 13 -9 23 -20z m442 14 c-7 -7 -169 -5 -176 2 -2 2 38 4 89 4 51 0 90 -3 87 -6z m846 -1 l-93 -4 -2 -107 -2 -107 -3 99 c-2 55 -1 106 1 113 4 10 29 12 98 11 l93 -2 -92 -3z m826 -66 c-1 -18 -2 -17 -9 7 -5 15 -15 36 -22 45 -7 9 -3 6 10 -7 12 -13 22 -33 21 -45z m421 20 c0 -12 0 -11 -24 28 l-17 30 20 -24 c12 -13 21 -28 21 -34z m620 21 c0 -18 -2 -20 -9 -8 -6 8 -7 18 -5 22 9 14 14 9 14 -14z m-2440 -88 c0 -43 -4 -82 -10 -85 -6 -4 -10 27 -10 85 0 58 4 89 10 85 6 -3 10 -42 10 -85z m2277 73 c-4 -3 -7 0 -7 7 0 7 3 10 7 7 3 -4 3 -10 0 -14z m-2137 3 c0 -3 -5 -8 -12 -12 -7 -4 -8 -3 -4 4 7 12 16 16 16 8z m110 0 c0 -3 -5 -8 -12 -12 -7 -4 -8 -3 -4 4 7 12 16 16 16 8z m2017 -33 c-4 -3 -7 0 -7 7 0 7 3 10 7 7 3 -4 3 -10 0 -14z m-3060 -10 c-4 -3 -7 0 -7 7 0 7 3 10 7 7 3 -4 3 -10 0 -14z m891 -13 c-22 -30 -35 -41 -22 -17 9 16 36 47 41 47 2 0 -6 -13 -19 -30z m132 26 c0 -3 -5 -8 -12 -12 -7 -4 -8 -3 -4 4 7 12 16 16 16 8z m1597 -63 c-2 -16 -4 -5 -4 22 0 28 2 40 4 28 2 -13 2 -35 0 -50z m-2488 -185 c1 -121 -3 -199 -9 -203 -7 -4 -10 71 -9 217 0 134 4 215 9 203 5 -11 9 -109 9 -217z m2828 215 c-4 -3 -7 0 -7 7 0 7 3 10 7 7 3 -4 3 -10 0 -14z m90 0 c-4 -3 -7 0 -7 7 0 7 3 10 7 7 3 -4 3 -10 0 -14z m-3039 -273 c-2 -132 -7 -191 -16 -205 -13 -20 -13 -20 -7 0 3 11 6 121 5 246 0 124 3 229 7 233 12 12 15 -66 11 -274z m2509 263 c-4 -3 -7 0 -7 7 0 7 3 10 7 7 3 -4 3 -10 0 -14z m240 -20 c-4 -3 -7 0 -7 7 0 7 3 10 7 7 3 -4 3 -10 0 -14z m190 0 c-4 -3 -7 0 -7 7 0 7 3 10 7 7 3 -4 3 -10 0 -14z m-447 -7 c0 -3 -5 -8 -12 -12 -7 -4 -8 -3 -4 4 7 12 16 16 16 8z m527 -13 c-4 -3 -7 0 -7 7 0 7 3 10 7 7 3 -4 3 -10 0 -14z m-967 3 c0 -3 -5 -8 -12 -12 -7 -4 -8 -3 -4 4 7 12 16 16 16 8z m130 -9 c0 -7 -7 -22 -15 -33 -13 -17 -13 -16 -3 14 13 34 18 40 18 19z m725 -7 c4 -6 -20 -10 -65 -10 -45 0 -69 4 -65 10 3 6 33 10 65 10 32 0 62 -4 65 -10z m-1984 -33 l-24 -22 19 27 c10 14 21 24 23 22 3 -3 -6 -15 -18 -27z m1654 -5 l-28 -27 24 31 c13 17 26 30 28 27 3 -2 -8 -16 -24 -31z m432 21 c-4 -3 -7 0 -7 7 0 7 3 10 7 7 3 -4 3 -10 0 -14z m-632 -3 c-3 -5 -14 -10 -23 -9 -14 0 -13 2 3 9 27 11 27 11 20 0z m342 -7 c-4 -3 -7 0 -7 7 0 7 3 10 7 7 3 -4 3 -10 0 -14z m-1897 3 c0 -3 -5 -8 -12 -12 -7 -4 -8 -3 -4 4 7 12 16 16 16 8z m1105 -6 c-27 -12 -43 -12 -25 0 8 5 22 9 30 9 10 0 8 -3 -5 -9z m982 -25 c2 -15 1 -16 -5 -5 -10 21 -112 21 -112 1 0 -8 -3 -12 -6 -8 -4 3 -4 13 0 22 4 13 18 15 63 13 49 -3 58 -6 60 -23z m-2427 -18 l0 -33 -62 3 c-94 6 -102 11 -20 12 57 1 72 4 72 16 0 9 -10 15 -27 16 l-28 1 25 8 c39 13 40 12 40 -23z m1829 30 c-2 -2 -17 -11 -34 -21 l-30 -17 24 20 c13 12 28 21 34 21 6 0 8 -1 6 -3z m-1914 -17 c4 -6 -7 -10 -25 -10 -18 0 -29 4 -25 10 3 6 15 10 25 10 10 0 22 -4 25 -10z m405 6 c0 -3 -5 -8 -12 -12 -7 -4 -8 -3 -4 4 7 12 16 16 16 8z m535 -6 c4 -6 -8 -10 -30 -10 -22 0 -34 4 -30 10 3 6 17 10 30 10 13 0 27 -4 30 -10z m75 -18 l0 -27 -75 3 -74 4 -4 -86 -3 -86 0 87 1 88 73 3 c53 2 72 6 72 17 0 7 -10 16 -22 18 -20 4 -19 4 5 6 23 1 27 -3 27 -27z m720 24 c0 -3 -5 -8 -12 -12 -7 -4 -8 -3 -4 4 7 12 16 16 16 8z m-290 -10 c0 -3 -5 -8 -12 -12 -7 -4 -8 -3 -4 4 7 12 16 16 16 8z m700 -2 c0 -7 -66 -34 -82 -33 -7 0 7 8 32 19 25 10 46 18 48 19 1 1 2 -1 2 -5z m197 -11 c-4 -3 -7 0 -7 7 0 7 3 10 7 7 3 -4 3 -10 0 -14z m-1867 -8 c17 -9 30 -18 30 -21 0 -2 -10 1 -22 7 -12 6 -33 15 -47 20 -17 5 -20 8 -8 8 10 1 31 -6 47 -14z m60 5 c0 -5 -5 -10 -11 -10 -5 0 -7 5 -4 10 3 6 8 10 11 10 2 0 4 -4 4 -10z m1160 0 c-8 -5 -19 -10 -25 -10 -5 0 -3 5 5 10 8 5 20 10 25 10 6 0 3 -5 -5 -10z m707 -17 c-4 -3 -7 0 -7 7 0 7 3 10 7 7 3 -4 3 -10 0 -14z m94 -14 c-5 -13 -10 -19 -10 -12 -1 15 10 45 15 40 3 -2 0 -15 -5 -28z m-2111 -74 c0 -46 -4 -87 -10 -90 -6 -4 -10 28 -10 90 0 62 4 94 10 90 6 -3 10 -44 10 -90z m1267 89 c-3 -3 -12 -4 -19 -1 -8 3 -5 6 6 6 11 1 17 -2 13 -5z m713 -29 c0 -5 -5 -3 -10 5 -5 8 -10 20 -10 25 0 6 5 3 10 -5 5 -8 10 -19 10 -25z m-1759 8 c13 -17 13 -17 -6 -3 -11 8 -22 16 -24 17 -2 2 0 3 6 3 6 0 17 -8 24 -17z m1226 -10 c-4 -3 -7 0 -7 7 0 7 3 10 7 7 3 -4 3 -10 0 -14z m-427 -9 c0 -8 -5 -12 -10 -9 -6 4 -8 11 -5 16 9 14 15 11 15 -7z m1167 -1 c-4 -3 -7 0 -7 7 0 7 3 10 7 7 3 -4 3 -10 0 -14z m-1047 3 c0 -3 -5 -8 -12 -12 -7 -4 -8 -3 -4 4 7 12 16 16 16 8z m430 0 c0 -2 -8 -10 -17 -17 -16 -13 -17 -12 -4 4 13 16 21 21 21 13z m-133 -58 c-2 -13 -4 -5 -4 17 -1 22 1 32 4 23 2 -10 2 -28 0 -40z m550 35 c-4 -3 -7 0 -7 7 0 7 3 10 7 7 3 -4 3 -10 0 -14z m-1840 -10 c-4 -3 -7 0 -7 7 0 7 3 10 7 7 3 -4 3 -10 0 -14z m2030 0 c-4 -3 -7 0 -7 7 0 7 3 10 7 7 3 -4 3 -10 0 -14z m-1930 -60 c-2 -16 -4 -5 -4 22 0 28 2 40 4 28 2 -13 2 -35 0 -50z m865 28 c-3 -25 2 -49 13 -67 l17 -29 -21 25 c-24 29 -29 110 -7 110 1 0 0 -18 -2 -39z m935 12 c-4 -3 -7 0 -7 7 0 7 3 10 7 7 3 -4 3 -10 0 -14z m43 -3 c0 -5 -2 -10 -4 -10 -3 0 -8 5 -11 10 -3 6 -1 10 4 10 6 0 11 -4 11 -10z m77 -7 c-4 -3 -7 0 -7 7 0 7 3 10 7 7 3 -4 3 -10 0 -14z m-635 -25 c-9 -9 -12 -7 -12 12 0 19 3 21 12 12 9 -9 9 -15 0 -24z m-515 5 c-4 -3 -7 0 -7 7 0 7 3 10 7 7 3 -4 3 -10 0 -14z m1130 -30 c-4 -3 -7 0 -7 7 0 7 3 10 7 7 3 -4 3 -10 0 -14z m-770 -40 c-3 -10 -5 -2 -5 17 0 19 2 27 5 18 2 -10 2 -26 0 -35z m420 0 c-3 -10 -5 -2 -5 17 0 19 2 27 5 18 2 -10 2 -26 0 -35z m-158 -14 l56 -6 -52 -2 c-41 -1 -57 4 -75 22 -13 12 -15 15 -5 7 10 -8 44 -18 76 -21z m388 24 c-4 -3 -7 0 -7 7 0 7 3 10 7 7 3 -4 3 -10 0 -14z m110 0 c-4 -3 -7 0 -7 7 0 7 3 10 7 7 3 -4 3 -10 0 -14z m356 -36 l242 -2 -247 -3 -248 -2 1 33 c2 29 2 30 6 5 l4 -28 242 -3z m-2815 36 c-21 -2 -55 -2 -75 0 -21 2 -4 4 37 4 41 0 58 -2 38 -4z m122 -18 l0 -25 -187 2 -188 3 183 2 c174 3 182 4 182 23 0 11 2 20 5 20 3 0 5 -11 5 -25z m577 5 c-5 -19 0 -20 168 -20 172 0 174 0 178 23 4 19 4 18 6 -5 l1 -28 -189 0 -189 0 11 25 c14 30 21 33 14 5z m246 13 c-24 -2 -62 -2 -85 0 -24 2 -5 4 42 4 47 0 66 -2 43 -4z m702 -3 c-3 -5 -12 -10 -18 -10 -7 0 -6 4 3 10 19 12 23 12 15 0z m1100 0 c7 -12 -58 -12 -95 -1 -18 6 -10 8 32 9 32 1 60 -3 63 -8z m222 3 c-4 -3 -10 -3 -14 0 -3 4 0 7 7 7 7 0 10 -3 7 -7z m140 -20 c-4 -3 -7 0 -7 7 0 7 3 10 7 7 3 -4 3 -10 0 -14z m113 -3 c0 -18 -6 -20 -67 -18 l-68 2 63 3 c46 3 62 8 62 18 0 8 2 15 5 15 3 0 5 -9 5 -20z m-2837 3 c-13 -2 -33 -2 -45 0 -13 2 -3 4 22 4 25 0 35 -2 23 -4z m1217 -3 c-8 -5 -37 -9 -65 -8 l-50 1 55 7 c30 4 60 7 65 8 6 1 3 -3 -5 -8z m437 3 c-4 -3 -10 -3 -14 0 -3 4 0 7 7 7 7 0 10 -3 7 -7z m368 -16 c40 -4 40 -4 -4 -3 -30 1 -46 6 -48 16 -3 10 -2 11 4 3 4 -6 26 -13 48 -16z m-1908 6 c-4 -3 -10 -3 -14 0 -3 4 0 7 7 7 7 0 10 -3 7 -7z m940 0 c-4 -3 -10 -3 -14 0 -3 4 0 7 7 7 7 0 10 -3 7 -7z m243 3 c0 -11 -19 -15 -25 -6 -3 5 1 10 9 10 9 0 16 -2 16 -4z m417 -3 c-4 -3 -10 -3 -14 0 -3 4 0 7 7 7 7 0 10 -3 7 -7z m-1709 -10 c-38 -2 -98 -2 -135 0 -38 2 -7 3 67 3 74 0 105 -1 68 -3z m1092 3 c0 -11 -19 -15 -25 -6 -3 5 1 10 9 10 9 0 16 -2 16 -4z m160 0 c0 -9 -30 -14 -35 -6 -4 6 3 10 14 10 12 0 21 -2 21 -4z m257 -2 c-3 -3 -12 -4 -19 -1 -8 3 -5 6 6 6 11 1 17 -2 13 -5z m166 -1 c-7 -2 -19 -2 -25 0 -7 3 -2 5 12 5 14 0 19 -2 13 -5z m-500 -10 c-13 -2 -35 -2 -50 0 -16 2 -5 4 22 4 28 0 40 -2 28 -4z m430 0 c-13 -2 -35 -2 -50 0 -16 2 -5 4 22 4 28 0 40 -2 28 -4z m-2336 -75 c-3 -7 -5 -2 -5 12 0 14 2 19 5 13 2 -7 2 -19 0 -25z m23 -39 c0 -5 -40 -8 -92 -7 l-93 2 83 3 c47 2 82 8 82 14 0 6 5 7 10 4 6 -3 10 -10 10 -16z m805 -9 c3 -5 -1 -10 -10 -10 -9 0 -13 5 -10 10 3 6 8 10 10 10 2 0 7 -4 10 -10z m739 -28 c27 -24 46 -75 46 -122 0 -42 -20 -103 -38 -114 -5 -3 -1 11 9 31 52 103 -6 236 -95 219 -19 -4 -37 -2 -40 3 -8 13 43 19 74 8 14 -5 33 -16 44 -25z m-1357 22 c-3 -3 -12 -4 -19 -1 -8 3 -5 6 6 6 11 1 17 -2 13 -5z m108 -4 c-28 -12 -37 -12 -30 0 3 6 16 10 28 9 21 0 21 -1 2 -9z m238 -6 c-4 -12 -8 -12 -13 -3 -5 7 -19 10 -34 7 -15 -3 -29 -1 -32 3 -3 5 15 9 40 9 37 0 44 -3 39 -16z m172 11 c-23 -8 -83 -10 -79 -3 3 4 24 8 47 7 23 0 38 -2 32 -4z m227 -6 c34 -18 48 -70 48 -184 l0 -105 -26 0 -25 0 2 108 c1 59 4 112 8 117 3 6 8 -39 12 -100 l5 -110 2 113 c2 117 -8 158 -34 148 -8 -3 -13 -2 -10 3 4 5 -11 7 -33 4 -23 -3 -41 -1 -45 6 -9 15 68 15 96 0z m171 4 c-13 -2 -35 -2 -50 0 -16 2 -5 4 22 4 28 0 40 -2 28 -4z m297 -8 c-14 -16 -25 -21 -16 -6 4 5 0 12 -6 14 -7 3 -2 6 11 6 20 1 21 -1 11 -14z m-1053 -1 c-3 -3 -12 -4 -19 -1 -8 3 -5 6 6 6 11 1 17 -2 13 -5z m409 -16 c-12 -17 -16 -49 -16 -135 0 -106 1 -113 20 -113 19 0 20 7 22 118 1 128 6 111 10 -41 l3 -97 -35 0 -35 0 3 122 c3 85 8 130 18 146 8 12 17 22 20 22 3 0 -2 -10 -10 -22z m-379 5 c-4 -3 -10 -3 -14 0 -3 4 0 7 7 7 7 0 10 -3 7 -7z m303 3 c0 -3 -5 -8 -12 -12 -7 -4 -8 -3 -4 4 7 12 16 16 16 8z m380 -122 c0 -81 -4 -123 -10 -119 -6 4 -10 55 -10 119 0 99 4 126 17 126 2 0 3 -57 3 -126z m83 16 c26 0 37 -3 29 -9 -10 -6 -10 -10 3 -21 8 -7 15 -20 14 -29 0 -11 -3 -9 -9 6 -10 23 -39 43 -64 43 -13 0 -16 -13 -16 -70 0 -68 1 -70 25 -70 14 0 34 9 45 20 11 11 20 16 20 12 0 -4 -5 -13 -12 -20 -9 -9 -8 -12 6 -12 9 0 14 -4 11 -10 -3 -5 -40 -10 -81 -10 -48 0 -73 4 -69 10 3 6 15 10 26 10 17 0 19 8 20 73 0 39 1 97 1 127 l1 55 4 -52 4 -53 42 0z m197 106 c0 -3 -5 -8 -12 -12 -7 -4 -8 -3 -4 4 7 12 16 16 16 8z m-1230 -10 c0 -3 -5 -8 -12 -12 -7 -4 -8 -3 -4 4 7 12 16 16 16 8z m70 0 c0 -2 -8 -10 -17 -17 -16 -13 -17 -12 -4 4 13 16 21 21 21 13z m298 -168 c-3 -69 -1 -78 15 -78 14 0 17 10 17 61 0 37 4 58 10 54 6 -3 10 -31 10 -61 0 -48 2 -54 21 -54 11 0 30 5 41 11 15 8 19 8 14 0 -4 -6 0 -11 9 -11 9 0 13 -4 10 -10 -3 -5 -41 -10 -85 -10 l-78 0 -1 120 c-1 67 2 126 6 133 10 16 15 -55 11 -155z m52 112 c0 -21 -4 -42 -10 -45 -6 -4 -10 13 -10 45 0 32 4 49 10 45 6 -3 10 -24 10 -45z m840 46 c0 -3 -5 -8 -12 -12 -7 -4 -8 -3 -4 4 7 12 16 16 16 8z m-1040 -53 c0 -25 -3 -43 -7 -40 -3 4 -6 23 -5 42 1 43 1 45 7 45 3 0 5 -21 5 -47z m980 17 c0 -5 -2 -10 -4 -10 -3 0 -8 5 -11 10 -3 6 -1 10 4 10 6 0 11 -4 11 -10z m217 -12 c-3 -8 -6 -5 -6 6 -1 11 2 17 5 13 3 -3 4 -12 1 -19z m-175 -20 c-9 -9 -12 -7 -12 12 0 19 3 21 12 12 9 -9 9 -15 0 -24z m-1215 5 c-4 -3 -7 0 -7 7 0 7 3 10 7 7 3 -4 3 -10 0 -14z m443 13 c0 -3 -5 -8 -12 -12 -7 -4 -8 -3 -4 4 7 12 16 16 16 8z m-510 -43 c0 -20 -3 -24 -11 -16 -7 7 -9 19 -6 27 10 24 17 19 17 -11z m550 23 c0 -3 -5 -8 -12 -12 -7 -4 -8 -3 -4 4 7 12 16 16 16 8z m677 -58 c-2 -13 -4 -3 -4 22 0 25 2 35 4 23 2 -13 2 -33 0 -45z m243 21 c0 -24 -4 -38 -10 -34 -14 8 -9 75 6 75 2 0 4 -18 4 -41z m-1407 -29 c0 -28 -3 -54 -7 -57 -3 -3 -6 22 -6 57 0 35 3 60 6 57 4 -3 7 -29 7 -57z m427 56 c0 -3 -5 -8 -12 -12 -7 -4 -8 -3 -4 4 7 12 16 16 16 8z m-160 -37 c0 -5 -23 -9 -52 -9 -58 0 -56 16 2 22 39 4 50 1 50 -13z m163 4 c-7 -2 -19 -2 -25 0 -7 3 -2 5 12 5 14 0 19 -2 13 -5z m676 -32 c-2 -6 -10 2 -17 17 -11 25 -11 25 4 10 9 -9 15 -21 13 -27z m-580 -15 c-3 -3 -11 5 -18 17 -13 21 -12 21 5 5 10 -10 16 -20 13 -22z m696 15 c3 -5 1 -12 -5 -16 -5 -3 -10 1 -10 9 0 18 6 21 15 7z m-1288 -48 c-4 -17 -4 -17 -12 0 -4 9 -4 25 0 35 8 16 8 16 12 0 3 -10 3 -26 0 -35z m1460 15 c-3 -8 -6 -5 -6 6 -1 11 2 17 5 13 3 -3 4 -12 1 -19z m-330 -5 c-4 -3 -7 0 -7 7 0 7 3 10 7 7 3 -4 3 -10 0 -14z m40 -35 c-3 -8 -6 -5 -6 6 -1 11 2 17 5 13 3 -3 4 -12 1 -19z m98 2 c10 -11 16 -20 13 -20 -3 0 -13 9 -23 20 -10 11 -16 20 -13 20 3 0 13 -9 23 -20z m-684 -13 c-10 -9 -11 -8 -5 6 3 10 9 15 12 12 3 -3 0 -11 -7 -18z m724 13 c3 -5 4 -10 1 -10 -3 0 -8 5 -11 10 -3 6 -4 10 -1 10 3 0 8 -4 11 -10z m-1226 -30 c11 -24 11 -24 -3 -6 -9 11 -16 24 -16 30 0 12 5 7 19 -24z m1327 -1 c3 -5 -15 -9 -39 -9 -28 0 -44 4 -44 13 0 14 73 11 83 -4z m49 11 c-3 -5 -12 -10 -18 -10 -7 0 -6 4 3 10 19 12 23 12 15 0z m-148 -7 c-4 -3 -10 -3 -14 0 -3 4 0 7 7 7 7 0 10 -3 7 -7z m-1262 -43 c10 -11 16 -20 13 -20 -3 0 -13 9 -23 20 -10 11 -16 20 -13 20 3 0 13 -9 23 -20z m182 -17 c-20 -2 -52 -2 -70 0 -17 2 0 4 38 4 39 0 53 -2 32 -4z m60 -10 c-4 -3 -10 -3 -14 0 -3 4 0 7 7 7 7 0 10 -3 7 -7z m-67 -13 c-20 -13 -77 -13 -85 0 -4 6 14 10 47 10 38 0 49 -3 38 -10z"/>
 </g>
<g id="layer103" fill="#ffffff" stroke="none">
 <path d="M0 605 l0 -605 2080 0 2080 0 0 605 0 605 -2080 0 -2080 0 0 -605z m2491 474 c63 -36 83 -68 84 -138 0 -100 -27 -127 -174 -171 -41 -12 -84 -32 -97 -45 -53 -53 -15 -133 68 -142 44 -5 67 2 171 55 4 2 7 -12 7 -31 0 -34 -2 -36 -50 -46 -169 -36 -307 12 -326 114 -18 98 23 149 153 190 101 31 133 58 133 111 0 46 -14 70 -52 90 -42 22 -108 15 -182 -19 l-57 -26 3 32 c3 29 7 33 53 44 80 20 214 10 266 -18z m424 0 c62 -31 85 -72 85 -152 0 -53 -3 -62 -33 -92 -25 -25 -56 -40 -123 -60 -107 -33 -134 -54 -134 -106 0 -30 7 -43 32 -64 28 -23 39 -27 80 -23 26 3 70 17 98 31 l50 26 0 -33 c0 -41 -9 -45 -116 -53 -103 -7 -171 8 -213 49 -37 37 -45 62 -39 130 7 70 40 99 155 134 103 33 133 57 133 110 0 28 -8 44 -35 71 -34 34 -38 35 -94 31 -35 -2 -79 -14 -110 -30 l-51 -25 0 33 c0 31 2 33 53 43 89 17 206 8 262 -20z m-2566 10 c63 -13 109 -44 135 -89 19 -32 21 -56 26 -285 3 -137 10 -258 14 -267 7 -17 0 -18 -88 -18 l-97 0 16 30 c12 24 15 73 15 272 0 262 -2 269 -57 297 -53 27 -168 8 -202 -33 -23 -27 -32 -18 -29 27 3 41 4 42 53 59 58 20 142 23 214 7z m621 -35 c0 -35 -1 -36 -27 -30 -16 4 -72 9 -125 13 l-98 6 0 -108 0 -107 75 4 75 3 0 -30 0 -30 -75 3 -75 4 0 -87 0 -88 125 5 125 5 0 -29 0 -28 -191 0 c-179 0 -191 1 -183 18 5 9 10 115 12 235 3 178 1 223 -12 247 l-14 30 194 0 194 0 0 -36z m210 10 c-6 -14 -10 -73 -10 -132 l0 -107 88 133 87 132 80 0 c73 0 78 -1 58 -15 -21 -14 -188 -254 -181 -259 1 -2 24 -13 49 -25 54 -25 69 -52 69 -125 0 -44 -4 -57 -26 -77 -25 -23 -32 -24 -187 -27 l-162 -3 0 248 c0 136 -4 256 -9 266 -7 15 -1 17 73 17 l81 0 -10 -26z m720 -9 l0 -36 -37 8 c-21 4 -76 8 -123 8 l-85 0 0 -100 0 -100 78 1 c62 0 77 -3 72 -14 -3 -7 -5 -21 -5 -30 0 -14 -11 -17 -72 -17 l-73 0 0 -80 0 -80 123 1 122 0 0 -28 0 -28 -190 0 c-185 0 -190 1 -180 19 13 26 14 478 0 486 -32 20 6 25 180 25 l190 0 0 -35z m214 18 c-14 -27 -17 -469 -4 -493 10 -19 8 -20 -64 -20 l-76 0 10 26 c6 14 10 120 10 235 0 169 -3 216 -15 239 l-16 30 82 0 c74 0 80 -2 73 -17z m1002 -9 c-4 -16 2 -55 15 -101 l22 -74 76 3 76 3 22 65 c13 39 20 78 17 98 l-5 32 76 0 c73 0 86 -5 65 -26 -8 -8 -180 -487 -180 -501 0 -2 -22 -3 -48 -3 l-48 0 -24 68 c-62 179 -142 389 -160 420 -11 18 -20 35 -20 38 0 2 27 4 61 4 61 0 61 0 55 -26z m618 5 c-17 -19 -19 -41 -22 -240 l-3 -219 58 0 c32 0 75 4 96 9 l37 9 0 -34 0 -34 -245 0 -245 0 0 34 c0 34 0 35 32 25 18 -5 61 -9 96 -9 l63 0 -1 204 c-1 177 -4 210 -20 240 l-18 36 96 0 95 0 -19 -21z m339 -11 c-10 -41 -11 -433 0 -470 l7 -28 -67 0 -68 0 0 247 c0 137 -4 256 -9 266 -7 15 -1 17 69 17 l77 0 -9 -32z m-3190 -638 l37 -11 0 -59 c0 -32 3 -65 6 -74 5 -13 -2 -16 -44 -16 l-50 0 9 36 c15 53 3 91 -32 103 -71 25 -132 -21 -144 -108 -12 -85 12 -164 56 -186 36 -19 110 -19 155 0 l35 15 -3 -28 c-3 -24 -8 -28 -48 -33 -76 -11 -166 -3 -202 18 -61 35 -89 123 -74 227 9 56 53 111 100 126 36 11 144 6 199 -10z m572 6 c44 -19 55 -58 55 -193 l0 -103 -26 0 -25 0 1 102 c2 141 2 136 -20 158 -26 26 -81 26 -104 1 -15 -17 -17 -36 -14 -140 l3 -121 -35 0 -35 0 3 118 c1 64 5 127 8 139 10 48 116 69 189 39z m612 -11 c33 -22 53 -73 53 -135 0 -114 -45 -154 -166 -148 -65 3 -77 7 -101 31 -25 25 -28 36 -31 110 -4 78 -2 85 23 115 15 18 41 36 58 42 44 13 133 5 164 -15z m-1005 -57 l-3 -73 48 72 c48 72 48 73 92 73 l45 0 -25 -27 c-31 -35 -92 -123 -88 -127 2 -1 16 -7 31 -14 49 -21 50 -104 2 -122 -14 -6 -59 -10 -99 -10 l-74 0 -3 150 -3 150 40 0 40 0 -3 -72z m578 52 c-6 -12 -10 -40 -8 -63 l3 -42 52 -5 c69 -7 88 -26 88 -90 0 -27 -6 -55 -13 -62 -8 -8 -47 -14 -102 -16 l-89 -4 -3 151 -3 151 43 0 c40 0 42 -1 32 -20z"/>
 <path d="M1170 694 l0 -107 45 6 c55 6 81 27 89 72 13 69 -40 135 -109 135 l-25 0 0 -106z"/>
 <path d="M3180 828 c1 -17 49 -130 55 -131 4 -1 18 28 31 66 l23 67 -55 0 c-30 0 -54 -1 -54 -2z"/>
 <path d="M1920 392 c-46 -37 -46 -187 0 -224 23 -18 56 -23 85 -12 33 13 49 68 46 167 -2 72 -78 112 -131 69z"/>
 <path d="M1060 210 c0 -57 1 -60 24 -60 49 0 67 69 26 102 -40 32 -50 24 -50 -42z"/>
 <path d="M1637 283 c-4 -3 -7 -35 -7 -70 0 -60 1 -63 24 -63 34 0 56 26 56 66 0 48 -48 92 -73 67z"/>
 </g>

</svg>