<svg xmlns="http://www.w3.org/2000/svg" viewBox="115.57785034179688 76 369.9731750488281 96.06399536132812"><g fill="none" fill-rule="evenodd"><path fill="#77787B" fill-rule="nonzero" d="M465.14 142.922c-14.507 0-17.909-2.063-15.92-8.897l14.764-52.094h-42.235l-16.175 56.865c-5.52 19.406 8.152 27.078 40.951 27.078h32.35l6.676-22.952h-20.412z"></path><path fill="#EC1C24" d="M211.216 124.032c0 26.562-21.438 48.032-47.82 48.032-26.444 0-47.818-21.534-47.818-48.032C115.513 97.469 136.952 76 163.333 76c26.445 0 47.883 21.47 47.883 48.032"></path><path fill="#FFF" d="M163.012 146.404c6.483-5.867 8.151-13.797 8.151-13.797-1.604 2.643-4.043 5.673-8.151 7.93m0-.065c-4.044 2.192-9.692 3.74-17.652 3.546h-18.485l-2.054 8.382 20.218.064c8.28.323 14.057-2.514 17.973-6.125"></path><path fill="#FFF" d="M163.012 138.667c4.557-1.999 7.83-4.9 8.922-8.446l3.402-11.282s1.09-5.03 6.932-5.03h14.25l2.053-8.316-16.11.064c-8.088 0-14.507.838-19.45 4.062m0 0c-3.658 2.45-6.482 6.254-8.536 11.992l-2.31 7.737c-1.734 3.997-5.136 3.417-7.703 3.674h-14.763l-2.183 8.446 17.844-.064c6.868.193 13.03-.903 17.652-2.901"></path><path fill="#77787B" d="M182.781 103.078h16.432l2.118-8.188h-18.806c-20.54.065-24.712 15.41-25.354 17.73l-1.605 5.351c5.328-9.412 9.628-15.28 27.215-14.893"></path><path fill="#77787B" fill-rule="nonzero" d="M371.555 101.209c1.155 0 2.054.064 2.567.064h36.394l5.52-19.342h-52.312c-22.594 0-45.765 6.254-50.772 23.726-.192.58-.256 1.16-.385 1.741-.834 4.449.321 9.026 5.392 13.346 9.179 8.381 26.445 12.378 25.161 18.31-.642 3.03-3.466 4.062-11.168 3.804h-31.067c-1.155 3.352-6.804 17.988-27.536 23.016h62.261c46.471 0 58.218-9.67 58.667-24.757.45-15.796-23.171-24.886-32.03-31.462-1.347-1.29-1.989-2.708-1.476-4.642.835-3.482 5.135-3.804 10.784-3.804"></path><path fill="#77787B" fill-rule="nonzero" d="M312.439 81.931h-43.005l-14.57 51.9c-2.119 6.512-6.869 7.608-11.17 8.447-2.695.515-11.425.709-17.65.709h-6.74l-6.74 22.887c48.975 0 76.51-1.676 85.24-32.365l2.632-9.413h.064l11.939-42.165z"></path></g></svg>