<svg xmlns="http://www.w3.org/2000/svg" viewBox="35 87.9999771118164 530 74.0000228881836"><g fill="none" fill-rule="evenodd"><path fill="#F58220" d="M43 124l5.44-36H85z"></path><path fill="#000" fill-rule="nonzero" d="M560.073 92.754h-1.003v-1.256h1.003a.62.62 0 01.639.628c-.091.359-.365.628-.639.628zm1.825-.628c0-.987-.821-1.794-1.825-1.794h-2.19v6.01h1.187V93.92h.273l1.278 2.422h1.277l-1.277-2.512c.73-.18 1.277-.897 1.277-1.704zm-2.372 5.74c-2.555 0-4.653-2.062-4.653-4.574 0-2.511 2.098-4.574 4.653-4.574 2.554 0 4.653 2.063 4.653 4.574-.091 2.512-2.099 4.575-4.653 4.575zm0-9.866a5.366 5.366 0 00-5.383 5.382c0 2.96 2.463 5.292 5.383 5.292 3.01 0 5.474-2.422 5.474-5.292-.091-2.96-2.463-5.382-5.474-5.382zm-154.83 31.215l1.277-8.611c.273-1.436 1.55-2.602 3.01-2.691h20.529l1.733-11.392h-23.174c-6.295 0-12.226 5.023-13.23 11.302l-5.109 34.175v.09c-.912 6.278 3.467 11.39 9.854 11.39h23.083l1.734-11.39h-20.255c-1.46 0-2.555-1.256-2.464-2.692v-.179l1.278-8.521h23.174l1.734-11.392-23.175-.09zm139.228-5.651c-.456 3.139-3.467 5.65-6.66 5.65h.091-9.215l1.733-11.301h9.033c3.285-.09 5.474 2.511 5.018 5.65zM540.64 96.52h-20.62l-8.577 56.868h11.588l3.467-22.783h3.102l8.211 22.783h11.587l-8.576-23.5c7.39-2.153 13.412-8.701 14.598-16.325 1.369-9.419-5.2-17.043-14.78-17.043zm-343.967 42.786l1.278-8.611 5.109-34.175h-11.587l-6.843 45.477v.09c-.912 6.278 3.467 11.39 9.854 11.39h23.174l1.733-11.39h-20.254c-1.551-.09-2.646-1.346-2.464-2.781zm246.89-8.7h9.488c2.92.268 4.927 2.69 4.47 5.65-.455 3.14-3.466 5.65-6.66 5.65h.092-9.124l1.734-11.3zm3.467-22.694h9.032c3.193 0 5.383 2.511 4.927 5.74-.456 3.14-3.376 5.651-6.57 5.651h-9.214l1.825-11.391zm-6.934 45.476h8.94c9.58 0 18.522-7.714 19.89-17.042.64-4.306-.364-8.342-2.645-11.302 3.193-3.05 5.474-6.997 6.204-11.392 1.46-9.418-5.2-17.042-14.78-17.042h-20.62l-8.577 56.868h11.588v-.09zm-144.521-39.825c-.456 3.139-3.467 5.65-6.66 5.65h.09-9.214l1.733-11.391h9.033c3.193 0 5.474 2.601 5.018 5.74zm11.496 0c1.46-9.419-5.2-17.043-14.78-17.043h-20.62l-8.577 56.868h11.588l3.375-22.783h3.102l8.212 22.783h11.587l-8.576-23.5c7.481-2.243 13.503-8.701 14.689-16.325zM376.868 88l-7.3 48.526L361.906 88H346.85l-22.445 48.885L331.796 88h-15.054l-11.13 73.91h22.352l22.719-49.512 7.846 49.512h22.262L391.922 88h-15.054zM239.19 119.215l1.277-8.611c.274-1.436 1.551-2.602 3.011-2.691h20.529l1.733-11.392h-23.174c-6.296 0-12.226 5.023-13.23 11.302l-5.109 34.175v.09c-.912 6.278 3.467 11.39 9.854 11.39h23.083l1.733-11.48h-20.254c-1.46 0-2.555-1.256-2.464-2.691v-.18l1.278-8.52h23.174l1.733-11.392H239.19zM116.02 88H90.472L39.47 132.4 35 162h15.054l2.92-19.195 10.036-8.7L86.184 162h18.43l-30.473-37.583L116.019 88zm356.556 53.998c-1.003 6.278 3.467 11.391 9.854 11.391h23.083l1.734-11.391h-20.255c-1.46 0-2.555-1.256-2.464-2.691v-.18l1.278-8.52h23.174l1.734-11.392H487.63l1.278-8.611c.273-1.436 1.55-2.602 3.01-2.691h20.529l1.734-11.392h-23.175c-6.295 0-12.226 5.023-13.23 11.302l-5.2 34.175zm-331.74-22.694H117.66l1.278-8.61c.273-1.436 1.55-2.602 3.01-2.692h20.529l1.734-11.391h-23.084c-6.295 0-12.225 5.023-13.23 11.302l-5.2 34.085v.09c-.912 6.278 3.467 11.39 9.854 11.39h23.083l1.734-11.39h-20.164c-1.46 0-2.554-1.256-2.463-2.692v-.179l1.277-8.521h23.174l1.643-11.392zm32.115-5.74c-.456 3.139-3.467 5.65-6.66 5.65h.091-9.215l1.734-11.391h9.032c3.285 0 5.566 2.601 5.018 5.74zm-3.193-17.043h-20.62l-8.576 56.868h11.587l3.467-22.783h9.033c9.58 0 18.43-7.714 19.89-17.042 1.368-9.419-5.2-17.043-14.78-17.043z"></path></g></svg>