<svg xmlns="http://www.w3.org/2000/svg" viewBox="136 6 329 229"><g fill="none" fill-rule="evenodd"><path fill="#00904A" d="M205 93l-69 69h69V93zm65.016 29.274L309.032 161 465 6H291.712L231 66.315V161h41.205l-38.826-38.632 38.826-38.726h36.827l-39.016 38.821z"></path><path fill="#1D1D1B" d="M231 198.854h9.456v15.41l10.97-15.41h10.59l-13.05 16.36 14.374 19.215h-11.725l-11.159-16.551v16.551H231v-35.575zM265.894 196h8.983v38.524h-8.983V196zm30.449 26.539c-2.648 0-4.54.285-5.674.856-1.135.57-1.702 1.522-1.702 2.759 0 .95.284 1.617.946 2.187.661.571 1.418.857 2.458.857 1.608 0 2.932-.571 3.972-1.618 1.04-1.141 1.513-2.568 1.513-4.28v-.761h-1.513zm9.929-1.807v13.792h-7.754l-.19-4.09c-1.04 1.522-2.363 2.664-3.876 3.33-1.513.665-3.31 1.046-5.485 1.046-2.648 0-4.823-.761-6.336-2.283-1.607-1.522-2.364-3.52-2.364-6.088 0-2.949 1.135-5.041 3.404-6.468 2.27-1.427 5.863-2.093 10.591-2.093h3.5v-.38c0-1.427-.568-2.569-1.608-3.33-1.135-.76-2.648-1.141-4.823-1.141-1.04 0-2.175.19-3.499.57-1.324.381-2.742.857-4.255 1.618l-.19-5.993a22.922 22.922 0 014.729-1.332 33.902 33.902 0 015.579-.475c4.255 0 7.47 1.046 9.456 3.234 2.175 2.092 3.12 5.422 3.12 10.083zm21.087-6.754c-1.796 0-3.215.666-4.255 1.902-1.04 1.237-1.608 2.95-1.608 5.137 0 2.188.473 3.995 1.513 5.232 1.04 1.236 2.365 1.902 4.067 1.902 1.607 0 2.931-.57 3.971-1.807.946-1.237 1.513-2.854 1.513-4.946 0-2.188-.473-3.996-1.418-5.327-.946-1.332-2.27-2.093-3.783-2.093zM312.608 196h8.983v15.79c1.04-1.427 2.27-2.568 3.688-3.234 1.418-.76 3.026-1.046 4.917-1.046 3.499 0 6.336 1.236 8.416 3.71 2.08 2.473 3.12 5.707 3.12 9.892 0 4.186-1.04 7.515-3.214 10.083-2.175 2.568-5.012 3.805-8.416 3.805-2.08 0-3.877-.476-5.58-1.427-1.607-.951-2.931-2.378-3.971-4.28v5.327h-8.038V196h.095zm34.988 12.08h8.983v26.35h-8.983v-26.35zm0-12.08h8.983v7.324h-8.983V196zM391 219.02v15.41h-8.889v-13.603c0-2.093-.378-3.615-1.135-4.661-.756-1.046-1.796-1.522-3.31-1.522-1.512 0-2.836.666-3.782 1.902-.945 1.237-1.418 2.95-1.418 5.137v12.651h-8.984v-26.349h8.133v4.756c1.04-1.807 2.364-3.139 3.971-4.09 1.608-.951 3.5-1.427 5.485-1.427 3.215 0 5.674.952 7.281 2.95 1.797 2.187 2.648 5.04 2.648 8.846z"></path></g></svg>