<svg xmlns="http://www.w3.org/2000/svg" viewBox="75 59 449.00006103515625 131"><g fill="#025199" transform="translate(75 59)"><path d="M66.21 131C29.668 131 0 101.57 0 65.68 0 29.788 29.668 0 66.21 0c36.543 0 66.21 29.43 66.21 65.68 0 36.249-30.03 65.32-66.21 65.32zm0-99.058c-18.814 0-34.01 15.074-34.01 33.737 0 18.663 15.196 33.737 34.01 33.737s34.01-15.074 34.01-33.737c0-18.663-15.196-33.737-34.01-33.737zm92.622 7.537h10.855a3.23 3.23 0 013.256 3.23v30.149c0 3.589 1.085 6.1 2.894 8.254 1.81 1.795 4.342 2.872 7.598 2.872 1.81 0 3.618-.36 5.427-1.077 1.81-.718 3.256-1.795 4.342-3.23 1.085-1.436 2.17-2.872 2.894-4.666.724-1.795 1.086-3.59 1.086-5.743V39.48h14.11v55.272h-10.13a3.23 3.23 0 01-3.257-3.23v-3.23l-2.532 2.512c-1.086.718-2.171 1.794-3.618 2.512-1.448.718-2.895 1.436-4.704 1.795-1.809.358-3.618.717-5.789.717-6.874 0-12.301-2.153-15.92-6.101-3.617-4.307-5.426-9.69-5.426-16.868v-33.38h-1.086zm56.804 0h10.13a3.23 3.23 0 013.257 3.23v3.23l2.532-2.512c1.086-.717 2.171-1.794 3.618-2.512s2.895-1.436 4.704-1.794c1.809-.36 3.618-.718 5.789-.718 6.874 0 12.301 2.153 15.919 6.101 3.618 4.307 5.427 9.69 5.427 16.869V95.11h-10.854a3.23 3.23 0 01-3.256-3.23V61.731c0-3.59-1.086-6.102-2.895-8.255-1.447-2.154-3.98-3.23-6.874-3.23-1.81 0-3.618.358-5.427 1.076-1.81.718-3.256 1.795-4.342 3.23-1.085 1.436-2.17 2.872-2.894 4.666-.724 1.795-1.086 3.59-1.086 5.743V95.11H218.53a3.23 3.23 0 01-3.256-3.23v-52.4h.362zm55.718 0h10.854a3.23 3.23 0 013.256 3.23v52.042H274.61a3.23 3.23 0 01-3.256-3.23V39.479zm58.25 49.888l-2.532 2.512c-1.086.718-2.171 1.795-3.618 2.513-1.448.718-2.895 1.435-4.704 1.794-1.809.36-3.618.718-5.789.718-2.894 0-6.15-.718-9.045-1.794-2.894-1.436-5.427-3.23-7.96-5.384-2.17-2.512-4.341-5.384-5.427-8.973-1.447-3.589-2.17-7.537-2.17-12.202 0-4.307.723-8.255 1.809-11.485 1.447-3.23 2.894-6.102 4.703-8.255 1.447-1.795 3.256-3.59 5.065-4.666 1.81-1.435 3.98-2.153 5.79-3.23 1.808-.718 3.98-1.436 5.788-1.794 1.81-.36 3.256-.36 4.704-.36h4.341c1.086 0 2.171.36 3.256.36 1.086.358 1.81.358 2.533.717.724.36 1.81.718 2.895 1.077V16.151h10.854a3.23 3.23 0 013.256 3.23v75.37H332.86a3.23 3.23 0 01-3.257-3.23v-2.154zm0-35.89c-1.447-1.077-2.894-1.795-4.703-2.154-1.81-.359-3.98-.718-6.874-.718-2.895 0-5.066.36-6.875 1.436-1.809 1.077-3.256 2.512-4.703 4.307-1.086 1.436-2.171 3.23-2.895 5.384-.723 2.153-1.085 4.306-1.085 6.46 0 4.666 1.085 8.613 3.618 11.844 2.533 3.23 5.789 4.665 10.492 4.665 2.533 0 4.342-.359 6.151-1.435 1.81-1.077 2.894-2.154 3.98-3.59 1.085-1.435 1.809-2.87 2.17-4.665.363-1.795.724-3.23.724-5.025v-16.51zm54.271 36.249c-1.447 1.795-3.98 3.59-6.874 4.666-3.256 1.435-6.513 2.153-10.493 2.153-2.17 0-4.703-.359-6.874-1.077-2.17-.717-4.341-1.794-6.15-3.23-1.81-1.435-3.257-3.23-4.342-5.742-1.086-2.154-1.81-5.025-1.81-7.896 0-3.23.724-6.101 1.81-8.614 1.085-2.512 2.894-4.665 5.065-6.101 2.17-1.795 4.704-2.871 7.598-3.948 2.894-.718 6.512-1.436 10.13-1.436h7.598c1.448 0 2.895 0 4.342.36v-1.436c0-2.872-1.085-5.025-3.256-6.46-2.171-1.436-5.065-2.513-8.683-2.513-3.98 0-7.237.359-9.407 1.436-1.448.717-2.533 1.076-3.618 1.794-1.448.718-3.257.36-4.342-1.077l-4.704-6.819c1.086-.718 2.533-1.435 3.98-2.512 1.448-.718 3.257-1.436 5.066-2.153 1.809-.718 3.98-1.077 6.512-1.795 2.533-.359 5.427-.718 8.683-.718 3.618 0 6.875.36 9.77 1.436 2.894 1.077 5.426 2.512 7.597 4.307 2.17 1.794 3.618 3.948 4.703 6.46 1.086 2.512 1.81 5.025 1.81 8.255v37.326H387.13a3.23 3.23 0 01-3.256-3.23v-1.436zm0-19.74c-1.447 0-2.894 0-4.342-.359h-6.874c-4.342 0-7.598.718-9.407 2.513-1.809 1.794-2.894 3.948-2.894 6.101 0 2.512.723 4.307 2.532 5.384 1.81 1.435 4.342 2.153 7.598 2.153 1.81 0 3.257-.359 4.704-.718 1.447-.718 2.894-1.435 3.98-2.153 1.085-1.077 2.17-2.154 2.894-3.23.724-1.436 1.085-2.513 1.085-3.948v-5.743h.724zm22.794 11.485c1.085-1.076 2.894-1.435 4.341-.359 1.448 1.077 2.895 1.795 4.342 2.513 2.533 1.076 5.789 1.794 9.045 1.794 2.895 0 5.427-.359 7.236-1.077 1.81-.717 2.895-2.153 2.895-3.947 0-.718 0-1.436-.362-2.154s-1.085-1.436-2.17-1.794a12.127 12.127 0 00-4.342-1.795c-1.81-.718-4.342-1.436-7.237-2.153-1.809-.36-3.98-1.077-5.788-1.795-2.171-.718-3.98-1.794-5.79-3.23-1.808-1.436-3.256-2.871-4.341-5.025-1.085-1.794-1.809-4.307-1.809-6.819 0-2.871.724-5.383 2.17-7.537a19.303 19.303 0 015.428-5.383c2.17-1.436 4.703-2.513 7.236-3.23 2.894-.718 5.427-1.077 8.321-1.077 5.066 0 9.046.359 12.664 1.435 3.618 1.077 6.512 2.513 9.407 4.666l-5.427 7.178c-1.086 1.436-2.895 1.795-4.342 1.077-1.086-.718-2.171-1.077-3.618-1.436-2.533-1.076-5.427-1.435-8.684-1.435-3.256 0-5.788.359-6.874 1.435-1.447 1.077-1.809 2.154-1.809 3.59 0 1.794 1.086 3.23 3.256 3.947 2.171 1.077 5.427 2.154 10.13 3.23 2.895.718 5.428 1.436 7.599 2.513 2.17 1.076 4.342 2.153 5.789 3.589 1.447 1.435 2.894 3.23 3.618 5.024.723 1.795 1.447 4.307 1.447 6.82 0 2.512-.724 5.024-1.809 7.178-1.447 2.153-2.894 3.948-5.065 5.383-2.171 1.436-4.704 2.513-7.598 3.59-2.895.717-5.79 1.076-9.045 1.076-5.066 0-10.13-.718-14.11-2.153-4.342-1.436-7.599-3.59-10.131-6.46l5.427-7.179z"></path><circle cx="278.5" cy="23.5" r="7.5"></circle></g></svg>