<svg xmlns="http://www.w3.org/2000/svg" viewBox="95 46 409 155"><g fill="#009992" fill-rule="evenodd"><path d="M277.393 146.086V83H259v79h51v-15.914zM318 105h19v57h-19zm0-22h19v16h-19zm124.862 22.472h-14.98V83h-18.308v22.555h-39.696c-20.972 0-26.049 13.963-26.049 21.068 0 17.928 23.385 19.828 23.718 19.91l.833.084-13.815 16.358h.582c3.33-.083 8.323-.083 14.148 0 13.565.248 16.894 3.718 16.894 7.931 0 3.884-5.077 7.27-13.15 7.27-9.736 0-15.062-2.395-15.062-6.774v-.496l-16.894-.082c-.083.413-.083.826-.083 1.322 0 7.683 6.574 16.854 31.124 16.854 18.808 0 30.875-6.031 30.875-19.498 0-2.892-.915-7.436-4.66-11.154-1.914-1.982-6.74-5.866-21.97-6.444-.5 0-.999 0-1.498-.082 0 0 2.496-1.405 3.745-2.149 4.993-2.974 10.485-5.205 15.146-9.583 3.245-3.057 5.326-7.519 5.326-12.724 0-3.387-.915-6.113-2.913-9.666h13.399v45.688h18.308V117.7h8.322c5.66 0 9.487 3.387 9.487 12.062v33.626H464V125.88c0-15.697-10.569-20.407-21.138-20.407zm-71.403 32.387c-5.826 0-10.653-4.792-10.653-10.41 0-5.866 4.578-10.575 10.653-10.575 6.324 0 10.486 4.626 10.486 9.914 0 6.114-4.66 11.07-10.486 11.07zM191.106 65.074l.817-1.398 8.987-14.88L196.253 46 184 60.717l-1.47 1.808-1.39 1.645-5.392 6.495L134 120.735h67.645l10.294-12.333h-47.057l20.914-34.613a53.876 53.876 0 0119.28 13.73c.327.411.736.822 1.063 1.233 1.225 1.48 2.45 3.042 3.513 4.686 1.062 1.645 2.124 3.29 3.023 5.098.326.575.571 1.15.898 1.726a46.033 46.033 0 012.288 5.509c.49 1.398.898 2.877 1.307 4.357.408 1.48.735 2.96.98 4.44.245 1.48.49 3.042.572 4.604.164 1.562.164 3.124.164 4.686 0 2.138-.082 4.193-.327 6.249-.082.493-.164.986-.164 1.48-.326 2.055-.653 4.028-1.225 5.92-.409 1.479-.817 2.877-1.307 4.274a46.033 46.033 0 01-2.288 5.509c-.735 1.562-1.634 3.124-2.45 4.604-1.39 2.22-2.86 4.357-4.494 6.33-1.062 1.316-2.288 2.631-3.513 3.865a50.507 50.507 0 01-5.882 5.097 49.202 49.202 0 01-6.536 4.193c-.735.411-1.552.822-2.288 1.233l-2.696 1.233c-1.388.576-2.777 1.07-4.166 1.563-1.88.575-3.84 1.15-5.8 1.48a43.021 43.021 0 01-4.494.74c-2.042.246-4.085.328-6.209.328h-.98l-5.8 6.989-1.39 1.644c2.696.247 5.392.411 8.088.411 38.153 0 69.035-28.282 69.035-63.224.245-26.638-17.565-49.33-42.892-58.702z"></path><path d="M171.672 126.31h-44.127l-10.277 12.325h46.982l-20.881 34.592c-4.568-1.89-8.81-4.437-12.643-7.477a34.29 34.29 0 01-3.67-3.205 44.636 44.636 0 01-2.774-2.793 56.143 56.143 0 01-6.933-9.45 63.724 63.724 0 01-2.692-5.258c-1.468-3.37-2.61-6.82-3.344-10.518-.163-.904-.326-1.807-.49-2.793-.162-.904-.244-1.89-.325-2.794-.164-1.89-.327-3.78-.327-5.752 0-2.3.163-4.601.408-6.902l.245-1.726c.163-1.15.408-2.218.652-3.286.49-2.219 1.142-4.355 1.876-6.41.898-2.629 2.04-5.094 3.345-7.477a39.991 39.991 0 012.691-4.437 62.324 62.324 0 016.526-8.052c9.706-9.778 23.164-15.859 38.01-15.859h.978l7.178-8.627c-2.692-.247-5.383-.411-8.075-.411C125.832 60.082 95 88.348 95 123.27c0 26.54 17.863 49.218 43.148 58.585l-.897 1.397-8.972 14.872 4.568 2.876 12.235-14.708 1.468-1.808 1.386-1.643 5.384-6.491L195 126.31h-23.328zM504 97.452h-10.695V83h-18.61v14.452H464v11.935h10.695V162h18.61v-52.613H504z"></path></g></svg>