<?xml version="1.0" encoding="UTF-8" standalone="no"?>
<svg
   xmlns:dc="http://purl.org/dc/elements/1.1/"
   xmlns:cc="http://creativecommons.org/ns#"
   xmlns:rdf="http://www.w3.org/1999/02/22-rdf-syntax-ns#"
   xmlns:svg="http://www.w3.org/2000/svg"
   xmlns="http://www.w3.org/2000/svg"
   viewBox="0 0 595.27557 841.88977"
   id="svg23"
   height="841.88977"
   width="595.27557"
   version="1.1">
  <metadata
     id="metadata29">
    <rdf:RDF>
      <cc:Work
         rdf:about="">
        <dc:format>image/svg+xml</dc:format>
        <dc:type
           rdf:resource="http://purl.org/dc/dcmitype/StillImage" />
      </cc:Work>
    </rdf:RDF>
  </metadata>
  <defs
     id="defs27" />
  <path
     id="path2"
     style="fill:#ffffff;fill-rule:evenodd"
     d="m 196.4908,327.5785 h 202.294 v 202.2939 h -202.294 z" />
  <g
     id="Layer1000">
    <path
       id="path4"
       style="fill:#009035;fill-rule:evenodd"
       d="m 225.2378,409.8157 c 48.2666,-9.1405 96.5332,-9.1405 144.8,0 v 26.92 c -48.2668,9.9627 -96.5335,9.6561 -144.8,0 z" />
    <path
       id="path6"
       style="fill:none"
       d="m 227.8079,411.9573 2.4042,-0.441 4.4958,-0.7716 4.4957,-0.7182 4.4956,-0.6652 4.4954,-0.6119 4.4953,-0.5587 4.4952,-0.5054 4.495,-0.4523 4.4949,-0.3989 4.4949,-0.3458 4.4948,-0.2925 4.4948,-0.2395 4.4945,-0.1862 4.4947,-0.1331 4.4946,-0.0798 4.4944,-0.0266 4.4945,0.0266 4.4946,0.0798 4.4947,0.1331 4.4946,0.1862 4.4948,0.2395 4.4948,0.2925 4.4948,0.3458 4.4949,0.3989 4.495,0.4523 4.4952,0.5054 4.4953,0.5587 4.4954,0.6119 4.4956,0.6652 4.4957,0.7182 4.4959,0.7716 2.4041,0.441 v 22.6709 l -2.4422,0.4878 -4.4927,0.8379 -4.4925,0.7784 -4.4924,0.7193 -4.4924,0.66 -4.4922,0.6013 -4.4922,0.5425 -4.4921,0.4839 -4.4921,0.4254 -4.4921,0.3673 -4.4921,0.3092 -4.4921,0.2515 -4.4921,0.1935 -4.4922,0.1362 -4.4922,0.0786 -4.4922,0.0215 -4.4923,-0.0357 -4.4925,-0.0925 -4.4926,-0.1493 -4.4928,-0.2058 -4.493,-0.2624 -4.4931,-0.3184 -4.4934,-0.3746 -4.4935,-0.4304 -4.4937,-0.4863 -4.4939,-0.5419 -4.4942,-0.5973 -4.4944,-0.6525 -4.4947,-0.7078 -4.495,-0.7626 -4.4952,-0.8175 -2.4296,-0.4713 z" />
    <path
       id="path8"
       style="fill:#ffffff;fill-rule:evenodd"
       d="m 227.7619,411.7062 2.4041,-0.441 0.003,-10e-4 4.4958,-0.7717 h 0.003 l 4.4957,-0.7182 0.003,-10e-4 4.4956,-0.6652 h 0.003 l 4.4954,-0.6119 0.003,-9e-4 4.4953,-0.5587 h 0.003 l 4.4952,-0.5055 h 0.003 l 4.4951,-0.4522 0.003,-0.002 4.4949,-0.399 h 0.003 l 4.4948,-0.3457 h 0.003 l 4.4948,-0.2925 h 0.003 l 4.4948,-0.2396 h 0.003 l 4.4946,-0.1862 h 0.003 l 4.4946,-0.133 h 0.003 l 4.4946,-0.0799 h 0.003 l 4.4944,-0.0265 h 0.002 l 4.4946,0.0265 h 0.003 l 4.4946,0.0799 h 0.003 l 4.4946,0.133 h 0.003 l 4.4946,0.1862 h 0.003 l 4.4948,0.2396 h 0.003 l 4.4948,0.2925 h 0.003 l 4.4949,0.3457 h 0.003 l 4.4949,0.399 0.003,0.002 4.495,0.4522 h 0.003 l 4.4951,0.5055 h 0.003 l 4.4953,0.5587 0.003,9e-4 4.4953,0.6119 h 0.003 l 4.4956,0.6652 0.003,10e-4 4.4957,0.7182 h 0.003 l 4.4958,0.7717 0.003,10e-4 2.4042,0.441 0.2101,0.0385 v 0.2126 22.6709 0.21 l -0.2061,0.0412 -2.4423,0.4877 h -0.004 l -4.4927,0.8379 -0.003,0.001 -4.4926,0.7785 h -0.003 l -4.4924,0.7193 -0.003,10e-4 -4.4923,0.66 h -0.004 l -4.4923,0.6013 -0.003,0.001 -4.4922,0.5424 h -0.003 l -4.4921,0.4839 h -0.003 l -4.4921,0.4254 -0.004,0.002 -4.4922,0.3673 h -0.003 l -4.4921,0.3092 h -0.003 l -4.492,0.2515 h -0.003 l -4.4921,0.1935 h -0.004 l -4.4922,0.1361 h -0.003 l -4.4922,0.0786 h -0.003 l -4.4923,0.0215 h -0.003 l -4.4923,-0.0356 h -0.003 l -4.4925,-0.0926 h -0.003 l -4.4926,-0.1493 h -0.003 l -4.4928,-0.2058 h -0.003 l -4.493,-0.2623 h -0.004 l -4.4931,-0.3185 h -0.003 l -4.4934,-0.3745 -0.003,-0.002 -4.4935,-0.4305 h -0.003 l -4.4937,-0.4863 h -0.003 l -4.4939,-0.5419 -0.003,-10e-4 -4.4942,-0.5972 h -0.003 l -4.4943,-0.6526 -0.003,-10e-4 -4.4947,-0.7077 h -0.003 l -4.4949,-0.7626 -0.003,-10e-4 -4.4952,-0.8176 h -0.003 l -2.4295,-0.4712 -0.2081,-0.0404 v -0.2108 -22.6589 -0.2126 z m 2.4931,0.0618 -2.1909,0.4019 v 22.2356 l 2.2214,0.4309 v 5e-4 l 4.4892,0.8164 v -4e-4 l 4.495,0.7626 -1e-4,4e-4 4.4887,0.7068 1e-4,-5e-4 4.4944,0.6526 -1e-4,3e-4 4.4882,0.5965 1e-4,-5e-4 4.4939,0.5419 -10e-5,3e-4 4.4908,0.486 v 3e-4 l 4.4873,0.4298 2e-4,-0.002 4.4933,0.3746 v 2e-4 l 4.4902,0.3182 v 2e-4 l 4.489,0.2621 v 2e-4 l 4.4898,0.2056 v 10e-5 l 4.4896,0.1492 v 10e-5 l 4.4895,0.0925 4.4882,0.0356 4.4874,-0.0215 4.4892,-0.0785 v -10e-5 l 4.4881,-0.136 v -10e-5 l 4.4891,-0.1934 v -1e-4 l 4.4891,-0.2514 v -10e-5 l 4.4891,-0.309 v -2e-4 l 4.4921,-0.3673 10e-5,0.002 4.485,-0.4247 v -3e-4 l 4.4892,-0.4837 -10e-5,-2e-4 4.4922,-0.5425 10e-5,5e-4 4.4852,-0.6003 -1e-4,-5e-4 4.4923,-0.6601 1e-4,6e-4 4.4864,-0.7183 -1e-4,-5e-4 4.4926,-0.7785 v 5e-4 l 4.4858,-0.8366 -1e-4,-8e-4 2.2361,-0.4465 v -22.2484 l -2.191,-0.4019 -1e-4,5e-4 -4.4958,-0.7717 10e-5,-5e-4 -4.4898,-0.7172 v 6e-4 l -4.4956,-0.6652 v -4e-4 l -4.4893,-0.6111 -1e-4,5e-4 -4.4953,-0.5587 1e-4,-3e-4 -4.4923,-0.5051 v -3e-4 l -4.4888,-0.4517 -2e-4,0.002 -4.4949,-0.399 v -2e-4 l -4.4919,-0.3455 v -3e-4 l -4.4918,-0.2923 v -1e-4 l -4.4917,-0.2394 v -10e-5 l -4.4916,-0.1861 v -1e-4 l -4.4917,-0.1329 v -10e-5 l -4.4916,-0.0798 -4.4905,-0.0265 -4.4904,0.0265 -4.4916,0.0798 v 10e-5 l -4.4916,0.1329 v 1e-4 l -4.4916,0.1861 v 10e-5 l -4.4918,0.2394 v 1e-4 l -4.4918,0.2923 v 3e-4 l -4.4919,0.3455 v 2e-4 l -4.4949,0.399 -10e-5,-0.002 -4.4889,0.4517 v 3e-4 l -4.4923,0.5051 1e-4,3e-4 -4.4953,0.5587 -10e-5,-5e-4 -4.4893,0.6111 1e-4,4e-4 -4.4956,0.6652 -1e-4,-6e-4 -4.4897,0.7172 v 5e-4 l -4.4958,0.7717 z" />
    <path
       id="path10"
       style="fill:#ffffff;fill-rule:evenodd"
       d="m 241.8712,417.8371 v 0 c 1.4471,0 2.6312,1.184 2.6312,2.6311 v 5.7885 c 0,1.4471 -1.1841,2.6311 -2.6312,2.6311 v 0 c -1.4471,0 -2.6311,-1.184 -2.6311,-2.6311 v -5.7885 c 0,-1.4471 1.184,-2.6311 2.6311,-2.6311 z m 18.0453,-1.7588 v 10.8362 c 0,2.3154 -1.8944,4.2098 -4.2098,4.2098 h -2.8504 c -2.3154,0 -4.2099,-1.8943 -4.2099,-4.2098 v -10.8362 l 3.2012,0.0249 v 10.7236 c 0,1.1095 0.908,2.0172 2.0173,2.0172 h 0.8332 c 1.1093,0 2.0172,-0.9079 2.0172,-2.0172 v -10.7236 z m 1.1317,0.002 h 9.9256 v 2.4333 h -6.4036 v 3.8102 h 6.4036 v 2.4334 h -6.4036 v 3.8101 h 6.4036 v 2.4974 h -9.9256 z m 18.0248,7.1593 c 2.4394,0.9826 3.2394,2.4151 3.3362,5.0938 v 2.7938 h -3.691 v -2.7478 c -0.0625,-2.8282 -0.9008,-4.3627 -3.4244,-3.9697 v 6.717 h -3.5254 l 0.004,-15.0161 7.223,0.0141 c 1.7175,0 3.1227,1.4052 3.1227,3.1227 v 0.8633 c 0,1.7175 -1.4052,3.1227 -3.0452,3.1289 z m -3.8888,-1.0461 h 1.5043 c 1.0717,0 1.9486,-0.8769 1.9486,-1.9486 v 0 c 0,-1.0718 -0.8769,-1.9487 -1.9486,-1.9487 h -1.5043 z m 13.5929,-4.3567 v 0 c 1.4472,0 2.6312,1.184 2.6312,2.6311 v 5.7885 c 0,1.4471 -1.184,2.6311 -2.6312,2.6311 v 0 c -1.4471,0 -2.6311,-1.184 -2.6311,-2.6311 v -5.7885 c 0,-1.4471 1.184,-2.6311 2.6311,-2.6311 z m 0,-2.1049 v 0 c 3.437,0 6.249,2.8119 6.249,6.2489 v 2.7627 c 0,3.437 -2.812,6.249 -6.249,6.249 v 0 c -3.4369,0 -6.2489,-2.812 -6.2489,-6.249 v -2.7627 c 0,-3.437 2.812,-6.2489 6.2489,-6.2489 z m -46.9059,0 v 0 c 3.437,0 6.249,2.8119 6.249,6.2489 v 2.7627 c 0,2.9597 -2.0856,5.4557 -4.8596,6.0918 0.1644,0.8659 0.6959,1.2721 1.5942,1.2184 h 2.241 v 2.0993 h -3.9078 c -2.0311,-0.1052 -2.9756,-1.3743 -2.9077,-2.6374 v -0.7302 c -2.6728,-0.7083 -4.6581,-3.1543 -4.6581,-6.0419 v -2.7627 c 0,-3.437 2.812,-6.2489 6.249,-6.2489 z" />
    <path
       id="path12"
       style="fill:#ffffff;fill-rule:evenodd"
       d="m 307.0814,417.8371 v 0 c 1.4471,0 2.6311,1.184 2.6311,2.6311 v 5.7885 c 0,1.4471 -1.184,2.6311 -2.6311,2.6311 v 0 c -1.4471,0 -2.6312,-1.184 -2.6312,-2.6311 v -5.7885 c 0,-1.4471 1.1841,-2.6311 2.6312,-2.6311 z m 18.0453,-1.7588 v 10.8362 c 0,2.3154 -1.8945,4.2098 -4.2099,4.2098 h -2.8504 c -2.3154,0 -4.2098,-1.8943 -4.2098,-4.2098 v -10.8362 l 3.2012,0.0249 v 10.7236 c 0,1.1095 0.9079,2.0172 2.0172,2.0172 h 0.8332 c 1.1093,0 2.0172,-0.9079 2.0172,-2.0172 v -10.7236 z m 1.1317,0.002 h 9.9256 v 2.4333 h -6.4036 v 3.8102 h 6.4036 v 2.4334 h -6.4036 v 3.8101 h 6.4036 v 2.4974 h -9.9256 z m 18.0247,7.1593 c 2.4394,0.9826 3.2395,2.4151 3.3362,5.0938 v 2.7938 h -3.691 v -2.7478 c -0.0624,-2.8282 -0.9008,-4.3627 -3.4243,-3.9697 v 6.717 h -3.5254 l 0.004,-15.0161 7.223,0.0141 c 1.7175,0 3.1226,1.4052 3.1226,3.1227 v 0.8633 c 0,1.7175 -1.4051,3.1227 -3.0452,3.1289 z m -3.8887,-1.0461 h 1.5042 c 1.0718,0 1.9487,-0.8769 1.9487,-1.9486 v 0 c 0,-1.0718 -0.877,-1.9487 -1.9487,-1.9487 h -1.5042 z m 13.5929,-4.3567 v 0 c 1.4471,0 2.6312,1.184 2.6312,2.6311 v 5.7885 c 0,1.4471 -1.1841,2.6311 -2.6312,2.6311 v 0 c -1.4471,0 -2.6311,-1.184 -2.6311,-2.6311 v -5.7885 c 0,-1.4471 1.184,-2.6311 2.6311,-2.6311 z m 0,-2.1049 v 0 c 3.437,0 6.249,2.8119 6.249,6.2489 v 2.7627 c 0,3.437 -2.812,6.249 -6.249,6.249 v 0 c -3.437,0 -6.249,-2.812 -6.249,-6.249 v -2.7627 c 0,-3.437 2.812,-6.2489 6.249,-6.2489 z m -46.9059,0 v 0 c 3.437,0 6.249,2.8119 6.249,6.2489 v 2.7627 c 0,2.9597 -2.0856,5.4557 -4.8596,6.0918 0.1644,0.8659 0.6958,1.2721 1.5942,1.2184 h 2.241 v 2.0993 h -3.9079 c -2.0311,-0.1052 -2.9756,-1.3743 -2.9077,-2.6374 v -0.7302 c -2.6727,-0.7083 -4.658,-3.1543 -4.658,-6.0419 v -2.7627 c 0,-3.437 2.812,-6.2489 6.249,-6.2489 z" />
    <path
       id="path14"
       style="fill:#ffffff;fill-rule:evenodd"
       d="m 297.9053,421.6996 a 2.2178,2.2178 0 0 1 2.2178,2.2177 2.2178,2.2178 0 1 1 -2.2178,-2.2177 z" />
    <path
       id="path16"
       style="fill:#e30016;fill-rule:evenodd"
       d="m 297.9053,422.3459 a 1.5714,1.5714 0 0 1 1.5714,1.5714 1.5714,1.5714 0 1 1 -1.5714,-1.5714 z" />
    <text
       id="text20"
       y="454.49039"
       x="251.4895">
      <tspan
         style="font-size:7.5px;font-family:Arial;fill:#e30016"
         id="tspan18"
         font-size="7.5000">CASA E CONSTRUÇÃO</tspan>
    </text>
  </g>
</svg>
