<svg xmlns="http://www.w3.org/2000/svg" viewBox="0.11935978382825851 0.39868640899658203 1247.971435546875 169.33543395996094"><g fill="none"><path fill="#060606" d="M704.17 79.8c1.22 1 1.6 1.53 2.08 1.63 26.6 5.54 32.72 24.31 30.69 45.51-2.18 22.85-16.59 37.16-39.64 39.72-15 1.67-30.16.44-45.24.79-2.19.06-5.06.68-4.9-2.88.13-2.93 2.76-2.58 4.57-2.26 6.31 1.09 6.69-2.36 6.67-7.36-.14-46.14-.14-92.28 0-138.42 0-5.39.15-9.87-7.36-8.25-2.16.47-4.18-.31-3.91-3.05.21-2.23 2.16-2.22 3.91-2.19 15.66.19 31.36-.3 47 .72 19.68 1.29 31.62 12.34 34.15 29.81 3.06 21.11-5.85 37.66-24.15 44.84-1.08.41-2.14.76-3.87 1.39zm-24.41 43.32c0 11.09-.06 22.17 0 33.26 0 2.55-1.22 6.15 3.58 6 16-.36 24.38-2.36 28.32-19.32 2.6-11.21 2-22.62 1.49-34-.84-19-9.49-26.49-28.3-25.67-4.24.19-5.27 1.61-5.2 5.53.24 11.46.11 22.83.11 34.2zm0-80.48v29.92c0 2.42-.74 4.94 3.25 5.64 12.75 2.22 22.7-4.36 25-17.32a98 98 0 00.65-32.33c-2.38-15.46-7.75-20.11-23.06-20.53-4.33-.12-6.14.82-6 5.55.39 9.68.16 19.36.16 29.07z"></path><path fill="#0B0B0B" d="M1039.04 24.31v125.54c0 6.72.42 13 9.63 12.63 1.56-.06 2.8.53 2.85 2.34 0 2.22-1.3 2.89-3.28 2.88h-23.94c-1.94 0-3.34-.28-3.4-2.63-.06-2.35 1.49-2.63 3.34-2.65 7.87-.09 9-5.23 8.94-11.61-.08-44.18-.08-88.363 0-132.55 0-6.07-1.52-10.13-8.48-9.83-2.28.09-4.1-.37-3.79-3.17.27-2.51 2.35-2 3.95-2 9.41 0 18.82.15 28.22-.1 4.49-.12 4.78 3.19 5.91 6 15.3 37.693 30.593 75.387 45.88 113.08.61 1.49 1.3 3 1.94 4.43 2.56-.58 1.67-2.31 1.67-3.41V20.64c0-6.49-.31-12.37-9-12.16-2 .05-3.31-.68-3.27-2.86 0-2.54 2-2.33 3.66-2.34h23.09c1.73 0 3.66 0 3.71 2.37 0 2.13-1.47 2.89-3.42 2.83-8.41-.27-8.58 5.37-8.57 11.52.06 46.18.023 92.357-.11 138.53 0 3 2.93 8.53-2.92 9-5.54.41-11.75 2.76-15.22-6.1-17.44-44.5-35.66-88.68-53.62-133-.61-1.49-1.38-2.9-2.08-4.34l-1.69.22zM163.22 167.67c-13.69 0-27.37.07-41.06-.07-2.14 0-5.76 1.58-5.71-2.76 0-3.73 3.32-2.6 5.17-2.36 5.8.78 5.56-2.7 5.55-6.72-.073-47.033-.073-94.07 0-141.11 0-4.47-.64-7.07-5.88-6.38-2.06.27-5.17.82-4.9-2.8.27-3.62 3.45-2.17 5.38-2.18 24.23-.1 48.46 0 72.69-.14 4.09 0 6.07.51 5.93 5.45-.35 13.1 0 26.22 0 39.33 0 2.33 1.06 5.39-3.22 5.45-4.12.06-3.51-2.77-3.51-5.27 0-6.27.15-12.55 0-18.81-.39-12.53-7.81-20.23-20.2-20.84-6.26-.31-12.56.21-18.8-.22-4.84-.33-5.54 1.79-5.51 5.94.16 21.1.26 42.2 0 63.29-.09 5.73 2.49 5.94 6.76 5.2 9.54-1.66 15.67-9.55 16.54-21 .17-2.32-2-6.24 3-6.44 5.54-.22 3.64 4 3.66 6.7.14 16 .09 31.93.05 47.89 0 2.65 1.13 6.12-3.66 5.95-4.27-.16-2.9-3.36-3.08-5.65-.95-12.39-6.77-19.61-17-21.46-4.23-.77-6.28-.24-6.22 4.83.22 21.087.22 42.18 0 63.28-.05 4.61 1.49 5.86 5.89 5.72 9.11-.28 18.25.12 27.36-.13 13.14-.36 20.8-8.45 21-21.84.087-6.267.087-12.54 0-18.82 0-2.67.45-4.39 3.65-4.32 3.4.07 3.24 2.14 3.22 4.62-.09 13.4-.26 26.8.05 40.19.11 4.77-1.72 5.66-6 5.59-13.78-.25-27.47-.11-41.15-.11zM556.26 19.02V7.58c0-1.94-.56-4.29 2.38-4.52 2.94-.23 2.87 1.91 2.92 4 .26 13.1.6 26.2.89 39.31 0 2.16.83 4.81-2.89 4.83-3.11 0-3.44-2.05-3.95-4.46-1.65-7.79-3.07-15.65-6.52-22.94-7-14.8-19.11-20.3-30.59-13.85-11.48 6.45-14.45 24.28-6.14 36.3 5.27 7.62 12.92 12.8 20 18.57s14.48 11.14 21.1 17.36c20.18 19 21.62 55.47 3.34 76.28-13.94 15.87-36.69 14.87-50.43-2.27-2.39-3-4.53-6.18-8-11v18c0 1.93.36 4.39-2.72 4.18-2.23-.16-2.32-2-2.32-3.84v-47.89c0-2-.09-4.08 2.86-4.21 2.6-.11 3.32 1.22 3.67 3.56.8 5.35 1.77 10.69 2.92 16a51.53 51.53 0 0010.33 21.34c6.59 8.27 14.86 12.45 25.5 9.62 10.81-2.87 15.41-11.26 16.94-21.41 1.7-11.3-1.43-21.35-9.21-30-9.84-10.89-22.26-18.64-33.41-27.92-15.87-13.22-22.31-29.88-18.5-50.19 3.9-20.8 21-34.19 39.1-31.29 10.79 1.79 16.9 9.15 22.73 17.88zm414.56 148.49h-17.08c-2.12 0-5 .87-5-2.78 0-3 2.57-2.71 4.42-2.44 6.45 1 6.92-1.72 5.35-7.17a194.38 194.38 0 01-5.66-24.95c-.89-5.92-3.61-7.26-9.06-7-8 .43-15.94.27-23.9 0-3.51-.11-5.07 1.12-5.77 4.52-1.79 8.63-3.87 17.2-5.82 25.8-1.15 5 .09 8.48 6 8.73 2 .08 4.27-.07 3.94 3-.27 2.38-2.18 2.24-3.88 2.24h-24.77c-1.8 0-3.5-.09-3.67-2.43-.17-2.34 1.15-2.92 3.16-2.92 10.34 0 12-7.76 13.86-15.4 10.867-45.333 21.737-90.69 32.61-136.07.86-3.61.26-8 6.54-7.87 5.88.16 5 4.34 5.79 7.63 10.98 47.96 21.9 95.933 32.76 143.92 1.19 5.3 2.52 9.26 9.15 7.89 1.58-.32 3.59-.19 3.78 2.23.23 2.95-1.84 3-4 3-6.22.06-12.49.07-18.75.07zM934.26 45.93l-1.27.4c-4.52 19.607-9.043 39.21-13.57 58.81-3 12.79-3 13 9.84 12.71 6.67-.14 15.74 3 19.27-1.44 2.65-3.39-1.4-12.21-2.77-18.54-3.75-17.32-7.66-34.61-11.5-51.94z"></path><path fill="#060606" d="M305.54 84.93c0-23.09-.11-46.18.1-69.26.05-5-.51-8.37-6.71-7.38-1.84.29-4.43.53-4.48-2.41-.06-3.81 3.14-2.52 5.07-2.54 11.4-.12 22.8-.09 34.21 0 1.8 0 4.47-.88 4.7 2.11.27 3.62-2.71 3.13-4.83 2.87-5.23-.67-6.62 1.26-6.59 6.58.233 46.747.233 93.493 0 140.24 0 6.15 1.81 8 7.68 7.43 5.38-.49 10.83.07 16.24-.14 12.73-.5 20.51-8.44 20.8-21.17.14-6.26.07-12.54 0-18.81 0-2.77-.07-5.23 3.86-5 3.62.25 2.86 2.84 2.85 5 0 13.39-.29 26.79-.07 40.18.08 4.41-1.62 5.14-5.49 5.12-24.52-.14-49-.06-73.54-.11-2 0-5 .93-4.86-2.83.14-3.1 2.75-2.61 4.49-2.3 6.5 1.15 6.69-2.61 6.66-7.46-.22-23.4-.09-46.78-.09-70.12z"></path><path fill="#0B0B0B" d="M1240.82 150.27c-3.21.71-3.35 3.34-4.46 5.1-9.68 15.42-27.33 18.88-42 8.09a56 56 0 01-20.13-28c-11-32.94-11.35-66 1-98.73 3.85-10.25 9.46-19.48 17.74-26.8 17.15-15.16 35.71-12 46.74 7.8.46.84.22 2.41 2.37 2.26V5.9c0-1.69.78-2.83 2.4-2.84 1.62-.01 2.45 1.05 2.46 2.77.047 14.24.123 28.483.23 42.73 0 1.92-.49 3.31-2.84 3.17-2.35-.14-2.34-1.9-2.71-3.57-1.54-6.94-2.72-14-4.87-20.75-4.36-13.71-12.66-21.51-21.63-21.22-9.79.31-17.23 8.24-20 23.35-4.49 24.52-3.3 49.38-3.13 74.14.1 14.25.27 28.5 3.79 42.46 2.73 10.84 8 16.86 16.14 17.53 9.68.79 15.14-5.33 19.28-12.93 5.66-10.39 7.7-22 10.41-33.3.57-2.35.14-5.86 3.92-5.33 3.94.55 2.17 4 2.13 6.24-.25 14.81-.63 29.62-.94 44.43 0 2.27.51 5-3.06 4.7-3-.29-2-2.89-2.12-4.72-.48-4.1.82-8.33-.72-12.49zm-425.4 17.4h-35.9c-2 0-5 1.21-5.05-2.58-.05-3.79 3.1-2.82 5-2.58 5.29.65 5.87-2 5.85-6.45-.127-47-.127-94 0-141 0-4.92-.68-7.65-6.33-6.71-1.82.31-4.37.75-4.57-2.22-.24-3.81 2.82-2.79 4.86-2.8 11.393-.067 22.787-.067 34.18 0 1.83 0 4.5-.85 4.79 2.06.35 3.5-2.47 3.38-4.69 3-6.5-1.17-6.51 2.66-6.5 7.42.11 46.44.18 92.88-.06 139.32 0 5.88 1.45 8 7.48 7.46 5.36-.53 10.82.06 16.22-.15 12.67-.48 20.61-8.52 20.91-21.14.15-6.55 0-13.1 0-19.66 0-2.09 0-4.06 2.87-4.18 2.87-.12 4 1.17 4 4.08-.12 14-.22 27.92-.09 41.88 0 4.18-2.16 4.43-5.39 4.4-12.46-.21-25.04-.15-37.58-.15zm-774.13 0c-11.68 0-23.36.1-35-.09-2.13 0-5.76 1.81-6.09-2.33-.34-4.45 3.51-3 5.53-2.75 5.42.52 5-2.77 5-6.38-.047-47.273-.047-94.547 0-141.82 0-4-.31-6.65-5.33-6.05-2 .23-5.07 1.2-5.27-2.38-.22-3.91 3.05-2.57 5-2.59 11.39-.12 22.79-.08 34.18 0 1.84 0 4.52-.73 4.68 2.17.19 3.47-2.76 3.25-4.9 2.86-6.55-1.22-6.55 2.62-6.55 7.38.1 46.42.16 92.84-.06 139.26 0 5.75 1.18 8.15 7.34 7.55 5.65-.56 11.4.12 17.08-.17 12.22-.63 19.93-8.66 20.18-20.86.14-6.55.09-13.1 0-19.65 0-2.6.32-4.43 3.55-4.46 3.45 0 3.3 2.15 3.3 4.56-.05 13.39-.19 26.78.07 40.16.08 4.61-1.56 5.78-6 5.69-12.22-.27-24.46-.1-36.71-.1zm380.06-82.74c0-23.06-.08-46.12.07-69.18 0-4.77 0-8.58-6.51-7.44-1.89.33-4.28.34-4.32-2.6 0-3.23 2.6-2.42 4.36-2.43 11.387-.067 22.777-.067 34.17 0 2.11 0 5.16-.77 4.87 2.86-.21 2.72-2.76 2.54-4.68 2.21-5.71-1-6.34 1.87-6.33 6.73.167 46.667.167 93.36 0 140.08 0 5 .48 8.41 6.72 7.3 1.92-.34 4.28-.41 4.27 2.62-.01 3.03-2.26 2.65-4.26 2.65h-35c-1.95 0-4.21.28-4.12-2.78.09-3.06 2.64-2.75 4.36-2.43 6.73 1.24 6.47-2.89 6.45-7.51-.11-23.41-.05-46.75-.05-70.08z"></path></g></svg>