<svg xmlns="http://www.w3.org/2000/svg" viewBox="0 0.0994110107421875 354 154.99896240234375"><g fill="none"><path fill="#204F96" d="M8.75 4.85L.05 9.5 0 63.75V118h20V59c0-46.6-.25-59-1.25-58.9-.7.05-5.2 2.2-10 4.75z"></path><path fill="#204F96" d="M61 32.55c-42.45 11.9-40.35 78.05 2.8 86.5 31.1 6.1 55-15.25 52.95-47.35C114.9 43.25 88.65 24.8 61 32.55zM80.5 49.1c17.65 4.9 21.6 42.3 5.4 50.95-15.15 8.1-31.45-.7-33.95-18.4C48.7 59.1 62 44 80.5 49.1z"></path><path fill="#4FA839" d="M288.5 32c-6.1 1.3-9.45 2.8-14.7 6.55L269 42v-9h-19v81h19V88.25c0-29.25.25-30.3 7.8-35.65 10.4-7.35 24.15-2.8 27.1 9 .65 2.5 1.1 14.45 1.1 28.35V114h19.15l-.35-31.25c-.35-34.85-.5-35.75-7.5-42.95-6.3-6.45-18.3-9.85-27.8-7.8z"></path><path fill="#204F96" d="M151.5 34.35c-24.8 8.2-35.15 36.65-23.4 64.35 7.2 16.95 35.45 25.15 51.05 14.8 4.85-3.2 4.85-3.2 4.85 1.35 0 10.75-9.85 22.1-19.25 22.15-2.1 0-2.15 1.55-.6 11.05 1.35 8.15 2.05 8.45 12.7 4.85 11.35-3.85 21.35-15.5 25.55-29.85 2.55-8.65 2.4-9.05-3.4-9.05h-5V93h11V33h-20v5.75l-6.25-2.55c-7.5-3.05-20.85-3.95-27.25-1.85zm23 17.5c2.2 1 5.5 3.5 7.25 5.55l3.25 3.65v28.9l-3.4 3.4c-10.8 10.8-28.5 8.65-34.35-4.15-6.85-14.95-1.65-32.05 11.25-36.95 6.6-2.55 11.05-2.65 16-.4z"></path><path fill="#4FA839" d="M220 63v30h11v21h8V33h-19z"></path><path fill="#204E94" d="M333 103.5V114h21V93h-21z"></path></g></svg>