<svg xmlns="http://www.w3.org/2000/svg" viewBox="0.25999999046325684 0.26337289810180664 1795.1259765625 244.44094848632812"><g fill="none"><path fill="#1A1819" d="M484.77 243.52c-2.95-5.14-8.64-4.07-13.09-5.35a141.07 141.07 0 01-41.67-19.32c-16.4-11.35-16.39-11.37-3.31-26.73 17.16-20.15 17-19.88 39.4-8.52a128.16 128.16 0 0084 12c11.3-2.15 21.26-6.81 22.49-20.18 1.34-14.47-8.52-21-20.18-23.68-21.74-5-44-7.77-65.71-13.06-44.18-10.78-63.56-38.85-56.35-80.34 4.58-26.37 21.1-44 45.88-50.68 43.77-11.87 87.2-10.32 128.68 11 11.38 5.85 14.5 11.36 4.58 21.74-7.14 7.46-10.94 19.66-19.25 24.13-7.94 4.26-16.79-6.73-26-9.06-20.84-5.25-41.65-9.77-63.15-3.76-9.37 2.63-16.34 7.28-16.74 18.15-.37 11.13 5.67 17.31 15.47 21.11 18.32 7.13 38.12 6.61 56.89 11.35 9.08 2.3 18.34 4 27.22 6.93 25 8.12 40.82 25 43.54 51.39 2.58 25.13-4.39 47.21-25.56 63.44-13.56 10.41-29.73 14.16-45.36 19.44h-71.78zM54.35 7.34c1.44 61.45 1.32 122.89 0 184.34.94 9.32 8.15 6.91 13.62 6.94 28.3.15 56.6.34 84.89-.08 9-.13 12.62 2.79 12.08 12-.59 9.89-.15 19.84-.15 29.77L.26 240.6V4.27l50.9.23 3.19 2.84z"></path><path fill="#9A9A9A" d="M801.78 243.52c0-69.63.3-139.25-.34-208.87-.09-12.72 3.73-16.08 15.91-15.48 19.84 1 39.77.18 59.66.29 30.8.16 52.45 13.46 60.4 36.91 9 26.45 1.72 48.53-23.32 69.12 29.62 14.29 39.33 38.43 34.54 69.48-4.07 26.39-22.78 39.2-45.19 48.55H801.78zm21.75-65.79c0 14-.07 25.39 0 36.82 0 5-.1 10.77 7.15 10.62 20.82-.42 41.79 2.52 62.41-1.64 21.82-4.4 33.88-20.12 33.82-42.52-.06-21.9-12.84-37.56-34.13-42.81-8.38-2.07-16.76-2.3-25.14-1.81-14.14.83-32.08-6.27-41.4 3.45-8.66 9.06-1.46 26.65-2.71 37.89zm0-99.43c0 9.47.28 18.94-.08 28.4-.33 8.47 3.33 11.37 11.61 11.11 14.94-.47 29.91.29 44.84-.29 23-.89 38.41-17.2 38.12-39.45-.3-22.64-15.46-37.44-39-38.05-5.48-.14-11-.09-16.44-.09-39.07-.02-39.07-.01-39.06 38.41l.01-.04zm181.61 165.22c-.233-71.613-.48-143.227-.74-214.84 0-5.9 1.58-9.52 8.34-9.24 28.27 1.15 56.68-2.52 84.85 2.3 28.77 4.93 43.87 20.55 49.84 51.5 4.83 25.08-6.88 53.52-28.91 65.34-10.18 5.46-11.76 8.82-5.91 19.52 15.42 28.24 33.19 55.3 45.06 85.42h-23.93c-10-18.33-22.63-35.73-29.45-55.18-11.54-32.86-32.63-43.49-65.62-38.19-9.16 1.47-12.88 2.78-12.67 12.73.58 26.87.12 53.76.08 80.64h-20.94zm21.09-158.79c0 12 .29 23.93-.11 35.88-.23 7.14 2.48 9.65 9.54 9.49 16.44-.38 32.92.38 49.33-.37 23.76-1.1 39.92-20 39.78-45.43-.14-25.55-14.92-42.61-39.18-43.89-16.41-.86-32.89-.06-49.32-.59-8-.26-10.46 2.92-10.16 10.53.45 11.45.12 22.92.12 34.38zm152.37 158.79c26.4-71.747 52.76-143.513 79.08-215.3 2.46-6.73 6-9.72 13.07-8.83 6.41.8 13.47-2.32 17 7.4 26.16 72.34 52.8 144.51 79.28 216.73h-23.92c-7-20-14.26-40-20.91-60.16-2.46-7.48-6.85-9.56-14.33-9.43-23.287.4-46.583.4-69.89 0-7.45-.12-11.88 1.92-14.37 9.4-6.7 20.17-14 40.13-21.06 60.18l-23.95.01zm94.49-196.25c-12 32.64-23.4 63.77-34.75 94.93-1.92 5.26-6.55 11.78 5 11.68 19.85-.15 39.7-.1 59.56 0 6 0 8.12-2 5.89-8.1-11.91-32.51-23.62-65.08-35.7-98.51zm150.75 196.25c-9.22-5.75-19.41-9.77-27.92-16.81-5.84-4.84-6.43-8.8-1.54-14.9s8.08-8.25 15.46-2.75c19.4 14.45 41 22.62 65.65 16.44 14.92-3.75 25.8-12.16 29.6-28.22 3.8-16.06-1.94-28.18-14.11-38.09-12.56-10.22-27.83-15.33-42.15-22.21-7.62-3.66-15.53-6.76-22.92-10.83-22.41-12.31-35.65-30.06-32.09-57 3.42-25.82 20.11-41 43-48.7 27.36-9.18 53.83-4.8 78.83 10.13 9.66 5.77 6.42 11.17 2.79 18.34-4.52 9-8.92 4.23-14 1-18-11.46-37.23-16.3-58.31-9.81-16.13 5-27.35 15.34-29.79 32.1-2.36 16.28 7.54 27.58 20.71 35.06 12.06 6.86 25.14 11.93 37.78 17.77 5 2.3 10.07 4.33 14.91 6.87 21.75 11.39 38.49 26.17 39.34 53.39.88 27.94-13.2 45.8-36.48 58.24l-68.76-.02zm242.24 0c.127-70.24.247-140.477.36-210.71 0-7.21-.89-13.61 10.16-13.702 10.4-.078 13.59 2.942 13.5 13.492-.48 56.29-.22 112.58-.22 168.88 0 3.48.38 7-.07 10.45-1.34 10.18 2.31 14 13.08 13.65 24.38-.75 48.86.69 73.2-.58 14.8-.77 21.62 3 18.59 18.52h-128.6zm-86.73 0c0-70.28-.037-140.553-.11-210.82 0-7.11-1.16-13.52 10.06-13.621 11-.099 11.87 5.001 11.82 13.671-.44 70.26-.6 140.51-.84 210.77h-20.93z"></path><path fill="#FBFAF8" d="M.28 240.53l164.53-.29 5.65-.41c.09 1.23.19 2.46.29 3.69-53.37 0-106.74.12-160.11-.32-3.04-.03-8.77 4.79-10.36-2.67z"></path><path fill="#9A9A9A" d="M251.41 240.42l.09 3.1h-53.83l.54-3.51z"></path><path fill="#1A1819" d="M251.41 240.42l-53.2-.41c-.193-76.633-.373-153.263-.54-229.89 0-2.31-.56-5.13 3.08-5.48 1 1.53 2 1.5 2.85-.14 40.25-.16 80.52-.95 120.75-.16 35.71.73 70.23 30 75.83 66.22 6.22 40.26-10.76 78.21-44.35 93.9-5.72 2.67-11.52 6-18.37 4.62l-5.11 2.31c-4.87 1-9.74 2.2-14.75.88-19.43-7.47-39.53-2.11-59.31-2.93-1.27-.05-2.66 2.52-4 3.87-3.11 17-.51 34.23-1.47 51.32-.32 5.31 1.36 10.81-1.41 15.89zm.44-185.22a486.26 486.26 0 010 68.6c-2.52 1.4-1.45 2.2.48 2.85l2.3 1.62c1.47 5.19 5.79 5.15 9.63 4.5 14.56-2.45 30.16 5.61 44-4.33 25.08-5.47 34.09-13.52 36.31-32.46 3.21-27.39-6.84-39.1-39.32-45.78-16.92-6.48-33.78-7.26-50.57.47l-2.33 1.67c-2 .66-3 1.49-.5 2.86z"></path><path fill="#E23433" d="M672.29 128.97c.06-21.86 17.06-38.63 38.87-38.4 22.64.26 40 17.85 39.45 39.93-.55 21-18.93 38.39-40.14 37.9-22-.51-38.26-17.31-38.18-39.43z"></path><path fill="#000" d="M170.46 239.83l-5.65.41c0-9.93-.44-19.88.15-29.77.54-9.18-3.1-12.1-12.08-12-28.29.42-56.59.23-84.89.08-5.47 0-12.68 2.38-13.62-6.94 10.89 5 22.38 1.88 33.56 2.16 21.74.55 43.57 1.25 65.22-.21 15-1 18.85 4.29 17.23 18.11-1.03 9.28-.03 18.78.08 28.16zm83.81-66.62c1.33-1.35 2.72-3.92 4-3.87 19.78.82 39.88-4.54 59.31 2.93l-63.31.94zM54.35 7.34l-3.14-2.8c2.14-.31 3.5.22 3.14 2.8zM203.6 4.5c-.87 1.64-1.82 1.67-2.85.14a2.52 2.52 0 012.85-.14zm128.75 166.89l5.14-2.29c-1.14 2.14-2.98 2.6-5.14 2.29zm-77.73-43.12l53.58.17c-13.79 9.94-29.39 1.88-44 4.33-3.79.65-8.11.69-9.58-4.5zm50.57-78.07l-50.57.47c16.79-7.73 33.65-6.95 50.57-.47zm-52.84 2.14a3.6 3.6 0 01-.45 2.86c-2.55-1.37-1.55-2.2.45-2.86zm-.51 71.46a3.59 3.59 0 01.48 2.85c-1.97-.65-2.97-1.45-.48-2.85z"></path></g></svg>