<svg xmlns="http://www.w3.org/2000/svg" viewBox="75 72 450 101"><path fill="#D31217" fill-rule="evenodd" d="M114.28 93.878c11.562-2.901 13.145 4.156 12.75 7.92-.872 7.842-1.98 10.194-3.723 17.722 7.445-10.664 15.839-26.426 28.114-26.19 2.85-.08 5.702 1.254 5.702 1.254 10.453 6.744.792 20.702-7.128 19.369-4.83-.785-5.622-3.45-6.177-8.077-.712-1.725-3.722-1.49-5.385.313-8.711 9.489-14.809 22.898-14.809 22.898s-4.276 11.057-9.107 20.153c0 0-1.346 1.803-4.672 2.196l-11.087-.079c-3.643-.314-2.851-2.823-2.851-2.823s13.146-39.051 13.067-41.168c.237-1.255-.08-4.784-3.564-3.059-4.593 2.275-4.752 5.411-9.662 9.097 0 0-2.534 1.176-2.534-1.569 1.743-4.626 11.483-15.683 21.066-17.957zM75 122.5C75 94.662 97.807 72 126 72c28.113 0 51 22.584 51 50.5 0 27.838-22.807 50.5-51 50.5s-51-22.584-51-50.5zM479.62 152c1.34-.309 3.152-.386 4.491-.386.946 0 4.727.386 4.727.386v-28.033h2.049l6.933 8.109 9.848 12.279c1.812 2.394 3.466 5.02 5.436 7.645 1.497 0 3.624-.463 5.278-.463 1.733 0 4.727.386 6.618.463l-11.424-13.978-11.896-14.827c7.485-1.467 16.86-6.564 16.86-16.526 0-8.727-6.067-13.669-19.617-13.669h-19.145v59h-.157zm9.14-54.058c3.624-.386 8.587-.308 11.58.155 6.067.927 8.903 4.402 8.903 9.807 0 6.101-4.49 9.962-10.32 11.12-4.097.773-8.982.387-10.085.31V97.942h-.078zM209 152c1.34-.309 3.151-.386 4.412-.386.945 0 4.727.386 4.727.386v-28.033h1.97l6.932 8.109 9.848 12.279c1.891 2.394 3.467 5.02 5.436 7.645 1.497 0 3.546-.463 5.279-.463s4.727.386 6.618.463l-11.424-13.978-11.975-14.827c7.484-1.467 16.86-6.564 16.86-16.526 0-8.727-6.067-13.669-19.539-13.669H209v59zm9.139-54.058c3.624-.386 8.587-.308 11.581.155 6.066.927 8.903 4.402 8.903 9.807 0 6.101-4.412 9.962-10.321 11.12-4.097.773-8.981.387-10.084.31V97.942h-.08zm227.605.927l11.817-.077c2.837-.077 11.109 1.158 11.109 1.158-.079-.85-.473-2.625-.473-3.475 0-.85.315-2.317.394-3.243h-31.828v58.614H469.3c-.079-.85-.315-2.24-.315-3.09 0-.849.236-2.78.315-3.783-2.757.463-10.557 1.003-13.314 1.08-5.436.155-4.648.31-10.163.155v-22.936h8.272c2.679 0 10.005.386 12.684.464-.079-.927-.236-1.777-.315-2.78-.079-.541.236-2.626.315-3.321-2.679.231-7.957.463-10.714.463h-10.242V98.87h-.079zM422.739 93c-.866.077-2.52.309-3.387.309s-2.364-.232-3.23-.309v42.937l-40.18-42.86h-4.49V152c.787-.077 1.417-.232 2.284-.386 1.497-.309 3.388.309 4.254.386l-.079-44.327 37.186 39.848c1.891 2.008 2.758 3.012 3.782 4.247h3.781V93h.08zm-152.446 5.87l11.818-.078c2.836-.077 11.108 1.158 11.108 1.158-.078-.85-.472-2.625-.472-3.475 0-.85.315-2.317.394-3.243h-31.829v58.614h32.538c-.08-.85-.315-2.24-.315-3.09 0-.849.236-2.78.315-3.783-2.837.463-10.557 1.003-13.394 1.08-5.436.155-4.648.31-10.163.155v-22.936h8.273c2.678 0 10.005.386 12.684.464-.079-.927-.237-1.777-.315-2.78-.08-.541.236-2.626.315-3.321-2.679.231-7.957.463-10.715.463h-10.242V98.87zM356.246 93c-.867.077-2.521.309-3.388.309-.866 0-2.442-.232-3.23-.309v42.937l-40.258-42.86h-4.49V152c.787-.077 1.417-.232 2.284-.386 1.497-.309 3.388.309 4.254.386l-.078-44.327 37.185 39.848c1.891 2.008 2.758 3.012 3.782 4.247h3.782V93h.157z"></path></svg>