<svg xmlns="http://www.w3.org/2000/svg" viewBox="0.4732475280761719 0.6204919815063477 1318.093017578125 325.728515625"><g fill="none"><path fill="#033A47" d="M689.24 219.14c15.29-40.61 29.48-79.47 44.63-118 5.52-14 19.1-15.74 32.34-16.93 13.24-1.19 18.07 7.87 21.93 17.87a16559.088 16559.088 0 0136.88 96.64c2.57 6.78 7.66 15.84-1 19.66-9.32 4.1-20.43 2.88-27.47-7.19-4-5.75-3.25-15.64-14.11-15.25-16.56.59-33.13.78-49.68 1.51-1.33.06-3.33 2.85-3.66 4.62-4.65 25.23-22.92 16.55-39.86 17.07zm90.22-51.4l-19.76-52.28-19.78 52.28h39.54zm420.73-15.77c0-18.7.84-37.44-.26-56.07-.91-15.39 9-12.13 17.45-12 8.45.13 19.5-3.39 17.36 12.1a60.45 60.45 0 000 8.3c.08 38.58 0 38.05 37.34 34.1 10.18-1.08 13.15-4.38 12.26-13.91-.7-7.55-.17-15.22-.14-22.83.06-15.8 15.06-24.43 29.83-17.55 6.3 2.93 4.06 8.13 4.08 12.45.19 36.7-.62 73.41.44 110.07.49 16.63-9.93 12.41-18.91 13.3-10.63 1-17.78-.83-15.51-13.91.46-2.69.06-5.53.06-8.3 0-35.5 0-35-34.6-34.81-11.51.06-16.43 2.9-15 14.88.82 6.82-1 14 .35 20.71 4 20.26-6.46 23-23.09 21.63-8.78-.72-12.11-2.89-11.8-12.06.58-18.71.14-37.41.14-56.1zm-641.65-13.28c0 11.77.16 23.54 0 35.31-.43 25.31-11.66 40.36-35.94 46.17-19.86 4.75-39.69 4.64-58.67-4.9-14.25-7.17-22.66-18.48-23-34.24-.68-27.68.25-55.39-.49-83.06-.47-17.09 11.27-9 18.53-10.14 8.36-1.27 17.36-3.09 15.78 10.77-.54 4.79-.08 9.69-.08 14.53 0 75.79 1.65 81.87 26.1 80.08 28.42-2.07 23.16 7.61 23.68-79.88 0-5.54.6-11.16-.1-16.61-2.13-16.55 9.55-12.61 18.65-13.29 10.2-.75 17.22.09 15.91 13.75-1.31 13.66-.37 27.66-.37 41.51zm573.17 84c-45.84 3.59-74.16-25.4-74.9-69.84-.77-46.17 25.06-72 71.71-71.83 13.32.06 26 3.06 38.79 6.24 13.79 3.42 14.86 10.55 11.06 23-2.63 8.6-5.3 9-12.67 6.61-14.25-4.74-29.07-5.48-44.11-6.18-15.57-.72-22.38 7.8-26.81 19.77-15.16 40.94 6.83 67.95 49.83 61.59 6.16-.91 12.46-1.71 18.3-3.72 7.62-2.63 13.83-6.28 15.63 6.59 1.29 9.26 5.37 16.95-8.18 20.8-13.55 3.85-26.61 7.36-38.65 6.97zm-185.16-73.15c1.11-18-4.8-39.39 16.17-55.26 13.26-10 65.46-18.92 79.17-10.18 6.25 4 2.17 8.61 1.83 12.8-.7 8.62-5.2 13.74-14.61 13.68-11-.07-22.15-.56-33.06.67-11.53 1.31-16.25 9-15 20.6 1.45 13 11.29 6.28 17.41 7.25 6.75 1.06 13.79.4 20.7.2 8.66-.25 16.1-1.11 15.93 12.18-.15 11.79-5 14-15 13.28a149.46 149.46 0 00-22.79 0c-6.49.53-15.94-4.31-16.51 8.92-.47 11 4.11 17.82 14.38 19.06 10.88 1.32 22.2 1.87 33 .34 13.72-1.94 14.06 6.71 15.82 15.72 2.18 11.12-4.25 13.16-12.93 13.1-14.49-.08-29.52 2.16-43.35-.92-32.29-7.18-43.92-23.71-41.34-48.49.78-6.8.18-13.78.18-22.95zm-362.02 1.07c0-4.15-.24-8.32 0-12.45 1.19-17.64-7.55-45.73 3.47-50.77 21.35-9.79 48.93-6.28 73.14-1.29 24.68 5.07 40.26 28.98 37.78 50.98-2.64 23.07-22.09 38.28-50.57 39.51-2.77.12-5.62.56-8.29.06-17.79-3.37-23.07 4.42-20.92 21.33 1.43 11.25 3.7 22.83-16 22.43-16.08-.33-20-5-18.85-20 1.24-16.52.24-33.2.24-49.8zm34.82-22.25c0 27.07 0 26.9 16.2 26.87 16.86 0 28.1-9.21 29.13-24.75 1.25-19-14.38-19.1-28.84-20.67-19.15-2.07-17.35 9.47-16.49 18.55zm257.83-44.52c13.82 0 27.67.4 41.48-.13 10.75-.4 17.66-.15 17.33 14.73-.29 13.46-6 15.7-16.24 13.92-20.82-3.63-25.54 5.42-23.93 24.82 1.88 22.66-.66 45.66.79 68.39 1 15.62-7.68 15-17.78 14-8.88-.85-21.51 5.61-20.32-13.35 1.51-24.11-.84-48.46.76-72.55 1.16-17.38-4.18-24.25-21.46-21.25-14 2.42-19.82-2.49-18.71-17.66.71-9.65 4.13-11.37 12.45-11.11 15.19.53 30.37.19 45.63.19zm-752.4-23.38c1.1 17.94-9.69 32.44-14.32 48.73-6.42 22.54-13.72 44.73-15.38 68.35-2.93 41.88 10.4 60.34 50.39 73.49 12.53 4.12 28.33-.86 37.66 12.63-6.83 4.09-14.36 4.24-22 4.21a535 535 0 01-106.58-11.49l-3.54-3c1-1.8 2.62-3.53 2.81-5.41 6.32-62.11 31.13-118 58.06-173.2 2.85-5.79 3.86-13.81 12.9-14.31z"></path><path fill="#0F1099" d="M124.78 60.46c-9 .5-10.05 8.52-12.9 14.35-26.96 55.18-51.74 111.09-58.06 173.2-.19 1.88-1.84 3.61-2.83 5.39-13.55-3.11-23.87-11.9-34.82-19.58a9.54 9.54 0 00-.83-3.36c5.44-15.66 10.23-31.6 16.45-47 21.71-53.62 58.87-98.19 88.34-147.25 4.76-7.93 12.23-20.15 25.27-22.09-.87 18.16-13.25 31.14-20.62 46.34z"></path><path fill="#03BEE5" d="M145.4 14.17c-13 1.94-20.51 14.16-25.27 22.09-29.47 49.06-66.63 93.63-88.34 147.25-6.22 15.35-11 31.29-16.45 47-20.31-20.26-16.67-43.56-7.59-66.85 12.41-31.84 32.94-58.55 55.39-83.89a800.14 800.14 0 0174.7-74.22c2.94-2.54 6.27-7.28 10.42-3.55 5.32 4.73-.92 8.27-2.86 12.17z"></path><path fill="#033A47" d="M335.37 136.01c0-11.76 1.13-23.65-.27-35.24-1.9-15.58 5.06-17.48 18.59-17.79 14.46-.34 17.3 4.91 16.71 17.82-1 20.7.48 41.52-.43 62.23-1.18 26.72 1.41 30 32.5 31.61 7 .35 15.93-5.85 20.81 2.63 3.26 5.65 5.29 13.55 4.17 19.78-1.46 8.2-10.27 4.76-15.89 5.08-10.32.57-20.8.84-31-.31-31.41-3.52-45.11-19.22-45.15-50.53-.06-11.76-.04-23.52-.04-35.28z"></path><path fill="#05953D" d="M54.55 256.38a535 535 0 00106.54 11.49c7.68 0 15.21-.12 22-4.21 19.46-3.51 38.87-4 58.23.72-57.12 23.92-116.4 36.79-178.63 35.26a12.77 12.77 0 00-2-2.29c-3.09-13.51-8.38-26.68-6.14-40.97z"></path><path fill="#F9D206" d="M62.69 299.64c62.18 1.53 121.51-11.34 178.67-35.26l12.82-.82c-5.94 10.94-15.49 13.39-23 17.78-33.42 19.61-67.7 37.66-106.59 43.59-25.16 3.85-48.67 1.24-61.9-25.29zm-8.14-43.26c-2.24 14.29 3.05 27.46 6.09 41-38.45-2.11-54.28-24.73-44.47-63.53 11 7.68 21.27 16.47 34.82 19.58l3.56 2.95z"></path></g></svg>