<svg xmlns="http://www.w3.org/2000/svg" viewBox="0.3800000250339508 0.6481611728668213 1122.7802734375 185.8467254638672"><path fill="#0B1F72" d="M368.33 20.26c29.28.09 58.56.07 87.84.33 17.19.15 31.76 12.82 36.93 31.58 4.95 17.93-.16 32.93-15.26 42.2-3.32 2-3.11 3.62-1.09 5 16.62 11.36 16.39 28.85 17.23 46a76.66 76.66 0 001.33 13.23c1.48 6.52 0 8.86-7.26 8.59-24.17-.93-22.91 4.31-25.55-23-2.93-30.43-8.66-35.3-38.88-34.36-24 .74-24 .15-24 23.91 0 8.87-.31 17.76.05 26.61.22 5.26-1.76 6.69-6.69 6.31a173.58 173.58 0 00-20.39-.56c-5.08.21-5.83-2-5.76-6.35.15-10-.12-20.08-.22-30.13v-12.41c.74-30.77 1.13-61.55.36-92.32.48-1.54.92-3.09 1.36-4.63zm58.56 66.43c5.39 0 11-.47 16.59.11 9.59 1 14.27-4.13 16.55-12.37a30.42 30.42 0 00-.78-20c-2.68-6.58-7-10.47-14.77-10.16-8.83.35-17.69-.16-26.54-.3-16.38-.25-16.58-.25-16.59 16.52 0 8.15-3.85 18.66 1.4 23.84s15.77 1.17 24.14 2.36zm588 63.9c-.75.43-1.81.68-2.21 1.33-2.67 4.4-2 12.2-7.38 13.17-8.58 1.56-17.68.91-26.49.3-5.12-.36-1.55-4.11-.85-5.91 6.26-15.94 12.81-31.76 19.17-47.66 11.12-27.82 22.35-55.6 33.09-83.57 1.74-4.54 4.14-5.61 8.21-5.35h.88c25.72-.35 25.79-.38 35.56 23.33 11.56 28.06 22.53 56.39 34.75 84.16 4.3 9.78 8.39 19.63 12.58 29.45 2.38 5.57.11 5.69-4.32 5.86-27.66 1.09-27.73 1.18-37-25.84-1.6-4.63-3.62-6.85-9.09-6.66-14.17.47-28.4.7-42.55-.07-9.69-.54-13.28 3.81-13.79 12.48l-.56 4.98zm33.6-94.25c-6.69 17.92-12.48 33.48-18.3 49-1.38 3.68 1 4 3.58 4h34.68l-19.96-53zM.38 94.14a15.52 15.52 0 014.51-9.37c8.87-8.68 17.7-17.38 26.43-26.2 5.94-6 11.83-6 17.74-.2 8.83 8.72 17.69 17.42 26.3 26.35 6.23 6.47 6 11.62-.49 18.3-7.96 8.273-15.96 16.52-24 24.74l-1.79 1.88.05-.05-1.99 1.91a1.64 1.64 0 00-1.31.74l-7.17 1.3-5.37-2.12c-1.08-1.9-2.22-3.73-4.51-4.39l-.26.81.2-.82a15 15 0 00-6.14-6.09l-2-1.94a9.83 9.83 0 00-5.07-5.18 20.14 20.14 0 00-7.22-7.19 5.27 5.27 0 00-3.4-3.42C3.07 100.34.95 97.62.38 94.14zm78.95 83.46c-6.91-7.2-13.84-14.37-20.71-21.6-6.87-7.23-7.09-11.67-.14-18.9 8.57-8.93 17.49-17.51 26.22-26.27 4.94-5 10.63-6.05 15.59-1 11.48 11.67 24.6 21.94 33.89 35.67-1.787.667-1.787 1.333 0 2-10 14.26-23.42 25.24-35.92 37.06-3.33 3.15-7.83 2.11-11.46-.66-2.56-1.95-4.94-4.14-7.4-6.22l-.07-.08zM51.1 39.22C61.51 26.08 74.65 15.65 86.37 3.81 91-.87 96.73-.11 101.43 4.48c9.5 9.3 19 18.65 28.23 28.21 4.85 5 4.92 10.6-.08 15.7-8.89 9.08-17.8 18.15-26.94 27-6.65 6.44-11.62 6.39-18.37-.13C73.1 64.5 62.14 53.5 51.09 42.5c.01-1.07.01-2.17.01-3.28zm908.79 14.12c2.41 9.2-1.59 12.15-10.35 10.9a27.26 27.26 0 00-8 .34c-6.72 1-11.69.55-13.74-7.82-1.77-7.25-8.48-10.41-15.46-11.64a47.85 47.85 0 00-21.08.72c-6.83 1.86-12.44 4.57-12.39 13 .05 7.54 6.1 10.21 11.34 12a356 356 0 0034.94 9.46c25.8 5.85 40.32 21.86 39.81 44.54-.46 18.448-12.829 34.467-30.56 39.58-24.92 6.9-49.32 7-71.58-8.06-11.22-7.7-15.93-19.86-18.3-32.86-.55-3 .61-4.39 3.63-4.61a95.07 95.07 0 0011.46-1.18c8.6-1.69 13.79-.68 17.41 9.57 6.5 18.38 39.6 23 53 8.54 8.16-8.82 6.22-19.59-4.76-24.54-10.98-4.95-22.75-6.22-34.09-9.48-8-2.29-15.82-4.88-23-9.11-25.17-14.86-25.52-50.12.2-63.88 23.33-12.48 47.86-11.41 71.66-.36 10.46 4.86 16 14.47 19.87 25l-.01-.11zM516.01 93.83c0-21 .19-42-.12-62.95-.08-5.81 1-8.19 7.58-8.11 31.91.37 63.84.32 95.76.05 5.83-.05 7.44 1.6 7.41 7.4-.09 16.81.18 16.81-16.63 16.81-18.92 0-37.84.19-56.75-.12-5.36-.08-7 1.39-7.1 6.88-.51 24.81-.7 24.81 23.71 24.8 14.19 0 28.39.27 42.56-.18 6.37-.21 8.81 1.29 8.68 8.22-.32 16.21 0 16.23-16.41 16.24-17.14 0-34.29.2-51.42-.13-5.37-.1-7.36 1.32-7.08 6.88.47 8.263.47 16.547 0 24.81-.38 6 1.89 7.47 7.53 7.41 22.17-.25 44.35.25 66.5-.26 7.31-.17 9.73 1.53 9.43 9.13-.59 14.91-.14 14.93-15.06 14.93-30.45 0-60.89-.17-91.33.15-5.81.06-7.51-1.28-7.41-7.23.37-21.57.14-43.15.15-64.73zm194.65 33.13c6.58-21.27 12.43-41.91 20.33-61.88 4.83-12.2 9.13-24.61 13.68-36.93.8-2.15 1-5 4.09-5.09 8.56-.17 17.2-.74 25.68.11 5.75.58 1.86 5 1 7.3-11.72 31.87-23.64 63.66-35.51 95.47-4.46 12-9 23.89-13.36 35.88-.93 2.57-2.32 3.89-5.1 3.88-8.27-.05-16.55-.15-24.81 0-5.69.13-5.47-4.64-6.68-7.86-14-37.29-28-74.6-41.68-112-2.68-7.35-10.21-16.46-6.32-21.65 2.95-3.92 14.9-1 22.83-1.31 4.77-.18 7.45.43 9.44 6.25 11 32 22.83 63.79 34.41 95.62.23.52.76.87 2 2.21zM822.89 94.8c0 21.27-.16 42.54.12 63.81.08 5.35-1.39 7-6.88 7.16-23.24.55-23.24.73-23.24-22.43 0-37.52.09-75-.14-112.56 0-5.89 1.18-8.12 7.7-8 22.49.29 22.49 0 22.49 22.42-.033 16.52-.05 33.053-.05 49.6zm-636.86-.3c.25 4-3.56 7.07-6.41 10.11-7.63 8.16-15.85 15.75-23.92 23.49-7.09 6.79-11.8 6.76-18.93-.24-8.64-8.47-17.13-17.09-25.72-25.61-5.54-5.51-6.2-11.33-.63-17.05 9.05-9.31 18.32-18.4 27.52-27.56 5.36-5.33 11-5.38 16.37-.22 9.54 9.23 18.87 18.69 28.23 28.12a11.53 11.53 0 013.49 8.96zm86.3 12c0-17.14-.34-34.29.15-51.42.19-6.85-2.06-8.61-8.58-8.22-9.42.57-18.91-.08-28.36.28-5.51.2-7.73-1.08-7.66-7.29.2-16.92-.13-16.92 16.29-16.92 31.33 0 62.65.16 94-.2 6.67-.07 8.46 1.76 8.32 8.4-.34 15.83 0 15.85-15.77 15.88-6.79 0-13.64.52-20.37-.14-6.94-.68-8.33 2-8.27 8.43.3 33.68-.05 67.38.34 101.06.08 7.1-1.29 9.66-9 9.46-21-.53-21-.13-21-21.2-.04-12.693-.07-25.4-.09-38.12z"></path></svg>