<svg xmlns="http://www.w3.org/2000/svg" viewBox="0.376938134431839 0.2872925400733948 1357.5096435546875 274.108154296875"><g fill="none"><path fill="#D41036" d="M1182.05 131.32c0-39.75-.1-79.51.06-119.26.05-13.43 1.13-11.51 11.72-11.68 10.55-.17 21.11-.06 31.67-.03 7.9.02 8.74.88 8.75 8.56 0 20.64.08 41.28-.08 61.92-.03 3.38.68 4.38 4.26 4.18 17.53-.97 35.09-2.06 52.64-.96 13.6.85 26.96 2.87 38.86 10.36 14.08 8.85 20.31 22.56 23.58 38 2.98 14.05 3.64 28.32 4.16 42.67.66 18.21-.13 36.24-3.19 54.15-2.4 14.02-7.03 26.99-18.06 37-7.98 7.24-17.49 10.9-27.66 13.2-22.45 5.09-45.13 3.79-67.83 2.22-12.01-.83-24.03-1.43-35.97-2.96-5.57-.71-11.12-1.71-16.65-2.71-3.66-.66-5.47-3.13-5.69-6.74-.25-3.95-.54-7.91-.55-11.86-.03-38.69-.02-77.37-.02-116.06z"></path><path fill="#2A343E" d="M82.1 173.09c.34-15.99-.31-32.05 3.07-47.84 2.98-13.95 7.9-26.91 19.5-36.19 9.57-7.66 20.97-11.32 32.81-12.67 24.01-2.75 48.17-2.91 72.08.85 26.82 4.22 42.2 20.56 47.07 47.15 2.15 11.72 3.47 23.52 3.49 35.41.02 17.69.77 35.41-1.72 53.03-1.88 13.36-4.54 26.43-12.66 37.7-8.45 11.74-20.59 17.78-34.18 20.13-28.29 4.9-56.73 5.43-84.9-1.13-23.37-5.44-36.31-20.78-40.64-44.09-3.22-17.34-4.41-34.76-3.92-52.35z"></path><path fill="#D41036" d="M1087.05 191.29c-17.59 0-35.18.07-52.77-.06-3.16-.02-4.71.21-3.76 4.05 1.05 4.26 1.3 8.71 2.07 13.05 1.96 11.11 8.73 17.35 20.03 18.63 7.13.81 14.29 1.17 21.46 1.17 18.2-.01 36.41-.01 54.61 0 7.66 0 8.51.84 8.51 8.29 0 8.1.01 16.21 0 24.31-.01 5.9-.64 6.77-6.51 7.81-11.25 2-22.6 3.17-34.01 3.87-13.43.82-26.87.91-40.31.51-12.34-.38-24.64-1.12-36.61-4.66-22.22-6.57-33.46-22.51-38.14-44.18-4.72-21.86-3.68-43.94-2.89-66.05.37-10.51.08-21.07 1.98-31.45 1.65-8.99 4.38-17.61 9.01-25.68 7.44-12.97 19.05-19.77 32.96-23.17 13.52-3.3 27.38-4.65 41.24-4.38 14.89.29 29.74 1.29 44.4 4.82 20.83 5 32.68 18.35 37.95 38.33 5.26 19.95 5.48 40.38 5.38 60.83-.07 12.87-1.13 13.98-14.11 13.98-16.84-.02-33.66-.02-50.49-.02z"></path><path fill="#2A343E" d="M638.53 191.15c0 20.94.01 41.88 0 62.82-.01 9.14-1.74 11.45-10.83 13.44-14.45 3.17-29.14 4.67-43.88 5.68-18.45 1.27-36.92 1.45-55.38.61-8.97-.4-17.92-1.62-26.52-4.41-14.96-4.85-24.7-15.04-28.39-30.22-4.04-16.64-4.51-33.38.45-50.12 5.06-17.08 16.77-26.22 33.65-29.58 13.34-2.66 26.85-3.58 40.45-3.53 11.47.04 22.94.03 34.41-.01 1.51-.01 3.49.72 3.56-2.12.13-5.19.68-10.4-.12-15.54-1.5-9.66-8.36-15.91-19.06-17.33-5.28-.7-10.63-1.09-15.95-1.13-19.73-.13-39.46-.04-59.18-.06-5.48 0-6.28-.82-6.28-6.38-.01-8.87.11-17.73-.06-26.6-.08-4.25 1.53-6.27 5.82-7.1 26.86-5.15 53.98-5.68 81.15-4.37 14.18.68 28.16 2.85 41.03 9.61 14.01 7.35 21.93 18.8 24.08 34.44.83 6.07 1.06 12.14 1.05 18.24-.01 17.89 0 35.77 0 53.66zm-238.84-71.5c-9.73.3-21.63-.26-33.54.79-14.23 1.26-20.84 9.62-22.71 21.1-3.52 21.62-3.69 43.5-.01 65.11 2.64 15.48 12 22.04 28.7 22.17 20.49.17 40.97.28 61.46.42 6.33.04 7.56 1.2 7.58 7.37.02 8.1.06 16.21-.01 24.31-.05 5.89-1.41 7.57-7.21 8.67-23.21 4.4-46.64 5.13-70.18 4.27-13.92-.51-27.63-1.97-40.68-7.31-15.51-6.35-24.04-18.52-28.58-34.03-3.58-12.23-4.78-24.76-4.83-37.47-.08-20.01-.2-40.04 1.32-59.97 1.44-18.81 6.64-36.41 23.19-48.09 9.7-6.84 21.02-9.78 32.59-10.85 29.27-2.72 58.5-2.11 87.57 2.64 4.42.72 6.79 3.07 6.78 7.65 0 9.02.1 18.04 0 27.06-.05 4.36-2.09 6.14-6.7 6.16-10.84.03-21.7 0-34.74 0zM52.71 136.84v126.14c0 8.4-.77 9.184-9.07 9.184-12.08 0-24.17.006-36.25-.014-5.46-.01-6.71-1.23-6.98-6.66-.06-1.22-.02-2.45-.02-3.67V11.84c0-1.07-.03-2.14.01-3.21.22-6.45 1.06-7.3 7.63-7.32 12.39-.03 24.78-.03 37.17 0 6.15.01 7.5 1.37 7.5 7.55.01 42.66.01 85.32.01 127.98z"></path><path fill="#D41036" d="M747.91 204.27c3.89-8.11 5.31-16.99 7.72-25.54 9.13-32.46 17.91-65.02 26.7-97.58.89-3.31 2.7-5.15 5.9-5.12 14.64.13 29.28-.56 43.92.33 3.71.22 4.78 1.93 4.71 5.14.47 7.72-3 14.61-4.88 21.77-5.98 22.76-12.49 45.37-18.72 68.07-.85 3.09-1.71 6.17-3.17 9.05-2.96 3.7-3.02 8.42-4.26 12.68-6.01 20.54-11.52 41.24-17.66 61.74-3.66 12.22-11.72 17.56-24.5 17.61-11.43.05-22.86.19-34.29.29-1.06-1.67-.14-3.26.27-4.84 5.23-20.08 11.07-40 16.42-60.06.34-1.3.55-2.71 1.84-3.54zm123 0c2.87-3.25 2.84-7.58 3.9-11.4 10.27-36.91 20.35-73.88 30.28-110.89 1.23-4.58 3.71-6.09 8.08-6.052 12.69.092 25.37.022 38.06.042 8.49.01 9.64 1.24 7.48 9.27-5.16 19.23-10.51 38.42-15.84 57.61-7.4 26.65-14.86 53.29-22.3 79.93-2.82 10.1-5.38 20.28-8.54 30.28-2.7 8.53-7.35 15.7-16.51 18.75-1.94.65-3.9.6-5.88.61-12.37.1-24.75.21-37.12.31-.86-1.99-.17-3.92.35-5.81 5.46-19.83 10.91-39.66 16.42-59.48.33-1.17.48-2.43 1.62-3.17z"></path><path fill="#2A343E" d="M747.91 204.27c-2 10.84-5.57 21.26-8.42 31.88-3.27 12.22-6.74 24.38-10.12 36.57-12.6-.86-18.89-9.2-22.03-19.99-8.77-30.2-17.06-60.55-25.46-90.86-7.02-25.33-13.94-50.69-20.89-76.04-.44-1.61-.93-3.24-1.09-4.88-.27-2.85.92-4.87 4.03-4.89 15.13-.06 30.26-.04 45.39-.02 3.64.01 4.3 2.95 5.01 5.57 3.87 14.22 7.58 28.49 11.5 42.69 7.16 25.92 14.43 51.81 21.64 77.72.2.74.3 1.5.44 2.25zm123 0c-1.24 8.84-4.34 17.21-6.63 25.77-3.81 14.25-7.82 28.45-11.76 42.68-11.46-.73-17.92-7.74-21.22-17.83-6.89-21.09-12.17-42.65-18.21-63.99-.99-3.51-2-7-3-10.51-1.07-4.26 1.96-7.56 2.77-11.4 2.53-12.08 6.02-23.96 9.5-35.76 5.07-17.18 9.19-34.62 14.51-51.72 2.6 4.38 2.93 9.46 4.25 14.21 10.04 36.14 19.88 72.35 29.79 108.55z"></path><path fill="#FEFEFE" d="M1234.49 172.53c0-16.34.09-32.68-.07-49.02-.03-3.38.53-4.76 4.4-4.67 13.42.33 26.84.11 40.25.86 13.14.74 20.34 6.54 23.73 19.26 3.52 13.22 1.92 26.7 1.98 40.07.03 7.44.21 14.92-.63 22.37-.56 4.92-1.78 9.66-4.02 13.94-3.74 7.14-10.19 10.5-18.05 11.65-15.25 2.22-30.39.69-45.55-.9-2.93-.31-1.98-2.21-1.99-3.63-.07-16.64-.05-33.28-.05-49.93zm-1026.67 1.46c.6 11.14-.43 22.18-2.29 33.17-1.98 11.67-7.31 17.57-18.67 20.13-10.38 2.34-20.78 2.31-31.24.18-10.47-2.13-16.82-8.45-18.71-18.71-4.3-23.42-4.21-46.9.35-70.29 1.89-9.7 8.12-15.49 17.68-17.45 10.72-2.19 21.57-1.95 32.27.04 11.44 2.13 17.31 9.34 19.02 22.42.67 5.12 1.27 10.26 1.54 15.41.26 5.03.05 10.07.05 15.1zm856.97-16.76c-10.23 0-20.46-.08-30.69.06-2.67.04-3.83-.49-3.7-3.48.21-4.88.44-9.75 1.5-14.5 2.67-11.99 10.39-18.36 22.44-20.12 9.96-1.45 19.75-1.02 29.34 1.92 7.96 2.44 11.99 8.49 13.46 16.31 1.06 5.67 1.52 11.45 2.5 17.14.55 3.2-1.51 2.67-3.25 2.67-10.53.01-21.06 0-31.6 0zm-478.37 52.43c0 5.19-.04 10.39.02 15.58.02 1.82-.12 3.32-2.34 3.74-15.68 2.93-31.45 4.13-47.24 1.46-14.15-2.39-15.1-11.2-14.42-22.79.74-12.52 5.78-16.78 18.47-17.06 14.19-.31 28.4-.02 42.6-.15 2.56-.02 3.02.93 2.96 3.18-.15 5.35-.05 10.7-.05 16.04z"></path></g></svg>