<svg xmlns="http://www.w3.org/2000/svg" viewBox="0.12875545024871826 0.13397753238677979 2506.871826171875 918.8607177734375"><g fill="#13325A"><path d="M1968 .7c-3 1.2-10.3 6.6-25.1 18.9-65.7 54.3-184.8 137.2-276.4 192.4-134.9 81.3-276.5 147.4-415 193.6-110.3 36.8-218.9 59.2-317 65.4-20.5 1.3-77.2 1.3-98.5 0-92.2-5.7-170-25.6-226.5-57.9-14.8-8.5-34.2-21.3-48.4-32-15.8-11.9-21-15.3-22.4-14.8-1.7.5 14.1 16.1 25.8 25.3 26.4 20.9 46.4 33.7 73.8 47.2 55.2 27.2 120.4 43.7 199.2 50.4 19.7 1.7 95.6 1.7 117.5 0 85.3-6.5 168.1-21.7 256.9-47.2 9.6-2.7 17.6-4.8 17.8-4.7.1.2-2.2 1.4-5.2 2.6-3 1.3-5.5 2.7-5.5 3.2s3.1.9 6.8.9c8.3 0 25.9 2.1 49.2 6 32 5.2 43.8 6.3 63.5 5.7 19.9-.6 30.5-2.4 48.3-8.2 8.4-2.7 14.7-5.9 32.8-16.7 12.3-7.3 22.4-13.6 22.4-14.1 0-.4-2.9-.7-6.4-.7-8.9 0-21.1-2.5-32.5-6.6-15.3-5.6-18.1-6.4-27.1-7-14.4-1.1-38.9 2.7-66.3 10.1-7 1.9-13.1 3.5-13.5 3.5-.4 0 10.8-4.3 24.8-9.4 89.8-32.9 156.2-63.5 272-125.4 106.8-57 237-142 335-218.7 51.1-40 59.8-47.5 55-47.5-2.4 0-32.8 21.7-84.1 60.1-56.4 42.3-71.4 53.2-66.9 48.7 2-2.1 98-76.5 133.5-103.5 13.4-10.2 16.5-15.1 5.1-8.2-9.1 5.6-101.1 73-120.6 88.4-9.4 7.4-20.9 15.3-18 12.3 2.3-2.4 99-77.2 123-95.2 13-9.8 17-13.5 17-15.8 0-1.8-1.2-2.1-4-1.1z"></path><path d="M1848.2 10.1c-3.4 1.3-16.3 10.1-27.7 18.8-24.8 19.1-164 119.4-168.1 121.3-2.6 1.1-10.2 3.5-17.1 5.4-36.3 10-63.9 25.7-86.8 49.5-11.4 11.8-17.7 20.1-35.2 46.4-7.7 11.5-18.6 27.1-24.2 34.5-5.6 7.4-9.8 13.6-9.3 13.8 3.6 1.2 79-41.8 100.9-57.6 5.9-4.3 17.1-12 24.8-17.2 23.4-15.6 52.4-36.2 119.5-85 17.9-13 46.5-33.5 63.5-45.7 35.1-25 48.7-35.2 49.3-37.1.2-.8-.8-1.2-3.2-1.2-3.8 0-5.3 1-30.3 19.5C1709.2 146 1619.7 211 1617.6 211c-1.1 0 2.5-8.2 5.3-12.3 1.6-2.3 4.9-6 7.3-8.3 2.3-2.3 36.9-27.5 76.8-56.1s80.7-57.9 90.8-65.1c10.1-7.3 22.2-15.8 27-19.1 12.1-8.1 19.4-14 18.7-15.1-.4-.6-2.1-1-4-1-2.7 0-5.8 1.8-15.3 8.9-14.5 10.8-87 63.6-111.7 81.4-9.9 7.1-26.3 19.2-36.5 26.7-21.8 16.2-42.9 31-44.2 31-.5 0 .5-2.7 2.3-6 4-7.5 14.1-17.3 26.9-25.9 5.2-3.6 27.3-19.1 49-34.6s55.3-39.3 74.5-53c19.3-13.7 42.1-30.3 50.9-36.9 8.7-6.7 16.7-12.7 17.7-13.5 1.1-.7 1.9-1.7 1.9-2.2 0-1.1-3.8-1-6.8.2zm20.3 150.3c-10 4.6-34.2 18.2-147.6 82.7-41.1 23.4-63.8 35.3-71.7 37.7-3.7 1.2-10.8 3.2-15.8 4.6-20.2 5.5-45.2 17.1-93.5 43.2-37.5 20.2-40.9 21.7-60.4 26.8-9.3 2.5-22.2 6.3-28.6 8.5-23.3 8.1-70.6 26.9-81.7 32.5l-4.7 2.4 7.5.6c4.1.3 21.5 1.8 38.5 3.2 34.2 3 65.3 3.6 79.5 1.6 21.5-3.1 43.4-10.1 62-19.8 10-5.2 35-22.6 35-24.4 0-.4-3.5-1.1-7.7-1.5-23.1-2.1-56.4-8.8-54.4-10.8.6-.6 15.9-1.3 38.3-1.8 20.5-.4 39.1-1.1 41.3-1.4 2.2-.3 7.2-1.1 11-1.6 31.5-4.6 70.2-23.1 92-44 6.6-6.3 13.5-10.3 108-62.7 55.6-30.8 102.4-57.3 104-58.9l3-2.8-3.2-.3c-3.7-.4-4.2-.2-27.8 13.3-9.9 5.6-45.9 25.9-80 45s-65.6 36.9-70 39.5c-12.3 7.3-19.9 10.9-26.7 12.5-6.9 1.6-26.8 2.1-25.2.6.5-.5 48.2-27.3 105.9-59.6 57.8-32.3 106-59.6 107.3-60.8 2.9-2.7 2.8-3.7-.5-3.7-3.5 0-9.3 2.7-19.7 8.9-8.5 5.1-190.9 107.9-198.5 111.8-2.5 1.3-5.6 2.3-7.1 2.3-4.9 0-14.1-2.3-13.7-3.4.5-1.5 9.4-6.8 29.7-17.6 17.2-9.1 42.7-23.1 68.5-37.5 7.2-4 35.7-19.8 63.5-35 27.8-15.3 50.6-27.8 50.7-27.9.5-.4-1-4.6-1.6-4.6-.3 0-2.8 1.1-5.6 2.4zm-355.9 57.2c-26.4 4.8-62.6 24.2-85.5 45.8-7.5 7.1-19.1 21.4-28.7 35.3-3.7 5.4-15.3 21.9-25.7 36.6-10.4 14.7-18.7 27-18.4 27.3 1.4 1.4 48.1-24.3 79.4-43.7 32.1-19.8 49.3-33.6 57.2-45.8 2.1-3.3 6.8-12.6 10.5-20.8 4.7-10.4 8.8-17.7 13.6-24.3 6.4-8.6 8.2-12.1 6.3-11.9-.5 0-4.4.7-8.7 1.5zm-128.3 75.5c-29 2.1-62 13.4-87.3 30.1-11.4 7.5-30.8 26.1-55 52.8-9.3 10.2-21.2 22.8-26.5 28-6.4 6.2-9.3 9.6-8.2 9.8 2.2.4 29.3-8.8 50.7-17.3 37-14.7 62.7-27 80-38.3 12.6-8.3 21.2-17.5 30.6-32.6 5.6-9.2 10.6-15.8 17.3-22.8 5.2-5.4 9.2-10 9-10.1-.2-.1-5 .1-10.6.4zM283.8 470.4c-16.4 5.9-24.2 16.9-43 60.5-19.9 46.4-37.5 77.8-62.8 112-21.2 28.7-46.3 42.8-60 33.7-11-7.3-16-24.7-16-56 0-26.2 3.1-53.8 9.5-86.5 1.9-9.5 3.5-19.3 3.5-21.7 0-8.4-5.5-10.3-18.4-6.4-7.8 2.4-14.3 7.1-17.3 12.5-1.3 2.2-3.7 8.3-5.4 13.5-4.4 13-13.3 35.3-35.9 90-20.9 50.4-35.1 86-37.1 92.8-1.1 3.9-1.1 4.8.5 7.7 5.1 9.3 22.8 8.4 32.3-1.6 3.1-3.3 11.7-20.9 19.3-39.7 4.2-10.3 4.7-10.4 7.9-1.1 5.1 14.8 12.4 24 23.4 29.4 18.1 8.8 39.9 6.5 75.6-7.9 9.1-3.6 16.6-6.5 16.7-6.3.1.1-15.5 41.1-34.7 91.2-19.2 50.1-36.1 94.7-37.5 99.2-2.1 6.7-2.5 9.7-2.2 16.4.3 7.8.4 8.2 4 11.4 9.4 8.7 25.1 6.8 31.7-3.8 1.1-1.8 6-15.2 11-29.8 40.3-119.2 106.6-291 141.8-367.4 12.3-26.6 14.2-32.8 11.8-37.9-.9-1.8-2.7-3.8-4.1-4.5-3.3-1.5-10-1.3-14.6.3zm913.2 5.3c-49.8 5-88.6 19.4-109.5 40.7-11.1 11.3-16.5 23.7-16.5 37.8 0 21.9 9.3 35 28.8 40.4l6.3 1.7-8.4 7.8c-9.4 8.7-11.7 12.5-11.7 19.3 0 3.9.6 5.2 3.6 8.6 5.4 5.9 12.1 8.7 25.3 10.6 10.8 1.5 16.1 2.7 16.1 3.8 0 1.4-7 3.8-19.1 6.6-16.6 3.8-24.4 6.3-33.4 10.8-25.2 12.5-38.2 30.5-40.1 55.9-1.3 16.8 3.5 28.8 17.5 43.6 19 20.3 56.5 34.4 102.4 38.8 18.6 1.7 57.3.7 75.2-2.1 41.2-6.2 79.9-19.3 108.7-36.6 22.3-13.3 35.4-24.5 43.8-37.2 5.6-8.3 7.2-12.6 10-27.1 2.5-12.6 4.3-16.1 11.8-24.3 3.1-3.5 7.8-8.8 10.3-11.8 6.8-8 35.1-36.6 37.4-37.8 3.2-1.5 8.8-2.2 12.4-1.4l3.4.7-5.4 6.5c-2.9 3.6-9.7 11.6-15.1 17.7-12.3 14.2-19.4 23.7-25.8 34.3-5.6 9.2-10 21.8-10 28.3 0 4.7 2.6 9.8 6.3 12.2 4.3 2.8 13.7 3.8 23.1 2.6 10.8-1.5 19.2-4.4 39-13.5 8.8-4.1 17.3-7.8 18.7-8.1 2.4-.6 2.7-.3 3.3 3.3.4 2.7 2 5.5 5.1 8.9 5.9 6.6 12.5 9.5 23.2 10.1 11 .6 19.5-2 30.5-9.4 12.5-8.4 11-8.1 17.6-2.8 9.1 7.5 15.1 9.8 26 10.2 14.4.6 25.6-3.4 51.3-18.3 7.4-4.3 13.9-8 14.4-8.3.6-.3-.2 1-1.7 2.9-9.1 12.1-10.8 16.1-8.1 19.1 6.4 7.1 22 9.8 32.8 5.7 6.9-2.6 10.2-5.7 41.8-39.9 29.5-31.8 46.9-47.7 59.5-54.1 9.2-4.7 9.8-4.1 5.3 4.9-2.7 5.4-9.7 15-33.6 46.1-22 28.6-24.4 37-12.2 43.3 6.2 3.3 20.9 3.6 34.3.9 12.4-2.6 33.2-9.6 46.1-15.6 9.5-4.5 16.5-8.9 16.1-10.3-.1-.4.1-2.5.6-4.6l.7-3.9 4.1 8.4c4.9 10.1 12.3 17.8 20.5 21.7 5.2 2.4 7 2.6 17.3 2.6 10.4 0 12.4-.3 21-3.2 15.2-5.2 28.9-12.4 47.8-25.2 9.7-6.6 18.2-12 18.9-12 1.3 0 1.6.7 3.8 10.4 3.4 15.1 12 22.4 32.9 27.6 16.2 4 31.2 2.8 44.1-3.7 14.9-7.5 32-24.5 49.9-49.6 8.5-11.9 12.7-16.9 14.4-17.4 4.3-1 149.3.5 196.2 2.1 76 2.6 116.3 3.6 149.3 3.6 30.1 0 31.7-.1 31.7-1.8 0-4-3-11.4-6.5-16.2-4.4-6.1-18.4-16.8-28.2-21.7-6.7-3.3-7.8-3.6-16.1-3.5-4.9.1-15.4.6-23.3 1.1-7.9.6-28.8 1.8-46.4 2.6-17.6.9-48.2 2.7-68 4-79.6 5.4-120.5 7.4-159.9 7.8l-25.9.2-1.6-6c-3.6-13.1-9.9-20.8-19.8-24.5-6.7-2.5-26-5.1-38.3-5.1-20.7-.1-34.4 8.5-53.3 33.5-13.5 18.1-16.8 21.5-26.1 27.8-21.8 14.5-74.9 36.8-87.9 36.8-3.6 0-3.7-.1-3.7-3.8 0-17.2 18-54.5 33.2-68.8 6-5.7 13.3-9.8 19.3-11l3.8-.7-.7 5.4c-1.5 11.2-5.8 17.6-18.7 28-4.9 4-8.9 7.5-8.9 7.8 0 .4 1.1 2.3 2.5 4.4 9.5 13.9 34 10.2 52.3-7.9 8.8-8.8 12.4-15.8 13-25.6 1.1-17.9-9.1-28-31-30.8-22.3-2.8-39.7.7-55.1 11-20.6 13.8-46.6 47.6-51.9 67.3l-1.2 4.8-6.3-.7-6.3-.6-17.8 8.5c-9.7 4.7-20.1 9.2-23 10.1-5.1 1.5-5.4 1.4-4.7-.2 1.6-4.4 7.9-13.5 17.5-25.4 26.9-33.4 32-41.7 32.8-53.4l.4-7.2-4.8-2.8c-9.8-5.8-23.3-3.4-51.2 9.1-9.2 4-16.9 7.2-17.1 6.9-.3-.2.5-1.7 1.7-3.2 1.3-1.5 3-4.3 3.8-6.2 1.4-3.1 1.4-3.7.1-6-3.7-6.2-12.7-10-20.3-8.6-6.6 1.3-17.1 12.9-44.4 49.1-7.9 10.4-14.8 19.3-15.4 19.6-.6.4-4.9 1.5-9.6 2.4-10.1 2-18.9 5.3-44.6 16.8-19.6 8.7-29.9 12.5-31 11.4-1.2-1.2 8.2-16.9 21.1-35.1 7.4-10.4 14.1-19.7 15.1-20.7.9-1 4.5-2.8 8.1-4 17.4-5.7 21.6-20.8 9.1-32.5-7.4-7-17.9-10.4-34.8-11.1-14.9-.7-20 .5-32.9 7.3-18.2 9.6-40.5 27.7-64.1 52.1-13.8 14.2-16.7 17.8-25.6 31.8l-3.8 6-.7-6.3c-.3-3.4-.9-6.5-1.2-6.9-.4-.3-6.2 2.2-12.9 5.5-14.2 7.1-25.9 11.2-31.7 11.2-3.7 0-4.1-.2-4.1-2.5 0-7.4 9.7-23.1 22-35.5 4.1-4.2 13.6-11.9 21-17.2 18.9-13.4 23-18.3 23-27.1 0-3.9-.3-4.5-3.4-5.9-9.6-4.6-21.1-4.7-43.2-.3-7 1.4-12.9 2.3-13.2 2-.3-.3.2-3.3 1.2-6.6.9-3.4 1.5-6.4 1.2-6.6-.3-.3-4.9-.6-10.3-.6-16.5-.1-24 3.8-32.3 17-2.4 3.7-5.9 9.3-7.9 12.3-3.8 5.8-22.5 25.7-27.4 29.2-2.7 2-2.9 2-4.8.2-1.1-1-4.5-5.3-7.5-9.6-7.6-10.9-16.7-20.2-27.3-27.8-4.9-3.6-9-6.9-9-7.4-.1-.4 4.8-5.8 10.7-12 6-6.1 12.1-13.3 13.7-15.9 13.7-23.7 5.6-53-19.7-70.4-21.3-14.7-51.2-24.6-87.4-28.8-11.7-1.4-51.8-1.9-62.4-.8zm38.1 20.3c49.5 4.9 89.4 25 97.4 49.1 2.2 6.6 1.6 16.6-1.4 23.3-3.1 7.1-11.6 18.2-15 19.6-3.6 1.4-4.7 1.2-26.8-5.1-21.9-6.2-32.9-8.4-52.3-10.4-22.7-2.3-22.2-2.2-21.4-4.7.3-1.2 2.4-5.8 4.5-10.2 2.2-4.4 3.9-9 3.9-10.2 0-6.5-24-5.4-30.7 1.5-1.4 1.4-4.9 6.9-7.7 12.1-4.2 7.8-5.8 9.8-8.9 11.2-5.5 2.6-19.1 6.4-34.8 9.7l-13.9 2.9-4.4-5.2c-10.1-11.9-14.6-21.6-14.6-31.7 0-14.3 10.7-26.4 32.5-36.9 27-13 60.1-18.3 93.6-15zm-5.1 99.6c18.5 3.4 32.1 7 41 10.7l7.4 3.1-3 1.2c-4.7 2-16.8 4.1-31.9 5.8-19.1 2.2-54.7 4.7-55.4 4-.8-.8 10.7-22.9 13.4-25.8 2-2.2 2.8-2.4 8.6-1.9 3.5.2 12.5 1.6 19.9 2.9zm76.5 28.3c7.7 3.5 35.6 33.4 33.3 35.7-.3.3-17.4-1.7-37.9-4.5-51-6.8-67.4-8.3-95.4-8.6-14.1-.1-25-.7-26.5-1.3-1.4-.6-1.9-1.1-1.1-1.1.8-.1 21.5-3.3 46-7.1 42.5-6.7 51.6-8.5 67.6-12.9 8.7-2.5 9.1-2.5 14-.2zm303.1 20.9c-4.7 9-21.9 27.3-34.6 36.6-6.4 4.7-10.3 5.8-11.4 3-1.4-3.7 4.7-19.5 13.6-35.2l4.2-7.2h29.7l-1.5 2.8zm466.4 12.1c0 4.3-20.7 26.9-33.5 36.5-8.3 6.3-10.3 7.2-11.2 4.9-1.7-4.3 6-24 14.7-37.6l3-4.7h13.5c7.4 0 13.5.4 13.5.9zm-728.8 18.6c2.1.6 3 1.6 3.8 4.5 3.9 14.4-14.1 37.5-42.7 54.6-47.4 28.3-105.6 37.7-160.8 25.8-28.6-6.1-52.9-19.5-59.8-32.9-12.5-24.4 33.2-45.3 110.8-50.5 37.6-2.6 140.7-3.6 148.7-1.5zM480.1 479c-48.7 4.1-86.1 18.1-108.4 40.7-13.5 13.7-18.8 23.9-19.5 37.4-.5 10.4 1.1 16.1 7 25 4.8 7.1 12 12.9 20.9 16.6 8.5 3.6 22.4 4 27.9.7 7.6-4.4 7.4-9-1.2-22.1-10.3-15.8-13.5-24.4-12.5-34 1.4-13.1 13.3-27.7 28.8-35.2 15.2-7.3 35.8-10.3 56.9-8.2 63.1 6.4 126.6 44.4 146.6 87.6 7.9 17.2 11.4 41.7 8 57.3-1.8 8.7-5.8 18-8.1 18.8-1.9.8-20.8-1.2-93.5-9.7-57-6.6-57-6.6-57-8.2 0-1.9 11.9-25.9 21.3-42.8 14.9-27 22.1-42.4 22.1-47.6.1-4.3-.2-4.8-3.4-6.7-6.9-4.1-23.1-1.6-31.7 5-4.8 3.6-7.3 7.7-32.2 53.2l-21.8 39.7-7.4.7c-41.8 4.3-54 6.6-66.7 12.9-14.7 7.2-24.1 19.7-27.7 36.6-4.5 20.9 2.4 44.5 18.2 62.8 42.3 48.8 131.7 54 215.3 12.4 61.5-30.6 103.8-79 112.5-128.3 1.9-11.2 1.9-29.8 0-40.8-4.6-26.4-21-55.2-45.3-79.5-18.9-18.9-38.2-29.7-66.6-37.3-23.1-6.2-57.5-9.1-82.5-7zm132.2 197.8l6.8.7-3.2 6.5c-6.5 13-34.4 37.6-54.9 48.4-10.8 5.7-31.5 12.6-47 15.8-10.2 2-14.3 2.3-36 2.3-26.4 0-34-.8-52.7-5.5-26.5-6.7-49.4-21.3-53.2-33.9-1-3.6-.9-4.7.7-8.4 6.4-14.5 35.2-23 90.2-26.7 14.7-.9 138.3-.3 149.3.8zm135.4-119.7c-5.5 1.3-11.5 4.6-13.3 7.4-3.9 6 1.9 14 12.5 17.2 6.9 2 22.7 1.4 28.6-1.1 10.1-4.3 12.6-11.9 6-18.2-2-1.9-5.8-4-8.7-4.9-5.6-1.6-18.9-1.9-25.1-.4zm88.7 37.3c-13.6 3.1-31.6 12.8-51.7 27.9-14.6 10.9-41.8 37.6-50.7 49.7-7.8 10.6-14 23.3-14.7 30.5-.6 5.2-.5 5.4 4.2 10.4 2.9 3.1 7.4 6.4 11.4 8.4 5.9 2.9 7.5 3.2 15.1 3.2 12.5-.1 22.8-4.2 39.2-15.7 1.4-1 2.6-.3 7.7 4.5 8.4 8 14.5 10.7 24.4 10.7 11.9 0 23.5-4.2 40.5-14.8 7.5-4.7 16.1-9.8 19-11.5l5.4-3 14.1 9.6c25.3 17.1 34.1 20.1 56.6 19.5 13.1-.3 15.1-.6 19.6-2.8 11.9-6 11.2-17.2-3.5-50.5-9.2-21-11.1-27.7-11.1-40.5 0-17.6 7.4-25.4 20.4-21.6 6.9 2 9.7 4.7 9.7 9.2 0 4.4-.8 5.9-8.6 16.5-8 10.8-9.2 14-6.9 17.5.9 1.4 3.2 3.2 5 4 4.5 1.8 17.1 1.8 22.5-.1 17.6-6.2 27.9-29 20.1-44.4-6.6-12.8-25.7-18.9-55.6-17.8-21.7.8-34.3 5.2-43.1 15-5.9 6.6-7.8 13.2-7.2 24.6.6 10.4 2.6 15.8 12.7 34 7.9 14.1 10.5 20.2 11.6 27l.7 4.4-2.8-.7c-9.7-2.3-16.6-12.8-18.5-28.2-1.3-10.8-1.9-11.4-13.4-12.1-8.5-.6-16.8 1.3-27.7 6.4l-7.7 3.6-.3 6.4-.3 6.4-8 3.5c-9.9 4.4-21.5 8.7-22.1 8.1-2.1-2.1 26-52 29.9-53.1.6-.2 3-.9 5.3-1.5 5.4-1.4 10.3-4.8 13.2-9.1 2-3 2.3-4.4 2-10.2-.3-5.7-.8-7.3-3.4-10.5-4.3-5.2-10.8-9-19.8-11.3-10.3-2.6-25.4-3.3-33.2-1.6zm-5.3 51.3c-5.9 11.7-35.2 39.7-42.1 40.5-2.2.3-2.5-.1-2.8-3.6-.5-6.2 6-22.2 14.4-35.4l3.4-5.2h29l-1.9 3.7zM724 599c-6.5 2.2-9.7 5.5-17.2 17.9-11.1 18.2-43.9 86-47 96.9-1.3 4.6-.3 6.8 4.1 8.5 5.2 2.1 18.7 3.9 23.9 3.1 8.7-1.3 10.8-3.8 18.2-21.8 2.3-5.5 11.9-25.9 21.5-45.5 20.2-41.5 22.5-46.8 22.5-51.6 0-3.8-2.4-6.9-6.6-8.5-4-1.6-13.4-1.1-19.4 1zm-465.8 98.9c-16.4 5.7-17.2 20.9-1.4 27.7 5.7 2.5 19.6 3 26.5 1 13.1-3.8 18.7-15.6 10.9-22.8-7.7-7.2-24.3-9.9-36-5.9z"></path></g></svg>