<!DOCTYPE svg PUBLIC "-//W3C//DTD SVG 20010904//EN" "http://www.w3.org/TR/2001/REC-SVG-20010904/DTD/svg10.dtd">
<svg version="1.0" xmlns="http://www.w3.org/2000/svg" width="251px" height="259px" viewBox="0 0 2510 2590" preserveAspectRatio="xMidYMid meet">
<g id="layer101" fill="#8a1f04" stroke="none">
 <path d="M1307 2583 c-4 -3 -7 -13 -7 -21 0 -11 9 -13 39 -8 22 3 42 2 46 -3 3 -5 -9 -11 -27 -13 -31 -3 -33 -6 -36 -43 -2 -26 4 -51 18 -72 18 -31 23 -33 75 -33 63 0 63 0 39 94 -24 93 -35 106 -93 106 -26 0 -51 -3 -54 -7z m99 -109 c11 -26 12 -40 5 -47 -15 -15 -37 9 -46 51 -10 46 21 44 41 -4z"/>
 <path d="M970 2538 c0 -7 11 -53 23 -103 l23 -90 68 -3 c61 -3 67 -1 64 15 -2 13 -15 19 -48 23 -32 4 -46 10 -48 23 -3 14 4 17 32 17 29 0 36 4 36 19 0 16 -8 20 -41 23 -33 2 -44 8 -50 26 -8 21 -6 22 37 22 38 0 45 3 42 18 -3 14 -16 18 -71 20 -50 2 -67 0 -67 -10z"/>
 <path d="M1140 2535 c0 -9 7 -44 16 -79 l16 -64 58 -1 c39 0 60 4 63 13 3 7 -2 43 -11 79 -14 59 -19 67 -39 67 -27 0 -27 0 -9 -67 10 -37 11 -55 4 -60 -11 -6 -38 23 -38 41 0 6 -5 28 -11 49 -7 26 -15 37 -29 37 -11 0 -20 -7 -20 -15z"/>
 <path d="M1489 2527 c-15 -33 5 -103 36 -123 29 -19 84 -15 98 7 5 9 7 28 3 42 -6 24 -11 27 -51 27 -38 0 -45 3 -45 20 0 24 13 26 34 4 9 -8 26 -14 38 -12 l23 3 -27 28 c-36 36 -93 38 -109 4z m91 -92 c0 -8 -6 -15 -14 -15 -8 0 -16 7 -20 15 -4 10 1 15 14 15 11 0 20 -7 20 -15z"/>
 <path d="M1640 2543 c0 -4 7 -41 17 -80 l17 -73 57 0 c32 0 61 5 64 11 4 5 -1 41 -10 80 -15 62 -20 69 -42 69 -18 0 -23 -4 -19 -17 2 -10 10 -37 17 -61 13 -46 10 -56 -14 -47 -8 4 -21 31 -29 63 -11 46 -18 58 -36 60 -12 2 -22 0 -22 -5z"/>
 <path d="M1810 2538 c0 -7 11 -53 23 -103 20 -79 26 -90 47 -93 20 -3 22 -1 17 25 -5 28 -4 29 27 25 19 -2 37 1 41 8 4 6 -1 42 -10 81 -15 62 -20 69 -42 69 -18 0 -23 -4 -19 -17 17 -59 27 -106 23 -109 -14 -15 -37 15 -49 64 -11 46 -18 58 -36 60 -13 2 -22 -2 -22 -10z"/>
 <path d="M1984 2535 c-10 -25 6 -65 29 -75 17 -7 18 -9 5 -9 -24 -1 -23 -24 1 -45 13 -12 32 -16 62 -14 49 3 47 -2 36 113 l-3 40 -63 2 c-47 2 -63 -1 -67 -12z m76 -30 c7 -9 10 -18 7 -21 -10 -11 -37 5 -37 21 0 19 14 19 30 0z m18 -72 c6 -19 -25 -16 -32 3 -4 11 -1 14 11 12 9 -2 18 -9 21 -15z"/>
 <path d="M2140 2543 c0 -5 9 -39 18 -78 l18 -70 48 -2 c40 -2 47 0 44 14 -2 10 -14 20 -28 23 -21 5 -28 16 -40 63 -12 49 -18 57 -37 57 -13 0 -23 -3 -23 -7z"/>
 <path d="M2260 2538 c1 -7 9 -42 19 -78 14 -52 22 -66 39 -68 26 -4 26 -5 4 83 -15 58 -22 71 -40 73 -13 2 -22 -2 -22 -10z"/>
 <path d="M2354 2535 c-11 -27 1 -60 26 -72 18 -9 20 -13 8 -13 -23 0 -23 -22 0 -43 23 -21 85 -22 101 -3 9 11 9 25 1 55 -6 23 -10 47 -9 54 4 30 -3 34 -62 35 -42 1 -62 -3 -65 -13z m80 -41 c3 -8 -1 -14 -8 -14 -16 0 -38 24 -30 33 9 9 32 -3 38 -19z m14 -62 c3 -9 -2 -13 -14 -10 -9 1 -19 9 -22 16 -3 9 2 13 14 10 9 -1 19 -9 22 -16z"/>
 <path d="M2304 2364 c3 -9 6 -18 6 -20 0 -2 9 -4 20 -4 13 0 20 7 20 20 0 15 -7 20 -26 20 -20 0 -25 -4 -20 -16z"/>
 <path d="M1300 2197 c-31 -16 -35 -42 -17 -127 l13 -65 38 -3 39 -3 -7 38 c-3 21 -9 55 -12 76 -5 29 -3 37 8 37 24 0 35 -20 48 -87 l13 -63 38 0 c22 0 39 2 39 4 0 5 -27 139 -35 174 -5 20 -11 23 -48 21 -23 -1 -53 1 -67 5 -14 3 -36 0 -50 -7z"/>
 <path d="M1605 2203 c-11 -3 -26 -10 -32 -15 -9 -7 -13 -7 -13 1 0 6 -11 11 -25 11 -31 0 -31 -1 -1 -150 l23 -115 38 -3 38 -3 -6 38 -7 38 41 -3 c28 -3 46 1 59 13 38 34 19 150 -28 173 -25 13 -64 20 -87 15z m37 -60 c20 -24 30 -77 16 -91 -18 -18 -46 5 -54 43 -11 59 8 82 38 48z"/>
 <path d="M1813 2196 c-64 -29 -74 -107 -19 -162 30 -30 40 -34 88 -34 65 0 99 27 101 82 l2 33 -72 3 c-53 2 -73 7 -73 16 0 22 31 28 56 11 13 -8 37 -15 54 -15 28 0 30 2 20 20 -26 48 -103 70 -157 46z m97 -136 c0 -19 -31 -23 -48 -6 -15 15 -14 16 16 16 18 0 32 -5 32 -10z"/>
 <path d="M2033 2195 c-26 -18 -28 -40 -11 -131 l11 -64 40 0 c39 0 39 0 33 33 -19 89 -19 117 -3 117 21 0 32 -22 47 -92 l11 -58 40 0 c36 0 39 2 34 23 -8 36 -35 168 -35 173 0 3 -19 4 -42 3 -24 0 -56 2 -73 6 -20 4 -37 1 -52 -10z"/>
 <path d="M963 2178 c3 -12 16 -74 28 -135 l22 -113 56 0 c70 0 118 13 147 41 49 46 40 140 -16 194 -30 29 -36 30 -137 33 l-106 4 6 -24z m170 -45 c5 -3 15 -21 23 -39 24 -57 -1 -104 -55 -104 -16 0 -22 11 -31 58 -6 31 -14 68 -17 81 -6 23 -4 23 33 16 21 -4 43 -9 47 -12z"/>
 <path d="M2220 2192 c0 -4 18 -26 40 -47 45 -44 48 -58 20 -100 -11 -16 -20 -33 -20 -37 0 -5 20 -8 44 -8 36 0 46 4 51 20 3 11 10 20 14 20 4 0 16 -9 26 -20 11 -13 31 -20 52 -20 l35 0 -42 50 -43 51 27 49 27 50 -44 0 c-39 0 -45 -3 -58 -32 l-15 -31 -23 31 c-18 25 -30 32 -57 32 -19 0 -34 -4 -34 -8z"/>
 <path d="M963 1798 c3 -13 16 -74 28 -135 l22 -113 58 0 c65 0 61 -6 77 95 l8 50 39 -72 40 -73 64 0 c60 0 63 1 58 23 -3 12 -16 73 -28 135 l-22 112 -38 0 c-44 0 -47 -8 -29 -90 6 -25 13 -56 15 -70 3 -14 -18 16 -48 65 -42 71 -59 91 -79 93 -24 3 -26 0 -38 -75 -16 -100 -25 -118 -34 -64 -3 23 -11 64 -17 91 -10 48 -12 50 -46 50 -31 0 -35 -2 -30 -22z"/>
 <path d="M1414 1810 c-73 -29 -69 -146 6 -185 105 -55 207 35 154 136 -24 48 -103 72 -160 49z m87 -67 c5 -15 9 -38 7 -52 -2 -20 -9 -26 -28 -26 -20 0 -27 7 -34 36 -11 45 -3 69 24 69 13 0 24 -10 31 -27z"/>
 <path d="M1625 1800 c-18 -20 -18 -28 7 -142 10 -47 10 -48 49 -48 36 0 39 2 34 23 -30 132 -30 127 -6 127 21 0 35 -33 47 -107 6 -42 7 -43 45 -43 46 0 46 -2 21 120 l-18 85 -81 2 c-68 2 -83 -1 -98 -17z"/>
 <path d="M1850 1803 c1 -10 9 -56 18 -103 l18 -85 37 -3 c25 -2 37 1 37 9 0 10 3 10 12 1 19 -19 48 -15 48 7 0 32 -11 51 -31 51 -22 0 -46 42 -55 99 -6 40 -8 41 -45 41 -31 0 -39 -4 -39 -17z"/>
 <path d="M2027 1802 c-45 -49 -5 -101 84 -110 32 -3 49 -9 49 -18 0 -16 -46 -19 -55 -4 -8 13 -75 13 -75 1 0 -5 7 -17 17 -26 48 -49 172 -46 188 4 3 12 1 55 -6 96 l-13 75 -33 0 c-18 0 -33 -5 -33 -10 0 -7 -6 -7 -19 0 -31 16 -86 12 -104 -8z m111 -44 c7 -7 12 -17 12 -24 0 -19 -54 -1 -58 19 -4 20 28 23 46 5z"/>
 <path d="M0 1348 c1 -13 42 -228 93 -478 l92 -455 251 -3 251 -2 43 255 c24 140 45 253 47 251 2 -2 64 -116 137 -252 l133 -249 277 -3 276 -2 -5 22 c-29 124 -122 594 -118 598 9 9 199 2 265 -10 210 -37 343 -130 385 -270 25 -81 23 -204 -4 -255 -58 -110 -147 -145 -415 -161 -83 -5 -98 -9 -97 -22 0 -10 14 -82 32 -162 l32 -145 150 1 c117 1 167 6 230 23 297 78 455 286 455 599 0 80 -5 117 -25 180 -70 220 -277 411 -542 497 -126 42 -244 55 -572 62 -296 6 -303 6 -298 -13 13 -40 127 -577 124 -580 -2 -2 -82 130 -178 294 l-175 297 -142 3 c-78 1 -142 0 -142 -3 0 -9 -101 -590 -103 -592 -1 -1 -33 133 -72 298 l-69 299 -158 0 c-157 0 -158 0 -158 -22z"/>
 <path d="M231 238 c10 -51 26 -126 35 -165 l15 -73 661 0 c524 0 659 3 655 13 -2 6 -17 81 -33 165 l-28 152 -662 0 -661 0 18 -92z"/>
 </g>
<g id="layer102" fill="#f4821f" stroke="none">
 <path d="M220 317 c0 -8 14 -81 30 -162 17 -81 30 -150 30 -152 0 -1 296 -3 658 -3 l659 0 -31 163 -31 162 -658 3 c-546 2 -657 0 -657 -11z"/>
 </g>

</svg>