<svg xmlns="http://www.w3.org/2000/svg" viewBox="0.27935290336608887 0.7819673418998718 1034.270751953125 650.4580078125"><g fill="none"><path fill="#025F7F" d="M493.64 383.96c6.16-12.12 11.17-24.65 17.37-36.65A200.87 200.87 0 01534.7 311c16.12-19.36 37.7-24.49 61.37-21 16.88 2.49 27.44 17.14 28.88 37.44 1.41 19.24-1.06 38.4-2 57.58-1.92 41-4.18 82-6.44 123-.94 17-1.1 17-18.14 17-11.47 0-22.94.07-34.4 0-9-.07-11-2.19-10.59-11.28 2.22-47.7 4.483-95.4 6.79-143.1.24-5-.07-9.55-5.25-12.13-5-2.48-9.17-.53-13.22 2.3a34.09 34.09 0 00-8.73 9.51c-22.44 34.15-39.17 70.59-43.84 111.68-1.23 10.73-1.62 21.55-2.42 32.33-.62 8.42-2.73 10.58-11.25 10.67-13.63.15-27.26.12-40.89 0-8.89-.07-11.27-2.46-10.84-11.29 1.59-32.81 3.33-65.61 5-98.41.77-15.1 1.36-30.21 2.25-45.31.55-9.37-6.61-15.06-15.4-11.83a21.13 21.13 0 00-10.39 8.48c-20.84 31.5-37.24 65.12-44.03 102.75-2.51 14-3 28.35-3.57 42.61-.43 11-2.18 12.91-12.95 12.95-12.327.053-24.66.053-37 0-9.44-.06-11.62-2.26-11.16-11.5 2.98-58.667 5.98-117.363 9-176.09.57-11.22 1-22.45 1.64-33.67.41-7.85 2.48-9.73 10.35-9.83 13.19-.15 26.38-.38 39.57-.46 9.92-.06 11.47 1.5 11 11.19-1.28 25-2.66 50.06-4 75.09a8.78 8.78 0 00.37 3.3c5-12.75 10-25.5 16.72-37.47 9.43-16.87 19.87-33 35.54-44.92 13.72-10.46 29.46-13.41 46-11.08 17.14 2.42 26.85 13.66 31.1 29.91 4.31 16.48.95 33.11.57 49.67-.08 4.96-.45 9.92-.7 14.87zm535.13-172.82C693.45 103.39 357.05 100 19.18 197.84c35.27-14.95 71-28.08 107.24-40a1761.8 1761.8 0 01307.29-71.7 1860.14 1860.14 0 01199.47-17c43-1.37 86-.85 129 .85a19.42 19.42 0 018.64 2.27c84.333 44.993 168.667 89.993 253 135 1.74.95 4.19 1.3 4.95 3.88zM662.38 430.53c.34-32.6 7.23-63.56 24.87-91.31 29.65-46.61 89.59-63.9 138.42-40.66 5.17 2.47 7.65 5.57 7.14 11.47-.77 8.82-1 17.68-1.37 26.53-.16 3.59-.67 7.28-4.14 8.94-3.66 1.75-7.11.08-10.14-2.37-10.28-8.27-21.79-13.16-35.24-11.94-17.42 1.57-30.87 10.55-39.71 25-18.43 30.07-22.4 62.81-13.15 96.61 5.41 19.8 17.67 27.78 38.2 28.5 16.23.56 31.13-4 45.49-11 9.09-4.44 11.28-3.1 10.91 6.73-.31 8.2-.86 16.39-1.07 24.6-.16 5.79-2.64 9.62-7.92 12.19-23.05 11.23-47.43 13.66-72.63 11.87-15.25-1.08-30.1-3.08-43.26-11.62-21.38-13.93-30.74-34.85-34.83-58.93a135.59 135.59 0 01-1.57-24.61z"></path><path fill="#E06F2B" d="M720.58 38.43C478.9 43 247.02 91.75 24.8 186.43c27.17-14.66 54.91-27.8 83-40.25a1818.77 1818.77 0 01342-112.61A1870.46 1870.46 0 01645.9.94a10.07 10.07 0 016.25.89 17173.854 17173.854 0 0068.43 36.6z"></path><path fill="#025F7F" d="M255.15 408.8c-1.78 35.333-3.563 70.69-5.35 106.07-.37 7.24-2.65 9.88-9.86 10-14.05.24-28.1.21-42.15 0-7-.09-9.32-2.53-9-9.58 1.58-32.56 3.36-65.1 5-97.65 1.88-36.873 3.737-73.74 5.57-110.6.64-12.52 1.46-13.14 14.28-13.22 11.88-.08 23.75-.4 35.63-.44 9.67 0 11.53 1.89 11.07 11.27-1.673 34.713-3.39 69.423-5.15 104.13l-.04.02z"></path><path fill="#E06F2B" d="M231.14 264.14c-5.05-.28-11.77-.28-18.39-1.1-9.78-1.2-14-6.08-14.31-15.92a88.72 88.72 0 012-21.85c1.46-6.64 5.53-10.89 12.19-11.72a170.29 170.29 0 0144.54.12c7.64 1 11.78 6.15 11.8 13.91 0 7.54-.43 15.1-1.15 22.61-.68 7.13-4.69 11-11.83 12.72-7.66 1.84-15.47.82-24.85 1.23z"></path><path fill="#025F7F" d="M852.53 615.35c-3.62 10.09-7.19 20.2-10.9 30.26-.74 2-.79 4.78-4.35 4.5-3.11-.24-3-2.56-3.68-4.51-3.4-10.11-6.81-20.22-11.11-30.2-.55 10-1.13 19.93-1.64 29.89-.14 2.66.16 5.46-3.86 5.19-4.22-.28-2.45-3.51-2.35-5.38.69-12.29 1.62-24.56 2.52-36.83.15-2-.4-4.63 3-4.59 2.73 0 5.36-.62 6.57 3.35 2.56 8.44 5.69 16.71 8.68 25 .76 2.13.65 4.66 2.92 6.76 3.74-10.33 7.56-20.25 10.85-30.35 1.23-3.78 3-5.18 6.88-4.86 4.35.36 3 3.74 3.19 5.83.94 12.05 1.61 24.12 2.21 36.2.08 1.73 1.77 4.53-2.09 4.88-3.86.35-3.91-2.23-4-5-.46-10.09-1-20.17-1.52-30.25l-1.32.11zm-287.94 1.79l-7.56 20.68c-1.11 3-2.38 6-3.3 9.12-.66 2.2-1.78 3.2-4.13 3.2-2.53 0-2.63-1.87-3.14-3.38-3.38-10.14-6.69-20.31-10.55-30.41-2.27 8.33-1.42 16.83-2.36 25.17a63.35 63.35 0 00-.46 6.45c0 2.57-1.68 2.56-3.51 2.57-2.24 0-2.3-1.44-2.2-3.07.88-13.56 1.78-27.13 2.6-40.7.13-2.11.87-3.13 3.12-3.09 2.63 0 5-.25 6.13 3.18 2.85 8.81 6 17.52 9 26.28.7 2 1.24 4.11 2.12 7 4-11.06 7.84-21.29 11.34-31.63 1.23-3.61 2.91-5.4 6.94-4.88 4.67.61 2.87 4.12 3.06 6.5 1 11.83 1.73 23.68 2.45 35.53.11 1.84 1.47 4.56-2.26 4.84-3.41.27-3.74-1.73-3.88-4.45-.49-9.54-1.17-19.06-1.78-28.6l-1.63-.31zm-155.1 22.41v-31.21c0-1.88-1.08-4.56 2.59-4.68 3.89-.14 3.25 2.55 3.26 4.85 0 12.31.05 24.61 0 36.92 0 1.89 1.12 4.59-2.33 5-2.64.35-4.39-.61-5.82-3-6.59-10.85-13.35-21.59-21.06-34v29.41c0 1.51-.09 3 0 4.53.14 2.19-.72 3.19-3 3.07-1.73-.09-2.92-.58-2.92-2.59V606.4c0-1.87.83-2.73 2.7-2.81 2.46-.11 4.48.08 6 2.63 5.78 9.6 11.81 19.05 17.74 28.56.66 1.08 1.3 2.11 2.84 4.77zm-220-23.3v29.09c0 2.14 1.07 5.08-2.92 5.17-3.99.09-2.89-3-2.9-5-.09-12.1-.12-24.2 0-36.29 0-1.84-1.51-4.69 1.75-5.39 2.87-.61 5.29-.11 7.09 2.93 5.17 8.71 10.67 17.23 16 25.83a10.67 10.67 0 004.21 4.32c0-9.1-.1-18.2.07-27.29 0-2.18-1.66-5.67 2.77-5.89 4.63-.23 3 3.38 3 5.52.14 12.1.14 24.2 0 36.3 0 1.67 1.27 4.21-1.63 4.85-2.69.59-4.84 0-6.49-2.77-5.81-9.84-11.9-19.52-17.89-29.26-.51-.84-1.1-1.64-1.65-2.46l-1.41.34zM49.18 636.73v-28.32c0-2.37-.48-5 3.37-4.75 3.67.22 2.47 3 2.48 4.8.09 12.32.11 24.63 0 36.95 0 1.79 1.45 4.62-2.16 5.06a5.35 5.35 0 01-5.89-2.8c-6.45-10.62-13.11-21.11-20.66-33.17 0 10.26.31 18.92-.17 27.53-.16 2.84 3.28 8.61-3.34 8.24-5.47-.31-2.51-5.46-2.62-8.24-.39-10.57-.28-21.17-.05-31.76.05-2.17-1.92-5.5 1.93-6.51 3.85-1.01 5.78 1.14 7.65 4.27 5.85 9.75 12 19.31 18.07 28.94l1.39-.24zm933.43 1.97v-30.29c0-2.38-.46-5 3.38-4.75 3.68.23 2.46 3 2.47 4.8.1 12.32.1 24.653 0 37 0 1.8 1.45 4.6-2.16 5.06-2.67.34-4.35-.63-5.77-3-6.06-10.21-12.31-20.3-18.5-30.42-.41-.67-.87-1.31-2.06-3.1v32c0 2 .92 4.48-2.71 4.63-3.63.15-3.58-2-3.57-4.6 0-12.1-.06-24.21.1-36.31 0-2-1.59-5.11 2.06-5.87 3-.63 5.22.33 7 3.22 6.03 10 12.41 19.92 19.76 31.63zm-177.75-12.28c.13 17.49-13.29 28.55-28.59 23.55-11.37-3.72-17.13-17.6-13-31.28 3.6-11.9 14.54-18.22 26.17-15.13 9.51 2.5 15.32 11.21 15.42 22.86zm-35.91-.87c-.11 4.81.36 7.8 1.54 10.61 2.35 5.58 6.21 9.36 12.61 9.49 6.4.13 10.41-3.64 12.94-9.06 2.06-4.42 2.21-9.21 1.54-14-1.2-8.66-6.7-14.28-14-14.43-7.3-.15-12.45 4.79-14.23 13.33a25.67 25.67 0 00-.4 4.06zm-399.46.71c0 18.24-13.66 29-28.84 23.57-8.69-3.13-13.76-11.58-13.65-22.74.11-11.41 5.41-19.83 14.43-23 8.74-3 17.74-.56 23.29 6.44a23.47 23.47 0 014.77 15.73zm-35.66 1.2a47.58 47.58 0 00.53 5.49c1.58 7.5 7 12.53 13.56 12.73 6.56.2 11.48-3.87 13.91-11.36a23.45 23.45 0 00-.73-17.11c-2.41-5.51-6.44-9.18-12.95-9-6.51.18-10.25 3.84-12.68 9.44-1.32 3.03-1.52 6.26-1.64 9.81zm-181.5-24.32c14.22-.23 20.67 5 19.51 14.78a15.36 15.36 0 01-1.62 4.84c-.89 1.78-1.51 9.78-.91 11.87 1.14 3.93 2.14 7.92 3.12 11.9.35 1.46 2 3.54-1.08 3.91-1.79.22-4.06.77-4.77-2-.86-3.35-1.68-6.71-2.57-10-.8-3-2.07-5.67-5.05-7.17-5.92-3-9.3-1.08-9.32 5.32 0 3.68-.08 7.35 0 11 .06 2.37-1.24 2.88-3.24 2.94-2.17.07-3.1-.71-3.09-3 .073-13.407.073-26.82 0-40.24 0-2.16.76-3.14 2.86-3.36 2.57-.29 5.13-.7 6.16-.79zm-2.69 13.67c0 8.58 0 8.58 5 8.58 7.07 0 11.06-3.24 10.94-8.9-.1-5.26-4.16-8-11-8.24-7.99-.29-3.75 5.76-4.94 8.51v.05zm437.01 9.94c0-6 .24-12.1-.08-18.13-.22-4.11 1.33-5.22 5.2-5 5.6.28 11.22.09 16.83.07 1.83 0 3.36.05 3.46 2.61.11 2.81-1.37 3.16-3.6 3.1-3.24-.09-6.53.35-9.7-.1-5.65-.8-5.8 2.45-5.55 6.51.23 3.67-1.21 8.21 5.38 7.42 3.19-.38 6.47 0 9.7-.08 2-.05 2.69.82 2.69 2.69s-.81 2.72-2.74 2.64c-2.15-.09-4.32 0-6.47 0-9.66.13-8-1.15-8.66 8.69-.39 6.12 1.19 8.75 7.64 7.77 3.16-.48 6.46 0 9.69-.07 1.92 0 2.65.92 2.68 2.78.03 1.86-.71 2.86-2.6 2.87h-21.36c-3 0-2.48-2.42-2.5-4.28-.03-6.54-.01-13.02-.01-19.49zM248 603.7c2.4-.24 3.93.28 4.83 3 4.43 13.29 9.16 26.48 13.65 39.75.39 1.14 2 3.16-.3 3.81-1.89.54-4.39 1.1-5.79-1.33a17.84 17.84 0 01-1.08-3c-3.93-11.07-3.92-11-15.88-10.2-2.6.17-3.87 1-4.52 3.47-.76 2.92-2.07 5.69-2.84 8.6-.88 3.34-3.44 3.16-5.63 2.53-2.79-.8-.8-2.83-.34-4.21 4.31-12.89 8.79-25.71 13-38.63.85-2.77 2.02-4.2 4.9-3.79zm0 7.16l-6.15 18.94c2.87 1.27 5.48.46 8 .75 3.53.39 4.76-.69 3.36-4.33-1.83-4.78-3.26-9.69-5.21-15.36zm196.8-7.14c3-.48 4.19 1 5.08 3.69 4.24 12.91 8.73 25.73 13.05 38.61.47 1.38 2.46 3.43-.27 4.26-2.12.64-4.83 1-5.71-2.39-.44-1.66-1.47-3.22-1.64-4.89-.68-6.38-4.39-7.26-10.18-7.5-6.71-.27-10 1.83-11 8.3a16.6 16.6 0 01-1.6 4.92c-1.24 2.53-3.74 2.1-5.71 1.53-2.4-.7-.71-2.59-.32-3.76 4.37-13.09 8.88-26.13 13.28-39.21.85-2.57 2.17-4.2 5.02-3.56zm0 7.11c-2.14 6.46-3.85 11.63-5.55 16.8-.58 1.75-.27 3 1.9 2.87 3.2-.18 6.53.64 9.8-.66-2-6.25-3.8-11.88-6.11-19.01h-.04zm-338.5 15.5c0-6.26.08-12.52 0-18.78-.05-2.64.7-4 3.63-3.93 6.05.15 12.09.06 18.14 0 1.87 0 3.38.21 3.44 2.7.08 2.87-1.67 3-3.79 3-2.59-.05-5.23.33-7.76-.08-6.41-1-8 1.6-7.7 7.74.22 4.72 1.24 6.75 6.17 6.17a67.38 67.38 0 018.41 0c1.7 0 3.48-.26 3.59 2.43.12 3-1.84 2.85-3.83 2.85-3.24 0-6.48.14-9.71 0-3.23-.14-4.39 1-4.51 4.44-.43 12-.57 12 11.68 12 2.16 0 4.32 0 6.48.05 1.6 0 2.19 1 2.24 2.51 0 1.7-.29 3.06-2.35 3.06h-21.36c-2.94 0-2.74-2.11-2.74-4.08l-.03-20.08zm818.13-22.62c3-.56 4 1.23 4.84 3.81 4.33 13.06 8.86 26 13.27 39.08.43 1.27 1.84 3.19-.46 3.7-1.84.4-4.44 1.24-5.56-1.62a24.68 24.68 0 01-1.62-4.9c-1-6.39-4.3-8.5-11-8.3-5.91.17-9.3 1.48-10.3 7.48a39.84 39.84 0 01-1.73 5.54c-.85 2.58-3.07 2.2-4.86 1.85-2.87-.55-1.4-2.55-.9-4 4.4-13 8.95-26 13.19-39.11.93-2.88 2.32-3.95 5.13-3.53zm-6.48 26.35c4.16.7 8.41.7 12.57 0-2.08-6.37-4.07-12.44-6.39-19.55-2.26 7.06-4.18 13.17-6.18 19.55zm-277.8-26.35c3-.56 4 1.25 4.81 3.82 4.23 12.88 8.66 25.69 13 38.54.5 1.47 2.13 3.5-.52 4.21-1.83.49-4.4 1.14-5.34-1.91-.64-2.06-1.71-4-2.09-6.11-.91-5.06-3.46-6.45-8.78-6.78-7.75-.49-11.66 2-12.58 9.58a13.6 13.6 0 01-1.16 3.7c-1 2.38-3.28 2-5 1.62-2.87-.55-1.32-2.68-.85-4.06 4.44-13 9.08-26 13.42-39.07.89-2.81 2.27-3.91 5.09-3.54zm-.35 7c-2 5.92-3.82 11.16-5.65 16.38-.88 2.51-.12 3.59 2.57 3.43a32.92 32.92 0 015.16 0c3.81.36 4.35-1 3-4.43-1.87-4.71-3.23-9.67-5.08-15.35v-.03zm234.46 16.37c0-6.47.13-12.94-.06-19.4-.09-2.77 1-3.86 3.57-4.13 4.3-.46 8.62-.86 12.89-.13 7.88 1.35 12.21 6.16 12.38 13.39.18 7.49-4.29 12.74-11.76 14.89-3.53 1-8.51-1.51-10.36 2.22-1.46 3-.2 7.2-.43 10.85-.14 2.21 1.52 5.58-2.94 5.73-5.08.16-3.12-3.67-3.22-6-.23-5.78-.07-11.6-.07-17.42zm6.29-10.14c0 10 0 10 4.54 10.08 7 .1 11.36-3.51 11.44-9.54.08-6.03-4.09-9-11.66-9-7.92-.03-2.6 6.12-4.32 8.46zm-135.6-13.9a23 23 0 018.32 1c1.61.59 2.63 1.15 1.94 3.23-.56 1.68-1.17 2.72-3.11 2.13-.62-.18-1.25-.37-1.88-.49-16.42-3.15-27.52 9.52-22.27 25.43 2.83 8.58 11.19 12.66 21.53 10.84 1.79-.31 4.62-3.1 5.69 1.09 1.15 4.47-2.9 3.62-4.81 4-9.36 2-18.39 1.05-24.74-6.94-6.81-8.59-6.81-18.49-2.37-28.09 4.15-8.99 12.08-12.35 21.7-12.2zm253.28 1.02c4.69-1.5 7.16.35 9 4.7 2.23 5.31 5.23 10.29 7.93 15.47 7.55-5.63 4.93-19.87 19.39-21-3.1 5.33-5.15 9.77-8 13.6a39.52 39.52 0 00-7.93 29.67c.3 2.43-.13 4.19-3.32 4.06-2.62-.1-3.6-1.31-3.17-3.63 2.67-14.43-4.61-25.71-11.49-37.18-1.05-1.73-2.69-3.36-2.41-5.69zm-710.77 25.63c0 5.61-.06 11.22 0 16.82 0 2.45-.21 4.07-3.37 4.06-3.35 0-3.18-2-3.17-4.24 0-10.56-.18-21.14.11-31.69.11-4.18-1-5.44-5.31-5.5-2.91 0-8.62 3-8.53-2.85.09-5.28 5.49-2.29 8.36-2.47 7.3-.47 14.65-.16 22-.15 2 0 4-.2 4 2.8s-1.86 2.77-3.88 2.91c-10.21.7-10.21.73-10.21 11.26v9.05zM81.01 603.67h13.63c1.94 0 3.31.29 3.32 2.76 0 2.29-1 2.86-3.11 3-3.59.2-8.74-1.78-10.38.92-1.84 3.05-.78 7.91-.81 12-.07 8 0 16 0 24 0 2.25.23 4.32-3.16 4.24-3.39-.08-3.16-2.08-3.16-4.36 0-10.39-.2-20.78.12-31.15.14-4.46-1-6-5.64-5.91-2.8 0-8.26 2.9-8.4-2.35-.15-5.94 5.53-2.4 8.54-3 3.01-.6 5.99-.16 9.05-.15zm588.13 22.97c0-5.82-.12-11.65 0-17.47.07-2.18-1.53-5.45 3.06-5.56 4.59-.11 3.34 2.95 3.36 5.3.06 10.35.24 20.71-.08 31.05-.12 4.13 1.24 5.26 5.11 4.92 3.64-.31 7.33 0 11-.09 2.13 0 3.79 0 3.75 2.93-.04 2.93-1.94 2.8-3.94 2.79-6 0-12.08-.19-18.11.06-3.54.15-4.37-1.26-4.27-4.52.26-6.46.12-12.91.12-19.41zm-194.74.18c0-5.82-.15-11.65.08-17.47.08-2.11-1.78-5.62 2.85-5.68 4.94-.07 3.26 3.64 3.3 6 .14 10.13.19 20.27 0 30.41-.07 3.55.8 5.08 4.62 4.79 4.08-.32 8.19 0 12.29-.08 1.75 0 2.84.43 2.87 2.5.03 2.07-.5 3.23-2.85 3.21-6.68-.08-13.37-.12-20.05 0-3.38.06-3.1-2.1-3.1-4.3 0-6.44-.01-12.91-.01-19.38zM.3 626.57v-18.79c0-2.36 0-4.22 3.27-4.17 3.27.05 3.31 1.83 3.3 4.21-.05 13-.08 25.93 0 38.9 0 2.78-.87 3.86-3.7 3.83-2.83-.03-2.9-1.82-2.89-3.88.04-6.7.02-13.4.02-20.1zm315.72.67v19.36c0 1.94.29 3.88-2.75 3.94-3.04.06-3.59-1.29-3.57-3.92.08-13.127.08-26.25 0-39.37 0-2.36.64-3.56 3.23-3.62 2.59-.06 3.15 1.32 3.12 3.6-.1 6.67-.03 13.34-.03 20.01zm566.58-319.1c-2.71 3.34-3 6.93-4.37 10-.53 1.16-.68 2.78-2.25 2.7-1.57-.08-1.43-1.88-2-2.95-1.28-2.24-.7-5.58-4-7.13-1.77 3.37.09 7.34-2.66 10.22a54.78 54.78 0 01.38-18.73 1.55 1.55 0 011.82-1.39 2.61 2.61 0 012.25 2c1.37 3.86 2.79 7.7 4.55 12.55 1.67-4.23 3-7.66 4.38-11.1.61-1.6.88-3.59 3.19-3.41 2.71.21 1.89 2.49 1.92 4 .11 5.27 0 10.55 0 17.7-3.64-5.22-1.49-9.89-3.21-14.46zm-18.04-6.2c-8.79.31-5.19 6.61-5.91 10.72-.49 2.77 1.39 8-1.24 7.83-4-.22-1.57-5.16-1.93-8-.56-4.35 2.15-10.28-6.44-10.29 5.31-2.06 10.15-1.42 15.52-.26z"></path></g></svg>