<svg xmlns="http://www.w3.org/2000/svg" viewBox="0.6696720123291016 0.7357425689697266 1740.6011962890625 324.852783203125"><g fill="none"><path fill="#0248BA" d="M598.8 182.85c26.9-51.12 55-101.67 80.15-153.61 10.27-21.11 21.87-31.37 45.91-27.81 14.71 2.18 30 .91 45 .22 9.1-.42 10.29 2.61 8.52 10.77a42385.092 42385.092 0 00-43.51 203c-2.17 10.19-4.44 20.37-6.2 30.64-1.16 6.78-3.83 10-11.46 9.52a278.85 278.85 0 00-35 0c-9 .57-9.36-3.27-7.83-10.34 13.833-64 27.57-128 41.21-192 .58-2.72 2-5.34-.13-9-19.93 37.56-39.59 74.6-59.25 111.63-15.8 29.78-31.9 59.41-47.2 89.45-4 7.88-8.76 11.1-17.42 10.17-10.68-1.16-24.05 4.24-31.5-2.24-7-6.11-3.68-19.69-4.73-30-6.05-59.29-11.88-118.59-17.85-178.61-5.56 3.4-3.69 9.12-4.62 13.42-13.37 61.94-26.65 123.9-39.45 186-1.88 9.12-5.67 11.59-14.83 11.57-155.733-.313-311.463-.313-467.19 0-10.2-.05-12.2-1.85-9.88-12.42a17253.53 17253.53 0 0050.09-231c1.76-8.34 4.75-10.59 13-10.58 169.093.22 338.183.22 507.27 0 8.69 0 11.18 2.63 11.78 11.15 4 56.53 8.55 113 12.92 169.54l2.2.53z"></path><path fill="#044ABA" d="M1241.34 228.27c-16 15.24-31.86 23.59-51.34 23.77-34.29.33-57.23-19.92-59.55-54.32-2.55-38 10.35-70.53 37.72-97 15.28-14.77 34.09-22.49 55.29-23.36 19.24-.8 36.45 3.76 46.42 22.28 1.3-.68 2.38-.89 2.52-1.37 5.48-19.16 5.46-19.17 25.28-19.16 8.347 0 16.68.033 25 .1a15 15 0 013.22 1c-12.33 41.93-19.64 85.05-29.09 127.69-3.16 14.25-6.09 28.55-9.09 42.83-8.82 42.06-31.72 64.63-74.23 72.07-21.11 3.7-42.47 4.11-63.41-1.17-23.31-5.88-34.73-22.1-33.41-44.75.38-6.5 2.56-8.73 9-8.35 7.9.47 15.86 0 23.79.13 8.87.15 19.26-3.29 19.79 12.21.21 6.22 7.5 9.54 13.9 11.07 20.47 4.89 39.77-4.91 47.92-24.45 4.87-11.55 6.93-23.86 10.27-39.22zm-59.1-47.2c-.11 14.87 1.09 26.45 12.74 32.42 12.22 6.26 24.37 3.49 35.57-3.68 7.2-4.61 12.29-11.25 16.13-18.77a102.8 102.8 0 0011.32-49.43c-.48-24.69-18.23-36.06-41-26.41-8.31 3.53-14.6 9.47-19.48 17-10.23 15.87-14.43 33.48-15.3 48.87h.02zm-169.5-79.26c17.24-19.21 37.79-28.41 62.58-28.14 34.09.38 52 20.79 46.07 54.32-5.16 29.14-11.72 58-17.67 87-.84 4.08-1.76 8.15-2.66 12.22-6.29 28.29-6.29 28.29-35.84 28.29-23.1 0-23.07 0-18.39-22 6.5-30.58 12.963-61.173 19.39-91.78 4.71-22.61-9.55-35.59-31.89-29.12-19.88 5.77-27.78 21.27-31.77 39.72-6.7 31-13.68 61.88-19.56 93-1.65 8.73-5.21 10.73-13.18 10.29-10.82-.59-21.71-.45-32.55 0-6.72.25-8.85-1.69-7.37-8.57 11.593-54.233 22.99-108.5 34.19-162.8 1.11-5.42 3.26-6.87 8.15-6.68 5.84.21 11.69-.06 17.54.07 7.89.17 17.84-2.29 23.11 1.56 5.44 4.02-2.67 13.7-.15 22.62zm418.03 78.18c-17.11 0-34.23.2-51.33-.1-6.28-.11-8.53 2.09-9.4 8.41-2.68 19.27 1.52 31.34 13.8 36.64 14.89 6.41 34.55 2 43.52-12.24 5.72-9.06 12.27-10.84 21.6-10.1 7.07.67 14.19.67 21.26 0 11.92-1.33 10.9 3.55 6.88 11.66-9.29 18.77-23.21 32.49-42.78 40a118.54 118.54 0 01-71.32 4.83c-21.67-5.18-35.77-18.31-40.93-40.71-11.86-51.44 21.89-118.25 70.17-138 17.74-7.25 36.1-10 55.12-6.41 23.83 4.54 40 17.78 46.39 41.69 5.22 19.51 2.83 38.82-1.52 58.15-1.41 6.23-5.29 6.27-10.14 6.24-17.11-.14-34.22-.06-51.32-.06zm-49.62-32.67h52.16c2.07 0 4.15 0 6.22-.05 2.61-.07 4.52-.8 5.76-3.6 6.92-15.64-4.62-34.71-21.63-35.51-20.34-.95-36.01 13.12-42.51 39.16zM861.9 232.84c-20.34 21.71-43.39 29.79-70.52 26.3-27-3.47-41.31-22.77-36-49.51 6.37-32 27.48-50.47 57.14-60.44a133.59 133.59 0 0150.62-6.87c13.14.81 16.8-4.25 16.89-16 .11-13.82-4.45-20.63-16.41-22.23-12.35-1.66-24.74 4.3-29.34 16.49-3.07 8.11-7.6 9.24-14.91 8.86a287.05 287.05 0 00-30.06 0c-7.64.41-9.55-1.75-6.79-9.06 6.37-16.87 17.53-29.19 33.79-36.77 26.09-12.15 53.33-13.59 80.68-6.09 26.53 7.28 36.85 26.25 31.35 55.29-6.36 33.59-13.54 67-19.63 100.68-4 21.92-3.39 22-26.27 22h-1.22c-20.79.03-20.79.03-19.32-22.65zm-7.59-61c-14.88 1.59-32.84 3.64-43.38 21.21-5 8.33-6.16 17.41.27 25.65 6.09 7.83 14.55 8.76 23.65 6.31 20.39-5.5 28.19-21.43 33-39.85 3.67-13.82 3.73-13.81-13.54-13.37v.05zm745.22 32.46c3.75 0 7.53.23 11.27 0 7.55-.55 13.53-.5 13.44 10.2-.06 6 5.48 10.15 11.34 12.1a38 38 0 0031.46-2.94c7.72-4.29 13.12-10.89 12.7-20.11-.42-9.22-8.34-11.87-15.44-14.2-13.86-4.53-28.07-8-41.84-12.81-26.77-9.3-35.73-29-25.53-55.45 5.64-14.59 15.81-25.51 29.43-32.9 25.61-13.91 52.93-17.56 81.22-11 21.82 5 34.4 21.32 33.66 40.82-.23 6.24-2.09 9.16-8.81 8.7-7.07-.48-14.19-.05-21.29-.13-9-.09-18.6 2.93-20.36-12-1-8.37-16.74-11.57-29.92-7.48-9.74 3-17.43 8.46-17.41 20.07 0 7.35 5.8 9.78 11.38 11.55 12.31 3.91 24.8 7.26 37.18 11 44 13.09 53.28 47.58 21.91 81.44-25.46 27.47-79.76 38.73-113.92 23.33-16.49-7.44-26.58-19.51-26.64-38.68 0-8.09 1.8-12.76 11.15-11.52 4.92.55 10.01.01 15.02.01zM1574.51 1.82c26.52 0 26.49 0 21.12 25.07-15.61 72.87-31.36 145.73-46.57 218.69-1.62 7.74-4.2 10.57-12.07 10.1a236.14 236.14 0 00-31.25 0c-9.83.71-10.62-2.74-8.72-11.47 16.49-75.67 33-151.36 48.24-227.27 2.58-12.77 7.24-17 19.25-15.21 3.26.48 6.71.09 10 .09z"></path></g></svg>