<svg xmlns="http://www.w3.org/2000/svg" viewBox="25 90 550 68.99998474121094"><path fill="#0086CD" fill-rule="evenodd" d="M25 104.978h13.73v5.672c2.016-2.347 3.936-4.01 5.952-5.085C46.7 104.587 49.195 104 51.98 104c3.073 0 5.473.587 7.297 1.663 1.824 1.075 3.169 2.738 4.417 4.987 2.304-2.542 4.416-4.205 6.24-5.183 1.92-.88 4.225-1.37 7.01-1.37 4.032 0 7.392 1.174 9.6 3.717C88.849 110.26 90 114.171 90 119.452v24.45H75.31v-22.298c0-1.76-.384-3.032-1.056-3.814-.864-1.37-2.208-2.054-3.552-2.054-1.825 0-3.169.587-4.225 1.956-.96 1.174-1.536 3.227-1.536 6.064v20.146H50.155v-21.418c0-1.76-.096-2.934-.288-3.52-.288-.88-.864-1.761-1.728-2.348-.672-.587-1.632-.88-2.688-.88-1.729 0-3.073.587-4.033 1.956-1.056 1.271-1.728 3.423-1.728 6.357V144H25v-39.022zm86.49 12.227l-14.314-1.35c.49-2.506 1.275-4.433 2.353-5.783.98-1.542 2.55-2.699 4.314-3.662 1.373-.771 3.333-1.35 5.686-1.832 2.451-.385 5.098-.578 7.844-.578 4.51 0 8.137.29 10.882.771 2.647.482 5 1.542 6.765 3.084 1.176.964 2.255 2.603 2.94 4.627.785 2.024 1.08 3.855 1.08 5.687v16.964c0 1.83.097 3.18.391 4.24.196.964.687 2.314 1.569 3.856h-14.118a33.573 33.573 0 01-1.078-2.313c-.098-.482-.294-1.253-.49-2.41-1.961 1.831-3.824 3.18-5.785 3.952-2.647.964-5.784 1.542-9.215 1.542-4.706 0-8.236-.964-10.687-3.084-2.45-2.217-3.627-4.82-3.627-7.904 0-2.892.882-5.301 2.647-7.132 1.765-1.928 5-3.278 9.608-4.145 5.686-1.06 9.216-1.928 10.98-2.313a49.979 49.979 0 005.294-1.832c0-1.831-.392-3.084-1.078-3.759-.784-.77-2.157-1.06-4.02-1.06-2.45 0-4.215.386-5.49 1.06-1.176.675-1.863 1.832-2.45 3.374zm12.941 7.807c-2.058.675-4.117 1.35-6.372 1.928-3.04.77-5 1.638-5.784 2.41-.883.77-1.275 1.734-1.275 2.698 0 1.157.392 2.12 1.176 2.892.883.674 2.157 1.06 3.628 1.06 1.765 0 3.235-.386 4.706-1.157 1.372-.77 2.45-1.831 3.039-2.891.588-1.157.882-2.699.882-4.53v-2.41zm48.792-20.045H187v37.987c0 2.513-.478 4.833-1.626 6.863a14.283 14.283 0 01-4.019 5.413c-1.722 1.257-3.73 2.32-6.314 2.9-2.679.58-5.645.87-8.897.87-7.75 0-12.916-1.16-15.882-3.48-2.87-2.32-4.21-5.413-4.21-9.28 0-.483 0-1.062.096-2.03l14.16 1.74c.382 1.257.86 2.224 1.722 2.707.956.774 2.391 1.16 4.018 1.16 2.105 0 3.635-.58 4.688-1.74 1.052-1.16 1.626-3.19 1.626-5.993v-5.8c-1.53 1.74-2.87 2.9-4.4 3.674-2.201 1.16-4.689 1.836-7.272 1.836-5.166 0-9.184-2.223-12.341-6.67-2.2-3.189-3.349-7.442-3.349-12.662 0-5.993 1.53-10.536 4.4-13.726 2.871-3.093 6.602-4.736 11.29-4.736 2.966 0 5.358.483 7.367 1.547 1.913.966 3.731 2.706 5.358 5.123v-5.703h-.192zm-13.585 18.655c0 2.803.574 4.93 1.722 6.186 1.148 1.354 2.774 2.03 4.688 2.03 1.913 0 3.348-.58 4.592-2.03 1.244-1.353 1.914-3.48 1.914-6.283 0-2.803-.575-5.026-2.01-6.476-1.243-1.353-2.87-2.223-4.688-2.223-1.913 0-3.348.677-4.592 2.127-1.148 1.256-1.626 3.576-1.626 6.67zm45.592-6.417l-14.247-1.35c.59-2.506 1.277-4.433 2.358-5.783.982-1.542 2.554-2.699 4.52-3.662 1.277-.771 3.242-1.35 5.698-1.832 2.358-.385 5.01-.578 7.762-.578 4.618 0 8.155.29 10.906.771 2.751.482 5.011 1.542 6.78 3.084 1.277.964 2.358 2.603 3.045 4.627.688 2.024 1.081 3.855 1.081 5.687v16.964c0 1.83.098 3.18.295 4.24.196.964.688 2.314 1.572 3.856h-14.05c-.59-.964-.884-1.831-1.081-2.313-.197-.482-.393-1.253-.491-2.41-2.064 1.831-3.93 3.18-5.895 3.952-2.653.964-5.7 1.542-9.236 1.542-4.716 0-8.254-.964-10.71-3.084-2.358-2.217-3.537-4.82-3.537-7.904 0-2.892.786-5.301 2.653-7.132 1.768-1.928 4.913-3.278 9.629-4.145 5.6-1.06 9.235-1.928 10.906-2.313a43.542 43.542 0 005.305-1.832c0-1.831-.294-3.084-1.08-3.759-.688-.77-2.064-1.06-3.93-1.06-2.457 0-4.324.386-5.6 1.06-1.18.675-1.966 1.832-2.654 3.374zm13.067 7.807c-2.063.675-4.127 1.35-6.387 1.928-3.045.77-5.01 1.638-5.796 2.41-.786.77-1.18 1.734-1.18 2.698 0 1.157.394 2.12 1.18 2.892.786.674 2.063 1.06 3.635 1.06 1.67 0 3.144-.386 4.618-1.157 1.572-.77 2.554-1.831 3.046-2.891.59-1.157.884-2.699.884-4.53v-2.41zM238.343 105h35.41v8.497L254.56 133.07H275V143h-38v-9.452l18.232-18.523h-16.889zM280 90h15v9.833h-15V90zm0 14.37h15V142h-15v-37.63zm23 .564h13.829v5.975c2.142-2.427 4.188-4.108 6.33-5.228 2.143-1.027 4.675-1.681 7.694-1.681 4.09 0 7.401 1.12 9.641 3.548 2.337 2.334 3.506 5.882 3.506 10.83V142h-14.9v-20.447c0-2.334-.487-3.922-1.364-4.949-.876-.933-2.142-1.493-3.7-1.493-1.85 0-3.312.56-4.48 1.96-1.169 1.4-1.753 3.642-1.753 7.096V142H303v-37.066zm91 22.72h-29.772c.195 2.404.878 4.038 1.952 5.288 1.367 1.635 3.319 2.5 5.662 2.5 1.366 0 2.83-.384 4.1-1.057a9.792 9.792 0 002.635-2.404l14.642 1.25c-2.245 3.846-4.978 6.634-8.102 8.269-3.221 1.73-7.809 2.5-13.763 2.5-5.174 0-9.176-.673-12.105-2.115-2.928-1.347-5.368-3.654-7.418-6.731-1.952-3.173-2.831-6.827-2.831-11.058 0-5.961 1.952-10.865 5.76-14.52 3.904-3.653 9.273-5.576 16.106-5.576 5.564 0 9.956.77 13.275 2.5 3.124 1.73 5.662 4.038 7.223 7.308 1.757 3.077 2.538 7.115 2.538 12.211v1.635H394zm-15.13-7.02c-.293-2.788-.976-4.903-2.343-6.057-1.171-1.154-2.83-1.923-4.978-1.923-2.343 0-4.198.961-5.662 2.788-.878 1.154-1.562 2.885-1.757 5.193h14.74zM399 90h15v52h-15zm64 52.158h-13.926v-6.084c-2.045 2.527-4.09 4.305-6.233 5.335-2.143 1.03-4.772 1.591-7.791 1.591-4.09 0-7.207-1.123-9.641-3.463-2.338-2.34-3.409-5.99-3.409-10.857V105h14.9v20.404c0 2.433.487 4.025 1.364 5.054.876.936 2.142 1.498 3.7 1.498 1.85 0 3.214-.656 4.285-1.966 1.17-1.31 1.753-3.65 1.753-7.113V105h14.9v37.158H463zM470 90h15v9.833h-15V90zm0 14.37h15V142h-15v-37.63zm21.531.63h35.32v8.497l-19.239 19.573H528V143h-38v-9.452l18.378-18.523H491.53zm53.959 12.205l-14.314-1.35c.49-2.506 1.275-4.433 2.353-5.783.98-1.542 2.451-2.699 4.314-3.662 1.373-.771 3.235-1.35 5.686-1.832 2.451-.385 5-.578 7.844-.578 4.51 0 8.137.29 10.882.771 2.647.482 5 1.542 6.765 3.084 1.176.964 2.255 2.603 2.94 4.627.785 2.024 1.08 3.855 1.08 5.687v16.964c0 1.83.097 3.18.391 4.24.196.964.687 2.314 1.569 3.856h-14.118a33.573 33.573 0 01-1.078-2.313c-.098-.482-.294-1.253-.49-2.41-1.961 1.831-3.824 3.18-5.785 3.952-2.647.964-5.784 1.542-9.215 1.542-4.706 0-8.236-.964-10.687-3.084-2.45-2.217-3.627-4.82-3.627-7.904 0-2.892.882-5.301 2.647-7.132 1.765-1.928 5-3.278 9.608-4.145 5.588-1.06 9.216-1.928 10.98-2.313a49.979 49.979 0 005.294-1.832c0-1.831-.392-3.084-1.078-3.759-.784-.77-2.157-1.06-4.02-1.06-2.45 0-4.215.386-5.49 1.06-1.176.675-1.863 1.832-2.45 3.374zm12.941 7.807c-2.058.675-4.117 1.35-6.372 1.928-3.04.77-5 1.638-5.784 2.41-.883.77-1.275 1.734-1.275 2.698 0 1.157.392 2.12 1.176 2.892.785.674 2.06 1.06 3.628 1.06 1.765 0 3.235-.386 4.706-1.157 1.372-.77 2.45-1.831 3.039-2.891.588-1.157.882-2.699.882-4.53v-2.41z"></path></svg>