<svg xmlns="http://www.w3.org/2000/svg" viewBox="175 43 250 161"><g fill="none"><path fill="#F36F21" d="M409.743 70H175l15.257-27H425zm0 134H175l15.257-27H425z"></path><path fill="#000" d="M281.338 85.068h15.097v13.526h-15.097V85.068zm.205 21.818h15.712v56.619h-15.712v-56.619zM336.74 85h15.713v78.165H336.74V85zm-27.736 0h15.713v78.165h-15.713V85zm100.355 38.13c-.888-11.146-8.949-19.235-25.003-19.235-5.465 0-9.564.68-13.936 2.991-3.211 1.7-6.354 4.69-7.857 7.545-1.57 2.787-1.98 5.777-1.98 8.836 0 4.758 1.98 8.564 5.123 10.875 3.074 2.447 7.036 3.806 11.409 4.826 4.372.951 8.607 1.631 12.775 2.718 4.098 1.088 6.08 3.195 6.08 5.234 0 1.427 0 3.127-2.938 4.894-1.503 1.155-3.894 1.835-7.31 1.835-8.13 0-11.818-3.262-12.638-9.787l-14.346.475c.41 5.982 3.825 13.322 8.608 16.109 5.191 2.99 8.607 4.554 18.991 4.554 5.056 0 7.31-.544 10.999-1.563 3.689-1.088 7.72-4.214 9.974-6.661 2.596-2.855 3.689-7.341 3.689-12.303 0-4.622-1.913-8.564-4.919-11.147-3.074-2.65-6.558-3.602-11.135-4.69-4.577-.951-10.247-1.903-14.278-2.922-4.03-.952-6.148-2.787-6.148-4.69 0-3.67 4.099-5.914 10.11-5.914 3.621 0 6.217 1.088 7.925 2.311 1.366 1.088 2.732 3.67 3.142 5.982l13.663-.272zm-179.327 19.032c-.683-4.214-1.435-6.66-1.435-6.66L213.91 85.407H190v78.029h16.054v-54.24h.205l2.323 8.836 13.253 45.336h16.464l13.253-45.336 2.323-8.836h.205v54.24h15.986v-77.96h-23.91l-14.689 50.093s-.683 2.38-1.434 6.593z"></path></g></svg>