<svg xmlns="http://www.w3.org/2000/svg" viewBox="134.99996948242188 57.509986877441406 330.0000305175781 138.49002075195312"><g fill="none" fill-rule="evenodd"><path fill="#007078" d="M243 167h222v-7H243zm0 15h222v-7H243zm0 14h222v-7H243z"></path><path fill="#D18A00" d="M163.478 107.299c-.128 12.431 9.662 22.503 21.803 22.631 12.14.127 22.057-9.754 22.184-22.249.127-11.857-9.662-21.802-21.803-21.866-12.205-.127-22.184 9.626-22.184 21.484"></path><path fill="#D18A00" d="M159.219 107.299c.127-14.28 11.95-25.819 26.443-25.692 14.493.128 26.126 11.858 25.998 26.138-.127 14.726-11.95 26.52-26.443 26.393-14.43-.128-26.126-12.177-25.998-26.84m-11.442 5.866s-2.988 4.335-8.582 3.761c3.052 2.933 6.865 4.463 10.743 4.526 0 .064-2.543 6.63-10.234 8.033 5.022 2.614 10.615 3.187 15.7 1.785 0 .064-.38 5.164-5.657 7.586 4.196 1.02 8.327.446 11.633-1.466 0 .064 1.144 6.821-4.831 12.112 5.72-.191 10.806-2.55 14.493-6.311 0 0 2.225 4.781-1.08 9.435 4.131-1.211 7.373-3.825 9.343-7.14.064 0 4.45 5.483 1.907 12.941 4.768-3.06 8.073-7.713 9.408-12.813 0 0 4.26 2.74 3.75 8.606 2.988-3.124 4.514-6.949 4.577-10.838.064 0 6.675 2.55 8.137 10.136 2.606-5.1 3.05-10.646 1.652-15.746.064 0 5.213.319 7.692 5.546.953-4.143.318-8.223-1.59-11.602 0 0 6.802-1.148 12.015 4.718-.255-5.738-2.606-10.774-6.357-14.472 0 0 4.768-2.231 9.344 1.02-1.207-4.08-3.814-7.331-7.12-9.243 0 0 5.15-4.463 12.841-1.913-3.114-4.781-7.691-7.969-12.777-9.308 0 0 2.734-4.27 8.645-3.824-3.114-2.933-6.992-4.463-10.806-4.463.064-.064 2.289-6.439 10.234-8.16-5.085-2.55-10.679-2.996-15.764-1.594-.064 0 .19-5.036 5.53-7.65-4.132-.956-8.2-.319-11.569 1.658 0-.064-1.08-7.013 4.895-12.177a21.942 21.942 0 00-14.493 6.567s-2.225-4.782 1.08-9.499c-4.131 1.211-7.31 3.825-9.28 7.204 0 0-4.386-5.419-1.844-13.069-4.767 3.124-7.945 7.841-9.28 13.005-.064 0-4.323-2.996-3.814-8.798-2.924 3.124-4.45 7.013-4.45 10.902 0 0-6.547-2.487-8.073-10.328-2.542 5.1-2.987 10.71-1.652 15.874 0 0-5.15-.383-7.628-5.738-1.017 4.08-.445 8.288 1.462 11.667 0 0-7.056.956-12.078-4.909.254 5.674 2.543 10.838 6.357 14.535-.064 0-4.768 2.231-9.408-1.084 1.208 4.144 3.814 7.331 7.056 9.308-.064 0-5.403 4.398-12.904 1.785 3.178 4.908 7.755 8.16 12.777 9.435"></path><path fill="#007078" d="M293.434 70.031l-15.614 36.161-16.18-36.16h-17.157v76.823h13.97v-52.25l14.292 32.5h9.074l14.44-32.585v52.335h14.596V70.031zm80.808 0l-15.614 36.161-16.18-36.16H325.29v76.823h13.971V94.606l14.291 32.5h9.074l14.44-32.586v52.335h14.596V70.031zm88.448 0h-16.37L430.414 95.88 414.73 70.031h-16.84l23.602 38.369-24.344 38.455h16.32l16.289-26.385 16.024 26.385h16.894l-23.992-38.9z"></path></g></svg>