<svg xmlns="http://www.w3.org/2000/svg" viewBox="0.288665771484375 0.43375158309936523 1578.3013916015625 518.087646484375"><g fill="none"><path fill="#5A5C5D" d="M93.26 438.57c12.18-28 17.66-55.55 25.1-82.46 8-29 7.49-29.12 37.92-29.14 3.34 0 6.7.25 10-.06 6.6-.62 9.43 1.46 10.05 8.79a13354.3 13354.3 0 0014.78 164.57c1 10.24-2.28 12.75-12.1 12.56-24.12-.47-24.13 0-25.88-23.93-2.22-30.34-4.44-60.69-8.89-91.41-5.947 20.127-11.9 40.26-17.86 60.4-4.46 15.2-9.29 30.32-13 45.71-1.72 7.07-4.7 9.17-11.84 9.19-24 .07-24 .38-30.36-23.11a47075.406 47075.406 0 01-23.57-88.08c-5.79 1.42-3.8 5.55-4 8.29-2.23 30.39-4.48 60.77-6.11 91.19-.43 8-1.8 11.69-11.23 11.66-27.55-.1-27.49.4-24.9-27.48 4.55-49 9.25-98 13.28-147.11.77-9.31 4.09-12.21 13-11.3a96.21 96.21 0 0022.5 0c11.67-1.62 15.69 3.93 18.19 14.35 7.65 31.75 16.14 63.3 24.92 97.37zm476.14-59.74c0-18.07.37-35.55-.15-53-.26-8.82 2.84-10.49 11.08-9.1 24.59 4.17 24.26 3.88 24.72 28.32 1 53.77-3 107.63 2.89 161.29.36 3.3.84 6.42-3.41 6-9.29-.8-19.24 3.37-27.75-2.77-2.63-1.89-4.15-1.31-6.57-.47-45.91 16-77.31-3.69-82-52-2-20.74 1-40.84 13.15-58.6 14.22-20.73 36.38-28.2 61.44-20.87a62.46 62.46 0 006.6 1.2zm.42 66.35c0-7.92-.66-15.92.16-23.76 1.08-10.3-4.88-14.38-13.06-16.77-8.76-2.56-16.66-.94-22.2 6.91-8.71 12.31-9.65 53.25-1.55 65.52 6 9 14.86 9.93 24.37 7.74 8.9-2 13.35-7.36 12.44-17.13-.7-7.44-.14-15-.16-22.49v-.02zm237.42-3.56c0 10.44.06 20.88 0 31.32a32.1 32.1 0 003.74 15.62c2 3.89 9.29 6.18 6.48 11a59.32 59.32 0 01-15.56 17.64c-5.41 4-10.29-2-13.57-5.82-5.23-6.06-8.9-5.57-15.28-1.09-16.11 11.3-45.25 9.73-60.28-2.09-13.23-10.4-17.87-32.59-10.45-51.87 7.33-19.1 24.27-23.91 41.93-27.09 5.3-.95 10.82-.67 16.24-1 5.42-.33 12.69 1.83 11.8-8-.73-8.04-1.13-16.28-12.21-17.04-12.23-.87-23.33 2.91-33.1 9.54-7.58 5.14-11.81 4-15.44-4a56.42 56.42 0 00-6-9.55c-3.68-5.07-2-8.19 3.06-10.88 21.48-11.44 43.77-18.8 68.48-13.59 20.58 4.34 30 15.83 30.41 36.84.19 10 0 20 0 30.06h-.25zm-35.28 26.45c.23-16 .11-16.16-15.64-14.12a47.31 47.31 0 00-4.91.77c-7.61 1.75-12.73 6.1-13.55 14.17-.77 7.62-.44 15 7 19.87 7 4.56 13.35 2.16 19.89-1.13 8.65-4.35 6.91-12.28 7.21-19.56zM352.67 451.7c-1-19.61 2.39-42.28-3.46-64.48-.83-3.12-.81-5.7 3.13-6.79 7.64-2.1 15.19-4.51 22.83-6.62 5-1.38 7 2.12 7.76 5.95 1.65 8.69 5.55 7 11.1 3.36 11.93-7.83 25.08-11.34 39.34-8.58 15.4 3 25.48 12.18 26 27.74 1.25 34.6.82 69.25 1.11 103.88 0 4-1.38 6.39-5.73 6.36-7.93-.05-15.87-.11-23.8-.06-7.45 0-6-5.46-6-9.77-.09-25.47.17-50.93-.18-76.39-.13-9 2.75-20.88-11.83-21.93-13.13-.94-24.45 10.54-24.45 23.68 0 24.63-.28 49.26.18 73.89.16 8.1-2.11 10.8-10.51 10.83-25.39.09-25.41.46-25.51-24.42-.02-11.27.02-22.54.02-36.65zM317.28 431c0 15.45-.08 30.9.08 46.35 0 3.72 1 7.42 1.34 11.15.51 5.2 7.95 10.13 3.55 14.63-5.07 5.18-12.64 7.9-19.12 11.7-2.63 1.55-5.4.89-6.65-1.29-5.52-9.64-11.68-6.79-19.32-2.48-10.12 5.72-21.61 6.36-32.94 4.65-22.16-3.36-33.34-15.41-33.85-38-.69-30-.21-60.12-.54-90.18-.07-6.13 2-8.36 8.11-9.86 27.79-6.78 27.71-7 27.73 20.87 0 23.38-.22 46.76.17 70.14.24 14.7 5.52 20.58 16.47 20.08 12.2-.55 20-9 20-21.93 0-25 .35-50.11-.22-75.15-.19-8.58 1.85-12.32 11-14.11 24.3-4.78 24.19-5.32 24.19 19.58-.013 11.3-.013 22.583 0 33.85zm715.02 85.79c-15.28.56-30.44-5.22-45.58-11.32-6.77-2.73-7.77-6.63-4-12.55a32.85 32.85 0 003.72-7.91c2.57-8.39 6.64-10.21 14.65-5.4a72.22 72.22 0 0033.14 10.26c9.58.56 17.93-2.08 20-12.74 2.07-10.66-5.92-14.69-14.37-17-6.8-1.89-13.89-2.77-20.81-4.26-20.8-4.45-32.16-16.33-33.46-34.86-1.48-21.18 9-37.92 28.66-44.73 23-8 45.18-3.83 66.75 6 4.27 1.95 5 4.12 3.25 8.76-6.1 16.39-7.6 17.29-23.77 12.11-5.13-1.65-10.48-3.34-15.79-3.58-8.62-.38-17.47.91-19.44 11.44-1.91 10.26 6.74 12.23 13.75 14.58 6.7 2.24 13.69 3.61 20.53 5.45 21.54 5.8 32 17.5 33 37 1 18.37-10.38 35.74-28.33 43.2-10.61 4.41-18.19 5.8-31.9 5.55zm176.8-4.24c-13 4.18-18.7-4.07-20.55-17-1.3-9.09-5.87-13.19-15.22-11.52-2.43.43-5 0-7.5.07-24.57.34-19.68-2.87-25.87 19-2.16 7.62-5.79 9.52-13.13 9.59-24.8.21-25 .43-17.57-22.38 11.16-34.5 22.86-68.83 33.63-103.44 2.74-8.79 6.94-11.36 15.91-11.21 28.38.48 28.43.09 37.1 27.79a42003.75 42003.75 0 0128.24 90.68c5.67 18.17 5.71 18.16-15.04 18.42zm-45.16-94.21c-3 10.48-5.88 20.26-8.42 30.15-2 7.9 4.24 7.09 8.24 6.26 4-.83 13.18 4.24 11.17-5.58-2.09-10.23-2.85-21.35-10.99-30.83zm-287.23-18.32c0 24.59-.24 49.18.15 73.76.11 7.61-.12 15.34 10.86 18.27 6.66 1.78 6.7 11.24 6.92 17.43.2 5.82-6.65 5.21-10.85 5.9-27.22 4.5-43.6-9.06-43.83-36.8-.35-40.84-.18-81.69-.23-122.53v-7.51c-.65-25.83-.58-25.53 25.09-31.36 7.78-1.77 10.84-.22 10.8 7.85-.14 25 0 50 0 75l1.09-.01zm-201.38 43.02c0 20-.23 40 .13 60 .12 6.87-1.93 9.39-9.1 9.71-26.87 1.22-26.85 1.47-26.85-25.26 0-32.93.28-65.86-.21-98.78-.12-8 2.85-10.82 10.14-12.19 26-4.86 25.93-5 25.93 21.49v45l-.04.03zm-17.41-126.72c12.31-.05 21.76 9.77 21.62 22.49-.14 12.72-9.58 22.16-22.07 22.11-12.49-.05-21.76-9.62-21.76-22.42.066-12.234 9.976-22.13 22.21-22.18z"></path><path fill="#993E38" d="M1205.48 267.49l8.24 7.16c.74-.3 1.86-.4 2.13-.93 1.57-3.1-1.58-8 3.26-9.71 2.65-.94 4.63 1.41 6.1 3.34 2.77 3.66 5.66 7.75 3.91 12.46-1.92 5.16-5.3 2.49-7.61.11-7.18-7.42-6.1 1.12-8 4a2.26 2.26 0 00-.63 1.09c-4.23-5.2-8.08-10.57-8-17.72l.6.2zm282.05 70.9c3.06-8.49 7.22-15.39 18.13-12.49l-1.77 6.17-8.62 7.18c-2.21.63-5.69 1.21-3.52 4.22 1.86 2.58 4-.34 5.64-1.89 2.91.37 4.54 1.32 2.07 4.31-2.92 3.51-7.14 4.8-11.07 6.59.32-4.73 4.38-9.69-.86-14.09zm-23.88-320.33c1.88 3.36 3.41 6.7-.1 10-3.7 3.48-5.86-1.16-8.75-1.78-4.59-1-7.69-4.19-9.58-8.64 4.85-4.12 9.45-.77 14-.09l4.43.51zM1247.5 315.87c-6.15-.07-8.72-5.9-13.41-8.37a4.75 4.75 0 01-1.59-7.37c2.06-2.69 5.19-1.6 7.84 0 5.82 3.61 9 8.41 7.33 15.56l-.17.18zm225.14 32.03l-1.77 1.71c-4.54 4.4-9.31 8.61-16.15 5.36-2.36-1.12-1.41-3.82.15-5.23 5.16-4.68 10.29-10.2 18-4.22a2.91 2.91 0 00-.23 2.38zM1257.02 48.04c2.83.89 4.54-1.23 6.67-2.37 2.74-1.46 5.51-4.79 8.78-1.75 2.31 2.15.32 4.69-1.31 6.44-3.61 3.89-7.09 8.29-13.49 6.88-6.65-1.47.35-5.25-1.29-7.56.21-.55.43-1.09.64-1.64zm127.04 332.42c-2.82-2.73-7.63-5.76-2.78-9.64a13.49 13.49 0 0116.1-.6c2.49 1.64 1.27 4.37-1.43 5.69-3.18 1.55-7.49.28-9.84 3.94a2.59 2.59 0 00-2.05.61zm-189.22-185.69c1.2-2.36 1.68-6.76 5.5-4.44 4.49 2.71 3.25 7.95 3.13 12.41-.07 2.51-.27 5.52-3.17 5.92-3.94.54-4.16-3-4.84-5.79-.39-1.59-.82-3.16-1.24-4.74.334-.71.618-1.441.85-2.19.09-.35-.14-.74-.23-1.17zm104.23 168.15c-.75-2.85-4.42-6.93 1.18-7.83 5.44-.86 11.31 1.27 13.84 6.45 2.28 4.64-2.9 3.47-5.23 4.31l-9.79-2.93zm219.94-43.14c-1.72-7.73 4.06-11.31 8.79-15.25.89-.74 3.77.25 3.4 2.28-1.23 6.66-6.09 10.32-11.8 13.08l-.39-.11zM1267.4 342.2c-6-2.43-11.86-5-14-13.62 8 .53 11.72 5.6 15.84 9.92l-.42 2.45a1.1 1.1 0 00-1.07 1.41l-.35-.16zm239.66-297c-.77 2.71 5 5.19 1.08 7.37-3.92 2.18-6.65-2.17-9.38-4.4-2.06-1.68-5.59-4-3.27-6.94 2.85-3.6 5.65 2.1 8.87 1.32l2.7 2.65zm-316 125.36c1.11-4.87-.31-10.65 5.83-14.82 3.25 7.68 2.79 14-3.31 19.48l-2.52-4.66zm167.97 210.64c-3.93-2-9.2-.56-12.42-4.65 8.83-5.09 11-4.65 18.8 3.88l-6.38.77zm110.13-16.21c-3.57-.5-6.49 4.18-10.62 1.29 1.75-5.24 6.67-5.76 10.73-7.3 1.27-.49 3.78-.65 3.13 2-.35 1.45-1.92 2.6-2.94 3.89l-.3.12zm109.43-82.3c-.3.69-.45 1.76-1 1.95-.55.19-1.33-.48-2-.77.3-.69.45-1.77.94-2 .49-.23 1.37.52 2.06.82z"></path><path fill="#993E38" d="M1267.76 342.35a1.1 1.1 0 011.07-1.41l.86 1.62-1.93-.21zm95.16-129.3c11.16.16 18.28 7 17.38 15.8-.9 8.8-6.4 13.39-15 13.6a15.19 15.19 0 01-15.34-16.1c.54-9.22 6.2-12.95 12.96-13.3zm-32.41-37.67c.29-8.9 5.33-14.36 14.59-14.74 9.7-.39 14.74 5.54 14.65 14.81-.08 9.09-5.29 15.33-14.53 15.52-9.24.19-14.44-5.43-14.71-15.59zm65.76-4.49c-8.42-1.69-14.71-6.17-14.48-15.58.23-9.41 6.4-14.76 15.43-14.37 8.8.38 14.68 5.49 14.6 15.28-.08 10.07-6.48 13.56-15.55 14.67zm35.25 34.78c.22 10.25-6.8 17.53-15.55 17.23-9.18-.3-13.58-6.17-13.91-14.47-.37-9.2 4.87-15.14 14.16-15.59 9.29-.45 14.54 4.86 15.3 12.83zm45.51-18.34c-.82 8.86-4.63 15.07-13.67 14.94-8.62-.12-12.08-6.46-12.19-14.27-.11-8.58 4-14.46 13.2-14.4 8.9.06 11.15 6.97 12.66 13.73zm-162.69-59.13c1.57-8.4 6.33-14.31 15.41-14.5 7.67-.17 12.87 4.72 12.33 12.4-.61 8.62-5.81 14.41-15.2 14.66-8.2.2-11.72-4.68-12.54-12.56zm70.37 133.27c8.12.48 13.67 4.28 14 12.77.36 8.78-5.62 13-13.4 13.21-8.31.22-15.09-4-15-13.14.08-8.46 6.63-11.78 14.4-12.84zm-73.55-66.27c-1.08 8.65-4.47 14.93-13.22 14.49-8.28-.41-12.71-6.37-12.74-14.36-.03-7.99 4.09-14.3 12.48-14.47 9.25-.24 12.24 6.97 13.48 14.34zm65.37-73.71c-7.84-1-13.8-4.49-13.54-13.3.26-8.81 6.44-12.31 14.28-12.47 8-.17 14.09 3.5 14.17 12.34.09 9.51-6.53 12.64-14.91 13.43zm68.87 3.78c8.18.54 13.09 6 13.29 15.19.16 7.29-4 11.71-11.44 12.2-8 .52-16.34-8.07-15.62-16.19.64-7.27 4.83-11.27 13.77-11.2zm-11.96 143.79c-8.24-.11-13.69-3.6-13.63-11.58.06-9.22 5.89-14.2 15-14.71 7.32-.41 12 3.24 12.19 10.79.27 9.42-5.01 14.29-13.56 15.5zm-161.93-121.01c1-6.85 4.87-13.3 13.53-13.68 6.76-.3 10 5 10.24 11.61.27 7.91-7.57 16.76-14.26 15.76-6.69-1-9.66-5.68-9.51-13.69zm44.26 82.25c7.58 1.76 14.11 4.75 14 14.27-.12 9.05-7.13 12.55-13.85 12.58-8.65.05-12.42-7.37-12.45-15.28-.05-7.24 4.94-10.9 12.3-11.57zm109.39-124.73c-7.4-.88-13.57-4.39-14-13.49-.33-7.42 5.14-10 11.28-10.49 7.93-.66 16.14 7.17 15.65 14.26-.4 5.92-5.24 9.81-12.93 9.72zm-86.65 195.17c-7.48-.82-13.88-4.55-14.19-13.37-.23-6.77 4.9-10.57 11.5-10.26 8.26.39 14.52 4.58 14.92 13.45.33 7.12-4.76 9.93-12.23 10.18zm128.02-64.54c1.25-7.95 5-14.52 13.88-14.6 7-.06 10 5.75 9.87 12.08-.23 8.49-4.59 14.31-13.74 14.47-7.61.05-9.44-5.45-10.01-11.95zM1360.46 79.79c-7-.36-13.11-1.95-13.34-9.27-.26-8.27 6-11.4 13.3-11.88 6.45-.43 12.25 1.9 12.58 9.1.39 8.46-6.12 10.93-12.54 12.05zm127.43 58.18c-8.18-1.88-13-6.78-13.27-15.29-.21-6.37 3.17-10.63 9.7-10 8.87.93 12.23 7.57 12.65 15.6.31 5.92-3.23 8.97-9.08 9.69zm25.27 33.5c-.27 6.24-1.8 12-9.47 11.89-8.71-.1-10.77-7.07-11.21-13.82-.41-6.3 2.68-12 9.71-12 8.44.03 10.53 6.66 10.97 13.93zm-224.91 88.3c-.5 5.88-2.88 10.3-8.92 10.08-9-.33-12.86-6.61-13.56-14.71-.48-5.52 1.9-9.94 8.41-9.6 8.98.48 12.53 6.66 14.07 14.23zm112.91 63.86c-6.53-.38-12.31-2-12.15-9.57.19-8.45 6.69-10.93 13.73-11.15 6.32-.2 12.08 2.64 12.07 9.66.03 8.46-6.93 10.17-13.65 11.06zm-89.83-226.8c-4.68-.54-9.67-4.27-9.47-8.3.41-7.79 6.73-12 14.37-12.9 6.14-.71 11 1.66 10.87 8.71-.15 9.76-7.06 12.04-15.77 12.49zm94.52-31.15c-7-.73-13.41-2.38-13.63-10.28-.18-6.84 5.25-8.88 11.23-8.63 7.1.29 13.94 2.37 13.9 10.81-.03 6.91-6.19 7.81-11.5 8.1zm-134.58 53.3c-6.06-.18-8.93-3.36-8.67-8.76.4-8.08 4.78-13.46 12.85-14.59 5.75-.8 8.52 3.09 8.26 8.47-.39 8.1-5.13 12.84-12.44 14.88zm-15.37 48.39c-.84 5.95-2.25 12.47-10.34 12.66-7.1.17-8.88-5.62-8.76-11.28.13-6.67 2.69-12.86 10.41-13.19 7.16-.36 8.37 5.48 8.69 11.81zm101.79 168.3c-5.58-1.57-12.18-1.92-11.64-11 .46-7.68 5.54-8.66 11.13-8.13 6.4.61 12.9 2.92 12.63 10.78-.23 6.78-6.1 7.97-12.12 8.35zm-62.47-47.26c6.48 1.1 12 5.06 13.2 13 .86 5.74-3.18 8.56-8.4 8.32-8-.38-13.23-5.21-14.45-13-.87-5.53 2.89-8.24 9.65-8.32zm-46.27-76.15c0-7.39 2.87-12.92 9.75-12.82 7.4.11 10.28 6.2 10.66 13.09.37 6.5-1.69 12.58-8.86 12.71-8.16.14-10.75-6.48-11.55-12.98zm199.95 72.85c7.1.18 10.92 2.9 10.36 9.14-.81 9.18-7.72 12.67-15.49 13.38-6.26.57-7.54-4.2-7.5-10 .07-9.64 7.47-10.27 12.63-12.52zm28.52-199.06c-.57 6.32-4.32 8.67-9.34 8.25-7.25-.59-13-4.78-13.59-12-.38-5.12 3.85-7.72 10.06-7.67 8.72.08 11.33 5.06 12.87 11.42zm47.93 128.88c-1 6.31-3.08 12.71-10.86 12.64-7-.06-8.21-6-7.93-11.82.33-6.77 2.37-13.06 10.39-12.88 6.87.16 8.14 6 8.4 12.06zm-24.88 57.06c-3 6.57-5 14.26-13.93 15.18-5.73.59-8.74-2.93-8.5-8.19.35-7.9 4.91-13.37 12.63-14.9 5.49-1.1 7.55 4 9.8 7.91zM1346.16 47.08c-6.4-.35-11.85-1-11.23-7 .82-7.73 7.7-8.65 14-9.13 4.61-.36 9.06 1.47 8.91 6.27-.26 7.98-7.3 8.64-11.68 9.86zm121.73 278.12c-2.06 8.14-8.38 10.61-15.73 11-4.5.27-7.25-2.7-6.1-7.07 1.91-7.25 7.53-10.34 14.75-10.56 4.35-.07 7 1.9 7.08 6.63zm-26.3-285.5c6.7 1.08 13.35 3.25 14.34 11.09.64 5-3.78 7.24-8.48 6.51-6.88-1.06-13.24-3.74-14-11.75-.42-5.01 4.12-5.35 8.14-5.85zm-125.37 12.87c-2.09 7-7.39 10.61-14.49 11.47-4.21.51-7.87-1.62-7.29-6.34 1-7.92 6.92-11 14.08-11.69 4.18-.41 7.27 1.46 7.7 6.56zm-68.59 71.5c-3.71 4.37-2 13.58-11.54 14.28-4.54.33-7.19-1.88-7.29-6.35-.18-8.37 4.94-13.07 12.31-15 3.9-.95 5.73 2.54 6.52 7.07zm293.44 33.73c-.61 5.32-1.13 10.4-6.48 10-7.9-.6-9.28-7.18-9.31-13.62 0-4.69 1.07-9.77 7.49-8.66 7.39 1.26 7.28 7.8 8.3 12.28zm-298.91 98.4c7.32 1.53 10.94 6.66 11.87 13.76.52 3.91-.48 8.13-5.48 7.84-8-.47-10.9-6.61-12.07-13.4-.64-3.87.68-7.46 5.68-8.2zm272.27 1.76c.42-7.2 1.86-13.15 9.74-14.11 5.29-.65 7.72 2.6 7.59 7.4-.18 7.17-2.93 13.35-10.72 14.45-5.5.78-6.25-4.1-6.61-7.74zM1387.1 20.61c5.75.81 11.6 1.34 11.24 7.9-.32 5.75-5.86 6.35-10.41 6.16-5.23-.22-12.16-.37-11.81-7.53.31-6.22 7.14-5.36 10.98-6.53zm-161.3 163.13c-.68 6.64-2.38 13.86-8.16 14.35-5.5.47-6.06-6.84-6.23-11.79-.18-5.57.61-11.89 7.51-12.16 5.88-.23 5.59 6.06 6.88 9.6zm35.43 112.22c7.77.69 11.6 5.73 12.56 12.94.54 4.05-2.6 6.78-6.28 5.27-5.79-2.37-13.12-3.59-13.71-12.27-.4-5.8 3.45-5.61 7.43-5.94zm156.11 39.45c4.5.58 10.64-.06 9.74 6.54-.93 6.8-7.17 8.54-13.23 8.81-4.75.21-10.08-.73-9.57-6.81.63-7.57 7.43-7.68 13.06-8.54zm78.1-267.73c6.74 1.65 11 6.14 11.8 13.47.42 3.89-1.91 6.81-5.92 5.8-6.88-1.72-11.55-6.4-12.58-13.59-.58-4.08 2.28-5.77 6.7-5.68zM1237.5 227.82c-.86 4.07-.54 10.2-6.66 9.78-7-.48-8.64-6.89-9.22-12.82-.46-4.76.46-10.16 6.41-9.92 7.33.34 8.24 6.95 9.47 12.96zm281.93-101.49c-7.24-1.89-10.08-7.47-10.51-14.54-.25-4 1.14-8.16 6.08-7.2 7.49 1.46 10.54 7.37 11.27 14.45.46 4.48-1.99 6.87-6.84 7.29zm-204.06 196.78c4.94 3.46 12.36 4.45 13.45 12.31.68 5-3.28 6.34-7.16 6.45-7.4.2-13.07-3.5-14.7-10.52-1.1-4.73 4.05-6.28 8.41-8.24zm59.64 37.99c-4.87-.58-11.41-1-11.38-7.81 0-5.66 6.3-5.94 10.58-5.84 4.59.1 11-.43 11.61 6.23.58 6.87-5.29 7.08-10.81 7.42zm122.74-62.42c4.56 0 7.14 2.14 6.31 6.1-1.49 7.18-6.39 11.66-13.6 12.81-3.39.54-5.73-2.15-5.24-5.46 1.08-7.36 5.94-11.58 12.53-13.45zm53.67-101.18c-1 4.81-1.13 11-7.77 10.91-5.81-.08-6.59-5.39-6.57-10.21 0-5.22.84-11.25 6.81-11.63 6.45-.37 6.81 5.9 7.53 10.93zM1276.53 71.99c-2.14 5.85-6.1 10.79-13.66 11.38-3.46.27-7.31-.45-6.43-5.16 1.45-7.7 7.3-11.51 14.34-13.08 4.01-.93 6.02 1.88 5.75 6.86zm150-43.64c-5.34-1.69-12.52-1.85-13.67-8.29-.85-4.79 5.06-4.7 8.35-4 5.08 1 12.44-.18 13.46 7.14.71 5.08-4.68 4.31-8.14 5.15zm117.2 209.39c.82-5.27.78-11.81 8.08-12.91 3.58-.54 4 3.47 3.92 6.34-.26 5.78-.71 12.23-7.48 13.8-4.71 1.09-4-3.77-4.52-7.23zm-207.49 115.8c4.16 1.14 10.31 1.41 11.17 7.28.81 5.48-4.56 5.1-8.07 4.69-5.37-.61-11.75-1.63-11.94-8.4-.1-3.68 4.85-3.63 8.84-3.57zm2.31-341.34c3.41-.22 8-.19 6.94 4.24-1.3 5.25-6.86 6.77-12 7-3 .12-8.18 1-7.55-3.65.88-6.59 7.27-6.84 12.61-7.59zm148.22 36.23c-.53 4.41-3.29 5.11-6.3 4.31-6.15-1.63-11.85-4.38-12.45-11.65-.24-3 3-3.64 5.51-3.17 6.4 1.17 11.4 4.21 13.24 10.51zm-189.96-9.77c-4.2.14-7.37 0-7.16-4.17.4-7.64 7.51-6.49 12-8.49 3.15-1.39 6.78.82 6.16 3.65-1.26 5.84-6.73 7.77-11 9.01zm-58.16 46.21c5.52 1.66 5.43 5.5 3.73 9.84-1.7 4.34-4.21 8.47-9 9.54-5.1 1.13-5-2.89-4.79-6.3.37-5.43 5.1-8.26 7.65-12.4l2.41-.68zm56.15 254.52c-.54 4.34-3.52 4.64-6.39 4-5.76-1.34-11.24-3.75-11.93-10.49-.38-3.67 2.91-4.64 6.06-3.89 5.89 1.38 10.27 4.7 12.26 10.38zm264.57-191.61c-.5 3.14.91 8.08-4 7.36-5.9-.86-6.44-6.76-6.94-11.54-.31-3-.55-7.91 4-7.24 5.97.84 5.99 6.84 6.94 11.42zm-25.86 136.6c-2 4.85-3.69 10.93-10.69 11.68-4.35.47-4.24-3.24-3.63-6.13 1.28-6.11 4.43-11.05 11.11-11.7 2.92-.28 3.72 2.77 3.21 6.15zm-314.85-137.66c-1.28 4.47-1.87 10.55-7.87 10.7-4.63.12-4.8-4.93-4.07-8.56.94-4.68 1.54-10.79 7.7-10.94 5.08-.12 4.07 5.02 4.24 8.8zm209.72 211.6c2.93.31 7.64-.55 7.19 3-.85 6.78-7.34 6.88-12.63 7.4-2.67.25-7.2.54-6.39-3.53 1.17-5.9 7.08-6.06 11.83-6.87zm118.39-245.86c-.63 3.94-2 8.36-4.54 7.08-5.64-2.86-8.07-8.84-8.64-15.17-.19-2.19 1.27-4.49 3.61-3.89 6.53 1.72 8.02 7.39 9.57 11.98zm12.02 70.13c1.06-3.34-.81-9.29 4.45-8.67 5 .59 4.14 6.5 4 10.42-.08 3 .85 8.19-3.56 8-5.52-.3-4.16-6.02-4.89-9.75zm-355.31 51.53c.84-2.84-1-8.36 4.1-7.11 5.33 1.32 6.32 7.21 6.73 12.28.24 2.86.12 7.06-3.69 6.49-6.2-.91-6.24-6.81-7.14-11.66zm168.33-221.28c-3.31-1.06-9.72 1.36-9.58-4.31.14-5.24 6.45-3.83 10.13-3.84 3.68-.01 10-2.09 9.92 3.7-.05 4.94-6.24 3.92-10.47 4.45zm183.81 250.36c-1.54 4.67-2.3 10.37-7.81 11.7-3 .71-3.4-3-2.67-5.49 1.36-4.66 2.15-10.23 8.11-11.1 2.44-.38 2.33 2.79 2.37 4.89zM1398.41 2.44c6.44-3.62 12.12-2 17 2.14 1.53 1.3-.62 4.19-2.39 4.77-6.65 2.19-11.66.19-14.61-6.91zm167.75 225.34c-4.81-7.71-2.62-13.39 1.86-21 5.04 8.42 2.07 14.04-1.86 21zm-36.82-148.83c.31 3-1.08 4.5-3.45 4-5.77-1.29-8.81-5.71-10.64-10.87-1.18-3.31 1.19-4.67 4-4 5.74 1.43 8.29 6.12 10.09 10.87zm-319.71 45.61c-3.15-.09-3.46-2.32-3.13-4.28.84-4.89 2.08-9.92 6.94-12.35 2.49-1.25 3.79 1.14 3.49 3.32-.72 5.36-2.1 10.52-7.3 13.31zm21.61-46.66c-1.14-7.3 3.61-11.2 8.74-14.73.56-.39 3 .48 3 1 1 6.28-4.91 8.84-7.45 13.26l-4.29.47z"></path><path fill="#993E38" d="M1231.24 77.9l4.33-.47c3.16 1.6 3.12 4.52 3.08 7.44l-2.43.68c-3.49-.31-7.35-.1-7.57-5.19l.06-.07 2.53-2.39zm266.15 263.68c-1.64 1.55-3.78 4.47-5.64 1.89-2.17-3 1.31-3.59 3.52-4.22.7.78 1.41 1.55 2.12 2.33z"></path></g></svg>