<svg xmlns="http://www.w3.org/2000/svg" viewBox="0.02999114990234375 0.27497029304504395 1680.7001953125 560.5496215820312"><g fill="none"><path fill="#904229" d="M820.84 171.54c0-43-.23-85.92.07-128.87.24-33.6 9.1-42 42.83-42.07 53-.05 106 .33 158.93-.32 13-.16 12.8 3.48 8.42 13.57-41.46 95.31-82.47 190.82-123.83 286.18-4.91 11.33-10.25 22.56-19.38 31.48-11.05 10.79-24.18 14.87-39.27 13-17.78-2.25-27.34-13.29-27.53-34-.44-46.3-.14-92.6-.14-138.89l-.1-.08z"></path><path fill="#899291" d="M1394.05 436.75h89.64c-26.46 9.76-11.37 32-14.59 48.48-.93 4.73 3 6.49 7.35 6.49 12.89 0 25.78 0 38.67-.06 2.84 0 7-.06 7.26-3.14 1.23-14.14 3.22-28.45-1.48-42.37-1.92-5.67-9.49-3.17-13.62-8.93h48.25c-18.09 4.72-14.34 19.35-14.44 32.05-.15 21-.06 42 0 63 0 8.25-.28 17.86 9.66 20 9.94 2.14 15.68-5.59 19.26-13.84 13.32-30.62 26.25-61.4 39.63-92 1.74-4 1.9-10.8 7.79-10.52 4.72.23 5 6.4 6.64 10.18 11.74 27.67 23.19 55.45 34.86 83.14 4.43 10.52 8.55 21.46 21.8 25.74-14.76 4.76-29.28 1.85-45 2.16 14.55-9.86 6.18-19.91 2.93-30.22-3.5-11.08-12-8.76-19.83-8.91-4.3-.08-8.6 0-12.89 0-16.66.06-24.27 7.1-27.28 23.71-1.58 8.73 6 9.46 13.39 14.93h-83.45c12.27-8.12 20.31-37.65 14.43-51.8-1.32-3.18-3.6-4.18-6.59-4.28-4.3-.14-8.59-.16-12.89-.16-38.54 0-40 1.77-34.62 41 1.12 8.06 1.8 8.72 16.27 14.76-17.1 3.93-32.63-1.56-49 .63 14.46-4.83 14.12-15.67 13.93-27.1-.41-24.34-.49-48.71 0-73 .25-12.15-5.48-15.86-16.57-15.82-11.09.04-16.81 4-16.68 16 .32 30.56.07 61.12-.06 91.67 0 3.15 1.63 7.48-2.15 9-4.71 2-6.31-2.87-8.59-5.66-20.18-24.78-40.35-49.57-60.51-74.37-2.65-3.24-4.71-7.17-10.85-9.34 0 25.13-.12 49.6.06 74.07.07 9.59 9.62 9.08 17.58 14.48h-94.84c12.32-5.31 16.52-10.62 11.91-20.82-4.61-10.2-7.2-21-22.32-18a46.24 46.24 0 01-15.7 0c-12-1.84-17.8 3.5-22.18 14.41-4.5 11.21-6.62 19.57 11.24 21.87l-2.89 3.27c-19 0-38 .3-56.92-.2-5.15-.13-7.23-5.79-10-9.58-9.58-13.08-19-26.24-28.53-39.39-2.89-4-6-7.75-11.7-6.35-7 1.74-4.06 7.45-4.31 11.81-.29 5.24-.42 10.48-.66 15.72-.56 12 .29 23.22 15.21 27.47h-95.78c8.12-5.49 12.22-11.46 7.44-21.09-4.53-9.12-6.23-21-21.24-18-4.59.92-9.52.16-14.29.17-17.52.06-25.55 7.37-28.41 24.27-1.76 10.36 9.38 7.6 12.83 14.49-12.62 2.23-24.35 1.35-38.29 0 23.24-17.46 25.87-43.75 37.07-65.29 7.68-14.77 13.2-30.64 20.17-45.8 1.79-3.91 1.4-11.23 7.39-10.53 4.82.56 5.32 7.29 7.1 11.52 12.18 29 24.1 58.17 36.25 87.21 1.83 4.37 3.77 9 6.84 12.47 5.42 6.1 12.67 8.34 20.81 6.15 8.3-2.24 9.07-9.23 9.12-16 .21-26.73 0-53.47.17-80.2.09-10.57-5.68-15.38-15.58-18.05 26-1.47 51.84-6.28 76.72 3.45 10.47 4.09 15.87 13.32 16.12 25 .25 12.14-4.41 22.18-15.67 26.6-12.06 4.73-11.09 10.16-4.2 18.54 8.46 10.31 15.74 21.66 24.72 31.47 11.08 12.11 19.22 10.92 26-4 14.82-32.55 28.75-65.5 43.07-98.27 1.09-2.48 1.06-5.85 5.57-6.63 6.61 8.39 9.6 19 13.86 28.79a4662.447 4662.447 0 0131.74 75.11c4.66 11.32 12.62 16.67 24.59 14.6 12.62-2.18 11-12.63 11-21.53.18-18.62-.66-37.28.28-55.85.89-17.63-.49-32.8-25.8-35.39 23.74-8.23 34.23-5.25 46.62 10.15a6283.177 6283.177 0 0048.82 59.87c2.26 2.74 4.21 7.53 8.72 5.67 4.51-1.86 2.43-6.73 2.49-10.26.25-15.28-.06-30.56.31-45.83.33-10.27-.68-19.23-13.18-22.99zm-276 7.57c-9.413-1.273-13.623 3.373-12.63 13.94.6 6.6.07 13.3.08 20 0 18.92 2.21 20.48 20.31 14.5 12.8-4.23 19.6-14.68 17.67-27.16-2.16-13.62-10.64-21.07-25.43-21.28zm-115.86 19.29c-4 8.84-6.89 14.8-9.49 20.87-12 27.9-11.23 28.67 19 25.91 7.78-.72 8.89-3.59 6.12-10-4.88-11.29-9.64-22.65-15.63-36.78zm236.93-.1c-6.39 14.81-11.64 26.84-16.75 38.93-1 2.4-3.18 6.69.74 7a207.37 207.37 0 0031.23 0c3.92-.29 2.27-4.41 1.23-6.93-5.06-12.18-10.22-24.28-16.45-39zm373.13.22c-6.88 15.66-12.06 27.24-17 38.9-1 2.28-3.53 6.5.59 6.84 10.32.743 20.68.743 31 0 3.86-.25 2.74-4.35 1.71-6.87-4.76-11.62-9.71-23.19-16.3-38.87zM767.8 50.76c1.12 4.63 1.67 5.86 1.67 7.09 0 82 .44 164.08-.21 246.11-.25 31.53-10.78 40.69-41.94 40.78-25.28.08-50.557.08-75.83 0-14-.05-17-4.21-11.48-17.28 6.5-15.36 14-30.27 21-45.43 34-74.04 68-148.09 102-222.15.98-2.08 2.15-4.07 4.79-9.12z"></path><path fill="#904229" d="M638.12 268.92c0-85.84.11-171.68-.18-257.52 0-9.08 3.29-11.1 11.69-11 33.86.41 67.74.71 101.59-.06 15.65-.36 10.38 6.94 6.94 14.46-34.493 75.38-69.003 150.76-103.53 226.14-4.46 9.74-9.09 19.41-13.64 29.11l-2.87-1.13z"></path><path fill="#899291" d="M1036.2 288.35c0 15.26-.33 30.52.13 45.77.24 8-2.6 10.93-10.71 10.76-22.4-.46-44.83.28-67.21-.5-26.38-.91-36.27-15.2-27.19-39.85 7.9-21.43 17.54-42.22 26.21-63.37 2.46-6 6.09-8.89 12.93-8.76 18.59.36 37.18.31 55.77.07 7.3-.09 10.31 2.72 10.16 10.12-.3 15.25-.09 30.51-.09 45.76zM1.77 436.25c9.78 0 19.56-.08 29.34 0 6.23.07 7.21 5.55 9.13 9.68 10.27 22.06 20.28 44.24 30.58 66.29 2 4.21 3 9.13 8.67 13.22 8.56-18.29 17-36.24 25.37-54.22 1.61-3.46 2.94-7.05 4.54-10.51 12.34-26.63 12.35-26.62 48-23.14-22.39 5.5-18.3 19.82-18.38 32.36-.14 20.53.51 41.09-.24 61.59-.42 11.42 1.17 20.49 15.56 23.74-13.78 3.56-35.2 3.58-50.9-.18 16.72-2.2 17-12.32 16.84-23.33-.35-20.88-.1-41.76-.1-65.65-8.6 9.19-11.09 18.36-15 26.59-9 19-17.44 38.19-26.27 57.24-1.29 2.78-1.68 7.56-6 6.62-2-.43-3.63-4.06-4.78-6.54-11.61-25.12-23.07-50.31-34.63-75.45-.95-2-2.34-3.9-6-5.56 0 25.23-.3 50.47.18 75.7.14 7.36 8.86 7.12 15.77 11.74-15.07 2.46-27.44 1.65-40.71-.22 14.32-4.56 14.81-15.15 14.52-27-.56-22.42-.47-44.88 0-67.31.22-11.71-1.16-21.43-17.23-21.52l1.74-4.14zm803.37 119.09c-25.12 6.39-30.87 4.58-43.79-13.09-8.45-11.55-16.93-23.08-25.11-34.84-3.12-4.49-6.84-6.81-12.05-5.17-5 1.58-3.27 6.31-3.42 9.81-.29 7.15.1 14.33-.17 21.49-.38 10.34.55 19.64 13.53 23H688.2c13-4.08 14.39-13.77 14.19-25-.39-22.92-.33-45.85-.12-68.77.1-11-.5-21.13-14.6-25 24.61-.85 48.71-4.66 72.09 2.21 11.47 3.37 18.95 12.68 19.75 25.62.83 13.31-4.64 23.83-16.8 28.83-10.36 4.25-10.73 8.43-3.75 16 3.86 4.18 6.88 9.15 10.18 13.83 14.76 20.91 14.75 20.92 36 31.08zm-84.52-85.14h.07c0 6.15-.08 12.3 0 18.45.05 2.78.14 5.46 3.86 6.52 8.27 2.37 26.42-5.29 30.79-14 5.35-10.71 4.57-21.21-4-30.1-7.38-7.64-17.21-8.71-26.38-5.51-8.37 2.92-3 11.58-4.28 17.57-.46 2.28-.06 4.71-.06 7.07zm-450.55-31.97c16.91-3.39 31.7-4.47 44 13.35 16.44 23.75 36.35 45.07 55.89 68.83 5.08-9.07 2.56-17.18 2.87-24.76.49-11.91 0-23.85.08-35.78.07-10.13.17-20.13-14.07-22.12h38.5c-15.43 3.73-15 15.23-14.81 27.57.51 27.66.24 55.34.15 83 0 3.15 1.49 7.44-2 9.15-4.9 2.38-6.32-2.88-8.51-5.52-23.06-27.85-46-55.81-71.69-87 0 28.67-.23 53.54.11 78.4.13 9 9.46 8.78 18.83 13.75h-42.77c15.35-4.83 15.17-16.69 14.77-29.38-.54-18.59-.14-37.21-.18-55.82-.02-23.34-.63-24.26-21.17-33.67z"></path><path fill="#899291" d="M273.66 496.56c-.16 35.94-25.93 63.84-59.36 64.26-33.1.42-59.55-28.12-59.38-64.08.17-35.96 26.35-63.38 60.27-63.21 33.04.17 58.63 27.74 58.47 63.03zm-21.6 3.65c-.16-13.91-.5-25.81-5.7-36.95-6.4-13.73-16.4-21.73-32.21-21.8-16.08-.06-26.15 8.59-31.67 22.39-9.07 22.71-8.42 45.84 1.1 68.28 5.69 13.4 16.53 21.1 31.4 20.83 15.37-.28 25.6-8.89 32-22.5 4.91-10.27 4.93-21.25 5.08-30.25zm661.11-2.54c-.4 35.88-27.31 64-60.36 63.07-34-1-58.49-28.41-58.06-65.09.41-35.41 26-62.09 59.65-62.06 33.65.03 59.17 27.82 58.77 64.08zm-97.29-1.1a90 90 0 006.43 33.53c5.58 14.27 16 22.92 31.49 22.811 14.42-.101 25.61-7.301 31.68-20.721 10-22 9.14-44.69.91-66.8-6.76-18.14-17.34-24.52-34.82-23.89-14.54.52-26.26 10.14-31.56 26.86a86.69 86.69 0 00-4.13 28.21zm220.34-429.95c0 44.87-.17 89.75.15 134.62.06 8.46-2.16 12.14-11.22 11.77-14.78-.6-29.6-.38-44.4-.15-7.46.12-9.74-3.05-6.92-9.62 19.68-45.86 39.43-91.69 59.25-137.49l3.14.87zm-427.48 399.1c-11.11-19.76-32.69-27.41-52.38-21.55-8.25 2.46-6.2 9.29-5.44 14.16 1.64 10.57-7.19 25 5.4 30.91 8.39 3.94 21.52 4.54 30.4-1.72 9.74-6.86 9.1-1.56 10.53 5.53 1.43 7.09.46 13.82-.37 21.29-5-7.55-7.81-15.59-19.13-16.3-27-1.7-27-2.35-27.07 24.74-.1 28.13-.09 27.71 28.19 27.77 12.83 0 22.49-5.51 31.33-14.61 3.63 18.08.77 22-15 22-21.48 0-43 .17-64.45 0-4.5-.05-9.61 1.82-14.5-3.43 15.39-1.68 16.4-11.91 16.13-23.86-.51-22.91-.09-45.84-.18-68.76-.07-17-.15-17-15.39-22.87 2.8-5.14 7.64-2.66 11.33-2.71 21-.28 42.08.87 63-.45 14.49-.92 20.36 3.56 18.22 18-.44 2.63-.33 5.44-.62 11.86zM478.48 557.1h-44.77c12.37-5.36 14-14.91 13.66-26.58-.62-22.9.19-45.84-.28-68.75-.12-5.81 4.26-15-5.42-16.69-9.68-1.69-20.41-1.87-27.13 8.14-2.06 3.08-3.31 6.69-5.09 10.38-8.24-20.91-3.87-27.67 17.17-27.571 19.58.101 39.157.124 58.73.071 23.58 0 24.59 1.21 20.75 29.59-6-14.43-14.31-22.35-29-21.36-7.68.52-11.26 2.5-11.17 10.76.3 28.17.53 56.35-.05 84.51-.27 10.28 7.3 12.06 12.6 17.5zm150.56-.57c13.31-2.59 14.78-12 14.66-23.15-.26-23.86 0-47.73-.1-71.59 0-16.17-.5-16.72-18.3-24.34h51.12c-18.79 3.8-15.05 18.57-15.12 31.37-.11 21.47.41 43-.21 64.42-.34 11.68 2.53 19.81 15.35 23.29h-47.4z"></path></g></svg>