<svg xmlns="http://www.w3.org/2000/svg" xmlns:xlink="http://www.w3.org/1999/xlink" viewBox="100.99958801269531 48.54098129272461 395.44244384765625 152.45901489257812"><defs><path id="fn36dcebb2ddma" d="M.02.542h24.234v24.156H.02z"></path><path id="fn36dcebb2ddmc" d="M.074.776h59.368v62.515H.074z"></path><path id="fn36dcebb2ddme" d="M.02.542h24.234v24.156H.02z"></path></defs><g fill="none" fill-rule="evenodd"><path fill="#FDFDFD" d="M155.818 101.028c-3.749-7.093-9.76-9.882-17.228-9.862-7.29.02-13.365 2.85-18.21 9.24-.256-2.268-.554-3.83-.576-5.395-.024-1.789-.725-2.374-2.482-2.311-3.508.125-7.025.036-10.536.036-5.85 0-5.812 0-5.782 5.918.082 16.817.17 33.634.148 50.451-.002 2.12.378 2.963 2.688 2.888a246.967 246.967 0 0116.388.002c2.318.077 2.704-.777 2.682-2.886-.102-9.892-.036-19.786-.054-29.68-.004-2.005.188-3.96 1.134-5.748 1.506-2.846 3.74-4.495 7.07-4.266 3.056.209 5.211 2.014 6.278 5.335.61 1.902.75 3.867.747 5.858-.018 9.497.052 18.996-.054 28.493-.024 2.117.367 2.965 2.684 2.892 5.556-.178 11.122-.146 16.679-.012 2.073.05 2.64-.62 2.62-2.682-.096-9.792-.054-19.59-.032-29.382.004-1.381.028-2.785.27-4.136.649-3.64 3.359-6.139 6.728-6.364 3.643-.245 6.042 1.552 7.328 5.459.753 2.29.8 4.664.807 7.034.022 9.201.042 18.403-.02 27.602-.01 1.691.311 2.501 2.23 2.463 5.85-.111 11.706-.06 17.56-.024 1.278.008 2.005-.268 1.98-1.787-.222-12.853.685-25.743-.448-38.56-1.412-15.974-14.671-24.336-29.423-18.993-4.527 1.638-8.039 4.68-11.176 8.417M302.1 129.836c-.516-.765-.767-.978-.81-1.228-2.139-11.709-6.152-22.895-9.176-34.356-.247-.94-.195-2.213-1.835-2.2-7.698.055-15.4.024-23.279.024.166.697.217 1.086.351 1.443 7.027 18.833 14.077 37.657 21.06 56.507.604 1.627 1.52 1.99 3.083 1.969a671.05 671.05 0 0118.503.004c1.691.025 2.606-.426 3.264-2.147a7626.128 7626.128 0 0121.373-55.426c.894-2.29.09-2.405-1.763-2.383-6.265.072-12.535.158-18.794-.039-2.377-.076-3.11.847-3.624 3.023-2.702 11.44-6.165 22.688-8.353 34.809m33.9-7.183c.06 17.327 4.636 33.265 13.964 47.774 1.035 1.613 1.798 2.077 3.598.963 3.897-2.407 7.942-4.578 11.986-6.729 1.46-.776 1.737-1.356.693-2.841-7.081-10.063-11.283-21.29-11.932-33.687-.88-16.834 1.392-32.938 12.07-46.67 1.155-1.487.557-1.88-.632-2.511a585.485 585.485 0 01-8.728-4.758c-5.92-3.27-5.898-3.264-9.515 2.63-8.6 14.027-11.185 29.628-11.504 45.829"></path><g transform="translate(356 48)"><mask id="fn36dcebb2ddmb" fill="#fff"><use xlink:href="#fn36dcebb2ddma"></use></mask><path fill="#FDFDFD" d="M12.098.541C5.289.554-.05 5.98.02 12.811c.068 6.637 5.45 11.901 12.15 11.887 6.683-.017 12.05-5.327 12.083-11.959C24.291 5.91 18.927.53 12.098.541" mask="url(#fn36dcebb2ddmb)"></path></g><path fill="#FDFDFD" d="M177.944 186.72c0-1.909-.14-3.83.035-5.722.223-2.405-1.388-1.875-2.711-1.93-1.47-.065-2.81-.197-2.625 2.056.184 2.294.037 4.617.035 6.928 0 1.516-.68 2.633-2.23 2.67-1.638.04-2.162-1.189-2.185-2.651-.045-2.511-.124-5.02-.103-7.529.018-2.118-1.55-1.435-2.571-1.427-1.014.01-2.64-.724-2.588 1.397.075 3.206-.16 6.457.296 9.607.633 4.355 4.419 6.047 8.32 4.046.784-.402 1.067-1.114 2.27.02 1.804 1.705 4.049.234 4.055-2.343.006-1.706.002-3.414.002-5.123m-35.983.512c0-2.082-.109-4.17.03-6.244.146-2.273-1.484-1.628-2.665-1.664-1.249-.039-2.722-.444-2.523 1.778.204 2.264.05 4.557.042 6.837-.006 1.579-.662 2.76-2.405 2.857-1.81.1-2.164-1.355-2.241-2.627-.145-2.371-.036-4.757-.076-7.136-.012-.623.262-1.339-.727-1.705-2.566-.949-4.37.211-4.372 2.912-.004 2.28-.059 4.563.012 6.84.155 4.942 4.138 7.272 8.663 5.115.717-.342.983-1.244 2.194.039 1.552 1.648 4.083.087 4.07-2.243-.008-1.586-.002-3.173-.002-4.759m185.823-8.228c-3.695-.077-6.253 1.538-6.617 4.194-.435 3.208 1.599 4.578 4.092 5.515.268.1.518.25.786.341.653.225 1.385.505 1.258 1.341-.146.952-1 1.122-1.776 1.062-.65-.05-1.29-.287-1.934-.45-.995-.259-2.13-1.172-2.467.861-.23 1.407-.338 2.354 1.452 2.748 2.11.463 4.127.613 6.16-.146 1.835-.684 3.044-1.897 3.238-4.048.193-2.161-.784-3.6-2.494-4.578-.822-.473-1.764-.714-2.608-1.157-.481-.251-1.193-.568-1.044-1.242.166-.754.887-.955 1.597-.892.562.05 1.197.018 1.668.28 1.259.696 1.556.13 1.876-1.08 1.05-3.97-2.272-1.879-3.187-2.75M257.902 179c-1.807.04-4.677 1.137-6.076 4.539-1.21 2.948-1.216 6.023.829 8.628 2.213 2.823 5.31 3.189 8.552 2.584.937-.174 2.225-.234 1.65-1.976-.346-1.053-.102-2.44-1.966-1.925-2.665.74-4.84-1.01-4.896-3.829-.039-2.12 1.025-4.716 4.984-3.958.991.19 1.457-.02 1.701-1.23.494-2.447.145-2.837-4.778-2.833m-57.935 4.7c0-3.275-.083-6.55.03-9.819.073-2.2-.981-1.883-1.98-1.841-.929.037-2.04-.546-2.006 1.76.095 6.44.11 12.888-.01 19.326-.042 2.296 1.005 1.844 1.958 1.817.914-.025 2.114.596 2.036-1.735-.111-3.165-.028-6.34-.028-9.509m-77.006-.316c0-3.17-.097-6.346.034-9.509.088-2.226-.967-1.866-1.955-1.833-.947.03-2.062-.493-2.033 1.77a724.08 724.08 0 01-.006 19.329c-.032 2.243 1.02 1.838 1.987 1.808.922-.025 2.09.576 2.005-1.75-.125-3.263-.032-6.54-.032-9.815m158.124 3.668c0 1.69.149 3.394-.037 5.065-.243 2.165.407 2.835 2.762 2.882 2.62.052 2.75-1.128 2.626-3.038-.11-1.68-.012-3.375-.023-5.064-.012-1.742.738-2.817 2.61-3.018.698-.073 1.82.438 1.804-.891-.016-1.266.584-2.79-.361-3.715-.588-.574-1.926-.143-2.853.405-.863.509-1.302 1.37-2.774.116-1.849-1.57-3.756-.104-3.754 2.49v4.768zm12.061.094h.096c0 1.695.116 3.4-.032 5.08-.167 1.924.197 2.754 2.493 2.775 2.429.022 2.524-1.06 2.408-2.852a38.75 38.75 0 01.005-5.08c.109-1.58.734-2.883 2.569-3.174.86-.135 2.246.495 2.153-1.209-.063-1.152.62-2.645-.421-3.373-1.012-.71-2.364-.088-3.333.667-.818.634-1.339 1.73-2.048-.207-.155-.409-2.317-.388-3.407-.067-1.045.307-.47 1.528-.48 2.368-.013 1.69-.003 3.382-.003 5.072"></path><g transform="translate(437 91)"><mask id="fn36dcebb2ddmd" fill="#fff"><use xlink:href="#fn36dcebb2ddmc"></use></mask><path fill="#2C2B29" d="M33.676 35.141c-4.472.33-7.112 1.105-8.954 2.436-2.192 1.586-2.804 3.792-2.2 6.289.552 2.287 2.336 3.146 4.518 3.614 4.486.963 10.306-3.138 9.792-9.015-.228-2.62-.336-4.368-3.156-3.324zm25.766 27.036c-4.94-.812-9.91-.22-14.866-.327-5.118-.114-5.12-.027-6.748-4.97-2.564 1.976-5.006 4.025-8.104 4.97-5.666 1.721-11.366 2.067-16.98.116C6.066 59.644 1.562 54.95.412 47.763c-1.27-7.92.988-14.75 7.576-19.657 5.532-4.119 11.98-5.599 18.622-6.384 2.61-.31 5.248-.46 7.876-.513 2.018-.04 1.876-1.024 1.07-2.226-1.472-2.202-3.856-2.565-6.194-2.784-6.664-.633-13.018.716-19.038 3.57-1.702.807-2.298.591-2.73-1.273A146.632 146.632 0 004.79 8.191c-.4-1.287-.336-1.98.976-2.518C17.87.703 30.294-.917 42.944 2.844c9.162 2.723 14.674 10.52 15.288 20.384.57 9.131.066 18.277.324 27.413.078 2.65-.44 5.43.886 7.957v3.58z" mask="url(#fn36dcebb2ddmd)"></path></g><path fill="#2C2B29" d="M154.697 186.942c.031-1.953-.06-4.029-2.526-4.025-2.463.002-3.023 2.166-3.025 4.07-.004 1.836.746 3.801 3.005 3.785 2.454-.02 2.56-2.076 2.546-3.83zM147.233 201c-.823-.778-2.374-.974-1.56-2.86.604-1.4.762-1.975 2.6-1.4 4.177 1.311 5.932.244 6.164-3.197-3.713 1.56-6.382 1.229-8.497-1.052-2.161-2.335-2.58-6.671-.937-9.744 1.416-2.65 4.102-4.083 7.02-3.68 1.65.227 3.034 1.26 5.006.482 2.04-.804 3.179.168 2.94 2.68-.298 3.137-.132 6.323-.057 9.487.1 4.152-1.143 7.514-5.355 9.284h-7.324z"></path><path fill="#ED760B" d="M155.818 101.028c3.137-3.737 6.649-6.779 11.176-8.417 14.752-5.343 28.011 3.02 29.423 18.994 1.133 12.816.226 25.706.447 38.56.026 1.518-.7 1.794-1.979 1.786-5.854-.037-11.71-.087-17.56.024-1.919.038-2.24-.772-2.23-2.463.062-9.2.042-18.4.02-27.602-.006-2.37-.054-4.744-.807-7.034-1.286-3.907-3.685-5.704-7.328-5.459-3.37.225-6.08 2.724-6.728 6.364-.242 1.351-.266 2.755-.27 4.136-.022 9.793-.064 19.59.032 29.382.02 2.062-.547 2.733-2.62 2.682-5.557-.134-11.123-.166-16.68.012-2.316.073-2.707-.775-2.683-2.892.106-9.497.036-18.996.054-28.493.004-1.991-.136-3.956-.747-5.858-1.067-3.321-3.222-5.126-6.278-5.335-3.33-.229-5.564 1.42-7.07 4.266-.946 1.788-1.138 3.743-1.134 5.748.018 9.894-.048 19.788.054 29.68.022 2.109-.364 2.963-2.682 2.886a246.967 246.967 0 00-16.388-.002c-2.31.075-2.69-.767-2.688-2.888.022-16.817-.066-33.634-.148-50.45-.03-5.919-.068-5.919 5.782-5.919 3.511 0 7.028.09 10.536-.036 1.757-.063 2.458.522 2.482 2.31.022 1.566.32 3.128.575 5.396 4.846-6.39 10.921-9.22 18.21-9.24 7.468-.02 13.48 2.77 17.229 9.862"></path><path fill="#2C2B29" d="M408.169 121.924l-.153-.009c0-1.188.1-2.386-.018-3.56-.465-4.68-3.572-8.4-7.75-9.382-4.633-1.09-9.703.902-11.956 5.026-2.886 5.279-3.037 10.79-.359 16.198 2.132 4.304 6.764 6.404 11.644 5.595 4.442-.733 7.484-3.98 8.185-8.85.238-1.66.278-3.346.407-5.018m1.818 22.225c-7.226 9.275-16.267 11.428-26.457 8.829-10.863-2.77-17.153-10.41-19.51-21.16-1.811-8.269-1.346-16.522 2.494-24.303 6.4-12.974 21.774-19.08 35.296-14.085 2.205.815 4.086 2.11 6.246 4.273 0-8.571-.04-16.344.028-24.117.02-2.34-1.049-5.384.47-6.834 1.493-1.425 4.49-.379 6.825-.422 3.832-.07 7.68.169 11.495-.08 2.851-.187 3.764.472 3.741 3.61-.159 23.154-.102 46.312-.066 69.468.006 3.75.167 7.507.435 11.248.115 1.615-.37 2.027-1.905 2.005a514.79 514.79 0 00-16.217.006c-1.679.028-2.25-.59-2.301-2.206-.056-1.863-.332-3.72-.574-6.232"></path><path fill="#ED760B" d="M225.655 122.134c-.144 3.258.376 6.545 1.937 9.575 1.867 3.628 4.81 5.548 9.005 5.385 3.989-.157 6.653-2.21 8.077-5.787 2.47-6.193 2.425-12.478-.128-18.626-1.52-3.656-4.352-5.754-8.445-5.724-4.028.03-6.823 2.052-8.583 5.603-1.477 2.973-1.965 6.148-1.863 9.574M270 121.73c-.004 16.105-10.655 28.291-26.883 30.664-10.97 1.604-21.412.262-30.35-6.831-9.928-7.88-12.313-18.61-9.892-30.492 2.381-11.687 9.986-18.886 21.205-22.182 7.94-2.33 16.033-2.594 24.074-.284 13.994 4.021 21.85 14.53 21.846 29.125m32.1 8.106c2.188-12.121 5.651-23.369 8.353-34.81.513-2.175 1.247-3.098 3.624-3.022 6.26.197 12.529.111 18.794.04 1.853-.023 2.657.091 1.763 2.382a7626.128 7626.128 0 00-21.373 55.426c-.658 1.72-1.573 2.172-3.264 2.147a671.05 671.05 0 00-18.503-.004c-1.562.02-2.479-.342-3.083-1.97-6.983-18.85-14.033-37.673-21.06-56.506-.134-.357-.185-.746-.351-1.443 7.88 0 15.581.03 23.279-.025 1.64-.012 1.588 1.26 1.835 2.201 3.024 11.461 7.037 22.647 9.175 34.356.044.25.295.463.81 1.228M336 122.65c.317-16.198 2.902-31.799 11.503-45.827 3.617-5.893 3.595-5.9 9.516-2.629 2.9 1.603 5.8 3.204 8.728 4.756 1.19.633 1.787 1.026.632 2.513-10.679 13.732-12.951 29.836-12.071 46.67.65 12.397 4.851 23.624 11.933 33.687 1.044 1.485.767 2.065-.693 2.841-4.045 2.15-8.09 4.322-11.987 6.729-1.8 1.114-2.563.65-3.598-.963-9.329-14.509-13.905-30.447-13.963-47.777"></path><g transform="translate(356 48)"><mask id="fn36dcebb2ddmf" fill="#fff"><use xlink:href="#fn36dcebb2ddme"></use></mask><path fill="#ED760B" d="M12.098.541C18.927.53 24.29 5.911 24.254 12.74c-.033 6.632-5.4 11.942-12.083 11.959C5.47 24.712.089 19.448.02 12.81-.05 5.98 5.289.554 12.098.541" mask="url(#fn36dcebb2ddmf)"></path></g><path fill="#2C2B29" d="M221.862 187.029c.039-1.983.041-4.156-2.547-4.274-2.448-.113-3.043 1.847-3.073 3.915-.029 2.045.422 4.017 2.872 4.125 2.456.107 2.71-1.84 2.748-3.766m.007-7.351c0-1.872.146-3.295-.033-4.673-.317-2.435.63-3.117 2.945-2.99 1.675.09 2.199.543 2.182 2.249-.062 6.246.03 12.492.037 18.739.002 1.557-2.854 2.623-4.198 1.243-.915-.938-1.124-.613-1.91-.18-3.749 2.072-7.663.602-9.144-3.478-1.247-3.429-1.036-6.771 1.4-9.632 2.337-2.743 5.28-2.799 8.72-1.278m-43.924 7.042c0 1.708.004 3.416-.002 5.122-.006 2.577-2.25 4.048-4.056 2.344-1.202-1.135-1.485-.423-2.27-.021-3.9 2.001-7.686.31-8.32-4.046-.456-3.15-.22-6.401-.295-9.607-.051-2.121 1.574-1.387 2.588-1.397 1.022-.008 2.59-.691 2.57 1.427-.02 2.51.059 5.018.104 7.529.023 1.462.547 2.692 2.185 2.65 1.55-.036 2.23-1.153 2.23-2.669.002-2.31.149-4.634-.035-6.928-.186-2.253 1.154-2.12 2.625-2.057 1.323.056 2.934-.474 2.711 1.931-.175 1.892-.035 3.813-.035 5.721m92.431 4.739c.99-.372 1.94-.974 1.938-2.513-.002-.632.184-1.536-.851-1.34-1.207.229-2.658.271-2.778 2.105-.066 1.002.545 1.576 1.69 1.748m1.877-7.397c-1.215-2.278-2.983-1.617-4.57-1.132-1.172.36-1.86.694-2.342-1.065-.51-1.876.534-1.896 1.566-2.303 1.503-.592 3.046-.616 4.596-.515 3.176.21 5.04 2.159 5.24 5.59.165 2.842.197 5.692.259 8.54.03 1.319-2.417 2.36-3.802 1.187-.898-.756-1.15-.41-1.817-.07-3.06 1.554-6.03.473-7.075-2.52-.99-2.834.474-5.692 3.61-6.776 1.345-.465 2.785-.612 4.335-.936m-38.343 1.066c1.14 0 2.05.1 2.926-.033.721-.106 2.082.633 2.004-.851-.068-1.248-1.091-1.782-2.373-1.715-1.414.076-2.108.908-2.557 2.599m-.075 3.404c1.3 2.96 3.673 2.57 5.924 2.472 1.287-.056 2.774-.845 3.103 1.448.334 2.325-1.45 2.031-2.636 2.242-3.699.66-7.27.472-9.801-2.772-1.907-2.442-1.862-6.666-.076-9.458 1.839-2.873 5.645-4.18 8.948-3.07 2.93.982 4.912 4.22 4.688 7.483-.085 1.226-.56 1.713-1.852 1.677-2.677-.07-5.357-.022-8.298-.022m80.069-1.767c-.487-1.594-.323-4.119-2.981-4.088-2.57.03-2.88 2.458-2.892 4.371-.013 1.843.47 4.129 2.79 4.202 2.572.08 2.766-2.256 3.083-4.485M303 187.25c-.065-5.034 2.979-8.203 7.922-8.25 4.76-.044 8.067 3.17 8.077 7.855.014 4.645-3.27 8.026-7.906 8.142-4.82.12-8.034-2.957-8.093-7.747m-118.739-2.28h5.016c-.494-1.463-1.04-2.532-2.652-2.43-1.479.094-2.315.857-2.364 2.43zm-.383 3.564c1.434 2.94 3.757 2.557 6.003 2.465 1.145-.046 2.555-.883 2.969 1.238.422 2.153-1.04 2.19-2.377 2.432-3.694.67-7.337.56-9.816-2.62-2.18-2.8-2.085-6.019-.438-9.128 1.66-3.128 5.464-4.63 8.943-3.598 3.112.921 5.16 4.49 4.796 7.94-.143 1.36-.893 1.271-1.803 1.271h-8.277zm-74.45.518c-.019-1.06-.09-1.706-1.085-1.435-1.241.337-2.722.424-2.718 2.285.004.98.759 1.657 1.7 1.495 1.318-.224 2.083-1.142 2.103-2.345m-.265-4.84c-1.093-2.541-2.91-1.613-4.49-1.274-.953.204-1.84.916-2.283-.74-.378-1.411-.103-2.182 1.306-2.586 2.08-.6 4.167-.88 6.243-.273 2.5.733 3.805 2.634 3.884 5.406.068 2.36-.237 4.765.102 7.07.48 3.27-1.437 3.163-3.18 2.7-1.175-.312-2.053-.38-3.19.081-2.678 1.088-5.359-.109-6.22-2.563-.964-2.757.2-5.506 2.873-6.77 1.524-.718 3.174-.82 4.955-1.051m32.798 3.019c0 1.586-.006 3.173.003 4.759.012 2.33-2.519 3.891-4.071 2.243-1.211-1.283-1.477-.381-2.194-.04-4.525 2.158-8.508-.172-8.663-5.114-.07-2.277-.016-4.56-.012-6.84.002-2.7 1.806-3.86 4.372-2.912.989.366.715 1.082.727 1.705.04 2.38-.069 4.765.076 7.136.077 1.272.431 2.727 2.241 2.627 1.743-.098 2.4-1.278 2.405-2.857.009-2.28.162-4.573-.042-6.837-.199-2.222 1.274-1.817 2.523-1.778 1.181.036 2.811-.609 2.665 1.664-.139 2.074-.03 4.162-.03 6.244m185.823-8.228c.915.87 4.237-1.222 3.187 2.75-.32 1.209-.617 1.775-1.876 1.079-.47-.262-1.106-.23-1.668-.28-.71-.063-1.43.138-1.597.892-.149.674.563.99 1.044 1.242.844.443 1.786.684 2.608 1.157 1.71.978 2.687 2.417 2.494 4.578-.194 2.15-1.403 3.364-3.238 4.048-2.033.759-4.05.609-6.16.146-1.79-.394-1.682-1.341-1.452-2.748.337-2.033 1.472-1.12 2.467-.862.644.164 1.283.402 1.934.45.776.061 1.63-.109 1.776-1.06.127-.837-.605-1.117-1.258-1.342-.268-.091-.518-.241-.786-.34-2.493-.938-4.527-2.308-4.092-5.516.364-2.656 2.922-4.271 6.617-4.194M257.902 179c4.923-.004 5.272.386 4.778 2.834-.244 1.209-.71 1.42-1.701 1.23-3.96-.76-5.023 1.838-4.984 3.957.055 2.82 2.23 4.57 4.896 3.829 1.864-.516 1.62.872 1.967 1.925.574 1.742-.714 1.802-1.65 1.976-3.244.605-6.34.239-8.553-2.584-2.045-2.605-2.04-5.68-.83-8.628 1.4-3.402 4.27-4.499 6.077-4.539m-57.935 4.7c0 3.168-.083 6.343.028 9.508.078 2.331-1.122 1.71-2.036 1.735-.953.027-2 .479-1.958-1.817.12-6.438.105-12.886.01-19.327-.034-2.305 1.077-1.722 2.006-1.76.999-.041 2.053-.358 1.98 1.842-.113 3.268-.03 6.544-.03 9.818m-77.006-.316c0 3.274-.093 6.552.032 9.816.085 2.325-1.083 1.724-2.005 1.75-.967.029-2.02.434-1.987-1.809.095-6.44.083-12.886.006-19.329-.029-2.263 1.086-1.74 2.033-1.77.988-.033 2.043-.393 1.955 1.833-.13 3.163-.034 6.338-.034 9.51m158.124 3.667v-4.767c-.002-2.595 1.905-4.06 3.754-2.49 1.472 1.253 1.91.392 2.774-.117.927-.548 2.265-.98 2.853-.405.945.924.345 2.45.361 3.715.015 1.329-1.106.818-1.804.891-1.872.2-2.622 1.276-2.61 3.018.01 1.689-.088 3.384.023 5.064.124 1.91-.006 3.09-2.626 3.038-2.355-.047-3.005-.717-2.762-2.882.186-1.67.037-3.376.037-5.065m12.061.094c0-1.69-.01-3.382.004-5.072.008-.84-.566-2.061.48-2.368 1.09-.321 3.251-.342 3.406.067.71 1.937 1.23.84 2.048.207.97-.755 2.32-1.377 3.333-.667 1.04.728.358 2.221.421 3.373.093 1.704-1.293 1.074-2.153 1.21-1.835.29-2.46 1.593-2.57 3.174a38.75 38.75 0 00-.004 5.08c.116 1.791.021 2.873-2.408 2.85-2.296-.02-2.66-.85-2.493-2.773.148-1.682.032-3.386.032-5.081h-.096"></path></g></svg>