<svg xmlns="http://www.w3.org/2000/svg" xmlns:xlink="http://www.w3.org/1999/xlink" viewBox="165.38795471191406 24.369979858398438 271.033203125 202.49403381347656"><defs><path id="fn5a5085a58dma" d="M0 218.124h291.34V.494H0z"></path><path id="fn5a5085a58dmc" d="M45.558.568a51.015 51.015 0 015.765-.327c15.965 0 31.282 7.493 40.976 20.343a51.652 51.652 0 013.687 5.621l-.172.1C87.664 13.26 73.3 4.418 56.73 3.99c-.194-.005-.388-.005-.583-.008a47.437 47.437 0 00-7.668.247 47.68 47.68 0 00-23.154 9.21c-10.173 7.615-16.76 18.721-18.55 31.27-1.788 12.549 1.436 25.041 9.08 35.174 10.112 13.408 26.797 20.554 43.542 18.645 1.667-.19 3.32-.472 4.951-.837 10.541-1.98 19.882-7.446 26.735-15.173l.4.326a51.287 51.287 0 01-9.352 9.063 51.199 51.199 0 01-24.855 9.885C39.3 103.841 21.39 96.17 10.534 81.775 2.33 70.898-1.13 57.487.79 44.016c1.921-13.47 8.992-25.389 19.912-33.562A51.234 51.234 0 0145.558.568z"></path></defs><g fill="none" fill-rule="evenodd"><g transform="translate(154 17)"><path fill="#98C93E" d="M23.37 209.864s-2.478-64.7 20.146-125.715c10.298-27.776 24.584-43.55 49.04-48.316 27.28-5.32 62.437-2.294 72.59-2.005 29.888.829 58.878.732 111.03-9.406l6.165-2.595s2.478 64.703-20.146 125.716c-10.3 27.77-24.58 43.55-49.038 48.316-27.282 5.323-62.44 2.293-72.592 2.005-28.507-.785-53.058-.645-100.912 7.55-8.648 1.478-16.284 4.45-16.284 4.45z"></path><path fill="#9ACA3C" d="M23.37 209.864s7.635-2.972 16.283-4.45c47.854-8.195 72.405-8.335 100.912-7.55 10.152.288 45.31 3.318 72.592-2.005 24.457-4.766 38.739-20.545 49.038-48.316C284.82 86.53 282.341 21.827 282.341 21.827s-7.636 2.974-16.281 4.455c-47.855 8.194-72.407 8.333-100.916 7.548-10.151-.287-45.308-3.318-72.59 2.003-24.457 4.77-38.742 20.545-49.039 48.316C20.887 145.164 23.37 209.864 23.37 209.864"></path><path fill="#1C75BC" d="M272.064 8.675c-.073.028-7.512 2.899-15.786 4.316-40.13 6.87-62.833 7.819-81.387 7.819-6.922 0-13.497-.155-19.017-.306-1.573-.045-3.75-.157-6.405-.291-6.483-.331-16.277-.829-26.997-.829-15.597 0-28.972 1.066-39.754 3.17C58.537 27.267 42.82 42.671 31.76 72.496 9.221 133.288 11.433 198.547 11.458 199.2l.139 3.6 3.36-1.309c.075-.028 7.514-2.898 15.787-4.312 40.136-6.874 62.826-7.823 81.37-7.823 5.517 0 11.208.094 19.037.309 1.575.046 3.754.157 6.415.29 6.479.33 16.268.827 26.976.827 15.603 0 28.978-1.066 39.764-3.169 24.18-4.714 39.895-20.118 50.954-49.943 22.545-60.788 20.332-126.049 20.306-126.703l-.138-3.597-3.364 1.305z"></path><path fill="#00447C" d="M257.15 18.046c5.322-.912 10.224-2.352 13.342-3.379.107 14.237-.835 69.408-20.047 121.221-10.509 28.334-24.601 42.298-47.125 46.69-10.458 2.042-23.506 3.075-38.778 3.075-10.58 0-20.289-.495-26.714-.82-2.71-.137-4.933-.25-6.533-.295-7.88-.218-13.614-.31-19.18-.31-18.771 0-41.724.955-82.24 7.893-5.322.91-10.229 2.353-13.345 3.379-.108-14.233.826-69.377 20.05-121.222 10.508-28.334 24.601-42.297 47.122-46.69 10.46-2.04 23.504-3.075 38.77-3.075 10.59 0 20.306.496 26.737.823 2.705.137 4.918.25 6.523.296 5.553.15 12.177.309 19.16.309 18.78 0 41.745-.957 82.258-7.895"></path><path fill="#FFF" d="M123.19 77.63h-5.874a.608.608 0 00-.476.23l-8.24 10.614-8.249-10.613a.606.606 0 00-.477-.231h-5.867a.602.602 0 00-.603.601V108.5a.6.6 0 00.603.605h6.76a.604.604 0 00.603-.605V91.382l6.243 8.084a.6.6 0 00.478.234h1.017a.594.594 0 00.475-.234l6.241-8.084V108.5c0 .336.273.605.607.605h6.759c.33 0 .601-.269.601-.605V78.23c0-.33-.27-.601-.601-.601m16.486 22.424h-4.894l2.328-6.86 2.566 6.86zm.631-13.658a.443.443 0 00-.411-.28h-5.745a.447.447 0 00-.419.291l-8.033 22.21a.424.424 0 00.054.404.438.438 0 00.36.188h5.25a.446.446 0 00.42-.3l1.387-4.084h8.284l1.53 4.096a.45.45 0 00.418.288h5.33c.008-.002.013 0 .02 0a.444.444 0 00.445-.444c0-.106-.036-.2-.1-.276l-8.79-22.093zm16.119 4.679h2.065c1.653 0 2.392.637 2.392 2.067 0 .69-.195 1.197-.59 1.554-.407.367-.959.546-1.691.546h-2.176v-4.167zm9.84 11.233c-.765-1.888-1.563-3.173-2.423-3.895 2.01-1.254 3.026-3.092 3.026-5.465 0-1.883-.653-3.506-1.935-4.829-1.29-1.329-2.98-2.004-5.02-2.004h-8.888c-.246 0-.443.2-.443.441v22.21c0 .246.197.443.443.443h4.96a.442.442 0 00.44-.444v-8.568h.979c.538 0 1.04.24 1.53.741.532.54 1.197 1.82 1.977 3.81.809 2.058 1.381 3.47 1.7 4.194.07.164.232.267.407.267h5.44a.443.443 0 00.408-.614 409.004 409.004 0 01-2.6-6.287zm18.208-16.192H170.77c-.246 0-.444.2-.444.442v22.207c0 .247.198.444.444.444h4.956a.44.44 0 00.442-.444V100.1h8.306a.443.443 0 00.441-.442v-4.07a.442.442 0 00-.441-.443h-8.306v-4.071h8.306c.244 0 .441-.2.441-.444v-4.073a.443.443 0 00-.441-.442m9.316 4.959h2.062c1.654 0 2.391.637 2.391 2.067 0 .69-.19 1.197-.584 1.554-.408.367-.96.546-1.693.546h-2.175v-4.167zm9.84 11.233c-.766-1.888-1.565-3.173-2.425-3.895 2.01-1.254 3.023-3.092 3.023-5.465 0-1.88-.649-3.503-1.932-4.829-1.288-1.329-2.974-2.004-5.016-2.004h-8.89c-.244 0-.444.2-.444.441v22.21c0 .246.2.443.444.443h4.956a.444.444 0 00.445-.444v-8.568h.98c.535 0 1.039.24 1.53.741.53.54 1.194 1.82 1.972 3.81.875 2.22 1.4 3.515 1.704 4.2.073.158.23.261.407.261h5.437a.44.44 0 00.369-.197.452.452 0 00.042-.417 430.004 430.004 0 01-2.603-6.287zm9.629-16.192h-4.957c-.245 0-.446.2-.446.442v22.207c0 .247.201.444.446.444h4.957a.44.44 0 00.44-.444l.004-22.207a.436.436 0 00-.13-.313.451.451 0 00-.314-.13m23.985 10.43h-7.846c-.245 0-.446.2-.446.443v4.074c0 .242.2.439.446.439h2.433v1.866c-.95.418-1.907.634-2.846.634-1.93 0-3.504-.568-4.677-1.687-1.169-1.118-1.76-2.61-1.756-4.42 0-1.933.58-3.477 1.77-4.716 1.165-1.218 2.875-1.835 5.076-1.835 2.337 0 4.765.674 7.228 1.996a.442.442 0 00.65-.39v-4.844a.44.44 0 00-.232-.391c-2.36-1.248-5.069-1.881-8.06-1.881-3.641 0-6.657 1.113-8.961 3.307-2.305 2.2-3.477 5.082-3.471 8.562-.006 3.408 1.163 6.255 3.47 8.466 2.303 2.21 5.277 3.329 8.844 3.329 1.618 0 3.28-.29 4.93-.862 1.677-.577 2.947-1.344 3.782-2.279a.45.45 0 00.111-.295v-9.073a.445.445 0 00-.445-.443m-113.111 19.334c-2.453 0-4.477.818-6.02 2.437-1.542 1.617-2.323 3.741-2.323 6.316 0 2.517.78 4.614 2.323 6.237 1.543 1.625 3.543 2.45 5.94 2.45 1.094 0 2.214-.218 3.332-.64 1.09-.415 1.917-.954 2.46-1.602v-6.878h-5.295v2.91h2.033v2.213l-.067.034c-.793.418-1.596.63-2.383.63-1.484 0-2.698-.487-3.61-1.444-.913-.961-1.374-2.226-1.374-3.766 0-1.602.46-2.94 1.369-3.977.914-1.046 2.227-1.577 3.909-1.577 1.662 0 3.384.505 5.126 1.5v-3.476c-1.59-.907-3.413-1.367-5.42-1.367"></path><mask id="fn5a5085a58dmb" fill="#fff"><use xlink:href="#fn5a5085a58dma"></use></mask><path fill="#FFF" d="M132.868 133.094h2.74v-16.992h-2.74zm10.298-1.7c-1.531 0-2.308-1.353-2.308-4.018 0-1.28.196-2.24.596-2.93.406-.706.98-1.064 1.712-1.064 1.504 0 2.268 1.319 2.268 3.918 0 2.716-.764 4.094-2.268 4.094m0-9.95c-1.49 0-2.75.544-3.746 1.616-.995 1.075-1.502 2.527-1.502 4.316 0 1.756.497 3.202 1.475 4.296.97 1.093 2.242 1.645 3.773 1.645 1.415 0 2.65-.52 3.675-1.546 1.024-1.024 1.544-2.497 1.544-4.371 0-1.871-.512-3.346-1.52-4.387-1.007-1.04-2.25-1.568-3.699-1.568m12.063 9.664c-.611 0-1.236-.346-1.862-1.028l-.032-.036v-5.508l.04-.038c.632-.561 1.24-.846 1.813-.846.737 0 1.337.327 1.788.971.438.634.659 1.531.659 2.67 0 1.171-.21 2.107-.627 2.775-.428.689-1.027 1.04-1.78 1.04zm-1.894.945l.206.184c.803.716 1.67 1.08 2.573 1.08 1.246 0 2.284-.558 3.082-1.656.811-1.113 1.222-2.565 1.222-4.312 0-1.743-.428-3.181-1.27-4.274-.833-1.081-1.926-1.631-3.245-1.631-.814 0-1.61.291-2.37.862l-.198.15v-6.356h-2.741v16.993h2.741v-1.04zm12.625-.66c-.307 0-.57-.14-.784-.415a1.528 1.528 0 01-.305-.948c0-.565.202-1.033.598-1.4.385-.352 1.068-.737 2.093-1.18l.175-.075v3.06l-.035.036c-.557.611-1.143.922-1.741.922zm1.874.508l.04.207c.164.813.67 1.208 1.547 1.208.826 0 1.724-.338 2.673-1v-1.71c-.43.346-.758.515-1.001.515-.283 0-.618-.162-.618-.942v-5.314c0-2.302-1.275-3.421-3.899-3.421-1.44 0-2.78.458-3.991 1.358v2.586c1.027-1.153 2.162-1.736 3.376-1.736.584 0 1.03.16 1.33.474.332.347.481.89.446 1.608l-.006.08-.077.029c-2.66.964-4.272 1.761-4.792 2.367-.511.597-.77 1.396-.77 2.374 0 .723.25 1.366.743 1.912.497.551 1.084.82 1.79.82 1.009 0 2.034-.43 3.049-1.28l.16-.135zm5.806 1.192h2.741v-16.992h-2.74zm8.974 0h3.252v-7.072h6.174v-2.91h-6.174v-4.099h6.174v-2.91h-9.426zm16.274-1.7c-1.53 0-2.308-1.353-2.308-4.018 0-1.28.196-2.24.594-2.93.406-.706.984-1.064 1.714-1.064 1.503 0 2.268 1.319 2.268 3.918 0 2.716-.765 4.094-2.268 4.094m0-9.95c-1.493 0-2.752.544-3.747 1.616-.996 1.075-1.502 2.527-1.502 4.316 0 1.754.494 3.199 1.473 4.296.973 1.093 2.244 1.645 3.776 1.645 1.413 0 2.65-.52 3.676-1.546 1.022-1.024 1.54-2.497 1.54-4.371 0-1.869-.51-3.345-1.52-4.387-1.005-1.04-2.25-1.568-3.696-1.568m12.242 9.949c-1.532 0-2.309-1.353-2.309-4.018 0-1.26.202-2.245.595-2.93.405-.706.981-1.064 1.714-1.064 1.504 0 2.266 1.319 2.266 3.918 0 2.716-.762 4.094-2.266 4.094m0-9.95c-1.49 0-2.75.544-3.747 1.616-.997 1.075-1.5 2.527-1.5 4.316 0 1.754.495 3.199 1.47 4.296.974 1.093 2.245 1.645 3.777 1.645 1.414 0 2.649-.52 3.674-1.546 1.022-1.024 1.543-2.495 1.543-4.371 0-1.871-.513-3.346-1.519-4.387-1.006-1.04-2.25-1.568-3.698-1.568m12.141 9.664c-.732 0-1.324-.346-1.763-1.025-.428-.666-.644-1.553-.644-2.64 0-1.18.217-2.113.65-2.773.441-.676 1.068-1.018 1.86-1.018.597 0 1.184.239 1.75.71l.044.033v5.673l-.033.036c-.593.667-1.22 1.004-1.864 1.004m-.704-9.664c-1.298 0-2.38.552-3.216 1.645-.839 1.1-1.267 2.541-1.267 4.286 0 1.701.42 3.136 1.25 4.26.82 1.116 1.856 1.681 3.072 1.681.952 0 1.81-.377 2.55-1.123l.212-.215v1.115h2.738v-16.993h-2.738v6.182l-.189-.116c-.791-.48-1.602-.722-2.412-.722m7.769 11.071c.955.53 2.058.801 3.277.801 1.202 0 2.137-.32 2.781-.953.642-.633.969-1.545.969-2.716a3.73 3.73 0 00-.604-2.046c-.403-.62-1.103-1.18-2.083-1.657-1.023-.498-1.601-.82-1.77-.989-.174-.175-.262-.36-.262-.55 0-.466.208-1.024 1.201-1.024.94 0 1.962.392 3.044 1.163v-2.29c-.872-.536-1.863-.81-2.944-.81-1.145 0-2.073.325-2.768.967-.691.643-1.041 1.485-1.041 2.504 0 .687.182 1.323.544 1.885.363.562 1.05 1.089 2.042 1.566 1.037.5 1.638.844 1.831 1.054.2.221.3.462.3.715 0 .655-.528.986-1.573.986-.795 0-1.785-.305-2.944-.907v2.3z" mask="url(#fn5a5085a58dmb)"></path><path fill="#FFF" d="M115.536 161.227c-31.444 1.158-57.87-23.355-59.023-54.744-1.16-31.392 23.392-57.776 54.834-58.932a57.29 57.29 0 0111.772.778 56.694 56.694 0 0117.835 6.25c-9.531-5.755-20.792-8.895-32.753-8.456-32.661 1.2-58.166 28.607-56.962 61.216 1.199 32.606 28.65 58.066 61.313 56.87 17.324-.638 32.632-8.647 43.01-20.894 2.204-2.6 1.888-2.646-.489-.105-9.916 10.601-23.869 17.443-39.537 18.017" mask="url(#fn5a5085a58dmb)"></path><path fill="#FFF" d="M107.396 54.071a51.162 51.162 0 00-24.859 9.908c-10.92 8.192-17.992 20.138-19.913 33.637-1.92 13.502 1.541 26.941 9.746 37.843 10.855 14.427 28.767 22.114 46.744 20.061a51.143 51.143 0 0024.857-9.907 51.314 51.314 0 009.352-9.084l-.4-.328c-6.855 7.746-16.195 13.224-26.736 15.21a47.153 47.153 0 01-4.952.838C104.49 154.16 87.804 147 77.691 133.562c-7.645-10.156-10.868-22.676-9.08-35.253 1.79-12.577 8.378-23.706 18.55-31.336a47.645 47.645 0 0123.155-9.231 47.26 47.26 0 017.67-.248c.194.002.388.002.582.008 16.572.427 30.936 9.29 39.085 22.364l.173-.101a51.769 51.769 0 00-3.688-5.633c-9.693-12.88-25.012-20.388-40.977-20.388-1.916 0-3.84.107-5.765.327" mask="url(#fn5a5085a58dmb)"></path></g><g transform="translate(216 71)"><mask id="fn5a5085a58dmd" fill="#fff"><use xlink:href="#fn5a5085a58dmc"></use></mask><path fill="#FFF" d="M.107-10.611L107.65 1.56 94.747 114.69l-107.544-12.173z" mask="url(#fn5a5085a58dmd)"></path></g></g></svg>