<svg xmlns="http://www.w3.org/2000/svg" viewBox="135 61 330 128"><g fill="none" fill-rule="evenodd"><path fill="#063" d="M145.328 152.479l-.737 6.757h14.845l-.637 5.853h-14.844l-.822 7.541h15.795l-.705 6.479H135L138.605 146h23.088l-.705 6.479h-15.66zm28.453 3.016h6.093l-.31 1.898c1.532-1.435 3.656-2.152 6.373-2.152.558 0 1.096.03 1.61.085.988.108 1.86.322 2.62.642.784.331 1.442.773 1.975 1.327 1.33 1.382 1.85 3.405 1.56 6.067l-1.715 15.747h-6.731l1.63-14.978.048-1.486c-.027-.582-.244-1.012-.647-1.29-.484-.331-1.24-.498-2.272-.498-3.148 0-4.882 1.485-5.205 4.455l-1.501 13.797h-6.73l2.57-23.614h.632zm55.185.782l-2.462 22.62c-.205 1.875-.569 3.464-1.093 4.765-.546 1.353-1.265 2.403-2.16 3.152-.884.742-2.074 1.295-3.567 1.658-1.446.351-3.176.528-5.19.528-1.94 0-3.56-.133-4.859-.398-1.366-.279-2.39-.715-3.07-1.308-.704-.615-1.178-1.505-1.42-2.67-.227-1.083-.253-2.416-.08-3.999l.068-.632h6.564l-.086.782c-.07.654-.069 1.178.004 1.572.054.293.139.488.253.58l.005.005c.149.125.459.228.929.31.55.095 1.276.143 2.173.143 1.493 0 2.623-.292 3.392-.876.735-.558 1.166-1.418 1.293-2.58l.289-2.663a6.67 6.67 0 01-1.459 1.016c-1.25.646-2.776.97-4.581.97-1.76 0-3.232-.22-4.415-.655-1.249-.461-2.18-1.165-2.79-2.11-.589-.908-.96-2.18-1.114-3.816-.147-1.566-.098-3.48.149-5.74.232-2.137.589-3.95 1.068-5.44.496-1.542 1.127-2.747 1.89-3.616.783-.89 1.814-1.556 3.092-1.996 1.233-.424 2.697-.638 4.39-.638 1.893 0 3.438.361 4.637 1.084a5.6 5.6 0 011.38 1.161l.079-1.991h6.775l-.084.782zm-11.598 4.58c-.955 0-1.736.092-2.343.278-.536.164-.927.398-1.17.7l-.003.003c-.27.333-.516.924-.74 1.773-.238.908-.437 2.08-.593 3.516-.166 1.53-.232 2.775-.196 3.735.032.887.143 1.498.33 1.837.154.274.467.491.938.65.567.191 1.336.287 2.304.287.978 0 1.78-.099 2.405-.297v-.003c.566-.18.982-.436 1.249-.771l.002-.003c.295-.366.56-.993.796-1.882.254-.952.46-2.173.623-3.662.156-1.426.208-2.59.16-3.497-.046-.824-.17-1.4-.37-1.728-.172-.275-.506-.493-1.004-.652-.59-.19-1.387-.284-2.388-.284zm38.22 9.737h6.12l-.177 1.637c-.262 2.398-1.36 4.197-3.295 5.4-1.856 1.154-4.474 1.732-7.853 1.732-2.262 0-4.125-.197-5.587-.588-1.55-.415-2.672-1.06-3.37-1.931h-.002c-.684-.86-1.116-2.152-1.298-3.881-.173-1.64-.125-3.698.145-6.175.241-2.216.628-4.075 1.16-5.576.552-1.56 1.267-2.75 2.144-3.573.876-.824 2.089-1.437 3.634-1.839 1.492-.388 3.297-.582 5.412-.582 2.041 0 3.738.19 5.09.569 1.43.402 2.49 1.023 3.176 1.863l-.001.001c.68.83 1.119 2.022 1.317 3.579.189 1.48.165 3.306-.07 5.477l-.246 2.257h-15.04v.01l-.05.34v-.002c-.11 1.032-.127 1.887-.045 2.563.071.59.212 1.012.422 1.265l.002.006c.201.248.556.443 1.063.585.586.164 1.35.246 2.292.246.942 0 1.713-.05 2.312-.148.546-.089.935-.211 1.168-.367v.001c.202-.136.374-.37.517-.7.17-.397.29-.91.358-1.537l.069-.632h.632zm.08-6.293l.019-.229.003-.019c.09-.824.094-1.492.014-2.002-.066-.416-.179-.7-.338-.85l-.006-.004c-.179-.172-.525-.31-1.038-.414-.595-.12-1.383-.18-2.362-.18-.943 0-1.716.072-2.316.216-.536.128-.924.307-1.163.537-.248.236-.465.645-.653 1.226-.154.472-.28 1.045-.381 1.719h8.222zm20.783-8.806h6.094l-.311 1.898c1.532-1.435 3.657-2.152 6.374-2.152.558 0 1.094.03 1.609.085.988.108 1.86.322 2.62.642.783.331 1.442.773 1.975 1.327 1.33 1.382 1.85 3.405 1.559 6.067l-1.714 15.747h-6.73l1.63-14.978.047-1.486c-.028-.582-.243-1.012-.648-1.29-.483-.331-1.24-.498-2.27-.498-3.149 0-4.883 1.485-5.206 4.455l-1.502 13.797h-6.73l2.57-23.614h.633zm41.698-8.713l-1.165 10.7a7.024 7.024 0 011.578-1.165c1.316-.717 2.922-1.076 4.816-1.076.543 0 1.067.028 1.57.082.984.108 1.852.323 2.605.644a5.795 5.795 0 011.96 1.34c1.31 1.386 1.82 3.413 1.53 6.079l-1.712 15.723h-6.73l1.569-14.414.079-.72c.024-.218.035-.432.035-.643 0-.766-.175-1.343-.525-1.73-.353-.391-.915-.628-1.686-.712a6.125 6.125 0 00-.665-.033c-1.625 0-2.873.406-3.743 1.22-.877.82-1.408 2.083-1.594 3.79l-1.44 13.242H307.9L311.504 146h6.73l-.085.782zm32.469 16.564h-6.21l.086-.782c.154-1.407.45-2.592.887-3.554.462-1.01 1.08-1.777 1.857-2.299.748-.503 1.797-.875 3.148-1.118 1.301-.234 2.883-.352 4.746-.352 2.037 0 3.743.143 5.115.429 1.437.299 2.522.762 3.254 1.392.763.65 1.28 1.577 1.554 2.778.255 1.125.295 2.5.118 4.125l-1.65 15.144h-6.798l.297-1.54c-.449.35-.952.65-1.51.899-1.335.596-2.975.895-4.92.895-2.866 0-4.976-.635-6.332-1.906-1.391-1.302-1.948-3.21-1.675-5.725.273-2.505 1.238-4.396 2.894-5.671 1.628-1.253 3.893-1.88 6.794-1.88 1.922 0 3.46.227 4.613.682.538.212.995.474 1.372.784l.207-1.903c.088-.804.092-1.466.014-1.984-.065-.427-.18-.727-.346-.899-.174-.181-.497-.327-.967-.437-.55-.129-1.266-.194-2.148-.194-2.285 0-3.519.828-3.699 2.482l-.069.634h-.632zm2.921 5.825c-2.579 0-3.962.827-4.143 2.482-.07.64-.061 1.16.026 1.559.068.309.177.523.328.643h.003c.189.15.544.27 1.065.363.596.104 1.37.155 2.326.155 1.481 0 2.597-.237 3.347-.709.675-.424 1.06-1.069 1.153-1.932.012-.113.018-.229.018-.35 0-.603-.202-1.07-.607-1.403-.468-.386-1.211-.634-2.226-.745a11.938 11.938 0 00-1.29-.063zm26.659-13.676h6.185l-.322 1.511c.406-.347.84-.647 1.299-.899 1.168-.64 2.49-.96 3.969-.96.321 0 .638.017.95.05 1.623.178 2.85.82 3.684 1.928.806 1.071 1.208 2.551 1.208 4.438 0 .539-.034 1.123-.103 1.752l-.238 2.186h-6.518l.184-.856a35.7 35.7 0 00.148-.716c.035-.184.056-.318.066-.4.11-1.016.017-1.748-.283-2.196-.255-.381-.719-.572-1.392-.572-1.099 0-1.954.357-2.565 1.07-.658.768-1.076 1.958-1.251 3.568l-1.492 13.71h-6.731l2.57-23.614h.632zm36.38-8.713l-.553 5.071h-6.73l.637-5.853h6.73l-.085.782zm-1.035 9.495l-2.485 22.832h-6.73l2.57-23.614h6.73l-.085.782zm18.794 7.069h-6.21l.085-.782c.154-1.407.45-2.592.888-3.554.46-1.01 1.08-1.777 1.856-2.299.748-.503 1.797-.875 3.148-1.118 1.301-.234 2.883-.352 4.746-.352 2.038 0 3.743.143 5.115.429 1.437.299 2.523.762 3.254 1.392.763.65 1.281 1.577 1.554 2.778.256 1.125.296 2.5.118 4.125l-1.648 15.144h-6.8l.297-1.54c-.449.35-.952.65-1.51.899-1.335.596-2.975.895-4.918.895-2.868 0-4.978-.635-6.334-1.906-1.39-1.302-1.948-3.21-1.675-5.725.273-2.505 1.238-4.396 2.894-5.671 1.628-1.253 3.893-1.88 6.795-1.88 1.921 0 3.46.227 4.612.682.538.212.995.474 1.372.784l.207-1.903c.088-.804.092-1.466.014-1.984-.065-.427-.18-.727-.346-.899-.174-.181-.497-.327-.967-.437-.55-.129-1.265-.194-2.148-.194-2.285 0-3.519.828-3.698 2.482l-.07.634h-.631zm2.92 5.825c-2.579 0-3.962.827-4.142 2.482-.07.64-.061 1.16.025 1.559.068.309.177.523.329.643h.002c.19.15.544.27 1.066.363.595.104 1.37.155 2.325.155 1.481 0 2.598-.237 3.347-.709.675-.424 1.06-1.069 1.154-1.932.012-.113.018-.229.018-.35 0-.603-.203-1.07-.607-1.403-.47-.386-1.211-.634-2.227-.745a11.938 11.938 0 00-1.29-.063z"></path><path fill="#F93" d="M395 61h34l-20.165 37L395 61"></path><path fill="#063" d="M259.8 140.271h13.607c7.483 0 14.385-6.138 15.34-13.641l5.413-42.53h34.737c9.737 0 9.158 14.758-.715 14.833l-29.915.244 26.215 31.707c4.269 5.162 11.976 9.387 17.124 9.387h21.487l-22.957-27.768c28.44-11.02 22.128-51.503-8.19-51.503h-62.058L259.8 140.271zm-119.8 0h13.607c7.483 0 14.385-6.138 15.34-13.641l4.028-31.652 8.397 45.293h25.563l18.91-43.789-3.768 29.61c-.993 7.799 4.558 14.18 12.335 14.18h13.071L257.572 61h-29.527c-7.481 0-15.9 6.142-18.7 13.641L197.3 106.87l-4.102-32.229c-.955-7.5-7.857-13.641-15.34-13.641h-27.77L140 140.271zM465 61h-27.527l-29.61 54.083-16.268-42.663C389.199 66.138 382.152 61 375.93 61h-16.216l26.14 68.552c6.254 16.405 33.908 14.078 41.614 0L465 61z"></path><path fill="#063" d="M384 121c5.33 4.58 13.581 10.507 20.579 10.507 7.752 0 18.8-4.573 26.421-9.903l-4.13 7.118c-2.239 3.865-6.315 6.752-11.053 8.465a30.892 30.892 0 01-11.137 1.804c-3.72-.093-7.327-.896-10.365-2.474-3.174-1.648-5.73-4.164-7.127-7.625L384 121m-67-1c1.743 1.67 8.975 7.853 20.469 7.853h13.838L360 138h-18.753c-2.373 0-5.391-.97-8.338-2.527-2.994-1.583-5.88-3.767-7.934-6.163L317 120m-53.6 6.858h12.512s6.705-.546 12.088-6.858l-.725 5.77c-.422 3.352-2.167 6.41-4.635 8.633-2.463 2.219-5.646 3.597-8.945 3.597H262l1.4-11.142M223.785 121l-.688 5.467a12.925 12.925 0 00-.097 1.61c0 2.828.97 5.363 2.615 7.27 1.65 1.908 3.99 3.209 6.732 3.56.473.06.993.093 1.55.093h11.684L247 127.747h-12.527c-5.605 0-8.803-3.051-10.688-6.747M178 112l4.985 27h23.395l6.62-15.395c-3.828 3.433-7.563 4.087-7.563 4.087h-15.385c-6.77 0-9.758-9.81-12.052-15.692m-37 27h12.053c3.402 0 6.682-1.41 9.22-3.678 2.545-2.274 4.343-5.4 4.777-8.828L168 119c-5.612 8.459-12.583 7.186-12.583 7.186h-12.795L141 139"></path><path fill="#036936" d="M318 121c1.728 1.577 8.666 7.38 19.653 7.38h13.614c2.913 3.171 5.823 6.342 8.733 9.511l-17.695.109c-2.547 0-5.707-.908-8.799-2.368-2.952-1.484-5.834-3.577-7.922-5.897A23624.83 23624.83 0 00318 121"></path><path fill="#056B38" d="M319 122c1.67 1.578 8.153 7.34 18.379 7.34h13.063l8.558 9.432-16.236.228c-2.655 0-5.873-.901-9.03-2.35-2.84-1.47-5.646-3.596-7.715-5.974L319 122"></path><path fill="#086E3B" d="M319 122c1.652 1.483 7.848 6.865 17.577 6.865h12.836l8.587 8.797c-5.067.114-10.136.226-15.205.338-2.818 0-6.17-.84-9.463-2.19-2.797-1.373-5.595-3.406-7.696-5.708-2.211-2.702-4.424-5.401-6.636-8.102"></path><path fill="#0A703D" d="M320 123c1.678 1.39 7.744 6.394 17.22 6.394h12.939c2.947 2.721 5.893 5.443 8.841 8.163l-14.553.443c-3.059 0-6.632-.78-10.15-2.032-2.827-1.274-5.69-3.216-7.877-5.438L320 123"></path><path fill="#0D7340" d="M321 124c1.661 1.299 7.437 5.924 16.416 5.924h12.71c2.96 2.511 5.916 5.023 8.874 7.534l-13.516.542c-3.227 0-6.933-.72-10.588-1.877-2.786-1.174-5.642-3.022-7.86-5.161-2.01-2.321-4.023-4.641-6.036-6.962"></path><path fill="#0F7542" d="M322 125c1.643 1.298 7.132 5.874 15.614 5.874h12.482l8.904 7.44c-4.162.229-8.326.459-12.488.686-3.39 0-7.23-.711-11.02-1.852-2.741-1.161-5.59-3.047-7.838-5.26-1.883-2.296-3.77-4.592-5.654-6.888"></path><path fill="#127845" d="M322 125c1.625 1.205 6.83 5.404 14.818 5.404h12.254l8.928 6.81c-3.82.263-7.642.525-11.465.786-3.551 0-7.519-.65-11.443-1.695-2.7-1.063-5.538-2.855-7.817-4.986-1.757-2.107-3.516-4.212-5.275-6.319"></path><path fill="#127845" d="M323 126c1.609 1.11 6.527 4.936 14.025 4.936h12.022c2.985 2.062 5.969 4.126 8.953 6.186l-10.45.878c-3.711 0-7.806-.59-11.858-1.542-2.658-.964-5.487-2.659-7.794-4.704A7935.252 7935.252 0 00323 126"></path><path fill="#177D4A" d="M324 127c1.636 1.11 6.408 4.876 13.625 4.876h12.137L359 137.95c-3.24.35-6.481.701-9.722 1.05-3.98 0-8.323-.58-12.627-1.512-2.688-.947-5.592-2.69-7.995-4.823-1.55-1.888-3.104-3.776-4.656-5.665"></path><path fill="#177D4A" d="M324 128c1.619 1.018 6.105 4.41 12.83 4.41h11.907l9.263 5.448c-2.9.38-5.8.763-8.703 1.142-4.139 0-8.61-.52-13.047-1.356-2.647-.85-5.54-2.497-7.973-4.544-1.425-1.7-2.85-3.4-4.277-5.1"></path><path fill="#1C824F" d="M325 128c1.6.926 5.804 3.945 12.039 3.945h11.676l9.285 4.83-7.688 1.225c-4.3 0-8.896-.46-13.461-1.203-2.605-.754-5.49-2.3-7.95-4.256L325 128"></path><path fill="#1C824F" d="M326 129c1.583.832 5.503 3.484 11.252 3.484h11.444c3.102 1.407 6.202 2.814 9.304 4.219L351.313 138c-4.452 0-9.171-.402-13.863-1.05-2.56-.66-5.435-2.105-7.922-3.965A5127.483 5127.483 0 00326 129"></path><path fill="#218754" d="M327 130c1.564.834 5.204 3.406 10.47 3.406h11.21l9.32 4.07c-1.897.508-3.794 1.017-5.693 1.524-4.602 0-9.443-.389-14.258-1.012-2.515-.636-5.379-2.144-7.891-4.12A5118.188 5118.188 0 01327 130"></path><path fill="#218754" d="M327 130c1.545.738 4.906 2.946 9.694 2.946h10.974l9.332 3.46c-1.57.53-3.138 1.063-4.708 1.594-4.752 0-9.707-.33-14.641-.862-2.473-.54-5.323-1.944-7.86-3.823L327 130"></path><path fill="#248A57" d="M328 131c1.578.645 4.77 2.49 9.232 2.49h11.108c3.22.955 6.44 1.908 9.66 2.86-1.288.551-2.574 1.101-3.864 1.65-5.062 0-10.305-.272-15.53-.712-2.511-.447-5.445-1.746-8.095-3.519L328 131"></path><path fill="#268C59" d="M329 132c1.559.553 4.471 2.043 8.452 2.043h10.874c3.224.76 6.45 1.518 9.674 2.277-.957.56-1.916 1.122-2.874 1.68-5.211 0-10.574-.217-15.921-.566-2.465-.356-5.388-1.542-8.062-3.198L329 132"></path><path fill="#298F5C" d="M329 133c1.54.553 4.174 1.93 7.678 1.93h10.637l9.685 2.055a725.85 725.85 0 01-1.894 2.015c-5.358 0-10.835-.196-16.3-.512-2.42-.32-5.33-1.597-8.029-3.424-.591-.689-1.184-1.375-1.777-2.064"></path><path fill="#2B915E" d="M330 133c1.52.46 3.881 1.485 6.912 1.485h10.399L357 135.96c-.308.68-.617 1.36-.928 2.04-5.498 0-11.085-.14-16.664-.367-2.377-.23-5.27-1.393-7.993-3.1L330 133"></path><path fill="#2E9461" d="M331 134c1.499.366 3.585 1.054 6.146 1.054h10.15c3.227.309 6.452.616 9.679.923.009.675.02 1.35.025 2.023-5.628 0-11.315-.087-16.997-.229-2.33-.145-5.205-1.181-7.945-2.747L331 134"></path><path fill="#309663" d="M332 135c1.537.274 3.429.648 5.615.648h10.312l10.07.42L359 138c-5.995 0-12.02-.04-18.045-.104-2.373-.066-5.35-.957-8.22-2.341L332 135"></path><path fill="#396" d="M332 136c1.52.273 3.139.432 4.856.432h20.174L359 139h-18.43c-2.333 0-5.299-1.064-8.195-2.774L332 136"></path><path fill="#036936" d="M263.385 127.419h12.514c.108 0 6.748-.512 12.101-6.419-.235 1.801-.217 3.581-.212 5.172-.452 3.219-2.208 6.153-4.68 8.294-2.519 2.18-5.774 3.534-9.149 3.534H262l1.385-10.581"></path><path fill="#056B38" d="M263.35 128.355h12.362c.223 0 6.713-.505 11.968-6.355-.226 1.783.06 3.524.32 4.873-.476 3.273-2.224 6.26-4.67 8.443-2.545 2.273-5.834 3.684-9.245 3.684H262l1.35-10.645"></path><path fill="#086E3B" d="M263.254 127.915h11.642c.32 0 6.363-.47 11.28-5.915-.206 1.66.33 3.257.824 4.277-.477 3.14-2.135 6.002-4.443 8.103-2.453 2.233-5.623 3.62-8.91 3.62H262c.419-3.36.837-6.723 1.254-10.085"></path><path fill="#0A703D" d="M263.21 128.48h11.395c.428 0 6.274-.436 11.052-5.48-.194 1.538.602 2.994 1.343 3.697-.498 3.002-2.133 5.736-4.395 7.753-2.459 2.19-5.636 3.55-8.93 3.55H262c.403-3.173.808-6.347 1.21-9.52"></path><path fill="#0D7340" d="M263.166 129.047h11.146c.536 0 6.183-.402 10.824-5.047-.184 1.417.875 2.734 1.864 3.129-.518 2.861-2.13 5.468-4.348 7.398-2.464 2.142-5.648 3.473-8.95 3.473H262l1.166-8.953"></path><path fill="#0F7542" d="M263.122 129.971h10.897c.645 0 6.093-.394 10.592-4.971-.172 1.395 1.15 2.666 2.389 2.773-.539 2.93-2.126 5.596-4.3 7.577-2.47 2.251-5.662 3.65-8.972 3.65H262l1.122-9.029"></path><path fill="#127845" d="M263.078 129.538h10.646c.753 0 6-.36 10.361-4.538-.16 1.273 1.426 2.404 2.915 2.209-.559 2.79-2.124 5.326-4.252 7.22-2.475 2.203-5.675 3.571-8.992 3.571H262l1.078-8.462"></path><path fill="#127845" d="M263.031 130.111h10.396c.864 0 5.909-.328 10.13-4.111-.15 1.154 1.703 2.149 3.443 1.664-.58 2.645-2.12 5.05-4.203 6.853-2.481 2.149-5.688 3.483-9.014 3.483H262c.344-2.63.689-5.26 1.031-7.889"></path><path fill="#177D4A" d="M262.986 131.022h10.144c.973 0 5.816-.319 9.896-4.022-.14 1.128 1.98 2.07 3.974 1.244-.6 2.724-2.117 5.2-4.154 7.065-2.487 2.277-5.702 3.691-9.035 3.691H262c.33-2.66.658-5.319.986-7.978"></path><path fill="#177D4A" d="M262.941 130.595h9.89c1.084 0 5.723-.285 9.662-3.595-.127 1.009 2.26 1.815 4.507.707-.621 2.58-2.114 4.92-4.106 6.694-2.492 2.22-5.715 3.599-9.056 3.599H262l.941-7.405"></path><path fill="#1C824F" d="M262.896 131.174h9.633c1.196 0 5.632-.253 9.43-3.174-.118.89 2.54 1.563 5.041.194-.643 2.428-2.112 4.632-4.057 6.31-2.498 2.157-5.728 3.496-9.077 3.496H262c.299-2.275.599-4.552.896-6.826"></path><path fill="#1C824F" d="M262.85 131.28h9.377c1.308 0 5.537-.237 9.192-2.97-.105.834 2.823 1.42 5.581-.31-.664 2.446-2.11 4.665-4.008 6.365-2.504 2.242-5.742 3.635-9.098 3.635H262l.85-6.72"></path><path fill="#218754" d="M262.805 132.53h9.12c1.42 0 5.444-.213 8.953-2.692-.093.755 3.106 1.24 6.122-.838-.685 2.416-2.106 4.606-3.958 6.292-2.51 2.287-5.755 3.708-9.12 3.708H262l.805-6.47"></path><path fill="#218754" d="M262.758 132.413h8.86c1.535 0 5.35-.172 8.717-2.165-.083.608 3.39.947 6.665-1.248-.706 2.145-2.102 4.088-3.908 5.595-2.516 2.1-5.769 3.405-9.141 3.405H262l.758-5.587"></path><path fill="#248A57" d="M262.712 132.658h8.6c1.647 0 5.254-.15 8.476-1.893-.07.531 3.678.768 7.212-1.765-.728 2.115-2.101 4.029-3.858 5.524-2.523 2.144-5.783 3.476-9.164 3.476H262l.712-5.342"></path><path fill="#268C59" d="M262.665 132.914h8.34c1.76 0 5.159-.127 8.234-1.612-.06.452 3.965.585 7.761-2.302-.75 2.085-2.097 3.97-3.808 5.45-2.529 2.19-5.796 3.55-9.185 3.55H262l.665-5.086"></path><path fill="#298F5C" d="M262.619 133.18h8.076c1.875 0 5.063-.103 7.993-1.316-.048.37 4.254.391 8.312-2.864-.771 2.051-2.094 3.904-3.758 5.372-2.534 2.238-5.81 3.628-9.206 3.628H262l.619-4.82"></path><path fill="#2B915E" d="M262.572 134.459h7.813c1.99 0 4.967-.081 7.749-1.011-.036.284 4.544.192 8.866-3.448-.793 2.016-2.092 3.836-3.707 5.29-2.54 2.289-5.824 3.71-9.229 3.71H262l.572-4.541"></path><path fill="#2E9461" d="M262.523 134.75h7.55c2.105 0 4.869-.055 7.504-.688-.024.194 4.837-.02 9.423-4.062a14.72 14.72 0 01-3.656 5.207c-2.546 2.34-5.838 3.793-9.25 3.793H262c.175-1.415.35-2.833.523-4.25"></path><path fill="#309663" d="M262.457 134.493h6.991c2.134 0 4.583-.024 6.969-.312-.01.087 4.924-.214 9.583-4.181-.803 1.727-2.002 3.283-3.46 4.55-2.451 2.128-5.618 3.45-8.903 3.45H262c.153-1.168.306-2.337.457-3.507"></path><path fill="#396" d="M262.41 134.778h13.468S281.084 134.36 286 130a14.468 14.468 0 01-3.411 4.467c-2.457 2.18-5.632 3.533-8.923 3.533H262l.41-3.222"></path><path fill="#036936" d="M223.685 121l-.648 5.333a8.92 8.92 0 00.032 1.911c.077 2.832 1.096 5.35 2.77 7.214 1.568 1.85 3.788 3.111 6.388 3.452.625.059 1.297.09 2.001.09 3.661-.052 7.32-.106 10.98-.16l.792-10.897c-4.068 0-8.099-.048-12.103-.125-5.344-.074-8.404-3.133-10.212-6.818"></path><path fill="#056B38" d="M223.655 121l-.634 4.909a6.778 6.778 0 00.164 2.098c.16 2.677 1.27 5.038 3.041 6.756 1.555 1.693 3.748 2.844 6.31 3.154a38.35 38.35 0 002.543.083c3.579-.101 7.155-.206 10.73-.307l.191-9.945c-4.132 0-8.186-.094-12.184-.239-5.306-.145-8.354-3.037-10.16-6.509"></path><path fill="#086E3B" d="M223.62 121l-.606 4.774a6.46 6.46 0 00.297 2.403c.24 2.68 1.427 5.024 3.264 6.698 1.508 1.634 3.63 2.747 6.106 3.045.979.052 2 .08 3.053.08 3.423-.157 6.845-.312 10.266-.47l-.439-9.585c-4.114 0-8.115-.143-12.03-.364-5.164-.22-8.14-3.12-9.911-6.581"></path><path fill="#0A703D" d="M223.583 122c-.192 1.545-.384 3.09-.573 4.635a6.544 6.544 0 00.428 2.72c.32 2.682 1.572 5.008 3.46 6.636 1.45 1.574 3.482 2.645 5.849 2.934a82.97 82.97 0 003.543.075l9.71-.638-1.064-9.211c-4.066 0-7.979-.194-11.777-.495-4.977-.3-7.855-3.205-9.576-6.656"></path><path fill="#0D7340" d="M223.547 122c-.182 1.409-.363 2.817-.54 4.227a6.068 6.068 0 00.558 2.867c.4 2.527 1.717 4.699 3.657 6.187 1.392 1.424 3.333 2.39 5.593 2.651 1.309.043 2.655.068 4.03.068 3.053-.254 6.105-.508 9.155-.765l-1.69-8.306c-4.016 0-7.84-.232-11.52-.592-4.79-.36-7.573-3.101-9.243-6.337"></path><path fill="#0F7542" d="M223.513 122c-.172 1.363-.34 2.724-.508 4.088a6.402 6.402 0 00.69 3.184c.48 2.531 1.86 4.684 3.853 6.127 1.333 1.362 3.183 2.287 5.335 2.536a151.8 151.8 0 004.517.065c2.867-.31 5.734-.623 8.6-.933-.77-2.644-1.543-5.289-2.314-7.931-3.967 0-7.702-.285-11.267-.724-4.602-.44-7.286-3.185-8.906-6.412"></path><path fill="#127845" d="M223.479 123c-.16 1.313-.319 2.626-.475 3.942a6.81 6.81 0 00.82 3.515c.557 2.535 2.006 4.668 4.046 6.064 1.276 1.299 3.038 2.182 5.08 2.417 1.637.04 3.308.062 5.002.062l8.048-1.11-2.94-7.54c-3.913 0-7.561-.337-11.009-.86-4.416-.522-7.004-3.275-8.572-6.49"></path><path fill="#127845" d="M223.445 123a668.49 668.49 0 00-.442 3.553 6.47 6.47 0 00.95 3.617 9.349 9.349 0 004.241 5.624c1.219 1.157 2.889 1.942 4.826 2.15 1.8.038 3.631.056 5.486.056l7.494-1.212c-1.186-2.23-2.372-4.46-3.56-6.689-3.865 0-7.425-.369-10.755-.94-4.231-.569-6.722-3.156-8.24-6.159"></path><path fill="#177D4A" d="M223.412 123c-.14 1.135-.276 2.27-.41 3.407-.036 1.474.365 2.84 1.081 3.95a9.477 9.477 0 004.436 5.56c1.158 1.093 2.739 1.834 4.569 2.03 1.964.035 3.956.053 5.968.053l6.944-1.389-4.18-6.295a52.28 52.28 0 01-10.503-1.077c-4.043-.654-6.437-3.246-7.905-6.239"></path><path fill="#177D4A" d="M223.38 123a376.11 376.11 0 00-.378 3.255c-.034 1.612.415 3.099 1.209 4.296a9.606 9.606 0 004.63 5.494c1.101 1.028 2.594 1.723 4.315 1.906 2.126.032 4.28.049 6.451.049l6.393-1.574c-1.6-1.961-3.198-3.924-4.8-5.885-3.766 0-7.148-.48-10.247-1.221-3.858-.74-6.157-3.34-7.574-6.32"></path><path fill="#1C824F" d="M223.346 124c-.119 1.03-.235 2.061-.345 3.095-.031 1.759.467 3.373 1.338 4.66.873 2.388 2.58 4.312 4.824 5.425 1.042.956 2.445 1.605 4.06 1.776 2.29.029 4.602.044 6.932.044 1.949-.59 3.898-1.177 5.845-1.768l-5.419-5.455c-3.714 0-7.011-.538-9.994-1.37-3.673-.833-5.874-3.438-7.241-6.407"></path><path fill="#1C824F" d="M223.313 124c-.109.909-.213 1.82-.312 2.733-.028 1.783.518 3.412 1.466 4.701.952 2.233 2.723 4.009 5.016 4.997.987.825 2.3 1.384 3.808 1.53 2.451.025 4.924.039 7.412.039l5.297-1.837-6.036-4.677a33.4 33.4 0 01-9.741-1.423c-3.487-.865-5.594-3.305-6.91-6.063"></path><path fill="#218754" d="M223.28 124a232.87 232.87 0 00-.28 2.574c-.024 1.927.57 3.685 1.596 5.065a9.62 9.62 0 005.209 4.926c.928.757 2.154 1.267 3.555 1.4 2.614.023 5.246.035 7.89.035l4.75-2.03-6.65-4.247c-3.616 0-6.736-.619-9.49-1.574-3.302-.957-5.312-3.402-6.58-6.149"></path><path fill="#218754" d="M223.248 125c-.088.799-.17 1.6-.247 2.405-.022 2.082.618 3.974 1.724 5.447a9.735 9.735 0 005.4 4.854c.871.684 2.007 1.145 3.303 1.263 2.775.02 5.564.031 8.369.031l4.203-2.234-7.263-3.795c-3.568 0-6.6-.68-9.239-1.732-3.119-1.052-5.033-3.506-6.25-6.239"></path><path fill="#248A57" d="M223.215 125c-.077.686-.149 1.376-.215 2.07-.018 2.08.67 3.967 1.853 5.428 1.184 2.084 3.147 3.672 5.591 4.436.813.565 1.862.944 3.05 1.04 2.936.017 5.886.026 8.846.026l3.66-2.272-7.877-3.087c-3.516 0-6.463-.692-8.986-1.761-2.936-1.07-4.755-3.356-5.922-5.88"></path><path fill="#268C59" d="M223.183 125c-.066.63-.127 1.263-.183 1.901-.015 2.235.72 4.257 1.98 5.813 1.264 2.09 3.29 3.655 5.784 4.363.757.491 1.715.82 2.799.902 3.096.014 6.204.021 9.32.021 1.04-.826 2.078-1.653 3.117-2.477-2.828-.878-5.658-1.754-8.488-2.631-3.467 0-6.327-.755-8.735-1.92-2.752-1.167-4.476-3.458-5.594-5.972"></path><path fill="#298F5C" d="M223.151 126a72.54 72.54 0 00-.15 1.721c-.014 2.399.768 4.564 2.107 6.218 1.34 2.094 3.43 3.636 5.975 4.287.698.414 1.57.689 2.548.756 3.257.013 6.522.018 9.795.018l2.574-2.693-9.098-2.154c-3.418 0-6.191-.819-8.485-2.087-2.569-1.267-4.199-3.567-5.266-6.066"></path><path fill="#2B915E" d="M223.119 126a48.91 48.91 0 00-.119 1.535c-.01 2.569.82 4.88 2.235 6.643a10.084 10.084 0 006.164 4.204c.644.334 1.427.553 2.298.605 3.417.01 6.842.013 10.27.013l2.033-2.918-9.706-1.653c-3.37 0-6.057-.888-8.237-2.261-2.386-1.375-3.92-3.683-4.938-6.168"></path><path fill="#2E9461" d="M223.087 126c-.037.408-.066.821-.087 1.237-.007 2.534.869 4.813 2.362 6.54 1.495 1.94 3.711 3.318 6.354 3.803.585.23 1.28.38 2.048.412 3.577.005 7.158.008 10.742.008.498-.971.997-1.941 1.494-2.913l-10.316-1.04c-3.318 0-5.92-.886-7.985-2.257-2.204-1.37-3.644-3.51-4.612-5.79"></path><path fill="#309663" d="M223.055 126c-.026.346-.045.695-.055 1.05-.003 2.705.92 5.134 2.489 6.969 1.573 1.943 3.85 3.297 6.543 3.72.53.147 1.138.24 1.799.258 3.736.002 7.474.003 11.214.003l.955-3.14-10.92-.535c-3.271 0-5.786-.956-7.74-2.434-2.02-1.479-3.364-3.624-4.285-5.891"></path><path fill="#396" d="M223.024 127c-.017.279-.024.561-.024.85 0 2.887.97 5.474 2.615 7.42 1.65 1.948 3.99 3.276 6.733 3.636.473.061.993.094 1.55.094h11.685l.417-3.381h-11.525c-6.446 0-9.713-4.119-11.45-8.619"></path><path fill="#036936" d="M178 112l4.765 26h22.961c2.092-4.9 4.184-9.8 6.274-14.702-3.655 3.27-7.2 3.896-7.2 3.896h-15.099c-6.535 0-9.461-9.44-11.701-15.194"></path><path fill="#056B38" d="M178 113l4.685 25h23.2c2.04-4.67 4.079-9.34 6.115-14.011-3.59 3.105-7.05 3.702-7.05 3.702h-15.256c-6.494 0-9.442-9.066-11.694-14.691"></path><path fill="#086E3B" d="M178 114l4.603 24h23.447c1.984-4.441 3.968-8.883 5.95-13.324-3.524 2.943-6.895 3.511-6.895 3.511h-15.42c-6.45 0-9.42-8.695-11.685-14.187"></path><path fill="#0A703D" d="M178 115l4.386 24h23c1.873-4.395 3.743-8.793 5.614-13.19-3.357 2.904-6.541 3.467-6.541 3.467h-15.125c-6.218 0-9.124-8.686-11.334-14.277"></path><path fill="#0D7340" d="M178 115l4.303 23h23.249c1.817-4.167 3.633-8.334 5.448-12.503-3.29 2.74-6.385 3.276-6.385 3.276h-15.289c-6.174 0-9.104-8.314-11.326-13.773"></path><path fill="#0F7542" d="M178 116l4.219 22h23.501l5.28-11.82c-3.222 2.578-6.227 3.085-6.227 3.085h-15.455c-6.13 0-9.082-7.942-11.318-13.265"></path><path fill="#127845" d="M179 117l4.007 22h23.043c1.652-3.89 3.302-7.782 4.951-11.672-3.056 2.534-5.88 3.035-5.88 3.035h-15.152c-5.9 0-8.786-7.932-10.968-13.363"></path><path fill="#127845" d="M179 117l3.921 21h23.3c1.594-3.663 3.187-7.327 4.779-10.991-2.986 2.374-5.718 2.847-5.718 2.847H189.96c-5.856 0-8.766-7.56-10.96-12.856"></path><path fill="#177D4A" d="M179 118l3.714 20h22.826c1.487-3.438 2.975-6.876 4.46-10.315-2.825 2.214-5.38 2.66-5.38 2.66h-15.01c-5.628 0-8.47-7.19-10.61-12.345"></path><path fill="#177D4A" d="M179 119c1.208 6.667 2.417 13.335 3.627 20h23.087c1.43-3.383 2.858-6.766 4.286-10.15-2.755 2.164-5.217 2.603-5.217 2.603h-15.182c-5.582 0-8.45-7.177-10.601-12.453"></path><path fill="#1C824F" d="M179 119l3.538 19h23.352c1.372-3.159 2.74-6.317 4.11-9.476-2.685 2.007-5.05 2.418-5.05 2.418h-15.357c-5.537 0-8.426-6.808-10.593-11.942"></path><path fill="#1C824F" d="M179 120l3.335 18H205.2c1.268-2.935 2.534-5.87 3.8-8.807-2.527 1.85-4.722 2.234-4.722 2.234h-15.036c-5.312 0-8.132-6.437-10.242-11.427"></path><path fill="#218754" d="M179 121l3.245 17h23.135l3.62-8.143c-2.454 1.694-4.553 2.05-4.553 2.05h-15.213c-5.264 0-8.11-6.067-10.234-10.907"></path><path fill="#218754" d="M180 122c1.05 5.667 2.102 11.335 3.153 17h23.411c1.147-2.651 2.292-5.302 3.436-7.955-2.38 1.638-4.379 1.988-4.379 1.988h-15.396c-5.217 0-8.087-6.054-10.225-11.033"></path><path fill="#248A57" d="M180 122l2.956 16h22.907c1.046-2.43 2.093-4.861 3.137-7.293-2.226 1.483-4.06 1.805-4.06 1.805h-15.064c-4.995 0-7.795-5.684-9.876-10.512"></path><path fill="#268C59" d="M180 123l2.863 15h23.187c.983-2.213 1.969-4.427 2.95-6.64-2.15 1.33-3.885 1.624-3.885 1.624h-15.247c-4.946 0-7.773-5.314-9.868-9.984"></path><path fill="#298F5C" d="M180 124l2.767 15h23.474l2.759-6.423c-2.074 1.264-3.705 1.55-3.705 1.55h-15.437c-4.895 0-7.748-5.298-9.858-10.127"></path><path fill="#2B915E" d="M180 124c.86 4.667 1.717 9.335 2.577 14h22.949c.826-1.924 1.65-3.847 2.474-5.773-1.926 1.114-3.399 1.374-3.399 1.374H189.51c-4.676 0-7.457-4.93-9.509-9.601"></path><path fill="#2E9461" d="M180 125l2.479 13h23.243c.76-1.71 1.519-3.422 2.278-5.133-1.847.966-3.215 1.199-3.215 1.199H189.5c-4.626 0-7.433-4.562-9.5-9.066"></path><path fill="#309663" d="M180 126c.793 4.333 1.585 8.667 2.379 13h23.541c.694-1.625 1.387-3.253 2.08-4.88-1.767.89-3.029 1.112-3.029 1.112h-15.48c-4.573 0-7.41-4.543-9.491-9.232"></path><path fill="#396" d="M180 126l2.195 12h22.998l1.807-4.244c-1.624.742-2.734.94-2.734.94h-15.124c-4.358 0-7.12-4.175-9.142-8.696"></path><path fill="#036936" d="M141 138h11.87c3.35 0 6.581-1.39 9.08-3.625 2.475-2.213 4.23-5.25 4.675-8.58.05-2.054.079-4.449.375-6.795-5.37 7.94-12.017 6.747-12.126 6.747H142.55c-.518 4.083-1.034 8.168-1.551 12.253"></path><path fill="#056B38" d="M141 138h12.057c3.403 0 6.684-1.367 9.223-3.569 2.48-2.15 4.249-5.095 4.72-8.324-.214-1.623-.477-3.913-.19-6.107-5.298 7.427-11.828 6.308-12.046 6.308h-12.237L141 138"></path><path fill="#086E3B" d="M141 138h12.071c3.407 0 6.692-1.344 9.234-3.508 2.452-2.086 4.206-4.936 4.695-8.062-.48-1.202-1.032-3.388-.76-5.43-5.147 6.915-11.46 5.874-11.79 5.874h-11.97L141 138"></path><path fill="#0A703D" d="M141 139h12.084c3.41 0 6.7-1.401 9.244-3.656 2.422-2.147 4.163-5.07 4.672-8.28-.749-.843-1.592-3.053-1.334-5.064-4.994 6.807-11.091 5.784-11.53 5.784h-11.704L141 139"></path><path fill="#0D7340" d="M141 138h11.633c3.283 0 6.449-1.377 8.898-3.594 2.302-2.082 3.962-4.91 4.469-8.016-.977-.426-2.066-2.53-1.833-4.39-4.656 6.298-10.311 5.35-10.84 5.35h-10.996L141 138"></path><path fill="#0F7542" d="M141 138h11.646c3.286 0 6.456-1.35 8.908-3.525 2.273-2.016 3.92-4.744 4.446-7.743-1.234-.023-2.606-2.022-2.388-3.732-4.507 5.791-9.953 4.92-10.589 4.92h-10.737L141 138"></path><path fill="#127845" d="M141 139h11.66c3.29 0 6.463-1.416 8.918-3.696 2.245-2.086 3.879-4.898 4.422-7.994-1.492.39-3.144-1.636-2.94-3.31-4.36 5.667-9.599 4.814-10.34 4.814h-10.48L141 139"></path><path fill="#127845" d="M141 138h11.672c3.294 0 6.471-1.39 8.929-3.626 2.217-2.018 3.838-4.732 4.399-7.718-1.752.788-3.686-1.132-3.496-2.656-4.212 5.163-9.241 4.386-10.09 4.386h-10.218L141 138"></path><path fill="#177D4A" d="M141 138h11.685c3.298 0 6.479-1.36 8.94-3.548 2.187-1.947 3.795-4.557 4.375-7.432-2.01 1.17-4.228-.643-4.053-2.02-4.064 4.663-8.881 3.961-9.84 3.961h-9.957L141 138"></path><path fill="#177D4A" d="M141 138h11.699c3.302 0 6.486-1.326 8.95-3.462 2.16-1.872 3.753-4.374 4.351-7.132-2.27 1.53-4.771-.174-4.61-1.406-3.916 4.17-8.524 3.542-9.588 3.542h-9.697L141 138"></path><path fill="#1C824F" d="M141 139h11.712c3.305 0 6.492-1.406 8.959-3.67 2.13-1.956 3.71-4.564 4.329-7.438-2.533 2.032-5.316.296-5.17-.892-3.768 4.02-8.164 3.415-9.336 3.415h-9.436A29466.5 29466.5 0 01141 139"></path><path fill="#1C824F" d="M141 138h11.725c3.31 0 6.5-1.372 8.97-3.58 2.102-1.88 3.67-4.378 4.305-7.133-2.793 2.383-5.862.755-5.73-.287-3.62 3.529-7.804 2.999-9.083 2.999h-9.174L141 138"></path><path fill="#218754" d="M141 139h11.738c3.313 0 6.508-1.425 8.98-3.718 2.073-1.925 3.626-4.47 4.282-7.282-3.055 2.892-6.41 1.272-6.292.31-3.47 3.256-7.443 2.766-8.83 2.766h-8.911L141 139"></path><path fill="#218754" d="M141 139h11.752c3.316 0 6.515-1.441 8.99-3.762 2.044-1.917 3.585-4.446 4.258-7.238-3.318 3.347-6.958 1.777-6.854.926-3.32 2.884-7.08 2.45-8.578 2.45h-8.647L141 139"></path><path fill="#248A57" d="M141 138h11.765c3.32 0 6.523-1.326 9-3.46 2.018-1.736 3.545-4.018 4.235-6.54-3.58 3.466-7.506 2.087-7.418 1.416-3.17 2.274-6.719 1.932-8.323 1.932h-8.384L141 138"></path><path fill="#268C59" d="M141 138h11.779c3.324 0 6.53-1.342 9.01-3.501 1.987-1.731 3.5-3.994 4.211-6.499-3.844 3.9-8.058 2.57-7.985 2.004-3.018 1.917-6.353 1.628-8.067 1.628h-8.12L141 138"></path><path fill="#298F5C" d="M141 138h11.792c3.329 0 6.538-1.358 9.021-3.543 1.96-1.725 3.46-3.97 4.187-6.457-4.108 4.344-8.609 3.065-8.551 2.606-2.868 1.553-5.988 1.319-7.813 1.319h-7.854L141 138"></path><path fill="#2B915E" d="M141 138h11.805c3.332 0 6.545-1.374 9.031-3.587 1.93-1.718 3.416-3.945 4.164-6.413-4.374 4.799-9.164 3.572-9.12 3.223-2.716 1.178-5.624 1.002-7.556 1.002h-7.59L141 138"></path><path fill="#2E9461" d="M141 138h11.82c3.335 0 6.552-1.391 9.04-3.63 1.902-1.711 3.374-3.92 4.14-6.37-4.64 5.265-9.718 4.09-9.688 3.855-2.566.795-5.258.676-7.3.676h-7.324c-.228 1.823-.458 3.647-.688 5.469"></path><path fill="#309663" d="M141 139h11.832c3.34 0 6.56-1.409 9.052-3.676 1.87-1.704 3.33-3.894 4.116-6.324-4.906 5.742-10.275 4.622-10.26 4.502-2.413.404-4.89.342-7.042.342h-7.057L141 139"></path><path fill="#396" d="M141 139h11.846c3.343 0 6.567-1.426 9.062-3.723 1.843-1.696 3.288-3.865 4.092-6.277-5.172 6.233-10.83 5.168-10.83 5.168h-13.577L141 139"></path><path fill="#036936" d="M384 121c5.132 4.57 13.027 10.466 19.745 10.51 7.427.043 17.956-4.432 25.255-9.68a2439.072 2439.072 0 00-3.442 6.953c-1.952 3.771-5.624 6.565-9.931 8.196a29.077 29.077 0 01-10.875 2.02c-3.666-.028-7.245-.789-10.28-2.347-3.165-1.628-5.74-4.145-7.199-7.63A449.82 449.82 0 01384 121"></path><path fill="#056B38" d="M384 122c5.049 4.305 12.762 9.838 19.347 9.923 7.269.084 17.516-4.04 24.653-8.913-.977 2.17-1.911 4.297-2.835 6.4-1.704 3.464-5.057 6.007-9.027 7.46-3.39 1.37-7.16 2.104-10.855 2.129-3.694.037-7.323-.638-10.425-2.088-3.221-1.516-5.877-3.893-7.427-7.208A207.794 207.794 0 01384 122"></path><path fill="#086E3B" d="M384 122c4.851 4.29 12.21 9.783 18.512 9.915 6.942.132 16.676-3.883 23.488-8.662-.767 2.128-1.472 4.193-2.162 6.214-1.42 3.36-4.377 5.799-7.923 7.16-3.287 1.46-6.963 2.274-10.585 2.361-3.638.107-7.235-.52-10.332-1.948-3.208-1.492-5.878-3.867-7.486-7.205A142.246 142.246 0 01384 122"></path><path fill="#0A703D" d="M385 123c4.651 4.02 11.652 9.147 17.676 9.317 6.615.172 15.836-3.493 22.324-7.893a183.52 183.52 0 00-1.505 5.66c-1.142 3.051-3.708 5.24-6.836 6.43-3.182 1.466-6.762 2.31-10.31 2.455-3.581.171-7.14-.37-10.229-1.692-3.189-1.378-5.873-3.611-7.535-6.774A100.312 100.312 0 01385 123"></path><path fill="#0D7340" d="M385 123c4.57 4 11.39 9.074 17.28 9.297 6.457.221 15.393-3.318 21.72-7.612a104.968 104.968 0 00-.886 5.451c-.892 2.934-3.133 5.009-5.92 6.097-3.16 1.565-6.734 2.492-10.294 2.706-3.612.245-7.224-.245-10.38-1.539-3.252-1.35-6.014-3.579-7.773-6.763A82.293 82.293 0 01385 123"></path><path fill="#0F7542" d="M385 124c4.368 3.727 10.832 8.431 16.442 8.69 6.13.258 14.554-2.932 20.558-6.847-.174 1.742-.227 3.362-.248 4.897-.62 2.632-2.481 4.459-4.858 5.376-3.052 1.565-6.529 2.518-10.01 2.787-3.55.304-7.12-.101-10.265-1.286-3.227-1.238-5.998-3.322-7.808-6.327A64.771 64.771 0 01385 124"></path><path fill="#127845" d="M385 124c4.24 3.452 10.459 7.785 15.879 8.078 5.908.292 13.962-2.555 19.742-6.096.022 1.577.182 3.015.379 4.356-.361 2.332-1.875 3.918-3.886 4.671-2.998 1.556-6.434 2.53-9.893 2.85-3.545.36-7.133.035-10.314-1.044-3.26-1.125-6.083-3.063-7.969-5.885A51.894 51.894 0 01385 124"></path><path fill="#127845" d="M385 125c4.086 3.422 10.012 7.69 15.206 8.038 5.645.347 13.277-2.357 18.793-5.774.214 1.52.588 2.877 1.001 4.119-.103 2.197-1.262 3.654-2.893 4.294-2.92 1.66-6.293 2.725-9.706 3.119-3.516.442-7.097.173-10.292-.874-3.266-1.092-6.122-3.022-8.074-5.86A46.773 46.773 0 01385 125"></path><path fill="#177D4A" d="M386 125c3.927 3.145 9.563 7.04 14.53 7.418 5.38.378 12.584-1.99 17.838-5.033.402 1.354.984 2.531 1.613 3.583.154 1.906-.652 3.127-1.908 3.608-2.844 1.645-6.148 2.723-9.515 3.162-3.483.49-7.051.3-10.26-.64-3.27-.982-6.155-2.763-8.17-5.414A39.01 39.01 0 01386 125"></path><path fill="#177D4A" d="M386 126c3.87 3.108 9.36 6.927 14.228 7.362 5.253.437 12.216-1.77 17.341-4.674.606 1.292 1.416 2.379 2.277 3.321.418 1.755-.053 2.834-.959 3.193-2.84 1.755-6.165 2.929-9.572 3.447-3.543.579-7.195.451-10.5-.455-3.36-.943-6.352-2.712-8.483-5.377A35.927 35.927 0 01386 126"></path><path fill="#1C824F" d="M386 126c3.682 2.83 8.834 6.275 13.432 6.737 4.945.46 11.423-1.416 16.241-3.955.791 1.13 1.799 2.042 2.865 2.8.669 1.47.552 2.322.027 2.53-2.74 1.731-5.968 2.909-9.296 3.466-3.482.621-7.09.567-10.379-.233-3.334-.833-6.328-2.45-8.502-4.925A30.849 30.849 0 01386 126"></path><path fill="#1C824F" d="M386 127c3.572 2.783 8.502 6.14 12.935 6.665 4.747.524 10.886-1.178 15.504-3.559.99 1.06 2.22 1.872 3.51 2.511.932 1.304 1.164 2 1.005 2.075-2.696 1.847-5.903 3.127-9.226 3.77-3.496.716-7.14.73-10.484-.032-3.379-.79-6.444-2.392-8.707-4.877A29.023 29.023 0 01386 127"></path><path fill="#218754" d="M386 127c3.425 2.504 8.081 5.49 12.302 6.032 4.498.544 10.233-.84 14.605-2.863 1.177.9 2.614 1.545 4.119 2.01 1.187 1.03 1.765 1.512 1.974 1.447-2.628 1.809-5.775 3.082-9.06 3.756-3.472.748-7.113.83-10.478.173-3.393-.682-6.492-2.133-8.824-4.42A25.28 25.28 0 01386 127"></path><path fill="#218754" d="M387 128c3.276 2.449 7.653 5.333 11.657 5.944 4.245.612 9.575-.579 13.693-2.43 1.363.825 3.006 1.358 4.72 1.69 1.436.852 2.356 1.162 2.93.951-2.553 1.933-5.64 3.316-8.882 4.081-3.444.85-7.08 1.005-10.459.394-3.398-.637-6.531-2.067-8.926-4.363A24.085 24.085 0 01387 128"></path><path fill="#248A57" d="M387 128c3.221 2.17 7.448 4.687 11.353 5.31 4.116.622 9.191-.267 13.177-1.773 1.595.671 3.495 1.048 5.472 1.218 1.737.593 3.034.704 3.998.369-2.558 1.877-5.675 3.24-8.97 4.028-3.52.871-7.259 1.087-10.755.574-3.511-.531-6.771-1.81-9.3-3.903-1.946-1.6-3.654-3.534-4.975-5.823"></path><path fill="#268C59" d="M387 129c3.07 2.106 7.016 4.507 10.702 5.2 3.861.696 8.524.02 12.257-1.294 1.782.585 3.887.842 6.077.868 1.988.396 3.63.322 4.964-.171-2.484 2.007-5.54 3.486-8.792 4.37-3.492.979-7.222 1.276-10.736.813-3.517-.478-6.809-1.733-9.402-3.83-1.995-1.606-3.738-3.583-5.07-5.956"></path><path fill="#298F5C" d="M387 129c2.921 1.83 6.589 3.873 10.058 4.57 3.61.695 7.865.297 11.346-.694 1.967.44 4.277.553 6.675.435 2.237.16 4.223-.09 5.921-.689-2.413 1.934-5.406 3.378-8.615 4.27-3.464.986-7.188 1.332-10.715.965-3.525-.38-6.848-1.482-9.506-3.373-2.042-1.447-3.82-3.267-5.164-5.484"></path><path fill="#2B915E" d="M388 130c2.772 1.757 6.165 3.67 9.42 4.443 3.361.772 7.212.605 10.444-.175 2.151.347 4.663.329 7.268.056 2.485-.056 4.808-.508 6.868-1.275-2.34 2.07-5.272 3.636-8.438 4.631-3.44 1.101-7.156 1.534-10.7 1.22-3.529-.32-6.885-1.394-9.605-3.284-2.09-1.45-3.902-3.312-5.257-5.616"></path><path fill="#2E9461" d="M388 130c2.625 1.673 5.747 3.439 8.79 4.295 3.112.858 6.566.944 9.55.4 2.335.241 5.046.081 7.856-.365a30.228 30.228 0 007.804-1.917c-2.268 2.218-5.14 3.915-8.264 5.024-3.412 1.226-7.122 1.754-10.679 1.501-3.539-.258-6.925-1.297-9.706-3.186-2.139-1.45-3.986-3.357-5.351-5.752"></path><path fill="#309663" d="M388 131c2.48 1.404 5.331 2.828 8.165 3.67 2.868.843 5.927 1.17 8.669.915 2.512.114 5.42-.17 8.432-.733a47.792 47.792 0 008.734-2.336c-2.198 2.117-5.011 3.754-8.092 4.85a28.166 28.166 0 01-10.66 1.606c-3.545-.167-6.965-1.056-9.805-2.73-2.187-1.289-4.067-3.025-5.443-5.242"></path><path fill="#396" d="M388 131c4.809 2.617 10.645 5.036 15.791 5.036 5.538 0 12.785-1.763 19.209-4.216-2.192 2.272-5.027 4.048-8.155 5.264a28.473 28.473 0 01-10.954 1.906c-3.658-.098-7.207-.947-10.195-2.615-2.3-1.284-4.268-3.063-5.696-5.375"></path><path fill="#F93" d="M401.735 61L412 65.174 422.267 61H428l-13.074 23.423L412.001 87l-9.122-8.035L396 61h5.735"></path><path fill="#FF9E3B" d="M400.477 61l11.524 4.771L423.524 61H428l-13.414 24.682L412 88l-8.915-7.996L396 61h4.477"></path><path fill="#FFA340" d="M399.2 61l12.801 5.198L424.802 61H428l-13.748 25.019-2.25 1.981-8.713-7.664L396 61h3.2"></path><path fill="#FFA647" d="M397.9 61l14.1 5.617L426.102 61H428l-14.077 25.341L412 88l-8.509-7.343L396 61h1.9"></path><path fill="#FFAB4F" d="M396.576 61L412 67.25 427.426 61H428l-14.402 26.598L412 89l-8.309-7.292L396 61h.576"></path><path fill="#FFB057" d="M396 62l16.042 6.387L428 62.033l-14.666 26.85L412.042 90l-8.2-7.074L396 62"></path><path fill="#FFB55E" d="M396 62l15.61 6.088L427 62.086l-14.427 26.1-.963.814-7.903-6.677L396 62"></path><path fill="#FFB866" d="M396 63l15.681 6.017L427 63.139l-14.652 26.305-.667.556-7.86-6.535L396 63"></path><path fill="#FFBD6B" d="M396 63l15.247 5.943L426 63.192l-14.401 26.51-.352.298-7.566-6.392L396 63"></path><path fill="#FFC273" d="M397 64l15.321 5.656L427 64.238l-14.628 25.72-.05.042-7.526-6.017L397 64"></path><path fill="#FFC47A" d="M397 65l14.885 5.602L426 65.289 411.79 91l-7.139-5.822L397 65"></path><path fill="#FFC982" d="M397 65l14.445 5.339L425 65.329 411.239 90l-6.738-5.396L397 65"></path><path fill="#FFCF87" d="M397 66l14.522 5.29L425 66.38 411.197 91l-6.578-5.192L397 66"></path><path fill="#FFD48F" d="M398 67l14.08 5.24L425 67.43 411.645 92l-6.18-4.985L398 67"></path><path fill="#FFD696" d="M398 67l14.16 4.985L425 67.464 411.596 91l-6.012-4.585L398 67"></path><path fill="#FFDB9E" d="M398 68l13.715 4.937L424 68.515 411.044 92l-5.619-4.382L398 68"></path><path fill="#FFE0A6" d="M398 68l13.268 4.685L423 68.542 410.493 91l-5.234-4.005L398 68"></path><path fill="#FFE3AB" d="M399 69l13.349 4.64L424 69.59 411.435 92l-5.054-3.804L399 69"></path><path fill="#FFE8B3" d="M399 70l12.899 4.592L423 70.639 410.883 93l-4.672-3.605L399 70"></path><path fill="#FFEDBA" d="M399 70l12.985 4.348L423 70.66 410.824 92l-4.487-3.254L399 70"></path><path fill="#FFF2C2" d="M399 71l12.53 4.301L422 71.706 410.27 93l-4.11-3.056L399 71"></path><path fill="#FFF5C7" d="M400 71l12.072 4.063L422 71.721 410.716 92l-3.74-2.728L400 71"></path><path fill="#FFF5C7" d="M400 73l11.737 3.986L421 73.84 409.883 94l-2.686-1.976L400 73"></path><path fill="#FCEDBF" d="M400 73l11.27 3.937 8.73-3.05L409.35 94l-2.375-1.798L400 73"></path><path fill="#FCE6B8" d="M400 74l11.365 3.707L420 74.89 409.284 94l-2.184-1.541L400 74"></path><path fill="#FADEB0" d="M401 75l10.893 3.66L420 75.935 409.753 95l-1.883-1.37L401 75"></path><path fill="#FAD4A8" d="M401 75l10.994 3.434L420 75.933 409.679 94l-1.677-1.135L401 75"></path><path fill="#F7CCA1" d="M401 76l10.516 3.388L419 76.976 409.148 95l-1.385-.968L401 76"></path><path fill="#F7C499" d="M401 76l10.622 3.343 7.378-2.32L409.067 95l-1.168-.796L401 76"></path><path fill="#F5BA91" d="M402 77l10.138 3.125L419 78.01 409.536 95l-.884-.591L402 77"></path><path fill="#F5B38A" d="M402 77l10.25 3.081 6.75-2.03L409.449 95l-.652-.426L402 77"></path><path fill="#F5AB82" d="M402 78l9.76 2.87 6.24-1.835L408.92 95l-.38-.242L402 78"></path><path fill="#F2A378" d="M402 79l9.261 2.828L417 80.075 408.395 96l-.123-.082L402 79"></path><path fill="#F29970" d="M402 79l9.38 2.803 5.62-1.68L408.352 96 402 79"></path><path fill="#F09169" d="M403 80l8.874 2.632 5.126-1.52L408.94 96 403 80"></path><path fill="#F08A61" d="M403 80l9.002 2.463L417 81.096 408.954 95 403 80"></path><path fill="#ED8259" d="M403 81l8.486 2.46L416 82.15 408.541 96 403 81"></path><path fill="#ED7852" d="M403 81l8.624 2.294L416 82.13 408.556 95 403 81"></path><path fill="#ED704A" d="M404 82l8.096 2.292L416 83.186 409.141 96 404 82"></path><path fill="#EB6942" d="M404 83l8.244 2.13 3.756-.97L409.155 96 404 83"></path><path fill="#E85E3B" d="M404 83l7.705 2.133L415 84.22 408.74 96 404 83"></path><path fill="#E85733" d="M404 84l7.866 1.974 3.134-.787L408.754 96 404 84"></path><path fill="#E84F29" d="M404 84l7.312 1.98 2.688-.727L408.337 96 404 84"></path><path fill="#E64521" d="M405 85l7.489 1.824 2.511-.611L409.353 96 405 85"></path></g></svg>