<svg xmlns="http://www.w3.org/2000/svg" viewBox="0.6701875925064087 0.7811965942382812 1347.951171875 402.8963623046875"><g fill="none"><path fill="#8EB053" d="M506.34 1.11c51.42 0 102.84.17 154.25-.17 8.92-.06 11.87 5.65 15.63 11.6 14.53 23 29.19 45.88 45.1 70.85 14.62-24.44 28.35-45.82 40.35-68.12C767.67 4.09 774.9.58 787.33.79c45.53.76 91.08.3 137.43 1.78-41.24 17.46-66.77 46.7-64.71 91.84 2 43.77 29.1 70.3 74.93 85H710.59c78.16-22 63-83 60.75-138.93-27.61 46.43-55.23 92.85-84.46 142l-91-147c-7.64 86.62 1.9 123.7 58.3 145.09H498.25c49.12-16.11 77.45-45.87 75.94-93.92-1.35-42.94-27.04-70.9-67.85-85.54z"></path><path fill="#434144" d="M615.85 357.37a460056.48 460056.48 0 0137.31-86.48c9-20.92 45.67-34.11 65.79-24 5.4 2.7 4.27 7.29 4.28 11.45.13 31.19-.18 62.39.22 93.59.12 9.37-3.62 12.27-12.47 12-7.62-.27-14.74-.26-13.12-10.81 1.8-11.65-5.22-12-13.62-11.66-8.4.34-16.56.31-24.83 0-6.5-.24-11.15 1.49-12.64 8.49-3 14.05-13.68 16.38-24.71 13.4-11.3-3.06-24.57 6.15-32.49-1.57-8.1-7.88-2.09-21.69-3.15-32.84-1.54-16.06-13.9-8.87-22-10.26-7.82-1.32-13.84.11-12.72 10.62.74 6.93-.29 14 .24 21 .7 9.3-1.68 14-12.42 13.78-9.69-.21-13.56-2.89-13.38-13.12.52-30.547.52-61.103 0-91.67-.17-10.05 3.23-13.41 13.18-13 17.17.65 34.39.53 51.57.08 14.93-.4 21 6.76 19.93 21-2.18 29.61-1.36 59.25 5.03 90zm46.2-43.07c37.18 4.3 37.3 4.27 35.63-29.89-.22-4.45 2.8-11.13-5-12.23-6.42-.91-12.63-.39-15.7 7.26-4.41 11.07-9.35 21.94-14.93 34.86zm-92.58-21.22c5.78-1.56 16.63 3.46 16.88-10.33.28-15.42-11.56-10.18-19.3-10.68-6.87-.45-15.29-3.19-15.59 9.88-.32 14.43 9.1 10.43 18.01 11.13z"></path><path fill="#8EB053" d="M672.55 403H24.26c-5.1 0-10.21.12-15.3-.1-3-.13-6.88.51-7.28-4-.48-5.28 3.44-6.06 7.44-6.21 4.46-.16 8.93-.11 13.39-.11 434.74 0 869.487.103 1304.24.31 6.79 0 19.82-6.24 19.652 6.16-.092 7.39-12.892 3.71-19.822 3.72-218.007.26-436.017.337-654.03.23zM486.44 166.401c-43.78.209-76.44-31.771-76.681-75.091-.239-42.9 33.001-77.12 75.251-77.53 41.59-.41 76.65 34.09 77.39 76.14.74 42.24-33.06 76.31-75.96 76.481zM468.26 97.23c14 4.67 15.47 8.77 2 17.1-13.47 8.33-14.45 25.62-4.54 36.52 9.91 10.9 27.6 10.84 37.46.16 10.36-11.21 9.77-27.8-4.25-36.29-17.21-10.42-8.81-14.34 4.16-18-12.52-10.72-23.45-16.07-34.83.51zm13.52-57.1c-5.45-5.74-9.9-4-12.54 1.49-2.56 5.33.41 9 3.35 14.36 9.77 17.77 32.21 20.24 41.71 37.54 2.21 4 1.47 15.17 11.93 7.33 7-5.24 10.33-10 3.78-18.45-7.77-9.94-13.91-21.16-21.62-31.15-6.55-8.47-11.8-21.75-26.61-11.09v-.03z"></path><path fill="#434144" d="M807.1 305.76c9-12.73 10.55-26.14 15.28-38.17 7.07-18 35.47-29.4 52.32-20.79 5.46 2.78 3.84 7.54 3.87 11.59.18 31.19-.16 62.4.26 93.59.13 9.32-3.38 11.92-12.3 12-9.4 0-13.88-2-13.62-12.63a704.92 704.92 0 00-2-77.33c-12.94 19.53-17.17 41.86-25.11 62.73a125.79 125.79 0 00-5.43 16.24c-1.65 7.17-4.88 11.09-13 10.86-7.4-.21-9.36-4.52-11.26-10.46-7-21.74-14.5-43.3-21.52-65-1.9-5.86-3.29-11.71-12-17.62v78.32c0 7.58 1.74 15.05-10.79 15-11.27 0-14-4-13.78-14.48.56-29.91.64-59.86 0-89.77-.25-11.07 3.67-13.67 14.2-13.75 32-.23 34.91 1.37 45 31.54 2.96 8.75 6.13 17.44 9.88 28.13zM25.25 271.75v75.93c0 8.2 1.83 16-11.68 16.47-14.82.48-12.72-8.24-12.71-17.08 0-29.32.38-58.64-.18-88-.2-9.87 2.61-12.89 12.8-13.07 32.71-.59 35.65 1.21 46.59 32.29 3.05 8.66 3.44 18.71 11.77 26.68 4.68-13.45 8.86-25.86 13.31-38.17 6.25-17.26 37.47-28.85 52.72-19.76 4.91 2.93 3.65 7.68 3.66 11.89.11 30.59-.26 61.19.25 91.77.17 10.1-3.45 13.1-13.28 13.25-10 .16-13.26-2.93-13-13 .63-25.69.21-51.4.21-79.65-10.12 6.27-10.56 14.21-12.82 21-6.45 19.28-12.5 38.7-19.17 57.9-2.11 6.11-2.48 13.86-12.81 13.72-9.68-.12-11.08-6.22-13.25-13.14-6.1-19.39-12.24-38.79-19.1-57.92-2.39-6.63-2.48-15.01-13.31-21.11z"></path><path fill="#8EB053" d="M1.98 209.3H1347.6c-8.88 7.93-1314.68 11.53-1345.62 0z"></path><path fill="#434144" d="M426.79 303.72c0-12.07.15-24.15 0-36.22-.23-13.91 5.51-21.52 20.3-21.23 15.87.32 31.76.15 47.65 0 12.62-.08 18.77 6.26 18.81 18.65.07 26.68 0 53.37 0 80 0 11.7-6.32 18-17.36 18.41-17.13.65-34.31.52-51.45.12-12.43-.29-18-7.6-17.95-19.8.13-13.25 0-26.59 0-39.93zm25.51.49c0 7 .79 14.14-.16 21-2 14.55 7.45 13.56 16.56 12.87 8.41-.63 20.44 4.71 19.46-12.18-.8-14 0-28.05-.23-42.07-.07-4.74 1.22-9.8-6.06-11.93-19.63-5.75-29.55.9-29.57 20.82-.01 3.84 0 7.67 0 11.51v-.02zm797.62.89c0 12.73-.46 25.49.13 38.2.65 13.86-6 20.12-19.14 20.32-15.28.24-30.57.17-45.85 0-13.77-.13-21.11-6.32-20.85-21.06.44-25.46.29-50.94.06-76.42-.12-13.46 5.87-20.05 19.5-19.88 15.92.21 31.85.18 47.77 0 12.72-.12 18.68 5.88 18.43 18.66-.29 13.43-.05 26.8-.05 40.18zm-24.38 1c0-8.27.05-16.54 0-24.81 0-3.69.3-7.11-4.55-9.09-17-6.95-30.68 1.44-30.72 19.36 0 12.08-.09 24.17.07 36.25.05 4.2-.78 8.39 5.47 10.36 19 6 29.75-1.16 29.78-20.62-.06-3.86-.06-7.67-.08-11.49l.03.04zm77.24 57.6c-7 0-14-.28-21 .07-9 .46-15.41.29-15.79-12.36-.41-14 6.88-13.71 16.56-13.32 10.17.41 20.38-.11 30.56.14 6.75.17 10.64-1.54 10.84-9.39.22-8.27-3-11.76-11.07-11.05-1.27.12-2.56-.09-3.82 0-50.58 3.9-44.31-6.76-43.79-53.63.13-11.9 7.46-18.18 20.06-17.91 16.55.35 33.13.51 49.67-.09 9.31-.34 13.55 1.49 13.62 12.28.08 11.36-4.1 14.33-14.46 13.55-9.5-.71-19.1-.18-28.65-.13-7.48 0-15.25-1.81-15 10.82.21 11.71 7.44 9.7 14 9.51 51.26-1.5 43.24 2 43.65 45.07.22 23.45-2.82 26.25-26.27 26.43-6.37.05-12.74.01-19.11.01zm-979.33-59.84c0-14.67.37-29.35-.14-44-.32-9.22 1.66-13.7 12.44-13.91 11.71-.22 14.52 4.65 13.25 14.72a45.78 45.78 0 000 5.74c.07 21.42 12.24 29.46 33.37 22.67 4.93-1.59 5.38-4.51 5.42-8.39.06-7 .49-14.06-.06-21-.74-9.38 1.7-13.69 12.43-13.68 11.12 0 14.26 4 14.08 14.55a2657.59 2657.59 0 000 89.91c.15 9.63-2.36 13.47-12.76 13.6-11.16.14-15-3.84-13.73-14.46.53-4.4-.53-9 .2-13.36 2.91-17.29-4-21.19-21.19-21.94-25.5-1.1-15.95 15.71-17.82 27.39-1.44 9 6.49 23.4-13.32 22.29-9-.51-12.55-3.09-12.27-12.27.46-15.96.1-31.91.1-47.86zm664.81.96c0-15.93.35-31.86-.15-47.78-.26-8.37 2.74-11.31 11-10.84 10.16.58 20.37.13 30.57.14 35 0 37.28 1.64 45.64 34.76a9229.005 9229.005 0 0117 68.41c1.14 4.76 7.2 12.21-2.12 13.47-7.35 1-18.3 6.09-21.79-7.76-5.73-22.78-13.56-45.15-17.67-68.2-3.3-18.53-15.5-14.95-27.13-15.1-14.78-.2-9 11.24-9.19 18a968.948 968.948 0 00-.07 61.15c.33 10.45-4.11 12.64-13.57 12.95-10.46.34-13.1-3.65-12.69-13.32.64-15.28.16-30.59.17-45.88zm-833.91-3.59c0-14.63.32-29.27-.12-43.89-.24-8.11 2.49-11.37 10.92-11.17 18.43.46 36.91.66 55.33-.05 11-.43 10.05 6.06 10.38 13.35.38 8.48-1.56 13.23-11.42 12.5-9.49-.7-19.09.24-28.6-.25-8.14-.42-11.31 2.4-11.16 10.85.14 7.54 3 10 10.15 9.78 8.89-.23 17.83 1 26.68.42 10.18-.67 14.47 1.84 14.65 13.38.21 12.8-6.33 12.83-15.37 12.39-8.25-.4-16.56.28-24.8-.18-7.84-.45-11.58 1.7-11.3 10.49.25 7.86 3.77 9.62 10.59 9.37 8.9-.32 17.83.26 26.71-.16 8.57-.4 14.31.17 14.1 11.69-.19 10.52-2.72 14.87-13.89 14.13-13.3-.88-26.71-.52-40.06-.13-15.72.47-23.89-5.62-22.94-22.45.72-13.29.15-26.68.15-40.07zm742.05 1.37c0-12.12 1-24.34-.25-36.33-1.61-15.26 2.34-22.23 19.22-20.24 13.21 1.55 26.75.21 40.14.34 8.43.09 17.57-3 17.74 12.16.18 16-9.46 13.27-18.73 13.32-7.66 0-15.33.35-23 0-8.33-.43-11 3.21-10.91 11.29.12 7.57 3.32 10.08 10.38 9.88 8.92-.25 17.87.33 26.77-.11 9.44-.47 15.35.55 15.4 12.88.05 12.33-5.79 13.71-15.25 12.76-1.89-.19-4-.57-5.7.07-10.24 3.92-29.75-9.76-30.32 9.32-.62 20.78 19.5 5.92 29.41 10.15 2.16.92 5.06.31 7.59.1 8.66-.72 14.24.43 14.22 11.83 0 11.12-3.82 14.44-14.42 13.9-14-.72-28-.07-42.08-.23-13.62-.15-21.47-5.53-20.43-20.88.94-13.38.22-26.82.22-40.21zm210.89 14.88c0-8.89-.35-17.8.08-26.68.55-11.49 1.1-21.86-15.94-19.17-10.12 1.59-8.47-6.84-8.65-12.93-.2-6.46-.81-12.8 9.23-12.49 16.51.51 33 .11 49.56.13 7.46 0 15.54-1.93 15.15 10.65-.29 9.49-.92 16.62-13 14.89-10.18-1.45-11.08 4.7-11 12.69.3 22.24-.33 44.49.28 66.72.3 10.63-4.48 12.63-13.76 12.64-9 0-12.54-3-12.07-12.14.56-11.41.12-22.87.12-34.31zm-861.48-15.45c0-12.75-.28-25.51.1-38.24.24-7.91-4.13-17.84 11.57-17.94 14.66-.1 12.72 8.29 12.7 17.11 0 20.4.5 40.81-.21 61.18-.36 10.46 2.36 15.41 13.61 14.18 6.93-.75 14.05.38 21-.26 10.12-.92 14.77 1.68 14.54 13.26-.22 10.5-4.06 12.65-13.57 12.54-70.89-.75-58.73 6.94-59.75-58-.01-1.28.01-2.56.01-3.83z"></path></g></svg>