<svg xmlns="http://www.w3.org/2000/svg" viewBox="-0.030012130737304688 0.17956514656543732 1041.8763427734375 299.9062805175781"><g fill="none"><path fill="#479A42" d="M131.25 122.97c14.84-24.7 29.673-49.4 44.5-74.1 7.753-12.9 15.49-25.807 23.21-38.72a19.28 19.28 0 015.67-6.48c10-6.7 19.75-2.78 22 8.93a37.68 37.68 0 01.592 7c-.112 29.25-.312 58.49-.402 87.74a14.42 14.42 0 01-2 7.73c-3.86 6.35-7.6 12.77-11.41 19.15-1.66 2.78-11.09 5-13.5 3.14-1.52-1.19-.79-3.06-.8-4.61-.04-21.807-.04-43.617 0-65.43v-5.71c-2 .87-2.43 2.51-3.16 3.79a40896.608 40896.608 0 00-59.26 103.34c-3.27 5.73-7.16 10.56-14.26 11.3-11.79 1.23-20.44-7.41-20.46-20.53a26214.96 26214.96 0 010-91.59v-6.41c-2.36.84-2.76 2.89-3.64 4.44a56355.663 56355.663 0 00-62.62 109.62c-2 3.45-4 4.86-8 4.71-8.89-.32-17.79-.1-27.74-.1 4.42-7.45 8.4-14.25 12.45-21 29.673-49.413 59.34-98.82 89-148.22 3.5-5.84 8.09-9.64 15.06-10.2 6.35-.5 11 2.64 12.54 8.83a40.14 40.14 0 011.22 9.69c-.08 32.713-.097 65.423-.05 98.13v5.33l1.06.23zm743.5-32.14c-.33-19.88 3.53-36.86 12.82-52.26 14.71-24.37 37.06-35.89 65-37.23 19.84-1 38.7 2.49 55.19 14.4 19.38 14 29.35 33.72 32.72 56.79 3.68 25.16-.12 49.29-14.18 70.86-18 27.68-44.24 38.63-76.84 36.2-39.66-3-67.22-34.29-73.46-72.85-.97-5.95-.76-11.93-1.25-15.91zm138.92.62a85.358 85.358 0 00-1.16-14.13c-6.65-40.18-55.4-59.65-87.81-34.84-16.59 12.71-22.89 30.46-22.22 50.7 1.6 48 42.84 65.78 79.41 51.17 23.14-9.23 31.14-29.32 31.78-52.9zm-209.64 30.36l49.23 58.16H816c-2 0-2.89-1.39-3.89-2.56-13.9-16.3-27.76-32.633-41.58-49-4.4-5.24-7.9-11-6.39-18.3 1.51-7.3 5.64-10.79 13.62-11.92 8.24-1.16 16.56-1.8 24.52-4.51 20.21-6.88 29-28.19 19.08-47.12-6-11.41-16.76-14.12-28.53-14.29-8.72-.14-17.46.25-26.16-.14-4.57-.21-5.27 1.54-5.25 5.57.12 45.06.147 90.12.08 135.18 0 7 0 7-7.28 7-5.64 0-11.27-.13-16.9.06-2.91.1-4.11-.53-4.1-3.81.087-57.053.087-114.103 0-171.15 0-3.23 1.13-3.86 4.06-3.85 19.45.12 38.89-.19 58.33.11 35.78.56 60.52 28.94 58 64.51-1.73 25.99-16.44 49.47-49.58 56.06zM543.86 1.29c9.45 0 18.9.11 28.34-.06 3-.06 4.13.69 4 3.89-.23 7.26-.31 14.54 0 21.8.18 4.15-.87 5.56-5.3 5.49-18-.27-36-.25-53.95-.06-13.59.13-21.34 9.25-19.36 22.27 1.27 8.796 8.793 15.332 17.68 15.36 9.77.23 19.68-1 29.27 1.54 18.93 5.07 30.39 17.79 35 36.46 5.26 21.35 2.34 41.09-14 57.24-10.51 10.39-23.76 14.41-38.13 14.68-17.43.34-34.88 0-52.32.15-3.29 0-4.87-.46-4.7-4.34.33-7.43.33-14.9 0-22.34-.17-3.79 1.26-4.49 4.65-4.46 16.353.14 32.703.14 49.05 0 6.53 0 13-.47 19-3.6 9.67-5.06 14.55-12.83 13.49-23.87-1-9.88-6.86-16.07-15.59-19.87-5.76-2.51-11.95-2.68-18.12-2.78-6.7-.1-13.47.53-20-1.15-19.81-5.05-31.2-18.47-34.18-38-4.35-28.57 10.36-50.34 36.11-56.75a57.55 57.55 0 0112.35-1.58c8.88-.18 17.81-.02 26.71-.02zM284.03 137.65c4.93-8.63 9.44-16.62 14.06-24.54 1.81-3.09 4.95-1.41 7.48-1.61 2.35-.18 4.14-.06 4.11-3.36-.15-15.08-.08-30.16-.12-45.24a10.1 10.1 0 00-.91-2.25c-5.61 9.81-10.85 19-16.09 28.17-16.53 28.92-33.16 57.79-49.53 86.79-1.86 3.29-3.82 4.58-7.61 4.46-9.05-.28-18.12-.09-28.17-.09l13.35-22.24A186950.37 186950.37 0 00309 10.38c3.63-6.06 8.31-9.94 15.52-10.19 7.21-.25 11.79 4 12.78 11.88a38.09 38.09 0 01.13 4.9c0 52.51-.06 105 .11 157.52 0 4.58-1.15 5.95-5.69 5.62a142.76 142.76 0 00-17.43 0c-3.75.2-5-.87-4.9-4.77.26-10.71-.07-21.44.17-32.15.1-4.11-.84-5.87-5.37-5.59-6.46.35-12.97.05-20.29.05zm83.5-47.42c0-28 .1-56-.1-83.95 0-4.17 1.19-5.11 5.19-5.08 22.72.193 45.433.193 68.14 0 4.12 0 5.33 1.07 5.13 5.16-.34 7.07-.26 14.17 0 21.25.12 3.53-1 4.7-4.57 4.65-13.63-.19-27.26 0-40.89-.15-3.87-.06-5.42.75-5.28 5.06.33 10.71.27 21.44 0 32.16-.09 3.68 1.13 4.65 4.62 4.6 11.44-.16 22.89.1 34.34-.15 3.82-.08 5 1 4.83 4.84-.29 7.08-.38 14.19 0 21.26.25 4.33-1.37 5-5.24 5-11.44-.25-22.9.05-34.34-.17-3.42-.07-4.27 1-4.22 4.29.2 12 .2 24 0 36-.06 3.5 1.25 4.26 4.42 4.23 14.18-.12 28.35.08 42.52-.13 3.85-.06 5 1.1 4.88 4.91-.28 7.44-.18 14.9 0 22.35.06 2.8-.82 3.77-3.7 3.75-24-.09-48-.13-72 0-4 0-3.76-2.1-3.76-4.78.04-28.393.05-56.76.03-85.1zm303.99 16.23c0 22.89-.08 45.79.08 68.68 0 3.71-.85 5.13-4.78 4.93-6.16-.32-12.36-.29-18.53 0-3.57.16-4.57-1-4.55-4.53.16-21.62.08-43.24.08-64.86 0-24.35-.09-48.7.09-73.05 0-4.17-.92-5.68-5.34-5.55-10.53.32-21.08-.05-31.61.18-3.62.08-4.68-1-4.56-4.59.24-7.44.19-14.9 0-22.34-.06-2.92.55-4.11 3.82-4.1 34.16.12 68.32.12 102.48 0 3.06 0 4.1.82 4 4-.2 7.62-.25 15.27 0 22.89.13 3.55-1.28 4.2-4.43 4.15-10.35-.16-20.72.15-31.06-.16-4.47-.13-5.89 1.08-5.84 5.71.28 22.85.15 45.75.15 68.64z"></path><path fill="#086F38" d="M809.52 300.05c-24.28-.07-42.07-17.72-42-41.65.07-23.42 18.74-41.43 42.74-41.21 24 .22 42.55 18.38 42.48 41.65-.07 23.61-18.62 41.29-43.22 41.21zm.21-10.89c17.41 0 31.18-13.24 31.28-30.1-.032-16.991-13.71-30.803-30.7-31-17-.1-31.1 13.63-31.21 30.41a30.2 30.2 0 0030.63 30.69zm-41.89 9.96c-4.61 0-8.2-.07-11.78 0-2.34.06-3-1.77-3.93-3.24-5.44-8.34-11.08-16.57-16.2-25.1-4.61-7.68-11.61-8.35-19.35-7.86-3 .18-2.29 2.28-2.3 3.91 0 9.44-.29 18.9.08 28.33.21 5.58-3.52 3.74-6.15 3.89-2.63.15-5.6 1.15-5.55-3.88.27-24.33.17-48.66.06-73 0-3 .64-4.17 3.85-4 9 .51 18.15-.8 27.15 1 8.75 1.75 15.61 5.88 18 15.08 2.39 9.2.36 17.32-7.77 23-2.63 1.84-2.36 3-.69 5.44 8.16 11.82 16.03 23.72 24.58 36.43zm-53.58-58.49c0 14.22 0 14.18 14.63 11.73 2.9-.48 5.65-1.12 8-3a11 11 0 00-1.55-18.3 19.46 19.46 0 00-7.77-2.16c-13.32-1.43-13.31-1.45-13.31 11.73zm190.08 58.5c12.18-26.49 24-52.1 35.69-77.79 1.17-2.58 2.55-3.37 5.27-3.44 2.72-.07 3.77 1.3 4.74 3.43 11.67 25.66 23.4 51.31 35.25 77.26-3.37 1-6.62.32-9.8.53-2.48.16-2.75-1.88-3.47-3.48-2.92-6.42-5.89-12.81-8.72-19.27-1.06-2.43-2.46-3.56-5.32-3.49-8.54.21-17.08.23-25.61 0-3.08-.09-4.63 1.09-5.76 3.73-2.26 5.33-5.06 10.45-7 15.9-1.94 5.45-5.18 7.73-10.86 6.65a27.58 27.58 0 00-4.41-.03zm52.69-36.25l-12-26.21c-3.91 8.53-7.36 16-10.74 23.48-1 2.21.12 2.78 2.24 2.76 6.5-.08 12.98-.03 20.5-.03zm81.37-27.33c-4.18-2.11-7.8-4.13-11.58-5.79-4.84-2.13-9.79-2.51-14.66.1a10.84 10.84 0 00-6.25 9.49 9.22 9.22 0 005.86 9.52c4.28 2 8.57 3.87 13 5.54 17 6.43 19.09 19.15 15.72 30.11-3.71 12.06-17.46 18.2-31.3 14.49-1-.28-2.09-.58-3.1-1-11.28-4.25-11.57-4.74-10.81-19 4.09 2.61 8 5.17 11.91 7.57a18.3 18.3 0 0011.47 2.56c5.23-.49 9.94-4.3 11.09-9.07 1.39-5.75-.57-10.13-5.86-13.32-4.55-2.73-9.68-4-14.49-6.12-12.86-5.57-17.74-14.65-14.39-26.71 3-10.8 15.46-18.22 27.46-16.34.72.11 1.44.24 2.15.36 13.21 2.21 14.57 3.89 13.78 17.61zm-391.5 22.92c0-12 .1-24-.07-36 0-3.18.56-4.4 4.11-4.32 12.16.24 24.34.31 36.5 0 4.49-.12 3.93 2.34 3.94 5.1 0 3 .58 5.72-4.18 5.5-8-.38-16 .18-24-.22-4.52-.22-5.58 1.41-5.25 5.52a79.29 79.29 0 010 12.52c-.33 4.1.69 5.78 5.23 5.5 6.88-.43 13.82.2 20.7-.22 4.7-.29 3.73 2.6 3.73 5.15 0 2.55 1 5.45-3.73 5.15-6.88-.45-13.82.19-20.7-.23-4.53-.28-5.37 1.46-5.24 5.51.27 8.53-.22 17.09.2 25.61.24 4.9-1.11 6.23-6.11 6.29-5 .06-5.33-2-5.26-6 .26-11.59.13-23.24.13-34.86zm244.41 5.67c0 10.16-.39 20.34.15 30.47.31 5.66-3 4.28-6.07 4.56-3.65.34-5.34-.25-5.27-4.76.31-20.13 0-40.27.24-60.41 0-4.33-1.18-5.63-5.43-5.42-6.52.32-13.07-.13-19.59.15-4.92.21-3.3-3.19-3.37-5.51-.07-2.32-1.24-5.07 3.25-5 20.307.187 40.623.187 60.95 0 4.88-.06 3.34 3 3.45 5.39.13 2.6.92 5.47-3.76 5.19-6.87-.41-13.79.05-20.68-.17-3.12-.1-4 .92-3.93 4 .17 10.46.06 20.99.06 31.51z"></path></g></svg>