<svg xmlns="http://www.w3.org/2000/svg" viewBox="0 0.466381311416626 191.00509643554688 73.81686401367188"><path fill="#326141" d="M75.5.6C48 1.7 1.2 7.3.3 9.7c-.9 2.3.3 2.6 6.9 1.4 28-4.8 69.8-8 107.3-8.2 20.6-.1 29.5-.5 25-.9-8.6-.9-51.6-1.9-64-1.4zM27.1 20c-9.7 2.3-15.2 12.1-12.5 22.5 2.2 9 11.2 13.5 23.4 11.8l5.5-.8.5-8.8c.3-4.9.3-9.1.1-9.3-.2-.2-3.3-.4-6.8-.4-5.6 0-6.3.2-6.3 1.9 0 1.6.8 2 3.8 2.3 3.6.3 3.7.4 4 4.7.4 5.3-.4 6.2-5.5 6.3-7.8.1-13.3-5.4-13.3-13.4 0-3.9 2.9-9 6.5-11.4 2.6-1.7 10.4-2.2 14.3-.9 1.8.5 2.2.2 2.2-1.8 0-2.1-.6-2.5-4.6-3.1-5.5-.7-6.8-.7-11.3.4zm114.2.2c-14.5 3.2-18 24.5-5.3 31.7 3 1.7 4 2.8 4 4.8 0 2.3.3 2.5 3.2 1.9 5.6-1.1 11.8-4.6 11.8-6.7 0-1.6-.8-1.8-6.1-1.8-6.7.1-10.3-1.7-12.6-6.2-1.5-2.8-1.7-9.8-.4-13.2 2-5.3 10.4-8.4 16.9-6.3 1.9.6 2.2.4 2.2-1.7 0-2-.6-2.5-3.7-3.1-4.4-.7-4.5-.7-10 .6zM0 37v17h6V20H0zm53.1-5.3c0 13.2 1.1 17.7 5.1 20.6 3.3 2.4 12.7 2.9 17.6.8C81.1 50.9 82 47.9 82 33V20h-6v12.4c0 11-.2 12.6-2.1 15-2.6 3.3-8.8 3.7-11.9.6-2.1-2.1-2.4-4.2-2.5-18.5v-9l-3.2-.3-3.3-.3.1 11.8zm48.6-10.5c-.3.7-3.2 8-6.6 16.2-3.4 8.2-6.1 15.3-6.1 15.7 0 .5 1.2.9 2.8.9 2.2 0 3-.7 4.4-4l1.7-4h15.8l1.6 4c1.3 3.5 1.9 4 4.7 4 3.9 0 4.2 1.5-4.1-18.8L109.6 20h-3.7c-2 0-3.9.6-4.2 1.2zm7.2 12.4c1.3 3.6 2 6.8 1.7 7.1-.7.7-9.5.8-10.1.1-.6-.6 4.5-13.8 5.4-13.8.3 0 1.7 3 3 6.6zm53.1-1.2c0 6.7.5 13.7 1.1 15.5 1.5 4.4 6 6.5 13.6 6.5 11.7-.1 14.3-4.1 14.3-22.4V20h-6v9.7c-.1 16.3-1.8 20.5-8.6 20.5-2.9 0-4.4-.6-6.1-2.7-2.1-2.4-2.3-3.5-2.3-15.1V20h-6v12.4zm4 32.6c-11.3 1.6-27.5 3.4-36 4.1-16.4 1.4-72.3 1.8-92.5.8l-12-.7 9.5 1.3c41.4 5.8 102.6 4.8 143-2.1 13-2.2 13-2.2 13-4.4 0-2.5 1-2.5-25 1z"></path></svg>