<svg xmlns="http://www.w3.org/2000/svg" viewBox="0 0 562.8999633789062 93.10000610351562"><g fill="#35745F"><path d="M25.4 7l-4.9 7H0v26h5.7l7.4 26.2 7.5 26.3 14.7.3 14.8.3-.3-14.3-.3-14.2-4.6.2c-2.9.2-4.9-.2-5.6-1-.5-.7-2.7-5.7-4.8-11l-3.8-9.7 13.2-20.6C51.1 11.1 57 1.4 57 .9S51 0 43.7 0H30.3l-4.9 7z"></path><path d="M79.5 7l-4.8 7H54v26h3c2.5 0 3.1.5 3.9 3.7.6 2.1 3.9 13.9 7.4 26.3l6.4 22.5 14.6.3 14.7.3V65h-4.9c-2.7 0-5.3-.6-5.8-1.3-.6-.6-2.7-5.6-4.7-10.9l-3.7-9.7 12.8-20.3c7.1-11.2 13.3-20.9 13.7-21.6.6-.9-2.3-1.2-13.2-1.2H84.3l-4.8 7z"></path><path d="M138.4.7c-.5.5-3 3.6-5.3 7l-4.4 6.3H108v26h2.9c2 0 3.1.6 3.5 1.7.3 1 2.8 9.9 5.6 19.8s6 21 7.1 24.7l2 6.8H158V65.1l-5.2-.3-5.3-.3-4.3-10.7-4.3-10.6 12.6-19.7c6.9-10.9 13-20.6 13.5-21.5.9-1.7.1-1.8-12.3-1.9-7.2-.1-13.7.2-14.3.6zm47.9 28.1l-12.3.3V93h16V71.5c0-11.8.3-21.5.8-21.5.4 0 2.9 5.1 5.6 11.2 2.7 6.2 7.1 15.9 9.7 21.5l4.8 10.3h19.2l10.1-21c5.6-11.6 10.4-21 10.8-21 .4 0 .7 8.7.8 19.2.1 10.6.1 20.1.2 21.1 0 1.6.8 1.8 7.3 1.5l7.2-.3V28.9l-12.6-.2-12.7-.2-9.8 19.8c-5.5 10.9-10.2 20.1-10.6 20.3-.4.2-4.6-7.1-9.4-16.3-4.8-9.3-9.6-18.4-10.8-20.3l-2.1-3.5-12.2.3zm240.1 1.1c-12.7 1-14.4 3.5-14.4 20.5 0 10.8.1 11.6 2.6 14.5 1.4 1.7 4.2 3.5 6.2 4.1 2 .5 13 1 24.5 1H466v6h-18.5c-11.7 0-18.5-.4-18.5-1s-3.5-1-8.5-1H412v6.8c0 5.5.4 7.2 1.9 8.6 3.2 2.9 14 3.8 38.8 3.4 29.4-.6 27.7.5 28.1-16.7l.4-11.9-3-3.3-3-3.4-23.1-.3-23.1-.3V47h34v2.5c0 2.5.1 2.5 9 2.5h9v-6c0-7.2-1.9-12.2-5.5-14.6-2.2-1.4-5.6-1.7-21.8-2-10.6-.1-22.9.1-27.3.5zM389 61.5V93h16V30h-16zm119.1-21.3c-2.7 5.7-9.4 19.6-15 31-5.5 11.4-10.1 20.9-10.1 21.3 0 .3 4.4.5 9.9.5h9.8l9.6-19.5c5.3-10.7 10-19.5 10.4-19.5.6 0 7.4 11.4 9.1 15.2.2.5-3.2.8-7.5.8h-7.9l-3.1 7.5-3.1 7.5h30.6l1.6 4 1.6 4h18.9l-8.3-17.3c-4.5-9.4-11.3-23.6-15.1-31.5L532.7 30H513l-4.9 10.2zM276 62v31h60V76l-22.7-.2-22.8-.3v-7l16.8-.3L324 68V53h-34.1l.3-2.8.3-2.7 14.3-.3 14.2-.3V31h-43z"></path><path d="M325 39v8h23v46h16V49h19V31h-58z"></path></g></svg>