<svg xmlns="http://www.w3.org/2000/svg" viewBox="56.16999816894531 74 488.487060546875 101.39402770996094"><g fill="none"><g fill="#951914"><path d="M72.557 100.527c0 6.181 5.094 11.16 11.462 11.16H95.48v-11.16c0-6.18-5.094-11.246-11.462-11.246-6.283 0-11.462 4.98-11.462 11.246zm22.924 18.887v-2.575H84.02c-9.255 0-16.727-7.383-16.727-16.312 0-9.014 7.472-16.397 16.727-16.397 9.17 0 16.641 7.297 16.641 16.397v37.774c0 9.014-7.471 16.397-16.641 16.397-9.255 0-16.727-7.297-16.727-16.397 0-9.014 7.472-16.311 16.727-16.311h11.46v-2.576zm-22.924 18.887c0 6.181 5.094 11.246 11.462 11.246 6.283 0 11.462-4.98 11.462-11.246v-11.16H84.02c-6.283 0-11.462 4.979-11.462 11.16z"></path><path d="M72.642 119.414c-6.538 3.778-10.953 10.817-10.953 18.801 0 12.019 9.934 21.806 22.075 21.806 6.453 0 12.311-2.747 16.302-7.126 0 6.181-6.877 11.933-16.302 11.933-15.283 0-27.594-11.503-27.594-26.613 0-7.297 2.887-13.907 7.641-18.8-4.754-4.894-7.641-11.505-7.641-18.802C56.17 85.59 68.48 74 83.764 74c9.51.086 16.387 5.838 16.387 12.019-4.076-4.378-9.85-7.126-16.302-7.126-12.226 0-22.075 9.787-22.075 21.806-.085 7.898 4.33 14.938 10.868 18.715z"></path></g><g fill="#951914"><path d="M135.528 138.3c0-6.18-5.094-11.16-11.462-11.16h-11.462v11.161c0 6.181 5.094 11.246 11.462 11.246 6.283 0 11.462-5.065 11.462-11.246zm-22.924-18.886v2.576h11.462c9.255 0 16.726 7.383 16.726 16.31 0 9.015-7.471 16.398-16.726 16.398-9.17 0-16.641-7.297-16.641-16.397v-37.774c0-9.014 7.471-16.397 16.641-16.397 9.255 0 16.726 7.297 16.726 16.397 0 9.015-7.471 16.312-16.726 16.312h-11.462v2.575zm22.924-18.887c0-6.18-5.094-11.246-11.462-11.246-6.283 0-11.462 4.98-11.462 11.246v11.16h11.462c6.283 0 11.462-4.979 11.462-11.16z"></path><path d="M144.274 119.414c4.754 4.894 7.641 11.504 7.641 18.801 0 15.024-12.311 26.613-27.594 26.613-9.425 0-16.302-5.752-16.302-11.933 4.075 4.379 9.849 7.126 16.302 7.126 12.226 0 22.075-9.787 22.075-21.806 0-7.984-4.415-15.023-10.953-18.8 6.538-3.778 10.953-10.818 10.953-18.802 0-12.019-9.934-21.805-22.075-21.805-6.453 0-12.312 2.747-16.302 7.125 0-6.181 6.877-11.933 16.302-11.933 15.283 0 27.594 11.504 27.594 26.613 0 7.297-2.972 13.908-7.641 18.801z"></path></g><path fill="#1D1D1B" d="M286.247 142.856c0 3.98.258 9.173 1.291 11.596l-5.767 3.721-2.84-2.336-1.206-.26c-2.496.26-6.37 2.942-14.892 2.942-7.575 0-16.096-5.452-16.096-12.634v-40.5h10.673v38.769c0 1.558.43 7.442 8.35 7.442 4.562 0 7.661-.346 10.157-2.856v-43.355h10.416v37.47h-.086zm14.117-46.126c0-2.595-1.291-6.663-1.291-6.663l11.965-2.336v69.317h-10.674V96.731zm136.607 0c0-2.595-1.291-6.663-1.291-6.663l11.965-2.336v69.317H436.97V96.731zm-98.905-5.624v15.057h11.88l-.431 6.145h-11.449v29.942c0 5.712.603 10.298 5.251 10.298 2.238 0 5.423-.779 6.714-1.125l-.516 4.327c-1.636.952-6.714 2.942-9.9 2.942-9.468 0-12.395-7.615-12.395-12.98v-33.318h-6.972v-6.144h1.98c3.701 0 6.025-1.73 10.501-13.587.517-1.384 5.337-1.557 5.337-1.557zm28.837 8.827c-3.788 0-6.37-3.03-6.37-6.664s2.668-6.49 6.628-6.49 6.456 2.942 6.456 6.49c0 3.635-2.582 6.664-6.628 6.664h-.086zm-4.993 57.115V117.76c0-4.24-4.218-5.798-4.218-5.798l1.033-6.49 14.375-.693v52.27h-11.19zm36.67-6.144c1.033.346 2.41.606 3.529.606 8.78 0 13.859-8.308 13.859-20.51 0-10.644-4.735-19.73-13.515-19.73-2.668 0-5.25.605-7.402 2.509v61.615h-10.846v-49.24c0-3.98 0-7.616-.173-11.942-.086-2.77-.086-3.722-.946-4.847l6.111-3.894 3.271 2.337c3.874-3.462 8.78-3.548 16.097-3.548 11.104 0 19.023 10.903 19.023 24.75 0 16.442-10.07 28.644-20.745 28.644-3.185 0-5.94-.606-8.35-1.817v-4.933h.087zm135.316-31.933c0-2.336-.258-8.221-9.038-8.221-2.669 0-6.8 1.644-8.953 3.462v42.75H505.06v-30.808c0-3.98 0-7.616-.172-11.942-.086-2.77-.086-3.722-.947-4.847l6.112-3.894 4.132 2.77c3.013-1.558 7.23-4.068 12.567-4.068 11.104 0 17.905 5.452 17.905 16.356v36.52h-10.76V118.97zm-49.926 28.991v-24.924c0-4.24.172-12.028-9.813-11.942-4.648 0-7.92.952-11.362 3.375l-2.84-6.317c4.045-2.683 9.037-4.067 15.149-4.067 14.978 0 18.077 8.567 18.593 14.192V144.5c0 5.452.43 7.962 1.205 9.692l-5.681 3.289-2.238-3.03c-4.907 2.51-7.059 3.549-14.031 3.549-9.813 0-17.216-7.356-17.216-14.798 0-11.683 9.813-16.875 24.877-15.837v5.366c-6.714.173-13.256 2.769-13.256 9.865 0 6.404 4.734 7.875 7.833 7.875 4.82.087 6.972-.692 8.78-2.51zm-309.195 9.086V92.577h15.494l15.064 44.913 15.666-44.913h14.117v64.471h-11.104v-52.096l-18.249 52.096h-7.058l-17.388-52.096v52.096z"></path></g></svg>