<svg xmlns="http://www.w3.org/2000/svg" viewBox="118.888671875 297.68701171875 359.1583251953125 81.14749145507812"><path fill="#d30019" fill-rule="evenodd" d="M445.508 314.137c1.74-.417 13.67-.024 16.309.053.423 1.946.097 9.474.097 11.992 0 11.602.259 24.635-.017 35.916l-16.398-.084zm-3.989 35.211c-.21 2.3-2.759 5.325-3.902 6.436-1.674 1.628-3.714 3.034-6.333 4.107-7.684 3.146-18.097 3.255-25.833-.906-7.24-3.893-11.28-12.028-9.36-20.917 3.7-17.143 31.412-18.198 41.25-8.028 1.684 1.742 3.027 3.479 4.133 6.306.984 2.512 1.586 5.774 1.453 8.897l-31.013.056c-.058 3.67 2.518 6.065 5.447 6.931 1.768.523 3.655.524 5.408-.102 2.11-.753 2.171-1.566 3.397-2.797zm-117.272-.01c-.213 2.302-2.79 5.434-3.899 6.505-5.817 5.618-16.285 7.35-24.442 5.812-12.314-2.323-19.684-11.979-17.063-23.68 2.378-10.616 13.72-15.955 26.966-14.414 11.757 1.368 20.192 8.841 19.873 21.682l-31 .025c-.177 3.683 2.606 6.156 5.508 6.992 3.266.941 6.78.142 8.653-2.93zm34.031-25.616l36.962.02c.249 1.292.082 4.435.081 5.923-.002 3.333.416 3.934-.793 5.025l-6.222 5.512c-1.283 1.235-11.922 10.248-12.393 11.104l19.714.096-.004 10.692-39.04-.054c-.142-2.608-.005-6.424-.029-9.279-.012-1.568-.207-1.567.743-2.316 2.282-1.798 4.318-3.872 6.597-5.687 3.148-2.506 8.134-7.004 11.614-10.015l1.438-1.398-18.75.105zm-27.517-9.576l15.507-.076.073 9.668 7.55.059-.024 8.403-7.561.09c-.246 4.018-.015 8.68-.032 12.775-.026 6.301 2.069 4.975 7.452 5.346l-.025 11.664c-3.857.35-9.095.374-12.937-.024-4.016-.416-7.39-1.7-8.802-4.54-2.614-5.256-.972-18.455-1.503-25.286l-5.59-.092.06-8.407 5.795-.012zm-120.558 9.596l15.743.03c1.045 3.868 2.094 7.707 3.15 11.56l2.356 8.638c.2.744.385 2.174.95 2.73l6.403-22.895c1.598-.186 12.786-.24 13.706.067l6.266 22.809c.95-1.18 5.598-21.321 6.61-22.937l15.233.049-13.027 38.3-15.772-.03c-.984-1.558-5.22-19.777-6.25-22.293l-.384-.61-5.687 22.932-15.879-.02zm-11.73-18.826v66.731c0 .732.405 1.715.688 2.429l.39.71c2.84 3.75 4.9 3.644 9.555 3.644 87.08-.006 174.158.184 261.242.184 2.437.01 7.679-4.163 7.693-6.973l.006-65.625c0-2.979-1.496-5.073-3.18-6.536-2.24-1.946-4.37-1.518-6.718-1.53-86.138-.391-172.346 0-258.493 0-.733 0-1.415 0-2.14-.04l-2.084.032c-2.166.008-4.733 1.738-5.677 3.49-.172.317-.226.379-.421.678-.408.626-.861 1.961-.861 2.806zm-79.563 29.318c10.441-.01 8.345 1.189 12.385-6.49.992-1.886 5.779-11.524 6.498-12.382.93-1.11 5.248-1.776 6.7.814 1.655 2.95 4.594 9.364 6.288 12.776.535 1.077 1.024 2.108 1.564 3.2 1.751 3.55 2.592 2.999 4.222-.213l4.697-9.61c.83-1.736 2.097-4.696 3.094-6.252.689-1.077 1.31-1.621 3.127-1.616 2.157.007 2.54-.229 3.66 1.099 2.117 2.511 7.996 17.345 10.078 18.35 1.064.515 7.602.446 9.184.258v-27.97c.018-4.657-2.282-5.625-2.934-6.598-1.839-.973-2.056-1.522-4.791-1.808-2.114-.22-43.512-.026-46.723-.026-1.101 0-2.202.004-3.303-.002-1.329-.008-1.832.196-3.11.19-3.957-.016-7.192 0-9.663 3.72-1.22 1.837-.974 2.96-.974 5.81v26.75zm0 8.149v26.88c0 3.545-.302 4.555 2.152 7.014.223.224.323.335.552.548l.82.648c1.474.917 3.182 1.328 5.085 1.33l45.105-.006c4.112 0 6.945.16 11.001-.181.836-.07 1.236-.295 1.858-.526l1.773-.977.107-.076 1.627-1.673c1.35-2.058 1.417-3.285 1.417-5.916v-27.02c-1.75-.146-7.954-.27-9.138.271-1.205.551-1.46 1.54-2.061 2.726a994.206 994.206 0 01-1.61 3.159c-1.109 2.166-2.094 4.16-3.195 6.336-.68 1.343-2.588 5.3-3.318 6.207-1.06 1.316-1.658 1.04-3.784 1.029-3.237-.017-4.306-4.224-6.181-8.14l-4.686-9.612c-2.539-5.168-3.691-.77-5.868 3.733-1.032 2.136-2.032 4.102-3.093 6.246-.532 1.075-1.013 2.089-1.56 3.208-1.417 2.897-1.669 4.617-4.82 4.539-1.949-.049-2.477.098-3.469-1.128-.712-.88-5.433-10.397-6.415-12.278-.653-1.253-2.457-5.327-3.481-5.886-1.455-.795-6.708-.455-8.819-.455z"></path><path fill="#fff" fill-rule="evenodd" d="M118.91 334.234v8.149c2.11 0 7.363-.34 8.818.455 1.024.559 2.828 4.633 3.481 5.885.982 1.881 5.703 11.399 6.415 12.278.992 1.226 1.52 1.08 3.47 1.129 3.15.078 3.402-1.642 4.82-4.539.546-1.12 1.027-2.134 1.559-3.208 1.06-2.145 2.06-4.11 3.093-6.246 2.177-4.504 3.33-8.902 5.868-3.733l4.686 9.611c1.875 3.917 2.944 8.124 6.18 8.14 2.127.011 2.724.288 3.785-1.029.73-.906 2.638-4.863 3.318-6.206 1.102-2.177 2.086-4.17 3.194-6.337a766.01 766.01 0 001.61-3.158c.602-1.186.857-2.175 2.062-2.726 1.184-.541 7.389-.417 9.138-.27v-8.261c-1.582.188-8.12.257-9.184-.258-2.082-1.005-7.961-15.839-10.079-18.35-1.119-1.328-1.502-1.092-3.659-1.099-1.817-.006-2.438.538-3.127 1.616-.997 1.556-2.263 4.516-3.094 6.253l-4.697 9.609c-1.63 3.212-2.47 3.764-4.222.213-.54-1.092-1.03-2.123-1.564-3.2-1.695-3.412-4.633-9.825-6.288-12.776-1.452-2.59-5.77-1.925-6.7-.814-.72.858-5.506 10.496-6.498 12.381-4.04 7.68-1.944 6.48-12.386 6.491zm104.711 27.838l15.88.02 5.686-22.932.383.61c1.031 2.517 5.267 20.736 6.251 22.294l15.772.03 13.027-38.3-15.232-.05c-1.013 1.616-5.66 21.757-6.611 22.938l-6.266-22.81c-.92-.307-12.107-.252-13.706-.066l-6.403 22.895c-.565-.557-.75-1.987-.95-2.73l-2.355-8.638a3170.848 3170.848 0 01-3.151-11.56l-15.743-.03zm71.007-24.119c.052-4.348 3.067-6.476 7.427-6.483 3.887-.007 7.25 2.803 7.347 6.493zm29.619 11.385l-15.404-.007c-1.873 3.072-5.387 3.871-8.653 2.93-2.902-.836-5.685-3.309-5.508-6.992l31-.025c.319-12.841-8.116-20.314-19.873-21.682-13.246-1.542-24.588 3.798-26.966 14.414-2.62 11.7 4.749 21.357 17.063 23.68 8.157 1.539 18.625-.194 24.442-5.812 1.11-1.071 3.686-4.203 3.899-6.505zm87.887-11.381c.053-4.369 3.068-6.47 7.433-6.484 3.926-.014 7.196 2.789 7.35 6.49zm29.385 11.391l-15.353-.016c-1.226 1.23-1.287 2.043-3.396 2.796-1.754.626-3.641.625-5.409.102-2.929-.866-5.505-3.26-5.447-6.931l31.014-.056c.132-3.122-.47-6.385-1.453-8.897-1.107-2.827-2.45-4.564-4.135-6.306-9.837-10.17-37.548-9.115-41.25 8.028-1.918 8.889 2.122 17.024 9.36 20.917 7.737 4.16 18.15 4.052 25.834.906 2.62-1.073 4.66-2.478 6.333-4.107 1.143-1.11 3.691-4.136 3.902-6.436z"></path><path fill="#fff" fill-rule="evenodd" d="M358.196 333.45l18.75-.105-1.438 1.399c-3.48 3.01-8.466 7.508-11.613 10.014-2.28 1.815-4.316 3.889-6.598 5.688-.95.748-.755.747-.742 2.315.023 2.855-.114 6.671.028 9.28l39.04.054.004-10.692-19.714-.097c.471-.855 11.11-9.869 12.393-11.104l6.222-5.511c1.21-1.092.791-1.692.793-5.026 0-1.488.168-4.63-.081-5.922l-36.962-.02zm-27.472-9.735l-5.796.012-.06 8.407 5.591.092c.531 6.83-1.11 20.03 1.503 25.286 1.412 2.84 4.786 4.123 8.802 4.54 3.842.398 9.08.374 12.937.023l.025-11.663c-5.383-.371-7.478.955-7.452-5.347.017-4.095-.214-8.757.032-12.775l7.56-.09.025-8.403-7.55-.058-.073-9.668-15.507.076zM445.5 362.014l16.397.084c.276-11.281.017-24.314.017-35.916 0-2.518.326-10.045-.097-11.992-2.64-.077-14.57-.47-16.309-.053z"></path><path fill="#d00219" fill-rule="evenodd" d="M412.134 337.957l14.783.007c-.154-3.702-3.424-6.504-7.35-6.491-4.365.014-7.38 2.115-7.433 6.484zm-117.506-.004l14.774.01c-.096-3.69-3.46-6.5-7.347-6.493-4.36.007-7.375 2.135-7.427 6.483z"></path><path fill="#af8511" fill-rule="evenodd" d="M187.474 299.6h.183l-.153-.214z"></path></svg>