<svg xmlns="http://www.w3.org/2000/svg" viewBox="55 70 489 111"><g fill="none" fill-rule="evenodd"><path fill="#2584BF" d="M55 114h489V70.086L55 70"></path><path fill="#FEFEFE" d="M461.974 103.1c-3.558-1.351-6.768-4.561-6.768-8.531-.434-3.464.78-6.59 4.252-8.532 5.727-4.393 24.818 8.532 24.818 8.532-6.769 4.392-13.104 10.474-22.302 8.531m69.594-16.05c-1.041 4.393-2.777 9.546-7.55 12.165-9.805 6.082-18.309-2.704-26.032-7.096 0 0 14.318-13.685 24.297-10.982l.52-.76c-10.76-8.025-21.26 2.703-30.544 7.518-9.545-4.14-17.268-13.178-29.07-11.742-4.512.253-8.504 3.126-11.28 6.59-2.951 3.716-3.732 9.545-1.997 14.36 1.215 5.153 6.509 8.785 10.76 9.714 11.802 1.943 20.827-5.828 29.591-10.981 7.29 5.828 16.054 10.981 25.772 12.164 6.248 0 13.537-3.632 16.054-10.221 1.041-3.464 1.562-7.35-.52-10.729"></path><path fill="#251F1A" d="M55 164v-44h7v44m19.792-22.543c0 4.923 1.099 8.637 3.297 11.228 2.198 2.591 4.987 3.8 8.369 3.8 3.381 0 6.17-1.295 8.369-3.8 2.198-2.505 3.297-6.305 3.297-11.4 0-5.01-1.1-8.725-3.213-11.143-2.113-2.418-4.987-3.714-8.453-3.714-3.55 0-6.34 1.296-8.538 3.714-2.03 2.505-3.128 6.305-3.128 11.315m-8.792.259c0-4.405.676-8.12 1.944-11.142.93-2.246 2.283-4.232 3.889-5.96 1.69-1.727 3.466-3.023 5.495-3.887 2.62-1.122 5.664-1.727 9.13-1.727 6.255 0 11.243 1.987 14.963 5.96 3.72 3.973 5.579 9.5 5.579 16.583 0 6.996-1.86 12.524-5.58 16.497-3.719 3.973-8.707 5.96-14.878 5.96-6.255 0-11.328-1.987-14.963-5.873-3.72-4.06-5.579-9.501-5.579-16.411m61.287 11.947c-2.828-2.51-4.153-6.317-4.153-11.25 0-5.019 1.325-8.74 4.064-11.25 2.74-2.51 6.362-3.634 10.692-4.153 3.004-.433 13.343 1.47 15.11 2.163v-5.625c-4.153-2.336-9.19-3.548-15.198-3.548-4.33 0-8.13.606-11.487 1.73-2.474.866-4.772 2.164-6.893 3.895a22.394 22.394 0 00-4.948 5.971c-1.59 3.029-2.474 6.75-2.474 11.164 0 6.923 2.297 12.375 6.98 16.355 4.684 3.981 10.957 5.885 18.822 5.885 5.92 0 10.957-1.212 15.021-3.462v-6.923c-2.562 1.904-11.31 2.943-15.11 2.943-4.064-.087-7.599-1.298-10.426-3.895M164 164v-44h8.75v17.301h17.5V120H199v44h-8.75v-19.234h-17.5V164m40.649-36.462v12.446h4.62c3.275 0 5.543-.263 6.635-.701 1.091-.438 2.015-1.14 2.603-2.104.672-.964.924-2.103.924-3.418 0-1.578-.42-2.892-1.344-3.944-.924-1.052-2.015-1.666-3.36-1.929-1.007-.175-3.023-.263-6.047-.263l-4.031-.087zM205 164v-44h13.522c5.124 0 8.483.263 9.995.701 2.436.614 4.368 2.104 6.047 4.295 1.596 2.191 2.436 5.084 2.436 8.59 0 2.717-.42 4.996-1.344 6.836-.924 1.84-2.1 3.243-3.527 4.295-1.428 1.052-2.94 1.753-4.368 2.104-2.016.438-4.955.613-8.735.613h-5.543V164H205zm43 0l.084-44h31.072v7.465h-22.628v9.749h21.023v7.465h-21.023v11.856H280V164"></path><path fill="#251F1A" fill-rule="nonzero" d="M285 136h18v5h-18z"></path><path fill="#251F1A" d="M307 164v-44h12.903l7.64 29.976L335.096 120H348v44h-7.98v-34.622L331.618 164h-8.234l-8.404-34.622V164m64.717-17.442l-6.135-16.215-5.873 16.215h12.008zM396 164h-9.466l-3.857-9.992H365.06l-3.594 9.904H352L368.829 120h9.29L396 164zm5 0l15.208-22.876L402.423 120h10.672l8.538 13.06L430.26 120h10.406l-13.785 20.948L442 164h-10.94l-9.604-14.813L411.672 164M447 164v-44h7v44m15.792-22.543c0 4.923 1.099 8.637 3.297 11.228 2.198 2.505 4.987 3.8 8.453 3.8 3.382 0 6.171-1.295 8.37-3.8 2.197-2.505 3.296-6.305 3.296-11.4 0-5.01-1.099-8.725-3.212-11.143-2.114-2.418-4.903-3.714-8.454-3.714-3.55 0-6.34 1.21-8.538 3.714-2.113 2.505-3.212 6.305-3.212 11.315m-8.792.259c0-4.405.676-8.12 1.944-11.142.93-2.246 2.283-4.232 3.889-5.96 1.69-1.727 3.466-3.023 5.495-3.887 2.62-1.122 5.664-1.727 9.13-1.727 6.255 0 11.243 1.987 14.963 5.96 3.72 3.973 5.579 9.5 5.579 16.583 0 6.996-1.86 12.524-5.58 16.497-3.719 3.973-8.707 5.96-14.878 5.96-6.255 0-11.328-1.987-15.047-5.873-3.635-4.06-5.495-9.501-5.495-16.411M509 164v-44h8.393l17.642 29.538v-29.45L543 120v44h-8.65l-17.3-28.749-.085 28.749"></path><path fill="#251F1A" fill-rule="nonzero" d="M56 174h488v7H56z"></path></g></svg>