<svg xmlns="http://www.w3.org/2000/svg" viewBox="57.00004196166992 65.12699127197266 485.9999694824219 118.95801544189453"><g fill="none" fill-rule="evenodd"><g fill-rule="nonzero"><path fill="#00B35A" d="M70.07 106.644c-11.425 14.248-15.308 35.42-11.852 64.758.26 2.73.57 4.953.818 6.506l.136.092c12.455-6.085 61.045-33.707 60.827-93.896l-.117-.104c-23.238 2.435-39.546 9.849-49.812 22.644zm109.283-13.341c-2.97 10.143-7.278 19.77-12.88 28.683-17.913 28.503-46.181 45.521-66.745 54.772a205.454 205.454 0 01-18.395 7.244l.004.063.002.02c16.792-.314 31.933-2.928 45.12-7.794 14.962-5.525 27.153-13.834 36.222-24.68 13.329-15.927 19.12-36.362 16.724-58.312l-.052.004z"/><path fill="#00B35A" d="M126.234 78.843l-.09.218c.594 10.052-.048 19.858-1.925 29.183-3.383 16.738-10.712 32.288-21.79 46.22-4.71 5.925-10.04 11.463-15.883 16.583l.018.053c24.724-8.998 54.354-25.026 72.583-53.032 18.008-27.664 15.532-43.372 13.606-52.927l-.05-.014c-10.643 8.146-29.552 11.102-46.47 13.716z"/><path fill="#042A8A" d="M257.024 125.558c-3.142-2.238-9.48-4.804-16.026-4.804-6.809 0-11.208 3.002-11.208 7.7 0 4.148 3.613 6.06 9.637 6.823l5.76.765c10.58 1.474 16.813 6.114 16.813 14.687 0 9.883-8.484 16.271-22.05 16.271-6.127 0-14.403-1.528-20.95-6.661l3.98-6.662c3.72 3.004 8.695 5.515 17.022 5.515 8.171 0 13.2-2.784 13.2-7.917 0-3.822-3.248-6.224-10.004-7.098l-5.762-.71c-11.156-1.42-16.55-6.66-16.55-14.524 0-9.937 7.908-15.943 20.007-15.943 7.856 0 15.031 2.184 19.85 5.624l-3.719 6.934zM316 144.16c0 15.682-10.93 22.84-22.974 22.84-12.15 0-23.026-7.158-23.026-22.84V114h8.701v29.34c0 10.601 6.102 15.3 14.325 15.3 8.171 0 14.273-4.699 14.273-15.3V114H316v30.16zm50.534-22.772l-30.296 36.666H367V166h-42v-6.39L355.658 123H325.88v-8h40.654v6.388zM423 165.909h-8.756v-6.926c-4.004 4.854-9.93 8.017-17.885 8.017C382.105 167 371 155.655 371 140s11.105-27 25.359-27c7.956 0 13.881 3.164 17.885 8.073v-6.982H423v51.818zM379.915 140c0 10.31 7.047 18.655 17.459 18.655 10.25 0 17.404-8.019 17.404-18.655 0-10.582-7.154-18.6-17.404-18.6-10.571 0-17.459 8.291-17.459 18.6zM481 133.763V166h-8.682v-29.34c0-9.562-5.08-15.19-13.814-15.19-8.1 0-14.875 5.736-14.875 15.408V166H435v-51.908h8.575v6.777c4.13-5.847 10.64-7.869 16.463-7.869 12.387 0 20.962 8.304 20.962 20.763zM543 140c0 15.382-11.34 27-26.527 27C501.285 167 490 155.382 490 140c0-15.381 11.285-27 26.473-27C531.661 113 543 124.619 543 140zm-44.194 0c0 10.854 7.595 18.655 17.667 18.655 10.02 0 17.668-7.801 17.668-18.655 0-10.854-7.648-18.6-17.668-18.6-10.072 0-17.667 7.746-17.667 18.6z"/></g></g></svg>
