<svg xmlns="http://www.w3.org/2000/svg" xmlns:xlink="http://www.w3.org/1999/xlink" viewBox="0.5 0.6000003814697266 101 40.30000305175781"><defs><path id="fn7ae82d617dmb" d="M.6 18.2c0 1.3.5 3.1 2 4.5.5.5 1 .9 1.7 1.2-.4 2-.5 4.2-.3 6.8l1.4-.1c-.5-2.4-.6-4.5-.3-6.4 5.8 2.2 15-2.8 7.9-23.6C12.2 10 .7 9.3.6 18.2"></path><path id="fn7ae82d617dmc" d="M.6 18.2c0 1.3.5 3.1 2 4.5.5.5 1 .9 1.7 1.2.3-1.6.8-3 1.3-4.3-.9-1.5-1.9-4.4-1.9-6.4.4 1.7 1.3 4 2.2 5.6.7-1.5 1.6-2.8 2.4-4.1-1-1.4-1.2-3.8-1.2-4.3.3.8.7 2.2 1.6 3.6.8-1.2 1.6-2.4 2.3-3.7-.4-.9-.7-2.3-.7-2.7.2.6.7 1.4 1.1 1.9.9-1.7 1.3-3.2 1.5-4.1.2-1.4.2-3 0-4.7C12.2 10 .7 9.3.6 18.2"></path><path id="fn7ae82d617dmf" d="M.5 18.2c0 1.3.5 3.1 2 4.5 5 5 18.6 2.1 10.4-22C12.1 10 .7 9.3.5 18.2"></path><path id="fn7ae82d617dmi" d="M.5 9.2c0 1.3.5 3.1 2 4.5.2.2.4.3.5.5 2.5-2 4.2-6.3 3.2-13.4C3.3 2.8.6 4.9.5 9.2"></path><path id="fn7ae82d617dml" d="M.5 18.2c0 1.3.5 3.1 2 4.5 5 5 18.6 2.1 10.4-22C12.1 10 .7 9.3.5 18.2"></path><path id="fn7ae82d617dmo" d="M.5 9.2c0 1.3.5 3.1 2 4.5.2.2.3.3.5.4C5.5 12 7.1 7.9 6.1.8 3.3 2.9.6 4.9.5 9.2"></path><radialGradient id="fn7ae82d617dmd" cx="-28.246%" cy="-17.128%" r="279.075%" fx="-28.246%" fy="-17.128%" gradientTransform="matrix(1 0 0 .5431 0 -.078)"><stop offset="0%" stop-color="#C9D647"></stop><stop offset="19.1%" stop-color="#C9D647"></stop><stop offset="35.2%" stop-color="#9FBB3E"></stop><stop offset="53.8%" stop-color="#749F35"></stop><stop offset="68.4%" stop-color="#5A8E30"></stop><stop offset="77%" stop-color="#50882E"></stop><stop offset="100%" stop-color="#50882E"></stop></radialGradient><radialGradient id="fn7ae82d617dmg" cx="-17.666%" cy="-15.077%" r="170.698%" fx="-17.666%" fy="-15.077%" gradientTransform="matrix(1 0 0 .76296 0 -.036)"><stop offset="0%" stop-color="#DBE5F4"></stop><stop offset="13.6%" stop-color="#D7E3F3"></stop><stop offset="25.7%" stop-color="#CDDEF1"></stop><stop offset="37.3%" stop-color="#BAD5EC"></stop><stop offset="48.6%" stop-color="#A1C8E6"></stop><stop offset="59.6%" stop-color="#80B8DE"></stop><stop offset="70.4%" stop-color="#57A4D5"></stop><stop offset="80.8%" stop-color="#288DC9"></stop><stop offset="88.5%" stop-color="#0079C0"></stop><stop offset="100%" stop-color="#0079C0"></stop></radialGradient><radialGradient id="fn7ae82d617dmj" cx="-54.115%" cy="-98.294%" r="524.828%" fx="-54.115%" fy="-98.294%" gradientTransform="matrix(1 0 0 .5 0 -.491)"><stop offset="0%" stop-color="#FFF"></stop><stop offset="1.7%" stop-color="#F4F8FC"></stop><stop offset="6.6%" stop-color="#DAE7F5"></stop><stop offset="12.1%" stop-color="#C6D9EF"></stop><stop offset="18.2%" stop-color="#B8CFEB"></stop><stop offset="25.7%" stop-color="#B0CAE9"></stop><stop offset="38.2%" stop-color="#ADC8E8"></stop><stop offset="44.5%" stop-color="#8FBAE1"></stop><stop offset="61.7%" stop-color="#4397CF"></stop><stop offset="73.9%" stop-color="#1281C4"></stop><stop offset="80%" stop-color="#0079C0"></stop><stop offset="100%" stop-color="#0079C0"></stop></radialGradient><radialGradient id="fn7ae82d617dmm" cx="-17.516%" cy="-14.738%" r="170.696%" fx="-17.516%" fy="-14.738%" gradientTransform="matrix(1 0 0 .76296 0 -.035)"><stop offset="0%" stop-color="#FFF100"></stop><stop offset="13.5%" stop-color="#FFF100"></stop><stop offset="17.6%" stop-color="#FFE701"></stop><stop offset="27%" stop-color="#FFD604"></stop><stop offset="37.2%" stop-color="#FFCC06"></stop><stop offset="50%" stop-color="#FFC906"></stop><stop offset="55.6%" stop-color="#FDBE0A"></stop><stop offset="81.9%" stop-color="#F68E1A"></stop><stop offset="95%" stop-color="#F37C20"></stop><stop offset="100%" stop-color="#F37C20"></stop></radialGradient><radialGradient id="fn7ae82d617dmp" cx="-54.685%" cy="-99.07%" r="532.8%" fx="-54.685%" fy="-99.07%" gradientTransform="matrix(1 0 0 .49624 0 -.5)"><stop offset="0%" stop-color="#FFF100"></stop><stop offset="3%" stop-color="#FEE603"></stop><stop offset="10.2%" stop-color="#FDD20A"></stop><stop offset="18.4%" stop-color="#FDC40E"></stop><stop offset="28.4%" stop-color="#FCBC11"></stop><stop offset="45%" stop-color="#FCB912"></stop><stop offset="54%" stop-color="#F8A117"></stop><stop offset="64.5%" stop-color="#F58D1C"></stop><stop offset="74.9%" stop-color="#F4801F"></stop><stop offset="85%" stop-color="#F37C20"></stop><stop offset="100%" stop-color="#F37C20"></stop></radialGradient><linearGradient id="fn7ae82d617dma" x1="46.788%" x2="56.734%" y1="30.358%" y2="93.099%"><stop offset="0%" stop-color="#C5CE21"></stop><stop offset="3.4%" stop-color="#C5CE21"></stop><stop offset="18.1%" stop-color="#B4C423"></stop><stop offset="47.3%" stop-color="#88AA28"></stop><stop offset="80%" stop-color="#50882E"></stop><stop offset="100%" stop-color="#50882E"></stop></linearGradient></defs><g fill="none" fill-rule="evenodd"><use fill="url(#fn7ae82d617dma)" xlink:href="#fn7ae82d617dmb"></use><mask id="fn7ae82d617dme" fill="#fff"><use xlink:href="#fn7ae82d617dmc"></use></mask><path fill="url(#fn7ae82d617dmd)" fill-rule="nonzero" d="M.5.7h12.6v23.2H.5z" mask="url(#fn7ae82d617dme)"></path><g transform="translate(9)"><mask id="fn7ae82d617dmh" fill="#fff"><use xlink:href="#fn7ae82d617dmf"></use></mask><path fill="url(#fn7ae82d617dmg)" fill-rule="nonzero" d="M.5.7h20.6v27H.5z" mask="url(#fn7ae82d617dmh)"></path></g><g transform="translate(9 9)"><mask id="fn7ae82d617dmk" fill="#fff"><use xlink:href="#fn7ae82d617dmi"></use></mask><path fill="url(#fn7ae82d617dmj)" fill-rule="nonzero" d="M.5.8h6.7v13.4H.5z" mask="url(#fn7ae82d617dmk)"></path></g><g transform="translate(18)"><mask id="fn7ae82d617dmn" fill="#fff"><use xlink:href="#fn7ae82d617dml"></use></mask><path fill="url(#fn7ae82d617dmm)" fill-rule="nonzero" d="M.5.7h20.6v27H.5z" mask="url(#fn7ae82d617dmn)"></path></g><g transform="translate(18 9)"><mask id="fn7ae82d617dmq" fill="#fff"><use xlink:href="#fn7ae82d617dmo"></use></mask><path fill="url(#fn7ae82d617dmp)" fill-rule="nonzero" d="M.5.8h6.6v13.3H.5z" mask="url(#fn7ae82d617dmq)"></path></g><path fill="#50882E" fill-rule="nonzero" d="M96.9 30.9h-2.2l-4 9.9h2.2l.8-2.1h4.7l.6 1.4c.1.3.3.7 1 .7h1.5l-4.6-9.9zm-2.8 6.3l1.6-4.4 1.8 4.4h-3.4zm-71.3-.9h4.8V35h-4.8v-2.8h5v-1.3h-7v9.9h7.1v-1.4h-5.1v-3.1zm19.5 0h4.8V35h-4.8v-2.8h5v-1.3h-7v9.9h7.1v-1.4h-5.1v-3.1zm45.2-5.4h2.1v9.9h-2.1v-9.9zm-5.2 5.3c0 .3.2.6.9.6h.7v2.1c-.4.2-.9.3-1.5.3-2 0-3.1-1.2-3.1-3.4 0-2 1-3.4 3.1-3.4.8 0 1.6.1 2.4.3v-1.6c-.7-.2-1.5-.3-2.4-.3-3.6 0-5.2 2.6-5.2 5 0 2.5 1.6 5 5.2 5 1.5 0 2.7-.5 3.4-1.2v-4h-2.7c-.7-.1-.8.4-.8.6zm-48.5-5.3c-3.6 0-5.2 2.5-5.2 5s1.6 5 5.2 5c3.5 0 5.2-2.6 5.2-5 0-2.5-1.6-5-5.2-5zm0 8.3c-2 0-3.1-1.2-3.1-3.4s1.1-3.4 3.1-3.4 3.1 1.2 3.1 3.4-1.1 3.4-3.1 3.4zm40-3c.8-.2 2.1-.9 2.1-2.6 0-1.4-1.1-2.7-3.1-2.7h-4.4v9.9h2v-8.6H72c1.5 0 1.8.9 1.8 1.5 0 .9-.7 1.5-1.7 1.5-.7 0-1.1.3-1.1.7 0 .3.2.6.9.7.9.1 1.3 1.1 1.8 2.2 0 0 .4 1 .6 1.3.1.3.3.7 1 .7h1.6l-.7-1.5c-.8-1.6-1.4-2.5-2.4-3.1zm-56.7-5.3v6.8l-5.4-6.8H9.6v9.9h2v-7.3s4.4 5.7 5.4 7c.1.2.3.3.7.3h1.5v-9.9h-2.1zM62 36.3h4.8V35H62v-2.8h5v-1.3h-7v9.9h7.1v-1.4H62v-3.1zm-5.7-5.4v6.8l-5.4-6.8h-2.2v9.9h2v-7.3s4.4 5.7 5.4 7c.1.2.3.3.7.3h1.5v-9.9h-2z"></path></g></svg>