<!DOCTYPE svg PUBLIC "-//W3C//DTD SVG 20010904//EN" "http://www.w3.org/TR/2001/REC-SVG-20010904/DTD/svg10.dtd">
<svg version="1.0" xmlns="http://www.w3.org/2000/svg" width="93px" height="123px" viewBox="0 0 930 1230" preserveAspectRatio="xMidYMid meet">
<g id="layer101" fill="#000000" stroke="none">
<path d="M0 615 l0 -615 465 0 465 0 0 615 0 615 -465 0 -465 0 0 -615z"/>
</g>
<g id="layer102" fill="#d0d0d0" stroke="none">
<path d="M10 988 l0 -98 450 0 450 0 0 95 0 95 -450 2 -450 3 0 -97z m316 36 c9 -34 24 -30 24 6 0 23 4 30 20 30 15 0 20 -7 20 -25 0 -14 4 -25 10 -25 5 0 12 11 16 25 4 18 13 25 30 25 27 0 28 -3 13 -32 -8 -14 -8 -23 0 -31 15 -15 14 -50 -1 -65 -7 -7 -34 -12 -60 -12 -47 0 -48 1 -48 30 0 17 -4 30 -10 30 -5 0 -10 -5 -10 -12 0 -42 -76 -63 -112 -31 -37 33 -18 109 32 125 27 9 70 -13 76 -38z m417 18 c22 -19 22 -79 0 -104 -32 -36 -112 -15 -113 30 -1 15 -3 14 -15 -3 -29 -41 -37 -45 -80 -45 l-45 0 0 70 0 70 43 0 c49 0 59 -6 77 -40 l13 -25 9 27 c6 16 20 31 36 36 30 10 49 6 75 -16z m-643 -19 l1 -38 22 38 c15 25 28 37 41 35 17 -3 20 -12 20 -68 1 -54 -2 -65 -17 -68 -14 -3 -17 4 -17 35 l0 38 -22 -37 c-15 -27 -29 -38 -45 -38 -22 0 -23 4 -23 70 0 63 2 70 20 70 16 0 20 -7 20 -37z m710 -5 l0 -43 26 43 c16 26 32 42 45 42 17 0 19 -7 19 -70 0 -65 -2 -70 -21 -70 -18 0 -21 5 -17 34 4 40 -5 38 -27 -5 -10 -19 -23 -29 -38 -29 -22 0 -23 4 -23 70 0 61 3 70 18 70 14 0 18 -8 18 -42z"/>
<path d="M247 1010 c-8 -31 3 -61 22 -58 11 2 16 14 16 38 0 40 -29 55 -38 20z"/>
<path d="M390 966 c0 -10 9 -16 21 -16 24 0 21 23 -4 28 -10 2 -17 -3 -17 -12z"/>
<path d="M674 1016 c-10 -25 0 -61 19 -64 14 -3 17 4 17 37 0 30 -4 41 -15 41 -9 0 -18 -6 -21 -14z"/>
<path d="M190 810 c0 -5 -10 -10 -22 -12 -20 -3 -23 -9 -23 -48 0 -39 3 -45 23 -48 12 -2 22 -7 22 -12 0 -5 12 -8 28 -7 26 2 27 4 27 67 0 63 -1 65 -27 67 -16 1 -28 -2 -28 -7z"/>
<path d="M700 751 c0 -67 1 -68 25 -68 14 0 28 3 31 8 3 5 14 9 25 9 16 0 19 7 19 50 0 43 -3 50 -20 50 -11 0 -20 5 -20 10 0 6 -13 10 -30 10 l-30 0 0 -69z"/>
<path d="M270 751 c0 -48 2 -51 25 -51 31 0 65 -32 65 -62 0 -12 -24 -46 -59 -83 -78 -81 -100 -163 -70 -269 17 -62 102 -141 175 -162 194 -56 376 127 319 323 -14 48 -27 67 -81 118 -45 44 -64 69 -64 87 0 33 29 58 68 58 31 0 32 1 32 46 l0 47 -41 -7 c-50 -8 -94 -37 -113 -74 -39 -79 -27 -142 40 -201 81 -71 103 -145 64 -220 -83 -164 -320 -111 -320 72 0 61 18 96 71 138 93 73 92 192 -2 261 -14 11 -44 22 -67 25 l-42 6 0 -52z"/>
</g>
<g id="layer103" fill="#f9f9f9" stroke="none">
<path d="M10 990 l0 -96 450 -3 450 -3 0 96 0 96 -450 2 -450 3 0 -95z m91 38 c0 -24 3 -36 7 -28 15 33 38 57 61 65 22 7 23 5 19 -19 -3 -15 -1 -29 3 -32 5 -3 9 2 9 11 0 9 14 22 32 29 36 16 72 7 95 -22 12 -16 13 -15 19 5 6 22 40 38 50 22 3 -5 2 -19 -2 -32 -6 -19 -5 -20 10 -8 9 7 16 19 16 26 0 11 50 28 58 20 2 -2 -2 -12 -9 -23 -10 -16 -10 -29 -1 -59 11 -35 10 -39 -11 -56 -28 -22 -111 -20 -113 3 -2 32 -5 33 -31 7 -40 -38 -111 -25 -114 22 -1 9 -4 3 -8 -14 -4 -21 -12 -30 -26 -30 -17 0 -20 6 -18 40 1 22 -1 33 -5 25 -18 -38 -46 -70 -63 -70 -17 0 -19 8 -19 74 0 70 5 82 33 85 4 1 7 -18 8 -41z m496 16 c27 -21 34 -23 39 -10 7 19 65 39 88 30 9 -3 23 -18 31 -33 l14 -26 1 33 c0 35 0 35 24 26 10 -4 16 -18 16 -36 l0 -29 34 35 c18 20 38 36 45 36 7 0 11 -27 11 -80 0 -73 -2 -80 -20 -80 -16 0 -20 7 -20 33 l-1 32 -28 -34 c-33 -40 -61 -37 -61 6 l-1 28 -15 -27 c-8 -16 -18 -29 -22 -29 -51 -8 -63 -6 -87 18 l-26 26 -20 -21 c-11 -12 -30 -24 -43 -28 -29 -7 -72 -2 -68 9 1 4 2 36 2 71 l0 65 33 4 c17 2 34 5 36 5 2 1 19 -10 38 -24z"/>
<path d="M251 1012 c-10 -19 -5 -62 8 -62 28 0 40 50 17 69 -12 10 -17 8 -25 -7z"/>
<path d="M392 968 c3 -7 13 -15 22 -16 12 -3 17 1 14 10 -3 7 -13 15 -22 16 -12 3 -17 -1 -14 -10z"/>
<path d="M530 990 c0 -34 3 -41 18 -38 12 2 17 13 17 38 0 25 -5 36 -17 38 -15 3 -18 -4 -18 -38z"/>
<path d="M682 993 c4 -52 28 -56 28 -4 0 30 -4 41 -16 41 -11 0 -14 -9 -12 -37z"/>
<path d="M190 811 c0 -5 -10 -11 -22 -13 -18 -2 -24 -10 -26 -39 -3 -33 1 -39 29 -53 18 -9 34 -16 36 -16 1 0 3 29 3 65 0 37 -4 65 -10 65 -5 0 -10 -4 -10 -9z"/>
<path d="M230 755 c0 -42 4 -64 10 -60 6 3 10 30 10 60 0 30 -4 57 -10 60 -6 4 -10 -18 -10 -60z"/>
<path d="M700 755 c0 -37 4 -65 10 -65 6 0 10 28 10 65 0 37 -4 65 -10 65 -6 0 -10 -28 -10 -65z"/>
<path d="M740 756 c0 -55 3 -67 12 -58 7 7 20 12 31 12 15 0 18 7 15 42 -2 34 -7 44 -23 47 -11 2 -23 8 -27 15 -4 6 -8 -20 -8 -58z"/>
<path d="M288 793 c-22 -6 -26 -83 -5 -83 38 0 87 -46 87 -82 0 -4 -28 -37 -63 -72 -52 -53 -65 -74 -75 -116 -16 -71 -15 -91 9 -156 45 -120 173 -190 294 -160 42 11 112 46 129 65 28 31 65 113 72 157 5 37 1 57 -22 112 -25 59 -73 122 -93 122 -12 0 -51 58 -51 75 0 9 11 27 25 41 18 18 31 23 50 18 24 -6 25 -4 25 35 0 37 -3 41 -24 41 -29 0 -89 -24 -103 -42 -5 -7 -18 -36 -28 -63 -17 -50 -17 -51 5 -97 12 -26 37 -59 57 -74 52 -40 73 -80 73 -143 0 -99 -57 -158 -162 -167 -57 -4 -67 -2 -102 23 -58 41 -78 74 -80 129 -3 63 29 128 84 169 43 32 50 49 54 117 3 55 -29 106 -85 136 -23 12 -44 21 -47 21 -4 -1 -15 -3 -24 -6z"/>
</g>


</svg>