<svg xmlns="http://www.w3.org/2000/svg" viewBox="0.2599945068359375 0.2699996829032898 1802.9814453125 267.3116760253906"><g fill="none"><path fill="#354466" d="M.28 247.89c7.13-23.43 10-47.76 15.09-71.64 5.15-24.38 9.84-48.86 14.37-73.36 1.11-6 3.36-8.15 9.81-8.25 31.8-.53 31.77-.74 40.89 29.82a25575.14 25575.14 0 0024.32 80.94c.6 2 .47 4.44 3.85 5.49 5.06-25.48 10.11-50.9 15.15-76.26 2-10.28 4.5-20.51 5.82-30.89.95-7.41 4.25-9.18 11.32-9.09 20.79.24 20.39-.15 16.18 20.19a8944.367 8944.367 0 00-25.45 127.66c-1.17 6.12-3.14 8.28-9.61 8.41-32.53.63-32.28.76-41.12-30.61-7-24.67-14.55-49.16-22-73.69-.84-2.77-.12-7.58-4.84-7-3.47.46-2.8 4.6-3.33 7.24-6.15 30.45-12.47 60.86-18.08 91.41-1.69 9.2-4.72 14.32-15.09 12.58-5.65-.95-11.53-.58-17.3-.81l.02-2.14zM760.52.27c5.36 5.94 13.23 4.32 19.84 6.21 81.79 23.43 129.26 99.85 112.79 183.43a132.57 132.57 0 01-35.75 68.43c34.25-69.73 31.47-135.95-23.92-192.45-55.22-56.32-121.79-58.42-192-28.52 19.58-17.45 42-27.48 66.53-33.05 3.16-.71 7.58.72 9-4l43.51-.05z"></path><path fill="#81BF51" d="M1319.39 135.54c-3.08 15-6.25 30-9.21 45-4 20.22-8.12 40.41-11.49 60.73-1.29 7.84-4.8 9.68-12.27 9.57-21-.32-20.69.08-16.43-20.9 8.42-41.46 16.65-83 24.42-124.54 1.51-8.07 4.62-11.19 12.74-10.36 6.09.62 12.3 0 18.44.15 23 .56 17.7-4.12 20.91 19.56 4.27 31.44 7.66 63 13.36 95.26 6.887-13.227 13.773-26.46 20.66-39.7 11.64-22.46 23.44-44.85 34.77-67.47 2.77-5.56 5.91-8.12 12.36-7.82 11.55.52 23.15.31 34.73.09 5.5-.11 6.86 2 5.84 7.21-9.333 47.493-18.563 95-27.69 142.52-.88 4.62-3.14 5.56-7.31 5.89-24.43 1.95-24.76 1.42-19.94-22.6 5.54-27.62 10.59-55.34 15.76-83 .377-2.856.59-5.73.64-8.61-3.9-.39-4.14 2.7-5.13 4.69-16.5 33-33.21 65.84-49.15 99.07-3.89 8.09-8.53 10.87-17.36 10.63-22.2-.6-22.39-.15-25.07-22.39-3.7-30.82-7.1-61.66-10.63-92.5l-2.95-.48zm-258.67 131.37c-9.24 2.29-17.24-1.16-21.4-12.13-2.38-6.29-6.34-7.07-12.76-5-21.75 7.15-43.62 7.12-64.33-3.37-28-14.2-37.42-39.22-36-68.7 2.79-57.08 46.42-92.56 102.85-84.55 32 4.54 54.8 28.89 57 61.53 1.78 26.56-3.74 51.12-22.19 71.42-3.28 3.62-3.58 6.45-1 10.41 4.78 7.24 8.94 14.89 13.87 22 4.44 6.38 3.41 8.93-4.5 8.38-3.21-.18-6.48.01-11.54.01zm-45.17-75.55c11.34-.61 20.26-2.28 25.16 8.92 2.29 5.24 5.23.42 6.63-2.18 5.57-10.34 8.68-21.41 8.28-33.23-.61-17.83-6.82-32.61-24.18-40.21-19.23-8.41-44.65-2.46-58.74 13.26-12.1 13.49-15.72 29.67-14.88 47.26 1.11 23.33 16.94 39.05 40.3 39.46 6.3.11 14.86 2.43 18.13-3.34 2.46-4.35-4.56-9.72-7-14.81-2.27-4.75-9.13-9.27-6.47-13.82 2.53-4.33 10-.76 12.77-1.31z"></path><path fill="#354466" d="M154.53 181.74c.77-75.69 70.64-104 120.86-83.56 26.48 10.76 40.37 35.63 39.7 69.55-1.18 60.19-57.45 100.67-114.77 82.58-29.17-9.21-46.06-34.5-45.79-68.57zm86-60.53c-36.26-.06-62.67 35.34-53.44 71.63 5.11 20.09 18.94 31.36 39.57 32.1 44 1.58 62.26-39.19 56.45-69-4.57-23.49-18.8-34.69-42.56-34.73h-.02zm116.05 60.89c-3.95 20.26-8.2 37.42-10.39 54.83-1.43 11.4-5.64 14.9-17 14.1-16.12-1.14-16.48-.35-13.6-15.58 8.47-44.68 17.21-89.31 25.83-134 .62-3.26 1.07-6.74 5.55-6.6 20.18.64 40.56-2.31 60.5 2.48 24.55 5.89 36 19.35 36.36 41.76.43 25.34-12 43.36-34.62 50.19-17.09 5.16-17.11 5.17-7.43 20.92 6.8 11.07 13.54 22.19 20.56 33.12 3.48 5.42 2.71 7.85-4 7.38a9.91 9.91 0 00-1.09 0c-24.21.85-24.15.82-35.54-21.15-7.82-14.94-15.8-29.81-25.13-47.45zm2.57-13.1a76 76 0 0037.68-4c9.13-3.42 14.63-10.18 15.45-20.2.66-8.11-1.58-15.34-8.78-19.58-10.22-6-21.61-4.09-32.7-3.33-2.81.19-3 2.5-3.44 4.66-2.74 14.1-5.48 28.13-8.21 42.45zm434.75-22.67c-8.83 2.58-15-2.29-21.33-10.8-10.91-14.74-37.33-18.77-55.79-10.22-24.53 11.37-38.68 41.1-31.94 67.09 9 34.79 53.3 45.42 79.78 17.72 12.1-12.67 25.22-7.35 38.07-8 6.1-.29 1.38 5.25.45 7-12.15 23.13-31.18 37.45-56.73 42.95-34 7.33-65.17-3.93-82.41-29.61-17.24-25.68-15.91-63.47 3.46-92 26.45-38.93 80.6-50.82 117.64-25.74 11.7 7.92 19.75 18.74 25.39 31.68 3.63 8.31 1.54 11.1-7.2 9.89-2.49-.29-5.06.04-9.39.04z"></path><path fill="#81BF51" d="M1655.87 146.25c-8.25 2.12-14.16-2.11-20.55-10.33-17.39-22.4-55.18-19.27-76.06 5.14-23.15 27.05-16.18 68.31 13.67 81 18.5 7.87 40.17 2.63 56.47-13.64 5.23-5.23 30.43-9.64 36.52-6.34 4.4 2.39.9 5-.16 7.15-8.44 16.77-21.61 28.77-38.37 36.92-40.34 19.63-90.36 3.78-107-34-21.1-48 12.89-110.24 64.77-118.53 40.67-6.5 72.08 8.25 87 40.86 5 10.8 4.46 11.63-6.93 11.75-2.49.04-5.03.02-9.36.02zm129.96 104.39c-10.82 3.21-14-3.55-15.8-14.6-2.63-16.55-3.38-16.44-20.59-16.44-13 0-26.06.51-39-.19-7.36-.4-11.62 2.27-14.31 8.62a31.739 31.739 0 00-1.53 2.86c-5.22 17.8-17.61 22.14-34.76 20-7.62-.94-9.56-1.44-5.2-9 16-27.5 31.35-55.33 47-83 9.94-17.63 20.3-35 29.64-53 4.19-8.05 9-11.41 18.39-11.06 20.6.79 20.78.2 25.23 20.2a19064.304 19064.304 0 0126.16 119.52c3.81 18.2 4.73 15.93-15.23 16.09zm-37.63-117c-10.43 18.81-19.51 35.15-28.55 51.52-1.93 3.5-1 5.51 3.23 5.51h31.48c4.3 0 6-1.93 5.1-6-3.52-16.08-7.1-32.15-11.26-51v-.03zm-618.64-38.5c3 0 5.24.19 7.39 0 6.47-.67 7.71 1.54 6.38 8-5.86 28.64-11.09 57.42-16.51 86.15a63.79 63.79 0 00-1.2 8.57c-.76 14.65 4.65 23.15 16.17 25.66 12.09 2.63 23.08-3.75 27.94-16.75 6.1-16.33 8.06-33.68 11.76-50.59 3.46-15.87 6.57-31.84 9.05-47.88 1.49-9.66 4.71-14.26 15.8-13.47 16.71 1.19 16.75.29 13.51 16.7-6.23 31.54-11.81 63.21-18.79 94.57-9.18 41.28-37.06 54.35-76.6 45.75-22.24-4.84-34.54-22.51-30.9-45.25 5.59-34.91 12.91-69.55 19.48-104.31 2.11-11.36 11.27-5.59 16.52-7.15z"></path><path fill="#354466" d="M585.25 250.74c-11.58 0-23.17-.25-34.73.09-6.7.2-9.56-.6-7.89-8.85 9.43-46.42 18.28-93 27.08-139.52 1.06-5.62 3.12-7.84 9.1-7.77 24.23.31 48.48.26 72.71 0 5.85 0 7.47 1.85 6.64 7.64-2.77 19.43-2.6 19.46-22.28 19.46-9.77 0-19.59.6-29.29-.2-7.55-.62-9.82 2.67-11.32 9.25-6.33 27.86-6.49 27.82 21.8 27.82 6.15 0 12.41.75 18.42-.16 11.49-1.72 10.53 3.86 9.37 12.28-1.61 11.62-6.79 15.43-18.38 14.25-11.59-1.18-23.13-.1-34.7-.34-4.73-.1-7.21 1.14-8 6.29-1.38 9.29-3.23 18.52-5.38 27.66-1.32 5.61 1.51 6 5.7 5.93 13.75-.1 27.5.17 41.24-.13 6.29-.14 9 .5 7.23 8.26-4.13 17.88-3.64 18-22.39 18l-24.93.04zm-79.8-155.92c15.2 0 30.39.17 45.58-.09 5.93-.1 7.25 1.77 6.38 7.67-2.83 19.25-2.57 19.29-22.24 19.29-16.94 0-16.66.05-20 17-6.64 34.06-13.89 68-20.25 102.13-1.53 8.25-5 10.3-12.91 10.12-19.87-.45-20-.11-16.19-19.75 6.64-33.68 13.32-67.35 20.43-100.93 1.43-6.78.46-9.2-6.85-8.68-7.92.56-15.93-.17-23.87.22-6.13.31-7-1.8-6.13-7.59 2.91-19.33 2.64-19.37 22.37-19.37l33.68-.02z"></path><path fill="#81BF51" d="M1230.86 250.63c-15.83 0-15.88 0-13-15 8.46-43.91 17.1-87.8 25.34-131.76 1.31-7 4.27-9.46 11.47-9.48 21.62 0 21.8-.3 17.72 20.89-7.733 40.04-15.593 80.04-23.58 120-3.58 18.04-.66 15.03-17.95 15.35zm245.29-.01c-3.6 0-5.44-.22-7.21 0-8.61 1.28-10.68-2.42-9-10.45 4.53-21.9 8.62-43.89 12.91-65.84 4.29-21.95 9.29-43.77 12.66-65.85 1.66-10.87 5.92-14.1 16.71-13.65 21.39.89 16.93-.38 13.66 16.69-8.08 42.14-17.13 84.11-24.45 126.38-2.03 11.78-6.73 14.7-15.28 12.72zM1253.5 82c10.24-18.45 26.1-21.52 44.91-17.46-9.76 19.03-26.26 20.73-44.91 17.46z"></path></g></svg>