<svg xmlns="http://www.w3.org/2000/svg" viewBox="176 33.999881744384766 248 189.00022888183594"><g fill="none" fill-rule="evenodd"><path fill="#EF7D00" d="M296.674 81.119c-1.867 12.507-11.907 13.378-17.899 1.504-23.658-42.985-58.834-17.1-21.401 18.76 6.615 5.384 5.525 9.58-2.569 9.104-40.156-14.882-32.296 9.975 8.872 20.266 6.148-.871 10.662 3.008 5.526 6.887-5.37 8.232 25.915 13.853 34.475 1.266 34.243 8.47 52.765-9.262 32.998-9.974-8.328-1.267-5.292-7.758 1.089-8.47 41.246-14.25 40.857-47.576.856-22.64-9.806 6.49-16.965 3.245-12.685-5.462 26.46-40.69-19.067-64.913-29.262-11.241zm10.896 62.458c-9.417 9.5-52.531 6.65-49.263-9.579-49.184-16.386-52.53-50.346-14.552-34.593-38.679-48.684 9.572-80.032 42.258-26.202 7.237-59.609 76.967-47.735 55.877 11.953 40.157-24.857 55.488 9.895 6.148 38.076 24.28.634-11.985 29.448-40.468 20.345z"></path><path fill="#000" fill-rule="nonzero" d="M349.475 178.627h-9.208v23.027c-3.59 17.31-23.177 14.133-24.504 0l-.156-23.265h-10.066l.156 22.391c.702 19.692 39.252 24.138 43.856 2.144v-24.297h-.078zM176 216.263h9.755v-22.947c.468-16.198 24.737-15.8 24.035 1.112v22.153h10.223v-23.026c-4.683-21.518-37.926-21.518-43.857-2.62L176 216.262zm84.592.715h9.598v-21.835c-1.639-27.473-56.108-21.439-40.657 13.498 5.775 9.528 20.211 11.434 28.405 5.479v-3.653c-8.74 1.985-15.295 4.129-20.055-6.352-8.506-25.17 22.865-30.41 22.396-8.893l.313 21.756zm153.81 1.509H424V196.65c-1.639-27.473-56.108-21.438-40.657 13.499 5.775 9.528 20.211 11.275 28.405 5.478v-3.493c-8.74 1.985-15.295 4.128-20.055-6.353-8.506-25.17 22.865-30.41 22.396-8.893l.313 21.598zm-34.493-39.304v3.414c-7.413-.635-11.315 2.541-11.783 9.37l-.624 25.805h-8.975V191.57c2.42-11.275 10.535-15.087 21.382-12.387zm-90.522-1.191h8.974l-.234 6.51h-8.272v26.045c.468 6.987 4.682 9.051 10.457 8.654v3.494c-11.081 1.35-19.197-1.509-20.914-14.054V161h9.989v16.992z"></path></g></svg>