<svg xmlns="http://www.w3.org/2000/svg" viewBox="0.5499515533447266 0.12000000476837158 1338.7938232421875 539.4269409179688"><g fill="none"><path fill="#D69005" d="M862.45 166.24c30.93-8.3 60.78-20.35 92-27.56l1.56 3c-14.11 7.59-28.18 15.26-42.34 22.76-14.43 7.64-29 15.12-43.23 24 45.2 5.33 90.48 6.84 135.14 15.25-44.64 8.95-90.07 9.65-135.25 15.88 28.05 16.66 57.74 29.58 84.81 47.72-24-2.54-45.94-13.72-72.94-17.55 15.22 11.95 27.89 21.51 40.1 31.63 6.46 5.36 12.17 11.64 18.12 17.61 1.36 1.37 2.25 3.34.85 5.16-1.6 2.06-3.59.83-5.1-.19-3.49-2.35-6.77-5-10.21-7.44-49.77-35.14-106.59-53.61-164.7-68.43-71.88-18.32-145.13-27.34-219.2-31-40.65-2-81.29-2.67-121.87-1-110.77 4.44-219.82 19.06-324.21 59-31.31 12-60.19 28.5-88.35 46.41-1.57 1-2.91 2.59-7.08.65 6.78-7.13 12.8-14.3 19.67-20.52 31.07-28.14 67.19-48.31 105.53-64.39 73.36-30.78 150.19-47.73 229.13-56.19a1063.71 1063.71 0 01137.72-6.24c69.85 1.59 139.14 8.9 207.33 24.87a12 12 0 003.38.64c4.49-.32 10 7.73 12.49 1.28 1.78-4.56-6.66-6-10.75-8.22-19.34-10.46-39.03-20.55-57.91-32.55 32.54 5.66 63.19 17.38 95.18 26.3-29.66-35.54-60-70.43-87.28-108 38.39 24.77 71 56.59 109.11 87.27-9.39-34-21.24-63.94-27.46-95.71 11.42 12.11 17.31 27.57 25.2 41.71 7.89 14.14 15 29 23.91 46.32C790.61 90.34 792.27 45 800.42.12c9.35 44.71 10.23 90.22 14.65 138.36 16.64-28.11 27.64-56.7 45.71-81.43-2.69 30.58-15.2 58.35-24.6 90.56 37.69-31.25 71.32-62.76 108.35-89.93l2.5 2.49c-9.45 12.07-18.57 24.43-28.43 36.16-16.27 19.37-33.1 38.27-49.52 57.52-2.91 3.42-6.51 6.57-7.47 11.36-.59.64-1.18 1.27-1.78 1.89l2.62-.86z"></path><path fill="#BF0101" d="M609.94 328.16c-13.47 57.74-25 115.92-37.29 173.94a49.67 49.67 0 00-.72 10.29c0 7.16 3.61 9.51 10.46 7.65 16.828-4.377 28.66-19.454 28.91-36.84.79-44.07 43.9-91.2 90-98.73 12.62-2.07 25-2.72 37.63.18 26.42 6.09 38.32 27.19 29.54 52.85-10.53 30.77-45.59 56.08-76.16 55-12.56-.45-19.3-5-25.64-17.66 29.4 1.17 48.2-15.71 63.72-37.64a45.26 45.26 0 006.78-15.7c4.08-17.73-7.35-28.46-24.91-23.91a39.65 39.65 0 00-18 9.73c-23.1 22.59-36.69 49.76-37.55 82.34-.65 24.92 12 35 36.55 30.2 22.89-4.48 41.55-17.17 59.36-31.25 16.27-12.86 30.07-28.23 43.38-44.06 3.55-4.22 5.39-9.1 6.49-14.41 2-9.74 5.62-19.44 5.83-29.21.26-12.87 5.94-15.54 17.24-14.24 9.45 1.08 23.78-2.93 27.46 1.85 4.91 6.39-2.26 18.39-4.09 28-.69 3.61-1.77 7.14-2.94 11.81 7.38-1.42 9.14-7.44 12.4-11.39 10.8-13.12 22-25.62 38.57-31.59 9.86-3.54 20.33-5.29 27.85 3.18 7.52 8.47 4.91 18.75.76 28.23-3.91 8.91-9.49 16.55-18.79 21.65-1.59-8.9-4.44-16.66-14.28-18.62-11.58-2.32-20.17 3.44-27.09 11.5-11.6 13.53-18.94 29.64-25.44 46a268.1 268.1 0 00-14.48 50.64c-1.25 6.88-4 9.17-10.54 8.44-3.78-.43-7.66-.07-11.5-.06h-1.43c-22.876-.01-22.715-.484-17.57-24.21 2.67-12.26 5.1-24.56 7.64-36.85.89-1.25 1.36-2.57-.1-3.66a16.13 16.13 0 00-1.97 2c-19.18 17.52-37.73 35.83-61.09 48.06-19.16 10-38.72 18.08-61.07 17.33-18.24-.62-33.88-6.45-45.45-20.69-4.22-5.18-6.13-5.35-11.14-.82-14.51 13.11-30.77 22.28-51.54 21.55-23.13-.82-34.33-13.55-30.61-36.66 1.21-7.49 2.71-14.94 3.19-22.9-10.35 11.74-19.46 24.33-31 34.72-16.28 14.69-33.73 26.34-57.25 24.78-18.92-1.26-33.41-12.85-37.59-31.36-8.49-37.64 10.84-79.12 47.35-103 22.48-14.69 47.05-18.84 73.39-18 26.08.86 26 .17 31.51-25.67 4.29-20.21 9.05-40.33 13-60.61 1.11-5.72 3.26-7.54 8.92-7.66 23.89-.52 37.68-.41 29.3 35.48zm-88.094 71.69c-9.89.042-20.393 2.61-29.806 9.88-25.7 19.83-39.88 45.85-41.88 78.24-.616 9.544-1.177 20.629 8.234 25.74.36.195.736.382 1.126.56 2.865 1.302 5.667 1.857 8.402 1.847l.373-.005c7.817-.175 15.091-4.914 21.765-9.932a41.45 41.45 0 003.29-3.21c24.06-22.98 39.14-51.61 50.89-82.16a484.39 484.39 0 001.624-4.271l.172-.464c5.728-15.459 3.79-15.94-16.828-15.955H527.8a61.302 61.302 0 00-5.405-.27zm584.004 55.36c12.58-10.28 22.54-20.95 24.36-37.08 1.7-15.07-7.88-24.22-22.73-21.11-15.72 3.29-26.22 13.61-34.9 26.15-14 20.24-23.33 42.35-23.78 67.24-.42 23.18 12.47 33.77 35.34 29.74 16.48-2.91 31.11-10.26 44.9-19.61 18.2-12.33 34.15-27.1 48.89-43.3 3-3.35 4-7.2 4.88-11.37 9.82-46.82 19.687-93.627 29.6-140.42 2.74-13.06 9.85-16.22 28.67-12.33 10.15 2.1 15.54 10.47 13.14 21.76-9 42.64-18.33 85.23-27.48 127.85-.12.55.42 1.25.72 2.09 5-1.08 5.49-6 7.62-9.21 12.66-19.31 25.65-38.24 47.54-48.44 8.9-4.15 18-5.7 27.92-3.64 21.63 4.5 30.72 16.06 28.47 38.3-2.28 22.52-8.83 44.26-12.86 66.47-2.94 16.15-6.5 32.59 6.83 46.74-11 5.29-21.85 4.74-32.27 3.15-15.35-2.33-23.93-16.48-20.78-34.15 4.7-26.36 10.23-52.58 15.29-78.89 1.19-6.17 4.14-13.44-2.76-17.66-7.41-4.53-14.26 0-19.75 4.79-19.58 17-30.67 39.91-42.2 62.37a280.35 280.35 0 00-21.62 55.54c-1.11 4.16-2.54 6.54-7.6 6.32-10.34-.44-20.72-.36-31.06 0-6.54.21-6.43-2.57-5.15-7.69 2.69-10.74 4.76-21.64 7-32.5.79-3.92 1.19-7.92 2.22-14.94-17.84 17.07-34.5 30.33-53.2 40.7-20.41 11.31-42 18.88-65.79 16.64-18.68-1.76-34.58-9.22-44.8-26.65-9.44 7.85-18.19 15.73-28.91 21.09-12.24 6.132-25.15 6.81-38.12 5.28-13.62-1.61-22-12.33-21.37-25.44 1.7-35.82 13-69.88 19.63-104.77 4.11-21.46 4.8-21.33 27.22-21.33 21.54 0 21.29-.06 16.74 20.84-7.09 32.51-13.74 65.12-20.73 97.66-1.1 5.1-2 10.32 2.36 13.85 5.31 4.27 10.39.19 14.7-2.54 6.42-4.07 12.28-9 18.36-13.64 5.46-4.15 4.47-10.12 4.47-15.83 0-62.87 64.7-115.35 126.45-102.52 30.83 6.4 43.33 38.23 24.62 62.68-9.47 12.31-26.76 15.29-50.08 7.81zm-743.14-160.5c-25.26-.95-46.59 1.23-67.2 9.16-68.9 26.49-107.9 108.25-82.54 173.77a82.44 82.44 0 0015.36 25.37c18.84 21.2 43.47 24.74 66.69 8.67 31.75-22 48.74-54.25 60.28-89.75 6.51-20 11.11-40.61 9.86-62-.68-11.71-3.7-22.17-15.24-27.39-11.94-5.4-22.59-1.49-31.72 6.81-25.81 23.48-37.45 54.5-45.33 87.25-4.64 19.32-6.43 39-3 59-22.12-1-37.89-28.87-40.79-48.89-7.18-49.51 29.44-96.35 70.15-114.12 19-8.29 38.49-12 59.24-9.2 30.2 4 54.45 27.75 54.28 59-.33 63.35-23.75 116-80.14 149.4-45.83 27.1-110 22.46-145.76-9-25.8-22.68-34.2-52-32-85.55 2.68-40.25 17.12-75.45 45.27-104 35-35.51 77.12-53.2 127.87-44.66 11.81 1.98 22.26 7.06 34.72 16.13zm620.68-4.49c15.71-.1 26.06 9.78 26.27 25.1.24 16.51-11.17 28.46-27.46 28.78-15.19.29-26-10.27-26.24-25.51-.2-16.84 10.84-28.26 27.43-28.37zM862.45 166.24l-2.62.86c.6-.62 1.19-1.25 1.78-1.89.27.34.55.7.84 1.03z"></path></g></svg>