<svg xmlns="http://www.w3.org/2000/svg" viewBox="0 0 489 107"><g fill="none"><path fill="#312782" d="M0 0h107v107H0z"></path><path fill="#FFF" d="M52.673 100.08c-38.917.519-58.42-56.917-24.726-90.738 6.878-6.66 16.63 1.384 24.29 7.698h3.222c8.27-7.785 15.932-13.407 24.203-7.439 31.691 25.69 16.02 90.479-26.99 90.479h.001z"></path><path fill="#312782" d="M53.108 92.987c-20.111 0-25.248-26.815-17.064-69.632 1.306-6.142 6.007-5.71 13.408-.173 2.699 2.335 5.572 1.99 8.532.173 5.833-4.671 10.883-6.488 13.233.865 7.923 41.866 4.702 68.508-18.109 68.767zM116 53.303c0-5.705.782-10.46 2.346-14.35 1.129-2.852 2.693-5.358 4.69-7.692 1.999-2.248 4.17-3.89 6.603-5.014 3.128-1.47 6.777-2.247 10.947-2.247 7.47 0 13.465 2.507 17.983 7.693 4.517 5.1 6.776 12.188 6.776 21.264 0 8.99-2.259 16.077-6.69 21.177-4.43 5.1-10.424 7.607-17.896 7.607-7.558 0-13.552-2.507-18.07-7.607-4.43-4.927-6.689-11.928-6.689-20.831zm10.599-.346c0 6.31 1.303 11.15 3.996 14.349 2.693 3.284 5.994 4.926 10.164 4.926 4.083 0 7.472-1.642 10.078-4.84 2.606-3.198 3.91-8.125 3.91-14.608 0-6.397-1.304-11.15-3.823-14.349-2.52-3.112-5.908-4.754-10.165-4.754-4.257 0-7.645 1.642-10.25 4.754-2.607 3.285-3.91 8.125-3.91 14.522zm77.231 28.006h-9.035v-5.964c-1.476 2.333-3.3 4.062-5.299 5.186-2.085 1.123-4.083 1.729-6.168 1.729-4.257 0-7.819-1.902-10.86-5.619-3.04-3.717-4.517-8.99-4.517-15.645 0-6.829 1.477-12.102 4.43-15.646 2.954-3.543 6.69-5.359 11.12-5.359 4.084 0 7.646 1.902 10.686 5.619V25.037h9.73v55.926h-.087zm-25.975-21.178c0 4.322.521 7.434 1.65 9.336 1.564 2.766 3.736 4.149 6.603 4.149 2.259 0 4.17-1.038 5.734-3.112 1.563-2.075 2.345-5.186 2.345-9.422 0-4.667-.782-8.039-2.258-10.027-1.564-2.074-3.475-3.111-5.908-3.111-2.346 0-4.257 1.037-5.82 3.025-1.564 2.16-2.346 5.186-2.346 9.162zm30.145.346c0-3.544.782-7.001 2.433-10.286 1.564-3.285 3.822-5.878 6.776-7.607 2.954-1.728 6.168-2.68 9.817-2.68 5.56 0 10.164 1.989 13.726 5.965 3.562 3.976 5.3 8.99 5.3 15.04 0 6.137-1.825 11.15-5.387 15.213-3.562 4.063-8.08 6.051-13.552 6.051-3.388 0-6.603-.864-9.643-2.507-3.04-1.642-5.387-4.149-6.95-7.347-1.65-3.284-2.52-7.174-2.52-11.842zm9.991.605c0 3.976.869 7.088 2.606 9.25 1.738 2.16 3.91 3.197 6.429 3.197 2.52 0 4.691-1.037 6.429-3.198 1.737-2.16 2.606-5.186 2.606-9.335 0-3.976-.869-7.002-2.606-9.163-1.738-2.16-3.823-3.198-6.429-3.198-2.52 0-4.691 1.037-6.429 3.198-1.737 2.161-2.606 5.187-2.606 9.25v-.001zm66.025 20.227h-9.73V60.304c0-4.408-.174-7.174-.608-8.47a6.87 6.87 0 00-1.998-3.026c-.956-.692-2.085-1.038-3.389-1.038-1.65 0-3.214.52-4.517 1.556-1.303 1.038-2.259 2.334-2.78 4.063-.521 1.642-.782 4.754-.782 9.335v18.239h-9.73V40.51h9.035v5.964c3.214-4.581 7.298-6.829 12.163-6.829 2.171 0 4.083.432 5.907 1.297 1.738.864 3.128 1.902 3.996 3.285a13.042 13.042 0 011.912 4.494c.347 1.643.52 4.063.52 7.175v25.067h.001zm23.63-40.453v8.557h-6.69v16.337c0 3.285.087 5.186.174 5.791.087.519.434.951.869 1.383.434.346 1.042.519 1.65.519.87 0 2.172-.346 3.91-1.037l.869 8.298c-2.26 1.037-4.865 1.642-7.732 1.642-1.738 0-3.301-.346-4.778-.95-1.39-.692-2.433-1.47-3.128-2.508-.695-1.037-1.13-2.42-1.39-4.149-.174-1.21-.347-3.716-.347-7.52V48.981h-4.344v-8.558h4.43v-8.038l9.73-6.224v14.262h6.777v.087zm1.303 19.621c0-3.544.782-7.001 2.432-10.286 1.564-3.285 3.823-5.878 6.777-7.607 2.953-1.728 6.168-2.68 9.816-2.68 5.56 0 10.165 1.989 13.727 5.965 3.562 3.976 5.299 8.99 5.299 15.04 0 6.137-1.824 11.15-5.386 15.213-3.562 4.063-8.08 6.051-13.553 6.051-3.388 0-6.602-.864-9.643-2.507-3.04-1.642-5.386-4.149-6.95-7.347-1.65-3.284-2.52-7.174-2.52-11.842h.001zm9.99.605c0 3.976.87 7.088 2.607 9.25 1.737 2.16 3.91 3.197 6.428 3.197 2.52 0 4.692-1.037 6.43-3.198 1.737-2.16 2.605-5.186 2.605-9.335 0-3.976-.868-7.002-2.606-9.163-1.737-2.16-3.822-3.198-6.429-3.198-2.519 0-4.69 1.037-6.428 3.198-1.738 2.161-2.607 5.187-2.607 9.25v-.001z"></path><path fill="#009EE2" d="M350 81.046V25h16.481c6.279 0 10.377.26 12.208.868 2.878.867 5.407 2.69 7.325 5.465 2.006 2.863 2.965 6.42 2.965 10.932 0 3.47-.61 6.333-1.744 8.676-1.133 2.342-2.616 4.164-4.36 5.552-1.744 1.302-3.488 2.256-5.32 2.69-2.44.52-6.016.78-10.725.78h-6.715v21.17H350v-.087zm10.29-46.503V50.42h5.668c4.098 0 6.802-.26 8.11-.867 1.395-.608 2.441-1.475 3.226-2.777.785-1.214 1.134-2.69 1.134-4.338 0-1.995-.523-3.73-1.657-5.032a7.019 7.019 0 00-4.098-2.516c-1.221-.26-3.663-.347-7.413-.347h-4.97zm43.34 46.503h-9.767V40.443h9.069v5.813c1.57-2.69 2.964-4.512 4.185-5.38 1.221-.867 2.616-1.3 4.186-1.3 2.267 0 4.36.693 6.453 1.995l-3.052 9.37c-1.657-1.128-3.14-1.736-4.622-1.736-1.395 0-2.529.434-3.488 1.215-.96.78-1.657 2.343-2.267 4.512-.523 2.168-.785 6.68-.785 13.62v12.494h.088zm36.624-12.927l9.767 1.822c-1.221 3.904-3.227 6.94-5.93 8.936-2.703 2.082-6.104 3.123-10.115 3.123-6.453 0-11.162-2.256-14.302-6.94-2.441-3.731-3.662-8.33-3.662-13.969 0-6.767 1.57-11.972 4.796-15.79 3.227-3.817 7.238-5.726 12.121-5.726 5.494 0 9.854 1.996 12.993 5.987 3.14 3.99 4.71 10.064 4.535 18.306h-24.504c.087 3.21.872 5.639 2.354 7.46 1.483 1.736 3.401 2.69 5.669 2.69 1.57 0 2.79-.434 3.836-1.388 1.134-.954 1.919-2.43 2.442-4.511zm.61-10.845c-.087-3.123-.784-5.466-2.18-7.114-1.395-1.649-3.052-2.43-5.057-2.43-2.18 0-3.924.868-5.32 2.603-1.395 1.735-2.092 3.991-2.092 6.941h14.65-.001zm24.679 23.772l-14.912-40.603h10.29l6.976 20.735 2.006 6.94c.523-1.734.872-2.95 1.046-3.47.349-1.127.698-2.255 1.047-3.47l7.063-20.735H489l-14.65 40.603h-8.807z"></path></g></svg>