<svg xmlns="http://www.w3.org/2000/svg" viewBox="0 0 737 178.10000610351562"><path fill="#1d2859" d="M246.1 109.8c-20.6 0-37.4-16.8-37.4-37.4S225.5 35 246.1 35c20.6 0 37.4 16.8 37.4 37.4s-16.8 37.4-37.4 37.4zm0-57.8c-11.3 0-20.4 9.2-20.4 20.4 0 11.3 9.2 20.4 20.4 20.4 11.3 0 20.4-9.2 20.4-20.4S257.4 52 246.1 52zm81.6 57.8c-18.3 0-33.2-14.9-33.2-33.2V36.8h17v39.8c0 8.9 7.3 16.2 16.2 16.2 8.9 0 16.2-7.3 16.2-16.2V36.8h17v39.8c0 18.3-14.9 33.2-33.2 33.2zm323.4-1.8h-17V68.3c0-8.9-7.3-16.2-16.2-16.2-8.9 0-16.2 7.3-16.2 16.2V108h-17V68.3c0-18.3 14.9-33.2 33.2-33.2 18.3 0 33.2 14.9 33.2 33.2V108zm-196.4 1.8c-20.6 0-37.4-16.8-37.4-37.4S434.1 35 454.7 35c20.6 0 37.4 16.8 37.4 37.4s-16.7 37.4-37.4 37.4zm0-57.8c-11.3 0-20.4 9.2-20.4 20.4 0 11.3 9.2 20.4 20.4 20.4 11.3 0 20.4-9.2 20.4-20.4S466 52 454.7 52zm244.9 57.8c-20.6 0-37.4-16.8-37.4-37.4S679 35 699.6 35c20.6 0 37.4 16.8 37.4 37.4s-16.8 37.4-37.4 37.4zm0-57.8c-11.3 0-20.4 9.2-20.4 20.4 0 11.3 9.2 20.4 20.4 20.4 11.3 0 20.4-9.2 20.4-20.4S710.9 52 699.6 52zM399.2 36.8c-14.5 0-26.4 11.8-26.4 26.4V108h17V58c0-2.4 1.9-4.3 4.3-4.3h18.3v-17h-13.2zM524.6 17h18.3V0h-13.2c-14.5 0-26.4 11.8-26.4 26.4V108h17V53.7H532c4.7 0 8.5-3.8 8.5-8.5s-3.8-8.5-8.5-8.5h-11.7V21.2c0-2.3 1.9-4.2 4.3-4.2zM552 36.8h17V108h-17z"></path><circle cx="560.5" cy="10.8" r="10.8" fill="#1d2859"></circle><path fill="#1d2859" d="M221.1 158.9c3.6.7 8.2 2.4 8.1 7.7 0 2.5-.9 4.4-2.8 5.8-1.9 1.3-4.2 2-7 2-5 0-8.4-1.9-10.2-5.8l5.5-3.1c.7 2.1 2.3 3.2 4.8 3.2 2.2 0 3.4-.7 3.4-2.1 0-1.3-1.9-2-4.4-2.7-3.6-.9-8.1-2.4-8.1-7.5 0-2.4.9-4.3 2.6-5.7 1.8-1.4 4-2.1 6.6-2.1 3.9 0 7.4 1.9 9.3 5.2l-5.4 2.9c-.8-1.7-2.1-2.5-3.9-2.5-1.6 0-2.8.8-2.8 2-.1 1.3 1.8 2.1 4.3 2.7zm30.4-9.6h6.3v24.4h-6.3v-2.9c-1.9 2.4-4.5 3.6-7.9 3.6-3.3 0-6-1.2-8.4-3.7-2.3-2.5-3.5-5.6-3.5-9.2 0-3.6 1.2-6.6 3.5-9.1s5.1-3.8 8.4-3.8c3.4 0 6 1.2 7.9 3.6v-2.9zm-6.8 19c2 0 3.6-.6 4.8-1.9 1.3-1.3 1.9-3 1.9-5s-.6-3.7-1.9-4.9c-1.3-1.3-2.9-2-4.8-2s-3.6.6-4.8 2c-1.3 1.3-1.9 2.9-1.9 4.9 0 2 .6 3.7 1.9 5 1.3 1.3 2.9 1.9 4.8 1.9zm34.9-19h6.3v24.4h-6.3V171c-1.5 2.3-3.9 3.4-7.3 3.4-2.7 0-4.9-.9-6.6-2.7-1.7-1.8-2.6-4.2-2.6-7.4v-15h6.3v14.2c0 3.3 1.9 5 4.8 5 3.3 0 5.4-2 5.4-6v-13.2zm2.4-9.8l-5.4 6.7h-6l3.9-6.7h7.5zm28.1 0h6.3v34.1h-6.3v-2.9c-1.9 2.4-4.5 3.6-7.9 3.6-3.3 0-6.1-1.2-8.4-3.7-2.3-2.5-3.5-5.6-3.5-9.2 0-3.6 1.2-6.6 3.5-9.1s5.2-3.8 8.4-3.8c3.4 0 6 1.2 7.9 3.6v-12.6zm-6.7 28.8c1.9 0 3.6-.6 4.8-1.9 1.3-1.3 1.9-3 1.9-5s-.6-3.7-1.9-4.9c-1.3-1.3-2.9-2-4.8-2-2 0-3.6.6-4.9 2-1.3 1.3-1.9 2.9-1.9 4.9 0 2 .6 3.7 1.9 5 1.3 1.3 2.9 1.9 4.9 1.9zm24-4.2c.8 3.1 3.1 4.6 6.9 4.6 2.4 0 4.2-.8 5.5-2.4l5.1 2.9c-2.4 3.5-5.9 5.2-10.6 5.2-4 0-7.3-1.2-9.7-3.7-2.4-2.4-3.7-5.5-3.7-9.2 0-3.7 1.2-6.7 3.6-9.2 2.4-2.5 5.5-3.7 9.3-3.7 3.6 0 6.5 1.2 8.8 3.7 2.3 2.5 3.5 5.5 3.5 9.2 0 .8-.1 1.7-.2 2.6h-18.5zm12.4-4.9c-.7-3.3-3.2-4.9-6-4.9-3.4 0-5.7 1.8-6.4 4.9h12.4zm41.4-9.9h6.3v24.4h-6.3v-2.9c-1.9 2.4-4.5 3.6-7.9 3.6-3.3 0-6-1.2-8.4-3.7-2.3-2.5-3.5-5.6-3.5-9.2 0-3.6 1.2-6.6 3.5-9.1s5.1-3.8 8.4-3.8c3.4 0 6 1.2 7.9 3.6v-2.9zm-6.8 19c1.9 0 3.6-.6 4.8-1.9 1.3-1.3 2-3 2-5s-.6-3.7-2-4.9c-1.3-1.3-2.9-2-4.8-2-2 0-3.6.6-4.8 2-1.3 1.3-1.9 2.9-1.9 4.9 0 2 .6 3.7 1.9 5 1.2 1.3 2.8 1.9 4.8 1.9zm38.9-17c1.8 1.8 2.6 4.2 2.6 7.4v15h-6.3v-14.2c0-3.3-1.9-5-4.8-5-3.3 0-5.4 2-5.4 6v13.2h-6.3v-24.4h6.3v2.7c1.5-2.3 3.9-3.4 7.3-3.4 2.7 0 4.9.9 6.6 2.7zm7.3-8.8c0-2.1 1.8-3.9 3.9-3.9 2.1 0 3.9 1.8 3.9 3.9 0 2.1-1.8 3.9-3.9 3.9-2.2 0-3.9-1.8-3.9-3.9zm.7 31.2v-24.4h6.3v24.4h-6.3zm48.2-15v15h-6.3v-14.6c0-2.9-1.5-4.6-4.1-4.6-2.9 0-4.5 2-4.5 5.5v13.7h-6.3v-14.6c0-2.9-1.5-4.6-4.1-4.6-2.8 0-4.6 2-4.6 5.5v13.7h-6.3v-24.4h6.3v2.6c1.5-2.2 3.7-3.3 6.8-3.3 3 0 5.2 1.2 6.6 3.5 1.6-2.3 4-3.5 7.3-3.5 5.6 0 9.2 4 9.2 10.1zm23.9-9.4h6.3v24.4h-6.3v-2.9c-1.9 2.4-4.5 3.6-7.9 3.6-3.3 0-6-1.2-8.4-3.7-2.3-2.5-3.5-5.6-3.5-9.2 0-3.6 1.2-6.6 3.5-9.1s5.1-3.8 8.4-3.8c3.4 0 6 1.2 7.9 3.6v-2.9zm-6.8 19c1.9 0 3.6-.6 4.8-1.9 1.3-1.3 2-3 2-5s-.6-3.7-2-4.9c-1.3-1.3-2.9-2-4.8-2-2 0-3.6.6-4.8 2-1.3 1.3-1.9 2.9-1.9 4.9 0 2 .6 3.7 1.9 5 1.3 1.3 2.9 1.9 4.8 1.9zm18.8 5.4v-35.6h6.3v35.6h-6.3z"></path><linearGradient id="fn694823bcedma" x1="1.63" x2="176.859" y1="89.088" y2="89.088" gradientUnits="userSpaceOnUse"><stop offset="0" stop-color="#037045"></stop><stop offset=".995" stop-color="#79bf43"></stop></linearGradient><path fill="url(#fn694823bcedma)" d="M179.1 89.5c0 45.1-33.4 82.4-76.7 88.6v-30.4c0-19.2 3.4-45.3 9.8-58.1 6.5-12.9 15.1-23.5 25.5-31.6 10.4-8 22.3-13.6 35.4-16.7 1.6-.4 4.2-.8 6-1v49.2zm0-58.5l-2.9.4C139.9 36 110.7 47.6 89.6 66c-27.2 23.6-41.1 56.4-41.4 97.5v5.6C19.5 154 0 124.1 0 89.5 0 40.1 40.1 0 89.5 0H179s.1 13.6.1 31z"></path></svg>