<svg xmlns="http://www.w3.org/2000/svg" viewBox="0.7996482849121094 0.3984546661376953 1011.2357788085938 295.7815246582031"><g fill="none"><path fill="#028BCB" d="M143.67 296.18c-52.82-2.28-98.14-27.52-125.14-79.81-27.26-52.77-22.59-105 10.59-154.33a53.59 53.59 0 0112.41-13.67c5.25-3.85 10.67-7.84 17.7-4.29 7.48 3.77 11.32 10.09 11.66 18.33.45 10.54-5.25 18.43-12.11 25.53-6.86 7.1-14.63 13.67-21.25 21.12-45.86 51.54-17.31 127.67 48 141.16 43.58 9 89.32-22.67 100.05-69 5.41-23.33.28-43.67-16-61.16-6-6.46-12.38-12.58-18.52-18.92-5.58-5.75-10.46-12.09-12.87-19.8-5.9-18.88 7.62-35.6 31.09-38.78 45.39-6.17 95.24 21.88 115.38 64.92 21.4 45.72 11.92 99.45-25 139.67-29.61 32.27-66.54 48.34-115.99 49.03z"></path><path fill="#028BCB" d="M68.1 24.9c42.43-29.63 106.93-32.9 148.43-7-7.44-.84-14.85-2-22.31-2.44-21.56-1.21-42.27 1.22-60 15.32-22.1 17.61-25.88 43.18-9.65 66.3 9.8 14 20.51 27.58 18.92 46.18-2.06 24.11-15.23 40.43-37 49.37-19.43 8-37.7 4.08-53.05-10.22-13.8-12.86-15.31-28.95-10.13-46.3 4.78-16 14.88-28.43 26.4-40 11.9-12 20.41-25.85 22.28-42.94 1.76-16-3.06-22.42-18.85-26.56-1.36-.33-2.61-.88-5.04-1.71z"></path><path fill="#1D1D1D" d="M500.82 102.3c-.17 46.72-30.17 77.9-77.13 80-12.64.56-25.2.18-37.65-3-40.53-10.28-62-43.05-54.94-84.4 7.1-41.58 36.41-66 81.7-68a110.72 110.72 0 0135.8 3.89c33.72 9.6 52.35 35.29 52.22 71.51zm-33.83.16c-.06-38.9-31.72-61.44-68.47-48.76-24.65 8.51-39.3 37.22-33.42 65.52 5.79 27.84 30.46 44.46 58.07 39.11 28.58-5.53 43.87-25.03 43.82-55.87zm74.66-9.93c13.47-21.55 54.4-23.15 63.93.31 10.59-16 26-19.25 43.44-16.76 15.91 2.26 25.07 13.36 23.79 29.44-.7 8.66-2.23 17.43-2.51 26-.43 12.86-1.37 25.83-.6 38.7.51 8.45-2.67 10.15-10.44 10-19.61-.52-20.12-.22-17.6-20.08 1.74-13.76 1.62-27.56 2.71-41.31 1-12.39-2.57-18-11.1-20.15-9.52-2.37-18.83 2.71-23.5 12.72-4.36 9.37-3.89 19.53-4.63 29.42-.74 9.89-.58 20-.81 30 0 1.47.47 3.26-.18 4.36-6.11 10.31-16 2.66-23.88 4.74-5.08 1.34-4.68-2.51-4.5-5.94.93-18.22 2-36.44 2.58-54.67.45-13.85-3.19-19.6-12.26-21.11-9.38-1.56-18.81 4.9-22.6 15.86-3.4 9.85-3.23 20.26-4 30.5-.36 4.68-.21 9.41-.31 14.12-.45 23.29-.44 23.15-24.32 21.49-4.19-.29-4.74-1.78-4.56-5.33 1.49-30.86 3.94-61.69 3.86-92.61 0-3.52 1.25-4.69 4.61-4.42 2.64.22 5.3 0 7.95 0 13.81-.04 13.81-.04 14.93 14.72zM801.21 200.7c9.35 4.62 19.7 4.76 29.18 8.9 13.65 5.95 35.9-7.16 38.65-22.44 1.29-7.18 2.43-14.47 1.78-23.32-10.15 11.46-21.89 17.28-36.6 17.1-27.63-.35-45-18.23-44.06-46 1.15-33.8 23.08-56.38 56.92-59 17.16-1.35 34 .51 50.9 3.33 4.26.71 5.14 2 4.77 6.05-3.06 34-4.52 68.09-5.05 102.24-.4 25.32-14.78 39.48-40.26 40.71a196 196 0 01-46.54-3.19c-6.29-1.2-10.18-3-9.62-10.3.33-4.35-1.46-8.72-.07-14.08zm71.81-85.39c.76-20.28.76-20.28-17.35-19.8-26.75.71-43.26 23.7-35.38 49.26 2.46 8 14.3 18.33 20.57 18 15-.85 27.1-11.66 30.13-27.14a98.87 98.87 0 002.03-20.32zm52.69-18.23c.1-1.76.16-3.51.29-5.27.53-7.26 2.63-11.78 11.55-13 15.5-2.16 30.85-4.35 46.51-2.75 20.52 2.11 29.14 12.2 27.85 32.8-1.42 22.49-3.12 45-4.31 67.46-.15 2.77-.36 3.74-3 3.65h-2.65c-21.81.62-21.54.64-20-20.9.69-9.91.12-19.92.12-29.94-9.76 3.17-20.33 6.39-30.74 10.09a26.57 26.57 0 00-8.85 5.57c-4.24 3.94-6.05 9.22-2.55 14.27 3.64 5.25 8.9 8.71 15.84 8.17.8-.06 1.64-1.1 2.33-1 4.15.82 9.53-5.36 12.06.19 2.68 5.87-4.22 14.38-11.06 15.28-8.8 1.15-17.62 1.18-26.29-1.06-10.75-2.79-18.55-8.87-20.84-20.25-2.7-13.4 1.48-23.62 12.34-30.55 9.84-6.28 21.19-8.44 32.29-11.18 6.83-1.68 13.81-2.92 20.06-6.33 4.35-2.37 7.78-5.61 6.74-11.18-1-5.37-5-7.89-10-8.67-11.52-1.84-22.82-.38-34 2.89-4.41 1.29-8.84 3.28-13.63 1.49l-.06.22zm-177.27 33.09c-10.3 0-20.61.21-30.9-.1-4.7-.14-6 1.33-5.8 6 .66 13.85 9.76 24.42 23.61 26.62 10.67 1.7 21.18.39 31.33-2.83 7.91-2.51 9.08 1.54 8.86 7.74-.28 7.93-3.47 12.23-12.26 13.06-15.87 1.5-31.57 3.15-47.21-1.57-19.53-5.9-31-20-32.43-40.3a79.54 79.54 0 011.85-25.4c5.6-22 21.66-35.56 44.44-37.62a95.7 95.7 0 0119.37.27c25 2.77 40.9 23.84 37 48.64-.71 4.62-2.79 5.64-7 5.54-10.26-.22-20.56-.06-30.86-.05zm-35.55-13.48h42.17c2.58 0 4.3-.17 4.38-3.69.25-11.65-7.57-20.28-19.32-20.79-14.73-.62-24.51 7.97-27.23 24.48z"></path><path fill="#028BCB" d="M712.17 240.29c-4.12 1.59-7.17 5-11.7 5.7-11.22 1.61-19-2.08-22.3-11-4-10.91.28-24.59 9.75-30.29 10-6 20.86-4.77 31.68-3 3.65.6 2.45 3.3 2.36 5.51-.53 12.32-1.13 24.63-1.58 37-.65 17.85-6.76 23.61-24.54 22.76-3.21-.16-6.37-1.12-9.58-1.29-3.54-.18-6.21-1.58-5.09-5.2 1-3.31 3.87-.21 5.89-.33 1.41-.07 2.85.61 4.3.87 16.36 2.93 22.98-3.51 20.81-20.73zm1.86-24.88c.42-4.11 1.83-10.05-7.7-10-12.46.05-21.72 7.91-22.15 19.93-.32 9 4.78 15.12 13 15.47 11.05.45 16.42-7.08 16.85-25.4zM597.4 227.44c0 4.7-.08 9.41 0 14.11.06 2.78-.64 4.33-3.88 4.34-3.43 0-3.78-1.76-3.64-4.46.35-6.46.55-12.93.85-19.39.53-11.18-1.58-14.62-9.59-15.56-9.11-1.07-16 4.13-17.24 13.57-.88 6.7-1.12 13.48-1.65 20.22-.19 2.46.79 5.38-3.6 5.48-4.22.1-4-2.39-3.82-5.12.59-11.75 1.34-23.49 1.73-35.24.16-4.83 5-4.86 5.65-3.44 3.39 7.73 6.41 1.61 9.42.21 15.61-7.26 27.87 1.1 26.64 18.24-.17 2.35-.36 4.69-.53 7l-.34.04zm44.72 11.46c.4 3.4-.26 5.41-2.74 6.57-7.14 3.34-24.13.28-29.11-5.27-6.33-7-6.82-21.72-1-30.63 5.31-8.17 15.4-11.29 25.71-8.11a15.59 15.59 0 019.47 7.35c5.29 9.4 2.78 13.76-7.83 13.77-5.88 0-11.79.4-17.62-.11-6.56-.57-6.72 3.13-5.56 7.53 1.65 6.26 5.88 9.9 12.44 10.75 5.3.69 10.43-.35 16.24-1.85zm-28.75-21.2c7.6 0 14.3-.23 21 .07 5.54.25 5.69-2.11 3.92-6.27-2.15-5-6-6.67-11.19-6.4-7.47.38-11.57 4.48-13.73 12.6zm-67.05 20.87c-1.34 3.07-1.59 5.22-2.78 6.12-5.88 4.47-25.23 1.32-30.57-4.71-6.9-7.82-6.48-24.61.83-32.78 6.9-7.72 20.94-9.37 29.07-3.38a15.29 15.29 0 015.5 7.76c3 9 1.71 10.95-7.56 11-6.77 0-13.53.17-20.29 0-4-.13-5.14 1.52-4.61 5.27 1 7.33 5 11.65 12.36 12.88 5.57.87 10.99-.38 18.05-2.16zm-30-20.87c7.57 0 14.53-.21 21.46.06 5.3.21 4.94-2.28 3.52-5.89-2.16-5.51-6.33-7.13-11.86-6.71-7.5.56-11.28 4.85-13.13 12.54h.01zm260.89 3.41c-6.19 2-12.34 3.78-18.29 6.05-3.72 1.42-6.8 4-5.92 8.65.88 4.65 4.49 5.75 8.49 6.33 3 .42 6.31-1 10.12 2.42-7.66 2.64-14.35 2.91-20.61-.33-8-4.13-7.22-15 1.19-20 5.39-3.15 11.66-3.73 17.51-5.58 4.14-1.32 9.17-2.74 7.93-8.67-1.12-5.31-6.05-5-10.06-4.86-5.16.23-10.29 1.2-15.49 1.85-.64-3.75 1.27-5 4.29-5.37 3.5-.44 7-1.21 10.48-1.39 15.28-.82 19.59 3.66 18.67 18.82-.45 7.33-.7 14.68-.86 22-.06 3.1-.65 4.91-4.42 4.73-3.77-.18-3.1-2.44-3.06-4.81.09-6.37.03-12.8.03-19.84zm-123.97 2.42c0-5.85.13-11.7-.06-17.55-.11-3.44 2.49-6.16 4.33-4.19 4.68 5 7.63.29 11.29-.64a29.66 29.66 0 015.12-.89c2.81-.18 3.29 1.74 3.34 4 .06 2.63-1.53 2.54-3.46 2.44-9.06-.47-12.47 5.26-13.43 13-.72 5.79-.4 11.71-1.18 17.48-.41 3.05 3 8.85-3.84 8.45-6.43-.37-2.71-5.85-3.14-9-.59-4.3-.15-8.75-.15-13.14l1.18.04zm78.81.37c0-6.15.07-12.3 0-18.45 0-3.16 1.55-3.95 4.38-3.93 3.24 0 3.69 1.58 3.54 4.48-.6 11.69-1 23.39-1.31 35.09-.08 3.19-.84 4.78-4.47 4.74-4.19 0-3.88-2.58-3.67-5.29.42-5.54.88-11.08 1.33-16.63l.2-.01zm2.67-32.17c-.19 0-2.46.3-2.41-2.82 0-2.9 2-3.16 4.15-3.08 2 .06 4.24-.49 4.14 2.81-.07 2.87-1.83 3.26-5.88 3.09z"></path><path fill="#1D1D1D" d="M925.8 96.9l-.29 1.24c.15-.11.43-.21.43-.32a2.3 2.3 0 00-.21-.7l.07-.22z"></path></g></svg>