<svg xmlns="http://www.w3.org/2000/svg" viewBox="0.13728709518909454 0.8880600929260254 843.8450317382812 441.6922607421875"><g fill="none"><path fill="#E6A718" d="M231.68 200.53c-14.68-.12-15 .23-9.1 12.81 2 4.3.85 6.09-3.39 6.65a26.52 26.52 0 01-5.42.14c-13.61-1.06-16.12 2.5-11.23 15.72 1.15 3.12 5.08 6.52 1.13 9.67-3.25 2.59-6.91.05-10.17-1.45-2.62-1.2-5.17-2.59-7.78-3.83-12.15-5.72-12.35-5.75-15 7.64-.91 4.63-2.93 5.46-6.64 3.51a42.55 42.55 0 01-7.28-4.67c-10.17-8.41-10.13-8.45-13 4.13a11.06 11.06 0 01-.92 3.12c-2.45 4.18 2.52 12.14-3.87 13-5.64.73-9.13-6.14-12.47-10.83a37.47 37.47 0 01-3.95-6.44c-3.92-9-8.31-9.27-13.07-.78-4.07 7.28-7.25 5.46-10.22-.72-1.08-2.25-2-4.58-3.12-6.8-1.44-2.83-2.4-6.4-6.71-5.91-3.89.45-8.11.26-9.67 5.27-1.34 4.3-4.31 9.46-8.35 8.62-4.84-1-5.24-7.15-5.46-11.93a80.84 80.84 0 01-.09-11.95c1-9.93-3.85-9-10.25-6-8.52 4-10 2.87-9.33-7 1-15-2.42-17.23-16.79-10.71-2.55 1.16-5.23 4.31-7.84 2.21-3.18-2.57-2-7-.85-10.18a78.21 78.21 0 017.87-15.3c3.59-5.43 2.47-7.57-3.8-8.49-3.62-.53-8.88 2.29-10.57-2.75-1.69-5.04 2.92-8.73 5.64-12.29 6.3-8.24 5.87-10.12-4.29-12.76-1.05-.28-2.13-.42-3.2-.61-4.4-.77-11.15 1.14-12.25-3.93-1-4.81 5.56-7.78 8.43-11.83.94-1.33 3.06-1.81 4.61-2.72 11.65-6.86 11.9-7.16 1.88-15.45-5.48-4.53-1.81-5.79 1.34-8.69 4.41-4.09 14.43-2.31 13.77-11-.49-6.51-7.57-9.15-12.42-12.82-1.68-1.27-4.35-2.44-2.94-4.91a7.79 7.79 0 015.12-3.39 125.7 125.7 0 0119.46-1.17c7 .26 10.71-1.92 8.42-9.24-2.36-7.54.41-9.45 7.66-9.23 12.47.39 14.15-1.91 11.41-14-.85-3.78-3.87-8.24.24-10.89 3.79-2.43 8.37-.56 12.12 2.18a51.81 51.81 0 007.27 4.7c5.73 2.85 10.37 3.82 9.92-5.48-.16-3.22-1.8-8 2.38-9.72 3.89-1.65 6.25 2.83 9.4 4.33a15.71 15.71 0 014.91 4.2c4.61 5.47 7.26 2.93 9.1-2.19 1.47-4.08 3.28-8.23 3.68-12.47.85-9.14 3.71-8.41 9.46-3.14 4.64 4.25 5.9 9.82 7.58 15.19 1.07 3.39 2.45 6.56 5.69 7.07 3 .47 4.64-2.87 6.23-5.27a15.47 15.47 0 011.78-2.71c2.77-2.71.2-10.12 5.37-9.23 5.51.93 7.16 7.18 8.31 12.67.69 3.32-.23 8 4.18 9.27 4.64 1.36 6.82-2.82 9.81-5.37 3.41-2.91 5.91-9.07 10.79-7.67 5.15 1.48 3 8.2 4.68 12.39a14.84 14.84 0 011.06 6.31c-.55 8.07.38 12.87 10.3 7.71 6.68-3.47 9.07.72 8.77 7.22-.75 15.84 2.14 17.88 16.82 12.08 2.82-1.12 5.52-4.86 8.67-1.85 2.37 2.27-.41 5.41-.48 8.22-.1 4.88-2.28 9.05-5.48 12.71-6.12 7-3.87 11.19 4.67 12.31 8.19 1.07 9.54 3.72 4.48 10.63-8.66 11.82-7.09 14.76 7.73 17.71 3.29.65 8.57-1.46 9.45 3.05.94 4.8-3.25 7.44-7.63 9.07a16.26 16.26 0 00-4.45 3c-4.34 3.66-13.15 2.64-13.79 9-.64 6.36 7.36 7.38 11.86 10.43 4 2.71 2.94 5.33-.64 7.38a55.46 55.46 0 01-7.83 3.71c-2.88 1.11-7.61.65-7 5.09.51 3.54.85 7.72 5.09 10.12 4.24 2.4 11.59 5.05 9.88 9.68-1.84 5-9.54 5.4-15.37 5.82-1.4.15-2.86.03-4.31.03zm-99.19 4.31c39 2.78 73.81-32.77 74.001-72.76.229-38.82-33.001-71.88-71.841-72.14-40.99-.29-74.16 31.71-74.26 71.48-.11 40.76 33.82 75.46 72.1 73.42z"></path><path fill="#04539C" d="M492.43 133.12c.82 30.21-5.45 58-26.91 81.07-35.15 37.72-119.72 38.08-151.23-10.35a104.74 104.74 0 01-16.25-45.53c-3-25.74-3-51.39 6.62-76 16.14-41.44 58.5-63.66 107.28-56.66 48.11 6.89 76.12 37.82 80.42 89.07.52 6.06.07 12.24.07 18.4zm-146.86 5.53c1.76 10.47 1.16 21.64 4.51 32.64 7.37 24.2 21.76 35.91 45.37 35.06 23.84-.85 39.72-14.23 45-37.61 5.51-24.42 4.73-48.85-.23-73.14-4.51-22.13-21.09-35.29-44-36-23.19-.7-39.08 11.13-45.9 33.4-4.47 14.81-4.59 29.92-4.75 45.65zM697.65 28.38c16.25-5.48 25.52 5.38 32.9 20.88 4.8 10.08 11.57 19.2 16.93 29 4.34 8 7.26 5.79 10.85-.46 7.94-13.75 16.51-27.15 24.06-41.15 3.47-6.45 7.88-8.54 14.78-8.26 9.4.39 18.83 0 28.24 0 3.45 0 7.82-2.12 9.84 2 1.54 3.18-1.46 6.07-3.09 8.8-16 26.71-31.64 53.58-48.08 80-4.94 7.92-4.63 13.91.16 21.7 18 29.2 35 59 53 88.15 4.62 7.48 2.22 8.67-4.71 8.62h-1.09c-35.49 1-35.43.95-54.14-29.78-6-9.87-12.61-19.4-18.57-29.31-4-6.63-6.66-8.73-11.72-.43-10.69 17.51-22.52 34.51-33.42 51.93-3.48 5.57-7.43 8.14-14.09 7.73-7.93-.5-15.92.05-23.89-.06-11.2-.14-12.14-1.41-6.59-10.78 17.15-28.92 34.25-57.88 52.07-86.39 5-8 4.64-14-.13-21.69-16.35-26.47-32.13-53.29-48-80.07-5.7-9.64-5.23-10.22 6.49-10.41 5.09-.08 10.16-.02 18.2-.02zM577.29 241.75c-21.84-.74-39.29-2.84-56.43-8.18-8.83-2.75-11.82-7.37-11.69-16.44.33-22.58.06-22.94 21.11-16.59 17.35 5.24 34.93 5.69 52.69 4.41 13.18-.94 22.5-9.41 24.11-21 1.86-13.46-2.87-21.13-16.39-26.87-13-5.5-27-7.48-40.28-11.91-27-9-40.14-25.86-40.45-55.21-.34-31.65 13.17-52.43 40.75-60.56 26.81-7.9 53.62-5.76 80.24 2.1 8.26 2.44 11.27 6.88 11.06 15.7-.52 22 0 21.88-21.32 17-14.88-3.38-29.94-5.49-45.22-2.88-12.78 2.18-20.17 9.11-21.31 19.74-1.21 11.13 3.69 19.24 16.4 23.68 12.94 4.53 26.53 7.15 39.56 11.43 33.41 11 46.1 31.47 42.84 68.06-2.63 29.54-22.75 50.34-53.8 55.22-8.56 1.34-17.16 2.89-21.87 2.3zm-6.71 84.37H307.65c-5.76 0-11.26 1.19-11.415-8.25-.135-8.5 2.605-10.34 10.475-10.3 55.78.27 111.55.14 167.32.13h357.46c11.37 0 14.73 4.54 11.09 15.33-.68 2-.78 3.87-4.82 3.82-48.49-.59-97-.66-145.49-.75-40.56-.08-81.123-.08-121.69 0v.02zm-2.48 34.46c-87.68 0-175.37-.09-263.05.18-7.17 0-8.41-2.76-8.64-8.86-.25-6.92 1.85-9.52 9.19-9.5 60.88.21 121.75 0 182.62 0 114.14 0 228.28.06 342.42.18 5.3 0 12-2.27 12.215 7.55.135 8-2.465 10.76-10.635 10.69-50-.42-100-.44-150-.52-38.04-.06-76.08-.06-114.12 0v.28zm2.72-87.76c86.96 0 173.92-.017 260.88-.05 6.46 0 11.29.32 11.26 9 0 8.44-4.35 8.95-11.11 8.95-171.027-.127-342.057-.127-513.09 0-3.63 0-7.27-.16-10.87.19-7.12.68-11.52-.46-11.55-9.48 0-9.28 5.52-8.54 11.42-8.54l263.06-.07zm135.2 145.83c.14 14.94-7.3 23.41-20.79 23.68-14 .27-22-8.36-22-23.69 0-13.5 8.24-22.31 21.09-22.56 14.03-.28 21.55 7.57 21.7 22.57zm-10.69 3.92c-.33-9.84-.32-17.89-9.32-18.77-8-.79-11.12 5.34-11.32 12.8 0 1.09-.05 2.17-.09 3.26-.34 8 3 16.39 10.42 16.39 7.73-.01 10.41-8.6 10.31-13.69v.01zm79.93 19.57c-8.25 1.92-12-2.44-11-13.06a156.87 156.87 0 00.1-23.75c-.33-6.7 2.52-9.18 8.9-8.72 4.65.34 9.38 0 14 .64 4.62.64 10.31 4 9.28 7.52-2.85 9.91 4 18.86 1.69 27.93-2.65 10.64-12.45 8.87-22.97 9.44zm13.6-14.71c-1.22-5.33-6-5.49-10.15-5.72-5.09-.3-3.83 4.28-4.24 7.1-.7 4.88 2.39 6.27 6.6 6.21 4.79-.07 7.24-2.62 7.79-7.59zm-1.79-17.78c-.32-3.8-2.73-5.52-6.32-6-3.75-.5-5.36 1.74-5.64 5-.31 3.56.9 6.66 5 6.86 3.74.14 5.87-2.3 6.96-5.86zm-163.13 10.17v-5.43c.26-17.32 8.41-22.77 25-16.69 6.62 2.42 9.58 7.26 9.17 14.32-.38 6.47-2.89 11.21-9.74 12.47-7.4 1.37-15.65 1.4-13.66 13 .48 2.77-2.63 4-5.41 4-3.47 0-5.34-1.83-5.34-5.38v-16.3l-.02.01zm23.46-8.79c-.48-4.41-3-6.93-7.7-6.74-4.7.19-4.33 3.87-4.46 7-.15 3.9.48 7.35 5.67 6.76 4-.4 6.67-2.29 6.49-7.02zm-110 7.88v-4.34c.11-18.39 4.51-21.77 22.47-17.23 9.46 2.38 14.34 11.13 8.7 18.9-5 6.95-2.73 11.56.32 17.5 1.09 2.12 6.09 5.56.55 7.58-3.16 1.16-8.17 2-9.71-3.72a19.29 19.29 0 00-1.6-4c-1.82-3.38-2.78-8.72-7.6-7.86-4.56.81-2.89 5.91-3.13 9.25-.24 3.34 0 6.72-4.8 6.73-4.47 0-5.22-2.93-5.2-6.55.03-5.43 0-10.85 0-16.26zm22.4-8.23c-.21-4.11-2-6.64-6.45-6.94-5.08-.34-5.91 3-6.08 6.82-.17 3.82.69 7.37 5.8 6.75 3.83-.46 6.98-1.88 6.73-6.66v.03zM725.86 419v-3.24c.06-20.7 1.69-22.09 22.28-19.12 2.1.3 4.67 0 4.78 3 .11 3-1.61 4.58-4.77 4.34-1.07-.08-2.16 0-3.24 0-4-.14-7.43.52-7.5 5.49-.07 4.48 3.27 4.89 6.66 5.2 2.84.25 6.4.14 6.41 4.12 0 4.27-3.7 3.62-6.45 3.64-4.16 0-7.1 1.14-6.84 6.09.26 4.95 3.43 5.35 7.38 5.85 4.4.57 12.35-2.86 11.84 4.68-.33 5-7.95 2.58-12.29 2.68-18.21.43-18.21.3-18.26-22.73zm-215.71 3.16c5.36-5.43 11.7-5.6 16.24-2.51 5.38 3.64 2.94 10.71 2.47 16.24-.55 6.44-6.36 6-10.92 6.29-10.13.71-19.78 0-24.71-11.06-4.42-9.93-1.93-22.68 5.61-29.88 6.92-6.61 15.09-5.75 23.39-4.18 2.26.42 4.57 1.94 4.32 4.19-.38 3.4-3.49 2.67-6 2.7-16.78.21-21.9 6.35-18.24 21.75.08.35.2.69.28 1 1.14 5.37 4.76 8 9.93 8.4 3 .23 6.11-.61 6.74-4.11 1.16-6.47-5.59-5.34-9.11-8.83zm304.82-4.09c-2.39-4.59-4.43-8.8-6.73-12.85-1.42-2.51-4-5.14-.76-7.55 3.48-2.6 6 .35 8.17 2.79a29.71 29.71 0 013.13 4.4c3 4.95 5.87 4.65 8.87 0 1.56-2.41 2.94-5 4.94-7a4.49 4.49 0 016 0c1.85 1.47.65 3.34-.1 4.89a55.4 55.4 0 01-3.29 5.6c-5.08 8-7 15.56 1.31 23.1 2.17 2 6.28 6.11 2.68 9.08-4 3.25-8.22.78-10.52-3.77-4.91-9.75-9.45-9.69-13.74.4-1.71 4-5.22 5.77-8.77 4.07-5.47-2.63.21-5.45 1.05-7.72 1.97-5.33 5.05-10.23 7.76-15.44zm-226.48-3.49c0 4-.27 8 .07 11.93.47 5.44 3.58 8.61 9.24 8.44 5.3-.16 7.81-3.54 8-8.45.3-6.86 0-13.74.29-20.61.11-3.41-.69-8.44 4.2-8.5 5.58-.06 4.88 5.18 4.93 9.07.07 6.51.26 13-.11 19.53-.66 11.84-6.06 16.55-18.24 16.46-12-.08-17.55-4.92-18.34-16.52-.46-6.85-.41-13.74-.42-20.61 0-4-.12-8.57 5.68-8.55 5.8.02 4.24 4.76 4.51 8 .27 3.24.06 6.51.06 9.77l.13.04z"></path><path fill="#E6A718" d="M132.65 192.55c-32.75.76-61.92-24.49-59.82-59.13.81-13.4-1.58-28.52 10.71-39 14.13-12 28.61-23 48.82-22.54 36.83.77 62.81 26.77 62.13 63.16-.51 27.72-28 60.9-61.84 57.51z"></path></g></svg>