<svg xmlns="http://www.w3.org/2000/svg" viewBox="0.01971435546875 0.879913330078125 1806.816650390625 676.8079833984375"><g fill="none"><path fill="#BA0542" d="M340.32.88c186.56.06 337.1 151.35 337.17 338.86.07 187.71-152.31 339.21-342.12 337.94C149.5 676.45-.24 524.88.02 336.79.28 151.47 152.58.83 340.32.88zm11.11 303.74c-25.92 0-45.33 19-49.28 47.82-3 21.92-5.36 44-17.91 63.31-20.53 31.62-50.81 47.32-86.81 53.95-10.21 1.87-20.55 3.41-29.86 8.66-18.43 10.4-28.8 31.61-25 51.59 3.86 20.61 22.2 37.55 43.96 40.61 18.12 2.57 38.13-9.15 47.49-27.79 4.76-9.47 6.24-19.82 8.13-30 10-54 42.71-87.55 93.95-104.31 10.31-3.37 21-5.58 31.25-9.1 22.64-7.78 37.39-32 33.51-54.17-3.88-22.17-26.33-40.58-49.43-40.57zm196 43a43.93 43.93 0 00-4.67-20c-10.11-21-28.58-27.93-49.83-29.8-61.12-5.36-99.34-42.55-109.83-101a214.52 214.52 0 00-5-21.52c-6.91-24-29.49-39.67-53-37-21.67 2.4-41.79 23.26-43.59 45.26-1.89 23.07 13.82 44.32 38 50.82 9.2 2.48 18.65 4 28 6.11 46.29 10.29 75.87 39.62 92.74 82.67 5.52 14.07 8.22 29.24 13.67 43.34 8.62 21.86 31.493 34.577 54.61 30.36 20.95-3.94 38.9-26.62 38.97-49.3l-.07.06zm0-161.16c.31-27.79-20.21-48.35-48.41-48.49-29.56-.14-54.55 24.77-54.92 54.76-.31 25.36 21.32 47 47.26 47.27 30.07.31 55.76-24.23 56.07-53.54zm-350.88 211c27 0 48-20.69 47.95-47.36 0-30-25.72-55.36-55.83-55.09a47.67 47.67 0 00-47.24 48.4c.599 30.019 25.105 54.04 55.13 54.04l-.01.01zm46.19-211.9c.86-26.09-17.49-46.37-42.95-47.49-30.36-1.36-57.43 23.76-58.36 54.19-.83 25.73 19.14 46.58 45.16 47.16 28.66.64 55.19-24.8 56.15-53.86zm1360.81 251.83c0 36.3-.48 72.61.28 108.89.24 11.08-3 13.84-13.67 13.48-22.27-.73-22.3-.14-22.3-23 0-47.76.27-95.53-.13-143.29-.09-9.52 2.62-11.56 12.27-12.74 20.36-2.47 32.13 4.77 42.09 22.7 16.2 29.15 35.31 56.68 53.32 84.81 2.19 3.43 3.33 7.92 9.49 10.28v-69.1c0-13 .29-26.05 0-39.07-.17-6.54 1.72-10 8.77-9.16.432.04.868.04 1.3 0 25.72-.85 25.71-.85 25.7 24.59 0 46.89-.25 93.79.19 140.68.09 9.57-1.67 12.46-12.38 13.55-18.7 1.9-28.63-5.26-37.77-21-20.28-34.79-42.68-68.35-64.22-102.41l-2.94.79zm-340.76 121.98c-12.86 0-23.26-.3-33.64.12-6.14.24-9.34-2.43-11.93-7.64-9.08-18.25-18.51-36.33-27.77-54.5-4.32-8.46-27.67-15.11-35-9.8-3.41 2.46-2.07 6.35-2.09 9.63-.1 17.82-.34 35.64.17 53.44.2 7-2.39 8.68-8.91 9-29.34 1.46-29.33 1.65-29.33-27.55 0-46.06.26-92.12-.23-138.18-.11-10.21 2.82-13.3 13.17-12.94 25.18.87 50.43-.3 75.59.75 34.85 1.45 56.31 26.36 52.42 59.11-1.83 15.39-9.11 27.77-23.16 33.87-11.41 5-9.73 10-4.85 18.63 11.89 21.06 22.98 42.59 35.56 66.06zm-110.53-127c0 27.41 0 27.49 27.31 26.72a113.22 113.22 0 0018.1-1.85c14.74-2.8 20.61-10.1 20.08-24.11-.5-13.27-7.8-21.39-21.71-23.21a167.67 167.67 0 00-20.8-1c-22.99-.05-22.99.01-22.98 23.48v-.03zm141.52 37.68c0-26 .27-52.05-.16-78.07-.14-8.5 2.44-11.26 11.15-11 20.8.72 41.65 0 62.45.53 46 1.23 76.08 30.2 79.35 76.21a162.55 162.55 0 01-.3 27.29c-4.44 45.61-32.63 72.26-78.52 73.92-21.22.77-42.5.16-63.74.68-7.72.19-10.53-1.92-10.36-10.22.55-26.45.2-52.91.2-79.38l-.07.04zm37.83-.3h.06v32.5c0 30 0 30 30.85 28.14 16.54-1 30.49-6.8 38.94-21.82 27.82-49.46-.37-98.8-56.21-98.63a41 41 0 01-5.2 0c-7.2-1-8.66 2.75-8.54 9.13.31 16.87.1 33.78.1 50.68zm-264.18 89.74c-13.77 4.81-17.82-4.81-21-17.62-5.18-20.58-5.75-20.43-27.22-20.57h-3.91c-11.28.14-24.1-3-33.42 1.33-9.95 4.64-8.27 19.56-12.07 29.83-2 5.36-4.8 7-10.48 7.2-30.11 1.06-29.93 1.31-20.82-27.11 14.82-46.24 29.69-92.48 43.8-138.94 2.86-9.39 6.35-13.12 16.73-12.9 34.46.72 34.42.27 44.6 33.06 13.12 42.24 26.293 84.463 39.52 126.67 5.93 19.12 5.96 19.12-15.73 19.05zm-34.88-66.61c-6.3-22.37-12.23-43.53-18.24-64.67-.93-3.28-2.24-6.45-4.19-12l-19.28 64.19c-.62 2.07-1.09 4.2-1.82 6.23-1.6 4.46-.22 6.34 4.62 6.28 12.52-.12 25.03-.03 38.92-.03h-.01zm-239.83-22.74c0-26 .35-52.08-.21-78.11-.18-8.62 2.44-11.24 10.95-11 22.56.54 45.13.18 67.7.36a90.14 90.14 0 0128.13 4.69c24 8.08 34.72 23.91 34.21 50.4-.45 23.62-13 39.92-35.82 46.77-17.34 5.19-35.19 4.72-52.94 4.19-10.61-.32-14.86 3.4-14.44 14.28.64 16.46-.11 33 .27 49.46.15 6.2-1.76 8-8 8.42-29.86 1.91-29.85 2.12-29.85-26.92v-62.54zm37.87-36.21c0 6.07.15 12.14 0 18.21-.16 4.52.79 7.66 6.2 7.54 13.41-.28 27 1.25 40.19-1.75 13.19-3 19.51-11 19.34-23.89-.18-13.07-6.33-20.84-19.72-23.45-6.75-1.31-13.78-1.53-20.7-1.67-25.47-.53-25.47-.44-25.31 25.01z"></path><path fill="#54777A" d="M1220.8 230.18c0 29.8-.44 59.6.25 89.38.23 9.75-2.37 12.87-12.17 12.59-8.67-.25-13.26-1.06-13.08-11.82.68-38.63.44-77.28.15-115.92-.06-7.57 1.58-10.6 10-10.68 30.09-.31 30.06-.65 38.89 28.21 6.59 21.52 13.25 43 21 68.32 8.11-26.43 15.11-49.33 22.17-72.21 7.42-24.06 7.47-23.37 33-24.37 12.32-.49 16.35 2.66 16 15.52-.89 36.88-.84 73.81 0 110.7.25 11.7-5.18 11.67-13.91 12.23-10.49.66-12.06-3.63-11.9-12.77.51-29.69.19-59.4-2.09-89.51-9.57 30.4-19.4 60.72-28.56 91.24-2.32 7.72-5.36 11-14.09 11.09-9.23.1-12.77-3.22-15.24-11.6-8.91-30.32-18.53-60.42-27.89-90.61l-2.53.21zm-427.83 32.1c0-19.11.38-38.23-.19-57.31-.25-8.43 2-11.4 10.86-11.29 19.13.23 18.93-.27 19.12 18.68.12 11.6-4.92 26.43 2.21 33.94 7.13 7.51 22.2 2.24 33.76 2.47 21.45.42 21.45.11 21.45-21.07 0-6.08.73-12.27-.15-18.22-1.87-12.61 2.79-16.07 15.44-16.001 11.47.091 14.7 2.781 14.47 14.381-.73 37.33-.81 74.7.1 112 .32 13.24-6.92 12-15.39 12-8 0-15.71 1.41-14.43-11.43 1.21-12-.21-24.32.44-36.44.48-8.8-2.88-11.32-11.26-10.9-12.13.62-24.32.5-36.47.1-7.65-.26-11 2.09-10.59 10.31.6 12.57-.33 25.21.38 37.77.49 8.84-2.77 10.9-11.15 10.62-22.78-.73-18.26 1.36-18.54-18.85-.23-16.89-.05-33.82-.06-50.76zm268.08 1.61v-61.26c0-4.46-.46-9.07 6.25-8.83 22.54.82 45.18-1.89 67.63 1.57 16.93 2.61 29.11 11.44 33 28.81 4.38 19.42-.63 30.93-18.76 42.43-6.56 4.16-4.78 7.91-2.07 12.85 7.91 14.47 15.56 29.08 23.59 43.49 3.25 5.82 2.89 8.13-4.62 8.58-22.19 1.3-22.14 1.56-32.35-18.82-5-10.08-10.44-20-15.28-30.19-2.58-5.43-6.34-7.45-12.25-7.67-16.35-.59-16.34-.8-16.34 15.75v22.16c0 18.39-5.92 22.77-24 18.68-5.87-1.33-4.8-5.18-4.81-8.89 0-19.55.03-39.11.01-58.66zm28.89-30.2c0 4.77.06 9.54 0 14.3-.07 3.75 1.63 5.66 5.38 5.57 9.94-.23 20 .4 29.79-1.06 7.92-1.18 14.25-5.53 14.79-15.38.77-14.15-6.53-21.24-23.85-22-26.25-1.15-26.25-1.15-26.11 18.57zm-150.88 29.12c0-19.53.32-39.07-.15-58.59-.19-7.95 2.39-10.54 10.4-10.41 26.9.4 53.83.6 80.72-.13 10.35-.29 9.53 5.44 9.78 12.15.26 6.94-.48 11.4-9.51 11-17.34-.65-34.73.24-52.07-.29-8-.25-10.57 2.27-10.34 10.27.78 26.35-3.32 21.49 21.95 22 5.64.12 11.31.37 16.92 0 8.29-.57 13.63.05 13.59 11.21 0 10.8-4.64 12-13.35 11.53-10.38-.57-20.82-.11-31.24-.06-3.48 0-7.47-.27-7.56 4.76-.16 9.55-.41 19.12.14 28.63.38 6.53 6.14 4.9 10.15 4.94 17.79.15 35.61.55 53.38-.13 9.35-.35 10.49 3.82 10.58 11.66.09 7.84-1.7 10.71-10.07 10.55a2411.208 2411.208 0 00-83.33-.08c-8.16.12-10.4-2.62-10.21-10.48.49-19.52.16-39.06.16-58.59l.06.06zm426.79-.8c0-19.53.29-39.06-.15-58.57-.17-7.42 2.17-9.73 9.6-9.62 26.9.39 53.82.65 80.7-.1 10.27-.29 9.52 5.25 10 12.08.59 8.32-2 11.53-10.78 11.16-16-.67-32.13.3-48.15-.41-9.27-.41-13 1.59-12.62 11.9.69 20.47 0 20.49 20.87 20.47 6.07 0 12.23.62 18.2-.16 11.57-1.49 13.88 3.91 13.3 14.21-.39 7.06-2.79 8.88-9.31 8.67-11.7-.39-23.42-.13-35.14-.11-3.47 0-7.44-.39-7.51 4.73-.13 9.54-.26 19.1.07 28.63.24 6.93 6 4.94 9.85 5 17.78.18 35.59.51 53.36-.12 8.39-.29 10.26 2.91 10.14 10.54-.11 7.47-.65 12-10.3 11.73-27.32-.63-54.67-.46-82 0-7.78.12-10.58-1.87-10.34-10.1.61-20 .21-39.97.21-59.93zm165.69-69.45c19.71.05 36.59 6.18 48.74 22.63 3.75 5.08 5.35 8.5-3 10.75-10.08 2.71-18.7 6.47-26.61-5.51-5.43-8.23-23.85-9.21-32.72-4.46-9.37 5-10.36 13.92-2.27 21.06 6.7 5.91 15.17 8.24 23.31 11.17 11.44 4.12 22.9 8.13 33 15.14 21.64 15 21.38 47.12-.52 61.57-24.06 15.86-66.57 10.27-85-11.8-2.69-3.24-12-8.42-3.53-12.91 6.31-3.35 14.53-14.39 23.16-2.31 9.44 13.2 22.48 17.34 37.72 14.52 7.75-1.43 15.06-4.65 16.23-14.38 1.12-9.37-4-15-11.53-18.37-13.83-6.22-28.17-11.35-41.91-17.76-12.61-5.88-22.93-14.09-23.46-29.93-.47-14 5.71-24.2 17.24-31.4 9.49-5.9 20.09-7.95 31.15-8.01z"></path><path fill="#BA0542" d="M1481.16 469.88c0-25.63.57-51.28-.29-76.89-.35-10.29 3-12.17 12.44-12 25.65.34 25.63-.1 25.63 26 0 46.93-.34 93.86.32 140.77.14 10.18-2.94 12.11-12.32 12-25.75-.19-25.76.26-25.76-26l-.02-63.88zm288.48 1.38c0-26.86.25-53.74-.16-80.6-.11-7.36 2-9.51 9.46-9.64 27.63-.5 27.9-.79 27.53 26.52-.64 48.41 1.87 96.85-1.19 145.24-.07 1.15 1.32 3.17 1 3.4-9.57 7.14-20.52 1.78-30.79 3.2-7.09 1-5.72-4.72-5.73-8.82-.053-26.427-.053-52.86 0-79.3h-.12z"></path><path fill="#FDFCFD" d="M1089.94 233.69c-.14-19.72-.14-19.72 26.09-18.57 17.32.76 24.62 7.85 23.85 22-.54 9.85-6.87 14.2-14.79 15.38-9.77 1.46-19.85.83-29.79 1.06-3.75.09-5.45-1.82-5.38-5.57.08-4.76.02-9.53.02-14.3z"></path></g></svg>