<!DOCTYPE svg PUBLIC "-//W3C//DTD SVG 20010904//EN" "http://www.w3.org/TR/2001/REC-SVG-20010904/DTD/svg10.dtd">
<svg version="1.0" xmlns="http://www.w3.org/2000/svg" width="348px" height="111px" viewBox="0 0 3480 1110" preserveAspectRatio="xMidYMid meet">
<g id="layer101" fill="#005937" stroke="none">
</g>
<g id="layer102" fill="#003c88" stroke="none">
<path d="M405 1070 l-39 -40 -183 0 c-176 0 -183 -1 -183 -20 0 -19 7 -20 165 -20 l165 0 -27 -42 c-49 -78 -92 -175 -120 -275 -24 -83 -28 -116 -27 -218 0 -102 5 -132 27 -200 36 -109 94 -182 178 -224 59 -29 68 -31 178 -31 116 0 459 24 515 36 17 4 54 29 83 57 43 41 57 62 73 115 26 82 25 130 -2 220 -24 84 -79 155 -131 170 -17 6 -105 18 -193 28 l-162 17 8 26 c17 59 81 171 155 269 l39 52 1253 0 c1246 0 1253 0 1253 20 0 20 -7 20 -1232 20 l-1233 1 38 34 c20 20 37 37 37 40 0 3 -134 5 -298 5 l-298 0 -39 -40z"/>
<path d="M1010 774 l0 -126 81 4 c70 3 83 6 100 27 42 52 11 131 -51 131 -29 0 -30 2 -30 45 l0 45 -50 0 -50 0 0 -126z m110 -39 c0 -13 -3 -26 -7 -28 -5 -3 -8 10 -8 28 0 18 3 31 8 28 4 -2 7 -15 7 -28z"/>
<path d="M1186 873 c4 -16 16 -50 27 -78 10 -27 26 -71 33 -97 14 -46 16 -48 52 -48 l37 0 42 118 42 117 0 -117 1 -118 35 0 c31 0 40 7 85 66 l50 67 0 -67 c0 -64 1 -66 25 -66 l25 0 1 118 0 117 25 -70 c14 -38 32 -91 41 -117 14 -46 16 -48 52 -48 l37 0 38 113 c22 61 41 118 44 125 3 8 -10 12 -46 12 -47 0 -51 -2 -61 -30 -7 -22 -16 -30 -35 -30 -18 0 -27 8 -35 30 -10 29 -12 30 -73 30 l-63 0 -45 -57 -45 -58 -3 58 -3 57 -74 0 c-72 0 -73 0 -84 -30 -7 -22 -16 -30 -35 -30 -18 0 -27 8 -35 30 -7 23 -16 30 -36 30 -23 0 -25 -3 -19 -27z"/>
<path d="M1900 802 l0 -99 -32 5 c-26 4 -30 2 -25 -12 4 -10 7 -24 7 -32 0 -11 20 -14 95 -14 l95 0 0 31 c0 28 -3 31 -25 27 l-25 -5 0 98 0 99 -45 0 -45 0 0 -98z"/>
<path d="M2044 884 c3 -9 6 -65 6 -125 l0 -109 45 0 45 0 0 100 0 100 28 0 c27 0 30 -5 58 -87 38 -116 38 -113 20 -113 -23 0 -20 -23 7 -48 31 -29 58 -28 90 6 32 33 33 40 9 44 -15 3 -12 16 25 118 l42 115 1 -118 0 -118 37 3 c32 3 43 11 83 63 l45 60 3 -63 3 -62 169 0 169 0 3 125 3 125 -47 0 -48 0 0 -95 0 -95 -31 0 -31 0 4 95 3 95 -47 0 -48 0 0 -99 0 -98 -25 5 c-25 4 -25 6 -25 98 l0 94 -38 0 c-35 0 -42 -5 -85 -61 l-47 -62 0 62 0 61 -74 0 -74 0 -7 -31 c-6 -27 -10 -30 -38 -27 -27 2 -33 8 -35 31 l-3 27 -101 0 c-87 0 -99 -2 -94 -16z m266 -249 c-7 -9 -16 -12 -19 -8 -4 4 -10 11 -15 16 -5 4 3 7 19 7 24 0 26 -2 15 -15z"/>
<path d="M3001 886 c-34 -19 -50 -54 -51 -111 0 -80 46 -125 130 -125 57 0 80 14 80 51 0 30 0 30 -30 14 -57 -30 -83 -11 -83 61 0 64 20 83 70 65 29 -11 38 -11 41 -1 2 6 19 -32 37 -87 l33 -98 37 0 c33 0 39 4 50 35 7 19 27 72 44 117 17 45 31 85 31 88 0 3 -23 5 -51 5 -47 0 -51 -2 -60 -30 -15 -42 -56 -42 -70 -1 -10 29 -10 29 -97 30 -55 0 -96 -5 -111 -13z"/>
<path d="M3402 689 c-12 -5 -27 -21 -33 -36 -8 -22 -6 -32 9 -52 24 -33 46 -37 77 -17 37 24 35 80 -2 100 -19 9 -36 11 -51 5z"/>
</g>
<g id="layer103" fill="#08775c" stroke="none">
<path d="M400 1066 c-25 -24 -49 -50 -55 -58 -89 -131 -126 -207 -162 -335 -24 -83 -28 -116 -27 -218 0 -102 5 -132 27 -200 36 -109 94 -182 178 -224 59 -29 68 -31 178 -31 116 0 459 24 515 36 17 4 54 29 83 57 43 41 57 62 73 115 26 82 25 130 -2 220 -24 84 -79 155 -131 170 -17 6 -105 18 -193 28 l-162 17 8 26 c9 33 55 123 89 176 34 52 130 175 138 175 3 0 0 -7 -7 -15 -11 -13 127 -15 1235 -15 1182 0 1246 1 1243 18 -3 16 -70 17 -1231 17 -675 0 -1227 3 -1227 6 0 4 16 21 35 38 19 17 35 33 35 36 0 3 -134 5 -297 5 l-298 0 -45 -44z"/>
<path d="M1010 775 l0 -125 65 0 c99 0 135 24 135 89 0 40 -21 63 -66 70 -38 6 -39 6 -36 49 l4 42 -51 0 -51 0 0 -125z m110 -40 c0 -13 -3 -26 -7 -28 -5 -3 -8 10 -8 28 0 18 3 31 8 28 4 -2 7 -15 7 -28z"/>
<path d="M1185 878 c4 -13 17 -52 30 -88 13 -36 29 -82 35 -102 11 -35 14 -38 50 -38 34 0 39 3 45 28 3 15 21 68 40 117 l34 90 1 -117 0 -118 35 0 c31 0 40 7 85 66 l50 67 0 -67 c0 -64 1 -66 25 -66 l25 0 1 118 0 117 25 -70 c14 -38 32 -91 41 -117 14 -46 16 -48 51 -48 l37 0 39 113 c21 61 41 118 43 125 4 8 -9 12 -46 12 -49 0 -52 -1 -57 -30 -5 -25 -11 -30 -34 -30 -21 0 -30 7 -40 30 -12 29 -15 30 -74 30 l-61 0 -45 -57 -45 -58 -3 58 -3 57 -74 0 c-72 0 -73 0 -84 -30 -7 -22 -16 -30 -35 -30 -18 0 -27 8 -35 30 -8 23 -16 30 -36 30 -23 0 -25 -3 -20 -22z"/>
<path d="M1900 800 l0 -99 -28 5 c-27 6 -29 4 -24 -25 l4 -31 94 0 94 0 0 31 c0 28 -2 31 -25 25 l-25 -6 0 100 0 100 -45 0 -45 0 0 -100z"/>
<path d="M2044 885 c3 -9 6 -66 6 -126 l0 -109 45 0 45 0 0 100 0 100 29 0 c27 0 30 -5 51 -72 34 -108 46 -128 76 -128 22 0 24 -2 14 -15 -11 -13 -14 -13 -27 0 -16 16 -53 20 -53 6 0 -20 43 -61 64 -61 20 0 76 46 76 62 0 4 -8 8 -18 10 -15 3 -12 16 25 118 l42 115 1 -118 0 -118 37 3 c32 3 43 11 83 63 l45 60 3 -63 3 -62 169 0 169 0 3 125 3 125 -47 0 -48 0 0 -97 0 -98 -31 -2 -31 -2 4 99 3 100 -47 0 -48 0 0 -100 c0 -55 -4 -100 -9 -100 -36 0 -41 12 -41 106 l0 94 -38 0 c-35 0 -42 -5 -85 -61 l-47 -62 0 62 0 61 -74 0 -74 0 -7 -31 c-6 -27 -10 -30 -38 -27 -24 2 -33 9 -37 28 -6 24 -9 25 -104 28 -87 2 -98 1 -92 -13z"/>
<path d="M2999 885 c-43 -23 -62 -108 -39 -169 14 -37 67 -66 118 -66 60 0 82 14 82 52 0 30 0 30 -25 14 -49 -32 -79 -17 -89 44 -12 69 22 97 93 74 21 -6 23 -5 17 12 -4 10 -4 15 0 11 4 -4 22 -51 40 -105 l33 -97 36 0 c33 0 39 4 50 35 59 159 75 202 75 206 0 3 -23 4 -52 2 -46 -3 -53 -6 -58 -28 -4 -18 -13 -26 -33 -28 -23 -3 -29 2 -38 26 l-10 30 -87 1 c-58 0 -96 -5 -113 -14z"/>
<path d="M3383 678 c-21 -27 -21 -58 -1 -83 22 -29 44 -32 76 -9 29 20 31 79 3 94 -27 14 -66 13 -78 -2z"/>
</g>
<g id="layer104" fill="#005698" stroke="none">
<path d="M400 1066 c-25 -24 -49 -50 -55 -58 -89 -131 -126 -207 -162 -335 -24 -83 -28 -116 -27 -218 0 -102 5 -132 27 -200 36 -109 94 -182 178 -224 59 -29 68 -31 178 -31 116 0 459 24 515 36 17 4 54 29 83 57 43 41 57 62 73 115 26 82 25 130 -2 220 -24 84 -79 155 -131 170 -17 6 -105 18 -193 28 l-162 17 8 26 c9 33 55 123 89 176 34 52 130 175 138 175 3 0 0 -7 -7 -15 -11 -13 127 -15 1235 -15 1182 0 1246 1 1243 18 -3 16 -70 17 -1231 17 -675 0 -1227 3 -1227 6 0 4 16 21 35 38 19 17 35 33 35 36 0 3 -134 5 -297 5 l-298 0 -45 -44z m590 21 c0 -1 -23 -25 -51 -52 -34 -33 -46 -41 -34 -22 14 22 14 26 3 22 -17 -7 -433 21 -448 30 -5 3 -28 -11 -52 -32 l-43 -37 45 47 44 47 268 0 c147 0 268 -1 268 -3z m-360 -473 c14 -9 17 -13 7 -10 -47 15 -65 16 -112 7 -58 -11 -72 -6 -24 8 51 14 101 12 129 -5z m230 -14 c53 -7 45 -8 -40 -3 -101 5 -104 5 -90 -13 9 -11 2 -9 -15 6 -17 14 -32 26 -35 28 -6 4 82 -5 180 -18z m-323 -407 c88 4 100 3 48 -3 -128 -14 -182 -12 -189 6 -5 14 -4 15 8 5 10 -9 49 -11 133 -8z m221 10 c-10 -2 -28 -2 -40 0 -13 2 -5 4 17 4 22 1 32 -1 23 -4z m-422 -118 c23 -16 49 -22 95 -23 35 -1 92 -5 125 -8 65 -6 88 1 134 40 l25 21 -20 -24 c-36 -42 -112 -71 -191 -71 -59 0 -81 5 -131 30 -33 17 -68 40 -79 52 -20 23 -12 19 42 -17z m364 -30 c-11 -13 2 -14 101 -8 63 3 112 3 109 1 -3 -3 -61 -9 -130 -12 l-125 -7 25 20 c30 24 37 26 20 6z m323 -2 c-13 -2 -35 -2 -50 0 -16 2 -5 4 22 4 28 0 40 -2 28 -4z"/>
<path d="M0 1010 c0 -19 7 -20 158 -20 152 0 182 5 182 32 0 4 -76 8 -170 8 -163 0 -170 -1 -170 -20z"/>
<path d="M1010 775 l0 -125 65 0 c98 0 135 24 135 88 -1 39 -24 64 -67 71 -37 6 -38 7 -35 49 l4 42 -51 0 -51 0 0 -125z m110 -40 c0 -13 -3 -26 -7 -28 -5 -3 -8 10 -8 28 0 18 3 31 8 28 4 -2 7 -15 7 -28z"/>
<path d="M1182 888 c3 -7 22 -64 43 -125 l37 -113 38 0 c34 0 39 3 45 28 3 15 21 68 40 117 l34 90 1 -117 0 -118 34 0 c30 0 40 8 85 66 l51 67 0 -67 c0 -64 1 -66 25 -66 l25 0 1 118 c0 92 3 111 11 87 5 -16 21 -59 35 -95 23 -60 30 -82 32 -103 1 -5 18 -7 38 -5 l38 3 37 105 c21 58 41 113 44 123 5 15 -2 17 -46 17 -48 0 -51 -1 -56 -30 -5 -25 -11 -30 -34 -30 -21 0 -30 7 -40 30 -12 29 -15 30 -74 30 l-62 0 -47 -61 -47 -62 0 62 0 61 -74 0 c-73 0 -74 0 -85 -30 -7 -22 -16 -30 -35 -30 -18 0 -27 8 -35 30 -8 23 -16 30 -37 30 -17 0 -24 -4 -22 -12z"/>
<path d="M1900 800 l0 -100 -25 6 c-23 6 -25 3 -25 -25 l0 -31 95 0 95 0 0 31 c0 28 -2 31 -25 25 l-25 -6 0 100 0 100 -45 0 -45 0 0 -100z"/>
<path d="M2044 885 c3 -9 6 -66 6 -126 l0 -109 45 0 45 0 0 100 0 100 29 0 c27 0 30 -5 51 -72 34 -108 46 -128 76 -128 22 0 24 -2 14 -15 -11 -13 -14 -13 -27 0 -16 16 -53 20 -53 6 0 -20 43 -61 64 -61 20 0 76 46 76 62 0 4 -8 8 -18 10 -15 3 -12 16 25 118 l42 115 1 -118 0 -118 37 3 c32 3 43 11 83 63 l45 60 3 -63 3 -62 169 1 170 0 0 125 0 124 -45 0 -45 0 0 -97 0 -98 -31 -2 -31 -2 4 99 3 100 -47 0 -48 0 0 -100 c0 -55 -4 -100 -9 -100 -36 0 -41 12 -41 106 l0 94 -39 0 c-35 0 -41 -5 -82 -60 l-44 -61 -3 61 -3 60 -74 0 -73 0 -7 -31 c-6 -27 -10 -30 -38 -27 -24 2 -33 9 -37 28 -6 24 -9 25 -104 28 -87 2 -98 1 -92 -13z"/>
<path d="M2998 883 c-43 -27 -61 -106 -38 -167 14 -37 67 -66 118 -66 56 0 82 14 82 45 0 25 -23 35 -35 15 -9 -15 -51 -12 -65 5 -18 21 -18 98 -1 118 15 19 56 23 66 7 3 -5 13 -10 21 -10 10 0 13 8 9 28 -3 15 12 -25 34 -88 l39 -115 38 0 38 0 37 105 c20 58 40 113 44 123 6 15 1 17 -43 17 -47 0 -51 -2 -61 -30 -14 -42 -58 -43 -72 -1 -10 29 -10 29 -97 30 -65 0 -94 -4 -114 -16z m258 -108 c-4 -24 -13 -27 -19 -5 -3 13 0 20 8 20 7 0 12 -7 11 -15z"/>
<path d="M3382 678 c-7 -7 -12 -27 -12 -45 0 -24 7 -37 26 -50 24 -15 29 -15 53 -2 32 18 40 68 16 93 -19 19 -66 21 -83 4z"/>
</g>
<g id="layer105" fill="#2a8c75" stroke="none">
<path d="M400 1066 c-25 -24 -49 -50 -55 -58 -89 -131 -126 -207 -162 -335 -24 -83 -28 -116 -27 -218 0 -102 5 -132 27 -200 36 -109 94 -182 178 -224 59 -29 68 -31 178 -31 116 0 459 24 515 36 17 4 54 29 83 57 43 41 57 62 73 115 26 82 25 130 -2 220 -24 84 -79 155 -131 170 -17 6 -105 18 -193 28 l-162 17 8 26 c28 99 170 309 261 386 26 22 48 43 48 48 1 4 -133 7 -296 7 l-298 0 -45 -44z m590 21 c0 -1 -23 -25 -51 -52 -34 -33 -46 -41 -34 -22 14 22 14 26 3 22 -17 -7 -433 21 -448 30 -5 3 -28 -11 -52 -32 l-43 -37 45 47 44 47 268 0 c147 0 268 -1 268 -3z m-360 -473 c14 -9 17 -13 7 -10 -47 15 -65 16 -112 7 -58 -11 -72 -6 -24 8 51 14 101 12 129 -5z m230 -14 c53 -7 45 -8 -40 -3 -101 5 -104 5 -90 -13 9 -11 2 -9 -15 6 -17 14 -32 26 -35 28 -6 4 82 -5 180 -18z m-323 -407 c88 4 100 3 48 -3 -128 -14 -182 -12 -189 6 -5 14 -4 15 8 5 10 -9 49 -11 133 -8z m221 10 c-10 -2 -28 -2 -40 0 -13 2 -5 4 17 4 22 1 32 -1 23 -4z m-422 -118 c23 -16 49 -22 95 -23 35 -1 92 -5 125 -8 65 -6 88 1 134 40 l25 21 -20 -24 c-36 -42 -112 -71 -191 -71 -59 0 -81 5 -131 30 -33 17 -68 40 -79 52 -20 23 -12 19 42 -17z m364 -30 c-11 -13 2 -14 101 -8 63 3 112 3 109 1 -3 -3 -61 -9 -130 -12 l-125 -7 25 20 c30 24 37 26 20 6z m323 -2 c-13 -2 -35 -2 -50 0 -16 2 -5 4 22 4 28 0 40 -2 28 -4z"/>
</g>
<g id="layer106" fill="#448f79" stroke="none">
<path d="M400 1066 c-25 -24 -49 -50 -55 -58 -89 -131 -126 -207 -162 -335 -24 -83 -28 -116 -27 -218 0 -102 5 -132 27 -200 36 -109 94 -182 178 -224 59 -29 68 -31 178 -31 116 0 459 24 515 36 17 4 54 29 83 57 43 41 57 62 73 115 26 82 25 130 -2 220 -24 84 -79 155 -131 170 -17 6 -105 18 -193 28 l-162 17 8 26 c28 99 170 309 261 386 26 22 48 43 48 48 1 4 -133 7 -296 7 l-298 0 -45 -44z m588 14 c-9 -6 -43 -38 -75 -73 -32 -34 -55 -58 -50 -53 14 19 6 23 -55 25 -35 1 -90 4 -123 7 -33 2 -112 9 -175 13 l-115 9 -30 -27 c-40 -35 -15 0 44 62 l45 47 276 0 c183 -1 269 -4 258 -10z m-355 -464 c18 -8 41 -21 52 -30 19 -17 19 -17 -5 -5 -30 15 -214 13 -245 -3 -18 -9 -19 -9 -5 5 38 41 145 58 203 33z m261 -16 c161 -18 226 -34 226 -55 0 -3 -12 3 -27 12 -22 15 -55 19 -185 22 -90 2 -158 -1 -158 -6 0 -5 6 -16 13 -23 6 -8 -6 1 -28 20 -22 19 -44 38 -49 42 -14 11 9 10 208 -12z m-120 -390 c-5 -5 -89 -15 -187 -22 l-178 -13 -16 25 c-8 14 -10 20 -4 14 13 -12 332 -7 366 6 23 9 33 4 19 -10z m-434 -86 c30 -2 123 -8 205 -14 l150 -11 23 28 c16 19 20 21 13 7 -15 -30 -78 -84 -120 -102 -48 -20 -144 -20 -207 2 -59 19 -121 69 -148 117 l-18 34 24 -29 c20 -23 33 -29 78 -32z m769 -30 c-27 -33 -67 -42 -239 -53 -96 -6 -188 -13 -205 -16 -27 -4 -28 -3 -11 8 10 7 32 23 47 35 20 16 27 19 23 8 -9 -24 318 -11 361 14 38 23 40 24 24 4z"/>
</g>
<g id="layer107" fill="#3e9782" stroke="none">
<path d="M400 1066 c-25 -24 -49 -50 -55 -58 -89 -131 -126 -207 -162 -335 -24 -83 -28 -116 -27 -218 0 -102 5 -132 27 -200 36 -109 94 -182 178 -224 59 -29 68 -31 178 -31 116 0 459 24 515 36 17 4 54 29 83 57 43 41 57 62 73 115 26 82 25 130 -2 220 -24 84 -79 155 -131 170 -17 6 -105 18 -193 28 l-162 17 8 26 c28 99 170 309 261 386 26 22 48 43 48 48 1 4 -133 7 -296 7 l-298 0 -45 -44z m588 14 c-9 -6 -43 -38 -75 -73 -32 -34 -55 -58 -50 -53 14 19 6 23 -55 25 -35 1 -90 4 -123 7 -33 2 -112 9 -175 13 l-115 9 -30 -27 c-40 -35 -15 0 44 62 l45 47 276 0 c183 -1 269 -4 258 -10z m-355 -464 c18 -8 41 -21 52 -30 19 -17 19 -17 -5 -5 -30 15 -214 13 -245 -3 -18 -9 -19 -9 -5 5 38 41 145 58 203 33z m261 -16 c161 -18 226 -34 226 -55 0 -3 -12 3 -27 12 -22 15 -55 19 -185 22 -90 2 -158 -1 -158 -6 0 -5 6 -16 13 -23 6 -8 -4 -1 -23 16 -19 17 -44 36 -55 42 -19 11 -19 11 5 12 14 0 106 -9 204 -20z m-120 -390 c-5 -5 -89 -15 -187 -22 l-178 -13 -16 25 c-8 14 -10 20 -4 14 13 -12 332 -7 366 6 23 9 33 4 19 -10z m-434 -86 c30 -2 123 -8 205 -14 l150 -11 23 28 c17 20 21 22 13 6 -19 -39 -94 -93 -150 -109 -119 -35 -266 23 -325 128 l-18 33 24 -29 c20 -23 33 -29 78 -32z m769 -30 c-27 -33 -67 -42 -239 -53 -96 -6 -188 -13 -205 -16 -27 -4 -28 -3 -11 8 10 7 32 23 47 35 20 16 27 19 23 8 -9 -24 318 -11 361 14 38 23 40 24 24 4z"/>
</g>
<g id="layer108" fill="#1ea7d5" stroke="none">
<path d="M400 1066 c-25 -24 -49 -50 -55 -58 -89 -131 -126 -207 -162 -335 -24 -83 -28 -116 -27 -218 0 -102 5 -132 27 -200 36 -109 94 -182 178 -224 59 -29 68 -31 178 -31 116 0 459 24 515 36 17 4 54 29 83 57 43 41 57 62 73 115 26 82 25 130 -2 220 -24 84 -79 155 -131 170 -17 6 -105 18 -193 28 l-162 17 8 26 c28 99 167 305 259 383 27 24 50 46 50 51 1 4 -133 7 -296 7 l-298 0 -45 -44z m572 -1 c-16 -13 -56 -57 -88 -97 -72 -91 -79 -98 -65 -71 12 24 28 22 -294 44 -88 6 -162 13 -164 15 -2 2 -13 -4 -24 -13 -20 -18 -20 -18 -1 15 10 18 40 55 65 83 l45 49 278 0 278 0 -30 -25z m-324 -454 c20 -10 46 -29 57 -42 13 -15 14 -19 3 -11 -20 16 -276 16 -296 0 -7 -6 -15 -8 -18 -6 -8 8 53 49 95 64 52 19 116 17 159 -5z m437 -38 c11 -6 29 -21 40 -34 l20 -23 -26 20 c-23 17 -38 19 -179 14 -98 -3 -155 -9 -157 -16 -2 -6 -20 5 -41 25 -20 20 -48 43 -61 52 -20 13 6 12 180 -6 112 -12 213 -26 224 -32z m-611 -344 c44 0 132 4 194 7 98 6 112 5 112 -9 0 -24 -9 -26 -142 -37 -246 -18 -229 -20 -252 19 -12 20 -14 31 -7 26 8 -4 50 -7 95 -6z m-170 -48 c39 -1 56 2 56 10 0 7 12 2 26 -12 28 -26 10 -25 260 -11 l112 7 -13 -26 c-8 -14 -34 -44 -58 -67 -133 -121 -359 -76 -443 89 -25 51 -33 82 -9 38 12 -22 21 -26 69 -28z m820 -72 c-46 -49 -70 -56 -229 -68 -82 -6 -177 -14 -210 -17 l-60 -5 35 21 c19 12 48 34 64 49 16 14 25 20 21 12 -6 -11 -1 -13 26 -8 19 4 101 7 182 8 127 2 152 5 170 20 34 28 34 22 1 -12z"/>
</g>
<g id="layer109" fill="#60a997" stroke="none">
<path d="M400 1066 c-25 -24 -49 -50 -55 -58 -89 -131 -126 -207 -162 -335 -24 -83 -28 -116 -27 -218 0 -102 5 -132 27 -200 36 -109 94 -182 178 -224 59 -29 68 -31 178 -31 116 0 459 24 515 36 17 4 54 29 83 57 43 41 57 62 73 115 26 82 25 130 -2 220 -24 84 -79 155 -131 170 -17 6 -105 18 -193 28 l-162 17 8 26 c28 99 167 305 259 383 27 24 50 46 50 51 1 4 -133 7 -296 7 l-298 0 -45 -44z m572 -1 c-16 -13 -56 -57 -88 -97 -72 -91 -79 -98 -65 -71 12 24 28 22 -294 44 -88 6 -162 13 -164 15 -2 2 -13 -4 -24 -13 -20 -18 -20 -18 -1 15 10 18 40 55 65 83 l45 49 278 0 278 0 -30 -25z m-324 -454 c20 -10 46 -29 57 -42 13 -15 14 -19 3 -11 -20 16 -276 16 -296 0 -7 -6 -15 -8 -18 -6 -8 8 53 49 95 64 52 19 116 17 159 -5z m437 -38 c11 -6 29 -21 40 -34 l20 -23 -26 20 c-23 17 -38 19 -179 14 -98 -3 -155 -9 -157 -16 -2 -6 -20 5 -41 25 -20 20 -48 43 -61 52 -20 13 6 12 180 -6 112 -12 213 -26 224 -32z m-761 33 c42 -3 77 -1 90 6 11 6 -2 -14 -29 -44 -28 -30 -52 -52 -55 -48 -3 4 -34 10 -69 14 -48 6 -66 4 -72 -6 -10 -15 -12 35 -3 69 5 17 12 21 37 18 18 -2 63 -7 101 -9z m476 -200 c0 -11 -45 -15 -207 -20 -115 -4 -220 -9 -235 -11 -23 -4 -28 -1 -28 15 0 17 7 20 53 21 28 1 131 4 227 8 96 3 178 5 183 3 4 -2 7 -9 7 -16z m408 -72 c3 -20 -2 -21 -193 -30 l-195 -9 0 26 0 26 167 2 c92 1 170 4 172 7 13 12 46 -3 49 -22z m-734 -105 c44 0 132 4 194 7 98 6 112 5 112 -9 0 -24 -9 -26 -142 -37 -246 -18 -229 -20 -252 19 -12 20 -14 31 -7 26 8 -4 50 -7 95 -6z m-170 -48 c39 -1 56 2 56 10 0 7 12 2 26 -12 28 -26 10 -25 260 -11 l112 7 -13 -26 c-8 -14 -34 -44 -58 -67 -133 -121 -359 -76 -443 89 -25 51 -33 82 -9 38 12 -22 21 -26 69 -28z m820 -72 c-46 -49 -70 -56 -229 -68 -82 -6 -177 -14 -210 -17 l-60 -5 35 21 c19 12 48 34 64 49 16 14 25 20 21 12 -6 -11 -1 -13 26 -8 19 4 101 7 182 8 127 2 152 5 170 20 34 28 34 22 1 -12z"/>
</g>
<g id="layer110" fill="#56b9d7" stroke="none">
<path d="M400 1066 c-25 -24 -49 -50 -55 -58 -89 -131 -126 -207 -162 -335 -24 -83 -28 -116 -27 -218 0 -102 5 -132 27 -200 36 -109 94 -182 178 -224 59 -29 68 -31 178 -31 116 0 459 24 515 36 17 4 54 29 83 57 43 41 57 62 73 115 26 82 25 130 -2 220 -24 84 -79 155 -131 170 -17 6 -105 18 -193 28 l-162 17 8 26 c28 99 167 305 259 383 27 24 50 46 50 51 1 4 -133 7 -296 7 l-298 0 -45 -44z m551 -24 c-27 -27 -77 -87 -111 -133 -72 -97 -73 -99 -65 -78 7 18 -12 21 -298 40 -138 9 -171 8 -184 -3 -32 -25 48 107 98 165 l51 57 278 0 279 0 -48 -48z m-303 -432 c40 -21 61 -37 79 -60 10 -13 3 -15 -50 -12 -34 2 -117 -1 -184 -5 -113 -8 -121 -7 -112 9 12 23 67 63 104 76 50 17 122 14 163 -8z m260 -9 c166 -18 174 -20 203 -47 17 -16 36 -38 41 -49 10 -18 10 -19 -6 -6 -14 11 -47 13 -177 8 -89 -4 -164 -9 -169 -12 -4 -3 -19 13 -34 35 -14 22 -44 52 -66 66 -22 15 -40 28 -40 29 0 2 17 1 38 -1 20 -3 115 -13 210 -23z m-584 5 c42 -3 77 -1 90 6 11 6 -2 -14 -29 -44 -28 -30 -52 -52 -55 -48 -3 4 -34 10 -69 14 -48 6 -66 4 -72 -6 -10 -15 -12 35 -3 69 5 17 12 21 37 18 18 -2 63 -7 101 -9z m476 -200 c0 -11 -45 -15 -207 -20 -115 -4 -220 -9 -235 -11 -23 -4 -28 -1 -28 15 0 17 7 20 53 21 28 1 131 4 227 8 96 3 178 5 183 3 4 -2 7 -9 7 -16z m408 -72 c3 -20 -2 -21 -193 -30 l-195 -9 0 26 0 26 167 2 c92 1 170 4 172 7 13 12 46 -3 49 -22z m-965 -74 c18 0 42 -3 55 -6 17 -5 22 -2 22 12 0 11 12 -2 29 -31 47 -82 38 -79 234 -67 94 6 173 9 175 7 9 -9 -61 -91 -100 -117 -152 -103 -369 -24 -437 158 -12 30 -20 60 -20 67 1 7 3 4 6 -5 3 -12 14 -18 36 -18z m543 -24 c-8 -40 -13 -41 -181 -51 -55 -3 -121 -8 -147 -11 -45 -5 -47 -4 -72 33 -14 20 -26 42 -26 48 0 6 33 9 87 7 49 -1 144 1 213 6 69 4 127 7 129 5 2 -1 0 -18 -3 -37z m367 -98 c-11 -18 -37 -45 -60 -60 -38 -26 -52 -29 -239 -43 -110 -8 -205 -15 -213 -15 -8 0 5 13 29 29 23 15 58 48 76 71 19 24 34 37 34 30 0 -10 36 -12 183 -6 100 4 186 11 192 17 17 17 17 9 -2 -23z"/>
</g>
<g id="layer111" fill="#87bdaf" stroke="none">
<path d="M400 1066 c-25 -24 -49 -50 -55 -58 -89 -131 -126 -207 -162 -335 -24 -83 -28 -116 -27 -218 0 -102 5 -132 27 -200 36 -109 94 -182 178 -224 59 -29 68 -31 178 -31 116 0 459 24 515 36 17 4 54 29 83 57 43 41 57 62 73 115 26 82 25 130 -2 220 -24 84 -79 155 -131 170 -17 6 -105 18 -193 28 l-162 17 8 26 c28 98 169 308 257 382 28 24 52 47 52 52 1 4 -133 7 -296 7 l-298 0 -45 -44z m551 -24 c-27 -27 -77 -87 -111 -133 -72 -97 -73 -99 -65 -78 7 18 -12 21 -298 40 -138 9 -171 8 -184 -3 -32 -25 48 107 98 165 l51 57 278 0 279 0 -48 -48z m-605 -404 l130 -3 -43 -27 c-24 -15 -57 -47 -74 -71 l-30 -43 -66 8 c-36 4 -70 5 -74 2 -13 -8 -11 72 3 118 6 21 14 34 18 28 3 -5 61 -11 136 -12z m302 -28 c40 -21 61 -37 79 -60 10 -13 3 -15 -50 -12 -34 2 -117 -1 -184 -5 -113 -8 -121 -7 -112 9 12 23 67 63 104 76 50 17 122 14 163 -8z m260 -9 c166 -18 174 -20 203 -47 17 -16 36 -38 41 -49 10 -18 10 -19 -6 -6 -14 11 -47 13 -177 8 -89 -4 -164 -9 -169 -12 -4 -3 -19 13 -34 35 -14 22 -44 52 -66 66 -22 15 -40 28 -40 29 0 2 17 1 38 -1 20 -3 115 -13 210 -23z m-114 -177 c19 -49 18 -49 -172 -52 -97 -1 -203 -5 -235 -8 l-58 -6 3 33 3 34 190 3 c105 2 195 5 200 7 26 9 63 4 69 -11z m416 -97 c0 -15 -6 -29 -12 -31 -7 -3 -95 -7 -195 -10 l-183 -6 0 40 0 40 58 1 c31 1 116 4 187 8 83 4 133 2 137 -4 4 -5 8 -23 8 -38z m-967 -67 c18 0 42 -3 55 -6 17 -5 22 -2 22 12 0 11 12 -2 29 -31 47 -82 38 -79 234 -67 94 6 173 9 175 7 9 -9 -61 -91 -100 -117 -152 -103 -369 -24 -437 158 -12 30 -20 60 -20 67 1 7 3 4 6 -5 3 -12 14 -18 36 -18z m543 -24 c-8 -40 -13 -41 -181 -51 -55 -3 -121 -8 -147 -11 -45 -5 -47 -4 -72 33 -14 20 -26 42 -26 48 0 6 33 9 87 7 49 -1 144 1 213 6 69 4 127 7 129 5 2 -1 0 -18 -3 -37z m367 -98 c-11 -18 -37 -45 -60 -60 -38 -26 -52 -29 -239 -43 -110 -8 -205 -15 -213 -15 -8 0 5 13 29 29 23 15 58 48 76 71 19 24 34 37 34 30 0 -10 36 -12 183 -6 100 4 186 11 192 17 17 17 17 9 -2 -23z"/>
</g>
<g id="layer112" fill="#75c4d8" stroke="none">
<path d="M400 1066 c-25 -24 -49 -50 -55 -58 -89 -131 -126 -207 -162 -335 -24 -83 -28 -116 -27 -218 0 -102 5 -132 27 -200 36 -109 94 -182 178 -224 59 -29 68 -31 178 -31 116 0 459 24 515 36 17 4 54 29 83 57 43 41 57 62 73 115 26 82 25 130 -2 220 -24 84 -79 155 -131 170 -17 6 -105 18 -193 28 l-162 17 8 26 c4 14 21 53 38 86 29 57 43 78 134 207 20 29 59 71 87 93 27 22 50 43 51 48 0 4 -134 7 -297 7 l-298 0 -45 -44z m547 -33 c-49 -49 -93 -106 -189 -243 -10 -14 -15 -18 -12 -9 4 13 -5 16 -53 18 -32 1 -140 8 -240 14 -159 11 -182 11 -192 -3 -6 -8 -4 3 4 25 24 61 75 140 128 201 l49 54 281 0 281 0 -57 -57z m-601 -395 l130 -3 -43 -27 c-24 -15 -57 -47 -74 -71 l-30 -43 -66 8 c-36 4 -70 5 -74 2 -13 -8 -11 72 3 118 6 21 14 34 18 28 3 -5 61 -11 136 -12z m300 -14 c6 2 101 -4 211 -15 223 -22 252 -31 289 -94 22 -38 35 -78 15 -47 -7 11 -41 12 -185 5 -160 -7 -177 -6 -182 9 -13 42 -124 151 -139 136 -3 -3 12 -16 32 -30 21 -14 47 -41 57 -59 13 -23 15 -31 5 -24 -9 7 -79 9 -202 5 -103 -3 -187 -2 -187 2 0 13 52 68 84 87 40 25 132 41 165 29 14 -5 30 -7 37 -4z m148 -200 c19 -49 18 -49 -172 -52 -97 -1 -203 -5 -235 -8 l-58 -6 3 33 3 34 190 3 c105 2 195 5 200 7 26 9 63 4 69 -11z m416 -97 c0 -15 -6 -29 -12 -31 -7 -3 -95 -7 -195 -10 l-183 -6 0 40 0 40 58 1 c31 1 116 4 187 8 83 4 133 2 137 -4 4 -5 8 -23 8 -38z m-952 -14 c41 -4 52 -3 52 8 0 8 11 -11 24 -42 12 -31 33 -70 45 -88 26 -36 21 -36 228 -20 79 6 147 8 150 5 11 -10 -51 -88 -89 -114 -21 -13 -38 -26 -38 -28 0 -24 108 68 137 116 11 19 22 26 37 23 11 -2 101 0 199 4 97 4 177 5 177 2 0 -17 -63 -89 -94 -108 -31 -20 -62 -25 -229 -37 -105 -7 -208 -13 -227 -13 -19 0 -63 -3 -96 -6 -129 -15 -251 58 -307 182 -25 57 -48 162 -30 135 5 -7 33 -15 61 -19z m523 -94 c-8 -22 -16 -25 -58 -27 -26 -2 -106 -7 -177 -13 -139 -10 -145 -9 -170 40 -23 45 -29 71 -14 66 7 -2 105 -1 218 3 l205 7 3 -26 c2 -14 -1 -36 -7 -50z"/>
</g>
<g id="layer113" fill="#98c6ba" stroke="none">
<path d="M385 1048 c-99 -108 -157 -217 -202 -375 -24 -83 -28 -116 -27 -218 0 -102 5 -132 27 -200 36 -109 94 -182 178 -224 59 -29 68 -31 178 -31 116 0 459 24 515 36 17 4 54 29 83 57 43 41 57 62 73 115 26 82 25 130 -2 220 -24 84 -79 155 -131 170 -17 6 -105 18 -193 28 l-162 17 8 26 c4 14 21 53 38 86 29 57 43 78 134 207 20 29 59 71 87 93 27 22 50 43 51 48 0 4 -135 7 -299 7 l-299 0 -57 -62z m562 -15 c-49 -49 -93 -106 -189 -243 -10 -14 -15 -18 -12 -9 4 13 -5 16 -53 18 -32 1 -140 8 -240 14 -159 11 -182 11 -192 -3 -6 -8 -4 3 4 25 24 61 75 140 128 201 l49 54 281 0 281 0 -57 -57z m-487 -380 l65 -6 -44 -15 c-50 -17 -118 -80 -143 -133 l-18 -36 -56 9 c-32 5 -63 7 -70 4 -28 -11 -28 49 -2 153 l11 43 96 -6 c53 -4 125 -9 161 -13z m118 0 c-10 -2 -26 -2 -35 0 -10 3 -2 5 17 5 19 0 27 -2 18 -5z m68 -29 c6 2 101 -4 211 -15 223 -22 252 -31 289 -94 22 -38 35 -78 15 -47 -7 11 -41 12 -185 5 -160 -7 -177 -6 -182 9 -13 42 -124 151 -139 136 -3 -3 12 -16 32 -30 21 -14 47 -41 57 -59 13 -23 15 -31 5 -24 -9 7 -79 9 -202 5 -103 -3 -187 -2 -187 2 0 13 52 68 84 87 40 25 132 41 165 29 14 -5 30 -7 37 -4z m148 -190 c3 -9 6 -29 6 -45 l0 -29 -113 0 c-63 0 -169 -3 -236 -7 l-122 -6 3 44 3 44 170 5 c94 3 195 7 226 8 44 2 58 -2 63 -14z m412 -68 c3 -13 4 -38 2 -57 l-3 -33 -100 -3 c-55 -2 -144 -5 -197 -7 -110 -5 -106 -8 -92 76 l7 37 136 4 c75 1 160 4 188 5 48 2 53 0 59 -22z m-948 -53 c41 -4 52 -3 52 8 0 8 11 -11 24 -42 12 -31 33 -70 45 -88 26 -36 21 -36 228 -20 79 6 147 8 150 5 11 -10 -51 -88 -89 -114 -21 -13 -38 -26 -38 -28 0 -24 108 68 137 116 11 19 22 26 37 23 11 -2 101 0 199 4 97 4 177 5 177 2 0 -17 -63 -89 -94 -108 -31 -20 -62 -25 -229 -37 -105 -7 -208 -13 -227 -13 -19 0 -63 -3 -96 -6 -129 -15 -251 58 -307 182 -25 57 -48 162 -30 135 5 -7 33 -15 61 -19z m523 -94 c-8 -22 -16 -25 -58 -27 -26 -2 -106 -7 -177 -13 -139 -10 -145 -9 -170 40 -23 45 -29 71 -14 66 7 -2 105 -1 218 3 l205 7 3 -26 c2 -14 -1 -36 -7 -50z"/>
</g>
<g id="layer114" fill="#aad3d0" stroke="none">
<path d="M385 1048 c-99 -108 -157 -217 -202 -375 -24 -83 -28 -116 -27 -218 0 -102 5 -132 27 -200 36 -109 94 -182 178 -224 59 -29 68 -31 178 -31 116 0 459 24 515 36 17 4 54 29 83 57 43 41 57 62 73 115 26 82 25 130 -2 220 -24 84 -79 155 -131 170 -17 6 -105 18 -193 28 l-162 17 8 26 c4 14 21 53 38 86 29 57 43 78 134 207 20 29 59 71 87 93 27 22 50 43 51 48 0 4 -135 7 -299 7 l-299 0 -57 -62z m549 -30 c-38 -40 -96 -114 -129 -165 -69 -106 -88 -133 -80 -115 6 12 3 13 -45 17 -144 13 -405 26 -421 22 -17 -4 -19 -2 -13 16 16 54 91 180 141 236 l54 61 277 2 c152 2 279 2 281 1 2 -2 -27 -35 -65 -75z m-474 -365 l65 -6 -44 -15 c-50 -17 -118 -80 -143 -133 l-18 -36 -56 9 c-32 5 -63 7 -70 4 -28 -11 -28 49 -2 153 l11 43 96 -6 c53 -4 125 -9 161 -13z m118 0 c-10 -2 -26 -2 -35 0 -10 3 -2 5 17 5 19 0 27 -2 18 -5z m89 -49 c37 -21 73 -59 98 -103 5 -10 2 -12 -11 -8 -11 3 -106 3 -212 -1 -105 -4 -192 -6 -192 -4 0 13 33 62 57 83 36 34 64 48 116 59 54 10 92 4 144 -26z m238 0 c88 -9 172 -22 188 -30 27 -15 70 -72 81 -109 6 -19 2 -20 -135 -17 -78 2 -161 -1 -185 -6 -43 -9 -43 -9 -54 22 -13 41 -63 100 -114 138 l-41 30 50 -6 c28 -3 122 -13 210 -22z m-111 -170 c3 -9 6 -29 6 -45 l0 -29 -113 0 c-63 0 -169 -3 -236 -7 l-122 -6 3 44 3 44 170 5 c94 3 195 7 226 8 44 2 58 -2 63 -14z m412 -68 c3 -13 4 -38 2 -57 l-3 -33 -100 -3 c-55 -2 -144 -5 -197 -7 -110 -5 -106 -8 -92 76 l7 37 136 4 c75 1 160 4 188 5 48 2 53 0 59 -22z m-953 -10 c35 -6 47 -4 48 6 0 7 10 -17 22 -53 31 -91 70 -149 102 -149 13 0 92 5 175 11 83 6 154 8 157 5 11 -11 -47 -86 -87 -112 -22 -15 -40 -28 -40 -30 0 -26 103 66 135 120 l24 42 158 3 c87 1 177 6 201 11 48 9 50 5 22 -49 -24 -48 -84 -99 -130 -110 -19 -5 -118 -14 -220 -19 -102 -6 -198 -12 -215 -13 -101 -10 -182 -3 -226 19 -103 50 -172 157 -195 302 -5 37 -4 43 7 34 8 -7 35 -15 62 -18z m542 -83 c-12 -81 -4 -78 -201 -91 -196 -13 -192 -14 -225 49 -35 70 -31 74 73 74 86 -1 331 9 352 13 4 1 5 -19 1 -45z"/>
</g>
<g id="layer115" fill="#d0e4df" stroke="none">
<path d="M399 1060 c-55 -62 -85 -98 -106 -129 -35 -52 -83 -165 -110 -258 -24 -83 -28 -116 -27 -218 0 -102 5 -132 27 -200 36 -109 94 -182 178 -224 59 -29 68 -31 178 -31 116 0 459 24 515 36 17 4 54 29 83 57 43 41 57 62 73 115 26 82 25 130 -2 220 -24 84 -79 155 -131 170 -17 6 -105 18 -193 28 l-162 17 8 26 c4 14 21 53 38 86 29 57 43 78 134 207 20 29 59 71 87 93 27 22 50 43 51 48 0 4 -134 7 -299 7 l-298 0 -44 -50z m601 33 c0 -4 -24 -32 -54 -63 -65 -66 -151 -186 -202 -280 -21 -38 -41 -65 -44 -60 -7 11 -455 44 -471 34 -14 -8 -6 18 28 100 33 80 84 158 145 222 l51 54 273 0 c151 0 274 -3 274 -7z m-507 -414 c168 -10 207 -15 207 -27 0 -12 -12 -13 -70 -8 -135 14 -238 -38 -287 -144 l-28 -60 -70 4 -70 5 1 68 c1 38 9 95 18 127 l17 58 37 -5 c20 -3 130 -11 245 -18z m133 -54 c19 -8 32 -10 29 -5 -8 13 -9 13 213 -10 190 -19 230 -30 264 -67 18 -19 62 -112 56 -118 -1 -1 -85 -5 -185 -8 l-182 -5 -26 56 c-26 58 -74 115 -110 134 -11 5 -3 -4 18 -22 34 -29 67 -77 67 -98 0 -4 -87 -9 -192 -11 -106 -1 -203 -5 -216 -8 l-23 -5 16 38 c29 69 84 115 162 133 55 13 70 13 109 -4z m164 -184 c5 -11 10 -36 10 -55 l0 -36 -73 0 c-145 0 -377 -13 -377 -22 0 -7 344 -2 418 7 31 4 32 3 31 -33 0 -20 -5 -53 -12 -72 -12 -34 -13 -35 -77 -41 l-65 -6 63 -1 63 -2 -30 -44 c-17 -25 -46 -56 -63 -71 -18 -15 -24 -22 -12 -16 31 15 92 86 116 135 l21 44 126 1 c69 1 159 4 200 8 l73 6 -7 -24 c-17 -53 -25 -68 -56 -103 -56 -64 -83 -72 -294 -85 -104 -7 -198 -14 -207 -17 -10 -3 -18 -1 -18 5 0 7 -8 7 -26 1 -36 -14 -142 -12 -187 4 -129 46 -214 175 -223 336 -2 41 -1 69 2 63 3 -8 27 -13 64 -13 l58 0 7 -46 c9 -63 31 -122 62 -167 23 -33 30 -37 67 -35 40 1 40 1 6 5 -45 6 -63 23 -90 86 -16 35 -23 74 -24 122 l-1 70 160 5 c88 3 188 7 222 8 53 2 64 -1 73 -17z m414 -57 c11 -29 7 -114 -6 -119 -7 -3 -97 -8 -201 -12 l-187 -8 0 41 c0 23 3 55 6 72 6 31 8 31 73 35 36 2 121 4 187 5 103 2 123 0 128 -14z"/>
<path d="M538 173 c17 -2 47 -2 65 0 17 2 3 4 -33 4 -36 0 -50 -2 -32 -4z"/>
</g>


</svg>