<svg xmlns="http://www.w3.org/2000/svg" viewBox="-0.0005579659482464194 -0.0003732442855834961 200.0005645751953 102.94037628173828"><path fill="#004877" d="M50.982.002c-3.881.07-7.966.923-11.803 2.61-3.82 1.684-7.373 4.14-10.52 7.013-3.127 2.89-5.881 6.144-8.297 9.622-2.424 3.48-4.543 7.154-6.372 10.862-1.84 3.689-3.378 7.452-4.747 11.12-1.37 3.667-2.489 7.256-3.464 10.691-.982 3.433-1.767 6.712-2.438 9.75A196.008 196.008 0 00.69 76.468c-.24 1.788-.414 3.179-.513 4.149-.118.965-.171 1.497-.171 1.497a.601.601 0 00.513.684.611.611 0 00.727-.513s.106-.495.256-1.454c.144-.958.384-2.378.685-4.149.658-3.537 1.6-8.555 3.164-14.497.777-2.973 1.73-6.191 2.823-9.537 1.086-3.33 2.321-6.813 3.806-10.35 1.47-3.52 3.129-7.107 5.046-10.605 1.908-3.504 4.079-6.945 6.5-10.136 2.406-3.205 5.092-6.13 8.04-8.638 2.94-2.486 6.174-4.516 9.495-5.816 3.303-1.306 6.716-1.814 9.921-1.754 3.2.086 6.229.74 8.896 1.71 2.684.983 4.996 2.235 7.013 3.465 2.008 1.25 3.709 2.434 5.047 3.507.17.13.31.254.47.385-.127.053-.263.073-.385.128-1.486.6-2.896 1.358-4.277 2.18a35.752 35.752 0 00-3.977 2.695 43.698 43.698 0 00-3.592 3.165 47.602 47.602 0 00-3.207 3.378c-2.03 2.352-3.776 4.852-5.346 7.313-3.105 4.958-5.33 9.88-6.928 14.241-1.596 4.37-2.535 8.165-2.951 10.863-.21 1.35-.315 2.38-.342 3.121-.022.389 0 .416 0 .6v.213c0 .305.25.539.556.556.315.017.588-.216.599-.513 0 0-.012-.125 0-.3.01-.183.005-.135.042-.47.062-.677.199-1.699.47-2.994.516-2.566 1.58-6.214 3.336-10.392 1.752-4.16 4.173-8.897 7.399-13.514a57.633 57.633 0 015.431-6.714 42.226 42.226 0 013.122-3.036 37.605 37.605 0 013.464-2.737 32.252 32.252 0 013.72-2.31 26.855 26.855 0 013.892-1.71c.654-.25 1.345-.436 2.01-.642.156-.039.277-.092.428-.128.522-.125 1.055-.256 1.582-.342.67-.13 1.345-.202 2.01-.3.327-.046.652-.088.984-.128.257-.022.5-.03.77-.042h.256c1.314-.081 2.623.063 3.892.17 1.259.17 2.46.377 3.635.685a35.598 35.598 0 016.5 2.352 46.548 46.548 0 015.175 2.865c.734.495 1.425.946 2.053 1.412.62.45 1.2.88 1.71 1.282.493.394.976.722 1.369 1.027.383.313.68.58.94.812.54.443.856.685.856.685l.043.085c.027.022.094.026.128.043a2.87 2.87 0 003.464-4.576s-.352-.224-.94-.684a28.624 28.624 0 01-1.07-.813c-.443-.313-.963-.667-1.54-1.069-.56-.41-1.219-.835-1.924-1.283-.69-.47-1.478-.912-2.31-1.411-1.703-.974-3.655-2.03-5.9-2.951-2.235-.937-4.772-1.794-7.528-2.352a32.542 32.542 0 00-4.276-.556c-1.48-.072-2.992-.108-4.533.043-.371.027-.746.04-1.112.085-.195-.162-.483-.417-.898-.77a35.58 35.58 0 00-1.454-1.154c-.587-.445-1.23-.958-2.01-1.497-1.52-1.129-3.463-2.415-5.774-3.72a45.802 45.802 0 00-8.296-3.636C58.496.668 54.862-.047 50.982.002zM185.438 41.7c-1.619 0-3.913.676-5.132 1.283l-.599.3.385 1.71c-2.284 4.353-27.163 52.627-27.413 53.115a65.137 65.137 0 00-1.582 2.908c-.25.43-.264.826-.086 1.112.188.335.6.47 1.283.47h4.79c1.685 0 1.993-.419 2.48-1.283l8.425-16.85h11.248c2.605-.063 4.947-2.707 5.003-5.687v-.855h-12.787l11.59-23.008 8.596 45.46c.475 2.232.686 2.565 1.839 2.565 1.053 0 3.22-.603 4.79-1.069l.77-.256c.709-.216 1.056-.697.94-1.283L188.56 44.65c-.72-2.63-2.118-2.951-3.122-2.951zm-48.197.043c-4.253 0-11.04 1.006-13.258 1.796l-.085.043c-1.38.994-2.455 3.347-2.609 4.661a.737.737 0 00.77.727c.062 0 .517-.061 1.155-.128h.085c.683-.065 1.526-.192 2.224-.257-.688 3.776-2.114 13.328-3.678 23.393-1.829 12.004-3.767 24.38-4.704 29.466-.072.39.026.72.214.983.294.407.804.486 1.026.513h5.474c1.076 0 1.687-.807 1.882-1.54.065-.464 6.964-46.251 8.21-53.584.783-.048 2.187-.043 2.823-.043 4.037 0 7.305 1.19 9.452 3.421 2.056 2.145 3.1 5.187 2.95 8.852-.383 9.589-5.022 14.455-13.77 14.455-1.23 0-2.106-.075-2.994-.427-.544-.243-.87.003-.898.598-.121 1.815.52 3.507 1.71 4.534 1.04.886 2.042 1.154 4.491 1.154 7.821 0 19.645-5.344 20.228-20.142.233-5.433-1.165-9.807-4.19-12.958-3.506-3.65-9.074-5.517-16.508-5.517zm-41.355.043c-25.849 0-36.157 19.817-36.778 33.143-.443 8.334 1.717 15.305 6.286 20.143 4.818 5.102 12.264 7.824 21.512 7.868h.384c5.305 0 10.262-.713 15.995-2.309l.47-.128.128-.513c.25-1.386.719-4.04 1.283-7.142 1.258-6.863 2.825-15.45 3.208-17.363.077-.63.118-1.432-.385-2.01-.373-.45-.96-.63-1.753-.642-.56 0-3.35.27-3.85.343-3.065.426-7.187 1.49-7.227 1.496l-.085.043c-1.552 1.12-3.004 5.118-3.165 6.244-.027.181-.046.32.043.428.188.25.501.427.855.427l1.412-.17c1.002-.097 3.558-.492 4.533-.642-.04.205-.067.47-.129.812-.48 2.968-1.637 9.883-2.523 14.113-1.326.412-4.314.984-7.013.984-6.437-.04-11.722-2.005-15.225-5.688-3.615-3.834-5.325-9.366-5.004-16.037.738-15.77 11.89-26.814 27.157-26.814h.17c4.652.027 8.879 1.715 10.264 2.266.584.233 1.162.385 1.711.385 2.422 0 3.758-2.17 4.234-4.191l.128-.513-.385-.342c-2.81-2.43-9.386-4.157-15.994-4.191h-.257z"></path></svg>