<svg xmlns="http://www.w3.org/2000/svg" viewBox="135.53900146484375 71.53900146484375 328.46099853515625 108.34100341796875"><g fill="none"><path fill="#F8AF00" d="M135.539 71.539h27.07v27.07h-27.07z"></path><path fill="#70767D" d="M162.609 98.609h27.07v27.07h-27.07zm27.131-27.07h27.07v27.07h-27.07zm27.07 27.07h27.07v27.07h-27.07z"></path><path fill="#362B77" d="M189.74 125.74h27.07v27.07h-27.07zm27.07 27.07h27.07v27.07h-27.07zm-54.201 0h27.07v27.07h-27.07zm-27.07-27.07h27.07v27.07h-27.07zm135.883-13.825h27.322c3.618 0 6.875.478 9.77 1.435 2.895.958 5.428 2.334 7.48 4.188 2.05 1.855 3.678 4.129 4.824 6.88 1.146 2.753 1.689 5.924 1.689 9.514 0 3.41-.603 6.461-1.75 9.213a20.775 20.775 0 01-4.824 7.06c-2.05 1.974-4.463 3.47-7.298 4.487s-5.97 1.556-9.409 1.556h-10.434v22.077h-17.37v-66.41zm25.814 30.453c2.412 0 4.342-.778 5.73-2.274 1.387-1.496 2.11-3.47 2.11-5.863 0-2.513-.663-4.547-1.99-6.043-1.327-1.556-3.317-2.273-5.91-2.273h-8.324v16.512h8.384v-.06zm34.077-30.453h25.693c5.126 0 9.89.658 14.294 1.974 4.402 1.316 8.202 3.35 11.399 6.102 3.196 2.693 5.73 6.223 7.539 10.47 1.81 4.248 2.714 9.274 2.714 15.018 0 5.504-.905 10.29-2.774 14.359-1.87 4.068-4.343 7.478-7.6 10.23-3.196 2.753-6.996 4.787-11.46 6.163-4.402 1.376-9.167 2.034-14.233 2.034h-25.573v-66.35zm25.03 50.854c5.85 0 10.313-1.615 13.51-4.906 3.196-3.29 4.764-7.538 4.764-12.803 0-2.633-.362-5.086-1.086-7.24a14.582 14.582 0 00-3.377-5.564c-1.508-1.555-3.378-2.752-5.67-3.65-2.291-.837-5.006-1.315-8.142-1.315h-7.237v35.418h7.237v.06zm80.155-22.376H464v29.975c-4.04 3.41-8.625 5.803-13.812 7.299a55.985 55.985 0 01-15.62 2.213c-5.429 0-10.314-.837-14.596-2.453-4.343-1.615-7.961-3.948-10.977-6.94-3.016-2.991-5.308-6.7-6.876-11.008-1.568-4.308-2.352-9.154-2.352-14.539 0-5.025.845-9.692 2.533-14 1.69-4.308 4.102-7.957 7.178-11.068 3.075-3.111 6.755-5.504 10.976-7.24 4.222-1.735 8.927-2.572 14.114-2.572 5.548 0 10.735.897 15.62 2.752 4.825 1.855 8.927 4.846 12.184 9.094l-11.52 11.547c-2.05-2.034-4.282-3.77-6.695-5.085-2.352-1.317-5.126-1.975-8.263-1.975-2.895 0-5.428.479-7.599 1.496-2.232 1.017-4.04 2.333-5.549 4.008-1.508 1.676-2.653 3.71-3.438 5.983a22.333 22.333 0 00-1.206 7.3c0 2.871.422 5.444 1.327 7.717.844 2.274 2.05 4.248 3.619 5.864 1.568 1.615 3.438 2.871 5.609 3.769 2.231.897 4.704 1.316 7.418 1.316 2.232 0 4.343-.24 6.333-.778a17.267 17.267 0 005.79-2.812v-6.341h-11.64v-13.522h-.06z"></path></g></svg>