<svg xmlns="http://www.w3.org/2000/svg" viewBox="0.8537827730178833 0.18607544898986816 838.9185791015625 248.6039276123047"><g fill="none"><path fill="#2E395D" d="M566.21 113.25c0 20.76-.38 41.54.2 62.29.2 7.22-2.14 8.52-8.66 8.24-12.87-.54-12.87-.18-12.87-13 0-26.31.22-52.62-.14-78.92-.08-6 1.65-7 7.42-7.77 14.14-1.9 22.37 2.91 28.61 16.15 8.41 17.86 19.32 34.53 30.51 54.07v-45.52c0-3.63-.18-7.26-.21-10.88-.11-13.53-.09-13.17 13.1-13.63 6.27-.23 8.13 1.38 8.05 7.84-.37 28.12-.3 56.24 0 84.36 0 5.33-1 6.79-6.76 7.43-12.68 1.41-20.19-2.72-26-14.56-9.53-19.39-21-37.81-31.72-56.65l-1.53.55zm-81.22-28.26c8.51-2.69 11.95 1.64 15 9.21 11.18 27.4 23 54.52 35 81.6 2.82 6.38 1.78 8.1-5.26 8-14.51-.23-15.08.28-20-13.95-2.78-8.05-7-10.89-15.17-9.92a64.67 64.67 0 01-17.19 0c-11.13-1.69-17.64 2-20.07 13.38-.75 3.49-.94 9-5.07 9.86a43.93 43.93 0 01-17.1.23c-5.33-1-1.25-5-.38-7.11 10.42-25.09 21.09-50.08 31.71-75.1.94-2.22 2.28-4.33 2.87-6.64 2.1-8.27 6.58-12.6 15.66-9.56zm-1.18 19.43c-2.57 6.67-4.64 11.86-6.58 17.11-8.42 22.73-8.4 22.73 16.06 20.95h1.81c3-.11 3.34-1.44 2.26-4.09-4.46-10.83-8.71-21.72-13.58-33.97h.03zM265.18 85c8.84-2.76 12.41 1.35 15.53 9 11.13 27.42 23 54.54 34.87 81.66 2.62 6 2.5 8.35-5.17 8.1-14.69-.47-15.31.14-20-13.95-2.72-8.13-6.87-10.67-15.07-9.92-8.4.76-16.93.4-25.38 0-5.09-.23-8 1.48-9.07 6.5-.31 1.46-1.31 2.8-1.52 4.25-1.61 11.24-8.4 14.16-18.94 13.22-6.08-.55-8.11-1-5.22-7.61 11.17-25.44 21.85-51.09 32.72-76.65a46.24 46.24 0 002.14-5c2.21-7.82 6.08-13.09 15.11-9.6zm-.76 19.61c-2.66 6.89-4.68 12.15-6.71 17.41-8.7 22.48-7.39 24 17.09 20.43.3-.05.6-.05.9-.08 2.74-.23 3.66-1.35 2.49-4.13-4.47-10.71-8.81-21.48-13.77-33.63zm561.78 78.98c-8 2.85-12-2.45-13.58-10.59-2.09-11-8.5-14.85-19.19-13-2.64.46-5.43.07-8.15.07-19.88 0-20.17-.13-27.72 18.69-3.31 8.24-9.7 3.66-14.67 4.69-7.89 1.62-9.23-1-6-8.49 12.15-27.65 24.31-55.32 35.24-83.46 4-10.42 11.39-5.82 17.69-7.06 6.3-1.24 8.93 1.93 11.21 7.44 11.1 26.78 22.57 53.42 34 80.05 5.16 11.85 5.3 11.79-8.83 11.66zm-54.85-41.11h24.32c2.5 0 5.29-.2 3.77-4-4.31-10.72-8.71-21.4-13.86-34-5.13 13.64-9.48 25.3-14.23 38zm-76.59 41.18c.51 3.74 1.93 3.57 3 3.86 10.23 2.81 14.23 8.19 11.63 15.6-2.25 6.44-15.59 13-21.84 10.05a27.84 27.84 0 00-8.38-2.86c-4.15-.53-4.68-3.33-4.12-6.59.72-4.19 3.58-1.78 5.65-1.56 3.9.41 7.77 1.17 11.68 1.31 2.44.08 4.93-.72 4.92-4 0-2.74-1.9-3.77-4.19-3.63-5.15.32-7.13-2-6.5-7 .55-4.38-2-5.37-5.84-6.12-20.64-4.06-30.66-15-33.69-35.8a80.79 80.79 0 011.73-32.33c4.75-18.21 16.59-28.45 35.33-29.57 12.65-.75 25.37-.17 38-.68 8.24-.33 5.18 5.46 5.56 9.28.43 4.28.92 8.35-6 7.92-9.63-.59-19.33-.23-29 0-12.46.27-19 5.48-21.86 17.51a71.71 71.71 0 00-1 28.81c2.15 12.55 8.15 17.86 20.93 18.26 10.27.31 20.56.43 30.81 0 7.54-.35 6.38 4.47 6.19 8.85-.18 4 2.1 9.44-6 8.87-8.87-.66-17.85-.18-27.01-.18zM2.86 248.78c-3.47-13.32.48-20.94 11.56-27.76 52.13-32 128.67-30.65 178.9 4.32 7.16 5 7.51 6.4 5.41 23.45-28.05-25.53-61.42-36.13-98.08-36-36.38.06-69.66 10.33-97.79 35.99zM2.49 36.37C.88 20.66.73 20.24 14.18 15.59 33.09 9.04 52.46 5.33 72.48 2.42c39.81-5.79 77.29.06 114.38 13.1 13.49 4.75 13.36 5.1 12.18 20.73C133.5 7.6 67.93 7.02 2.49 36.37zm320.9 85.95c0-11.95.34-21.34-.13-30.68-.28-5.59 1.49-7.81 7-7.21 2.4.31 4.83.31 7.23 0 5.34-.84 6.78 1.39 6.71 6.5-.24 17.82-.16 35.66-.07 53.48.09 17.15 5 22.17 22 22.65 6.95.2 13.9.1 20.85 0 6.25 0 4.56 4.68 4.27 7.79-.29 3.11 2.74 8.89-4.18 8.76-12.66-.24-25.41 1-38-1.33-13.22-2.46-22-11.41-24.49-24.59-2.3-12.57-.71-25.29-1.19-35.37zm79.31 11c0-13.87.33-27.74-.15-41.59-.21-6.08 1.6-7.67 7.55-7.49 14.39.43 14.39.13 14.39 14.23 0 25.62-.25 51.24.18 76.85.12 6.94-1.95 9.32-8.62 8.27a23 23 0 00-6.31.11c-5.38.64-7.34-1.26-7.18-7 .43-14.44.14-28.92.14-43.38z"></path><path fill="#2E395D" d="M101.31 186.72c-8.2 3.89-17.1 1.27-25.61 2.83-29.57 5.41-40.66 9.89-72.46 30.56-3.93-13.75-3-16.61 8.92-23.75 25.73-15.42 54-22 83.65-23.44 1.67-.09 3.39.88 5.09 1.37.14 4.14.277 8.283.41 12.43zm-.88-48.51c-35.13.4-67.95 9.14-98 28.39-1.46-17.26-1.58-17.52 12.68-23.92 12.76-5.73 26-9.6 39.72-13 15-3.77 29.87-5.09 45-6.25 2.29 4.82 2 9.78.6 14.78zm2.39-49.64c-35.15.73-68.78 7.66-99.75 25.58-3-15.12-2.51-16 9.45-21.49C38.4 80.76 65.7 75.21 94.02 74.1c2.61-.1 5.51-1 7.57 1.67-.03 4.35-1.33 8.74 1.23 12.8z"></path><path fill="#E4D196" d="M101.31 186.72c-.127-4.14-.263-8.283-.41-12.43 28.8-2 55.49 5.05 80.64 18.77a53.46 53.46 0 004.9 2.31c14.83 6.25 15.64 7.87 12 25.69-12.36-8.33-24.61-16.15-38.18-21.6a97.4 97.4 0 00-31.92-7.22 80 80 0 01-27.03-5.52z"></path><path fill="#2E395D" d="M100.74 163.04c-35.56.28-68.3 9.72-97.58 30.52-3.47-15.54-2.92-17.32 10.34-24.08 27.54-14.05 56.57-22.07 87.78-20.69l-.54 14.25zm-5.27-64.35l4.55-.09c-.2 5.073-.397 10.143-.59 15.21-34.58-.32-66.61 8.9-96.5 26.38-2.85-15.79-2.7-16 9.82-22C38.1 105.87 65.09 100.33 93 98.6l2.47.09z"></path><path fill="#E4D196" d="M100.43 138.21c1.4-5 1.69-10-.65-14.81 16.36.6 32.29 3.8 48.35 6.86a161.15 161.15 0 0146.86 16.72c7.5 4 4.79 10.34 4.25 15.79-.39 3.89-3.9 1.36-5.71.5-6.44-3.06-12.85-6.13-19.36-9-17.07-7.65-34.81-11.56-53.28-13.13-6.9-.63-13.64-1.95-20.46-2.93zm.99-112.93c14.4.17 29-1.16 43.12 1 12.35 1.85 24.32 7.07 36 11.86 4.36 1.79 8.58 4.14 13.21 5.24 3.71.88 6.23 2.55 5.87 6.62-.33 3.74 2 8.57-1.63 11-3.32 2.17-6.79-1.34-9.82-3-19.16-10.7-39.95-14.62-61.56-16.82-8.39-.86-17.39 1.38-25.37-3.11l.18-12.79zm-.68 137.76l.54-14.25c22.87-.95 45.43 1.09 66.21 11.2 7.86 3.82 16.16 6.68 23.71 11.06 3 1.76 7.31 2.87 8.07 6.68.9 4.58 2.53 10.59-1.08 13.72-3.61 3.13-6.73-2.44-9.73-4.4-26.7-17.45-56.67-22.65-87.72-24.01z"></path><path fill="#2E395D" d="M101.13 63.37c-32.6 2.21-64.66 6.7-93.87 22.78-4.61 2.54-5.23 1.28-5.66-3.44-.69-7.59 1.61-11.76 9.07-15 28.76-12.44 58.71-18.14 89.89-18.24l.57 13.9zm.29-38.09l-.15 12.68c-10.11 3.49-20.8 1.87-31.18 3.52-20.41 3.24-40.1 8.44-59 16.76-2.62 1.15-7.08 6.47-8.59 1.59-1.51-4.65-4.11-12.11 3.81-15.71a215.62 215.62 0 0151-15.53c14.57-2.6 29.22-4.7 44.11-3.31z"></path><path fill="#E4D196" d="M99.43 113.81c.187-5.067.383-10.137.59-15.21 15.64-.66 30.66 3.37 46 5.59 15.84 2.29 29.22 10.31 44 14.67 9.56 2.82 10.33 8.35 9.81 16.15-.31 4.66-1.79 4.9-5.58 2.78-6.8-3.8-13.84-7.2-20.85-10.6-20.32-9.84-42.16-11.25-64.22-11.56-3.29-.05-6.52-1.19-9.75-1.82zm1.7-50.44l-.57-13.88c17.53-.84 34.66 1.05 51.08 7.62 4.82 1.93 10.06 1.35 15.06 2.22 9.63 1.66 17.37 7.71 26.75 9.66 5.67 1.17 9 11.43 5.75 16.37-2.31 3.51-4.94 1-7.08-.09a183.87 183.87 0 00-37-13.88c-14.08-3.66-27.94-6.69-42.5-6.25-3.91.12-7.92.47-11.49-1.77zm1.69 25.2c-2.56-4.06-1.26-8.49-1.23-12.8 24.67-1.57 48.38 3.46 71.67 10.84 7.86 2.5 15.39 6.07 23 9.37 3.34 1.46 5.25 15.06 2.51 17-1.9 1.38-3.36-.21-4.84-1.15-12.82-8.13-27.52-11.83-41.33-17.63-12.12-5.1-25-2.9-37.53-3.79-4.08-.29-8.55 1.22-12.25-1.84zm562.17 115.55H486.73v-2.06h178.26v2.06zm-449.93-2.88c53.46.37 106.93-1.19 160.36 3.32H214.99l.07-3.32zm575.44.06h45.52c1.84 0 3.83.44 3.75 2.82-.06 1.77-1.69 2.33-3.25 2.38a249.76 249.76 0 01-46.07-2.23l.05-2.97zm-17.73 5.37H726c-2.56 0-6.56.56-6.44-3 .12-3.85 4.22-2.36 6.61-2.36 15.57 0 31.18-.51 46.57 2.67l.03 2.69zM95.47 98.69L93 98.57a1.46 1.46 0 012.47.12z"></path></g></svg>