<svg xmlns="http://www.w3.org/2000/svg" viewBox="113.99999237060547 37.0001335144043 371.00018310546875 177.99986267089844"><g fill="none"><path fill="#B1C825" d="M267 55.22c-1.366-1.362-2.823-2.633-4.28-3.903l-58.828 58.64c-4.007-3.993-4.007-10.53 0-14.523l50.177-50.018c-1.73-.998-3.552-1.906-5.373-2.814l-.182.182-58.92 58.732c-4.006-3.995-4.006-10.53 0-14.615L237.86 38.79c-20.49-4.993-42.983.453-58.92 16.43-10.563 10.44-16.482 23.783-17.94 37.49l38.703-38.58c4.007 3.995 4.007 10.53 0 14.525l-38.52 38.398c1.73 13.162 7.558 25.87 17.757 35.947L267 55.22zM298.362 39L211 125.617c1.648 1.18 3.297 2.18 4.945 3.178l77.106-76.448c4.03 3.995 4.03 10.532 0 14.617l-67.033 66.461a83.554 83.554 0 006.319 1.907l40.66-40.403c4.028 3.995 4.028 10.532 0 14.527l-27.748 27.51c16.758.545 33.608-5.538 46.337-18.158 22.07-21.61 24.267-55.475 6.776-79.808"></path><path fill="#0A0C06" d="M130.133 188.712c-1.803 0-3.515-.09-4.957-.27v24.938c0 1.08-.54 1.62-1.622 1.62h-7.932c-1.081 0-1.622-.54-1.622-1.62v-59.96c0-1.08.36-1.62 1.622-1.98 1.803-.54 8.292-1.441 15.593-1.441 15.772 0 24.785 6.752 24.785 19.356 0 12.514-8.562 19.356-25.867 19.356zm1.622-32.32c-3.154 0-4.957.18-6.579.45v25.298c.991.18 2.433.27 3.785.27 10.636 0 15.593-4.411 15.593-12.964.09-7.922-3.966-13.054-12.799-13.054zM197.524 214h-8.116c-1.107 0-1.845-.368-2.214-1.105l-7.01-15.005c-1.106-2.394-3.228-5.155-6.271-5.155h-2.675v19.884c0 .92-.461 1.289-1.384 1.289h-7.47c-.923 0-1.384-.368-1.384-1.289v-46.765c0-.92.277-1.381 1.383-1.657 1.568-.46 7.01-1.197 13.559-1.197 15.126 0 20.66 6.168 20.66 14.73 0 7.64-6.456 11.599-11.345 12.98v.184c1.753.92 4.427 3.682 5.811 6.351l7.563 14.361c.185.369.369.737.369 1.105-.184.92-.553 1.289-1.476 1.289zm-21.767-45.016c-2.121 0-3.689.092-4.611.276v18.78c.737.092 1.844.092 3.228.092 7.47 0 11.621-3.59 11.621-9.298.185-6.536-2.951-9.85-10.238-9.85zM226.545 215C213.507 215 204 205.786 204 188.818c0-16.24 9.145-25.818 22.545-25.818 13.4 0 22.455 9.579 22.455 25.818 0 16.968-9.416 26.182-22.455 26.182zm0-45.614c-7.424 0-11.77 7.298-11.77 18.61 0 12.681 4.798 20.07 11.951 20.07 7.334 0 11.59-7.389 11.59-18.884 0-12.498-4.437-19.796-11.77-19.796zM329.772 214h-8.008c-.91 0-1.365-.374-1.638-1.308l-3.913-12.143h-17.745l-4.095 12.143c-.273.934-.637 1.308-1.638 1.308h-6.37c-.91 0-1.365-.467-1.365-1.308 0-.373.091-.747.273-1.214l17.29-47.17c.364-.934.637-1.308 1.638-1.308h7.462c1 0 1.365.374 1.729 1.308l17.29 47.17c.182.374.273.84.273 1.214.182.841-.182 1.308-1.183 1.308zm-19.838-33.72c-1.547-4.857-2.366-10.555-2.366-10.555h-.182s-.819 5.698-2.366 10.555l-4.641 14.198h14.105l-4.55-14.198zM371.613 214h-8.136c-1.11 0-1.85-.368-2.22-1.105l-7.026-15.005c-1.11-2.394-3.328-5.155-6.287-5.155h-2.681v19.884c0 .92-.463 1.289-1.387 1.289h-7.49c-.924 0-1.386-.368-1.386-1.289v-46.765c0-.92.277-1.381 1.387-1.657 1.572-.46 7.027-1.197 13.591-1.197 15.163 0 20.71 6.168 20.71 14.73 0 7.64-6.471 11.599-11.464 12.98v.184c1.757.92 4.438 3.682 5.825 6.351l7.581 14.361c.185.369.37.737.37 1.105-.092.92-.462 1.289-1.387 1.289zm-21.82-45.016c-2.126 0-3.606.092-4.53.276v18.78c.74.092 1.849.092 3.236.092 7.489 0 11.65-3.59 11.65-9.298 0-6.536-3.144-9.85-10.356-9.85zM434.623 214h-7.618c-.918 0-1.193-.374-1.285-1.308l-2.02-28.489c-.275-4.11-.367-10.835-.367-10.835h-.183s-1.377 6.632-2.846 10.835l-10.372 28.583c-.367.934-.642 1.214-1.652 1.214h-2.753c-1.01 0-1.285-.28-1.653-1.214l-10.28-28.583c-1.468-4.11-2.937-10.835-2.937-10.835h-.184s0 6.632-.275 10.835l-2.02 28.49c-.091.933-.458 1.307-1.376 1.307h-6.425c-.826 0-1.377-.374-1.377-1.12 0-.375 5.048-48.572 5.048-48.572.092-.934.367-1.308 1.285-1.308h8.261c.918 0 1.377.467 1.652 1.308l10.189 27.741c1.285 3.55 2.02 7.66 2.02 7.66h.183s.734-4.11 2.019-7.66l10.188-27.741c.276-.841.735-1.308 1.653-1.308h8.169c.918 0 1.285.374 1.376 1.308 0 0 4.957 48.197 4.957 48.571-.184.747-.55 1.121-1.377 1.121m49.089 0h-8.014c-.91 0-1.366-.374-1.639-1.308l-3.825-12.143h-17.757l-4.098 12.143c-.273.934-.637 1.308-1.639 1.308h-6.374c-.91 0-1.366-.467-1.366-1.308 0-.373.091-.747.273-1.214l17.302-47.17c.364-.934.637-1.308 1.64-1.308h7.466c1.002 0 1.366.374 1.73 1.308l17.302 47.17c.182.374.274.84.274 1.214.09.841-.274 1.308-1.275 1.308zm-19.852-33.72c-1.548-4.857-2.368-10.555-2.368-10.555h-.182s-.82 5.698-2.367 10.555l-4.645 14.198h14.115l-4.553-14.198zm-194.822 4.11v-14.478h17.264c3.68-.187 6.698-3.176 6.698-6.912h-33.585c-.943 0-1.415.374-1.415 1.308v48.384c0 .934.472 1.308 1.415 1.308h8.113c.944 0 1.415-.374 1.415-1.308v-21.67h9.812c3.396-.374 6.132-3.176 6.132-6.632h-15.85z"></path></g></svg>