<svg xmlns="http://www.w3.org/2000/svg" viewBox="0.9343857765197754 0.30000001192092896 708.0656127929688 280.70001220703125"><g fill="none"><path fill="#711A3A" d="M22.3 1C13.4 3.1 4.2 12.1 2 20.8.7 26.1.5 261.9 1.9 266.6c1.8 6.2 7.6 14.4 10.2 14.4.5 0 .9-2.6.9-5.8v-5.7l14-10.8 14-10.9v-7.4c0-5.8-.3-7.3-1.2-6.8-1.3.8-9.4 7-19.8 15.1-3 2.4-5.8 4.3-6.2 4.3-.5 0-.8-9.4-.8-21v-20.9l21.7-16.7C56 178.1 56.5 177.8 59 179.2c1.4.8 11.1 8.1 21.7 16.1 10.5 8.1 19.5 14.7 20 14.7s6.9-4.6 14.3-10.3l13.5-10.2.3-6.4c.3-6.6-.4-10.3-1.6-8.5-.4.5-6.4 5.4-13.5 10.7-8.4 6.5-12.9 9.3-13.2 8.4-.3-.7-.4-10.2-.3-21.2l.3-20 11.5-8.8c23.5-18 30.5-23.3 31.8-24.1.8-.5 2.6.2 4.5 1.7 1.8 1.4 11.1 8.6 20.7 16.1 9.6 7.4 18.1 13.5 18.8 13.6 1.2 0 26-18.4 27.4-20.5 1-1.3 1-14.5.1-14.5-.5 0-6.6 4.5-13.8 9.9-7.1 5.5-13.3 9.7-13.7 9.5-.5-.3-.8-9.7-.8-20.9V94.1l12.8-9.7c7-5.4 17.1-13.2 22.5-17.3 5.7-4.3 10.1-7.1 10.5-6.5.4.6 4.5 3.9 9.2 7.4 4.7 3.5 14.2 10.8 21.3 16.3l12.7 9.9v20.3c0 11.2-.4 20.6-.8 20.9-.4.2-2.3-.7-4.2-2.2-9.6-7.6-22.6-17.2-23.2-17.2-.5 0-.8 3.1-.8 6.8 0 7.9-.4 7.4 15.1 19 15.5 11.7 13.9 8.1 13.9 31.7 0 11.4-.4 20.5-.9 20.5s-6.8-4.5-14-10c-7.1-5.5-13.3-10-13.6-10-.3 0-.5 3.3-.5 7.3v7.2l14.3 11.1 14.2 11 .3 20.4c.1 11.2-.1 20.7-.6 21.2-.7.7-5.5-2.5-21.3-14.9-3-2.3-5.8-4.3-6.2-4.3-.4 0-.7 3.3-.7 7.3v7.3l13.2 9.9c7.2 5.5 13.7 10.6 14.5 11.3.8.8 1.3 3.6 1.3 6.8 0 3 .4 5.4.9 5.4 1.8 0 7.2-7.5 9.1-12.8 2-5.1 2-8.1 2-123.8 0-104.4-.2-119.2-1.6-124-1.9-6.6-8.8-14.6-15.3-17.7L266.5.5 146 .3C79.7.3 24.1.5 22.3 1z"></path><path fill="#555A5A" d="M336 155.9V219h21l.2-20.3.3-20.2 20-.6c21.6-.7 25.1-1.4 35.3-7 13.7-7.6 20.2-19.2 20.2-35.7 0-15.2-5.5-26.4-16.8-33.9-11.1-7.4-12.6-7.7-48.4-8.1l-31.8-.3v63zm62-41.2c4.8 2.1 10.5 7.8 12.1 12 .5 1.3.9 5.2.9 8.6-.1 8.1-2.6 13.7-8.1 17.7-7 5-12.5 6.1-30 5.8l-15.4-.3-.3-22c-.1-12.1 0-22.6.3-23.3.4-1.2 3.8-1.3 18.3-1 15 .4 18.4.8 22.2 2.5zm46 41.3v63h21v-62c0-34.1.1-62.3.3-62.8.1-.4-4.6-.8-10.5-1l-10.8-.3V156zm42 0v63.1l10.3-.3 10.2-.3.2-44c.1-24.6.6-44.1 1.1-44.3.5-.1 1.6.8 2.4 2 .9 1.3 4.4 5.9 7.9 10.4 10.1 12.8 14.6 18.6 49.9 64.2l9.4 12.3 9.1-.3 9-.3.3-62.8.3-62.7h-22.2l.3 43c.2 28.2 0 43-.7 43-1.1-.1-1.7-.9-19.5-24-6.2-8-13.7-17.8-16.8-21.8-3.2-4.1-11.5-14.8-18.5-23.8L505.9 93H486v63zm129 0v63h94v-19l-36.2-.2-36.3-.3-.3-17.3-.2-17.2h64v-19l-31.7-.2-31.8-.3-.3-16.8-.2-16.7h72V93h-93z"></path><path fill="#711A3A" d="M207.5 179.6c-3.8 3-9.8 7.7-13.3 10.5l-6.3 4.9-3.7-3c-10.5-8.6-21.8-17-22.9-17-.9 0-1.3 2-1.3 6.8 0 7.8-1.7 5.8 17.7 20.6l10.3 7.7 14-10.6 14-10.7v-7.4c0-4.1-.3-7.4-.7-7.4-.5.1-3.9 2.6-7.8 5.6zM73 240.4v7.5l12.2 9.3c6.7 5.1 13 9.9 13.9 10.5 1.5 1.1 3.6-.1 15.1-8.9 7.3-5.6 13.6-10.6 14-11.2.8-1.1 1.1-14.6.4-14.6-.3 0-6.4 4.5-13.6 10-7.3 5.5-13.8 10-14.4 10-.7 0-3-1.5-5.2-3.3-4.1-3.5-19-14.8-21.1-16.1-1-.5-1.3 1.1-1.3 6.8zm87.2-.2l.3 7.1 13 10.3c7.2 5.7 13.6 10.3 14.3 10.3.7.1 5.9-3.3 11.5-7.6 18.3-13.7 16.7-11.8 16.7-20.1 0-3.9-.3-7.2-.7-7.2-.5 0-6.5 4.5-13.5 10-11.9 9.3-15.1 11.2-16 9.2-.4-1-24.2-19.2-25.2-19.2-.4 0-.6 3.2-.4 7.2z"></path></g></svg>