<svg xmlns="http://www.w3.org/2000/svg" viewBox="0.013333326205611229 0.23777389526367188 1281.65185546875 433.49603271484375"><g fill="none"><path fill="#848588" d="M1065.79 107.91c0-21.69.75-43.42-.2-65.07-1.11-25.47 21.13-42.77 42.23-42.601 43.77.341 87.54 0 131.31.141 22.85.07 41.51 16.69 41.92 39.48.82 45.28.82 90.57 0 135.87-.37 22.22-17.85 38.54-40 38.72-44.9.35-89.82-.06-134.73.19-22.13.13-42.23-20.82-40.89-41.66 1.44-21.61.35-43.37.36-65.07zm58.48 69c4.78-2.75 4.72-7.38 6-11.21 7.22-21.38 12.2-25 34.5-25.18 9.86-.08 19.77.75 29.52-1.67 19.82-4.91 35.08-24.11 34.88-44.05-.21-20.41-15.4-38.86-35.45-43.22-18.08-3.94-36.37-2.31-54.53-1.66-11.17.4-17.19 8.33-17.22 19.85-.087 32.667-.087 65.367 0 98.1-.04 2.9-.92 6.1 2.3 9.08v-.04z"></path><path fill="#0D4659" d="M.04 317.27c0-32.75-.06-65.5 0-98.25 0-16.21 8.84-25.84 25.07-26.06 29.32-.42 58.68-1 88 .15 41.63 1.59 62.76 22.15 68.42 63.5a101.22 101.22 0 01-3.91 44c-8.6 27.72-30.69 43.46-61.07 44.44-19 .62-38.09.47-57.12.12-7.43-.14-10.06 2.29-9.84 9.84.46 16.36.26 32.74.1 49.12-.18 18.74-6.14 24.68-24.57 25-25.08.42-25.08.42-25.07-25l-.01-86.86zm53 8.7c1.14-2.84 1.89-4.41 2.42-6 5-15.39 8.69-18.2 24.3-18.35 6.07-.06 12.18.11 18.21-.42 18.26-1.62 32.25-15 33.37-31.61 1.27-18.84-9-32.08-28.3-36.86-11.65-2.88-23.45-1.25-35.16-1.33-13.1-.1-17.6 4.75-17.76 18-.26 20.88-.417 41.76-.47 62.64-.02 4.28-.3 8.82 3.38 13.93h.01z"></path><path fill="#848588" d="M929.69 328.9c-.81 13.56.69 29.1-1.51 44.72-3.72 26.49-18 44.48-42.59 52.92-24.79 8.5-50.49 9.66-76.17 2.45-31.14-8.74-40.84-38.07-36.94-63.63 4.39-28.74 18-39.93 53-47.85 14.06-3.19 28.66-3.34 42.48-8 7.08-2.37 13.35-6.16 12.73-13.95-.7-8.74-7.84-12.92-16.1-13.22-13.82-.5-28.43-3.44-39 10-1.21 1.55-5 1.49-7.55 1.53-10.66.16-21.33-.16-32 .17-7.61.23-8.87-2.61-7.13-9.69 5.24-21.25 25.22-39 50.83-41.37 20.35-1.88 40.9-2.7 61.15 3.43 25.59 7.74 38.73 24.27 38.72 50.78.07 9.92.08 19.82.08 31.71zm-46.86 23.32c-3.75-2.08 5.72-13.59-6.63-11.22a321.76 321.76 0 00-42.63 11.8c-11.9 4-16.62 13.41-14.5 25.16 1.91 10.67 9.7 16.49 22.45 16.8 25.41.59 40.9-14.86 41.31-42.54z"></path><path fill="#0D4659" d="M413.09 326.58c-.11 16.32.36 32.62-2.38 48.9-4.18 24.77-17.55 41.71-41 50.18a122.48 122.48 0 01-77.3 2.56c-19.32-5.63-31.63-18.5-34.79-39.38-6.16-40.64 12.71-65.78 53.93-71.31 13.55-1.82 27.19-3.35 40.28-7.57 7.12-2.3 14.3-5.68 13.67-14.45-.66-9.11-8.25-12.52-16.11-13.29-14.3-1.41-29.12-4-40.14 9.46-2.42 2.94-6.31 2.18-9.7 2.21-9.13.06-18.32-.55-27.39.18-10.84.87-11.66-4.42-8.63-12.38 8.92-23.51 27.6-34.92 51.12-38.36 20.42-3 41.13-2.29 61.08 3.8 24.55 7.49 36.43 24.06 37.31 50.92.31 9.48.05 19.01.05 28.53zm-46.87 26.28c-2.12-3.37 5.46-13.66-6.13-11.58-14.43 2.58-28.63 7-42.56 11.71-12.34 4.18-17.16 13.72-14.8 25.77 1.83 9.35 10.39 15.4 22.27 15.75 25.26.71 39.74-13.59 41.22-41.65zM447 368.91c5.33 0 10.67.16 16-.06 4.38-.19 6.7 1.53 8.67 5.59 8.92 18.34 25.31 25.55 46 20.63a44.74 44.74 0 008.72-2.69c5.63-2.65 10.68-5.94 10.87-13.25.19-7.31-4.81-10.91-10.43-13.55-14.28-6.69-30.15-7.59-45.09-11.95a188.07 188.07 0 01-26.64-10c-38.88-18-33.69-68.83-2.73-88.75 27.18-17.48 76.76-16.78 103.47 1.6 13.32 9.17 20.11 22.34 23.25 37.82 1.09 5.38-.64 8.09-6.19 8-9.51-.12-19-.36-28.53-.49-5.11-.06-8.23-3.2-11.33-6.71-12.57-14.22-30.06-19-47.21-13.06-5.33 1.86-9.66 5.08-10 11.16-.33 5.4 2.43 9.44 7.28 11.94 12.65 6.53 26.58 8.89 40.22 12.06 11.86 2.76 23.66 5.51 34.72 10.8 15.35 7.4 26.08 18.22 27.37 36.22 1.55 21.79-2.85 41.8-22.93 53.49-32.56 19-67.38 19-102.47 7.82-15.17-4.84-26.1-14.95-32.26-30.06-9.1-22.25-6.11-26.57 19.24-26.56z"></path><path fill="#848588" d="M732.23 301.62c-10.4 1.9-20.36-1.74-30.52-11.73-18.14-17.82-48.22-7.37-55.93 18.41-5.9 19.75-5.26 39.92 1 59.48 8 25 39.37 35 58.07 16.71 15.61-15.23 33-10.49 50.24-10.71 7.55-.1 4.53 6.48 2.79 10.3-7.77 17.09-19.44 30.38-36.61 39-38.64 19.41-90.81 8.4-110.47-26.22-21.77-38.35-21.09-79-1.5-117.93 14.36-28.49 52.4-41.66 87.35-34.72 28.57 5.67 49.25 20.13 60.09 48.05 3.44 8.85.33 9.77-6.95 9.4-4.86-.24-9.86-.04-17.56-.04zm209.7 65.1c1.49-18.81-2.51-41.36 4.64-63.36 9.65-29.67 30.85-46 59.91-53.63 10.32-2.71 20.91-3.53 31.6-3.54 5.67 0 8.34 1.69 8.15 7.83-.34 11-.26 22.08 0 33.11.13 6.16-2.11 9.35-8.58 9.07-3.8-.17-7.62-.08-11.42.08-23.42 1-34.75 12.26-35 35.76-.3 28.54-.34 57.09.12 85.63.13 8.39-2.17 11.76-10.91 11.1a163.61 163.61 0 00-27.38 0c-9.63.91-11.56-3.25-11.25-11.82.48-15.54.12-31.16.12-50.23z"></path><path fill="#0D4659" d="M195.67 311.45c0-35.41.26-70.83-.19-106.24-.12-9.44 2.87-13.51 12.39-12.46 6 .67 12.27.26 18.13 1.6 10.75 2.46 17.39 9.21 17.4 20.85.07 68.16 0 136.32.21 204.48 0 7.32-2.93 9.17-9.52 8.92a263.59 263.59 0 00-27.4.08c-8.44.55-11.27-2.4-11.17-11 .41-35.4.17-70.82.15-106.23z"></path></g></svg>