<svg xmlns="http://www.w3.org/2000/svg" viewBox="55 76.43000030517578 490 97.22699737548828"><g fill="none"><path fill="#F19F53" d="M70 95h475v24H70z"></path><path fill="#753D29" d="M71.559 173.57V76.43h27.856c23.804 0 35.36 10.745 35.36 29.056 0 18.31-11.643 29.056-35.36 29.056h-8.538v39.028H71.56zm52.781 0l11.384-44.1h11.298l11.125 44.1h-8.452l-2.242-9.284h-12.16l-2.501 9.284h-8.452zm12.591-16.677h8.71l-4.225-17.795h-.173l-4.312 17.795zm51.488 16.677l-7.676-17.966h-4.14v17.966h-8.797v-44.1h12.764c10.608 0 15.61 4.9 15.61 13.153 0 5.502-2.07 9.456-6.899 11.261l8.624 19.686h-9.486zm-11.816-24.844h4.485c3.88 0 6.21-1.805 6.21-6.103s-2.33-6.104-6.21-6.104h-4.485v12.207zm26.477 24.844l11.384-44.1h11.298l11.04 44.1h-8.367l-2.242-9.284h-12.16l-2.501 9.284h-8.452zm12.591-16.677h8.711l-4.226-17.795h-.086l-4.399 17.795zm26.477 16.677v-44.1h9.66l12.246 26.134h.086V129.47h8.02v44.1h-8.365l-13.454-28.454h-.086v28.454zm35.36 0l11.384-44.1h11.298l11.125 44.1h-8.452l-2.242-9.284h-12.16l-2.501 9.284h-8.452zm12.505-16.677h8.71l-4.225-17.795h-.173l-4.312 17.795zm30.53 16.677v-44.1h12.678c10.78 0 16.128 4.9 16.128 13.153 0 8.338-5.261 13.152-16.128 13.152h-3.88v17.71h-8.798v.085zm8.797-24.672h4.744c4.312 0 6.468-2.063 6.468-6.19 0-4.126-2.156-6.189-6.468-6.189h-4.744v12.38zm20.612 24.672l11.385-44.1h11.297l11.04 44.1h-8.366l-2.242-9.284h-12.16l-2.502 9.284h-8.452zm12.506-16.677h8.71l-4.226-17.795h-.172l-4.312 17.795zm27.598 16.677v-44.1h9.659l12.246 26.134h.173V129.47h8.02v44.1h-8.365l-13.454-28.454h-.086v28.454zm38.982 0v-44.1h24.061v7.48h-15.265v10.143h11.643v7.479h-11.643v11.605h15.955v7.48h-24.751zm34.669 0v-44.1h12.247l7.934 28.97h.087l7.934-28.97h12.419v44.1h-7.503v-34.644h-.086l-9.4 34.644h-6.642l-9.4-34.644h-.173v34.644zm46.313 0l11.384-44.1h11.298l11.126 44.1h-8.452l-2.243-9.284h-12.16l-2.501 9.284h-8.452zm12.505-16.677h8.711l-4.226-17.795h-.172l-4.313 17.795zM55 91.818h16.559v27.423H55z"></path><path fill="#F19F53" d="M101.226 91.818H71.56v27.422h29.667c9.487 0 14.23-4.556 14.23-13.668.087-9.198-4.657-13.754-14.23-13.754z"></path></g></svg>