<!DOCTYPE svg PUBLIC "-//W3C//DTD SVG 20010904//EN" "http://www.w3.org/TR/2001/REC-SVG-20010904/DTD/svg10.dtd">
<svg version="1.0" xmlns="http://www.w3.org/2000/svg" width="840px" height="266px" viewBox="0 0 8400 2660" preserveAspectRatio="xMidYMid meet">
<g id="layer101" fill="#192472" stroke="none">
 <path d="M0 1330 l0 -1330 4200 0 4200 0 0 1330 0 1330 -4200 0 -4200 0 0 -1330z"/>
 </g>
<g id="layer102" fill="#28316b" stroke="none">
 <path d="M0 1330 l0 -1330 4200 0 4200 0 0 1330 0 1330 -4200 0 -4200 0 0 -1330z m4423 1197 c18 -8 46 -26 63 -40 41 -35 57 -35 44 -1 -16 41 -13 45 37 42 l46 -3 22 -65 c13 -36 48 -119 79 -184 31 -66 54 -121 52 -123 -2 -3 -24 -7 -48 -10 -24 -3 -49 -10 -55 -16 -9 -6 -17 -6 -25 0 -7 6 -35 13 -62 17 -155 20 -305 167 -308 301 0 41 4 52 26 72 31 26 80 30 129 10z m1581 -1 c18 -7 50 -29 71 -47 l38 -34 -5 43 -6 43 45 -3 45 -3 19 -59 c11 -32 47 -115 80 -184 32 -69 57 -127 55 -129 -2 -3 -24 -7 -48 -10 -24 -3 -49 -10 -55 -16 -9 -6 -17 -6 -25 0 -7 6 -35 13 -62 17 -153 20 -306 167 -308 295 0 21 3 47 6 58 13 40 88 55 150 29z m569 5 c46 -11 43 -8 51 -46 l7 -31 -62 1 c-56 0 -64 -3 -82 -27 -19 -25 -19 -31 -8 -70 26 -86 134 -158 218 -145 27 5 36 1 53 -23 26 -37 25 -50 -3 -50 -13 0 -28 -5 -35 -12 -8 -8 -15 -8 -24 -1 -7 6 -32 13 -56 17 -100 15 -203 91 -248 184 -50 103 -49 99 -28 140 33 64 113 87 217 63z m572 -10 c22 -10 49 -28 59 -40 11 -11 25 -21 33 -21 16 0 15 -3 4 38 l-10 32 47 0 47 0 19 -58 c10 -31 46 -115 79 -185 67 -141 67 -147 -5 -147 -20 0 -40 -5 -43 -10 -4 -7 -11 -7 -18 -2 -7 5 -36 12 -65 15 -155 18 -312 171 -312 305 0 83 72 116 165 73z m530 -8 c50 -26 83 -61 94 -101 14 -48 3 -70 -55 -107 -30 -19 -54 -41 -54 -48 0 -30 69 -67 93 -50 28 19 67 8 88 -24 l20 -32 -28 -6 c-15 -4 -36 -11 -47 -16 -13 -7 -22 -7 -29 0 -6 6 -23 11 -37 11 -41 0 -123 46 -147 83 -40 59 -29 114 28 141 22 11 45 28 50 38 12 22 -3 54 -28 62 -21 6 -86 1 -125 -9 -21 -6 -29 -2 -43 19 -34 51 -7 66 110 62 47 -2 83 -10 110 -23z m-3577 -50 c17 -38 49 -107 72 -155 l41 -88 39 0 c34 0 42 -4 55 -31 15 -29 15 -32 -2 -45 -10 -7 -24 -14 -30 -14 -23 0 -13 -29 22 -65 27 -26 44 -35 70 -35 28 0 37 -6 50 -30 23 -45 19 -50 -37 -50 -39 1 -68 9 -107 30 -53 28 -59 36 -102 117 -16 30 -31 44 -51 48 -17 4 -34 18 -43 35 -19 36 -19 40 -1 40 8 0 17 4 20 8 3 5 -26 75 -64 155 l-68 147 52 0 52 0 32 -67z m781 -20 c74 -153 112 -193 192 -208 30 -6 39 -14 57 -51 l22 -44 -26 0 c-32 0 -114 43 -136 73 -14 18 -18 19 -18 5 0 -9 4 -28 10 -42 9 -25 9 -26 -35 -26 l-44 0 -20 55 c-11 30 -48 112 -81 183 -33 70 -60 131 -60 135 0 4 21 7 48 7 l48 0 43 -87z m336 -25 c76 -159 152 -228 204 -188 30 22 27 36 -44 186 l-54 114 50 0 50 0 45 -97 c55 -119 103 -186 148 -207 37 -18 61 -13 76 14 12 23 3 52 -59 183 l-51 108 51 -3 51 -3 61 -129 c62 -133 81 -212 58 -240 -29 -34 -125 -20 -191 29 -35 26 -46 24 -52 -10 -8 -48 -116 -48 -190 0 -48 32 -62 32 -54 1 5 -19 1 -25 -18 -28 -48 -9 -59 6 -143 188 -46 99 -83 182 -83 187 0 4 20 7 45 7 l46 0 54 -112z m1647 5 c27 -60 68 -145 89 -190 l38 -83 -52 0 -52 0 -85 182 c-47 99 -86 185 -88 189 -2 5 19 9 48 9 l51 0 51 -107z m-531 -407 l46 -46 -53 0 c-36 0 -54 4 -54 12 0 7 -17 30 -37 51 l-38 39 45 -4 c37 -4 53 -13 91 -52z m703 33 c20 -15 26 -29 24 -48 -3 -22 -8 -26 -39 -29 -30 -3 -41 2 -58 24 -21 27 -27 55 -14 67 13 14 61 6 87 -14z m-1913 -176 c49 -48 89 -92 89 -98 0 -7 189 -199 420 -427 231 -229 420 -419 420 -424 0 -5 114 -123 252 -261 l253 -253 -314 0 -314 0 -56 52 c-31 29 -59 60 -62 68 -4 8 -36 43 -73 78 -36 35 -66 67 -66 72 0 4 -31 37 -70 73 -38 36 -70 69 -70 75 0 5 -31 39 -70 76 -38 36 -70 69 -70 73 0 13 -64 73 -77 73 -7 0 -13 -2 -13 -5 0 -4 -127 -506 -151 -597 l-10 -38 -279 0 c-154 0 -280 4 -280 8 0 8 52 189 356 1247 91 319 84 295 91 295 3 0 45 -39 94 -87z m1582 -99 c10 -3 35 -4 57 0 21 3 41 2 44 -3 3 -5 30 -12 59 -16 28 -4 60 -11 69 -16 12 -7 102 -156 126 -211 4 -9 -92 -3 -108 7 -6 3 -26 5 -45 4 -19 -2 -37 0 -41 4 -9 8 -288 10 -297 1 -3 -3 -26 -7 -52 -9 -62 -4 -154 -51 -183 -94 -12 -19 -20 -36 -18 -38 2 -2 183 -4 402 -4 309 1 403 -2 416 -12 29 -23 51 -122 46 -212 -3 -66 -10 -91 -31 -127 -46 -79 -128 -133 -249 -164 -34 -9 -70 -19 -78 -22 -8 -2 -29 -4 -46 -3 -18 1 -35 -2 -39 -8 -7 -13 -161 -15 -169 -2 -3 4 -34 11 -69 15 -297 30 -564 230 -592 444 -4 26 -11 57 -17 69 -8 15 -8 26 -1 35 6 7 13 33 17 58 4 25 18 63 31 85 13 22 29 50 34 63 6 12 15 22 21 22 6 0 26 11 44 25 42 32 134 69 211 85 33 7 64 16 68 21 5 4 26 5 47 2 20 -3 40 -1 43 3 6 10 273 9 300 -2z m-4423 -19 c6 -3 23 -5 38 -4 15 1 34 0 42 -3 59 -20 167 -53 175 -53 6 0 10 14 10 30 l0 30 209 3 c153 2 212 -1 223 -10 23 -19 218 -416 238 -483 10 -33 20 -67 22 -75 7 -20 7 -105 1 -116 -3 -5 -8 -21 -12 -37 -15 -64 -114 -140 -216 -166 -25 -7 -52 -14 -60 -18 -8 -3 -53 -7 -100 -10 -47 -3 -89 -9 -94 -14 -14 -13 -143 -11 -151 2 -4 6 -30 9 -59 8 -29 -1 -58 1 -64 5 -7 4 -25 6 -40 5 -15 -1 -34 1 -42 4 -8 3 -31 8 -50 11 -33 6 -39 13 -87 106 -29 55 -53 103 -53 108 0 9 49 7 73 -3 9 -4 24 -5 32 -2 8 4 17 2 21 -4 3 -6 22 -9 43 -8 20 1 44 -2 54 -6 24 -10 223 0 269 14 21 7 50 23 66 36 25 21 29 32 28 68 -2 72 -13 78 -98 49 -40 -13 -99 -27 -131 -30 -32 -2 -60 -9 -63 -13 -7 -12 -111 -12 -118 0 -3 4 -38 11 -78 14 -121 10 -232 44 -313 97 -22 14 -47 29 -56 32 -9 4 -23 19 -31 35 -8 15 -20 37 -26 48 -57 97 -38 219 45 282 38 29 123 63 158 63 13 0 26 3 28 8 6 9 151 7 167 -3z m-1497 -17 c8 -13 60 -113 117 -223 56 -110 107 -206 113 -213 8 -11 77 -13 331 -12 177 1 323 1 326 0 3 -1 44 -10 92 -20 48 -10 121 -35 163 -55 140 -67 260 -214 281 -343 4 -23 10 -44 13 -46 7 -5 6 -100 -2 -113 -2 -4 -7 -24 -11 -44 -4 -20 -20 -55 -36 -78 -17 -22 -30 -45 -30 -51 0 -5 -6 -10 -13 -10 -8 0 -22 -8 -31 -19 -25 -27 -125 -70 -193 -82 -32 -6 -65 -13 -73 -17 -8 -4 -221 -5 -473 -2 l-458 5 -95 185 c-52 102 -172 336 -266 520 -94 184 -204 399 -245 477 -41 79 -72 147 -68 153 4 6 104 10 275 10 269 0 270 0 283 -22z m2903 -240 c134 -264 169 -314 242 -352 19 -10 40 -15 48 -12 7 3 16 1 19 -4 9 -15 91 -12 130 4 42 18 53 38 50 101 -1 42 -20 87 -114 274 -62 123 -110 230 -107 237 7 19 438 21 454 2 24 -31 241 -477 247 -511 4 -20 11 -40 16 -43 12 -7 11 -91 -1 -99 -5 -3 -10 -15 -10 -26 0 -22 -51 -128 -62 -129 -4 0 -23 -11 -42 -23 -19 -13 -56 -30 -83 -36 -26 -7 -55 -15 -63 -18 -20 -7 -170 -6 -178 1 -3 3 -17 6 -31 6 -22 0 -139 37 -204 65 -16 7 -18 3 -15 -31 3 -34 0 -39 -20 -42 -13 -2 -30 2 -38 9 -11 9 -18 9 -26 1 -15 -15 -65 -16 -73 -2 -8 13 -222 13 -230 0 -4 -6 -12 -7 -18 -3 -7 4 -18 8 -26 10 -7 1 -17 5 -21 10 -4 4 -80 152 -170 328 -89 176 -187 366 -217 422 -30 57 -52 107 -48 113 4 7 85 9 233 8 l227 -3 131 -257z m3846 245 c9 -10 116 -214 238 -453 122 -239 265 -517 317 -617 l94 -183 -240 0 -239 0 -137 268 c-76 147 -194 377 -263 512 -68 135 -151 296 -184 358 -32 62 -56 117 -53 122 4 6 94 10 229 10 200 0 224 -2 238 -17z"/>
 <path d="M4403 2447 c-4 -7 -8 -29 -9 -49 -4 -77 92 -176 181 -185 60 -7 65 9 26 86 -44 85 -111 154 -156 157 -19 2 -38 -2 -42 -9z"/>
 <path d="M5975 2437 c-28 -43 19 -139 93 -191 49 -34 128 -47 137 -23 9 23 -50 131 -100 184 -54 56 -105 68 -130 30z"/>
 <path d="M7112 2448 c-15 -19 -12 -69 6 -103 45 -88 168 -160 219 -127 26 17 -74 189 -130 223 -37 22 -80 25 -95 7z"/>
 <path d="M6350 1195 c0 -40 83 -117 149 -138 120 -38 237 -10 275 67 14 29 17 45 10 65 l-9 26 -213 3 -212 2 0 -25z"/>
 <path d="M2435 1550 c-3 -5 -12 -7 -20 -4 -8 3 -30 0 -50 -6 -101 -33 -99 -125 3 -167 66 -28 233 -26 283 3 43 25 58 64 39 99 -19 36 -77 69 -122 70 -20 0 -40 4 -44 8 -11 10 -82 8 -89 -3z"/>
 <path d="M1150 1001 c0 -11 155 -307 164 -314 6 -4 79 -6 161 -5 209 4 257 30 260 142 3 76 -27 122 -105 161 -29 15 -66 18 -257 19 -123 0 -223 -1 -223 -3z"/>
 </g>
<g id="layer103" fill="#dfe2f9" stroke="none">
 <path d="M0 1330 l0 -1330 4200 0 4200 0 0 1330 0 1330 -4200 0 -4200 0 0 -1330z m4428 1204 c20 -8 49 -27 65 -41 28 -28 34 -22 17 21 l-10 26 59 0 58 0 28 -77 c15 -43 54 -131 86 -195 33 -65 59 -120 59 -122 0 -2 -32 -10 -70 -16 -180 -30 -358 58 -436 215 -40 82 -40 147 -1 181 33 29 89 32 145 8z m1585 0 c18 -9 44 -28 60 -42 28 -27 34 -20 17 22 l-10 26 59 0 58 0 28 -77 c15 -43 50 -122 77 -177 78 -156 78 -142 0 -156 -181 -30 -367 62 -440 217 -56 120 -26 203 74 203 25 0 59 -7 77 -16z m598 2 c9 -4 20 -27 26 -51 l10 -44 -62 6 c-56 5 -65 3 -85 -17 -17 -17 -21 -29 -16 -52 18 -88 101 -152 199 -153 57 0 59 -1 82 -40 16 -26 21 -43 14 -50 -15 -15 -149 -9 -199 9 -116 42 -210 142 -232 248 -10 49 -10 62 4 91 25 52 68 69 163 63 44 -2 87 -7 96 -10z m532 1 c18 -8 47 -26 65 -41 l32 -28 -10 27 c-16 43 -13 46 46 43 l56 -3 28 -75 c15 -41 53 -129 84 -194 31 -66 54 -121 52 -123 -2 -2 -33 -8 -68 -14 -176 -27 -356 63 -429 216 -58 120 -29 205 68 205 24 0 58 -6 76 -13z m511 -3 c61 -21 111 -69 127 -122 11 -39 10 -45 -8 -70 -11 -15 -36 -36 -56 -47 -42 -23 -53 -41 -35 -62 10 -12 28 -14 79 -11 l67 5 22 -40 c26 -45 21 -52 -44 -61 -59 -9 -145 10 -191 42 -52 35 -90 108 -76 145 5 14 22 33 36 44 15 10 38 28 53 40 26 21 27 21 8 42 -23 25 -71 28 -123 6 -19 -8 -37 -15 -38 -15 -4 0 -55 79 -55 85 0 3 15 12 33 20 43 19 143 19 201 -1z m-3509 -149 l74 -155 41 0 c39 0 42 -2 60 -46 11 -25 20 -48 20 -50 0 -2 -16 -4 -35 -4 -44 0 -44 -13 -1 -56 25 -25 43 -34 68 -34 31 0 36 -5 56 -46 13 -26 20 -49 17 -52 -12 -12 -110 -4 -146 11 -52 21 -111 78 -137 131 -18 34 -29 45 -50 48 -21 2 -32 13 -49 48 l-21 45 23 5 c23 5 23 7 -46 153 -38 81 -69 150 -69 152 0 3 27 5 61 5 l60 0 74 -155z m740 68 c67 -144 122 -203 190 -203 27 0 34 -6 58 -55 15 -31 27 -60 27 -65 0 -27 -88 3 -140 47 -29 25 -42 31 -37 20 4 -11 10 -30 13 -43 6 -25 5 -25 -47 -22 l-53 3 -37 93 c-21 51 -61 141 -89 199 -27 58 -50 107 -50 109 0 2 28 4 63 4 l62 -1 40 -86z m340 -30 c65 -137 117 -196 168 -191 21 2 33 9 35 21 2 9 -24 76 -57 148 -34 72 -61 132 -61 135 0 2 26 4 58 4 l58 0 58 -120 c65 -134 114 -190 166 -190 48 0 45 27 -26 181 -30 65 -54 121 -54 124 0 3 26 5 59 5 l59 0 65 -142 c36 -79 68 -157 71 -174 22 -104 -102 -134 -214 -53 -35 26 -40 27 -40 11 0 -11 -9 -27 -21 -38 -33 -30 -104 -24 -172 14 l-56 32 9 -26 c6 -14 10 -27 10 -30 0 -10 -100 -3 -107 9 -9 14 -183 388 -183 393 0 2 27 4 60 4 l59 0 56 -117z m1684 -75 c50 -106 91 -199 91 -205 0 -9 -18 -13 -59 -13 l-58 0 -41 88 c-22 48 -66 140 -96 205 l-55 117 63 0 63 0 92 -192z m-579 -318 c38 -34 70 -65 70 -70 0 -6 -24 -10 -52 -10 -51 0 -54 1 -110 62 -61 64 -62 78 -6 78 19 0 49 -18 98 -60z m714 25 c33 -30 36 -79 6 -95 -27 -15 -84 4 -105 33 -18 26 -20 73 -2 80 32 13 75 6 101 -18z m-954 -1160 c228 -231 431 -437 449 -458 l35 -37 -330 0 -329 1 -298 320 c-165 176 -301 318 -304 315 -3 -2 -40 -145 -83 -316 -43 -171 -80 -313 -82 -316 -3 -2 -136 -3 -295 -2 l-290 3 226 788 226 788 330 -333 c181 -183 516 -522 745 -753z m682 884 c48 -6 109 -16 134 -22 46 -12 47 -13 111 -130 36 -65 64 -120 62 -121 -2 -2 -38 3 -79 10 -117 21 -341 29 -445 15 -102 -14 -163 -37 -200 -77 -51 -55 -61 -54 384 -54 l409 0 15 -38 c28 -69 39 -157 28 -217 -26 -141 -116 -222 -306 -277 -115 -32 -359 -32 -490 0 -183 46 -350 150 -432 270 -54 80 -77 155 -77 257 0 206 141 333 422 380 96 16 348 18 464 4z m-4433 -20 c56 -9 118 -27 185 -55 15 -6 18 -4 14 7 -22 53 -41 49 216 49 l235 0 98 -192 c135 -266 154 -316 161 -413 4 -68 1 -88 -18 -133 -40 -94 -126 -146 -290 -178 -145 -29 -455 -24 -587 9 -47 12 -47 12 -106 125 -33 62 -57 115 -55 118 3 2 47 -3 99 -12 134 -24 348 -24 416 0 29 9 60 27 68 39 17 25 20 70 5 98 -10 17 -13 18 -38 5 -119 -62 -382 -71 -577 -21 -198 51 -325 175 -325 314 1 159 126 248 350 250 47 1 114 -4 149 -10z m-1436 -228 l118 -230 357 -3 c298 -4 367 -7 417 -21 274 -78 450 -297 433 -539 -12 -166 -129 -281 -330 -322 -64 -13 -156 -16 -540 -16 l-463 0 -114 223 c-63 122 -142 276 -176 342 -34 66 -140 272 -234 458 l-172 337 293 0 293 0 118 -229z m2792 -26 c72 -141 142 -271 157 -289 43 -53 109 -80 195 -81 62 0 75 3 97 24 50 47 40 82 -94 351 -66 132 -120 242 -120 245 0 3 110 5 245 5 l245 0 110 -219 c123 -247 150 -317 150 -394 0 -191 -127 -297 -358 -297 -94 0 -202 22 -281 56 -46 21 -52 22 -46 6 23 -56 39 -52 -223 -52 l-240 0 -100 193 c-55 105 -159 308 -231 450 l-133 257 249 0 248 0 130 -255z m4172 -380 c177 -346 323 -633 323 -637 0 -5 -112 -8 -248 -8 l-248 0 -229 448 c-125 246 -273 534 -328 640 l-99 192 253 -2 253 -3 323 -630z"/>
 <path d="M4407 2443 c-13 -12 -7 -64 12 -101 35 -68 113 -122 176 -122 32 0 32 7 -7 82 -43 82 -108 148 -146 148 -16 0 -32 -3 -35 -7z"/>
 <path d="M5987 2443 c-10 -9 -9 -58 2 -86 16 -40 73 -99 116 -118 38 -18 95 -25 95 -13 0 24 -89 170 -119 194 -33 28 -79 39 -94 23z"/>
 <path d="M7120 2435 c-30 -36 24 -141 94 -185 43 -26 116 -39 116 -20 0 7 -16 43 -36 81 -58 110 -138 167 -174 124z"/>
 <path d="M6360 1197 c0 -31 52 -87 107 -114 49 -24 70 -28 138 -28 100 0 143 21 163 79 25 77 27 76 -204 76 -158 0 -204 -3 -204 -13z"/>
 <path d="M2360 1529 c-65 -27 -78 -73 -32 -119 39 -39 100 -53 202 -48 98 5 146 25 156 64 8 31 -19 72 -62 94 -35 18 -227 25 -264 9z"/>
 <path d="M1237 848 l79 -153 132 -3 c156 -3 203 7 250 54 32 32 34 38 30 88 -6 67 -33 107 -96 138 -44 22 -60 23 -261 26 l-213 3 79 -153z"/>
 </g>
<g id="layer104" fill="#f5f5f6" stroke="none">
 <path d="M0 1330 l0 -1330 4200 0 4200 0 0 1330 0 1330 -4200 0 -4200 0 0 -1330z m4035 1221 l40 -1 61 -128 c34 -70 67 -139 73 -154 9 -24 16 -28 50 -28 37 0 42 -4 67 -45 30 -51 26 -75 -11 -75 -30 0 -32 -9 -5 -38 22 -24 63 -38 79 -28 11 7 70 -79 71 -101 0 -18 -38 -35 -61 -28 -11 4 -34 8 -52 10 -39 3 -102 34 -135 65 -12 12 -36 45 -53 75 -22 40 -37 55 -55 57 -18 2 -33 16 -51 51 -26 46 -26 48 -8 61 20 15 14 31 -86 236 -24 48 -25 57 -13 67 9 6 23 10 32 8 9 -2 35 -4 57 -4z m401 -10 c23 -10 45 -24 48 -30 13 -20 23 -11 18 14 l-5 26 68 -3 67 -3 38 -110 c32 -95 56 -148 118 -261 17 -31 10 -41 -36 -54 -82 -22 -205 -4 -306 47 -58 29 -136 107 -161 161 -10 20 -23 50 -31 66 -26 54 -15 112 30 148 28 23 100 23 152 -1z m410 5 c1 0 20 -37 42 -81 73 -146 136 -213 200 -215 26 0 82 -80 82 -117 0 -19 -5 -23 -32 -23 -18 0 -53 11 -77 25 -51 30 -51 30 -51 7 0 -15 -7 -17 -57 -12 -51 4 -59 8 -73 35 -8 17 -17 32 -20 35 -3 3 -18 37 -34 75 -15 39 -48 111 -74 160 -59 117 -56 130 31 120 34 -4 63 -8 63 -9z m332 0 c5 -6 19 -39 32 -74 12 -34 27 -65 31 -68 5 -3 20 -26 33 -52 27 -54 69 -96 107 -111 49 -18 52 9 10 94 -55 113 -95 205 -90 209 6 6 128 11 133 5 10 -11 64 -127 69 -149 10 -42 65 -119 99 -140 70 -43 85 -18 44 72 -13 29 -27 64 -31 78 -4 14 -10 27 -14 30 -3 3 -16 26 -28 52 -27 58 -19 66 62 58 l55 -5 51 -100 c50 -100 82 -181 94 -242 5 -26 2 -37 -19 -58 -35 -34 -103 -34 -173 0 l-51 26 -31 -32 c-29 -29 -36 -31 -84 -27 -34 3 -67 14 -96 32 -41 26 -44 27 -38 7 5 -20 1 -21 -53 -21 -56 0 -59 1 -79 36 -12 19 -21 40 -21 45 0 6 -34 79 -75 162 -41 84 -75 157 -75 164 0 6 6 14 13 16 23 10 117 4 125 -7z m842 -6 c21 -11 41 -24 45 -30 12 -19 22 -10 17 15 -4 25 -3 25 60 25 l65 0 26 -72 c14 -40 29 -84 33 -98 6 -21 54 -119 103 -208 12 -22 12 -27 -4 -38 -51 -38 -216 -24 -325 27 -75 35 -148 107 -180 177 -12 26 -26 55 -31 64 -22 42 0 125 38 147 30 17 111 13 153 -9z m784 11 c11 -4 36 -41 57 -82 89 -178 129 -262 129 -274 0 -7 4 -15 10 -17 11 -4 18 -42 8 -45 -5 -2 -34 -3 -66 -3 l-57 0 -35 58 c-19 31 -45 84 -57 116 -12 33 -30 71 -40 85 -10 14 -32 54 -48 89 -25 54 -27 65 -15 72 18 11 87 12 114 1z m349 -7 c18 -9 40 -24 50 -32 17 -16 18 -15 12 11 l-7 27 64 0 65 0 12 -42 c16 -56 39 -108 107 -245 31 -61 53 -116 50 -122 -9 -14 -83 -33 -104 -27 -10 3 -38 6 -62 7 -25 1 -63 6 -85 11 -22 6 -48 12 -58 14 -23 4 -97 46 -97 55 0 4 -25 33 -56 65 -65 68 -75 89 -80 163 -4 57 13 102 43 120 27 16 110 13 146 -5z m460 10 c63 -11 138 -63 164 -114 12 -25 23 -55 23 -67 0 -28 -42 -77 -80 -93 -20 -8 -30 -19 -28 -29 3 -13 17 -16 68 -16 69 1 82 -7 115 -67 14 -26 14 -28 -7 -39 -22 -12 -67 -13 -153 -5 -22 2 -62 14 -90 27 -39 19 -55 34 -72 69 -40 78 -28 112 62 177 29 21 29 23 13 39 -16 16 -24 17 -70 6 -29 -6 -63 -14 -75 -18 -17 -5 -26 2 -47 38 -14 25 -26 50 -26 57 0 31 110 50 203 35z m-978 -28 c7 -11 15 -39 17 -61 3 -35 1 -40 -17 -37 -96 15 -116 14 -135 -3 -13 -11 -16 -22 -11 -34 4 -9 16 -33 26 -54 22 -44 74 -88 127 -107 30 -11 42 -11 65 -1 25 12 29 10 55 -21 59 -71 48 -91 -51 -96 -64 -4 -76 -1 -153 36 -108 50 -150 88 -189 168 -42 86 -49 149 -19 187 32 41 52 46 168 45 94 0 104 -2 117 -22z m-317 -470 c26 -24 60 -55 76 -70 16 -14 26 -29 22 -33 -3 -3 -34 -6 -69 -5 l-62 2 -57 62 c-32 33 -58 64 -58 69 0 10 25 16 68 18 26 1 43 -8 80 -43z m734 7 c34 -37 38 -53 21 -85 -12 -24 -20 -28 -57 -28 -49 0 -82 27 -92 76 -13 65 78 91 128 37z m-1737 -373 c160 -159 292 -295 294 -302 2 -6 191 -199 420 -429 363 -364 551 -556 551 -564 0 -2 -151 -2 -336 -1 l-337 2 -56 60 c-31 33 -102 108 -158 168 -57 59 -103 114 -103 122 0 7 -17 25 -38 39 -22 14 -81 73 -132 132 -78 88 -95 103 -104 91 -11 -15 -25 -69 -76 -301 -12 -53 -26 -100 -31 -103 -5 -3 -9 -17 -9 -31 0 -34 -30 -155 -41 -167 -5 -6 -137 -10 -305 -10 l-296 -1 5 25 c6 37 38 162 48 185 16 39 59 193 59 210 0 21 37 154 49 175 15 27 61 187 61 211 0 13 6 36 14 51 8 14 22 59 31 100 10 40 39 143 66 228 27 85 51 169 54 185 3 17 16 66 27 110 20 77 33 105 47 105 4 0 137 -130 296 -290z m1517 88 l117 -21 39 -61 c21 -33 52 -88 68 -121 15 -33 30 -64 32 -69 4 -8 -80 -3 -233 15 -156 18 -296 8 -413 -28 -52 -17 -102 -54 -102 -77 0 -8 78 -11 273 -10 149 1 334 0 411 -3 l138 -6 15 -36 c9 -20 17 -56 18 -81 2 -25 6 -62 10 -82 5 -26 1 -52 -14 -92 -54 -144 -121 -198 -301 -241 -41 -10 -85 -22 -97 -28 -28 -13 -245 -2 -367 18 -48 8 -114 24 -144 35 -53 20 -176 90 -232 133 -33 25 -114 137 -147 205 -25 51 -28 67 -27 147 2 65 8 105 23 145 25 64 68 128 96 144 11 6 32 19 46 28 14 9 50 26 80 38 30 11 63 25 74 30 39 18 102 30 195 35 52 4 97 9 100 12 10 10 227 -8 342 -29z m-4436 -17 c10 -6 45 -19 76 -30 l57 -19 -9 23 c-8 21 -6 23 33 28 49 6 445 2 451 -4 2 -2 49 -98 105 -212 173 -354 190 -443 109 -568 -58 -90 -137 -128 -299 -144 -19 -2 -62 -8 -95 -15 -58 -11 -168 -10 -289 4 -33 3 -92 8 -130 9 -39 2 -79 8 -89 14 -17 9 -86 124 -86 143 0 5 -14 31 -31 59 -29 46 -32 84 -6 63 22 -17 162 -32 322 -34 143 -1 165 1 207 19 62 28 83 67 55 105 -12 15 -21 14 -122 -14 -114 -31 -155 -33 -345 -14 -124 13 -149 17 -176 30 -16 7 -60 26 -99 42 -141 58 -217 177 -200 313 8 66 23 96 62 132 58 52 93 66 203 76 30 2 57 7 60 10 9 10 216 -4 236 -16z m-1564 -75 c22 -45 44 -83 47 -86 4 -3 39 -68 77 -145 l71 -140 344 -6 c190 -4 362 -11 383 -17 22 -6 43 -9 46 -7 10 6 89 -24 155 -58 78 -40 208 -169 225 -223 7 -21 16 -41 20 -44 15 -10 40 -115 40 -170 0 -163 -69 -270 -226 -349 -86 -44 -94 -44 -668 -45 l-458 0 -101 194 c-55 107 -126 245 -158 305 -32 61 -124 243 -204 405 -81 162 -150 297 -155 300 -13 9 -70 129 -70 149 0 18 11 19 296 19 l295 -1 41 -81z m2754 54 c7 -14 18 -38 25 -55 8 -16 23 -46 35 -66 29 -47 97 -181 122 -241 12 -26 25 -53 31 -60 6 -7 29 -40 51 -74 28 -43 50 -65 77 -77 45 -19 49 -20 131 -18 54 1 66 5 87 27 14 15 25 37 25 50 0 12 -56 132 -125 267 -69 135 -125 251 -125 259 0 11 46 14 243 15 133 1 247 -1 253 -5 6 -4 28 -41 49 -82 21 -41 41 -77 45 -80 9 -6 75 -137 85 -170 4 -13 13 -30 21 -37 7 -7 26 -48 43 -91 26 -67 29 -90 27 -153 -4 -88 -21 -153 -52 -195 -48 -66 -256 -133 -367 -119 -56 8 -162 37 -215 61 -46 20 -55 18 -41 -7 9 -17 8 -23 -2 -30 -7 -4 -121 -6 -253 -5 l-240 3 -61 124 c-33 68 -71 140 -83 160 -13 21 -25 46 -27 58 -2 11 -27 63 -55 113 -28 51 -71 136 -96 188 -25 52 -49 97 -53 100 -14 8 -82 150 -77 159 3 4 119 7 258 7 l252 -1 12 -25z m3991 -25 c13 -27 33 -66 43 -85 11 -19 55 -107 99 -195 44 -88 87 -171 94 -185 8 -14 39 -73 68 -133 30 -59 82 -160 116 -225 57 -109 200 -393 206 -409 1 -4 -41 -6 -94 -4 -62 2 -99 -1 -104 -8 -8 -15 -202 -15 -211 0 -3 6 -28 9 -57 7 l-50 -3 -77 155 c-43 85 -83 160 -89 167 -6 7 -39 70 -74 140 -35 70 -80 158 -101 196 -21 37 -35 67 -31 67 4 0 -14 38 -39 85 -26 46 -72 135 -102 197 -31 62 -60 115 -64 118 -14 9 -81 151 -75 159 2 5 120 8 261 7 l256 -1 25 -50z"/>
 <path d="M4404 2426 c-8 -20 39 -106 78 -143 31 -29 112 -63 123 -51 8 8 -72 142 -105 178 -30 33 -86 42 -96 16z"/>
 <path d="M5991 2418 c-12 -32 -5 -49 45 -106 42 -47 125 -94 140 -79 10 10 -56 133 -91 172 -39 42 -81 48 -94 13z"/>
 <path d="M7132 2428 c-7 -7 -12 -20 -12 -30 0 -29 37 -94 65 -116 32 -26 113 -57 122 -48 8 8 -28 86 -65 140 -15 21 -41 45 -59 53 -39 16 -36 16 -51 1z"/>
 <path d="M6370 1186 c0 -46 123 -112 225 -122 96 -9 144 12 169 72 10 24 15 48 11 54 -4 6 -78 10 -206 10 -161 0 -199 -3 -199 -14z"/>
 <path d="M2360 1523 c-30 -11 -50 -37 -50 -63 0 -79 178 -121 313 -75 53 18 57 21 57 50 0 40 -34 74 -87 86 -41 9 -209 11 -233 2z"/>
 <path d="M1194 994 c-19 -8 7 -68 98 -229 l34 -60 132 -3 c117 -2 138 0 183 19 65 28 95 79 80 137 -18 65 -60 104 -124 118 -78 17 -375 30 -403 18z"/>
 </g>

</svg>