<svg xmlns="http://www.w3.org/2000/svg" data-name="Capa 1" viewBox="3.8299996852874756 4.719997406005859 127.11882019042969 23.500001907348633"><path fill="#fff" d="M15.58 28.22A11.75 11.75 0 103.83 16.47a11.75 11.75 0 0011.75 11.75"></path><path fill="#f58220" d="M20.58 16.47a5 5 0 11-5-5 5 5 0 015 5"></path><path fill="#231f20" d="M25.6 11.7a5 5 0 000 9.69 11.11 11.11 0 001.13-4.88 10.89 10.89 0 00-1.1-4.81m-16.2 4.77a5 5 0 00-3.82-4.85 11.08 11.08 0 000 9.71 5 5 0 003.82-4.86m9.27 5.33a5 5 0 00-2.35 5.74 11.09 11.09 0 008.4-4.83 5 5 0 00-6.05-.91m-6.13-10.69a5 5 0 002.35-5.71 11 11 0 00-8.45 4.76 5 5 0 006.1.95m-.03 10.7a5 5 0 00-6.17.86 11.07 11.07 0 008.4 4.87 5 5 0 00-2.23-5.73m6.2-10.62a5 5 0 006.12-.8 11.07 11.07 0 00-8.34-5 5 5 0 002.22 5.76m95.57 9.78l2.81-10.84h3.28l-2.89 11.11s-.22.75 0 1.05.84.12.84.12v1.55s-2.85.84-4.06-.51c-.52-.58 0-2.48 0-2.48M54.23 24h3.29s1.72-6 1.92-7.91c.28-2.54-2.32-2.68-4.35-2.68a11.81 11.81 0 00-3.82.58l-.67 2.63a10.2 10.2 0 014-.87c1 0 1.71.24 1.59 1 0 .15-.12.5-.12.5-4 0-7.41 1.46-7.58 4.12-.13 2 .62 2.91 2.54 2.91 1 0 3-.37 3.51-1.44zm-1.18-1.91c-.67 0-1.15 0-1.21-.6a1.73 1.73 0 011-1.76 6.91 6.91 0 012.64-.48c-.14.64-.51 2.08-.51 2.08a3.05 3.05 0 01-1.88.76M113.61 18c.58-2.63-1-4.61-3.93-4.61-4 0-6.37 2.42-7.18 6.08-.58 2.63.53 4.84 3.71 4.84 4.07 0 6.45-2 7.4-6.31m-3.41 0c-.52 2.37-1.1 3.95-3.15 3.95-1 0-1.61-.7-1.18-2.52.4-1.66 1-3.72 3.12-3.72 1.16 0 1.44 1.21 1.21 2.29m20.63 0c.58-2.63-1-4.61-3.94-4.61-4 0-6.37 2.42-7.17 6.08-.58 2.63.52 4.84 3.7 4.84 4.08 0 6.46-2 7.41-6.31m-3.42 0c-.52 2.37-1.1 3.95-3.14 3.95-1 0-1.62-.7-1.18-2.52.39-1.66 1-3.72 3.12-3.72 1.15 0 1.44 1.21 1.2 2.29m-61.54-4.34L65.52 15a7 7 0 014.1-1.42l-.84 3.11a5.83 5.83 0 00-3.78.41L63.12 24h-3.23l2.73-10.32zM89 27.73h3.3l1.2-4.24a3.52 3.52 0 002.31.59c2.89 0 6.11-3 6.11-7.28 0-2.2-1-3.13-3.47-3.26-2.15-.11-5.65.13-5.65.13zm5-6.23l1.42-5.66a2.47 2.47 0 011.15-.16c1.6 0 2.35.32 1.78 2.66-.36 1.47-1 3.3-3 3.34A2.92 2.92 0 0194 21.5m-17.2 2.01a9.3 9.3 0 01-3.76.74c-3.28 0-4.65-1.34-4.52-3.8a7.26 7.26 0 017.13-7 6.94 6.94 0 013.56.75l-.67 2.89-.47-.09a3 3 0 00-2.47-1.24c-2 0-3.58 2.14-3.69 4.16a1.84 1.84 0 002.25 2 3.85 3.85 0 002.9-1.28h.45zM90.23 18c.58-2.63-1-4.61-3.94-4.61-4 0-6.37 2.42-7.17 6.08-.58 2.63.52 4.84 3.7 4.84 4.08 0 6.46-2 7.41-6.31m-3.42 0c-.52 2.37-1.1 3.95-3.14 3.95-1 0-1.62-.7-1.18-2.52.4-1.66 1-3.72 3.12-3.72 1.15 0 1.44 1.21 1.2 2.29m-41.16-7.66l-4.87 6.89-1.23-6.89h-4.07v.05L31.89 24h3.27l2.35-8.66.71 4.06c.62 3.54 2 2.69 3.67.22l2.94-4.38L42.52 24H46l3.66-13.63z"></path></svg>