<svg xmlns="http://www.w3.org/2000/svg" viewBox="0.0030104820616543293 0 131.39698791503906 28.770008087158203"><g data-name="Camada 2"><path fill="#444e5b" d="M33.44 7.2h5.76c6 0 7.25.77 7.25 5.12 0 3.95-1.42 4.81-6.9 4.81h-1.43v4.44h-4.68zm6.22 7c2 0 2.12-.2 2.12-1.9 0-2-.1-2-2.12-2h-1.54v3.9h1.54m8.16.21C47.82 8.63 48.9 7 54.53 7s6.68 1.64 6.68 7.42-1 7.38-6.68 7.38-6.71-1.66-6.71-7.38m8.78 0c0-3.88-.11-4.12-2.07-4.12s-2.05.24-2.05 4.12.09 4.1 2.05 4.1 2.07-.26 2.07-4.1m6.27 3.9s1.81.12 4 .12c2.61 0 3.33-.19 3.33-1 0-.56-.19-.81-1.07-1l-3-.74c-3-.82-3.6-1.61-3.6-4.22C62.59 8.4 64.44 7 69.17 7c2.22 0 4.44.22 4.44.22v3.27s-2-.11-3.89-.11c-2.18 0-2.72.15-2.72 1 0 .61.29.85 1.28 1.06l3 .68c3 .73 3.31 1.94 3.31 4.25 0 3.46-2.15 4.48-6.72 4.48-2.38 0-5-.24-5-.24zM76.23 7.2h4.68v14.38h-4.68zm10.19 3.23h-3.87V7.2h12.36v3.23h-3.83v11.14h-4.66V10.43zM96.56 7.2h4.68v14.38h-4.68zm16.16 0h4.72l-3.97 14.37h-6.69L102.8 7.2h4.73l2.59 11.84 2.6-11.84zm5.28 7.21c0-5.78 1.08-7.41 6.72-7.41s6.68 1.64 6.68 7.42-1 7.38-6.68 7.38-6.72-1.67-6.72-7.39m8.77 0c0-3.88-.1-4.12-2.06-4.12s-2 .24-2 4.12.08 4.1 2 4.1 2.06-.26 2.06-4.1M14.34 0a14.55 14.55 0 00-12.6 7.5A14.52 14.52 0 00.51 18.19a23.59 23.59 0 005.19-.92A3.37 3.37 0 007.31 16c2.06-3.11 2.44-5.29 3.09-6a11.27 11.27 0 002.79-7 1 1 0 012-.33 5.39 5.39 0 01.73 3.18c-.13 2-1.69 3.54-1.19 4.64a1.27 1.27 0 00.94.68 50 50 0 016.13 1.11 1.4 1.4 0 011.15 1c.22.82-.33 1.11-.33 1.86s.79.92.74 1.85-.86 1-1 1.75.37.91.1 1.66-.84.72-1.16 1.22.05.94-.32 1.65c-.21.4-.45.61-1.35.88a22.8 22.8 0 01-4.2.84c-1.63.16-2.38 0-4.22.28A12.17 12.17 0 007 26.77a14.69 14.69 0 007.3 2A14.38 14.38 0 0014.34 0" data-name="Layer 1"></path></g></svg>