<svg xmlns="http://www.w3.org/2000/svg" xmlns:xlink="http://www.w3.org/1999/xlink" viewBox="19.002994537353516 63.577999114990234 554.4171752929688 107.72140502929688"><defs><path id="fnd6e73ad5ddma" d="M.321.388h2.846v2.449H.321z"></path><path id="fnd6e73ad5ddmc" d="M.251.31h59.643v75.92H.25z"></path><path id="fnd6e73ad5ddme" d="M34.711.578C35.337 6.31 5.296 55.697 5.296 55.697l.028.017A34.097 34.097 0 00.003 74.026c0 18.865 15.206 34.162 33.963 34.162 18.76 0 33.966-15.297 33.966-34.162 0-7.557-2.468-14.516-6.599-20.176l-9.868-16.702C35.669 6.284 34.71.578 34.71.578z"></path><radialGradient id="fnd6e73ad5ddmf" cx="50%" cy="51.761%" r="76.417%" fx="50%" fy="51.761%" gradientTransform="matrix(0 .63126 -1 0 1.018 .202)"><stop offset="0%" stop-color="#FFEC36"></stop><stop offset="100%" stop-color="#429321"></stop></radialGradient></defs><g fill="none" fill-rule="evenodd"><path fill="#1D488D" d="M169.749 166.107c-4.844-3.554-6.347-8.863-6.413-14.301-.165-13.933-1.135-27.917.567-41.801.828-6.735 4.827-11.331 11.558-13.516 7.804-2.533 15.721-1.815 23.659-1.387.336.017.672.116 1.01.17 9.708 1.493 10.016 1.97 8.891 11.947-.273 2.409-1.77 2.57-3.586 2.57-6.033-.002-12.067-.02-18.098.006-5.026.023-6.438 1.379-6.756 6.36-.58 9.127-.58 9.127 8.495 9.127 5.35 0 10.701.105 16.05-.048 2.381-.068 3.332.92 3.355 3.104.025 2.383-.017 4.766.005 7.15.032 2.595-1.283 3.63-3.813 3.61-6.83-.05-13.661.097-20.49-.064-2.842-.069-3.93.865-3.648 3.702.29 2.925-.23 5.881.353 8.817.606 3.053 2.414 4.392 5.473 4.375 6.375-.037 12.75.114 19.123-.065 2.74-.08 3.722.905 3.543 3.518-.117 1.693-.023 3.401-.023 5.104-.005 5.084-.29 5.381-5.308 5.648-.796.043-1.588.122-2.379.182-7.314.947-14.629 1.645-21.937-.026l.07-.17c-2.028-.78-4.277-.865-6.206-1.952l.01.034c-1.123-.772-2.407-1.277-3.505-2.094m65.17-26.529c-.003-8.727-.085-17.456.054-26.18.037-2.56-.791-3.382-3.318-3.266-3.857.176-7.73.017-11.595.037-2.254.012-3.327-.976-3.242-3.302.094-2.604.074-5.215.009-7.819-.057-2.27.93-3.325 3.235-3.32 15.805.023 31.609.026 47.41-.008 2.493-.005 3.472 1.146 3.401 3.54-.074 2.492-.085 4.991.003 7.48.091 2.496-1.098 3.477-3.498 3.446-3.75-.048-7.51.142-11.253-.06-2.581-.138-3.273.741-3.259 3.269.103 17.11.054 34.223.051 51.339 0 4.987-.392 5.368-5.467 5.37-2.843 0-5.695-.144-8.524.037-3.062.199-4.033-1.285-4.021-4.042.037-8.84.014-17.68.014-26.521m82.447-17.09c-.23.854-.472 1.705-.709 2.559-.734.749-1.448 1.518-2.254 2.193a.456.456 0 00-.335.077c-4.648 1.84-9.464 1.886-14.35 1.438-1.825-.167-2.548-.902-2.502-2.786.108-4.63.063-9.266.017-13.896-.014-1.322.31-2.312 1.759-2.34 4.616-.088 9.287-.721 13.735 1.166 4.443 2.559 6.014 6.49 4.64 11.589m19.833 44.275c-4.616-7.138-8.174-14.855-12.25-22.288-2.313-4.224-2.14-4.312 1.894-7.303.717-.53 1.38-1.129 2.069-1.699.734-.706 1.354-1.518 2.074-2.238 3.655-5.493 4.813-11.618 3.99-18.018-.933-7.297-3.87-13.468-11.23-16.535-1.617-.797-3.455-1.044-5.018-1.971l.08-.12c-3.375-1.404-7.021-1.307-10.539-1.906-8.302-.045-16.584.15-24.766 1.804-2.36.477-3.6 1.774-3.6 4.15-.015 22.118-.006 44.233-.03 66.348-.002 2.374 1.219 3.172 3.422 3.132 3.185-.06 6.384-.196 9.554.034 3.293.241 4.46-1.013 4.386-4.267-.162-6.803-.068-13.61-.031-20.412.005-.948-.41-2.105.828-2.704 2.285-1.11 7.371.828 8.612 3.175 3.885 7.316 7.812 14.61 11.74 21.904.52.968.854 2.261 2.294 2.207 5.521-.215 11.077.707 16.564-.49.7-.945.558-1.878-.043-2.803"></path><g transform="translate(416.76 168.463)"><mask id="fnd6e73ad5ddmb" fill="#fff"><use xlink:href="#fnd6e73ad5ddma"></use></mask><path fill="#2684C6" d="M.341.422C.336.41.336.399.33.388H.32l.02.034z" mask="url(#fnd6e73ad5ddmb)"></path></g><path fill="#2684C6" d="M453.277 125.048c-.706.738-1.457 1.433-2.149 2.185h.111c-1.21.905-2.66.91-4.067 1.103-3.654 1.13-7.405.548-11.117.636-1.55.037-2.194-.891-2.194-2.375.006-4.956.023-9.915-.011-14.872-.009-1.28.589-1.98 1.764-1.988 4.6-.046 9.27-.826 13.704 1.126 4.528 2 6.12 5.458 3.959 14.185m20.568 41.656c-2.032-3.594-4.06-7.189-6.093-10.78-.948-1.274-1.537-2.733-2.177-4.165-.328-1.606-1.577-2.684-2.311-4.052-1.307-2.442-3.413-4.987-3.367-7.455.037-2.032 3.671-2.766 5.444-4.423.083-.077.157-.162.234-.244.663-.786 1.468-1.444 2.075-2.281a.423.423 0 00.045-.346c.655-1.217 1.338-2.42 2.038-3.612l-.014.043c1.101-2.162 1.21-4.608 1.946-6.874.282-5.272.43-10.529-2.02-15.445-.43-.976-1.332-1.6-1.876-2.491-2.931-4.48-7.152-6.957-12.358-7.91-2.948-.78-5.94-1.171-8.996-1.421-5.672-.463-11.313.34-16.965.08-3.23.553-6.57.292-9.74 1.29-1.351.037-2.345.534-2.564 2.009-.592.814-.347 1.753-.35 2.638-.014 21.652-.011 43.308 0 64.96 0 .88-.193 1.796.293 2.627 5.465 1.702 10.92 1.557 16.365-.108.59-7.583.085-15.184.288-22.773.028-1.044-.524-2.326.853-3.03 2.277-1.166 7.423.704 8.704 2.985 4.118 7.328 7.434 15.09 12.081 22.129.62.655 1.238 1.398 2.217 1.384 5.365-.088 10.747.602 16.092-.369.797-.74.578-1.546.156-2.366"></path><path fill="#1D488D" d="M387.631 143.63c-.674 11.998-11.048 14.151-18.303 10.321-2.06-1.09-2.951-2.987-4.07-4.777-.862-1.521-.646-3.328-1.309-4.903-.017-7.143-.321-14.301.046-21.428.262-5.021 1.636-9.873 7.189-11.97 3.278-1.327 6.546-1.145 9.807.06 4.705 2.324 6.461 6.554 6.646 11.329.279 7.115.393 14.267-.006 21.368m16.92-26.421c-1.153-7.904-5.16-14.509-12.574-18.5-1.329-.923-2.926-1.271-4.351-1.99-9.757-3.31-19.22-2.692-28.373 2.092-.996.405-1.645 1.273-2.487 1.883-4.955 3.572-7.733 8.563-9.387 14.288-1.2 1.935-.86 4.139-1.081 6.241-.982 9.297-.954 18.583.53 27.84.69 1.084 1.516 2.116 1.331 3.526.234 1.226.754 2.335 1.358 3.41 3.899 8.43 10.675 12.918 19.709 14.32 4.377 1.21 8.754 1.205 13.131.005 10.517-1.172 19.314-8.857 21.65-19.414 2.474-11.161 2.18-22.506.544-33.701"></path><g transform="translate(513.526 94.7)"><mask id="fnd6e73ad5ddmd" fill="#fff"><use xlink:href="#fnd6e73ad5ddmc"></use></mask><path fill="#2684C6" d="M42.204 46.746c-.876 2.732-.316 5.807-1.998 8.352-.432 1.421-1.355 2.476-2.519 3.356-.444 1.038-1.693.428-2.305 1.118-4.152 1.946-8.24 1.753-12.27-.366a1.443 1.443 0 00-.628-.097c-1.008-1.293-2.294-2.397-2.8-4.037l.013.034c-1.633-2.553-1.275-5.577-1.992-8.346.401-6.849-.663-13.751.734-20.56.385-1.861.894-3.697 1.347-5.544.606-.825 1.34-1.543 1.986-2.335-.003.003-.005.006-.008.006l.014-.011c0 .002-.003.002-.006.005.86-.797 1.825-1.444 2.832-2.034 3.58-.749 7.158-.703 10.735.02 1.008.638 2.064 1.223 2.855 2.145 3.122 3.793 3.714 8.397 3.916 13.013.225 5.087.08 10.188.094 15.28m11.63-36.45a9.955 9.955 0 00-2.022-2.329C49.612 6.062 47.51 4 44.532 3.3c-1.118-.706-2.601-.442-3.646-1.35l.054-.006C33.572-.182 26.2-.28 18.832 1.93c-.356.017-.708.031-1.061.048-1.506.553-2.972 1.197-4.35 2.023-1.13.267-1.79 1.11-2.441 1.969a20.105 20.105 0 00-2.766 2.207c-4.013 4.173-6.47 9.076-6.999 14.875-.45 1.109-.629 2.26-.623 3.45-.08 1.957.208 3.932-.322 5.864-.028 3.997-.02 7.997-.006 11.997.433 1.51.305 3.056.325 4.594.003 1.324-.011 2.65.014 3.974.003.778.228 1.49.592 2.168.942 3.526 2.476 6.806 4.238 9.989.68.732 1.375 1.453 1.947 2.28l.017-.033c.708.67 1.4 1.356 2.066 2.062l-.034.015c.822.573 1.56 1.245 2.268 1.949a.98.98 0 00.424.056c.848.545 1.72 1.042 2.712 1.286 2.878 1.29 5.989 1.832 8.968 2.8l-.045.05c4.132 1.01 8.26.79 12.389-.008l-.04-.054c2.297-.885 4.787-1.072 7.078-1.971l1.008-.128c.728-.576 1.585-.922 2.41-1.314 2.365-1.027 4.252-2.658 5.88-4.615.68-.568.729-1.575 1.477-2.094l-.076-.023c.785-1.138 1.562-2.278 2.245-3.48 2.695-5.45 3.83-11.23 3.763-17.281a501.5 501.5 0 010-12.242c.1-7.932-1.608-15.36-6.057-22.047" mask="url(#fnd6e73ad5ddmd)"></path></g><path fill="#1D488D" d="M134.982 125.38c-.62.66-.994 1.582-1.956 1.894-1.23 1.027-2.84 1.266-4.209 2l.088.137c-3.888 1.256-7.866.46-11.805.496-1.275.011-1.557-1.027-1.551-2.187.025-5.325.011-10.653.008-15.978 0-1.101.273-2.35 1.46-2.315 5.143.153 10.474-1.402 15.349 1.478.897.89 1.787 1.781 2.681 2.672 1.856 3.944 1.804 7.879-.065 11.802m15.87-18.497c-.72-.593-.869-1.558-1.47-2.227-3.002-4.31-7.36-6.568-12.237-8.04-2.929-1.325-6.17-1.147-9.216-1.921-8.407-.077-16.795.108-25.114 1.563-3.136.55-4.482 2.406-4.485 5.36-.026 21.637-.017 43.275-.014 64.913 0 2.511 1.195 3.683 3.796 3.598 3.29-.105 6.6-.154 9.885.014 2.894.15 3.828-1.2 3.802-3.844-.06-5.89-.02-11.783-.02-17.672.003-5.107-.006-4.954 5.251-4.684 6.122.315 12.235.147 18.01-2.375 1.378-.777 2.903-1.24 4.283-2.017 1.73-.63 3.012-1.867 4.258-3.152 6.899-7.132 8.225-19.141 3.27-29.516"></path><path fill="#2684C6" d="M485.342 168.184c.026-22.45.146-44.899-.014-67.345-.028-3.592 1.062-4.497 4.414-4.233 3.732.292 7.503.107 11.254.13.057 10.98.134 21.956.16 32.935.028 12.001-.032 24.004.039 36.005.014 2.162-.398 3.07-2.906 3.365-4.428.525-8.712.68-12.947-.857"></path><g transform="translate(19 63)"><mask id="fnd6e73ad5ddmg" fill="#fff"><use xlink:href="#fnd6e73ad5ddme"></use></mask><path fill="url(#fnd6e73ad5ddmf)" d="M34.711.578C35.337 6.31 5.296 55.697 5.296 55.697l.028.017A34.097 34.097 0 00.003 74.026c0 18.865 15.206 34.162 33.963 34.162 18.76 0 33.966-15.297 33.966-34.162 0-7.557-2.468-14.516-6.599-20.176l-9.868-16.702C35.669 6.284 34.71.578 34.71.578z" mask="url(#fnd6e73ad5ddmg)"></path></g></g></svg>