<svg xmlns="http://www.w3.org/2000/svg" viewBox="0 0 148.5 42.599998474121094"><path fill="#004b76" d="M94.3 13.1h4.5v4h-4.5zM71.8 23.9c.8 0 1.5-.1 2.1-.3.5-.2 1-.4 1.3-.7.3-.3.5-.7.7-1.1.1-.4.2-.9.2-1.4s-.1-1-.2-1.4c-.1-.4-.4-.7-.7-1-.3-.3-.7-.5-1.3-.6-.5-.2-1.3-.2-2.1-.2h-3.4V24l3.4-.1zm-8.2-10.8h8.2c1.7 0 3.2.2 4.3.6 1.2.4 2 .9 2.7 1.6.7.6 1.2 1.4 1.4 2.3.3.9.4 1.8.4 2.7 0 1-.2 2-.4 2.9-.3.9-.7 1.7-1.4 2.4s-1.6 1.3-2.7 1.7c-1.1.4-2.5.6-4.2.6h-3.6V36h-4.7V13.1zm30.7 6.2h4.5v16.8h-4.5zm8.1 0h4.3v2.3c.7-1 1.5-1.7 2.4-2.1s1.8-.7 2.8-.7c1.9 0 3.3.5 4.2 1.5.9 1 1.4 2.6 1.4 4.7v11h-4.4V25.6c0-1.2-.2-2-.7-2.4-.5-.4-1-.6-1.8-.6-.6 0-1.1.1-1.5.3-.4.2-.8.4-1.2.7-.3.3-.6.7-.7 1.1-.2.4-.3.9-.3 1.4V36h-4.5V19.3zm29.6 6.5c0-1.2-.3-2-.8-2.7-.6-.6-1.5-.9-2.7-.9-.6 0-1.1.1-1.6.3-.5.2-.8.5-1.2.8s-.6.7-.7 1.2c-.2.4-.3.9-.3 1.4l7.3-.1zm4.2 5c-.3 1.9-1 3.3-2.3 4.3-1.2 1-3 1.5-5.3 1.5-2.8 0-4.9-.8-6.3-2.3-1.4-1.5-2.1-3.7-2.1-6.5 0-1.4.2-2.7.6-3.8.4-1.1 1-2 1.7-2.8.7-.8 1.6-1.4 2.7-1.7 1-.4 2.1-.6 3.4-.6 2.6 0 4.5.7 5.8 2.2 1.3 1.5 1.9 3.5 1.9 6v1.8h-11.6c.1 1.4.4 2.4 1 3.1.6.7 1.6 1.2 2.9 1.2 1.8 0 2.8-.7 3.1-2.3l4.5-.1zm-53.4-5.4v-.5c0-1 .2-1.9.5-2.7s.7-1.4 1.3-1.8c.5-.5 1.2-.8 1.8-1 .7-.2 1.5-.3 2.3-.3.5 0 1.1.1 1.7.1.6.1 1.2.2 1.8.4l-.6 3.2c-.7-.2-1.4-.3-1.9-.3s-1.1.2-1.6.5-.7.9-.7 1.8V36h-4.5l-.1-10.6zm56.3 0v-.5c0-1 .2-1.9.5-2.7.3-.7.7-1.4 1.3-1.8.5-.5 1.2-.8 1.8-1 .7-.2 1.5-.3 2.3-.3.5 0 1.1.1 1.7.1.6.1 1.2.2 1.8.4l-.6 3.2c-.7-.2-1.4-.3-1.9-.3s-1.1.2-1.6.5-.7.9-.7 1.8V36h-4.5l-.1-10.6zM0 19.7h39.5v13.1H0z"></path><path fill="#39b54a" d="M26.1 42.6l26.3-6.5V22.9l-26.3 6.6z"></path><path fill="#77787b" d="M13.1 0l26.4 6.6v13.1l-26.4-6.6z"></path></svg>