<svg xmlns="http://www.w3.org/2000/svg" viewBox="0.2910003662109375 0.44099998474121094 410.27197265625 127.19200134277344"><g fill="none"><path fill="#1D1D1B" d="M2.547 7.626l27.729.296c8.296.074 15.065 6.06 15.501 15.67.437 9.534-4.512 20.03-20.086 20.547h-9.316l-.146 18.922H2.766L2.547 7.626zM16.375 18.27l.073 15.373c2.256.148 8.078-.073 9.898-.073 9.024-.074 9.242-15.079.363-15.3H16.375zM76.999 7.257c16.52 0 29.912 13.156 29.912 29.417 0 16.187-13.392 29.343-29.912 29.343S47.087 52.861 47.087 36.674c0-16.261 13.391-29.417 29.912-29.417zM231.433 6c16.52 0 29.912 13.157 29.912 29.343 0 16.261-13.391 29.344-29.912 29.344-16.52 0-29.911-13.157-29.911-29.344C201.522 19.157 214.912 6 231.433 6zM110.404 7.552l27.728.296c8.297.074 15.065 6.135 15.502 15.67.291 6.725-2.038 13.23-8.952 16.704l.073.074 17.976 22.913-17.83-.148-14.556-20.326-6.113.074-.146 20.252h-13.464l-.218-55.509zm13.9 10.496v15.448c2.257.147 8.079.074 9.898.074 9.025-.074 9.316-15.3.437-15.596h-10.335v.074zm31.659-10.422h47.888v11.9h-17.03v43.609h-13.755V19.526h-17.103v-11.9zm77.435 67.039c13.9 0 25.181 11.087 25.181 24.761s-11.28 24.761-25.18 24.761c-13.901 0-25.182-11.087-25.182-24.76 0-13.675 11.28-24.762 25.181-24.762z"></path><path fill="#FFF" d="M231.506 17.013c10.407 0 15.938 8.204 15.938 18.33 0 10.127-5.24 18.11-15.938 18.33-10.698.297-16.084-8.203-16.084-18.33 0-10.126 5.677-18.33 16.084-18.33zm1.965 66.965c8.806 0 13.391 6.948 13.391 15.448s-4.44 15.226-13.39 15.448c-9.025.222-13.538-6.948-13.538-15.448 0-8.574 4.804-15.448 13.537-15.448zM77.072 18.27c10.407 0 15.938 8.204 15.938 18.33 0 10.126-5.24 18.109-15.938 18.33-10.699.296-16.084-8.204-16.084-18.33 0-10.052 5.676-18.33 16.084-18.33z"></path><path fill="#1D1D1B" d="M168.044 74.96l24.38.223c7.278.074 13.246 5.321 13.61 13.747.291 5.913-1.82 11.679-7.86 14.71h.073l15.792 20.103-15.647-.147-12.809-17.813-5.385.074-.146 17.813H168.19l-.145-48.71h-.001zm12.154 9.24v13.6c1.965.148 7.132.074 8.733.074 7.933-.074 8.151-13.452.364-13.674h-9.097zM31.367 88.043l4.44-9.386s-10.99-6.283-21.834-3.327C3.129 78.287-1.019 92.848 8.151 99.278c9.17 6.43 16.52 5.026 15.938 10.644-.8 8.056-14.264 2.808-20.305.074l-3.493 9.756s5.458 3.474 15.502 4.509c10.043.96 19.65-4.583 20.014-14.561.582-16.704-24.963-13.083-20.305-22.765 2.11-4.287 9.897-1.848 15.865 1.108zm39.883-11.9v10.2H52.473v7.466h17.103v10.274H52.473v8.352h20.16v10.2l-32.169.074V76.143H71.25zm40.682 11.605c-15.72-6.652-25.763 1.995-26.71 11.013-.945 8.5 6.187 17.296 21.18 14.191l-.074-16.409h11.718l-.073 22.1c-19.286 12.344-44.759 1.33-44.176-18.847.873-27.274 30.712-28.161 42.43-21.287l-4.295 9.239zm21.542-12.639l-11.717-.148v28.826c-.218 13.526 10.626 20.104 21.47 20.03 10.916 0 21.833-6.652 21.615-20.03V74.961l-11.718.148-.072 28.087c.145 6.874-3.348 10.052-9.753 10.052-6.404 0-9.97-3.178-9.752-10.052l-.073-28.087z"></path><path fill="#00ABE2" d="M286.55.441h119.12c2.702 0 4.893 2.207 4.893 4.93v117.332c0 2.722-2.191 4.93-4.893 4.93H286.55c-2.703 0-4.894-2.208-4.894-4.93V5.37c0-2.722 2.264-4.929 4.894-4.929z"></path><path fill="#FFF" d="M288.815 8.68c4.528-.22 59.23-2.206 90.634 28.984 0 0-24.904-18.832-81.14-10.52-2.775-7.355-6.062-13.461-9.494-18.464z"></path><path fill="#FFF" d="M394.056 58.336c-17.017-19.347-72.011-9.858-88.955-5.15-1.095-6.694-2.483-12.8-4.163-18.39 12.197-1.913 82.236-11.109 93.118 23.54z"></path><path fill="#FFF" d="M306.197 61.94c13.365-3.678 88.736-22.951 96.258 13.315-23.736-16.037-80.483 1.913-95.455 7.504.146-4.561.073-9.416-.292-14.64-.073-2.133-.292-4.193-.511-6.179z"></path><path fill="#FFF" d="M306.343 92.837c32.135-13.462 132.264-38.694 88.444 17.287 9.42-17.655 4.016-19.935-8.838-19.273-24.539 1.324-75.151 23.025-87.64 29.204 3.725-6.915 6.646-15.89 8.034-27.218z"></path></g></svg>