<svg xmlns="http://www.w3.org/2000/svg" viewBox="0 0.699999988079071 661.199951171875 118.70000457763672"><path fill="#001F4E" d="M264.6 33l-3.4 8.6h-23.7V117h-10.2V4.1L237.5.7V33h27.1zM559.5 4.1L569.7.7v116.2h-10.2V4.1zM392 110.7c-21.6 0-29.2-18.4-29.2-35.8s7.5-35.8 29.2-35.8c19.4 0 27.3 18.4 27.3 35.8 0 17.5-7.9 35.8-27.3 35.8zm0-80.2c-12.4 0-24.5 6.4-28.9 18.4h-.3V.7l-10.2 3.4v112.8h9.4V101h.3c4.7 11.4 16.3 18.4 29.7 18.4 25.3 0 37.4-20.7 37.4-44.5 0-23.7-12.1-44.4-37.4-44.4zM529.1 4.1L539.3.7v116.2h-10.2V4.1zm-78 65c1.6-15.3 10.9-29.9 27.5-29.9s26.1 14.5 26.6 29.9h-54.1zm27.5-38.6c-26.6 0-37.8 22.3-37.8 44.4 0 23.9 11.2 44.5 37.8 44.5 20.4 0 31.3-10.4 36-28.2h-10.2c-3.6 11.7-11.6 19.6-25.8 19.6-19.6 0-27.4-18.1-27.5-33h64.3c.8-23.7-9.9-47.3-36.8-47.3zm143.6 80.2c-19.3 0-28.9-17.9-28.9-35.8s9.6-35.8 28.9-35.8c19.3 0 28.9 17.9 28.9 35.8s-9.6 35.8-28.9 35.8zm0-80.2c-25.2 0-39 20.3-39 44.4 0 24.1 13.7 44.5 39 44.5 25.2 0 39-20.4 39-44.5s-13.8-44.4-39-44.4zm-322.1 80.2c-19.3 0-28.9-17.9-28.9-35.8s9.6-35.8 28.9-35.8c19.3 0 28.9 17.9 28.9 35.8.1 17.9-9.5 35.8-28.9 35.8zm0-80.2c-25.2 0-39 20.3-39 44.4 0 24.1 13.8 44.4 39 44.4s39-20.4 39-44.4c0-24.1-13.7-44.4-39-44.4zm-85.3 2.4h2.2v8.6h-2c-17.7-.2-31.9 13.7-31.9 30.6v44.8h-10.2v-84h9.4v19.7h.3c5-12.9 17.9-19.8 32.2-19.7zm-172 24.8H11V10.2h31.9c15.2 0 25.7 7.8 25.7 23.7-.1 16-10.6 23.8-25.8 23.8zm2.5-57H0v116.2h11V67.1h34.3c20.6 0 34.2-12.2 34.2-33.2C79.4 12.9 65.9.7 45.3.7zm75.1 110c-19.3 0-28.9-17.9-28.9-35.8s9.6-35.8 28.9-35.8c19.3 0 28.9 17.9 28.9 35.8s-9.6 35.8-28.9 35.8zm0-80.2c-25.2 0-38.9 20.3-38.9 44.4 0 24.1 13.7 44.5 38.9 44.5s38.9-20.4 38.9-44.5c.1-24.1-13.6-44.4-38.9-44.4z"></path></svg>