<svg xmlns="http://www.w3.org/2000/svg" viewBox="0.5399916172027588 0.280059814453125 1801.1600341796875 312.5499267578125"><g fill="none"><path fill="#054C8F" d="M456.74.32c14.28 5 29.49 8.32 42.68 15.39 30.21 16.18 53.83 39.38 63.11 73.53 3 11.13 5.31 14.59 17.38 10.27 30.51-10.91 61.92-11.24 92 .86 27.71 11.13 51.83 27.68 66.51 55.34 9.15 17.23 25.66 7.29 38.37 7.64 10.83.3 5.35-11.8 5.47-18 .64-31.4.3-62.82.3-93.73 9.26 0 18.06 1 26.53-.23 14.34-2.12 16.64 4.34 16.23 16.92-.91 27.41 0 54.88-.58 82.3-.22 10.42 3.35 13.59 13.8 13.82 45 1 45 1.32 45-43.68 0-19.44.32-38.88-.21-58.31-.23-8.21 1.11-11.23 10.68-11.08 32.75.5 32.75 0 32.76 32.83 0 22.86.44 45.74-.12 68.59-.22 8.94 2.24 12.7 11.47 11.56a53 53 0 0115.4 0c15.6 2.73 24-3.83 32.1-17.47 18.3-31 48.7-48.23 82.78-52.2 36.62-4.28 74 .33 105.74 23 10.25 7.31 18.57 17.32 29.67 27.9 0-13.94 1.05-26.23-.28-38.26-1.51-13.66 4.11-15.94 16.3-15.61 31.42.84 62.87.11 94.31.37 51 .43 76.82 28.78 72.65 79.82-.42 5.14 2.18 9.33 4.76 12.19 2.1 2.34 5.32-2.67 8.08-4.35 16.22-9.85 33.12-15.8 52.82-14.63 22.21 1.31 44.6-.51 66.85.42 14.91.63 16.56-6.4 12.88-17.71-4.94-15.19-16.74-20.93-31.74-21-24.58-.18-49.21-1-73.72.31-18.28 1-12.89-11.11-13.46-20.28-.61-9.71-2.42-19.1 13.73-17.89 21 1.58 42.28.88 63.42.33 37-1 75.12 24.93 81.63 47.5 2.65 9.15-1.23 22.93 7.65 26.69 9.78 4.13 22.54.55 33.77 2.08 14.62 2 16.71-4.73 16.34-17.22-.81-26.85.67-53.78-.62-80.58-.67-14.17 4.37-17.54 17.14-16.32 8.32.8 17 1.22 26.69-2.54 0 34.5.53 68.06-.29 101.58-.29 12.11 3.32 16.4 15.29 15.05 7.91-.89 16.12.75 24-.37 14.72-2.12 17.77 3.91 17.81 17.82.04 13.91-4.19 16.9-17.3 16.66-39.47-.71-39.47-.15-39.46 40.06 0 17.15-1.2 34.4.3 51.42 1.95 22.11-13.84 16.95-25.61 18.64-14.11 2-19.07-3.58-18.47-18.13 1.11-26.83 0-53.73.49-80.59.15-8.64-1.91-11.65-11.26-12-41.59-1.36-41.57-1.71-41.57 40.2v58.31c0 6.48.52 12.36-9.31 12.3-45.67-.31-91.35.12-137-.27-6.61-.06-14.08-1.71-19.57-5.16-9.15-5.74-14.56-16.6-24.55 1.76-5.16 9.48-23.59 4-35.57 2.85-6.64-.66-3.14-10.87-3.19-16.63-.32-43.44-.06-86.89-.25-130.34-.09-22.77-6.86-31.44-28.75-33-21-1.46-42.27-.36-63.41-.57-11.28-.11-8.92 8.1-8.93 14.5-.11 48.59-.71 97.19.3 145.77.35 16.49-4.45 21.79-21.13 21.38-15.12-.37-23.22-2.2-22-20.36 1.61-24.47-.1-49.14.54-73.7.29-11.29-2.27-16.1-15-15.95-55.453.667-110.903.697-166.35.09-14.51-.16-14.79 6.89-12.07 17.17 12.24 46.31 48.53 63.21 97.58 56.13 14-2 27.49-5.61 36.76-17.93 5-6.66 10.91-7.15 17.31-1.21a100 100 0 0012.14 9.43c11.31 7.59 11 13.32-.83 21-48.49 31.58-98.53 34.08-148.76 6.66-30.13-16.46-50.38-42.62-55.23-77.7-1.53-11.1-5.2-14.95-15.83-13.51-4.544.6-9.146.6-13.69 0-10.46-1.39-13.87 2.53-13.59 13.23.7 27.42-.35 54.89.47 82.3.33 11.12-2.55 14.42-13.94 14.14-29.33-.72-29.35-.13-29.34-29.5 0-22.29-.53-44.61.23-66.87.38-10.81-3.36-14.14-13.75-13.32a161.08 161.08 0 01-30.82 0c-13-1.49-15.15 4.65-14.89 15.73.63 26.29-.28 52.61.67 78.87.44 12.24-3.52 15.43-15.45 15.1-27.15-.74-27.16-.11-27.16-26.79 0-22.87-.4-45.75.17-68.6.25-9.72-1.41-14.35-12.82-14.28-72.6.453-145.2.453-217.8 0-16.64-.07-14.15 10.58-11 19.45 20.27 56.92 90 74.86 135.2 34.61 8.26-7.35 12.5-2.95 18.55 1.52 25.71 19 25.61 21.2-2.53 36.58-54.21 29.62-123.75 20.34-164.46-21.9-13-13.45-21.42-29.45-26.28-47.28-1.48-5.45-2.47-8.43-8.78-5.58-40.82 18.49-84.23 11.66-126.71 11.8-16.1.06-20.28 4.75-19.14 19.9 1.28 17.05-.1 34.29.46 51.42.28 8.49-1.59 11.71-11.08 11.89-31.2.6-31.24 1.07-31.185-29.46.172-94.313.368-188.623.595-282.93l150.97.04zM347.19 114.69h.1c0 22.82.19 45.65-.11 68.47-.1 7.41 1.17 11.82 10.08 11.57 31.86-.91 63.91 2.14 95.56-2.82 53.57-8.39 93-68.32 59.63-115.67-15.64-22.21-37.07-34.94-63.77-38.49-30.08-4-60.38-.91-90.54-2.11-9.77-.38-11.2 4.15-11.07 12.3.36 22.25.12 44.5.12 66.75zm1136.42 160.34c13.1 0 26.21-.35 39.29.14 7.7.28 11.28-1.46 11-10.21-.61-18.2-.65-36.46.06-54.65.37-9.39-3.11-11.37-11.78-11.18-24.47.53-49-.17-73.46.23-23.71.39-41.64 16.24-41.801 36.06-.169 21.51 18.911 39.36 42.531 39.65 11.38.11 22.8-.04 34.16-.04zM553.53 163.28h139c-24.6-48.93-106.37-49.25-139 0zm611.24.55c-20.59-28.86-46.73-38.11-78-37.31-27.45.7-46.69 14.29-64 37.31h142zM233.78.32c26.08 9.93 33.53 29.72 31.07 56-1.38 14.69-.18 29.62-.26 44.44-.14 25.91-12.85 40.85-38.93 42.06-30.14 1.4-60.39.67-90.59.74-29.07.07-58.16-.48-87.22.14-21.45.45-37.36-7.48-47.31-26.71v-96c9.92-7.42 19.05-16 30.87-20.58L233.78.32z"></path><path fill="#F48A1F" d="M.54 195.83c7-22.71 26.73-27 45.54-27.41 58.72-1.32 117.5-.66 176.25-.43 24.49.09 42 18.14 42.13 42.49.09 20 .33 39.93 0 59.89-.4 24.36-15.35 39.43-39.69 39.49-61.6.15-123.21-.45-184.81 0-19.15.14-30-10.68-39.41-24.83l-.01-89.2z"></path><path fill="#F8FAFA" d="M31.41.32C19.59 4.88 10.46 13.48.54 20.9.54.32.54.32 31.41.32z"></path><path fill="#054C8F" d="M1757.05 94.85h43.27c0 68-.1 135.94.13 203.87 0 7.6-3.69 10-10.07 10.74-1.13.13-2.29 0-3.43.07-29.9 2.29-29.9 2.3-29.9-27.27V94.85zm44.65-46.96c-4.16 9.19 4.2 18.46-5.58 22.87-11.68 5.28-24.79 3.58-36.8.85-4.85-1.11-1.64-9.2-2-14.1-.36-5.92 4.31-5.68 8.25-5.93 11.19-.71 22.47 1.92 36.13-3.69z"></path></g></svg>