<svg xmlns="http://www.w3.org/2000/svg" xmlns:xlink="http://www.w3.org/1999/xlink" viewBox="24 50 543.5110473632812 151"><defs><path id="fn5b07dbeaadma" d="M.232.438h43.277v60.808H.232z"></path></defs><g fill="none" fill-rule="evenodd"><path fill="#00406F" d="M102.522 84.946c-11.079 0-20.442 3.864-28.215 11.59-7.782 7.692-11.669 17.008-11.669 27.91 0 10.903 3.887 20.224 11.712 27.908 7.82 7.73 17.184 11.593 28.172 11.593 11.125 0 20.532-3.82 28.262-11.508 7.734-7.684 11.578-17 11.578-27.992 0-10.988-3.844-20.309-11.578-27.997-7.73-7.683-17.137-11.504-28.262-11.504m1.3-34.946c21.153 0 39.32 7.312 54.453 21.929C173.412 86.549 181 104.079 181 124.447c0 20.722-7.627 38.323-22.872 52.833-15.25 14.48-33.825 21.72-55.61 21.72-21.713 0-40.216-7.274-55.534-21.827C31.657 162.591 24 145.028 24 124.447c0-20.795 7.735-38.396 23.17-52.838C62.603 57.206 81.476 50 103.822 50"></path><path fill="#00406F" d="M123.535 129.405l15.02 17.147a1.788 1.788 0 01-.185 2.542 1.82 1.82 0 01-1.03.432l-1.97.248c-11.138 1.414-16.182 2.055-24.424 2.226a1.836 1.836 0 01-1.636-.94l-4.745-5.136h-.004l-19.03-18.843a1.781 1.781 0 01.009-2.547 1.836 1.836 0 011.364-.521c4.069 0 7.519-.004 10.904-.004 4.19 0 8.286-.005 13.333-.009 2.866 0 5.017.29 6.96 1.128 1.962.842 3.603 2.183 5.434 4.277"></path><path fill="#FEFEFE" d="M122.087 131.703L137 148.57c-12.437 1.56-17.51 2.248-26.081 2.429a4.042 4.042 0 00-.103-.193l-4.858-5.207L87 127.013l24.151-.013c5.189-.004 7.66 1 10.936 4.703"></path><path fill="#FEFEFE" d="M121.87 131.776l14.82 17.13c-1.589.679-1.572 2.749-.777 4.14 2.939 5.151 4.61 4.63 8.087 7.161l-1.897 24.087c-.26.606-.457 1.007-.765 1.263a1.59 1.59 0 01-.867.355c-1.628.153-3.426.136-3.994-.29-1.081-.683-1.039-2.088-1.162-4.99-.082-1.997-.42-.909-.599-.12-.487 2.105-1.315 5.037-1.973 5.178-1.017.132-2.978-.022-3.696-.133-.888-.303-1.35-3.614-1.606-5.77-.23-1.95-.415-1.028-.658.026-.513 2.24-1.397 4.916-1.952 5.057-1.432.286-3.055.316-4.708-.345-.522-.163-.543-3.423-.735-5.523-.133-1.472-.389-.678-.59.073-.461 1.745-1.188 4.293-1.952 4.758-.855.53-4.79.303-5.063-1.502a17.508 17.508 0 01-.004-3.35c1.128-8.083-.432-19.478-1.008-27.608a4.136 4.136 0 00-.103-.196l-4.827-5.288L87 127.013l24.001-.013c5.157-.004 7.613 1.016 10.869 4.776"></path><path fill="#FEFEFE" d="M110.105 159.834v.004-.004zm-1.981-1.497a2.98 2.98 0 01-.595-1.882l.004-.027.176-3.97v-.022a2.815 2.815 0 01.303-1.094c.446-.832 1.332-1.383 2.316-1.34l.004.005v-.005l3.514.167 2.812.135h.022c.2.014.385.04.556.092a2.58 2.58 0 011.82 2.587l-.18 4.006a2.01 2.01 0 01-.236.893c.826.437 1.408 1.129 1.357 2.298l-.184 4.097c-.03.705-.266 1.23-.63 1.615.433.376.698.889.664 1.58l-.18 4.001v.004a2.434 2.434 0 01-.124.683 2.562 2.562 0 01-.282.6c-.116.18-.261.346-.42.495a2.281 2.281 0 01-.445.324c.099.302.15.621.137.954l-.184 4.01v.022a2.587 2.587 0 01-.094.573 3.122 3.122 0 01-.206.52c-.449.828-1.326 1.38-2.315 1.34h-.009l-1.9-.096h-.013l-4.413-.21h-.017a2.507 2.507 0 01-.56-.092 2.8 2.8 0 01-.506-.22 2.576 2.576 0 01-1.314-2.363v-.009l.18-4.005.004-.013h-.004l.004-.004a2.855 2.855 0 01.283-1.09c.068-.145.15-.28.244-.412-.287-.49-.445-1.063-.424-1.593v-.005l.18-4.01v-.003c0-.036.004-.07.008-.123.018-.188.056-.377.116-.556a2.542 2.542 0 01.381-.744c-.304-.543-.475-1.178-.454-1.703l.184-4.014c.005-.079 0-.066 0-.087.005-.018.005-.031.009-.049a2.58 2.58 0 01.094-.494c.043-.167.103-.337.18-.5.043-.091.085-.179.137-.266zm2.136-1.348h.004a1.22 1.22 0 011.083 1.234 1.213 1.213 0 01-1.212 1.217c-.077 0 .077.096.03.206a.826.826 0 00-.042.109 1.452 1.452 0 01-.013.061v.022c-.005.03-.005.013-.005 0v.005l-.18 4.01c-.008.183.108.433.279.586a1.21 1.21 0 011.04 1.221 1.21 1.21 0 01-1.207 1.221c-.068 0-.128.027-.154.07-.009.018-.004.005-.009.013 0 0 0 .005-.004.014v.008l-.18 4.006a.52.52 0 00.172.372.13.13 0 01.03.021c.62.066 1.095.622 1.07 1.266-.022.682-.578 1.212-1.242 1.186-.013 0-.051.074-.094.157l-.03.07c-.004.014-.004.027-.008.044v.013l-.184 3.997a.12.12 0 00.06.105c.004 0 .008 0 .02.004l.022.009 4.409.21h.025l1.897.092a.132.132 0 00.098-.066.098.098 0 01.013-.022v-.031h.004l.176-3.991a.147.147 0 00-.018-.075l-.008-.004c0-.004 0 0-.009-.009l-.004-.004c-.167-.149-1.42-.263-2.157-.329a7.738 7.738 0 01-.723-.087 1.217 1.217 0 01-.818-.525 1.254 1.254 0 01.317-1.712c.295-.21 1.254-.245 2.268-.236.818.009 1.7.026 2.119.026v-.004h.004v.004a.196.196 0 00.137-.052c.004 0 .009-.005.017-.018.005-.013.009-.013.009-.013 0-.005.004-.013.004-.026l.18-4.001c.004-.1-1.438-.079-2.269-.18-.488-.061-.86-.11-1.125-.219a1.249 1.249 0 01-.227-.118 1.182 1.182 0 01-.428-.49 1.242 1.242 0 01.548-1.65c.3-.153.625-.158 1.087-.158.757 0 2.363-.004 2.38-.376l.184-4.097c.008-.224-1.464-.408-2.427-.534-.445-.053-.822-.101-1.139-.189l-.004-.004a1.227 1.227 0 01-.882-1.213c.017-.674.57-1.212 1.229-1.199h.021c.291.009 2.072.048 2.08-.052l.18-4.006a.106.106 0 00-.056-.105l-.021-.004-.021-.009h-.009l-2.808-.136-3.514-.166c-.042 0-.077.026-.098.066l-.013.022v.017l-.004.013-.176 3.966v.03a.421.421 0 00.193.368c.013.014.034.022.06.035a.196.196 0 00.073.01v.004z"></path><path fill="#00406F" d="M110.015 157.604c-.947-.083-1.502-.907-1.471-1.607l.191-3.79c.036-.7.671-1.239 1.418-1.206l3.65.154 2.924.128c.752.033 1.33.626 1.294 1.326l-.187 3.79c-.062 1.25-3.067 1.167-3.458 1.16.973.256 4.703.194 4.623 1.859l-.191 3.873c-.09 1.847-4.019 1.37-4.299 1.503.338.203 4.4.2 4.334 1.52l-.187 3.79c-.035.7-.675 1.206-1.418 1.206-.84.004-3.765-.05-3.858.004.182.09 2.956.128 3.627.667.303.244.485.613.472 1.019l-.192 3.794c-.03.695-.67 1.234-1.422 1.205l-1.97-.087-4.604-.199c-.743-.033-1.325-.625-1.29-1.321l.187-3.798c.036-.692.685-1.392 1.432-1.371-.747-.034-1.36-.878-1.325-1.578l.191-3.795c.036-.695.667-1.209 1.422-1.2-.773-.046-1.404-1.065-1.373-1.761l.191-3.794c.031-.696.671-1.491 1.29-1.491"></path><path fill="#FEFEFE" d="M143.826 183.079l8.785 10.016.026.03c3.779 4.54 7.125 4.87 12.187 4.87.485 0 .983 0 1.495-.005.546-.004 1.11-.009 1.69-.009h16.894l-32.197-32.646c-.642-.57-.928-1.6-1.829-5.518-.403-1.751-.858-3.723-1.335-5.315a21.184 21.184 0 01-.251-.925c-.295-1.155-.347-1.363-1.855-1.946-3.88-1.501-7.008-2.4-9.04-2.604-.65-.069-1.102.03-1.253.281-.213.346-.2 1.168.2 1.942 1.126 2.219 2.994 3.477 5.364 5.073.763.51 1.548 1.038 2.38 1.647.42.307.654.805.61 1.332l-1.871 23.777zM164.824 201c-5.587 0-9.9-.428-14.489-5.938l-9.192-10.482a1.523 1.523 0 01-.368-1.108l1.859-23.56a110.31 110.31 0 00-1.608-1.098c-2.626-1.769-4.889-3.296-6.371-6.206-.641-1.258-1.044-3.3-.078-4.87.399-.644 1.378-1.738 3.458-1.738.213 0 .434.013.66.039 2.335.23 5.638 1.168 9.829 2.79 2.752 1.063 3.246 2.278 3.683 4.012.066.251.13.515.213.788.511 1.686.975 3.719 1.391 5.513.364 1.592.82 3.55 1.066 4.113l34.693 35.176a1.5 1.5 0 01-1.074 2.552h-20.487a223 223 0 00-1.669.008c-.52.005-1.027.009-1.516.009z"></path><path fill="#00406F" d="M151.978 193.684l-9.202-10.29 1.92-23.937c-3.52-2.52-6.506-3.851-8.2-7.118-.941-1.824-.772-4.636 2.548-4.314 2.783.276 6.684 1.604 9.436 2.652 2.675 1.01 2.432 1.917 3.004 3.758 1.166 3.788 2.124 9.493 2.753 9.977L189 198.986h-20.485c-7.092 0-11.578.548-16.537-5.302"></path><path fill="#1D1D1B" d="M231.167 101.617c-13.63 0-17.244 15.773-17.244 26.75 0 11.617 1.485 28.962 16.777 28.962 15.021 0 18.36-16.606 18.36-28.595 0-11.9-2.97-27.117-17.893-27.117zm28.55 69.37c-2.966.83-6.116 1.013-9.176 1.013-6.678 0-17.06-6.18-22.065-10.332-18.815 0-24.476-16.05-24.476-32.011C204 112.222 215.219 97 233.575 97c18.914 0 25.4 13.471 25.4 30.542 0 14.014-5.932 28.775-20.765 32.465 4.45 3.04 14.833 9.593 20.584 9.593.18 0 1.017 0 1.206-.09l-.283 1.478zm38.075-9.824l-.466-7.786c-3.14 5.842-10.064 8.623-16.44 8.623-9.056 0-10.625-7.048-10.625-14.65v-25.676c0-2.592-3.14-3.335-5.175-3.335l-.086-1.575c4.615-.373 9.144-1.3 13.764-1.764v33.557c0 4.446 1.475 8.344 6.556 8.344 5.265 0 11.822-4.915 11.822-10.478V121.4c0-2.043-2.493-2.975-4.153-3.06v-1.576c4.247-.468 8.315-1.39 12.562-1.764v38.282c0 3.988 1.386 5.937 5.449 6.027v1.854h-13.208zm43.606-20.911c-1.585-.463-3.165-.557-4.745-.557-6.791 0-11.722 2.874-11.722 10.182 0 5.642 4.186 8.233 9.396 8.233 2.416 0 4.84-.368 7.071-1.293v-16.565zM352 159.867c-6.042 1.203-12.187 2.133-18.323 2.133-8.746 0-17.677-1.945-17.677-12.495 0-10.358 9.767-13.695 18.698-13.695 2.235 0 4.47.188 6.7.745v-7.123c0-5.826-1.49-10.547-8.376-10.547-4.93 0-9.116 3.98-10.511 8.426-1.675-1.208-3.906-3.517-3.906-5.744 0-4.532 11.162-6.567 14.603-6.567 9.77 0 16.561 2.035 16.561 13.142v24.974c0 2.129.186 4.716 2.231 5.92v.83zm25.344 1.833c-2.255.93-4.88 1.3-7.322 1.3-8.917 0-9.76-3.44-9.76-11.16v-49.096c0-3.345-1.781-5.489-5.262-5.489v-1.58c4.697-.37 9.295-1.3 13.992-1.675v57.84c0 6.14 3.28 7.72 9.008 7.44l-.656 2.42zm16.369-56.02c-2.954 0-5.714-2.39-5.714-5.34 0-2.855 2.76-5.34 5.714-5.34 2.858 0 5.715 2.212 5.715 5.161 0 2.94-2.668 5.52-5.715 5.52zM404 161h-20v-1.658c2.857-.366 5.617-1.47 5.617-4.692v-31.295c0-3.589-2.57-4.045-5.617-4.416v-1.845l14.383-2.02v39.576c0 3.038 2.76 4.509 5.617 4.692V161zm32.442-34.437c-.65-4.16-3.903-7.677-8.366-7.677-9.016 0-10.875 11.652-10.875 18.502 0 8.23 2.789 20.448 13.105 20.448 2.793 0 5.766-.094 8.46-1.298-.185 1.392-.555 3.149-1.67 4.164-1.024.835-6.79 1.298-8.366 1.298-14.782 0-20.73-10.269-20.73-23.875 0-11.93 7.897-23.125 20.631-23.125 4.188 0 12.369.368 12.369 6.105 0 2.592-2.419 4.532-4.558 5.458m28.577-7.685c-9.476 0-11.917 11.266-11.917 18.65 0 7.015.66 20.5 10.601 20.5 10.783 0 12.099-12.467 12.099-20.5 0-7.205-1.03-18.65-10.783-18.65M462.296 162C447.943 162 444 150.272 444 138.173c0-13.198 8.916-23.173 22.613-23.173 13.692 0 18.387 9.513 18.387 21.698 0 13.946-7.509 25.302-22.704 25.302m53.622-36.825c-.857-1.926-3.512-3.942-5.792-3.942-4.935 0-7.59 5.593-7.59 9.709v23.46c0 2.75 2.848 4.765 5.502 4.858V161h-19.946v-1.557c2.659-.365 5.608-2.105 5.608-5.041v-30.513c0-3.852-2.286-4.582-5.7-5.223v-1.65l13.49-1.834.475 7.973c2.281-4.858 7.59-8.155 13.096-8.155 1.428 0 4.939.276 4.939 2.202 0 2.656-2.188 6.233-4.082 7.973"></path><g transform="translate(524 115)"><mask id="fn5b07dbeaadmb" fill="#fff"><use xlink:href="#fn5b07dbeaadma"></use></mask><path fill="#1D1D1B" d="M25.774 4.897c-6.227 0-11.705 5.737-11.705 11.646v24.034c2.227 1.37 4.92 1.643 7.525 1.643 10.866 0 12.818-11.565 12.818-19.94 0-5.825-.374-17.383-8.638-17.383M21.22 46.5c-2.412 0-4.924-.363-7.056-1.459v10.47c0 2.731 2.786 4.19 5.289 4.37l-.086 1.366H.232v-1.454c2.597 0 5.289-1.825 5.289-4.552V10.36c0-3.28-1.669-6.377-5.29-6.466V2.53L13.512.438c.09 2.912.279 5.918.279 8.919C15.836 3.077 23.172.438 29.3.438c11.704 0 14.211 10.744 14.211 20.114 0 13.656-6.966 25.947-22.291 25.947" mask="url(#fn5b07dbeaadmb)"></path></g></g></svg>