<svg xmlns="http://www.w3.org/2000/svg" viewBox="0.5799999833106995 0.9239501953125 1871.868408203125 560.9560546875"><g fill="none"><path fill="#EE4D4B" d="M.58 220.41c9-4.72 7.27-14.6 9.45-22C48.71 67.13 180.63-18.04 311.19 4.55c146 25.27 240.47 141.25 232 285.19-1.55 26.19-8.53 51.27-17.31 75.93-4.91 13.8-11.07 21.13-25.3 9.38a81.2 81.2 0 00-16.55-10.31c-25.43-12.17-36.11-25.25-27.18-58.78 21.74-81.69-23.35-166.66-100.46-203.82-79.57-38.4-176.2-18.2-230.86 48.2-54.42 66.11-57.33 158.94-7.16 228 60.12 82.7 177.31 101.85 264 41.78 14.62-10.13 24.18-11.33 39-1.32 33.9 22.94 68.93 44.27 104 65.36 12.2 7.33 15.25 13.53 6.19 26-12 16.5-22 34.42-32.86 51.72h-5.6c-22.34-14.75-45.25-28.73-66.82-44.53-16.14-11.82-29.83-11.09-48.22-3.25-150.4 64.13-320.65-16.91-367.93-173.58-2.52-8.34-.36-19-9.55-25v-95.11z"></path><path fill="#14192D" d="M1779.08 372.26c-34.15 6.08-67.31 8.75-100.18-.31-38-10.48-57.55-33.65-55.39-72.92 2.13-38.94 9.35-77.58 13.38-116.45 2.12-20.43 16.51-16.31 28.82-16 45.67 1.26 40.08-9.88 35.06 39.57-2.54 25-7.07 49.76-10.13 74.69-2.66 21.69 7.77 32.71 29.19 36 16.94 2.62 33.39.11 50.11-.71 15.18-.75 20.31-7.91 21.91-22.61 3.72-34.23 10.85-68.12 13.67-102.39 1.71-20.64 9.42-25.89 29.29-25.19 40 1.42 40.47.29 35.41 38.51-7.7 58.19-15.53 116.29-24.31 174.29-9.69 64-38.06 91.63-102 98.15a379.05 379.05 0 01-105.85-3.86c-13.85-2.48-20.36-6.25-16.12-21.38 2.24-8 2.28-16.6 2.77-25 .88-14.91 7.76-18.17 22.06-14.79a279.72 279.72 0 0091.47 6.52c28.45-2.64 41.06-16.75 40.84-46.12zm-744.8-212.7c9.29 0 18.66-.8 27.86.13 61.11 6.18 85.59 34.86 80.4 96.18-2.66 31.43-8.59 62.57-12 93.95-2.33 21.16-12.55 27.36-28.86 14.26-18.1-14.53-31.41-11.5-51-.56-37.56 21-78.5 19.17-118.46 3.49-22.77-8.92-37.93-26.57-40.03-49.77-7.35-82.83 19.61-153 119.73-158.15 7.42-.38 14.88 0 22.32 0l.04.47zm41.45 98.31c2.7-16.38-1.22-31.95-21.94-36.53-21.06-4.66-42.69-4.81-63.54 1.1-21.61 6.12-30.5 23.06-32 44.19-1.15 16.62-3.47 34 14 45 42.11 26.5 100.94-2.81 103.48-53.76zM271.94 163.1c60.33-.2 109.36 48.08 108.72 107.05-.63 57.46-49.81 105.36-108.19 105.38-59.73 0-109.4-49.1-108.88-107.65.52-57.73 48.96-104.58 108.35-104.78zm321.89 116.06c3.41-24.59 8.64-60.48 13.24-96.45 1.61-12.63 7.45-17 20.21-16.43 57.85 2.41 48.92-10.76 42.2 47.75-2.33 20.31-6.49 40.45-8.27 60.8-2.74 31.24 4.9 40 36.45 42.93 10.06.93 20.47.15 30.52-1.28 38.38-5.46 44.93-12.42 49.89-49.77 3.42-25.82 7-51.62 11.08-77.34 1.32-8.24-3.22-21.4 10.68-22.11 18.37-.92 37.25-4.13 55 2.49 2.28.85 1.68 12.06.83 18.26a18800.139 18800.139 0 01-22.41 157.51c-4.26 29.09-8.7 31.89-32.54 16.4-15.59-10.13-26.62-11.18-43.92-.65-39.08 23.78-82 22.31-123.38 5.05-32.94-13.73-41.82-42.46-39.58-87.16zm952.02 36.86c6.23 7.67 28.51-15.86 26.26 10.05-1.6 18.38 8.25 48.49-27.87 49.3-11.16.25-22.39 1.15-33.49.37-65.78-4.64-85.1-29.91-74.85-94.63 9.16-57.91 18-115.91 24.76-174.13 2.9-25.08 12.37-24.95 30.51-15 21.91 12.06 42 24.1 31.17 54.83-5.91 16.73 2.77 21.64 18.12 19.69a41.54 41.54 0 015.58 0c34.17.25 43.9 17.6 29 49.76-6.38 13.76-18 8.76-26.48 7.66-29.81-3.87-46.51 4.83-43.22 37.82.27 2.69-.75 5.51-1.2 8.27-7.12 42.67-3.27 47.15 41.71 46.01zm-328.3 54.34c-37.68 0-37.36.05-32-35.19 11.75-77.06 23.74-154.1 34.25-231.33 2.63-19.4 9.87-21.1 25.33-14 39.78 18.36 41.06 21.41 34 65.53-9.87 61.38-20.44 122.72-27.49 184.45-3.07 26.85-12.94 36.29-34.09 30.54zm123.33 0c-37.54 0-37.1.06-32.32-32.68 7.24-49.71 14.23-99.46 20.43-149.3 2.7-21.73 10-26.8 30.57-15.78 25.13 13.45 39.71 27.11 30.75 59.95-9.22 33.82-12.27 69.64-15 104.81-2.12 26.28-10.12 40.5-34.43 33zm38.72-284.68c18.38-.42 34 2.74 33.95 26.19-.06 24.59-14.76 39.67-40.46 39.45-18.28-.15-36.42-2.17-35.25-28.16 1.13-25.09 14.35-37.33 41.76-37.48z"></path></g></svg>