<svg xmlns="http://www.w3.org/2000/svg" viewBox="0.00009033549576997757 0.0000026226043701171875 211.99964904785156 117.9999771118164"><path fill="#2C7650" d="M82.394 65.365c10.381 3.727 19.154 10.255 28.364 16.085 12.877 8.153 27.21 11.925 42.35 11.639 13.971-.264 24.565-6.945 30.71-19.677 5.85-12.123 4.883-24.129-3.167-34.95-6.493-8.725-15.453-13.457-26.503-13.549-7.483-.062-14.97.129-22.447-.078-2.774-.076-3.305.83-3.278 3.43.137 12.578.075 25.16.056 37.742-.01 6.765-4.934 9.701-10.698 6.167-4.824-2.957-9.377-6.361-14.096-9.496-.995-.662-1.019-1.499-1.019-2.48.01-17.741-.026-35.485.038-53.226.016-4.328 2.539-6.688 6.903-6.695 15.82-.028 31.677-.698 47.453.153 22.939 1.238 39.897 12.8 49.552 33.774 15.465 33.589-3.782 73.163-39.612 81.937-14.117 3.457-28.243 1.662-42.148-1.867-12.23-3.104-23.46-8.437-33.844-15.658-13.556-9.425-28.675-14.042-45.12-14.343-5.022-.093-7.34-2.462-7.376-7.622-.024-3.55-.012-7.097.01-10.645.032-5.36 2.214-7.564 7.566-7.68 11.86-.257 21.073-10.712 19.113-21.69-1.234-6.925-6.873-11.688-14.006-11.73-7.483-.045-14.97.103-22.449-.062-2.466-.054-2.968.73-2.96 3.084.086 26.883.051 53.766.058 80.648 0 5.769-2.139 7.936-7.925 7.959-3.634.014-7.271.087-10.904.01-4.492-.095-6.997-2.549-7-7.04C-.013 75.418 0 41.331.041 7.245.049 2.692 2.523.283 7.017.276 22.413.249 37.807.135 53.2.301 72.642.51 89.68 17.828 89.984 37.424c.183 11.97-.182 13.33-7.59 27.94"></path></svg>