<svg xmlns="http://www.w3.org/2000/svg" viewBox="72.41200256347656 369.008056640625 450.45098876953125 103.87405395507812"><g fill="#00385f" fill-rule="evenodd"><path d="M474.263 370.107c27.839 0 48.6 22.075 48.6 45.525 0 14.167-7.579 25.392-19.715 32.06l-10.756-16.315a37.52 37.52 0 005.957-20.335c0-20.955-17.139-37.942-38.282-37.942-2.041 0-4.045.16-6 .465 6.184-2.226 13.014-3.458 20.196-3.458z"></path><path d="M453.203 424.644c3.69 17.135 19.048 29.986 37.437 29.986a38.335 38.335 0 0028.78-12.926c-8.144 16.393-25.167 27.796-44.373 27.796-8.873 0-18.17-2.308-25.65-7.578-12.643-8.91-18.663-23.844-11.492-40.554z"></path><path d="M460.505 377.386c11.662 0 21.994 6.894 28.38 17.504l-5.513 5.266a38.425 38.425 0 00-15.611-3.289c-21.143 0-38.282 16.987-38.282 37.942 0 2.14.181 4.237.525 6.28-2.937-6.224-4.616-13.432-4.616-21.117 0-23.52 15.723-42.586 35.117-42.586zm-56.24 91.924H379.91v-51.82c0-13.925 1.31-29.103-15.984-29.103-16.016 0-18.632 16.014-18.632 29.494v51.43h-24.42v-55.076c0-19.174-8.284-26.146-16.81-25.802-9.04.365-18.354 9.165-18.354 27.986v52.893h-24.125v-97.769h22.435v15.48h.39c9.881-16.574 31.984-24.12 48.285-12.188 5.06 3.703 8.506 8.603 10.331 14.665 7.268-13.492 15.392-20.238 29.796-20.238 21.51 0 31.442 13.265 31.442 39.792zm-170.255 0h-22.755v-15.48h-.39c-17.147 32.372-65.996 22.887-65.996-23.855v-58.433h25.633v56.152c0 38.163 39.794 30.128 39.794-2.598v-53.554h23.714zm-104.859-73.713c-2.672-2.085-6.55-3.128-11.57-3.128-17.116 0-20.449 18.801-20.449 33.013v43.829h-24.72v-97.769h22.162v20.14h.39c2.152-6.876 5.476-12.22 9.973-16.099 4.497-3.845 9.484-5.768 15.024-5.768 4.008 0 7.072.62 9.19 1.825z"></path></g></svg>