<svg xmlns="http://www.w3.org/2000/svg" viewBox="-0.011020660400390625 0.6738572120666504 1666.352783203125 905.317626953125"><g fill="none"><path fill="#055D51" d="M1185.71 862.91c-71 19.52-140.12 29.95-209.75 36.37-116.34 10.72-232.6 8.89-348.35-7.6-161.78-23.05-316.1-67.77-452.7-161.39-56.4-38.65-105.61-85-138.65-145.68-54.85-100.7-46.52-198.77 18.41-291.77 59.11-84.7 142.76-139.21 234.51-182.11 125.52-58.68 258.48-89.38 396-102.56 170.45-16.33 339.1-6.72 505.11 36.14 132.74 34.29 257.74 85.72 361.12 179.32 56.67 51.3 99.4 111.9 111.58 189.41 14.41 91.66-18.77 168.3-77.84 236.09-3.77 4.32-8 5.9-13.75 5-17.25-2.86-34.56-5.35-52-8 1.48-9 7.52-13.47 11.6-19.11 75-103.8 71.64-222.13-9.37-321.68-64.7-79.5-149.92-129.45-243-167.5-124.7-50.91-255.18-74.4-389.31-80-171.46-7.19-338.62 14.13-499 77.21-94.76 37.26-181.43 87.55-247.61 167.48C50.1 414.39 56.56 549.77 158.4 654.06c80.3 82.23 179.78 131.4 286.81 166.91 170.57 56.6 346.2 74.09 525.07 64.19a1402.67 1402.67 0 00195.26-24.19c5.62-1.13 11.49-2.75 20.17 1.94z"></path><path fill="#055D51" d="M1066.82 454.84c0 48.54-.27 92 .19 135.52.11 11.12-1.28 16.74-14.83 14.85a267.65 267.65 0 00-48.61-2c-12.76.57-14.67-4.41-14.56-15.7.55-56.6.26-113.2.25-169.8 0-26.56-3.88-51.86-27-74.73 36.42 0 69.28-.19 102.13.13 8.23.07 11.51 7.89 16 13.18a40886.74 40886.74 0 01114.15 135.93c5.63 6.7 11.42 13.27 20.62 23.93 0-54.67.63-103.82-.37-152.94-.31-15.63 3-22.75 19.92-20.59 18.47 2.37 42.51-8 54.28 4.25 10.75 11.18 3 34.73 3 52.8.33 67-.39 134 .51 201 .22 16-4.57 20-19.75 18a585.41 585.41 0 00-62.21-4.45c-10.27-.21-14.83-6.39-20.19-12.81a126386.417 126386.417 0 00-108.78-130.17c-3.64-4.35-7.54-8.4-14.75-16.4z"></path><path fill="#096054" d="M338.33 342.84c72.6 0 144.55-.33 216.49.21a100.07 100.07 0 0156.74 18.22c26.3 18.28 42.13 42.8 37.81 76-4.54 34.86-25.67 58-58 69.23-13.81 4.82-14.28 8-6.23 18.81 18.09 24.34 35.02 49.53 53.89 76.53-27.85 1.42-53.39 2.62-78.91 4.13-5.31.32-8.45-2-11.19-6-30.44-44.27-60.9-88.48-93.7-136.13 26.82 0 49.92.16 73 0 29.65-.25 46.25-11 46.93-30.13.72-19.87-16.65-31.67-47.23-31.87-22.76-.18-45.54.62-68.26-.29-12.28-.49-15.37 3.83-15.27 15.58.52 58.52-.37 117.06.64 175.56.27 15.52-4.75 20.39-19.4 20.48a350.17 350.17 0 00-48.53 3.62c-12.66 1.86-15.28-2.53-15.18-14.33.51-60.47.24-121 .24-181.42 0-40.73-2.04-47.52-23.84-78.2z"></path><path fill="#055D51" d="M976.44 600.9c-26.74 0-51.43-.78-76 .3-14.12.61-16.19-10.1-18.87-18.29-6.46-19.81-18.42-25.65-39-24.3-31.11 2-62.47 1-93.7.25-10.85-.28-17.63 2.82-20.25 13.24-6.37 25.22-23.34 32.7-47.61 30.22-12.22-1.25-24.67-.22-39.84-.22 10.06-21 19.52-41 29.24-61 21.06-43.18 42.36-86.25 63.31-129.48 3.95-8.15 6.91-16.81 10-25.34 6-16.45 6.84-31.68-16.82-43.51 41.76 0 77.83.12 113.9-.1 6.73 0 10.69 2.4 13.64 8.47 40.34 82.83 80.83 165.55 122 249.76zm-218-90h76.81c5.5 0 11.18.29 7-8.33-12.84-26.15-25.45-52.41-39.74-81.9l-44.07 90.23z"></path><path fill="#096054" d="M1318.53 342.76c35.51 0 67.09.23 98.65-.142 9.35-.108 10.4 4.692 10.39 12.192-.13 89.1-.32 178.2.19 267.3.07 12.24-5.33 12-14.11 10.75-15.44-2.19-31-5.67-46.42-5.18-19.45.62-21.27-8.83-21.07-24.74.76-59.17.57-118.36.19-177.55-.18-29.16-.44-58.64-27.82-82.63z"></path><path fill="#055D51" d="M202.81 342.84c33.62 0 64 .27 94.47-.15 9.62-.13 12 3.76 11.94 12.73-.26 85.08-.26 170.163 0 255.25 0 7.77-1.56 11.65-10.34 12.31-19.4 1.47-38.8 3.44-58 6.47-12.35 1.95-13.48-3.45-13.43-13.6.35-66.9.2-133.79.17-200.69-.04-32.74-4.02-44.73-24.81-72.32z"></path></g></svg>