<svg xmlns="http://www.w3.org/2000/svg" viewBox="35.39543914794922 49.28644561767578 1554.0821533203125 386.027587890625"><defs><clipPath id="fn2cacfcddadma" clipPathUnits="userSpaceOnUse"><path d="M0 354h1220V0H0z"></path></clipPath></defs><g clip-path="url(#fn2cacfcddadma)" transform="matrix(1.33333 0 0 -1.33333 0 472)"><path fill="#1f191a" d="M43.853 299.042c-.028-84.375 0-168.75-.028-253.125 359.695-.087 719.389-.058 1079.083-.029-.027 84.404 0 168.779 0 253.183-359.694-.029-719.388 0-1079.055-.029m-17.286 17.822c371.283-.029 742.566-.029 1113.849 0-.027-96.42-.083-192.841.028-289.26-158.573-.174-317.147-.03-475.72-.087-212.738 0-425.447.029-638.157 0-.027 96.449-.027 192.898 0 289.347m1143.53-5.026c-9.7-3.293-11.116-18.544-3.307-24.668 4.224-3.149 10.505-3.64 14.785-.318 5.919 4.361 7.114 13.778 3.223 19.96-3.001 4.997-9.448 6.932-14.701 5.026m-2.028 4.073c6.28 2.34 13.84 1.011 18.73-3.813 7.587-7.308 7.004-21.838-1.473-28.164-7.865-6.268-20.76-4.304-25.957 4.68-5.807 9.36-1.861 23.86 8.7 27.297"></path><path fill="#1f191a" d="M931.486 243.9c.027-48.038.027-96.075.027-144.11 12.035.027 24.068.027 36.101.027.056 31.023-.028 62.075.027 93.127 16.564-31.023 33.183-62.046 49.691-93.098 17.896 0 35.821-.116 53.747.058-.112 47.98-.084 95.987-.029 143.966-12.005.03-24.01.087-36.043-.029.083-30.85.055-61.67.027-92.52-17.064 30.878-34.405 61.583-51.44 92.491-17.37.202-34.739.03-52.108.087m-330.32 0c-.028-48.037 0-96.045-.028-144.082 15.981-.028 31.96 0 47.911 0 15.953-.317 32.015 1.733 47.245 6.702 13.172 4.246 24.706 13.778 31.487 26.257 9.087 16.754 9.143 36.944 7.142 55.547-2.113 20.51-15.507 39.17-33.849 47.026-17.564 6.557-36.378 8.81-54.97 8.55zm-174.858.635c.028-48.239 0-96.478 0-144.717 12.227-.028 24.428 0 36.656 0 0 31.226-.028 62.48.027 93.705 16.174-31.283 32.6-62.45 48.856-93.705 18.036.058 36.073-.145 54.11.116-.14 48.21-.029 96.42-.085 144.63a7192.724 7192.724 0 00-35.377 0v-93.069c-17.286 31.051-34.655 62.046-51.969 93.04-17.425 0-34.82.03-52.218 0m-118.555 0c-18.564-48.239-37.129-96.478-55.665-144.717h40.408c2.556 7.511 5.197 14.992 7.81 22.502 18.396-.028 36.794 0 55.191-.028 2.334-7.51 4.724-14.993 7.087-22.474 13.784-.028 27.596.03 41.38-.028-18.759 48.267-37.656 96.448-56.359 144.745-13.285 0-26.568.03-39.852 0m-211.57.03V99.788c11.922.057 23.844 0 35.766.028 0 22.82.028 45.67 0 68.488 18.203-22.848 36.461-45.61 54.664-68.459 14.896-.057 29.792-.029 44.687 0-13.255 17.533-26.4 35.125-39.657 52.658 7.004 2.832 13.757 6.731 18.843 12.566 9.865 10.14 14.562 25.304 12.478 39.516-2.279 20.22-18.565 38.966-38.713 39.891-29.347.173-58.694 0-88.069.086m728.644 2.34c-12.617-.49-25.457-3.813-35.767-11.612-10.727-7.395-18.843-18.4-23.483-30.82-3.779-10.342-4.836-21.55-4.669-32.555-.167-11.063.973-22.27 4.78-32.64 5.363-13.577 14.784-25.622 27.18-32.815 9.365-6.297 20.647-8.58 31.625-9.157 8.171-.606 16.396-.115 24.483 1.185 16.397 2.744 31.404 12.796 40.797 26.978 7.726 10.977 11.395 24.612 11.922 38.101.39 12.941.445 26.257-3.779 38.62-5.058 16.031-16.564 29.55-30.875 37.35-12.95 6.961-27.903 8.03-42.214 7.365M61.361 280.728c348.078-.029 696.128 0 1044.205 0 .028-72.358-.055-144.688.028-217.047-348.078-.115-696.155 0-1044.233-.057 0 72.387.027 144.746 0 217.104"></path><path fill="#1f191a" d="M824.992 218.018c7.893 1.27 16.953.722 23.04-5.344 9.086-7.77 10.893-20.595 12.227-32.005.39-8.723.555-17.534-1.306-26.084-1.224-10.803-6.67-21.808-16.314-26.835-5.39-2.108-11.394-2.773-17.063-1.56-9.588 1.388-16.508 10.14-19.62 19.123-4.14 13.114-4.502 27.239-2.89 40.844 1.39 8.955 3.613 18.545 10.171 25.044 3.224 3.293 7.197 6.066 11.755 6.817m-187.92-3.062c13.84-.607 28.568 2.137 41.52-4.42 7.281-3.177 13.088-9.59 16.006-17.158 5.086-13.634 5.253-29.203.056-42.837-3.196-8.839-10.477-15.8-19.036-18.805-12.34-4.766-25.679-2.369-38.546-2.975.027 28.741.027 57.454 0 86.195m-505.122-1.358c13.895-.086 27.817.145 41.713-.115 10.644-.49 18.536-12.94 15.396-23.369-1.862-7.135-7.92-13.46-15.34-13.547-13.924-.289-27.847-.058-41.77-.116 0 12.363.028 24.755 0 37.147m178.083-62.913c5.947 17.88 11.533 35.905 17.48 53.785 6.086-17.938 12.117-35.905 18.23-53.843-11.921.03-23.788-.087-35.71.058"></path><path fill="#1e191a" d="M1170.636 300.152h2.925c1.895 0 3.079.08 3.552.24.47.16.84.434 1.107.824.268.39.4.878.4 1.463 0 .656-.174 1.186-.526 1.59-.353.403-.85.658-1.49.764-.32.045-1.281.067-2.883.067h-3.085zm-3.952-11.252v19.5h8.318c2.092 0 3.613-.177 4.56-.527.948-.35 1.707-.973 2.277-1.868.569-.896.855-1.92.855-3.073 0-1.463-.432-2.67-1.295-3.624-.865-.954-2.155-1.554-3.873-1.802.854-.497 1.56-1.042 2.117-1.637.556-.593 1.306-1.649 2.249-3.165l2.39-3.804h-4.726l-2.858 4.243c-1.014 1.516-1.708 2.471-2.083 2.866-.374.394-.77.665-1.188.811-.42.147-1.082.22-1.99.22h-.801v-8.14z"></path></g></svg>