<svg xmlns="http://www.w3.org/2000/svg" viewBox="0.5522212982177734 0.05481719970703125 1208.3377685546875 519.9052734375"><g fill="none"><path fill="#98C941" d="M215.16 519.96C152.54 476.4 90.3 432.25 27.05 389.63 8.14 376.89-.08 362.69.59 339.46c1.58-54.72 1-109.52.2-164.27-.29-18.34 5.11-30.84 20.87-41.32C82.07 93.64 141.69 52.32 201.69 11.44c14.29-9.74 30-19.45 43.25-.77s-.67 30.28-15.14 40.14c-51.54 35.13-102.61 71-154.9 104.94-19 12.35-24 27-27.87 49.12-17.89 103.27 16.82 176.09 114.25 218.09 14.63 6.3 27.18 17.42 47 30.44 0-48.84.75-91.41-.32-133.94-.52-20.94 5.14-36.46 23.23-48.53 59.28-39.57 117.61-80.57 177-120 29.46-19.53 44.8-11 45.24 24.89.78 62.39.24 124.81.14 187.21 0 17.18-.45 35.65-24.34 34.79-23.39-.84-23-19.31-23-36.41V210.33c-51.1 35.23-97.77 66.24-142.89 99.36-10.47 7.68-4.86 24.06-5.57 36.58-3.26 57.94 8.5 116.92-12 173.66l-30.61.03z"></path><path fill="#078A96" d="M1208.89 389.96c-62.41 3.95-62.41 3.95-62.41-58.71V144.92c0-60.37 1.91-62 62.4-53.08l.01 298.12zm-191.63-115c0-50.83 1.13-101.69-.45-152.47-.86-27.62 11.64-34.05 36.43-35.48 27.86-1.61 26.92 13.79 26.78 33.14-.53 75 .51 150-.81 225-.27 15.38 11.67 40.25-11.67 45-26.36 5.34-55.81 7.17-72.94-25-24.45-45.92-51-90.7-76.76-135.93-5-8.81-10.36-17.44-22.6-26.11V355.4c0 16.69 1.8 33.92-22.64 36.22-25.77 2.43-42.26 1.21-40.85-34 3-74.87.3-150 1.45-224.93.23-14.66-11.24-38 10.3-42.93 25.27-5.77 54.9-7.68 71.69 20.66 24.57 41.49 47.68 83.83 71.46 125.78 7.89 13.92 15.93 27.75 23.91 41.61l6.7-2.85zm-218.71 114c-73 6.2-72 5.65-103.86-51-13.72-24.38-17-61.5-60.61-56.75-15.71 1.72-23 4.82-21.89 21.72 1.14 17.71-.84 35.63.5 53.31 1.77 23.28-.66 37.31-31.07 36.56-27.14-.67-34-8.76-33.49-34.9 1.62-76.18 1.9-152.45-.12-228.62-.75-28.37 9.24-36.83 36-39.81 43.16-4.79 85.9-9.93 128.45 1.83 77.49 21.41 101.62 112.56 42.87 167.49-14.72 13.77-15 21.07-6 36.61 17.1 29.26 31.78 59.96 49.22 93.56zm-150.27-160.1c56.92.14 73-10.77 72.28-45.06-.7-31.85-22.66-44.13-68.81-47.16-36.67-2.41-41.27 14.38-39.74 44.69 1.46 28.99-4.78 60.27 36.27 47.53z"></path></g></svg>