<svg xmlns="http://www.w3.org/2000/svg" viewBox="0 0 305 75.9000015258789"><path fill="#f89406" d="M0 14.4L2.5 0h65c6.9 0 12.6.7 17 2.2 3.3 1.1 5.9 3 7.8 5.9 1.9 2.8 2.8 6.1 2.8 9.8 0 1.2-.1 2.4-.4 3.8-.9 5.4-3.5 10-7.5 13.6-2.4 2-5.6 3.9-9.8 5.7l4.2 19h17.1l10.5-60h54.6L161 15.9h-33.8l-2.4 13.6h21.5l-2.8 15.9H122L119.5 60h35.4l-2.8 15.9H61.7l-5-31.4h-8.9l2.5-14.2H62c3 0 5.4-.7 7.3-2.1 1.9-1.4 3.1-3.4 3.5-5.9 0-2.8-.7-4.8-2-6-1.3-1.2-3.4-1.9-6.1-1.9H0zM290.5 64h5.4l-1.1-9.4-4.3 9.4zm-11.6 11.4l13.6-27.8h8.7l3.8 27.8h-7.9l-.6-5.5h-8.8l-2.5 5.5h-6.3zm-10.1 0l4.9-27.8h7.6l-4.9 27.8h-7.6zm-14.5-9.2l.8-4.5h11.3L264 75.3h-2.3l-1.4-3c-1.3 1.3-2.7 2.2-4 2.7-1.3.6-2.8.8-4.4.8-1.8 0-3.5-.4-5.1-1.2-1.5-.8-2.8-2-3.7-3.6-.9-1.6-1.4-3.6-1.4-5.9 0-1 .1-2.2.3-3.5.5-3.1 1.6-5.7 3-7.9 1.5-2.2 3.3-3.8 5.4-5 2.1-1.1 4.4-1.7 6.9-1.7 2.4 0 4.3.5 5.8 1.4 1.5 1 2.5 2.1 3.1 3.5.6 1.4.9 2.8.9 4.2l-7.3 1.1c0-3.2-1.1-4.8-3.4-4.8-3.2 0-5.4 2.9-6.4 8.8-.3 1.5-.4 2.9-.4 4.2 0 1.6.3 2.8.9 3.5.6.7 1.5 1.1 2.7 1.1 1.7 0 2.9-.4 3.6-1.3.7-.8 1.2-1.8 1.5-2.9h-4zm-29-13.3l-1 5.8h4.5c1.1 0 2-.3 2.7-.8.7-.5 1.1-1.2 1.3-2.2 0-1-.2-1.8-.7-2.2-.5-.5-1.2-.7-2.2-.7h-4.6zm-11.6 22.5l4.9-27.8h12.2c2.5 0 4.6.3 6.2.8 1.2.4 2.1 1.1 2.8 2.1.7 1 1 2.2 1 3.6 0 .4 0 .9-.1 1.4-.3 2-1.3 3.7-2.8 5-.9.8-2.1 1.4-3.6 2.1l2.8 12.9h-8.6L226.7 64h-3.5l-2 11.5h-7.5zm-23.9 0l4.9-27.8h20l-1 5.8h-12.4l-.9 5h7.9l-1 5.8h-7.9l-1 5.4h13l-1 5.8h-20.6zm-28.1 0l4.9-27.8h7l7.4 14.2 2.5-14.2h6l-4.9 27.8h-6l-8.1-15.8-2.8 15.8h-6z"></path></svg>