<svg xmlns="http://www.w3.org/2000/svg" viewBox="55.999855041503906 74.99999237060547 489.0000915527344 103.00000762939453"><g fill="none"><path fill="#C8D433" d="M107.02 80.679c-6.643 1.226-13.112 2.803-19.232 5.869-2.885 1.402-5.595 3.154-7.868 5.519-5.507 5.606-6.556 13.315-2.622 20.235 2.535 4.38 6.119 7.884 9.79 11.3 5.508 5.168 11.453 9.898 16.786 15.154 4.021 3.942 7.868 7.972 10.84 12.877 5.333 8.76 4.72 17.344-1.574 24.965-.262.35-.437.789-.874 1.402-1.136-2.54-1.923-4.643-2.885-6.657-3.934-8.147-10.228-14.366-16.785-20.235-6.644-5.782-13.55-11.3-20.194-17.17-5.245-4.555-9.966-9.548-13.288-15.68-5.945-11.037-3.235-23.3 6.906-30.659 7.518-5.43 16.086-7.708 24.915-9.285 13.725-2.365 27.713-1.927 41.525-2.278 3.847-.087 7.693 0 11.54.088-9.354 1.84-18.533 3.942-27.363 7.533-4.284 1.752-8.48 3.767-11.977 6.833-6.032 5.168-6.556 11.125-1.573 17.257 3.672 4.555 8.392 7.883 12.763 11.563 3.847 3.328 7.606 6.657 10.666 10.774 6.644 8.935 3.671 21.111-.874 26.893-2.536-11.739-10.666-19.447-19.583-26.63-4.895-4.03-10.14-7.621-14.949-11.826-4.284-3.767-8.305-7.796-9.791-13.665-1.137-4.73-.175-8.847 3.147-12.439 3.76-4.03 8.48-6.307 13.463-8.234 2.885-1.139 5.945-2.015 9.004-2.716 2.448-.525 4.896-.963 7.344-1.489-2.36-.35-4.808.088-7.256.701"></path><path fill="#00984B" d="M261.966 114.153c-.262-8.72-5.85-15.237-14.321-16.91-9.257-1.85-18.689-1.674-27.77.792-6.288 1.762-11.004 5.813-13.798 11.714-4.629 9.953-6.9 20.698-7.074 31.62-.175 11.274 7.336 18.76 18.426 19.553 2.707.176 5.502 0 8.209 0v-.088c2.707 0 5.502.176 8.209 0 8.907-.793 16.592-4.14 20.696-12.507 5.415-10.657 7.773-22.284 7.423-34.174zm-17.116 9.16c-.699 4.932-1.485 9.777-3.056 14.533-3.668 10.921-10.043 11.273-19.998 9.248-4.367-.881-5.939-5.285-5.677-9.424.35-7.223 1.572-14.357 4.541-21.05 2.358-5.285 6.55-7.751 11.528-6.783 10.217-.088 13.885 4.052 12.662 13.476zm102.356 37.512c-6.282 0-12.564.175-18.67-1.49-8.405-2.28-12.298-7.891-11.413-16.483 1.15-11.484 9.025-19.725 21.5-22.618 5.22-1.228 10.44-1.315 15.75-1.403 1.415 0 3.539 1.052 4.158-1.578.708-3.156-.089-5.786-2.389-7.014-1.416-.789-3.008-.789-4.6-.789-6.017 0-11.945-.087-17.962 0-2.477 0-3.54-.701-2.743-3.331.62-2.28.973-4.647 1.504-6.926.354-1.753 1.328-3.068 3.186-2.98 8.936.087 17.96-.877 26.809.7 10.263 1.842 14.952 8.592 13.36 18.85-1.062 6.662-2.655 13.325-4.07 19.988-1.327 6.137-2.655 12.362-4.07 18.498-1.062 4.822-3.274 6.663-8.317 6.751-4.07-.088-8.052-.175-12.033-.175m-1.327-13.414c1.504 0 3.008-.087 4.423 0 1.062.088 1.682-.175 1.858-1.315l3.186-14.991c.177-.965 0-1.49-1.15-1.403-4.336 0-8.76-.263-12.918 1.227-4.336 1.578-6.813 4.56-7.344 9.118-.354 3.507 1.15 5.61 4.512 6.663 2.39.701 4.955.701 7.433.701m170.54 13.567c-6.37 0-12.738.175-18.93-1.575-8.757-2.45-12.738-8.84-11.145-17.767 2.122-11.99 10.88-19.78 24.413-21.968 4.689-.7 9.288-.788 13.977-.613 2.122.088 2.742-.788 3.007-2.626.53-4.2-1.592-6.739-6.103-6.826-6.192-.088-12.384 0-18.488-.088-3.626 0-3.98-.437-3.184-4.026.442-2.188.973-4.376 1.504-6.651.353-1.663 1.503-2.626 3.184-2.626 8.846.087 17.78-.875 26.537.7 10.88 1.926 15.48 9.015 13.268 20.393-2.477 12.69-5.307 25.206-8.138 37.81-.884 3.85-3.273 5.6-7.607 5.776-4.157.175-8.226.087-12.295.087m-1.327-13.39h4.157c1.15.087 1.77-.176 2.035-1.489.884-4.813 1.946-9.627 3.007-14.353.266-1.138.266-1.838-1.238-1.838-3.538.087-7.165-.175-10.703.613-4.954 1.225-8.404 3.85-9.288 9.102-.62 3.588.884 6.214 4.334 7.264 2.565.788 5.13.7 7.696.7m-63.279 1.992h23.3c4.413 0 4.766.439 3.795 4.561-2.471 10.264-.618 8.772-11.209 8.772-11.826.088-23.653 0-35.391.088-2.03 0-2.56-.175-2.207-2.544.971-7.544 4.59-13.333 9.885-18.684 9.62-9.65 18.8-19.825 28.066-29.65-.618-1.052-1.588-.7-2.294-.7H444.31c-3.09 0-3.442-.44-2.824-3.51.353-1.754.706-3.508 1.147-5.175.97-4.298 1.412-4.65 5.737-4.65 13.327 0 26.565.088 39.892-.087 2.736 0 2.913.79 2.648 3.246-.53 5.701-2.912 10.087-6.972 14.21-10.15 10.351-19.858 20.965-29.743 31.491-.618.614-1.236 1.404-2.383 2.632M179 159.944c-4.856-.26-10.772.519-16.776-.433-8.476-1.297-13.067-6.746-12.096-15.05 1.148-10.552 4.15-20.759 6.27-31.138 2.383-11.504 5.12-23.008 7.504-34.512.618-2.855 1.942-3.893 4.856-3.806 3.267.173 6.534.086 9.8 0 2.473-.087 3.09 1.038 2.561 3.287-4.238 19.461-8.388 39.01-12.626 58.47-1.412 6.488.883 9.342 7.77 9.515 4.503.087 8.918 0 13.42 0 1.148 0 2.031.087 2.561 1.384 1.236 3.287 3.09 6.315 5.033 9.255 1.324 2.076.883 2.941-1.766 3.028-5.033.086-10.242 0-16.51 0m128.745-61.94h11.768c2.18 0 2.79.967 2.354 2.988-.61 2.46-1.133 5.01-1.656 7.558-.436 2.109-1.482 2.988-3.662 2.988-5.317-.088-10.635.088-15.866-.088-5.317-.176-8.892 2.197-10.984 6.855-2.964 6.678-4.271 13.797-4.533 21.003-.261 6.59 3.749 10.194 10.287 10.194 4.184 0 8.456.088 12.64 0 2.616-.088 3.313.967 2.703 3.427-2.964 12.215-.087 9.755-11.769 10.018-3.923.088-7.846.088-11.769-.175-12.466-.791-20.137-9.316-19.178-21.794.697-8.788 2.44-17.4 5.492-25.75 3.748-10.369 11.42-15.642 22.142-16.696 3.923-.616 7.933-.528 12.03-.528M400.81 76c7.961 0 7.961 0 6.335 7.868l-15.665 74.705c-.342 1.729-.856 2.507-2.739 2.42-2.996-.172-5.992 0-8.988-.086-4.194-.086-5.392-1.556-4.45-5.966 1.882-8.992 3.851-18.07 5.82-27.063 3.424-15.736 6.762-31.473 10.186-47.209.942-4.496 1.027-4.583 5.393-4.583 1.455-.086 2.74-.086 4.109-.086m24.136 22.088h5.632c2.111 0 2.727.965 2.287 3.072-4.135 19.05-8.183 38.187-12.318 57.236-.704 3.336-2.2 4.565-5.544 4.565-3.431.088-6.95 0-10.382 0-1.496 0-1.848-.351-1.496-1.844 4.311-20.015 8.535-40.117 12.758-60.22.44-2.02 1.496-2.897 3.52-2.897 1.76.088 3.607.088 5.543.088m1.229-4.178c-10.357 0-8.571.635-6.875-8.546.447-2.182.982-4.364 1.429-6.546.357-1.909 1.428-2.818 3.303-2.818h11.696c1.874 0 2.589.91 2.142 2.727l-2.678 12.818C434.836 93.273 433.497 94 431.8 94c-1.875-.09-3.75-.09-5.624-.09"></path></g></svg>