<svg xmlns="http://www.w3.org/2000/svg" viewBox="95 64.16144561767578 410.947021484375 127.67423248291016"><g fill="none" fill-rule="evenodd"><path fill="#A2BF5B" d="M192.234 67.603l-11.077 32.915c-59.293-.27-55.654 77.714-7.492 81.21 3.478.269 5.19-.215.535.161-17.499-.107-30.503-6.023-39.814-14.736-14.395-13.553-21.191-35.227-18.409-54.75 2.462-17.156 12.255-32.484 28.898-41.68 13.164-7.207 29.218-8.82 47.36-3.12z"></path><path fill="#0092CE" d="M103.67 84.921l17.391 10.81a56.18 56.18 0 00-5.03 16.672c-2.783 19.47 4.013 41.197 18.408 54.75 9.258 8.659 22.209 14.575 39.547 14.736 3.157 0 5.565-.484 8.723-1.13 1.498-.322 3.21-.645 5.083-1.021-8.348 3.496-16.428 4.84-24.027 4.733-19.96-.216-39.172-10.38-51.48-25.977-8.134-10.272-13.379-22.75-14.663-35.98-1.284-12.638 1.017-25.223 6.047-37.593z"></path><path fill="#0076AF" d="M106.077 149.19L95 155.75c15.037 27.483 57.26 49.372 98.893 26.568l-2.087-4.195-6.743 2.152c.856-.162 1.82-.377 2.783-.592-8.348 3.496-16.429 4.84-24.028 4.733-19.96-.215-39.172-10.38-51.48-25.977-2.354-2.85-4.441-5.97-6.26-9.25z"></path><g fill="#0076AF"><path fill-rule="nonzero" d="M257.56 163.465l6.213 11.801c-5.895 7.081-15.933 10.139-24.324 10.353-11.471.268-21.402-5.042-27.67-15.18-2.867-4.72-4.407-10.031-4.46-16.04 0-5.9 1.434-11.318 4.301-16.253 2.868-4.935 6.798-8.743 11.737-11.586 4.94-2.843 10.303-4.238 16.092-4.238 6.16 0 13.384 1.126 22.996 9.387l-7.382 11.855c-6.48-5.954-13.065-7.832-19.278-6.115-5.842 1.555-11.843 6.544-11.95 15.931-.106 7.081 2.709 13.09 9.029 16.522 7.754 4.13 18.163.215 24.695-6.437zm78.865 13.089l7.435-12.123c6.851 6.168 11.843 6.866 14.87 6.866 2.71 0 8.232-.59 7.436-4.774-.319-1.77-2.337-2.897-3.877-3.755-7.276-3.97-13.33-4.667-19.438-10.782-2.655-2.629-4.46-6.652-4.46-10.514 0-5.74 1.858-10.192 6.372-13.732 4.514-3.54 9.56-5.472 16.942-5.472 6.957 0 14.71 2.629 19.862 7.51l-6.16 12.82c-4.62-4.935-12.215-6.33-15.827-5.632-2.496.483-4.62 1.395-4.673 4.13-.053 3.273 7.647 5.847 9.984 6.813 4.674 1.931 9.082 3.594 13.383 8.046 2.709 2.79 3.877 6.384 3.877 10.729 0 5.847-1.38 10.03-5.842 13.464-4.514 3.433-8.656 5.31-16.304 5.31-6.054 0-11.259-1.126-15.507-3.38-4.355-2.145-5.63-3.003-8.073-5.524zm101.437 7.724H423.47v-6.437c-1.54 2.307-3.506 3.97-5.63 5.15-6.32 3.54-15.189 3.808-21.456.214-3.93-2.253-6.532-5.686-7.913-9.44-4.567-12.124 2.071-21.618 13.437-25.534 6.532-2.253 14.286-3.058 20.393-2.307-.053-9.602-7.435-9.548-11.684-9.119-6.373.59-11.418 3.809-13.914 5.525l-6.16-11.747c6.638-5.472 14.657-7.993 23.314-7.993 8.763 0 14.605 1.931 20.128 8.744a15.832 15.832 0 013.187 6.33c.584 2.36.743 4.344.743 8.743v37.871h-.053zm-15.455-26.767c-2.92.429-6 .16-8.975.644-4.036.643-9.56 2.574-10.303 6.544-.16 1.02-.16 2.306.425 3.54 1.434 3.004 4.196 4.399 7.063 4.345 7.17 0 11.897-8.85 11.79-15.073zm83.54 26.874H489.96v-31.058c0-1.556.053-3.058.053-4.452 0-4.56-.106-8.583-3.77-10.246-1.328-.59-3.612-.858-5.417-.697-9.879.912-13.968 9.655-13.968 18.882v27.571h-15.985v-60.883h14.817v8.958c5.257-6.866 11.95-10.353 19.915-10.353 3.506 0 6.745.644 9.666 1.931 2.921 1.288 5.152 2.897 6.639 4.935a17.902 17.902 0 013.133 6.76c.584 2.52.903 6.114.903 10.835v37.817z"></path><path d="M300.152 122.536c17.632 0 31.971 14.162 31.971 31.65 0 17.486-14.286 31.648-31.971 31.648-17.632 0-31.971-14.162-31.971-31.649 0-17.487 14.34-31.649 31.971-31.649zm0 14.43c8.87 0 16.092 7.724 16.092 17.22 0 9.494-7.223 17.218-16.092 17.218-8.87 0-16.092-7.724-16.092-17.219 0-9.548 7.17-17.219 16.092-17.219z"></path></g></g></svg>