<svg xmlns="http://www.w3.org/2000/svg" viewBox="0.07278032600879669 0 394.9272155761719 197.5994110107422"><defs><linearGradient id="fn3af866668dma" x1="21.629%" x2="77.534%" y1="8.596%" y2="91.662%"><stop offset="0%" stop-color="#4CA5CA"></stop><stop offset="100%" stop-color="#D6DA6B"></stop></linearGradient></defs><g fill="none"><path fill="url(#fn3af866668dma)" d="M71.5 0C110.988 0 143 32.012 143 71.5S110.988 143 71.5 143 0 110.988 0 71.5 32.012 0 71.5 0zm5 6C44.191 6 18 32.191 18 64.5S44.191 123 76.5 123 135 96.809 135 64.5 108.809 6 76.5 6z" transform="translate(252)"></path><path fill="#275C6E" d="M3 96.3L.5 97.55l-.3 19c-.35 23.8-.35 23.65 5.1 23.25l4.2-.3.3-7.75c.4-10.4 1.95-10.35 10.15.25 6.6 8.55 9.9 10.05 14.55 6.6 2.15-1.55 2.45-1-5.4-10.35-2.4-2.95-4.2-5.45-4-5.6.2-.15 1.85-.9 3.6-1.6 9.5-3.75 9.2-19.7-.45-23.7-4.8-2.05-21.9-2.7-25.25-1.05zm20.25 8.85c2.3 1.2 2.4 8.05.15 9.9-.85.75-4.25 1.55-7.5 1.75l-5.9.45v-13.9l5.75.45c3.15.25 6.55.85 7.5 1.35zM45 95.75c-2.75 1.05-2.95 2.65-3 22.4 0 23.95-1.65 22 18.05 21.65 16.65-.35 17.9-.8 16.6-6.15l-.7-2.65H52v-9.8l8.25.55c9.3.55 11.15-.4 10.55-5.45l-.3-2.8-9.25-.3-9.25-.3v-8.55l10.75.4c11.35.4 12.55.05 13.65-3.45 1.55-5-1.95-6.3-16.65-6.2-7.3 0-13.9.3-14.75.65zM84 96c-1.25.75-1.55 4.3-1.7 20.05-.25 22.5.15 24.2 5.45 23.75l3.75-.3.5-14.45.5-14.45 10.4 14.7c9.65 13.65 10.6 14.7 13.55 14.7 5.4 0 5.55-.6 5.55-22.5 0-21.55-.2-22.5-5.1-22.5-4.7 0-5.2 1.8-4.7 16 .55 14.5.4 14.75-3.4 8.7C95.85 99.25 89.1 92.75 84 96zm56 1.55c-11.3 6.4-15.1 18.95-9.25 30.5 10.8 21.4 42.85 13.8 42.7-10.05-.1-17.7-18.45-28.9-33.45-20.45zm17.8 9.5c6.5 3.95 7.75 12.75 2.65 18.85-10.4 12.35-29.65-2.8-19.85-15.65 4.3-5.6 11.2-6.9 17.2-3.2zm19.7-10.85c-1.1.6-2.15 1.2-2.35 1.4-.3.25 12.35 32.05 15.6 39.15 1.5 3.3 6.65 4.6 9.9 2.5 1-.65 17.35-39.55 17.35-41.3 0-.4-1.35-1.25-3.05-1.95-5.95-2.5-7.25-.8-12.55 15.7-2.6 8.15-5.05 15.15-5.4 15.6-.35.4-2.8-5.9-5.4-14-5.65-17.6-8.05-20.5-14.1-17.1zm53.6.2c-2.6 3.1-16.8 41.5-15.75 42.55 3.55 3.55 9.1.6 11.65-6.3l1.5-4.05h15.75l1.9 5.05c2.35 6.3 5.45 8.1 10 5.8 1.65-.9 2.75-2.1 2.45-2.75-.3-.65-4-9.75-8.15-20.2-4.2-10.45-8.35-19.55-9.25-20.25-2.15-1.7-8.65-1.6-10.1.15zm7.9 15.85c1.25 3.45 2.5 6.8 2.75 7.5.35.9-1.2 1.25-5.75 1.25-5.55 0-6.15-.2-5.45-1.75.4-.95 1.7-4.35 2.85-7.5 2.6-7.15 2.8-7.15 5.6.5z"></path><path fill="#BBC97E" d="M85 151.8c-.8.3-1.85 1-2.25 1.6-1 1.5-.9 39.8.1 41.4 1.3 2 30.65 1.25 30.65-.8 0-1.25-2.2-1.5-13.5-1.6l-13.5-.15-.3-8.6-.3-8.6 10.8-.25c8.8-.25 10.8-.6 10.8-1.8 0-1.25-1.85-1.5-10.5-1.55H86.5V155.5l13.3-.3c12-.25 13.3-.45 13-2-.35-1.7-23.4-2.85-27.8-1.4zm36.55.45c-.75 2.35-1.2 42.65-.5 43.85 2.65 4.25 3.35-.1 3.05-19.65-.15-11 0-19.65.35-19.3.35.3 3.65 4.9 7.35 10.1 22.45 31.9 21 30.1 22.95 28.9 1.2-.75 2-43.7.85-44.85-3.05-3.1-3.65.85-3 19.2.8 20.6.6 21.1-4.85 12.65-2.1-3.25-7.35-10.75-11.7-16.75s-8.65-11.9-9.55-13.15c-1.75-2.45-4.35-3-4.95-1zm45.65.1c-.5.65-.85 10.6-.8 22.15l.1 21 15.85.3c14.7.25 15.8.15 15.45-1.5-.3-1.6-1.75-1.8-13.8-1.85l-13.5-.1-.3-8.65-.3-8.65 10.8-.25c8.8-.25 10.8-.6 10.8-1.8 0-1.25-1.85-1.5-10.5-1.55h-10.5l-.3-8.25-.3-8.2h13.65c12.4 0 13.55-.15 13.25-1.75-.4-2.15-28.05-2.95-29.6-.9zm39.6-.65c-1.8.45-3.3 41.9-1.65 44.55 2.3 3.7 3.95-.45 3.75-9.5-.25-11.35 2.05-13.05 8.1-6.05 7.15 8.25 15.05 16.3 16.05 16.3 3.4 0 1.5-3.6-5.9-11.25l-8.1-8.25 4.35-.65c12.8-1.9 16.45-17.9 5.3-23.2-3.2-1.5-18.25-2.85-21.9-1.95zm19.2 5.05c6.7 3.35 6.35 12.95-.55 15.85-3.65 1.5-17.2 1.65-16.7.15.15-.4.25-4.6.25-9.25V155h6.75c4.4 0 7.95.6 10.25 1.75z"></path><path fill="#BBC97E" d="M253.5 152.9c-19.2 8.9-15.75 40.9 4.7 43.7 6.95.95 11.4-.25 16-4.4l4.1-3.7-.5 3.25c-.3 2.1.05 3.7.95 4.45 2.35 1.95 2.8-.3 2.25-11.35l-.5-10.35-9.25-.3c-8.75-.25-9.25-.15-9.25 1.75s.6 2.05 8.1 2.05h8.1l-.65 2.75c-5 20.2-32.45 14.6-32.55-6.7-.05-17.2 19.85-26.25 29.8-13.55 2.25 2.85 3.75 3.2 4.55 1.05 2.75-7.15-15.8-13.3-25.85-8.65zm37.45-1.5c-1.45 1.4-.1 45.1 1.4 45.4 2.45.5 2.75-2.6 2.45-24.8-.3-20.15-.9-23.55-3.85-20.6zm27.4.85c-2.85 3.9-17.45 43.05-16.45 44.05 1.6 1.6 2.95-.1 6.1-8l2.75-6.8 9.9-.3 9.85-.25 2.4 7.05c2.6 7.6 4.45 10.05 6.3 8.2 2-2-15.8-45.2-18.7-45.2-.7 0-1.65.55-2.15 1.25zm6.7 15.2c2.05 5.2 3.55 9.6 3.4 9.75-.6.65-15.45 0-15.6-.65-.2-1.2 7.4-19.65 7.95-19.1.25.3 2.2 4.8 4.25 10z"></path></g></svg>