<svg xmlns="http://www.w3.org/2000/svg" viewBox="0 -0.0000019073486328125 170 55.80000305175781"><path d="M80.5 33c2.1.1 3.9.7 3.9 3.2s-1.8 3.1-3.9 3.2v5.4c2.9.2 3 1.7 3.3 4.7.2 2 .4 4 .9 5.9H93c-.7-2.3-1.1-4.4-1.3-6.7-.5-4.3-1.4-6.8-6.3-6.9v-.1c3.8-.5 7-2.6 7-6.8 0-5.8-6.1-7.1-10.7-7.1h-1.2V33zm-3.9 6.3V33h4v-5.4H68.9v27.6h7.7V44.7h3.9v-5.4h-3.9zm38 2.2c0 4.1-1 8.9-6.3 8.9v5.3c9.1 0 14.3-5.3 14.3-14.4S117.4 27 108.3 27v5.4c5.2 0 6.3 4.8 6.3 9.1m-6.3 9c-5.2 0-6.3-4.8-6.3-8.9 0-4.3 1.1-9.2 6.3-9.2V27C99.2 27 94 32.3 94 41.4s5.2 14.4 14.3 14.4v-5.3zm23.7 4.7V31.9h.1l6 23.3h6.9l6.5-23.2.1.1v23.1h6.6V27.6h-11.8L142 46.3h-.1l-4.5-18.7h-12v27.6zm30.3-27.6h7.7v27.6h-7.7z"></path><path fill="#0067A6" d="M0 27.6C0 12.3 12.3 0 27.5 0c15.3 0 27.6 12.3 27.6 27.6 0 11.5-7 21.4-17 25.5L27.5 42.6v5.7C16.2 48.2 7 39 7 27.6S16.2 7.1 27.5 7.1s20.6 9.2 20.6 20.6c0 7.3-3.9 13.8-9.6 17.4l-10.9-11v-6.5l10.6 10.6c2.7-2.7 4.4-6.5 4.4-10.6 0-8.2-6.7-14.9-14.9-14.9s-14.9 6.7-14.9 14.9c0 8.3 6.7 14.9 14.9 14.9V36l10.6 10.6.1.1c6.7-3.8 11.2-11 11.2-19.2 0-12.1-9.8-22-22-22-12.1 0-22 9.8-22 22s9.9 22 22 22v5.7C12.3 55.2 0 42.9 0 27.6"></path></svg>