<!DOCTYPE svg PUBLIC "-//W3C//DTD SVG 20010904//EN" "http://www.w3.org/TR/2001/REC-SVG-20010904/DTD/svg10.dtd">
<svg version="1.0" xmlns="http://www.w3.org/2000/svg" width="456px" height="456px" viewBox="0 0 4560 4560" preserveAspectRatio="xMidYMid meet">
<g id="layer101" fill="#b81c29" stroke="none">
<path d="M0 2280 l0 -2280 2280 0 2280 0 0 2280 0 2280 -2280 0 -2280 0 0 -2280z"/>
</g>
<g id="layer102" fill="#e0101e" stroke="none">
<path d="M0 2280 l0 -2280 2280 0 2280 0 0 2280 0 2280 -2280 0 -2280 0 0 -2280z m3617 1453 c-4 -3 -10 -3 -14 0 -3 4 0 7 7 7 7 0 10 -3 7 -7z m70 -10 c-4 -3 -10 -3 -14 0 -3 4 0 7 7 7 7 0 10 -3 7 -7z m-335 -85 c-7 -7 -12 -8 -12 -2 0 6 3 14 7 17 3 4 9 5 12 2 2 -3 -1 -11 -7 -17z m-1192 -392 c0 -3 -4 -8 -10 -11 -5 -3 -10 -1 -10 4 0 6 5 11 10 11 6 0 10 -2 10 -4z m260 -6 c0 -5 -2 -10 -4 -10 -3 0 -8 5 -11 10 -3 6 -1 10 4 10 6 0 11 -4 11 -10z m517 -7 c-4 -3 -7 0 -7 7 0 7 3 10 7 7 3 -4 3 -10 0 -14z m363 -1877 c0 -3 -5 -8 -12 -12 -7 -4 -8 -3 -4 4 7 12 16 16 16 8z m-40 -40 c0 -3 -5 -8 -12 -12 -7 -4 -8 -3 -4 4 7 12 16 16 16 8z m445 -215 c3 -5 2 -12 -3 -15 -5 -3 -9 1 -9 9 0 17 3 19 12 6z m-1715 -25 c0 -3 -5 -8 -12 -12 -7 -4 -8 -3 -4 4 7 12 16 16 16 8z m-1015 -106 c3 -5 4 -10 1 -10 -3 0 -8 5 -11 10 -3 6 -4 10 -1 10 3 0 8 -4 11 -10z m2585 -26 c0 -8 -19 -13 -24 -6 -3 5 1 9 9 9 8 0 15 -2 15 -3z m-50 -28 c0 -2 -7 -7 -16 -10 -8 -3 -12 -2 -9 4 6 10 25 14 25 6z"/>
</g>
<g id="layer103" fill="#b52f3d" stroke="none">
<path d="M0 2280 l0 -2280 2280 0 2280 0 0 2280 0 2280 -2280 0 -2280 0 0 -2280z m836 1458 c-10 -6 -22 -6 -26 -2 -5 5 3 10 18 11 22 1 24 0 8 -9z m241 5 c-4 -3 -10 -3 -14 0 -3 4 0 7 7 7 7 0 10 -3 7 -7z m1450 1 c-3 -3 -12 -4 -19 -1 -8 3 -5 6 6 6 11 1 17 -2 13 -5z m23 -14 c-8 -5 -19 -10 -25 -10 -5 0 -3 5 5 10 8 5 20 10 25 10 6 0 3 -5 -5 -10z m844 2 c2 -4 -4 -8 -14 -8 -10 0 -16 4 -14 8 3 4 9 8 14 8 5 0 11 -4 14 -8z m223 1 c-4 -3 -10 -3 -14 0 -3 4 0 7 7 7 7 0 10 -3 7 -7z m-1600 -10 c-4 -3 -10 -3 -14 0 -3 4 0 7 7 7 7 0 10 -3 7 -7z m1670 0 c-4 -3 -10 -3 -14 0 -3 4 0 7 7 7 7 0 10 -3 7 -7z m-2487 -27 c0 -3 -5 -8 -12 -12 -7 -4 -8 -3 -4 4 7 12 16 16 16 8z m-443 -33 c-4 -3 -7 0 -7 7 0 7 3 10 7 7 3 -4 3 -10 0 -14z m1884 0 c13 -17 13 -17 -6 -3 -11 8 -22 16 -24 17 -2 2 0 3 6 3 6 0 17 -8 24 -17z m-1864 -10 c-4 -3 -7 0 -7 7 0 7 3 10 7 7 3 -4 3 -10 0 -14z m1078 8 c3 -5 2 -12 -3 -15 -5 -3 -9 1 -9 9 0 17 3 19 12 6z m1932 -8 c-4 -3 -7 0 -7 7 0 7 3 10 7 7 3 -4 3 -10 0 -14z m-435 -15 c-7 -7 -12 -8 -12 -2 0 6 3 14 7 17 3 4 9 5 12 2 2 -3 -1 -11 -7 -17z m-45 -5 c-4 -3 -7 0 -7 7 0 7 3 10 7 7 3 -4 3 -10 0 -14z m-1590 -130 c-4 -3 -7 0 -7 7 0 7 3 10 7 7 3 -4 3 -10 0 -14z m1153 13 c0 -2 -8 -10 -17 -17 -16 -13 -17 -12 -4 4 13 16 21 21 21 13z m-1210 -90 c0 -3 -5 -8 -12 -12 -7 -4 -8 -3 -4 4 7 12 16 16 16 8z m1287 -38 c-3 -8 -6 -5 -6 6 -1 11 2 17 5 13 3 -3 4 -12 1 -19z m-1330 -5 c-4 -3 -7 0 -7 7 0 7 3 10 7 7 3 -4 3 -10 0 -14z m-3 -99 c3 -8 2 -12 -4 -9 -6 3 -10 10 -10 16 0 14 7 11 14 -7z m546 -38 c0 -3 -4 -8 -10 -11 -5 -3 -10 -1 -10 4 0 6 5 11 10 11 6 0 10 -2 10 -4z m260 -6 c0 -5 -2 -10 -4 -10 -3 0 -8 5 -11 10 -3 6 -1 10 4 10 6 0 11 -4 11 -10z m517 -7 c-4 -3 -7 0 -7 7 0 7 3 10 7 7 3 -4 3 -10 0 -14z m-720 -20 c-4 -3 -10 -3 -14 0 -3 4 0 7 7 7 7 0 10 -3 7 -7z m-1480 -1810 c-4 -3 -7 0 -7 7 0 7 3 10 7 7 3 -4 3 -10 0 -14z m3090 0 c-4 -3 -7 0 -7 7 0 7 3 10 7 7 3 -4 3 -10 0 -14z m-2472 -53 c-3 -5 -12 -10 -18 -10 -7 0 -6 4 3 10 19 12 23 12 15 0z m1945 6 c0 -3 -5 -8 -12 -12 -7 -4 -8 -3 -4 4 7 12 16 16 16 8z m-73 -13 c-4 -3 -10 -3 -14 0 -3 4 0 7 7 7 7 0 10 -3 7 -7z m33 -27 c0 -3 -5 -8 -12 -12 -7 -4 -8 -3 -4 4 7 12 16 16 16 8z m567 -13 c-4 -3 -7 0 -7 7 0 7 3 10 7 7 3 -4 3 -10 0 -14z m-762 -3 c3 -5 4 -10 1 -10 -3 0 -8 5 -11 10 -3 6 -4 10 -1 10 3 0 8 -4 11 -10z m-572 -135 c-3 -9 -8 -14 -10 -11 -3 3 -2 9 2 15 9 16 15 13 8 -4z m-416 -12 c-4 -3 -7 0 -7 7 0 7 3 10 7 7 3 -4 3 -10 0 -14z m-37 -17 c0 -3 -5 -8 -12 -12 -7 -4 -8 -3 -4 4 7 12 16 16 16 8z m1665 -35 c3 -5 2 -12 -3 -15 -5 -3 -9 1 -9 9 0 17 3 19 12 6z m-1715 -25 c0 -3 -5 -8 -12 -12 -7 -4 -8 -3 -4 4 7 12 16 16 16 8z m10 -20 c0 -3 -5 -8 -12 -12 -7 -4 -8 -3 -4 4 7 12 16 16 16 8z m1685 -6 c3 -5 4 -10 1 -10 -3 0 -8 5 -11 10 -3 6 -4 10 -1 10 3 0 8 -4 11 -10z m-2768 -67 c-4 -3 -7 0 -7 7 0 7 3 10 7 7 3 -4 3 -10 0 -14z m2738 7 c3 -5 1 -10 -4 -10 -6 0 -11 5 -11 10 0 6 2 10 4 10 3 0 8 -4 11 -10z m-2695 -15 c5 3 11 2 14 -3 2 -4 -8 -8 -24 -7 -23 0 -26 3 -17 14 8 9 12 10 15 2 2 -6 8 -9 12 -6z m2657 -2 c-4 -3 -7 0 -7 7 0 7 3 10 7 7 3 -4 3 -10 0 -14z m-57 -29 c0 -8 -19 -13 -24 -6 -3 5 1 9 9 9 8 0 15 -2 15 -3z m-45 -33 c7 -12 -12 -24 -25 -16 -11 7 -4 25 10 25 5 0 11 -4 15 -9z m-768 -8 c-4 -3 -10 -3 -14 0 -3 4 0 7 7 7 7 0 10 -3 7 -7z m-1750 -10 c-4 -3 -10 -3 -14 0 -3 4 0 7 7 7 7 0 10 -3 7 -7z m890 0 c-4 -3 -10 -3 -14 0 -3 4 0 7 7 7 7 0 10 -3 7 -7z m-717 -33 c0 -5 -5 -10 -11 -10 -5 0 -7 5 -4 10 3 6 8 10 11 10 2 0 4 -4 4 -10z m2235 0 c3 -5 4 -10 1 -10 -3 0 -8 5 -11 10 -3 6 -4 10 -1 10 3 0 8 -4 11 -10z m-2200 -10 c-3 -5 -1 -10 6 -10 7 0 10 -3 6 -6 -9 -9 -28 6 -22 17 4 5 8 9 11 9 3 0 2 -4 -1 -10z m512 3 c-4 -3 -10 -3 -14 0 -3 4 0 7 7 7 7 0 10 -3 7 -7z m1648 -2 c3 -5 2 -12 -3 -15 -5 -3 -9 1 -9 9 0 17 3 19 12 6z m-2238 -18 c-4 -3 -7 0 -7 7 0 7 3 10 7 7 3 -4 3 -10 0 -14z"/>
</g>
<g id="layer104" fill="#d42335" stroke="none">
<path d="M0 2280 l0 -2280 2280 0 2280 0 0 2280 0 2280 -2280 0 -2280 0 0 -2280z m836 1458 c-10 -6 -22 -6 -26 -2 -5 5 3 10 18 11 22 1 24 0 8 -9z m241 5 c-4 -3 -10 -3 -14 0 -3 4 0 7 7 7 7 0 10 -3 7 -7z m1129 -11 c-16 -2 -32 0 -37 5 -5 5 7 7 29 4 34 -5 35 -6 8 -9z m321 12 c-3 -3 -12 -4 -19 -1 -8 3 -5 6 6 6 11 1 17 -2 13 -5z m-1554 -11 c-7 -2 -21 -2 -30 0 -10 3 -4 5 12 5 17 0 24 -2 18 -5z m74 1 c-3 -3 -12 -4 -19 -1 -8 3 -5 6 6 6 11 1 17 -2 13 -5z m1301 -1 c-10 -2 -28 -2 -40 0 -13 2 -5 4 17 4 22 1 32 -1 23 -4z m202 -3 c-8 -5 -19 -10 -25 -10 -5 0 -3 5 5 10 8 5 20 10 25 10 6 0 3 -5 -5 -10z m844 2 c2 -4 -4 -8 -14 -8 -10 0 -16 4 -14 8 3 4 9 8 14 8 5 0 11 -4 14 -8z m139 1 c-7 -2 -21 -2 -30 0 -10 3 -4 5 12 5 17 0 24 -2 18 -5z m80 0 c-7 -2 -19 -2 -25 0 -7 3 -2 5 12 5 14 0 19 -2 13 -5z m-2465 -27 c17 -18 16 -18 -18 -1 -45 23 -47 24 -21 22 12 -1 30 -10 39 -21z m869 17 c-4 -3 -10 -3 -14 0 -3 4 0 7 7 7 7 0 10 -3 7 -7z m110 1 c-3 -3 -12 -4 -19 -1 -8 3 -5 6 6 6 11 1 17 -2 13 -5z m1577 -9 c30 -23 15 -25 -24 -5 -26 14 -30 19 -15 19 11 0 29 -6 39 -14z m-1617 -1 c-3 -3 -12 -4 -19 -1 -8 3 -5 6 6 6 11 1 17 -2 13 -5z m-1217 -8 c0 -2 -7 -7 -16 -10 -8 -3 -12 -2 -9 4 6 10 25 14 25 6z m1170 -6 c-8 -5 -22 -10 -30 -10 -13 0 -13 1 0 10 8 5 22 10 30 10 13 0 13 -1 0 -10z m-845 -10 c-4 -6 -1 -17 5 -25 7 -9 8 -15 2 -15 -5 0 -15 7 -23 16 -10 13 -10 17 2 25 18 11 22 11 14 -1z m2550 -10 c3 -5 1 -10 -4 -10 -6 0 -11 5 -11 10 0 6 2 10 4 10 3 0 8 -4 11 -10z m-2988 -17 c-4 -3 -7 0 -7 7 0 7 3 10 7 7 3 -4 3 -10 0 -14z m55 -5 c-7 -7 -12 -8 -12 -2 0 14 12 26 19 19 2 -3 -1 -11 -7 -17z m1111 -8 c-57 -33 -84 -41 -40 -12 15 10 24 22 20 27 -5 4 -2 5 4 1 7 -4 21 -2 30 3 10 6 23 10 28 11 6 0 -13 -14 -42 -30z m664 23 c-4 -3 -10 -3 -14 0 -3 4 0 7 7 7 7 0 10 -3 7 -7z m52 -7 c15 -17 1 -28 -19 -15 -13 7 -13 9 0 9 13 0 13 1 0 10 -8 5 -10 10 -4 10 6 0 17 -6 23 -14z m731 -5 c-11 -21 -30 -37 -30 -25 0 8 30 44 37 44 2 0 -1 -9 -7 -19z m-2593 -8 c-4 -3 -7 0 -7 7 0 7 3 10 7 7 3 -4 3 -10 0 -14z m1078 8 c3 -5 2 -12 -3 -15 -5 -3 -9 1 -9 9 0 17 3 19 12 6z m1932 -8 c-4 -3 -7 0 -7 7 0 7 3 10 7 7 3 -4 3 -10 0 -14z m-480 -20 c-4 -3 -7 0 -7 7 0 7 3 10 7 7 3 -4 3 -10 0 -14z m-2507 3 c0 -3 -4 -8 -10 -11 -5 -3 -10 -1 -10 4 0 6 5 11 10 11 6 0 10 -2 10 -4z m423 -16 c3 -11 3 -20 1 -20 -2 0 -8 9 -14 20 -6 11 -7 20 -2 20 6 0 12 -9 15 -20z m2560 0 c3 -11 3 -20 1 -20 -2 0 -8 9 -14 20 -6 11 -7 20 -2 20 6 0 12 -9 15 -20z m-959 -117 c11 -26 -10 -9 -54 40 l-45 52 46 -40 c26 -22 49 -46 53 -52z m-1026 52 c-6 -13 -15 -22 -20 -19 -5 3 -2 15 8 25 23 25 26 24 12 -6z m1529 -1572 c-1 -296 -2 -56 -2 532 0 589 1 831 2 538 2 -292 2 -774 0 -1070z m-2090 0 c-1 -291 -2 -53 -2 527 0 580 1 818 2 528 2 -291 2 -765 0 -1055z m480 1520 c-4 -3 -7 0 -7 7 0 7 3 10 7 7 3 -4 3 -10 0 -14z m43 13 c0 -2 -7 -9 -15 -16 -13 -11 -14 -10 -9 4 5 14 24 23 24 12z m1110 0 c0 -2 -8 -10 -17 -17 -16 -13 -17 -12 -4 4 13 16 21 21 21 13z m-5 -76 c3 -5 4 -10 1 -10 -3 0 -8 5 -11 10 -3 6 -4 10 -1 10 3 0 8 -4 11 -10z m-1205 -14 c0 -3 -5 -8 -12 -12 -7 -4 -8 -3 -4 4 7 12 16 16 16 8z m1287 -38 c-3 -8 -6 -5 -6 6 -1 11 2 17 5 13 3 -3 4 -12 1 -19z m-1330 -5 c-4 -3 -7 0 -7 7 0 7 3 10 7 7 3 -4 3 -10 0 -14z m53 -13 c-6 -11 -12 -20 -14 -20 -2 0 -2 9 1 20 3 11 9 20 15 20 5 0 4 -9 -2 -20z m-23 -67 c-4 -3 -7 0 -7 7 0 7 3 10 7 7 3 -4 3 -10 0 -14z m1270 0 c-4 -3 -7 0 -7 7 0 7 3 10 7 7 3 -4 3 -10 0 -14z m-1303 -19 c3 -8 2 -12 -4 -9 -6 3 -10 10 -10 16 0 14 7 11 14 -7z m621 -4 c-3 -5 -14 -10 -23 -9 -14 0 -13 2 3 9 27 11 27 11 20 0z m63 3 c-10 -2 -26 -2 -35 0 -10 3 -2 5 17 5 19 0 27 -2 18 -5z m72 -13 c0 -10 -38 -1 -45 10 -2 4 7 5 20 2 14 -2 25 -8 25 -12z m-733 -7 c-4 -3 -7 0 -7 7 0 7 3 10 7 7 3 -4 3 -10 0 -14z m1290 0 c-4 -3 -7 0 -7 7 0 7 3 10 7 7 3 -4 3 -10 0 -14z m-1300 -45 c-3 -7 -5 -2 -5 12 0 14 2 19 5 13 2 -7 2 -19 0 -25z m533 28 c0 -3 -4 -8 -10 -11 -5 -3 -10 -1 -10 4 0 6 5 11 10 11 6 0 10 -2 10 -4z m260 -6 c0 -5 -2 -10 -4 -10 -3 0 -8 5 -11 10 -3 6 -1 10 4 10 6 0 11 -4 11 -10z m517 -22 c-3 -7 -5 -2 -5 12 0 14 2 19 5 13 2 -7 2 -19 0 -25z m-487 -13 c14 -19 14 -19 -2 -6 -10 7 -18 18 -18 24 0 6 1 8 3 6 1 -2 9 -13 17 -24z m-320 5 c0 -5 -5 -10 -11 -10 -5 0 -7 5 -4 10 3 6 8 10 11 10 2 0 4 -4 4 -10z m87 3 c-4 -3 -10 -3 -14 0 -3 4 0 7 7 7 7 0 10 -3 7 -7z m-113 -62 c-4 -17 -9 -30 -11 -27 -3 2 -2 19 2 36 9 41 17 33 9 -9z m365 -16 c-1 -17 -2 -17 -6 -2 -2 9 -8 15 -13 12 -4 -3 -6 4 -3 16 4 16 8 17 14 7 5 -7 8 -22 8 -33z m-1732 -1732 c-4 -3 -7 0 -7 7 0 7 3 10 7 7 3 -4 3 -10 0 -14z m870 -15 c-3 -7 -5 -2 -5 12 0 14 2 19 5 13 2 -7 2 -19 0 -25z m2220 15 c-4 -3 -7 0 -7 7 0 7 3 10 7 7 3 -4 3 -10 0 -14z m-3060 -30 c-3 -10 -5 -4 -5 12 0 17 2 24 5 18 2 -7 2 -21 0 -30z m2207 -22 c-7 -7 -12 3 -18 34 l-6 30 14 -30 c8 -16 12 -32 10 -34z m823 12 c-3 -10 -5 -2 -5 17 0 19 2 27 5 18 2 -10 2 -26 0 -35z m-1320 -5 c-3 -7 -5 -2 -5 12 0 14 2 19 5 13 2 -7 2 -19 0 -25z m-390 5 c-4 -3 -7 0 -7 7 0 7 3 10 7 7 3 -4 3 -10 0 -14z m1214 -11 c-14 -27 -40 -52 -52 -52 -6 0 3 14 20 31 17 17 31 35 31 41 0 6 3 9 6 6 3 -4 1 -15 -5 -26z m-1983 -57 c-6 -6 -58 44 -58 55 0 5 14 -5 31 -21 18 -16 30 -32 27 -34z m37 55 c-3 -5 -12 -10 -18 -10 -7 0 -6 4 3 10 19 12 23 12 15 0z m210 -40 c-18 -20 -55 -33 -55 -19 0 5 7 9 15 9 8 0 22 11 32 24 10 13 20 20 22 14 1 -5 -4 -17 -14 -28z m1662 33 c-4 -3 -10 -3 -14 0 -3 4 0 7 7 7 7 0 10 -3 7 -7z m-187 -45 c0 -13 -16 -9 -38 11 -31 26 -27 33 8 13 16 -9 30 -20 30 -24z m-968 -20 c-6 -6 -7 0 -4 19 5 21 7 23 10 9 2 -10 0 -22 -6 -28z m415 10 c-3 -7 -5 -2 -5 12 0 14 2 19 5 13 2 -7 2 -19 0 -25z m1300 10 c-3 -8 -6 -5 -6 6 -1 11 2 17 5 13 3 -3 4 -12 1 -19z m40 5 c-4 -3 -7 0 -7 7 0 7 3 10 7 7 3 -4 3 -10 0 -14z m-762 -3 c3 -5 4 -10 1 -10 -3 0 -8 5 -11 10 -3 6 -4 10 -1 10 3 0 8 -4 11 -10z m-1617 -27 c-10 -2 -28 -2 -40 0 -13 2 -5 4 17 4 22 1 32 -1 23 -4z m1700 0 c-10 -2 -26 -2 -35 0 -10 3 -2 5 17 5 19 0 27 -2 18 -5z m-641 -50 c-4 -3 -7 0 -7 7 0 7 3 10 7 7 3 -4 3 -10 0 -14z m-1693 -19 c3 -8 2 -12 -4 -9 -6 3 -10 10 -10 16 0 14 7 11 14 -7z m1240 0 c3 -8 2 -12 -4 -9 -6 3 -10 10 -10 16 0 14 7 11 14 -7z m1697 -7 c-10 -9 -11 -8 -5 6 3 10 9 15 12 12 3 -3 0 -11 -7 -18z m-1231 9 c0 -3 -5 -8 -12 -12 -7 -4 -8 -3 -4 4 7 12 16 16 16 8z m-489 -43 c-12 -20 -14 -14 -5 12 4 9 9 14 11 11 3 -2 0 -13 -6 -23z m529 -37 c18 -33 28 -56 21 -52 -11 7 -61 98 -61 112 0 10 3 6 40 -60z m-67 39 c-3 -9 -8 -14 -10 -11 -3 3 -2 9 2 15 9 16 15 13 8 -4z m-416 -12 c-4 -3 -7 0 -7 7 0 7 3 10 7 7 3 -4 3 -10 0 -14z m-43 -25 c-3 -5 -10 -6 -15 -3 -5 4 -9 1 -9 -6 0 -7 -3 -10 -6 -6 -9 9 3 24 20 24 8 0 13 -4 10 -9z m1667 -39 c-12 -16 -19 -35 -15 -41 4 -7 3 -8 -4 -4 -17 10 -15 22 6 42 9 10 16 20 16 23 -1 3 1 13 4 20 4 12 7 12 10 2 2 -7 -5 -26 -17 -42z m-1710 -7 c-5 -9 -19 -26 -32 -37 -19 -16 -18 -13 5 18 30 39 43 49 27 19z m9 -26 c0 -3 -5 -8 -12 -12 -7 -4 -8 -3 -4 4 7 12 16 16 16 8z m-1083 -73 c-4 -3 -7 0 -7 7 0 7 3 10 7 7 3 -4 3 -10 0 -14z m2738 7 c3 -5 1 -10 -4 -10 -6 0 -11 5 -11 10 0 6 2 10 4 10 3 0 8 -4 11 -10z m-2694 -15 c10 7 59 -23 59 -37 0 -5 -11 -1 -25 10 -14 11 -37 19 -50 17 -21 -2 -23 0 -13 12 8 10 14 11 16 4 2 -6 8 -9 13 -6z m2656 -2 c-4 -3 -7 0 -7 7 0 7 3 10 7 7 3 -4 3 -10 0 -14z m-1747 -18 c-13 -14 -28 -25 -34 -25 -6 1 3 12 19 25 39 32 45 32 15 0z m815 15 c3 -5 4 -10 1 -10 -3 0 -8 5 -11 10 -3 6 -4 10 -1 10 3 0 8 -4 11 -10z m905 0 c-8 -5 -19 -10 -25 -10 -5 0 -3 5 5 10 8 5 20 10 25 10 6 0 3 -5 -5 -10z m-46 -37 c-10 -7 -22 -13 -27 -13 -4 0 -6 -4 -2 -9 7 -13 -12 -24 -26 -15 -13 8 36 51 59 51 11 0 10 -4 -4 -14z m-2444 -36 c0 -1 -11 -2 -24 -2 -13 0 -22 2 -20 4 2 2 -4 13 -13 24 -16 17 -14 17 20 -3 20 -12 37 -23 37 -23z m1627 36 c-4 -3 -10 -3 -14 0 -3 4 0 7 7 7 7 0 10 -3 7 -7z m79 -45 c5 -7 -4 -5 -18 4 -15 10 -33 16 -40 15 -7 -2 -10 -2 -5 0 4 3 4 9 1 15 -3 5 8 3 24 -6 17 -9 34 -22 38 -28z m-996 27 c0 -2 -15 -12 -32 -20 l-33 -16 24 21 c22 19 41 26 41 15z m-813 -22 c-4 -3 -10 -3 -14 0 -3 4 0 7 7 7 7 0 10 -3 7 -7z m138 -11 c-3 -3 -11 0 -18 7 -9 10 -8 11 6 5 10 -3 15 -9 12 -12z m752 11 c-4 -3 -10 -3 -14 0 -3 4 0 7 7 7 7 0 10 -3 7 -7z m-170 -26 c0 -9 -12 -14 -31 -14 l-31 0 30 13 c17 7 30 13 31 14 0 0 1 -6 1 -13z m-537 -7 c-20 -13 -33 -13 -25 0 3 6 14 10 23 10 15 0 15 -2 2 -10z m2224 1 c4 -5 -3 -7 -14 -4 -23 6 -26 13 -6 13 8 0 17 -4 20 -9z m-2199 -11 c-3 -5 -1 -10 6 -10 7 0 10 -3 6 -6 -9 -9 -28 6 -22 17 4 5 8 9 11 9 3 0 2 -4 -1 -10z m2160 1 c3 -5 2 -12 -3 -15 -5 -3 -9 1 -9 9 0 17 3 19 12 6z m-2238 -18 c-4 -3 -7 0 -7 7 0 7 3 10 7 7 3 -4 3 -10 0 -14z m130 11 c-3 -3 -12 -4 -19 -1 -8 3 -5 6 6 6 11 1 17 -2 13 -5z m50 -10 c-3 -3 -12 -4 -19 -1 -8 3 -5 6 6 6 11 1 17 -2 13 -5z m290 -1 c-4 -3 -10 -3 -14 0 -3 4 0 7 7 7 7 0 10 -3 7 -7z m1370 0 c-4 -3 -10 -3 -14 0 -3 4 0 7 7 7 7 0 10 -3 7 -7z m310 1 c-3 -3 -12 -4 -19 -1 -8 3 -5 6 6 6 11 1 17 -2 13 -5z m-1859 -11 c-10 -2 -28 -2 -40 0 -13 2 -5 4 17 4 22 1 32 -1 23 -4z m110 0 c-10 -2 -26 -2 -35 0 -10 3 -2 5 17 5 19 0 27 -2 18 -5z m1545 0 c-7 -2 -19 -2 -25 0 -7 3 -2 5 12 5 14 0 19 -2 13 -5z m115 0 c-10 -2 -26 -2 -35 0 -10 3 -2 5 17 5 19 0 27 -2 18 -5z"/>
</g>
<g id="layer105" fill="#ed1a30" stroke="none">
<path d="M0 2280 l0 -2280 2280 0 2280 0 0 2280 0 2280 -2280 0 -2280 0 0 -2280z m825 1530 c3 -5 -1 -10 -10 -10 -9 0 -13 5 -10 10 3 6 8 10 10 10 2 0 7 -4 10 -10z m2564 -11 c-15 -9 -32 -2 -24 11 3 5 13 6 21 3 12 -4 13 -8 3 -14z m-1162 4 c-4 -3 -10 -3 -14 0 -3 4 0 7 7 7 7 0 10 -3 7 -7z m328 -13 c3 -5 1 -10 -4 -10 -6 0 -11 5 -11 10 0 6 2 10 4 10 3 0 8 -4 11 -10z m-131 -6 c23 -9 20 -24 -4 -24 -11 0 -20 7 -20 15 0 17 2 18 24 9z m86 -34 l25 -8 -25 -1 c-14 0 -32 4 -40 9 -13 9 -13 10 0 9 8 -1 26 -5 40 -9z m-1675 -13 c-11 -5 -23 -15 -27 -21 -4 -6 -6 -2 -6 9 1 14 10 20 27 22 23 1 24 0 6 -10z m288 -8 c29 -11 54 -24 55 -29 2 -6 9 -7 14 -4 6 4 8 3 5 -3 -4 -5 3 -20 14 -31 11 -12 16 -22 12 -22 -4 0 -1 -5 7 -10 11 -7 12 -12 3 -21 -8 -8 -15 -4 -27 19 -38 74 -116 107 -232 100 -83 -6 -122 -25 -168 -81 l-31 -39 0 -1146 c0 -631 3 -1160 6 -1177 3 -16 18 -56 32 -88 86 -184 218 -291 429 -344 l73 -18 -54 -3 c-30 -2 -59 2 -64 7 -6 6 -19 11 -29 11 -10 0 -18 5 -18 11 0 6 -7 8 -16 5 -8 -3 -12 -2 -9 4 3 6 -3 10 -14 10 -12 0 -21 4 -21 10 0 5 -10 9 -22 7 -14 -1 -22 3 -20 11 1 6 -4 12 -12 12 -8 0 -27 11 -43 23 -15 13 -38 23 -50 22 -17 -1 -20 1 -12 11 6 8 6 14 0 18 -5 3 -11 3 -14 -1 -2 -5 -2 -2 -1 5 2 7 -12 30 -31 51 -19 21 -35 42 -35 47 0 5 -11 22 -25 38 -14 16 -25 35 -25 41 0 7 -7 30 -16 51 -15 34 -18 37 -25 19 -7 -17 -8 -16 -8 8 -1 16 -5 26 -10 22 -5 -3 -12 -1 -15 4 -7 11 13 9 32 -2 8 -6 12 0 12 21 0 18 -6 32 -16 36 -12 5 -14 1 -9 -15 5 -15 4 -19 -4 -15 -6 4 -11 22 -11 39 0 24 3 28 10 17 6 -10 11 383 13 1110 2 619 5 1133 6 1143 1 9 7 17 12 17 6 0 8 10 4 23 -4 14 -3 17 2 9 7 -9 14 -6 30 12 12 13 19 27 16 29 -3 3 15 11 39 18 23 7 47 16 52 20 17 15 156 7 209 -12z m1238 11 c40 -6 78 -15 83 -20 7 -7 -1 -8 -24 -3 -19 5 -96 8 -170 8 -121 0 -143 -3 -217 -28 -135 -46 -248 -134 -322 -251 -41 -65 -79 -190 -90 -296 l-9 -85 0 100 c1 55 -2 109 -6 120 -5 14 -3 13 7 -4 13 -22 14 -21 27 38 7 34 21 73 31 86 11 13 19 27 19 33 0 5 9 21 21 36 11 14 16 26 10 26 -6 0 -11 4 -11 10 0 5 6 7 14 4 8 -3 23 8 37 27 13 18 19 30 13 27 -5 -4 -10 2 -10 13 0 12 4 15 10 9 14 -14 29 -13 20 2 -4 6 -3 8 3 5 6 -4 20 1 31 11 33 28 67 51 72 50 3 -1 24 11 47 25 24 15 51 27 60 27 15 0 16 2 3 10 -11 7 -5 8 20 4 19 -2 58 1 85 8 68 18 157 20 246 8z m1286 -3 c7 -5 22 -7 33 -4 11 3 20 1 20 -3 0 -5 9 -12 21 -15 11 -4 18 -9 16 -12 -3 -2 4 -16 16 -29 16 -18 23 -21 30 -12 5 8 6 3 1 -12 -6 -22 -5 -23 9 -12 10 9 17 10 22 2 3 -5 2 -10 -3 -10 -16 0 -22 -29 -12 -55 18 -46 0 -25 -24 28 -42 96 -113 133 -241 125 -97 -6 -158 -41 -188 -108 -9 -18 -13 -324 -17 -1125 -5 -1026 -6 -1102 -23 -1132 -22 -41 -56 -73 -76 -73 -12 1 -9 6 9 22 14 11 24 25 22 30 -1 5 2 7 7 3 6 -3 17 10 26 30 13 32 15 174 15 1103 0 696 -4 1062 -10 1052 -14 -22 -12 -10 7 46 9 27 23 55 30 63 8 7 12 20 9 28 -3 8 -2 11 3 8 5 -3 16 3 23 13 7 11 31 25 53 33 22 7 44 16 49 20 13 11 159 8 173 -4z m-1097 -7 c-8 -5 -19 -10 -25 -10 -5 0 -3 5 5 10 8 5 20 10 25 10 6 0 3 -5 -5 -10z m844 2 c2 -4 -4 -8 -14 -8 -10 0 -16 4 -14 8 3 4 9 8 14 8 5 0 11 -4 14 -8z m-2139 -12 c-3 -5 -10 -10 -16 -10 -5 0 -9 5 -9 10 0 6 7 10 16 10 8 0 12 -4 9 -10z m1230 0 c-3 -5 3 -10 14 -10 12 0 21 -4 21 -10 0 -5 -7 -7 -15 -5 -51 16 -50 16 -35 25 19 12 23 12 15 0z m111 -41 c6 -5 13 -6 17 -3 3 3 32 -14 64 -37 32 -24 61 -44 65 -44 10 0 23 -16 23 -28 0 -7 5 -12 12 -12 7 0 23 -14 36 -32 22 -31 24 -31 42 -15 19 16 19 16 2 -4 -9 -11 -17 -24 -17 -27 0 -12 28 -7 33 6 3 6 4 -1 2 -18 -1 -17 6 -41 16 -57 11 -14 19 -37 19 -50 0 -12 9 -36 19 -52 19 -28 20 -59 21 -942 1 -855 2 -915 19 -963 10 -29 23 -57 29 -63 13 -13 35 -1 26 14 -4 7 -2 8 4 4 6 -4 9 -13 6 -20 -10 -25 42 -46 113 -47 47 0 62 -3 48 -9 -42 -18 -151 -8 -139 12 4 6 -1 8 -13 4 -21 -7 -63 22 -63 43 0 6 -4 11 -9 11 -5 0 -12 10 -17 23 -4 12 -11 436 -14 942 -6 843 -8 925 -24 980 -46 155 -152 282 -296 354 -47 23 -87 44 -90 47 -8 9 54 -8 66 -17z m-1889 -16 c-4 -3 -7 0 -7 7 0 7 3 10 7 7 3 -4 3 -10 0 -14z m50 0 c-4 -3 -7 0 -7 7 0 7 3 10 7 7 3 -4 3 -10 0 -14z m1923 7 c13 -8 13 -10 -2 -10 -9 0 -20 5 -23 10 -8 13 5 13 25 0z m607 -7 c-4 -3 -7 0 -7 7 0 7 3 10 7 7 3 -4 3 -10 0 -14z m-1432 -2 c3 -5 2 -12 -3 -15 -5 -3 -9 1 -9 9 0 17 3 19 12 6z m-598 -23 c-3 -8 -6 -5 -6 6 -1 11 2 17 5 13 3 -3 4 -12 1 -19z m563 1 c0 -6 -4 -7 -10 -4 -5 3 -10 11 -10 16 0 6 5 7 10 4 6 -3 10 -11 10 -16z m1490 1 c0 -5 -8 -10 -17 -10 -15 0 -16 2 -3 10 19 12 20 12 20 0z m-2577 -25 c4 -8 3 -16 -1 -19 -4 -3 -9 4 -9 15 -2 23 3 25 10 4z m511 -65 c3 -22 6 -511 6 -1088 0 -734 3 -1057 11 -1079 6 -18 18 -33 27 -35 16 -3 15 -4 0 -10 -13 -6 -22 1 -35 25 -17 30 -18 107 -23 1130 -3 603 -2 1097 1 1097 4 0 9 -18 13 -40z m1591 20 c3 -5 -1 -10 -10 -10 -9 0 -13 5 -10 10 3 6 8 10 10 10 2 0 7 -4 10 -10z m-1558 -17 c-4 -3 -7 0 -7 7 0 7 3 10 7 7 3 -4 3 -10 0 -14z m2560 -25 c-3 -8 -6 -5 -6 6 -1 11 2 17 5 13 3 -3 4 -12 1 -19z m-2570 -5 c-4 -3 -7 0 -7 7 0 7 3 10 7 7 3 -4 3 -10 0 -14z m2543 -1078 c0 -692 -4 -1086 -10 -1090 -7 -4 -10 381 -10 1090 0 737 3 1094 10 1090 7 -4 10 -369 10 -1090z m-2139 1012 c-13 -13 -26 -3 -16 12 3 6 11 8 17 5 6 -4 6 -10 -1 -17z m-11 -31 c0 -3 -5 -8 -12 -12 -7 -4 -8 -3 -4 4 7 12 16 16 16 8z m1287 -38 c-3 -8 -6 -5 -6 6 -1 11 2 17 5 13 3 -3 4 -12 1 -19z m-1330 -5 c-4 -3 -7 0 -7 7 0 7 3 10 7 7 3 -4 3 -10 0 -14z m1310 -25 c-3 -8 -6 -5 -6 6 -1 11 2 17 5 13 3 -3 4 -12 1 -19z m90 -80 c-3 -8 -6 -5 -6 6 -1 11 2 17 5 13 3 -3 4 -12 1 -19z m-662 1 c62 -17 101 -66 114 -142 8 -45 11 -332 11 -918 0 -501 4 -875 9 -904 33 -175 148 -335 292 -407 120 -59 162 -70 304 -76 97 -4 123 -7 105 -14 -33 -13 -223 0 -270 18 -8 4 -28 8 -44 10 -17 2 -33 9 -37 15 -4 7 -14 9 -24 6 -9 -4 -14 -3 -11 2 3 4 -13 13 -35 20 -22 7 -37 16 -34 21 7 11 -31 24 -45 15 -5 -3 -7 0 -4 8 3 9 -12 29 -40 53 -25 21 -46 41 -46 45 0 6 -59 101 -78 124 -13 16 -25 49 -23 63 1 6 -2 12 -7 12 -5 0 -12 28 -15 61 -3 34 -9 65 -14 68 -4 3 -9 404 -9 891 -1 487 -3 895 -4 907 -1 13 -6 20 -11 17 -5 -3 -7 1 -4 8 9 23 -41 65 -92 77 -87 21 -202 -2 -188 -37 3 -7 1 -11 -4 -8 -13 8 -27 -14 -37 -54 -4 -19 -8 -423 -8 -898 -1 -570 -4 -861 -11 -859 -15 5 -19 1641 -5 1728 13 78 40 115 101 140 51 21 107 23 164 8z m-120 -39 c3 -5 1 -10 -4 -10 -6 0 -11 5 -11 10 0 6 2 10 4 10 3 0 8 -4 11 -10z m-18 -27 c-4 -3 -10 -3 -14 0 -3 4 0 7 7 7 7 0 10 -3 7 -7z m140 0 c-4 -3 -10 -3 -14 0 -3 4 0 7 7 7 7 0 10 -3 7 -7z m630 -10 c-4 -3 -7 0 -7 7 0 7 3 10 7 7 3 -4 3 -10 0 -14z m-835 -115 c-6 -6 -7 0 -4 19 5 21 7 23 10 9 2 -10 0 -22 -6 -28z m-537 -1665 c-4 -24 -10 -43 -16 -43 -12 0 -12 47 1 55 7 4 11 289 12 813 l3 807 3 -795 c1 -437 0 -814 -3 -837z m512 0 c-4 -3 -7 0 -7 7 0 7 3 10 7 7 3 -4 3 -10 0 -14z m-1390 -20 c-4 -3 -7 0 -7 7 0 7 3 10 7 7 3 -4 3 -10 0 -14z m3090 0 c-4 -3 -7 0 -7 7 0 7 3 10 7 7 3 -4 3 -10 0 -14z m-567 -2 c0 -12 -20 -25 -27 -18 -7 7 6 27 18 27 5 0 9 -4 9 -9z m-1694 -42 c40 -44 -24 -83 -136 -84 -73 0 -150 23 -150 46 0 16 23 10 45 -11 18 -17 36 -21 91 -21 41 -1 70 4 72 10 2 6 14 11 26 11 12 0 27 5 33 11 12 12 6 42 -7 34 -4 -3 -10 2 -14 10 -8 22 18 18 40 -6z m520 -51 c-3 -40 -13 -79 -21 -87 -14 -17 -15 -19 -15 -52 0 -12 -4 -18 -11 -13 -7 4 -10 1 -7 -7 3 -8 -5 -26 -18 -42 -13 -15 -21 -34 -18 -41 3 -8 0 -17 -7 -22 -8 -5 -10 -3 -4 7 5 8 -22 -16 -60 -53 -38 -37 -77 -70 -87 -74 -10 -3 -18 -9 -18 -13 0 -8 -24 -19 -72 -35 -32 -10 -19 1 56 48 94 58 165 136 211 229 33 69 65 171 65 209 0 10 3 18 6 18 4 0 4 -32 0 -72z m21 55 c-4 -3 -7 0 -7 7 0 7 3 10 7 7 3 -4 3 -10 0 -14z m-510 -10 c-4 -3 -7 0 -7 7 0 7 3 10 7 7 3 -4 3 -10 0 -14z m-242 -3 c-3 -5 -12 -10 -18 -10 -7 0 -6 4 3 10 19 12 23 12 15 0z m1872 -7 c-4 -3 -10 -3 -14 0 -3 4 0 7 7 7 7 0 10 -3 7 -7z m573 -13 c0 -30 -23 -110 -35 -120 -8 -6 -12 -17 -9 -24 3 -8 -2 -21 -11 -29 -9 -9 -17 -30 -18 -46 -1 -16 -4 -27 -6 -25 -9 8 -40 -29 -34 -40 3 -6 3 -8 -1 -5 -9 9 -66 -42 -66 -59 0 -7 -4 -11 -8 -8 -10 6 -65 -48 -57 -56 3 -3 -6 -3 -20 0 -18 3 -25 1 -23 -9 2 -10 -5 -13 -22 -11 -19 2 -22 0 -12 -10 17 -17 15 -28 -4 -28 -10 0 -14 6 -10 15 6 18 7 18 -32 4 -18 -6 -29 -15 -26 -20 3 -5 -4 -9 -15 -9 -30 0 -27 1 -68 -14 -21 -7 -46 -10 -56 -7 -11 4 7 13 54 25 219 56 366 183 438 379 11 32 21 69 21 82 0 14 5 25 10 25 6 0 10 -4 10 -10z m-2300 -4 c0 -2 -9 -6 -20 -9 -11 -3 -18 -1 -14 4 5 9 34 13 34 5z m2327 -23 c-4 -3 -7 0 -7 7 0 7 3 10 7 7 3 -4 3 -10 0 -14z m-20 -50 c-4 -3 -7 0 -7 7 0 7 3 10 7 7 3 -4 3 -10 0 -14z m-1314 -88 c-3 -9 -8 -14 -10 -11 -3 3 -2 9 2 15 9 16 15 13 8 -4z m-416 -12 c-4 -3 -7 0 -7 7 0 7 3 10 7 7 3 -4 3 -10 0 -14z m433 -13 c0 -5 -5 -10 -11 -10 -5 0 -7 5 -4 10 3 6 8 10 11 10 2 0 4 -4 4 -10z m1270 -10 c0 -5 -7 -10 -16 -10 -8 0 -12 5 -9 10 3 6 10 10 16 10 5 0 9 -4 9 -10z m-2920 -94 c0 -20 -12 -15 -16 7 -1 7 -5 21 -9 32 -7 20 -6 20 9 1 9 -11 16 -29 16 -40z m1174 -19 c13 -20 5 -30 -18 -21 -9 3 -16 15 -16 26 0 22 18 20 34 -5z m1626 -38 c0 -6 -4 -7 -10 -4 -5 3 -10 11 -10 16 0 6 5 7 10 4 6 -3 10 -11 10 -16z m-2840 -3 c0 -3 -4 -8 -10 -11 -5 -3 -10 -1 -10 4 0 6 5 11 10 11 6 0 10 -2 10 -4z m170 -76 c8 -5 11 -10 5 -10 -5 0 -17 5 -25 10 -8 5 -10 10 -5 10 6 0 17 -5 25 -10z m897 -7 c-4 -3 -10 -3 -14 0 -3 4 0 7 7 7 7 0 10 -3 7 -7z m-167 -25 c0 -17 -179 -59 -251 -58 -68 0 -149 10 -149 19 0 3 55 6 123 6 131 0 170 5 232 28 22 9 41 16 43 16 1 1 2 -5 2 -11z m117 -5 c-4 -3 -10 -3 -14 0 -3 4 0 7 7 7 7 0 10 -3 7 -7z m-710 -30 c-4 -3 -7 0 -7 7 0 7 3 10 7 7 3 -4 3 -10 0 -14z m2273 3 c0 -7 -40 -14 -44 -7 -3 4 6 8 20 9 13 1 24 0 24 -2z m-493 -12 c-3 -3 -12 -4 -19 -1 -8 3 -5 6 6 6 11 1 17 -2 13 -5z m330 -1 c-4 -3 -10 -3 -14 0 -3 4 0 7 7 7 7 0 10 -3 7 -7z m-2087 -13 c8 -5 11 -10 5 -10 -5 0 -17 5 -25 10 -8 5 -10 10 -5 10 6 0 17 -5 25 -10z m2330 0 c0 -5 -9 -10 -19 -10 -11 0 -23 5 -26 10 -4 6 5 10 19 10 14 0 26 -4 26 -10z m-703 -7 c-4 -3 -10 -3 -14 0 -3 4 0 7 7 7 7 0 10 -3 7 -7z"/>
<path d="M3493 903 c4 -3 10 -3 14 0 3 4 0 7 -7 7 -7 0 -10 -3 -7 -7z"/>
</g>
<g id="layer106" fill="#fce1e6" stroke="none">
<path d="M895 3715 c-55 -19 -112 -85 -120 -138 -3 -23 -5 -546 -3 -1162 l3 -1120 28 -70 c79 -197 213 -312 433 -371 107 -29 324 -27 424 4 156 49 288 158 355 295 67 139 65 99 65 1056 0 589 4 885 11 928 18 101 82 153 189 153 107 0 171 -52 189 -153 8 -45 11 -332 11 -918 0 -507 3 -874 9 -904 42 -219 186 -381 406 -456 62 -21 87 -24 220 -24 159 1 218 12 334 62 138 61 248 179 310 333 l26 65 3 1135 c3 1261 7 1187 -64 1249 -44 39 -103 54 -189 49 -97 -6 -158 -41 -188 -108 -9 -18 -13 -324 -17 -1125 l-5 -1100 -23 -41 c-30 -52 -66 -73 -139 -80 -100 -11 -174 23 -206 95 -9 19 -13 270 -17 946 -6 904 -6 921 -27 987 -68 215 -226 353 -468 408 -81 19 -115 22 -218 17 -192 -8 -321 -62 -436 -182 -71 -74 -104 -130 -139 -232 l-27 -78 -5 -920 c-3 -509 -9 -929 -14 -940 -25 -55 -56 -83 -107 -95 -106 -26 -200 3 -240 73 l-24 42 -5 1100 c-5 1014 -6 1102 -22 1131 -23 43 -71 81 -116 94 -52 14 -149 12 -197 -5z"/>
</g>
<g id="layer107" fill="#fefefd" stroke="none">
<path d="M939 3723 c-1 -5 -1 -11 -1 -14 1 -3 -7 -5 -16 -5 -57 0 -71 -5 -66 -19 4 -8 1 -15 -5 -15 -6 0 -11 -7 -11 -15 0 -8 -5 -14 -11 -12 -6 1 -20 -13 -30 -31 -19 -33 -20 -66 -16 -1170 3 -1105 4 -1139 23 -1205 11 -37 23 -65 26 -61 4 3 15 -14 26 -39 11 -24 25 -48 31 -51 6 -4 9 -12 6 -17 -4 -5 -1 -9 5 -9 6 0 23 -13 37 -30 13 -16 30 -30 36 -30 7 0 18 -9 25 -20 7 -11 19 -20 27 -20 8 0 15 -4 15 -10 0 -5 11 -12 24 -16 14 -3 27 -12 30 -20 3 -8 13 -14 22 -14 10 0 25 -6 33 -14 20 -17 144 -48 164 -40 8 3 17 1 21 -4 3 -5 36 -6 73 -4 37 3 102 6 143 7 80 2 150 20 150 37 0 6 9 8 19 5 24 -6 64 20 55 35 -4 6 -2 8 4 4 6 -3 13 -2 17 4 3 5 14 10 23 10 17 0 48 38 44 53 -1 5 7 11 18 14 17 5 18 8 8 21 -10 12 -10 14 -1 9 14 -9 63 20 63 36 0 5 11 20 25 33 15 13 25 34 25 50 0 18 4 25 14 21 15 -6 30 19 21 34 -3 5 0 19 6 31 7 13 12 38 10 56 -1 19 2 32 9 32 6 0 9 4 6 9 -4 5 -2 21 4 35 6 17 10 354 10 910 1 526 5 886 10 888 5 2 10 20 12 40 1 20 7 36 12 35 6 -1 10 5 8 13 -3 11 -1 12 8 4 9 -9 17 -7 32 8 12 12 28 18 39 15 10 -3 22 -1 25 4 7 12 101 11 109 -1 4 -6 11 -8 16 -5 19 12 95 -36 107 -67 6 -17 9 -35 6 -39 -3 -5 -1 -9 5 -9 7 0 11 -280 11 -884 0 -554 4 -894 10 -910 6 -17 6 -26 -1 -26 -6 0 -6 -7 1 -20 6 -11 9 -24 6 -29 -10 -15 27 -111 45 -116 11 -4 19 -18 21 -38 2 -18 9 -32 16 -32 6 0 12 -4 13 -10 0 -5 12 -25 25 -42 14 -18 22 -33 18 -33 -3 0 -1 -6 6 -14 6 -8 17 -13 24 -10 7 3 18 -7 26 -21 7 -14 19 -25 27 -25 7 0 13 -4 13 -10 0 -5 7 -10 15 -10 7 0 18 -6 22 -13 15 -24 54 -45 75 -39 11 2 23 -1 28 -7 4 -7 26 -15 49 -18 22 -3 41 -9 41 -13 0 -12 62 -21 74 -11 6 5 47 6 92 1 88 -7 144 -3 144 11 0 5 15 9 34 9 19 0 37 4 41 10 3 5 12 7 20 4 8 -3 24 1 37 10 12 9 33 16 45 16 13 0 23 6 23 13 0 8 19 20 42 28 52 17 183 141 174 164 -3 9 1 18 9 21 8 4 15 15 15 25 0 10 7 19 15 19 9 0 15 10 15 26 0 14 5 35 12 47 6 12 14 31 16 42 8 33 13 2288 6 2304 -4 9 -6 22 -5 29 1 6 -7 12 -18 12 -14 0 -18 5 -14 20 4 15 0 20 -14 20 -11 0 -28 9 -39 21 -12 13 -26 18 -40 15 -13 -4 -27 0 -34 9 -14 16 -96 21 -102 6 -1 -5 -19 -11 -38 -13 -34 -3 -70 -33 -70 -57 0 -6 -6 -11 -13 -11 -8 0 -21 -8 -30 -18 -16 -17 -17 -112 -20 -1136 -2 -1057 -3 -1118 -20 -1127 -9 -6 -15 -14 -13 -18 9 -15 -50 -61 -82 -64 -18 -2 -35 -7 -39 -10 -12 -12 -94 -7 -150 9 -30 9 -52 18 -50 21 3 2 -5 20 -19 40 -13 19 -26 49 -29 67 -9 52 -11 1716 -1 1716 4 0 5 17 2 38 -4 20 -8 51 -10 69 -1 17 -8 38 -15 47 -7 8 -14 27 -17 42 -3 15 -12 43 -21 63 -9 20 -15 42 -14 48 1 7 -4 10 -13 7 -10 -4 -17 2 -22 20 -3 14 -12 30 -20 37 -8 6 -11 16 -7 22 3 5 2 7 -4 4 -5 -4 -23 7 -38 23 -16 17 -25 30 -20 30 5 0 -10 14 -33 31 -23 17 -49 28 -57 25 -8 -3 -15 -1 -15 4 0 6 -7 10 -15 10 -8 0 -15 5 -15 10 0 7 -8 7 -22 -1 -13 -6 -20 -8 -16 -4 12 13 -12 35 -38 35 -13 0 -24 4 -24 9 0 13 -35 19 -54 9 -11 -6 -16 -6 -14 2 2 8 -21 13 -67 16 -38 2 -100 7 -137 10 -50 4 -68 2 -68 -6 0 -9 -11 -11 -36 -7 -23 4 -37 2 -40 -6 -2 -7 -20 -12 -40 -13 -26 0 -42 -8 -59 -28 -14 -17 -29 -25 -36 -20 -8 5 -9 3 -4 -6 5 -8 3 -11 -6 -8 -8 3 -25 0 -39 -8 -14 -7 -33 -15 -43 -18 -10 -3 -16 -10 -13 -15 3 -5 -7 -17 -22 -27 -33 -22 -48 -40 -67 -81 -8 -18 -19 -33 -25 -33 -6 0 -8 -4 -5 -10 3 -6 -1 -7 -9 -4 -12 5 -16 0 -16 -19 0 -13 -7 -30 -15 -37 -14 -11 -37 -75 -41 -110 0 -8 -2 -19 -4 -25 -1 -5 -1 -20 -1 -32 1 -11 -3 -24 -8 -28 -13 -7 -15 -55 -3 -55 5 0 5 -28 0 -62 -4 -35 -7 -425 -7 -868 0 -443 -3 -814 -7 -825 -14 -37 -68 -85 -102 -91 -23 -4 -32 -11 -28 -20 3 -8 1 -14 -4 -14 -6 0 -10 5 -10 11 0 8 -5 7 -16 -2 -12 -10 -22 -10 -50 0 -18 7 -38 10 -43 6 -5 -3 -12 -1 -16 5 -3 5 -15 10 -26 10 -10 0 -29 12 -42 26 -12 15 -28 33 -35 40 -8 9 -9 15 -2 19 7 4 7 11 2 18 -5 7 -11 19 -12 27 -2 8 -6 508 -9 1110 -6 1018 -7 1098 -23 1122 -18 27 -95 68 -129 68 -11 0 -19 5 -19 10 0 11 -109 14 -111 3z m1496 -453 c3 -6 -1 -7 -9 -4 -18 7 -21 14 -7 14 6 0 13 -4 16 -10z"/>
</g>


</svg>