<svg xmlns="http://www.w3.org/2000/svg" viewBox="136 91.00007629394531 329 65.99992370605469"><path fill="#CB0F19" fill-rule="evenodd" d="M136.138 153.588l15.447.068.137-50.426 24.825.137c6.552.204 17.033-1.16 19.447 5.117 3.31 8.462-4.483 11.805-11.516 11.737h-25.032v11.873l20.687.068 15.723 22.45h18.136l-16.274-23.542c3.654-2.115 13.584-3.684 14.067-17.741.759-25.52-28.342-22.108-42.271-22.245H136l.138 62.504zm119.85-61.753c23.307 0 42.133 14.193 42.133 31.661 0 17.469-18.826 31.662-42.134 31.662-23.307 0-42.133-14.193-42.133-31.662 0-17.468 18.894-31.661 42.133-31.661zm0 12.146c14.343 0 25.997 8.734 25.997 19.515s-11.654 19.516-25.998 19.516c-14.343 0-25.997-8.735-25.997-19.516.07-10.781 11.654-19.515 25.997-19.515zm46.27 32.275l-.137 13.102c10.62 7.642 64.89 14.534 69.096-7.711 5.172-27.43-38.272-20.403-51.512-24.087-4.827-1.365-6.69-4.845-2.896-8.393 6.895-6.346 29.652-4.504 39.513-.887l10.895 4.23V99.75c-10.206-6.346-39.582-8.052-52.201-3.343-6.62 2.456-13.999 7.574-14.895 15.216-1.104 9.212 6.62 14.057 13.516 16.65 11.654 4.435 33.79 2.115 40.547 5.254 4.758 2.252 2.345 6.823-1.517 8.666-18.964 8.939-49.581-6.005-50.409-5.937zm74.475 0l-.138 13.102c10.62 7.642 64.89 14.534 69.097-7.711 5.172-27.43-38.272-20.403-51.512-24.087-4.827-1.365-6.69-4.845-2.896-8.393 6.895-6.346 29.652-4.504 39.513-.887l10.895 4.23V99.75c-10.206-6.346-39.582-8.052-52.201-3.343-6.62 2.456-13.999 7.574-14.895 15.216-1.104 9.212 6.62 14.057 13.516 16.65 11.653 4.435 33.79 2.115 40.547 5.254 4.758 2.252 2.345 6.823-1.517 8.666-18.964 8.939-49.512-6.005-50.409-5.937zm74.062-41.76H465V157h-14.205V94.496z"></path></svg>