<svg xmlns="http://www.w3.org/2000/svg" fill-rule="evenodd" clip-rule="evenodd" image-rendering="optimizeQuality" shape-rendering="geometricPrecision" text-rendering="geometricPrecision" viewBox="0 0 13000 6400"><path fill="#1f1f1f" fill-rule="nonzero" d="M133 5760l178-845h627c146 0 234 1 263 4 28 3 54 12 78 29 28 19 45 46 50 80 4 34-1 88-16 161-13 62-26 107-40 136s-33 52-58 69c-27 19-64 31-112 38 54 4 90 20 108 47 10 16 15 35 14 58-2 23-10 71-25 145l-17 78H928l9-45c10-47 16-81 16-101 1-20-2-35-10-46-7-10-19-16-35-19s-51-4-105-4H438l-45 215H133zm269-1344h1489l847-4052H1250L402 4416zm3834 0h1488l848-4052H5083l-847 4052zm-1901 0h1489l847-4052H3182l-847 4052zM482 5334h365c64-1 102-2 114-4 13-1 24-4 34-9 12-7 22-18 30-31 7-14 14-35 20-63s8-49 5-62c-2-14-9-24-21-30-8-4-18-6-31-7-12-1-48-2-108-2H526l-44 208zm977-419h273l-178 845h-272l177-845zm961-13c184 0 309 4 376 14 97 13 148 60 153 140 4 56-8 149-36 281-27 132-55 226-82 281-39 81-110 128-212 141-71 9-197 14-379 14-185 0-312-5-379-14-96-13-147-60-153-141-3-55 9-150 37-286 28-129 55-221 81-276 40-80 111-127 213-140 70-10 197-14 381-14zm-45 220c-138 0-221 4-250 11-34 8-59 26-75 55s-33 86-51 171c-11 52-16 89-15 113 1 42 27 67 78 73 38 5 112 8 223 8 105 0 174-2 210-6 35-4 62-12 81-25 18-11 32-28 42-51 10-22 20-59 31-110 13-61 20-106 22-134 2-29-1-50-9-65-10-18-30-29-61-33-30-5-106-7-226-7zm581 358h251c-9 42-7 69 8 81 11 8 26 12 46 14 19 1 81 2 186 3 109 0 175-1 197-2 23-1 41-4 55-10 21-8 35-29 42-64 5-25 2-41-10-50-12-8-38-13-79-14-32 0-99-2-202-7-105-5-173-8-205-9-62-2-108-8-140-18-31-9-54-25-68-47-24-36-27-97-10-182 20-96 53-163 98-202 34-31 81-50 140-59 60-8 178-13 355-13 125 0 212 4 261 11 76 11 125 32 148 65 22 32 25 87 9 164-2 7-5 20-9 39h-251c4-23 5-39 4-48s-6-16-14-21c-10-7-29-11-56-13-28-2-88-3-179-3-111 0-178 4-204 10-25 7-41 26-48 57-6 30 2 48 25 55 19 5 109 10 271 15 137 4 228 9 273 15 45 5 80 16 104 32 27 18 44 44 50 76 6 33 2 79-10 140-17 80-40 139-70 178-22 28-49 50-81 64s-75 23-128 28c-57 5-162 8-315 8-128 0-222-4-281-10-60-7-103-19-131-36-28-18-45-42-51-71-6-30-2-75 10-136l9-40zm1245-565h259l-81 388c-18 89-26 146-26 169-1 33 16 55 50 65 35 11 107 16 217 16 90 0 153-3 189-8 35-5 62-15 80-31 12-11 21-23 28-39 7-15 16-41 26-79 10-37 17-69 23-93l81-388h259l-81 388c-32 135-54 224-69 265-25 71-70 123-135 156-37 19-86 32-147 39-61 6-160 10-297 10-102 0-181-2-236-6s-102-10-141-20c-86-21-128-76-125-163 1-34 4-64 8-91 4-28 17-91 37-190l81-388zm1221 0h272l-132 629h605l-46 216h-877l178-845zm936 0h942l-41 198h-687l-26 123h652l-39 185h-652l-28 136h691l-43 203h-947l178-845zm1028 0h454l313 630h27l127-630h263l-178 845h-450l-315-630h-28l-127 630h-264l178-845zm1154 565h251c-9 42-6 69 9 81 11 8 26 12 45 14 20 1 82 2 186 3 110 0 176-1 198-2s41-4 54-10c21-8 35-29 43-64 5-25 2-41-10-50-12-8-38-13-80-14-32 0-99-2-201-7-105-5-173-8-205-9-62-2-109-8-140-18-31-9-54-25-68-47-25-36-28-97-10-182 20-96 53-163 97-202 35-31 82-50 141-59 60-8 178-13 355-13 125 0 212 4 261 11 76 11 125 32 147 65 23 32 26 87 9 164-1 7-4 20-9 39h-251c4-23 6-39 4-48-1-9-5-16-13-21-10-7-29-11-57-13s-87-3-179-3c-110 0-178 4-203 10-26 7-42 26-48 57-6 30 2 48 25 55 18 5 109 10 271 15 137 4 227 9 273 15 45 5 79 16 103 32 28 18 44 44 50 76 6 33 3 79-10 140-16 80-40 139-69 178-23 28-50 50-81 64-32 14-75 23-128 28-57 5-162 8-315 8-128 0-222-4-282-10-59-7-103-19-130-36-28-18-45-42-51-71-6-30-3-75 10-136l8-40zm1250-565h942l-42 198h-686l-26 123h652l-39 185h-652l-29 136h692l-43 203h-947l178-845z"></path><path fill="#ef6b00" d="M13000 0l-1036 4868c-177 842-1016 1532-1864 1532L0 6397l7-32 10059-114c803 0 1597-653 1764-1451L13000 0zM6146 4416h1488l413-1971c-461-179-788-625-788-1147 0-374 167-709 431-934h-697l-847 4052zM8498 364c519 0 939 418 939 934s-420 934-939 934-940-418-940-934 421-934 940-934z"></path></svg>