<svg xmlns="http://www.w3.org/2000/svg" viewBox="8 62.39999771118164 584.0214233398438 125.20001220703125"><path fill="#008bd2" fill-rule="evenodd" d="M186.2 116.6l4.3-16.9s-20.9 8-67 3L172 62.4h-27.2L121.2 82l-38.3 33c7.1.6 13.7 1.4 19.6 2.4 57.8 9.1 83.7-.8 83.7-.8zm-60.4-54.2h-24.6l-42 34.9c-26.5 1-40 6.9-40 6.9l-4.3 16.9c13.5-5.9 32.5-7.5 50.9-7.1l60-51.6zm14.4 89.7l-42.7 35.5H71.8l63.8-52.6c32.9 1.3 47.9-4.4 47.9-4.4l-4.3 16.9c.1 0-12.3 4.7-39 4.6zm-86.5 35.5H26.8l52.7-41.4C32.2 141.5 8 152 8 152l4.3-16.9s29.7-12.9 87.6-3.8c6.4 1 12.7 1.8 19.1 2.5l-65.3 53.8zM230 149.4c-4.2 0-8-.4-11.3-1.1-3.3-.7-6.2-1.6-8.6-2.7l2.6-11.9h1.4c2.3 2.1 5 3.1 8 4.2 3.1 1.1 6.4 1.7 9.9 1.7 3.6 0 6.3-.5 8-1.5 1.7-1 2.6-1.8 2.6-3.6 0-.7-.1-1.3-.4-1.8-.3-.5-.8-1-1.6-1.5s-1.9-1-3.3-1.4c-1.4-.5-3.2-1-5.4-1.6-2.4-.7-4.6-1.4-6.5-2.2-1.9-.8-3.5-1.7-4.9-2.8-1.3-1.1-2.4-2.3-3.1-3.8-.7-1.4-1-3.1-1-5.1 0-5 2.2-8.9 6.6-11.9 4.4-3 10.3-4.4 17.9-4.4 3.7 0 7.1.3 10.3.9 3.2.6 6 1.4 8.3 2.4l-2.4 11.4h-1.4c-1.7-1.6-4-2.3-6.8-3.4s-5.9-1.6-9.2-1.6c-3.3 0-5.8.5-7.6 1.4-1.8 1-2.7 1.6-2.7 3.3 0 .8.1 1.4.4 1.9.3.5.8 1 1.6 1.5.7.4 1.8.9 3.4 1.4 1.5.5 3.3 1.1 5.4 1.6 5.5 1.5 9.5 3.2 11.9 5.2 2.4 2 3.5 4.7 3.5 8.1 0 2.9-.6 5.4-1.9 7.5-1.3 2.2-3 3.9-5.3 5.3-2.4 1.4-5.1 2.5-8.1 3.2-3 .9-6.5 1.3-10.3 1.3zm68-18.6l-2.5-18.1-15.4 18.1H298zm18.8 17.5h-16l-1.4-10.3h-25.7l-7.1 10.3H252L291.8 98h16.5l8.5 50.3zm61.1.2h-14l-20.8-34.4-8.1 34.4h-15.1l11.7-49.6H350l17.7 28.7 6.7-28.7h15.2l-11.7 49.6zm57-49.6l-2.2 9.2h-23.9l-2.1 8.7h22.2l-2.1 9.3h-22.3l-2.9 12.3h24l-2.1 9.3h-37.2l11.4-48.8h37.2zm34.3 14c-.1-1.8-.9-3.2-2.4-4.1-1.5-.9-3.8-1.3-6.7-1.3h-5.5l-3.1 14.1h4.9c4.2 0 7.4-.8 9.6-2.3 2.2-1.4 3.3-3.6 3.2-6.4zm14.6-.8c.2 6-2.2 10.8-7.3 14.5-5.1 3.7-12.4 5.5-21.8 5.5h-5.2l-3.4 16.4h-13.8l10.4-50.3h19.1c3.5 0 6.5.2 9.1.7 2.6.5 4.9 1.2 6.8 2.3 1.9 1.1 3.4 2.6 4.4 4.3 1 1.7 1.6 3.9 1.7 6.6zm108.2-1.3c.2 4-1 7.4-3.7 10.2-2.7 2.7-6.4 4.8-11.1 6.2l14.3 21.3h-20l-13.4-19.9c4.8-.1 8.8-.7 13.4-4.5 2.1-1.7 3.1-4.1 3.1-7.2 0-2.5-.7-4.2-2.1-5.3-1.4-1-3.5-1.5-6.3-1.5H559l-4.1 17.6h-.1l-3.8 20.8h-14.8L547 98.2h22.4c7 0 12.5 1 16.4 3.1 3.9 2.1 6 5.3 6.2 9.5zm-79.2 20l-2.5-18.1-15.4 18.1h17.9zm18.8 17.5h-16l-1.4-10.3h-25.7l-7.1 10.3h-14.5L506.6 98h16.5l8.5 50.3z" clip-rule="evenodd"></path></svg>