<svg xmlns="http://www.w3.org/2000/svg" viewBox="215 7 170 235"><g fill="none" fill-rule="evenodd"><path fill="#0B0C0B" d="M237.944 214.693h-4.992c-.208-1.42-.728-2.537-1.664-3.248-.936-.71-2.184-1.218-4.056-1.218-1.456 0-2.912.507-3.848.913-.936.711-1.456 1.422-1.456 2.335 0 1.624 2.392 2.842 6.76 3.756h.208c3.848.914 6.448 1.624 7.696 2.842 1.248.914 1.976 2.335 1.976 4.467 0 2.538-.936 4.466-2.6 5.888-1.976 1.42-4.576 2.131-7.904 2.131-3.64 0-6.448-.71-8.424-2.131-2.184-1.422-3.12-3.553-3.64-6.294h5.512c0 1.421.52 2.538 1.664 3.553 1.248.913 2.912 1.218 4.784 1.218 1.664 0 2.912-.203 3.848-.71.936-.711 1.456-1.625 1.456-2.538 0-1.422-1.976-2.538-5.512-3.249-.728-.203-.936-.203-1.248-.507-3.848-.71-6.448-1.625-7.696-2.843-1.248-.913-1.664-2.537-1.664-4.67 0-2.334.728-4.263 2.6-5.684 1.664-1.218 4.368-1.929 7.488-1.929 3.328 0 6.032.711 7.904 2.132 1.872 1.32 2.808 3.249 2.808 5.786zm22.36 3.35c-.936.914-2.912 1.624-5.512 2.132-.728.203-1.248.203-1.456.203-1.976.508-3.12.914-4.056 1.624-.728.71-.936 1.624-.936 2.842 0 1.219.208 2.132 1.248 2.843.936.913 1.976 1.218 3.328 1.218 2.392 0 4.368-.71 5.512-2.132 1.248-1.42 1.976-3.756 1.976-6.598v-2.132h-.104zm5.304-1.421v8.73c0 1.218.208 2.335.208 3.553.208.914.52 1.929.936 2.842h-5.72c-.208-.71-.52-1.218-.52-1.928 0-.508-.208-1.219-.208-1.93-1.248 1.625-2.6 2.843-4.056 3.554-1.456.71-3.12 1.218-5.096 1.218-2.6 0-4.576-.71-6.24-2.132-1.664-1.421-2.392-3.248-2.392-5.685 0-1.218.208-1.928.52-2.842.208-.71.728-1.624 1.456-2.132 1.456-1.42 4.576-2.334 9.36-2.842h1.456a10.611 10.611 0 003.848-1.218c.728-.508.936-1.218.936-2.132 0-1.218-.52-1.929-1.456-2.538-.728-.507-2.184-.913-3.64-.913-1.664 0-3.12.507-4.056 1.218-.936.71-1.664 1.624-1.976 2.842h-5.512c.52-2.538 1.664-4.466 3.64-5.684 1.976-1.219 4.576-1.93 7.696-1.93 3.848 0 6.76.711 8.424 2.336 1.664 1.522 2.392 4.06 2.392 7.613zm20.28-5.888c-2.184 0-3.64.71-4.784 2.335-1.248 1.624-1.976 3.756-1.976 6.294s.728 4.974 1.976 6.294c1.248 1.624 2.6 2.537 4.784 2.537 1.976 0 3.328-.913 4.784-2.537 1.248-1.625 1.976-3.756 1.976-6.294s-.728-4.67-1.976-6.294c-1.144-1.624-2.912-2.335-4.784-2.335zM273.616 195h5.512v16.242c.936-1.624 2.184-2.538 3.64-3.553 1.456-.71 3.12-.914 5.096-.914 2.912 0 5.512 1.219 7.696 3.553 1.976 2.538 2.912 5.685 2.912 9.44 0 3.757-.936 6.802-3.12 9.137-1.976 2.538-4.576 3.756-7.696 3.756-1.976 0-3.64-.508-5.096-1.421-1.456-.71-2.6-2.132-3.328-3.96v4.467h-5.512V195h-.104zm54.392 25.784H308.04c0 2.538.728 4.467 2.184 5.685 1.456 1.42 3.328 2.131 5.512 2.131 1.456 0 2.912-.203 3.848-.913 1.248-.71 1.976-1.421 2.6-2.538h5.512c-.936 2.335-2.392 4.264-4.368 5.38-2.184 1.421-4.576 2.132-7.488 2.132-4.056 0-7.488-1.218-9.88-3.553-2.392-2.335-3.848-5.38-3.848-9.44 0-3.757 1.248-7.005 3.64-9.441 2.392-2.335 5.512-3.553 9.672-3.553 3.848 0 6.968 1.218 9.152 3.553 2.184 2.132 3.328 5.38 3.328 9.643v.914h.104zm-5.824-3.756c-.208-2.132-.936-3.756-2.184-4.974-1.456-1.218-2.912-1.929-5.096-1.929-1.976 0-3.328.71-4.784 1.929-1.248 1.218-1.976 2.842-2.392 4.974h14.456zm31.616-2.335h-5.304c0-1.42-.52-2.537-1.456-3.248-.936-.71-2.392-1.218-4.056-1.218-1.664 0-2.912.507-3.848.913-.936.711-1.456 1.422-1.456 2.335 0 1.624 2.392 2.842 6.76 3.756h.208c3.848.914 6.448 1.624 7.696 2.842 1.248.914 1.976 2.335 1.976 4.467 0 2.538-.936 4.466-2.912 5.888-1.664 1.42-4.368 2.131-7.696 2.131-3.64 0-6.448-.71-8.632-2.131-1.976-1.422-3.12-3.553-3.328-6.294h5.512c0 1.421.52 2.538 1.664 3.553 1.248.913 2.6 1.218 4.784 1.218 1.664 0 2.912-.203 3.848-.71.936-.711 1.456-1.625 1.456-2.538 0-1.422-1.976-2.538-5.824-3.249-.52-.203-.728-.203-1.248-.507-3.64-.71-6.24-1.625-7.488-2.843-1.248-.913-1.664-2.537-1.664-4.67 0-2.334.728-4.263 2.6-5.684 1.664-1.218 4.056-1.929 7.488-1.929 3.328 0 6.032.711 7.904 2.132 1.976 1.32 3.016 3.249 3.016 5.786zm11.96 13.4V242h-5.512v-34.311h5.512v4.263a9.709 9.709 0 013.328-3.958c1.456-.711 3.12-1.219 5.096-1.219 3.12 0 5.824 1.219 7.696 3.756 2.184 2.335 3.12 5.38 3.12 9.136 0 3.756-.936 6.802-3.12 9.441-1.976 2.335-4.576 3.553-7.696 3.553-1.976 0-3.328-.203-4.784-1.218-1.456-.71-2.6-1.929-3.64-3.35zm6.552-17.156c-1.976 0-3.64.71-4.784 2.335-1.248 1.624-1.664 3.756-1.664 6.294 0 2.842.52 4.974 1.664 6.598 1.456 1.421 2.912 2.335 4.784 2.335 2.184 0 3.64-.914 5.096-2.335 1.248-1.624 1.664-3.756 1.664-6.294 0-2.537-.52-4.67-1.976-6.293-1.248-1.625-2.912-2.64-4.784-2.64z"></path><path fill="#007EC3" d="M300 95.152h85v.516C385 142.014 346.807 180 300 180c-46.6 0-84.792-37.986-84.792-84.332L215 80.39V7h56.978v88.152l39.127 16.515c10.379 4.335 17.54 14.554 17.54 26.012 0 15.483-12.766 28.18-28.334 28.18-15.567 0-28.333-12.697-28.333-28.18V95.152H300z"></path><path fill="#007EC3" d="M385 46.784V11.741C375.877 8.855 366.236 7 356.698 7 309.943 7 272 44.723 272 91h113l-38.876-15.77c-10.574-4.328-17.728-14.532-17.728-26.282 0-15.46 12.752-28.137 28.302-28.137 15.55 0 28.302 12.677 28.302 28.137v-2.164z"></path></g></svg>