<svg xmlns="http://www.w3.org/2000/svg" viewBox="0.5099999904632568 0.2648412883281708 1275.16845703125 374.0023193359375"><g fill="none"><path fill="#252222" d="M.51 306.72c3.72-1.51 6.49-.92 9.73.39 38 15.36 77.56 25.14 118 31.69a856.1 856.1 0 00151.13 11.15c63.05-1 125.49-7.73 186.72-23.56 21.35-5.52 42.59-11.32 62.8-20.41 25.45-11.37 49.83-24.35 69.83-44.26 12.74-12.74 22.48-27 23.58-46 1.21-21.07-8.7-37.06-22.1-51.59-14.41-15.63-32.37-26.4-51.8-36 4-2.11 7.11-.29 9.71.9 21.65 9.9 42.78 20.81 60.91 36.52 12.54 10.87 23 23.51 30.09 38.74 10.12 21.89 5.57 42.18-6.59 61.75-11.53 18.57-28.07 31.44-46.53 42.49-47.15 28.22-98.78 43.88-152.28 53.66-51.78 9.47-104.14 12.63-156.79 12-50.08-.64-99.67-5.45-148.65-15.8-46.77-9.89-92-24.18-133.49-48.71-1.37-.89-2.61-1.81-4.27-2.96z"></path><path fill="#0B559C" d="M1002.38 72.19c-12.52-3.06-23.25-9.36-35-13.22A650.24 650.24 0 00856.61 33.4c-41.75-6.05-83.76-8-125.95-8-55.07.05-109.64 4.54-163.58 15.91-42.62 9-84.3 20.74-122.75 41.92-15.34 8.46-30 18-42.34 30.58-29.35 29.91-30.73 63.19-3.35 94.91 14.17 16.39 32.74 26.92 51.83 36.51 4.14 2.08 5.54 3 8.57 6.7-4.46 1.59-7.37-2.19-10.73-3.69-28.41-12.69-56.11-26.64-77.86-49.77-14.29-15.2-24.29-32.48-23.66-54.09.58-19.86 9.75-36.1 23.14-50.16 21.11-22.19 47.21-36.69 75.08-48.53 43.76-18.58 89.55-29.28 136.35-36.62a769.35 769.35 0 0184.05-8.05 805.54 805.54 0 01128.46 4.7c45 5.15 89.15 13.52 132.08 27.85 25.59 8.54 50.71 18.3 73 34.09a7 7 0 013.43 4.53zm130.28 293.1c-33-.22-59.17-25.29-58.09-57 1.2-35.1 27.47-55.9 59.23-56.52 32.69-.64 58.67 25.53 58.67 56.84a56.18 56.18 0 01-59.81 56.68zm1.89-90.45c-18.37-.14-33.93 15.6-33.72 34.11.21 18.06 15.11 33.76 32.28 34 16.63.25 32.67-15 33-31.32.37-20.51-13.48-36.66-31.56-36.79zM887.72 170.66c.21-32.67 25.73-57.59 59.56-56.35 32.45 1.19 57.54 22.75 57.6 57.65 0 31.74-25.62 56.32-58.12 56.09-35.04-.25-59.24-23.78-59.04-57.39zm26.41-.93c-1.34 18.79 11.74 34 30.63 35.65 16.21 1.39 32.37-13.22 33.65-30.44 1.45-19.44-11.72-36-29.66-37.64-17.94-1.64-35.62 14.42-34.6 32.42l-.02.01zm-15.29 140.22c0-15.61.13-31.21-.06-46.82-.07-6.26 1.39-9.64 8.8-9.09 12.54.92 25.19-.83 37.71.93 14.22 2 24.67 9.51 28.4 23.58 3.49 13.14.22 25-11.34 33.44-3.7 2.68-3.24 4.59-.77 7.91 9.46 12.73 18.59 25.7 27.82 38.61.92 1.28 2.7 2.45 2 4.21-.9 2.47-3.26 1.07-5 1.36-15.55 2.58-27.23-1.57-34.33-17.05-3.7-8.08-10.13-14.88-15-22.45-2.63-4.07-6.11-5.63-10.45-4.23-4.62 1.49-2.11 5.49-2.13 8.48-.06 9.58-.18 19.17.09 28.74.14 5-1.8 6.7-6.77 6.56-22.9-.65-18.65 3.47-19-18-.09-12.09.03-24.14.03-36.18zm25.66-23.09c.08 13.08.08 13.08 11.66 12.95 7.82-.09 13.78-5.22 14-12 .22-6.78-7-12.84-15.19-12.79-10.54.03-10.54.03-10.47 11.84zm274.74 44.86c8.36 5.76 15.38 9.14 23 11.13a33.13 33.13 0 0019.37-.43c3.94-1.33 6.92-3.61 7.68-7.73.83-4.55-1.64-7.92-5.18-10.4-5-3.48-10.76-5.25-16.35-7.45-18.7-7.37-27.7-22.21-24.09-39.46 3.08-14.76 16.9-25 34.59-26.06 8.42-.5 16.2 1.92 24.06 4.18 3.69 1.07 5.3 3.64 4.74 7.47-.71 4.84.09 11-2.6 14.19-3.4 4-7.84-2.13-12.24-2.74-6.31-.88-12.36-2.15-18.41.77-6.46 3.13-7.31 10.11-1.6 14.39 4.65 3.49 10.31 4.82 15.59 7 11.67 4.79 21.5 11.5 26.11 24.23 6.08 16.76-3.61 41.15-27.64 44.12a79.24 79.24 0 01-34.61-3.07c-6.11-1.94-10.61-4.79-10.18-12.58.32-5.03-1.2-10.16-2.24-17.56z"></path><path fill="#0B559C" d="M707.82 195.18c11.59 6.87 22.08 12 34.29 11.27 3.58-.2 7.12-.56 10.22-2.58a9.69 9.69 0 001.62-15.43c-3.36-3.38-7.62-5.2-12.1-6.53a58.47 58.47 0 01-18.82-9.78c-10.76-8.21-15.22-21.41-11.62-33.41 4.07-13.55 16.26-23.11 30.88-24.42 7.75-.7 15.19.62 22.73 2.2 7.08 1.49 10.21 4.44 9.11 12.34-1.65 11.76-1.07 11.61-12.12 8.86-5.73-1.42-11.46-3.53-17.69-1.27-4.41 1.6-7 4.39-7.65 8.69-.65 4.08 2.08 6.33 5.39 8.29 7.77 4.6 16.81 6.18 24.49 11.18 18.91 12.33 22.6 37 7.6 53.16a28.29 28.29 0 01-14 8c-14.42 3.78-28.69 3.35-42.67-2-5.48-2.12-9.06-5.36-8.52-12.16.42-4.87-.61-9.8-1.14-16.41zm45.13 170.29c-21.35.8-39.7-5.91-52.13-23.7-25-35.71-4.75-80.7 39.36-89.26 11.75-2.28 22.88.29 34 2.82 4.51 1 7.67 4.27 6.2 9.72-1.29 4.76 1.48 11.33-2.09 14.09-3.2 2.48-8.25-2.2-12.61-3.37-18.92-5.1-39.77 3.05-45.86 19.3-10.2 27.25 9.42 50.17 38.1 48.1 5.87-.42 12-.87 17.44-4 4-2.28 5.64-.62 4.79 3.79-.25 1.34-.26 2.72-.38 4.09-1.38 15.58-2.61 16.78-18.67 18-2.68.22-5.38.29-8.15.42zm122.66-1.42c-8.38 2.71-12.11-2.56-14.86-11-6-18.42-12.77-36.6-19.34-54.84-.76-2.09-.3-5.74-3.47-5.65-2.8.07-3.1 3.47-3.88 5.67-6.89 19.26-14 38.46-20.32 57.92-2.11 6.5-5.3 8.26-11.78 8.06-15.26-.49-15.33-.19-9.81-14.41 11.333-29.28 22.73-58.54 34.19-87.78 1.88-4.83 3.21-9.67 10.54-8.91 6.56.69 11.41 1.18 14.27 8.87 11.53 31 23.91 61.6 36 92.36 3.83 9.75 3.83 9.75-6.85 9.71h-4.69zm-38.74-209.33c-4.56 12.27-9.21 24.66-13.77 37.08-3.29 9-6.88 17.88-9.53 27.06-1.69 5.89-4.71 7.63-10.59 7.52-15.91-.29-16.2-.16-10.62-14.66 11.57-30.09 23.73-60 35.05-90.13 2.75-7.35 7.88-5.14 12.67-5.49 4.63-.35 7.85.49 9.95 6 12.76 33.13 26 66.08 39.28 99 1.45 3.61 1.15 5.15-2.86 5.24-.54 0-1.09-.05-1.64 0-19.61.72-19.68.75-26.54-18-6.1-16.67-12-33.41-18-50.12-.47-1.29-.55-2.78-3.4-3.5zm165.26 154.72c0-15.6.24-31.2-.13-46.78-.13-5.88 1.52-8.24 7.67-8.54 19-.9 19-1.11 19 17.79 0 20.79.14 41.59-.2 62.37-.09 5.67 1.59 6.88 7.1 6.5 9.81-.67 19.68-.18 29.53-.4 6.06-.14 8.71 1.74 8.4 8.55-.68 15.11-.3 15.12-15.28 15.12-16.41 0-32.82-.14-49.24.1-5.31.07-7.21-1.63-7.1-7.12.32-15.86.12-31.73.12-47.59h.13zM853.22 103.97c-6.2-1.24-12.28-4.18-18.32-7.29-6.65-3.44-12.92-5.48-16 4.47-1.5 4.78-4.84 1.54-7.47 1.21-3-.37-5-1.25-4.38-5.16 2.21-13.21 10.31-24.85 26.67-16.67 3.4 1.7 6.83 3.36 10.33 4.84 6.3 2.65 12.29 4.27 14.57-5.06.88-3.6 3.75-2.2 6.07-1.91 2.32.29 4.88.2 5.59 3.53 1.73 8.25-8.24 21.72-17.06 22.04z"></path><path fill="#FDFDFD" d="M924.5 286.86c-.07-11.81-.07-11.81 10.44-11.86 8.15 0 15.38 6 15.19 12.79-.19 6.79-6.15 11.93-14 12-11.55.15-11.55.15-11.63-12.93z"></path></g></svg>