<svg xmlns="http://www.w3.org/2000/svg" viewBox="94.99996948242188 45.9998893737793 410.0000305175781 159.00030517578125"><g fill="none" fill-rule="evenodd" transform="translate(95 46)"><path fill="#3D4A71" d="M53.781 85.686c23.347 11.455 46.531 12.665 69.555 3.792a90.6 90.6 0 011.696 11.696c.566 2.098 1.373 3.71 2.262 4.84l-7.917 5.082c-5.089 2.743-5.089 7.421-2.989 12.987 4.443 8.873 8.886 17.666 13.33 26.54 3.15 5.646-.404 9.598-5.736 5.323-8.402-7.421-16.884-14.842-25.285-22.264-2.747-3.145-6.544-3.065-11.229 0-8.24 7.744-16.48 15.569-24.8 23.313-4.12 4.275-9.048 1.13-6.948-3.953 4.847-9.76 9.775-19.44 14.622-29.2 2.666-5.163 1.535-9.358-2.504-12.665-8.16-5.808-12.522-7.099-20.762-12.907-5.574-2.178-7.19-16.455 6.705-12.584zm85.63-2.661c6.948-.484 10.26 6.291 5.01 11.938l-4.929 3.227c.323-6.13-.08-10.084-.08-15.165z"></path><path fill="#D2DBF0" d="M125.156 101.671c-2.344-26.337-13.743-47.053-34.196-62.149 3.557-3.131 7.437-6.102 11.641-8.912.809-.562 1.455-1.205 2.021-1.847l8.327 4.015c4.931 2.89 8.973.481 12.692-4.095 5.255-8.351 10.51-16.702 15.845-25.053 3.234-5.54 8.489-4.657 7.519 2.088-2.022 11-3.962 22.001-5.983 33.001-1.212 3.935.809 7.147 5.82 9.556 10.915 3.05 21.91 6.022 32.823 9.073 5.82 1.285 5.659 7.146.242 7.95-10.833.883-21.746 1.766-32.58 2.569-5.82.401-8.81 3.533-9.538 8.591-.728 9.957.404 14.293-.324 24.25.97 6.022-10.428 14.694-14.309.963zM77.46 28.121c-1.86-5.06 2.102-9.716 8.731-8.351l3.476 1.686L77.46 28.12z"></path><path fill="#8792C8" d="M63.507 90.208c3.546-25.147 16.519-45.089 38.758-59.745 8.783-6.567 4.27-15.857-4.754-13.614-8.703 4.725-17.405 9.53-26.188 14.255-4.754 3.123-8.944.961-12.811-3.524-5.64-8.089-11.281-16.097-16.922-24.186-3.464-5.366-8.621-4.245-7.413 2.483 2.498 10.891 4.996 21.703 7.494 32.595 1.45 3.924-.403 7.128-5.318 9.77-10.717 3.524-21.514 7.048-32.23 10.572-5.722 1.522-5.319 7.368.16 7.929 10.878.32 21.676.72 32.553 1.04 5.802.161 8.944 3.044 9.911 8.17.484 3.844.645 6.807.645 9.61 1.611-.32 3.626-.24 6.124.48 3.384 1.522 6.688 2.964 9.991 4.165zm-15.31 9.29l.081.641c-.483 4.725 6.769 10.812 11.442 6.247-3.706-2.163-7.01-3.844-11.522-6.888z"></path><circle cx="93" cy="72" r="15" fill="#3D4A71"></circle><path fill="#3D4A71" d="M367 102.838V41.255c0-6.806 3.179-12.478 8.07-16.61 4.809-4.052 11.33-6.402 17.932-6.645H408v17.34h-14.264c-1.63.081-3.26.649-4.484 1.702-1.222.972-1.956 2.43-1.956 4.295V103H367v-.162zm-11.256-9.124c-16.542 9.835-42.961 13.704-59.824 2.338-6.585-4.434-11.002-10.64-13.49-18.46-1.768-5.643-2.57-12.011-2.41-19.105v-.403c1.365-23.78 19.433-41.595 43.122-39.983 31.076 2.016 35.252 24.667 36.858 50.624h-59.343l.723 2.66c3.694 20.878 31.96 23.458 47.458 8.383l6.906 13.946zm-14.775-40.547c-.803-11.85-8.191-20.233-19.032-20.959-13.812-.242-20.236 9.754-21.842 20.959h40.874zM272.19 36.34c-5.839-2.876-25.055-12.304-30.244.32-2.838 9.667 8.838 12.623 13.784 13.902 10.46 3.915 19.702 11.105 21.162 22.69.649 5.193-.487 10.307-3.162 14.86-2.433 4.155-6.244 7.75-11.108 10.467-10.946 5.992-27.892 6.95-46.622-3.835l8.432-14.062c6.892 3.995 31.136 15.74 34.865-2.876.568-12.703-28.216-8.15-33.73-31.319-1.216-5.033-.891-10.227.892-14.86 1.865-4.874 5.352-9.109 10.46-11.985 9-5.113 23.19-5.672 42.081 3.755l-6.81 12.943z"></path><path fill="#D2DBF0" d="M224.502 122.186c-.729 0-1.377.154-1.944.462-.566.309-1.133.694-1.619 1.234s-.81 1.157-1.133 1.85c-.243.695-.486 1.466-.486 2.237h9.554c0-.849-.081-1.542-.324-2.236a4.973 4.973 0 00-.89-1.851c-.405-.54-.81-.925-1.377-1.234-.486-.308-1.053-.462-1.781-.462zm1.538 15.807c.972 0 1.943-.077 2.753-.232.81-.154 1.7-.462 2.51-.77v2.775c-.648.386-1.538.617-2.51.848-.972.232-2.024.309-3.158.309-1.376 0-2.59-.154-3.805-.54-1.215-.385-2.186-1.002-3.077-1.85-.89-.849-1.538-1.928-2.024-3.239-.486-1.31-.729-2.93-.729-4.858 0-1.85.243-3.47.729-4.858.486-1.388 1.133-2.544 1.862-3.47.81-.925 1.7-1.619 2.753-2.081a7.88 7.88 0 013.239-.694c1.052 0 2.024.154 2.914.54a6.445 6.445 0 012.349 1.773 9.888 9.888 0 011.619 3.161c.405 1.311.567 2.853.567 4.704v1.311h-12.955c0 1.31.162 2.39.567 3.315.323.926.89 1.62 1.457 2.236.648.54 1.376 1.003 2.186 1.234.89.232 1.781.386 2.753.386zm13.36-7.634c0 1.157.08 2.236.324 3.239.243.925.566 1.773 1.052 2.467.486.694 1.053 1.157 1.7 1.542.648.386 1.458.54 2.349.54.647 0 1.214-.077 1.781-.308.486-.155.972-.463 1.376-.694.405-.309.81-.617 1.053-.926.324-.308.567-.617.729-.925v-10.718c-.648-.694-1.377-1.234-2.186-1.696a6.158 6.158 0 00-2.672-.617c-.567 0-1.215.154-1.863.385-.647.232-1.214.694-1.78 1.311-.568.617-.973 1.465-1.377 2.468-.324.925-.486 2.313-.486 3.932zm-3.239 0c0-1.388.162-2.699.405-3.778.243-1.08.567-2.082 1.053-2.853.404-.848.89-1.542 1.457-2.082.567-.54 1.134-1.003 1.781-1.388.567-.386 1.215-.617 1.863-.771a7.56 7.56 0 011.78-.232c1.134 0 2.106.232 2.997.617a6.27 6.27 0 012.267 1.85h.08V109h3.078v31.306h-2.349l-.647-2.313h-.081c-.243.308-.486.694-.81 1.002-.324.309-.729.617-1.133.925-.405.309-.891.463-1.458.694-.567.155-1.214.232-1.943.232-1.053 0-2.024-.154-2.996-.54s-1.862-1.002-2.672-1.85c-.729-.849-1.376-1.928-1.862-3.24-.567-1.31-.81-2.93-.81-4.857zm30.12 10.564c-.971 0-1.862-.154-2.59-.309-.81-.23-1.458-.54-2.025-1.002-.567-.385-1.052-.925-1.457-1.465a8.697 8.697 0 01-.972-1.928c-.162-.54-.324-1.08-.405-1.696-.08-.617-.08-1.311-.08-2.005V119.95h3.076v12.57c0 1.156.162 2.081.405 2.852.324.848.81 1.542 1.538 2.082.729.463 1.62.771 2.672.771 1.134 0 2.105-.308 2.753-.848.729-.54 1.215-1.31 1.539-2.236.242-.694.323-1.542.323-2.622V119.95h3.077v12.646c0 .694 0 1.311-.08 1.928-.082.617-.163 1.157-.325 1.62-.243.693-.566 1.387-.971 1.927-.405.617-.89 1.08-1.539 1.542-.566.463-1.295.771-2.105 1.002-.89.232-1.781.309-2.834.309zm21.457-21.59c.89 0 1.781.077 2.59.308.81.231 1.54.463 2.106.848v2.776c-.81-.308-1.62-.617-2.267-.771a9.781 9.781 0 00-2.105-.231c-.729 0-1.539.154-2.267.385-.73.309-1.458.694-2.025 1.388-.566.617-1.052 1.465-1.457 2.468-.324 1.002-.567 2.313-.567 3.855 0 1.08.162 2.16.405 3.084.243.926.648 1.774 1.215 2.468.566.694 1.214 1.234 2.024 1.62.81.385 1.7.539 2.753.539.728 0 1.538-.077 2.267-.231.81-.155 1.538-.463 2.267-.772v2.776a4.426 4.426 0 01-.89.463c-.325.154-.73.231-1.215.386-.405.077-.89.154-1.377.23-.485.078-.971.078-1.457.078-1.296 0-2.43-.231-3.563-.617-1.133-.385-2.105-1.08-2.915-1.928a9.097 9.097 0 01-2.024-3.315c-.486-1.311-.728-2.93-.728-4.704 0-1.388.161-2.544.404-3.624.243-1.08.567-2.005 1.053-2.853a7.17 7.17 0 011.538-2.082c.567-.54 1.215-1.08 1.944-1.388.647-.385 1.376-.617 2.105-.77a5.981 5.981 0 012.186-.386zm20.647 18.814c-.324.308-.648.694-1.053 1.002-.405.309-.81.617-1.295.926-.486.308-1.053.462-1.62.617a7.227 7.227 0 01-1.862.23c-.89 0-1.781-.153-2.51-.462-.729-.308-1.376-.694-1.943-1.31-.567-.54-.972-1.234-1.296-2.083-.324-.848-.485-1.773-.485-2.775 0-1.003.161-1.928.485-2.776.324-.771.81-1.465 1.377-2.082a5.99 5.99 0 012.186-1.311c.81-.309 1.781-.463 2.834-.463.971 0 1.862.077 2.672.309.81.154 1.538.385 2.186.617h.08v-1.388c0-.54 0-1.08-.08-1.465-.081-.463-.162-.849-.324-1.157-.324-.694-.89-1.234-1.62-1.696-.728-.463-1.78-.694-2.995-.694-.972 0-1.862.077-2.672.308-.81.154-1.7.463-2.51.771v-2.776a8.108 8.108 0 011.133-.462 7.1 7.1 0 011.377-.386c.486-.077.972-.154 1.538-.231.486-.077 1.053-.077 1.539-.077 1.862 0 3.4.385 4.615 1.079 1.214.771 2.105 1.696 2.59 2.93a8.67 8.67 0 01.406 1.542c.08.54.162 1.157.162 1.85v13.726h-2.591l-.324-2.313zm-.162-6.786c-.567-.154-1.215-.308-2.024-.54-.81-.154-1.62-.23-2.591-.23-1.296 0-2.348.308-3.077.925-.729.617-1.134 1.542-1.134 2.776 0 .616.081 1.156.243 1.696.162.463.405.848.729 1.157.324.308.729.54 1.134.694.404.154.89.23 1.376.23.648 0 1.295-.076 1.862-.308a9.399 9.399 0 001.539-.77c.404-.31.81-.54 1.133-.849.324-.308.567-.54.648-.694v-4.087h.162zm17.003-12.028c.89 0 1.782.077 2.591.308.81.231 1.539.463 2.105.848v2.776c-.81-.308-1.619-.617-2.267-.771a9.781 9.781 0 00-2.105-.231c-.729 0-1.538.154-2.267.385-.729.309-1.457.694-2.024 1.388-.567.617-1.053 1.465-1.458 2.468-.324 1.002-.566 2.313-.566 3.855 0 1.08.161 2.16.404 3.084.243.926.648 1.774 1.215 2.468.567.694 1.214 1.234 2.024 1.62.81.385 1.7.539 2.753.539.729 0 1.538-.077 2.267-.231.81-.155 1.539-.463 2.267-.772v2.776a4.46 4.46 0 01-.89.463c-.324.154-.73.231-1.215.386-.405.077-.89.154-1.376.23-.486.078-.972.078-1.458.078-1.295 0-2.429-.231-3.562-.617-1.134-.385-2.106-1.08-2.915-1.928a9.097 9.097 0 01-2.024-3.315c-.486-1.311-.73-2.93-.73-4.704 0-1.388.163-2.544.406-3.624.243-1.08.566-2.005 1.052-2.853a7.17 7.17 0 011.539-2.082c.566-.54 1.214-1.08 1.943-1.388.648-.385 1.376-.617 2.105-.77.81-.31 1.457-.386 2.186-.386zm9.878 21.05v-20.51h3.077v20.51h-3.077zm-.08-25.291v-3.702h3.076v3.702h-3.077zm22.751 15.036c0-1.234-.161-2.39-.404-3.393-.243-1.002-.648-1.85-1.215-2.545-.486-.694-1.133-1.233-1.781-1.542-.729-.385-1.458-.54-2.267-.54-.81 0-1.62.155-2.267.54-.73.386-1.296.848-1.782 1.542-.486.694-.89 1.543-1.214 2.545a14.012 14.012 0 00-.405 3.393c0 1.233.162 2.39.405 3.392.243 1.003.647 1.851 1.214 2.468.486.694 1.134 1.234 1.782 1.542.728.386 1.457.54 2.267.54.81 0 1.619-.154 2.267-.54.729-.385 1.295-.848 1.781-1.542.486-.694.89-1.542 1.215-2.468a14 14 0 00.404-3.392zm3.158 0c0 1.619-.243 3.084-.648 4.395a10.577 10.577 0 01-1.78 3.393c-.81.925-1.701 1.696-2.754 2.236-1.133.54-2.348.77-3.643.77-1.377 0-2.672-.23-3.725-.77a7.81 7.81 0 01-2.834-2.236 10.577 10.577 0 01-1.781-3.393 14.827 14.827 0 01-.648-4.395c0-1.62.243-3.085.648-4.395a10.577 10.577 0 011.781-3.393c.81-.926 1.7-1.697 2.834-2.236 1.134-.54 2.348-.771 3.644-.771 1.376 0 2.59.23 3.724.77a7.81 7.81 0 012.834 2.237 10.577 10.577 0 011.781 3.393c.324 1.31.567 2.775.567 4.395zm7.773-7.403c.405-.462.81-.925 1.215-1.31a9.24 9.24 0 011.376-1.08 5.542 5.542 0 011.7-.694 8.545 8.545 0 012.025-.231c.89 0 1.62.154 2.429.385.728.232 1.376.694 1.943 1.234.567.54.972 1.31 1.295 2.236.324.925.486 2.082.486 3.393v13.725h-3.077v-13.185c0-1.774-.323-3.008-.971-3.856-.648-.77-1.539-1.156-2.753-1.156-1.053 0-2.024.308-3.077.925-.971.617-1.862 1.542-2.51 2.622v14.573h-3.077v-20.51h2.348l.648 2.93zm29.31 15.422c-.323.308-.647.694-1.052 1.002-.405.309-.81.617-1.295.926-.486.308-1.053.462-1.62.617a7.227 7.227 0 01-1.862.23c-.89 0-1.781-.153-2.51-.462-.729-.308-1.376-.694-1.943-1.31-.567-.54-.972-1.234-1.296-2.083-.324-.848-.486-1.773-.486-2.775 0-1.003.162-1.928.486-2.776.324-.771.81-1.465 1.377-2.082a5.99 5.99 0 012.186-1.311c.81-.309 1.781-.463 2.834-.463.971 0 1.862.077 2.672.309.81.154 1.538.385 2.186.617h.08v-1.388c0-.54 0-1.08-.08-1.465-.081-.463-.162-.849-.324-1.157-.324-.694-.89-1.234-1.62-1.696-.728-.463-1.78-.694-2.995-.694-.972 0-1.863.077-2.672.308-.81.154-1.7.463-2.51.771v-2.776a8.108 8.108 0 011.133-.462 7.1 7.1 0 011.377-.386c.486-.077.971-.154 1.538-.231.486-.077 1.053-.077 1.539-.077 1.862 0 3.4.385 4.615 1.079 1.214.771 2.105 1.696 2.59 2.93a8.67 8.67 0 01.406 1.542c.08.54.162 1.157.162 1.85v13.726h-2.591l-.324-2.313zm-.161-6.786c-.567-.154-1.215-.308-2.024-.54-.81-.154-1.62-.23-2.591-.23-1.296 0-2.349.308-3.077.925-.729.617-1.134 1.542-1.134 2.776 0 .616.081 1.156.243 1.696.162.463.405.848.729 1.157.324.308.729.54 1.133.694.405.154.891.23 1.377.23.648 0 1.295-.076 1.862-.308a9.399 9.399 0 001.539-.77c.404-.31.81-.54 1.133-.849.324-.308.567-.54.648-.694v-4.087h.162zm9.068 9.022v-31.306H410v31.306h-3.077z"></path></g></svg>