<svg xmlns="http://www.w3.org/2000/svg" viewBox="0.435546875 0.18000000715255737 994.674560546875 821.9149169921875"><g fill="none"><path fill="#ED433A" d="M721.87.18c14.48 4.5 29.73 5.81 44 11.28 62.66 24.07 103.15 67.38 112.39 135 11.2 81.84-34.6 155.05-112.33 183.64a192.55 192.55 0 01-67.63 12.06c-55.36-.15-110.73-.19-166.09.17-7.92.05-10.16-2.44-9.58-9.94.47-7.676.47-15.374 0-23.05-.23-4.85 1.47-6.55 6.28-6.45 10.76.24 21.52.09 32.29.09h138.4c61.12.12 125.62-46.78 137.21-110.12 8.62-47.12-7.46-86-42.62-117.13-27.93-24.73-60.76-37.42-98.54-37.15-54.13.39-108.27 0-162.4.26-7.16 0-9.93-1.61-9.4-9.14.7-9.79.35-19.66.45-29.5L721.87.18zm-249.23 0c-.09 9.54-.78 19.11-.1 28.59.6 8.3-1.76 10.81-10.41 10.74-53.53-.44-107.07-.21-160.61-.29a129.68 129.68 0 00-23 1.54c-54.26 9.58-93.94 38.5-114.8 90s.37 111.51 49.37 145.73c26.76 18.66 56.35 28.06 89 28 53.23-.06 106.46.13 159.68-.14 7.51 0 11.62.85 10.29 9.79s3.84 21.22-2.07 26.38c-5.16 4.5-17 1.54-25.9 1.55-50.15.06-100.31.58-150.45-.11-59.2-.81-109.23-22.49-145.86-70-55.52-72-38.78-179.21 35.69-234.44 25.46-18.88 53.88-30.4 85.09-35.29 1.75-.27 3.79.15 4.73-2L472.64.18z"></path><path fill="#334E76" d="M995.09 568.81c-1.8.29-2.47 1.76-3 3.16-10.87 29.82-50.22 37.63-76.62 22.79-5.48-3.08-7-21.76-2-24.85 3.58-2.17 4.69 1.54 6.15 3.62 6.05 8.6 13.47 14.88 24.36 16.57 12.587 2.167 24.977-4.755 29.73-16.61 5.38-13.18 2.05-24.06-9.93-31.87-8.8-5.74-19.06-8.31-28.41-12.89-18-8.84-25.07-20.88-23-39.74 1.83-16.4 13.87-29 31.54-33 14.3-3.24 28.05-2.32 40.89 5.37 2.28 1.36 5.57 2.52 4 6.13-2.32 5.22-1.74 12.15-6.74 15.53-3.25 2.2-3.85-2.83-5.16-4.85-6-9.18-14.41-13.32-25.06-12-11.35 1.41-18 7.71-20.3 18.36-1.82 8.55 1 15.74 7.52 21.38 5.92 5.09 13.1 8 20.35 10.52 14.67 5.17 27.86 12.2 35.7 26.51l-.02 25.87z"></path><path fill="#ED433A" d="M620.66 265.24c-35.92 0-63.29-.27-90.65.2-6.44.11-7.91-1.86-7.62-7.67a158.38 158.38 0 00-.1-22.11c-.65-7.17 2.11-8.63 8.81-8.59 51.96.26 103.923.28 155.89.06 13.89-.05 27.55-2.17 40.11-8.78 21.36-11.25 31-31 27.93-57.05-2.6-21.89-16.67-37.41-39.09-43.74-9.88-2.79-19.9-3.66-30.06-3.67-51 0-102.09-.15-153.13.13-6.8 0-9.44-1.59-8.88-8.66.72-9.15-2.79-21.14 1.81-26.79 4.84-5.94 17.29-1.78 26.39-1.82 44.28-.21 88.56-.31 132.83 0 14.38.11 28.8.58 43 4.22 65.86 16.94 79.8 82.42 60.62 127.41-15 35.14-43.85 51.87-80.51 55.64-31.92 3.3-63.92.47-87.35 1.22zM378.53 77.39c28.6 0 57.2.16 85.8-.12 6-.06 9.12.94 8.41 7.87-1 9.68 4.05 22.69-2.08 28.22-5.34 4.81-18.1 1.57-27.57 1.59-43.06.07-86.11-.08-129.16.09-13.83.06-27.57 1.2-40.59 6.71-24.13 10.2-35.25 28.94-33.25 56.55 1.66 23.68 16.63 40.94 41.07 47.14a117.35 117.35 0 0029.19 3.41c50.74-.09 101.48.12 152.21-.23 7.71-.05 10.26 2 9.52 9.69-.68 7-.29 14.14-.05 21.2.16 4.79-1.71 6.45-6.49 6.37-60.55-1.08-121.15 2.21-181.65-1.75-46.33-3-81.11-37.15-84.36-81.34-3.76-51.06 24.32-90.47 71.45-101.66 18.9-4.49 37.86-3.5 56.87-3.7 16.86-.18 33.77-.04 50.68-.04z"></path><path fill="#ED433A" d="M498.46 192.49c-70.73 0-141.46-.11-212.2.15-7.38 0-10.53-1.44-9.81-9.49.77-8.54.43-17.21.18-25.81-.12-4.44 1.47-6.23 5.84-5.8 1.83.18 3.69 0 5.53 0 141.473 0 282.94-.047 424.4-.14 7 0 10 1.4 9.38 9a139.45 139.45 0 00-.1 23c.6 7.36-1.94 9.23-9.17 9.2-58.43-.28-116.86-.14-175.3-.13l-38.75.02z"></path><path fill="#334E76" d="M420.09 821.74c-30.36-.74-56.06-10.77-69-40.14-13-29.56-10.69-58.91 11.53-83.51 21.92-24.28 50.87-28.38 81.36-21.3 38.7 9 59 38 55.08 76.46-4.08 39.84-32.76 66.91-72.56 68.48-2.13.08-4.29.01-6.41.01zm-52.84-72.36a67.53 67.53 0 002.19 22.31c5.87 20.91 18.56 35 40.5 39.27 21.58 4.19 39.58-2.15 52.56-20.07 17.12-23.64 18.54-49.77 8.33-76.13-7.69-19.87-24.22-29.82-45.23-31-21.76-1.21-38.89 7.57-49.61 27-6.53 11.8-9.25 24.66-8.77 38.62h.03zm253.46-7.79c1 .48 1.8.93 2.65 1.25 21 7.84 27.75 16.74 26.78 35.32-.92 17.65-13.75 33.18-31.15 38-7.8 2.17-15.8 2.34-23.73 2.58-10.72.33-21.47-.36-32.2-.29-4.25 0-5.87-1.16-5.86-5.7.13-43.31.06-86.63 0-129.94 0-3 .09-5.64 4.18-5.5 19 .62 38.13-1.55 57 1.32 12.72 1.93 23.84 6.78 26.17 21.67 2.44 15.52-3.06 27.67-15.86 36.57-2.43 1.77-5.19 3.11-7.98 4.72zm-42.79 36.9v12c0 19 0 19 19.07 18.1 18.7-.94 31.2-13 31.48-30.36.27-17.2-9.69-26.74-30-28.59-4.56-.42-9.17-.36-13.74-.76-5-.43-7.2 1.27-6.9 6.68.4 7.58.09 15.26.09 22.93zm0-63.09c1 6.23-3.81 17.46 1.6 21.83 6.2 5 17 .87 25.64-1a14.24 14.24 0 002.51-1.11c12.92-5.49 18.42-15.32 16.42-29.32-1.54-10.62-8-15.72-22.46-17.38-5.16-.6-10.39-.57-15.55-1.2-6.16-.75-9 1.07-8.29 7.87.6 6.07.12 12.25.12 20.3l.01.01zm-25.83-225.14v101.59c0 4.44.73 7.55-6.41 7.71-7.72.17-8.35-2.36-8.32-8.62.2-41.22 0-82.44.26-123.66 0-3.1-2.8-8 2.76-9.3a11 11 0 0111.53 3.56c23.34 25.71 47 51.17 70.51 76.69 6.65 7.2 13.37 14.34 20.35 21.82 2.95-3.62 1.79-7.44 1.81-10.87.107-27.68.107-55.363 0-83.05 0-4.89-.48-8.45 6.87-8.49 7.53 0 7.53 3.25 7.51 8.79-.14 41.53 0 83.06-.13 124.59 0 3 1.84 7.25-2.67 8.78-4.19 1.42-6.62-1.57-9.16-4.41a45953.862 45953.862 0 00-88.79-98.7c-1.45-1.59-2.96-3.1-6.12-6.43zM394.9 599.81c-7.5-.51-14.48-1.46-21.44-.17-4.68.86-6.27-2.67-8.47-5.66-14.35-19.56-28.94-38.93-44.74-57.37-2.23-2.61-4.22-6-8.1-4.65-3.88 1.35-1.81 5.33-1.84 8-.2 17.52-.22 35.037-.06 52.55 0 4.81.08 9-6.66 6.6-4.5-1.59-10.66 3.28-13.43-1.49-2-3.47-.61-9-.62-13.58 0-39 .23-78.07-.21-117.09-.09-7.93 2.29-9.74 9.77-9.44 15.65.64 31.37-.35 47 .53 27.23 1.52 41.25 20.74 32.71 44-4.73 12.87-15.22 19.65-27.36 24.19-10.59 4-10.72 3.78-3.39 13 14 17.527 28 35.03 42 52.51 1.89 2.36 4.26 4.38 4.84 8.07zm-69-132.21v-.23a51.61 51.61 0 01-7.36 0c-7.07-1-8.8 2-8.52 8.75.55 12.89.1 25.82.23 38.72 0 2.4-1.47 6.13 3.14 6.21 11.36.22 22.76.7 33.05-5.62 10.29-6.32 15.4-17.75 12.89-29.12-2.44-11.16-10.24-17.46-23.24-18.67-3.39-.31-6.8-.04-10.18-.04h-.01zM173.88 782.49c0 8.3-.09 16.6 0 24.9.06 3.08-.52 5.25-3.88 6.22-27.82 8-55.85 12.55-84.26 3.5-27.57-8.79-43.53-31.47-45.12-62.92-2.29-45.51 23.88-75.35 70.56-79.7 19.48-1.82 38.68.2 56.74 8.5 2.53 1.16 7.17 1.52 6.29 5.45-1.17 5.27-1.37 11.4-5.39 15.33-2.39 2.35-4.68-1.19-6.7-3-18.46-16.32-39.6-19.78-62.69-12.46-16.48 5.23-26.76 17-31.93 33.09-6.63 20.67-5.88 41.25 3.27 61 6.75 14.56 18.75 23.18 34.32 26.68a82.49 82.49 0 0041-1.31c5.1-1.42 7.49-3.72 7.25-9.61-.53-12.88.07-25.81-.28-38.71-.16-5.91 1.06-7.89 7.66-7.29 13.08 1.18 13.13.65 13.13 13.7.013 5.533.023 11.077.03 16.63zm675.7-219.53c0 6.46-.58 13 .14 19.35.9 7.9-2.11 11.43-9.73 13.31-21.65 5.32-43.34 8.62-65.63 4.93-34.12-5.63-55-28.29-57.89-62.85-4-47.75 24.68-80.54 72.58-83.21 18.34-1 36.19 1.12 53.33 7.89 7.27 2.86 9 17.32 2.52 21.68-3.46 2.32-5.37-1.48-7.45-3.35-16.42-14.77-35.64-18.39-56.65-13.83-20.22 4.4-32.65 17.54-38.47 36.92a84.18 84.18 0 00.76 50.79c6 18.76 18.72 30.64 38.13 34.86a79.32 79.32 0 0041.78-2c4.76-1.52 6.15-3.83 6-8.55-.27-13.21.09-26.43-.19-39.64-.12-5.28.66-7.61 7-7.05 13.77 1.22 13.81.79 13.76 15-.01 5.28.01 10.53.01 15.75zM695.32 819.57c8.06-18.08 15.37-34.62 22.77-51.08 13.267-29.72 26.55-59.427 39.85-89.12 1.09-2.45 1.49-5.24 5.27-5.43 3.78-.19 4.54 2 5.69 4.65 19.627 46 39.293 92 59 138a15.4 15.4 0 01.35 2.83h-20.71c-3.79 0-4-3.11-4.93-5.65-5.46-14.31-11.15-28.54-16.45-42.91-1.73-4.68-4.1-6.62-9.39-6.42-12.29.46-24.61.31-36.91.06-4.56-.1-7.2 1-8.83 5.73-4.41 12.75-10 25.13-13.9 38-2.29 7.6-4.47 12.93-13.77 10.74-1.96-.48-4.2.27-8.04.6zm63.27-113.48l-20 47c12.5 0 23.76-.09 35 0 4.37.06 4.52-2.11 3.18-5.2-5.68-13.14-11.44-26.3-18.18-41.8zM162.2 567.77c0 8.91-.15 17.82.06 26.72.09 4-1.17 5.21-5.3 5.15-15.12-.2-15.12 0-15.12-15.65 0-39 .24-78-.21-117-.1-8 2.33-9.84 9.77-9.4 18.05 1.08 36.21-1.33 54.21 1.85 13.39 2.37 24.46 8 26.69 22.6 2.43 16 1.31 31.6-14 41.91-14.56 9.84-31 13.15-48.22 11.83-6.81-.52-8.43 1.75-8 8.05.52 7.95.13 15.96.12 23.94zm0-71.2v23c0 3 .16 5.54 4.19 5.56 10.79.08 21.56.13 31.23-5.69 11.12-6.7 16.3-19.46 13.36-32.6-2.77-12.4-8.34-16.79-23.73-18.53a109.82 109.82 0 00-11-.74c-14-.17-14-.12-14 14.25l-.05 14.75zM35.02 602.04c-6.65.42-13.19-1.26-19.6-3.47C.11 593.3-3 586.42 3.96 571.86c2.83-5.93 5.24-1.35 6.92 1.29 5.73 9 13.36 15 24.1 16.82 13.51 2.29 26.06-4.92 30.55-17.78 4.84-13.88.33-25.4-13.2-32.19-7.38-3.7-15.18-6.58-22.8-9.82-19.65-8.35-27.81-21.26-25.77-40.78 1.82-17.3 13.71-29.33 32.93-33.65a55.77 55.77 0 0132.57 2.08c11.43 4.31 12.11 5.58 8.14 17.1-1 2.95-.14 7.75-4.25 8.35-3.56.52-4.26-3.86-5.93-6.27-5.92-8.52-15.63-12.63-25.54-10.52-10.69 2.29-17.59 9-19.18 18.59-1.59 9.59 2.94 19 12.91 24.27 7.56 4 15.67 7 23.56 10.35 15.91 6.78 28.22 16.15 27.58 35.84-.64 19.69-11.53 35.7-29.7 42.61a53.13 53.13 0 01-21.83 3.89zm199.07 145.1c0-20.59.26-41.19-.15-61.77-.13-6.52 1.63-9.12 8.18-7.75a9.44 9.44 0 003.67 0c7.06-1.4 9.27 1 9.18 8.51-.4 37.18.05 74.38-.35 111.56-.08 7.39 2 9.67 9.21 9.08 13.46-1.12 27-1.49 40.46-2.44 3.7-.27 7.25-1.07 6.1 4.46-.74 3.62 3.53 9.77-5.19 9.671-21.813-.248-43.63-.248-65.45 0-5.5.069-5.72-2.701-5.7-6.831.14-21.46.09-42.98.04-64.49zm642.5.87c0-20.92.15-41.85-.11-62.77-.07-5.62.83-8.06 7.43-7.77 13 .59 13.07.1 13.07 13.19 0 35.69.24 71.38-.16 107.07-.08 7.53 2.3 9.55 9.39 9 12.56-1 25.17-1.43 37.77-1.92 4.35-.17 8.54-.3 8.85 6.3.26 5.51-.86 7.53-6.83 7.43-20.92-.34-41.84-.27-62.76 0-5.28.07-6.81-1.66-6.75-6.82.24-21.23.1-42.48.1-63.71zm-429-218.87c0-20.9.22-41.79-.13-62.68-.11-6.53 1-9.24 8.5-8.71 12.69.91 12.72.35 12.72 13.52 0 39.64-.14 79.27.13 118.91 0 7.23-.87 11.52-9.44 8.8a8.48 8.48 0 00-4.53.26c-5.89 1.59-7.35-.8-7.27-6.5.28-21.2.11-42.4.11-63.6h-.09z"></path></g></svg>