<svg xmlns="http://www.w3.org/2000/svg" viewBox="-0.02611398696899414 0.10000000149011612 710.1622924804688 439.4617614746094"><g fill="none"><path fill="#242021" d="M223.07 253.23c-2.83-3.38 1-4.86 2.29-6.55 20.07-26.29 40.84-52.05 60.34-78.75 12.62-17.27 27.51-32.76 39.27-50.58 11.94-18.1 27.23-33.51 39.59-51.2 8.52-12.2 17.64-23.91 26.66-35.71 6.12-8 13.65-14.81 18.36-24 2.5-4.89 8.37-1.37 12.5-2.74 2.43.17 4.87.46 7.3.49 12.94.18 25.89.29 38.83.43.04 56.707.087 113.417.14 170.13 0 3.81.25 7.63.39 11.44 1.31 3.37 4.23 1.83 6.37 1.84 16 .14 32 .18 48 0 5-.06 7.2 1.25 7.09 6.84-.34 17.12-.3 34.26 0 51.38.1 5.43-1.75 6.93-7 6.83-16-.29-32 .11-48-.2-5.69-.11-7.22 1.82-7.12 7.37.35 17.8-.06 35.61.28 53.41.12 5.76-1.86 7.31-7.35 7.18-14-.33-28-.42-41.92 0-6.18.18-7.57-2.09-7.47-7.83.34-18 .08-36.06.23-54.09 0-4.07-.79-6.11-5.58-6.09-59.947.147-119.9.193-179.86.14-1.1-.04-2.22.14-3.34.26zm188.55-147.44l-1.58-.77c-6.37 11.44-15.83 20.34-23.87 30.43-12.74 16-23 33.87-37.19 48.74-.8.85-1.79 2-.76 2.82a6.38 6.38 0 003.74.81c18.24.05 36.48 0 54.72.06 3.2 0 5-.72 5-4.45-.1-25.88-.06-51.76-.06-77.64zm152.14-.91a155.26 155.26 0 0141.25-68.48 81.63 81.63 0 0119.07-13.62c15-7.94 30.16-15.89 47.07-19.37a10.93 10.93 0 006.66-.94l9.68-1.21 2.59-.44 2.75-.22 2.36-.29L707.94.1c2.49 1.08 1.92 3.34 1.93 5.27 0 18.49-.11 37 .12 55.47.06 4.77-1.62 5.94-6.2 6.14-20.48.89-40.24 4.25-57.54 16.66-19.53 14-28 33.89-31.78 56.66-1 6 2.81 5.45 6.48 5.45h79.83c9.12 0 9.13 0 9.14 9.19 0 16.23-.33 32.48.2 48.7.24 7.1-2.17 8.64-8.86 8.54-26.61-.38-53.22 0-79.82-.32-6.38-.09-8.05 2-8 8.07.19 30.89.52 61.8-.2 92.68-.71 30.21-8.73 58.78-25.37 84.09a136.63 136.63 0 01-44.3 42.14c-3.46 2.08-4-.85-5-2.32-4.77-6.87-7-14.86-9.72-22.65-3.2-9.14-6.65-18.21-10.45-27.1-1.95-4.55-1.3-7 3-9.82 21.36-13.81 31.53-34.36 34.65-59 2.64-20.88.81-41.85 1.22-62.77.28-14.42-.14-28.85-.24-43.27v-46c.5-11.74.993-23.483 1.48-35.23.09-.9.17-1.8.25-2.7a6.92 6.92 0 001-5.47c1.34-4.87 2.69-9.74 3-14.82a2.75 2.75 0 001-2.81z"></path><path fill="#242021" d="M104.11 3.95c61.05 0 122.11.1 183.16-.17 6.86 0 8.82 1.72 8.6 8.63-.53 16.89-.4 33.8-.07 50.69.11 5.52-1.32 7.33-7.07 7.27-26.35-.3-52.71-.15-79.07-.13-2.7 0-5.39.2-8.09.3-5.86-1.77-6.54 1.32-5.58 5.95-.047 52-.09 103.967-.13 155.9 0 21.6.17 43.19.26 64.78-.13 6.26-.41 12.52-.33 18.78 0 3.46-1.28 4.81-4.7 4.79-15.68-.073-31.347-.073-47 0-3.44 0-4.85-1.37-4.81-4.78 0-2.66-.33-5.33-.52-8 .14-28.86.37-57.71.42-86.56.1-48 0-96.06.23-144.09 0-5.62-1.47-7.59-7.2-7.2-7.18.5-14.42.07-21.64.18-22.25.33-39 10.81-51.76 28.4a37.69 37.69 0 00-5.56 11.17c-1.45 4.84-3.37 6.57-7.88 3.41-12.81-9-27.79-13.74-41.62-20.75-3.87-2-4.56-3.77-3-7.81 10.2-26.52 27.43-47.25 50.93-63A7.73 7.73 0 0056.1 19a.6.6 0 00.73-.36 8 8 0 004.75-2.44l1.82-.82c4-1.18 8.35-1.42 11.29-5l2.44-1.34 26.98-5.09z"></path><path fill="#84AFAA" d="M695.19.31l-2.36.29 2.36-.29z"></path></g></svg>