<svg xmlns="http://www.w3.org/2000/svg" viewBox="176.2540283203125 391.4315185546875 242.76797485351562 36.80621337890625"><g fill="#05315a" fill-rule="evenodd"><path d="M250.527 413.151c-1.658 2.072-5.028 6.02-9.122 5.614-8.652-.858-6.87-14.06 1.125-16.666 5.033-1.64 7.906 1.099 8.992 4.803l15.078.009-1.238 6.212-14.835.028zm112.805-20.29l.208-1.009-14.373-.013c-.744 6.261-1.857 17.167-5.075 22.778-7.042 12.277-33.476 12.205-37.002.587-1.501-4.945 2.749-20.317 3.07-23.25l-13.874-.007c-.257.94-2.453 11.618-2.773 13.411l-12.535-.032 2.524-13.345-14.075-.014-1.555 8.283c-10.383-8.916-19.878-11.455-33.26-5.846-5.854 2.453-7.603 5.494-9.18 6.127-1.436-2.411-5.42-5.102-8.941-6.576-7.773-3.251-19.108-2.957-26.734.23-3.514 1.47-7.665 3.988-9.116 6.74-1.965 3.73.39 7.537 4.92 9.325 9.594 3.787 15.867 2.242 19.698 4.072 8.02 3.832-10.05 9.026-10.935 1.103l-18.07.02c.193 13.564 26.683 14.136 36.39 10.514 4.765-2.042 6.807-4.001 10.763-6.801 1.077.831 2.246 2.464 3.468 3.546 4.15 3.672 9.574 5.297 15.492 5.51 7.225.26 13.49-1.625 19.251-5.354.864-.56 1.445-.987 2.179-1.514l-1.178 6.337 14.188-.021 2.357-12.154 12.245.014-1.962 12.082 122.876.088 2.063-10.963-18.852.017c.516-.378 1-.778 1.581-1.194 4.769-3.41 11.247-7.503 16.212-10.908 5.056-3.467 3.675-1.189 5.695-12.661l-39.135-.014-2.12 10.208 19.002.037c-.78.666-6.477 4.393-7.742 5.254-2.533 1.725-5.401 3.64-7.894 5.31-5.297 3.497-4.066 3.954-8.926 3.967l-13.2.014 4.325-23.898zm-141.974 15.67c-7.542-5.39-16.792-3.393-20.929-4.754-4.794-1.578-3.663-4.71.966-5.608 3.349-.65 8.212-.25 8.712 3.822l13.974.036c-1.202 1.623-1.985 4.221-2.723 6.503z"></path><path d="M320.395 411.733c2.554 3.305 8.316 2.521 11.22 0 2.564-2.226 4.244-15.897 4.795-19.792h-13.423c-.687 3.245-4.006 17.962-2.592 19.792z"></path></g></svg>