<svg xmlns="http://www.w3.org/2000/svg" viewBox="55 68 489 110.99981689453125"><g fill="#00593C" fill-rule="evenodd"><path d="M246.403 167H55l18.682-34 1.613 1.105 1.614.935 1.783 1.02 1.868.935 1.953.935 1.953.935 2.123.935 2.123.765 2.208.85 2.293.85 2.377.68 2.378.765 2.548.765 2.547.595 2.633.68 2.717.68 2.717.51 2.802.595 2.888.51 2.887.425 3.057.51 3.057.34 3.057.425 3.227.34 3.227.255 3.226.255 3.312.255 3.397.17 3.481.17 3.482.085 3.482.085h7.218l3.566-.085 3.652-.085 3.566-.17 3.567-.17 3.566-.255 3.567-.255 3.566-.255 3.567-.34 3.481-.425 3.482-.34 3.482-.51 3.481-.425 3.482-.51 3.396-.595 3.397-.51 3.312-.68 3.312-.595 3.311-.68 3.227-.68 3.312-.765 3.142-.765 3.142-.765 3.142-.85 3.142-.85 2.972-.935 2.972-.85 2.972-.935 2.887-1.02 2.887-.935 2.803-1.02 2.717-1.02zm22.304-40.548l-1.772.59-1.687.505-1.771.505-1.687.421-1.687.421-1.687.337-1.687.337-1.687.337-1.602.253-1.687.252-1.603.169-1.603.168-1.687.085-1.518.084-1.603.084h-1.602l-2.362-.084-2.277-.084-2.193-.169-2.11-.253-2.023-.252-1.94-.421-1.94-.421-1.772-.506-1.687-.505-1.602-.674-1.519-.59-1.434-.758-1.35-.758-1.264-.842-1.097-.926-1.097-.927-.927-.926-.844-1.095-.675-1.095-.59-1.095-.506-1.18-.422-1.263-.253-1.263-.169-1.347-.084-1.348.084-1.432.253-1.432.338-1.516.422-1.516.59-1.6.675-1.6.843-1.6.928-1.6 1.012-1.517 1.097-1.516 1.18-1.516 1.35-1.6 1.35-1.432 1.518-1.516 1.603-1.516 1.687-1.432 1.771-1.432 1.856-1.432 1.94-1.347 1.94-1.348 2.108-1.263 2.194-1.264 2.277-1.263 2.277-1.095 2.446-1.179 2.447-1.01 2.53-1.011 2.615-.927 2.615-.842 2.783-.842 2.784-.758 2.783-.59 2.952-.59 2.868-.505 3.037-.421 3.036-.337 3.121-.253 3.121-.168h5.315l2.108.084 2.109.084 2.024.253 2.109.169 1.94.252 2.024.337 1.94.337-9.278 16.93-.675-.759-.76-.758-.674-.674-.76-.673-.758-.59-.844-.674-.843-.505-.928-.506-.506-.252-.422-.253-.506-.253-.59-.168-.507-.168-.59-.253-.506-.169-.59-.084-.591-.168-.675-.084-.59-.085-.675-.084-.675-.084h-.675l-.759-.084h-.759l-1.265.084h-1.265l-1.266.084-1.265.253-1.18.168-1.182.253-1.18.253-1.181.42-1.181.338-1.097.42-1.096.422-1.012.505-1.097.506-1.012.59-1.012.589-1.013.673-1.012.59-.928.758-.927.674-.844.758-.843.758-.844.842-.843.842-.844.843-.759.926-.76.927-.674.926-.675.927-.674 1.01-.675 1.01-.59 1.012-.591 1.01-.675 1.18-.59 1.179-.506 1.179-.422 1.095-.422 1.095-.337 1.01-.169 1.011-.253.926-.084 1.011-.085.842v.927l.085.758.084.842.169.758.253.674.253.674.421.674.422.59.422.589.59.505.59.505.676.421.759.422.759.337.843.336.928.337.928.253 1.012.168 1.097.169 1.18.084 1.182.084h2.193l.843-.084.928-.084.928-.084.928-.169.927-.084.844-.253.928-.168.928-.253.843-.252.844-.253.843-.253 1.687-.59 1.518-.589 1.519-.59 1.35-.59 1.264-.589 1.097-.59 1.012-.505.844-.505.674-.337.506-.337z"></path><path d="M179.888 70h29.95l-27.554 49.494h16.43l1.37-.085 1.368-.084h1.37l1.369-.085 1.369-.085 1.37-.084 1.368-.085 1.455-.17 1.455-.084 1.54-.169 1.54-.17 1.712-.168L208.897 131H146zm-75.705 61H102.5l-1.768-.084-1.684-.084-1.768-.085-1.684-.168-1.768-.169-1.684-.168-1.684-.168-1.684-.337-1.6-.253-1.599-.337-1.6-.253-1.6-.42-1.515-.338-1.43-.42-1.432-.422 8.335-15.329.59.421.589.421.505.422.673.337.59.42.589.338.673.336.674.422.59.252.673.337.758.337.673.253.758.252.673.253.758.253.758.252.842.253.757.169.758.252.842.169.842.084.842.168.842.169.842.084 1.768.253 1.768.084 1.852.168h3.452l1.43-.168 1.348-.084 1.347-.169 1.179-.252 1.263-.253 1.094-.337 1.01-.337.926-.421.927-.421.757-.421.674-.506.337-.168.336-.253.253-.252.252-.253.253-.253.168-.252.169-.253.168-.253.169-.337.084-.337.084-.337.084-.252v-.59l-.084-.252-.084-.253-.084-.253-.169-.252-.084-.169-.253-.253-.168-.168-.253-.253-.252-.168-.169-.169-.589-.336-.59-.337-.589-.337-.589-.253-1.263-.421-1.094-.421-.758-.253-.758-.253-.757-.252-.842-.253-.842-.337-.926-.337-.926-.252-1.01-.337-1.01-.337-1.095-.421-1.01-.337-.927-.421-1.01-.421-.842-.337-.842-.421-.926-.422-.758-.505-.757-.421-.758-.421-.59-.506-.673-.42-.59-.506-.505-.505-.505-.506-.505-.505-.337-.59-.42-.59-.253-.505-.253-.673-.168-.59-.168-.674v-.59l-.085-.757.085-.674.084-.674.168-.758.253-.758.252-.842.421-.758.421-.842 1.01-1.685 1.18-1.6 1.346-1.516 1.431-1.432 1.6-1.348 1.684-1.263 1.852-1.263 1.852-1.095 2.02-1.095 2.106-1.01 2.189-.843 2.189-.842 2.357-.843 2.357-.673 2.358-.59 2.525-.59 2.442-.505 2.526-.421 2.441-.337 2.526-.337 2.526-.168 2.525-.169L147.71 68h4.883l2.357.168 2.358.085 2.273.252 2.273.337 2.105.337 2.105.421 1.936.506-8.587 15.665-.927-.673-1.01-.674-1.01-.674-1.01-.505-1.095-.59-1.094-.505-1.095-.506-1.179-.42-1.178-.422-1.263-.337-1.263-.337-1.263-.252-1.431-.169-1.431-.168-1.432-.084-1.6-.085-1.346.085-1.263.084-1.179.084-1.094.168-1.095.253-.926.253-.842.337-.842.252-.673.337-.674.337-.505.337-.505.337-.42.337-.338.421-.252.337-.253.337-.168.252-.084.253-.085.253v.674l.085.252.084.253.168.168.169.253.168.253.337.252.252.253.421.169.421.252.505.253.59.253.589.336.59.253.757.253 1.515.59 1.768.589 1.937.674 2.105.674 2.357.842 2.442.758 1.178.42 1.095.422 1.01.421.926.506.926.42.758.506.758.421.757.505.59.506.589.505.505.506.505.505.421.505.337.59.337.505.252.505.253.59.168.59.084.59.085.589.084.59v.589l-.084.59v.589l-.169.59-.168.673-.168.59-.169.59-.252.673-.337.59-.253.59-.337.59-.673 1.094-.758 1.095-.757 1.095-.842 1.01-1.01 1.011-1.011 1.01-1.094 1.012-1.095.926-1.263 1.01-1.263.843-1.43.842-1.348.927-1.431.758-1.6.842-1.515.758-1.684.674-1.684.758-1.684.59-1.768.589-1.852.59-1.852.59-1.852.504-1.937.422-2.02.42-2.02.338-2.021.337-2.021.336-2.189.169-2.105.253-2.105.084-2.188.084zm197.915 11.768l-1.508 11.224h-9.048l10.556-11.224zM307.376 128L268 168h10.221l8.043-8.439h13.488L298.58 168h13.154L315 128h-7.624zm21.348 46.128h-.864l-.951-.084-.52-.084-.431-.084-.433-.084-.432-.168-.432-.168-.346-.168-.346-.168-.26-.168-.086-.168-.086-.168-.087-.168v-.672l.087-.168.086-.252.173-.252.26-.252.259-.252.346-.252.346-.252.432-.252.432-.252.865-.504.95-.42 1.038-.42.951-.336 1.643.588 1.297.504 1.038.42.778.336.605.252.432.252.173.168.173.084.086.084.087.084.173.252.086.252v.42l-.086.168-.087.168-.086.168-.087.168-.345.252-.346.252-.432.252-.52.168-.518.168-.519.168-.519.084-.518.168-.606.084-.518.084-1.038.084h-1.297v.084zm8.3-24.024l.173-.504.26-.588.346-.672.345-.672.433-.672.432-.672.432-.672.52-.672.518-.672.519-.588.605-.504.605-.504.26-.252.345-.168.346-.168.346-.168.346-.084.26-.084h1.297l.258.084.173.084.087.168.086.168.087.168.086.168v.672l-.086.336-.26.336-.173.504-.259.588-.26.672-.345.672-.346.672-.432.672-.433.756-.518.672-.52.672-.518.588-.26.336-.259.252-.259.252-.26.252-.345.252-.346.168-.26.168-.345.168-.346.084-.346.084-.26.084h-.951l-.259-.084-.173-.168-.173-.168-.086-.168-.087-.168-.086-.168v-.672l.086-.336.087-.252-.087-.252zM364 137.672h-12.969l-.346-.084-.432-.168-.519-.084-.605-.084-.692-.084-.778-.084-.865-.084h-2.075l-1.037.084-1.038.084-.95.168-.952.168-.95.168-.865.252-.865.252-.865.252-.778.336-.778.336-.778.336-.778.336-.692.42-.692.42-.691.42-.605.42-.606.42-.518.42-.52.504-.518.42-.432.504-.433.504-.432.504-.346.504-.346.504-.345.504-.087.252-.26.504-.259.504-.172.42-.173.42-.173.504-.087.42-.086.42v1.68l.086.336.087.336.086.336.087.252.086.252.173.252.173.252.173.252.26.252.431.42.433.42.432.336.432.252.779.42.691.252-1.383.672-1.297.756-.692.336-.605.336-.605.336-.519.42-.519.336-.518.42-.433.42-.346.42-.345.42-.26.42-.26.42-.172.42-.087.42v.672l.087.336.086.252.173.252.26.252.259.252.26.252.345.252.346.252.346.252.778.42.951.504-1.816.336-2.075.504-1.124.252-1.124.252-1.21.336-1.124.336-1.124.42-1.037.42-.52.252-.432.252-.432.252-.432.252-.432.252-.346.252-.346.252-.346.336-.26.336-.259.336-.173.336-.173.336-.086.42v.672l.086.336.087.336.173.336.26.336.259.252.259.252.346.252.346.252.432.252.432.252.433.252.518.252.52.168.518.168.605.168.605.168.606.168 1.296.252 1.384.252 1.47.168 1.47.168 1.47.084h3.285l1.815-.084.865-.084.865-.084.864-.084.865-.168.864-.168.865-.168.865-.168.864-.168.865-.168.864-.252.779-.252.778-.252.778-.252.778-.336.692-.336.691-.336.692-.336.692-.42.605-.42.519-.42.518-.42.52-.42.431-.504.433-.504.346-.504.345-.504.26-.504.26-.588.086-.42.086-.42v-1.176l-.086-.42-.087-.336-.086-.336-.173-.336-.26-.336-.259-.336-.26-.252-.345-.252-.346-.252-.346-.252-.432-.252-.432-.252-.433-.252-.519-.252-.518-.252-1.124-.504-1.21-.504-1.298-.504-1.383-.504-1.556-.504-1.557-.504-1.21-.42-.951-.336-.692-.252-.432-.252-.173-.084-.086-.168-.087-.084-.086-.084v-.588l.086-.168.087-.168.086-.168.346-.252.346-.252.691-.42.433-.252.519.084.605.084h2.594l.778-.084.778-.084.778-.084.778-.168.778-.168.778-.168.779-.168.778-.252.778-.252.778-.252.692-.252.691-.336.692-.336.692-.336.691-.42.606-.42.605-.42.605-.42.519-.42.519-.42.518-.504.433-.42.432-.504.432-.504.346-.504.346-.504.346-.504.26-.504.258-.504.26-.504.173-.504.173-.672.086-.588v-.924l-.086-.42-.087-.336-.086-.336-.173-.252 4.842.168 3.458-4.956zm5.213-.09L352 167h12.023l1.47-2.244 1.471-2.16.692-1.08.779-1.164.778-1.08.779-.998.778-1.08.779-.997.865-.998.778-.914.778-.997.865-.914.865-.831.865-.831.606-.582.605-.582.692-.498.606-.499.605-.498.606-.416.605-.415.606-.416.692-.332.519-.25.692-.249.605-.25.606-.165.605-.084.52-.083.605-.083.519.083h.865l.346.083 4.93-8.31-.346-.083-.432-.083h-1.557l-.692.083-.606.083-.605.083-.606.25-.605.166-.692.25-.52.248-.605.333-.692.332-.519.333-.605.415-.606.416-.519.415-.605.416-.52.498-1.037.914-1.125.998-.951.997-1.038.997-1.817 1.995-1.643 1.911 6.747-11.551zM416.965 125l-17.508 6.822.431 3.123L418 132.562 416.965 125zm-18.802 12.904L381 167h12.592l17.25-29.096h-12.679zm48.837.478l-.951-.406-.952-.244-1.038-.244-.951-.244-1.038-.081-1.125-.163h-3.806l-1.47.081-1.47.163-1.471.244-1.384.325-1.384.325-1.384.407-1.384.488-1.297.487-1.298.488-1.297.65-1.211.65-1.125.57-1.21.732-1.125.731-1.038.732-1.125.813-.951.813-.952.813-.951.813-.865.813-.779.895-.778.894-.692.813-.692.894-.692.813-.52.894-.518.895-.519.813-.346.813-.346.813-.26.732-.259.65-.087.488-.086.569-.087.488-.086.487v.488l.086.488.087.488.086.406.087.407.173.406.173.407.26.325.259.325.26.407.345.244.26.325.432.244.346.325.433.244.432.162.433.244.519.163.519.163.519.162.519.081.605.163h.606l.605.163h1.298l.692.081 1.21-.081 1.298-.082 1.211-.08 1.211-.164 1.211-.243 1.211-.244 1.125-.244 1.21-.325 1.125-.244 1.038-.407 1.038-.325 1.124-.325 1.99-.813 1.903-.732-2.163-4.553-.519.244-.865.407-1.124.406-1.298.57-.778.243-.692.244-.692.163-.778.244-.606.162-.692.163-.605.081h-.865l-.346-.081h-.26l-.26-.082-.259-.08-.173-.082-.173-.081-.173-.163-.173-.081-.173-.163-.086-.163-.087-.162-.173-.244-.086-.407v-.975l.086-.244.087-.57.086-.243.173-.488.26-.569.26-.57.345-.65.26-.569.432-.569.346-.65.433-.57.519-.65.432-.569.52-.65.518-.57.606-.65.605-.569.606-.569.605-.569.692-.57.605-.487.692-.569.692-.488.692-.406.779-.488.692-.407.692-.325.778-.406.692-.244.779-.244.778-.244.779-.163.692-.08.778-.164h1.384l.606.082.605.081.52.081.432.082.432.162.52.082.345.162zM451.367 160l.34-.917.427-1.083.512-1.25.682-1.333.768-1.417.853-1.5.938-1.5.938-1.5.512-.75.512-.667.511-.666.512-.667.512-.667.512-.583.511-.583.512-.5.512-.5.511-.417.512-.417.512-.333.512-.25.511-.167.512-.166h1.109l.256.166.256.167.17.167.17.166.086.25.085.25v1l-.085.5-.17.5-.256.667-.342.833-.511 1.084-.597 1.25-.768 1.333-.768 1.417-.852 1.5-.939 1.583-.511.75-.512.75-.512.75-.511.667-.512.666-.512.667-.512.583-.511.584-.512.5-.512.416-.512.417-.511.333-.512.25-.512.167-.511.167h-1.023l-.257-.084-.17-.083-.256-.083-.17-.167-.171-.167-.171-.166-.085-.25-.086-.25-.085-.334v-.416l.085-.417.086-.25zm-11.77-3.417l-.256.667-.17.667-.086.666-.085.667v1.833l.085.5.086.5.17.5.17.5.257.5.255.417.342.417.34.416.342.334.426.333.427.333.426.25.427.25.511.25.512.25.512.25.512.167.597.167.597.166.597.167.682.083.682.084.683.083h1.364l1.45-.083 1.365-.084 1.364-.166 1.28-.25 1.279-.25 1.28-.334 1.193-.416 1.194-.417 1.194-.5 1.109-.5 1.109-.583 1.023-.667 1.024-.667 1.023-.666 1.024-.75.938-.75.853-.75.853-.75.852-.75.768-.834.768-.833.682-.833.682-.834.597-.833.597-.833.512-.834.512-.833.426-.75.427-.75.34-.75.342-.75.256-.75.256-.667.17-.666.085-.667.086-.667L479 145v-1.083l-.085-.5-.086-.5-.17-.5-.17-.417-.257-.417-.255-.416-.256-.417-.341-.417-.342-.416-.34-.334-.427-.333-.427-.333-.426-.25-.512-.25-.512-.25-.511-.25-.512-.167-.597-.167-.597-.166-.682-.084-.683-.166-.682-.084-.768-.083h-2.729l-1.28.083-1.278.167-1.28.25-1.194.25-1.194.333-1.194.417-1.194.417-1.109.416-1.108.5-1.109.584-1.109.583-1.023.583-1.024.667-.938.667-.938.666-.853.75-.853.75-.853.75-.767.75-.768.834-.767.75-.683.833-.597.833-.597.834-.511.833-.512.833-.427.834-.426.75-.341.75-.341.75-.768 1.166zM498.695 122L474 165h12.305L511 122zm13.391 35.926l.085-.408.169-.49.253-.491.253-.49.253-.573.338-.572.338-.572.338-.654.422-.654.422-.654.422-.654.507-.654.506-.654.507-.654.506-.654.591-.654.591-.654.591-.654.591-.572.676-.572.59-.572.676-.49.675-.491.676-.49.675-.41.676-.408.675-.327.676-.245.675-.246.675-.163.676-.082h1.857l.422.082.338.082-.929 1.471-.928 1.39-.929 1.308-.844 1.307-.845 1.227-.844 1.144-.844 1.063-.76.98-1.435 1.717-1.182 1.39-1.013 1.063-.676.735-.422.409-.59.49-.592.49-.675.491-.338.246-.338.245-.422.245-.338.164-.422.163-.337.082-.423.082h-.928l-.17-.082-.168-.082-.169-.082-.169-.081-.169-.164-.084-.163-.084-.164-.085-.245-.084-.245v-.573l-.085-.327zm31.914-18.8l-.76-.246-1.013-.327-1.182-.327-1.35-.327-.76-.163-.845-.164-.844-.163-.929-.082-1.013-.164-1.013-.081-1.098-.082h-2.786l-1.604.163-1.604.164-1.52.245-1.52.327-1.435.409-1.435.409-1.435.49-1.351.49-1.267.654-1.266.654-1.266.654-1.182.736-1.182.736-1.098.817-1.098.818-1.013.899-1.013.899-.929.9-.844.898-.844.9-.844.899-.76.899-.76.9-.675.898-.591.9-.507.899-.507.899-.422.899-.422.9-.338.817-.253.817-.169.654-.169.654-.084.654v1.635l.084.327.085.327.084.327.085.327.169.327.168.245.17.245.253.245.253.246.253.245.253.245.338.245.338.246.338.163.422.164.422.163.422.164.507.081.506.082h2.533l.675-.082.676-.081.675-.164.591-.163.591-.164.591-.163.591-.246.591-.245.591-.245.507-.245.506-.246.507-.245.506-.327.507-.327 1.013-.654.929-.654.929-.735.844-.736.844-.736.76-.735.76-.654.675-.654-4.559 7.929h10.976L544 139.125z"></path></g></svg>