<svg xmlns="http://www.w3.org/2000/svg" viewBox="56.084999084472656 83.5140151977539 488.9150085449219 82.88599395751953"><path d="M262.193 92.557c-6.013-1.279-12.705-2.046-18.887-2.046-12.96 0-29.306 2.813-29.306 18.58 0 22.415 29.983 15.34 29.983 23.097 0 2.897-4.574 3.92-9.74 3.92-6.522 0-13.721-1.278-19.565-3.75v14.915c8.215 1.875 15.16 2.727 23.46 2.727 12.706 0 27.782-3.92 27.782-19.261 0-22.16-29.899-15.17-29.899-22.586 0-3.75 5.93-3.835 9.317-3.835 6.183 0 12.027 1.193 16.94 2.898v-14.66h-.085zm11.858 27.017c4.065-2.046 9.317-3.665 14.23-3.665 5.166 0 10.756.682 10.84 6.222-1.863-.17-5.166-.597-7.961-.597-10.164 0-22.022 2.727-22.022 15.852 0 8.95 7.623 12.614 15.585 12.614 5.844 0 11.095-2.386 13.975-7.244h.17v6.221h19.141v-26.165c0-15.681-14.23-17.812-26.002-17.812-8.046 0-11.688.767-17.787 2.472v12.102h-.17zm25.07 11.932c0 3.664-2.117 7.67-6.352 7.67-3.218 0-4.912-1.193-4.912-4.176 0-4.432 4.997-4.858 9.147-4.858h2.033v1.364h.085zm25.833-25.483v42.954h20.582v-15.596c0-6.307 4.828-11.336 10.503-11.336 1.863 0 3.642.17 4.658.682v-17.3c-.847-.257-2.117-.427-3.388-.427-6.437 0-10.587 4.602-13.043 10.739h-.085v-9.716h-19.227zm42.858 13.55c4.15-2.045 9.316-3.664 14.229-3.664 5.167 0 10.841.682 10.841 6.222-1.863-.17-5.166-.597-7.961-.597-10.249 0-22.022 2.727-22.022 15.852 0 8.95 7.708 12.614 15.585 12.614 5.76 0 11.095-2.386 13.805-7.244h.17v6.221H411.6v-26.165c0-15.681-14.314-17.812-26.087-17.812-8.047 0-11.689.767-17.872 2.472v12.102h.17zm25.155 11.933c0 3.664-2.117 7.67-6.437 7.67-3.219 0-4.828-1.193-4.828-4.176 0-4.432 4.828-4.858 9.148-4.858h2.117v1.364zm25.748 17.556h20.582v-42.954h-20.582v42.954zM439.297 90h-20.582v11.506h20.582V90zm35.742 16.023l-5.336 28.125h-.169l-5.336-28.125h-21.09l12.62 42.954h26.51l12.96-42.954h-20.159zm26.003 13.55c4.065-2.045 9.316-3.664 14.229-3.664 5.167 0 10.757.682 10.841 6.222-1.863-.17-5.082-.597-7.961-.597-10.164 0-22.022 2.727-22.022 15.852 0 8.95 7.708 12.614 15.67 12.614 5.844 0 11.01-2.386 13.89-7.244h.254v6.221H545v-26.165C545 107.131 530.77 105 518.913 105c-7.962 0-11.688.767-17.787 2.472v12.102h-.084zm25.07 11.933c0 3.664-2.032 7.67-6.267 7.67-3.219 0-4.913-1.193-4.913-4.176 0-4.432 4.913-4.858 9.232-4.858h1.948v1.364zm-402.16-36.077l61.071-11.915 11.807 60.772-61.157 11.828zm-67.867 11.742c21.49-20.314 53.852-25.628 62.26-11.142l11.977 61.8c-11.297-14.058-33.126-15.515-62.855 8.571l-11.382-59.229zm6.54 2.315l8.664 46.2c21.405-15.429 41.196-18.172 50.624-11.143L112.655 98c-6.2-6.171-28.285-6.857-50.03 11.486z"></path></svg>