<svg xmlns="http://www.w3.org/2000/svg" viewBox="0 0.7996978759765625 512.8839721679688 186.4962921142578"><g fill="none" fill-rule="evenodd"><path fill="#FCB823" d="M335.103 133.463V35.648c0-33.426 34.921-40.463 59.965-30.963v18.648c-17.284-7.037-36.684-5.277-36.684 16.186h27.866v18.648h-27.866v74.944l-23.281.352zm111.113-108.37H463.5l3.527 14.426h21.518v18.648h-19.048v43.277c0 8.797 3.88 13.019 11.287 13.019h11.993v18.648h-23.28c-15.521 0-23.634-8.444-23.634-24.981V25.093h.353zm-41.624 14.426h23.634v93.593h-23.634zm0-33.778h23.634v19.352h-23.634z"></path><path fill="#FCB823" d="M512.884 133.111c-20.812 32.722-57.144 54.185-98.768 54.185-41.623 0-77.955-21.463-98.767-54.185 24.34 22.519 59.613 36.24 98.767 36.24 39.155.353 74.429-13.721 98.768-36.24"></path><path fill="#000" fill-rule="nonzero" d="M2.822 111.648V98.981c6.702 2.815 14.815 4.223 23.633 4.223 6.703 0 9.877-2.111 9.877-6.334 0-3.87-2.116-5.981-6.702-5.981H18.695C6.35 90.889 0 84.556 0 72.24c0-12.667 9.171-19 27.161-19 7.76 0 14.815 1.055 21.87 3.518v12.667c-6.702-2.815-14.11-4.222-22.223-4.222-8.466 0-12.346 2.11-12.346 6.333 0 3.87 2.47 5.982 7.408 5.982h9.877c13.404 0 20.458 6.333 20.458 18.648 0 12.666-8.818 19-26.102 19-8.819 0-16.226-1.408-23.281-3.519zm59.613 2.815v-60.87h11.993l1.764 7.74c7.055-5.277 14.11-7.74 20.811-7.74 7.76 0 13.052 2.814 16.226 8.444 7.76-5.63 15.168-8.444 21.87-8.444 13.052 0 19.401 7.74 19.401 23.222v37.648h-15.52V76.111c0-6.685-2.822-10.204-8.466-10.204-4.586 0-9.524 2.463-14.463 7.741v40.815h-15.52V76.111c0-7.037-2.822-10.204-8.466-10.204-4.938 0-9.877 2.463-14.462 7.741v40.815H62.435zm103.705-19c0-12.667 8.819-18.648 26.456-18.648 5.291 0 10.23.352 14.11 1.055V74c0-5.278-5.292-8.093-15.874-8.093-6.702 0-13.404 1.056-19.753 2.815V56.407c6.702-1.759 13.404-2.814 19.753-2.814 20.812 0 31.394 6.685 31.394 20.055v40.815h-7.76l-6.702-4.222c-5.291 2.815-10.935 4.222-16.932 4.222-16.579 0-24.692-6.333-24.692-19zm40.565-5.982c-3.88-.703-8.465-1.055-14.11-1.055-7.407 0-11.287 2.463-11.287 7.037s3.175 7.037 9.171 7.037c6.35 0 11.64-1.76 15.874-4.926v-8.093h.352zm30.689 24.982v-60.87h11.993l1.764 7.74c5.29-5.277 10.935-7.74 16.931-7.74v12.314c-5.644 0-10.935 2.463-15.52 7.741v40.815h-15.168zm40.212-70.722h11.288l2.469 9.852h14.11v12.314h-12.346v28.149c0 5.63 2.469 8.444 7.407 8.444h4.939v12.315h-12.699c-10.23 0-15.52-5.63-15.52-16.537V43.74h.352z"></path></g></svg>