<svg xmlns="http://www.w3.org/2000/svg" viewBox="134.9995880126953 60.0000114440918 329.00042724609375 128.99998474121094"><path fill="#EB7F02" d="M306.068 75.87c4.278 0 7.833-3.487 7.833-7.815s-3.495-7.754-7.833-7.754c-4.278 0-7.773 3.486-7.833 7.754a7.808 7.808 0 007.833 7.815m31.153 68.707c3.073 0 5.724-.781 7.773-1.743 2.109-1.022 3.555-2.164 4.278-3.186.482-.661.723-1.503.723-2.344 0-.661-.12-1.323-.482-1.984-.784-1.503-2.35-2.224-3.796-2.284-.241 0-.543 0-.784.06-.783.24-1.325.48-1.868.661-.542.18-1.144.3-2.169.3-1.627 0-2.651-.66-3.314-1.322-.12-.12-1.145-1.382-1.506-2.945-.603-2.585-.663-6.312-.663-8.897.06-.961.06-53.44.06-54.882 0-1.923-1.024-3.486-2.41-4.448-1.386-.962-3.134-1.383-4.88-1.383-1.748 0-3.556.421-4.942 1.383-1.446.902-2.47 2.404-2.47 4.328v62.276c0 3.486.964 7.514 3.555 10.76 2.59 3.246 6.809 5.65 12.895 5.65m30.067-51.215c3.676-5.29 7.533-5.89 9.4-5.89 2.953 0 5.966 1.983 6.87 6.551.12.782.18 1.563.18 2.285 0 3.185-1.205 5.95-3.073 8.055-4.398 4.869-10.544 6.251-17.052 6.973v-1.744c0-5.71.783-12.142 3.675-16.23m-9.7 43.761c4.82 4.569 11.448 7.394 19.703 7.394h.06c4.46 0 8.617-.781 11.75-2.044 1.567-.66 2.832-1.442 3.796-2.344.965-.902 1.627-2.044 1.627-3.306 0-.18 0-.42-.06-.601-.301-2.164-2.049-3.607-4.037-3.547-.482 0-1.024.06-1.506.24-2.471.782-4.821 1.203-7.713 1.203-.844 0-1.627 0-2.591-.12-6.086-.481-9.702-4.148-11.87-7.875-1.085-1.863-1.748-3.727-2.17-5.17-.18-.6-.301-1.202-.422-1.623 8.316-.36 15.546-1.322 22.355-4.929 3.495-1.923 7.773-5.11 10.003-9.437a21.071 21.071 0 002.109-9.077c0-.962-.06-1.864-.241-2.705-1.446-7.995-8.858-14.066-20.427-14.066-8.014 0-18.378 3.185-24.645 12.863-2.41 3.788-5.664 11.061-5.664 20.258 0 2.164.18 4.509.602 6.853 1.447 7.093 4.52 13.405 9.34 18.033m-142.868 5.11c1.386.962 3.134 1.383 4.881 1.383 1.747 0 3.555-.421 5.001-1.383 1.386-.902 2.47-2.465 2.47-4.328V103.76c.061-2.645.784-6.131 2.35-8.896 1.567-2.765 3.857-4.749 7.412-4.749 1.627 0 2.772.541 3.676 1.322 1.386 1.263 2.17 3.307 2.591 5.41.422 2.104.482 4.208.482 5.35v35.587c0 1.983 1.085 3.546 2.53 4.448 1.507.962 3.315 1.383 5.183 1.383 1.868 0 3.736-.421 5.302-1.383 1.507-.902 2.652-2.404 2.591-4.328V103.7c.121-2.645.784-6.131 2.35-8.896 1.627-2.765 3.857-4.75 7.412-4.75 1.627 0 2.772.542 3.736 1.323 1.386 1.263 2.17 3.307 2.59 5.41.423 2.104.483 4.208.483 5.35v35.587c0 1.983 1.085 3.546 2.53 4.448 1.447.962 3.315 1.382 5.183 1.382 1.868 0 3.796-.42 5.242-1.382 1.507-.902 2.651-2.405 2.651-4.328v-33.482c0-8.476-1.687-14.848-4.82-19.116-3.133-4.268-7.773-6.372-13.196-6.372-5.243 0-9.28 2.525-12.112 5.41-1.928 1.984-3.314 4.148-4.278 5.831-1.326-3.426-3.133-6.071-5.483-7.935-2.832-2.224-6.388-3.306-10.304-3.306-6.749 0-11.328 4.088-14.16 7.875v-.36c0-1.985-.965-3.487-2.35-4.45-1.386-.961-3.134-1.382-4.881-1.382-1.808 0-3.555.421-5.002 1.383-1.446.901-2.47 2.404-2.47 4.328v51.456c-.06 1.983.964 3.546 2.41 4.508M310.949 82c-1.386-.962-3.134-1.383-4.881-1.383-1.747 0-3.555.421-4.941 1.383-1.446.902-2.47 2.404-2.47 4.328v51.456c0 1.923.964 3.486 2.35 4.448 1.385.962 3.133 1.383 4.88 1.383 1.748 0 3.555-.421 4.941-1.383 1.446-.902 2.47-2.465 2.47-4.328V86.449c.061-1.983-.963-3.546-2.35-4.448m152.69 26.51c-.06-.361-.3-.662-.602-.722a.939.939 0 00-.964.24s-.181.24-.663.662l-1.928 1.923c-1.748 1.683-4.339 4.028-7.834 6.913-2.47 2.044-5.362 4.268-8.676 6.733-.06-.962-.242-1.864-.422-2.705-.904-3.547-2.953-6.252-5.544-8.416-3.856-3.246-8.797-5.35-12.834-7.694-2.05-1.143-3.797-2.345-5.183-3.727-1.325-1.383-2.169-2.826-2.47-4.629-.06-.36-.06-.661-.06-1.022 0-1.863.723-3.847 2.23-5.29.843-.781 3.253-2.404 6.748-2.404 4.278 0 7.954 1.863 9.942 1.863 2.29.06 4.278-1.322 4.881-3.546.12-.421.18-.902.18-1.323 0-2.525-2.108-4.869-5-5.59 0 0-2.592-.902-8.075-.902-7.652 0-13.92 1.864-18.258 5.17-4.398 3.306-6.869 8.055-6.869 13.465 0 1.503.18 3.065.542 4.628 1.627 6.733 8.256 10.34 14.402 13.586 3.073 1.623 6.086 3.186 8.315 4.809 2.29 1.683 3.736 3.366 4.037 5.41.06.36.06.66.06 1.022 0 1.863-.722 3.546-2.35 4.869-1.626 1.322-4.097 2.284-7.652 2.344h-.362c-3.856 0-7.23-1.082-9.4-2.044a6.276 6.276 0 00-2.832-.661c-2.29 0-4.278 1.563-4.58 3.847-.06.24-.06.42-.06.661 0 1.623.905 3.006 2.11 4.088 1.807 1.563 4.398 2.645 6.869 3.366-26.995 13.465-64.474 25.608-111.896 25.608-47.844 0-85.625-12.383-112.68-26.029 5.544-1.082 10.063-3.306 13.437-6.311 4.76-4.268 7.17-10.1 7.17-16.17 0-1.383-.12-2.766-.36-4.208-.844-4.629-3.375-8.356-6.629-11.361-4.88-4.509-11.449-7.695-16.932-10.88-2.711-1.624-5.182-3.187-6.99-4.87-1.807-1.683-3.012-3.486-3.374-5.47a7.587 7.587 0 01-.18-1.683c0-2.585 1.024-5.35 3.193-7.454 2.17-2.104 5.604-3.607 10.605-3.667 2.712 0 5.905.481 9.641 1.503 1.085.3 2.049.481 2.953.481 2.53.06 4.398-1.383 5.182-3.366a5.456 5.456 0 00.421-2.104c0-1.743-.903-3.186-2.169-4.208-1.265-1.022-2.892-1.683-4.64-2.104-3.434-.661-7.17-1.142-11.087-1.142h-.12c-10.485 0-18.137 2.945-23.078 7.334-5.002 4.388-7.291 10.159-7.291 15.689 0 1.202.12 2.464.361 3.607 1.567 8.055 8.255 13.224 15.064 17.432 6.87 4.148 13.98 7.514 16.691 11.361 1.507 2.044 2.17 4.509 2.17 6.853 0 2.404-.724 4.689-2.11 6.372-2.59 3.126-7.471 5.17-12.653 5.17a19.3 19.3 0 01-9.882-2.706c-.181-.12-.663-.36-.663-.42-7.532-4.87-13.558-9.438-18.137-13.225a118.709 118.709 0 01-7.834-6.913 75.618 75.618 0 01-1.988-1.924l-.663-.66a.939.939 0 00-.964-.241c-.301.12-.542.42-.603.721a35.918 35.918 0 00-.301 4.81v.54c.06 4.93 1.747 8.716 6.267 12.864 1.084 1.082 61.4 62.276 158.233 62.336 96.832 0 157.149-61.194 158.233-62.336 4.52-4.148 6.146-7.935 6.267-12.864v-.54c-.06-1.804-.18-3.427-.362-4.75"></path></svg>