<svg xmlns="http://www.w3.org/2000/svg" viewBox="25 75 549.9998168945312 100"><g fill="none"><path fill="#00447C" d="M550.81 156.933c1.076-5.042 3.23-10.57 9.102-10.57s5.676 5.43 4.6 10.57c-1.077 5.043-3.23 10.57-9.103 10.57-5.872 0-5.676-5.43-4.6-10.57zm23.685 0c2.153-10.085-2.642-16.872-13.213-16.872-10.57 0-18.303 6.884-20.456 16.872-2.153 10.085 2.643 16.873 13.213 16.873 10.57.097 18.303-6.788 20.456-16.873zm-65.185 16l4.11-19.2c1.175-4.654 4.307-7.272 7.342-7.272 4.698 0 4.893 3.878 4.208 7.272l-4.11 19.2h9.591l4.502-20.751c.196-1.067.49-3.103.49-5.043-.196-4.654-5.873-6.981-9.103-6.981-4.893 0-8.319 1.939-10.962 4.848l-.098-.097 3.818-17.745h-9.592l-9.886 45.77h9.69zm-32.495-32h-9.591l-6.852 31.903h9.592l4.11-19.2c1.078-4.654 4.307-7.272 7.342-7.272 4.795 0 4.893 3.878 4.208 7.272l-4.11 19.2h9.591l4.503-20.751c.195-1.067.489-3.103.489-5.043-.196-4.654-5.873-6.981-9.103-6.981-4.893 0-8.319 1.939-10.962 4.848l-.097-.194.88-3.782zm-24.762-13.963l-1.762 8.242h10.277l1.762-8.242h-10.277zm-2.74 13.963l-6.852 31.903h9.592l6.851-31.903h-9.592zm-28.972 0l-1.37 6.4h6.46l-3.328 15.71c-1.468 6.981-.685 10.86 6.753 10.86 1.37 0 6.558-.485 7.733-.97l1.174-5.624c-1.077.097-2.055.194-3.132.194-3.328 0-3.72-1.164-2.838-5.333l3.132-14.837h7.243l1.37-6.4h-7.145l2.055-9.697-10.375 3.394-1.37 6.303h-6.362zm-21.924 0c-.391 2.328-.783 5.043-1.076 6.4l-5.384 25.6h9.592l3.426-15.806c.49-2.133 1.076-3.879 2.447-5.624 1.272-1.358 3.523-2.23 5.187-2.327h4.209l1.86-8.437c-4.796-.097-9.2 1.164-12.333 6.206h-.098l1.077-5.818h-8.907v-.194zm-27.699 9.115c.196-1.454 1.958-4.557 5.286-4.557 3.425 0 3.915 2.618 3.621 3.976l-.685 3.006c-3.817-.097-8.711.097-12.92 1.745-6.362 2.521-8.515 7.855-9.004 10.085-1.37 6.206 2.447 9.697 8.417 9.697 4.405 0 8.026-1.552 10.962-5.236h.098a29.884 29.884 0 00-.587 4.266h8.613c.098-.97 0-1.94.293-3.49l3.72-17.455c2.055-9.6-4.698-11.927-11.158-11.927-3.426 0-6.95.484-9.983 2.036-2.839 1.454-5.188 3.976-6.069 7.951h9.396v-.097zm7.047 7.855c-.783 3.782-2.25 9.6-7.536 9.6-2.74 0-4.306-1.94-3.72-4.558 1.077-5.139 7.929-5.139 11.256-5.042zm-30.635-24.436l.098.097-8.417 39.272h9.298l9.886-45.963h-15.758l-17.716 33.454h-.098l-2.544-33.357h-16.346l-9.787 45.963h9.298l8.417-39.272.196-.097 3.817 39.466h8.32l21.336-39.563zm-96.113 23.466c1.076-5.042 3.23-10.57 9.102-10.57 5.873 0 5.677 5.43 4.6 10.57-1.076 5.043-3.23 10.57-9.102 10.57-5.873 0-5.677-5.43-4.6-10.57zm23.686 0c2.153-10.085-2.643-16.872-13.214-16.872-10.57 0-18.302 6.884-20.456 16.872-2.153 10.085 2.643 16.873 13.214 16.873 10.57.097 18.302-6.788 20.456-16.873zm-57.355-6.885c.195-1.454 1.957-4.557 5.285-4.557 3.425 0 3.915 2.618 3.621 3.976l-.685 3.006c-3.817-.097-8.71.097-12.92 1.745-6.361 2.521-8.515 7.855-9.004 10.085-1.37 6.206 2.447 9.697 8.417 9.697 4.405 0 8.026-1.552 10.962-5.236h.098a29.884 29.884 0 00-.587 4.266h8.71c.099-.97 0-1.94.295-3.49l3.719-17.455c2.055-9.6-4.698-11.927-11.158-11.927-3.426 0-6.95.484-9.983 2.036-2.839 1.454-5.188 3.976-6.069 7.951h9.299v-.097zm7.047 7.855c-.783 3.782-2.252 9.6-7.537 9.6-2.74 0-4.306-1.94-3.72-4.558 1.078-5.139 7.929-5.139 11.257-5.042zm-6.852-22.69c.98-1.552 2.251-2.91 4.111-2.91 1.37 0 2.643.582 4.013 1.164 1.37.581 2.838 1.163 4.404 1.163 4.503 0 7.733-3.588 8.907-7.66h-3.23c-.783 1.357-1.664 2.909-3.425 2.909-1.566 0-2.839-.679-4.21-1.164-1.37-.679-2.74-1.163-4.501-1.163-4.405 0-7.733 3.878-9.2 7.757h3.131v-.097zm-15.464 4.848c1.958-9.213-4.013-14.061-12.92-14.061-9.493 0-20.26 4.655-22.51 15.127-1.763 8.146 6.459 11.055 12.625 12.703 3.72.97 10.277 1.358 9.102 6.788-1.076 4.946-6.557 6.11-10.57 6.11-5.188 0-7.439-3.395-5.97-8.534h-10.18c-2.838 11.54 3.818 15.612 14.388 15.612 9.983 0 20.848-3.976 23.294-15.321 1.958-9.212-8.025-11.152-14.68-12.994-3.818-.97-8.125-1.552-7.048-6.497.881-3.976 4.992-5.915 8.613-5.915 4.796 0 6.851 2.327 6.264 6.885h9.592v.097zM90.5 75H119l-12.298 43.056c-.488-10.642-7.027-23.92-20.301-28.802L90.5 75zm8.98 68.44L90.694 174H62l18.837-65.414c17.569 6.15 20.595 21.87 18.642 34.855zM127.5 75H156l-12.298 43.056c-.488-10.642-7.027-23.92-20.301-28.802L127.5 75zm8.98 68.44L127.792 174H99l18.837-65.414c17.666 6.15 20.595 21.87 18.642 34.855z"></path><path fill="#00A94F" d="M54.15 75H83l-12.45 43c-.493-10.628-7.113-23.889-20.55-28.764L54.15 75z"></path><path fill="#00447C" d="M63.462 144.167L54.448 175H25l19.331-66c18.13 6.206 21.134 22.066 19.131 35.167"></path></g></svg>