<svg xmlns="http://www.w3.org/2000/svg" viewBox="0.07211494445800781 0.26029300689697266 1701.537841796875 383.4097595214844"><g fill="none"><path fill="#080808" d="M1469.85 383.67c.09-9.25 1.37-18.67 0-27.72-3.61-24.88 1.84-36.81 31.49-35.17 29.65 1.64 38.94-18.89 26.56-52.3-25.94-70-52.53-139.82-78.92-209.69-19.43-51.42-19.48-51.4 36-51.4h216.63c-12.13 36.09-23.26 69.78-34.79 103.34-22.27 64.86-44.19 129.84-67.43 194.35-11.74 32.57-25.09 65-61.63 78.59h-67.91zm160.86-280.41c.58-38.61-23.85-64.91-60.88-65.54-34.35-.58-63.5 25.31-64.45 57.25-1.36 45.93 24.33 76.85 63.6 76.53 32.16-.27 61.19-32.36 61.73-68.24zM528.38 276.35c-28.78-13.39-63.43 17-81.38-25.74-31.69 26.09-67.67 37.24-108.81 28.8-36.7-7.54-61.55-32.88-66.07-67.92-4.24-32.87 15.55-66.5 49-81.4 28.55-12.74 59.35-16.22 90.07-18.7 20.31-1.65 38.23-7.18 38.46-30.48.23-23.49-19.18-29.52-38.26-32.06-23.69-3.16-45.06.07-57.38 24.92-4.77 9.63-62.74 17.72-70.3 10.72-4.87-4.5-1.72-9.63 0-14 11.95-31.13 30.32-55.79 65.12-63.77a237 237 0 01104-.94c42.91 9.23 61.41 30.42 64.61 73.83.76 10.23.68 20.54.77 30.82.34 53.3-5.79 106.89 10.17 165.92zm-85.19-131c-22.33 5.28-43.33 9.63-64 15.27-31.15 8.52-42.08 23.66-35.05 46.67 7.18 23.51 33.53 34.4 60.52 25 32.55-11.28 41.64-30.69 38.53-86.91v-.03zM991.38.53c36.83-.06 78 10.76 99.62 58.32 7.63 16.79 6.27 26.43-16.21 25.66-22.81-.79-44.92 5.88-58.6-23.86-9-19.68-57-16.89-72.34.3-12.22 13.71-6.28 30 15.57 36.65 20.59 6.28 42.25 8.93 63.09 14.48 60.05 16 84.54 41.5 82 84.16-2.65 45-38.29 76.4-94.9 84.48a188.73 188.73 0 01-88.27-8.26c-20.19-6.82-36.52-19.24-47-37.95-7.65-13.71-19.78-28.91-9-44.31 7.92-11.36 58.73 1 67.28 14.25 16.63 25.73 62.3 35.54 87.68 18.49 16.27-10.93 17.67-24 4.23-38.53-8.79-9.51-20.07-13.65-32.34-16.63-25-6.06-50.16-11.61-74.52-19.62-29.34-9.65-50.19-28.35-52.22-61.68-1.86-30.67 16.65-59.86 46.51-73.86C933.91 2.33 957.43.17 991.38.53zM118.46.32c47.67.49 90 10 111.26 60.27 7.6 18 3.75 23.58-15.45 23.58-24 0-46.75 5.51-61.15-24.84-8.87-18.7-54.5-15.52-70 .54-14.4 14.88-6.54 32.49 19.37 38.93 31.88 7.94 64.84 11.91 95 25.88 47.73 22.16 60.42 77.65 26.55 118.21-7.74 9.26-17.47 18.39-28.24 23.32-50.52 23.14-101.64 22.41-151.77-1.6-8.93-4.28-17.27-11.73-23.31-19.68-12.23-16.1-27.4-34.35-17.4-54.57 3-6.07 27.06-.6 41.17-2.57 17.17-2.39 22 8.78 29.35 20.41 14.79 23.26 64.1 30.6 86.31 13.81 13.75-10.39 16.9-22.68 4-36.56-9.56-10.28-21.56-14.93-35-18.09-25-5.89-50.3-11.27-74.41-19.86-27.42-9.77-48.66-26.93-50-59.69C3.31 53.15 19.21 28.47 49.3 13.09 70.82 2.09 94.51-.16 118.46.32zM1320.8 239.84c-32.43 35-71 47.31-115.34 36.27-32.6-8.13-53.69-29.36-58.17-64-8.2-63.5-1.52-127.32-4-190.95-.43-11.17 5.32-13 14.94-14.17 55.07-6.78 57.64-4.64 57.8 51.12.11 40.09.5 80.19.92 120.29.28 27.5 12.62 45.33 41.33 47.87 27.38 2.43 53.57-17.58 57.68-44.59 7.47-49 4.41-98.57 3.58-147.84-.36-21.6 5.49-30 27.18-26.84 9.06 1.32 18.54.92 27.72.06 14.15-1.32 17 5.45 17 18.14-.43 77.12-.22 154.24-.2 231.36 0 8.21 1.59 17.08-11.48 16.68-14.39-.44-28.85.72-43.18-.3-23.18-1.66-5.1-22.36-15.78-33.1zM639.17 45.56c21.24-21.93 41.85-35.8 68.34-40.26 68.25-11.46 110.82 21.83 112.4 90.54 1.17 52.41-.49 104.89.89 157.29.47 18.29-5.69 21.8-22.57 21.85-50.58.18-50.52.95-50.6-49.13 0-39.07.34-78.16-.62-117.2-.82-32.83-15.12-49.86-40.93-51.69-28.58-2-54.06 17.7-59 47.19-7.84 47-4.07 94.43-3.54 141.63.24 21.55-3 30.67-27.74 29.46-43.78-2.18-43.89-.4-43.89-43.66 0-62.72.23-125.44-.13-188.15-.11-19.8-4.16-38.29 28-35.78 38.31 2.99 38.51.49 39.39 37.91z"></path><path fill="#DA261D" d="M1630.71 103.26c-.54 35.88-29.57 68-61.73 68.24-39.27.32-65-30.6-63.6-76.53 1-31.94 30.1-57.83 64.45-57.25 37.08.63 61.46 26.93 60.88 65.54z"></path></g></svg>