<svg xmlns="http://www.w3.org/2000/svg" viewBox="0.6001529693603516 0.47095417976379395 617.794189453125 416.42572021484375"><g fill="#0177BF"><path d="M318.17 208.61c-13.94 4.48-28.72 6.57-41.52 14.33-37.48 22.72-57.14 55.53-52.56 99.7 4.37 42.23 29.17 69.84 67.84 85.63 5.42 2.22 11 4 16.2 8.56h-10.48c-60.34 0-120.68.15-181 0-50.76-.16-92.72-26.57-109-68.15-26.36-67.18 24.33-138.6 100-139.74 55.1-.82 110.23-.28 165.34-.09 15.25 0 30.37-.4 45.27-3.92-.09 1.21-.09 2.44-.09 3.68zm5.05-4.27c46.13-20.14 76.2-53.12 71.95-106.61-4.2-52.86-37.93-81.18-87.24-94.88 2.65-3.52 6.07-2.09 8.79-2.1 62.22-.1 124.45-.31 186.67 0 54.71.25 98.56 31.38 111.42 78.38 16.86 61.64-27.64 125.28-94 128.56-64 3.17-128.21.89-192.33 1-2.11-.01-3.69-.69-5.26-4.35z"></path><path d="M318.17 208.61v-3.71c1.07.38 3 .58 3.08 1.18.59 2.46-1.38 2.48-3.08 2.53z"></path></g></svg>