<svg xmlns="http://www.w3.org/2000/svg" viewBox="0.4203009605407715 0.4500004053115845 717.0797729492188 225.24534606933594"><path fill="#E6552F" d="M43.5 1.1C20.6 4.6 7.1 16.5 3.9 35.9 1.6 49.8 5.4 61.4 15 70.4c7.4 6.8 15.2 10.1 38 15.9 25.3 6.6 32 9.8 36.1 18 1.8 3.4 2.1 5.3 1.7 11.2-.9 13.6-9 23.2-23.3 27.8-5.8 1.8-9.2 2.2-20 2.2-14.9-.1-21.8-1.6-33.3-7.2-6.2-3.1-7.6-3.4-9.8-2.5-3.4 1.6-4.8 5-3.5 8.5 1.3 3.4 11.7 8.6 23.6 11.8 10.8 3 33.7 3.2 43.5.5 10.5-2.9 18.4-7.2 24.5-13.7 8.1-8.4 10.8-15 11.3-27.1.6-13.1-1.2-18.4-8.7-25.9-7-7-14.4-10.1-38.2-16.4-26.5-7-35.6-12.1-38.9-22-1.6-5-.9-17.1 1.4-21.7C28 12.1 57.5 7.9 85.2 20.2c8 3.6 11.6 3.2 13.2-1.4 1.4-4-1.5-7.5-9-10.9-12.8-5.8-33-8.8-45.9-6.8zm216-.1c-21.5 3.9-38.7 18.4-46.3 39l-2.7 7.5-.3 52.9c-.3 59-.5 57.6 6.2 57.6 6.8 0 6.6 1.9 6.6-52.7 0-29.2.4-51.2 1-54.4 2.7-13.9 12.5-26.6 25.5-33 6.8-3.3 7.4-3.4 19.1-3.4 11.9 0 12.1 0 19.6 3.8 12.2 6 21.8 17.9 24.7 30.8.6 2.7 1.1 24.3 1.1 54.4 0 55.7-.1 54.5 6.4 54.5 6.9 0 6.6 2.1 6.6-55.1s0-57.2-6.7-70.9c-6.8-13.9-22.2-26.3-37.4-29.9C276.1.5 265.2 0 259.5 1zm161.9 0c-16.8 2.6-33 13.5-41.7 28.1-7.6 12.9-8.2 16.5-8.2 50.4 0 26.3.2 30.7 1.8 36 2.5 8.1 7.8 18 12.7 23.7 5.6 6.5 17.7 14.3 26.3 17 10.1 3.2 26.4 3.1 35.7-.1 17.5-6.1 30.6-19 37.3-36.7 2.1-5.6 2.2-7.6 2.5-37.2.3-25.8 0-32.3-1.3-37.5-4.8-19.1-20.5-35.9-39-41.6C440.3.8 428.4-.1 421.4 1zM449 18.1c9.7 4.7 16.9 11.8 21.8 21.8l3.7 7.5.3 30.2c.3 28.6.2 30.5-1.8 36.5-4.2 12.3-12 21.3-23.5 27-22.4 11-49.6 1.3-60.5-21.6-4.3-9.1-5.3-18.5-4.7-45.9.4-20.4.7-23.8 2.6-29.1 4.6-12.8 14.9-23.4 27.3-28.1 5.4-2.1 7.7-2.4 16.8-2.1 9.7.2 11.1.5 18 3.8zM654.5.6c-16.6 2.2-26.1 4.8-37.1 10-5.5 2.6-7.4 4.1-8.4 6.4-1.1 2.8-1.1 3.4.7 5.8 2.8 3.7 6.6 3.4 17.7-1.3 16.4-6.9 35.6-9.2 49.4-6 12 2.8 18.7 7.8 23.3 17.1 2.7 5.5 3.2 7.6 3.3 14.5l.1 8-4.1 3.8C694 64 686.9 66.2 662 70.5c-22.8 4-31.7 6.3-40.3 10.7-16.1 8.1-23.6 22.8-20.8 40.8 3.6 22.9 19.9 35.1 49.1 36.6 19.1 1.1 36.1-4.8 47.8-16.6l6-6 .4 9.6c.2 8.1.6 9.8 2.2 11 2.5 1.8 6.7 1.8 9.2 0 1.8-1.4 1.9-3.2 1.9-59.3 0-56.9 0-57.9-2.2-64.8-6.3-20-22.5-30.6-48.8-31.9-4.9-.2-10.3-.2-12 0zm49.3 89.1c-.6 16.9-1.7 21.8-7.4 32.3-3.2 5.9-12.3 14.9-18 17.8-8.4 4.3-15 5.5-27.3 5-23.7-1-35.8-10-36.9-27.4C613 98.9 623 91 654.4 85.5c33.3-5.9 37.4-6.8 42.6-9 3-1.3 5.9-2.4 6.4-2.4.4-.1.6 7 .4 15.6zM149 8c-2 2-2 3.3-2 73.8 0 79.7-.3 76.2 6.4 76.2 7 0 6.6 4.4 6.6-76.2 0-69-.1-72.6-1.8-74.1-2.5-2.3-6.8-2.1-9.2.3zm391.4-1.2c-3.3 2.2-3.4 4.9-3.4 75.9 0 78.8-.3 75.3 6.5 75.3 4 0 6.2-2 7-6.3.3-1.8.5-34.3.3-72.3-.3-66.4-.4-69.3-2.2-71.3-1.9-2.1-6.1-2.8-8.2-1.3zM477 150c-1.9 1.9-2 3.3-2 36.5v34.6l2.6 2.5c1.9 2 3.1 2.4 5.2 1.9 5.2-1.2 5.2-1.3 5.2-39 0-32.8-.1-35.3-1.8-36.8-2.5-2.3-6.8-2.1-9.2.3z"></path></svg>