<svg xmlns="http://www.w3.org/2000/svg" viewBox="25.46299934387207 38 550.2611083984375 174.5399932861328"><g fill="none"><path fill="#2870BE" d="M87.196 38c-32.579 53.053 40.075 62.171 40.075 62.171 57.383 8.29 71.266 26.71 71.266 26.71V38H87.196z"></path><path fill="#2EA44C" d="M153.186 147.145C92.101 135.17 80.07 122.276 80.07 122.276 38.235 86.724 69.52 42.882 73.22 38H25.463v174.54H185.58c20.361-54.343-32.394-65.395-32.394-65.395z"></path><path fill="#2870BE" d="M230.475 129.065c-.092 1.47.093 2.48.463 3.216.832 1.287 2.497 1.93 5.087 1.93 1.572 0 2.867-.184 3.885-.552 1.942-.643 3.145-1.837 3.515-3.583.185-1.011-.093-1.838-.832-2.39-.74-.55-2.128-1.01-3.978-1.47l-3.145-.735c-3.145-.735-5.18-1.562-6.29-2.39-1.85-1.47-2.405-3.675-1.757-6.8.555-2.756 2.127-5.145 4.532-6.983 2.405-1.838 5.643-2.757 9.62-2.757 3.33 0 5.92.92 7.955 2.573 2.035 1.654 2.683 4.32 2.035 7.627h-6.29c.278-1.837-.277-3.216-1.572-4.043-.925-.551-2.128-.827-3.608-.827-1.665 0-3.145.368-4.255 1.01-1.202.644-1.85 1.655-2.127 2.85-.278 1.102.092 1.93.925 2.48.555.368 1.85.828 3.792 1.287l5.18 1.287c2.22.55 3.885 1.286 4.903 2.297 1.572 1.47 2.035 3.584 1.48 6.34-.648 2.85-2.22 5.238-4.81 7.076-2.59 1.93-5.92 2.849-9.898 2.849-4.07 0-7.122-.92-9.065-2.757-1.942-1.838-2.59-4.41-1.85-7.627h6.105v.092zm38.943-21.687h7.4l4.44 31.244h-7.123l-.648-6.433h-11.562l-3.515 6.433h-6.845l17.853-31.244zm-4.625 19.481h7.955l-1.295-12.313-6.66 12.313zm27.935-19.481h6.937l7.862 21.779 4.718-21.779h6.105l-6.66 31.244h-6.567l-8.14-22.238-4.718 22.238h-6.105zm55.5 0l-1.203 5.514h-9.435l-5.457 25.73h-6.66l5.457-25.73h-9.435l1.203-5.514zm22.107 28.487c-2.867 2.39-6.567 3.676-11.1 3.676-4.533 0-7.678-1.195-9.528-3.676-2.59-2.94-3.237-7.26-2.035-12.865 1.203-5.697 3.7-10.016 7.493-12.865 2.868-2.39 6.567-3.676 11.1-3.676 4.533 0 7.678 1.195 9.528 3.676 2.59 2.849 3.237 7.168 2.035 12.865-1.203 5.605-3.7 9.924-7.493 12.865zM371.26 123c.74-3.492.555-6.249-.555-8.086-1.11-1.93-2.96-2.85-5.55-2.85s-4.902.92-6.845 2.85c-1.942 1.93-3.33 4.594-4.07 8.178-.74 3.492-.555 6.249.555 8.178 1.11 1.93 3.053 2.849 5.643 2.849s4.902-.919 6.845-2.849c1.942-1.93 3.237-4.778 3.977-8.27zm15.91 6.065c-.093 1.47.092 2.48.462 3.216.833 1.287 2.498 1.93 5.088 1.93 1.572 0 2.867-.184 3.885-.552 1.942-.643 3.145-1.837 3.515-3.583.185-1.011-.093-1.838-.833-2.39-.74-.55-2.127-1.01-3.977-1.47l-3.145-.735c-3.145-.735-5.18-1.562-6.29-2.39-1.85-1.47-2.405-3.675-1.757-6.8.555-2.756 2.127-5.145 4.532-6.983 2.405-1.838 5.642-2.757 9.62-2.757 3.33 0 5.92.92 7.955 2.573 1.942 1.746 2.682 4.32 2.035 7.627h-6.29c.278-1.837-.278-3.216-1.572-4.043-.925-.551-2.128-.827-3.608-.827-1.665 0-3.145.368-4.255 1.01-1.11.644-1.85 1.655-2.127 2.85-.278 1.102.092 1.93.925 2.48.554.368 1.85.828 3.792 1.287l5.18 1.287c2.22.55 3.885 1.286 4.903 2.297 1.572 1.47 2.034 3.584 1.48 6.34-.648 2.85-2.22 5.238-4.81 7.076-2.59 1.93-5.92 2.849-9.898 2.849-4.07 0-7.123-.92-9.065-2.757-1.942-1.838-2.59-4.41-1.85-7.627h6.105v.092zm63.18-17.677c.646 1.318.831 3.012.462 4.894-.37 1.977-1.2 3.483-2.492 4.706-.646.66-1.57 1.318-2.77 1.788 1.478.565 2.493 1.506 3.047 2.824.553 1.318.646 2.824.277 4.706-.37 1.882-1.2 3.576-2.492 5.082-.831 1.036-1.754 1.883-2.77 2.541-1.2.753-2.491 1.318-3.876 1.6a22.96 22.96 0 01-4.522.471H421l6.645-32h15.23c3.876 0 6.368 1.13 7.475 3.388zm-20.12 14.494l-1.754 8.565h7.753c1.384 0 2.492-.188 3.323-.565 1.569-.658 2.492-2.07 2.953-3.953.37-1.694-.092-2.823-1.292-3.388-.646-.376-1.661-.565-3.046-.565h-7.937v-.094zm2.492-12.33l-1.477 7.06h7.753c1.384 0 2.584-.283 3.507-.753 1.015-.565 1.57-1.506 1.846-2.824.277-1.506-.092-2.447-1.107-2.917-.923-.377-2.123-.47-3.692-.47h-6.83v-.095zm49.314-3.142c.55.828.826 1.655 1.01 2.666.184.919.184 2.021-.092 3.308-.367 1.47-1.01 2.94-2.02 4.41-1.011 1.47-2.48 2.482-4.318 3.033 1.286.551 2.113 1.378 2.572 2.481.368 1.103.368 2.665-.184 4.87l-.459 2.114c-.275 1.47-.46 2.39-.46 2.94 0 .827.276 1.379.828 1.746l-.184.827h-7.165c-.091-.735-.091-1.286-.091-1.654 0-.919.091-1.746.275-2.665l.551-2.94c.368-2.022.276-3.308-.275-3.951-.551-.644-1.837-1.011-3.674-1.011h-6.706l-2.571 12.221h-6.338l6.613-31.243h15.34c2.204 0 3.765.276 4.868.827 1.01.368 1.928 1.103 2.48 2.022zm-17.452 2.482l-1.745 8.362h7.44c1.47 0 2.571-.184 3.398-.551 1.47-.552 2.296-1.746 2.756-3.492.367-1.93 0-3.125-1.103-3.86-.643-.367-1.653-.551-3.03-.551h-7.716v.092zm33.985-5.514h7.348l4.409 31.244h-7.073l-.643-6.433h-11.48l-3.49 6.433h-6.798l17.728-31.244zm-4.593 19.481h7.9l-1.286-12.313-6.614 12.313zm26.178 2.206c-.092 1.47.092 2.48.46 3.216.826 1.287 2.48 1.93 5.051 1.93 1.562 0 2.848-.184 3.858-.552 1.929-.643 3.123-1.837 3.49-3.583.184-1.011-.092-1.838-.826-2.39-.735-.55-2.113-1.01-3.95-1.47l-3.123-.735c-3.123-.735-5.144-1.562-6.246-2.39-1.837-1.47-2.388-3.675-1.745-6.8.551-2.756 2.113-5.145 4.5-6.983 2.389-1.838 5.604-2.757 9.553-2.757 3.307 0 5.879.92 7.9 2.573 2.02 1.654 2.663 4.32 2.02 7.627h-6.246c.276-1.837-.275-3.216-1.561-4.043-.919-.551-2.113-.827-3.582-.827-1.654 0-3.123.368-4.226 1.01-1.194.644-1.837 1.655-2.112 2.85-.276 1.102.092 1.93.918 2.48.552.368 1.837.828 3.766 1.287l5.144 1.287c2.204.55 3.858 1.286 4.868 2.297 1.562 1.47 2.02 3.584 1.47 6.34-.643 2.85-2.205 5.238-4.776 7.076-2.572 1.838-5.879 2.849-9.829 2.849-4.041 0-7.072-.92-9.001-2.757-1.929-1.838-2.572-4.41-1.837-7.627h6.062v.092zm27.28 9.557h-6.521l6.613-31.244h6.521zm11.757-31.244h6.522l-5.42 25.638h15.431l-1.194 5.606h-21.952z"></path></g></svg>