<svg xmlns="http://www.w3.org/2000/svg" viewBox="0.33295583724975586 0.6784086227416992 1674.11181640625 452.6015625"><g fill="none"><path fill="#36BCDD" d="M177.21 453.24c-17.67-6.74-35.26-13.73-53.09-20-4.28-1.51-7.45-3.39-10.37-8.36 42.3-6.48 80.28-25.79 123.24-34.67-5.73-5.55-10.89-4-15.64-4.28-29.86-1.63-59.1 4-88.44 7.91a181.83 181.83 0 01-58.34-1.96c-9.08-1.71-37.81-31.42-38.63-39.9-.73-7.58 5.36-5 8.76-5.17 17.16-.9 34.08 2.51 51.53.65 35.72-3.79 68.46-17 101.89-28.28 24.07-8.15 48-16.74 73.62-19.18 3.24-.31 8.87 1.36 8.29-4.39-.44-4.37-5.56-4-9.19-4.53-37.76-5.26-75.3-4.71-112.28 5.36a348.59 348.59 0 01-127 10.91c-22-2.18-29.33-9.28-30.69-31.3-1.55-25-1.44-26.11 24.66-23.67 32.76 3.06 65.17-.12 95.39-10.88 24.2-8.62 47.89-19.54 72.89-25.68 21.78-5.35 43.26-13.39 66.07-13.75 8.2-.13 16.51.61 21.75 9.12 15.81 25.63 32 25.33 48-.91 2.09-3.44 2.93-7.25 6.56-10.1 4.54-3.56 4.44-7.51-1.71-10.59s-8-8.55-9.54-15.58c-4.35-20.54-16.28-36.26-36.13-44.29-15.1-6.1-43.91 18-40.37 34 1.89 8.54-1.13 9.36-7.95 9.92-44.08 3.64-87.22 13.21-130.6 21.15-31.74 5.81-63.55 9.7-95.8 7.26-8.16-.61-16-4.35-11.32-15.06 4.13-9.41 1.89-20 7.47-29.44 3.57-6.07 7-8.3 12.82-7.56 42.2 5.35 80.41-10.94 119.53-22 43.19-12.16 86.66-20.95 131.91-16 5.23.57 10.9 1.89 17.43-2-6.85-5.61-14.44-7.64-21.77-8.93-28.66-5.07-57.25-6.44-86.68-6-38.55.57-75.11 11.25-112.94 13.77-5.11.34-10.25 1.33-15.31 1-6.68-.4-16.08 3.21-19.22-3.66-2.75-6 4.14-12.73 8.09-18 13.82-18.51 28.32-33.9 55.7-32.19 25.63 1.61 51-5 75.92-12.89 12.43-4 26.52-2.89 39.88-3.76 6.35-.45 12.77-.09 19.21-2.45-39.33-10.21-79.33-5-122.26-3.7 11.46-13.3 25.33-16.22 37.68-20.3 121-40.42 250.74 22.71 290.47 143.16 40.91 124-27.25 251.76-150.2 289.8-6.21 1.93-14.4-.55-18.18 7.44l-95.11-.04z"></path><path fill="#7A6E6B" d="M637.95 341.05a125.41 125.41 0 01-64.18-16c-7-3.89-9.31-7.77-4.89-15.33 5.16-8.82 7-21.78 14.45-26.42 7.75-4.87 15.62 7.8 24.41 11.14 16.92 6.44 33.63 10.82 51.64 5.4 10.86-3.27 17.59-9.83 18.84-21.56 1.25-11.73-4-19.95-14.54-24.32-11.58-4.78-23.55-8.64-35.25-13.16-9.53-3.68-19.38-6.89-28.29-11.77-22.18-12.13-33.39-35.45-29.85-59.88 3.42-23.58 17.71-38.75 43.42-45s50.66-2.78 75.21 6.84c8.3 3.26 7.92 8.87 8 15.51.18 27.48.34 27.18-24.94 19.66-14.23-4.24-28.71-8.89-43.86-5.78-7.66 1.57-16.08 3.45-17.22 13.56-1.18 10.46 5.77 15.07 14.16 18 15.36 5.35 31.13 9.66 46.21 15.69 39.09 15.62 56.61 48.17 46.8 85.42-7.62 28.95-30.24 45.44-66.11 48-4.67.29-9.35 0-14.01 0zm476.42-76.58c0 21.15-.56 38.34.21 55.46.45 9.88-2.77 12.62-12.51 12.47-24-.36-24 .12-24-24.56-.08-57.78.16-115.57-.62-173.34-.16-12.07 3.59-14.73 14.88-14.28 21.7.87 21.71.22 21.74 22.56 0 18.18.44 36.36 0 54.52-.21 8 2.78 14 9.2 17.41 7.42 3.92 9.88-4.77 14.68-7.59a6.5 6.5 0 002-2c16.66-25.32 41.3-25.93 68.72-21.59-16.26 16.54-32 32.63-47.81 48.57-14.19 14.28-14.29 14.24-1.52 29.09 17.31 20.14 34.74 40.17 51.95 60.39 2.22 2.62 6.1 4.55 5.28 10.53-13.16 0-26.48-.12-39.79.06-5.58.07-8.12-3.81-11.11-7.35-16.3-19.09-32.51-38.19-51.3-60.35zm341.55 5.41c0 17.22-.33 34.45.14 51.66.21 7.57-1.53 11.36-9.91 10.68-15.42-1.25-30.39.82-45.39 5.17-11.15 3.23-23.18 2.29-34.66.08-25.5-4.91-38.41-19.3-39.47-43.19-1.24-28.18 9-42.6 35.77-50.27 14-4 28.54-3.69 42.86-5.13 5.58-.57 14.26 3.52 14.64-7.49.33-9.65 0-18.76-12-22.11-17.23-4.82-33.14-.34-48.8 6.12-16.93 7-15.84 7.05-17.23-11.2-1-13.79 4.44-20.06 16.8-24 21.76-7 43.42-10.54 65.51-2.34 21.28 7.89 31 21.94 31.15 44.55.11 15.83 0 31.65 0 47.48l.59-.01zm-52.36-1.89c-11.76.19-21.91 1-31.29 5.69-6.41 3.2-9.68 8.24-9.37 15.63.29 6.74 3.14 11.78 9.43 14.07 12.73 4.64 25.58 4.5 37.75-1.59 9.89-5 15-18.35 11.17-28.84-3.83-10.49-12.71-3.58-17.69-4.95v-.01zm-450.98 2.21c0 17.22-.38 34.46.17 51.66.26 8-2.26 11.06-10.25 10.38-15.46-1.31-30.42 1-45.39 5.32-10.27 2.95-21.36 1.94-31.95.38-26.61-3.93-40.82-19.17-41.89-44.05-1.24-28.52 9.68-43.15 37.56-50.26 13.63-3.48 27.64-3.56 41.54-4.68 5.74-.46 14.07 3 14.34-7.92.23-9.25-.26-17.87-11.09-21.46-15.06-5-29.48-1.64-43.64 3.38-24.56 8.7-24.55 8.72-22.37-18.44.38-4.65 1.46-7.85 5.94-9.86 25.93-11.63 52.31-16.74 79.59-5 18.13 7.77 27.07 21.85 26.92 41.7-.13 16.3 0 32.59 0 48.89l.52-.04zm-46.77-3.08c-12.43 1.48-24.76.62-35.94 6.09-12.67 6.2-14.2 21.62-3 29.12 10.21 6.85 36.07 4.78 44.87-3.69 7.6-7.31 7.45-16.78 6-26-1.1-7.03-7.59-5.09-11.93-5.52zm584.06 7.08c0-16.77-.21-33.55.1-50.33.12-6.92-1.92-10.38-9.44-10-15.39.81-8.4-11.12-9.41-17.9-1.01-6.78-1.88-15 9.63-13.4 7.76 1 9.85-3.11 9.06-9.9v-1.4c-3.24-44.06 20.5-57.65 62.78-52.08 9.78 1.28 12.78 5.2 11.63 14.29a68.53 68.53 0 000 12.57c.36 6-1.84 8.84-8.12 7.61-2.74-.53-5.5-1-8.27-1.37-6.4-.84-14-3.4-18.24 2.8-4.61 6.74-2.6 15.33-2 23.19.27 3.62 3.25 4.06 6.13 4.15 3.72.12 7.45.14 11.18.15 20.66.05 24 4.62 20.29 25.46-1.31 7.35-6.13 5.6-10.39 5.78-27.54 1.14-27.51 1.1-27.46 28.35 0 25.63-.45 51.28.29 76.89.31 10.48-2.71 13.61-13.28 13.35-24-.6-24 0-24.09-24.67v-33.56l-.39.02zm-467.36-20.05v29.36c-.06 11.67 4.85 18.31 17.13 14.87 11.68-3.27 11.94 2.32 11.51 11.39-1.2 25.67-2 26.73-27.58 25.79-24.76-.91-36.76-13.33-37.54-40.69-.66-23.28-.26-46.6.13-69.9.12-7.15-1-11.67-9.5-11.6-4 0-10.86 2.16-10.37-5.31.48-7.29-4.63-16.31 4.35-21.63a65.5 65.5 0 0026.63-29.66c4.7-10.18 13.85-6 20.88-5.35 7.62.72 3.86 8.23 4 12.6.74 20.41-3.1 18 18.91 18.55 5.66.15 14.29-3.52 16.42 3 2.49 7.55 1.7 16.68.39 24.81-.82 5.07-7.06 2.85-11 2.89-24.41.24-24.41.18-24.42 24.14.033 5.573.053 11.153.06 16.74zm-280.07 6.44c0-9.31-.28-18.63.07-27.93.41-10.91 2.3-22.4-15.11-19.47-3.37.57-5.23-2-4.83-5.26.88-7.05-4-16.13 3.41-20.79 12.67-8 21.73-18.46 28.5-31.65 4.52-8.82 13.43-4.51 20.17-4.12 6.94.39 3.85 7.3 4 11.3.65 19.76.48 19.57 20.15 19.88 5.24.08 13.41-3.15 15.18 2.68 2.33 7.66 1.64 16.66.47 24.83-.78 5.39-6.9 3.14-10.74 3.19-24.82.36-24.82.29-24.82 24.73 0 14.9-.21 29.81.07 44.7.28 14.89 3.38 18.15 17.55 15.41 9.74-1.88 10.74 1.55 10.85 9.77.38 27.22-1 28.86-28.27 27.68-23-1-35-12.84-36.51-37.24-.77-12.53-.14-25.14-.14-37.71zm858.77-.47c0-12.58-.3-25.17.1-37.73.2-6.6-2-9.2-8.74-9.12-4 .05-11 2.63-10.89-4.57.12-7.7-5-17.31 4.54-22.86a61.14 61.14 0 0025.74-28.56c4.65-10.43 13.54-6.28 20.66-6.06 8.39.27 4.55 7.8 4.68 12.06.6 19.1.38 18.85 19.34 19.3 5.58.14 14.11-3.58 16.19 3.14 2.37 7.64 1.87 16.83.18 24.83-1.12 5.33-8.11 2.64-12.44 2.67-23 .21-23 .09-23 22.44 0 15.37-.13 30.75 0 46.12.18 15.81 3.16 19 18 16.34 8.62-1.57 10.18.78 10.37 8.73.65 27.26-2.65 30.67-30.1 28.63-21.6-1.61-33.06-13.14-34.55-36.25-.76-12.99-.07-26.07-.08-39.11zm-373.31-2.51c0-20.92.31-41.85-.14-62.76-.2-9.2 2.1-13.52 12.4-12.86 13.83.89 27.4 0 41.13-4.43 14-4.54 28.47-1.45 41.83 5.47 6 3.09 8.79 6.37 4.22 12.87a66.36 66.36 0 00-6.63 12.24c-3.68 8.76-7.47 11.15-17.56 6.14-19-9.45-35.75-.06-38.77 21.06-3.9 27.25-1.62 54.79-1.11 82.17.23 12.25-2.92 17.33-15.37 15.19a33.89 33.89 0 00-9.75 0c-8.5 1.07-11.38-2.35-11.18-10.93.49-21.37.16-42.77.16-64.16h.77z"></path></g></svg>