<svg xmlns="http://www.w3.org/2000/svg" viewBox="0.07433128356933594 0.5708349943161011 1291.5780029296875 625.6791381835938"><g fill="none"><path fill="#207244" d="M350.23 626.25c16-13.13 15.35-23.35-2.77-35.33-17-11.24-17.77-29.16-10.32-47.25 7-17 21.52-22.2 38.1-22.58 5.94-.13 14.68.76 14.25 9.48-.41 8.53-7.94 4.91-13 4.65-16.91-.86-26.48 6.42-26.66 24-.2 18.9 10 26.74 28 25.66 4.27-.25 9.45-3.93 11.42 2.73 1.69 5.73-3 7.73-7.32 9.79-15.93 7.59 4.45 20.13-3.82 28.83l-27.88.02z"></path><path fill="#F17024" d="M65.81 437.35c-11.16 0-22.49-1.29-33.43.25-28.9 4.06-31.56-7.84-19.81-30.05a43.22 43.22 0 003.59-10.53c6.38-27.89 16.6-45.34 52.3-46 42-.81 66.82-38.95 69-87 1.67-37.11-5-74.07-.3-111.21 11-87.73 82.67-151.6 171-151.75 25.09 0 50.22.8 75.27-.27 18.2-.78 21.19 5.55 13.63 20.82a88.55 88.55 0 00-7.26 21c-5.82 27.92-17.29 43.21-51.1 43.88-41.2.81-66.64 32.65-68.53 74.21-1.18 26-1.2 52.07 0 78 5.42 120-68.46 198.53-187.56 198.66l-16.8-.01zm574.67-.89c-23.25 0-46.51.49-69.75-.1-45.28-1.15-66.26-30.08-52.31-72.46 9.29-28.19 19.36-56.15 29.91-83.89 13.91-36.55 37.28-52.66 76.4-53.3 24.18-.4 48.37.11 72.55-.2 10.13-.13 22.86.53 22.31-14.16-.49-13.33-12.72-11-21.55-11.07-34.41-.27-68.83-.55-103.23.07-14.85.26-18.74-4.7-12-17.89.4-.846.734-1.722 1-2.62 20.21-63.46 20.21-63.47 85.85-63.46 33.48 0 67-.64 100.44.21 41.53 1.05 62.87 30.42 49.4 69.86-27 79-55.89 157.4-82.92 236.41-4.17 12.22-11.05 12.71-20.7 12.65-25.17-.14-50.28-.05-75.4-.05zm6-83.94c40.05 8 31.1-28.13 41.3-46.12 7.39-13 .3-21.14-14.6-21.41-8.35-.16-16.77-.64-25 .13-12.64 1.18-32.77 35.05-31.27 53 1.72 21.06 18.67 12.39 29.58 14.4h-.01zm462.96 83.94c-23.22 0-46.46.41-69.67-.08-46.65-1-67.66-30.78-52.66-74.21 9.37-27.16 18.64-54.36 28.55-81.33 13-35.42 38.18-53.34 76-54.11 25.07-.5 50.16 0 75.25-.22 9.36-.1 20.32-.51 20.85-13 .59-14.18-11.52-12.1-20.29-12.19-33.44-.33-66.92-1.06-100.32.19-20 .74-20.73-5.86-15-22.57 21-61.37 20.45-61.57 84.71-61.55 34.37 0 68.77-.76 103.11.34 38.91 1.26 60.49 29.1 48.26 66.24-26.67 81-56.14 161-84 241.52-3.65 10.56-10.8 11.06-19.51 11-25.11-.11-50.19-.03-75.28-.03zm4-83.76c24.88.06 46.17-25.72 44.59-53.88-1.07-19.07-16.75-13.37-27.58-13.72-25.48-.82-46.69 24.17-45.09 52.58 1.25 21.3 18.16 12.91 28.12 15.02h-.04zM366.64 203l-33.44-3.55c8.27-24.6 16.22-48.12 24.07-71.67 2.84-8.51 9.15-11.93 17.27-10.23 22.52 4.72 28.14-9.66 33.59-26.88 7.83-24.74 18-48.74 26.07-73.41C438.31 4.7 444.95 0 458.33.72a531.34 531.34 0 0064.1 0c20.44-1.37 21 6.74 14.94 22.57-9.66 25.08-17.51 50.85-27.12 76-4.89 12.79-3.91 17.68 11.7 18.5 48.79 2.54 46.52 2.53 32.81 49-8.52 28.85-23 39.79-51.37 34.38-22.3-4.26-33.13 5.08-39.38 26.8-8.68 30.24-21.16 59.37-31.63 89.12-11.09 31.51-8 35.94 24.78 36.5 8.19.14 16.4 0 27.91 0-8.93 26.22-17 49.68-24.91 73.18-3.5 10.37-11.91 9.82-20.44 9.78-26-.14-52.06.27-78.08-.12-45-.68-66.68-29.67-52.35-72.49 16.46-49.22 35.11-97.72 52.76-146.54 1.55-4.31 2.78-8.7 4.59-14.4zm670.57-83.27c-8.5 23.91-17.15 47.18-25 70.71-4.6 13.8-15.58 10.47-25.27 10.67-48.84 1-49 .85-65.71 46.63-20.35 55.7-40.95 111.31-60.22 167.38-5.25 15.3-11.52 21.91-29.08 21.88-66.5-.13-66.52.65-44-62.26 23.427-65.433 46.847-130.86 70.26-196.28 15.94-44.44 38.26-60.6 85.06-61 27.86-.26 55.72 0 83.58.16 2.68-.01 5.36 1.04 10.38 2.11z"></path><path fill="#207244" d="M.58 543.16v-16.74c0-29.93 18.48-42.16 47.76-32 4 1.4 6.69 3.41 6.65 7.39-.04 3.98-2.69 6.58-7.13 6.58-5.58 0-11.22.65-16.72 0-12.09-1.38-15.94 3.27-15.91 15.56 0 12.79 6.81 12.32 15.84 12.88 7.43.46 20.47-4.9 21.13 5.34.8 12.49-12.78 7.12-19.63 6.87-13.38-.48-17.31 4.12-17.41 17.44-.1 13.53 4 18.91 17.42 17.14a45.63 45.63 0 0111.14 0c5.89.69 15.31-1.94 14.44 7.87-.81 9.18-10 5.64-15.9 6.14-6.46.56-13.1-.57-19.5.27-16.71 2.2-24.3-3.67-22.4-21.39 1.18-10.93.22-22.19.22-33.35zm317.59 16.08c0 5.5.7 7.76-.11 9.13-5.27 8.92 11.92 27.88-8.51 27.84-20.6 0-52 12.41-53.49-27.62a9.22 9.22 0 01-.14-2.75c3.9-14.09-9.42-39.59 7.83-40.67 18.11-1.14 5.82 23.37 8.18 36.23 1.91 10.4 1.48 22.44 14.33 22.93 13.75.52 16.7-11 18.13-23.09 1.51-12.78-5.24-37.2 6-35.93 17.4 1.98 1.88 24.93 7.78 33.93zm498.9 5.68c0 9.88.25 13.61-.06 17.3-.5 6.08 1.64 14.53-7.83 15-10.14.49-7.78-8.25-8.14-14.21-.4-6.47.19-13-.17-19.48-.66-11.55 2.56-27.13-15.19-27.22-18.83-.09-17.07 15.73-17.27 28.73-.08 5.57.26 11.16-.1 16.7-.38 6 2.06 14.62-7.34 15.25-10.07.67-8.06-8.18-8.24-14.15-.38-12.06-1.15-24.25.22-36.15 1-8.13-7.77-23.42 10.4-22.29 17.93 1.12 42.2-13.5 50.55 16.37 2.74 9.67 2.71 20.12 3.17 24.15zm-174.54 20.03c4.65.52 13.41-7.92 14.75 2.93 1.26 10.24-9.22 9.49-16.18 10.22-20.73 2.19-39.82-2.51-50.69-21.3-11.34-19.59-11.25-41.17.71-60.83 11.23-18.45 29.74-24.11 50.34-22.93 6.89.39 17.22.61 15.94 10.6-1.31 10.25-10.35 3.39-15.89 3.42-30 .15-43.38 13.38-42 42 1.15 25.05 15.56 37.31 43.02 35.89zm511.46-20.58c4.81 30.56 29 17 50.11 23.33-19.55 13.87-34.84 13.76-49.64 5.53-17.21-9.58-19.05-26.64-15.44-43.84 3.35-16 14.17-26.35 30.7-27.91 14.16-1.34 24.66 4.94 30.31 19.08 6.21 15.54 5.56 25.33-15 23.93-9.96-.69-19.96-.12-31.04-.12zm16.28-11.85c5.45-2.1 14.9 4.11 15.88-5.55.84-8.42-6.78-13.25-14.6-13.46-7.82-.21-15.51 4.5-15.83 12.58-.45 11.12 9.71 3.89 14.55 6.43zm-431.42 8.28c-.66 22-15.83 37.84-36.33 37.81-21.9 0-36.55-17-35.41-41 1-21.43 17.46-37.6 37.47-36.81 20.01.79 34.92 18.22 34.27 40zm-55.62 1.75c.4 9.92 4.06 23.51 20.32 23.17 13.89-.29 19.31-12.69 19.57-25.61.26-13.21-5.46-25.09-19.37-25.76-14.3-.7-20.12 10.55-20.52 28.2zM504.21 598.6c-20.44-1-33.85-17.27-33.12-40.07.72-22.35 15.73-38 36.22-37.71 21.43.28 35.38 17.36 34.12 41.8-1.14 22.39-16.31 37.06-37.22 35.98zm1.86-65.1c-15.2 4.09-21.22 15.21-19.68 29.13 1.35 12.22 7.08 25.08 22.21 23 13.89-1.88 19-14.77 18.33-27.2-.67-12.21-6.13-23.2-20.86-24.93zm472 11.71c-11.11-10.38-11.11-10.38-34.36-12.51 24.47-20.21 45.44-13.91 50.49 15.36 1.09 6.36 2 13 1.35 19.36-1 9.7 4.63 27-4.45 27.44-13.07.62-26.33 7-39.53 2.47-8.62-3-13.5-9.63-14.51-18.71-1.16-10.37 3.24-18.61 12.28-23 9.04-4.39 18.73-6.88 28.73-10.41zm2.42 22.83c.47-8.81-5.51-8.35-10.93-6.91-7.74 2.06-17.08 3.29-16.34 14.74.51 7.91 5.55 11.84 13 10.08 8.85-2.1 13.46-8.8 14.25-17.91h.02zm-772.11-9.37c.63 21.06-14.62 38.62-34.68 39.93-20.75 1.35-36.17-13.74-37-36.2-.9-24.49 13-40.9 35.05-41.47 19.93-.51 35.98 16.02 36.63 37.74zm-36.71-25.19c-15.31 3.79-21.31 15-19.86 28.91 1.27 12.1 6.59 25.28 21.91 23.27 13.86-1.81 19.06-14.11 18.44-27-.59-12.67-5.61-23.38-20.49-25.18zm230.76-.46c34.64-20.86 53.26-11.68 54.18 22.78.1 3.71 0 7.42 0 11.13.05 26.33-13.45 37.09-39.71 31.17-9.84-2.21-16.43-8.17-17.54-18.89-1.2-11.63 4.82-18.51 13.86-25.06 8-5.79 27.43 1.07 24.12-14-3.18-14.68-20.92-.28-34.91-7.13zm39.11 37.11c.85-7.58-3.4-10.6-9.89-9.14-8 1.82-16.92 4.16-16.36 15.13.3 5.92 3.95 11 10.51 10.21 9-1.15 15-6.53 15.74-16.2zm596.37-45.33c32.6-.25 53.6 35.48 37.66 63.63-1.41 2.49-5.78 3.79-9 4.65-6.71 1.78-7.41-3.26-7.51-7.91-.23-11.11-.23-22.22-.17-33.32 0-8-.79-14.52-11.56-14.7-10-.17-16.45 3.39-17.23 13.48-1 12.89-.73 25.86-1.42 38.78-.28 5.23-3.43 8.27-9.11 7.68-5.27-.55-5-5-5-8.31-.44-18.5-1.15-37-.6-55.52.61-22.97 18.79 1.77 23.94-8.46zM96.19 571.94c11.88-13.21 11.76-29 18.36-41.85 3.05-5.93 7.58-9.17 13-6.87s2.25 7.73.66 11.9c-6.54 17.18-12.84 34.46-19.75 51.5-1.93 4.75-3.56 10.87-10.74 10.95-6.9.07-9.1-4.73-11.16-10.2-6.49-17.2-13.24-34.31-19.91-51.45-1.74-4.47-3.21-10 1.6-12.28 5.77-2.76 10.88.9 13.06 6.62 5.07 13.25 9.58 26.7 14.88 41.68zm783.44-38.79c-7.77 1.4-10.48 2.73-12.65 2.12-7.54-2.11-15.62-3.9-18.28 5.58-2.37 8.48 6.41 10 11.92 12.39 13.45 5.85 22.37 14.52 16.52 30-6.19 16.38-20.69 16.51-35 14.42-5.18-.75-12-2.76-10.37-10.06 1.33-6 6.72-4.46 11.25-2.89 7.46 2.59 16 3.82 19.07-4.94 4.09-11.68-7.54-12.68-14.32-16.24-13.56-7.1-21.24-18.09-11.39-31.26 10.44-14 25.03-16.56 43.25.88zm49.74 62.22c-19.14 6.17-30.29 2.63-32.62-19-1.64-15.31 7.45-32.9-8.89-46.11-1-.77 6.38-15 12.26-20.23 7.07-6.32 9.78.61 13.4 6.89 2.64 4.57 9.93 6.47 15.15 9.56-23.1 21.21-23.25 44.49.7 68.89zm203.89-.68c-25.4 8.31-33.86-.67-35.7-22.17-1.16-13.49 6.48-27.92-8-40.8-9.09-8.08 11.68-10.27 11.33-21.35-.13-4.14 11-3.41 12.64 5.77 1.64 9.18 14.53 3.09 16.58 11.89-24.24 17.3-24.15 45.06 3.15 66.66zm-910.94-51.98c0-13-.11-25.93.05-38.89.08-6.25-1.15-14.39 8.53-14 7.45.3 7.17 7.09 7.18 12.68 0 26.84.14 53.69-.09 80.54-.05 6 1.51 14.77-8.46 13.91-9.28-.81-6.95-9.39-7.1-15.37-.36-12.94-.11-25.91-.11-38.87z"></path><path fill="#FDFCFB" d="M683.23 562.55c.4-17.65 6.22-28.9 20.52-28.2 13.91.67 19.63 12.55 19.37 25.76-.26 12.92-5.68 25.32-19.57 25.61-16.26.34-19.92-13.25-20.32-23.17z"></path></g></svg>