<svg xmlns="http://www.w3.org/2000/svg" viewBox="55 62.99988555908203 489 123.2829818725586"><g fill="none"><path fill="#D8762C" d="M163.35 82.087C116.33 92.049 77.278 92.498 57 80.83c26.654 6.283 56.673 7.45 97.407-7.54 34.18-11.937 63.137-15.796 83.504 1.078 11.157 9.244 26.3 19.207 44.718 24.503 15.231 4.308 32.322 5.026 54.371 3.68-33.118 18.758-61.278 6.642-83.238-10.77-14.257-11.31-43.39-19.567-90.412-9.694z"></path><path fill="#B85428" d="M448.879 68.708c-43.293-7.232-74.586 9.324-117.879 34.157 16.802 1.22 42.582-5.925 73.519-18.037 21.69-7.232 38.404-10.717 70.318-6.36 31.915 4.443 63.385 5.576 69.163-1.656-12.268 7.406-51.828-.872-95.121-8.104z"></path><g fill="#1D2E6F"><path d="M165.734 124.333v60.534h13.642v-67.378h-7.884c-3.987 0-5.758 3.289-5.758 6.844zm46.685-7.289c-2.569 0-4.96 2.578-6.112 5.6l-22.147 62.134h13.82l5.049-13.867h26.576l4.872 13.867h14.528l-25.335-67.822h-11.251v.088zm-5.138 42.49l9.302-25.423 9.035 25.422h-18.337zM86.803 145.489c-7.796-1.867-13.643-2.311-16.566-6.845-4.252-6.577 2.569-13.066 12.934-12.977 6.29.089 10.187 4 12.845 9.866l10.896.356c-.62-12.089-12.225-20.622-23.564-20.711C68.908 115 59.695 121.4 56.86 129.31c-4.075 11.2 2.126 18.4 8.948 22.311 8.77 4.89 19.932 5.067 26.133 9.422 13.908 9.867-18.515 22.045-24.805 2.667H55c2.48 21.067 25.513 27.111 42.433 19.289 10.896-5.067 12.048-18.844 9.213-25.778-2.923-6.844-12.313-9.955-19.843-11.733zm288.084-28.267h-10.63l-7.175 10.311h7.44zM145.359 139v26.222c0 5.067-4.075 9.156-9.125 9.156s-9.124-4.09-9.124-9.156v-33.066h-13.643v32.977c0 11.29 9.213 20.534 20.464 20.534h4.695c11.25 0 20.464-9.245 20.464-20.534v-32.977h-7.885c-4.075 0-5.846 3.288-5.846 6.844zm165.481-7.733h-4.696c-5.138 0-9.745 1.866-13.377 4.977-3.632-3.11-8.238-4.977-13.376-4.977h-4.695c-11.25 0-20.464 9.244-20.464 20.533v32.978h13.642V151.71c0-5.067 4.075-9.155 9.125-9.155 5.758 0 8.593 3.91 8.593 9.155v32.978h13.642l.355-35.467c1.063-3.91 4.606-6.755 8.77-6.755 5.05 0 9.124 4.089 9.124 9.155v26.222c0 3.556 1.772 6.845 5.847 6.845h7.884V151.71c.089-11.2-9.124-20.444-20.375-20.444zm160.784 44h-.708c-18.072 0-18.338-33.511 0-33.511h.708c3.898 0 7.353 1.6 9.922 4.266h11.96c-2.481-8.978-11.694-14.578-21.616-14.578h-1.24c-13.465 0-24.45 11.023-24.45 24.534v5.51c0 13.512 10.985 24.534 24.45 24.534h1.24c10.72 0 19.932-7.022 23.121-16.71h-12.047c-2.392 3.466-6.644 5.955-11.34 5.955zm-45.09-51.2v3.2h13.642v-9.956h-7.884c-4.075-.089-5.758 3.2-5.758 6.756zm98.863 7.022c-12.757-1.6-22.147 4.711-25.69 15.111h13.553c1.86-4.8 9.036-5.956 13.643-4.178 4.075 1.6 4.783 5.867 1.506 8.534-3.367 2.755-16.743 1.333-23.299 6.488-10.453 8.178-8.061 23.645 5.936 27.823 6.732 1.955 15.591 1.6 21.083-2.4l2.126 2.755h9.302v-37.866c0-9.512-5.404-14.667-18.16-16.267zm5.58 34.133c0 8.711-6.289 11.467-12.756 10.934-6.555-.623-10.719-12.267-.531-14.045 10.187-1.778 10.01-2.4 13.288-4.178v7.29zm-116.934-32.266c-12.314 0-22.413 10.133-22.413 22.488v29.6h12.668v-28.088c0-6.4 5.227-11.556 11.517-11.556h3.632v-12.267c-.975-.177-2.038-.177-3.012-.177h-2.392zm12.491 5.688v46.045h13.642V131.8h-7.884c-4.075 0-5.758 3.289-5.758 6.844z"></path><path d="M337.504 153.933v8.534c0 26.933 38.978 31.289 46.862 7.11l-11.605-.088c-8.15 10.4-24.538 5.422-24.007-7.822l36.764.177c.797-43.022-48.014-36-48.014-7.91zm11.339-.71c.089-6.845 5.492-12.356 12.136-12.356 6.644 0 12.048 5.51 12.137 12.355h-24.273z"></path></g></g></svg>