<svg xmlns="http://www.w3.org/2000/svg" xmlns:xlink="http://www.w3.org/1999/xlink" viewBox="127 63.000221252441406 338.7849426269531 124.00019073486328"><defs><path id="fn796595f6bdma" d="M.171.63h49.614v42.328H.17z"></path><path id="fn796595f6bdmc" d="M0 .247h297.601V84H.001z"></path></defs><g fill="none" fill-rule="evenodd"><g transform="translate(416 75)"><mask id="fn796595f6bdmb" fill="#fff"><use xlink:href="#fn796595f6bdma"></use></mask><path fill="#4B9C35" d="M1.259 37.603L44.85 1.325a3.011 3.011 0 014.245.4 3.032 3.032 0 01-.4 4.254L5.104 42.266a3.021 3.021 0 01-4.245-.398 3.051 3.051 0 01.4-4.266" mask="url(#fn796595f6bdmb)"></path></g><path fill="#F6A010" d="M393.03 103h56.94c1.67 0 3.03 1.355 3.03 3.001 0 1.652-1.36 2.999-3.03 2.999h-56.94c-1.667 0-3.03-1.347-3.03-2.999 0-1.654 1.363-3.001 3.03-3.001"></path><path fill="#20325E" d="M383.92 63.665l60.963 49.027a2.977 2.977 0 01.445 4.208c-1.048 1.277-2.961 1.47-4.249.432L380.11 68.313a2.98 2.98 0 01-.436-4.207c1.045-1.283 2.958-1.476 4.246-.44"></path><path fill="#E9530C" d="M427.932 87.275l13.975 54.962a3.02 3.02 0 01-2.172 3.663l-.008.008a3.02 3.02 0 01-3.658-2.182l-13.975-54.962a3.029 3.029 0 012.172-3.672 3.024 3.024 0 013.666 2.183"></path><g transform="translate(127 103)"><mask id="fn796595f6bdmd" fill="#fff"><use xlink:href="#fn796595f6bdmc"></use></mask><path fill="#002969" d="M245.103 79.936c-2.792-2.221-4.51-4.37-5.894-7.667-.955-2.648-1.243-4.672-1.295-7.477.077-5.958 1.1-10.277 5.675-14.31 3.138-2.575 6.677-4.033 10.553-5.116 6.918-1.933 17.273-2.731 24.998-3.266l4.567-.332v-4.551l-.096-1.843c-.266-2.092-.474-3.384-1.401-5.297l-.467-.798c-1.8-2.602-3.431-3.768-6.314-5.002-2.494-.935-4.623-1.376-7.248-1.73a65.013 65.013 0 00-5.415-.348c-2.707-.02-4.89.159-7.562.642-1.43.277-2.801.6-4.2.97a84.552 84.552 0 00-6.367 2.024l-.612.227v-8.497l.31-.066.648-.142c1.52-.316 3.04-.612 4.562-.897 2.723-.496 5.349-.902 8.105-1.187a93.854 93.854 0 019.294-.4c3.103.052 6.068.21 9.146.57 2.545.345 4.855.779 7.332 1.47 2.387.72 4.334 1.497 6.474 2.805 1.676 1.113 2.897 2.182 4.145 3.77 1.091 1.489 1.755 2.783 2.38 4.516.887 2.722 1.15 5.144 1.18 8.003V82.08l-.022.03c-1.113 1.083-3.78 1.851-6.88 1.851-3.107 0-5.77-.768-6.887-1.85l-.105-.121V46.547l-5.563.587c-6.523.677-13.669.949-19.53 4.1-3.808 2.407-5.542 4.96-6.293 9.429-.354 3.737-.069 6.942 1.89 10.205 5.615 7.971 16.173 5.832 24.372 3.864v7.063c-10.163 2.295-24.96 4.206-33.48-1.86zm-45.4-2.964c2.792.104 5.214.046 7.962-.513 5.336-1.088 9.349-3.016 10.701-8.733.266-2.303.25-3.422-.7-5.53-1.217-2.701-2.737-3.702-5.326-4.876-2.357-.984-4.67-1.562-7.143-2.136-3.26-.729-6.578-1.247-9.793-2.075-3.199-.845-6.016-1.867-8.89-3.546-2.13-1.36-3.657-2.648-5.125-4.724-1.558-2.451-2.192-4.551-2.485-7.42-.316-3.076-.209-5.308.875-8.206.67-1.799 1.49-3.131 2.68-4.634 2.129-2.55 4.235-4.13 7.162-5.69 2.658-1.338 5.248-2.24 8.13-2.955 3.47-.782 6.664-1.092 10.213-1.177 2.982-.019 5.821.11 8.787.456 2.948.38 5.56.945 8.421 1.735 1.536.444 3.004.919 4.501 1.484l.151.06v8.84l-.241-.134c-2.206-1.229-4.312-2.268-6.669-3.148a44.27 44.27 0 00-6.805-1.826c-2.883-.475-5.517-.64-8.444-.483-2.131.167-3.892.474-5.938 1.122-1.844.647-3.012 1.242-4.661 2.371-2.175 1.879-2.897 2.956-3.59 5.753-.196 2.627-.023 3.99 1.173 6.345 1.062 1.601 1.83 2.382 3.44 3.375 1.665.91 3.24 1.47 5.045 2.018 2.8.806 5.615 1.42 8.481 1.966 6.85 1.261 15.378 3.28 19.361 9.57.955 1.683 1.383 3.021 1.761 4.91.39 2.438.475 4.659.066 7.08-.836 4.176-2.762 7.381-5.944 10.189-2.77 2.298-5.7 3.82-9.072 5.083-3.513 1.234-6.564 1.805-10.272 2.167-2.343.186-4.6.257-6.94.24a74.986 74.986 0 01-7.407-.51 66.546 66.546 0 01-6.926-1.34c-2.543-.669-4.943-1.393-7.399-2.33l-.406-.168v-9.344l.039.024.384.233.392.225c2.551 1.445 5.47 2.761 8.227 3.754 4.183 1.475 7.766 2.273 12.223 2.498zm-41.88-32.481c-.258-6.145-.069-10.77-3.086-16.235-6.43-10.367-22.175-9.846-29.5-.76-4.079 5.63-4.221 10.505-4.523 16.995h37.109zm-39.345 32.182c-4.553-3.545-7.307-7.346-9.34-12.755-1.498-4.371-2.033-8.273-2.167-12.88-.06-6.185.6-11.603 2.919-17.372 2.222-5.147 5.294-9.208 9.8-12.624 10.222-7.313 27.723-8.396 38.72-2.83 6 3.26 9.302 8.029 11.318 14.483 1.26 4.379 1.643 8.429 1.687 12.972v3.822h-50.632c.806 10.886 2.079 19.485 13.246 24.324 5.248 2.158 11.705 2.701 17.35 2.265 2.642-.241 5.02-.702 7.58-1.393 3.928-1.097 7.609-2.709 11.14-4.801v9.413c-7.437 2.994-14.391 4.475-22.497 4.659-2.274.035-4.504 0-6.775-.13-4.32-.306-8.153-.896-12.314-2.143-3.81-1.234-6.781-2.65-10.035-5.01zM13.79 17.625h20.239v8.166h-8.317c-5.275 0-10.079.51-11.93 2.654-.009 5.528-.022-3.935-.022 33.216.195 7.976 4.658 12.092 10.74 13.86 4.824 1.404 8.695.557 13.254-.4v7.387c-5.207.814-10.424 1.842-15.408 1.28C10.25 82.404.173 76.997 0 62.873V2.12l.022-.022C1.136 1.015 3.802.247 6.902.247c3.108 0 5.774.768 6.888 1.85v15.528zm34.72 62.31c-2.793-2.22-4.51-4.37-5.893-7.666-.957-2.648-1.242-4.672-1.303-7.477.074-5.958 1.106-10.277 5.684-14.31 3.138-2.575 6.674-4.033 10.55-5.116 6.918-1.933 17.276-2.731 24.998-3.266l4.562-.332v-4.551l-.09-1.843c-.272-2.092-.483-3.384-1.402-5.297l-.472-.798c-1.791-2.602-3.432-3.768-6.31-5.002-2.49-.935-4.619-1.376-7.247-1.73a64.947 64.947 0 00-5.412-.348c-2.715-.02-4.899.159-7.57.642-1.424.277-2.793.6-4.195.97a84.953 84.953 0 00-6.367 2.024l-.617.227v-8.497l.316-.066.641-.142c1.52-.316 3.04-.612 4.568-.897 2.724-.496 5.352-.902 8.106-1.187a93.945 93.945 0 019.296-.4c3.1.052 6.06.21 9.146.57 2.542.345 4.852.779 7.33 1.47 2.386.72 4.336 1.497 6.465 2.805 1.687 1.113 2.905 2.182 4.156 3.77 1.083 1.489 1.752 2.783 2.37 4.516.888 2.722 1.152 5.144 1.19 8.003V82.08l-.03.03c-1.105 1.083-3.777 1.851-6.88 1.851-3.102 0-5.766-.768-6.88-1.85l-.104-.121V46.547l-5.563.587c-6.526.677-13.669.949-19.534 4.1-3.807 2.407-5.546 4.96-6.29 9.429-.356 3.737-.068 6.942 1.88 10.205 5.623 7.971 16.176 5.832 24.372 3.864v7.063C71.83 84.09 57.03 86 48.51 79.935z" mask="url(#fn796595f6bdmd)"></path></g></g></svg>