<svg xmlns="http://www.w3.org/2000/svg" viewBox="-0.00030726194381713867 55.998992919921875 462.99981689453125 137.00082397460938"><path d="M339 183h-17.65c-.696 0-1.044-.115-1.277-.806-2.322-7.135-4.644-14.27-6.966-21.52-.116-.46-.349-.806-.465-1.267-.58-1.956-1.625-2.647-3.948-2.877v26.355H290v-72.159c0-1.726 0-1.726 1.858-1.726h32.976c2.322 0 4.76.345 6.967 1.036 4.064 1.15 6.038 4.143 6.038 8.17.116 7.366 0 14.617 0 21.982 0 5.87-2.555 10.588-6.619 14.731-1.393 1.381-1.51 2.647-.812 4.488 2.902 7.711 5.69 15.537 8.592 23.593zm-30.422-51.443v8.17c0 1.037.465 1.612 1.394 1.957l5.573 2.072c2.322.92 2.903.69 3.6-1.726.116-.346.232-.691.232-1.036.116-5.754.116-11.509.116-17.263 0-1.15-.697-1.726-1.858-1.726h-7.547c-1.161 0-1.51.345-1.51 1.496.116 2.647 0 5.294 0 8.056zM393.77 183h-34.302c-2.878 0-5.64-.344-8.173-1.49-3.338-1.374-4.72-4.008-5.18-7.33-.115-1.031-.115-2.062-.115-3.208v-59.91c0-1.947 0-1.947 1.842-1.947h15.194c1.381 0 1.842.343 1.842 1.718v57.504c0 .917.46 1.375 1.266 1.375h7.482c.92 0 1.266-.573 1.266-1.49v-57.389c0-1.833 0-1.833 1.842-1.833h15.654c1.152 0 1.612.344 1.612 1.604v70.792c-.23.573-.23 1.031-.23 1.604zm-113.886 0h-34.236c-3.007 0-6.014-.345-8.79-1.611-2.776-1.266-4.28-3.568-4.627-6.56-.231-1.957-.231-3.798-.231-5.754v-58.119c0-1.956 0-1.956 1.966-1.956h15.268c1.272 0 1.735.345 1.735 1.726v56.507c0 2.762.115 2.877 3.007 2.877h4.858c1.966 0 2.197-.345 2.197-2.301v-56.968c0-1.841 0-1.841 1.967-1.841h15.383c1.156 0 1.619.345 1.619 1.611v71.123c0 .23-.116.69-.116 1.266zM228 183h-18.55c-.576-2.99-1.152-5.865-1.498-8.855-.115-1.15-.691-1.726-1.728-2.07-3.226-1.15-6.337-2.53-9.448-3.796-.115-.115-.346 0-.691-.115-.346 1.84-.692 3.565-.922 5.406-.46 2.875-.922 5.75-1.498 8.51-.115.345-.576.92-.922.92h-17.397c-.116 0-.116-.115-.346-.23.46-2.3.922-4.485 1.498-6.785 1.037-4.6 2.074-9.316 3.226-13.916 2.304-10.35 4.724-20.701 7.028-30.937l3.802-17.25c.23-1.266.461-2.53.922-3.796.115-.46.807-1.035 1.267-1.035 5.877-.115 11.753 0 17.744 0 .806 0 1.152.345 1.383 1.15 1.843 8.396 3.802 16.676 5.645 25.071 1.268 5.52 2.42 11.041 3.687 16.561 1.613 7.246 3.226 14.376 4.84 21.621.575 3.22 1.267 6.326 1.958 9.546zm-26.27-45.772c-.115 0-.23 0-.46.115-.23 1.38-.461 2.76-.807 4.14-.691 4.255-1.498 8.625-2.19 12.88-.114.346.116 1.036.347 1.15 1.958.92 4.032 1.726 6.567 2.646a2001.027 2001.027 0 00-3.457-20.931zM402 183v-12.161c0-1.148.35-1.492 1.514-1.492h19.564c2.213-.114 2.563-.344 2.563-2.638 0-2.754-.117-5.622 0-8.376 0-1.262-.466-1.835-1.514-2.294-3.843-1.492-7.686-2.868-11.53-4.475-2.445-.917-4.774-1.95-6.987-3.212-2.329-1.377-3.494-3.671-3.494-6.31 0-7.916-.116-15.833 0-23.864 0-5.392 3.727-8.03 8.735-8.834a32.235 32.235 0 014.774-.344h30.628c.582 0 1.048 0 1.747.115 0 .344 0 .573-.116.803-2.213 4.015-4.426 8.146-6.755 12.161-.233.459-1.164.688-1.747.688h-16.187c-2.213 0-3.028.345-2.911 2.869a152.63 152.63 0 010 10.325c0 .918.232 1.492 1.28 1.836 5.59 2.065 11.064 4.245 16.537 6.425 4.193 1.606 6.056 4.474 6.056 8.834 0 6.425 0 12.964-.116 19.389 0 1.606-.466 3.327-.932 4.933-.932 2.64-3.028 4.016-5.59 4.59-2.562.573-5.24.803-7.919.803-8.618.114-17.235 0-25.853 0-.582.229-1.048.229-1.747.229zm-260.791-60.075H121c.58-1.956 1.161-3.682 1.626-5.524a544.422 544.422 0 002.09-7.02c.233-.92.697-1.381 1.743-1.381h52.147c.465 0 .93.115 1.394.115-.697 2.877-1.278 5.64-1.858 8.401-.349 1.381-.697 2.647-.93 4.028-.116 1.036-.696 1.266-1.625 1.266H162.23c-1.858 0-1.858 0-1.858 1.842V183h-19.047c-.116-19.91-.116-39.82-.116-60.075zm320.123-10.999a47.413 47.413 0 00-1.701 2.234l-1.57-1.971h-.393c0 .788 0 1.708-.13 2.497-.131.394-.393.788-.655 1.183-.262-.395-.654-.657-.785-1.052a28.56 28.56 0 010-4.73c0-.395.393-.92.654-1.052.393-.131.916.131 1.178.394.523.657.916 1.314 1.57 2.234.523-.657.785-1.445 1.308-1.84.393-.394 1.047-.525 1.57-.788.131.526.524.92.524 1.446.13 1.314.13 2.628 0 3.942 0 .526-.393 1.051-.654 1.577-.262-.526-.524-.92-.655-1.446-.13-.788 0-1.577 0-2.365 0-.131-.13-.131-.261-.263zM450 109.896c.227-.266.568-.796.795-.796a14.646 14.646 0 013.41 0c.34 0 .568.398.795.663-.227.265-.455.664-.795.664-.796 0-1.023.53-.91 1.327v3.45c0 .265-.34.53-.568.796-.227-.265-.682-.53-.795-.796-.114-.93-.114-1.858 0-2.654 0-1.327 0-2.654-1.818-1.99 0-.266 0-.399-.114-.664zm-321 44.91c-1.685.673-2.92 1.234-4.269 1.794-5.392 2.02-10.896 3.253-16.513 4.15-6.515 1.01-13.03 1.122-19.658.897a90.412 90.412 0 01-17.3-2.355c-1.347-.336-2.134-.112-3.032 1.122-4.943 6.84-9.998 13.682-14.94 20.523-1.461 2.02-2.36 4.374-3.595 6.505a18.055 18.055 0 01-2.36 3.365c-2.021 2.243-4.718 2.691-7.526 1.682-6.74-2.58-13.48-5.495-19.546-9.309-3.258-2.018-6.403-4.373-9.099-6.953-4.606-4.374-6.628-9.982-6.74-16.374-.112-5.608.899-11.103 2.247-16.599.112-.56 0-1.346-.225-1.794-2.696-4.15-4.718-8.524-5.729-13.346-1.236-5.944-.899-11.776 1.236-17.496.674-1.794 1.572-3.477 2.359-5.271L5.208 104c0 .785.113 1.122.113 1.458-.337 6.617 1.01 12.898 3.482 19.066a45.687 45.687 0 009.773 15.028c.562.673.674 1.122.337 1.907-1.685 5.271-3.033 10.542-3.258 16.15-.224 8.86 2.921 14.243 11.795 18.393 2.921 1.346 5.954 2.58 8.987 3.813 2.696 1.121 4.83.336 6.852-2.692 4.83-7.177 9.549-14.467 14.267-21.757.112-.112.112-.225.225-.561-7.077-5.495-13.593-11.44-17.637-19.739.786.673 1.685 1.346 2.471 2.019l2.697 2.019c5.953 4.261 12.58 7.29 19.658 9.533 11.009 3.476 22.354 4.822 33.812 4.598.562 0 1.236-.112 1.798-.449-1.573-.897-3.258-1.682-4.83-2.58-6.74-3.588-12.807-8.186-18.536-13.345-4.38-4.038-8.425-8.412-11.795-13.346-1.91-2.804-3.707-5.832-5.729-8.524-2.471-3.14-5.392-5.72-9.323-7.066-5.73-2.018-10.672.449-13.256 5.384-1.01 1.906-1.46 4.15-2.134 6.28-.113.449-.225 1.01-.45 1.458-.112 0-.337 0-.449-.112.225-2.58.112-5.271.674-7.85.899-4.487 3.145-8.188 6.852-11.104 5.617-4.261 12.133-4.15 17.862-.897 5.84 3.253 9.323 8.524 12.132 14.356 1.348 2.803 2.808 5.383 4.268 8.075h.562c.562-1.234 1.123-2.468 1.573-3.701 1.572-4.935.561-9.421-1.798-13.795-3.37-6.169-8.425-10.991-13.817-15.477-5.841-4.935-11.795-9.645-17.524-14.692-6.403-5.72-12.02-12.113-17.3-18.73-.224-.336-.336-.672-.449-1.121 2.135 1.794 4.044 3.589 6.291 5.271 7.19 5.271 14.379 10.542 21.905 15.477 7.864 5.16 15.952 9.645 23.927 14.58 4.718 2.916 8.538 6.729 10.672 12a23.724 23.724 0 011.685 10.43c-.45 6.505-2.584 12.45-5.841 18.057-.562 1.01-.562 1.682.449 2.467 4.943 3.925 10.335 7.402 16.064 10.094 4.83 2.243 9.773 4.374 14.715 6.28 3.595 1.683 7.639 2.804 12.02 4.15z"></path></svg>