<!DOCTYPE svg PUBLIC "-//W3C//DTD SVG 20010904//EN" "http://www.w3.org/TR/2001/REC-SVG-20010904/DTD/svg10.dtd">
<svg version="1.0" xmlns="http://www.w3.org/2000/svg" width="329px" height="153px" viewBox="0 0 3290 1530" preserveAspectRatio="xMidYMid meet">
<g id="layer101" fill="#040404" stroke="none">
<path d="M0 765 l0 -765 1645 0 1645 0 0 765 0 765 -1645 0 -1645 0 0 -765z"/>
</g>
<g id="layer102" fill="#241716" stroke="none">
<path d="M0 765 l0 -765 1645 0 1645 0 0 765 0 765 -1645 0 -1645 0 0 -765z m180 615 l0 -120 43 0 c40 0 77 -13 66 -24 -7 -7 -249 -10 -256 -3 -14 14 13 27 58 27 l49 0 1 103 c1 56 2 107 4 112 1 6 3 13 3 18 1 4 9 7 17 7 13 0 15 -20 15 -120z m460 105 c0 -11 -20 -15 -102 -17 l-103 -3 -3 -42 -3 -43 70 0 c56 0 71 -3 71 -15 0 -11 -12 -15 -47 -15 -79 0 -93 -7 -93 -46 0 -19 6 -37 13 -39 6 -3 50 -6 96 -7 57 -2 86 -7 89 -15 3 -10 -16 -13 -70 -14 -40 0 -91 -1 -113 -2 l-40 -2 -3 138 -3 137 121 0 c99 0 120 -3 120 -15z m328 -5 c23 -10 42 -24 42 -30 0 -19 -27 -22 -52 -6 -88 56 -208 8 -208 -83 0 -46 23 -79 66 -97 45 -19 81 -17 131 5 37 17 42 18 47 4 4 -9 5 -17 4 -18 -32 -21 -88 -35 -137 -35 -58 0 -65 3 -102 38 -50 46 -62 106 -34 165 33 71 151 99 243 57z m172 -85 c0 -77 3 -105 13 -105 6 0 54 48 105 105 58 64 101 105 113 105 18 0 19 -9 19 -135 0 -125 -1 -135 -19 -135 -16 0 -18 7 -14 83 5 115 -4 124 -64 56 -96 -108 -128 -138 -153 -141 l-25 -3 -3 138 c-2 117 0 137 13 137 12 0 15 -17 15 -105z m601 82 c76 -50 87 -142 26 -212 -31 -35 -37 -38 -102 -42 -83 -5 -128 14 -157 68 -35 65 -18 140 41 184 48 34 142 36 192 2z m354 9 c64 -27 84 -100 34 -127 -12 -6 -57 -16 -102 -22 -90 -13 -116 -33 -84 -64 21 -21 137 -24 161 -4 8 7 20 10 26 6 40 -25 -41 -59 -128 -53 -55 4 -68 8 -88 32 -54 62 -20 111 83 120 92 9 117 17 121 42 2 16 -6 26 -33 38 -42 20 -123 14 -163 -12 -20 -13 -25 -13 -33 -1 -13 21 -6 31 32 45 47 17 133 17 174 0z m386 -10 c38 -26 69 -78 69 -116 0 -38 -31 -90 -69 -116 -28 -19 -49 -24 -95 -24 -101 0 -156 50 -156 140 0 63 10 82 58 115 52 35 142 36 193 1z m409 9 c0 -11 -20 -15 -101 -17 l-102 -3 1 -117 c0 -110 -1 -118 -19 -118 -18 0 -19 9 -19 135 l0 135 120 0 c99 0 120 -3 120 -15z m316 -6 c77 -47 97 -130 47 -195 -36 -48 -72 -64 -140 -64 -93 0 -153 54 -153 138 0 90 56 142 154 142 42 0 68 -6 92 -21z m-1489 -506 c-4 -3 -7 0 -7 7 0 7 3 10 7 7 3 -4 3 -10 0 -14z m8 -623 c3 -5 1 -10 -4 -10 -6 0 -11 5 -11 10 0 6 2 10 4 10 3 0 8 -4 11 -10z m-247 -7 c-16 -2 -40 -2 -55 0 -16 2 -3 4 27 4 30 0 43 -2 28 -4z m541 -75 c1 -16 -3 -28 -9 -28 -6 0 -10 24 -9 53 1 41 3 47 9 27 4 -14 8 -37 9 -52z"/>
<path d="M1594 1456 c-100 -45 -78 -188 31 -203 90 -12 159 54 139 133 -5 21 -21 46 -35 56 -34 25 -96 32 -135 14z"/>
<path d="M2324 1452 c-47 -22 -69 -64 -59 -111 23 -104 179 -123 228 -28 52 101 -57 191 -169 139z"/>
<path d="M3080 1463 c-57 -18 -90 -59 -90 -112 0 -33 57 -90 97 -97 75 -14 153 39 153 105 0 72 -86 129 -160 104z"/>
</g>
<g id="layer103" fill="#611311" stroke="none">
<path d="M0 765 l0 -765 1645 0 1645 0 0 765 0 765 -1645 0 -1645 0 0 -765z m638 722 c3 -14 -12 -17 -100 -19 l-103 -3 0 -40 0 -40 68 -3 c58 -3 67 -5 67 -22 0 -17 -9 -19 -67 -22 l-68 -3 0 -35 0 -35 98 -3 c89 -2 97 -4 97 -23 0 -19 -6 -19 -117 -17 l-118 3 -3 129 c-2 70 -1 134 1 140 3 8 42 11 123 10 100 -1 120 -4 122 -17z m502 -87 c0 -54 4 -101 9 -104 5 -3 28 16 51 42 102 112 163 172 176 172 11 0 14 -27 14 -146 0 -133 -1 -145 -17 -142 -15 3 -19 18 -23 102 l-5 99 -44 -49 c-118 -131 -143 -154 -167 -154 l-24 0 0 138 c0 76 3 142 6 145 17 17 24 -12 24 -103z m582 91 c93 -37 114 -163 38 -236 -27 -25 -40 -30 -99 -33 -78 -5 -117 10 -150 57 -27 38 -28 114 -2 157 37 61 134 86 213 55z m372 -1 c36 -13 66 -50 66 -82 0 -40 -46 -65 -132 -74 -82 -8 -105 -21 -90 -51 18 -33 122 -40 159 -10 16 12 43 2 43 -17 0 -21 -54 -36 -126 -36 -53 0 -67 4 -93 26 -23 19 -31 34 -31 60 0 47 31 64 130 73 54 5 84 12 90 21 14 22 12 28 -16 47 -34 22 -120 21 -165 -2 -31 -16 -33 -16 -46 1 -11 15 -11 19 4 28 57 31 148 39 207 16z m348 5 c40 -6 93 -57 104 -100 15 -59 -19 -131 -76 -160 -34 -18 -132 -20 -163 -4 -96 50 -112 172 -32 236 53 43 66 45 167 28z m456 -8 c3 -14 -12 -17 -100 -19 l-103 -3 -5 -120 c-4 -104 -7 -120 -22 -123 -16 -3 -18 9 -18 136 0 76 2 141 5 143 2 3 57 4 122 3 99 -1 119 -4 121 -17z m316 -8 c43 -29 66 -72 66 -124 0 -35 -7 -50 -38 -86 -38 -42 -41 -43 -109 -47 -117 -7 -173 39 -173 142 0 47 4 61 28 86 52 58 163 72 226 29z m-3032 -96 l3 -118 53 -3 c44 -3 52 -6 52 -23 0 -18 -8 -19 -130 -19 -123 0 -130 1 -130 20 0 18 7 20 55 20 l55 0 0 120 c0 113 1 120 20 120 18 0 20 -8 22 -117z m782 103 c41 -17 52 -32 36 -51 -10 -12 -16 -12 -38 4 -84 59 -212 11 -212 -79 0 -36 28 -77 62 -91 44 -18 111 -16 143 5 27 18 45 14 45 -9 0 -37 -162 -60 -220 -30 -40 21 -70 74 -70 124 0 91 56 141 158 141 34 0 78 -6 96 -14z m758 -811 l3 -320 145 -5 145 -5 3 -52 c2 -32 -1 -53 -7 -53 -6 0 -11 22 -11 50 l0 50 -145 0 -144 0 -3 335 c-2 183 0 331 4 327 4 -4 9 -152 10 -327z m333 215 c10 -11 16 -20 13 -20 -3 0 -13 9 -23 20 -10 11 -16 20 -13 20 3 0 13 -9 23 -20z m43 -66 c-4 -3 -12 5 -18 18 -12 22 -12 22 6 6 10 -10 15 -20 12 -24z m-461 -291 c-4 -3 -10 -3 -14 0 -3 4 0 7 7 7 7 0 10 -3 7 -7z m30 0 c-4 -3 -10 -3 -14 0 -3 4 0 7 7 7 7 0 10 -3 7 -7z m-174 -190 c-40 -2 -106 -2 -145 0 -40 1 -8 3 72 3 80 0 112 -2 73 -3z"/>
</g>
<g id="layer104" fill="#2f3031" stroke="none">
<path d="M0 765 l0 -765 1645 0 1645 0 0 765 0 765 -1645 0 -1645 0 0 -765z m638 722 c3 -14 -12 -17 -100 -19 l-103 -3 0 -40 0 -40 68 -3 c58 -3 67 -5 67 -22 0 -17 -9 -19 -67 -22 l-68 -3 0 -35 0 -35 98 -3 c89 -2 97 -4 97 -23 0 -19 -6 -19 -117 -17 l-118 3 -3 129 c-2 70 -1 134 1 140 3 8 42 11 123 10 100 -1 120 -4 122 -17z m502 -87 c0 -54 4 -101 9 -104 5 -3 28 16 51 42 102 112 163 172 176 172 11 0 14 -27 14 -146 0 -133 -1 -145 -17 -142 -15 3 -19 18 -23 102 l-5 99 -44 -49 c-118 -131 -143 -154 -167 -154 l-24 0 0 138 c0 76 3 142 6 145 17 17 24 -12 24 -103z m582 91 c93 -37 114 -163 38 -236 -27 -25 -40 -30 -99 -33 -78 -5 -117 10 -150 57 -27 38 -28 114 -2 157 37 61 134 86 213 55z m372 -1 c36 -13 66 -50 66 -82 0 -40 -46 -65 -132 -74 -82 -8 -105 -21 -90 -51 18 -33 122 -40 159 -10 16 12 43 2 43 -17 0 -21 -54 -36 -126 -36 -53 0 -67 4 -93 26 -23 19 -31 34 -31 60 0 47 31 64 130 73 54 5 84 12 90 21 14 22 12 28 -16 47 -34 22 -120 21 -165 -2 -31 -16 -33 -16 -46 1 -11 15 -11 19 4 28 57 31 148 39 207 16z m348 5 c40 -6 93 -57 104 -100 15 -59 -19 -131 -76 -160 -34 -18 -132 -20 -163 -4 -96 50 -112 172 -32 236 53 43 66 45 167 28z m456 -8 c3 -14 -12 -17 -100 -19 l-103 -3 -5 -120 c-4 -104 -7 -120 -22 -123 -16 -3 -18 9 -18 136 0 76 2 141 5 143 2 3 57 4 122 3 99 -1 119 -4 121 -17z m316 -8 c43 -29 66 -72 66 -124 0 -35 -7 -50 -38 -86 -38 -42 -41 -43 -109 -47 -117 -7 -173 39 -173 142 0 47 4 61 28 86 52 58 163 72 226 29z m-3032 -96 l3 -118 53 -3 c44 -3 52 -6 52 -23 0 -18 -8 -19 -130 -19 -123 0 -130 1 -130 20 0 18 7 20 55 20 l55 0 0 120 c0 113 1 120 20 120 18 0 20 -8 22 -117z m782 103 c41 -17 52 -32 36 -51 -10 -12 -16 -12 -38 4 -84 59 -212 11 -212 -79 0 -36 28 -77 62 -91 44 -18 111 -16 143 5 27 18 45 14 45 -9 0 -37 -162 -60 -220 -30 -40 21 -70 74 -70 124 0 91 56 141 158 141 34 0 78 -6 96 -14z m756 -810 c0 -279 1 -314 16 -320 8 -3 76 -6 150 -6 l134 0 0 -61 c0 -37 -4 -58 -10 -54 -5 3 -10 28 -10 56 l0 49 -145 0 -145 0 0 324 c0 178 -3 333 -6 343 -5 17 -5 17 6 0 8 -12 11 -114 10 -331z m335 214 c10 -11 16 -20 13 -20 -3 0 -13 9 -23 20 -10 11 -16 20 -13 20 3 0 13 -9 23 -20z m43 -66 c-4 -3 -12 5 -18 18 -12 22 -12 22 6 6 10 -10 15 -20 12 -24z m-428 -290 c0 -2 -11 -4 -25 -4 -14 0 -25 4 -25 9 0 4 11 6 25 3 14 -2 25 -6 25 -8z m-177 -191 c-40 -2 -106 -2 -145 0 -40 1 -8 3 72 3 80 0 112 -2 73 -3z"/>
<path d="M1594 1456 c-69 -31 -86 -110 -36 -164 82 -88 237 -14 203 98 -6 21 -22 45 -35 54 -36 23 -96 29 -132 12z"/>
<path d="M2344 1459 c-47 -13 -78 -52 -76 -95 3 -71 46 -108 126 -107 40 1 53 6 76 29 16 16 31 43 34 59 8 40 -24 92 -69 111 -38 16 -47 16 -91 3z"/>
<path d="M3060 1452 c-21 -10 -42 -32 -53 -54 -16 -33 -17 -40 -3 -71 37 -90 165 -98 216 -15 24 40 25 50 4 93 -10 23 -28 39 -55 49 -50 20 -66 20 -109 -2z"/>
</g>
<g id="layer105" fill="#4b2d31" stroke="none">
<path d="M0 764 l0 -764 1645 0 1645 0 0 763 -1 764 -1644 0 -1645 0 0 -763z m182 624 l3 -123 55 -5 c40 -4 55 -9 55 -20 0 -13 -22 -15 -135 -15 -113 0 -135 2 -135 15 0 11 15 16 55 20 l55 5 3 123 c2 113 4 122 22 122 18 0 20 -9 22 -122z m458 102 c0 -18 -8 -20 -97 -22 l-98 -3 -3 -42 -3 -43 71 0 c63 0 71 -2 68 -17 -3 -15 -16 -19 -71 -21 l-67 -3 0 -39 0 -40 94 0 c75 0 95 -3 100 -15 8 -23 -9 -26 -130 -23 l-109 3 -3 129 c-1 72 0 136 2 143 4 10 36 13 126 13 113 0 120 -1 120 -20z m342 -11 c35 -18 38 -22 27 -37 -8 -9 -14 -18 -15 -20 -1 -2 -14 4 -28 13 -66 43 -147 36 -191 -17 -35 -41 -29 -91 15 -130 26 -24 39 -28 88 -28 36 0 66 6 80 16 24 16 42 12 42 -11 0 -23 -67 -45 -136 -46 -106 -2 -160 55 -152 160 4 48 9 59 39 83 19 16 48 33 64 38 42 13 120 3 167 -21z m158 -74 c0 -80 3 -105 13 -105 8 0 55 47 106 105 128 145 131 144 131 -40 0 -138 -1 -145 -20 -145 -19 0 -20 7 -20 95 0 52 -4 95 -9 95 -5 0 -46 -43 -92 -95 -68 -79 -87 -95 -110 -95 l-29 0 0 145 c0 122 2 145 15 145 12 0 15 -18 15 -105z m587 86 c50 -23 74 -57 80 -115 9 -77 -46 -150 -117 -156 -93 -8 -122 -1 -161 39 -37 36 -39 42 -39 99 0 50 4 66 25 90 52 61 134 78 212 43z m357 3 c53 -18 79 -50 74 -90 -5 -41 -43 -62 -132 -73 -92 -11 -108 -21 -81 -52 19 -20 55 -22 165 -7 34 4 38 -25 5 -40 -14 -7 -58 -12 -96 -12 -67 0 -73 2 -105 34 -40 40 -42 56 -11 92 20 23 32 27 98 31 85 6 109 16 109 43 0 43 -105 58 -174 25 -35 -17 -39 -17 -54 -2 -20 21 -11 30 48 51 58 20 96 20 154 0z m369 2 c18 -7 46 -28 62 -45 26 -29 30 -39 30 -92 0 -58 -2 -62 -42 -100 -41 -38 -44 -39 -116 -39 -62 0 -79 4 -103 22 -40 31 -52 48 -59 86 -23 124 106 220 228 168z m445 -8 c3 -15 -9 -18 -100 -20 l-103 -3 -3 -123 c-3 -121 -3 -123 -25 -120 -21 3 -22 7 -25 132 -1 72 0 136 2 143 4 11 33 13 128 11 107 -3 123 -5 126 -20z m300 1 c56 -28 82 -69 82 -133 0 -44 -4 -53 -44 -92 l-43 -44 -78 0 c-77 0 -78 0 -116 39 -36 36 -39 43 -39 95 0 80 18 110 85 141 44 21 102 18 153 -6z m-1595 -416 c-7 -2 -19 -2 -25 0 -7 3 -2 5 12 5 14 0 19 -2 13 -5z m152 -3 c27 -7 28 -8 5 -8 -14 0 -45 3 -70 7 l-45 8 40 1 c22 0 54 -4 70 -8z m140 -50 c159 -80 266 -247 279 -439 l5 -66 -9 59 c-18 113 -41 181 -83 247 -51 80 -141 163 -213 196 -50 23 -65 33 -47 33 4 0 35 -14 68 -30z m-275 1 c0 -4 -6 -8 -14 -8 -8 0 -12 6 -9 14 5 13 23 9 23 -6z m101 -338 c0 -207 3 -311 11 -320 8 -10 47 -13 149 -13 l139 0 0 -62 c0 -71 -17 -69 -22 2 l-3 45 -142 3 -143 3 0 317 c0 174 -3 328 -6 342 -4 21 -4 22 6 8 7 -12 11 -118 11 -325z m-52 -149 c2 -2 -4 -7 -13 -10 -11 -4 -24 0 -34 10 -16 16 -15 17 13 10 17 -4 32 -8 34 -10z m498 -86 c-3 -8 -6 -5 -6 6 -1 11 2 17 5 13 3 -3 4 -12 1 -19z m-612 -105 c-6 -5 -71 -5 -145 -2 l-135 5 145 2 c79 1 140 -1 135 -5z"/>
</g>
<g id="layer106" fill="#3c3f42" stroke="none">
<path d="M0 764 l0 -764 1645 0 1645 0 0 763 -1 764 -1644 0 -1645 0 0 -763z m182 624 l3 -123 55 -5 c40 -4 55 -9 55 -20 0 -13 -22 -15 -135 -15 -113 0 -135 2 -135 15 0 11 15 16 55 20 l55 5 3 123 c2 113 4 122 22 122 18 0 20 -9 22 -122z m458 102 c0 -18 -8 -20 -97 -22 l-98 -3 -3 -42 -3 -43 71 0 c63 0 71 -2 68 -17 -3 -15 -16 -19 -71 -21 l-67 -3 0 -39 0 -40 94 0 c75 0 95 -3 100 -15 8 -23 -9 -26 -130 -23 l-109 3 -3 129 c-1 72 0 136 2 143 4 10 36 13 126 13 113 0 120 -1 120 -20z m342 -11 c35 -18 38 -22 27 -37 -8 -9 -14 -18 -15 -20 -1 -2 -14 4 -28 13 -66 43 -147 36 -191 -17 -35 -41 -29 -91 15 -130 26 -24 39 -28 88 -28 36 0 66 6 80 16 24 16 42 12 42 -11 0 -23 -67 -45 -136 -46 -106 -2 -160 55 -152 160 4 48 9 59 39 83 19 16 48 33 64 38 42 13 120 3 167 -21z m158 -74 c0 -80 3 -105 13 -105 8 0 55 47 106 105 128 145 131 144 131 -40 0 -138 -1 -145 -20 -145 -19 0 -20 7 -20 95 0 52 -4 95 -9 95 -5 0 -46 -43 -92 -95 -68 -79 -87 -95 -110 -95 l-29 0 0 145 c0 122 2 145 15 145 12 0 15 -18 15 -105z m587 86 c50 -23 74 -57 80 -115 9 -77 -46 -150 -117 -156 -93 -8 -122 -1 -161 39 -37 36 -39 42 -39 99 0 50 4 66 25 90 52 61 134 78 212 43z m357 3 c53 -18 79 -50 74 -90 -5 -41 -43 -62 -132 -73 -92 -11 -108 -21 -81 -52 19 -20 55 -22 165 -7 34 4 38 -25 5 -40 -14 -7 -58 -12 -96 -12 -67 0 -73 2 -105 34 -40 40 -42 56 -11 92 20 23 32 27 98 31 85 6 109 16 109 43 0 43 -105 58 -174 25 -35 -17 -39 -17 -54 -2 -20 21 -11 30 48 51 58 20 96 20 154 0z m369 2 c18 -7 46 -28 62 -45 26 -29 30 -39 30 -92 0 -58 -2 -62 -42 -100 -41 -38 -44 -39 -116 -39 -62 0 -79 4 -103 22 -40 31 -52 48 -59 86 -23 124 106 220 228 168z m445 -8 c3 -15 -9 -18 -100 -20 l-103 -3 -3 -123 c-3 -121 -3 -123 -25 -120 -21 3 -22 7 -25 132 -1 72 0 136 2 143 4 11 33 13 128 11 107 -3 123 -5 126 -20z m300 1 c56 -28 82 -69 82 -133 0 -44 -4 -53 -44 -92 l-43 -44 -78 0 c-77 0 -78 0 -116 39 -36 36 -39 43 -39 95 0 80 18 110 85 141 44 21 102 18 153 -6z m-1595 -416 c-7 -2 -19 -2 -25 0 -7 3 -2 5 12 5 14 0 19 -2 13 -5z m152 -3 c27 -7 28 -8 5 -8 -14 0 -45 3 -70 7 l-45 8 40 1 c22 0 54 -4 70 -8z m140 -50 c159 -80 266 -247 279 -439 l5 -66 -9 59 c-18 113 -41 181 -83 247 -51 80 -141 163 -213 196 -50 23 -65 33 -47 33 4 0 35 -14 68 -30z m-275 3 c0 -9 -3 -13 -7 -10 -3 4 -15 -1 -27 -10 -20 -18 -20 -18 0 9 22 31 34 35 34 11z m112 -354 l3 -314 143 -3 142 -3 0 -61 c0 -71 -17 -69 -22 2 l-3 45 -142 3 -143 3 0 317 c0 174 -3 328 -6 342 l-6 25 16 -21 c13 -19 16 -67 18 -335z m-115 174 c-2 -16 -4 -3 -4 27 0 30 2 43 4 28 2 -16 2 -40 0 -55z m0 -60 c-4 -3 -7 0 -7 7 0 7 3 10 7 7 3 -4 3 -10 0 -14z m0 -40 c-4 -3 -7 0 -7 7 0 7 3 10 7 7 3 -4 3 -10 0 -14z m0 -40 c-4 -3 -7 0 -7 7 0 7 3 10 7 7 3 -4 3 -10 0 -14z m0 -40 c-4 -3 -7 0 -7 7 0 7 3 10 7 7 3 -4 3 -10 0 -14z m0 -95 c-3 -8 -6 -5 -6 6 -1 11 2 17 5 13 3 -3 4 -12 1 -19z m52 -34 c2 -2 -4 -7 -13 -10 -11 -4 -24 0 -34 10 -16 16 -15 17 13 10 17 -4 32 -8 34 -10z m498 -86 c-3 -8 -6 -5 -6 6 -1 11 2 17 5 13 3 -3 4 -12 1 -19z m-612 -105 c-6 -5 -73 -6 -150 -2 l-140 5 150 2 c82 1 145 -1 140 -5z"/>
<path d="M1605 1458 c-44 -16 -64 -37 -71 -75 -8 -45 17 -100 52 -113 14 -6 46 -10 70 -10 64 0 104 40 104 103 0 38 -5 49 -31 71 -17 14 -36 26 -42 26 -7 0 -21 2 -32 5 -11 2 -33 -1 -50 -7z"/>
<path d="M2350 1458 c-81 -21 -108 -112 -51 -169 25 -25 37 -29 83 -29 63 0 94 18 114 66 34 81 -51 158 -146 132z"/>
<path d="M3073 1459 c-74 -22 -98 -115 -44 -170 28 -28 57 -35 116 -29 33 3 66 30 81 66 34 82 -56 161 -153 133z"/>
</g>
<g id="layer107" fill="#a20b0b" stroke="none">
<path d="M0 764 l0 -764 1645 0 1645 0 0 763 -1 764 -1644 0 -1645 0 0 -763z m180 637 c0 -60 3 -116 6 -125 5 -12 20 -16 61 -16 46 0 54 -3 51 -17 -3 -16 -18 -18 -138 -18 -119 0 -135 2 -138 17 -3 14 6 17 55 20 l58 3 3 123 c2 114 4 122 22 122 19 0 20 -7 20 -109z m460 89 c0 -18 -8 -20 -97 -22 l-98 -3 0 -40 0 -40 68 -3 c58 -2 68 -6 65 -20 -3 -14 -17 -18 -71 -20 l-68 -3 3 -37 3 -37 95 -5 c76 -4 95 -8 95 -20 0 -12 -22 -15 -122 -18 l-123 -3 0 139 c0 76 3 142 7 145 3 4 60 7 125 7 111 0 118 -1 118 -20z m293 9 c23 -5 52 -18 64 -27 19 -14 20 -20 9 -34 -12 -16 -15 -16 -55 4 -74 36 -148 22 -187 -37 -23 -35 -11 -87 27 -119 36 -31 111 -36 160 -11 16 9 34 13 39 10 20 -12 9 -36 -22 -49 -89 -37 -174 -28 -223 24 -27 29 -30 37 -30 102 0 69 1 71 39 104 49 42 103 53 179 33z m212 -51 c3 -35 5 -72 4 -83 -4 -33 1 -65 9 -65 4 0 49 47 100 105 58 65 100 105 113 105 18 0 19 -8 19 -145 0 -138 -1 -145 -20 -145 -19 0 -20 7 -20 95 0 52 -4 95 -8 95 -5 0 -46 -43 -92 -95 -68 -78 -88 -95 -112 -95 l-28 0 0 145 c0 119 3 145 14 145 10 0 16 -18 21 -62z m585 40 c101 -51 108 -202 11 -252 -103 -54 -225 -12 -251 85 -36 133 108 233 240 167z m367 3 c46 -22 66 -49 61 -88 -5 -40 -44 -63 -126 -71 -80 -9 -103 -22 -86 -50 16 -25 117 -29 151 -6 21 13 27 14 34 3 5 -8 9 -19 9 -25 0 -20 -61 -38 -127 -38 -58 0 -66 3 -98 34 -38 37 -41 46 -23 84 13 30 59 46 131 46 27 0 57 5 68 10 25 14 24 46 -2 61 -31 16 -113 13 -154 -7 -33 -15 -38 -15 -52 -1 -21 21 -10 34 45 51 65 20 119 19 169 -3z m375 -3 c56 -32 82 -77 76 -137 -9 -88 -66 -136 -163 -136 -65 0 -118 24 -143 65 -23 38 -25 111 -4 150 41 73 155 102 234 58z m428 2 c0 -18 -8 -20 -102 -22 l-103 -3 -3 -122 -3 -123 -24 0 -25 0 0 138 c0 76 3 142 7 145 3 4 62 7 130 7 116 0 123 -1 123 -20z m298 -1 c54 -27 82 -70 82 -128 0 -51 -26 -99 -68 -123 -31 -18 -60 -23 -130 -20 -90 4 -153 112 -117 199 35 84 140 117 233 72z m-1426 -420 c136 -29 288 -149 347 -273 50 -106 65 -177 57 -276 -4 -46 -11 -89 -17 -95 -7 -7 -8 -1 -2 20 12 45 8 163 -6 225 -28 118 -119 244 -224 312 -93 61 -150 79 -271 88 l-111 7 87 2 c48 0 111 -4 140 -10z m-152 -51 c0 -18 -2 -20 -10 -8 -8 12 -10 12 -16 -3 -3 -9 -10 -17 -16 -17 -10 0 23 49 35 50 4 0 7 -10 7 -22z m112 -349 l3 -314 143 -3 142 -3 0 -61 c0 -71 -17 -69 -22 2 l-3 45 -142 3 -143 3 0 317 c0 174 -3 328 -6 342 l-6 25 16 -21 c13 -19 16 -67 18 -335z m-82 -130 c22 -5 23 -7 7 -14 -10 -4 -24 -2 -32 5 -13 10 -15 48 -13 234 l2 221 6 -220 5 -219 25 -7z m-90 -199 c0 -13 -260 -13 -280 0 -10 7 34 10 133 10 91 0 147 -4 147 -10z"/>
</g>
<g id="layer108" fill="#3d4446" stroke="none">
<path d="M0 764 l0 -764 1645 0 1645 0 0 763 -1 764 -1644 0 -1645 0 0 -763z m180 637 c0 -60 3 -116 6 -125 5 -12 20 -16 61 -16 46 0 54 -3 51 -17 -3 -16 -18 -18 -138 -18 -119 0 -135 2 -138 17 -3 14 6 17 55 20 l58 3 3 123 c2 114 4 122 22 122 19 0 20 -7 20 -109z m460 89 c0 -18 -8 -20 -97 -22 l-98 -3 0 -40 0 -40 68 -3 c58 -2 68 -6 65 -20 -3 -14 -17 -18 -71 -20 l-68 -3 3 -37 3 -37 95 -5 c76 -4 95 -8 95 -20 0 -12 -22 -15 -122 -18 l-123 -3 0 139 c0 76 3 142 7 145 3 4 60 7 125 7 111 0 118 -1 118 -20z m293 9 c23 -5 52 -18 64 -27 19 -14 20 -20 9 -34 -12 -16 -15 -16 -55 4 -74 36 -148 22 -187 -37 -23 -35 -11 -87 27 -119 36 -31 111 -36 160 -11 16 9 34 13 39 10 20 -12 9 -36 -22 -49 -89 -37 -174 -28 -223 24 -27 29 -30 37 -30 102 0 69 1 71 39 104 49 42 103 53 179 33z m212 -51 c3 -35 5 -72 4 -83 -4 -33 1 -65 9 -65 4 0 49 47 100 105 58 65 100 105 113 105 18 0 19 -8 19 -145 0 -138 -1 -145 -20 -145 -19 0 -20 7 -20 95 0 52 -4 95 -8 95 -5 0 -46 -43 -92 -95 -68 -78 -88 -95 -112 -95 l-28 0 0 145 c0 119 3 145 14 145 10 0 16 -18 21 -62z m585 40 c101 -51 108 -202 11 -252 -103 -54 -225 -12 -251 85 -36 133 108 233 240 167z m367 3 c46 -22 66 -49 61 -88 -5 -40 -44 -63 -126 -71 -80 -9 -103 -22 -86 -50 16 -25 117 -29 151 -6 21 13 27 14 34 3 5 -8 9 -19 9 -25 0 -20 -61 -38 -127 -38 -58 0 -66 3 -98 34 -38 37 -41 46 -23 84 13 30 59 46 131 46 27 0 57 5 68 10 25 14 24 46 -2 61 -31 16 -113 13 -154 -7 -33 -15 -38 -15 -52 -1 -21 21 -10 34 45 51 65 20 119 19 169 -3z m375 -3 c56 -32 82 -77 76 -137 -9 -88 -66 -136 -163 -136 -65 0 -118 24 -143 65 -23 38 -25 111 -4 150 41 73 155 102 234 58z m428 2 c0 -18 -8 -20 -102 -22 l-103 -3 -3 -122 -3 -123 -24 0 -25 0 0 138 c0 76 3 142 7 145 3 4 62 7 130 7 116 0 123 -1 123 -20z m298 -1 c54 -27 82 -70 82 -128 0 -51 -26 -99 -68 -123 -31 -18 -60 -23 -130 -20 -90 4 -153 112 -117 199 35 84 140 117 233 72z m-1426 -420 c136 -29 288 -149 347 -273 50 -106 65 -177 57 -276 -4 -46 -11 -89 -17 -95 -7 -7 -8 -1 -2 20 12 45 8 163 -6 225 -28 118 -119 244 -224 312 -93 61 -150 79 -271 88 l-111 7 87 2 c48 0 111 -4 140 -10z m-140 -276 c3 -229 4 -248 21 -247 9 1 17 -2 17 -7 0 -16 -30 -22 -46 -9 -13 11 -15 47 -14 239 1 282 3 260 -15 237 -8 -11 -18 -17 -22 -13 -8 9 26 47 43 47 11 0 14 -50 16 -247z m98 -115 l0 -318 145 0 c143 0 145 0 151 -23 8 -34 1 -97 -11 -97 -5 0 -12 21 -15 47 l-5 48 -142 3 -143 3 0 319 c0 199 -4 329 -11 346 -10 28 -10 28 10 9 20 -18 21 -28 21 -337z m-170 -333 c0 -13 -21 -15 -129 -15 -71 0 -136 3 -145 6 -43 17 -3 24 129 24 122 0 145 -2 145 -15z"/>
<path d="M1581 1446 c-48 -27 -63 -84 -36 -137 19 -35 50 -49 111 -49 64 0 104 40 104 103 0 38 -5 49 -31 71 -35 30 -106 35 -148 12z"/>
<path d="M2350 1458 c-19 -5 -46 -21 -59 -35 -19 -22 -22 -34 -18 -71 7 -63 32 -85 105 -90 51 -4 62 -1 85 19 92 81 9 210 -113 177z"/>
<path d="M3080 1460 c-75 -18 -106 -108 -57 -166 20 -23 34 -28 85 -32 58 -4 63 -3 92 26 42 42 42 101 1 143 -16 16 -36 29 -44 29 -9 0 -21 2 -29 4 -7 2 -29 0 -48 -4z"/>
</g>
<g id="layer109" fill="#4f5152" stroke="none">
<path d="M0 764 l0 -764 1645 0 1645 0 -1 707 c-1 390 -5 683 -8 653 -8 -64 -24 -94 -66 -120 -72 -45 -172 -34 -224 25 -36 42 -46 88 -31 144 15 58 81 101 154 101 54 0 127 -35 146 -70 19 -35 30 -22 30 33 l0 54 -1645 0 -1645 0 0 -763z m181 729 c1 -10 2 -22 4 -28 1 -5 3 -54 3 -107 l2 -98 56 0 c47 0 55 -3 52 -17 -3 -16 -19 -18 -141 -21 -131 -2 -137 -2 -137 17 0 17 8 20 58 23 l57 3 3 123 c2 114 4 122 22 122 12 0 20 -7 21 -17z m459 -3 c0 -18 -7 -20 -87 -20 -49 0 -94 -4 -101 -9 -8 -5 -12 -22 -10 -42 l3 -34 68 -3 c58 -3 67 -5 67 -22 0 -17 -9 -19 -67 -22 l-68 -3 0 -35 0 -35 95 -5 c76 -4 95 -8 95 -20 0 -12 -22 -15 -122 -18 l-123 -3 0 146 0 145 125 0 c118 0 125 -1 125 -20z m293 9 c23 -5 52 -18 65 -27 19 -15 21 -20 9 -36 -12 -17 -15 -17 -55 4 -62 33 -135 24 -174 -19 -15 -17 -28 -40 -28 -52 0 -28 26 -75 52 -93 28 -20 114 -20 148 -1 37 21 52 19 48 -7 -2 -18 -15 -27 -60 -42 -83 -26 -140 -16 -190 34 -36 36 -38 41 -38 100 0 60 2 65 40 101 51 48 101 59 183 38z m211 -11 c3 -13 6 -60 6 -105 0 -46 3 -83 8 -83 4 0 49 47 100 105 58 65 100 105 113 105 18 0 19 -8 19 -145 0 -138 -1 -145 -20 -145 -19 0 -20 7 -20 95 0 52 -4 95 -8 95 -4 0 -45 -43 -91 -95 -69 -79 -88 -95 -112 -95 l-29 0 0 145 c0 117 3 145 14 145 7 0 16 -10 20 -22z m587 2 c96 -50 108 -187 21 -248 -61 -44 -175 -37 -226 14 -73 74 -44 204 54 243 42 16 108 12 151 -9z m364 1 c52 -23 67 -43 63 -82 -5 -47 -42 -70 -127 -78 -78 -7 -102 -21 -85 -49 16 -24 117 -29 150 -7 28 18 44 13 44 -14 0 -31 -91 -56 -162 -45 -46 8 -98 54 -98 87 1 49 48 77 130 77 27 0 60 4 74 10 31 11 35 45 7 60 -30 16 -116 12 -156 -7 -32 -15 -37 -16 -51 -1 -22 22 -11 35 44 52 64 20 119 19 167 -3z m377 -3 c56 -32 82 -77 76 -137 -9 -88 -66 -136 -163 -136 -99 0 -152 44 -161 133 -7 64 18 109 75 139 57 30 121 30 173 1z m428 2 c0 -19 -7 -20 -89 -20 -49 0 -96 -3 -105 -6 -13 -5 -16 -26 -16 -125 l0 -119 -25 0 -25 0 0 138 c0 76 3 142 7 145 3 4 62 7 130 7 116 0 123 -1 123 -20z m-1152 -416 c264 -54 447 -287 429 -548 -3 -44 -10 -92 -15 -106 -7 -18 -8 6 -5 81 9 179 -33 295 -150 412 -116 116 -254 166 -420 154 -91 -7 -97 2 -10 13 88 11 88 11 171 -6z m-116 -281 c3 -229 4 -248 21 -247 9 1 17 -2 17 -7 0 -16 -30 -22 -45 -9 -13 10 -15 52 -15 247 0 210 -2 234 -15 223 -23 -19 -31 -3 -10 20 42 46 44 34 47 -227z m98 -115 l0 -318 145 0 c143 0 145 0 151 -23 8 -34 1 -97 -11 -97 -5 0 -12 21 -15 47 l-5 48 -140 2 -140 1 -5 334 c-3 183 -9 340 -14 348 -6 9 -1 7 12 -4 22 -19 22 -23 22 -338z m409 -327 c-6 -18 -13 -30 -15 -28 -2 2 1 18 7 36 6 18 13 30 15 28 2 -2 -1 -18 -7 -36z m-579 -6 c0 -13 -20 -15 -142 -13 -102 2 -143 6 -146 16 -3 9 30 12 142 12 124 0 146 -2 146 -15z"/>
<path d="M1581 1446 c-49 -27 -64 -86 -34 -136 21 -36 52 -50 109 -50 64 0 104 40 104 103 0 38 -5 49 -31 71 -35 30 -106 35 -148 12z"/>
<path d="M2350 1459 c-71 -20 -99 -84 -65 -150 19 -35 50 -49 111 -49 63 0 104 40 104 100 0 33 -6 48 -29 71 -16 16 -36 29 -44 29 -9 0 -21 2 -29 4 -7 2 -29 0 -48 -5z"/>
<path d="M3075 1455 c-58 -20 -78 -50 -72 -104 7 -66 33 -86 112 -86 77 0 103 20 112 82 11 85 -64 139 -152 108z"/>
</g>
<g id="layer110" fill="#ff0102" stroke="none">
<path d="M0 764 l0 -764 1645 0 1645 0 0 650 c0 358 -2 650 -5 650 -3 0 -23 -18 -44 -39 -96 -96 -271 -48 -288 79 -13 97 59 170 167 170 48 0 64 -5 99 -30 23 -17 44 -37 48 -45 11 -32 23 -13 23 38 l0 54 -1645 0 -1645 0 0 -763z m190 621 l5 -120 53 -3 c44 -3 52 -6 52 -23 0 -18 -8 -19 -140 -19 -132 0 -140 1 -140 20 0 16 8 19 58 22 l57 3 3 123 c3 121 3 123 25 120 21 -3 22 -8 27 -123z m450 100 l0 -25 -101 0 -100 0 3 -37 3 -38 68 -3 c58 -3 67 -5 67 -22 0 -17 -9 -19 -67 -22 l-68 -3 0 -35 0 -35 98 -3 c87 -2 98 -5 95 -20 -3 -15 -19 -17 -126 -20 l-122 -3 0 146 0 145 125 0 125 0 0 -25z m342 -2 c36 -21 42 -40 16 -56 -13 -9 -22 -7 -38 8 -26 23 -115 31 -149 13 -14 -7 -33 -28 -44 -45 -16 -28 -17 -38 -7 -67 16 -50 43 -69 105 -74 43 -3 62 0 89 16 l36 21 11 -20 c12 -24 14 -21 -28 -43 -109 -55 -240 -11 -263 88 -17 74 27 155 95 176 45 14 140 5 177 -17z m166 -81 c1 -57 7 -102 11 -100 8 3 79 80 159 172 23 26 39 36 55 34 21 -3 22 -8 25 -112 5 -136 -2 -176 -28 -176 -18 0 -20 7 -20 95 0 52 -3 95 -7 95 -5 0 -46 -43 -92 -96 -76 -86 -86 -95 -115 -92 l-31 3 -2 135 c-1 74 1 138 4 143 3 4 12 7 21 5 14 -3 17 -20 20 -106z m582 90 c100 -50 108 -197 13 -259 -36 -24 -158 -25 -190 -2 -49 34 -68 70 -68 129 0 64 17 94 73 127 46 28 122 31 172 5z m361 4 c58 -24 79 -58 66 -106 -9 -36 -42 -52 -116 -58 -73 -5 -101 -16 -101 -37 0 -35 100 -48 155 -19 27 14 30 14 43 -3 11 -15 10 -20 -7 -34 -26 -21 -115 -32 -166 -19 -44 10 -85 50 -85 81 0 51 43 78 129 80 68 1 96 12 99 37 3 16 -4 25 -23 32 -44 17 -117 12 -154 -11 -32 -19 -34 -19 -47 -2 -18 25 -17 30 8 44 58 31 145 37 199 15z m398 -15 c19 -13 42 -44 53 -67 16 -37 17 -50 8 -84 -28 -103 -149 -150 -250 -97 -96 51 -109 185 -23 243 46 31 55 34 118 31 45 -2 70 -9 94 -26z m409 7 c-3 -22 -8 -23 -105 -26 l-103 -3 0 -119 0 -120 -25 0 -25 0 0 145 0 145 131 0 c130 0 130 0 127 -22z m-1146 -413 c197 -40 353 -185 412 -385 37 -124 11 -299 -60 -407 -44 -67 -64 -80 -24 -16 68 109 96 263 70 386 -31 151 -149 300 -285 362 -133 60 -300 70 -404 24 -48 -21 -65 -24 -56 -9 7 11 125 47 175 53 71 8 100 7 172 -8z m-120 -282 c3 -229 4 -248 21 -247 9 1 17 -2 17 -7 0 -14 -19 -21 -40 -14 -19 6 -20 15 -20 247 0 240 0 241 -20 223 -25 -23 -28 0 -3 27 40 44 43 30 45 -229z m98 -115 l0 -318 145 0 c143 0 145 0 151 -23 8 -36 1 -100 -13 -105 -9 -2 -13 11 -13 47 0 63 -4 64 -170 60 l-120 -4 0 318 c0 263 -3 324 -15 354 l-16 37 26 -24 25 -23 0 -319z m-340 337 c0 -2 -10 -9 -22 -15 -22 -11 -22 -10 -4 4 21 17 26 19 26 11z m178 -673 c3 -10 -27 -12 -144 -10 -109 2 -148 6 -152 16 -3 10 27 12 144 10 109 -2 148 -6 152 -16z"/>
</g>
<g id="layer111" fill="#5c6366" stroke="none">
<path d="M0 764 l0 -764 1645 0 1645 0 0 650 c0 358 -2 650 -5 650 -3 0 -23 -18 -44 -39 -96 -96 -271 -48 -288 79 -13 97 59 170 167 170 48 0 64 -5 99 -30 23 -17 44 -37 48 -45 11 -32 23 -13 23 38 l0 54 -1645 0 -1645 0 0 -763z m190 621 l5 -120 53 -3 c44 -3 52 -6 52 -23 0 -18 -8 -19 -140 -19 -132 0 -140 1 -140 20 0 16 8 19 58 22 l57 3 3 123 c3 121 3 123 25 120 21 -3 22 -8 27 -123z m450 100 l0 -25 -101 0 -100 0 3 -37 3 -38 68 -3 c58 -3 67 -5 67 -22 0 -17 -9 -19 -67 -22 l-68 -3 0 -35 0 -35 98 -3 c87 -2 98 -5 95 -20 -3 -15 -19 -17 -126 -20 l-122 -3 0 146 0 145 125 0 125 0 0 -25z m342 -2 c36 -21 42 -40 16 -56 -13 -9 -22 -7 -38 8 -26 23 -115 31 -149 13 -14 -7 -33 -28 -44 -45 -16 -28 -17 -38 -7 -67 16 -50 43 -69 105 -74 43 -3 62 0 89 16 l36 21 11 -20 c12 -24 14 -21 -28 -43 -109 -55 -240 -11 -263 88 -17 74 27 155 95 176 45 14 140 5 177 -17z m166 -81 c1 -57 7 -102 11 -100 8 3 79 80 159 172 23 26 39 36 55 34 21 -3 22 -8 25 -112 5 -136 -2 -176 -28 -176 -18 0 -20 7 -20 95 0 52 -3 95 -7 95 -5 0 -46 -43 -92 -96 -76 -86 -86 -95 -115 -92 l-31 3 -2 135 c-1 74 1 138 4 143 3 4 12 7 21 5 14 -3 17 -20 20 -106z m582 90 c100 -50 108 -197 13 -259 -36 -24 -158 -25 -190 -2 -49 34 -68 70 -68 129 0 64 17 94 73 127 46 28 122 31 172 5z m361 4 c58 -24 79 -58 66 -106 -9 -36 -42 -52 -116 -58 -73 -5 -101 -16 -101 -37 0 -35 100 -48 155 -19 27 14 30 14 43 -3 11 -15 10 -20 -7 -34 -26 -21 -115 -32 -166 -19 -44 10 -85 50 -85 81 0 51 43 78 129 80 68 1 96 12 99 37 3 16 -4 25 -23 32 -44 17 -117 12 -154 -11 -32 -19 -34 -19 -47 -2 -18 25 -17 30 8 44 58 31 145 37 199 15z m398 -15 c19 -13 42 -44 53 -67 16 -37 17 -50 8 -84 -28 -103 -149 -150 -250 -97 -96 51 -109 185 -23 243 46 31 55 34 118 31 45 -2 70 -9 94 -26z m409 7 c-3 -22 -8 -23 -105 -26 l-103 -3 0 -119 0 -120 -25 0 -25 0 0 145 0 145 131 0 c130 0 130 0 127 -22z m-1146 -413 c197 -40 353 -185 412 -385 37 -124 11 -299 -60 -407 -44 -67 -64 -80 -24 -16 68 109 96 263 70 386 -31 151 -149 300 -285 362 -133 60 -300 70 -404 24 -48 -21 -65 -24 -56 -9 7 11 125 47 175 53 71 8 100 7 172 -8z m-90 -287 c2 -139 0 -257 -3 -261 -4 -5 -16 -6 -28 -2 -21 6 -21 11 -21 247 0 240 0 241 -20 223 -12 -11 -20 -13 -20 -6 0 7 -4 9 -10 6 -6 -4 -10 -122 -10 -320 0 -198 4 -316 10 -320 30 -19 -3 -25 -135 -25 -120 0 -147 3 -151 15 -11 29 -24 3 -24 -48 l0 -52 -24 29 c-13 17 -36 62 -52 100 -25 63 -29 83 -29 176 0 95 3 113 33 186 26 67 45 94 100 151 100 102 204 150 334 152 l47 1 3 -252z m153 222 c95 -32 182 -102 252 -203 31 -45 73 -193 73 -257 0 -54 -30 -171 -55 -220 -23 -46 -65 -100 -76 -100 -5 0 -9 22 -9 50 0 62 -5 63 -170 59 l-120 -4 0 318 c0 255 -3 324 -15 352 l-14 35 42 -6 c23 -4 65 -14 92 -24z m-425 5 c0 -2 -10 -9 -22 -15 -22 -11 -22 -10 -4 4 21 17 26 19 26 11z m571 -836 c-130 -117 -344 -151 -512 -80 -67 28 -169 96 -169 113 0 4 163 8 363 8 l362 -1 -44 -40z"/>
<path d="M1577 1443 c-40 -26 -54 -80 -32 -126 21 -44 60 -61 122 -54 60 7 93 41 93 97 0 60 -33 92 -101 97 -40 3 -61 -1 -82 -14z"/>
<path d="M2313 1440 c-58 -35 -54 -134 8 -165 66 -35 161 -5 174 54 4 17 4 45 0 62 -14 62 -116 90 -182 49z"/>
<path d="M3051 1447 c-49 -29 -64 -88 -34 -137 29 -49 104 -66 162 -36 53 28 67 106 28 152 -19 22 -34 28 -78 31 -34 2 -63 -2 -78 -10z"/>
</g>
<g id="layer112" fill="#f32a26" stroke="none">
<path d="M0 763 l0 -763 1645 0 1645 0 0 650 c0 358 -2 650 -3 650 -2 0 -22 -17 -44 -39 -108 -102 -293 -39 -293 99 0 88 71 150 171 150 47 0 63 -5 98 -30 23 -17 44 -37 48 -45 11 -31 23 -13 23 38 l0 52 -597 2 c-329 2 -620 0 -648 -4 l-50 -7 48 -7 c55 -9 89 -28 113 -64 36 -55 -25 -115 -118 -115 -58 0 -98 -14 -98 -35 0 -34 86 -45 148 -20 34 15 38 15 49 -1 19 -26 17 -30 -19 -45 -49 -21 -158 -18 -191 4 -56 37 -61 104 -9 131 16 8 61 17 100 20 81 5 92 10 92 35 0 42 -109 55 -175 21 -38 -19 -41 -19 -52 -3 -7 9 -13 21 -13 25 0 11 79 47 103 48 10 0 16 4 12 9 -3 6 -389 9 -995 8 l-990 -1 0 -763z m192 625 l3 -123 53 -3 c44 -3 52 -6 52 -23 0 -18 -8 -19 -140 -19 -133 0 -140 1 -140 20 0 18 7 20 54 20 65 0 68 5 66 110 -3 141 -3 140 25 140 l24 0 3 -122z m453 97 c0 -19 -8 -20 -102 -23 l-103 -3 0 -33 c0 -40 11 -46 86 -46 47 0 54 -2 54 -20 0 -18 -7 -20 -54 -20 -72 0 -86 -6 -86 -40 0 -36 13 -40 116 -40 77 0 84 -2 84 -20 0 -19 -7 -20 -125 -20 l-125 0 0 145 0 146 128 -3 c119 -3 127 -4 127 -23z m325 3 c47 -24 56 -44 28 -61 -13 -9 -21 -7 -36 6 -29 26 -111 33 -150 13 -37 -19 -52 -43 -52 -86 0 -42 15 -67 50 -85 39 -20 93 -19 141 4 39 19 39 19 50 0 14 -27 7 -34 -57 -54 -95 -30 -166 -11 -218 58 -25 33 -26 109 -3 153 36 70 161 95 247 52z m180 -83 c0 -58 3 -105 8 -105 4 1 48 48 97 105 73 84 95 104 115 102 l25 -2 0 -140 c0 -138 0 -140 -22 -143 -22 -3 -23 -1 -23 87 0 50 -4 91 -9 91 -5 0 -46 -40 -91 -90 -73 -79 -86 -90 -116 -90 l-34 0 0 138 c0 76 3 142 7 145 3 4 15 7 25 7 16 0 18 -10 18 -105z m578 91 c97 -51 115 -176 36 -246 -72 -63 -209 -50 -258 26 -26 39 -31 106 -11 148 35 73 158 111 233 72z m742 -1 c83 -43 110 -147 57 -217 -38 -49 -70 -63 -146 -63 -55 0 -72 4 -99 25 -44 32 -62 69 -62 123 0 54 30 102 80 128 43 23 129 25 170 4z m428 -7 c-3 -22 -9 -23 -103 -28 l-100 -5 -3 -117 -3 -118 -24 0 -25 0 0 145 0 145 131 0 c130 0 130 0 127 -22z m-1135 -414 c103 -23 181 -67 264 -150 107 -106 153 -215 154 -368 1 -97 -19 -176 -64 -256 -32 -56 -122 -160 -139 -160 -6 0 12 24 39 53 86 95 143 234 143 352 0 256 -193 477 -450 514 -93 13 -197 3 -251 -24 -15 -8 -34 -15 -41 -15 -12 0 -47 -22 -140 -89 l-33 -24 32 34 c111 118 309 172 486 133z m-103 -277 c0 -172 3 -246 12 -255 14 -14 -10 -26 -39 -20 -17 3 -18 21 -21 241 -2 214 -8 263 -26 225 -5 -10 -7 -10 -12 0 -19 40 -24 -29 -24 -313 0 -198 4 -316 10 -320 30 -19 -3 -25 -135 -25 -120 0 -147 3 -151 15 -11 29 -24 3 -24 -48 l0 -52 -24 29 c-13 17 -36 62 -52 100 -25 63 -29 83 -29 176 0 95 3 113 33 186 26 67 45 94 100 151 100 102 204 150 335 152 l47 1 0 -243z m155 213 c95 -32 182 -102 252 -203 31 -45 73 -193 73 -257 0 -54 -30 -171 -55 -220 -23 -45 -65 -100 -76 -100 -4 0 -9 21 -11 48 l-3 47 -142 3 -143 3 0 313 c0 249 -3 322 -15 355 l-14 41 42 -6 c23 -4 65 -14 92 -24z m146 -831 c-130 -117 -344 -151 -512 -80 -67 28 -169 96 -169 113 0 4 163 8 363 8 l362 -1 -44 -40z"/>
<path d="M1734 670 c0 -173 2 -244 3 -157 2 86 2 228 0 315 -1 86 -3 15 -3 -158z"/>
</g>
<g id="layer113" fill="#707071" stroke="none">
<path d="M0 763 l0 -763 1645 0 1645 0 0 650 c0 358 -2 650 -3 650 -2 0 -22 -17 -44 -39 -108 -102 -293 -39 -293 99 0 88 71 150 171 150 47 0 63 -5 98 -30 23 -17 44 -37 48 -45 11 -31 23 -13 23 38 l0 52 -597 2 c-329 2 -620 0 -648 -4 l-50 -7 48 -7 c55 -9 89 -28 113 -64 36 -55 -25 -115 -118 -115 -58 0 -98 -14 -98 -35 0 -34 86 -45 148 -20 34 15 38 15 49 -1 19 -26 17 -30 -19 -45 -49 -21 -158 -18 -191 4 -56 37 -61 104 -9 131 16 8 61 17 100 20 81 5 92 10 92 35 0 42 -109 55 -175 21 -38 -19 -41 -19 -52 -3 -7 9 -13 21 -13 25 0 11 79 47 103 48 10 0 16 4 12 9 -3 6 -389 9 -995 8 l-990 -1 0 -763z m192 625 l3 -123 53 -3 c44 -3 52 -6 52 -23 0 -18 -8 -19 -140 -19 -133 0 -140 1 -140 20 0 18 7 20 54 20 65 0 68 5 66 110 -3 141 -3 140 25 140 l24 0 3 -122z m453 97 c0 -19 -8 -20 -102 -23 l-103 -3 0 -33 c0 -40 11 -46 86 -46 47 0 54 -2 54 -20 0 -18 -7 -20 -54 -20 -72 0 -86 -6 -86 -40 0 -36 13 -40 116 -40 77 0 84 -2 84 -20 0 -19 -7 -20 -125 -20 l-125 0 0 145 0 146 128 -3 c119 -3 127 -4 127 -23z m325 3 c47 -24 56 -44 28 -61 -13 -9 -21 -7 -36 6 -29 26 -111 33 -150 13 -37 -19 -52 -43 -52 -86 0 -42 15 -67 50 -85 39 -20 93 -19 141 4 39 19 39 19 50 0 14 -27 7 -34 -57 -54 -95 -30 -166 -11 -218 58 -25 33 -26 109 -3 153 36 70 161 95 247 52z m180 -83 c0 -58 3 -105 8 -105 4 1 48 48 97 105 73 84 95 104 115 102 l25 -2 0 -140 c0 -138 0 -140 -22 -143 -22 -3 -23 -1 -23 87 0 50 -4 91 -9 91 -5 0 -46 -40 -91 -90 -73 -79 -86 -90 -116 -90 l-34 0 0 138 c0 76 3 142 7 145 3 4 15 7 25 7 16 0 18 -10 18 -105z m578 91 c97 -51 115 -176 36 -246 -72 -63 -209 -50 -258 26 -26 39 -31 106 -11 148 35 73 158 111 233 72z m742 -1 c83 -43 110 -147 57 -217 -38 -49 -70 -63 -146 -63 -55 0 -72 4 -99 25 -44 32 -62 69 -62 123 0 54 30 102 80 128 43 23 129 25 170 4z m428 -7 c-3 -22 -9 -23 -103 -28 l-100 -5 -3 -117 -3 -118 -24 0 -25 0 0 145 0 145 131 0 c130 0 130 0 127 -22z m-1135 -414 c103 -23 181 -67 264 -150 107 -106 153 -215 154 -368 1 -97 -19 -176 -64 -256 -32 -56 -122 -160 -139 -160 -6 0 12 24 39 53 86 95 143 234 143 352 0 256 -193 477 -450 514 -93 13 -197 3 -251 -24 -15 -8 -34 -15 -41 -15 -12 0 -47 -22 -140 -89 l-33 -24 32 34 c111 118 309 172 486 133z m-97 -79 c1 -27 3 -144 4 -260 l2 -210 -29 0 -28 0 -3 238 c-1 146 -6 237 -12 237 -6 0 -10 -5 -10 -10 0 -6 -7 -10 -16 -8 -14 3 -15 -31 -14 -310 0 -172 3 -319 6 -327 5 -13 -15 -15 -138 -15 -99 0 -148 4 -156 12 -9 9 -12 -2 -12 -53 l-1 -64 -25 30 c-57 67 -97 191 -97 300 0 169 87 324 233 417 71 45 177 77 250 75 l44 -2 2 -50z m191 4 c76 -36 197 -149 232 -217 47 -92 63 -245 37 -352 -19 -75 -24 -87 -64 -148 -43 -66 -60 -67 -64 -4 l-3 47 -142 3 -143 3 0 313 c0 254 -3 322 -15 356 l-15 43 54 -6 c31 -3 85 -20 123 -38z m137 -801 c-10 -11 -46 -38 -78 -60 -185 -120 -448 -102 -606 41 l-45 40 374 1 374 0 -19 -22z"/>
<path d="M1595 1451 c-55 -24 -75 -94 -41 -145 30 -46 100 -60 156 -31 36 19 50 43 50 89 0 54 -35 88 -96 92 -27 2 -58 0 -69 -5z"/>
<path d="M2318 1443 c-82 -51 -50 -167 49 -180 53 -7 94 9 116 46 20 34 21 60 5 96 -24 52 -114 72 -170 38z"/>
<path d="M3048 1443 c-53 -33 -62 -94 -22 -142 30 -37 80 -48 135 -32 81 25 93 138 18 177 -37 19 -98 17 -131 -3z"/>
<path d="M3283 1360 c0 -30 2 -43 4 -27 2 15 2 39 0 55 -2 15 -4 2 -4 -28z"/>
</g>
<g id="layer114" fill="#797d83" stroke="none">
<path d="M0 765 l0 -765 1645 0 1645 0 0 650 c0 358 -2 650 -5 650 -3 0 -19 -15 -36 -34 -16 -19 -46 -40 -66 -47 -45 -14 -133 -6 -167 16 -64 42 -85 138 -46 203 22 36 74 72 104 72 14 0 17 3 10 10 -7 7 -47 10 -100 8 l-89 -3 3 -32 3 -32 -103 -3 -103 -3 -1 -115 -1 -115 -27 -3 -27 -3 2 153 1 153 -111 3 c-61 1 -111 -1 -111 -5 0 -4 17 -15 39 -24 92 -39 125 -148 67 -223 -67 -89 -214 -89 -282 -1 -37 49 -34 128 6 177 17 20 46 43 65 49 19 7 35 17 35 21 0 11 -297 10 -304 -1 -3 -4 12 -13 34 -20 39 -12 90 -61 90 -87 0 -49 -54 -84 -129 -84 -60 0 -101 -14 -101 -35 0 -34 86 -45 148 -20 34 15 38 15 49 -1 18 -25 17 -29 -14 -43 -42 -19 -126 -25 -166 -12 -68 23 -100 97 -58 135 12 11 49 22 93 28 109 15 118 17 118 33 0 45 -108 60 -174 24 l-39 -21 -18 24 c-17 21 -17 24 -3 35 9 6 38 17 64 24 27 7 47 16 44 21 -7 11 -291 10 -298 -1 -3 -5 5 -12 19 -15 41 -10 94 -64 105 -107 20 -73 -21 -151 -93 -178 -39 -15 -111 -14 -151 3 -66 27 -105 127 -76 196 13 31 83 90 107 90 7 0 13 5 13 10 0 6 -43 10 -107 10 l-108 0 3 -155 3 -155 -25 0 c-26 0 -26 0 -26 90 0 50 -4 90 -9 90 -5 0 -44 -40 -88 -89 -72 -82 -81 -89 -116 -90 l-38 -1 3 155 3 155 -107 0 c-65 0 -108 -4 -108 -10 0 -5 8 -10 19 -10 27 0 85 -26 101 -45 11 -13 11 -19 -3 -32 -14 -14 -19 -14 -59 6 -55 26 -103 27 -145 1 -37 -22 -48 -54 -39 -105 13 -66 106 -95 184 -57 41 20 43 20 52 2 14 -26 14 -27 -22 -44 -78 -39 -178 -32 -226 16 -88 85 -53 219 65 251 23 6 40 14 37 19 -3 4 -52 8 -109 8 l-103 0 2 -32 1 -33 -102 -3 -103 -3 0 -34 0 -34 68 -3 c64 -3 67 -4 67 -28 0 -24 -3 -25 -67 -28 -68 -3 -68 -3 -68 -32 l0 -29 98 -3 c92 -3 97 -4 100 -25 3 -23 2 -23 -123 -23 l-126 0 2 153 1 152 -101 0 c-56 0 -101 -3 -101 -7 0 -5 0 -62 0 -127 l0 -120 53 -3 c45 -3 52 -6 55 -25 3 -23 3 -23 -138 -23 -141 0 -141 0 -138 23 3 19 10 22 56 25 l52 3 0 107 c0 59 3 117 6 130 6 21 4 22 -65 22 l-71 0 0 -765z m1763 310 c150 -32 298 -145 361 -278 48 -100 59 -148 59 -252 0 -148 -52 -265 -166 -372 -78 -74 -107 -84 -34 -11 70 68 135 177 161 267 46 159 -16 362 -150 491 -111 107 -257 154 -427 138 -71 -7 -125 -23 -114 -34 2 -2 33 2 68 10 35 8 82 14 104 13 l39 -2 2 -50 c1 -27 3 -144 4 -260 l2 -210 -29 0 -28 0 -3 238 c-1 146 -6 237 -12 237 -6 0 -10 -5 -10 -10 0 -6 -7 -10 -16 -8 -14 3 -15 -31 -14 -310 0 -172 3 -319 6 -327 5 -13 -15 -15 -138 -15 -99 0 -148 4 -156 12 -9 9 -12 -2 -12 -53 l-1 -64 -25 30 c-57 67 -97 191 -97 300 0 78 21 161 59 236 27 54 113 142 180 184 38 25 62 45 54 45 -36 0 -193 -117 -216 -162 -8 -16 -18 -27 -21 -24 -18 18 120 153 205 199 94 51 242 68 365 42z m94 -76 c76 -36 197 -149 232 -217 59 -115 65 -298 15 -427 -15 -39 -76 -125 -89 -125 -16 0 -29 35 -20 50 3 6 3 19 0 30 -6 19 -15 20 -146 20 l-139 0 0 315 c0 258 -3 322 -15 352 -8 19 -15 38 -15 41 0 15 118 -11 177 -39z m137 -801 c-10 -11 -46 -38 -78 -60 -185 -120 -448 -102 -606 41 l-45 40 374 1 374 0 -19 -22z"/>
<path d="M1144 1514 c3 -9 6 -61 6 -117 l0 -102 53 55 c110 117 155 169 149 174 -3 3 -52 6 -110 6 -91 0 -103 -2 -98 -16z"/>
<path d="M3156 1522 c-3 -5 10 -14 29 -21 18 -6 47 -27 64 -46 17 -19 33 -35 36 -35 3 0 5 25 5 55 l0 55 -64 0 c-36 0 -67 -4 -70 -8z"/>
<path d="M2013 1513 c4 -3 10 -3 14 0 3 4 0 7 -7 7 -7 0 -10 -3 -7 -7z"/>
<path d="M1594 1451 c-47 -20 -69 -93 -44 -142 13 -23 61 -49 93 -49 44 0 87 22 102 51 38 73 1 139 -81 145 -27 2 -59 0 -70 -5z"/>
<path d="M2334 1451 c-12 -5 -31 -22 -44 -38 -28 -35 -22 -86 15 -122 21 -22 35 -26 80 -26 45 0 59 4 80 26 14 14 28 41 31 61 5 29 1 41 -23 68 -22 25 -38 33 -73 36 -25 2 -55 0 -66 -5z"/>
<path d="M3065 1451 c-61 -25 -80 -108 -36 -155 50 -54 156 -43 185 18 19 41 20 57 4 91 -21 46 -96 69 -153 46z"/>
<path d="M3280 1360 c0 -7 3 -10 7 -7 3 4 3 10 0 14 -4 3 -7 0 -7 -7z"/>
<path d="M3280 1320 c0 -7 3 -10 7 -7 3 4 3 10 0 14 -4 3 -7 0 -7 -7z"/>
</g>
<g id="layer115" fill="#bf5f64" stroke="none">
<path d="M0 765 l0 -765 1645 0 1645 0 0 650 c0 358 -3 650 -6 650 -3 0 -17 -14 -31 -30 -36 -43 -74 -60 -135 -60 -66 0 -115 24 -146 70 -20 29 -23 45 -20 93 4 46 10 63 33 87 16 17 44 35 62 42 18 7 33 16 33 20 0 4 -41 8 -90 8 l-90 0 2 -32 3 -33 -102 -3 -103 -3 0 -119 0 -120 -30 0 -30 0 0 155 0 155 -110 0 c-60 0 -110 -2 -110 -5 0 -3 15 -11 33 -18 38 -16 94 -77 103 -112 11 -44 -6 -95 -45 -137 -34 -37 -41 -40 -104 -45 -79 -7 -115 6 -157 54 -26 29 -30 42 -30 89 0 71 20 105 82 139 26 14 48 28 48 31 0 2 -67 4 -150 4 -82 0 -150 -4 -150 -8 0 -4 16 -14 37 -21 45 -17 83 -56 83 -87 0 -13 -10 -35 -23 -49 -18 -22 -36 -28 -102 -37 -88 -12 -112 -23 -95 -44 19 -22 82 -26 134 -9 40 14 50 14 57 3 27 -41 -38 -72 -138 -66 -53 3 -67 9 -93 33 -25 24 -30 37 -28 64 4 50 37 70 130 77 86 8 113 23 86 51 -27 26 -99 28 -154 4 l-49 -22 -18 23 c-18 21 -18 23 0 36 10 7 37 18 61 25 23 6 42 15 42 19 0 4 -65 8 -145 8 -90 0 -145 -4 -145 -10 0 -5 5 -10 12 -10 29 0 88 -54 104 -96 23 -59 12 -106 -35 -157 -35 -37 -43 -41 -99 -45 -78 -6 -124 11 -162 56 -26 31 -30 45 -30 94 0 54 3 61 40 98 22 22 51 42 65 46 55 14 20 24 -82 24 l-108 0 3 -155 3 -155 -25 0 c-28 0 -28 0 -30 112 -1 31 -4 59 -7 62 -3 4 -42 -34 -85 -83 -73 -84 -82 -90 -117 -91 l-38 0 3 155 3 155 -108 0 c-70 0 -106 -4 -102 -10 3 -5 13 -10 22 -10 26 0 103 -40 103 -54 0 -7 -6 -21 -14 -31 -13 -18 -14 -18 -40 3 -15 11 -47 24 -71 27 -132 20 -189 -131 -69 -181 46 -19 70 -18 122 7 45 22 61 17 62 -19 0 -22 -80 -52 -140 -52 -123 0 -197 93 -160 204 14 42 79 96 117 96 12 0 23 5 23 10 0 6 -41 10 -104 10 l-105 0 6 -35 5 -34 -103 -3 -104 -3 -3 -32 -3 -33 70 0 71 0 0 -30 c0 -29 0 -29 -67 -32 -65 -3 -68 -4 -68 -28 0 -25 2 -25 95 -30 90 -5 95 -6 98 -28 l3 -23 -128 3 -128 3 0 153 0 152 -97 0 -98 0 0 -130 0 -130 55 0 c52 0 55 -1 55 -25 l0 -25 -140 0 -140 0 0 25 c0 24 3 25 55 25 l55 0 0 114 c0 63 3 121 6 130 5 14 -4 16 -65 16 l-71 0 0 -765z m1762 314 c76 -16 181 -71 245 -128 100 -89 157 -198 175 -336 20 -150 -23 -287 -132 -418 -48 -57 -143 -121 -207 -139 -21 -5 -49 -16 -63 -23 -14 -7 -34 -9 -45 -5 -16 6 -14 8 13 13 84 17 262 126 262 160 0 6 -12 -1 -27 -15 -179 -168 -494 -172 -673 -9 l-45 41 385 -1 385 -1 32 49 c86 130 110 287 66 428 -12 39 -29 79 -38 90 -15 18 -15 18 -1 -11 60 -124 58 -323 -4 -446 -54 -108 -100 -128 -100 -43 l0 45 -145 0 -145 0 0 334 c0 213 -4 337 -10 341 -5 3 -10 13 -10 22 0 25 97 10 177 -28 51 -24 88 -52 148 -113 53 -54 73 -70 60 -47 -55 92 -199 187 -324 212 -69 13 -206 7 -259 -12 -52 -18 -31 -21 39 -5 35 8 82 14 104 13 l39 -2 2 -50 c1 -27 3 -144 4 -260 l2 -210 -29 0 -28 0 -3 232 -2 232 -26 -3 -26 -3 2 -313 c0 -209 4 -318 12 -327 6 -7 7 -13 2 -13 -5 -1 -74 -1 -154 0 -101 1 -147 5 -152 13 -4 7 -8 -17 -8 -53 l-1 -65 -25 30 c-57 67 -97 191 -97 300 0 166 89 328 226 412 68 41 70 58 2 19 -102 -60 -183 -163 -231 -296 -25 -70 -33 -54 -10 21 55 179 203 320 384 363 71 18 184 20 254 5z"/>
</g>
<g id="layer116" fill="#a9817f" stroke="none">
<path d="M0 765 l0 -765 1645 0 1645 0 0 650 c0 358 -3 650 -6 650 -3 0 -17 -14 -31 -30 -36 -43 -74 -60 -135 -60 -66 0 -115 24 -146 70 -20 29 -23 45 -20 93 4 46 10 63 33 87 16 17 44 35 62 42 18 7 33 16 33 20 0 4 -41 8 -90 8 l-90 0 2 -32 3 -33 -102 -3 -103 -3 0 -119 0 -120 -30 0 -30 0 0 155 0 155 -110 0 c-60 0 -110 -2 -110 -5 0 -3 15 -11 33 -18 38 -16 94 -77 103 -112 11 -44 -6 -95 -45 -137 -34 -37 -41 -40 -104 -45 -79 -7 -115 6 -157 54 -26 29 -30 42 -30 89 0 71 20 105 82 139 26 14 48 28 48 31 0 2 -67 4 -150 4 -82 0 -150 -4 -150 -8 0 -4 16 -14 37 -21 45 -17 83 -56 83 -87 0 -13 -10 -35 -23 -49 -18 -22 -36 -28 -102 -37 -88 -12 -112 -23 -95 -44 19 -22 82 -26 134 -9 40 14 50 14 57 3 27 -41 -38 -72 -138 -66 -53 3 -67 9 -93 33 -25 24 -30 37 -28 64 4 50 37 70 130 77 86 8 113 23 86 51 -27 26 -99 28 -154 4 l-49 -22 -18 23 c-18 21 -18 23 0 36 10 7 37 18 61 25 23 6 42 15 42 19 0 4 -65 8 -145 8 -90 0 -145 -4 -145 -10 0 -5 5 -10 12 -10 29 0 88 -54 104 -96 23 -59 12 -106 -35 -157 -35 -37 -43 -41 -99 -45 -78 -6 -124 11 -162 56 -26 31 -30 45 -30 94 0 54 3 61 40 98 22 22 51 42 65 46 55 14 20 24 -82 24 l-108 0 3 -155 3 -155 -25 0 c-28 0 -28 0 -30 112 -1 31 -4 59 -7 62 -3 4 -42 -34 -85 -83 -73 -84 -82 -90 -117 -91 l-38 0 3 155 3 155 -108 0 c-70 0 -106 -4 -102 -10 3 -5 13 -10 22 -10 26 0 103 -40 103 -54 0 -7 -6 -21 -14 -31 -13 -18 -14 -18 -40 3 -15 11 -47 24 -71 27 -132 20 -189 -131 -69 -181 46 -19 70 -18 122 7 45 22 61 17 62 -19 0 -22 -80 -52 -140 -52 -123 0 -197 93 -160 204 14 42 79 96 117 96 12 0 23 5 23 10 0 6 -41 10 -104 10 l-105 0 6 -35 5 -34 -103 -3 -104 -3 -3 -32 -3 -33 70 0 71 0 0 -30 c0 -29 0 -29 -67 -32 -65 -3 -68 -4 -68 -28 0 -25 2 -25 95 -30 90 -5 95 -6 98 -28 l3 -23 -128 3 -128 3 0 153 0 152 -97 0 -98 0 0 -130 0 -130 55 0 c52 0 55 -1 55 -25 l0 -25 -140 0 -140 0 0 25 c0 24 3 25 55 25 l55 0 0 114 c0 63 3 121 6 130 5 14 -4 16 -65 16 l-71 0 0 -765z m1762 314 c76 -16 181 -71 245 -128 100 -89 157 -198 175 -336 20 -150 -23 -287 -132 -418 -48 -57 -143 -121 -207 -139 -21 -5 -49 -16 -63 -23 -14 -7 -34 -9 -45 -5 -16 6 -14 8 13 13 84 17 262 126 262 160 0 6 -12 -1 -27 -15 -179 -168 -494 -172 -673 -9 l-45 41 385 -1 384 0 19 25 c10 14 14 26 9 26 -5 0 -16 -10 -24 -22 -24 -36 -48 -17 -48 37 l0 45 -145 0 -145 0 0 329 c0 262 -3 334 -14 356 -17 32 -24 23 -20 -30 1 -22 3 -134 4 -250 l2 -210 -29 0 -28 0 -3 233 c-1 127 -6 232 -10 231 -4 0 -15 -4 -25 -8 -17 -6 -18 -27 -17 -316 0 -182 4 -313 10 -320 5 -7 8 -14 6 -16 -2 -2 -74 -2 -160 1 l-156 5 0 -55 -1 -55 -25 30 c-57 67 -97 191 -97 300 0 166 89 328 226 412 68 41 70 58 2 19 -102 -60 -183 -163 -231 -296 -25 -70 -33 -54 -10 21 55 179 203 320 384 363 71 18 184 20 254 5z"/>
<path d="M1521 1049 c-25 -5 -49 -14 -55 -20 -8 -9 -7 -11 4 -7 52 18 140 29 191 24 38 -4 59 -3 59 4 0 12 -135 12 -199 -1z"/>
<path d="M1765 1036 c22 -7 42 -12 44 -10 8 7 -4 12 -44 18 l-40 5 40 -13z"/>
<path d="M1820 1022 c1 -4 24 -18 53 -31 34 -16 80 -52 131 -104 43 -45 73 -70 66 -57 -19 35 -90 109 -135 140 -45 31 -115 63 -115 52z"/>
<path d="M2126 673 c17 -74 17 -172 -1 -247 -14 -61 -6 -66 13 -8 22 66 25 148 8 226 -10 42 -21 78 -26 81 -4 3 -2 -21 6 -52z"/>
<path d="M2076 304 c-9 -24 -2 -26 12 -4 7 11 8 20 3 20 -5 0 -12 -7 -15 -16z"/>
<path d="M1148 1413 l3 -116 24 24 c52 53 175 194 175 202 0 4 -46 7 -102 7 l-103 0 3 -117z"/>
<path d="M3160 1520 c0 -5 5 -10 12 -10 20 0 87 -51 93 -71 12 -37 25 -18 25 36 l0 55 -65 0 c-37 0 -65 -4 -65 -10z"/>
<path d="M1588 1444 c-73 -39 -62 -148 17 -174 126 -42 219 118 102 173 -43 21 -83 21 -119 1z"/>
<path d="M2335 1451 c-55 -24 -75 -95 -40 -147 33 -51 136 -53 181 -3 28 31 23 94 -9 126 -27 27 -96 40 -132 24z"/>
<path d="M3065 1451 c-79 -34 -78 -144 1 -177 46 -19 94 -12 131 20 38 33 39 95 1 132 -28 28 -96 41 -133 25z"/>
</g>
<g id="layer117" fill="#f06e69" stroke="none">
<path d="M0 765 l0 -765 1645 0 1645 0 0 652 0 651 -36 -37 c-45 -46 -70 -56 -140 -56 -63 0 -101 16 -138 60 -21 26 -26 42 -26 86 0 31 5 65 11 76 14 25 60 67 75 68 5 0 19 7 30 15 17 13 10 14 -72 15 l-92 0 2 -32 1 -33 -102 -3 -103 -3 0 -119 0 -120 -30 0 -30 0 0 155 0 155 -111 0 c-71 0 -108 -4 -104 -10 3 -5 11 -10 18 -10 25 0 85 -53 102 -90 44 -98 -20 -199 -131 -208 -79 -7 -117 4 -155 43 -79 80 -49 207 58 252 18 7 33 15 33 18 0 3 -67 5 -150 5 -141 0 -189 -10 -119 -24 42 -8 89 -57 89 -93 0 -55 -66 -91 -171 -93 -42 0 -64 -17 -48 -37 14 -17 101 -17 146 -1 35 13 52 3 53 -30 0 -24 -70 -44 -142 -40 -58 3 -71 8 -98 33 -25 24 -30 37 -28 64 4 50 38 71 128 78 102 8 127 29 70 58 -40 21 -86 19 -138 -6 l-44 -22 -20 21 c-11 11 -17 25 -14 31 9 14 72 41 97 41 11 0 19 5 19 10 0 6 -55 10 -145 10 -80 0 -145 -3 -145 -7 1 -5 19 -17 42 -28 55 -26 80 -62 85 -122 8 -97 -61 -163 -170 -163 -66 0 -103 16 -141 60 -22 26 -26 41 -26 90 0 52 4 64 30 94 17 18 46 41 65 50 19 9 35 19 35 21 0 3 -48 5 -107 5 l-108 0 3 -155 3 -155 -30 0 -30 0 -3 91 -3 92 -79 -92 c-75 -85 -82 -91 -119 -91 l-38 0 3 155 3 155 -108 0 c-70 0 -106 -4 -102 -10 3 -5 15 -10 26 -10 21 0 94 -34 103 -48 2 -4 -4 -19 -14 -32 l-19 -25 -33 25 c-86 64 -218 1 -192 -91 19 -67 107 -92 188 -54 32 15 39 16 47 4 18 -29 9 -45 -38 -62 -66 -24 -149 -22 -191 3 -66 40 -92 132 -57 200 17 33 80 80 107 80 9 0 20 5 23 10 4 6 -31 10 -97 10 l-104 0 4 -35 4 -35 -101 0 -101 0 0 -35 0 -35 65 0 65 0 0 -30 0 -30 -65 0 -65 0 0 -30 0 -30 95 0 c95 0 95 0 95 -25 l0 -26 -127 3 -128 3 0 153 0 152 -98 0 -98 0 3 -127 3 -128 53 -3 c48 -3 52 -5 52 -28 l0 -24 -146 0 c-145 0 -145 0 -142 23 3 19 10 22 60 25 l58 3 0 114 c0 62 3 120 6 129 5 14 -4 16 -65 16 l-71 0 0 -765z m1763 315 c298 -75 480 -360 412 -645 -33 -140 -109 -249 -228 -328 -53 -36 -150 -74 -207 -83 -75 -11 -100 -12 -100 -4 0 6 10 10 23 10 32 0 136 28 170 46 15 7 42 21 60 31 41 21 138 110 155 143 l13 25 -19 -24 c-30 -37 -52 -22 -52 34 l0 45 -145 0 -145 0 0 333 c0 313 -1 335 -19 351 -18 16 -18 15 -16 -26 2 -24 4 -137 5 -253 l2 -210 -28 0 -29 0 -5 230 c-3 127 -7 231 -8 232 -1 0 -12 -4 -24 -9 l-23 -11 3 -300 c2 -202 6 -305 14 -314 6 -7 8 -16 5 -19 -3 -3 -76 -5 -161 -5 l-156 2 0 -53 -1 -53 -25 30 c-59 69 -97 192 -96 305 1 129 39 222 139 340 l38 44 -38 -28 c-62 -47 -169 -251 -153 -292 3 -8 1 -14 -4 -14 -6 0 -10 -17 -10 -37 0 -24 -3 -33 -8 -25 -5 7 -5 41 0 75 24 161 109 297 241 381 69 44 151 75 227 86 88 12 110 11 193 -10z m231 -882 c-10 -11 -46 -38 -78 -60 -185 -120 -448 -102 -606 41 l-45 40 374 1 374 0 -19 -22z"/>
<path d="M1581 1056 c2 -2 36 -6 74 -10 48 -4 65 -3 55 4 -14 9 -139 15 -129 6z"/>
<path d="M1538 1043 c6 -2 18 -2 25 0 6 3 1 5 -13 5 -14 0 -19 -2 -12 -5z"/>
<path d="M1470 1030 c-11 -8 -7 -9 15 -4 37 8 45 14 19 14 -10 0 -26 -5 -34 -10z"/>
<path d="M1768 1033 c7 -3 16 -2 19 1 4 3 -2 6 -13 5 -11 0 -14 -3 -6 -6z"/>
<path d="M1823 1013 c4 -3 10 -3 14 0 3 4 0 7 -7 7 -7 0 -10 -3 -7 -7z"/>
<path d="M1362 980 c-54 -39 -54 -48 1 -14 51 32 52 33 45 39 -3 3 -24 -8 -46 -25z"/>
<path d="M1916 966 c28 -19 75 -61 104 -93 41 -45 49 -50 34 -24 -19 35 -156 151 -177 151 -6 0 11 -15 39 -34z"/>
<path d="M2122 690 c0 -8 4 -26 8 -40 6 -20 8 -21 8 -5 0 11 -3 29 -8 40 -5 12 -8 14 -8 5z"/>
<path d="M2140 546 c0 -38 3 -67 6 -63 11 10 13 102 4 117 -7 10 -10 -7 -10 -54z"/>
<path d="M2126 439 c-8 -42 0 -50 9 -9 4 17 5 34 2 36 -2 3 -7 -10 -11 -27z"/>
</g>
<g id="layer118" fill="#da9c99" stroke="none">
<path d="M0 765 l0 -765 1645 0 1645 0 0 652 0 651 -36 -37 c-45 -46 -70 -56 -140 -56 -63 0 -101 16 -138 60 -21 26 -26 42 -26 86 0 31 5 65 11 76 14 25 60 67 75 68 5 0 19 7 30 15 17 13 10 14 -72 15 l-92 0 2 -32 1 -33 -102 -3 -103 -3 0 -119 0 -120 -30 0 -30 0 0 155 0 155 -111 0 c-71 0 -108 -4 -104 -10 3 -5 11 -10 18 -10 25 0 85 -53 102 -90 44 -98 -20 -199 -131 -208 -79 -7 -117 4 -155 43 -79 80 -49 207 58 252 18 7 33 15 33 18 0 3 -67 5 -150 5 -141 0 -189 -10 -119 -24 42 -8 89 -57 89 -93 0 -55 -66 -91 -171 -93 -42 0 -64 -17 -48 -37 14 -17 101 -17 146 -1 35 13 52 3 53 -30 0 -24 -70 -44 -142 -40 -58 3 -71 8 -98 33 -25 24 -30 37 -28 64 4 50 38 71 128 78 102 8 127 29 70 58 -40 21 -86 19 -138 -6 l-44 -22 -20 21 c-11 11 -17 25 -14 31 9 14 72 41 97 41 11 0 19 5 19 10 0 6 -55 10 -145 10 -80 0 -145 -3 -145 -7 1 -5 19 -17 42 -28 55 -26 80 -62 85 -122 8 -97 -61 -163 -170 -163 -66 0 -103 16 -141 60 -22 26 -26 41 -26 90 0 52 4 64 30 94 17 18 46 41 65 50 19 9 35 19 35 21 0 3 -48 5 -107 5 l-108 0 3 -155 3 -155 -30 0 -30 0 -3 91 -3 92 -79 -92 c-75 -85 -82 -91 -119 -91 l-38 0 3 155 3 155 -108 0 c-70 0 -106 -4 -102 -10 3 -5 15 -10 26 -10 21 0 94 -34 103 -48 2 -4 -4 -19 -14 -32 l-19 -25 -33 25 c-86 64 -218 1 -192 -91 19 -67 107 -92 188 -54 32 15 39 16 47 4 18 -29 9 -45 -38 -62 -66 -24 -149 -22 -191 3 -66 40 -92 132 -57 200 17 33 80 80 107 80 9 0 20 5 23 10 4 6 -31 10 -97 10 l-104 0 4 -35 4 -35 -101 0 -101 0 0 -35 0 -35 65 0 65 0 0 -30 0 -30 -65 0 -65 0 0 -30 0 -30 95 0 c95 0 95 0 95 -25 l0 -26 -127 3 -128 3 0 153 0 152 -98 0 -98 0 3 -127 3 -128 53 -3 c48 -3 52 -5 52 -28 l0 -24 -146 0 c-145 0 -145 0 -142 23 3 19 10 22 60 25 l58 3 0 114 c0 62 3 120 6 129 5 14 -4 16 -65 16 l-71 0 0 -765z m1763 315 c298 -75 480 -360 412 -645 -33 -140 -109 -249 -228 -328 -53 -36 -150 -74 -207 -83 -73 -11 -100 -12 -100 -5 0 5 21 11 47 15 66 9 146 35 174 58 23 18 23 18 -21 -1 -226 -93 -469 -23 -624 181 -44 58 -86 190 -86 271 0 38 -4 67 -10 67 -5 0 -10 -17 -10 -37 0 -24 -3 -33 -8 -25 -5 7 -5 41 0 75 24 161 109 297 241 381 69 44 151 75 227 86 88 12 110 11 193 -10z"/>
<path d="M1593 1053 c9 -2 25 -2 35 0 9 3 1 5 -18 5 -19 0 -27 -2 -17 -5z"/>
<path d="M1663 1053 c9 -2 23 -2 30 0 6 3 -1 5 -18 5 -16 0 -22 -2 -12 -5z"/>
<path d="M1671 774 l1 -249 -28 0 -29 0 -5 230 c-3 127 -7 231 -8 233 -1 1 -11 -3 -22 -10 -19 -12 -20 -24 -20 -315 0 -200 4 -304 11 -308 32 -20 -8 -27 -154 -26 l-158 2 3 -48 3 -48 365 -3 365 -2 -3 50 -4 50 -144 0 -144 0 0 334 c0 289 -2 335 -15 346 -14 12 -16 -12 -14 -236z"/>
<path d="M1373 989 c-35 -22 -46 -37 -15 -20 22 13 58 40 52 41 -3 0 -20 -10 -37 -21z"/>
<path d="M1880 997 c0 -3 12 -12 26 -22 15 -9 23 -12 20 -6 -7 11 -46 35 -46 28z"/>
<path d="M1263 903 c-22 -21 -48 -54 -57 -73 -16 -34 -16 -34 1 -10 10 14 38 46 62 73 52 56 50 61 -6 10z"/>
<path d="M2019 883 c18 -24 35 -43 38 -43 7 0 -34 55 -54 71 -10 8 -3 -5 16 -28z"/>
<path d="M1168 768 c-27 -50 -60 -163 -42 -145 7 7 62 167 57 167 -1 0 -8 -10 -15 -22z"/>
<path d="M2025 230 c-10 -11 -13 -20 -7 -20 6 0 16 9 22 20 6 11 9 20 7 20 -2 0 -12 -9 -22 -20z"/>
<path d="M1926 139 c-21 -16 -34 -29 -28 -29 7 0 26 13 44 30 42 37 34 37 -16 -1z"/>
</g>
<g id="layer119" fill="#d1b0ae" stroke="none">
<path d="M0 765 l0 -765 1645 0 1645 0 0 652 0 651 -36 -37 c-45 -46 -70 -56 -140 -56 -63 0 -101 16 -138 60 -21 26 -26 42 -26 86 0 31 5 65 11 76 14 25 60 67 75 68 5 0 19 7 30 15 17 13 10 14 -72 15 l-92 0 2 -32 1 -33 -102 -3 -103 -3 0 -119 0 -120 -30 0 -30 0 0 155 0 155 -111 0 c-71 0 -108 -4 -104 -10 3 -5 11 -10 18 -10 25 0 85 -53 102 -90 44 -98 -20 -199 -131 -208 -79 -7 -117 4 -155 43 -79 80 -49 207 58 252 18 7 33 15 33 18 0 3 -67 5 -150 5 -141 0 -189 -10 -119 -24 42 -8 89 -57 89 -93 0 -55 -66 -91 -171 -93 -42 0 -64 -17 -48 -37 14 -17 101 -17 146 -1 35 13 52 3 53 -30 0 -24 -70 -44 -142 -40 -58 3 -71 8 -98 33 -25 24 -30 37 -28 64 4 50 38 71 128 78 102 8 127 29 70 58 -40 21 -86 19 -138 -6 l-44 -22 -20 21 c-11 11 -17 25 -14 31 9 14 72 41 97 41 11 0 19 5 19 10 0 6 -55 10 -145 10 -80 0 -145 -3 -145 -7 1 -5 19 -17 42 -28 55 -26 80 -62 85 -122 8 -97 -61 -163 -170 -163 -66 0 -103 16 -141 60 -22 26 -26 41 -26 90 0 52 4 64 30 94 17 18 46 41 65 50 19 9 35 19 35 21 0 3 -48 5 -107 5 l-108 0 3 -155 3 -155 -30 0 -30 0 -3 91 -3 92 -79 -92 c-75 -85 -82 -91 -119 -91 l-38 0 3 155 3 155 -108 0 c-70 0 -106 -4 -102 -10 3 -5 15 -10 26 -10 21 0 94 -34 103 -48 2 -4 -4 -19 -14 -32 l-19 -25 -33 25 c-86 64 -218 1 -192 -91 19 -67 107 -92 188 -54 32 15 39 16 47 4 18 -29 9 -45 -38 -62 -66 -24 -149 -22 -191 3 -66 40 -92 132 -57 200 17 33 80 80 107 80 9 0 20 5 23 10 4 6 -31 10 -97 10 l-104 0 4 -35 4 -35 -101 0 -101 0 0 -35 0 -35 65 0 65 0 0 -30 0 -30 -65 0 -65 0 0 -30 0 -30 95 0 c95 0 95 0 95 -25 l0 -26 -127 3 -128 3 0 153 0 152 -98 0 -98 0 3 -127 3 -128 53 -3 c48 -3 52 -5 52 -28 l0 -24 -146 0 c-145 0 -145 0 -142 23 3 19 10 22 60 25 l58 3 0 114 c0 62 3 120 6 129 5 14 -4 16 -65 16 l-71 0 0 -765z m1763 315 c298 -75 480 -360 412 -645 -33 -140 -109 -249 -228 -328 -53 -36 -150 -74 -207 -83 -75 -11 -100 -12 -100 -4 0 6 10 10 23 10 43 0 195 45 185 55 -3 3 -31 -4 -64 -16 -49 -17 -76 -20 -164 -16 -126 4 -192 27 -283 95 -132 101 -207 242 -207 392 0 40 -4 70 -10 70 -5 0 -10 -17 -10 -37 0 -24 -3 -33 -8 -25 -5 7 -5 41 0 75 24 161 109 297 241 381 69 44 151 75 227 86 88 12 110 11 193 -10z"/>
<path d="M1671 774 l2 -249 -29 0 -29 0 -5 227 c-3 124 -8 229 -11 232 -3 4 -11 0 -18 -8 -9 -10 -12 -97 -12 -313 0 -164 1 -306 3 -316 3 -17 -7 -19 -149 -17 l-153 1 0 -51 0 -50 363 0 362 0 -3 50 -4 50 -144 0 -144 0 0 334 c0 290 -2 335 -16 347 -14 11 -15 -12 -13 -237z"/>
<path d="M1237 878 c-13 -18 -27 -40 -32 -48 -9 -19 42 39 55 63 18 29 3 19 -23 -15z"/>
<path d="M1157 753 c-4 -3 -7 -13 -7 -22 1 -13 3 -13 11 2 11 19 8 33 -4 20z"/>
<path d="M1132 677 c-14 -40 -15 -55 -3 -41 9 9 26 74 19 74 -2 0 -9 -15 -16 -33z"/>
<path d="M2151 574 c0 -11 3 -14 6 -6 3 7 2 16 -1 19 -3 4 -6 -2 -5 -13z"/>
<path d="M2151 524 c0 -11 3 -14 6 -6 3 7 2 16 -1 19 -3 4 -6 -2 -5 -13z"/>
<path d="M2024 218 c-4 -7 -3 -8 4 -4 7 4 12 9 12 12 0 8 -9 4 -16 -8z"/>
<path d="M1924 128 c-4 -7 -3 -8 4 -4 12 7 16 16 8 16 -3 0 -8 -5 -12 -12z"/>
<path d="M1148 1420 c2 -60 7 -110 11 -110 8 0 191 205 191 214 0 3 -46 6 -102 6 l-103 0 3 -110z"/>
<path d="M3160 1521 c0 -5 11 -12 24 -15 13 -3 42 -24 65 -46 l41 -40 0 55 0 55 -65 0 c-36 0 -65 -4 -65 -9z"/>
<path d="M1593 1446 c-38 -17 -53 -43 -53 -88 1 -56 29 -81 97 -86 52 -4 63 -1 88 21 24 20 30 33 30 66 0 77 -84 122 -162 87z"/>
<path d="M2336 1445 c-41 -22 -55 -44 -56 -88 0 -58 34 -87 104 -87 74 0 107 27 108 89 0 33 -5 49 -23 67 -32 31 -95 40 -133 19z"/>
<path d="M3063 1446 c-38 -17 -53 -43 -53 -89 0 -44 25 -73 73 -86 78 -20 142 24 140 97 -2 68 -88 110 -160 78z"/>
</g>
<g id="layer120" fill="#d1d1d2" stroke="none">
<path d="M0 765 l0 -765 1645 0 1645 0 0 652 0 651 -38 -40 c-42 -47 -81 -58 -169 -51 -50 4 -60 9 -93 44 -50 54 -59 110 -28 173 17 33 35 51 67 68 25 13 47 25 49 28 3 3 -36 5 -86 5 l-91 0 6 -35 6 -35 -107 0 -106 0 0 -120 0 -120 -36 0 -36 0 3 155 4 155 -107 0 c-60 0 -108 -2 -108 -5 0 -2 20 -13 43 -23 63 -28 92 -73 92 -142 0 -96 -61 -150 -170 -150 -109 0 -169 54 -170 150 0 69 29 114 94 144 l46 21 -78 3 c-42 2 -112 2 -155 0 l-77 -3 43 -19 c143 -62 90 -186 -79 -186 -53 0 -79 -19 -55 -40 15 -12 104 -10 157 5 21 5 27 2 37 -19 11 -24 10 -28 -16 -38 -15 -7 -64 -13 -109 -13 -68 0 -86 4 -110 21 -24 18 -28 28 -28 70 0 44 3 50 30 63 16 8 62 17 103 21 103 10 124 38 44 59 -44 12 -107 2 -144 -23 -26 -17 -27 -17 -43 8 -22 33 -11 48 47 66 24 7 47 17 52 22 6 4 -56 8 -137 8 -139 0 -186 -10 -117 -25 16 -3 43 -22 59 -40 55 -63 53 -151 -4 -213 l-33 -37 -92 0 -91 0 -40 42 c-36 39 -39 46 -39 102 0 54 4 64 32 97 18 20 47 43 65 51 18 7 33 15 33 18 0 3 -48 5 -107 5 l-108 0 3 -155 c3 -164 5 -155 -40 -159 -9 -1 -14 26 -18 91 l-5 93 -79 -90 c-74 -85 -80 -90 -118 -90 l-39 0 3 155 3 155 -108 0 c-70 0 -106 -4 -102 -10 3 -5 15 -10 26 -10 23 0 95 -35 105 -51 3 -6 -3 -20 -14 -32 -19 -18 -23 -19 -44 -5 -71 45 -148 41 -188 -10 -28 -35 -21 -88 15 -119 32 -28 110 -31 162 -6 30 14 36 14 44 2 18 -29 9 -45 -38 -62 -66 -24 -149 -22 -191 3 -65 40 -92 132 -57 199 20 39 72 81 100 81 13 0 27 5 30 10 4 6 -31 10 -97 10 l-104 0 4 -35 4 -35 -101 0 -101 0 0 -35 0 -34 68 -3 c64 -3 67 -4 67 -28 0 -24 -3 -25 -67 -28 -68 -3 -68 -3 -68 -32 l0 -30 96 0 95 0 -3 -27 -3 -27 -125 2 -125 1 0 156 0 155 -98 0 -98 0 3 -127 3 -128 55 -5 c48 -4 55 -8 58 -27 3 -23 3 -23 -148 -23 -151 0 -151 0 -148 23 3 19 10 22 60 25 l58 3 0 114 c0 62 3 120 6 129 5 14 -4 16 -65 16 l-71 0 0 -765z m1793 310 c232 -71 397 -286 397 -517 0 -43 -5 -99 -12 -125 -36 -149 -151 -293 -293 -368 -29 -16 -144 -45 -190 -49 -49 -4 -146 13 -160 28 -5 6 -28 17 -50 25 -91 31 -134 59 -206 130 -54 55 -85 95 -107 143 -17 36 -36 70 -43 73 -7 5 -7 10 -2 14 18 11 3 79 -18 84 -17 5 -19 12 -14 59 20 200 88 325 229 421 92 63 125 76 256 101 41 8 162 -3 213 -19z"/>
<path d="M1675 772 l0 -247 -30 0 -30 0 -5 230 c-3 127 -7 232 -8 234 -1 2 -9 -2 -17 -9 -14 -11 -16 -56 -15 -333 l2 -319 -151 1 -151 2 0 -51 0 -50 363 0 362 0 -3 50 -4 50 -144 0 -144 0 0 334 c0 255 -3 336 -12 344 -10 8 -13 -40 -13 -236z"/>
<path d="M1150 1426 c3 -58 7 -107 10 -109 5 -5 149 153 178 194 13 18 10 19 -90 19 l-103 0 5 -104z"/>
<path d="M3160 1521 c0 -5 11 -12 25 -15 14 -4 43 -24 65 -46 l40 -40 0 55 0 55 -65 0 c-36 0 -65 -4 -65 -9z"/>
<path d="M1610 1453 c-8 -3 -27 -17 -42 -31 -39 -36 -38 -84 1 -123 25 -24 38 -29 79 -29 72 0 102 26 102 89 0 36 -5 52 -23 69 -23 21 -90 36 -117 25z"/>
<path d="M2336 1445 c-41 -21 -55 -44 -56 -86 0 -58 26 -82 97 -87 52 -4 63 -1 87 19 19 17 27 34 28 59 1 48 -14 74 -56 94 -42 20 -63 20 -100 1z"/>
<path d="M3063 1446 c-38 -17 -53 -43 -53 -89 0 -57 27 -80 98 -85 55 -4 63 -2 87 22 22 22 26 34 23 73 -2 36 -9 50 -28 65 -34 25 -88 31 -127 14z"/>
</g>
<g id="layer121" fill="#e2dede" stroke="none">
<path d="M0 765 l0 -765 1645 0 1645 0 0 651 0 651 -27 -33 c-51 -61 -147 -80 -230 -47 -51 21 -79 61 -88 129 -6 43 -3 53 22 91 16 24 43 50 61 60 53 26 50 28 -40 28 l-85 0 1 -37 1 -38 -102 -3 -103 -3 0 -114 0 -115 -36 0 -35 0 3 155 3 155 -104 0 c-94 0 -103 -1 -85 -15 10 -8 24 -15 31 -15 16 0 61 -56 78 -97 20 -47 2 -112 -42 -155 -31 -30 -38 -32 -122 -36 l-88 -4 -45 43 c-43 42 -45 47 -47 102 -1 49 3 63 25 93 15 19 46 45 68 57 l41 22 -72 3 c-40 2 -106 2 -145 0 l-73 -3 47 -24 c74 -38 90 -101 37 -145 -33 -28 -48 -33 -127 -39 -67 -5 -87 -22 -46 -38 32 -12 122 -5 138 11 16 16 24 12 41 -20 15 -29 15 -29 -21 -46 -20 -10 -59 -18 -88 -19 -109 -3 -159 32 -154 106 3 39 7 46 38 61 20 10 60 17 91 18 33 0 63 6 75 15 19 15 19 15 0 30 -30 23 -121 20 -162 -5 l-33 -21 -17 26 c-16 24 -16 27 0 44 10 11 33 22 51 25 19 4 37 11 40 16 4 6 -48 10 -136 10 -128 0 -141 -2 -123 -15 10 -8 24 -15 30 -15 7 0 29 -19 49 -41 37 -41 37 -43 32 -106 -4 -53 -10 -70 -33 -95 -41 -42 -60 -50 -123 -52 -143 -4 -224 100 -173 225 10 25 72 79 91 79 5 0 13 5 16 10 4 6 -29 10 -92 10 l-98 0 3 -150 4 -150 -27 -10 c-15 -6 -31 -8 -36 -4 -5 3 -9 44 -9 92 l-1 87 -60 -65 c-33 -36 -68 -75 -77 -87 -12 -15 -30 -22 -62 -25 l-45 -3 0 158 0 157 -100 -1 -100 0 45 -21 c25 -11 55 -24 68 -29 25 -10 28 -26 7 -53 -15 -20 -16 -20 -60 2 -66 32 -125 29 -164 -7 -26 -25 -29 -33 -25 -67 12 -79 107 -111 189 -63 20 12 37 20 38 18 2 -2 9 -17 15 -33 14 -31 5 -46 -28 -46 -9 0 -21 -5 -28 -12 -16 -16 -131 -12 -174 6 -43 18 -52 29 -72 91 -16 46 -16 52 0 95 19 50 40 73 99 100 l40 19 -99 0 -98 1 6 -26 c12 -45 -7 -54 -110 -54 l-94 0 0 -30 0 -30 71 0 70 0 -3 -32 -3 -32 -67 0 c-67 0 -68 -1 -68 -27 l0 -26 88 2 c90 3 112 -4 112 -36 0 -22 9 -21 -145 -20 l-120 0 0 156 0 155 -97 0 -98 0 0 -119 c0 -140 -3 -135 88 -139 30 -2 33 -5 30 -28 l-3 -26 -145 0 c-144 0 -145 0 -145 23 0 17 8 25 34 32 19 4 43 6 53 4 17 -5 18 3 18 101 0 59 3 117 6 130 6 21 4 22 -60 22 l-66 0 0 -765z m1765 320 c117 -28 246 -113 320 -209 19 -25 35 -49 35 -52 0 -2 13 -34 30 -69 88 -188 47 -410 -105 -568 -68 -71 -138 -122 -181 -133 -16 -4 -34 -11 -40 -16 -17 -13 -68 -20 -169 -23 -98 -2 -168 12 -252 52 -52 24 -64 38 -42 45 6 2 -9 20 -34 39 -25 20 -65 59 -89 87 -24 28 -50 52 -59 52 -19 0 -58 68 -62 109 -2 15 -7 32 -11 39 -4 7 -5 16 -1 21 3 5 1 12 -4 15 -13 8 -7 172 8 225 30 107 148 267 225 306 17 9 45 24 61 34 92 55 251 75 370 46z"/>
<path d="M1678 765 l-3 -240 -34 0 -33 0 1 220 c1 132 -3 226 -9 235 -5 8 -11 13 -12 10 -1 -3 -5 -153 -8 -333 l-5 -329 -145 -1 -145 -2 -3 -43 -3 -42 345 0 c190 0 349 -1 354 -2 4 -2 8 16 10 40 l3 42 -123 0 c-68 0 -133 3 -145 6 l-23 6 0 322 c0 187 -4 327 -10 336 -6 10 -10 -67 -12 -225z"/>
<path d="M1151 1431 c-1 -54 2 -102 7 -105 13 -8 182 175 182 196 0 5 -42 8 -93 8 l-93 0 -3 -99z"/>
<path d="M3176 1515 c10 -8 24 -15 30 -15 7 0 28 -18 48 -40 l36 -40 0 55 0 55 -67 0 c-61 0 -65 -1 -47 -15z"/>
<path d="M3080 1448 c-46 -12 -70 -42 -70 -87 0 -71 46 -100 136 -86 35 5 47 12 59 35 24 47 20 95 -11 115 -39 26 -75 33 -114 23z"/>
<path d="M1573 1428 c-70 -76 0 -180 103 -154 54 14 74 35 74 80 0 22 -4 46 -8 52 -33 48 -133 61 -169 22z"/>
<path d="M2324 1438 c-42 -20 -58 -94 -29 -135 17 -25 76 -37 128 -28 29 6 40 15 56 48 22 44 18 60 -22 105 -16 17 -31 22 -66 21 -25 0 -56 -5 -67 -11z"/>
</g>
<g id="layer122" fill="#fefefe" stroke="none">
<path d="M0 765 l0 -765 843 1 c527 0 831 4 812 10 -16 5 -48 6 -71 3 -47 -7 -115 11 -191 50 -44 22 -78 49 -161 128 -26 25 -75 94 -97 138 -25 50 -50 153 -41 175 3 8 0 17 -5 21 -13 8 -4 96 18 174 36 129 117 236 236 315 107 71 270 105 388 80 142 -30 207 -65 307 -163 146 -144 197 -357 132 -552 -23 -70 -102 -196 -135 -214 -10 -6 -28 -21 -38 -33 -35 -43 -181 -112 -267 -126 -14 -2 332 -5 768 -6 l792 -1 0 648 0 647 -23 -26 c-37 -45 -72 -61 -139 -63 -124 -5 -176 41 -185 162 -4 52 -3 55 39 95 24 23 52 47 63 54 17 10 7 12 -58 12 -75 1 -78 0 -76 -21 5 -59 7 -58 -101 -58 l-99 0 -3 -117 -3 -117 -38 -2 -38 -1 1 141 c1 78 1 149 0 159 0 15 -11 17 -97 17 l-96 0 48 -32 c49 -33 84 -89 85 -137 0 -41 -39 -109 -76 -132 -25 -15 -54 -22 -97 -23 -76 -2 -114 12 -154 54 -27 28 -31 40 -32 94 -1 72 16 105 80 148 l42 28 -139 0 -139 -1 45 -22 c43 -21 78 -65 79 -99 1 -9 -12 -31 -28 -49 -26 -28 -38 -33 -115 -42 -88 -11 -104 -24 -50 -39 31 -9 71 -4 118 14 24 10 31 9 42 -7 8 -10 14 -27 14 -36 0 -31 -110 -53 -207 -41 -7 1 -27 15 -46 32 -29 25 -33 35 -31 67 1 21 2 40 3 43 3 17 56 34 124 40 87 8 114 23 83 46 -28 20 -96 17 -150 -7 l-47 -20 -19 23 c-11 13 -19 26 -20 29 0 12 32 34 74 51 l41 17 -135 0 -135 1 40 -23 c78 -44 110 -125 80 -203 -24 -64 -74 -95 -157 -98 -77 -3 -114 10 -155 57 -28 32 -31 42 -31 98 0 58 2 64 40 105 22 24 46 44 54 44 7 0 16 5 19 10 4 6 -27 10 -87 10 l-93 0 0 -157 0 -157 -32 -3 -33 -3 0 85 c0 47 -3 85 -6 85 -8 0 -104 -102 -104 -110 0 -4 -12 -17 -27 -31 -20 -18 -39 -25 -68 -24 l-40 0 0 158 0 157 -95 0 -95 -1 48 -19 c81 -31 92 -49 59 -90 l-19 -23 -31 23 c-18 14 -50 25 -80 28 -46 4 -51 2 -85 -32 -32 -31 -35 -39 -27 -65 12 -42 17 -49 52 -67 35 -18 78 -14 134 12 35 17 37 17 50 -1 40 -54 -15 -88 -139 -88 -71 0 -81 3 -115 30 -47 39 -67 88 -58 148 9 54 41 96 99 124 l42 21 -90 0 -90 0 0 -37 0 -38 -100 -5 c-95 -5 -100 -6 -101 -27 -2 -28 21 -36 84 -31 l47 3 0 -35 0 -35 -65 -5 c-49 -4 -65 -9 -65 -20 0 -12 19 -16 95 -20 l95 -5 0 -29 0 -30 -132 0 c-82 -1 -133 3 -134 9 0 6 -1 76 -1 158 l-1 147 -88 0 -88 0 -6 -32 c-3 -18 -5 -73 -3 -123 l3 -90 55 -5 c52 -5 55 -6 55 -33 l0 -28 -148 -2 -147 -2 0 33 0 32 55 0 55 0 0 109 c0 60 3 116 6 125 5 14 -4 16 -60 16 l-66 0 0 -765z"/>
<path d="M1156 1508 c-8 -33 -7 -176 2 -182 10 -6 182 183 182 200 0 2 -40 4 -89 4 -84 0 -89 -1 -95 -22z"/>
<path d="M3217 1495 c29 -19 56 -43 62 -52 8 -14 10 -6 11 35 l0 52 -62 0 -63 0 52 -35z"/>
<path d="M1590 1433 c-35 -23 -40 -33 -40 -74 0 -63 66 -102 134 -79 70 23 87 90 37 141 -35 34 -91 39 -131 12z"/>
<path d="M2330 1439 c-31 -13 -30 -11 -40 -54 -6 -25 -4 -47 5 -70 12 -28 21 -34 59 -39 61 -9 112 13 130 56 33 78 -61 144 -154 107z"/>
<path d="M3053 1436 c-26 -12 -38 -59 -29 -109 6 -30 11 -35 55 -46 41 -10 54 -10 85 3 61 25 74 90 27 137 -24 24 -37 29 -73 28 -24 -1 -53 -6 -65 -13z"/>
<path d="M1682 775 l2 -220 6 205 c3 113 2 212 -2 220 -4 8 -7 -84 -6 -205z"/>
<path d="M1588 649 l-3 -322 -141 2 c-149 2 -167 -3 -159 -44 2 -11 4 -26 4 -32 1 -10 77 -13 346 -13 l345 0 0 40 0 40 -127 1 c-71 1 -134 1 -140 0 -14 -2 -15 3 -19 109 -1 41 -3 86 -4 100 -1 24 -2 24 -10 4 -9 -22 -55 -30 -66 -12 -4 5 -5 106 -5 223 1 138 -2 215 -8 220 -7 4 -12 -97 -13 -316z"/>
</g>


</svg>