<svg xmlns="http://www.w3.org/2000/svg" viewBox="0 0 121.30900573730469 31.621000289916992"><defs><linearGradient id="fne73b34670dma" x1="0%" x2="64.6%" y1="0%" y2="64.5%"><stop offset="0%" stop-color="#B01D23"></stop><stop offset="100%" stop-color="#7E0C10"></stop></linearGradient><linearGradient id="fne73b34670dmb" x1="25%" x2="89.6%" y1="47.9%" y2="182.6%"><stop offset="0%" stop-color="#B01D23"></stop><stop offset="100%" stop-color="#7E0C10"></stop></linearGradient><linearGradient id="fne73b34670dmc" x1="-14.2%" x2="112.3%" y1="14.9%" y2="146.8%"><stop offset="0%" stop-color="#B81E24"></stop><stop offset="100%" stop-color="#97171B"></stop></linearGradient><linearGradient id="fne73b34670dmd" x1="-76.5%" x2="121.1%" y1="24.9%" y2="89.5%"><stop offset="0%" stop-color="#B01D23"></stop><stop offset="100%" stop-color="#8E1418"></stop></linearGradient><linearGradient id="fne73b34670dme" x1="0%" x2="100%" y1="50.1%" y2="50.1%"><stop offset="0%" stop-color="#CC2128"></stop><stop offset="30%" stop-color="#FFF"></stop><stop offset="100%" stop-color="#CC2128"></stop></linearGradient><linearGradient id="fne73b34670dmf" x1="25%" x2="154.2%" y1="-25%" y2="104.1%"><stop offset="0%" stop-color="#B81E24"></stop><stop offset="100%" stop-color="#97171B"></stop></linearGradient><linearGradient id="fne73b34670dmg" x1="23.4%" x2="221.3%" y1="24.9%" y2="89.5%"><stop offset="0%" stop-color="#B01D23"></stop><stop offset="100%" stop-color="#760209"></stop></linearGradient><linearGradient id="fne73b34670dmh" x1="25%" x2="89.6%" y1="48.5%" y2="181.5%"><stop offset="0%" stop-color="#CC2128"></stop><stop offset="100%" stop-color="#A81B20"></stop></linearGradient><linearGradient id="fne73b34670dmi" x1="-85.1%" x2="48.7%" y1="-84.9%" y2="48.6%"><stop offset="0%" stop-color="#CC2128"></stop><stop offset="100%" stop-color="#A81B20"></stop></linearGradient><linearGradient id="fne73b34670dmj" x1="11.6%" x2="146.8%" y1="-38.4%" y2="96.6%"><stop offset="0%" stop-color="#CC2128"></stop><stop offset="100%" stop-color="#A81B20"></stop></linearGradient><linearGradient id="fne73b34670dmk" x1="4.6%" x2="95.3%" y1="105.6%" y2="-5.6%"><stop offset="0%" stop-color="#CC2128"></stop><stop offset="20%" stop-color="#FFF"></stop><stop offset="100%" stop-color="#D35A2A"></stop></linearGradient><linearGradient id="fne73b34670dml" x1="0%" x2="100%" y1="50.1%" y2="50.1%"><stop offset="0%" stop-color="#CC2128"></stop><stop offset="50%" stop-color="#FFF"></stop><stop offset="100%" stop-color="#CC2128"></stop></linearGradient></defs><g fill="none" fill-rule="evenodd"><path fill="url(#fne73b34670dma)" d="M16.455 16.455v15.166l15.149-15.166z"></path><path fill="url(#fne73b34670dmb)" d="M0 15.166L15.81 0l15.81 15.166z"></path><path fill="#CC2128" d="M0 15.166L15.81 0v9.652z"></path><path fill="url(#fne73b34670dmc)" d="M15.81 9.652V0l15.81 15.166z"></path><path fill="url(#fne73b34670dmd)" d="M16.455 16.455v15.166l4.953-10.229z"></path><path fill="#CC2128" d="M16.455 16.455l4.953 4.937 10.196-4.937z"></path><path fill="url(#fne73b34670dme)" d="M28.296 17.829h-10.2l-1.641-1.374 1.595 1.595h10.263l3.308-1.595z"></path><path fill="url(#fne73b34670dmf)" d="M15.183 16.455v15.166L.034 16.455z"></path><path fill="url(#fne73b34670dmg)" d="M15.182 16.455v15.166l-4.953-10.229z"></path><path fill="#CC2128" d="M15.183 16.455l-4.949 4.937-10.2-4.937z"></path><path fill="url(#fne73b34670dmh)" d="M12.485 0L1.866 10.314h21.239z" transform="translate(3.325 3.054)"></path><path fill="url(#fne73b34670dmi)" d="M14.725 14.996v10.28l10.263-10.28z" transform="translate(3.325 3.054)"></path><path fill="url(#fne73b34670dmj)" d="M10.263 25.276v-10.28H0z" transform="translate(3.325 3.054)"></path><path fill="url(#fne73b34670dmk)" fill-rule="nonzero" d="M3.545 10.314L0 11.552l3.461-1.425L14.165 0z" transform="translate(1.646 3.054)"></path><path fill="url(#fne73b34670dml)" d="M3.342 17.829h10.192l1.649-1.374-1.595 1.595H3.325L.034 16.455z"></path><path fill="#000" d="M44.887 10.721h4.733l.594-2.782H37.491l-.594 2.782h4.733l-2.733 12.994h3.257zM62.36 7.939h-11.5l-3.327 15.776h11.875l.594-2.8h-8.669l.848-4.088h7.634l.577-2.782h-7.617l.7-3.325h8.3zm13.89 5.157c.322-2.324-.9-5.581-5.581-5.581-4.02 0-7.769 2.816-8.94 8.329-1.154 5.445 1.238 8.278 5.395 8.278 3.919 0 6.65-2.392 8.024-5.819h-3.274a4.333 4.333 0 01-4.088 2.969c-2.765 0-3.342-2.545-2.748-5.378.933-4.462 3.478-5.513 5.038-5.513 2.7 0 2.833 1.781 2.884 2.731h3.29v-.016zm9.516 5.819h-.051l-3.88-10.976h-3.444l-3.325 15.776h3.053l2.375-11.264h.034l4 11.264h3.274l3.329-15.776h-3.053zM95.982 7.939h-3.257L89.4 23.715h3.257zm-1.339 10.908c-.407 1.951-.136 5.276 5.581 5.276 1.374 0 6.243-.424 7.244-5.174.594-2.833-1.171-3.715-3.206-4.241l-3.613-.95c-.628-.153-1.561-.424-1.306-1.646.305-1.425 1.883-1.883 3.121-1.883 2.85 0 2.765 1.662 2.7 2.375h3.138c.39-1.934-.237-5.089-5.021-5.089-5.072 0-6.667 3.1-7.04 4.852-.729 3.478 1.595 4.037 3.987 4.631l1.595.39c1.578.39 2.68.729 2.426 1.951-.356 1.662-2.154 2.036-3.7 2.036-2.85 0-2.935-1.662-2.782-2.545h-3.121l-.003.017zm17.031 1.611h5.768l.322 3.257h3.545l-2.188-15.776h-3.766l-8.889 15.776h3.444l1.764-3.257zm4.75-8.974h.051l.628 6.243h-3.987l3.308-6.243z"></path></g></svg>