<svg xmlns="http://www.w3.org/2000/svg" viewBox="32.664737701416016 70.2547378540039 535.6742553710938 110.7105484008789"><g fill="none" fill-rule="evenodd"><path fill="#000" fill-rule="nonzero" d="M217.176 97.28v6.931h-19.223v48.52h-7.578v-48.52h-19.13V97.28h45.931zm19.024 31.422V145.8h33.64v6.93h-41.218V97.28h41.217v6.931H236.2v17.745h29.204v6.746H236.2zm71.285 25.322c-17.374 0-29.018-12.847-29.018-28.926 0-16.265 11.644-29.019 29.018-29.019 13.215 0 19.316 7.023 19.316 7.023l-4.344 5.915s-5.822-5.73-14.879-5.73c-12.569 0-21.348 9.704-21.348 21.811 0 12.015 8.78 21.719 21.348 21.719 9.334 0 14.879-5.731 14.879-5.731l4.344 5.916s-6.193 7.022-19.316 7.022zm70.563-1.293v-23.844h-31.884v23.844h-7.579V97.28h7.58v24.768h31.883V97.28h7.67v55.45h-7.67zm69.747 0l-39.37-39.832v39.832h-7.579V97.28h2.126l39.278 39.37V97.28h7.67v55.45h-2.125zm13.409-27.632c0-16.266 11.183-29.02 28.741-29.02 17.744 0 28.928 12.754 28.928 29.02 0 16.078-11.184 28.926-28.928 28.926-17.558 0-28.741-12.848-28.741-28.926zm49.905 0c0-12.108-8.225-21.811-21.164-21.811-12.753 0-20.978 9.703-20.978 21.81 0 12.015 8.226 21.625 20.978 21.625 12.939 0 21.164-9.61 21.164-21.624zm35.789 21.81c9.334 0 13.309-3.604 13.309-8.78 0-4.713-3.144-7.116-14.602-10.35-13.308-3.79-19.316-7.856-19.316-16.451 0-9.52 7.763-15.248 20.794-15.248 13.862 0 19.962 5.36 19.962 5.36l-4.159 6.284s-5.637-4.528-15.803-4.528c-7.485 0-12.754 2.866-12.754 8.04 0 4.158 3.42 6.284 14.602 9.334 14.51 3.973 19.408 8.872 19.408 17.282 0 9.15-6.47 16.173-21.348 16.173-14.325 0-20.887-6.746-20.887-6.746l4.16-5.73c-.002 0 6.099 5.36 16.634 5.36z"></path><path fill="#C41C17" fill-rule="nonzero" d="M32.665 125.775c-.093-30.57 24.616-55.43 55.191-55.52 30.574-.094 55.432 24.621 55.521 55.19.098 30.575-24.614 55.43-55.19 55.52-30.57.096-55.43-24.614-55.522-55.19z"></path><path fill="#FFF" d="M43.059 113.404v19.728c2.605-2.865 6.014-5.643 10.052-7.99 11.503-6.687 23.575-7.365 26.971-1.514 2.731 4.69-.962 12.152-8.468 18.372h32.917c-7.62-6.193-11.414-13.688-8.7-18.418 3.362-5.87 15.446-5.268 26.989 1.351 4.085 2.343 7.538 5.127 10.166 8.003v-19.532H43.059z"></path></g></svg>