<svg xmlns="http://www.w3.org/2000/svg" viewBox="0.3092184066772461 0.45999717712402344 947.6536865234375 171.17002868652344"><g fill="none"><path fill="#343434" d="M676.51 80.51c28.32-21.51 54.89-42 81.8-62 12.91-9.6 28-12.27 43.86-11.53 4.69.22 9.61 1.92 11.12 6 1.58 4.24-3.34 6.71-6.43 9-21.69 16.31-43.31 32.72-65.31 48.62-5.21 3.76-6.07 7.17-4.43 13.08 5.92 21.37 11.07 43 17 64.33 2.39 8.57-1.1 13-8.54 15.45a64.89 64.89 0 01-26.52 2.67c-18.41-1.74-23-6.07-27.4-24.06-4.83-19.75-10-39.42-15.4-60.57-7.76 23.06-15.31 44.76-22.3 66.63-2.64 8.24-7.85 13.12-15.8 15.19-13 3.37-26.16 4.36-39.36 1.12-9.61-2.35-12.1-6.66-8.94-16.15 13.62-40.9 27.333-81.77 41.14-122.61 3.31-9.79 9.89-14 20.72-16.09 10.65-2 20.81-3.48 31.23-1.43 13 2.56 15.21 7 11.06 19.55-5.59 16.93-11.23 33.85-17.5 52.8zM538 33.46c-6 11.22-8.38 23.73-12.61 35.58-2 5.49 2.68 4.18 5.36 4.19 17.3.05 34.59-.09 51.88 0 5.91 0 13.13-1.65 13.31 8 .17 9.15-6.52 18.4-14.11 18.5-19.14.25-38.29.31-57.43-.15-6.56-.16-9.86 1.5-11.6 8.23-2.61 10.08-6.46 19.83-10.12 30.73 20.11 0 39.42-.24 58.72.15 5.25.1 13.49-3.74 13.79 6.92.3 10.66-7 20.48-15.54 20.77-8 .26-16.06 0-24.08 0-29.027 0-58.053-.02-87.08-.06-14 0-17.08-4.6-12.83-17.78 13.16-40.72 26.263-81.477 39.31-122.27 4.65-14.44 11.06-19 26.51-19.06 35.2-.04 70.403-.04 105.61 0 10.54 0 12.58 2.75 9.24 12.87-1.32 4-2.16 8.44-6 11.17-2.13.09-4.56-.56-5.6 2.24a176.94 176.94 0 01-33.35.09c-11.11-3.95-22.24-3.72-33.38-.12zM908.87 5.25c2.77 0 5.55-.06 8.33 0 11.26.33 15.83 4.14 17 15.23 3.39 31.25 6.52 62.54 9.76 93.82 1.24 11.95 2.31 23.93 3.83 35.85 1 7.5-2.38 11.55-9.09 13.9-11.58 4.05-23.15 3-34.54-.27-5.64-1.64-9.26-5.81-10-12.1-.41-3.66-1.3-7.27-1.91-10.92-3.1-18.34-3.1-18.34-21.33-18.34-11.72 0-23.46.28-35.16-.13-5.3-.19-8.54 1.63-11.39 5.93-5.11 7.69-10.88 14.95-16.07 22.59-7.25 10.67-17.86 14.64-30 15.51-5.05.36-10.39-.34-13.05-5.18-2.74-5 1.52-8.7 4.3-12.19a46654.056 46654.056 0 0192.66-116.49c1.92-2.41 3.86-4.81 5.75-7.24 13.14-16.85 19.38-19.9 40.91-19.97zM880.2 61.74c-9.44 12.28-17.51 22.79-26.66 34.71 10.12 0 18.33-.16 26.52.07 4.1.11 5.41-1.26 4.71-5.34-1.56-9.04-2.83-18.12-4.57-29.44zM390.42 6.76h63.93c9.63 0 11.42 2.34 9.5 11.74-2.31 11.22-7 15.19-18.29 15.27-8.34 0-16.7.34-25-.19-6.1-.38-8.56 2.14-10.35 7.7-11.43 35.8-23.43 71.4-34.86 107.18-2.43 7.66-7 12.15-14.2 14.3-13.24 3.94-26.69 5-40.22 1.62-9.95-2.46-12.5-7.12-9.3-16.81 11.5-34.81 22.66-69.74 34.87-104.31 3.34-9.47.4-10.12-7.47-9.59-7.69.52-15.44.22-23.15.08-9-.16-10.84-2.86-8.08-11.62 4-12.64 7.62-15.38 20.55-15.39l62.07.02z"></path><path fill="#363636" d="M260.5 63.64c-3.15 24.38-15.62 36.43-38.46 39.91-30.47 4.65-60.86 9.83-91.29 14.76-6.2 1-12.29 2.87-17 6.82-11.3 9.47-24.55 13.53-38.64 16.33-23.23 4.61-47 6.31-69.75 13.67-5.33 1.74-5.53-1.45-4.66-5.57 3.58-16.92 13.72-25.34 31-30 22.54-6.08 45.61-8.75 68.38-13.26 10.13-2 19.59-5.27 27.36-12.44s17.76-9.73 28-10.66c17.34-1.59 34.76-3.74 51.59-6.74 17.45-3.17 36.17-3 53.47-12.82zM15.72 105.87c3.77-27.27 20-40.74 46.22-40.49 7 .06 13.92-3.18 21-4.47 11-2 22-3.67 33-5.43 11.19-1.79 21.18-6 29.87-13.51 6.33-5.49 14.09-6.57 22.4-8 9.3-1.62 18.76-2.92 28.1-4.37 12.59-2 25.26-3.82 37.85-5.63 12.38-1.77 25.26-2.68 37.16-7.56 1.87-.76 3.64-2.46 6-1.56-2 21-13.92 33.89-34.09 37.18a20621.953 20621.953 0 00-98.51 16.24c-3.86.65-8.3 1.68-11.14 4.1-17.42 14.83-38.84 17.44-60.14 21.1-19.32 3.29-38.97 4.78-57.72 12.4zm82.54 65.76c1.94-22.48 17.06-35.08 33.54-37.18 28.23-3.58 56-10 84.59-11.83 8.46-.55 18.1-2.95 26.23-8.55-.11 20.95-13 36.24-32.56 39.13-30.49 4.53-61 8.81-91.47 13.47-6.81 1.05-13.49 3.26-20.33 4.96zM151.61.46c-1.8 24.37-14.6 36.45-41.95 40.09-18 2.39-36 5.11-54 7.46-7.82 1-15.13 3.91-22.9 6.27 4-25.94 15.56-36.51 43.3-39.58 20.55-2.27 40.78-6.83 61.5-8.2 4.44-.29 8.99-4.6 14.05-6.04zm386.39 33c11.14-3.62 22.27-3.85 33.39.08-11.13 1.28-22.26.64-33.39-.08zm66.78 0c1-2.8 3.47-2.15 5.6-2.24-1.12 2.74-3.3 2.68-5.6 2.24z"></path></g></svg>