<svg xmlns="http://www.w3.org/2000/svg" fill-rule="evenodd" viewBox="-7.303357278942713e-7 0 265.52008056640625 53.5930061340332"><path fill="#043a94" d="M40.587.424H12.29C5.765.424.425 5.764.425 12.29v20.022l.307-.103.372-.125c2.098-.703 3.398-1.507 4.296-2.521.951-1.075 1.667-2.634 2.469-4.659 1.057-2.673 3.549-7.825 7.035-11.906 2.228-2.609 4.894-4.818 7.955-5.855C26.3 5.977 30 6.25 33.8 8.898c2.216 1.543 4.455 3.947 6.667 7.44 1.548 2.445 2.359 4.868 3.15 7.234.882 2.635 1.733 5.178 3.654 6.838 1.217 1.051 3.135 2.25 5.18 3.165V12.29c0-6.526-5.339-11.866-11.865-11.866zM.425 40.318v.985c0 6.527 5.34 11.866 11.866 11.866h28.296c6.393 0 11.647-5.125 11.858-11.47a26.138 26.138 0 01-2.936-1.095c-2.747-1.21-5.436-2.907-7.213-4.442-3.494-3.02-4.67-6.535-5.889-10.176-.646-1.93-1.307-3.908-2.376-5.595-1.617-2.554-3.146-4.237-4.58-5.236-1.535-1.07-2.923-1.216-4.149-.8-1.607.544-3.188 1.917-4.617 3.59-2.793 3.27-4.843 7.532-5.724 9.76-1.081 2.732-2.133 4.932-3.87 6.894-1.791 2.023-4.101 3.533-7.573 4.697l-.372.124c-1.438.483-2.204.74-2.721.898z"></path><path fill="#173066" fill-rule="nonzero" d="M40.586.848H12.29a11.408 11.408 0 00-8.08 3.361A11.408 11.408 0 00.847 12.29v19.435l.121-.041c1.018-.341 1.84-.706 2.517-1.108a6.577 6.577 0 001.597-1.293c.45-.509.848-1.139 1.23-1.885.386-.753.761-1.64 1.16-2.65.62-1.563 1.725-3.97 3.232-6.519 1.091-1.846 2.394-3.77 3.877-5.506 1.196-1.4 2.518-2.689 3.96-3.75 1.298-.955 2.693-1.726 4.18-2.23 1.856-.63 3.788-.853 5.772-.535 1.82.291 3.675 1.037 5.548 2.342 1.158.806 2.323 1.844 3.488 3.145 1.103 1.23 2.203 2.695 3.294 4.418a23.566 23.566 0 011.893 3.711c.5 1.222.903 2.425 1.301 3.614.437 1.306.867 2.59 1.418 3.737.54 1.123 1.2 2.128 2.112 2.916.603.52 1.387 1.082 2.278 1.626.685.419 1.43.826 2.202 1.196V12.29c0-3.146-1.287-6.007-3.361-8.08a11.408 11.408 0 00-8.08-3.363zM12.29 0h28.296c3.38 0 6.453 1.383 8.68 3.61a12.253 12.253 0 013.61 8.68v21.937l-.596-.266a25.861 25.861 0 01-2.894-1.522c-.929-.568-1.752-1.157-2.39-1.709-1.01-.873-1.735-1.97-2.322-3.191-.576-1.2-1.013-2.505-1.457-3.833-.394-1.177-.793-2.368-1.282-3.56a22.756 22.756 0 00-1.826-3.583c-1.067-1.685-2.138-3.111-3.208-4.305-1.114-1.244-2.23-2.239-3.342-3.013-1.767-1.23-3.504-1.932-5.197-2.203-1.84-.295-3.637-.085-5.368.502-1.402.475-2.721 1.205-3.952 2.111-1.386 1.02-2.661 2.264-3.818 3.618-1.445 1.692-2.72 3.575-3.79 5.387-1.479 2.5-2.564 4.863-3.172 6.4-.402 1.015-.786 1.92-1.197 2.722-.413.808-.85 1.495-1.35 2.06a7.412 7.412 0 01-1.799 1.462c-.723.43-1.6.82-2.679 1.181l-.372.125-.307.103L0 32.9V12.29c0-3.38 1.383-6.453 3.61-8.68A12.253 12.253 0 0112.29 0zM.848 40.629v.674c0 3.146 1.287 6.007 3.361 8.081a11.408 11.408 0 008.081 3.362h28.296c3.078 0 5.881-1.232 7.943-3.226a11.422 11.422 0 003.478-7.513 28.343 28.343 0 01-2.67-1.016 32.897 32.897 0 01-3.94-2.076c-1.29-.795-2.454-1.636-3.378-2.434-1.794-1.55-2.992-3.226-3.897-4.98-.897-1.739-1.502-3.544-2.116-5.381v-.001c-.638-1.906-1.292-3.858-2.333-5.503-.778-1.228-1.533-2.249-2.264-3.085-.758-.866-1.492-1.534-2.2-2.028-.686-.477-1.332-.756-1.94-.873a3.534 3.534 0 00-1.832.125c-.71.241-1.422.66-2.12 1.203-.8.621-1.577 1.4-2.312 2.261-1.156 1.354-2.184 2.882-3.051 4.36a40.149 40.149 0 00-2.6 5.282c-.545 1.377-1.084 2.623-1.71 3.78a17 17 0 01-2.238 3.238 14.75 14.75 0 01-3.247 2.748c-1.264.794-2.74 1.476-4.508 2.07l-.372.124-1.707.572c-.277.091-.512.168-.724.236zM0 41.303v-1.297l.3-.092c.226-.07.547-.174 1.007-.326.68-.225 1.131-.376 1.704-.568l.372-.125c1.703-.57 3.119-1.225 4.326-1.983a13.918 13.918 0 003.065-2.593c.844-.953 1.523-1.968 2.124-3.079.604-1.116 1.132-2.336 1.668-3.69.515-1.304 1.429-3.3 2.66-5.398.89-1.52 1.947-3.09 3.137-4.482.773-.905 1.59-1.725 2.433-2.38.77-.598 1.563-1.063 2.37-1.336.705-.24 1.46-.31 2.261-.155.723.14 1.48.462 2.265 1.008.76.53 1.544 1.244 2.352 2.168.761.87 1.543 1.926 2.344 3.19 1.095 1.73 1.765 3.732 2.419 5.686.604 1.805 1.197 3.578 2.066 5.262.86 1.667 1.998 3.26 3.699 4.73.892.77 2.02 1.583 3.27 2.353a32.021 32.021 0 003.837 2.02c.494.218.983.418 1.462.596.46.172.937.334 1.426.482l.31.094-.01.325a12.265 12.265 0 01-3.752 8.416 12.244 12.244 0 01-8.53 3.464H12.29a12.25 12.25 0 01-8.68-3.61A12.253 12.253 0 010 41.303z"></path><path fill="#043a94" fill-rule="nonzero" d="M61.82 14.467h21.785v4.895h-8.112v24.025h-5.54V19.362H61.82zm45.683 4.895H92.714v6.41h13.761v4.869h-13.76v7.87h15.312v4.876H87.18v-28.92h20.323zm10.902 19.15h13.762v4.875h-19.296V14.703h5.534zm38.036-19.15h-14.789v6.41h13.762v4.869h-13.762v7.87h15.313v4.876h-20.847v-28.92h20.323zm5.234-4.895h10.96c2.17 0 3.791.094 4.857.29a6.876 6.876 0 012.86 1.191c.842.606 1.538 1.408 2.1 2.418.561 1.003.842 2.134.842 3.38a7.038 7.038 0 01-1.034 3.73 6.584 6.584 0 01-2.815 2.545c1.666.512 2.956 1.387 3.85 2.62.9 1.239 1.346 2.693 1.346 4.363a8.986 8.986 0 01-.868 3.838c-.58 1.239-1.372 2.235-2.374 2.976-1.003.74-2.24 1.199-3.715 1.374-.92.1-3.147.168-6.677.195h-9.332v-28.92zm5.54 4.814v6.687h3.626c2.158 0 3.498-.034 4.021-.101.945-.115 1.692-.458 2.234-1.03.543-.573.811-1.327.811-2.263 0-.895-.23-1.623-.696-2.181-.472-.56-1.168-.896-2.087-1.01-.549-.068-2.125-.102-4.73-.102h-3.178zm0 11.501v7.73h5.12c1.998 0 3.261-.054 3.798-.175a3.393 3.393 0 002.01-1.151c.517-.613.779-1.435.779-2.458 0-.869-.204-1.603-.6-2.209-.402-.606-.977-1.05-1.73-1.326s-2.393-.41-4.908-.41h-4.468zm22.118 12.605v-28.92h11.656c2.93 0 5.055.263 6.382.781 1.328.519 2.394 1.441 3.192 2.768.798 1.333 1.193 2.848 1.193 4.558 0 2.168-.606 3.966-1.812 5.38-1.207 1.407-3.02 2.303-5.426 2.666 1.2.741 2.19 1.55 2.968 2.431.779.882 1.826 2.444 3.147 4.693l3.351 5.643h-6.619l-4.002-6.296c-1.424-2.249-2.394-3.663-2.917-4.249-.524-.585-1.079-.983-1.666-1.205-.587-.215-1.513-.323-2.79-.323h-1.116v12.073h-5.54zm5.54-16.692h4.092c2.655 0 4.315-.115 4.979-.35a3.019 3.019 0 001.55-1.226c.371-.579.562-1.3.562-2.168 0-.976-.248-1.757-.74-2.357-.491-.599-1.187-.976-2.087-1.138-.447-.06-1.794-.094-4.04-.094h-4.315v7.333zM241.7 43.387h-6.026l-2.394-6.572h-10.96l-2.26 6.572h-5.871l10.678-28.92h5.853l10.98 28.92zm-10.194-11.44l-3.78-10.733-3.701 10.733h7.48zm-6.958-19.136l2.579-5.899h5.891l-5.144 5.899h-3.326zm18.683 21.169l5.387-.558c.32 1.912.977 3.312 1.973 4.208.99.889 2.323 1.34 4.008 1.34 1.781 0 3.128-.397 4.028-1.199.906-.794 1.36-1.723 1.36-2.787 0-.687-.192-1.266-.575-1.744-.377-.485-1.04-.903-1.992-1.253-.644-.242-2.125-.66-4.43-1.266-2.967-.774-5.048-1.73-6.242-2.861-1.685-1.59-2.527-3.528-2.527-5.818 0-1.474.395-2.848 1.187-4.134.791-1.28 1.934-2.256 3.421-2.93 1.494-.666 3.287-1.002 5.394-1.002 3.446 0 6.031.794 7.774 2.383 1.736 1.596 2.649 3.717 2.738 6.377l-5.534.256c-.236-1.488-.747-2.559-1.525-3.205-.779-.654-1.947-.977-3.504-.977-1.609 0-2.873.344-3.78 1.044-.586.444-.88 1.044-.88 1.791 0 .687.274 1.273.823 1.757.696.62 2.394 1.266 5.088 1.933 2.693.673 4.685 1.367 5.974 2.08a7.926 7.926 0 013.032 2.943c.728 1.246 1.091 2.78 1.091 4.606a8.819 8.819 0 01-1.308 4.652c-.875 1.448-2.106 2.525-3.702 3.226-1.596.707-3.587 1.057-5.968 1.057-3.466 0-6.128-.842-7.985-2.532-1.858-1.69-2.968-4.155-3.326-7.387z"></path></svg>