<svg xmlns="http://www.w3.org/2000/svg" xmlns:xlink="http://www.w3.org/1999/xlink" viewBox="77 65 437 120"><defs><path id="fn957f12b4bdma" d="M0 122h440V0H0z"></path></defs><g fill="none" fill-rule="evenodd" transform="translate(76 64)"><path fill="#E42521" d="M123 61c0 33.12-27.327 60-61 60-33.672 0-61-26.88-61-60C1 27.88 28.328 1 62 1c33.673 0 61 26.88 61 60"></path><path stroke="#E42521" stroke-width="2.868" d="M123 61c0 33.12-27.327 60-61 60-33.672 0-61-26.88-61-60C1 27.88 28.328 1 62 1c33.673 0 61 26.88 61 60z"></path><mask id="fn957f12b4bdmb" fill="#fff"><use xlink:href="#fn957f12b4bdma"></use></mask><path fill="#FEFEFE" d="M42 103h40V52H42z" mask="url(#fn957f12b4bdmb)"></path><path stroke="#FEFEFE" stroke-width="2.799" d="M42 103h40V52H42z" mask="url(#fn957f12b4bdmb)"></path><path fill="#FEFEFE" d="M60.61 20l52.356 18.742L113 50.9l-52.238-5.543L11 51l.067-12.23z" mask="url(#fn957f12b4bdmb)"></path><path stroke="#FEFEFE" stroke-width="4.927" d="M60.61 20l52.356 18.742L113 50.9l-52.238-5.543L11 51l.067-12.23z" mask="url(#fn957f12b4bdmb)"></path><path fill="#E42521" d="M138 16h45v15.063h-15.098V77h-14.804V31.063H138z" mask="url(#fn957f12b4bdmb)"></path><path stroke="#E42521" stroke-width="2.794" d="M138 16h45v15.063h-15.098V77h-14.804V31.063H138z" mask="url(#fn957f12b4bdmb)"></path><path fill="#E42521" d="M191 16h38.306v13.024h-23.981v9.695h22.246V51.16h-22.246v12.024H230V77h-39z" mask="url(#fn957f12b4bdmb)"></path><path stroke="#E42521" stroke-width="2.831" d="M191 16h38.306v13.024h-23.981v9.695h22.246V51.16h-22.246v12.024H230V77h-39z" mask="url(#fn957f12b4bdmb)"></path><path fill="#E42521" d="M241 16h18.103l23.623 33.745V16H301v61h-18.274L259.23 43.504V77H241z" mask="url(#fn957f12b4bdmb)"></path><path stroke="#E42521" stroke-width="2.821" d="M241 16h18.103l23.623 33.745V16H301v61h-18.274L259.23 43.504V77H241z" mask="url(#fn957f12b4bdmb)"></path><path fill="#E42521" d="M333.47 29.814v33.33h4.525c3.86 0 6.605-.437 8.235-1.31 1.631-.875 2.909-2.4 3.833-4.578.925-2.177 1.386-5.708 1.387-10.59-.001-6.463-1.033-10.887-3.1-13.273-2.064-2.385-5.49-3.579-10.274-3.579h-4.606zM315 16h27.439c5.41 0 9.778.75 13.108 2.247 3.33 1.498 6.082 3.648 8.256 6.45 2.175 2.802 3.751 6.06 4.729 9.778.98 3.716 1.468 7.656 1.468 11.817 0 6.519-.727 11.575-2.181 15.167-1.454 3.592-3.472 6.603-6.054 9.03-2.583 2.426-5.355 4.042-8.318 4.847-4.05 1.11-7.719 1.664-11.008 1.664H315V16z" mask="url(#fn957f12b4bdmb)"></path><path stroke="#E42521" stroke-width="2.816" d="M333.47 29.814v33.33h4.525c3.86 0 6.605-.437 8.235-1.31 1.631-.875 2.909-2.4 3.833-4.578.925-2.177 1.386-5.708 1.387-10.59-.001-6.463-1.033-10.887-3.1-13.273-2.064-2.385-5.49-3.579-10.274-3.579h-4.606zM315 16h27.439c5.41 0 9.778.75 13.108 2.247 3.33 1.498 6.082 3.648 8.256 6.45 2.175 2.802 3.751 6.06 4.729 9.778.98 3.716 1.468 7.656 1.468 11.817 0 6.519-.727 11.575-2.181 15.167-1.454 3.592-3.472 6.603-6.054 9.03-2.583 2.426-5.355 4.042-8.318 4.847-4.05 1.11-7.719 1.664-11.008 1.664H315V16z" mask="url(#fn957f12b4bdmb)"></path><path fill="#E42521" d="M413.1 53.74l-6.294-21.929-6.255 21.929H413.1zm3.689 13.19h-20.045L393.986 77H376l21.404-61h19.191L438 77h-18.413l-2.798-10.07z" mask="url(#fn957f12b4bdmb)"></path><path stroke="#E42521" stroke-width="2.873" d="M413.1 53.74l-6.294-21.929-6.255 21.929H413.1zm3.689 13.19h-20.045L393.986 77H376l21.404-61h19.191L438 77h-18.413l-2.798-10.07z" mask="url(#fn957f12b4bdmb)"></path><path fill="#020303" d="M288.931 102.931c0 1.973.442 3.451 1.327 4.434.883.982 1.995 1.472 3.336 1.472 1.331 0 2.439-.493 3.323-1.48.884-.986 1.326-2.491 1.326-4.513 0-1.906-.445-3.35-1.333-4.331-.889-.982-1.994-1.473-3.316-1.473-1.34 0-2.453.489-3.336 1.465-.885.977-1.327 2.452-1.327 4.426zm-2.756 0c0-2.854.814-4.967 2.443-6.341 1.361-1.14 3.02-1.712 4.976-1.712 2.176 0 3.954.694 5.335 2.082 1.38 1.389 2.071 3.305 2.071 5.754 0 1.983-.306 3.543-.917 4.68-.61 1.136-1.5 2.019-2.667 2.647-1.166.63-2.44.944-3.822.944-2.214 0-4.005-.691-5.37-2.075-1.367-1.383-2.049-3.376-2.049-5.979zm-14.198.015c0 1.974.426 3.448 1.28 4.426.854.977 1.863 1.465 3.025 1.465 1.171 0 2.167-.466 2.987-1.4.82-.934 1.229-2.359 1.229-4.274 0-2.109-.417-3.656-1.25-4.643-.835-.987-1.864-1.48-3.085-1.48-1.192 0-2.188.474-2.987 1.422-.8.948-1.2 2.443-1.2 4.484zm8.476 7.69v-1.944c-1.002 1.53-2.477 2.293-4.424 2.293a6.321 6.321 0 01-3.48-1.016c-1.057-.677-1.877-1.622-2.458-2.837-.58-1.214-.872-2.61-.872-4.186 0-1.538.263-2.934.79-4.186.527-1.254 1.316-2.213 2.37-2.881 1.052-.668 2.229-1.001 3.531-1.001.953 0 1.802.196 2.547.587a5.29 5.29 0 011.818 1.531v-7.633h2.667v21.274h-2.49zm-27.25 0v-15.41h2.413v2.19c1.163-1.692 2.842-2.538 5.037-2.538.953 0 1.83.167 2.629.5.8.334 1.399.772 1.796 1.314.396.541.675 1.185.834 1.93.099.483.15 1.33.15 2.539v9.476h-2.683v-9.374c0-1.065-.104-1.86-.313-2.387-.208-.527-.579-.949-1.11-1.262-.532-.315-1.155-.473-1.87-.473-1.142 0-2.128.354-2.958 1.06-.828.706-1.244 2.046-1.244 4.02v8.416h-2.681zm-6.78.001h2.682v-15.41h-2.681v15.41zm0-18.27h2.682v-3.004h-2.681v3.004zm-6.63 18.27v-2.264c-1.23 1.74-2.904 2.612-5.02 2.612a6.528 6.528 0 01-2.615-.523c-.81-.348-1.41-.786-1.803-1.313-.393-.528-.668-1.172-.827-1.938-.109-.512-.165-1.324-.165-2.436v-9.549h2.684v8.547c0 1.364.053 2.283.162 2.757.17.687.527 1.227 1.073 1.618.547.392 1.222.587 2.027.587a4.5 4.5 0 002.265-.601c.704-.402 1.204-.949 1.497-1.64.292-.692.44-1.695.44-3.011v-8.257h2.681v15.41h-2.398zm-20.59 0v-15.41h2.413v2.335c.617-1.093 1.185-1.813 1.707-2.162a3.032 3.032 0 011.72-.522c.905 0 1.823.28 2.756.84l-.923 2.424c-.656-.377-1.311-.565-1.967-.565-.585 0-1.112.171-1.579.515-.467.344-.8.82-.998 1.429-.299.93-.447 1.944-.447 3.048v8.068h-2.682zm-2.577-2.337l.386 2.307c-.755.156-1.43.233-2.026.233-.973 0-1.728-.15-2.264-.45-.537-.3-.914-.693-1.133-1.182-.218-.489-.328-1.518-.328-3.084v-8.867h-1.966v-2.03h1.966V91.41l2.668-1.568v5.384h2.697v2.031h-2.697v9.013c0 .744.047 1.223.141 1.436.094.212.248.382.461.507.214.126.52.19.917.19.299 0 .69-.035 1.178-.103zm-22.186-2.263l2.653-.407c.148 1.035.563 1.83 1.244 2.38.68.551 1.631.827 2.853.827 1.232 0 2.145-.244 2.742-.733.595-.489.893-1.06.893-1.72 0-.59-.263-1.053-.79-1.392-.366-.233-1.28-.527-2.741-.886-1.967-.483-3.33-.902-4.09-1.254-.76-.353-1.336-.842-1.729-1.467a3.807 3.807 0 01-.587-2.067c0-.687.16-1.323.483-1.908a4.285 4.285 0 011.319-1.459c.418-.3.987-.554 1.706-.76a8.29 8.29 0 012.316-.313c1.242 0 2.333.174 3.271.522.939.35 1.633.82 2.08 1.415.446.595.753 1.39.922 2.387l-2.622.348c-.12-.793-.464-1.412-1.035-1.857-.572-.445-1.379-.668-2.422-.668-1.231 0-2.11.198-2.636.595-.527.398-.79.861-.79 1.393 0 .34.109.644.327.915.219.28.562.512 1.03.696.266.096 1.056.32 2.367.667 1.898.495 3.22.898 3.971 1.212.75.315 1.34.772 1.765 1.372.428.6.641 1.345.641 2.234 0 .87-.26 1.69-.782 2.46-.521.769-1.273 1.364-2.258 1.785-.983.42-2.095.63-3.337.63-2.056 0-3.623-.415-4.7-1.246-1.077-.833-1.766-2.066-2.064-3.701zm-15.912 4.6v-15.41h2.413v2.19c1.162-1.693 2.842-2.539 5.036-2.539.954 0 1.83.167 2.63.5.8.334 1.398.772 1.796 1.314.397.541.675 1.185.833 1.93.1.483.15 1.33.15 2.539v9.476h-2.682v-9.374c0-1.065-.104-1.86-.313-2.387-.208-.527-.578-.949-1.11-1.262-.532-.315-1.155-.473-1.87-.473-1.142 0-2.128.354-2.957 1.06-.83.706-1.244 2.046-1.244 4.02v8.416h-2.682zm-15.227-7.706c0 1.973.442 3.451 1.326 4.434.884.982 1.997 1.472 3.338 1.472 1.33 0 2.438-.493 3.322-1.48.885-.986 1.326-2.491 1.326-4.513 0-1.906-.444-3.35-1.334-4.331-.889-.982-1.994-1.473-3.314-1.473-1.341 0-2.454.489-3.338 1.465-.884.977-1.326 2.452-1.326 4.426zm-2.756 0c0-2.854.814-4.967 2.443-6.341 1.36-1.14 3.02-1.712 4.977-1.712 2.175 0 3.952.694 5.333 2.082 1.381 1.389 2.07 3.305 2.07 5.754 0 1.983-.305 3.543-.915 4.68-.61 1.136-1.5 2.019-2.667 2.647-1.167.63-2.441.944-3.821.944-2.216 0-4.006-.691-5.372-2.075-1.365-1.383-2.048-3.376-2.048-5.979zm-5.125.247l2.89.71c-.606 2.313-1.696 4.076-3.27 5.291-1.576 1.213-3.5 1.821-5.774 1.821-2.354 0-4.269-.467-5.745-1.401-1.474-.934-2.597-2.285-3.367-4.055-.768-1.771-1.154-3.673-1.154-5.704 0-2.215.435-4.147 1.303-5.797.87-1.65 2.106-2.902 3.71-3.758 1.605-.856 3.37-1.285 5.298-1.285 2.185 0 4.023.543 5.513 1.626 1.489 1.084 2.527 2.607 3.113 4.57l-2.846.654c-.507-1.549-1.24-2.675-2.205-3.382-.963-.705-2.175-1.058-3.634-1.058-1.68 0-3.083.391-4.21 1.174-1.128.784-1.92 1.837-2.376 3.157a12.412 12.412 0 00-.685 4.085c0 1.81.27 3.388.811 4.737.541 1.35 1.383 2.358 2.526 3.026a7.217 7.217 0 003.709 1.001c1.62 0 2.99-.455 4.113-1.363 1.123-.91 1.881-2.26 2.28-4.05zm271.64-.878h8.285c-.112-1.32-.429-2.31-.95-2.97-.8-1.023-1.84-1.534-3.115-1.534-1.155 0-2.126.408-2.914 1.225-.787.818-1.222 1.91-1.306 3.278zm8.258 4.296l2.598.339c-.41 1.605-1.17 2.85-2.277 3.736-1.108.886-2.524 1.329-4.247 1.329-2.17 0-3.892-.707-5.163-2.12-1.272-1.411-1.908-3.392-1.908-5.942 0-2.638.643-4.686 1.93-6.142 1.284-1.457 2.951-2.185 5-2.185 1.984 0 3.605.713 4.863 2.14 1.257 1.427 1.886 3.436 1.886 6.025 0 .157-.004.394-.014.708H426.92c.093 1.723.554 3.042 1.384 3.956.829.916 1.863 1.374 3.102 1.374.921 0 1.71-.255 2.36-.768.653-.512 1.17-1.329 1.552-2.45zm-24.409-2.777c0 2.009.4 3.51 1.203 4.504.8.994 1.745 1.491 2.835 1.491 1.099 0 2.032-.474 2.802-1.425.768-.949 1.152-2.399 1.152-4.348 0-2.145-.391-3.72-1.174-4.725-.782-1.003-1.746-1.506-2.891-1.506-1.118 0-2.052.482-2.801 1.448-.75.965-1.126 2.485-1.126 4.561zm7.95 7.826v-1.979c-.94 1.556-2.324 2.334-4.15 2.334a5.591 5.591 0 01-3.26-1.034c-.994-.689-1.762-1.652-2.307-2.887-.545-1.235-.818-2.654-.818-4.26 0-1.565.248-2.984.74-4.26.495-1.274 1.235-2.251 2.223-2.93a5.705 5.705 0 013.31-1.018c.895 0 1.691.198 2.39.597.698.4 1.266.918 1.704 1.558V90h2.501v21.645h-2.332zm-16.081-7.87c-.914.395-2.282.73-4.107 1.005-1.034.158-1.766.334-2.194.531a2.226 2.226 0 00-.993.864 2.37 2.37 0 00-.348 1.262c0 .709.253 1.3.761 1.772.508.473 1.25.709 2.229.709.968 0 1.83-.224 2.583-.672a4.053 4.053 0 001.664-1.838c.27-.6.405-1.486.405-2.657v-.975zm.21 5.936c-.932.837-1.828 1.427-2.69 1.772a7.413 7.413 0 01-2.773.517c-1.63 0-2.883-.421-3.759-1.263-.875-.842-1.312-1.917-1.312-3.226 0-.768.164-1.469.495-2.104a4.278 4.278 0 011.3-1.528 5.977 5.977 0 011.808-.871c.495-.138 1.24-.271 2.236-.399 2.03-.255 3.526-.56 4.485-.915a31.8 31.8 0 00.014-.694c0-1.083-.237-1.845-.713-2.29-.643-.6-1.597-.9-2.864-.9-1.183 0-2.056.22-2.619.658-.564.437-.981 1.213-1.25 2.325l-2.46-.354c.224-1.113.592-2.011 1.104-2.695.512-.684 1.253-1.21 2.221-1.58.97-.37 2.092-.553 3.368-.553 1.267 0 2.295.156 3.088.472.791.315 1.373.711 1.746 1.188.372.478.633 1.081.782 1.81.084.452.126 1.268.126 2.45v3.544c0 2.47.053 4.033.16 4.688.108.654.32 1.282.635 1.882h-2.626c-.26-.55-.428-1.195-.503-1.934zm-23.933-5.892c0 2.009.4 3.51 1.202 4.504.8.994 1.745 1.491 2.836 1.491 1.099 0 2.032-.474 2.8-1.425.769-.949 1.154-2.399 1.154-4.348 0-2.145-.392-3.72-1.174-4.725-.783-1.003-1.747-1.506-2.892-1.506-1.117 0-2.051.482-2.801 1.448-.75.965-1.125 2.485-1.125 4.561zm7.95 7.826v-1.979c-.941 1.556-2.325 2.334-4.15 2.334a5.596 5.596 0 01-3.263-1.034c-.992-.689-1.76-1.652-2.305-2.887-.545-1.235-.817-2.654-.817-4.26 0-1.565.246-2.984.74-4.26.494-1.274 1.234-2.251 2.222-2.93a5.707 5.707 0 013.31-1.018c.895 0 1.692.198 2.39.597.699.4 1.267.918 1.704 1.558V90h2.501v21.645h-2.332zm-15.984 0h2.515v-15.68h-2.515v15.68zm0-18.588h2.515V90h-2.515v3.057zm-4.639 12.845l2.473.339c-.27 1.802-.961 3.212-2.074 4.23-1.113 1.02-2.48 1.529-4.1 1.529-2.031 0-3.664-.702-4.898-2.105-1.234-1.403-1.85-3.413-1.85-6.03 0-1.694.265-3.176.795-4.445.531-1.27 1.339-2.223 2.424-2.857a6.895 6.895 0 013.542-.952c1.611 0 2.93.43 3.953 1.291 1.026.86 1.682 2.085 1.971 3.669l-2.445.4c-.233-1.054-.646-1.847-1.236-2.377-.592-.532-1.307-.798-2.145-.798-1.267 0-2.296.48-3.087 1.44-.792.958-1.189 2.477-1.189 4.554 0 2.106.382 3.637 1.147 4.592.763.955 1.76 1.432 2.989 1.432.987 0 1.812-.32 2.473-.96.661-.64 1.08-1.624 1.257-2.952zm-16.038 5.743h2.515v-15.68h-2.515v15.68zm0-18.588h2.515V90h-2.515v3.057zm-6.441 18.588h2.514V90h-2.514v21.645zm-13.971-9.346h8.285c-.112-1.319-.429-2.308-.95-2.968-.802-1.024-1.84-1.535-3.116-1.535-1.155 0-2.127.408-2.913 1.225-.787.818-1.223 1.91-1.306 3.278zm8.257 4.297l2.599.339c-.41 1.605-1.17 2.85-2.278 3.736-1.11.886-2.525 1.329-4.248 1.329-2.17 0-3.89-.707-5.162-2.12-1.271-1.411-1.907-3.392-1.907-5.942 0-2.638.643-4.686 1.928-6.142 1.285-1.457 2.952-2.185 5.002-2.185 1.984 0 3.604.713 4.861 2.14 1.258 1.427 1.887 3.436 1.887 6.025 0 .157-.005.394-.014.708h-11.066c.094 1.723.554 3.042 1.383 3.956.83.916 1.864 1.374 3.102 1.374.922 0 1.71-.255 2.362-.768.652-.512 1.168-1.329 1.55-2.45zM311 111.646V90h13.819v2.554H313.71v6.704h9.613v2.554h-9.613v9.833H311z" mask="url(#fn957f12b4bdmb)"></path></g></svg>