<svg xmlns="http://www.w3.org/2000/svg" viewBox="0.5181045532226562 0.7102500200271606 1184.8018798828125 451.689697265625"><g fill="none"><path fill="#F48526" d="M38.84 452.36C4.99 428.5-4.94 402.17 3.21 361.22c1.64-8.23 6-8.91 12.21-8.92 61.83 0 123.67.18 185.5-.17 10.51-.06 11.79 6.71 13.3 14 3.4 16.34 5.91 32.92 15.92 48.22 1-16.44 2.53-32.88 2.81-49.33.15-9.54 3.73-12.85 13.08-12.82 66.253.24 132.507.27 198.76.09 8.58 0 13.33 2.29 13.92 12.37 2 34.83.22 67.73-34.76 87.74l-385.11-.04z"></path><path fill="#26439B" d="M1185.32 430.22c-5.86-.31-11.86-1.58-17.55-.74-15.85 2.33-25.32-3.28-26.89-19.73-1.49-15.57-12.26-16.07-23.78-14.68-12.29 1.49-29-7.37-33.07 14.42-1.35 7.29-.87 17.61-11.07 19.27-7.78 1.27-17.81 2.56-23.59-1.19-7-4.56.16-13 2.28-19.54 13.23-40.48 27.44-80.65 39.62-121.44 4.16-13.9 11.55-15.81 23.84-15.79 12.29.02 19.56 1.86 24.12 15.63 14.93 45.11 26.72 91.34 46.09 134.94v8.85zm-72.07-120.62c-6.13 20.64-10.87 36-15.2 51.56-1.25 4.48-4.36 11.08 4 11.74 8.64.68 18.93 3.73 25.57-2 4.4-3.81-.4-12.3-2.17-18.53-3.58-12.61-7.18-25.18-12.2-42.77z"></path><path fill="#F48526" d="M1185.32 204.47c-5.89 0-11.88-.79-17.64 0-15.58 2.27-25.21-2.81-27-19.46-1.79-16.89-14.2-15.5-26.18-15.08-12.7.44-27.13-3.73-30.65 15.67-1.57 8.68-1.81 18.81-16.19 19.12-17 .35-24-1.65-16.62-21.41 14.58-39.23 27.13-79.26 39.35-119.32 4-13.16 9.38-18.61 24.13-19 16-.4 21.66 6.33 25.9 20 12.63 40.69 26.34 81.06 39.63 121.55 1.11 3.38 1.11 7.39 5.25 9l.02 8.93zm-72-120.17c-5.9 20.2-10.48 35.44-14.75 50.76-1.26 4.53-5.06 11.24 2.3 12.81 7.63 1.64 16 1.13 23.86-.11 6-1 4.14-6.88 3.09-10.87-4.25-16.1-8.83-32.1-14.52-52.59h.02z"></path><path fill="#26439B" d="M395.78 56.77c-85.1 32.79-155.54 80.78-181.46 175-6.92 25.15-8.8 50.83-7.13 76.67.81 12.51-.89 18.6-16 18.37-57.5-.87-115-.74-172.51-.06-13.38.11-15.52-5.13-15.52-16.89.41-84.79 0-169.57.31-254.36C3.62 22.68 24.64 1.05 57.16.96 172.913.627 288.663.627 404.41.96c31.2.08 53.39 21 53.72 52.61.88 86.25.18 172.52.52 258.78 0 10.62-3.72 14.23-14.07 14.19-65.62-.26-131.237-.26-196.85 0-11.43.05-12.58-4.9-12.21-15 2.61-71.54 31-131.21 82.64-179.82 26.25-24.71 54.21-47.62 81.39-71.35.33-1.69.68-3.37 1-5l-4.77 1.4zM47.67 29.2c3.4 50.38 10.51 98.46 37.94 141.23 6.84 10.66 17 18.72 28.24 24.34 26.24 13.09 51.51 27.09 65.14 58.68C202.84 156.11 146.45 61.11 47.67 29.2zm795.21 309.4c0 24.05-.35 48.11.15 72.15.25 11.68-.61 18.83-16 19.13-17 .33-17-8.25-16.89-20.46.38-39-.2-78 .44-117 .13-7.32-6.21-19.84 8.26-20.82 11.61-.79 24.23-4.51 32.5 10.73a467.2 467.2 0 0049.67 74c0-22.27.35-44.55-.15-66.82-.26-11.47 0-19.12 15.74-19.001 14.65.111 16.74 5.631 16.53 18.181-.65 40.47 0 81-.47 121.44-.07 6.37 4.83 16.75-5.87 18.36-10.08 1.51-21.64 4.73-29-8.41-13.34-23.68-27.86-46.7-42-70-2.57-4.26-5.42-8.35-8.15-12.51l-4.76 1.03z"></path><path fill="#F48526" d="M1033.53 202.67c-39.53 4-39.5 4-56.54-27.64-5.56-10.32-11.28-20.56-18.73-34.11-5.33 18.66-3.26 34.45-2.71 49.72.55 15.47-8.64 14-18.4 13.76-9.94-.24-20.77 3.05-20.4-14.22.89-41.27.43-82.57.17-123.86-.06-9.33 2.53-15.09 12.52-17.49 23.35-5.61 46.57-7.2 69.67.39 19 6.23 28.4 20.66 30.08 39.76 1.57 17.85-6 32.6-22.49 39.46-13.73 5.7-10.93 11.38-4.89 20.85 10.96 17.15 20.86 34.97 31.72 53.38zM991.16 94.03c.25-15.73-4.3-27.39-22.84-27.79-21.46-.47-10.9 15.82-13 25.16-1.22 5.56-.67 11.65-.09 17.42.53 5.31-3.2 12.74 4 15.37 6.93 2.54 14.29 1.19 20.77-3.3 9.59-6.62 11.53-16.24 11.16-26.86zM890.24 201.56c-30 9.41-46.67-.33-56-26.12-3.88-10.86-11.03-20.58-21.38-30.58 0 15.47-.7 31 .19 46.41.93 16.08-10 13.32-19.09 13-8.6-.29-20 4.25-19.84-12.24.5-42.75.27-85.5.09-128.24 0-7.83 3-12.4 10.59-14.4 23.94-6.34 48-8.07 71.76 0 17.78 6 27.48 19.15 29.34 37.77 1.88 18.8-5 33.95-22.42 41.59-11.72 5.11-11.32 10.11-5.32 19.43 11 17.14 21 34.89 32.08 53.38zM811.39 96.8c7.6 8.43-10.13 28.17 13.42 27.81 18.61-.28 24-14.13 24-30.53 0-15.67-4.69-28.4-23.33-27.61-24.47 1.04-6.5 20.9-14.09 30.33z"></path><path fill="#26439B" d="M652.89 432.35c17.82-54 34.14-102.76 49.9-151.67 4.86-15.1 16.77-7.89 25.88-9.47 10.3-1.79 15.64 2.39 18.93 13 12.86 41.44 27.15 82.43 40 123.87 1.95 6.29 14.08 17.9-1.45 20.23-11.24 1.69-30.47 10-33.79-12.07-2.86-19-12.82-22.14-30-21.87-16.64.27-27.59 2.05-30.74 21.52-3.87 23.9-23.26 8.43-38.73 16.46zm70-123.1c-6 20-10.86 35.31-14.94 50.82-1.09 4.13-5.17 11.41 2.67 12.57 8.45 1.25 18.5 2 25.64-1.5 6-3 .42-11.64-1.22-17.67-3.64-13.36-7.33-26.7-12.14-44.22h-.01z"></path><path fill="#F48526" d="M663.84 124.86c0-21.36.24-42.73-.11-64.09-.16-9.46 1.49-15.52 13.07-15.15 19.13.6 38.31.47 57.46 0 9.81-.23 12.5 4.11 12.6 13.26.1 9.54-3.27 13.71-12.84 12.73-2.92-.29-5.89.09-8.83 0-12.87-.59-24-2.09-23.16 18.15.71 16.64 3.86 24.48 21.86 21.86 8.45-1.23 18-2.42 17.61 12.15-.35 13.91-9.36 13.78-18.07 12.4-21.71-3.43-20.27 9.66-21.21 24.83-1.14 18.29 8.49 18.74 21.45 17.64 4.39-.37 8.84.08 13.26 0 9.84-.17 9.54 6.59 9.8 13.54.28 7.92-1.83 12.47-11 12.31-19.88-.36-39.79-.45-59.67.06-10.06.26-12.52-4.37-12.37-13.37.4-22.14.16-44.24.15-66.32z"></path><path fill="#26439B" d="M585.31 430.57c-8.84-.28-17.49-.77-26.13-3.65-8.85-2.95-11.73-6.47-8-16 3.22-8.26 4.86-15.8 16.29-10.88 6.17 2.65 12.76 4 19.47 2.35 7.52-1.84 13.69-5.43 15.56-13.82 1.81-8.08-.62-15-7.25-19.4-7.3-4.9-15.63-8.25-23-13-17.91-11.51-26-27.79-21.31-49 4.85-21.87 18.72-34.42 41.12-37.11a84 84 0 0132.89 2.27c7.19 2 14.3 4.63 10 15.29-3.06 7.65-5.6 12.83-15.6 9.4-12.28-4.22-26.21-6.81-31.19 9.64-5.17 17.1 9.14 22.64 21.06 28.73 29.31 15 39 31.8 33 57.22-6 25.42-25.61 38.44-56.91 37.96z"></path><path fill="#F48526" d="M595.47 45.75c11 0 22.1.39 33.12-.12 9.48-.44 13 3.28 12.94 12.79-.07 8.85-2 14.62-12.15 13.1-13.49-2-15.61 4.94-15.39 16.55.62 33.11-.74 66.28.62 99.34.68 16.46-7 17.4-19.67 17.25-12.32-.15-20.73-.32-20-17.14 1.36-33.06 0-66.23.6-99.34.21-11.62-2-18.65-15.47-16.64-9.94 1.49-12.41-3.66-12.37-12.81.04-9.15 2.56-13.59 12.46-13.11 11.74.56 23.54.13 35.31.13z"></path><path fill="#26439B" d="M982.16 361.32c0-12.51-.08-25 0-37.55.11-14.16 4.47-30.72-20.22-27.31-8.91 1.24-6.87-7.55-7.06-13-.21-5.76-1.06-12.32 8.06-12.3 25.767.06 51.537.06 77.31 0 9.2 0 7.82 6.74 7.93 12.43.14 6.69.76 14.68-9.43 13.11-17.73-2.74-18.21 7.31-17.93 20.66.68 32.38-.58 64.82.54 97.18.58 16.87-9.54 14.65-19.9 14.78-10.67.14-20.77 1.54-19.59-15.05 1.29-17.53.29-35.27.29-52.95z"></path><path fill="#FDFCFD" d="M395.78 56.77l4.75-1.43c-.34 1.67-.69 3.35-1 5l-3.75-3.57z"></path></g></svg>