<svg xmlns="http://www.w3.org/2000/svg" viewBox="0.05000000447034836 0.6170161366462708 1654.980712890625 776.8130493164062"><g fill="none"><path fill="#0A0B0C" d="M1199 258.21c1 3.13.49 6.3.24 9.46-.06 3.56-.13 7.12-.19 10.67-.91 3.8.16 7.69-.6 11.49l-.2 10.72c-.89 3.78.16 7.66-.58 11.45l-.2 11.44c-.93 3.8.16 7.7-.6 11.51l-.2 10.68c-.91 3.79.17 7.69-.59 11.49l-.2 10.7c-.9 3.78.16 7.67-.59 11.46-.06 3.81-.13 7.62-.19 11.44-.73 2.68-.22 5.42-.33 8.14 0 .68.15 1.31 1.1 1 6.32-13.89 14.33-26.93 20.79-40.73 6.46-13.8 14.28-26.68 20.63-40.4 6.09-13.16 13.61-25.57 19.72-38.7 3-6.5 6.3-12.86 9.62-19.21a4.13 4.13 0 014.23-2.58c47.48.06 94.957.06 142.43 0 2.14 0 3 .14 2.3 2.81a54121.436 54121.436 0 00-38.39 139.66 50659.68 50659.68 0 01-19.71 71.54 8.52 8.52 0 00-.08 2 2.84 2.84 0 00-.11 2.88c.15.32.57-.28.85-.46 8.16-13 16.317-26 24.47-39 5.92-9.41 11.89-18.79 17.8-28.21a34603.01 34603.01 0 0038.31-61.15c9.73-15.63 19.1-31.49 29.06-47a2433.323 2433.323 0 0025.75-40.91 4.13 4.13 0 014-2.17c44.32.06 88.633.06 132.94 0 2.28 0 3.1.44 3.31 3 3.62 44.54 7.32 89.073 11.1 133.6 3.12 37.3 6.253 74.603 9.4 111.91 0 .62-.09 1.34.74 1.61v11.81c-1.37-.71-2.85-.36-4.27-.36-32.3 0-64.6-.08-96.9.08-3.41 0-4.31-1-4-4.11.07-2.236 0-4.473-.21-6.7-.77-4.59.33-9.26-.59-13.84-.06-4.093-.123-8.187-.19-12.28-.8-4.6.33-9.29-.61-13.89a10 10 0 00-.16-5.1c-1-.67-2-.4-3.07-.4h-78.54c-1 0-2.11-.24-3.08.36a73265.341 73265.341 0 00-22.13 38.85c-2.83 5-5.7 9.93-8.35 15-.9 1.72-2 2-3.76 2h-171.72c-1.94 0-3.13.55-2.18-2.81 4.84-17.27 9-34.74 13.58-52.08 4.85-18.19 10.08-36.28 15-54.46 3.59-13.35 6.8-26.8 10.34-40.17 3.76-14.21 7.69-28.38 11.57-42.56.85-3.12 1.78-6.22 2.67-9.32a1.61 1.61 0 000-2c-.23-.3-.51.28-.81.38-6.61 12.5-13.25 25-19.82 37.52-17.427 33.22-34.843 66.453-52.25 99.7-10.79 20.57-21.67 41.1-32.31 61.75-1.53 3-3.12 4.15-6.53 4.13-24.79-.16-49.57-.09-74.36-.07-1.43 0-2.86.19-4.3.29-1.67-1.66-.69-3.61-.61-5.46l.2-12.28c.91-4.32-.16-8.73.59-13l.2-12.26c.92-4.32-.17-8.74.6-13.07l.19-12.24c.93-4.33-.17-8.75.6-13.09.17-4.07.6-8.14.18-12.23.94-4.06-.15-8.23.6-12.31l.21-12.3c.9-4.31-.16-8.71.59-13 .073-4.087.14-8.177.2-12.27.91-4.38-.17-8.79.59-13.12.067-4.08.13-8.163.19-12.25.93-4.32-.16-8.74.61-13.08.17-4.08.6-8.15.18-12.23.75-3.2.22-6.45.32-9.67 0-.74-.15-1.63-1.33-1.14-5.48 19.25-11 38.49-16.43 57.76a49574.897 49574.897 0 00-32.47 116.35c-2.57 9.22-5.22 18.42-7.63 27.68-.57 2.17-1.35 3-3.67 3-34.56-.067-69.117-.087-103.67-.06a5.83 5.83 0 01-1.11-.21c6.16-13.48 12.59-26.71 18.35-40.28 5.107-12 10.083-24.067 14.93-36.2 3.34-8.43 6.39-17 9.33-25.55 8.56-24.92 15.82-50.23 22.24-75.77 3-12.15 5.43-24.47 7.82-36.77 1.85-9.52 3.34-19.12 4.78-28.71.72-4.77.92-9.61 1.44-14.41.29-2.72 1.71-3.69 4.64-3.69 51.333.1 102.647.123 153.94.07 1.45 0 2.9 0 4.35-.07zm347.93 56.27l-52.27 86c18.72 0 36.62-.09 54.51.09 3.31 0 3.82-1 3.63-4-1.4-21.85-2.63-43.71-3.93-65.56-.33-5.45-.72-10.9-1.09-16.34l-.85-.19z"></path><path fill="#DC7500" d="M872.25 341.87c-1.37-9.6-3.35-19-9.17-27.09-5.52-7.63-13-12-22.46-13.33-17.34-2.51-33.17 3.1-49.1 8.41-10.34 3.44-20.21 8.06-30.69 12.75 3.69-21.19 7.29-41.87 10.9-62.55 1-1.36 2.43-.67 3.63-.68h216.46c1.28 0 2.65-.43 3.83.47a591.317 591.317 0 01-8 53.85 735.42 735.42 0 01-18.06 72.65 772.65 772.65 0 01-55.33 134.87 717.66 717.66 0 01-68.92 107.42c-11.12 14.31-23 28-35.33 41.3-24.42 26.32-51.24 49.75-81.4 69.25-23.67 15.31-48.81 27.4-76.48 33.72a152.33 152.33 0 01-25.3 3.84c-1.61.55-3.27.15-4.9.27-4.44.25-8.91-.52-13.33.41h-.79c-3.33-2-7.23-.29-10.69-1.66-.77-.3-1.79 0-2.35-1 .75-.87 1.9-.25 2.77-.69 1.34-.56 2.85.15 4.16-.57l1.37-.15c1.27-.74 2.81.17 4.07-.67a133.62 133.62 0 0034.58-9.86c20.46-8.8 38.9-20.92 56.69-34.25 19.19-14.37 36.41-30.85 52.72-48.22a313.38 313.38 0 0030.35-38.41 455.82 455.82 0 0024.81-41.06c9.13-17 16.82-34.65 24.19-52.49 7-17 12.69-34.41 18.4-51.82 6.75-20.61 12.27-41.6 17.64-62.61 1.67-6.52 1.73-13.45 2.56-20.19.5-4.07 1.06-8.12 1.59-12.18.75-1.3 0-2.81.6-4.13.07-1 .13-2 .2-3 .82-1.84-.1-3.87.59-5.73l.21-4.49c.73-1.61 0-3.38.57-5 .07-2.54.15-5.07.22-7.6a119.62 119.62 0 00-.01-19.59l-.24-6c-.56-1.39.24-2.89-.56-4.19z"></path><path fill="#F1C99C" d="M608.6 777.42c4.42-1.76 9-.34 13.5-.67.22.16.29.32.21.46-.08.14-.17.21-.25.21H608.6z"></path><path fill="#F8E7D3" d="M622.05 777.42a3.77 3.77 0 010-.67h4.73a3.87 3.87 0 000 .68l-4.73-.01z"></path><path fill="#0A0B0C" d="M345.68 421.96l-9.24 32.71c-.82 2.9 1.34 2.16 2.72 2.16h109.47c-4.36 19.29-7.55 38.52-10 57.84-.64 5.07-2.34 5.47-6.44 5.47-69.1-.053-138.213-.08-207.34-.08h-4.68c16.79-61.51 33.53-122.82 50.32-184.34-1.16-.05-2.16-.14-3.17-.14-24.8 0-49.6.05-74.4-.09-2.9 0-4 .89-4.71 3.6-8.53 31.36-17.2 62.68-25.81 94-7.72 28.093-15.387 56.2-23 84.32-.49 1.81-.82 2.68-2.89 2.68-32.77-.03-65.46-.03-98.39-.03 16.79-61.54 33.54-122.89 50.36-184.52H.05c4.57-17.15 9-34.08 13.58-51 2.23-8.29 4.64-16.53 6.79-24.83.31-1.22.7-1.5 1.73-1.49h491.97c4.75 0 4.77 0 2.73 4.12a824.631 824.631 0 00-25 55.69c-.92 2.29-2 3.31-4.79 3.3-36.67-.14-73.35 0-110-.18-3.49 0-4.48 1.14-5.25 4.35-2.2 9.19-4.91 18.25-7.39 27.37a28.84 28.84 0 00-.49 3.07c-.47 1.19-.33 2.11 1.14 2.28 1.052.06 2.108.06 3.16 0h103.93c1.42 0 2.9-.37 4.27.36-6.74 18.15-12.4 36.63-17.39 55.32-.63 2.35-1.09 4.74-1.63 7.12-1.32.92-2.82.45-4.22.45-34.4.04-68.8.057-103.2.05-1.46.1-2.94-.24-4.31.44z"></path><path fill="#DC7500" d="M476.28 526.52c.06-1.26.13-2.52.19-3.78.79-1.57-.05-3.34.59-4.93.07-1.49.15-3 .22-4.48.67-1.34 0-2.87.59-4.23 1.1-9.43 1.94-18.9 3.4-28.28 1.59-10.3 3.54-20.55 5.74-30.74 5-22.91 10.77-45.6 17.95-67.92 6-18.72 12.51-37.26 19.89-55.48 4.48-11 9.36-21.87 14.2-32.74 6.27-14.09 13.38-27.75 20.38-41.46 5.45-10.68 11.71-21 17.77-31.31a670.18 670.18 0 0145-66.88c7.08-9.3 14.69-18.2 22.13-27.23 12.55-15.22 26.66-28.88 40.56-42.74 8.61-8.58 18.22-16.11 27.63-23.86a313.69 313.69 0 0159.49-38.59c21.58-10.77 44.32-18.44 68.51-20.6 32-2.85 61.82 3.4 87.87 23.27 4.89 3.74 9.35 8 14 12.07a3.47 3.47 0 012.53 2.59c4.75 6.21 9.94 12.07 14.27 18.61 14.37 21.7 23.35 45.6 29.39 70.76 2.81 11.69 4.47 23.58 6.44 35.41.62 1.32-.14 2.84.6 4.14l.2 3c.64 1.61-.17 3.39.58 5l.22 4.52c-.24 1.64-1.55 1.13-2.48 1.13-31.87 0-63.74 0-95.6.08-2.56 0-3-.94-3-3.24 0-4.72.44-9.46-.27-14.17-.07-1.47-.14-3-.2-4.42-.66-1.63.14-3.42-.59-5-1.89-15.1-5.52-29.62-14.76-42.12-9.24-12.5-21.51-19.84-36.91-21.74-1.29-.16-2.27-1.44-3.69-.88-1.83-.85-3.85.09-5.69-.6a60.85 60.85 0 00-11.13 0c-1.91.64-4-.19-5.86.56-11.13.73-21.8 3.58-32.28 7.19-26.7 9.19-50.33 23.79-72.38 41.18a381.12 381.12 0 00-38.09 34.3c-27.36 28.28-51.06 59.44-72.15 92.63a728.94 728.94 0 00-44.2 80.81 782.43 782.43 0 00-47.15 126.82c-5.42 19.89-10.14 39.89-13.79 60.17-2.29 12.57-4.51 25.21-5 38-.71 1.31 0 2.84-.59 4.17-.07 1.24-.14 2.48-.2 3.72-.76 1.59.07 3.38-.6 5-.06 1.23-.13 2.47-.2 3.71-.81 2.13.13 4.43-.58 6.58l-.21 5.28c-.86 3 .16 6-.57 9a335.38 335.38 0 000 34.88c.71 2.69-.27 5.5.57 8.18l.21 4.48c.63 1.64-.13 3.44.58 5.08 0 2.24.037 4.487.11 6.74.46 1 .6 1.75-.89 1.685a245.791 245.791 0 01-8.39-34.005c-1.47-8.18-2.78-16.37-3.53-24.64-.63-1.33.12-2.86-.6-4.18-.07-1.51-.14-3-.22-4.53-.61-1.62.17-3.4-.56-5-.08-2-.15-4.06-.23-6.08-.7-2.7.27-5.51-.57-8.19v-35.86c.86-2.68-.15-5.49.59-8.18.07-2.29.13-4.59.2-6.88.76-1.87-.12-3.9.56-5.78z"></path><path fill="#0A0B0C" d="M1430.16 581.38c-4.19 15.65-7.39 31.53-11 47.3-1.57 6.81-2.68 13.79-7.78 19.25-3.68 4-8.37 5.38-13.4 6.29-7.2 1.31-14.06-.09-20.55-3-3.94-1.79-4.25-7.88-.8-10.28 1.43-1 2 .35 2.84 1.16 5.65 5.57 14.13 6.92 20.56 3.26 6-3.44 7.55-9.61 8.85-15.68.38-1.74-1.5-1.19-2.53-.71a27.09 27.09 0 01-12.3 2.64 15.81 15.81 0 01-15-13.81 33.62 33.62 0 015.53-23.74 26.23 26.23 0 0119.73-12c3.13-.37 6.26-.69 9.4-1 5.44-.22 10.97-1 16.45.32zm-422.64 16.46c-2 8.47-4.35 16.87-5.71 25.43-.91 5.78-5.25 6.56-9.1 7.41a52.69 52.69 0 01-22 .25c-9.55-2-16.65-9.27-18.38-19.36-2.83-16.54 2.31-30.28 14.46-41.46 5.84-5.37 13.28-7.2 21-8.14 2.35-.39 4.75-.39 7.1 0 4.63 1.16 9.39 1.8 13.72 4 2 1.06 2.79 2.36 1.89 4.55-.39.94-.6 2-.9 2.93-1.2 3.92-1.64 4.09-4.64 1.28-3.19-3-7.11-3.66-11.19-4a7.36 7.36 0 00-4.66 0c-9.76.45-16.32 5.88-21.19 13.8-2.6 4.22-4.56 8.72-4.74 13.81-.76 1.29 0 2.8-.6 4.11-1.25 7.24 3.2 17 10.13 19.15a9.74 9.74 0 003.75.73c1.33.7 2.84 0 4.18.57h2.41c1.34-.59 2.87.12 4.2-.58 2.5-.35 4.05-.87 4.89-4.15 1.75-6.83 2.37-13.87 4.37-20.62 3.66-.19 7.35-.65 11.01.29zm131.53 14.51v.06c.66-1.4 0-3 .61-4.37 3-15.82 11.5-25.25 31-27.05 6.58-.22 13.16-.85 19.72.31-3.39 16.29-7.41 32.44-10.24 48.84-1.89 1-4.06-.07-6 .79a5.36 5.36 0 00-3.22 0c-1.7-.36.65-3.22-1.89-3.07a24.36 24.36 0 01-17.54 2.59c-7.26-1.64-10.27-7.05-11.83-13.68-.61-1.44.03-3.03-.61-4.42zm512.74-31.12c-1.72 7.54-3.54 15.06-5.12 22.63-1.83 8.73-3.45 17.5-5.16 26.25-1.87 1.08-4-.06-6 .82-1.35-.9-4.07 1.14-4.35-2.38-.13-1.73-1.67-.33-2.44 0-5.49 2.45-11 3.24-16.91 1.41-7-2.17-9.58-7.54-10.81-14a21.42 21.42 0 01.05-7.13c3-16.61 11.58-26.18 31-27.84 6.58-.26 13.17-.75 19.74.24zm-11.27 7.05c-2.93 0-5.56-.22-8.15.03-12.405 1.103-21.678 11.88-20.92 24.31.31 4.93 3.2 9.02 7.31 10.26 4.88 1.46 12.13-.35 14.61-3.71a4.81 4.81 0 00.8-1.77c2.12-9.61 4.2-19.22 6.35-29.12zm-443.94 18.97a32.56 32.56 0 0110.58-21.94c3.35-3.09 7.53-4.13 11.75-5.14 1.39-.53 2.93.08 4.3-.56h.08c1.64.72 3.45 0 5.1.59 6.49 2 11.89 5 13.83 12.25 3.43 12.75-3.67 34.67-18.66 38-5.51 1.24-11 1.83-16.28.11-6.46-2.1-10-7-10.7-13.88a39.48 39.48 0 010-9.43zm128.24-.79a36.31 36.31 0 017.18-17.76c3.82-5.11 8.94-7.31 14.88-8.35 1.53-.27 3.07-.5 4.61-.74 1.65.73 3.49-.09 5.13.62 2.73 1.41 5.85 1.85 8.33 4 3.71 3.21 5.14 7.41 6.06 11.94a16.34 16.34 0 010 6.31c-1.1 6.83-3 13.32-7 19.15-4.66 6.83-11.44 9.43-19.2 9.91-5.94.37-11.68-.26-16.21-5.08-2.45-2.62-3.23-5.67-3.82-8.94-.56-1.38.08-2.92-.57-4.29v-2.41c.68-1.4.08-2.96.61-4.36zm-298.37 8.21c1 5.2 4.41 8.06 10.16 8.47 2.47.55 5.03.55 7.5 0 3.91.3 6.55-2.6 9.77-4 .82-.35 1.51-1.13 2.33-.53.82.6-.25 1.34-.39 2-1.9 9.29-2.13 8.53-14.74 10.82-4.33.79-8.8 0-13.25-1.33-7-2.15-10.9-8.88-11.4-15.53-.57-7.64.23-15 4.19-21.79 4.3-7.4 10.41-11.83 19.08-12.49a31.65 31.65 0 003.82-.71c1.4.66 3 0 4.39.61 5.45 1.64 10.51 3.94 12.61 9.76 1.31 3.64 2.19 7.42 1 11.41-.44 1.44-.15 3.11-.19 4.68-.89 1.5-2.33.69-3.5.74-7.13.29-14.27-.42-21.39.39a28.35 28.35 0 00-9.85.27 15.2 15.2 0 00-.14 7.23zm290.52 7.86c-.78 2.51-1.55 5-2.33 7.54-1.58 1-3.31.43-5 .48-9.29.27-18.6-.42-27.89.38-5.94-.57-5.71-.52-4.45-6.7 2.54-12.48 5.76-24.81 8.25-37.31 1.44-7.21 3.32-14.36 4.72-21.6a2.19 2.19 0 012.35-2.07c.133.01.267.01.4 0 9.63-1.15 9.65-1.15 7.38 8.44-4 16.73-8.21 33.39-11.66 50.46h14c4.8-.17 9.54-.91 14.23.38zm-219.98-42.29c2.16.77 4.31 1.57 6.49 2.3 2 .66 2.5 1.67 1.82 3.84-1.71 5.41-1.57 5.44-6.46 2.69a15.23 15.23 0 00-14-1 5.63 5.63 0 00-3.7 4.58c-.39 2.35.07 4.58 2.25 5.83a97.81 97.81 0 009 4.49c4.79 2.11 8.21 5.37 9.55 10.56a6.92 6.92 0 010 3.93c-2.29 10.59-12.07 14.64-20.47 14.27-4.53-.2-8.9-.39-13.32-2.27-4.1-1.74-4.55-4-3.38-7.48.31-.92.77-1.8 1.29-3 4 2.53 7.73 5.64 12.88 6a13.94 13.94 0 0010.6-3.47c3.74-3.31 1.47-9.08-4.09-11.4-4.63-1.94-9.71-3.49-12.5-8a14.29 14.29 0 018.1-21c1.35-.42 2.77-.65 4.15-1 1.66-.63 3.47.14 5.11-.59h.89c1.85.89 3.9-.06 5.79.72zm396.72 38.06c-2.86 9.61-11.05 13.58-20.25 13.5-5.85-.06-11.58-.43-16.57-4a2.59 2.59 0 01-.64-3.16c.45-1.72.89-3.45 1.37-5.27 1.59 0 2.62 1.25 3.89 2.1 5.46 3.63 11 5.23 17.38 1.81a7.86 7.86 0 004.38-6.63c.25-2.91-2.2-4.34-4.62-5.51s-4.92-3-7.57-3.91c-5.67-2-8.69-7.28-8.3-14.62.24-4.5 5.44-10 10.8-11.45 1.13-.31 2.25-.65 3.38-1 1.66-.64 3.49.13 5.14-.6a1.22 1.22 0 001.53 0c1.66.75 3.52 0 5.18.64 1.24.39 2.49.71 3.7 1.17 6.77 2.65 5.24 1.86 3.79 8-.48 2-1.45 2.45-3.3 1a17.25 17.25 0 00-14.59-3.08c-2.94.62-4.92 2.29-5.41 5.33-.53 3.25.83 5.47 3.9 6.8 2.62 1.13 5.08 2.63 7.7 3.75a15.84 15.84 0 019.13 9.55 13.46 13.46 0 01-.02 5.58zm91.25-38.69c.28.31.56.33.83 0 1.65.73 3.48 0 5.14.61 1.95 1 4.2 1.14 6 2.44 1.11.78 3 .55 2 3-.76 2-.64 4.85-2.22 6-1.41 1-3-1.76-4.89-2.17a16.08 16.08 0 01-3-1.34 15.72 15.72 0 00-6.86 0c-7 1.23-13.47 9.12-14.09 17.27a19.53 19.53 0 000 7.73c.3 7.88 9.78 12.8 17.67 10 2.35-.83 4-4.32 6.81-2.59 1.32.81-3.53 8.74-6 9.77-7.5 3.16-19 1-24.27-4.95-4.47-5.08-6-11.07-5.3-18a37.88 37.88 0 015.68-16.38c4-6.41 10.25-9.36 17.37-10.85 1.68-.61 3.49.19 5.13-.54zm-473.68 8.52c.38-6.17.56-6.4 7-6.93 1.28-.1 2-.36 2-1.73 0-2.7 1.69-4.94 1.71-7.72 0-4.13 4-3.76 6.56-4.54 5.37-1.61 5.46-1.46 4 4-.84 3.13-3.16 7-1.79 9.24s5.82.36 8.9.67c.312.067.62.154.92.26-.54 2.22-1.077 4.447-1.61 6.68-3.44 1.42-7.12-.14-10.59.85-2.25 9.15-5 18.19-6 27.61a7.31 7.31 0 00.06 5 1.82 1.82 0 002.13 1.63 5.81 5.81 0 004.28-.06c1.08.53 1.88-1.42 2.75-.5.71.75 0 1.89-.1 2.88-.39 3.21-1.86 5.16-5.11 5.64a17.11 17.11 0 01-6.3 0c-7.28-1.17-10.49-6.29-8.66-14.39 2-8.68 4.22-17.28 6.34-25.92.68-1.52.1-2.12-1.48-2.22-1.58-.1-3.46.48-5.01-.45zm400.51 42.99c-5.69-1-8.77-4.24-8.66-9.2.74-1.66 0-3.51.62-5.18 1.887-8.407 3.783-16.82 5.69-25.24.84-1.92.41-2.88-1.88-2.92-1.47 0-3.08.62-4.42-.54.5-6.25.5-6.29 7-6.84 1.28-.11 1.67-.34 1.82-1.76.18-1.7 1.65-3.36 1.55-5-.3-4.68 2-6.26 6.24-7.12 6.18-1.27 6.13-1.54 4.54 4.4-.1.37-.43.68-.53 1-2.12 8.07-2.11 8.1 6.16 8.29 1.93 0 3.18.09 1.93 2.57a19.8 19.8 0 00-1.1 4.49c-3.42 1.21-7-.17-10.48.79-2.3 9.72-4.68 19.42-6.82 29.17-.48 2.17-.06 4.51 2.9 5a5.68 5.68 0 004.25 0c1 .53 1.84-1.47 2.73-.46.69.78.26 1.95.08 3-.53 3.06-2.13 5-5.31 5.48a17 17 0 01-6.31.07zm-74.82-.2c-3.19 0-4.51-.42-3.41-4.54 3.27-12.28 5.75-24.77 8.57-37.17 1.61-7 1.68-6.8 8.81-8.23 3.32-.67 4.17-.6 3.11 3.07-4.07 14-6.25 28.42-9.5 42.6a16.33 16.33 0 00-.16 3.14c-2.24 1.92-5.07-.05-7.42 1.13zm97.32.01c-5-.4-5.08-.41-4-5.4 2.57-11.41 5.23-22.81 7.67-34.25.31-1.46.93-3.13.77-4.4-.65-5.06 2.65-5.37 6.11-5.7 6.36-.59 6.46-.55 4.8 5.7-3.58 13.53-6.33 27.24-8.73 41a17 17 0 01-.69 2.24c-1.85 1.02-4.01-.06-5.93.81z"></path><path fill="#0B0C0D" d="M1162.63 570.8c-2.32-.16-3.52 2.13-5.58 2.55-1.62-6.39 3.14-11.46 10.09-10.76a14.43 14.43 0 016.65 2c4.53 3 8.83 2.64 12.94-.81.59-.5 1.21-1.28 2-.59.32.3.17 1.21.1 1.82a11 11 0 01-15.87 8.48c-1.78-.88-3.54-1.81-5.3-2.72a7.37 7.37 0 00-5.03.03z"></path><path fill="#FCFCFC" d="M995.65 259.84c-32.133-.073-64.267-.137-96.4-.19-40.82-.06-81.647-.1-122.48-.12-1.69 0-3.43-.34-5 .53.74-1.64 2.24-1.1 3.47-1.1h217.2c1.1 0 2.39-.37 3.21.88z"></path><path fill="#0B0C0D" d="M1464.84 561.24c-4.06 3.45-7.3 7.63-10.6 11.76-1.22 1.53-2.4 3-4.7 2.49-1.52-1-3.63.62-5-1.13 2.88-4.913 5.763-9.823 8.65-14.73 3.38-.59 6.79-.18 10.19-.24 1.15-.03 2.79-.15 1.46 1.85z"></path><path fill="#0C0D0E" d="M1556.18 560.52a3 3 0 00-.45.65c-2.37 7.38-3 7.8-11 8-2 0-2.82-.41-1.63-2.4a3.3 3.3 0 00.41-1.08c1.24-6.62 1.24-6.62 7.81-7.62 1.79.53 5.46-2.63 4.86 2.45z"></path><path fill="#FCFCFC" d="M895.23 164.4c1 4.55.62 9.17.56 13.76 0 2.38.31 3.47 3.13 3.46 31.52-.1 63-.06 94.55-.08 1.09 0 2.44.52 3.14-.94.49.66.49 1.28-.4 1.44a15.7 15.7 0 01-2.75.12c-31.33 0-62.66 0-94 .09-3.5 0-4.64-.93-4.4-4.43.33-4.45.14-8.94.17-13.42zM476.4 358.68c-1.51-.72-3.12-.36-4.67-.37-35.02 0-70.043-.033-105.07-.1-1 0-4.62 1.86-2.76-2.23.52 2.87 2.83 1.85 4.44 1.86 34.827.053 69.653.053 104.48 0 1.17 0 2.34.09 3.51.15.07 0 .18.18.19.28a1.33 1.33 0 01-.12.41zm-130.72 63.28c1.25-1.12 2.77-.53 4.14-.53 34.28-.04 68.56-.04 102.84 0 1.58 0 3.15-.18 4.72-.27-.81 1.25-2.1.88-3.23.88l-108.47-.08zm1117.72 41.96c.61-1.05 1.64-.64 2.48-.64h79.84c.79 0 1.89-.59 2.37.67l-84.69-.03zm-181.62 167.01c7.67-1.13 15.39-.34 23.08-.58l9.78-.28c-.8 1.27-2.09.9-3.22.91-9.88 0-19.76-.017-29.64-.05zm-245.38-23.75c6.77-.82 13.57-.12 20.35-.36 1.55 0 3.17.33 4.54-.77-.66 1.7-2.16 1.17-3.37 1.18-7.17.02-14.35-.03-21.52-.05zm153.94-25.88l-19.72-.31c6.59-.93 13.17-1.5 19.72.31zm461.51-.07l-19.74-.24c6.59-.93 13.18-1.39 19.74.24zm-778.8-229.17a69 69 0 010 19.67v-19.67zm557.11 229.32c-5.49-.8-11 0-16.52-.4 5.53-.83 11.06-1.63 16.52.4zm34.68-20.14c.63-1.51-.14-1.76-1.45-1.73-3.39.09-6.78.09-10.17.12 3.63-1.45 7.42-.53 11.12-.57 1.62 0 2.13 1 .5 2.18zm-147.87 61.29c-4.69-1-9.45.13-14.15-.39 4.74-.84 9.48-1.57 14.15.39zm232.08-127.3c.85 4.59.65 9.22.59 13.84-1.45-4.56-.35-9.23-.59-13.84zm-.8-26.17c.91 4.6.64 9.25.61 13.89-1.47-4.57-.34-9.26-.61-13.89zm-429.2-5.09c0 4.37.28 8.74-.6 13.07.21-4.35-.82-8.77.6-13.07zm.77-25.33c0 4.37.31 8.76-.6 13.09.24-4.36-.8-8.78.6-13.09zm1.58-49.87c.06 4.35.24 8.71-.58 13 .23-4.31-.77-8.71.58-13zm.79-25.33c0 4.36.27 8.73-.59 13.06.22-4.35-.8-8.76.59-13.06zm.8-25.33c0 4.37.29 8.75-.6 13.08.23-4.36-.81-8.77.6-13.08zm-4.76 151.19c0 4.36.26 8.72-.58 13 .2-4.3-.8-8.7.58-13zm2.37-75.24c0 4.12.32 8.24-.6 12.31.26-4.06-.83-8.22.6-12.31zm1.56-99c1.31-1.16 1.77-.58 1.69.87-.2 3.31.23 6.67-.68 9.94-.59-3.57 1.01-7.35-1.01-10.81zm73.71 84.77c-.23.44-.37 1.16-.69 1.25-1.12.32-.79-.67-.76-1.15.22-3.08-.27-6.21.68-9.24.48 3.03-.76 6.2.77 9.14zm-.58-20.58c-.06-3.83-.25-7.67.59-11.46-.18 3.82.78 7.7-.59 11.46zm.76-22.19c0-3.84-.28-7.69.59-11.49-.17 3.86.81 7.75-.59 11.49zm.82-22.14c0-3.85-.31-7.71.6-11.51-.22 3.84.78 7.74-.6 11.51zm-189.35 262.92l-11-.26c3.66-.92 7.35-1.32 11 .26zm190.15-285.87c-.07-3.83-.25-7.66.58-11.45-.2 3.82.8 7.69-.58 11.45zm.78-22.17c0-3.84-.27-7.69.6-11.48-.2 3.82.78 7.74-.6 11.48zm-70.14 299.12c3.42-1.66 7.14.43 10.59-.85-3.4 1.99-7.06.56-10.59.85zm391.96.02c3.38-1.69 7 .33 10.48-.79-3.38 1.83-6.99.5-10.48.79zm-17.13-.88c1.38.66 2.84.34 4.25.22 2.88-.23 3.65.72 2.05 3.24.09-1.75-.65-2.53-2.49-2.51-1.3-.01-2.9.63-3.81-.95zm-306.56 19.19v9.47a14.76 14.76 0 010-9.47zm2.66-339.61l-.24-9.46c1.57 3.12 1.18 6.28.24 9.46zm158.91 208.98a3.91 3.91 0 01-2.22 3.26 12.34 12.34 0 011.48-5.68c.06.86-.14 1.86.74 2.42zm-246.87 111.51c1.7 0 3.4.19 5.1.13 2.45-.09 2.32 1 1.27 2.56-.18-1.81-1.5-1.75-2.84-1.81-1.34-.06-2.63.49-3.53-.88zm-622.86 20.66c0-3-.34-6 .57-9-.15 3.03.76 6.09-.57 9zm-12.93-69.61c.05 2.74.27 5.5-.59 8.18.15-2.73-.8-5.54.59-8.18zm1080.69 21.34c.53-5-3.26-1.55-4.81-2.49a4.55 4.55 0 015-.15c.93.54.68 1.81-.19 2.64zM488.99 651.85c-.84-2.68-.62-5.44-.57-8.18 1.36 2.64.4 5.45.57 8.18zm-14.09-68.66c.86 2.68.62 5.44.57 8.19-1.35-2.65-.42-5.46-.57-8.19zm1092.99 29.96a10.58 10.58 0 010-7.73v7.73zm33.16-4.32v7.1a8.47 8.47 0 010-7.1z"></path><path fill="#FDFDFD" d="M1044.11 623.12a11 11 0 01-7.5 0h7.5z"></path><path fill="#FCFCFC" d="M994.87 561.98h-7.1a8.54 8.54 0 017.1 0z"></path><path fill="#FDFDFD" d="M1026.45 614.67a8.67 8.67 0 01.1-7.22c-.03 2.41-.06 4.81-.1 7.22z"></path><path fill="#FCFCFC" d="M1436.97 630.92c2.38-1 5.08.14 7.42-1.13-2.15 2.5-4.96.66-7.42 1.13z"></path><path fill="#E59A46" d="M489.05 669.83c.71-.34.74-1 .89-1.68 1.19 1.58.84 3.32.54 5.69l-1.43-4.01z"></path><path fill="#FCFCFC" d="M1511.79 631.12h6.31a6.74 6.74 0 01-6.31 0zm70.2-42.97a8.18 8.18 0 016.86 0h-6.86zm-1092.79 6.4c-.07-2.22-.25-4.45.58-6.58-.14 2.19.75 4.49-.58 6.58zm630.77 36.58h6.3a6.72 6.72 0 01-6.3 0zm251.08-28.66v-6.31a6.69 6.69 0 010 6.31zm-274.06-22.23l-5.86-.63c1.92.14 4.03-.75 5.86.63zM816.44 90.25c1.89-.8 3.88-.63 5.86-.56-1.85 1.27-3.9.44-5.86.56zm677.27 528.05v-5.51a5.46 5.46 0 010 5.51zM476.28 526.52a14.34 14.34 0 01-.59 5.78c.13-1.93-.7-3.97.59-5.78zm641.16-11.89c.44 1.79-.48 3.74.61 5.46-2.24-1.59-1.38-3.53-.61-5.46zm416.85 116.3l6-.78c-1.84 1.61-4 .55-6 .78zM872.05 388.78c.242 1.93.04 3.89-.59 5.73.15-1.91-.68-3.93.59-5.73zm763.56 242.15l6-.82c-1.83 1.69-4.01.57-6 .82zM833.43 89.68c1.93-.1 3.87-.34 5.69.6-1.9-.16-3.91.67-5.69-.6z"></path><path fill="#BDBEBE" d="M1307.62 316.77a3.14 3.14 0 011.53-2.39 4.62 4.62 0 01-.76 4l-.77-1.61z"></path><path fill="#FCFCFC" d="M1174.13 630.93l6-.79c-1.84 1.63-4.01.56-6 .79zm410.83-51.32a14.21 14.21 0 01-5.1.6c1.58-1.27 3.39-.5 5.1-.6zM475.7 597.46a10 10 0 01.56 5c-1.21-1.55-.47-3.33-.56-5zm1115.23-17.25l-5.14-.61c1.72.13 3.55-.67 5.14.61zM894.44 154.94c.84 1.6.65 3.33.59 5-1.25-1.52-.49-3.31-.59-5zM489.78 661.41c-.81-1.62-.66-3.36-.58-5.08 1.24 1.57.48 3.38.58 5.08zm999.03-81.18a13.39 13.39 0 01-5.18-.64c1.74.16 3.59-.68 5.18.64zm-6.71-.63a14.2 14.2 0 01-5.14.6c1.59-1.26 3.42-.48 5.14-.6zM996.39 176.06a10 10 0 01-.58-5c1.24 1.58.48 3.35.58 5zm360.23 404.17c-1.73 0-3.48.13-5.12-.62 1.71.12 3.55-.69 5.12.62zM872.84 379.29a10 10 0 01-.57 5c.1-1.68-.63-3.45.57-5zm355.55 200.91a12.91 12.91 0 01-5.09-.59c1.75.1 3.51-.66 5.09.59zm-751.34-62.39a10.1 10.1 0 01-.59 4.93c.12-1.68-.6-3.41.59-4.93zm685.58 52.99a4.26 4.26 0 015 0h-5zm-40.31 50.72c-1.25-1.65-.79-3.32-.06-5l.06 5zm381.43-4.78c-.21 1.73-.41 3.45-.62 5.17.15-1.72-.65-3.57.62-5.17zm-334.7 11.07c.62-.79 1.35-1.4 1.48.2.08 1-.16 2 .41 2.87-1.71-.37-.63-2.45-1.89-3.07zm-78.81-48.21l-5.11.59c1.59-1.24 3.4-.48 5.11-.59zm354.33-5.24c1.44 1.31 3.43.22 5 1.13-1.71-.26-3.75 1.05-5-1.13zm-954.59 9.9a9.77 9.77 0 01.6-5c-.11 1.68.64 3.46-.6 5zm497.24 38.09a6.18 6.18 0 01-4.2.58c1.27-1.12 2.78-.53 4.2-.58zm-6.6.57c-1.43.07-2.88.31-4.18-.57 1.41.05 2.91-.54 4.18.57zm67.29-42.72c-1.48 0-3 .12-4.39-.61 1.53.11 3.06-.53 4.39.61zm-557.13-4.65a7 7 0 01.59-4.17c-.06 1.41.55 2.91-.59 4.17zm637.95 47.51a3.84 3.84 0 01-4.28.06l4.28-.06zm391.87.05a3.73 3.73 0 01-4.25 0h4.25zm-64.35 1.55a4.2 4.2 0 00.64 3.16c-1.92-.7-1.57-1.87-.64-3.16zm-233.04-45.05a9.14 9.14 0 01-4.3.56c1.31-1.11 2.85-.51 4.3-.56zm101.05 33.61a9.66 9.66 0 01.57 4.29c-1.13-1.3-.52-2.84-.57-4.29zm-335.21-42.47a5.65 5.65 0 014.66 0h-4.66zm112.82 46.76v-3.93a3 3 0 010 3.93zm-624-108.45a7.77 7.77 0 01-.59 4.23c.06-1.39-.57-2.91.59-4.23zm393.4-111.57a7.08 7.08 0 01-.6 4.13c.08-1.39-.54-2.89.6-4.13zm267.78 214.86a10.33 10.33 0 01.63 4.37c-1.26-1.31-.56-2.9-.63-4.37zm-266.8-270.48a7.21 7.21 0 01.58 4.12c-1.1-1.24-.5-2.73-.58-4.12zm267.38 266.19a9.68 9.68 0 01-.61 4.36c.1-1.48-.58-3.07.61-4.36zM995.61 168.12a7.19 7.19 0 01-.6-4.14c1.15 1.24.53 2.74.6 4.14zM476.48 606.99a7.34 7.34 0 01.6 4.18c-1.16-1.25-.53-2.76-.6-4.18zm848.34-.53a9.64 9.64 0 01-.57 4.35c.08-1.46-.57-3.03.57-4.35zM607.14 772.71c-1.25.88-2.68.63-4.07.67 1.2-1.21 2.69-.55 4.07-.67zm-5.44.82a7.34 7.34 0 01-4.16.57c1.26-1.1 2.76-.5 4.16-.57z"></path><path fill="#FEFEFE" d="M944.91 39.2l-2.53-2.59c1.82-.09 2.67.79 2.53 2.59z"></path><path fill="#FCFCFC" d="M962.56 602.47c-.07-1.41-.3-2.84.6-4.11-.11 1.39.52 2.88-.6 4.11z"></path><path fill="#FEFEFE" d="M1413.84 588.2c4.62 0 4.63 0 3.58 4.54-1.77 7.69-3.56 15.37-5.31 23.05-1.1 4.83-5 7.71-11 8.1-5.61.36-9.54-2-11.16-6.8-3.76-11.09 4.61-25.7 16.06-27.91 2.57-.5 5.22-.66 7.83-.98zm-234.68.29c-2.207 9.613-4.413 19.193-6.62 28.74a5.35 5.35 0 01-1 2.1c-2.7 3.38-9.86 5-14.63 3.4-4.18-1.41-6.9-5.36-7.13-10.36-.504-12.43 8.873-23.05 21.27-24.09a27.52 27.52 0 018.11.21zm54 10.41a44.85 44.85 0 01-5 17.87 14.23 14.23 0 01-7 6.63c-7.57 3.16-14.24-.58-14.48-8.75a36.66 36.66 0 015.9-21.71 12.77 12.77 0 014.22-4.08c3.76-2.19 7.68-2.84 11.61-.68 4.05 2.27 4.69 6.29 4.75 10.72zm101.29 12.64a40.85 40.85 0 014-15.18c2.27-4.7 5.56-8.25 11-9.23 5.64-1 10.55 2.12 11.16 7.75a36.51 36.51 0 01-5.8 24 11.68 11.68 0 01-5 4.29c-8.57 3.97-15.67-.88-15.36-11.63zm-294.49-11.48h-10.29c-1.55 0-2.08-.24-1.59-2 2-7 9-12.05 16.13-11.48a9.33 9.33 0 018.45 12.15c-.44 1.59-1.45 1.25-2.41 1.26-3.43.14-6.86.07-10.29.07z"></path></g></svg>