<svg xmlns="http://www.w3.org/2000/svg" viewBox="75.47100067138672 69.62300109863281 449.136962890625 107.95599365234375"><g fill="none"><path fill="#003A57" d="M400.518 121.154h-17.696V175h-6.966v-53.846H358V115h45zm7.388 54.355v-43.6h6.754v43.6h-6.754zm3.377-52.71c-2.592 0-4.712-2.102-4.712-4.671 0-2.57 2.12-4.672 4.712-4.672 2.591 0 4.712 2.103 4.712 4.672 0 2.491-2.12 4.671-4.712 4.671zm28.507 13.703h.236c6.676 0 10.131 6.54 10.131 12.613h-10.366v5.684h17.748v-1.558c0-13.547-6.204-22.5-17.591-22.5h-.157v5.761zm0 39.707v-6.228c1.257.311 2.67.467 4.163.467 3.691 0 7.775-1.48 10.445-3.114l2.042 4.593c-3.142 2.57-8.717 4.438-13.822 4.438-1.021 0-1.964 0-2.827-.156zm-10.366-27.094c0-6.851 4.005-12.457 10.367-12.613v-5.683c-10.524.077-17.67 9.42-17.67 22.033 0 11.6 5.81 22.034 17.67 23.435v-6.228c-6.99-1.791-10.445-8.175-10.445-15.183h10.445v-5.683h-10.367v-.078zm46.885 27.25c-6.283 0-9.424-3.66-9.424-9.265v-29.508h-7.147v-5.683h7.147v-9.577l6.754-2.336v11.913h13.508l-2.435 5.683h-11.073v27.484c0 3.659 1.413 5.294 4.32 5.294 3.14 0 6.046-1.713 7.774-3.114l2.12 4.749c-3.22 2.414-7.46 4.36-11.544 4.36m30.55-57.848l.706-1.012 6.283 9.031h6.833l-9.817-13.547h-6.44l-9.66 13.547h6.754zm0 17.985h.235c6.676 0 10.131 6.54 10.131 12.613H506.86v5.684h17.748v-1.558c0-13.547-6.204-22.5-17.591-22.5h-.157v5.761zm0 39.707v-6.228c1.256.311 2.67.467 4.162.467 3.691 0 7.775-1.48 10.445-3.114l2.042 4.593c-3.142 2.57-8.717 4.438-13.822 4.438-1.021 0-1.885 0-2.827-.156zm-10.367-27.094c0-6.851 4.005-12.457 10.367-12.613v-5.683c-10.524.077-17.67 9.42-17.67 22.033 0 11.6 5.811 22.034 17.67 23.435v-6.228c-6.99-1.791-10.445-8.175-10.445-15.183h10.445v-5.683h-10.367v-.078zM224.136 130.04l.079-.467h.078c.471 2.024 1.257 4.516 2.356 7.552l4.948 13.936h-7.46v9.11h10.994l6.047 15.26h12.094l-24.738-61.196h-4.398v15.805zm0 21.021h-7.46l5.34-14.17c.942-2.647 1.727-4.905 2.12-6.929v-15.727h-3.848l-23.874 61.196h11.073l5.654-15.26h10.917v-9.11h.078zm33.299 24.448v-60.963h34.24l-3.062 9.343h-19.87v15.805h19.87v9.343h-19.87v17.129h22.932v9.343zm58.272.934c-8.639 0-14.843-2.803-18.927-5.528l4.555-8.253c3.377 2.336 8.09 4.672 13.9 4.672 4.713 0 10.131-1.947 10.131-7.008 0-8.72-14.921-10.277-22.382-18.607-2.434-2.725-4.005-6.229-4.005-10.9 0-9.11 7.147-16.74 20.026-16.74 6.519 0 11.78 1.557 15.079 3.426l-.157 9.966c-4.79-2.57-9.346-4.205-14.372-4.205-4.948 0-8.874 2.103-8.874 6.151 0 11.29 26.544 10.667 26.544 29.586.157 10.666-9.424 17.44-21.518 17.44"></path><path fill="#93C01F" d="M84.346 154.954c-5.655-8.642-8.875-18.919-8.875-29.975 0-30.52 24.974-55.356 55.838-55.356 11.859 0 16.963 3.27 18.691 4.671 3.063 2.57 5.105 6.073 4.87 9.732-.943 14.326-21.755 11.368-42.33 16.195-30.158 7.007-39.503 32.855-28.194 54.733"></path><path fill="#5A7410" d="M154.555 81.146c1.178 4.282.628 7.474-.864 10.433-10.76 21.021-51.99 6.306-61.885 40.563-4.005 15.96 4.32 34.958 21.362 44.223 1.57.856 1.413 1.401-.315.779-11.78-4.049-21.754-11.99-28.429-22.268C73.115 133 82.461 107.15 112.54 100.221c20.576-4.75 41.388-1.869 42.33-16.195 0-.934-.078-1.946-.314-2.88"></path><path fill="#0074AA" d="M151.57 73.36c15.629 6.073 27.802 18.841 32.906 34.802 0 0 3.692 13.392-4.869 25.148-15.47 21.177-42.958 13.547-45.628-1.09-4.398-23.669 28.272-21.255 25.76-44.534-.786-5.684-4.32-10.589-8.64-13.625-1.806-1.09-1.413-1.402.472-.701"></path><path fill="#003A57" d="M149.293 177.3c-1.649.544-1.963.31-.392-.857 2.905-2.18 5.34-5.684 4.712-10.51-1.807-13.548-21.44-11.602-24.503-28.03-1.492-7.863 1.728-17.128 13.9-25.77-6.047 4.593-10.837 9.966-8.952 20.087 2.748 14.637 30.157 22.267 45.628 1.09 8.56-11.679 4.869-25.148 4.869-25.148 1.728 5.294 2.592 10.9 2.592 16.74-.079 24.29-15.864 45-37.854 52.397"></path></g></svg>