<svg xmlns="http://www.w3.org/2000/svg" viewBox="0 -0.010834106244146824 624.9000244140625 169.3108367919922"><path fill="#f58220" d="M0 169.3h560.7s64.2 0 64.2-57.2V0H63S0-2.2 0 56.1v113.2z"></path><path fill="#0058a9" d="M387.5 84.7c0-25.8 22.9-46.7 51.1-46.7 28.2 0 51.1 20.9 51.1 46.7 0 25.8-22.9 46.7-51.1 46.7-28.2 0-51.1-20.9-51.1-46.7"></path><path fill="#0058a9" d="M486.8 84.7c0-25.8 22.9-46.7 51.1-46.7 28.2 0 51.1 20.9 51.1 46.7 0 25.8-22.9 46.7-51.1 46.7-28.2 0-51.1-20.9-51.1-46.7"></path><path fill="#fff" d="M404.7 92.4v3.1c0 11.6 6.9 12.9 17.6 13.5 3.8.2 7.6.2 11.4.2 7.3 0 14.5-.2 21.8-.5 12.9-.9 18.9-3.2 18.9-15.8 0-13.2-7.6-15.5-20.6-15.5-3.8 0-7.5-.1-11.2-.1l-11.4-.2c-3.9-.2-9.7.4-9.7-4.6 0-3.1 3.2-3.7 6.2-3.8 4.4-.2 8.6-.4 13-.4 2.7 0 5.4 0 8.2.1 3.8.2 6.3 1 6.5 4.8h16.7c-.1-3.2 0-6.7-1.8-9.7-4-6-11.7-6.1-18.6-6.2l-11.9-.2c-6.5 0-19.1.1-25.1 1.5-8.9 2.1-10.4 7.3-10.4 14.8 0 9.6 3.4 14.1 14.3 14.8 9.3.5 18.7.5 28 .5h2.8c3.7 0 7.9.4 7.9 4.5 0 4.4-3.8 4.3-7.5 4.4-3.9.2-7.6.3-11.4.3-2.7 0-5.4-.1-8-.1-3.9-.2-8.7-.1-8.7-4.7 0-.3 0-.5-.1-.8h-16.9zm146-3.5h-24l12-20.2 12 20.2zm6.3 10.6l5.3 9.3H581l-30.5-51h-23l-31.2 51h18.9l5.5-9.3H557zM27.6 71.2h23.2v37h16.5v-37h23.2V59H27.6zm64.9 37h59.9V96.3H109v-7.8h40.2V78.3H109v-7.9h42.5V59h-59zm64.7 0h16.5V89.3h7.3l23.8 18.9h23.4L195.6 83l29.1-24h-22.4l-20.9 18h-7.7V59h-16.5zm71.9 0h16.5V72.4h.2l31 35.8h25.6V59h-16.5v35.7h-.2l-31-35.7h-25.6zm95-27.3c0-6.1 1.6-9.8 10.3-9.8h19.3c8.7 0 10.3 3.7 10.3 9.8v5.3c0 7.1-1.6 9.8-9.5 9.8h-21.1c-7.8 0-9.4-2.7-9.4-9.8v-5.3zm-16.9 10c0 14.4 8.9 17.8 23.7 17.8h26.5c14.9 0 23.7-3.4 23.7-17.8V76.2c0-14.4-8.9-17.8-23.7-17.8h-26.5c-14.9 0-23.7 3.4-23.7 17.8v14.7z"></path></svg>