<svg xmlns="http://www.w3.org/2000/svg" viewBox="96 67 409 119"><defs><radialGradient id="fn64e29e2acdma" cx="76.499%" cy="43.155%" r="74.575%" fx="76.499%" fy="43.155%"><stop offset="16.79%" stop-color="#231161" stop-opacity="0"></stop><stop offset="100%" stop-color="#231161"></stop></radialGradient></defs><g fill="none"><path fill="#00ACC8" d="M286.239 104.932h-14.201v49.363c0 .924-.806 1.705-1.757 1.705h-11.493c-.952 0-1.757-.781-1.757-1.705v-49.363h-14.274c-.952 0-1.757-.71-1.757-1.633v-8.665c0-.924.805-1.634 1.757-1.634h43.409c.951 0 1.83.71 1.83 1.634v8.736c.073.923-.805 1.562-1.757 1.562zM318 160c-14.469 0-26-7.804-26-28.273v-10.454C292 100.878 303.531 93 318 93s26 7.804 26 28.273v10.454C343.927 152.122 332.469 160 318 160zm10.87-38.727c0-10.529-3.525-15.02-10.87-15.02-7.345 0-10.797 4.491-10.797 15.02v10.454c0 10.529 3.452 15.02 10.797 15.02 7.345 0 10.87-4.491 10.87-15.02v-10.454zm64.369-16.341h-14.201v49.363c0 .924-.806 1.705-1.757 1.705h-11.493c-.952 0-1.757-.781-1.757-1.705v-49.363h-14.274c-.952 0-1.757-.71-1.757-1.633v-8.665c0-.924.805-1.634 1.757-1.634h43.409c.951 0 1.83.71 1.83 1.634v8.736c.073.923-.805 1.562-1.757 1.562zm62.688-10.097l-12.984 54.4c-1.97 8.444-8.389 9.765-14.37 9.765s-12.474-1.321-14.443-9.764l-13.057-54.4c0-.147-.073-.294-.073-.441 0-.808.73-1.395 1.605-1.395h12.109c.875 0 1.531.734 1.75 1.615l10.869 50.656c.146.955.438 1.322 1.24 1.322s1.021-.367 1.24-1.322l10.869-50.656c.146-.88.802-1.615 1.677-1.615h12.182c.875 0 1.459.514 1.459 1.395 0 .073-.073.294-.073.44zM481.14 160c-6.86 0-12.04-.81-16.492-1.914-.875-.295-1.75-.81-1.75-1.767v-8.615c0-1.251.729-1.693 1.604-1.693h.292c3.576.368 13.135 1.03 16.564 1.03 5.984 0 7.735-1.914 7.735-6.184 0-2.577-1.24-3.976-5.765-6.7l-12.04-7.215C463.19 122.082 461 116.56 461 110.155 461 100.51 466.4 93 483.328 93c6.349 0 15.178 1.03 18.461 1.914.657.148 1.314.59 1.314 1.62v8.909c0 .81-.365 1.472-1.46 1.472h-.145c-2.408-.147-12.551-.957-18.462-.957-4.961 0-6.786 1.473-6.786 4.639 0 2.43 1.168 3.607 5.838 6.184l11.164 6.038c9.048 4.933 11.748 10.75 11.748 17.89-.073 9.351-6.202 19.291-23.86 19.291zM215 126.5c0 32.835-26.591 59.5-59.5 59.5-32.835 0-59.5-26.591-59.5-59.5C96 93.665 122.591 67 155.5 67c32.835 0 59.5 26.665 59.5 59.5z"></path><path fill="url(#fn64e29e2acdma)" d="M119 59.5c0 32.835-26.591 59.5-59.5 59.5C26.665 119 0 92.409 0 59.5 0 26.665 26.591 0 59.5 0 92.335 0 119 26.665 119 59.5z" transform="translate(96 67)"></path><path fill="#FFF" d="M195.78 100.638c-3.847-3.247-53.787-15.869-57.56-14.54-1.332 1.254-2.072 10.776-2.22 21.035 15.537 3.617 34.181 8.931 36.475 10.85 1.628 2.289 2.293 15.28 2.22 27.237 10.505 2.435 19.606 4.207 21.085 3.69 2.96-2.731 2.96-44.065 0-48.272zm-61.255 33.317c-1.554-2.287-2.293-15.273-2.22-27.225-10.505-2.435-19.606-4.206-21.085-3.616-2.96 2.73-2.96 44.048 0 48.253 3.847 3.247 53.787 15.864 57.56 14.535 1.332-1.254 2.072-10.772 2.22-21.027-15.537-3.69-34.255-9.002-36.475-10.92z" opacity=".5"></path><path fill="#FFF" d="M172.76 117.54c-2.311-1.864-21.091-7.026-36.741-10.54-.15 11.616.596 24.236 2.235 26.46 2.31 1.864 21.09 7.026 36.74 10.54.075-11.688-.67-24.308-2.235-26.46z"></path></g></svg>