<svg xmlns="http://www.w3.org/2000/svg" viewBox="0.17000001668930054 0.04000000283122063 1198.1600341796875 353.19000244140625"><g fill="none"><path fill="#952B28" d="M346.07 353.23H.17V.04h345.9v353.19zM113.36 237.35c-10.88 10.89-22.29 22.3-33.7 33.72 52.29 56.9 145.47 50.86 185.74.38-10.41-12.03-20.64-23.87-30.17-34.88-12.37 7.1-23.01 13.19-36.2 20.76V94.58c13.85 8.43 24.47 14.89 33.93 20.64 11.76-11.04 23.15-21.73 34.46-32.35-45.77-55.36-145.23-54.95-187.48-.67 10.88 11.45 21.69 22.82 32.2 33.88 11.38-6.75 21.98-13.04 34.67-20.57V257c-12.79-7.51-23.04-13.53-33.45-19.65zm159.26 26.47c44.18-47.53 43.51-134.49 1.65-171.94-9.55 9.02-19.63 17.7-28.5 27.48-2.4 2.65-3.06 9.65-1.29 12.89 16 29.39 15.79 58.33.27 87.8-1.71 3.25-1.04 9.78 1.22 12.74 8 10.52 17.16 20.16 26.65 31.03zm-200.46-2.58c12.06-11.52 23.38-22.35 34.94-33.4-20.47-32.84-22.84-65.1-2.99-97.97 1.31-2.17.74-7.36-1-9.18-9.79-10.24-20.21-19.88-30.36-29.67-40.59 39.93-43.48 124.94-.59 170.22z"></path><path fill="#000" d="M1127.09 253.48c-16.35-4.05-31.02-6.2-44.52-11.41-18.17-7-28.04-21.39-28.07-41.47-.03-21.01 7.23-38.35 27.4-47.19 29.98-13.14 60.43-12.27 90.27.53 18.56 7.96 26.18 24.28 26.16 43.24-.02 18.09-5.93 35.18-24.28 42.58-15.26 6.15-31.69 9.38-46.96 13.72zm25.52-54.9c.47-17.15-10.12-30.69-24.39-31.17-17.35-.59-28.02 10.92-28.11 30.32-.08 17.13 10.65 30.65 24.76 31.23 14.91.6 27.26-12.93 27.74-30.38zM700.5 149.52h42.35c0 17.51.12 34.26-.04 51.01-.12 12.56 3.42 22.91 17.44 24.56 12.19 1.43 19.9-8.82 19.99-24.88.09-16.33.02-32.66.02-50.23h41.82v95.27c-24.68 6.35-39.75 3.5-44.41-8.97-13.44 11.95-28.26 16.67-46.41 12.75-18.83-4.07-29-15.65-30.36-33.3-1.67-21.74-.4-43.71-.4-66.21zm-263.6-43.09c3.23-.37 6.15-.99 9.08-.99 46.57-.06 93.14-.04 140.86-.04v26.67h-51.97v114.47h-45.35V132.85H436.9v-26.42zm398.72 41.35c14.6 5.22 31.45-7.87 43.32 10.9 16.07-12.08 35.05-17.24 56.03-9.7 12.29 4.42 19.94 13.74 20.49 26.3 1.03 23.46.3 47 .3 71.44h-40.64c0-13.82.1-27-.05-40.19-.07-6.13-.11-12.34-1.09-18.36-1.6-9.8-5.93-17.88-17.43-17.94-11.35-.06-16.54 7.54-17.75 17.52-1.54 12.65-2 25.45-2.64 38.2-.33 6.57-.06 13.17-.06 20.73h-40.48v-98.9zm221.43 23.89c-8.96.54-17.52 1.05-28.98 1.74v73.42h-42.44v-73.08c-9.62-.81-17.6-1.48-26.17-2.2v-22.1c8.22-.45 15.74-.87 24.92-1.38 1.79-16.71.52-37.4 22.55-41.14 16.04-2.73 32.92-.53 50.28-.53v18.93c-10.61 5.38-32.72-4.4-27.87 22.69 8.92.42 17.81.84 27.71 1.3v22.35z"></path><path fill="#000" d="M598.61 247.15h-41.56v-96.14c25.03-6.19 39.56-3.49 42.99 5.95 11.96-5.18 24.04-10.42 38.38-16.64v36.21c-4.61.4-8.56.8-12.51 1.09-18.06 1.33-26.84 10.2-27.24 28.2-.29 13.25-.06 26.51-.06 41.33zm49.11-97.73h40.27v97.3h-40.27v-97.3zm.08-20.61v-22.46h40.43v22.46H647.8z"></path><path fill="#FFF" d="M113.36 237.35c10.41 6.11 20.67 12.14 33.45 19.64V95.5c-12.69 7.53-23.29 13.82-34.67 20.57-10.51-11.06-21.31-22.42-32.2-33.88 42.25-54.28 141.7-54.69 187.48.67-11.31 10.62-22.7 21.31-34.46 32.35-9.46-5.75-20.08-12.22-33.93-20.64v162.75c13.19-7.56 23.83-13.66 36.2-20.76 9.53 11.01 19.76 22.85 30.17 34.88-40.27 50.49-133.45 56.53-185.74-.38 11.4-11.41 22.81-22.82 33.7-33.71z"></path><path fill="#FFF" d="M272.62 263.82c-9.49-10.86-18.65-20.51-26.65-31.04-2.25-2.96-2.93-9.49-1.22-12.74 15.52-29.47 15.74-58.41-.27-87.8-1.77-3.24-1.11-10.24 1.29-12.89 8.87-9.78 18.95-18.45 28.5-27.48 41.86 37.46 42.52 124.41-1.65 171.95zm-200.46-2.58c-42.89-45.29-40-130.3.59-170.22 10.14 9.78 20.56 19.43 30.36 29.67 1.74 1.82 2.31 7.01 1 9.18-19.85 32.87-17.47 65.13 2.99 97.97-11.56 11.05-22.88 21.88-34.94 33.4zm1080.45-62.66c-.48 17.46-12.84 30.99-27.73 30.38-14.12-.58-24.84-14.1-24.76-31.23.09-19.4 10.76-30.91 28.11-30.32 14.26.48 24.86 14.02 24.38 31.17z"></path></g></svg>