<svg xmlns="http://www.w3.org/2000/svg" viewBox="0.699999988079071 0.800000011920929 749.1000366210938 123.69999694824219"><g fill="none"><path fill="#000" d="M214.6 30.9v91.9H182V30.9h-32.6V2.5h97.9v28.3h-32.7zm49.7-28.4h55.5c13.4 0 24.3 3.7 32.6 11.1 8.3 7.4 12.5 17.2 12.5 29.3 0 8.4-2 15.7-6.1 22-4.1 6.3-9.7 11.2-16.9 14.6l28.2 43.3h-37.8l-23.5-38.7h-11.7v38.7h-32.6V2.5h-.2zM296.9 30v29.2h18.9c5.2 0 9.2-1.3 12-4 2.9-2.6 4.3-6.2 4.3-10.7 0-4.5-1.4-8-4.3-10.7-2.9-2.6-6.9-4-12-4h-18.9v.2zm87.2-27.5h33.5v120.3h-33.5zm91.8 38.6c2.5 2 7.6 4.7 15.3 8 22.2 9.6 33.3 22.3 33.3 38 0 10.7-4.2 19.6-12.6 26.7-8.4 7.2-19.3 10.7-32.6 10.7-5.7 0-11.3-.7-16.8-2-5.4-1.3-9.9-2.9-13.5-4.7-3.6-1.8-6.7-3.7-9.4-5.5-2.7-1.8-4.8-3.4-6-4.6l-1.9-2.1L450.6 85c1 1 2.4 2.3 4.2 3.7 1.8 1.4 5.3 3.4 10.6 5.8 5.3 2.5 10.4 3.7 15.3 3.7 3 0 5.4-.7 7.4-2.1 1.9-1.4 2.9-3.2 2.9-5.4 0-2.9-1.7-5.6-5.2-8.2-3.4-2.6-10.1-6.1-19.9-10.3-18.2-7.9-27.3-19.8-27.3-35.6 0-10.4 4-19 12-25.7C458.6 4.2 469.1.8 482 .8c7.9 0 15.4 1.4 22.5 4.1 7.1 2.7 12.2 5.5 15.3 8.2l4.6 4-18.9 20.6c-.7-.8-1.7-1.8-3.1-3-1.4-1.2-4.1-2.8-8.1-4.7-4-1.9-8-2.9-12-2.9-3.2 0-5.7.7-7.6 2-1.8 1.3-2.7 2.9-2.7 4.9.1 2.7 1.4 5.1 3.9 7.1zM645.2 2.5v69.9c0 15.7-5 28.3-14.9 37.8-9.9 9.5-22.9 14.3-38.9 14.3s-28.8-4.6-38.4-13.7c-9.6-9.2-14.3-21.6-14.3-37.3v-71h33.2v69.6c0 6.9 1.9 12.3 5.6 16.3 3.7 4 8.7 6 15 6 6.3 0 11.3-2 15-6 3.7-4 5.6-9.4 5.6-16.3V2.5h32.1zm17 120.3V2.5h32.6v91.1h55v29.2h-87.6z"></path><path fill="#F9C646" d="M121 2.5H.7v28.4h91.9zM.7 76.8h46L75 48.5H.7zm0 46l28.4-28.4H.7z"></path><path fill="#C69214" d="M92.6 30.9v91.9H121V2.5zM46.7 76.8v46H75V48.5zm-17.6 46V94.4L.7 122.8z"></path></g></svg>