<svg xmlns="http://www.w3.org/2000/svg" viewBox="135 18 329 211.82398986816406"><g fill="none" fill-rule="evenodd"><path fill="#4AC7EB" d="M439 97h25v25h-25z"></path><path fill="#003E69" fill-rule="nonzero" d="M402.22 94.868h-47.972c-9.594 0-19.722 3.546-27.273 10.106-9.061 7.534-14.125 17.64-14.125 26.238 0 21.63 21.676 36.788 41.398 36.788h39.354c9.595 0 19.722-2.482 27.273-9.042 9.061-6.028 14.125-17.64 14.125-27.746V83.344c0-10.105-6.574-21.186-12.615-27.745-7.55-6.028-15.19-8.599-25.23-8.599H218.95c-10.127 0-20.166 3.546-27.805 10.105-8.618 7.535-13.592 16.134-13.592 26.24 0 21.629 21.231 36.787 41.397 36.787h47.972c7.107 0 14.658 5.053 14.658 11.08 0 6.56-6.041 12.588-14.658 12.588h-91.946c-7.55 0-15.19-5.053-15.19-12.588V48.064H135v83.148c0 21.63 16.168 36.788 37.4 36.788h94.433c18.656 0 39.887-15.158 39.887-36.788 0-8.598-3.553-18.615-12.614-26.238-7.551-6.56-17.679-10.106-27.273-10.106h-47.972c-10.127 0-15.19-5.053-15.19-11.612 0-6.028 6.573-11.08 15.19-11.08h174.741c3.554 0 7.107.974 11.105 3.545 2.487 2.482 3.553 5.053 3.553 7.535v47.868c0 6.56-6.04 12.587-14.658 12.587h-39.354c-9.594 0-16.168-6.027-16.168-12.587 0-6.028 7.55-11.08 16.168-11.08h47.971"></path><path fill="#4AC7EB" d="M135 18h24v22h-24z"></path><path fill="#003E69" fill-rule="nonzero" d="M241.206 224.89v.97l-1.505 1.497h-.974c0 .97-1.505.97-1.505.97-.974 0-2.479 1.497-3.541 1.497h-3.984c-2.48 0-3.542 0-6.02-1.498-.974 0-3.542-.969-5.047-3.524-.974-1.497-2.479-2.466-2.479-5.021-.974-2.467-.974-5.021-.974-7.488 0-3.524 0-5.99.974-8.545 1.505-1.498 1.505-3.965 3.984-5.022.974-2.466 2.479-3.964 5.047-3.964.973-.97 3.54-.97 6.02-.97h4.958c.974.97 2.479.97 2.479.97l.974 1.498 1.505.969v2.467c0 1.497-1.505 1.497-1.505 1.497l-.974-1.498s-1.505 0-1.505-.969c-.974 0-2.48 0-2.48-1.497h-3.54c-2.48 0-3.985 0-5.047 1.497-.974 0-2.48.97-3.542 2.467 0 .969-1.505 2.467-1.505 5.021-.974.97-.974 3.524-.974 5.99 0 1.498 0 3.965.974 5.022 0 2.467 1.505 3.524 1.505 5.022.974.969 2.48 2.466 3.542 2.466.974.97 2.479.97 5.046.97.974 0 2.48 0 3.542-.97 1.505 0 1.505 0 2.479-1.497 1.505 0 1.505 0 1.505-.97h2.479v.97s.088.176.088 1.673m28.686-28.542v.969h-11.067v32.507h-3.984v-32.508h-11.067v-3.435h26.206v.969s-.088 0-.088 1.498m25.144 31.009v2.467h-17.619c-1.505 0-1.505 0-1.505-1.498 0 0-.974 0-.974-.969v-31.01c0-1.497.974-1.497.974-2.466h19.124v3.436h-15.051v11.54h12.572v.97h.974v2.466h-13.546v13.478h15.14l-.09 1.586m28.686 0v.97h-1.505v1.497h-17.087s-1.505 0-1.505-1.498v-34.445h18.592v3.436h-14.608v11.54h12.04c1.506 0 1.506 0 1.506.97v2.466h-13.546v13.478h16.113v1.586m29.748-23.521c0 2.466-.974 3.524-.974 5.021-.974 2.467-.974 2.467-2.48 3.524-.973 1.498-2.478 2.467-3.54 2.467-2.48 1.497-3.985 1.497-6.552 1.497h-3.541v13.479h-4.958v-36.031h13.457c1.505.969 2.479.969 3.984.969.974 1.498.974 1.498 2.479 2.467 0 1.497.974 2.466.974 2.466.088 1.674 1.15 2.643 1.15 4.14m-4.514.97c0-.97-1.506-2.467-1.506-3.524-.973-1.498-.973-2.467-2.479-2.467 0 0-.973-1.497-2.479-1.497h-6.019v15.064h3.54c1.506 0 2.48 0 3.985-.97.973 0 .973 0 2.479-1.497 0 0 .973-.969.973-2.466-.088-1.146 1.506-1.146 1.506-2.643"></path></g></svg>