<svg xmlns="http://www.w3.org/2000/svg" xmlns:xlink="http://www.w3.org/1999/xlink" viewBox="186.00009155273438 19 219.10791015625 216.00003051757812"><defs><path id="fnfa128b5abdma" d="M.185.866h56.922v53.958H.185z"></path></defs><g fill="none" fill-rule="evenodd"><path stroke="#004993" stroke-linejoin="round" stroke-width="3.709" d="M199.485 19H385.6c13.995 0 15.808 14.374 11.002 20.516l-82.064 104.908c-10.89 10.977-27.214 11.883-39.002 0L188.483 39.516C183.486 33.53 185.49 19 199.485 19z"></path><path fill="#004993" d="M235 180v14.626h-1.412c-.848-3.386-1.776-5.804-2.798-7.272-1.023-1.482-2.435-2.649-4.226-3.52-.994-.487-2.744-.72-5.233-.72h-3.981v41.643c0 2.759.148 4.485.444 5.18.31.692.902 1.291 1.774 1.806.89.53 2.086.788 3.607.788h1.776V234h-27.983v-1.469h1.776c1.546 0 2.799-.286 3.74-.84.687-.368 1.225-1.007 1.613-1.918.299-.626.445-2.299.445-5.016v-41.644h-3.873c-3.594 0-6.216.762-7.846 2.31-2.286 2.147-3.724 5.22-4.33 9.203H187V180h48zm6 0h28.077v1.477h-1.398c-2.108 0-3.561.212-4.355.648-.795.432-1.356 1.04-1.684 1.799-.329.77-.508 2.69-.508 5.746v26.304c0 4.813.37 7.991 1.109 9.56.741 1.555 1.946 2.84 3.63 3.882 1.686 1.027 3.807 1.542 6.383 1.542 2.944 0 5.449-.65 7.518-1.963 2.082-1.31 3.63-3.11 4.657-5.409 1.028-2.298 1.547-6.3 1.547-12.01V189.67c0-2.408-.26-4.125-.768-5.15-.506-1.03-1.15-1.747-1.917-2.139-1.205-.609-2.902-.904-5.107-.904V180H297v1.477h-1.123c-1.52 0-2.793.295-3.805.904-1.016.607-1.754 1.514-2.207 2.732-.342.852-.52 2.366-.52 4.557v20.406c0 6.316-.423 10.873-1.26 13.673-.85 2.8-2.901 5.369-6.163 7.722-3.259 2.353-7.725 3.529-13.367 3.529-4.697 0-8.34-.622-10.915-1.864-3.493-1.694-5.97-3.856-7.422-6.494-1.44-2.65-2.165-6.193-2.165-10.668V189.67c0-3.083-.164-5.004-.521-5.762-.34-.758-.943-1.351-1.806-1.796-.85-.46-2.425-.664-4.726-.635V180zm78.833 29.55v14.978c0 2.922.176 4.756.541 5.504.35.76.985 1.372 1.89 1.821.725.355 1.918.573 3.588.65V234H300v-1.469c2.486 0 4.162-.229 5.053-.706.878-.463 1.501-1.06 1.867-1.808.35-.746.525-2.567.525-5.489V189.49c0-2.922-.175-4.758-.525-5.52-.366-.762-.99-1.359-1.893-1.806-.893-.464-2.565-.68-5.027-.68V180h23.398c.845 0 1.661.018 2.454.053v3.705c-1.268-.429-2.732-.645-4.4-.645h-1.619v23.339c.878.053 1.526.079 1.985.079 1.508 0 2.852-.211 4.034-.634v3.523c-1.769.086-3.775.13-6.019.13zm6.019-29.497c6.431.268 11.14 1.638 14.123 4.093 3.349 2.76 5.025 6.211 5.025 10.357 0 3.507-1.079 6.497-3.241 8.998-2.162 2.488-5.147 4.186-8.944 5.095-1.613.405-3.935.678-6.963.824v-3.523a8.287 8.287 0 003.398-2.261c1.742-1.916 2.62-4.906 2.62-8.942 0-4.009-.878-6.933-2.62-8.793-.904-.967-2.037-1.68-3.398-2.143v-3.705zm0 52.45c.44.02.916.028 1.424.028V234h-1.424v-1.497z"></path><g transform="translate(348 179)"><mask id="fnfa128b5abdmb" fill="#fff"><use xlink:href="#fnfa128b5abdma"></use></mask><path fill="#004993" d="M57.108.866V2.35c-1.771.229-3.137.746-4.08 1.547-1.326 1.113-3.406 4.156-6.257 9.114L35.14 32.538v13.05c0 2.785.133 4.523.431 5.2.282.667.865 1.266 1.714 1.78.867.53 2 .788 3.434.788h2.998v1.468H13.601v-1.468h2.81c1.583 0 2.84-.286 3.758-.84.69-.368 1.23-1.006 1.62-1.916.298-.625.446-2.297.446-5.012V34.764L9.602 11.649C7.09 7.088 5.334 4.41 4.292 3.597 3.267 2.783 1.9 2.376.186 2.349V.866H25.91V2.35h-1.147c-1.554 0-2.648.214-3.27.678-.623.449-.919.922-.919 1.425 0 .953 1.053 3.353 3.16 7.197l9.703 17.872 9.66-16.282c2.391-3.98 3.593-6.613 3.593-7.918 0-.706-.337-1.302-1.027-1.777-.89-.667-2.554-1.06-4.944-1.195V.866h16.389z" mask="url(#fnfa128b5abdmb)"></path></g><path fill="#004993" d="M245 43h96v13.907h-41.048V120h-13.907V56.907H245z"></path></g></svg>