<svg xmlns="http://www.w3.org/2000/svg" viewBox="0 0.030000001192092896 1168.6099853515625 94.71000671386719"><g fill="none"><path fill="#000" d="M1168.61 30.67c-4.78 13.32-9.25 26.77-14.54 39.89-1.42 3.52-5.35 6.04-8.12 9.02-2.47-2.82-5.92-5.25-7.22-8.53-4.98-12.59-9.27-25.45-14.81-40.99-5.46 14.84-9.59 27.25-14.7 39.24-1.7 3.98-5.93 6.89-9.01 10.29-2.58-3.3-6.24-6.21-7.55-9.95-5.68-16.23-10.67-32.7-13.78-50.12 15.44 10.83 13.05 30.75 22.69 47.14 6.7-17.1 13.03-33.25 19.36-49.41 1.91-.02 3.82-.03 5.73-.05 6.19 16.07 12.38 32.14 19.69 51.1 4.7-14.52 8.16-26.85 12.82-38.71 1.68-4.28 6.21-7.44 9.44-11.1v12.18zM0 18.46c13.67-.06 27.34-.09 41-.18 10.06-.07 21.49.9 22.81 12.44.92 7.99-4.87 16.75-7.66 25.17-1.68-.15-3.35-.31-5.03-.46l17.97 21.81c-.72 1.08-1.43 2.17-2.15 3.25-4.19-2.58-9.99-4.17-12.29-7.91C44.43 55.9 30.15 51.5 12.23 56.46 3.41 61.56 20.15 80.04 0 79.49V18.46zm10.26 28.96c12.78 0 24.43.93 35.76-.52 3.8-.49 9.56-7.12 9.43-10.78-.13-3.6-6.26-9.5-10.3-9.98-11.32-1.37-22.92-.48-34.9-.48.01 7.89.01 13.86.01 21.76zM709.61.03c-14.31 15.73-28.63 31.47-43.89 48.25 8.11 9.5 16.4 19.2 24.69 28.91-.67.68-1.34 1.36-2 2.04-9.51-7.82-19.03-15.63-30.67-25.2-13.77 13.55-27.58 27.13-41.39 40.71h-6.1c13.54-15.07 27.08-30.13 41.58-46.28-8.06-9.36-16.13-18.72-24.19-28.08.7-.8 1.39-1.61 2.09-2.41l28.98 24.04c12.84-11.51 25.5-23.12 38.5-34.35 3.61-3.13 8.23-5.12 12.4-7.63zM265.16 28.75v50.66c-1.55-.09-3.1-.17-4.64-.26V19.23c1.07-1.15 2.15-2.3 3.22-3.45 16.18 16.4 32.37 32.81 51.74 52.44V15.15c8.53 10.85 9.77 29.7 6.28 68-22.06-15.05-35.2-36.11-56.6-54.4zm-73.17 49.37h-56.74V19.51h54.89c.14 1.47.29 2.94.43 4.41h-46.41c-.47 7.97-.75 12.81-1.21 20.61h46.04l.18 5.76h-45.22v22.55h48.13l-.09 5.28zm256.85 4.19c-22.57-25.21-45.06-26.57-67.48.29-.45-1.61-.9-3.22-1.35-4.82 9.35-18.19 18.51-36.48 28.15-54.52 3.91-7.32 9.74-7.65 13.71-.33 9.78 18.03 18.83 36.46 28.17 54.72-.4 1.55-.8 3.1-1.2 4.66zm-48.49-25.56h28.81c-4.67-9.76-8.81-18.42-14.17-29.63-5.65 11.43-9.79 19.8-14.64 29.63zm160.68-38.84c8.82 10.71 7.85 46.97-.78 55.33-10.2 9.88-36.9 10.47-48.49 1.07-9.67-7.84-11.83-43.64.79-55.87 0 9.92-.03 19.83.01 29.75.08 20.43 9.46 28.31 29.46 24.86 10.38-1.79 16.26-7.07 15.99-18.4-.27-11.12.22-22.25.51-33.38.01-.76 1.08-1.5 2.51-3.36zm456.42 32.85h-44.61V72.3h48.3l.15 4.98h-57.21V19.64h54.47c.13 1.62.27 3.23.4 4.85l-46.56 2.07v18.31h45.87c-.26 1.96-.53 3.93-.81 5.89zM758.01 18.12c15.61 1.99 15.03 14.39 19.59 22.05 5.12 8.59 8.78 18.05 13.49 28.01 9.08-17.42 17.37-33.48 25.99-49.36.44-.81 3.65-.1 7.35-.1-9.08 19.5-17.25 37.83-26.16 55.79-3.81 7.68-9.79 7.44-13.55-.07-8.96-17.91-17.21-36.17-26.71-56.32zm127.14 63.26V18.31c10.16 6.48 10.98 51.89 0 63.07z"></path><path fill="#FFF" d="M10.26 47.42V25.66c11.98 0 23.58-.89 34.9.48 4.03.49 10.17 6.38 10.3 9.98.13 3.65-5.63 10.29-9.43 10.78-11.35 1.45-22.99.52-35.77.52zm390.09 9.33c4.85-9.82 8.99-18.2 14.64-29.63 5.36 11.21 9.5 19.87 14.17 29.63h-28.81z"></path></g></svg>