<svg xmlns="http://www.w3.org/2000/svg" viewBox="0.8042677640914917 0.8806124329566956 519.1991577148438 86.95486450195312"><path fill="#2A2728" d="M155.74 65c1.53-2.32.93-4.18.93-5.91 0-17 .2-34-.11-50.95-.08-4.57 1.7-5.27 5.49-4.92 3.12.3 6.41-1.14 6.34 4.59-.32 24.3-.21 48.62-.06 72.93 0 3.55-1.18 4.29-4.49 4.42-4.81.19-8.15-.94-11.42-5-13.87-17.44-28.26-34.48-42.46-51.66-.71-.87-1.48-1.7-2.58-3-1.14 2.73-.69 5.19-.69 7.52-.06 15.82-.15 31.64.08 47.46.05 3.79-1 4.82-4.76 4.68-7-.28-7 0-7-7.14 0-23 0-46 .07-68.94 0-1.91-1.42-5.2 1.36-5.53 3.3-.38 7.2-1.76 10.14 1.86 8.92 11 18 21.83 27 32.73L155.74 65zM.89 29.62c0-7.83.16-15.66-.08-23.48-.1-3.38 1.1-4.46 4.26-4 1.158.16 2.332.16 3.49 0 3.08-.43 4 .81 3.94 3.88-.15 13-.12 26 0 39a36.9 36.9 0 005.74 20.39c5.63 8.6 14.09 10.67 23.61 9.29 9.85-1.43 16.16-7.37 19.27-16.66a45.73 45.73 0 002.23-14.76c0-12.32.1-24.65-.07-37-.05-3.31 1-4.9 4.23-4 2.6.7 7.48-2.49 7.55 2.47.21 17 1.26 34-.46 50.93-1.8 17.75-16.17 29.84-34.5 30.57-10.85.44-20.85-1.46-29-9.39C4.41 70.35 1.28 62.3.97 53.16.69 45.28.9 37.45.89 29.62zm369.48 55.47c-4.09 1.32-6.2-1.3-7.5-5.49-1-3.16-2.82-6.1-3.52-9.3-1.15-5.33-4.25-6.43-9.25-6.23-9.14.38-18.3.2-27.46.05-2.76-.05-4.25.85-5.13 3.49-1.21 3.62-3.23 7-4.08 10.71-1.35 5.82-4.7 7.21-10.3 6.94-4.39-.2-4.85-1-3.2-4.93a6130.04 6130.04 0 0029.83-72.94c1.29-3.22 2.79-4.26 6.12-4.22 9.7.14 9.6.05 13.18 9.19 8.74 22.27 17.6 44.49 26.39 66.74 2.34 5.92 2.32 5.92-5.08 5.99zm-32.28-68.14c-5 12.19-9.4 22.92-13.82 33.65-1 2.38-.24 3.27 2.33 3.25 7.64-.07 15.28 0 22.92 0 2.16 0 3.22-.63 2.3-2.93-4.4-10.83-8.79-21.69-13.73-33.97zM481.8 3.55c5.83-2.06 7.55 1.6 9.37 6.29a4838.421 4838.421 0 0028.1 70.94c1.53 3.78.73 4.37-3 4.31-8-.12-8 0-11.14-7.71-1.74-4.31-2.53-9.91-5.73-12.46-3.2-2.55-9-.68-13.63-.77-6.49-.11-13 .19-19.47-.1-3.46-.16-5.15 1.07-6.09 4.28-.88 3-2.26 5.89-3.39 8.84-3.14 8.16-3.14 8-12 7.93-3.28 0-3.54-.81-2.34-3.69 7.4-17.81 14.62-35.69 21.92-53.55 2.45-6 5.33-11.85 7.29-18 1.69-5.3 4.28-8.02 10.11-6.31zm-.8 13.37c-5.27 13-10 24.73-14.95 36.9 9.31 0 17.8-.09 26.27 0 3.15.05 3.24-1.07 2.21-3.55-2.68-6.45-5.16-13-7.77-19.45-1.67-4.19-3.48-8.39-5.76-13.9zM262.09.93c10.69-.54 19.81 3.39 28.15 9.74 2.34 1.78 2.52 3.23.26 5-.135.1-.26.214-.37.34-5 5.5-5 5.5-11 1.67-13.59-8.66-31.58-5.88-41.52 6.43-10.3 12.75-9.64 30.19 1.59 41.87 11.149 11.483 29.099 12.88 41.89 3.26 1.32-1 2.49-3.49 4.56-1.81a45.88 45.88 0 016.93 7.07c.65.82-1 1.92-1.85 2.63-13.74 11.23-29.24 13.61-45.44 7.21-16-6.32-25.4-18.81-26.82-36.08-1.91-23.25 12.4-42 34.64-46.8 2.98-.65 5.98-.37 8.98-.53zm145 86.48c-5.58.49-11.66-1.13-17.62-3.43-6.31-2.45-1.64-6.35-1-9.42.89-4.35 3.29-.87 4.74-.26a37.06 37.06 0 0020.48 2.85c6.05-.95 10.51-4.85 11.69-10.14 1.34-6-.77-10.95-6.13-14.61-4.45-3.05-9.64-4.46-14.5-6.6-12.07-5.31-17.35-13.56-16.81-24.47.49-10.18 13-21.35 24.35-19.73 5.19.74 10.77-1 16.18.72 5.7 1.82 7.16 6.76 3.19 11.16-1.4 1.56-2.43.19-3.5-.27a31.34 31.34 0 00-17.68-2.12c-5.72.93-9.76 4.61-10.59 9.86-.83 5.25 1.59 9.25 6 12.18 4.78 3.15 10.25 4.76 15.37 7.15 12.47 5.82 18 14.95 16.1 26.28-2.12 12.35-11.74 20.4-24.95 20.86-1.48.04-2.98-.01-5.32-.01zM187.77 43.56c0-12.15.1-24.3-.08-36.44 0-3.1.91-4 3.95-3.93 7.74.13 7.75 0 7.78 7.68v2c0 22.29-.14 44.59.12 66.88 0 4.53-1.29 5.72-5.59 5.4-3.6-.26-6.57.48-6.33-5.17.47-12.12.16-24.28.15-36.42z"></path></svg>