<svg xmlns="http://www.w3.org/2000/svg" xmlns:xlink="http://www.w3.org/1999/xlink" viewBox="190.00022888183594 15.999956130981445 213.00022888183594 218.0005340576172"><defs><path id="fnb1c97f0dadma" d="M.3.94h96.993V16H.3z"></path></defs><g fill="none" fill-rule="evenodd"><path fill="#086098" d="M195 88.782c1.391-3.216 2.54-5.388 3.275-7.68 1.072-3.353 3.15-4.34 6.814-4.318 26.707.164 53.419.133 80.126.06 4.244-.012 8.87 1.12 12.347-2.439.572-.586.592-.482 1.064-.031 3.893 3.722 8.891 2.422 13.46 2.446 24.53.133 49.059.082 73.586.063 11.3-.01 11.904.446 14.328 11.923-10.217 0-20.358.002-30.502 0-21.257-.005-42.517-.007-63.774-.024-3.247-.003-6.59.371-9.376-1.836-.537-.425-1.052-.93-1.813-.324-4.45 3.542-9.76 2.07-14.702 2.097-26.343.135-52.691.063-79.034.063H195zm146.126 84.973c-16.415 0-32.83.024-49.247-.017-3.774-.01-7.733.7-11.003-1.982-.613-.5-1.236-.674-1.904-.099-3.558 3.07-7.965 2.054-12.04 2.078-19.697.119-39.397.054-59.096.034-4.484-.005-10.64-6.667-9.75-10.715.493-2.246 2.673-1.219 4.05-1.226 14.954-.067 29.913-.022 44.867-.012 8.025.005 16.051.022 24.077-.02 3.719-.02 7.776.883 10.23-3.08.68-1.093 1.489-.82 2.06.05 2.396 3.657 6.208 3.048 9.809 3.048 34.837-.005 69.672-.024 104.51-.024 6.325.002 6.048-.058 4.037 5.565-1.771 4.94-4.453 6.806-10.266 6.634-16.763-.495-33.554-.176-50.334-.176v-.058zM204 182.914c20.215 0 39.33.085 58.442-.063 4.303-.034 9.337 1.63 12.318-3.335.681-1.133 1.105-.111 1.41.328 2.451 3.524 6.212 3.094 9.851 3.092 31.907-.02 63.817-.032 95.724-.046 2.719-.003 5.44-.003 8.255-.003-2.971 9.094-6.608 11.768-15.667 11.768-30.634.002-61.265.017-91.896-.01-3.044-.002-6.25.583-8.855-1.718-.343-.303-1.097-.63-1.38-.476-8.042 4.432-16.769 1.638-25.152 2.095-9.087.495-18.248-.245-27.335.252-5.642.308-9.367-1.31-11.8-6.145-.85-1.689-2.142-3.169-3.915-5.74M391 68.592c-26.427 0-51.942-.143-77.45.09-7.46.069-14.687-1.898-22.424-.406-7.364 1.419-15.25.314-22.906.316-7.838.003-15.675 0-23.513 0-7.656 0-15.313.005-22.969.005-5.427.003-10.857.003-16.738.003 1.677-4.182 4.533-6.905 6.656-10.079 1.547-2.31 3.796-1.701 5.876-1.703 25.155-.047 50.313-.256 75.457.146 4.201.068 7.868-4.206 10.223-2.605 3.64 2.473 7.042 2.407 10.752 2.42 19.684.053 39.412.744 59.039-.28 9.963-.521 13.811 4.437 17.997 12.093m-15-20.678c-22.436 0-43.572.28-64.688-.225-4.466-.107-8.8-.214-13.286-.087-25.244.722-50.518.35-76.026-.23 5.789-5.297 10.017-12.15 19.763-11.845 18.202.562 36.432.207 54.653.147 3.538-.012 7.436.78 9.904-2.969.705-1.076 1.512-.832 2.069.137 1.922 3.342 5.204 2.837 8.24 2.847 11.842.048 23.757.83 35.506-.21 10.743-.948 16.6 5.198 23.865 12.435m0 154.018c-6.874 6.83-12.732 12.385-23.47 11.991-23.865-.875-47.79-.247-71.694-.303-3.563-.007-7.353.787-10.462-1.878-.336-.286-1.075-.536-1.397-.374-9.855 4.967-20.421 1.164-30.591 2.291-4.209.467-12.064-5.708-16.386-12.005 13.975 0 27.56.004 41.144-.005 3.079-.003 6.387.433 8.206-2.847.789-1.426 1.318-.658 1.78.061 1.997 3.118 5.174 2.798 8.276 2.798 31.017.007 62.031.022 93.05.037.18 0 .361.053 1.544.234m-45.581-80.294c-1.101-1.168-4.64 2.125-4.45-2.274.374-8.736 2.708-13.103 7.033-13.184 6.846-.132 10.154 1.996 10.154 6.527-.002 5.222-5.06 8.847-12.737 8.931m18.425 2.036c5.72-3.473 7.853-8.941 6.96-15.544-.86-6.352-5.126-9.213-10.845-10.927-3.982-1.19-7.997-.86-11.88-1.203-3.242.185-6.36.307-9.47.553-3.58.282-5.538 1.615-6.327 5.791-2.705 14.374-6.057 28.629-9.21 42.917-1.996 9.055-2.04 8.944 7.326 8.51 2.492-.117 3.504-.861 3.929-3.341.77-4.502 1.874-8.952 2.983-13.387.592-2.371-.37-5.773 4.091-5.73 4.282.04 7.758.871 8.626 5.687.45 2.508.536 5.082.788 7.629.958 9.672 1.21 9.885 10.784 9.073.55-.048 1.104-.038 1.648-.11.753-.1 1.419-.334 1.218-1.322-1.427-6.986.221-14.773-3.31-20.982-2.775-4.882-.624-5.603 2.69-7.614M209.01 155c-12.672.028-19.674-6.872-18.96-19.723.69-12.474 4.068-24.57 7.031-36.613 1.107-4.504 6.595-1.786 9.994-1.877 3.62-.097 1.42 3.08 1.158 4.517-1.787 9.72-3.898 19.38-5.79 29.08-1.306 6.7.51 11.766 4.556 13.315 5.56 2.134 11.684-.54 14.724-6.85 3.53-7.321 4.006-15.53 5.896-23.33 1.118-4.621 1.626-9.425 3.028-13.942 1.848-5.973 6.96-2.65 10.398-2.696 3.457-.048 1.348 3.354 1.004 5.114-1.866 9.527-3.888 19.022-5.941 28.506-3.56 16.455-12.458 24.466-27.098 24.499m177.597-48.637l-10.57 22.117c3.306 0 5.853-.202 8.354.05 3.564.36 4.264-.983 3.77-4.379-.783-5.383-.982-10.852-1.554-17.788M351 153.436c9.674-18.551 19.097-36.602 28.49-54.67.737-1.422 1.644-2.031 3.342-2.208 13.128-1.378 13.614-1.133 15.22 11.876 1.7 13.76 3.114 27.558 4.85 41.316.397 3.168-.33 4.118-3.593 4.126-8.865.018-9.324.185-9.553-8.455-.161-6.134-2.562-7.25-8.176-7.219-6.435.038-11.88.205-13.558 7.871-2.09 9.568-9.272 8.14-17.022 7.363m-57.498-56.359c5.851 0 11.708.165 17.55-.063 3.39-.132 4.297.644 3.837 4.312-.68 5.407-2.848 7.232-8.383 6.927-9.391-.512-9.421-.134-11.443 9.28-2.385 11.108-4.79 22.211-7.12 33.33-1.452 6.934-6.763 2.974-10.176 3.33-4.477.469-1.905-3.397-1.738-5.108 1.192-12.283 5.568-23.903 7.771-36.006.832-4.562-.346-5.534-4.36-5.013-1.082.14-2.193.028-3.29.028-7.36.01-8.774-2.529-5.45-9.298 1.011-2.062 2.593-1.676 4.154-1.709 3.108-.066 6.215-.035 9.323-.04 3.11-.005 6.217 0 9.325 0v.03z"></path><path fill="#086098" d="M236 154c3.913-18.476 7.49-36.447 11.622-54.29 1.433-6.191 7.099-2.736 10.698-2.853 4.327-.137 1.407 3.325 1.108 4.847-2.283 11.696-4.73 23.364-7.397 34.978-1.001 4.357-1.065 6.92 4.743 6.262 4.744-.533 9.6-.002 14.402-.147 2.59-.076 3.034.942 2.748 3.285-.899 7.385-1.397 7.918-8.787 7.918H236"></path><g transform="translate(251 218)"><mask id="fnb1c97f0dadmb" fill="#fff"><use xlink:href="#fnb1c97f0dadma"></use></mask><path fill="#086098" d="M.3 4.474c1.597 0 3.212-.148 4.789.026 4.8.535 9.158-.242 12.774-3.56 3.325 4.629 8.375 3.42 13.012 3.512 4.199.082 8.403.022 12.607.022l47.692.007h6.119C70.875 18.931 30.935 20.726.3 4.474" mask="url(#fnb1c97f0dadmb)"></path></g><path fill="#086098" d="M347 27.677c-8.942 0-17.995.856-26.799-.219-10.658-1.302-21.091.714-31.648.314-10.757-.407-21.544-.085-32.319-.083-1.746 0-3.493 0-5.234-.552 32.033-14.959 64.091-14.917 96 .54"></path></g></svg>