<svg xmlns="http://www.w3.org/2000/svg" viewBox="45 55.999996185302734 510 138"><g fill="none"><path fill="#8FB435" d="M553.47 56c-3.167 0-11.47 3.903-18.57 10.949-7.1 7.046-11.032 15.285-11.032 27.86v46.072c0 18.538-12.235 26.451-30.368 26.451s-30.368-7.913-30.368-26.45V94.808c0-12.575-3.932-20.705-11.033-27.86C445 59.903 436.697 56 433.53 56c-1.092 0-1.529.867-1.529 1.518v86.29C432 181.317 464.77 194 493.5 194c28.838 0 61.5-12.683 61.5-50.192v-86.29c0-.65-.437-1.518-1.53-1.518z"></path><path fill="#000" d="M76.452 132.641c0 8.302-2.85 11.069-9.863 11.069-7.233 0-9.425-2.435-9.425-11.069V97.775H45v32.985c0 18.263 8.22 24.13 21.48 24.13 15.013 0 21.588-8.745 21.588-24.13V97.775H76.452v34.866zm64.22 21.474h12.273v-56.34h-12.274v56.34zm65.205-56.34l-11.288 42.06h-.329l-11.945-42.06h-13.808c-2.192 18.927-5.041 56.34-5.041 56.34h10.301l3.068-39.073h.33l10.958 39.073h11.617l10.63-39.073h.438l2.411 39.073h11.726s-2.85-37.523-4.822-56.34h-14.246zm29.37 56.34h12.273v-56.34h-12.274v56.34zm56.766-19.37l-.328.11c-.658-2.214-19.398-36.97-19.398-36.97h-12.712v56.34h10.959v-38.851l.329-.11 20.164 38.961h11.945v-56.45h-11.068l.11 36.97zm34.083-36.97c-6.357 19.149-16.768 56.34-16.768 56.34h11.179l3.726-13.504h16l3.616 13.504h12.493s-10.74-37.523-16.657-56.34h-13.59zm.986 32.652l4.931-20.034h.33l5.04 20.034h-10.301zM109 113.16c0-3.652 2.52-5.534 6.356-5.755 4.932-.332 13.37 1.66 13.37 1.66V98.218c-.11 0-6.247-1.218-11.397-1.218-12.274 0-21.041 5.866-21.041 16.824 0 17.268 23.013 15.386 23.013 24.794 0 3.764-1.972 5.535-6.575 5.977-6.356.554-15.562-3.32-15.562-3.32v11.622S103.52 155 111.301 155c11.945 0 20.603-5.645 20.603-17.489.11-16.381-22.904-15.828-22.904-24.35zm265.096 0c0-3.652 2.52-5.534 6.356-5.755 4.931-.332 13.37 1.66 13.37 1.66V98.218c-.11 0-6.247-1.218-11.398-1.218-12.274 0-21.04 5.866-21.04 16.824 0 17.268 23.013 15.386 23.013 24.794 0 3.764-1.973 5.535-6.575 5.977-6.357.554-15.562-3.32-15.562-3.32v11.622S368.616 155 376.397 155c11.945 0 20.603-5.645 20.603-17.489.11-16.381-22.904-15.828-22.904-24.35z"></path></g></svg>