<svg xmlns="http://www.w3.org/2000/svg" viewBox="2.390000104904175 2.39031982421875 104.70500183105469 40.75168228149414"><g fill-rule="evenodd"><path fill="#ecb833" d="M50.97 14.62c-7.158 5.373-13.782 4.794-19.876-1.735C43.447 8.15 49.956.834 56.297 7.107l-4.703 6.728h-.008v.01h-.008v.001h-.001v.01h-.01v.003h-.008v.001c-.005 0-.003.005-.006.005v.003h-.001v.003h-.002l-.001.006h-.002l-.002.004h-.001c0 .003-.003.003-.003.005h-.002v.005c-.009 0-.015.013-.02.013h-.001l-.001.005h.002v.001h-.002l-.004.007-.009.006v.003h-.002c0 .006-.012.021-.017.024v.002h-.002v.015h-.003v.004h-.002v.007l-.005.002h-.002l-.005.004v.002c-.003.001-.005.003-.005.008l-.003.004-.012.005v.002l-.003.002a.722.722 0 00-.063.08l-.002.004h-.002c0 .006-.006.013-.006.022h-.001v.003c-.009.004-.026.024-.036.024v.003c-.018.009-.033.025-.053.033v.003h-.007v.003h-.002l-.003.006c-.004 0-.005.003-.009.003v.002l-.015.01v.005h-.003v.002a.163.163 0 01-.03.02l-.012.015h-.003v.003l-.004.008v.003h-.006c0 .122-.172.167-.172.246h-.003c0 .009-.02.027-.02.039h-.003c-.003.004-.013.014-.013.018h-.003c-.008.009-.003.047-.003.058"></path><path fill="#00939a" d="M51.604 13.822C32.94 30.714 25.622-9.242 2.39 5.88l26.178 37.262"></path><g clip-rule="evenodd"><path fill="#77787b" d="M55.904 24.35l6.39 13.854 1.468-.011 5.614-13.93-2.504-.085-3.8 10.294-4.578-10.208m11.659 13.842l2.763.087 1.123-3.46h5.874l1.12 3.373 2.677.087-5.613-13.93h-1.986"></path><path fill="#fff" d="M75.205 32.57h3.541l-1.555-4.888"></path></g></g><path fill="#77787b" d="M87.599 38.02V24.805h2.445v10.97h6.08v2.245m3.057-.086v-13.41h7.914v1.036c-.577.36-1.124.816-1.659 1.233h-4.157v2.972h5.216v2.26h-5.216v3.648h5.803v2.261"></path></svg>