<svg xmlns="http://www.w3.org/2000/svg" viewBox="0.34210658073425293 0.7433629035949707 680.2719116210938 158.23460388183594"><g fill="none"><path fill="#0497C0" d="M180.65 158.88c-26.65 0-52.59.3-78.51-.15-9.6-.17-17.33-5.05-22.33-13.63C54.46 101.6 29.34 57.96 3.58 14.7-3.53 2.77 1.87 1.63 12.01 1.81c14.56.27 29.4 1.82 43.65-.32 25.7-3.87 39.33 7.51 51 29.36 22.79 42.72 48.32 83.98 73.99 128.03z"></path><path fill="#F2AF42" d="M170.33 3.53h86.27c-11.48 19.67-22 38.78-33.59 57.2-7.36 11.69-15.06 7.23-20.71-2.2-10.59-17.58-20.68-35.43-31.97-55z"></path><path fill="#0D2840" d="M642.54 27.76c6.07 0 12.22-.19 18.16.79 9.78 1.59 16.56 7.57 18.91 17.23 2.29 9.42 1 19.94-7.4 24.58-12.45 6.9-8.77 12.27-1.56 19.52 2 2 2.56 5.75 4.74 7.43 5.08 3.91 5.83 8.89 1 11.84-3.77 2.31-9.81 4.54-14-2.06-4.88-7.65-10.78-14.63-16-22-5-7-11.9-10.6-20.12-9.11-10 1.82-4.84 10.57-5.66 16.22-1 7.06 1.19 15.48-10.45 14.84-11.2-.62-7.24-9.14-7.57-15-.51-8.48-.15-17-.15-25.5.18-39 .18-39 40.1-38.78zm-1.85 32.81c4.067-1.298 9.896.854 14.603-.329 2.984-.737 5.515-2.812 6.857-7.951.048-.188.088-.374.12-.558.671-3.674-1.825-6.737-5.64-7.462-3.777-.712-7.579-1.246-11.384-1.54a80.08 80.08 0 00-9.835-.182l-.785.04c-3.924.217-7.83.754-11.696 1.682-2.043.494-2.557 2.153-2.591 4.116-.031 1.634.272 3.481.302 5.042a11.5 11.5 0 01-.001.492l-.003.19.003-.17c-.1 4.21 1.64 6.74 6.25 6.65 3.198-.06 6.408-.04 10.115-.028l.808.003c.648.002 1.312.004 1.994.004h.042zM526 65.67c0-38 0-38.45 37.22-37.59 8.65.2 25-7.16 24.36 8.58-.5 13.13-15.78 3.71-24.11 6-3.93 1.1-8.43.29-12.66.15-5.7-.19-7 3.05-7.09 8-.1 5.13 1.56 8.15 7.08 8.16 9.087 0 18.173.02 27.26.06 4.52 0 8.61.7 8.76 6.56.15 5.86-3.57 6.81-8.34 6.74-7.26-.1-14.54-.13-21.8.07-5.6.15-13-2.39-12.78 7.69.2 8.78 5.61 11 13.18 10.91 7.87-.11 15.75 0 23.62 0 4.94 0 7.83 1.86 8.11 7.39.32 6.43-2.68 8.63-8.61 8.59-15.14-.1-30.29-.2-45.43 0-7.57.1-9-4.12-8.83-10.42.21-10.3.06-20.6.06-30.89zm-59.17 20.37c7.77-17.33 14-31.66 20.61-45.84 6.26-13.43 6.42-13.36 25.14-10.41-10.64 23.22-21.34 46-31.45 69-3.42 7.78-9.35 7.71-16.19 8.38-7.64.74-10.72-3.09-13.34-9.1-7.93-18.14-15.33-36.52-26.47-53.12-3.43-5.13-8.23-12.81.16-16.48 7-3.06 15.08-2 19.1 8 6.29 15.57 13.83 30.73 22.44 49.57zm-134.5-3.15c6.35-13.92 13.43-27.78 19-42.21 4.62-11.93 11.76-16 25.6-11-10.72 23.56-20.92 47.24-32.26 70.35-5.59 11.4-22.39 10.28-28.23-1.64-9.05-18.49-17.66-37.22-25.68-56.18-1.71-4-9.24-10.18-1.65-13.54 6.73-3 15.3-2.92 19.36 7.32 5.35 13.45 11.86 26.47 17.86 39.73 1.16 2.69 1.37 5.99 6 7.17zm75.09-14.85c0 10.27-.17 20.54.06 30.8.14 6.43-3 8.28-8.89 8.24-5.89-.04-9.11-2.06-9.09-8.34.08-21.13.05-42.27.06-63.4 0-5.15 2.46-7.54 7.73-7.69 5.7-.16 9.73 1.73 9.89 7.79.3 10.86.09 21.73.09 32.6h.15z"></path></g></svg>