<svg xmlns="http://www.w3.org/2000/svg" viewBox="0 64 553 107"><path fill="#36A9E0" fill-rule="evenodd" d="M106.461 64l-38.106 73.719L31.423 64H0l54.43 107h28.727L108 122.892V64zm83.051 0L135 171h31.712l8.916-19.184h55.973L241.39 171H243v-59.007L218.448 64h-28.936zm14.175 33.46l15.638 30.52h-31.276l15.638-30.52zM271 64v107c0-1.308 78 0 78 0v-27.178h-48.97V64H271zm106 0v106.99c0-1.308 28 .01 28 .01V64h-28zm130.5 0H462v27.205h47.779c9.85 4.494 16.732 14.586 16.732 26.352 0 12.22-7.428 22.625-17.89 26.836H462v26.605h38.68s48.51 1.008 52.32-42.59v-28.193S544.275 64 507.5 64"></path></svg>