<svg xmlns="http://www.w3.org/2000/svg" viewBox="0 0 2152.999755859375 437"><g fill="none"><path fill="#133777" d="M0 218.5C0 338.7.4 437 .8 437c.5 0 5.8-6.4 11.7-14.3 6-7.8 82.6-105.6 170.2-217.4C270.3 93.6 342 1.9 342 1.6c0-.3-15.9-.6-35.2-.6l-35.3.1L164 138.3 56.5 275.5l-.3-137.8L56 0H0v218.5zM366.8 18.7c-7.9 10.4-84.6 108.4-170.6 218C110.3 346.2 40 436.1 40 436.4c0 .3 15.9.6 35.4.6h35.5l39.2-50 39.2-50H326v100h56V218.5C382 98.3 381.8 0 381.6 0c-.3 0-6.9 8.4-14.8 18.7zM326 222v59h-46.1c-25.3 0-45.9-.4-45.7-.8.3-1 91.1-117.1 91.6-117.2.1 0 .2 26.5.2 59zm1530 8.5V311h21V150h-21zM529.2 154.7c.3 1 14.1 37.3 30.8 80.8 16.6 43.4 30.7 80.1 31.2 81.5.8 2 1.1 2.2 1.8 1 .9-1.7 63-163.7 63-164.5 0-.3-5.1-.5-11.3-.5h-11.4L613 207.5c-11.2 30-20.5 54.3-20.8 54-.3-.2-9.5-24.7-20.6-54.2l-20.1-53.8-11.4-.3c-10.5-.2-11.3-.1-10.9 1.5zM767 232.5V312h21V153h-21zm270 0V312h20v-14.2l4 3.6c4.9 4.4 14.1 9.1 21.7 11.1 7.3 1.9 22.3 1.9 29.6 0 18.8-4.9 34.5-20.3 40.1-39.4 2-6.9 2.1-22.7.1-30-4.8-18.1-19.3-33.2-37.6-39.1-9.4-3.1-24.2-3.4-33.4-.6-6.4 1.9-15.9 6.9-21.2 11.2l-3.3 2.7V153h-20v79.5zm76.8-6.5c15.1 8 22.8 24.4 18.8 40-2.9 11.4-10.3 20.2-21.2 25.2-7.5 3.5-20.8 3.3-28.6-.4-7.4-3.4-15.2-11.3-18.5-18.6-3.8-8.2-3.9-20.3-.2-28.2 4.5-9.6 10.6-15.4 20.8-19.7 4.7-2 6.9-2.3 14.1-2 7.4.3 9.3.7 14.8 3.7zm388.3 5.7c-18.9 42.8-34.5 78.4-34.8 79-.4 1 2.1 1.3 10.3 1.3h10.9l8.5-20.3 8.5-20.2h60.7l8.2 20 8.3 20 11.1.3 11.2.3-.9-2.3c-2.9-7.6-66.4-154.4-67-155.1-.4-.4-16.2 34.2-35 77zm45.3-4.8c5.8 13.9 10.6 25.5 10.6 25.7 0 .2-9.9.4-22.1.4-17.3 0-22-.3-21.6-1.3 1.6-4.1 20.1-47.5 20.9-49 .5-1 1.1-1.7 1.3-1.5.1.1 5.1 11.7 10.9 25.7zm460.1-63.9c-5.9 3.9-8 11.5-5.1 18.5 2 4.7 6.9 7.5 13 7.5 14.2 0 19.7-16 8.7-25.3-4.1-3.4-11.9-3.8-16.6-.7zM847.3 202c-31.2 5.6-52 35.5-46 66.1 3.1 15.6 10.9 27.7 23.4 36.3 10 6.8 16.6 8.9 30 9.4 12.9.5 24.4-1.4 33.6-5.5l5.7-2.6v-28.4l-4.3 4.1c-8.2 7.9-23.2 13.2-34.8 12.3-12.6-.8-24.7-8.9-30.5-20.4-2.6-5.2-2.9-6.8-2.9-15.3 0-8.4.3-10.2 2.8-15.2 3.6-7.3 10.1-13.9 17.3-17.4 13.9-6.8 35.4-2.8 48 8.8l4.4 4.1v-28.4l-5.2-2.3c-11-4.9-30.7-7.5-41.5-5.6zm107.2-.4c-22.2 3.4-41.1 19.8-46.8 40.4-7.4 26.4 4.5 54 28.2 66 9 4.5 15.5 6 26.1 6 14.9 0 27-4.1 37-12.7l4-3.5V312h20V204h-20v12.9l-7.7-5.2c-4.3-2.9-10.8-6.3-14.6-7.5-6.6-2.2-20.2-3.5-26.2-2.6zm23.7 24.2c11.3 5.6 18.6 16 20.4 28.9 1.3 10.5-5 24.9-13.9 31.4-7.8 5.7-12.3 7.2-22.2 7.3-7.8.1-9.8-.3-14.7-2.6-7.9-3.7-14.2-9.8-18-17.7-2.9-5.8-3.3-7.5-3.3-15.1 0-9.9 2.6-16.8 9.1-24 7.8-8.7 16.1-12.1 27.9-11.8 6.8.3 9.1.8 14.7 3.6zm291.1-23.8c-18 3.3-32.9 14.4-41.2 31-12.5 25-4.9 54.9 18.1 71 9.9 7 19.8 10 32.6 10 14.7 0 24.8-3.3 35.5-11.4l4.7-3.6v13h21V204h-21v13.2l-4-3.4c-11-9.4-30.5-14.5-45.7-11.8zm24.9 23.2c25.4 11.8 28.3 46.6 5.3 62.3-18.1 12.3-42.5 5.9-52.8-14-2.9-5.5-3.2-6.8-3.2-15.5 0-7.6.4-10.4 2.2-14.2 2.2-4.9 8.7-12.5 13.5-15.9 9.1-6.5 24.4-7.7 35-2.7zm89.1-23.2c-10.5 2.2-19.7 9.1-23.3 17.4-4.1 9.4-3.4 21.8 1.8 29.5 4 5.9 10.4 10.4 25.3 17.9 10.4 5.2 13.9 7.5 15.7 10.2 3.7 5.5 1.7 12.6-4.5 16.7-3.4 2.2-12.6 2.2-16.9 0-3.9-2-9.2-7.9-10-11.2-.3-1.4-1-2.5-1.5-2.5-.7 0-16.2 9.2-17.8 10.6-.9.8 6.4 11.6 10 14.9 8.1 7.3 20.3 10.4 33.7 8.5 13.5-1.9 23-8 27.6-17.9 3.1-6.7 3.1-23.8-.1-29.6-3.7-7.1-10.5-12.2-24.6-18.9-18.9-9-23.5-15-17.2-22.5 5.3-6.3 14.1-6.4 20.4-.2 2.1 2 4 4.3 4.3 5.1.4 1.4 2.4 0 15.8-10.7.2-.2-.5-2-1.5-3.9-2.6-4.9-8.8-10-14.4-11.9-5.7-1.9-17.2-2.7-22.8-1.5zm-176.4 1.6c-2.5.7-6.6 3.1-9 5.2l-4.3 3.9-3.4-4.3-3.3-4.4H1166v108h20.9l.3-33.3.3-33.2 2.9-5.3c1.7-2.9 4.8-6.6 7-8.3 4.7-3.4 15.1-6.9 20.7-6.9h3.9v-23l-5.2.1c-2.9 0-7.4.7-9.9 1.5zm613.1 7v8.6l-4.2-3.7c-5.8-4.9-14.9-9.2-23.3-11-36.7-7.7-70.3 20.6-68.2 57.5 1.7 31.4 27.8 54.6 59.2 52.7 12.5-.8 21.6-4.1 30.9-11.2 2.5-1.9 4.8-3.5 5.1-3.5.3 0 .5 2.5.5 5.5v5.5h20V202h-20v8.6zm-26.3 15.6c7 2.6 15.7 10.8 19.3 18.3 2.1 4.2 2.5 6.5 2.5 14.5 0 8.4-.3 10.2-2.8 15.1-7.4 15.2-24.8 23.5-40.7 19.5-18.3-4.6-30.2-22.5-26.9-40.3 1.4-7.4 4-12.4 9.7-18.5 10.3-11 24.3-14.1 38.9-8.6zm137.3-23c-19.7 2.7-34.6 17.2-39.6 38.4-2.3 10-1.5 30.5 1.6 39.3 4.8 13.5 16 25.3 28.7 30.1 7.2 2.8 24 3.8 32.6 2 9.5-1.9 20.5-8.1 27.4-15.2 3.3-3.5 6.7-7.7 7.6-9.5l1.7-3.2-6.7-3.9c-12-6.9-10.8-6.8-14.2-1.9-3.4 5-9.7 10.9-13.9 13.1-4.3 2.2-13.5 3.4-19.3 2.5-12.6-2-23.6-14.1-25.5-28.2l-.7-4.7h80.3v-5.3c-.1-8.9-2.7-20.5-6.4-28.3-6.6-13.9-17.5-22.3-32.4-25-8.7-1.5-11.9-1.5-21.2-.2zm20.1 19.3c6.5 2.2 11.3 6.7 14.8 13.7 5.3 10.6 7.4 9.8-25.4 9.8-15.7 0-28.5-.2-28.5-.5 0-.2.9-2.8 2-5.8 3-8 10.7-15.2 19-17.8 4.3-1.3 13.4-1 18.1.6zm181.9-11.9v8.6l-4.2-3.7c-9.7-8.3-25.2-13.1-38.8-12.1-40.7 2.9-64.9 44.6-46.8 80.7 7.3 14.6 21.4 25.7 37.4 29.5 15.8 3.7 35.4-.6 47.9-10.6l4-3.2.3 5.6.3 5.6h19.9V202h-20v8.6zm-26.5 15.5c7.2 2.7 15.3 10.1 19 17.4 4 8 4.7 19.5 1.5 27.7-3 8-10.4 15.9-18.8 20-5.9 2.9-7.6 3.3-14.7 3.3-6.8 0-8.9-.5-14.5-3.1-13.1-6.2-20.2-16.7-20.8-30.9-.5-10.2 2-17.3 8.5-24.5 10.7-12 24.9-15.5 39.8-9.9zM1621 213v10l28.9.2 28.9.3-34.9 43.3c-19.2 23.9-34.9 43.6-34.9 43.8 0 .2 24.3.4 54 .4h54v-20l-33.3-.2-33.4-.3 34.9-43.2c19.1-23.8 34.8-43.5 34.8-43.8 0-.3-22.3-.5-49.5-.5H1621v10zm383 44v54h21V203h-21zM656.3 238.2c.5 38.1.8 40.4 7.4 53.1 4.5 8.5 13.1 16.7 21 19.8 5 2.1 7.6 2.4 18.8 2.4 12.6 0 13.2-.1 19.8-3.2 8.6-4.1 15.5-11.1 20.2-20.6 5.8-11.9 6.5-17.1 6.5-53.5V204h-20v28.2c0 30.9-.8 39.6-4.4 47.3-4.7 10.2-10.7 14-22.1 14-11.5 0-17.6-3.6-22.3-13-3.6-7.4-4.2-13.5-4.2-45.5v-31h-21.2l.5 34.2z"></path><path fill="#A9BF70" d="M56 0h108.66L56 157.961z"></path><path fill="#E9CD5F" d="M164.66 0L271.5 1.1l-215 274.4-.5-117.539z"></path></g></svg>