<svg xmlns="http://www.w3.org/2000/svg" viewBox="114.0002670288086 22.999786376953125 371.9997253417969 205.0001983642578"><g fill="none" fill-rule="evenodd"><path fill="#214A3D" fill-rule="nonzero" d="M114.1 157.087c-.383-1.121.382-2.336 1.528-2.71 1.147-.373 2.39.374 2.771 1.495l13.187 44.468c.477 1.4 1.05 2.335 1.72 2.896.382.28.668.373 1.05.373.287 0 .67-.093 1.052-.373.764-.56 1.433-1.495 1.91-2.896l13.283-44.748c.382-1.121 1.624-1.868 2.77-1.495 1.147.374 1.912 1.588 1.53 2.71l-13.282 44.747c0 .094 0 .187-.096.187-.86 2.335-2.102 3.924-3.44 4.951-1.146.84-2.484 1.308-3.822 1.308s-2.58-.467-3.726-1.401c-1.338-1.028-2.485-2.71-3.25-4.951v-.094L114.1 157.087zM163 136.24c0-1.214.673-2.24 1.47-2.24.795 0 1.469 1.026 1.469 2.24v6.998c0 1.213-.674 2.24-1.47 2.24-.796 0-1.469-1.027-1.469-2.24v-6.998zm.061 20.53c0-1.214.674-2.24 1.47-2.24.796 0 1.469 1.026 1.469 2.24v48.99c0 1.214-.673 2.24-1.47 2.24-.795 0-1.469-1.026-1.469-2.24v-48.99zm46.544 23.107c-.942 0-1.885-.091-2.733-.091-1.13 0-2.356-.092-3.486-.092h-.377c-5.937 0-14.418-.092-18.564 3.675-.943.827-1.697 1.929-2.168 3.215-.565 1.378-.848 3.032-.848 5.053 0 3.86.754 6.8 2.544 8.82 1.79 1.93 4.618 3.032 8.764 3.308 2.639.092 5.277-.551 8.01-1.47 2.827-1.01 5.654-2.389 8.481-3.767.094 0 .189-.092.283-.092l.094-18.559zm-.094 23.337c-2.356 1.194-4.806 2.297-7.256 3.124-3.11 1.102-6.314 1.745-9.612 1.653h-.189c-5.37-.275-9.235-1.93-11.779-4.777-2.544-2.848-3.675-6.707-3.675-11.668 0-2.481.377-4.686 1.13-6.524a12.535 12.535 0 013.299-4.777c5.466-4.961 14.889-4.87 21.58-4.87h.377c1.225 0 2.355 0 3.486.092.943 0 1.79.092 2.639.092v-3.215c.283-5.054-.754-8.453-2.639-10.566-1.884-2.113-4.711-3.032-8.198-3.4-2.639-.091-5.183-.091-7.822.092-2.638.184-5.182.46-7.821.827-1.225.184-2.356-.643-2.544-1.837-.189-1.195.66-2.297 1.884-2.48 2.733-.368 5.466-.736 8.199-.828 2.733-.184 5.56-.184 8.387-.092h.094c4.617.368 8.48 1.838 11.214 4.87 2.638 2.94 4.052 7.35 3.675 13.597l-.094 32.616c0 1.195-.943 2.113-2.168 2.113s-2.167-.918-2.167-2.113v-1.93z"></path><path fill="#214A3D" d="M222.114 153h10.363c1.1.186 1.468.932 1.651 1.957l9.263 41.37c.458 2.796 3.393 3.076 3.852 0l9.446-41.463c.366-1.119 1.1-1.678 2.2-1.864h9.905c.917.093 1.284.652 1.192 1.584l-12.564 45.378C255.588 206.484 251.92 209 245.5 209c-7.153 0-10.913-3.075-12.564-10.436l-11.922-43.607c-.092-.839.275-1.957 1.1-1.957zm55.814 2.502v6.285c.183.925.732 1.202 1.556 1.294 6.862-.647 13.725-.74 20.588-.37 2.287.37 3.935 2.219 4.3 4.807v7.394h-8.418c-12.353-.185-20.954 3.974-20.954 17.283 0 11.276 4.575 15.805 16.196 15.805 5.307 0 8.876-1.017 13.451-3.974h.64v2.033c0 .647.55 1.202 1.373 1.294h9.242c.823 0 1.006-.555 1.098-1.294V167.24c-.366-9.335-7.778-14.695-16.013-15.065-3.843-.185-8.144-.277-12.353 0-3.02.185-5.948.555-8.693 1.202-1.098.184-2.013.739-2.013 2.125zm26.445 27.728v12.015c-3.295 1.664-6.131 2.773-9.7 2.773-5.215-.277-7.137-1.848-7.137-6.562.183-5.546 3.203-8.041 9.425-8.226h7.412zm24.368-30.578h8.982c.917 0 1.742.746 1.742 1.77v1.864c4.033-2.33 8.249-4.1 13.106-4.286 1.192 0 2.017.466 2.292 1.398a55.769 55.769 0 010 7.827c0 .745-.459 1.49-1.375 1.49a31.572 31.572 0 00-14.023 3.82v39.695c0 .931-.733 1.77-1.742 1.77h-8.982a1.755 1.755 0 01-1.741-1.77v-51.807c0-.932.825-1.77 1.741-1.77zm75.881 44.809c0-1.016-.832-1.386-1.848-1.294-6.467.555-13.119 1.571-19.586 1.11-7.39-1.017-10.347-5.73-10.254-12.937h31.872c1.109-.092 1.94-.647 1.94-1.848C408.41 166.23 402.035 152 383.466 152 365.636 152 360 162.256 360 178.98c0 18.85 5.543 29.292 26.33 29.015 5.912-.093 10.716-.093 16.536-1.571 1.201-.185 1.663-.832 1.663-1.94v-7.023h.093zm-31.596-22.269h20.971c.093-6.652-3.418-12.474-10.531-12.474-7.022 0-10.717 5.822-10.44 12.474zm44.918-20.238c.094-1.024.564-1.954 1.597-1.954h9.767c1.033 0 1.69.744 1.69 1.582v59.64c.094 7.257-3.099 11.91-10.424 13.584-4.038.373-7.231.186-11.175-.372-.94-.279-1.221-.651-1.221-1.395-.188-2.606-.282-4.653 0-7.072.188-.744.657-1.116 1.315-1.116h6.01c1.502-.093 2.441-1.21 2.441-2.42v-60.477zm.929-21.954h10.254c.986 0 1.873.716 1.873 1.701v8.598c0 .895-.789 1.701-1.873 1.701h-10.254c-.986 0-1.873-.716-1.873-1.701v-8.687c0-.896.887-1.612 1.873-1.612zm43.113 19C480.3 152 486 162.997 486 179.908c0 15.524-4.952 28.092-23.36 28.092-19.342 0-23.64-10.627-23.64-28.092 0-15.802 3.457-27.908 22.986-27.908zm.28 10.72c10.559 0 10.746 9.333 10.746 16.91 0 7.578.28 17.743-10.559 17.743-10.745 0-10.839-10.904-10.839-18.297 0-7.208.841-16.357 10.652-16.357z"></path><path fill="#FFC22B" fill-rule="nonzero" d="M246.13 107.802c-1.204 0-2.13-.93-2.13-2.138 0-1.208.926-2.138 2.13-2.138h23.624c2.501 0 4.724-.465 6.855-1.301 2.223-.93 4.447-2.417 6.855-4.276 3.243-2.975 6.3-6.693 9.357-10.504 7.782-9.575 15.749-19.428 28.44-18.777 7.04.278 12.414 3.067 17.046 7.529 4.447 4.369 8.245 10.225 12.414 17.29.278.372 1.111 1.86 1.945 3.253 7.782 13.386 18.435 31.606 33.165 31.977 13.988.372 22.882-14.036 30.015-25.656.834-1.394 1.668-2.695 2.316-3.718l31.034-48.895c4.17-6.6 8.43-12.735 13.804-17.569 5.465-4.926 11.95-8.459 20.473-9.853 1.204-.186 2.316.65 2.501 1.766.185 1.209-.648 2.324-1.76 2.51-7.596 1.208-13.433 4.369-18.25 8.83-4.91 4.463-8.986 10.319-12.97 16.64l-31.034 48.895c-.833 1.302-1.575 2.51-2.316 3.625-7.781 12.55-17.416 28.073-33.813 27.701-17.138-.464-28.533-19.892-36.87-34.115-.464-.836-.927-1.58-1.946-3.253-3.983-6.693-7.596-12.363-11.673-16.36-3.89-3.812-8.43-6.043-14.266-6.321-10.56-.465-17.787 8.459-24.827 17.197-3.15 3.904-6.392 7.808-9.82 10.968 0 0-.093.093-.185.093-2.687 2.138-5.188 3.812-7.875 4.927-2.686 1.116-5.466 1.766-8.615 1.673H246.13z"></path><path fill="#007347" fill-rule="nonzero" d="M246.343 107.07c-1.112.091-2.132-.737-2.317-1.842-.186-1.197.649-2.301 1.853-2.486 5.005-.736 9.638-2.3 14.18-5.155 4.633-2.853 9.082-6.904 13.808-12.52 0-.091.093-.091.185-.184 3.707-4.234 7.6-8.377 11.77-11.415 4.449-3.222 9.175-5.339 14.365-5.339 4.912 0 9.916 3.038 14.735 7.549 4.541 4.326 8.99 10.034 12.975 15.926v.092l2.131 3.222c8.712 13.164 14.92 22.646 24.466 22.646h.093c9.267.368 16.218-11.047 23.91-23.659l.185-.276c2.503-4.05 5.468-9.022 8.434-13.993 8.897-14.913 17.886-29.826 28.08-43.91 3.151-4.328 7.878-7.55 13.624-9.667 5.93-2.21 12.974-3.222 20.388-3.038l34.66.184c1.205 0 2.132 1.013 2.132 2.21 0 1.196-1.02 2.117-2.224 2.117l-34.66-.184c-6.951-.092-13.438.828-18.814 2.854-4.911 1.84-8.99 4.51-11.584 8.1-10.009 13.81-18.998 28.722-27.802 43.636-2.595 4.418-5.283 8.837-8.434 14.084l-.185.277c-8.341 13.716-16.033 26.236-27.803 25.683-11.77 0-18.535-10.31-27.988-24.579-1.297-1.933-1.76-2.67-2.131-3.222-3.892-5.615-8.063-11.139-12.418-15.19-4.078-3.866-8.063-6.351-11.77-6.351-4.17 0-8.063 1.841-11.77 4.51-3.892 2.854-7.6 6.72-11.12 10.771l-.094.092c-5.004 5.984-9.823 10.403-14.828 13.533a23.61 23.61 0 01-2.594 1.473h-13.624c-1.204 0-2.131.92-2.131 2.117s.927 2.117 2.131 2.117l.186-.184z"></path></g></svg>