<svg xmlns="http://www.w3.org/2000/svg" viewBox="11.684995651245117 66.94823455810547 234.3310089111328 124.9168930053711"><g fill-rule="evenodd"><path fill="#231f20" d="M194.156 117.857c-6.51 0-11.395 4.574-11.395 11.627 0 6.977 4.73 11.782 11.395 11.782 6.745 0 11.008-4.65 11.008-11.704 0-6.975-4.263-11.705-11.008-11.705zm3.721 17.364a3.722 3.722 0 01-3.721 3.72c-2.013 0-3.643-1.628-3.643-3.72v-11.782a3.641 3.641 0 013.643-3.644c2.016 0 3.721 1.629 3.721 3.644v11.782m-27.75-16.977c-1.627 0-3.876.31-5.039 1.939v-2.094c-2.944.543-3.41.698-10.232.698v2.326c2.248 0 3.644.155 3.644 2.635v21.86c-.077 2.79.388 4.805-3.72 4.805v2.482h14.572v-2.482h-.465c-2.791 0-3.799-1.472-3.799-3.1v-8.139c1.319 1.783 3.101 2.17 4.728 2.17 6.28-.078 9.69-4.263 9.69-11.782 0-6.822-2.79-11.318-9.38-11.318zm1.628 17.597c0 1.705-1.319 3.1-3.024 3.1a3.11 3.11 0 01-3.1-3.1V124.06c0-1.706 1.396-3.024 3.1-3.024 1.705 0 3.024 1.318 3.024 3.024v11.782"></path><path fill="#f9b018" d="M120.672 127.237c-1.24 1.239-2.403 2.48-3.566 3.643v-4.341l3.101-3.1c.233.309.465.465.465 1.396v2.402m17.905-16.667a177.72 177.72 0 00-6.898 6.125v-1.86c-.697.542-3.1 1.085-4.03 1.161a160.361 160.361 0 019.302-8.603v3.1l1.626.078"></path><path fill="#f9b018" d="M147.105 103.361c14.572-11.782 30.387-22.246 46.587-29.378 11.007-4.495 17.363-6.356 21.859-1.395 4.497 4.884-5.192 20.775-7.21 22.79-2.48-.775-3.41.465-3.41.465.93-.311 2.558.388 1.473 2.868-.464.929-2.324 2.248-3.101.077-.928 2.325-3.176 6.279-5.89 9.921-9.146 12.482-21.86 24.496-40.385 41.007-30.31 26.975-45.968 33.021-56.51 37.44-7.597 2.867-26.898 7.054-14.262-16.278 2.635-6.046 9.689-16.124 19.766-27.75h-3.1v-1.086c-7.442 8.683-14.73 18.216-19.535 27.674-3.876 6.898-11.394 28.68 16.51 20.23 9.148-2.867 33.719-14.727 60.774-38.99 28.602-25.58 43.098-43.719 48.06-49.687 1.006-1.162 2.014-3.024 1.24-4.418 4.884-7.287 11.626-22.48 6.744-27.131-5.427-5.193-16.124-1.783-20.232-.232-6.435 2.557-31.084 14.417-54.804 33.873h5.426"></path><path fill="#231f20" d="M97.805 90.107c-.233 1.006-.852 2.48-4.573 4.728-9.457 5.504-25.115 6.046-37.363 5.737-18.836-.465-26.665-4.807-28.603-6.512-1.086-1.008-.93-1.939.31-2.868 3.488-2.636 15.813-3.565 23.953-3.565 8.138 0 17.44 1.86 17.363 4.03 0 2.248-4.496 2.558-5.504 2.635-.697.079-1.473-.232-1.473-.62.156-.62 1.24-.62 1.783-.775.466-.078.698-.465.698-1.008 0-.697-2.016-1.394-3.643-1.628-4.729-1.24-10.93-.852-14.186-.62-5.813.388-9.845 2.171-9.845 3.567 0 1.317 3.41 5.27 20.387 5.813 21.86.698 32.092-3.024 37.052-6.589 3.411-2.636.853-4.419-2.402-6.047-8.914-4.185-25.813-4.573-34.262-4.65-9.534-.155-25.425 1.008-32.17 2.248-1.472.388-1.161 1.628.931 1.162 2.48-.386 19.844-1.626 28.294-1.162 8.449.388 18.758.156 28.293 4.884 1.627 1.006 2.17 2.79-.31 4.185-2.403 1.319-8.605 4.341-23.1 4.419-13.333.156-15.038-2.094-16.2-3.023-.466-.388-.543-1.55 1.24-2.481a9.568 9.568 0 013.953-.854c1.085 0 1.472 1.164.31 1.242-1.163.309-2.404.464-2.404 1.317 0 .699.776.776 1.63 1.085.773.311 4.882 1.24 10.076 1.24 7.596 0 13.41-1.084 16.82-3.1 1.396-.697 1.783-2.946-.62-3.721-3.72-1.24-10.387-3.41-24.263-3.41-9.534 0-27.284 1.473-32.4 2.867-1.784.543-5.892 1.706-5.892 3.876 0 2.171 2.791 3.179 4.108 3.643 7.52 2.636 28.759 5.815 37.131 5.892 23.332.232 36.432-1.705 44.493-8.604.62-.776 1.706-1.937 1.86-3.101.156-1.55-1.162-1.628-1.472-.232m-22.402 15.812c5.814 0 7.364-.154 9.767-.775v16.28c2.093-3.49 4.806-3.49 7.907-3.49 2.635 0 6.046 2.403 6.046 7.752v6.822c0 4.34.233 6.046 3.1 6.046h.078v2.015H90.13v-2.015c2.17 0 2.325-2.48 2.325-4.496l.078-1.55v-6.589c0-2.79-.93-4.419-2.713-4.419-3.644 0-4.651 2.947-4.651 6.822v4.883c.155 3.256 0 5.349 2.713 5.349v2.015H75.17v-2.015c2.714 0 3.411-1.55 3.411-4.574v-23.099c0-2.248.078-2.79-1.55-2.481-2.094.621-2.713 1.705-3.644 4.573l-9.069 28.683h-2.015l-6.899-19.38-7.054 19.38h-2.016L33.7 111.036c-.774-2.481-2.712-2.713-5.193-2.868v-2.25h15.969v2.25h-.621c-1.705 0-1.627.541-1.627 1.628 0 .62.077 1.163.542 2.79l6.821 18.604 4.651-13.022-1.938-4.807c-1.162-3.721-1.473-5.193-5.038-5.193v-2.25h14.417v2.25l-.774.077c-1.163.155-1.318.698-1.318 1.783 0 .543.077.853.542 2.248l5.426 17.595 6.047-19.146c.388-1.86-1.473-2.557-2.481-2.634v-2.172h6.28m39.685 5.582c0 2.015-1.705 3.72-3.797 3.72-2.015 0-3.643-1.705-3.643-3.72 0-2.093 1.705-3.721 3.643-3.721 2.092 0 3.798 1.628 3.798 3.721m-10.155 29.069h12.79v-2.171c-2.79 0-3.023-1.395-3.023-5.814V117.78c-2.092.697-4.728.775-10.31.775v2.248h.931c2.48 0 2.868 2.636 2.868 2.713v9.069c0 4.341-.387 5.814-3.256 5.814v2.17m25.115-20.542c2.094-2.558 5.582-1.783 5.892-1.783 2.248 0 3.409 2.404 3.409 4.032 0 2.248-1.47 3.953-3.487 3.953-1.938 0-3.41-1.24-3.41-3.18 0-.618.077-1.006.309-1.317.233-.232.233-.308.233-.387 0-.077.078-.62-.078-.62-.31 0-.852-.31-1.55.62-1.24 1.474-1.318 2.714-1.318 4.65v9.304c.155 1.007.388 2.17 1.397 2.79.542.31.619.465 1.782.465v2.015h-12.79v-2.17c2.79 0 3.023-1.318 3.023-5.66v-9.3c0-2.791-1.318-2.636-3.72-2.636v-2.171c5.425 0 7.673-.077 10.308-.62v2.015m112.242 13.023c0 4.34.931 5.04 3.723 5.425v1.939h-14.11v-2.015c2.791-.31 3.722-1.008 3.722-5.348v-21.783c0-2.17-1.319-3.177-2.945-3.255l-.776.078v-2.248c5.504 0 7.597.076 10.386-.622v27.83m-22.633-15.194c-6.51 0-11.395 4.574-11.395 11.627 0 6.977 4.651 11.782 11.318 11.782 6.742 0 11.084-4.65 11.084-11.704 0-6.975-4.342-11.705-11.007-11.705zm3.643 17.364c0 2.092-1.628 3.72-3.643 3.72a3.722 3.722 0 01-3.721-3.72v-11.782c0-2.015 1.705-3.644 3.721-3.644a3.64 3.64 0 013.643 3.644v11.782m-73.253-2.171c0 4.34.931 5.04 3.722 5.425v1.939h-14.11v-2.015c2.791-.31 3.8-1.008 3.8-5.348v-21.783c-.078-2.17-1.395-3.177-3.023-3.255l-.776.078v-2.248c5.582 0 7.597.076 10.388-.622v27.83"></path></g></svg>