<svg xmlns="http://www.w3.org/2000/svg" viewBox="93 205.39996337890625 50.09999084472656 27.100006103515625"><path fill="#f7901e" d="M129.4 209.4h6.6c.1 0 .2 0 .2.1s0 .1-.1.2l-4.3 2.4c-1.6.9-2.5 1.7-2.5 3.4s1.1 2.6 2.5 3.4l6.8 3.4c.1.1.2.1.2.2s0 .1-.1.1l-9.2 5.2v4.7l10.8-6.3c1.9-1.1 2.8-2.1 2.8-3.8 0-2-1.1-3-2.8-3.9l-6.3-3.2c-.1 0-.1-.1-.1-.1 0-.1.1-.1.1-.2l6.4-3.8c1.7-1 2.5-1.8 2.4-3.5-.1-1.5-1.4-2.3-3.5-2.3h-9.8l-.1 4zm-13.1-3.8v5.9c0 .1-.1.2-.1.2s-.1 0-.2-.1l-2.4-3.7c-1-1.5-1.7-2.5-3.5-2.5-1.7 0-2.5 1.1-3.3 2.5l-3.5 6.5c-.1.1-.1.2-.2.1-.1 0-.1 0-.1-.1l-5.2-8.8H93l6.3 10.4c1 1.7 2.1 2.7 3.8 2.7 2 0 2.8-1.1 3.6-2.6l3.2-6.2c0-.1.1-.1.2-.1s.1.1.2.1l4.3 6.5c.9 1.3 1.9 2.2 3.2 2.2 1.7 0 2.5-1 2.5-3v-10h-4zm10.6 12.9h-4v-12.9h4v12.9z"></path></svg>