<svg xmlns="http://www.w3.org/2000/svg" viewBox="0.3069925010204315 0.07303380966186523 603.9614868164062 134.0399627685547"><g fill="none"><path fill="#000234" d="M552.1 1.416c-7.749 1.862-13.784 4.992-18.627 9.76-7.227 7.153-9.984 14.306-9.537 25.184.223 6.11.596 7.897 2.384 11.697 4.47 9.165 14.306 16.839 28.388 22.203 9.76 3.726 15.125 6.334 17.658 8.792 2.608 2.46 2.831 2.98 2.831 6.706 0 4.694-1.043 6.482-4.992 8.94-2.235 1.417-3.8 1.715-8.717 1.715-5.44 0-6.557-.298-11.623-2.832-3.055-1.49-6.93-3.576-8.569-4.545-4.47-2.756-11.027-2.607-15.05.298-1.64 1.192-3.502 3.279-4.247 4.62-.67 1.415-2.086 3.874-3.055 5.513-2.384 3.95-2.31 4.918.596 7.526 7.004 6.333 15.721 11.474 24.438 14.529 4.098 1.49 6.334 1.713 16.318 1.713 9.537.075 12.293-.149 15.646-1.34 8.568-2.981 13.635-6.036 18.329-10.953 13.635-14.38 13.262-38.744-.745-51.932-5.96-5.663-12.666-9.016-26.152-13.188-9.016-2.831-13.337-5.364-14.455-8.568-1.043-3.055 0-6.11 2.757-7.973 4.024-2.682 7.45-2.83 13.635-.596 13.262 4.843 18.701 3.055 25.109-8.195 3.65-6.483 3.576-6.11 1.043-8.792-2.086-2.161-8.121-5.663-13.933-7.973C577.581 2.086 566.182 0 561.86.075c-2.31 0-6.705.67-9.76 1.34z"></path><path fill="#74E1B6" d="M434.75 1.64c-8.717 2.16-17.062 5.215-17.881 6.556-.224.372-1.267.745-2.235.745-.969 0-2.087.447-2.385.968-.298.522-2.607 2.534-5.14 4.396-2.46 1.938-5.589 4.694-6.855 6.11-4.173 4.768-10.58 15.349-10.58 17.435 0 .596-.522 1.937-1.118 2.98-1.937 3.65-2.831 9.388-3.13 20.266-.372 11.102.746 19.148 3.205 24.066.596 1.192 1.043 2.608 1.043 3.13 0 1.34 3.949 8.046 6.78 11.622 1.192 1.49 2.16 2.98 2.16 3.279 0 .596 5.738 6.333 6.334 6.333.298 0 2.235 1.49 4.321 3.353 2.16 1.862 4.396 3.353 5.141 3.353.67 0 1.49.372 1.714.745.67 1.117 5.737 3.576 9.09 4.396 1.564.372 5.439 1.415 8.717 2.235 7.45 2.011 18.701 2.086 25.482.298 5.14-1.416 6.63-1.043 8.12 1.713 3.428 6.408 6.781 8.494 13.412 8.494 2.608 0 4.918-.298 5.216-.67.223-.447 2.011-1.49 3.949-2.459 10.133-4.843 11.176-7.674 5.737-15.945-1.863-2.756-3.353-5.513-3.353-6.11 0-.595.968-2.309 2.16-3.8 5.589-7.152 9.836-14.23 11.922-19.818 4.992-13.635 5.14-32.783.372-44.183-.596-1.341-1.043-2.757-1.043-3.13 0-1.266-7.302-12.964-10.058-16.242-4.173-4.843-14.976-13.188-19-14.752-.596-.224-2.086-.82-3.353-1.341-4.843-2.087-7.6-2.906-11.92-3.577-6.557-1.043-23.396-1.34-26.823-.447zm22.725 28.834c6.706 2.384 9.91 4.246 13.188 7.674 3.428 3.576 7.376 9.984 8.121 13.113.224 1.118.895 3.353 1.416 4.992 1.118 3.65.894 8.941-.521 14.976-1.044 4.098-3.13 8.494-4.098 8.494-.224 0-1.49-.969-2.906-2.235-5.141-4.545-10.878-4.024-20.713 1.862-8.121 4.918-8.42 5.514-4.918 10.804s3.204 5.96-2.905 5.96c-4.47 0-5.887-.372-10.357-2.682-12.74-6.407-19.148-16.615-19.148-30.473 0-8.718 1.937-14.455 6.929-21.16 4.023-5.365 8.196-8.196 16.913-11.549 4.396-1.64 14.007-1.565 19 .224z"></path><path fill="#000234" d="M.447 2.906c-.522.82.447 3.278 2.384 6.11.67 1.117 3.279 5.215 5.737 9.164 2.46 4.023 4.992 8.047 5.588 9.015.596.969 3.13 4.992 5.588 8.941 2.46 3.949 4.992 7.972 5.589 8.941.596.969 3.576 5.737 6.556 10.58 3.055 4.843 6.706 10.804 8.27 13.262 4.843 7.824 4.843 7.675 5.29 31.666l.373 21.98 9.611.223c9.24.224 9.761.15 12.443-1.713 5.44-3.577 5.44-3.651 5.96-24.96l.373-19 2.46-4.47c1.415-2.459 2.905-4.992 3.426-5.588.447-.596 3.204-4.918 6.036-9.537 2.83-4.62 5.662-9.24 6.258-10.208.596-.968 3.13-4.992 5.588-8.94 2.459-3.95 5.067-8.122 5.737-9.165.67-1.118 1.714-2.757 2.236-3.651.521-.894 2.98-4.843 5.439-8.792 2.458-3.874 4.843-7.749 5.215-8.494a32.192 32.192 0 011.788-2.607c.522-.671.82-1.714.522-2.31-.596-1.714-24.364-1.64-28.91.074-2.83 1.043-8.79 6.408-8.79 7.898 0 .298-.97 1.937-2.162 3.725-1.117 1.789-2.905 4.62-3.874 6.334-.969 1.713-4.023 6.705-6.706 11.176-4.768 7.748-7.078 12.89-7.525 16.466-.372 2.831-1.64 1.788-3.204-2.682-1.34-3.875-12.368-23.172-20.34-35.391-2.683-4.247-3.95-5.44-7.078-6.93-3.651-1.639-4.769-1.788-16.69-1.788-7.004 0-12.964.298-13.188.67zm135.678.596c-.298.223-.522 24.662-.522 54.241 0 47.61.15 54.167 1.193 56.7 1.564 3.726 2.98 5.365 6.407 7.079 2.533 1.266 4.694 1.415 25.929 1.415 20.266 0 23.917-.149 29.728-1.49 23.545-5.215 40.681-21.83 46.195-44.853 1.862-7.75 2.086-19.149.447-25.407-.596-2.385-1.118-4.843-1.118-5.514 0-2.682-7.6-16.466-11.697-21.31-5.067-5.885-12.816-11.846-19.596-15.124-11.847-5.737-15.87-6.259-49.25-6.259-14.975 0-27.492.224-27.716.522zm58.265 26.823c7.674 2.384 15.274 8.27 19 14.901 3.501 6.184 4.32 9.537 4.246 18.03 0 8.122-.149 8.867-3.725 16.392-1.416 3.055-8.718 11.102-10.878 12.07-.82.373-2.012.97-2.608 1.342-4.694 2.757-7.302 3.204-19.745 3.576-8.195.224-13.41.075-14.678-.447l-2.086-.82V63.406c0-17.584.224-32.485.447-33.156.67-1.788 24.14-1.714 30.027.075zm79.127-26.302c-1.416.522-3.651 2.161-4.843 3.726l-2.31 2.831v38.073c0 35.019.149 38.446 1.341 42.246 2.831 8.494 5.96 13.635 11.698 19.372 7.45 7.45 14.454 11.027 25.705 13.039 26.077 4.768 49.77-7.153 57.967-29.207 3.203-8.494 3.576-15.423 3.352-54.614l-.223-36.136-13.933-.224-14.007-.149v37.254c0 35.391-.075 37.477-1.49 41.5-2.012 5.812-4.918 9.09-10.134 11.773-3.874 1.937-5.14 2.235-10.729 2.235-5.513 0-6.854-.298-10.43-2.086-4.322-2.235-5.44-3.204-7.898-6.855-3.13-4.545-3.279-6.78-3.279-44.406 0-19.82-.223-36.807-.447-37.776-.447-1.564-.745-1.639-9.164-1.564-4.843 0-9.76.447-11.176.968z"></path></g></svg>